<?xml version="1.0" encoding="utf-8" standalone="no"?>
<!DOCTYPE svg PUBLIC "-//W3C//DTD SVG 1.1//EN"
  "http://www.w3.org/Graphics/SVG/1.1/DTD/svg11.dtd">
<svg xmlns:xlink="http://www.w3.org/1999/xlink" width="514.010937pt" height="303.5675pt" viewBox="0 0 514.010937 303.5675" xmlns="http://www.w3.org/2000/svg" version="1.1">
 <metadata>
  <rdf:RDF xmlns:dc="http://purl.org/dc/elements/1.1/" xmlns:cc="http://creativecommons.org/ns#" xmlns:rdf="http://www.w3.org/1999/02/22-rdf-syntax-ns#">
   <cc:Work>
    <dc:type rdf:resource="http://purl.org/dc/dcmitype/StillImage"/>
    <dc:date>2024-04-25T19:53:22.627715</dc:date>
    <dc:format>image/svg+xml</dc:format>
    <dc:creator>
     <cc:Agent>
      <dc:title>Matplotlib v3.8.3, https://matplotlib.org/</dc:title>
     </cc:Agent>
    </dc:creator>
   </cc:Work>
  </rdf:RDF>
 </metadata>
 <defs>
  <style type="text/css">*{stroke-linejoin: round; stroke-linecap: butt}</style>
 </defs>
 <g id="figure_1">
  <g id="patch_1">
   <path d="M 0 303.5675 
L 514.010937 303.5675 
L 514.010937 0 
L 0 0 
L 0 303.5675 
z
" style="fill: none"/>
  </g>
  <g id="axes_1">
   <g id="patch_2">
    <path d="M 60.410938 106.992 
L 506.810937 106.992 
L 506.810937 7.2 
L 60.410938 7.2 
L 60.410938 106.992 
z
" style="fill: none"/>
   </g>
   <g id="axes_2">
    <g id="patch_3">
     <path d="M 60.410938 106.992 
L 506.810937 106.992 
L 506.810937 106.992 
L 60.410938 106.992 
L 60.410938 106.992 
z
" style="fill: none"/>
    </g>
    <g id="matplotlib.axis_1">
     <g id="xtick_1">
      <g id="line2d_1">
       <path d="M 96.078955 106.992 
L 96.078955 106.992 
" clip-path="url(#pf2edf7e83f)" style="fill: none; stroke-dasharray: 0.5,0.825; stroke-dashoffset: 0; stroke: #d9d9d9; stroke-width: 0.5"/>
      </g>
      <g id="text_1">
       <!-- 04-17 -->
       <g style="fill: #808080" transform="translate(85.857705 145.1995) scale(0.08 -0.08)">
        <defs>
         <path id="Ubuntu-30" d="M 320 2221 
Q 320 3334 713 3936 
Q 1107 4538 1805 4538 
Q 2502 4538 2896 3936 
Q 3290 3334 3290 2221 
Q 3290 1107 2896 505 
Q 2502 -96 1805 -96 
Q 1107 -96 713 505 
Q 320 1107 320 2221 
z
M 2662 2221 
Q 2662 2586 2620 2912 
Q 2579 3238 2480 3481 
Q 2381 3725 2214 3869 
Q 2048 4013 1805 4013 
Q 1562 4013 1395 3869 
Q 1229 3725 1129 3481 
Q 1030 3238 988 2912 
Q 947 2586 947 2221 
Q 947 1856 988 1529 
Q 1030 1203 1129 960 
Q 1229 717 1395 573 
Q 1562 429 1805 429 
Q 2048 429 2214 573 
Q 2381 717 2480 960 
Q 2579 1203 2620 1529 
Q 2662 1856 2662 2221 
z
" transform="scale(0.015625)"/>
         <path id="Ubuntu-34" d="M 256 1536 
Q 378 1818 589 2192 
Q 800 2566 1065 2963 
Q 1331 3360 1635 3744 
Q 1939 4128 2246 4435 
L 2816 4435 
L 2816 1619 
L 3341 1619 
L 3341 1133 
L 2816 1133 
L 2816 0 
L 2240 0 
L 2240 1133 
L 256 1133 
L 256 1536 
z
M 2240 3731 
Q 2048 3526 1853 3273 
Q 1658 3021 1472 2745 
Q 1286 2470 1123 2182 
Q 960 1894 832 1619 
L 2240 1619 
L 2240 3731 
z
" transform="scale(0.015625)"/>
         <path id="Ubuntu-2d" d="M 166 2195 
L 1747 2195 
L 1747 1638 
L 166 1638 
L 166 2195 
z
" transform="scale(0.015625)"/>
         <path id="Ubuntu-31" d="M 595 3520 
Q 960 3661 1305 3881 
Q 1651 4102 1939 4435 
L 2362 4435 
L 2362 0 
L 1766 0 
L 1766 3610 
Q 1690 3539 1578 3462 
Q 1466 3386 1334 3315 
Q 1203 3245 1059 3181 
Q 915 3117 781 3072 
L 595 3520 
z
" transform="scale(0.015625)"/>
         <path id="Ubuntu-37" d="M 1043 0 
Q 1082 512 1226 1078 
Q 1370 1645 1581 2179 
Q 1792 2714 2045 3171 
Q 2298 3629 2541 3917 
L 384 3917 
L 384 4435 
L 3206 4435 
L 3206 3942 
Q 2995 3699 2739 3273 
Q 2483 2848 2256 2320 
Q 2029 1792 1865 1193 
Q 1702 595 1664 0 
L 1043 0 
z
" transform="scale(0.015625)"/>
        </defs>
        <use xlink:href="#Ubuntu-30"/>
        <use xlink:href="#Ubuntu-34" x="56.399994"/>
        <use xlink:href="#Ubuntu-2d" x="112.799988"/>
        <use xlink:href="#Ubuntu-31" x="142.699982"/>
        <use xlink:href="#Ubuntu-37" x="199.099976"/>
       </g>
      </g>
     </g>
     <g id="xtick_2">
      <g id="line2d_2">
       <path d="M 158.66205 106.992 
L 158.66205 106.992 
" clip-path="url(#pf2edf7e83f)" style="fill: none; stroke-dasharray: 0.5,0.825; stroke-dashoffset: 0; stroke: #d9d9d9; stroke-width: 0.5"/>
      </g>
      <g id="text_2">
       <!-- 04-18 -->
       <g style="fill: #808080" transform="translate(148.4408 145.1995) scale(0.08 -0.08)">
        <defs>
         <path id="Ubuntu-38" d="M 3258 1152 
Q 3258 883 3165 656 
Q 3072 429 2889 259 
Q 2707 90 2432 -3 
Q 2157 -96 1798 -96 
Q 1382 -96 1104 22 
Q 826 141 659 320 
Q 493 499 422 713 
Q 352 928 352 1120 
Q 352 1306 413 1475 
Q 474 1645 573 1792 
Q 672 1939 803 2057 
Q 934 2176 1082 2266 
Q 454 2624 454 3322 
Q 454 3565 550 3785 
Q 646 4006 822 4172 
Q 998 4339 1248 4438 
Q 1498 4538 1805 4538 
Q 2163 4538 2419 4429 
Q 2675 4320 2838 4150 
Q 3002 3981 3075 3776 
Q 3149 3571 3149 3379 
Q 3149 3194 3094 3030 
Q 3040 2867 2947 2726 
Q 2854 2586 2736 2477 
Q 2618 2368 2490 2285 
Q 3245 1926 3258 1152 
z
M 954 1114 
Q 954 998 995 873 
Q 1037 749 1139 643 
Q 1242 538 1402 467 
Q 1562 397 1805 397 
Q 2022 397 2185 461 
Q 2349 525 2451 624 
Q 2554 723 2605 851 
Q 2656 979 2656 1114 
Q 2656 1318 2579 1472 
Q 2502 1626 2358 1741 
Q 2214 1856 2012 1936 
Q 1811 2016 1555 2074 
Q 1267 1914 1110 1677 
Q 954 1440 954 1114 
z
M 2554 3386 
Q 2554 3482 2512 3597 
Q 2470 3712 2380 3811 
Q 2291 3910 2150 3977 
Q 2010 4045 1805 4045 
Q 1600 4045 1456 3981 
Q 1312 3917 1222 3817 
Q 1133 3718 1091 3600 
Q 1050 3482 1050 3366 
Q 1050 3226 1101 3085 
Q 1152 2944 1261 2822 
Q 1370 2701 1546 2605 
Q 1722 2509 1965 2451 
Q 2234 2611 2394 2825 
Q 2554 3040 2554 3386 
z
" transform="scale(0.015625)"/>
        </defs>
        <use xlink:href="#Ubuntu-30"/>
        <use xlink:href="#Ubuntu-34" x="56.399994"/>
        <use xlink:href="#Ubuntu-2d" x="112.799988"/>
        <use xlink:href="#Ubuntu-31" x="142.699982"/>
        <use xlink:href="#Ubuntu-38" x="199.099976"/>
       </g>
      </g>
     </g>
     <g id="xtick_3">
      <g id="line2d_3">
       <path d="M 221.245145 106.992 
L 221.245145 106.992 
" clip-path="url(#pf2edf7e83f)" style="fill: none; stroke-dasharray: 0.5,0.825; stroke-dashoffset: 0; stroke: #d9d9d9; stroke-width: 0.5"/>
      </g>
      <g id="text_3">
       <!-- 04-19 -->
       <g style="fill: #808080" transform="translate(211.023895 145.1995) scale(0.08 -0.08)">
        <defs>
         <path id="Ubuntu-39" d="M 3206 2662 
Q 3206 1344 2550 669 
Q 1894 -6 602 -13 
L 582 486 
Q 986 486 1309 563 
Q 1632 640 1875 809 
Q 2118 979 2281 1248 
Q 2445 1517 2522 1907 
Q 2355 1830 2144 1782 
Q 1933 1734 1709 1734 
Q 1331 1734 1068 1846 
Q 806 1958 640 2147 
Q 474 2336 400 2582 
Q 326 2829 326 3098 
Q 326 3334 409 3590 
Q 493 3846 662 4057 
Q 832 4269 1094 4403 
Q 1357 4538 1715 4538 
Q 2080 4538 2358 4410 
Q 2637 4282 2825 4038 
Q 3014 3795 3110 3446 
Q 3206 3098 3206 2662 
z
M 1773 2221 
Q 1997 2221 2195 2262 
Q 2394 2304 2579 2387 
Q 2586 2458 2586 2525 
Q 2586 2592 2586 2662 
Q 2586 2938 2547 3190 
Q 2509 3443 2409 3632 
Q 2310 3821 2144 3933 
Q 1978 4045 1722 4045 
Q 1510 4045 1363 3955 
Q 1216 3866 1120 3728 
Q 1024 3590 982 3427 
Q 941 3264 941 3110 
Q 941 2675 1149 2448 
Q 1357 2221 1773 2221 
z
" transform="scale(0.015625)"/>
        </defs>
        <use xlink:href="#Ubuntu-30"/>
        <use xlink:href="#Ubuntu-34" x="56.399994"/>
        <use xlink:href="#Ubuntu-2d" x="112.799988"/>
        <use xlink:href="#Ubuntu-31" x="142.699982"/>
        <use xlink:href="#Ubuntu-39" x="199.099976"/>
       </g>
      </g>
     </g>
     <g id="xtick_4">
      <g id="line2d_4">
       <path d="M 283.82824 106.992 
L 283.82824 106.992 
" clip-path="url(#pf2edf7e83f)" style="fill: none; stroke-dasharray: 0.5,0.825; stroke-dashoffset: 0; stroke: #d9d9d9; stroke-width: 0.5"/>
      </g>
      <g id="text_4">
       <!-- 04-20 -->
       <g style="fill: #808080" transform="translate(273.60699 145.1995) scale(0.08 -0.08)">
        <defs>
         <path id="Ubuntu-32" d="M 2989 3302 
Q 2989 3072 2896 2857 
Q 2803 2643 2649 2435 
Q 2496 2227 2304 2025 
Q 2112 1824 1920 1632 
Q 1811 1523 1667 1376 
Q 1523 1229 1395 1069 
Q 1267 909 1180 761 
Q 1094 614 1094 506 
L 3136 506 
L 3136 0 
L 448 0 
Q 442 38 442 76 
Q 442 115 442 147 
Q 442 448 541 707 
Q 640 966 800 1196 
Q 960 1427 1158 1632 
Q 1357 1837 1549 2029 
Q 1709 2182 1853 2332 
Q 1997 2483 2109 2633 
Q 2221 2784 2288 2944 
Q 2355 3104 2355 3283 
Q 2355 3475 2294 3609 
Q 2234 3744 2131 3833 
Q 2029 3923 1891 3964 
Q 1754 4006 1600 4006 
Q 1414 4006 1260 3955 
Q 1107 3904 985 3837 
Q 864 3770 781 3696 
Q 698 3622 653 3584 
L 358 4006 
Q 416 4070 531 4163 
Q 646 4256 806 4339 
Q 966 4422 1164 4480 
Q 1363 4538 1594 4538 
Q 2291 4538 2640 4214 
Q 2989 3891 2989 3302 
z
" transform="scale(0.015625)"/>
        </defs>
        <use xlink:href="#Ubuntu-30"/>
        <use xlink:href="#Ubuntu-34" x="56.399994"/>
        <use xlink:href="#Ubuntu-2d" x="112.799988"/>
        <use xlink:href="#Ubuntu-32" x="142.699982"/>
        <use xlink:href="#Ubuntu-30" x="199.099976"/>
       </g>
      </g>
     </g>
     <g id="xtick_5">
      <g id="line2d_5">
       <path d="M 346.411335 106.992 
L 346.411335 106.992 
" clip-path="url(#pf2edf7e83f)" style="fill: none; stroke-dasharray: 0.5,0.825; stroke-dashoffset: 0; stroke: #d9d9d9; stroke-width: 0.5"/>
      </g>
      <g id="text_5">
       <!-- 04-21 -->
       <g style="fill: #808080" transform="translate(336.190085 145.1995) scale(0.08 -0.08)">
        <use xlink:href="#Ubuntu-30"/>
        <use xlink:href="#Ubuntu-34" x="56.399994"/>
        <use xlink:href="#Ubuntu-2d" x="112.799988"/>
        <use xlink:href="#Ubuntu-32" x="142.699982"/>
        <use xlink:href="#Ubuntu-31" x="199.099976"/>
       </g>
      </g>
     </g>
     <g id="xtick_6">
      <g id="line2d_6">
       <path d="M 408.99443 106.992 
L 408.99443 106.992 
" clip-path="url(#pf2edf7e83f)" style="fill: none; stroke-dasharray: 0.5,0.825; stroke-dashoffset: 0; stroke: #d9d9d9; stroke-width: 0.5"/>
      </g>
      <g id="text_6">
       <!-- 04-22 -->
       <g style="fill: #808080" transform="translate(398.77318 145.1995) scale(0.08 -0.08)">
        <use xlink:href="#Ubuntu-30"/>
        <use xlink:href="#Ubuntu-34" x="56.399994"/>
        <use xlink:href="#Ubuntu-2d" x="112.799988"/>
        <use xlink:href="#Ubuntu-32" x="142.699982"/>
        <use xlink:href="#Ubuntu-32" x="199.099976"/>
       </g>
      </g>
     </g>
     <g id="xtick_7">
      <g id="line2d_7">
       <path d="M 471.577524 106.992 
L 471.577524 106.992 
" clip-path="url(#pf2edf7e83f)" style="fill: none; stroke-dasharray: 0.5,0.825; stroke-dashoffset: 0; stroke: #d9d9d9; stroke-width: 0.5"/>
      </g>
      <g id="text_7">
       <!-- 04-23 -->
       <g style="fill: #808080" transform="translate(461.356274 145.1995) scale(0.08 -0.08)">
        <defs>
         <path id="Ubuntu-33" d="M 1446 435 
Q 2016 435 2262 659 
Q 2509 883 2509 1261 
Q 2509 1504 2406 1670 
Q 2304 1837 2137 1936 
Q 1971 2035 1750 2076 
Q 1530 2118 1299 2118 
L 1146 2118 
L 1146 2605 
L 1357 2605 
Q 1517 2605 1686 2637 
Q 1856 2669 1997 2752 
Q 2138 2835 2227 2979 
Q 2317 3123 2317 3341 
Q 2317 3520 2253 3648 
Q 2189 3776 2083 3859 
Q 1978 3942 1840 3977 
Q 1702 4013 1549 4013 
Q 1242 4013 1027 3923 
Q 813 3834 666 3738 
L 435 4192 
Q 512 4243 630 4304 
Q 749 4365 896 4416 
Q 1043 4467 1212 4502 
Q 1382 4538 1568 4538 
Q 1920 4538 2176 4451 
Q 2432 4365 2598 4208 
Q 2765 4051 2848 3836 
Q 2931 3622 2931 3373 
Q 2931 3027 2732 2780 
Q 2534 2534 2253 2406 
Q 2426 2355 2586 2259 
Q 2746 2163 2864 2016 
Q 2982 1869 3056 1677 
Q 3130 1485 3130 1248 
Q 3130 960 3030 713 
Q 2931 467 2723 288 
Q 2515 109 2201 6 
Q 1888 -96 1459 -96 
Q 1293 -96 1117 -70 
Q 941 -45 787 -6 
Q 634 32 518 70 
Q 403 109 352 134 
L 467 653 
Q 576 602 829 518 
Q 1082 435 1446 435 
z
" transform="scale(0.015625)"/>
        </defs>
        <use xlink:href="#Ubuntu-30"/>
        <use xlink:href="#Ubuntu-34" x="56.399994"/>
        <use xlink:href="#Ubuntu-2d" x="112.799988"/>
        <use xlink:href="#Ubuntu-32" x="142.699982"/>
        <use xlink:href="#Ubuntu-33" x="199.099976"/>
       </g>
      </g>
     </g>
    </g>
    <g id="matplotlib.axis_2"/>
   </g>
   <g id="matplotlib.axis_3">
    <g id="xtick_8">
     <g id="line2d_8">
      <defs>
       <path id="mfdf4f4101a" d="M 0 0 
L 0 3 
" style="stroke: #cccccc; stroke-width: 0.75"/>
      </defs>
      <g>
       <use xlink:href="#mfdf4f4101a" x="80.433182" y="116.992" style="fill: #cccccc; stroke: #cccccc; stroke-width: 0.75"/>
      </g>
     </g>
    </g>
    <g id="xtick_9">
     <g id="line2d_9">
      <g>
       <use xlink:href="#mfdf4f4101a" x="96.078955" y="116.992" style="fill: #cccccc; stroke: #cccccc; stroke-width: 0.75"/>
      </g>
     </g>
     <g id="text_8">
      <!-- 12 -->
      <g style="fill: #808080" transform="translate(92.130518 131.423562) scale(0.07 -0.07)">
       <use xlink:href="#Ubuntu-31"/>
       <use xlink:href="#Ubuntu-32" x="56.399994"/>
      </g>
     </g>
    </g>
    <g id="xtick_10">
     <g id="line2d_10">
      <g>
       <use xlink:href="#mfdf4f4101a" x="111.724729" y="116.992" style="fill: #cccccc; stroke: #cccccc; stroke-width: 0.75"/>
      </g>
     </g>
     <g id="text_9">
      <!-- 18 -->
      <g style="fill: #808080" transform="translate(107.776292 131.423562) scale(0.07 -0.07)">
       <use xlink:href="#Ubuntu-31"/>
       <use xlink:href="#Ubuntu-38" x="56.399994"/>
      </g>
     </g>
    </g>
    <g id="xtick_11">
     <g id="line2d_11">
      <g>
       <use xlink:href="#mfdf4f4101a" x="143.016277" y="116.992" style="fill: #cccccc; stroke: #cccccc; stroke-width: 0.75"/>
      </g>
     </g>
     <g id="text_10">
      <!-- 06 -->
      <g style="fill: #808080" transform="translate(139.067839 131.423562) scale(0.07 -0.07)">
       <defs>
        <path id="Ubuntu-36" d="M 403 1779 
Q 403 2426 582 2922 
Q 762 3418 1091 3757 
Q 1421 4096 1891 4272 
Q 2362 4448 2950 4454 
L 2995 3955 
Q 2618 3949 2307 3872 
Q 1997 3795 1753 3628 
Q 1510 3462 1344 3196 
Q 1178 2931 1094 2541 
Q 1261 2618 1469 2669 
Q 1677 2720 1901 2720 
Q 2278 2720 2540 2605 
Q 2803 2490 2969 2301 
Q 3136 2112 3209 1865 
Q 3283 1619 3283 1350 
Q 3283 1107 3200 851 
Q 3117 595 2947 384 
Q 2778 173 2515 38 
Q 2253 -96 1894 -96 
Q 1165 -96 784 403 
Q 403 902 403 1779 
z
M 1837 2234 
Q 1613 2234 1421 2192 
Q 1229 2150 1037 2067 
Q 1030 1997 1027 1923 
Q 1024 1850 1024 1779 
Q 1024 1498 1062 1248 
Q 1101 998 1200 809 
Q 1299 621 1465 509 
Q 1632 397 1888 397 
Q 2099 397 2246 486 
Q 2394 576 2490 717 
Q 2586 858 2627 1021 
Q 2669 1184 2669 1338 
Q 2669 1773 2461 2003 
Q 2253 2234 1837 2234 
z
" transform="scale(0.015625)"/>
       </defs>
       <use xlink:href="#Ubuntu-30"/>
       <use xlink:href="#Ubuntu-36" x="56.399994"/>
      </g>
     </g>
    </g>
    <g id="xtick_12">
     <g id="line2d_12">
      <g>
       <use xlink:href="#mfdf4f4101a" x="158.66205" y="116.992" style="fill: #cccccc; stroke: #cccccc; stroke-width: 0.75"/>
      </g>
     </g>
     <g id="text_11">
      <!-- 12 -->
      <g style="fill: #808080" transform="translate(154.713613 131.423562) scale(0.07 -0.07)">
       <use xlink:href="#Ubuntu-31"/>
       <use xlink:href="#Ubuntu-32" x="56.399994"/>
      </g>
     </g>
    </g>
    <g id="xtick_13">
     <g id="line2d_13">
      <g>
       <use xlink:href="#mfdf4f4101a" x="174.307824" y="116.992" style="fill: #cccccc; stroke: #cccccc; stroke-width: 0.75"/>
      </g>
     </g>
     <g id="text_12">
      <!-- 18 -->
      <g style="fill: #808080" transform="translate(170.359387 131.423562) scale(0.07 -0.07)">
       <use xlink:href="#Ubuntu-31"/>
       <use xlink:href="#Ubuntu-38" x="56.399994"/>
      </g>
     </g>
    </g>
    <g id="xtick_14">
     <g id="line2d_14">
      <g>
       <use xlink:href="#mfdf4f4101a" x="205.599371" y="116.992" style="fill: #cccccc; stroke: #cccccc; stroke-width: 0.75"/>
      </g>
     </g>
     <g id="text_13">
      <!-- 06 -->
      <g style="fill: #808080" transform="translate(201.650934 131.423562) scale(0.07 -0.07)">
       <use xlink:href="#Ubuntu-30"/>
       <use xlink:href="#Ubuntu-36" x="56.399994"/>
      </g>
     </g>
    </g>
    <g id="xtick_15">
     <g id="line2d_15">
      <g>
       <use xlink:href="#mfdf4f4101a" x="221.245145" y="116.992" style="fill: #cccccc; stroke: #cccccc; stroke-width: 0.75"/>
      </g>
     </g>
     <g id="text_14">
      <!-- 12 -->
      <g style="fill: #808080" transform="translate(217.296708 131.423562) scale(0.07 -0.07)">
       <use xlink:href="#Ubuntu-31"/>
       <use xlink:href="#Ubuntu-32" x="56.399994"/>
      </g>
     </g>
    </g>
    <g id="xtick_16">
     <g id="line2d_16">
      <g>
       <use xlink:href="#mfdf4f4101a" x="236.890919" y="116.992" style="fill: #cccccc; stroke: #cccccc; stroke-width: 0.75"/>
      </g>
     </g>
     <g id="text_15">
      <!-- 18 -->
      <g style="fill: #808080" transform="translate(232.942481 131.423562) scale(0.07 -0.07)">
       <use xlink:href="#Ubuntu-31"/>
       <use xlink:href="#Ubuntu-38" x="56.399994"/>
      </g>
     </g>
    </g>
    <g id="xtick_17">
     <g id="line2d_17">
      <g>
       <use xlink:href="#mfdf4f4101a" x="268.182466" y="116.992" style="fill: #cccccc; stroke: #cccccc; stroke-width: 0.75"/>
      </g>
     </g>
     <g id="text_16">
      <!-- 06 -->
      <g style="fill: #808080" transform="translate(264.234029 131.423562) scale(0.07 -0.07)">
       <use xlink:href="#Ubuntu-30"/>
       <use xlink:href="#Ubuntu-36" x="56.399994"/>
      </g>
     </g>
    </g>
    <g id="xtick_18">
     <g id="line2d_18">
      <g>
       <use xlink:href="#mfdf4f4101a" x="283.82824" y="116.992" style="fill: #cccccc; stroke: #cccccc; stroke-width: 0.75"/>
      </g>
     </g>
     <g id="text_17">
      <!-- 12 -->
      <g style="fill: #808080" transform="translate(279.879802 131.423562) scale(0.07 -0.07)">
       <use xlink:href="#Ubuntu-31"/>
       <use xlink:href="#Ubuntu-32" x="56.399994"/>
      </g>
     </g>
    </g>
    <g id="xtick_19">
     <g id="line2d_19">
      <g>
       <use xlink:href="#mfdf4f4101a" x="299.474014" y="116.992" style="fill: #cccccc; stroke: #cccccc; stroke-width: 0.75"/>
      </g>
     </g>
     <g id="text_18">
      <!-- 18 -->
      <g style="fill: #808080" transform="translate(295.525576 131.423562) scale(0.07 -0.07)">
       <use xlink:href="#Ubuntu-31"/>
       <use xlink:href="#Ubuntu-38" x="56.399994"/>
      </g>
     </g>
    </g>
    <g id="xtick_20">
     <g id="line2d_20">
      <g>
       <use xlink:href="#mfdf4f4101a" x="330.765561" y="116.992" style="fill: #cccccc; stroke: #cccccc; stroke-width: 0.75"/>
      </g>
     </g>
     <g id="text_19">
      <!-- 06 -->
      <g style="fill: #808080" transform="translate(326.817124 131.423562) scale(0.07 -0.07)">
       <use xlink:href="#Ubuntu-30"/>
       <use xlink:href="#Ubuntu-36" x="56.399994"/>
      </g>
     </g>
    </g>
    <g id="xtick_21">
     <g id="line2d_21">
      <g>
       <use xlink:href="#mfdf4f4101a" x="346.411335" y="116.992" style="fill: #cccccc; stroke: #cccccc; stroke-width: 0.75"/>
      </g>
     </g>
     <g id="text_20">
      <!-- 12 -->
      <g style="fill: #808080" transform="translate(342.462897 131.423562) scale(0.07 -0.07)">
       <use xlink:href="#Ubuntu-31"/>
       <use xlink:href="#Ubuntu-32" x="56.399994"/>
      </g>
     </g>
    </g>
    <g id="xtick_22">
     <g id="line2d_22">
      <g>
       <use xlink:href="#mfdf4f4101a" x="362.057108" y="116.992" style="fill: #cccccc; stroke: #cccccc; stroke-width: 0.75"/>
      </g>
     </g>
     <g id="text_21">
      <!-- 18 -->
      <g style="fill: #808080" transform="translate(358.108671 131.423562) scale(0.07 -0.07)">
       <use xlink:href="#Ubuntu-31"/>
       <use xlink:href="#Ubuntu-38" x="56.399994"/>
      </g>
     </g>
    </g>
    <g id="xtick_23">
     <g id="line2d_23">
      <g>
       <use xlink:href="#mfdf4f4101a" x="393.348656" y="116.992" style="fill: #cccccc; stroke: #cccccc; stroke-width: 0.75"/>
      </g>
     </g>
     <g id="text_22">
      <!-- 06 -->
      <g style="fill: #808080" transform="translate(389.400218 131.423562) scale(0.07 -0.07)">
       <use xlink:href="#Ubuntu-30"/>
       <use xlink:href="#Ubuntu-36" x="56.399994"/>
      </g>
     </g>
    </g>
    <g id="xtick_24">
     <g id="line2d_24">
      <g>
       <use xlink:href="#mfdf4f4101a" x="408.99443" y="116.992" style="fill: #cccccc; stroke: #cccccc; stroke-width: 0.75"/>
      </g>
     </g>
     <g id="text_23">
      <!-- 12 -->
      <g style="fill: #808080" transform="translate(405.045992 131.423562) scale(0.07 -0.07)">
       <use xlink:href="#Ubuntu-31"/>
       <use xlink:href="#Ubuntu-32" x="56.399994"/>
      </g>
     </g>
    </g>
    <g id="xtick_25">
     <g id="line2d_25">
      <g>
       <use xlink:href="#mfdf4f4101a" x="424.640203" y="116.992" style="fill: #cccccc; stroke: #cccccc; stroke-width: 0.75"/>
      </g>
     </g>
     <g id="text_24">
      <!-- 18 -->
      <g style="fill: #808080" transform="translate(420.691766 131.423562) scale(0.07 -0.07)">
       <use xlink:href="#Ubuntu-31"/>
       <use xlink:href="#Ubuntu-38" x="56.399994"/>
      </g>
     </g>
    </g>
    <g id="xtick_26">
     <g id="line2d_26">
      <g>
       <use xlink:href="#mfdf4f4101a" x="455.931751" y="116.992" style="fill: #cccccc; stroke: #cccccc; stroke-width: 0.75"/>
      </g>
     </g>
     <g id="text_25">
      <!-- 06 -->
      <g style="fill: #808080" transform="translate(451.983313 131.423562) scale(0.07 -0.07)">
       <use xlink:href="#Ubuntu-30"/>
       <use xlink:href="#Ubuntu-36" x="56.399994"/>
      </g>
     </g>
    </g>
    <g id="xtick_27">
     <g id="line2d_27">
      <g>
       <use xlink:href="#mfdf4f4101a" x="471.577524" y="116.992" style="fill: #cccccc; stroke: #cccccc; stroke-width: 0.75"/>
      </g>
     </g>
     <g id="text_26">
      <!-- 12 -->
      <g style="fill: #808080" transform="translate(467.629087 131.423562) scale(0.07 -0.07)">
       <use xlink:href="#Ubuntu-31"/>
       <use xlink:href="#Ubuntu-32" x="56.399994"/>
      </g>
     </g>
    </g>
    <g id="xtick_28">
     <g id="line2d_28">
      <g>
       <use xlink:href="#mfdf4f4101a" x="487.223298" y="116.992" style="fill: #cccccc; stroke: #cccccc; stroke-width: 0.75"/>
      </g>
     </g>
    </g>
   </g>
   <g id="matplotlib.axis_4">
    <g id="ytick_1">
     <g id="line2d_29">
      <defs>
       <path id="m217d2a8775" d="M 0 0 
L -3 0 
" style="stroke: #cccccc; stroke-width: 0.75"/>
      </defs>
      <g>
       <use xlink:href="#m217d2a8775" x="55.410938" y="106.992" style="fill: #cccccc; stroke: #cccccc; stroke-width: 0.75"/>
      </g>
     </g>
     <g id="text_27">
      <!-- 0.00 -->
      <g style="fill: #808080" transform="translate(30.905938 110.09575) scale(0.08 -0.08)">
       <defs>
        <path id="Ubuntu-2e" d="M 1216 346 
Q 1216 173 1101 45 
Q 986 -83 787 -83 
Q 589 -83 473 45 
Q 358 173 358 346 
Q 358 518 473 646 
Q 589 774 787 774 
Q 986 774 1101 646 
Q 1216 518 1216 346 
z
" transform="scale(0.015625)"/>
       </defs>
       <use xlink:href="#Ubuntu-30"/>
       <use xlink:href="#Ubuntu-2e" x="56.399994"/>
       <use xlink:href="#Ubuntu-30" x="80.999985"/>
       <use xlink:href="#Ubuntu-30" x="137.399979"/>
      </g>
     </g>
    </g>
    <g id="ytick_2">
     <g id="line2d_30">
      <g>
       <use xlink:href="#m217d2a8775" x="55.410938" y="90.896516" style="fill: #cccccc; stroke: #cccccc; stroke-width: 0.75"/>
      </g>
     </g>
     <g id="text_28">
      <!-- 0.05 -->
      <g style="fill: #808080" transform="translate(30.905938 94.000266) scale(0.08 -0.08)">
       <defs>
        <path id="Ubuntu-35" d="M 1274 2726 
Q 2240 2688 2691 2304 
Q 3142 1920 3142 1261 
Q 3142 966 3043 716 
Q 2944 467 2742 288 
Q 2541 109 2233 6 
Q 1926 -96 1504 -96 
Q 1338 -96 1165 -70 
Q 992 -45 845 -6 
Q 698 32 582 70 
Q 467 109 416 134 
L 531 653 
Q 640 602 886 518 
Q 1133 435 1491 435 
Q 1779 435 1974 499 
Q 2170 563 2291 672 
Q 2413 781 2467 925 
Q 2522 1069 2522 1229 
Q 2522 1472 2438 1661 
Q 2355 1850 2144 1978 
Q 1933 2106 1581 2173 
Q 1229 2240 691 2240 
Q 730 2554 752 2829 
Q 774 3104 793 3366 
Q 813 3629 825 3888 
Q 838 4147 851 4435 
L 2989 4435 
L 2989 3930 
L 1370 3930 
Q 1363 3834 1350 3670 
Q 1338 3507 1325 3331 
Q 1312 3155 1299 2988 
Q 1286 2822 1274 2726 
z
" transform="scale(0.015625)"/>
       </defs>
       <use xlink:href="#Ubuntu-30"/>
       <use xlink:href="#Ubuntu-2e" x="56.399994"/>
       <use xlink:href="#Ubuntu-30" x="80.999985"/>
       <use xlink:href="#Ubuntu-35" x="137.399979"/>
      </g>
     </g>
    </g>
    <g id="ytick_3">
     <g id="line2d_31">
      <g>
       <use xlink:href="#m217d2a8775" x="55.410938" y="74.801032" style="fill: #cccccc; stroke: #cccccc; stroke-width: 0.75"/>
      </g>
     </g>
     <g id="text_29">
      <!-- 0.10 -->
      <g style="fill: #808080" transform="translate(30.905938 77.904782) scale(0.08 -0.08)">
       <use xlink:href="#Ubuntu-30"/>
       <use xlink:href="#Ubuntu-2e" x="56.399994"/>
       <use xlink:href="#Ubuntu-31" x="80.999985"/>
       <use xlink:href="#Ubuntu-30" x="137.399979"/>
      </g>
     </g>
    </g>
    <g id="ytick_4">
     <g id="line2d_32">
      <g>
       <use xlink:href="#m217d2a8775" x="55.410938" y="58.705548" style="fill: #cccccc; stroke: #cccccc; stroke-width: 0.75"/>
      </g>
     </g>
     <g id="text_30">
      <!-- 0.15 -->
      <g style="fill: #808080" transform="translate(30.905938 61.809298) scale(0.08 -0.08)">
       <use xlink:href="#Ubuntu-30"/>
       <use xlink:href="#Ubuntu-2e" x="56.399994"/>
       <use xlink:href="#Ubuntu-31" x="80.999985"/>
       <use xlink:href="#Ubuntu-35" x="137.399979"/>
      </g>
     </g>
    </g>
    <g id="ytick_5">
     <g id="line2d_33">
      <g>
       <use xlink:href="#m217d2a8775" x="55.410938" y="42.610065" style="fill: #cccccc; stroke: #cccccc; stroke-width: 0.75"/>
      </g>
     </g>
     <g id="text_31">
      <!-- 0.20 -->
      <g style="fill: #808080" transform="translate(30.905938 45.713815) scale(0.08 -0.08)">
       <use xlink:href="#Ubuntu-30"/>
       <use xlink:href="#Ubuntu-2e" x="56.399994"/>
       <use xlink:href="#Ubuntu-32" x="80.999985"/>
       <use xlink:href="#Ubuntu-30" x="137.399979"/>
      </g>
     </g>
    </g>
    <g id="ytick_6">
     <g id="line2d_34">
      <g>
       <use xlink:href="#m217d2a8775" x="55.410938" y="26.514581" style="fill: #cccccc; stroke: #cccccc; stroke-width: 0.75"/>
      </g>
     </g>
     <g id="text_32">
      <!-- 0.25 -->
      <g style="fill: #808080" transform="translate(30.905938 29.618331) scale(0.08 -0.08)">
       <use xlink:href="#Ubuntu-30"/>
       <use xlink:href="#Ubuntu-2e" x="56.399994"/>
       <use xlink:href="#Ubuntu-32" x="80.999985"/>
       <use xlink:href="#Ubuntu-35" x="137.399979"/>
      </g>
     </g>
    </g>
    <g id="ytick_7">
     <g id="line2d_35">
      <g>
       <use xlink:href="#m217d2a8775" x="55.410938" y="10.419097" style="fill: #cccccc; stroke: #cccccc; stroke-width: 0.75"/>
      </g>
     </g>
     <g id="text_33">
      <!-- 0.30 -->
      <g style="fill: #808080" transform="translate(30.905938 13.522847) scale(0.08 -0.08)">
       <use xlink:href="#Ubuntu-30"/>
       <use xlink:href="#Ubuntu-2e" x="56.399994"/>
       <use xlink:href="#Ubuntu-33" x="80.999985"/>
       <use xlink:href="#Ubuntu-30" x="137.399979"/>
      </g>
     </g>
    </g>
    <g id="text_34">
     <!-- Volatility -->
     <g style="fill: #505050" transform="translate(21.240937 47.674688) rotate(-90) scale(0.09 -0.09)">
      <defs>
       <path id="Ubuntu-Bold-56" d="M 1830 0 
Q 1568 557 1312 1158 
Q 1056 1760 825 2349 
Q 595 2938 400 3475 
Q 205 4013 64 4435 
L 1165 4435 
Q 1293 4051 1443 3606 
Q 1594 3162 1750 2720 
Q 1907 2278 2054 1875 
Q 2202 1472 2330 1178 
Q 2451 1472 2601 1875 
Q 2752 2278 2909 2720 
Q 3066 3162 3216 3606 
Q 3366 4051 3494 4435 
L 4557 4435 
Q 4410 4013 4218 3475 
Q 4026 2938 3795 2349 
Q 3565 1760 3309 1158 
Q 3053 557 2790 0 
L 1830 0 
z
" transform="scale(0.015625)"/>
       <path id="Ubuntu-Bold-6f" d="M 3597 1690 
Q 3597 1293 3481 963 
Q 3366 634 3148 400 
Q 2931 166 2627 38 
Q 2323 -90 1946 -90 
Q 1574 -90 1270 38 
Q 966 166 748 400 
Q 531 634 409 963 
Q 288 1293 288 1690 
Q 288 2086 413 2412 
Q 538 2739 758 2969 
Q 979 3200 1283 3328 
Q 1587 3456 1946 3456 
Q 2310 3456 2614 3328 
Q 2918 3200 3136 2969 
Q 3354 2739 3475 2412 
Q 3597 2086 3597 1690 
z
M 2624 1690 
Q 2624 2131 2448 2384 
Q 2272 2637 1946 2637 
Q 1619 2637 1440 2384 
Q 1261 2131 1261 1690 
Q 1261 1248 1440 989 
Q 1619 730 1946 730 
Q 2272 730 2448 989 
Q 2624 1248 2624 1690 
z
" transform="scale(0.015625)"/>
       <path id="Ubuntu-Bold-6c" d="M 1792 -64 
Q 1376 -58 1117 25 
Q 858 109 707 259 
Q 557 410 502 624 
Q 448 838 448 1107 
L 448 4813 
L 1402 4966 
L 1402 1299 
Q 1402 1171 1421 1068 
Q 1440 966 1494 896 
Q 1549 826 1651 781 
Q 1754 736 1926 723 
L 1792 -64 
z
" transform="scale(0.015625)"/>
       <path id="Ubuntu-Bold-61" d="M 1734 666 
Q 1875 666 2003 672 
Q 2131 678 2208 691 
L 2208 1414 
Q 2150 1427 2035 1440 
Q 1920 1453 1824 1453 
Q 1690 1453 1571 1437 
Q 1453 1421 1363 1376 
Q 1274 1331 1222 1254 
Q 1171 1178 1171 1062 
Q 1171 838 1321 752 
Q 1472 666 1734 666 
z
M 1658 3456 
Q 2080 3456 2361 3360 
Q 2643 3264 2812 3085 
Q 2982 2906 3052 2650 
Q 3123 2394 3123 2080 
L 3123 96 
Q 2918 51 2553 -9 
Q 2189 -70 1670 -70 
Q 1344 -70 1078 -12 
Q 813 45 621 176 
Q 429 307 326 518 
Q 224 730 224 1037 
Q 224 1331 342 1536 
Q 461 1741 659 1862 
Q 858 1984 1114 2038 
Q 1370 2093 1645 2093 
Q 1830 2093 1974 2077 
Q 2118 2061 2208 2035 
L 2208 2125 
Q 2208 2368 2061 2515 
Q 1914 2662 1549 2662 
Q 1306 2662 1069 2627 
Q 832 2592 659 2528 
L 538 3296 
Q 621 3322 745 3350 
Q 870 3379 1017 3401 
Q 1165 3424 1328 3440 
Q 1491 3456 1658 3456 
z
" transform="scale(0.015625)"/>
       <path id="Ubuntu-Bold-74" d="M 416 4205 
L 1370 4358 
L 1370 3366 
L 2515 3366 
L 2515 2573 
L 1370 2573 
L 1370 1389 
Q 1370 1088 1475 909 
Q 1581 730 1901 730 
Q 2054 730 2217 758 
Q 2381 787 2515 838 
L 2650 96 
Q 2477 26 2265 -25 
Q 2054 -77 1747 -77 
Q 1357 -77 1101 28 
Q 845 134 691 323 
Q 538 512 477 781 
Q 416 1050 416 1376 
L 416 4205 
z
" transform="scale(0.015625)"/>
       <path id="Ubuntu-Bold-69" d="M 1402 0 
L 448 0 
L 448 3366 
L 1402 3366 
L 1402 0 
z
M 1491 4339 
Q 1491 4077 1321 3926 
Q 1152 3776 922 3776 
Q 691 3776 521 3926 
Q 352 4077 352 4339 
Q 352 4602 521 4752 
Q 691 4902 922 4902 
Q 1152 4902 1321 4752 
Q 1491 4602 1491 4339 
z
" transform="scale(0.015625)"/>
       <path id="Ubuntu-Bold-79" d="M 3437 3366 
Q 3149 2394 2835 1542 
Q 2522 691 2150 -109 
Q 2016 -397 1881 -598 
Q 1747 -800 1587 -931 
Q 1427 -1062 1225 -1123 
Q 1024 -1184 755 -1184 
Q 531 -1184 342 -1142 
Q 154 -1101 32 -1050 
L 198 -288 
Q 346 -339 461 -358 
Q 576 -378 704 -378 
Q 960 -378 1097 -240 
Q 1235 -102 1331 141 
Q 1005 781 678 1577 
Q 352 2374 64 3366 
L 1075 3366 
Q 1139 3117 1225 2825 
Q 1312 2534 1408 2236 
Q 1504 1939 1603 1657 
Q 1702 1376 1792 1146 
Q 1875 1376 1964 1657 
Q 2054 1939 2140 2236 
Q 2227 2534 2307 2825 
Q 2387 3117 2451 3366 
L 3437 3366 
z
" transform="scale(0.015625)"/>
      </defs>
      <use xlink:href="#Ubuntu-Bold-56"/>
      <use xlink:href="#Ubuntu-Bold-6f" x="66.699982"/>
      <use xlink:href="#Ubuntu-Bold-6c" x="127.399979"/>
      <use xlink:href="#Ubuntu-Bold-61" x="160.499969"/>
      <use xlink:href="#Ubuntu-Bold-74" x="215.799957"/>
      <use xlink:href="#Ubuntu-Bold-69" x="260.199951"/>
      <use xlink:href="#Ubuntu-Bold-6c" x="289.099945"/>
      <use xlink:href="#Ubuntu-Bold-69" x="320.699936"/>
      <use xlink:href="#Ubuntu-Bold-74" x="349.59993"/>
      <use xlink:href="#Ubuntu-Bold-79" x="394.999924"/>
     </g>
    </g>
   </g>
   <g id="line2d_36">
    <path d="M 64.787408 106.605112 
L 65.656618 106.871903 
L 66.091223 106.903698 
L 66.525827 106.804662 
L 67.395037 106.960294 
L 68.264247 106.851739 
L 69.133456 106.949214 
L 70.437271 106.991664 
L 73.0449 106.987779 
L 75.217924 106.96175 
L 75.652529 106.752321 
L 76.087134 106.988184 
L 77.825553 106.9216 
L 78.260158 106.950259 
L 78.694762 106.212308 
L 79.129367 106.930993 
L 79.998577 106.992 
L 80.433182 106.633127 
L 80.867787 106.534589 
L 81.302391 106.957324 
L 82.606206 106.990598 
L 83.040811 106.585255 
L 83.475416 106.810799 
L 83.91002 106.71954 
L 84.344625 106.952903 
L 85.64844 106.868352 
L 86.517649 106.867349 
L 86.952254 106.950139 
L 87.386859 106.869414 
L 87.821464 106.975168 
L 91.298302 106.899384 
L 91.732907 106.968606 
L 92.167512 106.869868 
L 92.602117 106.989323 
L 93.905931 106.970248 
L 94.340536 106.752167 
L 94.775141 106.989547 
L 106.074866 106.987712 
L 106.509471 106.915808 
L 107.378681 106.980518 
L 112.593939 106.96014 
L 113.028544 106.637188 
L 113.463148 106.708792 
L 113.897753 106.070685 
L 114.332358 104.431099 
L 114.766963 105.335831 
L 115.201568 106.770808 
L 115.636173 106.987983 
L 117.809197 106.975719 
L 120.851431 106.938512 
L 122.58985 106.822348 
L 123.024455 106.706862 
L 124.328269 106.836827 
L 124.762874 106.504038 
L 125.197479 106.85269 
L 126.935898 106.733455 
L 127.805108 106.800501 
L 128.239713 106.969645 
L 129.108922 106.861852 
L 129.543527 106.774526 
L 130.412737 106.959901 
L 137.801019 106.931409 
L 138.235624 106.628924 
L 138.670228 106.977161 
L 139.539438 106.929965 
L 140.408648 106.989068 
L 140.843252 106.940784 
L 141.277857 106.55627 
L 141.712462 106.854203 
L 142.581672 106.991127 
L 143.016277 106.931593 
L 143.450881 106.606743 
L 144.320091 106.989899 
L 145.623906 106.929903 
L 146.05851 106.732142 
L 146.493115 106.916708 
L 148.666139 106.866113 
L 149.100744 106.719634 
L 149.535349 106.952088 
L 150.404559 106.962337 
L 150.839163 106.974176 
L 151.273768 106.748683 
L 151.708373 106.991179 
L 152.142978 106.760792 
L 153.012188 106.952167 
L 153.446792 106.88526 
L 153.881397 106.985565 
L 154.316002 106.862854 
L 154.750607 106.991617 
L 155.185212 106.981127 
L 155.619817 106.799099 
L 156.054421 106.983975 
L 156.489026 106.981623 
L 156.923631 106.82783 
L 157.358236 106.991042 
L 159.965865 106.983219 
L 160.40047 106.720312 
L 160.835074 106.962802 
L 164.311913 106.981637 
L 165.181123 106.961327 
L 166.919542 106.990424 
L 174.742429 106.933697 
L 176.046243 106.713729 
L 176.480848 106.317711 
L 176.915453 104.562704 
L 177.350058 105.292429 
L 177.784663 106.893423 
L 179.088477 106.990813 
L 184.303735 106.916436 
L 184.73834 106.80754 
L 185.172945 106.959055 
L 185.607549 106.713359 
L 188.215178 106.636433 
L 188.649783 106.512888 
L 189.518993 106.851825 
L 191.257412 106.818367 
L 191.692017 106.942936 
L 193.430436 106.895105 
L 194.299646 106.938722 
L 195.60346 106.990688 
L 200.384114 106.857102 
L 200.818718 106.606538 
L 201.253323 106.958644 
L 203.426347 106.875627 
L 203.860952 106.33869 
L 204.295557 106.991613 
L 205.599371 106.945729 
L 206.033976 106.850016 
L 207.337791 106.986382 
L 207.772396 106.983295 
L 208.207 106.456828 
L 209.07621 106.908257 
L 209.510815 106.834406 
L 210.380024 106.846408 
L 210.814629 106.515371 
L 211.249234 106.507463 
L 211.683839 106.896709 
L 213.422258 106.989421 
L 214.726073 106.865673 
L 215.160678 106.792989 
L 216.029887 106.980457 
L 216.899097 106.919606 
L 217.768307 106.989361 
L 221.245145 106.935699 
L 222.54896 106.989582 
L 231.241056 106.98987 
L 231.675661 106.882742 
L 232.544871 106.985384 
L 236.890919 106.991958 
L 237.325524 106.823666 
L 237.760128 106.886563 
L 239.063943 106.707239 
L 239.498548 105.557615 
L 239.933153 105.906758 
L 240.367757 106.853313 
L 241.236967 106.991605 
L 246.01762 106.94308 
L 246.452225 106.864382 
L 247.321435 106.895953 
L 247.756039 106.76823 
L 248.190644 106.79365 
L 248.625249 106.550715 
L 249.059854 106.885437 
L 249.494459 106.574481 
L 249.929064 106.568493 
L 250.363668 106.816719 
L 251.667483 106.808179 
L 252.102088 106.847841 
L 252.536693 106.640061 
L 252.971297 106.916209 
L 253.405902 106.812747 
L 254.709717 106.957235 
L 255.144321 106.850006 
L 256.013531 106.991921 
L 261.663394 106.95345 
L 262.532603 106.972874 
L 262.967208 106.911554 
L 263.401813 106.659712 
L 263.836418 106.972505 
L 264.705628 106.843643 
L 265.574837 106.938154 
L 266.444047 106.492931 
L 266.878652 106.989463 
L 268.182466 106.912076 
L 268.617071 106.479794 
L 269.486281 106.977319 
L 270.35549 106.99165 
L 270.790095 106.401766 
L 271.2247 106.773735 
L 271.659305 106.95489 
L 272.09391 106.987197 
L 272.528514 106.817732 
L 273.397724 106.920556 
L 273.832329 106.696941 
L 274.266934 106.651936 
L 274.701539 106.886408 
L 275.570748 106.953679 
L 278.178377 106.885088 
L 278.612982 106.991253 
L 279.047587 106.839869 
L 279.916796 106.957661 
L 283.82824 106.819994 
L 284.262845 14.86049 
L 284.69745 105.899381 
L 285.132054 20.924727 
L 285.566659 106.978687 
L 286.001264 106.833473 
L 287.739683 106.991931 
L 294.258756 106.87664 
L 295.127965 106.990116 
L 299.908618 106.944894 
L 300.343223 106.781941 
L 300.777828 106.970214 
L 301.212433 104.776738 
L 301.647038 103.702454 
L 302.081643 106.712578 
L 302.516247 97.541111 
L 302.950852 106.989688 
L 306.427691 106.985007 
L 306.862296 106.867074 
L 308.16611 106.955371 
L 308.600715 106.903283 
L 309.03532 106.963569 
L 310.339134 106.806175 
L 311.642949 106.67628 
L 312.077554 106.870873 
L 312.946763 106.74695 
L 313.381368 106.670101 
L 313.815973 106.963593 
L 314.250578 106.755688 
L 314.685182 106.742343 
L 315.119787 106.862559 
L 316.858207 106.878635 
L 317.727416 106.899229 
L 323.811884 106.99176 
L 324.681093 106.991896 
L 325.115698 106.982621 
L 325.550303 106.858759 
L 326.854118 106.990425 
L 327.723327 106.951314 
L 328.157932 106.963675 
L 329.027142 106.57557 
L 329.461747 106.970053 
L 330.330956 106.968106 
L 331.200166 106.222092 
L 331.634771 106.941009 
L 333.37319 106.944205 
L 333.807795 106.751032 
L 334.2424 106.429253 
L 334.677004 106.355153 
L 335.111609 106.859171 
L 335.546214 106.97948 
L 337.284633 106.88394 
L 338.153843 105.828178 
L 338.588448 105.978368 
L 339.023053 105.402346 
L 339.457658 106.93467 
L 339.892262 106.718497 
L 340.326867 106.743019 
L 340.761472 106.974037 
L 341.196077 106.901071 
L 342.499891 106.969483 
L 345.542125 106.957339 
L 346.411335 106.913478 
L 347.715149 106.871668 
L 349.018964 106.991992 
L 351.191988 106.991472 
L 356.841851 106.921359 
L 357.276455 106.13316 
L 357.71106 106.819135 
L 358.145665 106.987328 
L 359.449479 106.96444 
L 359.884084 106.449357 
L 360.318689 106.951554 
L 360.753294 106.983895 
L 361.187899 106.727562 
L 361.622504 106.988245 
L 363.360923 106.887367 
L 363.795528 106.961195 
L 364.230133 106.900387 
L 364.664737 105.452609 
L 365.099342 105.619592 
L 365.533947 106.919584 
L 366.403157 106.989163 
L 369.879995 106.915191 
L 373.791439 106.845637 
L 374.226044 106.52507 
L 374.660648 106.818955 
L 375.095253 106.655802 
L 375.964463 106.776971 
L 376.833672 106.755407 
L 377.702882 106.901384 
L 378.572092 106.931298 
L 379.441301 106.755668 
L 379.875906 106.916239 
L 380.310511 106.817984 
L 380.745116 106.959413 
L 382.483535 106.990328 
L 384.656559 106.983012 
L 385.960374 106.979793 
L 386.394979 106.834972 
L 386.829583 106.982378 
L 387.698793 106.990253 
L 388.133398 106.430225 
L 388.568003 106.99198 
L 389.002608 106.736885 
L 389.437212 106.963041 
L 390.741027 106.870595 
L 391.175632 106.705313 
L 391.610237 106.264494 
L 392.044841 106.990224 
L 392.479446 106.974575 
L 392.914051 106.83706 
L 393.348656 106.859224 
L 393.783261 106.696399 
L 394.65247 106.962322 
L 396.825494 106.809211 
L 397.260099 106.909061 
L 397.694704 106.7365 
L 398.129309 106.913449 
L 398.563914 106.59658 
L 399.433123 106.829478 
L 399.867728 106.634819 
L 400.302333 106.89635 
L 401.606148 106.855641 
L 402.040752 106.719291 
L 402.475357 106.933024 
L 402.909962 106.961293 
L 403.344567 106.670898 
L 404.648381 106.926687 
L 408.99443 106.99177 
L 409.863639 106.985903 
L 411.602058 106.953668 
L 412.036663 106.89634 
L 412.905873 106.980578 
L 414.209687 106.947663 
L 415.513502 106.951943 
L 415.948107 106.848598 
L 416.382712 106.983281 
L 420.72876 106.990402 
L 421.163365 105.839414 
L 421.597969 106.826706 
L 422.032574 106.991529 
L 422.901784 106.96313 
L 423.336389 106.831123 
L 423.770994 106.435309 
L 424.205598 106.770323 
L 424.640203 106.916225 
L 425.944018 106.798579 
L 426.378623 106.907776 
L 426.813227 106.745175 
L 427.247832 106.197064 
L 427.682437 106.092041 
L 428.117042 106.874268 
L 428.551647 106.991894 
L 432.46309 106.918056 
L 432.897695 106.989672 
L 433.3323 106.877298 
L 433.766905 106.967614 
L 434.636114 106.957648 
L 438.982162 106.901747 
L 439.416767 106.575945 
L 440.720582 106.59711 
L 441.155187 106.77511 
L 442.459001 106.884111 
L 445.501235 106.974149 
L 445.93584 106.34741 
L 446.370444 106.928678 
L 447.239654 106.968393 
L 448.978073 106.918699 
L 449.412678 106.67943 
L 449.847283 106.608326 
L 450.281888 106.974297 
L 450.716493 106.626585 
L 451.151098 106.980312 
L 453.324122 106.850898 
L 453.758727 106.378404 
L 454.627936 106.74521 
L 455.497146 106.933294 
L 456.366355 106.973538 
L 456.80096 106.705555 
L 457.235565 106.942006 
L 457.67017 106.98972 
L 458.53938 106.921788 
L 458.973984 106.961696 
L 459.408589 106.856722 
L 460.277799 106.978283 
L 460.712404 106.90247 
L 461.147009 106.48225 
L 462.016218 106.773716 
L 462.450823 106.721917 
L 462.885428 106.949219 
L 463.320033 106.92606 
L 463.754637 106.730862 
L 464.189242 106.682726 
L 465.058452 106.911128 
L 465.493057 106.701825 
L 466.796871 106.786578 
L 467.231476 106.951204 
L 468.100686 106.816965 
L 468.535291 106.965492 
L 472.446734 106.91746 
L 473.315944 106.9919 
L 476.792782 106.972656 
L 481.13883 106.987583 
L 482.00804 106.957651 
L 485.919484 106.991948 
L 486.354088 106.910534 
L 487.223298 106.982243 
L 488.961717 106.836159 
L 489.396322 106.550423 
L 489.830927 105.707853 
L 490.265532 104.534482 
L 490.700137 106.750445 
L 491.134741 106.971404 
L 493.74237 106.987639 
L 498.523023 106.854246 
L 498.957628 106.525054 
L 499.392233 106.749446 
L 500.261443 106.531982 
L 500.696048 106.747881 
L 501.130652 106.795113 
L 501.565257 106.655598 
L 501.999862 106.682521 
L 502.434467 106.840747 
L 502.434467 106.840747 
" clip-path="url(#p80c1bb8370)" style="fill: none; stroke: #5b5b5b; stroke-width: 1.2; stroke-linecap: square"/>
   </g>
   <g id="patch_4">
    <path d="M 55.410938 106.992 
L 55.410938 10.419097 
" style="fill: none; stroke: #cccccc; stroke-width: 0.75; stroke-linejoin: miter; stroke-linecap: square"/>
   </g>
   <g id="patch_5">
    <path d="M 80.433182 116.992 
L 487.223298 116.992 
" style="fill: none; stroke: #cccccc; stroke-width: 0.75; stroke-linejoin: miter; stroke-linecap: square"/>
   </g>
  </g>
  <g id="axes_3">
   <g id="patch_6">
    <path d="M 60.410938 256.68 
L 506.810937 256.68 
L 506.810937 156.888 
L 60.410938 156.888 
L 60.410938 256.68 
z
" style="fill: none"/>
   </g>
   <g id="axes_4">
    <g id="patch_7">
     <path d="M 60.410938 256.68 
L 506.810937 256.68 
L 506.810937 256.68 
L 60.410938 256.68 
L 60.410938 256.68 
z
" style="fill: none"/>
    </g>
    <g id="matplotlib.axis_5">
     <g id="xtick_29">
      <g id="line2d_37">
       <path d="M 96.078955 256.68 
L 96.078955 256.68 
" clip-path="url(#pd595140d35)" style="fill: none; stroke-dasharray: 0.5,0.825; stroke-dashoffset: 0; stroke: #d9d9d9; stroke-width: 0.5"/>
      </g>
      <g id="text_35">
       <!-- 04-17 -->
       <g style="fill: #808080" transform="translate(85.857705 294.8875) scale(0.08 -0.08)">
        <use xlink:href="#Ubuntu-30"/>
        <use xlink:href="#Ubuntu-34" x="56.399994"/>
        <use xlink:href="#Ubuntu-2d" x="112.799988"/>
        <use xlink:href="#Ubuntu-31" x="142.699982"/>
        <use xlink:href="#Ubuntu-37" x="199.099976"/>
       </g>
      </g>
     </g>
     <g id="xtick_30">
      <g id="line2d_38">
       <path d="M 158.66205 256.68 
L 158.66205 256.68 
" clip-path="url(#pd595140d35)" style="fill: none; stroke-dasharray: 0.5,0.825; stroke-dashoffset: 0; stroke: #d9d9d9; stroke-width: 0.5"/>
      </g>
      <g id="text_36">
       <!-- 04-18 -->
       <g style="fill: #808080" transform="translate(148.4408 294.8875) scale(0.08 -0.08)">
        <use xlink:href="#Ubuntu-30"/>
        <use xlink:href="#Ubuntu-34" x="56.399994"/>
        <use xlink:href="#Ubuntu-2d" x="112.799988"/>
        <use xlink:href="#Ubuntu-31" x="142.699982"/>
        <use xlink:href="#Ubuntu-38" x="199.099976"/>
       </g>
      </g>
     </g>
     <g id="xtick_31">
      <g id="line2d_39">
       <path d="M 221.245145 256.68 
L 221.245145 256.68 
" clip-path="url(#pd595140d35)" style="fill: none; stroke-dasharray: 0.5,0.825; stroke-dashoffset: 0; stroke: #d9d9d9; stroke-width: 0.5"/>
      </g>
      <g id="text_37">
       <!-- 04-19 -->
       <g style="fill: #808080" transform="translate(211.023895 294.8875) scale(0.08 -0.08)">
        <use xlink:href="#Ubuntu-30"/>
        <use xlink:href="#Ubuntu-34" x="56.399994"/>
        <use xlink:href="#Ubuntu-2d" x="112.799988"/>
        <use xlink:href="#Ubuntu-31" x="142.699982"/>
        <use xlink:href="#Ubuntu-39" x="199.099976"/>
       </g>
      </g>
     </g>
     <g id="xtick_32">
      <g id="line2d_40">
       <path d="M 283.82824 256.68 
L 283.82824 256.68 
" clip-path="url(#pd595140d35)" style="fill: none; stroke-dasharray: 0.5,0.825; stroke-dashoffset: 0; stroke: #d9d9d9; stroke-width: 0.5"/>
      </g>
      <g id="text_38">
       <!-- 04-20 -->
       <g style="fill: #808080" transform="translate(273.60699 294.8875) scale(0.08 -0.08)">
        <use xlink:href="#Ubuntu-30"/>
        <use xlink:href="#Ubuntu-34" x="56.399994"/>
        <use xlink:href="#Ubuntu-2d" x="112.799988"/>
        <use xlink:href="#Ubuntu-32" x="142.699982"/>
        <use xlink:href="#Ubuntu-30" x="199.099976"/>
       </g>
      </g>
     </g>
     <g id="xtick_33">
      <g id="line2d_41">
       <path d="M 346.411335 256.68 
L 346.411335 256.68 
" clip-path="url(#pd595140d35)" style="fill: none; stroke-dasharray: 0.5,0.825; stroke-dashoffset: 0; stroke: #d9d9d9; stroke-width: 0.5"/>
      </g>
      <g id="text_39">
       <!-- 04-21 -->
       <g style="fill: #808080" transform="translate(336.190085 294.8875) scale(0.08 -0.08)">
        <use xlink:href="#Ubuntu-30"/>
        <use xlink:href="#Ubuntu-34" x="56.399994"/>
        <use xlink:href="#Ubuntu-2d" x="112.799988"/>
        <use xlink:href="#Ubuntu-32" x="142.699982"/>
        <use xlink:href="#Ubuntu-31" x="199.099976"/>
       </g>
      </g>
     </g>
     <g id="xtick_34">
      <g id="line2d_42">
       <path d="M 408.99443 256.68 
L 408.99443 256.68 
" clip-path="url(#pd595140d35)" style="fill: none; stroke-dasharray: 0.5,0.825; stroke-dashoffset: 0; stroke: #d9d9d9; stroke-width: 0.5"/>
      </g>
      <g id="text_40">
       <!-- 04-22 -->
       <g style="fill: #808080" transform="translate(398.77318 294.8875) scale(0.08 -0.08)">
        <use xlink:href="#Ubuntu-30"/>
        <use xlink:href="#Ubuntu-34" x="56.399994"/>
        <use xlink:href="#Ubuntu-2d" x="112.799988"/>
        <use xlink:href="#Ubuntu-32" x="142.699982"/>
        <use xlink:href="#Ubuntu-32" x="199.099976"/>
       </g>
      </g>
     </g>
     <g id="xtick_35">
      <g id="line2d_43">
       <path d="M 471.577524 256.68 
L 471.577524 256.68 
" clip-path="url(#pd595140d35)" style="fill: none; stroke-dasharray: 0.5,0.825; stroke-dashoffset: 0; stroke: #d9d9d9; stroke-width: 0.5"/>
      </g>
      <g id="text_41">
       <!-- 04-23 -->
       <g style="fill: #808080" transform="translate(461.356274 294.8875) scale(0.08 -0.08)">
        <use xlink:href="#Ubuntu-30"/>
        <use xlink:href="#Ubuntu-34" x="56.399994"/>
        <use xlink:href="#Ubuntu-2d" x="112.799988"/>
        <use xlink:href="#Ubuntu-32" x="142.699982"/>
        <use xlink:href="#Ubuntu-33" x="199.099976"/>
       </g>
      </g>
     </g>
    </g>
    <g id="matplotlib.axis_6"/>
   </g>
   <g id="matplotlib.axis_7">
    <g id="xtick_36">
     <g id="line2d_44">
      <g>
       <use xlink:href="#mfdf4f4101a" x="80.433182" y="266.68" style="fill: #cccccc; stroke: #cccccc; stroke-width: 0.75"/>
      </g>
     </g>
     <g id="text_42">
      <!-- 06 -->
      <g style="fill: #808080" transform="translate(76.484744 281.111562) scale(0.07 -0.07)">
       <use xlink:href="#Ubuntu-30"/>
       <use xlink:href="#Ubuntu-36" x="56.399994"/>
      </g>
     </g>
    </g>
    <g id="xtick_37">
     <g id="line2d_45">
      <g>
       <use xlink:href="#mfdf4f4101a" x="96.078955" y="266.68" style="fill: #cccccc; stroke: #cccccc; stroke-width: 0.75"/>
      </g>
     </g>
     <g id="text_43">
      <!-- 12 -->
      <g style="fill: #808080" transform="translate(92.130518 281.111562) scale(0.07 -0.07)">
       <use xlink:href="#Ubuntu-31"/>
       <use xlink:href="#Ubuntu-32" x="56.399994"/>
      </g>
     </g>
    </g>
    <g id="xtick_38">
     <g id="line2d_46">
      <g>
       <use xlink:href="#mfdf4f4101a" x="111.724729" y="266.68" style="fill: #cccccc; stroke: #cccccc; stroke-width: 0.75"/>
      </g>
     </g>
     <g id="text_44">
      <!-- 18 -->
      <g style="fill: #808080" transform="translate(107.776292 281.111562) scale(0.07 -0.07)">
       <use xlink:href="#Ubuntu-31"/>
       <use xlink:href="#Ubuntu-38" x="56.399994"/>
      </g>
     </g>
    </g>
    <g id="xtick_39">
     <g id="line2d_47">
      <g>
       <use xlink:href="#mfdf4f4101a" x="143.016277" y="266.68" style="fill: #cccccc; stroke: #cccccc; stroke-width: 0.75"/>
      </g>
     </g>
     <g id="text_45">
      <!-- 06 -->
      <g style="fill: #808080" transform="translate(139.067839 281.111562) scale(0.07 -0.07)">
       <use xlink:href="#Ubuntu-30"/>
       <use xlink:href="#Ubuntu-36" x="56.399994"/>
      </g>
     </g>
    </g>
    <g id="xtick_40">
     <g id="line2d_48">
      <g>
       <use xlink:href="#mfdf4f4101a" x="158.66205" y="266.68" style="fill: #cccccc; stroke: #cccccc; stroke-width: 0.75"/>
      </g>
     </g>
     <g id="text_46">
      <!-- 12 -->
      <g style="fill: #808080" transform="translate(154.713613 281.111562) scale(0.07 -0.07)">
       <use xlink:href="#Ubuntu-31"/>
       <use xlink:href="#Ubuntu-32" x="56.399994"/>
      </g>
     </g>
    </g>
    <g id="xtick_41">
     <g id="line2d_49">
      <g>
       <use xlink:href="#mfdf4f4101a" x="174.307824" y="266.68" style="fill: #cccccc; stroke: #cccccc; stroke-width: 0.75"/>
      </g>
     </g>
     <g id="text_47">
      <!-- 18 -->
      <g style="fill: #808080" transform="translate(170.359387 281.111562) scale(0.07 -0.07)">
       <use xlink:href="#Ubuntu-31"/>
       <use xlink:href="#Ubuntu-38" x="56.399994"/>
      </g>
     </g>
    </g>
    <g id="xtick_42">
     <g id="line2d_50">
      <g>
       <use xlink:href="#mfdf4f4101a" x="205.599371" y="266.68" style="fill: #cccccc; stroke: #cccccc; stroke-width: 0.75"/>
      </g>
     </g>
     <g id="text_48">
      <!-- 06 -->
      <g style="fill: #808080" transform="translate(201.650934 281.111562) scale(0.07 -0.07)">
       <use xlink:href="#Ubuntu-30"/>
       <use xlink:href="#Ubuntu-36" x="56.399994"/>
      </g>
     </g>
    </g>
    <g id="xtick_43">
     <g id="line2d_51">
      <g>
       <use xlink:href="#mfdf4f4101a" x="221.245145" y="266.68" style="fill: #cccccc; stroke: #cccccc; stroke-width: 0.75"/>
      </g>
     </g>
     <g id="text_49">
      <!-- 12 -->
      <g style="fill: #808080" transform="translate(217.296708 281.111562) scale(0.07 -0.07)">
       <use xlink:href="#Ubuntu-31"/>
       <use xlink:href="#Ubuntu-32" x="56.399994"/>
      </g>
     </g>
    </g>
    <g id="xtick_44">
     <g id="line2d_52">
      <g>
       <use xlink:href="#mfdf4f4101a" x="236.890919" y="266.68" style="fill: #cccccc; stroke: #cccccc; stroke-width: 0.75"/>
      </g>
     </g>
     <g id="text_50">
      <!-- 18 -->
      <g style="fill: #808080" transform="translate(232.942481 281.111562) scale(0.07 -0.07)">
       <use xlink:href="#Ubuntu-31"/>
       <use xlink:href="#Ubuntu-38" x="56.399994"/>
      </g>
     </g>
    </g>
    <g id="xtick_45">
     <g id="line2d_53">
      <g>
       <use xlink:href="#mfdf4f4101a" x="268.182466" y="266.68" style="fill: #cccccc; stroke: #cccccc; stroke-width: 0.75"/>
      </g>
     </g>
     <g id="text_51">
      <!-- 06 -->
      <g style="fill: #808080" transform="translate(264.234029 281.111562) scale(0.07 -0.07)">
       <use xlink:href="#Ubuntu-30"/>
       <use xlink:href="#Ubuntu-36" x="56.399994"/>
      </g>
     </g>
    </g>
    <g id="xtick_46">
     <g id="line2d_54">
      <g>
       <use xlink:href="#mfdf4f4101a" x="283.82824" y="266.68" style="fill: #cccccc; stroke: #cccccc; stroke-width: 0.75"/>
      </g>
     </g>
     <g id="text_52">
      <!-- 12 -->
      <g style="fill: #808080" transform="translate(279.879802 281.111562) scale(0.07 -0.07)">
       <use xlink:href="#Ubuntu-31"/>
       <use xlink:href="#Ubuntu-32" x="56.399994"/>
      </g>
     </g>
    </g>
    <g id="xtick_47">
     <g id="line2d_55">
      <g>
       <use xlink:href="#mfdf4f4101a" x="299.474014" y="266.68" style="fill: #cccccc; stroke: #cccccc; stroke-width: 0.75"/>
      </g>
     </g>
     <g id="text_53">
      <!-- 18 -->
      <g style="fill: #808080" transform="translate(295.525576 281.111562) scale(0.07 -0.07)">
       <use xlink:href="#Ubuntu-31"/>
       <use xlink:href="#Ubuntu-38" x="56.399994"/>
      </g>
     </g>
    </g>
    <g id="xtick_48">
     <g id="line2d_56">
      <g>
       <use xlink:href="#mfdf4f4101a" x="330.765561" y="266.68" style="fill: #cccccc; stroke: #cccccc; stroke-width: 0.75"/>
      </g>
     </g>
     <g id="text_54">
      <!-- 06 -->
      <g style="fill: #808080" transform="translate(326.817124 281.111562) scale(0.07 -0.07)">
       <use xlink:href="#Ubuntu-30"/>
       <use xlink:href="#Ubuntu-36" x="56.399994"/>
      </g>
     </g>
    </g>
    <g id="xtick_49">
     <g id="line2d_57">
      <g>
       <use xlink:href="#mfdf4f4101a" x="346.411335" y="266.68" style="fill: #cccccc; stroke: #cccccc; stroke-width: 0.75"/>
      </g>
     </g>
     <g id="text_55">
      <!-- 12 -->
      <g style="fill: #808080" transform="translate(342.462897 281.111562) scale(0.07 -0.07)">
       <use xlink:href="#Ubuntu-31"/>
       <use xlink:href="#Ubuntu-32" x="56.399994"/>
      </g>
     </g>
    </g>
    <g id="xtick_50">
     <g id="line2d_58">
      <g>
       <use xlink:href="#mfdf4f4101a" x="362.057108" y="266.68" style="fill: #cccccc; stroke: #cccccc; stroke-width: 0.75"/>
      </g>
     </g>
     <g id="text_56">
      <!-- 18 -->
      <g style="fill: #808080" transform="translate(358.108671 281.111562) scale(0.07 -0.07)">
       <use xlink:href="#Ubuntu-31"/>
       <use xlink:href="#Ubuntu-38" x="56.399994"/>
      </g>
     </g>
    </g>
    <g id="xtick_51">
     <g id="line2d_59">
      <g>
       <use xlink:href="#mfdf4f4101a" x="393.348656" y="266.68" style="fill: #cccccc; stroke: #cccccc; stroke-width: 0.75"/>
      </g>
     </g>
     <g id="text_57">
      <!-- 06 -->
      <g style="fill: #808080" transform="translate(389.400218 281.111562) scale(0.07 -0.07)">
       <use xlink:href="#Ubuntu-30"/>
       <use xlink:href="#Ubuntu-36" x="56.399994"/>
      </g>
     </g>
    </g>
    <g id="xtick_52">
     <g id="line2d_60">
      <g>
       <use xlink:href="#mfdf4f4101a" x="408.99443" y="266.68" style="fill: #cccccc; stroke: #cccccc; stroke-width: 0.75"/>
      </g>
     </g>
     <g id="text_58">
      <!-- 12 -->
      <g style="fill: #808080" transform="translate(405.045992 281.111562) scale(0.07 -0.07)">
       <use xlink:href="#Ubuntu-31"/>
       <use xlink:href="#Ubuntu-32" x="56.399994"/>
      </g>
     </g>
    </g>
    <g id="xtick_53">
     <g id="line2d_61">
      <g>
       <use xlink:href="#mfdf4f4101a" x="424.640203" y="266.68" style="fill: #cccccc; stroke: #cccccc; stroke-width: 0.75"/>
      </g>
     </g>
     <g id="text_59">
      <!-- 18 -->
      <g style="fill: #808080" transform="translate(420.691766 281.111562) scale(0.07 -0.07)">
       <use xlink:href="#Ubuntu-31"/>
       <use xlink:href="#Ubuntu-38" x="56.399994"/>
      </g>
     </g>
    </g>
    <g id="xtick_54">
     <g id="line2d_62">
      <g>
       <use xlink:href="#mfdf4f4101a" x="455.931751" y="266.68" style="fill: #cccccc; stroke: #cccccc; stroke-width: 0.75"/>
      </g>
     </g>
     <g id="text_60">
      <!-- 06 -->
      <g style="fill: #808080" transform="translate(451.983313 281.111562) scale(0.07 -0.07)">
       <use xlink:href="#Ubuntu-30"/>
       <use xlink:href="#Ubuntu-36" x="56.399994"/>
      </g>
     </g>
    </g>
    <g id="xtick_55">
     <g id="line2d_63">
      <g>
       <use xlink:href="#mfdf4f4101a" x="471.577524" y="266.68" style="fill: #cccccc; stroke: #cccccc; stroke-width: 0.75"/>
      </g>
     </g>
     <g id="text_61">
      <!-- 12 -->
      <g style="fill: #808080" transform="translate(467.629087 281.111562) scale(0.07 -0.07)">
       <use xlink:href="#Ubuntu-31"/>
       <use xlink:href="#Ubuntu-32" x="56.399994"/>
      </g>
     </g>
    </g>
    <g id="xtick_56">
     <g id="line2d_64">
      <g>
       <use xlink:href="#mfdf4f4101a" x="487.223298" y="266.68" style="fill: #cccccc; stroke: #cccccc; stroke-width: 0.75"/>
      </g>
     </g>
     <g id="text_62">
      <!-- 18 -->
      <g style="fill: #808080" transform="translate(483.274861 281.111562) scale(0.07 -0.07)">
       <use xlink:href="#Ubuntu-31"/>
       <use xlink:href="#Ubuntu-38" x="56.399994"/>
      </g>
     </g>
    </g>
   </g>
   <g id="matplotlib.axis_8">
    <g id="ytick_8">
     <g id="line2d_65">
      <g>
       <use xlink:href="#m217d2a8775" x="55.410938" y="256.68" style="fill: #cccccc; stroke: #cccccc; stroke-width: 0.75"/>
      </g>
     </g>
     <g id="text_63">
      <!-- 15000 -->
      <g style="fill: #808080" transform="translate(23.848438 259.78375) scale(0.08 -0.08)">
       <use xlink:href="#Ubuntu-31"/>
       <use xlink:href="#Ubuntu-35" x="56.399994"/>
       <use xlink:href="#Ubuntu-30" x="112.799988"/>
       <use xlink:href="#Ubuntu-30" x="169.199982"/>
       <use xlink:href="#Ubuntu-30" x="225.599976"/>
      </g>
     </g>
    </g>
    <g id="ytick_9">
     <g id="line2d_66">
      <g>
       <use xlink:href="#m217d2a8775" x="55.410938" y="231.732" style="fill: #cccccc; stroke: #cccccc; stroke-width: 0.75"/>
      </g>
     </g>
     <g id="text_64">
      <!-- 25000 -->
      <g style="fill: #808080" transform="translate(23.848438 234.83575) scale(0.08 -0.08)">
       <use xlink:href="#Ubuntu-32"/>
       <use xlink:href="#Ubuntu-35" x="56.399994"/>
       <use xlink:href="#Ubuntu-30" x="112.799988"/>
       <use xlink:href="#Ubuntu-30" x="169.199982"/>
       <use xlink:href="#Ubuntu-30" x="225.599976"/>
      </g>
     </g>
    </g>
    <g id="ytick_10">
     <g id="line2d_67">
      <g>
       <use xlink:href="#m217d2a8775" x="55.410938" y="206.784" style="fill: #cccccc; stroke: #cccccc; stroke-width: 0.75"/>
      </g>
     </g>
     <g id="text_65">
      <!-- 35000 -->
      <g style="fill: #808080" transform="translate(23.848438 209.88775) scale(0.08 -0.08)">
       <use xlink:href="#Ubuntu-33"/>
       <use xlink:href="#Ubuntu-35" x="56.399994"/>
       <use xlink:href="#Ubuntu-30" x="112.799988"/>
       <use xlink:href="#Ubuntu-30" x="169.199982"/>
       <use xlink:href="#Ubuntu-30" x="225.599976"/>
      </g>
     </g>
    </g>
    <g id="ytick_11">
     <g id="line2d_68">
      <g>
       <use xlink:href="#m217d2a8775" x="55.410938" y="181.836" style="fill: #cccccc; stroke: #cccccc; stroke-width: 0.75"/>
      </g>
     </g>
     <g id="text_66">
      <!-- 45000 -->
      <g style="fill: #808080" transform="translate(23.848438 184.93975) scale(0.08 -0.08)">
       <use xlink:href="#Ubuntu-34"/>
       <use xlink:href="#Ubuntu-35" x="56.399994"/>
       <use xlink:href="#Ubuntu-30" x="112.799988"/>
       <use xlink:href="#Ubuntu-30" x="169.199982"/>
       <use xlink:href="#Ubuntu-30" x="225.599976"/>
      </g>
     </g>
    </g>
    <g id="ytick_12">
     <g id="line2d_69">
      <g>
       <use xlink:href="#m217d2a8775" x="55.410938" y="156.888" style="fill: #cccccc; stroke: #cccccc; stroke-width: 0.75"/>
      </g>
     </g>
     <g id="text_67">
      <!-- 55000 -->
      <g style="fill: #808080" transform="translate(23.848438 159.99175) scale(0.08 -0.08)">
       <use xlink:href="#Ubuntu-35"/>
       <use xlink:href="#Ubuntu-35" x="56.399994"/>
       <use xlink:href="#Ubuntu-30" x="112.799988"/>
       <use xlink:href="#Ubuntu-30" x="169.199982"/>
       <use xlink:href="#Ubuntu-30" x="225.599976"/>
      </g>
     </g>
    </g>
    <g id="text_68">
     <!-- Target -->
     <g style="fill: #505050" transform="translate(14.156719 185.02425) rotate(-90) scale(0.09 -0.09)">
      <defs>
       <path id="Ubuntu-Bold-54" d="M 3802 4435 
L 3802 3584 
L 2464 3584 
L 2464 0 
L 1466 0 
L 1466 3584 
L 128 3584 
L 128 4435 
L 3802 4435 
z
" transform="scale(0.015625)"/>
       <path id="Ubuntu-Bold-72" d="M 2477 2522 
Q 2349 2554 2176 2589 
Q 2003 2624 1805 2624 
Q 1715 2624 1590 2608 
Q 1466 2592 1402 2573 
L 1402 0 
L 448 0 
L 448 3187 
Q 704 3277 1053 3357 
Q 1402 3437 1830 3437 
Q 1907 3437 2016 3427 
Q 2125 3418 2233 3402 
Q 2342 3386 2451 3363 
Q 2560 3341 2637 3309 
L 2477 2522 
z
" transform="scale(0.015625)"/>
       <path id="Ubuntu-Bold-67" d="M 1261 1792 
Q 1261 992 1907 992 
Q 2054 992 2182 1030 
Q 2310 1069 2400 1120 
L 2400 2643 
Q 2330 2656 2234 2665 
Q 2138 2675 2010 2675 
Q 1632 2675 1446 2425 
Q 1261 2176 1261 1792 
z
M 3354 422 
Q 3354 -403 2934 -803 
Q 2515 -1203 1638 -1203 
Q 1331 -1203 1024 -1148 
Q 717 -1094 454 -1005 
L 621 -205 
Q 845 -294 1091 -345 
Q 1338 -397 1651 -397 
Q 2061 -397 2230 -217 
Q 2400 -38 2400 243 
L 2400 365 
Q 2246 294 2083 259 
Q 1920 224 1728 224 
Q 1030 224 659 637 
Q 288 1050 288 1792 
Q 288 2163 403 2467 
Q 518 2771 739 2988 
Q 960 3206 1280 3324 
Q 1600 3443 2003 3443 
Q 2176 3443 2358 3427 
Q 2541 3411 2720 3385 
Q 2899 3360 3062 3325 
Q 3226 3290 3354 3251 
L 3354 422 
z
" transform="scale(0.015625)"/>
       <path id="Ubuntu-Bold-65" d="M 288 1658 
Q 288 2106 425 2442 
Q 563 2778 787 3002 
Q 1011 3226 1302 3341 
Q 1594 3456 1901 3456 
Q 2618 3456 3034 3017 
Q 3450 2579 3450 1728 
Q 3450 1645 3443 1545 
Q 3437 1446 3430 1370 
L 1267 1370 
Q 1299 1075 1542 902 
Q 1786 730 2195 730 
Q 2458 730 2710 778 
Q 2963 826 3123 896 
L 3251 122 
Q 3174 83 3046 44 
Q 2918 6 2761 -22 
Q 2605 -51 2425 -70 
Q 2246 -90 2067 -90 
Q 1613 -90 1277 44 
Q 941 179 720 412 
Q 499 646 393 966 
Q 288 1286 288 1658 
z
M 2528 2022 
Q 2522 2144 2486 2259 
Q 2451 2374 2377 2464 
Q 2304 2554 2192 2611 
Q 2080 2669 1914 2669 
Q 1754 2669 1638 2614 
Q 1523 2560 1446 2470 
Q 1370 2381 1328 2262 
Q 1286 2144 1267 2022 
L 2528 2022 
z
" transform="scale(0.015625)"/>
      </defs>
      <use xlink:href="#Ubuntu-Bold-54"/>
      <use xlink:href="#Ubuntu-Bold-61" x="53.899994"/>
      <use xlink:href="#Ubuntu-Bold-72" x="109.199982"/>
      <use xlink:href="#Ubuntu-Bold-67" x="150.399979"/>
      <use xlink:href="#Ubuntu-Bold-65" x="209.799973"/>
      <use xlink:href="#Ubuntu-Bold-74" x="268.199966"/>
     </g>
    </g>
   </g>
   <g id="line2d_70">
    <path d="M 64.787408 221.741306 
L 65.222013 223.628438 
L 66.525827 227.773942 
L 67.829642 230.372616 
L 68.264247 231.70289 
L 69.133456 233.095036 
L 69.568061 233.404402 
L 70.437271 233.559085 
L 71.30648 234.549056 
L 71.741085 234.672803 
L 73.0449 234.085007 
L 73.479505 234.115944 
L 73.914109 234.301563 
L 74.348714 233.775641 
L 74.783319 233.466275 
L 75.217924 232.87848 
L 75.652529 231.207904 
L 76.087134 230.991348 
L 76.956343 232.290685 
L 77.825553 234.3325 
L 78.260158 235.013105 
L 78.694762 237.921145 
L 79.129367 238.69456 
L 79.563972 238.50894 
L 79.998577 238.50894 
L 80.867787 234.487183 
L 81.302391 233.868451 
L 82.171601 234.796549 
L 82.606206 234.920295 
L 83.040811 232.816607 
L 84.344625 228.825786 
L 84.77923 228.114245 
L 85.213835 227.804879 
L 87.386859 221.370067 
L 87.821464 220.844145 
L 88.256069 220.101667 
L 89.559883 215.151812 
L 89.994488 215.059002 
L 92.167512 208.283888 
L 92.602117 208.036395 
L 93.036722 208.191078 
L 93.905931 206.829868 
L 94.340536 204.44775 
L 94.775141 204.695243 
L 95.209746 204.757116 
L 95.644351 203.736208 
L 96.078955 203.952765 
L 96.51356 205.221165 
L 96.948165 205.283038 
L 97.38277 205.530531 
L 97.817375 205.623341 
L 98.25198 206.056453 
L 98.686584 206.737058 
L 99.121189 207.108297 
L 99.555794 206.891741 
L 99.990399 206.458629 
L 100.425004 206.613312 
L 100.859609 207.727029 
L 101.294213 207.35579 
L 101.728818 206.644248 
L 102.598028 207.912649 
L 103.032633 208.840746 
L 103.467238 208.840746 
L 103.901842 209.057303 
L 104.336447 209.119176 
L 104.771052 209.799781 
L 105.205657 209.799781 
L 105.640262 209.335732 
L 106.074866 209.645098 
L 106.509471 210.944435 
L 106.944076 211.222864 
L 107.378681 210.727879 
L 107.813286 211.130054 
L 108.247891 211.315674 
L 108.682495 211.965342 
L 109.1171 212.274708 
L 109.551705 211.934406 
L 109.98631 211.408484 
L 110.420915 211.501294 
L 110.85552 210.944435 
L 111.724729 210.666005 
L 112.159334 210.140083 
L 112.593939 209.304795 
L 113.463148 203.890891 
L 113.897753 199.064783 
L 114.766963 183.163373 
L 115.201568 180.255333 
L 115.636173 179.853158 
L 116.070777 178.83225 
L 116.505382 180.533763 
L 116.939987 180.595636 
L 117.374592 180.997812 
L 117.809197 180.19346 
L 119.113011 182.018719 
L 121.286035 189.134136 
L 122.58985 195.352391 
L 123.893664 203.921828 
L 124.328269 205.90177 
L 124.762874 209.335732 
L 125.632084 213.07906 
L 126.501293 217.688612 
L 127.370503 221.803179 
L 127.805108 223.566565 
L 128.674317 224.865902 
L 129.978132 229.042342 
L 130.847341 230.310743 
L 131.716551 231.269777 
L 132.151156 231.42446 
L 132.585761 232.661924 
L 133.020366 232.476304 
L 133.45497 232.569114 
L 133.889575 233.095036 
L 134.32418 233.218783 
L 134.758785 234.023134 
L 135.19339 233.744705 
L 136.062599 234.115944 
L 137.366414 233.218783 
L 137.801019 232.383495 
L 138.235624 230.310743 
L 138.670228 230.743855 
L 139.539438 232.569114 
L 139.974043 232.600051 
L 140.408648 232.78567 
L 140.843252 233.559085 
L 141.277857 235.78652 
L 141.712462 236.993047 
L 142.147067 237.735525 
L 142.581672 237.642716 
L 143.016277 236.869301 
L 143.450881 234.889359 
L 143.885486 233.559085 
L 144.320091 233.404402 
L 144.754696 233.837515 
L 145.189301 233.961261 
L 145.623906 233.125973 
L 146.05851 231.393524 
L 146.92772 229.382645 
L 148.666139 223.906868 
L 149.100744 221.865053 
L 149.535349 221.060701 
L 149.969954 219.97792 
L 150.839163 218.70952 
L 151.273768 216.636768 
L 151.708373 216.760515 
L 152.142978 214.687763 
L 152.577583 213.450299 
L 153.012188 212.553138 
L 153.446792 211.068181 
L 153.881397 210.696942 
L 154.316002 209.026366 
L 154.750607 208.933556 
L 155.185212 209.428542 
L 155.619817 207.35579 
L 156.489026 206.427692 
L 156.923631 204.44775 
L 157.358236 204.602433 
L 157.792841 204.014638 
L 158.227445 203.890891 
L 159.096655 204.416813 
L 159.53126 205.252101 
L 159.965865 205.71615 
L 160.40047 203.148413 
L 160.835074 204.014638 
L 161.704284 205.004609 
L 162.138889 205.221165 
L 162.573494 205.870833 
L 163.008099 205.99458 
L 164.311913 207.35579 
L 164.746518 208.53138 
L 165.181123 209.366669 
L 165.615727 209.521351 
L 166.050332 210.325703 
L 167.354147 209.892591 
L 167.788752 210.387576 
L 168.223356 211.253801 
L 168.657961 210.944435 
L 169.092566 211.841596 
L 169.961776 211.810659 
L 170.396381 211.779723 
L 170.830985 211.903469 
L 171.26559 212.522201 
L 171.700195 212.707821 
L 172.1348 211.996279 
L 172.569405 212.676884 
L 173.873219 210.851625 
L 174.307824 211.346611 
L 174.742429 210.232893 
L 175.177034 208.778873 
L 175.611638 206.767995 
L 176.046243 204.200257 
L 176.480848 200.08569 
L 177.350058 184.493647 
L 177.784663 182.575578 
L 178.219267 181.276241 
L 178.653872 181.338114 
L 179.957687 181.987783 
L 180.392292 181.987783 
L 180.826896 182.91588 
L 181.261501 183.19431 
L 182.130711 185.792984 
L 183.434525 188.63915 
L 183.86913 189.103199 
L 184.303735 190.711902 
L 184.73834 193.18683 
L 185.172945 194.207737 
L 186.911364 205.437721 
L 189.084388 218.492964 
L 191.257412 226.443669 
L 192.995831 229.908567 
L 193.430436 231.022284 
L 193.865041 231.579143 
L 194.299646 232.383495 
L 194.734251 232.78567 
L 195.60346 232.940353 
L 196.038065 233.280656 
L 196.47267 233.961261 
L 196.907275 234.42531 
L 197.34188 233.930324 
L 197.776485 233.899388 
L 198.211089 234.115944 
L 198.645694 234.610929 
L 199.080299 234.301563 
L 199.514904 233.682832 
L 199.949509 233.651895 
L 200.384114 232.414431 
L 200.818718 230.279806 
L 202.122533 232.383495 
L 202.557138 233.404402 
L 202.991742 233.899388 
L 203.426347 235.044042 
L 203.860952 237.704589 
L 204.730162 237.797399 
L 205.164767 237.33335 
L 205.599371 236.652745 
L 206.033976 235.446217 
L 206.468581 234.641866 
L 206.903186 234.858422 
L 207.337791 234.610929 
L 207.772396 234.920295 
L 208.207 232.507241 
L 208.641605 230.805728 
L 209.07621 229.784821 
L 210.380024 225.763063 
L 211.249234 220.380096 
L 212.118444 218.121725 
L 212.553049 218.028915 
L 212.987653 217.595803 
L 213.422258 217.379246 
L 213.856863 216.915198 
L 214.291468 216.018036 
L 214.726073 214.471207 
L 215.160678 212.491265 
L 215.595282 211.43942 
L 216.029887 210.944435 
L 216.899097 208.252951 
L 217.333702 207.665156 
L 217.768307 207.417663 
L 219.072121 205.437721 
L 219.506726 203.890891 
L 219.941331 204.571496 
L 220.81054 202.869984 
L 221.245145 204.076511 
L 221.67975 203.550589 
L 222.114355 203.798082 
L 222.54896 203.550589 
L 222.983564 203.457779 
L 223.418169 204.26213 
L 223.852774 204.014638 
L 224.287379 203.581525 
L 224.721984 204.726179 
L 225.156589 204.44775 
L 225.591193 204.509623 
L 226.025798 205.066482 
L 226.460403 205.128355 
L 226.895008 206.427692 
L 227.329613 206.211136 
L 227.764217 206.613312 
L 228.198822 207.757966 
L 229.068032 209.211986 
L 229.937242 209.490415 
L 230.371846 209.521351 
L 230.806451 209.923527 
L 231.241056 210.140083 
L 231.675661 211.686913 
L 232.110266 212.212835 
L 232.544871 211.841596 
L 233.848685 211.810659 
L 234.28329 212.243772 
L 234.717895 212.120025 
L 235.587104 210.047274 
L 236.021709 209.335732 
L 236.456314 208.90262 
L 236.890919 208.871683 
L 238.194733 203.241223 
L 239.063943 197.703573 
L 239.933153 185.297998 
L 240.367757 183.039627 
L 240.802362 182.359022 
L 241.236967 182.235275 
L 241.671572 182.328085 
L 242.540782 183.472739 
L 242.975386 183.967725 
L 243.844596 184.091471 
L 244.279201 184.679266 
L 244.713806 184.864886 
L 245.583015 188.701024 
L 246.01762 190.000361 
L 246.88683 193.805562 
L 247.321435 195.538011 
L 249.494459 208.80981 
L 249.929064 211.903469 
L 252.536693 223.535629 
L 252.971297 224.618409 
L 253.840507 227.464576 
L 254.275112 228.60923 
L 254.709717 229.289835 
L 255.144321 230.651045 
L 255.578926 231.486333 
L 256.013531 231.51727 
L 256.448136 231.857572 
L 256.882741 232.692861 
L 258.186555 234.579993 
L 258.62116 234.456246 
L 259.055765 233.651895 
L 259.49037 233.713768 
L 259.924975 234.270627 
L 260.359579 234.51812 
L 260.794184 233.806578 
L 261.228789 234.734676 
L 261.663394 234.085007 
L 262.097999 233.899388 
L 262.532603 233.435339 
L 262.967208 232.476304 
L 263.401813 230.496362 
L 263.836418 230.991348 
L 265.140232 234.301563 
L 265.574837 235.074978 
L 266.009442 236.745554 
L 266.444047 239.003926 
L 266.878652 239.158609 
L 267.747861 239.127672 
L 268.182466 238.261447 
L 268.617071 236.034013 
L 269.051676 234.549056 
L 269.486281 234.14688 
L 269.920886 234.796549 
L 270.35549 234.858422 
L 270.790095 232.321621 
L 271.2247 230.712919 
L 271.659305 230.032313 
L 272.09391 230.279806 
L 272.963119 227.650196 
L 273.397724 226.660225 
L 274.701539 221.060701 
L 275.570748 219.575745 
L 276.439958 217.410183 
L 276.874563 216.327402 
L 277.309168 215.956163 
L 278.178377 212.862504 
L 278.612982 212.98625 
L 279.047587 211.222864 
L 280.351401 208.407634 
L 280.786006 206.551438 
L 281.220611 207.293917 
L 281.655216 205.80896 
L 282.089821 204.726179 
L 282.524425 204.045574 
L 283.393635 201.756266 
L 283.82824 203.890891 
L 284.262845 252.151978 
L 284.69745 249.707987 
L 285.132054 226.753034 
L 285.566659 227.186147 
L 286.001264 228.671103 
L 286.435869 227.526449 
L 287.305079 227.43364 
L 287.739683 227.402703 
L 289.043498 228.454547 
L 289.478103 228.299864 
L 289.912707 228.423611 
L 290.347312 228.237991 
L 290.781917 228.268928 
L 291.216522 228.825786 
L 291.651127 229.073279 
L 292.085732 228.732976 
L 292.520336 228.732976 
L 292.954941 229.227962 
L 293.389546 229.135152 
L 293.824151 228.732976 
L 294.258756 229.97044 
L 295.56257 230.434489 
L 295.997175 230.558236 
L 296.43178 230.898538 
L 296.866385 231.084158 
L 297.300989 230.573704 
L 297.735594 230.69745 
L 298.170199 231.053221 
L 298.604804 230.326211 
L 299.039409 229.382645 
L 299.474014 228.887659 
L 299.908618 228.098776 
L 300.343223 226.412732 
L 300.777828 225.855873 
L 301.212433 220.194476 
L 301.647038 212.723289 
L 302.081643 210.325703 
L 302.516247 195.971123 
L 303.385457 195.476138 
L 305.123876 196.852816 
L 305.558481 197.517953 
L 306.427691 198.306836 
L 307.2969 201.694393 
L 308.16611 203.72074 
L 308.600715 205.221165 
L 309.03532 206.056453 
L 310.339134 211.160991 
L 311.642949 217.549398 
L 312.512158 220.658525 
L 313.381368 224.943244 
L 313.815973 225.592912 
L 314.685182 229.305303 
L 315.988997 233.079568 
L 316.423602 233.930324 
L 316.858207 235.05951 
L 317.292811 235.78652 
L 318.596626 238.802838 
L 319.031231 239.174077 
L 319.90044 240.102175 
L 320.76965 240.272326 
L 321.63886 240.78278 
L 322.073465 240.68997 
L 322.508069 240.396072 
L 322.942674 240.581692 
L 323.377279 240.365136 
L 323.811884 240.318731 
L 324.246489 239.684531 
L 324.681093 239.653594 
L 325.115698 239.359697 
L 325.984908 237.33335 
L 326.419513 238.153169 
L 326.854118 238.276916 
L 327.723327 239.684531 
L 328.157932 240.194985 
L 328.592537 241.633536 
L 329.027142 243.520669 
L 329.461747 243.938313 
L 329.896351 243.830034 
L 330.330956 244.263147 
L 330.765561 242.546166 
L 331.200166 240.024833 
L 332.069375 238.60175 
L 332.50398 238.292384 
L 332.938585 238.245979 
L 333.37319 237.565374 
L 333.807795 236.018544 
L 334.677004 230.898538 
L 335.111609 229.614669 
L 335.546214 229.212494 
L 335.980819 228.299864 
L 336.415424 226.598351 
L 336.850029 225.716659 
L 337.284633 224.463726 
L 337.719238 221.555687 
L 338.588448 212.877972 
L 339.023053 207.17017 
L 339.457658 206.010048 
L 340.326867 200.920978 
L 340.761472 200.224905 
L 341.630682 197.471548 
L 342.065286 196.079401 
L 342.499891 195.259582 
L 342.934496 194.176801 
L 343.369101 193.465259 
L 344.238311 192.506225 
L 345.542125 188.670087 
L 345.97673 188.128697 
L 347.280544 193.295108 
L 347.715149 195.244113 
L 348.149754 196.481577 
L 348.584359 196.992031 
L 349.018964 197.007499 
L 349.453568 196.234084 
L 349.888173 196.388767 
L 350.322778 196.388767 
L 350.757383 197.45608 
L 351.191988 197.579826 
L 352.061197 197.285928 
L 352.495802 198.384178 
L 352.930407 198.353241 
L 353.365012 198.012938 
L 353.799617 197.889192 
L 354.234222 198.291368 
L 354.668826 198.461519 
L 355.103431 197.99747 
L 355.538036 198.291368 
L 355.972641 199.203997 
L 356.407246 199.080251 
L 356.841851 197.672636 
L 357.276455 202.653428 
L 357.71106 204.772584 
L 358.145665 205.112887 
L 358.58027 205.731619 
L 359.014875 205.499594 
L 359.449479 206.319414 
L 359.884084 209.923527 
L 360.318689 210.867093 
L 360.753294 210.449449 
L 361.187899 208.051863 
L 361.622504 207.757966 
L 362.491713 205.839897 
L 363.360923 202.390467 
L 363.795528 201.493305 
L 364.230133 199.931007 
L 365.099342 186.844828 
L 365.533947 185.236125 
L 365.968552 184.679266 
L 366.403157 185.004101 
L 366.837761 185.019569 
L 367.272366 185.406276 
L 367.706971 185.514554 
L 368.141576 185.885794 
L 368.576181 185.700174 
L 369.010786 186.148755 
L 369.44539 186.953106 
L 370.3146 190.3716 
L 370.749205 191.299698 
L 371.18381 193.63541 
L 372.053019 195.646289 
L 372.922229 199.791793 
L 373.791439 203.937296 
L 374.226044 207.371258 
L 374.660648 209.382137 
L 375.529858 214.502143 
L 376.833672 220.828677 
L 377.702882 223.396414 
L 378.572092 225.221673 
L 380.310511 231.068689 
L 380.745116 231.70289 
L 381.179721 232.027724 
L 381.614326 232.723797 
L 382.04893 233.017695 
L 382.483535 232.87848 
L 382.91814 233.419871 
L 383.352745 234.456246 
L 383.78735 234.734676 
L 384.221954 235.554496 
L 385.091164 236.266037 
L 385.525769 236.32791 
L 385.960374 235.97214 
L 386.394979 234.688271 
L 386.829583 234.363437 
L 387.264188 234.347968 
L 387.698793 234.487183 
L 388.133398 231.996787 
L 388.568003 232.012255 
L 389.002608 233.760173 
L 389.437212 234.3325 
L 390.306422 235.956671 
L 390.741027 237.085857 
L 391.175632 238.78737 
L 391.610237 241.41698 
L 392.044841 241.540726 
L 392.479446 241.927434 
L 392.914051 243.072088 
L 393.348656 242.035712 
L 393.783261 240.457946 
L 394.217865 239.32876 
L 394.65247 238.802838 
L 395.087075 239.622658 
L 395.52168 240.179516 
L 395.956285 239.23595 
L 396.825494 236.281505 
L 397.260099 235.353408 
L 397.694704 233.6983 
L 398.129309 232.754734 
L 398.998519 228.70204 
L 399.433123 227.232552 
L 399.867728 225.005117 
L 401.171543 221.199916 
L 401.606148 219.699491 
L 402.040752 217.533929 
L 402.909962 215.739607 
L 403.779172 211.191928 
L 404.213776 209.397605 
L 405.082986 207.092829 
L 405.517591 206.706121 
L 405.952196 206.489565 
L 406.821405 204.509623 
L 407.25601 203.952765 
L 408.12522 202.282188 
L 408.559825 202.668896 
L 408.99443 202.746237 
L 409.429034 201.694393 
L 409.863639 201.292217 
L 410.298244 201.4469 
L 410.732849 202.282188 
L 411.602058 204.370409 
L 412.036663 205.917238 
L 412.471268 205.80896 
L 412.905873 206.334882 
L 413.340478 205.17476 
L 413.775083 205.793492 
L 414.209687 206.829868 
L 415.513502 209.088239 
L 415.948107 210.882562 
L 417.686526 212.475796 
L 418.121131 212.44486 
L 418.555736 212.25924 
L 418.990341 211.826128 
L 419.424945 212.16643 
L 419.85955 211.857064 
L 420.294155 210.789752 
L 420.72876 210.604132 
L 421.163365 215.600392 
L 421.597969 217.379246 
L 422.032574 217.286437 
L 422.467179 217.332842 
L 422.901784 216.605832 
L 423.336389 214.873382 
L 423.770994 211.578635 
L 424.205598 209.413073 
L 424.640203 208.113736 
L 425.509413 204.494155 
L 425.944018 202.297657 
L 426.378623 200.8127 
L 426.813227 198.229495 
L 427.682437 188.144165 
L 428.117042 186.117818 
L 428.551647 186.055945 
L 428.986251 186.798423 
L 429.420856 187.045916 
L 429.855461 187.834799 
L 430.290066 186.597335 
L 430.724671 187.231535 
L 431.159276 186.937638 
L 431.59388 187.216067 
L 432.46309 190.572688 
L 432.897695 190.851117 
L 433.3323 192.800122 
L 433.766905 193.681815 
L 434.201509 195.27505 
L 435.070719 197.45608 
L 435.505324 198.647139 
L 436.374534 202.297657 
L 436.809138 203.612462 
L 438.112953 209.62963 
L 438.982162 212.35205 
L 440.720582 223.783121 
L 442.024396 229.042342 
L 442.893606 231.347119 
L 445.06663 235.941203 
L 445.501235 236.374315 
L 445.93584 238.957521 
L 446.370444 238.184106 
L 446.805049 238.106765 
L 447.239654 238.586282 
L 447.674259 239.282355 
L 448.108864 239.452506 
L 448.543469 240.798248 
L 448.978073 239.993897 
L 449.412678 241.679941 
L 449.847283 239.87015 
L 450.281888 239.467975 
L 450.716493 237.627247 
L 451.151098 237.286945 
L 451.585702 238.029423 
L 452.020307 239.344228 
L 452.454912 239.885619 
L 453.324122 242.020244 
L 454.193331 246.057469 
L 454.627936 247.387743 
L 455.062541 248.284904 
L 455.497146 248.903636 
L 456.366355 249.506899 
L 456.80096 248.176626 
L 457.235565 247.604299 
L 457.67017 247.728045 
L 458.53938 246.274025 
L 458.973984 245.809976 
L 459.408589 244.820005 
L 460.277799 244.015654 
L 460.712404 243.180366 
L 461.581613 239.452506 
L 462.450823 236.405252 
L 463.320033 234.904827 
L 464.623847 229.692011 
L 465.058452 228.671103 
L 466.796871 221.277257 
L 467.231476 220.457438 
L 467.666081 219.142632 
L 468.100686 217.394715 
L 470.27371 214.069031 
L 470.708315 212.25924 
L 471.577524 212.661416 
L 472.012129 211.764255 
L 472.446734 210.511323 
L 472.881339 210.89803 
L 473.315944 210.851625 
L 473.750548 211.43942 
L 474.185153 211.501294 
L 474.619758 211.114586 
L 475.054363 211.408484 
L 475.488968 211.300206 
L 476.358177 212.290177 
L 476.792782 212.924377 
L 477.661992 213.697792 
L 478.096597 213.666855 
L 478.531202 213.465767 
L 479.835016 215.151812 
L 480.269621 214.765104 
L 480.704226 214.765104 
L 481.13883 215.059002 
L 481.573435 216.234592 
L 482.442645 217.750486 
L 482.87725 217.06988 
L 483.311855 217.642207 
L 484.181064 217.224563 
L 484.615669 217.688612 
L 485.050274 217.657676 
L 485.484879 217.2555 
L 485.919484 217.286437 
L 486.354088 216.064441 
L 486.788693 215.430241 
L 487.223298 214.997129 
L 487.657903 214.208246 
L 488.961717 209.320264 
L 489.396322 206.180199 
L 489.830927 200.627081 
L 490.265532 192.45982 
L 490.700137 189.675526 
L 491.134741 188.840238 
L 491.569346 188.685555 
L 492.003951 189.149604 
L 492.438556 188.948516 
L 492.873161 188.902111 
L 493.307766 189.041326 
L 493.74237 189.428034 
L 494.176975 188.871175 
L 494.61158 187.509965 
L 495.046185 188.066823 
L 495.48079 187.803862 
L 495.915395 188.561809 
L 496.349999 190.139575 
L 496.784604 191.09861 
L 497.653814 193.496196 
L 498.523023 197.440611 
L 498.957628 201.122066 
L 499.826838 206.53597 
L 500.261443 209.846186 
L 501.999862 219.173569 
L 502.434467 220.79774 
L 502.434467 220.79774 
" clip-path="url(#p853cee43fc)" style="fill: none; stroke: #5b5b5b; stroke-width: 1.2; stroke-linecap: square"/>
   </g>
   <g id="patch_8">
    <path d="M 55.410938 256.68 
L 55.410938 156.888 
" style="fill: none; stroke: #cccccc; stroke-width: 0.75; stroke-linejoin: miter; stroke-linecap: square"/>
   </g>
   <g id="patch_9">
    <path d="M 80.433182 266.68 
L 487.223298 266.68 
" style="fill: none; stroke: #cccccc; stroke-width: 0.75; stroke-linejoin: miter; stroke-linecap: square"/>
   </g>
  </g>
 </g>
 <defs>
  <clipPath id="pf2edf7e83f">
   <rect x="60.410938" y="106.992" width="446.4" height="0"/>
  </clipPath>
  <clipPath id="p80c1bb8370">
   <rect x="60.410938" y="7.2" width="446.4" height="99.792"/>
  </clipPath>
  <clipPath id="pd595140d35">
   <rect x="60.410938" y="256.68" width="446.4" height="0"/>
  </clipPath>
  <clipPath id="p853cee43fc">
   <rect x="60.410938" y="156.888" width="446.4" height="99.792"/>
  </clipPath>
 </defs>
</svg>
