<?xml version="1.0" encoding="utf-8" standalone="no"?>
<!DOCTYPE svg PUBLIC "-//W3C//DTD SVG 1.1//EN"
  "http://www.w3.org/Graphics/SVG/1.1/DTD/svg11.dtd">
<svg xmlns:xlink="http://www.w3.org/1999/xlink" width="511.517509pt" height="271.95125pt" viewBox="0 0 511.517509 271.95125" xmlns="http://www.w3.org/2000/svg" version="1.1">
 <metadata>
  <rdf:RDF xmlns:dc="http://purl.org/dc/elements/1.1/" xmlns:cc="http://creativecommons.org/ns#" xmlns:rdf="http://www.w3.org/1999/02/22-rdf-syntax-ns#">
   <cc:Work>
    <dc:type rdf:resource="http://purl.org/dc/dcmitype/StillImage"/>
    <dc:date>2024-04-25T23:12:25.103041</dc:date>
    <dc:format>image/svg+xml</dc:format>
    <dc:creator>
     <cc:Agent>
      <dc:title>Matplotlib v3.8.3, https://matplotlib.org/</dc:title>
     </cc:Agent>
    </dc:creator>
   </cc:Work>
  </rdf:RDF>
 </metadata>
 <defs>
  <style type="text/css">*{stroke-linejoin: round; stroke-linecap: butt}</style>
 </defs>
 <g id="figure_1">
  <g id="patch_1">
   <path d="M 0 271.95125 
L 511.517509 271.95125 
L 511.517509 0 
L 0 0 
L 0 271.95125 
z
" style="fill: none"/>
  </g>
  <g id="axes_1">
   <g id="patch_2">
    <path d="M 57.910938 102.70375 
L 504.310937 102.70375 
L 504.310937 10.30375 
L 57.910938 10.30375 
L 57.910938 102.70375 
z
" style="fill: none"/>
   </g>
   <g id="matplotlib.axis_1">
    <g id="xtick_1">
     <g id="line2d_1">
      <defs>
       <path id="ma4242da799" d="M 0 0 
L 0 3 
" style="stroke: #cccccc; stroke-width: 0.75"/>
      </defs>
      <g>
       <use xlink:href="#ma4242da799" x="62.287408" y="107.70375" style="fill: #cccccc; stroke: #cccccc; stroke-width: 0.75"/>
      </g>
     </g>
     <g id="text_1">
      <!-- 00 -->
      <g style="fill: #808080" transform="translate(58.338971 122.135312) scale(0.07 -0.07)">
       <defs>
        <path id="Ubuntu-30" d="M 320 2221 
Q 320 3334 713 3936 
Q 1107 4538 1805 4538 
Q 2502 4538 2896 3936 
Q 3290 3334 3290 2221 
Q 3290 1107 2896 505 
Q 2502 -96 1805 -96 
Q 1107 -96 713 505 
Q 320 1107 320 2221 
z
M 2662 2221 
Q 2662 2586 2620 2912 
Q 2579 3238 2480 3481 
Q 2381 3725 2214 3869 
Q 2048 4013 1805 4013 
Q 1562 4013 1395 3869 
Q 1229 3725 1129 3481 
Q 1030 3238 988 2912 
Q 947 2586 947 2221 
Q 947 1856 988 1529 
Q 1030 1203 1129 960 
Q 1229 717 1395 573 
Q 1562 429 1805 429 
Q 2048 429 2214 573 
Q 2381 717 2480 960 
Q 2579 1203 2620 1529 
Q 2662 1856 2662 2221 
z
" transform="scale(0.015625)"/>
       </defs>
       <use xlink:href="#Ubuntu-30"/>
       <use xlink:href="#Ubuntu-30" x="56.399994"/>
      </g>
     </g>
    </g>
    <g id="xtick_2">
     <g id="line2d_2">
      <g>
       <use xlink:href="#ma4242da799" x="77.933182" y="107.70375" style="fill: #cccccc; stroke: #cccccc; stroke-width: 0.75"/>
      </g>
     </g>
     <g id="text_2">
      <!-- 06 -->
      <g style="fill: #808080" transform="translate(73.984744 122.135312) scale(0.07 -0.07)">
       <defs>
        <path id="Ubuntu-36" d="M 403 1779 
Q 403 2426 582 2922 
Q 762 3418 1091 3757 
Q 1421 4096 1891 4272 
Q 2362 4448 2950 4454 
L 2995 3955 
Q 2618 3949 2307 3872 
Q 1997 3795 1753 3628 
Q 1510 3462 1344 3196 
Q 1178 2931 1094 2541 
Q 1261 2618 1469 2669 
Q 1677 2720 1901 2720 
Q 2278 2720 2540 2605 
Q 2803 2490 2969 2301 
Q 3136 2112 3209 1865 
Q 3283 1619 3283 1350 
Q 3283 1107 3200 851 
Q 3117 595 2947 384 
Q 2778 173 2515 38 
Q 2253 -96 1894 -96 
Q 1165 -96 784 403 
Q 403 902 403 1779 
z
M 1837 2234 
Q 1613 2234 1421 2192 
Q 1229 2150 1037 2067 
Q 1030 1997 1027 1923 
Q 1024 1850 1024 1779 
Q 1024 1498 1062 1248 
Q 1101 998 1200 809 
Q 1299 621 1465 509 
Q 1632 397 1888 397 
Q 2099 397 2246 486 
Q 2394 576 2490 717 
Q 2586 858 2627 1021 
Q 2669 1184 2669 1338 
Q 2669 1773 2461 2003 
Q 2253 2234 1837 2234 
z
" transform="scale(0.015625)"/>
       </defs>
       <use xlink:href="#Ubuntu-30"/>
       <use xlink:href="#Ubuntu-36" x="56.399994"/>
      </g>
     </g>
    </g>
    <g id="xtick_3">
     <g id="line2d_3">
      <g>
       <use xlink:href="#ma4242da799" x="93.578955" y="107.70375" style="fill: #cccccc; stroke: #cccccc; stroke-width: 0.75"/>
      </g>
     </g>
     <g id="text_3">
      <!-- 12 -->
      <g style="fill: #808080" transform="translate(89.630518 122.135312) scale(0.07 -0.07)">
       <defs>
        <path id="Ubuntu-31" d="M 595 3520 
Q 960 3661 1305 3881 
Q 1651 4102 1939 4435 
L 2362 4435 
L 2362 0 
L 1766 0 
L 1766 3610 
Q 1690 3539 1578 3462 
Q 1466 3386 1334 3315 
Q 1203 3245 1059 3181 
Q 915 3117 781 3072 
L 595 3520 
z
" transform="scale(0.015625)"/>
        <path id="Ubuntu-32" d="M 2989 3302 
Q 2989 3072 2896 2857 
Q 2803 2643 2649 2435 
Q 2496 2227 2304 2025 
Q 2112 1824 1920 1632 
Q 1811 1523 1667 1376 
Q 1523 1229 1395 1069 
Q 1267 909 1180 761 
Q 1094 614 1094 506 
L 3136 506 
L 3136 0 
L 448 0 
Q 442 38 442 76 
Q 442 115 442 147 
Q 442 448 541 707 
Q 640 966 800 1196 
Q 960 1427 1158 1632 
Q 1357 1837 1549 2029 
Q 1709 2182 1853 2332 
Q 1997 2483 2109 2633 
Q 2221 2784 2288 2944 
Q 2355 3104 2355 3283 
Q 2355 3475 2294 3609 
Q 2234 3744 2131 3833 
Q 2029 3923 1891 3964 
Q 1754 4006 1600 4006 
Q 1414 4006 1260 3955 
Q 1107 3904 985 3837 
Q 864 3770 781 3696 
Q 698 3622 653 3584 
L 358 4006 
Q 416 4070 531 4163 
Q 646 4256 806 4339 
Q 966 4422 1164 4480 
Q 1363 4538 1594 4538 
Q 2291 4538 2640 4214 
Q 2989 3891 2989 3302 
z
" transform="scale(0.015625)"/>
       </defs>
       <use xlink:href="#Ubuntu-31"/>
       <use xlink:href="#Ubuntu-32" x="56.399994"/>
      </g>
     </g>
    </g>
    <g id="xtick_4">
     <g id="line2d_4">
      <g>
       <use xlink:href="#ma4242da799" x="109.224729" y="107.70375" style="fill: #cccccc; stroke: #cccccc; stroke-width: 0.75"/>
      </g>
     </g>
     <g id="text_4">
      <!-- 18 -->
      <g style="fill: #808080" transform="translate(105.276292 122.135312) scale(0.07 -0.07)">
       <defs>
        <path id="Ubuntu-38" d="M 3258 1152 
Q 3258 883 3165 656 
Q 3072 429 2889 259 
Q 2707 90 2432 -3 
Q 2157 -96 1798 -96 
Q 1382 -96 1104 22 
Q 826 141 659 320 
Q 493 499 422 713 
Q 352 928 352 1120 
Q 352 1306 413 1475 
Q 474 1645 573 1792 
Q 672 1939 803 2057 
Q 934 2176 1082 2266 
Q 454 2624 454 3322 
Q 454 3565 550 3785 
Q 646 4006 822 4172 
Q 998 4339 1248 4438 
Q 1498 4538 1805 4538 
Q 2163 4538 2419 4429 
Q 2675 4320 2838 4150 
Q 3002 3981 3075 3776 
Q 3149 3571 3149 3379 
Q 3149 3194 3094 3030 
Q 3040 2867 2947 2726 
Q 2854 2586 2736 2477 
Q 2618 2368 2490 2285 
Q 3245 1926 3258 1152 
z
M 954 1114 
Q 954 998 995 873 
Q 1037 749 1139 643 
Q 1242 538 1402 467 
Q 1562 397 1805 397 
Q 2022 397 2185 461 
Q 2349 525 2451 624 
Q 2554 723 2605 851 
Q 2656 979 2656 1114 
Q 2656 1318 2579 1472 
Q 2502 1626 2358 1741 
Q 2214 1856 2012 1936 
Q 1811 2016 1555 2074 
Q 1267 1914 1110 1677 
Q 954 1440 954 1114 
z
M 2554 3386 
Q 2554 3482 2512 3597 
Q 2470 3712 2380 3811 
Q 2291 3910 2150 3977 
Q 2010 4045 1805 4045 
Q 1600 4045 1456 3981 
Q 1312 3917 1222 3817 
Q 1133 3718 1091 3600 
Q 1050 3482 1050 3366 
Q 1050 3226 1101 3085 
Q 1152 2944 1261 2822 
Q 1370 2701 1546 2605 
Q 1722 2509 1965 2451 
Q 2234 2611 2394 2825 
Q 2554 3040 2554 3386 
z
" transform="scale(0.015625)"/>
       </defs>
       <use xlink:href="#Ubuntu-31"/>
       <use xlink:href="#Ubuntu-38" x="56.399994"/>
      </g>
     </g>
    </g>
    <g id="xtick_5">
     <g id="line2d_5">
      <g>
       <use xlink:href="#ma4242da799" x="124.870503" y="107.70375" style="fill: #cccccc; stroke: #cccccc; stroke-width: 0.75"/>
      </g>
     </g>
     <g id="text_5">
      <!-- 00 -->
      <g style="fill: #808080" transform="translate(120.922065 122.135312) scale(0.07 -0.07)">
       <use xlink:href="#Ubuntu-30"/>
       <use xlink:href="#Ubuntu-30" x="56.399994"/>
      </g>
     </g>
    </g>
    <g id="xtick_6">
     <g id="line2d_6">
      <g>
       <use xlink:href="#ma4242da799" x="140.516277" y="107.70375" style="fill: #cccccc; stroke: #cccccc; stroke-width: 0.75"/>
      </g>
     </g>
     <g id="text_6">
      <!-- 06 -->
      <g style="fill: #808080" transform="translate(136.567839 122.135312) scale(0.07 -0.07)">
       <use xlink:href="#Ubuntu-30"/>
       <use xlink:href="#Ubuntu-36" x="56.399994"/>
      </g>
     </g>
    </g>
    <g id="xtick_7">
     <g id="line2d_7">
      <g>
       <use xlink:href="#ma4242da799" x="156.16205" y="107.70375" style="fill: #cccccc; stroke: #cccccc; stroke-width: 0.75"/>
      </g>
     </g>
     <g id="text_7">
      <!-- 12 -->
      <g style="fill: #808080" transform="translate(152.213613 122.135312) scale(0.07 -0.07)">
       <use xlink:href="#Ubuntu-31"/>
       <use xlink:href="#Ubuntu-32" x="56.399994"/>
      </g>
     </g>
    </g>
    <g id="xtick_8">
     <g id="line2d_8">
      <g>
       <use xlink:href="#ma4242da799" x="171.807824" y="107.70375" style="fill: #cccccc; stroke: #cccccc; stroke-width: 0.75"/>
      </g>
     </g>
     <g id="text_8">
      <!-- 18 -->
      <g style="fill: #808080" transform="translate(167.859387 122.135312) scale(0.07 -0.07)">
       <use xlink:href="#Ubuntu-31"/>
       <use xlink:href="#Ubuntu-38" x="56.399994"/>
      </g>
     </g>
    </g>
    <g id="xtick_9">
     <g id="line2d_9">
      <g>
       <use xlink:href="#ma4242da799" x="187.453598" y="107.70375" style="fill: #cccccc; stroke: #cccccc; stroke-width: 0.75"/>
      </g>
     </g>
     <g id="text_9">
      <!-- 00 -->
      <g style="fill: #808080" transform="translate(183.50516 122.135312) scale(0.07 -0.07)">
       <use xlink:href="#Ubuntu-30"/>
       <use xlink:href="#Ubuntu-30" x="56.399994"/>
      </g>
     </g>
    </g>
    <g id="xtick_10">
     <g id="line2d_10">
      <g>
       <use xlink:href="#ma4242da799" x="203.099371" y="107.70375" style="fill: #cccccc; stroke: #cccccc; stroke-width: 0.75"/>
      </g>
     </g>
     <g id="text_10">
      <!-- 06 -->
      <g style="fill: #808080" transform="translate(199.150934 122.135312) scale(0.07 -0.07)">
       <use xlink:href="#Ubuntu-30"/>
       <use xlink:href="#Ubuntu-36" x="56.399994"/>
      </g>
     </g>
    </g>
    <g id="xtick_11">
     <g id="line2d_11">
      <g>
       <use xlink:href="#ma4242da799" x="218.745145" y="107.70375" style="fill: #cccccc; stroke: #cccccc; stroke-width: 0.75"/>
      </g>
     </g>
     <g id="text_11">
      <!-- 12 -->
      <g style="fill: #808080" transform="translate(214.796708 122.135312) scale(0.07 -0.07)">
       <use xlink:href="#Ubuntu-31"/>
       <use xlink:href="#Ubuntu-32" x="56.399994"/>
      </g>
     </g>
    </g>
    <g id="xtick_12">
     <g id="line2d_12">
      <g>
       <use xlink:href="#ma4242da799" x="234.390919" y="107.70375" style="fill: #cccccc; stroke: #cccccc; stroke-width: 0.75"/>
      </g>
     </g>
     <g id="text_12">
      <!-- 18 -->
      <g style="fill: #808080" transform="translate(230.442481 122.135312) scale(0.07 -0.07)">
       <use xlink:href="#Ubuntu-31"/>
       <use xlink:href="#Ubuntu-38" x="56.399994"/>
      </g>
     </g>
    </g>
    <g id="xtick_13">
     <g id="line2d_13">
      <g>
       <use xlink:href="#ma4242da799" x="250.036693" y="107.70375" style="fill: #cccccc; stroke: #cccccc; stroke-width: 0.75"/>
      </g>
     </g>
     <g id="text_13">
      <!-- 00 -->
      <g style="fill: #808080" transform="translate(246.088255 122.135312) scale(0.07 -0.07)">
       <use xlink:href="#Ubuntu-30"/>
       <use xlink:href="#Ubuntu-30" x="56.399994"/>
      </g>
     </g>
    </g>
    <g id="xtick_14">
     <g id="line2d_14">
      <g>
       <use xlink:href="#ma4242da799" x="265.682466" y="107.70375" style="fill: #cccccc; stroke: #cccccc; stroke-width: 0.75"/>
      </g>
     </g>
     <g id="text_14">
      <!-- 06 -->
      <g style="fill: #808080" transform="translate(261.734029 122.135312) scale(0.07 -0.07)">
       <use xlink:href="#Ubuntu-30"/>
       <use xlink:href="#Ubuntu-36" x="56.399994"/>
      </g>
     </g>
    </g>
    <g id="xtick_15">
     <g id="line2d_15">
      <g>
       <use xlink:href="#ma4242da799" x="281.32824" y="107.70375" style="fill: #cccccc; stroke: #cccccc; stroke-width: 0.75"/>
      </g>
     </g>
     <g id="text_15">
      <!-- 12 -->
      <g style="fill: #808080" transform="translate(277.379802 122.135312) scale(0.07 -0.07)">
       <use xlink:href="#Ubuntu-31"/>
       <use xlink:href="#Ubuntu-32" x="56.399994"/>
      </g>
     </g>
    </g>
    <g id="xtick_16">
     <g id="line2d_16">
      <g>
       <use xlink:href="#ma4242da799" x="296.974014" y="107.70375" style="fill: #cccccc; stroke: #cccccc; stroke-width: 0.75"/>
      </g>
     </g>
     <g id="text_16">
      <!-- 18 -->
      <g style="fill: #808080" transform="translate(293.025576 122.135312) scale(0.07 -0.07)">
       <use xlink:href="#Ubuntu-31"/>
       <use xlink:href="#Ubuntu-38" x="56.399994"/>
      </g>
     </g>
    </g>
    <g id="xtick_17">
     <g id="line2d_17">
      <g>
       <use xlink:href="#ma4242da799" x="312.619787" y="107.70375" style="fill: #cccccc; stroke: #cccccc; stroke-width: 0.75"/>
      </g>
     </g>
     <g id="text_17">
      <!-- 00 -->
      <g style="fill: #808080" transform="translate(308.67135 122.135312) scale(0.07 -0.07)">
       <use xlink:href="#Ubuntu-30"/>
       <use xlink:href="#Ubuntu-30" x="56.399994"/>
      </g>
     </g>
    </g>
    <g id="xtick_18">
     <g id="line2d_18">
      <g>
       <use xlink:href="#ma4242da799" x="328.265561" y="107.70375" style="fill: #cccccc; stroke: #cccccc; stroke-width: 0.75"/>
      </g>
     </g>
     <g id="text_18">
      <!-- 06 -->
      <g style="fill: #808080" transform="translate(324.317124 122.135312) scale(0.07 -0.07)">
       <use xlink:href="#Ubuntu-30"/>
       <use xlink:href="#Ubuntu-36" x="56.399994"/>
      </g>
     </g>
    </g>
    <g id="xtick_19">
     <g id="line2d_19">
      <g>
       <use xlink:href="#ma4242da799" x="343.911335" y="107.70375" style="fill: #cccccc; stroke: #cccccc; stroke-width: 0.75"/>
      </g>
     </g>
     <g id="text_19">
      <!-- 12 -->
      <g style="fill: #808080" transform="translate(339.962897 122.135312) scale(0.07 -0.07)">
       <use xlink:href="#Ubuntu-31"/>
       <use xlink:href="#Ubuntu-32" x="56.399994"/>
      </g>
     </g>
    </g>
    <g id="xtick_20">
     <g id="line2d_20">
      <g>
       <use xlink:href="#ma4242da799" x="359.557108" y="107.70375" style="fill: #cccccc; stroke: #cccccc; stroke-width: 0.75"/>
      </g>
     </g>
     <g id="text_20">
      <!-- 18 -->
      <g style="fill: #808080" transform="translate(355.608671 122.135312) scale(0.07 -0.07)">
       <use xlink:href="#Ubuntu-31"/>
       <use xlink:href="#Ubuntu-38" x="56.399994"/>
      </g>
     </g>
    </g>
    <g id="xtick_21">
     <g id="line2d_21">
      <g>
       <use xlink:href="#ma4242da799" x="375.202882" y="107.70375" style="fill: #cccccc; stroke: #cccccc; stroke-width: 0.75"/>
      </g>
     </g>
     <g id="text_21">
      <!-- 00 -->
      <g style="fill: #808080" transform="translate(371.254445 122.135312) scale(0.07 -0.07)">
       <use xlink:href="#Ubuntu-30"/>
       <use xlink:href="#Ubuntu-30" x="56.399994"/>
      </g>
     </g>
    </g>
    <g id="xtick_22">
     <g id="line2d_22">
      <g>
       <use xlink:href="#ma4242da799" x="390.848656" y="107.70375" style="fill: #cccccc; stroke: #cccccc; stroke-width: 0.75"/>
      </g>
     </g>
     <g id="text_22">
      <!-- 06 -->
      <g style="fill: #808080" transform="translate(386.900218 122.135312) scale(0.07 -0.07)">
       <use xlink:href="#Ubuntu-30"/>
       <use xlink:href="#Ubuntu-36" x="56.399994"/>
      </g>
     </g>
    </g>
    <g id="xtick_23">
     <g id="line2d_23">
      <g>
       <use xlink:href="#ma4242da799" x="406.49443" y="107.70375" style="fill: #cccccc; stroke: #cccccc; stroke-width: 0.75"/>
      </g>
     </g>
     <g id="text_23">
      <!-- 12 -->
      <g style="fill: #808080" transform="translate(402.545992 122.135312) scale(0.07 -0.07)">
       <use xlink:href="#Ubuntu-31"/>
       <use xlink:href="#Ubuntu-32" x="56.399994"/>
      </g>
     </g>
    </g>
    <g id="xtick_24">
     <g id="line2d_24">
      <g>
       <use xlink:href="#ma4242da799" x="422.140203" y="107.70375" style="fill: #cccccc; stroke: #cccccc; stroke-width: 0.75"/>
      </g>
     </g>
     <g id="text_24">
      <!-- 18 -->
      <g style="fill: #808080" transform="translate(418.191766 122.135312) scale(0.07 -0.07)">
       <use xlink:href="#Ubuntu-31"/>
       <use xlink:href="#Ubuntu-38" x="56.399994"/>
      </g>
     </g>
    </g>
    <g id="xtick_25">
     <g id="line2d_25">
      <g>
       <use xlink:href="#ma4242da799" x="437.785977" y="107.70375" style="fill: #cccccc; stroke: #cccccc; stroke-width: 0.75"/>
      </g>
     </g>
     <g id="text_25">
      <!-- 00 -->
      <g style="fill: #808080" transform="translate(433.837539 122.135312) scale(0.07 -0.07)">
       <use xlink:href="#Ubuntu-30"/>
       <use xlink:href="#Ubuntu-30" x="56.399994"/>
      </g>
     </g>
    </g>
    <g id="xtick_26">
     <g id="line2d_26">
      <g>
       <use xlink:href="#ma4242da799" x="453.431751" y="107.70375" style="fill: #cccccc; stroke: #cccccc; stroke-width: 0.75"/>
      </g>
     </g>
     <g id="text_26">
      <!-- 06 -->
      <g style="fill: #808080" transform="translate(449.483313 122.135312) scale(0.07 -0.07)">
       <use xlink:href="#Ubuntu-30"/>
       <use xlink:href="#Ubuntu-36" x="56.399994"/>
      </g>
     </g>
    </g>
    <g id="xtick_27">
     <g id="line2d_27">
      <g>
       <use xlink:href="#ma4242da799" x="469.077524" y="107.70375" style="fill: #cccccc; stroke: #cccccc; stroke-width: 0.75"/>
      </g>
     </g>
     <g id="text_27">
      <!-- 12 -->
      <g style="fill: #808080" transform="translate(465.129087 122.135312) scale(0.07 -0.07)">
       <use xlink:href="#Ubuntu-31"/>
       <use xlink:href="#Ubuntu-32" x="56.399994"/>
      </g>
     </g>
    </g>
    <g id="xtick_28">
     <g id="line2d_28">
      <g>
       <use xlink:href="#ma4242da799" x="484.723298" y="107.70375" style="fill: #cccccc; stroke: #cccccc; stroke-width: 0.75"/>
      </g>
     </g>
     <g id="text_28">
      <!-- 18 -->
      <g style="fill: #808080" transform="translate(480.774861 122.135312) scale(0.07 -0.07)">
       <use xlink:href="#Ubuntu-31"/>
       <use xlink:href="#Ubuntu-38" x="56.399994"/>
      </g>
     </g>
    </g>
    <g id="xtick_29">
     <g id="line2d_29">
      <g>
       <use xlink:href="#ma4242da799" x="500.369072" y="107.70375" style="fill: #cccccc; stroke: #cccccc; stroke-width: 0.75"/>
      </g>
     </g>
     <g id="text_29">
      <!-- 00 -->
      <g style="fill: #808080" transform="translate(496.420634 122.135312) scale(0.07 -0.07)">
       <use xlink:href="#Ubuntu-30"/>
       <use xlink:href="#Ubuntu-30" x="56.399994"/>
      </g>
     </g>
    </g>
   </g>
   <g id="matplotlib.axis_2">
    <g id="ytick_1">
     <g id="line2d_30">
      <defs>
       <path id="m0a475c41da" d="M 0 0 
L -3 0 
" style="stroke: #cccccc; stroke-width: 0.75"/>
      </defs>
      <g>
       <use xlink:href="#m0a475c41da" x="55.410938" y="102.70375" style="fill: #cccccc; stroke: #cccccc; stroke-width: 0.75"/>
      </g>
     </g>
     <g id="text_30">
      <!-- 5000 -->
      <g style="fill: #808080" transform="translate(28.360938 105.8075) scale(0.08 -0.08)">
       <defs>
        <path id="Ubuntu-35" d="M 1274 2726 
Q 2240 2688 2691 2304 
Q 3142 1920 3142 1261 
Q 3142 966 3043 716 
Q 2944 467 2742 288 
Q 2541 109 2233 6 
Q 1926 -96 1504 -96 
Q 1338 -96 1165 -70 
Q 992 -45 845 -6 
Q 698 32 582 70 
Q 467 109 416 134 
L 531 653 
Q 640 602 886 518 
Q 1133 435 1491 435 
Q 1779 435 1974 499 
Q 2170 563 2291 672 
Q 2413 781 2467 925 
Q 2522 1069 2522 1229 
Q 2522 1472 2438 1661 
Q 2355 1850 2144 1978 
Q 1933 2106 1581 2173 
Q 1229 2240 691 2240 
Q 730 2554 752 2829 
Q 774 3104 793 3366 
Q 813 3629 825 3888 
Q 838 4147 851 4435 
L 2989 4435 
L 2989 3930 
L 1370 3930 
Q 1363 3834 1350 3670 
Q 1338 3507 1325 3331 
Q 1312 3155 1299 2988 
Q 1286 2822 1274 2726 
z
" transform="scale(0.015625)"/>
       </defs>
       <use xlink:href="#Ubuntu-35"/>
       <use xlink:href="#Ubuntu-30" x="56.399994"/>
       <use xlink:href="#Ubuntu-30" x="112.799988"/>
       <use xlink:href="#Ubuntu-30" x="169.199982"/>
      </g>
     </g>
    </g>
    <g id="ytick_2">
     <g id="line2d_31">
      <g>
       <use xlink:href="#m0a475c41da" x="55.410938" y="71.90375" style="fill: #cccccc; stroke: #cccccc; stroke-width: 0.75"/>
      </g>
     </g>
     <g id="text_31">
      <!-- 15000 -->
      <g style="fill: #808080" transform="translate(23.848438 75.0075) scale(0.08 -0.08)">
       <use xlink:href="#Ubuntu-31"/>
       <use xlink:href="#Ubuntu-35" x="56.399994"/>
       <use xlink:href="#Ubuntu-30" x="112.799988"/>
       <use xlink:href="#Ubuntu-30" x="169.199982"/>
       <use xlink:href="#Ubuntu-30" x="225.599976"/>
      </g>
     </g>
    </g>
    <g id="ytick_3">
     <g id="line2d_32">
      <g>
       <use xlink:href="#m0a475c41da" x="55.410938" y="41.10375" style="fill: #cccccc; stroke: #cccccc; stroke-width: 0.75"/>
      </g>
     </g>
     <g id="text_32">
      <!-- 25000 -->
      <g style="fill: #808080" transform="translate(23.848438 44.2075) scale(0.08 -0.08)">
       <use xlink:href="#Ubuntu-32"/>
       <use xlink:href="#Ubuntu-35" x="56.399994"/>
       <use xlink:href="#Ubuntu-30" x="112.799988"/>
       <use xlink:href="#Ubuntu-30" x="169.199982"/>
       <use xlink:href="#Ubuntu-30" x="225.599976"/>
      </g>
     </g>
    </g>
    <g id="ytick_4">
     <g id="line2d_33">
      <g>
       <use xlink:href="#m0a475c41da" x="55.410938" y="10.30375" style="fill: #cccccc; stroke: #cccccc; stroke-width: 0.75"/>
      </g>
     </g>
     <g id="text_33">
      <!-- 35000 -->
      <g style="fill: #808080" transform="translate(23.848438 13.4075) scale(0.08 -0.08)">
       <defs>
        <path id="Ubuntu-33" d="M 1446 435 
Q 2016 435 2262 659 
Q 2509 883 2509 1261 
Q 2509 1504 2406 1670 
Q 2304 1837 2137 1936 
Q 1971 2035 1750 2076 
Q 1530 2118 1299 2118 
L 1146 2118 
L 1146 2605 
L 1357 2605 
Q 1517 2605 1686 2637 
Q 1856 2669 1997 2752 
Q 2138 2835 2227 2979 
Q 2317 3123 2317 3341 
Q 2317 3520 2253 3648 
Q 2189 3776 2083 3859 
Q 1978 3942 1840 3977 
Q 1702 4013 1549 4013 
Q 1242 4013 1027 3923 
Q 813 3834 666 3738 
L 435 4192 
Q 512 4243 630 4304 
Q 749 4365 896 4416 
Q 1043 4467 1212 4502 
Q 1382 4538 1568 4538 
Q 1920 4538 2176 4451 
Q 2432 4365 2598 4208 
Q 2765 4051 2848 3836 
Q 2931 3622 2931 3373 
Q 2931 3027 2732 2780 
Q 2534 2534 2253 2406 
Q 2426 2355 2586 2259 
Q 2746 2163 2864 2016 
Q 2982 1869 3056 1677 
Q 3130 1485 3130 1248 
Q 3130 960 3030 713 
Q 2931 467 2723 288 
Q 2515 109 2201 6 
Q 1888 -96 1459 -96 
Q 1293 -96 1117 -70 
Q 941 -45 787 -6 
Q 634 32 518 70 
Q 403 109 352 134 
L 467 653 
Q 576 602 829 518 
Q 1082 435 1446 435 
z
" transform="scale(0.015625)"/>
       </defs>
       <use xlink:href="#Ubuntu-33"/>
       <use xlink:href="#Ubuntu-35" x="56.399994"/>
       <use xlink:href="#Ubuntu-30" x="112.799988"/>
       <use xlink:href="#Ubuntu-30" x="169.199982"/>
       <use xlink:href="#Ubuntu-30" x="225.599976"/>
      </g>
     </g>
    </g>
    <g id="text_34">
     <!-- Target2 -->
     <g style="fill: #505050" transform="translate(14.156719 43.551719) rotate(-90) scale(0.09 -0.09)">
      <defs>
       <path id="Ubuntu-Bold-54" d="M 3802 4435 
L 3802 3584 
L 2464 3584 
L 2464 0 
L 1466 0 
L 1466 3584 
L 128 3584 
L 128 4435 
L 3802 4435 
z
" transform="scale(0.015625)"/>
       <path id="Ubuntu-Bold-61" d="M 1734 666 
Q 1875 666 2003 672 
Q 2131 678 2208 691 
L 2208 1414 
Q 2150 1427 2035 1440 
Q 1920 1453 1824 1453 
Q 1690 1453 1571 1437 
Q 1453 1421 1363 1376 
Q 1274 1331 1222 1254 
Q 1171 1178 1171 1062 
Q 1171 838 1321 752 
Q 1472 666 1734 666 
z
M 1658 3456 
Q 2080 3456 2361 3360 
Q 2643 3264 2812 3085 
Q 2982 2906 3052 2650 
Q 3123 2394 3123 2080 
L 3123 96 
Q 2918 51 2553 -9 
Q 2189 -70 1670 -70 
Q 1344 -70 1078 -12 
Q 813 45 621 176 
Q 429 307 326 518 
Q 224 730 224 1037 
Q 224 1331 342 1536 
Q 461 1741 659 1862 
Q 858 1984 1114 2038 
Q 1370 2093 1645 2093 
Q 1830 2093 1974 2077 
Q 2118 2061 2208 2035 
L 2208 2125 
Q 2208 2368 2061 2515 
Q 1914 2662 1549 2662 
Q 1306 2662 1069 2627 
Q 832 2592 659 2528 
L 538 3296 
Q 621 3322 745 3350 
Q 870 3379 1017 3401 
Q 1165 3424 1328 3440 
Q 1491 3456 1658 3456 
z
" transform="scale(0.015625)"/>
       <path id="Ubuntu-Bold-72" d="M 2477 2522 
Q 2349 2554 2176 2589 
Q 2003 2624 1805 2624 
Q 1715 2624 1590 2608 
Q 1466 2592 1402 2573 
L 1402 0 
L 448 0 
L 448 3187 
Q 704 3277 1053 3357 
Q 1402 3437 1830 3437 
Q 1907 3437 2016 3427 
Q 2125 3418 2233 3402 
Q 2342 3386 2451 3363 
Q 2560 3341 2637 3309 
L 2477 2522 
z
" transform="scale(0.015625)"/>
       <path id="Ubuntu-Bold-67" d="M 1261 1792 
Q 1261 992 1907 992 
Q 2054 992 2182 1030 
Q 2310 1069 2400 1120 
L 2400 2643 
Q 2330 2656 2234 2665 
Q 2138 2675 2010 2675 
Q 1632 2675 1446 2425 
Q 1261 2176 1261 1792 
z
M 3354 422 
Q 3354 -403 2934 -803 
Q 2515 -1203 1638 -1203 
Q 1331 -1203 1024 -1148 
Q 717 -1094 454 -1005 
L 621 -205 
Q 845 -294 1091 -345 
Q 1338 -397 1651 -397 
Q 2061 -397 2230 -217 
Q 2400 -38 2400 243 
L 2400 365 
Q 2246 294 2083 259 
Q 1920 224 1728 224 
Q 1030 224 659 637 
Q 288 1050 288 1792 
Q 288 2163 403 2467 
Q 518 2771 739 2988 
Q 960 3206 1280 3324 
Q 1600 3443 2003 3443 
Q 2176 3443 2358 3427 
Q 2541 3411 2720 3385 
Q 2899 3360 3062 3325 
Q 3226 3290 3354 3251 
L 3354 422 
z
" transform="scale(0.015625)"/>
       <path id="Ubuntu-Bold-65" d="M 288 1658 
Q 288 2106 425 2442 
Q 563 2778 787 3002 
Q 1011 3226 1302 3341 
Q 1594 3456 1901 3456 
Q 2618 3456 3034 3017 
Q 3450 2579 3450 1728 
Q 3450 1645 3443 1545 
Q 3437 1446 3430 1370 
L 1267 1370 
Q 1299 1075 1542 902 
Q 1786 730 2195 730 
Q 2458 730 2710 778 
Q 2963 826 3123 896 
L 3251 122 
Q 3174 83 3046 44 
Q 2918 6 2761 -22 
Q 2605 -51 2425 -70 
Q 2246 -90 2067 -90 
Q 1613 -90 1277 44 
Q 941 179 720 412 
Q 499 646 393 966 
Q 288 1286 288 1658 
z
M 2528 2022 
Q 2522 2144 2486 2259 
Q 2451 2374 2377 2464 
Q 2304 2554 2192 2611 
Q 2080 2669 1914 2669 
Q 1754 2669 1638 2614 
Q 1523 2560 1446 2470 
Q 1370 2381 1328 2262 
Q 1286 2144 1267 2022 
L 2528 2022 
z
" transform="scale(0.015625)"/>
       <path id="Ubuntu-Bold-74" d="M 416 4205 
L 1370 4358 
L 1370 3366 
L 2515 3366 
L 2515 2573 
L 1370 2573 
L 1370 1389 
Q 1370 1088 1475 909 
Q 1581 730 1901 730 
Q 2054 730 2217 758 
Q 2381 787 2515 838 
L 2650 96 
Q 2477 26 2265 -25 
Q 2054 -77 1747 -77 
Q 1357 -77 1101 28 
Q 845 134 691 323 
Q 538 512 477 781 
Q 416 1050 416 1376 
L 416 4205 
z
" transform="scale(0.015625)"/>
       <path id="Ubuntu-Bold-32" d="M 3174 3270 
Q 3174 3027 3078 2803 
Q 2982 2579 2828 2371 
Q 2675 2163 2483 1971 
Q 2291 1779 2106 1606 
Q 2010 1517 1898 1405 
Q 1786 1293 1683 1177 
Q 1581 1062 1501 963 
Q 1421 864 1402 800 
L 3309 800 
L 3309 0 
L 352 0 
Q 339 70 339 179 
Q 339 288 339 333 
Q 339 640 438 896 
Q 538 1152 698 1373 
Q 858 1594 1059 1786 
Q 1261 1978 1459 2170 
Q 1613 2317 1747 2448 
Q 1882 2579 1984 2704 
Q 2086 2829 2144 2953 
Q 2202 3078 2202 3206 
Q 2202 3488 2042 3603 
Q 1882 3718 1645 3718 
Q 1472 3718 1321 3664 
Q 1171 3610 1046 3536 
Q 922 3462 832 3388 
Q 742 3315 698 3270 
L 224 3936 
Q 506 4198 880 4368 
Q 1254 4538 1683 4538 
Q 2074 4538 2355 4448 
Q 2637 4358 2819 4195 
Q 3002 4032 3088 3798 
Q 3174 3565 3174 3270 
z
" transform="scale(0.015625)"/>
      </defs>
      <use xlink:href="#Ubuntu-Bold-54"/>
      <use xlink:href="#Ubuntu-Bold-61" x="53.899994"/>
      <use xlink:href="#Ubuntu-Bold-72" x="109.199982"/>
      <use xlink:href="#Ubuntu-Bold-67" x="150.399979"/>
      <use xlink:href="#Ubuntu-Bold-65" x="209.799973"/>
      <use xlink:href="#Ubuntu-Bold-74" x="268.199966"/>
      <use xlink:href="#Ubuntu-Bold-32" x="312.59996"/>
     </g>
    </g>
   </g>
   <g id="line2d_34">
    <path d="M 62.287408 69.765941 
L 64.025827 73.514634 
L 64.460432 74.192108 
L 65.329642 75.908377 
L 65.764247 76.213241 
L 66.198852 77.093958 
L 66.633456 77.240744 
L 67.068061 77.760141 
L 67.502666 78.618275 
L 67.937271 79.013469 
L 68.371876 78.652149 
L 69.241085 79.092508 
L 69.67569 79.702235 
L 70.110295 78.776353 
L 70.5449 79.261876 
L 70.979505 78.821518 
L 71.414109 78.697314 
L 72.283319 78.719897 
L 72.717924 77.952092 
L 73.152529 76.777803 
L 73.587134 76.145493 
L 74.021738 76.461648 
L 74.456343 76.93588 
L 74.890948 76.868133 
L 75.325553 76.077746 
L 76.194762 79.792565 
L 76.629367 79.589322 
L 77.063972 79.623196 
L 77.498577 79.013469 
L 78.367787 74.666341 
L 78.802391 73.684003 
L 79.236996 74.225982 
L 79.671601 73.458178 
L 80.106206 74.011449 
L 80.540811 73.096858 
L 80.975416 71.278968 
L 81.41002 68.84006 
L 81.844625 67.891595 
L 82.27923 67.564149 
L 83.14844 66.220491 
L 83.583045 66.084996 
L 84.017649 63.521884 
L 84.452254 62.833119 
L 84.886859 63.013779 
L 85.321464 62.584711 
L 85.756069 62.675041 
L 86.190673 62.268557 
L 86.625278 60.857151 
L 87.059883 60.21355 
L 87.494488 58.881184 
L 87.929093 59.265086 
L 88.363698 59.287669 
L 88.798302 58.226292 
L 89.232907 57.5714 
L 89.667512 57.582691 
L 90.102117 56.972964 
L 90.536722 56.600353 
L 90.971327 56.645518 
L 91.405931 56.250324 
L 92.275141 53.698504 
L 92.709746 54.082406 
L 93.144351 54.071115 
L 93.578955 54.455017 
L 94.01356 54.308231 
L 94.448165 54.545347 
L 94.88277 53.958202 
L 95.317375 55.832548 
L 95.75198 54.805045 
L 96.186584 54.319522 
L 96.621189 54.714715 
L 97.055794 54.680842 
L 97.490399 54.906667 
L 97.925004 54.692133 
L 98.359609 55.064744 
L 98.794213 53.246854 
L 99.228818 55.256695 
L 99.663423 54.906667 
L 100.098028 55.245404 
L 100.532633 55.426064 
L 100.967238 56.374528 
L 101.401842 56.318072 
L 101.836447 55.945461 
L 102.271052 56.498732 
L 102.705657 56.781013 
L 103.140262 57.311701 
L 103.574866 59.253795 
L 104.009471 60.078056 
L 104.444076 60.563579 
L 104.878681 62.178227 
L 105.313286 61.410422 
L 105.747891 61.703994 
L 106.182495 62.66375 
L 106.6171 62.93474 
L 107.051705 64.334854 
L 107.48631 63.499302 
L 107.920915 63.284768 
L 108.35552 62.833119 
L 108.790124 63.668671 
L 109.659334 63.036361 
L 110.093939 62.291139 
L 110.963148 59.502202 
L 111.397753 56.792304 
L 112.266963 45.715595 
L 112.701568 43.94287 
L 113.136173 44.134821 
L 113.570777 44.518724 
L 114.439987 44.405811 
L 114.874592 44.868752 
L 115.309197 45.071994 
L 115.743802 45.139742 
L 116.613011 46.562438 
L 117.047616 46.12208 
L 117.482221 47.318952 
L 117.916826 47.364117 
L 118.351431 48.538406 
L 118.786035 48.944891 
L 119.22064 49.543326 
L 120.524455 54.692133 
L 120.959059 56.600353 
L 121.393664 57.255245 
L 121.828269 58.598903 
L 122.262874 60.529705 
L 122.697479 61.873363 
L 123.132084 63.792874 
L 123.566688 64.84296 
L 124.001293 66.288239 
L 124.435898 68.456157 
L 124.870503 69.257836 
L 125.305108 70.816027 
L 125.739713 71.527375 
L 126.174317 71.820948 
L 126.608922 72.317762 
L 127.478132 73.966284 
L 127.912737 74.587302 
L 128.781946 75.084117 
L 129.216551 75.524475 
L 130.085761 77.195579 
L 130.520366 76.981045 
L 130.95497 77.500442 
L 131.82418 77.263326 
L 132.258785 78.358577 
L 133.562599 78.369868 
L 133.997204 77.850471 
L 134.866414 78.381159 
L 135.301019 77.974675 
L 135.735624 76.631017 
L 136.170228 76.653599 
L 136.604833 76.84555 
L 137.039438 76.732638 
L 137.474043 76.800385 
L 137.908648 77.003628 
L 138.343252 78.877974 
L 138.777857 79.950642 
L 139.212462 80.639408 
L 139.647067 80.266797 
L 140.081672 80.232923 
L 140.516277 78.076296 
L 141.385486 75.682552 
L 141.820091 74.880874 
L 142.254696 73.593673 
L 142.689301 73.616255 
L 143.123906 71.369298 
L 143.993115 68.264206 
L 144.42772 67.428654 
L 144.862325 66.864092 
L 145.29693 65.768842 
L 147.469954 61.771742 
L 147.904559 62.2121 
L 148.339163 60.653909 
L 148.773768 60.586161 
L 149.208373 59.1183 
L 149.642978 59.129591 
L 150.512188 57.006838 
L 150.946792 56.272907 
L 151.381397 55.956752 
L 151.816002 55.979335 
L 152.685212 54.443726 
L 153.119817 54.985705 
L 153.554421 54.680842 
L 153.989026 53.958202 
L 154.423631 53.66463 
L 154.858236 53.732377 
L 155.292841 52.930699 
L 156.16205 52.320972 
L 157.03126 51.30476 
L 157.465865 51.835449 
L 157.90047 52.083856 
L 158.335074 53.596882 
L 158.769679 53.054903 
L 159.638889 52.896825 
L 160.073494 53.800125 
L 160.508099 53.630756 
L 160.942703 55.313151 
L 161.811913 54.387269 
L 162.681123 54.782463 
L 163.550332 56.329363 
L 164.419542 55.922878 
L 164.854147 56.521314 
L 165.288752 56.792304 
L 165.723356 56.464858 
L 166.157961 57.097168 
L 166.592566 56.905216 
L 167.027171 57.955302 
L 168.330985 59.197339 
L 168.76559 61.433005 
L 169.200195 62.471799 
L 170.069405 63.047652 
L 170.50401 62.245974 
L 170.938614 61.895946 
L 171.373219 62.008858 
L 172.242429 60.473249 
L 172.677034 60.30388 
L 173.111638 59.490911 
L 173.546243 57.898846 
L 173.980848 55.380899 
L 174.415453 51.169265 
L 174.850058 45.241363 
L 175.719267 43.175066 
L 176.153872 43.536385 
L 176.588477 43.412182 
L 177.023082 43.49122 
L 178.326896 45.139742 
L 178.761501 45.467188 
L 179.196106 45.410732 
L 179.630711 47.228622 
L 180.065316 47.431864 
L 180.499921 47.386699 
L 181.803735 49.001347 
L 182.672945 50.175636 
L 183.542154 54.737298 
L 183.976759 56.114829 
L 184.411364 56.882634 
L 184.845969 58.700524 
L 185.280574 59.728027 
L 185.715178 61.749159 
L 187.018993 66.164035 
L 187.888203 68.952972 
L 188.757412 71.346715 
L 190.061227 73.582381 
L 190.495831 73.503343 
L 190.930436 74.451807 
L 191.365041 74.508263 
L 192.234251 75.829339 
L 193.10346 76.032581 
L 193.538065 76.721347 
L 193.97267 76.856842 
L 194.407275 76.597143 
L 194.84188 76.913298 
L 195.276485 76.371318 
L 195.711089 76.29228 
L 196.145694 76.619726 
L 196.580299 76.258406 
L 197.014904 75.490601 
L 197.884114 75.513184 
L 198.318718 74.090487 
L 199.187928 74.576011 
L 199.622533 74.429225 
L 200.057138 74.655049 
L 200.491742 75.343815 
L 200.926347 77.500442 
L 201.360952 78.482781 
L 201.795557 78.426324 
L 202.230162 78.75377 
L 202.664767 78.448907 
L 203.099371 76.856842 
L 203.533976 75.7503 
L 203.968581 75.468019 
L 204.403186 74.948622 
L 204.837791 75.016369 
L 205.272396 74.847 
L 205.707 73.604964 
L 206.141605 71.990316 
L 206.57621 69.66432 
L 207.010815 68.377119 
L 207.880024 66.852801 
L 208.314629 66.502772 
L 208.749234 67.620605 
L 209.183839 66.796345 
L 210.053049 64.165485 
L 210.487653 63.341225 
L 210.922258 62.110479 
L 211.356863 59.863522 
L 211.791468 59.355416 
L 212.660678 56.701974 
L 213.095282 56.589062 
L 213.529887 56.995546 
L 213.964492 55.832548 
L 214.833702 54.466308 
L 215.702911 53.980785 
L 216.137516 53.201689 
L 216.572121 53.280728 
L 217.006726 52.546797 
L 217.441331 52.456467 
L 217.875935 51.248304 
L 218.31054 51.078935 
L 218.745145 52.004817 
L 219.17975 51.112809 
L 219.614355 51.428964 
L 220.483564 52.964573 
L 220.918169 51.790284 
L 221.787379 52.354846 
L 222.221984 51.609624 
L 222.656589 51.338634 
L 223.525798 52.829078 
L 223.960403 52.422593 
L 224.395008 51.428964 
L 224.829613 52.072565 
L 225.264217 52.219351 
L 225.698822 52.501632 
L 226.133427 52.998447 
L 226.568032 54.093697 
L 227.002637 53.66463 
L 227.437242 54.150153 
L 227.871846 54.229192 
L 228.741056 55.776092 
L 229.175661 56.216451 
L 229.610266 57.266536 
L 230.044871 57.39074 
L 230.479475 57.187497 
L 230.91408 58.327913 
L 231.348685 60.100638 
L 231.78329 60.84586 
L 232.217895 61.060394 
L 232.6525 60.710365 
L 233.087104 59.987726 
L 233.521709 60.428084 
L 233.956314 59.807066 
L 234.390919 58.531155 
L 234.825524 57.797225 
L 235.694733 55.527685 
L 236.563943 52.738748 
L 237.433153 45.275237 
L 238.302362 44.191277 
L 238.736967 44.450976 
L 239.171572 45.523644 
L 239.606177 46.088206 
L 240.040782 46.347905 
L 241.779201 46.099497 
L 242.213806 46.810846 
L 242.64841 46.923758 
L 244.38683 50.570829 
L 244.821435 50.977314 
L 245.256039 53.111359 
L 246.994459 58.982805 
L 247.429064 61.274927 
L 247.863668 62.370178 
L 248.298273 64.346145 
L 248.732878 64.888125 
L 249.602088 67.056043 
L 250.036693 68.738438 
L 250.471297 69.133632 
L 251.340507 71.290259 
L 252.209717 73.108149 
L 253.513531 75.038952 
L 253.948136 75.998707 
L 254.382741 75.795465 
L 254.817346 76.02129 
L 255.686555 77.093958 
L 256.12116 77.410113 
L 256.555765 78.144043 
L 256.99037 78.223082 
L 257.424975 77.534316 
L 257.859579 77.726267 
L 258.294184 77.590772 
L 258.728789 76.981045 
L 259.163394 77.11654 
L 259.597999 77.56819 
L 260.032603 77.523025 
L 260.467208 76.213241 
L 260.901813 74.530846 
L 261.336418 75.637387 
L 261.771023 76.179367 
L 262.205628 76.913298 
L 262.640232 77.003628 
L 263.074837 76.800385 
L 263.509442 79.047343 
L 263.944047 80.289379 
L 264.378652 79.47641 
L 264.813257 79.860312 
L 265.247861 78.742479 
L 266.551676 74.067905 
L 266.986281 72.791994 
L 267.420886 73.02911 
L 267.85549 73.650129 
L 268.290095 72.837159 
L 269.159305 69.223962 
L 269.59391 68.84006 
L 270.463119 66.943131 
L 270.897724 66.886675 
L 271.332329 65.068785 
L 271.766934 65.181697 
L 272.201539 64.944581 
L 272.636143 62.923449 
L 273.070748 62.042732 
L 273.505353 60.766821 
L 273.939958 60.48454 
L 274.809168 58.011758 
L 275.243772 57.221371 
L 275.678377 56.182577 
L 276.112982 56.080956 
L 276.547587 55.087326 
L 276.982192 54.601803 
L 277.416796 54.680842 
L 278.286006 53.980785 
L 278.720611 55.1212 
L 279.155216 53.822707 
L 280.45903 51.03377 
L 280.893635 51.620915 
L 281.762845 51.970943 
L 282.19745 51.688662 
L 282.632054 50.345005 
L 283.066659 39.460247 
L 283.501264 25.628475 
L 283.935869 25.651058 
L 284.805079 25.515563 
L 285.239683 25.007457 
L 285.674288 25.955921 
L 286.108893 25.210699 
L 286.543498 26.091416 
L 286.978103 26.102707 
L 287.412707 27.028589 
L 287.847312 26.430153 
L 288.281917 27.480239 
L 288.716522 27.739937 
L 289.151127 28.699693 
L 289.585732 29.094886 
L 290.020336 28.812605 
L 290.454941 28.790023 
L 290.889546 29.320711 
L 291.324151 29.467497 
L 291.758756 29.953021 
L 292.193361 29.964312 
L 292.627965 30.472418 
L 293.06257 29.964312 
L 293.497175 29.953021 
L 293.93178 30.088516 
L 294.366385 31.567669 
L 294.800989 31.928988 
L 295.235594 31.443465 
L 296.104804 29.682031 
L 296.539409 27.818976 
L 296.974014 27.570569 
L 297.408618 26.678561 
L 298.277828 22.805664 
L 299.147038 31.657998 
L 299.581643 24.205779 
L 300.016247 28.76744 
L 300.450852 27.480239 
L 300.885457 27.807685 
L 301.320062 28.925518 
L 301.754667 29.185216 
L 302.189272 28.925518 
L 302.623876 28.823897 
L 303.493086 29.444915 
L 303.927691 28.925518 
L 304.362296 30.528874 
L 305.231505 32.245143 
L 306.100715 35.790593 
L 306.53532 36.660019 
L 306.969925 39.03118 
L 307.404529 38.997306 
L 308.708344 44.383229 
L 309.142949 47.070544 
L 309.577554 49.012638 
L 310.012158 51.48542 
L 310.446763 52.501632 
L 310.881368 56.171286 
L 311.315973 56.069664 
L 312.619787 60.834569 
L 313.923602 65.441396 
L 314.358207 65.430104 
L 314.792811 66.773762 
L 315.662021 68.173876 
L 316.531231 69.201379 
L 316.965836 70.127261 
L 317.40044 70.240174 
L 317.835045 70.511163 
L 318.26965 70.962813 
L 318.704255 71.041852 
L 319.573465 71.719326 
L 320.008069 72.487131 
L 320.442674 72.317762 
L 320.877279 71.820948 
L 321.311884 71.832239 
L 321.746489 71.549958 
L 322.181093 71.098308 
L 322.615698 70.883774 
L 323.050303 69.93531 
L 323.484908 68.060964 
L 323.919513 69.427204 
L 324.354118 69.607864 
L 324.788722 70.736988 
L 325.657932 71.21122 
L 326.092537 73.356557 
L 326.527142 74.135652 
L 326.961747 74.530846 
L 327.396351 74.632467 
L 328.265561 71.967734 
L 328.700166 69.822398 
L 329.134771 68.557779 
L 329.569375 68.365827 
L 330.00398 68.648108 
L 330.87319 68.896516 
L 331.307795 66.107579 
L 331.7424 66.559229 
L 332.177004 68.399701 
L 332.611609 67.767392 
L 333.046214 66.457607 
L 333.480819 66.051123 
L 333.915424 64.696174 
L 334.350029 63.962243 
L 334.784633 62.979905 
L 335.219238 64.549387 
L 335.653843 65.317192 
L 336.088448 68.546487 
L 336.523053 72.791994 
L 336.957658 72.02419 
L 337.392262 71.595123 
L 337.826867 70.736988 
L 338.261472 70.454707 
L 338.696077 69.404622 
L 339.130682 69.57399 
L 339.565286 68.919098 
L 339.999891 68.535196 
L 340.434496 67.970634 
L 340.869101 66.739888 
L 341.738311 67.123791 
L 342.172915 66.897966 
L 342.60752 66.073705 
L 343.042125 66.02854 
L 343.47673 66.355986 
L 343.911335 66.412442 
L 344.34594 67.530275 
L 345.649754 69.856271 
L 346.084359 69.991766 
L 346.518964 70.680532 
L 346.953568 70.138552 
L 347.388173 70.307921 
L 347.822778 70.770862 
L 348.257383 70.420833 
L 348.691988 71.143473 
L 349.126593 71.087017 
L 349.561197 70.669241 
L 349.995802 70.736988 
L 350.865012 70.601493 
L 351.299617 70.612785 
L 351.734222 70.319212 
L 352.603431 70.872483 
L 353.038036 71.448337 
L 353.472641 71.708035 
L 353.907246 72.11452 
L 354.341851 72.972654 
L 354.776455 65.622056 
L 355.21106 64.639717 
L 355.645665 64.131612 
L 356.08027 64.526805 
L 356.514875 65.678512 
L 356.949479 65.418813 
L 357.384084 61.105559 
L 358.253294 60.721656 
L 359.122504 59.502202 
L 359.557108 59.400581 
L 359.991713 59.02797 
L 360.426318 58.452117 
L 360.860923 56.995546 
L 361.295528 56.430984 
L 361.730133 54.75988 
L 362.164737 51.699954 
L 362.599342 46.686642 
L 363.033947 45.76076 
L 363.468552 45.636557 
L 364.337761 46.257575 
L 364.772366 46.178536 
L 365.641576 47.104418 
L 366.510786 47.002797 
L 366.94539 47.793184 
L 367.379995 47.838349 
L 367.8146 48.064174 
L 368.68381 49.791734 
L 369.118415 50.040141 
L 369.553019 51.316051 
L 369.987624 51.474129 
L 370.856834 53.969493 
L 371.291439 54.771172 
L 371.726044 56.905216 
L 372.160648 57.75206 
L 372.595253 59.547367 
L 373.029858 60.744239 
L 374.333672 66.220491 
L 374.768277 67.281868 
L 375.202882 67.518984 
L 376.506697 71.143473 
L 378.679721 75.626096 
L 379.114326 76.337444 
L 379.54893 76.089037 
L 379.983535 76.360027 
L 380.852745 76.608434 
L 381.28735 78.098878 
L 381.721954 77.556899 
L 382.156559 78.098878 
L 382.591164 77.963383 
L 383.460374 78.527946 
L 383.894979 77.963383 
L 384.329583 77.963383 
L 384.764188 77.760141 
L 385.198793 77.760141 
L 385.633398 77.048793 
L 386.068003 75.84063 
L 386.502608 76.947172 
L 386.937212 77.376239 
L 387.371817 77.342365 
L 387.806422 79.408662 
L 388.241027 79.815147 
L 388.675632 82.536337 
L 389.110237 83.247685 
L 389.544841 82.999277 
L 389.979446 83.575131 
L 390.414051 83.484801 
L 390.848656 82.762161 
L 391.283261 82.457298 
L 391.717865 81.858862 
L 392.15247 80.887815 
L 392.587075 80.594243 
L 393.02168 79.690943 
L 393.456285 79.340915 
L 393.89089 76.902007 
L 394.325494 76.190658 
L 394.760099 75.7503 
L 395.629309 73.548508 
L 396.063914 72.611335 
L 396.498519 70.274047 
L 396.933123 68.681982 
L 397.367728 68.343245 
L 398.236938 65.136532 
L 398.671543 64.605844 
L 399.540752 61.647538 
L 400.409962 59.423163 
L 400.844567 58.84731 
L 401.279172 58.508573 
L 401.713776 57.345575 
L 402.582986 56.216451 
L 403.017591 56.159994 
L 403.452196 55.426064 
L 403.886801 55.584141 
L 404.321405 55.448646 
L 404.75601 54.184027 
L 405.62522 54.364687 
L 406.059825 54.748589 
L 406.49443 53.721086 
L 406.929034 53.269436 
L 407.363639 53.585591 
L 408.232849 53.461387 
L 409.102058 55.019579 
L 409.536663 54.838919 
L 409.971268 55.200239 
L 410.405873 54.963123 
L 410.840478 55.313151 
L 411.275083 56.013208 
L 412.578897 56.385819 
L 413.013502 56.905216 
L 413.448107 57.605273 
L 413.882712 56.781013 
L 414.751921 58.587612 
L 415.186526 58.045632 
L 415.621131 58.994096 
L 416.490341 59.377998 
L 416.924945 59.716736 
L 417.794155 60.055473 
L 418.22876 60.642618 
L 418.663365 60.529705 
L 419.532574 61.500752 
L 419.967179 62.166935 
L 420.401784 61.523335 
L 420.836389 61.421713 
L 422.574808 59.637697 
L 423.009413 58.960223 
L 423.444018 58.565029 
L 424.313227 56.114829 
L 424.747832 52.964573 
L 425.182437 48.177086 
L 425.617042 46.528565 
L 426.051647 47.409282 
L 426.920856 48.21096 
L 427.355461 48.323872 
L 427.790066 48.098047 
L 428.224671 48.990056 
L 428.659276 48.764231 
L 429.09388 48.719066 
L 429.528485 49.023929 
L 429.96309 49.75786 
L 430.397695 49.340084 
L 430.8323 50.875693 
L 431.266905 51.056353 
L 431.701509 51.541876 
L 432.136114 51.677371 
L 432.570719 52.049982 
L 433.005324 53.066194 
L 433.439929 53.743669 
L 433.874534 55.66318 
L 434.309138 55.674471 
L 434.743743 56.510023 
L 435.178348 57.876263 
L 435.612953 58.745689 
L 436.047558 60.48454 
L 436.482162 61.241053 
L 438.655187 70.624076 
L 439.089791 71.516084 
L 440.393606 74.835709 
L 441.262816 76.11162 
L 441.69742 76.314862 
L 442.56663 77.714976 
L 443.001235 79.194129 
L 443.43584 80.142593 
L 443.870444 80.052263 
L 444.305049 80.436165 
L 444.739654 80.447457 
L 445.174259 81.045893 
L 445.608864 80.921689 
L 446.043469 82.084687 
L 446.478073 80.582952 
L 446.912678 82.491172 
L 447.347283 81.192679 
L 447.781888 80.966854 
L 448.216493 80.323253 
L 448.651098 80.628117 
L 449.085702 80.718447 
L 449.520307 81.678202 
L 449.954912 81.83628 
L 450.389517 82.186308 
L 450.824122 83.7445 
L 451.258727 85.799506 
L 452.562541 88.102919 
L 452.997146 88.780394 
L 453.431751 89.040092 
L 453.866355 88.723937 
L 454.30096 89.141713 
L 454.735565 89.006218 
L 455.17017 88.74652 
L 455.604775 88.791685 
L 456.03938 88.351326 
L 456.473984 87.120581 
L 456.908589 86.770552 
L 457.343194 86.104369 
L 457.777799 86.059204 
L 458.647009 84.625216 
L 459.950823 80.582952 
L 462.123847 76.032581 
L 462.558452 74.02274 
L 462.993057 73.254935 
L 463.427662 72.11452 
L 463.862266 72.103229 
L 464.731476 69.799815 
L 465.166081 69.630447 
L 465.600686 69.009428 
L 466.035291 67.880304 
L 466.469895 68.038381 
L 466.9045 67.507693 
L 467.339105 67.304451 
L 467.77371 66.864092 
L 468.208315 66.039831 
L 468.64292 66.220491 
L 469.077524 66.073705 
L 469.512129 65.396231 
L 470.381339 64.786504 
L 470.815944 65.080076 
L 471.250548 64.84296 
L 471.685153 64.854251 
L 472.119758 64.346145 
L 472.554363 64.470349 
L 472.988968 64.267106 
L 473.423573 64.368728 
L 473.858177 65.091367 
L 474.292782 65.430104 
L 474.727387 65.599473 
L 475.161992 65.362357 
L 475.596597 65.791424 
L 476.031202 65.497852 
L 476.465806 65.384939 
L 476.900411 65.509143 
L 477.335016 66.130161 
L 477.769621 66.401151 
L 478.204226 66.999587 
L 478.63883 67.281868 
L 479.073435 67.778683 
L 479.50804 68.038381 
L 479.942645 68.049673 
L 480.37725 68.862642 
L 480.811855 69.156214 
L 483.419484 69.562699 
L 484.288693 68.512614 
L 484.723298 68.47874 
L 485.592508 67.327033 
L 486.027113 65.893045 
L 486.461717 65.463978 
L 486.896322 63.713836 
L 487.330927 60.450667 
L 487.765532 55.267986 
L 488.200137 53.461387 
L 488.634741 52.625836 
L 489.069346 51.383799 
L 489.503951 51.553168 
L 489.938556 51.959652 
L 490.373161 51.93707 
L 491.24237 52.095147 
L 491.676975 51.146683 
L 492.546185 49.75786 
L 492.98079 48.820687 
L 493.849999 48.978764 
L 494.284604 49.622365 
L 494.719209 50.695033 
L 495.153814 51.225721 
L 495.588419 52.29839 
L 496.023023 53.822707 
L 496.457628 54.57922 
L 497.761443 60.620035 
L 498.630652 64.018699 
L 499.065257 65.384939 
L 499.934467 68.636817 
L 499.934467 68.636817 
" clip-path="url(#pa074934dd0)" style="fill: none; stroke: #5b5b5b; stroke-width: 1.2; stroke-linecap: square"/>
   </g>
   <g id="patch_3">
    <path d="M 55.410938 102.70375 
L 55.410938 10.30375 
" style="fill: none; stroke: #cccccc; stroke-width: 0.75; stroke-linejoin: miter; stroke-linecap: square"/>
   </g>
   <g id="patch_4">
    <path d="M 62.287408 107.70375 
L 500.369072 107.70375 
" style="fill: none; stroke: #cccccc; stroke-width: 0.75; stroke-linejoin: miter; stroke-linecap: square"/>
   </g>
  </g>
  <g id="axes_2">
   <g id="patch_5">
    <path d="M 57.910938 232.06375 
L 504.310937 232.06375 
L 504.310937 139.66375 
L 57.910938 139.66375 
L 57.910938 232.06375 
z
" style="fill: none"/>
   </g>
   <g id="axes_3">
    <g id="patch_6">
     <path d="M 57.910938 232.06375 
L 504.310937 232.06375 
L 504.310937 232.06375 
L 57.910938 232.06375 
L 57.910938 232.06375 
z
" style="fill: none"/>
    </g>
    <g id="matplotlib.axis_3">
     <g id="xtick_30">
      <g id="line2d_35">
       <path d="M 93.578955 232.06375 
L 93.578955 232.06375 
" clip-path="url(#pcd175d7f5c)" style="fill: none; stroke-dasharray: 0.5,0.825; stroke-dashoffset: 0; stroke: #d9d9d9; stroke-width: 0.5"/>
      </g>
      <g id="text_35">
       <!-- 17 -->
       <g style="fill: #808080" transform="translate(89.066455 263.27125) scale(0.08 -0.08)">
        <defs>
         <path id="Ubuntu-37" d="M 1043 0 
Q 1082 512 1226 1078 
Q 1370 1645 1581 2179 
Q 1792 2714 2045 3171 
Q 2298 3629 2541 3917 
L 384 3917 
L 384 4435 
L 3206 4435 
L 3206 3942 
Q 2995 3699 2739 3273 
Q 2483 2848 2256 2320 
Q 2029 1792 1865 1193 
Q 1702 595 1664 0 
L 1043 0 
z
" transform="scale(0.015625)"/>
        </defs>
        <use xlink:href="#Ubuntu-31"/>
        <use xlink:href="#Ubuntu-37" x="56.399994"/>
       </g>
      </g>
     </g>
     <g id="xtick_31">
      <g id="line2d_36">
       <path d="M 156.16205 232.06375 
L 156.16205 232.06375 
" clip-path="url(#pcd175d7f5c)" style="fill: none; stroke-dasharray: 0.5,0.825; stroke-dashoffset: 0; stroke: #d9d9d9; stroke-width: 0.5"/>
      </g>
      <g id="text_36">
       <!-- 18 -->
       <g style="fill: #808080" transform="translate(151.64955 263.27125) scale(0.08 -0.08)">
        <use xlink:href="#Ubuntu-31"/>
        <use xlink:href="#Ubuntu-38" x="56.399994"/>
       </g>
      </g>
     </g>
     <g id="xtick_32">
      <g id="line2d_37">
       <path d="M 218.745145 232.06375 
L 218.745145 232.06375 
" clip-path="url(#pcd175d7f5c)" style="fill: none; stroke-dasharray: 0.5,0.825; stroke-dashoffset: 0; stroke: #d9d9d9; stroke-width: 0.5"/>
      </g>
      <g id="text_37">
       <!-- 19 -->
       <g style="fill: #808080" transform="translate(214.232645 263.27125) scale(0.08 -0.08)">
        <defs>
         <path id="Ubuntu-39" d="M 3206 2662 
Q 3206 1344 2550 669 
Q 1894 -6 602 -13 
L 582 486 
Q 986 486 1309 563 
Q 1632 640 1875 809 
Q 2118 979 2281 1248 
Q 2445 1517 2522 1907 
Q 2355 1830 2144 1782 
Q 1933 1734 1709 1734 
Q 1331 1734 1068 1846 
Q 806 1958 640 2147 
Q 474 2336 400 2582 
Q 326 2829 326 3098 
Q 326 3334 409 3590 
Q 493 3846 662 4057 
Q 832 4269 1094 4403 
Q 1357 4538 1715 4538 
Q 2080 4538 2358 4410 
Q 2637 4282 2825 4038 
Q 3014 3795 3110 3446 
Q 3206 3098 3206 2662 
z
M 1773 2221 
Q 1997 2221 2195 2262 
Q 2394 2304 2579 2387 
Q 2586 2458 2586 2525 
Q 2586 2592 2586 2662 
Q 2586 2938 2547 3190 
Q 2509 3443 2409 3632 
Q 2310 3821 2144 3933 
Q 1978 4045 1722 4045 
Q 1510 4045 1363 3955 
Q 1216 3866 1120 3728 
Q 1024 3590 982 3427 
Q 941 3264 941 3110 
Q 941 2675 1149 2448 
Q 1357 2221 1773 2221 
z
" transform="scale(0.015625)"/>
        </defs>
        <use xlink:href="#Ubuntu-31"/>
        <use xlink:href="#Ubuntu-39" x="56.399994"/>
       </g>
      </g>
     </g>
     <g id="xtick_33">
      <g id="line2d_38">
       <path d="M 281.32824 232.06375 
L 281.32824 232.06375 
" clip-path="url(#pcd175d7f5c)" style="fill: none; stroke-dasharray: 0.5,0.825; stroke-dashoffset: 0; stroke: #d9d9d9; stroke-width: 0.5"/>
      </g>
      <g id="text_38">
       <!-- 20 -->
       <g style="fill: #808080" transform="translate(276.81574 263.27125) scale(0.08 -0.08)">
        <use xlink:href="#Ubuntu-32"/>
        <use xlink:href="#Ubuntu-30" x="56.399994"/>
       </g>
      </g>
     </g>
     <g id="xtick_34">
      <g id="line2d_39">
       <path d="M 343.911335 232.06375 
L 343.911335 232.06375 
" clip-path="url(#pcd175d7f5c)" style="fill: none; stroke-dasharray: 0.5,0.825; stroke-dashoffset: 0; stroke: #d9d9d9; stroke-width: 0.5"/>
      </g>
      <g id="text_39">
       <!-- 21 -->
       <g style="fill: #808080" transform="translate(339.398835 263.27125) scale(0.08 -0.08)">
        <use xlink:href="#Ubuntu-32"/>
        <use xlink:href="#Ubuntu-31" x="56.399994"/>
       </g>
      </g>
     </g>
     <g id="xtick_35">
      <g id="line2d_40">
       <path d="M 406.49443 232.06375 
L 406.49443 232.06375 
" clip-path="url(#pcd175d7f5c)" style="fill: none; stroke-dasharray: 0.5,0.825; stroke-dashoffset: 0; stroke: #d9d9d9; stroke-width: 0.5"/>
      </g>
      <g id="text_40">
       <!-- 22 -->
       <g style="fill: #808080" transform="translate(401.98193 263.27125) scale(0.08 -0.08)">
        <use xlink:href="#Ubuntu-32"/>
        <use xlink:href="#Ubuntu-32" x="56.399994"/>
       </g>
      </g>
     </g>
     <g id="xtick_36">
      <g id="line2d_41">
       <path d="M 469.077524 232.06375 
L 469.077524 232.06375 
" clip-path="url(#pcd175d7f5c)" style="fill: none; stroke-dasharray: 0.5,0.825; stroke-dashoffset: 0; stroke: #d9d9d9; stroke-width: 0.5"/>
      </g>
      <g id="text_41">
       <!-- 23 -->
       <g style="fill: #808080" transform="translate(464.565024 263.27125) scale(0.08 -0.08)">
        <use xlink:href="#Ubuntu-32"/>
        <use xlink:href="#Ubuntu-33" x="56.399994"/>
       </g>
      </g>
     </g>
    </g>
    <g id="matplotlib.axis_4"/>
   </g>
   <g id="matplotlib.axis_5">
    <g id="xtick_37">
     <g id="line2d_42">
      <g>
       <use xlink:href="#ma4242da799" x="62.287408" y="237.06375" style="fill: #cccccc; stroke: #cccccc; stroke-width: 0.75"/>
      </g>
     </g>
     <g id="text_42">
      <!-- 00 -->
      <g style="fill: #808080" transform="translate(58.338971 251.495312) scale(0.07 -0.07)">
       <use xlink:href="#Ubuntu-30"/>
       <use xlink:href="#Ubuntu-30" x="56.399994"/>
      </g>
     </g>
    </g>
    <g id="xtick_38">
     <g id="line2d_43">
      <g>
       <use xlink:href="#ma4242da799" x="77.933182" y="237.06375" style="fill: #cccccc; stroke: #cccccc; stroke-width: 0.75"/>
      </g>
     </g>
     <g id="text_43">
      <!-- 06 -->
      <g style="fill: #808080" transform="translate(73.984744 251.495312) scale(0.07 -0.07)">
       <use xlink:href="#Ubuntu-30"/>
       <use xlink:href="#Ubuntu-36" x="56.399994"/>
      </g>
     </g>
    </g>
    <g id="xtick_39">
     <g id="line2d_44">
      <g>
       <use xlink:href="#ma4242da799" x="93.578955" y="237.06375" style="fill: #cccccc; stroke: #cccccc; stroke-width: 0.75"/>
      </g>
     </g>
     <g id="text_44">
      <!-- 12 -->
      <g style="fill: #808080" transform="translate(89.630518 251.495312) scale(0.07 -0.07)">
       <use xlink:href="#Ubuntu-31"/>
       <use xlink:href="#Ubuntu-32" x="56.399994"/>
      </g>
     </g>
    </g>
    <g id="xtick_40">
     <g id="line2d_45">
      <g>
       <use xlink:href="#ma4242da799" x="109.224729" y="237.06375" style="fill: #cccccc; stroke: #cccccc; stroke-width: 0.75"/>
      </g>
     </g>
     <g id="text_45">
      <!-- 18 -->
      <g style="fill: #808080" transform="translate(105.276292 251.495312) scale(0.07 -0.07)">
       <use xlink:href="#Ubuntu-31"/>
       <use xlink:href="#Ubuntu-38" x="56.399994"/>
      </g>
     </g>
    </g>
    <g id="xtick_41">
     <g id="line2d_46">
      <g>
       <use xlink:href="#ma4242da799" x="124.870503" y="237.06375" style="fill: #cccccc; stroke: #cccccc; stroke-width: 0.75"/>
      </g>
     </g>
     <g id="text_46">
      <!-- 00 -->
      <g style="fill: #808080" transform="translate(120.922065 251.495312) scale(0.07 -0.07)">
       <use xlink:href="#Ubuntu-30"/>
       <use xlink:href="#Ubuntu-30" x="56.399994"/>
      </g>
     </g>
    </g>
    <g id="xtick_42">
     <g id="line2d_47">
      <g>
       <use xlink:href="#ma4242da799" x="140.516277" y="237.06375" style="fill: #cccccc; stroke: #cccccc; stroke-width: 0.75"/>
      </g>
     </g>
     <g id="text_47">
      <!-- 06 -->
      <g style="fill: #808080" transform="translate(136.567839 251.495312) scale(0.07 -0.07)">
       <use xlink:href="#Ubuntu-30"/>
       <use xlink:href="#Ubuntu-36" x="56.399994"/>
      </g>
     </g>
    </g>
    <g id="xtick_43">
     <g id="line2d_48">
      <g>
       <use xlink:href="#ma4242da799" x="156.16205" y="237.06375" style="fill: #cccccc; stroke: #cccccc; stroke-width: 0.75"/>
      </g>
     </g>
     <g id="text_48">
      <!-- 12 -->
      <g style="fill: #808080" transform="translate(152.213613 251.495312) scale(0.07 -0.07)">
       <use xlink:href="#Ubuntu-31"/>
       <use xlink:href="#Ubuntu-32" x="56.399994"/>
      </g>
     </g>
    </g>
    <g id="xtick_44">
     <g id="line2d_49">
      <g>
       <use xlink:href="#ma4242da799" x="171.807824" y="237.06375" style="fill: #cccccc; stroke: #cccccc; stroke-width: 0.75"/>
      </g>
     </g>
     <g id="text_49">
      <!-- 18 -->
      <g style="fill: #808080" transform="translate(167.859387 251.495312) scale(0.07 -0.07)">
       <use xlink:href="#Ubuntu-31"/>
       <use xlink:href="#Ubuntu-38" x="56.399994"/>
      </g>
     </g>
    </g>
    <g id="xtick_45">
     <g id="line2d_50">
      <g>
       <use xlink:href="#ma4242da799" x="187.453598" y="237.06375" style="fill: #cccccc; stroke: #cccccc; stroke-width: 0.75"/>
      </g>
     </g>
     <g id="text_50">
      <!-- 00 -->
      <g style="fill: #808080" transform="translate(183.50516 251.495312) scale(0.07 -0.07)">
       <use xlink:href="#Ubuntu-30"/>
       <use xlink:href="#Ubuntu-30" x="56.399994"/>
      </g>
     </g>
    </g>
    <g id="xtick_46">
     <g id="line2d_51">
      <g>
       <use xlink:href="#ma4242da799" x="203.099371" y="237.06375" style="fill: #cccccc; stroke: #cccccc; stroke-width: 0.75"/>
      </g>
     </g>
     <g id="text_51">
      <!-- 06 -->
      <g style="fill: #808080" transform="translate(199.150934 251.495312) scale(0.07 -0.07)">
       <use xlink:href="#Ubuntu-30"/>
       <use xlink:href="#Ubuntu-36" x="56.399994"/>
      </g>
     </g>
    </g>
    <g id="xtick_47">
     <g id="line2d_52">
      <g>
       <use xlink:href="#ma4242da799" x="218.745145" y="237.06375" style="fill: #cccccc; stroke: #cccccc; stroke-width: 0.75"/>
      </g>
     </g>
     <g id="text_52">
      <!-- 12 -->
      <g style="fill: #808080" transform="translate(214.796708 251.495312) scale(0.07 -0.07)">
       <use xlink:href="#Ubuntu-31"/>
       <use xlink:href="#Ubuntu-32" x="56.399994"/>
      </g>
     </g>
    </g>
    <g id="xtick_48">
     <g id="line2d_53">
      <g>
       <use xlink:href="#ma4242da799" x="234.390919" y="237.06375" style="fill: #cccccc; stroke: #cccccc; stroke-width: 0.75"/>
      </g>
     </g>
     <g id="text_53">
      <!-- 18 -->
      <g style="fill: #808080" transform="translate(230.442481 251.495312) scale(0.07 -0.07)">
       <use xlink:href="#Ubuntu-31"/>
       <use xlink:href="#Ubuntu-38" x="56.399994"/>
      </g>
     </g>
    </g>
    <g id="xtick_49">
     <g id="line2d_54">
      <g>
       <use xlink:href="#ma4242da799" x="250.036693" y="237.06375" style="fill: #cccccc; stroke: #cccccc; stroke-width: 0.75"/>
      </g>
     </g>
     <g id="text_54">
      <!-- 00 -->
      <g style="fill: #808080" transform="translate(246.088255 251.495312) scale(0.07 -0.07)">
       <use xlink:href="#Ubuntu-30"/>
       <use xlink:href="#Ubuntu-30" x="56.399994"/>
      </g>
     </g>
    </g>
    <g id="xtick_50">
     <g id="line2d_55">
      <g>
       <use xlink:href="#ma4242da799" x="265.682466" y="237.06375" style="fill: #cccccc; stroke: #cccccc; stroke-width: 0.75"/>
      </g>
     </g>
     <g id="text_55">
      <!-- 06 -->
      <g style="fill: #808080" transform="translate(261.734029 251.495312) scale(0.07 -0.07)">
       <use xlink:href="#Ubuntu-30"/>
       <use xlink:href="#Ubuntu-36" x="56.399994"/>
      </g>
     </g>
    </g>
    <g id="xtick_51">
     <g id="line2d_56">
      <g>
       <use xlink:href="#ma4242da799" x="281.32824" y="237.06375" style="fill: #cccccc; stroke: #cccccc; stroke-width: 0.75"/>
      </g>
     </g>
     <g id="text_56">
      <!-- 12 -->
      <g style="fill: #808080" transform="translate(277.379802 251.495312) scale(0.07 -0.07)">
       <use xlink:href="#Ubuntu-31"/>
       <use xlink:href="#Ubuntu-32" x="56.399994"/>
      </g>
     </g>
    </g>
    <g id="xtick_52">
     <g id="line2d_57">
      <g>
       <use xlink:href="#ma4242da799" x="296.974014" y="237.06375" style="fill: #cccccc; stroke: #cccccc; stroke-width: 0.75"/>
      </g>
     </g>
     <g id="text_57">
      <!-- 18 -->
      <g style="fill: #808080" transform="translate(293.025576 251.495312) scale(0.07 -0.07)">
       <use xlink:href="#Ubuntu-31"/>
       <use xlink:href="#Ubuntu-38" x="56.399994"/>
      </g>
     </g>
    </g>
    <g id="xtick_53">
     <g id="line2d_58">
      <g>
       <use xlink:href="#ma4242da799" x="312.619787" y="237.06375" style="fill: #cccccc; stroke: #cccccc; stroke-width: 0.75"/>
      </g>
     </g>
     <g id="text_58">
      <!-- 00 -->
      <g style="fill: #808080" transform="translate(308.67135 251.495312) scale(0.07 -0.07)">
       <use xlink:href="#Ubuntu-30"/>
       <use xlink:href="#Ubuntu-30" x="56.399994"/>
      </g>
     </g>
    </g>
    <g id="xtick_54">
     <g id="line2d_59">
      <g>
       <use xlink:href="#ma4242da799" x="328.265561" y="237.06375" style="fill: #cccccc; stroke: #cccccc; stroke-width: 0.75"/>
      </g>
     </g>
     <g id="text_59">
      <!-- 06 -->
      <g style="fill: #808080" transform="translate(324.317124 251.495312) scale(0.07 -0.07)">
       <use xlink:href="#Ubuntu-30"/>
       <use xlink:href="#Ubuntu-36" x="56.399994"/>
      </g>
     </g>
    </g>
    <g id="xtick_55">
     <g id="line2d_60">
      <g>
       <use xlink:href="#ma4242da799" x="343.911335" y="237.06375" style="fill: #cccccc; stroke: #cccccc; stroke-width: 0.75"/>
      </g>
     </g>
     <g id="text_60">
      <!-- 12 -->
      <g style="fill: #808080" transform="translate(339.962897 251.495312) scale(0.07 -0.07)">
       <use xlink:href="#Ubuntu-31"/>
       <use xlink:href="#Ubuntu-32" x="56.399994"/>
      </g>
     </g>
    </g>
    <g id="xtick_56">
     <g id="line2d_61">
      <g>
       <use xlink:href="#ma4242da799" x="359.557108" y="237.06375" style="fill: #cccccc; stroke: #cccccc; stroke-width: 0.75"/>
      </g>
     </g>
     <g id="text_61">
      <!-- 18 -->
      <g style="fill: #808080" transform="translate(355.608671 251.495312) scale(0.07 -0.07)">
       <use xlink:href="#Ubuntu-31"/>
       <use xlink:href="#Ubuntu-38" x="56.399994"/>
      </g>
     </g>
    </g>
    <g id="xtick_57">
     <g id="line2d_62">
      <g>
       <use xlink:href="#ma4242da799" x="375.202882" y="237.06375" style="fill: #cccccc; stroke: #cccccc; stroke-width: 0.75"/>
      </g>
     </g>
     <g id="text_62">
      <!-- 00 -->
      <g style="fill: #808080" transform="translate(371.254445 251.495312) scale(0.07 -0.07)">
       <use xlink:href="#Ubuntu-30"/>
       <use xlink:href="#Ubuntu-30" x="56.399994"/>
      </g>
     </g>
    </g>
    <g id="xtick_58">
     <g id="line2d_63">
      <g>
       <use xlink:href="#ma4242da799" x="390.848656" y="237.06375" style="fill: #cccccc; stroke: #cccccc; stroke-width: 0.75"/>
      </g>
     </g>
     <g id="text_63">
      <!-- 06 -->
      <g style="fill: #808080" transform="translate(386.900218 251.495312) scale(0.07 -0.07)">
       <use xlink:href="#Ubuntu-30"/>
       <use xlink:href="#Ubuntu-36" x="56.399994"/>
      </g>
     </g>
    </g>
    <g id="xtick_59">
     <g id="line2d_64">
      <g>
       <use xlink:href="#ma4242da799" x="406.49443" y="237.06375" style="fill: #cccccc; stroke: #cccccc; stroke-width: 0.75"/>
      </g>
     </g>
     <g id="text_64">
      <!-- 12 -->
      <g style="fill: #808080" transform="translate(402.545992 251.495312) scale(0.07 -0.07)">
       <use xlink:href="#Ubuntu-31"/>
       <use xlink:href="#Ubuntu-32" x="56.399994"/>
      </g>
     </g>
    </g>
    <g id="xtick_60">
     <g id="line2d_65">
      <g>
       <use xlink:href="#ma4242da799" x="422.140203" y="237.06375" style="fill: #cccccc; stroke: #cccccc; stroke-width: 0.75"/>
      </g>
     </g>
     <g id="text_65">
      <!-- 18 -->
      <g style="fill: #808080" transform="translate(418.191766 251.495312) scale(0.07 -0.07)">
       <use xlink:href="#Ubuntu-31"/>
       <use xlink:href="#Ubuntu-38" x="56.399994"/>
      </g>
     </g>
    </g>
    <g id="xtick_61">
     <g id="line2d_66">
      <g>
       <use xlink:href="#ma4242da799" x="437.785977" y="237.06375" style="fill: #cccccc; stroke: #cccccc; stroke-width: 0.75"/>
      </g>
     </g>
     <g id="text_66">
      <!-- 00 -->
      <g style="fill: #808080" transform="translate(433.837539 251.495312) scale(0.07 -0.07)">
       <use xlink:href="#Ubuntu-30"/>
       <use xlink:href="#Ubuntu-30" x="56.399994"/>
      </g>
     </g>
    </g>
    <g id="xtick_62">
     <g id="line2d_67">
      <g>
       <use xlink:href="#ma4242da799" x="453.431751" y="237.06375" style="fill: #cccccc; stroke: #cccccc; stroke-width: 0.75"/>
      </g>
     </g>
     <g id="text_67">
      <!-- 06 -->
      <g style="fill: #808080" transform="translate(449.483313 251.495312) scale(0.07 -0.07)">
       <use xlink:href="#Ubuntu-30"/>
       <use xlink:href="#Ubuntu-36" x="56.399994"/>
      </g>
     </g>
    </g>
    <g id="xtick_63">
     <g id="line2d_68">
      <g>
       <use xlink:href="#ma4242da799" x="469.077524" y="237.06375" style="fill: #cccccc; stroke: #cccccc; stroke-width: 0.75"/>
      </g>
     </g>
     <g id="text_68">
      <!-- 12 -->
      <g style="fill: #808080" transform="translate(465.129087 251.495312) scale(0.07 -0.07)">
       <use xlink:href="#Ubuntu-31"/>
       <use xlink:href="#Ubuntu-32" x="56.399994"/>
      </g>
     </g>
    </g>
    <g id="xtick_64">
     <g id="line2d_69">
      <g>
       <use xlink:href="#ma4242da799" x="484.723298" y="237.06375" style="fill: #cccccc; stroke: #cccccc; stroke-width: 0.75"/>
      </g>
     </g>
     <g id="text_69">
      <!-- 18 -->
      <g style="fill: #808080" transform="translate(480.774861 251.495312) scale(0.07 -0.07)">
       <use xlink:href="#Ubuntu-31"/>
       <use xlink:href="#Ubuntu-38" x="56.399994"/>
      </g>
     </g>
    </g>
    <g id="xtick_65">
     <g id="line2d_70">
      <g>
       <use xlink:href="#ma4242da799" x="500.369072" y="237.06375" style="fill: #cccccc; stroke: #cccccc; stroke-width: 0.75"/>
      </g>
     </g>
     <g id="text_70">
      <!-- 00 -->
      <g style="fill: #808080" transform="translate(496.420634 251.495312) scale(0.07 -0.07)">
       <use xlink:href="#Ubuntu-30"/>
       <use xlink:href="#Ubuntu-30" x="56.399994"/>
      </g>
     </g>
    </g>
   </g>
   <g id="matplotlib.axis_6">
    <g id="ytick_5">
     <g id="line2d_71">
      <g>
       <use xlink:href="#m0a475c41da" x="55.410938" y="232.06375" style="fill: #cccccc; stroke: #cccccc; stroke-width: 0.75"/>
      </g>
     </g>
     <g id="text_71">
      <!-- 5000 -->
      <g style="fill: #808080" transform="translate(28.360938 235.1675) scale(0.08 -0.08)">
       <use xlink:href="#Ubuntu-35"/>
       <use xlink:href="#Ubuntu-30" x="56.399994"/>
       <use xlink:href="#Ubuntu-30" x="112.799988"/>
       <use xlink:href="#Ubuntu-30" x="169.199982"/>
      </g>
     </g>
    </g>
    <g id="ytick_6">
     <g id="line2d_72">
      <g>
       <use xlink:href="#m0a475c41da" x="55.410938" y="201.26375" style="fill: #cccccc; stroke: #cccccc; stroke-width: 0.75"/>
      </g>
     </g>
     <g id="text_72">
      <!-- 15000 -->
      <g style="fill: #808080" transform="translate(23.848438 204.3675) scale(0.08 -0.08)">
       <use xlink:href="#Ubuntu-31"/>
       <use xlink:href="#Ubuntu-35" x="56.399994"/>
       <use xlink:href="#Ubuntu-30" x="112.799988"/>
       <use xlink:href="#Ubuntu-30" x="169.199982"/>
       <use xlink:href="#Ubuntu-30" x="225.599976"/>
      </g>
     </g>
    </g>
    <g id="ytick_7">
     <g id="line2d_73">
      <g>
       <use xlink:href="#m0a475c41da" x="55.410938" y="170.46375" style="fill: #cccccc; stroke: #cccccc; stroke-width: 0.75"/>
      </g>
     </g>
     <g id="text_73">
      <!-- 25000 -->
      <g style="fill: #808080" transform="translate(23.848438 173.5675) scale(0.08 -0.08)">
       <use xlink:href="#Ubuntu-32"/>
       <use xlink:href="#Ubuntu-35" x="56.399994"/>
       <use xlink:href="#Ubuntu-30" x="112.799988"/>
       <use xlink:href="#Ubuntu-30" x="169.199982"/>
       <use xlink:href="#Ubuntu-30" x="225.599976"/>
      </g>
     </g>
    </g>
    <g id="ytick_8">
     <g id="line2d_74">
      <g>
       <use xlink:href="#m0a475c41da" x="55.410938" y="139.66375" style="fill: #cccccc; stroke: #cccccc; stroke-width: 0.75"/>
      </g>
     </g>
     <g id="text_74">
      <!-- 35000 -->
      <g style="fill: #808080" transform="translate(23.848438 142.7675) scale(0.08 -0.08)">
       <use xlink:href="#Ubuntu-33"/>
       <use xlink:href="#Ubuntu-35" x="56.399994"/>
       <use xlink:href="#Ubuntu-30" x="112.799988"/>
       <use xlink:href="#Ubuntu-30" x="169.199982"/>
       <use xlink:href="#Ubuntu-30" x="225.599976"/>
      </g>
     </g>
    </g>
    <g id="text_75">
     <!-- Target3 -->
     <g style="fill: #505050" transform="translate(14.156719 172.911719) rotate(-90) scale(0.09 -0.09)">
      <defs>
       <path id="Ubuntu-Bold-33" d="M 1459 -96 
Q 1286 -96 1094 -73 
Q 902 -51 723 -12 
Q 544 26 397 70 
Q 250 115 166 154 
L 352 947 
Q 518 877 777 797 
Q 1037 717 1421 717 
Q 1862 717 2067 883 
Q 2272 1050 2272 1331 
Q 2272 1504 2198 1622 
Q 2125 1741 1997 1814 
Q 1869 1888 1693 1917 
Q 1517 1946 1318 1946 
L 947 1946 
L 947 2714 
L 1370 2714 
Q 1510 2714 1641 2739 
Q 1773 2765 1875 2825 
Q 1978 2886 2038 2992 
Q 2099 3098 2099 3258 
Q 2099 3379 2048 3468 
Q 1997 3558 1917 3616 
Q 1837 3674 1731 3702 
Q 1626 3731 1517 3731 
Q 1242 3731 1008 3648 
Q 774 3565 582 3443 
L 243 4141 
Q 346 4205 483 4275 
Q 621 4346 787 4403 
Q 954 4461 1142 4499 
Q 1331 4538 1542 4538 
Q 1933 4538 2217 4445 
Q 2502 4352 2688 4182 
Q 2874 4013 2963 3785 
Q 3053 3558 3053 3290 
Q 3053 3027 2905 2780 
Q 2758 2534 2509 2406 
Q 2854 2266 3043 1987 
Q 3232 1709 3232 1318 
Q 3232 1011 3129 752 
Q 3027 493 2809 304 
Q 2592 115 2256 9 
Q 1920 -96 1459 -96 
z
" transform="scale(0.015625)"/>
      </defs>
      <use xlink:href="#Ubuntu-Bold-54"/>
      <use xlink:href="#Ubuntu-Bold-61" x="53.899994"/>
      <use xlink:href="#Ubuntu-Bold-72" x="109.199982"/>
      <use xlink:href="#Ubuntu-Bold-67" x="150.399979"/>
      <use xlink:href="#Ubuntu-Bold-65" x="209.799973"/>
      <use xlink:href="#Ubuntu-Bold-74" x="268.199966"/>
      <use xlink:href="#Ubuntu-Bold-33" x="312.59996"/>
     </g>
    </g>
   </g>
   <g id="line2d_75">
    <path d="M 62.287408 187.57511 
L 63.156618 190.35271 
L 63.591223 191.23079 
L 64.460432 192.19847 
L 64.895037 193.14823 
L 65.329642 194.54599 
L 65.764247 195.17319 
L 66.198852 195.56743 
L 66.633456 196.42759 
L 67.068061 196.64263 
L 68.80648 198.20167 
L 69.241085 198.29127 
L 70.110295 198.04039 
L 70.5449 198.23751 
L 70.979505 198.57799 
L 71.414109 198.63175 
L 71.848714 198.52423 
L 72.717924 197.44903 
L 73.152529 196.44551 
L 74.021738 197.28775 
L 74.456343 198.48839 
L 75.325553 198.97223 
L 75.760158 199.47399 
L 76.194762 201.15847 
L 77.498577 209.43751 
L 77.933182 209.74215 
L 78.802391 209.63463 
L 80.540811 210.44103 
L 81.844625 208.29063 
L 82.27923 208.16519 
L 82.713835 207.25127 
L 83.14844 206.62407 
L 84.452254 204.18695 
L 85.756069 202.05447 
L 86.625278 199.99367 
L 87.494488 197.32359 
L 87.929093 196.66055 
L 88.363698 195.72871 
L 90.102117 193.88295 
L 90.971327 193.34535 
L 91.840536 190.29895 
L 92.275141 189.68967 
L 92.709746 189.56423 
L 93.144351 189.15207 
L 93.578955 188.30983 
L 94.01356 188.25607 
L 94.88277 187.79015 
L 95.317375 189.13415 
L 95.75198 189.76135 
L 96.186584 189.18791 
L 97.055794 189.15207 
L 97.490399 189.76135 
L 97.925004 189.40295 
L 98.359609 190.19143 
L 98.794213 190.04807 
L 99.228818 190.65735 
L 99.663423 190.96199 
L 100.532633 190.76487 
L 100.967238 190.42439 
L 101.836447 190.99783 
L 102.271052 190.97991 
L 102.705657 190.80071 
L 103.140262 191.01575 
L 104.444076 192.10887 
L 104.878681 192.03719 
L 105.313286 191.58919 
L 105.747891 192.59271 
L 106.182495 193.02279 
L 106.6171 192.84359 
L 107.051705 192.41351 
L 107.48631 191.64295 
L 107.920915 191.49959 
L 108.35552 191.10535 
L 108.790124 190.96199 
L 109.224729 189.95847 
L 109.659334 189.47463 
L 110.093939 188.52487 
L 110.528544 185.01255 
L 110.963148 179.97703 
L 111.832358 166.17863 
L 112.266963 162.00327 
L 112.701568 159.04647 
L 113.570777 158.74183 
L 114.005382 158.70599 
L 114.439987 158.79559 
L 114.874592 158.70599 
L 115.309197 158.41927 
L 115.743802 158.56263 
L 116.178406 159.36903 
L 116.613011 160.73095 
L 117.482221 161.68071 
L 117.916826 162.66631 
L 118.351431 163.07847 
L 118.786035 163.74151 
L 121.828269 176.30343 
L 122.262874 178.99143 
L 122.697479 179.90535 
L 123.566688 183.38183 
L 125.305108 188.86535 
L 125.739713 190.22727 
L 127.043527 192.82567 
L 127.478132 194.38471 
L 128.781946 197.09063 
L 129.216551 197.84327 
L 129.651156 198.04039 
L 130.085761 198.91847 
L 131.389575 199.47399 
L 131.82418 199.56359 
L 132.258785 200.04743 
L 132.69339 199.93991 
L 133.127995 200.19079 
L 133.562599 200.26247 
L 133.997204 200.17287 
L 134.431809 198.99015 
L 134.866414 198.12999 
L 135.301019 198.00455 
L 135.735624 197.01895 
L 136.170228 197.66407 
L 136.604833 197.93287 
L 137.039438 199.47399 
L 137.908648 200.69255 
L 138.343252 201.08679 
L 138.777857 203.02215 
L 139.212462 205.83559 
L 139.647067 209.45543 
L 140.081672 210.74567 
L 140.516277 211.10407 
L 140.950881 211.03239 
L 141.385486 210.74567 
L 141.820091 210.15431 
L 142.254696 210.01095 
L 142.689301 210.45895 
L 143.123906 209.92135 
L 143.55851 209.20455 
L 143.993115 208.86407 
L 144.42772 207.95015 
L 144.862325 207.73511 
L 147.035349 203.50599 
L 147.469954 201.92903 
L 147.904559 201.49895 
L 148.339163 200.62087 
L 148.773768 199.13351 
L 149.642978 197.32359 
L 150.077583 197.62823 
L 150.512188 196.19463 
L 150.946792 195.29863 
L 151.381397 194.70727 
L 151.816002 193.90087 
L 153.119817 192.59271 
L 153.989026 191.15911 
L 154.423631 189.72551 
L 155.727445 188.52487 
L 156.16205 188.52487 
L 156.596655 188.07687 
L 157.03126 187.32423 
L 157.465865 187.18087 
L 157.90047 187.61095 
L 158.335074 188.25607 
L 158.769679 187.59303 
L 159.638889 188.61447 
L 160.073494 189.97639 
L 161.811913 191.39207 
L 162.246518 191.19495 
L 163.115727 192.57479 
L 163.550332 192.46727 
L 164.419542 191.89383 
L 164.854147 191.75047 
L 165.288752 192.71815 
L 165.723356 192.75399 
L 166.592566 192.50311 
L 167.461776 193.18407 
L 168.330985 193.00487 
L 168.76559 192.93319 
L 169.6348 192.95111 
L 170.069405 191.71463 
L 170.50401 192.28807 
L 170.938614 191.87591 
L 171.373219 190.65735 
L 171.807824 190.58567 
L 172.242429 188.50695 
L 172.677034 188.07687 
L 173.111638 185.24551 
L 173.546243 180.62215 
L 173.980848 174.06343 
L 174.415453 165.30055 
L 174.850058 161.93159 
L 175.284663 164.90631 
L 175.719267 161.53735 
L 176.153872 160.83847 
L 176.588477 160.91015 
L 177.023082 161.10727 
L 177.457687 161.68071 
L 177.892292 161.26855 
L 178.326896 161.34023 
L 178.761501 161.23271 
L 179.630711 163.77735 
L 180.499921 164.56583 
L 181.803735 164.92423 
L 182.23834 165.65895 
L 182.672945 166.94919 
L 183.976759 173.38247 
L 184.411364 175.40743 
L 184.845969 178.20295 
L 186.584388 185.13799 
L 187.018993 186.12359 
L 187.453598 187.84391 
L 187.888203 188.91911 
L 188.757412 192.25223 
L 189.192017 193.54247 
L 189.626622 194.38471 
L 190.061227 194.86855 
L 190.495831 195.81831 
L 191.799646 197.53863 
L 192.234251 197.82535 
L 193.10346 198.90055 
L 193.538065 198.77511 
L 194.84188 199.49191 
L 195.711089 199.18727 
L 196.145694 199.70695 
L 197.014904 199.45607 
L 197.449509 198.70343 
L 197.884114 197.35943 
L 198.318718 197.00103 
L 199.187928 198.39879 
L 199.622533 198.12999 
L 200.057138 198.79303 
L 200.926347 200.67463 
L 201.360952 202.50247 
L 202.230162 209.24039 
L 202.664767 210.24391 
L 203.099371 210.83527 
L 203.533976 210.69191 
L 203.968581 210.42311 
L 204.403186 210.35143 
L 205.272396 210.67399 
L 206.141605 209.68839 
L 206.57621 209.59879 
L 207.010815 209.36583 
L 209.183839 204.61703 
L 209.618444 203.20135 
L 210.922258 201.15847 
L 211.356863 199.65319 
L 211.791468 197.39527 
L 212.226073 198.09415 
L 213.095282 196.06919 
L 213.529887 195.58535 
L 213.964492 194.59975 
L 214.833702 194.09799 
L 215.268307 193.45287 
L 216.137516 191.62503 
L 217.441331 189.72551 
L 217.875935 189.49255 
L 218.31054 188.88327 
L 218.745145 188.57863 
L 219.17975 188.11271 
L 220.04896 187.57511 
L 220.483564 187.52135 
L 220.918169 188.47111 
L 221.352774 187.75431 
L 222.221984 187.57511 
L 222.656589 187.80807 
L 223.091193 188.20231 
L 223.525798 188.25607 
L 223.960403 188.84743 
L 224.395008 189.81511 
L 224.829613 189.31335 
L 225.698822 189.97639 
L 226.133427 191.21287 
L 226.568032 191.69671 
L 227.437242 192.14471 
L 227.871846 192.00135 
L 228.306451 192.32391 
L 228.741056 191.92967 
L 229.610266 191.55335 
L 230.044871 191.60711 
L 230.479475 192.12679 
L 230.91408 192.09095 
L 231.348685 191.44583 
L 232.217895 190.89031 
L 233.087104 189.86887 
L 234.825524 186.14151 
L 235.260128 184.60039 
L 236.129338 179.09895 
L 237.433153 163.63399 
L 237.867757 162.68423 
L 238.302362 161.42983 
L 238.736967 161.77031 
L 239.171572 161.69863 
L 239.606177 161.98535 
L 240.040782 162.59463 
L 241.344596 161.05351 
L 241.779201 160.82055 
L 243.083015 163.31143 
L 243.51762 164.44039 
L 244.38683 167.86311 
L 244.821435 168.18567 
L 245.690644 171.01703 
L 246.125249 173.59751 
L 248.298273 182.59335 
L 248.732878 184.13447 
L 249.167483 185.17383 
L 249.602088 187.59303 
L 250.036693 189.24167 
L 251.775112 194.09799 
L 252.644321 196.96519 
L 253.513531 197.57447 
L 253.948136 198.57799 
L 254.382741 198.91847 
L 254.817346 199.04391 
L 255.25195 198.82887 
L 256.12116 200.10119 
L 256.555765 200.13703 
L 256.99037 199.76071 
L 257.424975 199.92199 
L 258.294184 199.70695 
L 258.728789 199.63527 
L 259.163394 199.25895 
L 259.597999 199.61735 
L 260.032603 199.81447 
L 260.467208 198.32711 
L 260.901813 198.12999 
L 261.336418 198.56007 
L 261.771023 199.54567 
L 262.640232 200.17287 
L 263.074837 200.29831 
L 263.509442 201.66023 
L 264.378652 206.85703 
L 264.813257 209.88551 
L 265.247861 211.12199 
L 265.682466 210.62023 
L 266.117071 210.47687 
L 266.551676 209.76007 
L 267.420886 211.13991 
L 267.85549 211.53415 
L 269.159305 209.83175 
L 270.028514 209.13287 
L 270.463119 208.02183 
L 270.897724 206.49863 
L 271.332329 206.05063 
L 272.201539 204.81415 
L 272.636143 203.59559 
L 273.070748 203.11175 
L 274.809168 198.57799 
L 275.243772 197.95079 
L 275.678377 196.37383 
L 276.112982 195.51367 
L 276.547587 193.59623 
L 276.982192 192.68231 
L 277.416796 192.05511 
L 278.286006 191.49959 
L 279.155216 190.15559 
L 279.589821 189.72551 
L 280.45903 189.29543 
L 280.893635 188.65031 
L 281.32824 188.54279 
L 282.19745 186.53575 
L 282.632054 186.21319 
L 283.066659 186.87623 
L 283.935869 187.03751 
L 284.370474 186.89415 
L 285.674288 187.09127 
L 286.108893 187.19879 
L 286.543498 187.00167 
L 286.978103 187.16295 
L 287.412707 187.62887 
L 287.847312 187.87975 
L 288.716522 187.98727 
L 289.585732 188.65031 
L 290.020336 188.57863 
L 290.454941 187.96935 
L 290.889546 188.68615 
L 291.324151 188.99079 
L 291.758756 188.23815 
L 292.627965 188.23815 
L 293.06257 189.25959 
L 293.497175 188.91911 
L 293.93178 188.36359 
L 294.366385 187.03751 
L 294.800989 186.41031 
L 295.235594 186.12359 
L 295.670199 186.12359 
L 296.104804 185.19175 
L 296.539409 184.76167 
L 296.974014 184.70791 
L 297.843223 182.16327 
L 298.277828 179.27815 
L 298.712433 175.35367 
L 299.147038 169.87015 
L 299.581643 162.66631 
L 300.016247 159.92455 
L 300.885457 158.04295 
L 301.320062 158.50887 
L 302.189272 157.73831 
L 302.623876 158.15047 
L 303.058481 158.40135 
L 303.493086 158.40135 
L 303.927691 158.90311 
L 304.362296 160.56967 
L 305.231505 162.89927 
L 307.404529 168.56199 
L 309.142949 175.49703 
L 310.446763 179.99495 
L 310.881368 182.18119 
L 311.750578 185.04839 
L 312.619787 188.48903 
L 313.054392 189.95847 
L 313.488997 190.58567 
L 314.358207 192.48519 
L 314.792811 193.43495 
L 315.227416 194.79687 
L 315.662021 195.47783 
L 316.096626 195.85415 
L 317.40044 197.55655 
L 317.835045 197.39527 
L 318.26965 197.68199 
L 318.704255 198.52423 
L 319.13886 198.86471 
L 319.573465 198.64967 
L 320.008069 198.70343 
L 320.442674 198.88263 
L 321.311884 198.93639 
L 321.746489 198.73927 
L 322.181093 198.70343 
L 322.615698 198.54215 
L 323.050303 197.19815 
L 323.484908 197.00103 
L 323.919513 197.37735 
L 325.223327 201.19431 
L 325.657932 201.03303 
L 326.092537 202.16199 
L 326.961747 208.03975 
L 327.396351 210.83527 
L 327.830956 212.10759 
L 328.700166 211.85671 
L 329.134771 210.87111 
L 329.569375 210.94279 
L 330.438585 211.85671 
L 330.87319 211.42663 
L 331.307795 210.26183 
L 332.177004 209.95719 
L 332.611609 209.52711 
L 333.046214 209.31207 
L 333.915424 206.98247 
L 334.784633 205.13671 
L 335.653843 203.75687 
L 336.088448 203.18343 
L 336.957658 200.15495 
L 338.261472 197.23399 
L 339.999891 193.56039 
L 340.434496 193.14823 
L 340.869101 192.16263 
L 341.303706 192.05511 
L 341.738311 191.10535 
L 342.172915 190.47815 
L 342.60752 190.13767 
L 343.042125 189.42087 
L 344.34594 188.41735 
L 345.215149 188.99079 
L 345.649754 189.79719 
L 346.084359 189.88679 
L 346.518964 190.76487 
L 346.953568 190.96199 
L 347.388173 190.74695 
L 347.822778 190.90823 
L 348.257383 192.01927 
L 349.126593 192.86151 
L 349.561197 192.43143 
L 349.995802 192.64647 
L 350.430407 193.11239 
L 350.865012 193.88295 
L 351.299617 193.79335 
L 352.603431 194.34887 
L 353.038036 194.49223 
L 353.472641 194.94023 
L 353.907246 194.77895 
L 354.341851 193.95463 
L 354.776455 193.72167 
L 355.21106 193.86503 
L 355.645665 193.61415 
L 356.08027 193.63207 
L 356.514875 193.29159 
L 356.949479 193.23783 
L 357.384084 192.03719 
L 357.818689 191.51751 
L 358.253294 191.37415 
L 359.122504 190.65735 
L 360.860923 184.61831 
L 361.295528 181.15975 
L 361.730133 175.35367 
L 362.164737 167.75559 
L 362.599342 164.29703 
L 363.033947 163.20391 
L 363.468552 162.72007 
L 363.903157 162.57671 
L 364.337761 162.66631 
L 364.772366 162.97095 
L 365.206971 163.66983 
L 365.641576 162.68423 
L 366.076181 162.52295 
L 366.510786 162.88135 
L 367.379995 163.16807 
L 367.8146 163.74151 
L 369.553019 166.94919 
L 369.987624 167.61223 
L 370.856834 170.56903 
L 372.160648 175.90919 
L 372.595253 178.16711 
L 373.029858 179.81575 
L 373.464463 180.78343 
L 374.768277 186.60743 
L 375.202882 187.68263 
L 376.506697 192.48519 
L 376.941301 192.89735 
L 377.375906 194.76103 
L 378.679721 197.91495 
L 379.114326 198.56007 
L 379.54893 198.56007 
L 380.41814 200.36999 
L 380.852745 200.28039 
L 381.28735 201.48103 
L 381.721954 200.19079 
L 382.156559 200.92551 
L 382.591164 201.12263 
L 383.025769 201.05095 
L 383.460374 200.60295 
L 384.329583 200.90759 
L 385.198793 200.63879 
L 385.633398 198.63175 
L 386.502608 200.38791 
L 386.937212 201.30183 
L 387.371817 201.46311 
L 387.806422 201.94695 
L 388.675632 203.81063 
L 389.544841 208.68487 
L 389.979446 211.69543 
L 390.414051 212.75271 
L 390.848656 213.12903 
L 391.283261 212.87815 
L 391.717865 212.19719 
L 392.15247 212.37639 
L 392.587075 212.82439 
L 393.02168 212.94983 
L 394.325494 211.71335 
L 394.760099 211.03239 
L 396.933123 206.44487 
L 397.367728 205.11879 
L 397.802333 204.67079 
L 398.236938 203.75687 
L 399.540752 199.02599 
L 400.409962 197.50279 
L 401.713776 194.27719 
L 403.886801 190.10183 
L 404.321405 188.36359 
L 404.75601 187.53927 
L 405.190615 187.14503 
L 405.62522 187.43175 
L 406.059825 186.98375 
L 406.929034 185.90855 
L 407.363639 185.40679 
L 407.798244 185.62183 
L 408.232849 185.35303 
L 408.667454 185.22759 
L 409.102058 184.77959 
L 409.536663 185.22759 
L 409.971268 185.42471 
L 410.405873 186.15943 
L 410.840478 186.12359 
L 411.275083 186.24903 
L 412.144292 187.03751 
L 413.013502 187.10919 
L 413.448107 187.86183 
L 414.751921 188.75783 
L 415.186526 188.68615 
L 415.621131 189.42087 
L 416.924945 189.25959 
L 417.794155 189.94055 
L 418.22876 190.17351 
L 418.663365 189.88679 
L 419.097969 189.38503 
L 419.532574 189.49255 
L 419.967179 190.24519 
L 420.401784 190.04807 
L 420.836389 189.33127 
L 421.270994 189.09831 
L 421.705598 188.38151 
L 422.140203 187.34215 
L 423.009413 184.90503 
L 423.444018 182.41415 
L 423.878623 178.74055 
L 425.182437 162.32583 
L 425.617042 161.21479 
L 426.486251 160.17543 
L 426.920856 161.35815 
L 427.790066 161.14311 
L 428.224671 160.96391 
L 428.659276 160.64135 
L 429.528485 161.01767 
L 429.96309 161.46567 
L 430.8323 162.70215 
L 431.701509 163.40103 
L 432.136114 163.34727 
L 432.570719 164.78087 
L 433.439929 166.28615 
L 433.874534 167.52263 
L 434.309138 169.20711 
L 434.743743 171.46503 
L 435.612953 174.56519 
L 436.482162 176.33927 
L 436.916767 179.92327 
L 437.785977 184.58247 
L 438.220582 186.08775 
L 439.089791 190.31687 
L 439.524396 191.28455 
L 439.959001 192.53895 
L 442.132025 196.83975 
L 442.56663 199.40231 
L 443.001235 200.20871 
L 443.870444 201.26599 
L 444.305049 201.57063 
L 444.739654 202.07239 
L 445.174259 202.05447 
L 445.608864 202.48455 
L 446.478073 201.12263 
L 446.912678 203.39847 
L 447.781888 201.57063 
L 448.216493 200.72839 
L 449.085702 201.55271 
L 449.520307 201.73191 
L 450.389517 202.59207 
L 450.824122 202.80711 
L 451.258727 203.88231 
L 451.693331 206.53447 
L 452.562541 213.34407 
L 452.997146 214.79559 
L 453.431751 214.75975 
L 453.866355 215.06439 
L 454.30096 215.10023 
L 454.735565 214.79559 
L 455.604775 215.24359 
L 456.03938 215.15399 
L 456.473984 214.54471 
L 456.908589 213.68455 
L 457.343194 213.21863 
L 457.777799 213.21863 
L 458.212404 212.01799 
L 459.081613 208.66695 
L 459.516218 207.82471 
L 460.385428 205.33383 
L 462.123847 200.71047 
L 463.427662 196.75015 
L 463.862266 196.35591 
L 464.731476 194.81479 
L 465.600686 193.88295 
L 466.035291 193.21991 
L 466.469895 192.28807 
L 466.9045 191.64295 
L 467.339105 190.49607 
L 467.77371 190.24519 
L 468.208315 189.70759 
L 468.64292 189.52839 
L 469.077524 189.09831 
L 469.512129 188.88327 
L 469.946734 188.34567 
L 470.381339 188.32775 
L 471.250548 187.84391 
L 472.119758 187.80807 
L 473.423573 188.29191 
L 474.292782 188.27399 
L 474.727387 188.57863 
L 475.161992 189.11623 
L 475.596597 189.40295 
L 476.900411 188.11271 
L 477.335016 188.22023 
L 477.769621 189.13415 
L 478.204226 189.76135 
L 479.073435 190.28103 
L 479.50804 190.11975 
L 480.37725 190.72903 
L 480.811855 191.17703 
L 481.246459 191.23079 
L 481.681064 191.71463 
L 482.115669 191.69671 
L 482.550274 191.85799 
L 482.984879 192.32391 
L 483.419484 192.12679 
L 484.288693 191.24871 
L 485.157903 190.99783 
L 485.592508 189.77927 
L 486.027113 187.57511 
L 486.461717 183.41767 
L 486.896322 177.79079 
L 487.330927 170.58695 
L 487.765532 166.25031 
L 488.200137 164.65543 
L 488.634741 163.86695 
L 489.069346 163.68775 
L 489.938556 163.74151 
L 490.373161 163.72359 
L 490.807766 164.06407 
L 491.24237 164.20743 
L 491.676975 163.61607 
L 492.11158 161.77031 
L 492.546185 161.75239 
L 492.98079 162.16455 
L 493.415395 163.45479 
L 493.849999 163.88487 
L 495.153814 165.94567 
L 495.588419 167.46887 
L 496.023023 170.38983 
L 496.457628 172.09223 
L 496.892233 173.25703 
L 497.326838 175.44327 
L 497.761443 178.97351 
L 498.630652 182.16327 
L 499.065257 184.27783 
L 499.499862 186.98375 
L 499.934467 187.80807 
L 499.934467 187.80807 
" clip-path="url(#p47926a3e7f)" style="fill: none; stroke: #5b5b5b; stroke-width: 1.2; stroke-linecap: square"/>
   </g>
   <g id="patch_7">
    <path d="M 55.410938 232.06375 
L 55.410938 139.66375 
" style="fill: none; stroke: #cccccc; stroke-width: 0.75; stroke-linejoin: miter; stroke-linecap: square"/>
   </g>
   <g id="patch_8">
    <path d="M 62.287408 237.06375 
L 500.369072 237.06375 
" style="fill: none; stroke: #cccccc; stroke-width: 0.75; stroke-linejoin: miter; stroke-linecap: square"/>
   </g>
  </g>
 </g>
 <defs>
  <clipPath id="pa074934dd0">
   <rect x="57.910938" y="10.30375" width="446.4" height="92.4"/>
  </clipPath>
  <clipPath id="pcd175d7f5c">
   <rect x="57.910938" y="232.06375" width="446.4" height="0"/>
  </clipPath>
  <clipPath id="p47926a3e7f">
   <rect x="57.910938" y="139.66375" width="446.4" height="92.4"/>
  </clipPath>
 </defs>
</svg>
