<?xml version="1.0" encoding="utf-8" standalone="no"?>
<!DOCTYPE svg PUBLIC "-//W3C//DTD SVG 1.1//EN"
  "http://www.w3.org/Graphics/SVG/1.1/DTD/svg11.dtd">
<svg xmlns:xlink="http://www.w3.org/1999/xlink" width="514.010937pt" height="306.67125pt" viewBox="0 0 514.010937 306.67125" xmlns="http://www.w3.org/2000/svg" version="1.1">
 <metadata>
  <rdf:RDF xmlns:dc="http://purl.org/dc/elements/1.1/" xmlns:cc="http://creativecommons.org/ns#" xmlns:rdf="http://www.w3.org/1999/02/22-rdf-syntax-ns#">
   <cc:Work>
    <dc:type rdf:resource="http://purl.org/dc/dcmitype/StillImage"/>
    <dc:date>2024-04-25T19:53:51.673189</dc:date>
    <dc:format>image/svg+xml</dc:format>
    <dc:creator>
     <cc:Agent>
      <dc:title>Matplotlib v3.8.3, https://matplotlib.org/</dc:title>
     </cc:Agent>
    </dc:creator>
   </cc:Work>
  </rdf:RDF>
 </metadata>
 <defs>
  <style type="text/css">*{stroke-linejoin: round; stroke-linecap: butt}</style>
 </defs>
 <g id="figure_1">
  <g id="patch_1">
   <path d="M 0 306.67125 
L 514.010937 306.67125 
L 514.010937 0 
L 0 0 
L 0 306.67125 
z
" style="fill: none"/>
  </g>
  <g id="axes_1">
   <g id="patch_2">
    <path d="M 60.410938 110.09575 
L 506.810937 110.09575 
L 506.810937 10.30375 
L 60.410938 10.30375 
L 60.410938 110.09575 
z
" style="fill: none"/>
   </g>
   <g id="axes_2">
    <g id="patch_3">
     <path d="M 60.410938 110.09575 
L 506.810937 110.09575 
L 506.810937 110.09575 
L 60.410938 110.09575 
L 60.410938 110.09575 
z
" style="fill: none"/>
    </g>
    <g id="matplotlib.axis_1">
     <g id="xtick_1">
      <g id="line2d_1">
       <path d="M 92.164114 110.09575 
L 92.164114 110.09575 
" clip-path="url(#pa5b65d23f4)" style="fill: none; stroke-dasharray: 0.5,0.825; stroke-dashoffset: 0; stroke: #d9d9d9; stroke-width: 0.5"/>
      </g>
      <g id="text_1">
       <!-- 06-23 -->
       <g style="fill: #808080" transform="translate(81.942864 148.30325) scale(0.08 -0.08)">
        <defs>
         <path id="Ubuntu-30" d="M 320 2221 
Q 320 3334 713 3936 
Q 1107 4538 1805 4538 
Q 2502 4538 2896 3936 
Q 3290 3334 3290 2221 
Q 3290 1107 2896 505 
Q 2502 -96 1805 -96 
Q 1107 -96 713 505 
Q 320 1107 320 2221 
z
M 2662 2221 
Q 2662 2586 2620 2912 
Q 2579 3238 2480 3481 
Q 2381 3725 2214 3869 
Q 2048 4013 1805 4013 
Q 1562 4013 1395 3869 
Q 1229 3725 1129 3481 
Q 1030 3238 988 2912 
Q 947 2586 947 2221 
Q 947 1856 988 1529 
Q 1030 1203 1129 960 
Q 1229 717 1395 573 
Q 1562 429 1805 429 
Q 2048 429 2214 573 
Q 2381 717 2480 960 
Q 2579 1203 2620 1529 
Q 2662 1856 2662 2221 
z
" transform="scale(0.015625)"/>
         <path id="Ubuntu-36" d="M 403 1779 
Q 403 2426 582 2922 
Q 762 3418 1091 3757 
Q 1421 4096 1891 4272 
Q 2362 4448 2950 4454 
L 2995 3955 
Q 2618 3949 2307 3872 
Q 1997 3795 1753 3628 
Q 1510 3462 1344 3196 
Q 1178 2931 1094 2541 
Q 1261 2618 1469 2669 
Q 1677 2720 1901 2720 
Q 2278 2720 2540 2605 
Q 2803 2490 2969 2301 
Q 3136 2112 3209 1865 
Q 3283 1619 3283 1350 
Q 3283 1107 3200 851 
Q 3117 595 2947 384 
Q 2778 173 2515 38 
Q 2253 -96 1894 -96 
Q 1165 -96 784 403 
Q 403 902 403 1779 
z
M 1837 2234 
Q 1613 2234 1421 2192 
Q 1229 2150 1037 2067 
Q 1030 1997 1027 1923 
Q 1024 1850 1024 1779 
Q 1024 1498 1062 1248 
Q 1101 998 1200 809 
Q 1299 621 1465 509 
Q 1632 397 1888 397 
Q 2099 397 2246 486 
Q 2394 576 2490 717 
Q 2586 858 2627 1021 
Q 2669 1184 2669 1338 
Q 2669 1773 2461 2003 
Q 2253 2234 1837 2234 
z
" transform="scale(0.015625)"/>
         <path id="Ubuntu-2d" d="M 166 2195 
L 1747 2195 
L 1747 1638 
L 166 1638 
L 166 2195 
z
" transform="scale(0.015625)"/>
         <path id="Ubuntu-32" d="M 2989 3302 
Q 2989 3072 2896 2857 
Q 2803 2643 2649 2435 
Q 2496 2227 2304 2025 
Q 2112 1824 1920 1632 
Q 1811 1523 1667 1376 
Q 1523 1229 1395 1069 
Q 1267 909 1180 761 
Q 1094 614 1094 506 
L 3136 506 
L 3136 0 
L 448 0 
Q 442 38 442 76 
Q 442 115 442 147 
Q 442 448 541 707 
Q 640 966 800 1196 
Q 960 1427 1158 1632 
Q 1357 1837 1549 2029 
Q 1709 2182 1853 2332 
Q 1997 2483 2109 2633 
Q 2221 2784 2288 2944 
Q 2355 3104 2355 3283 
Q 2355 3475 2294 3609 
Q 2234 3744 2131 3833 
Q 2029 3923 1891 3964 
Q 1754 4006 1600 4006 
Q 1414 4006 1260 3955 
Q 1107 3904 985 3837 
Q 864 3770 781 3696 
Q 698 3622 653 3584 
L 358 4006 
Q 416 4070 531 4163 
Q 646 4256 806 4339 
Q 966 4422 1164 4480 
Q 1363 4538 1594 4538 
Q 2291 4538 2640 4214 
Q 2989 3891 2989 3302 
z
" transform="scale(0.015625)"/>
         <path id="Ubuntu-33" d="M 1446 435 
Q 2016 435 2262 659 
Q 2509 883 2509 1261 
Q 2509 1504 2406 1670 
Q 2304 1837 2137 1936 
Q 1971 2035 1750 2076 
Q 1530 2118 1299 2118 
L 1146 2118 
L 1146 2605 
L 1357 2605 
Q 1517 2605 1686 2637 
Q 1856 2669 1997 2752 
Q 2138 2835 2227 2979 
Q 2317 3123 2317 3341 
Q 2317 3520 2253 3648 
Q 2189 3776 2083 3859 
Q 1978 3942 1840 3977 
Q 1702 4013 1549 4013 
Q 1242 4013 1027 3923 
Q 813 3834 666 3738 
L 435 4192 
Q 512 4243 630 4304 
Q 749 4365 896 4416 
Q 1043 4467 1212 4502 
Q 1382 4538 1568 4538 
Q 1920 4538 2176 4451 
Q 2432 4365 2598 4208 
Q 2765 4051 2848 3836 
Q 2931 3622 2931 3373 
Q 2931 3027 2732 2780 
Q 2534 2534 2253 2406 
Q 2426 2355 2586 2259 
Q 2746 2163 2864 2016 
Q 2982 1869 3056 1677 
Q 3130 1485 3130 1248 
Q 3130 960 3030 713 
Q 2931 467 2723 288 
Q 2515 109 2201 6 
Q 1888 -96 1459 -96 
Q 1293 -96 1117 -70 
Q 941 -45 787 -6 
Q 634 32 518 70 
Q 403 109 352 134 
L 467 653 
Q 576 602 829 518 
Q 1082 435 1446 435 
z
" transform="scale(0.015625)"/>
        </defs>
        <use xlink:href="#Ubuntu-30"/>
        <use xlink:href="#Ubuntu-36" x="56.399994"/>
        <use xlink:href="#Ubuntu-2d" x="112.799988"/>
        <use xlink:href="#Ubuntu-32" x="142.699982"/>
        <use xlink:href="#Ubuntu-33" x="199.099976"/>
       </g>
      </g>
     </g>
     <g id="xtick_2">
      <g id="line2d_2">
       <path d="M 146.917525 110.09575 
L 146.917525 110.09575 
" clip-path="url(#pa5b65d23f4)" style="fill: none; stroke-dasharray: 0.5,0.825; stroke-dashoffset: 0; stroke: #d9d9d9; stroke-width: 0.5"/>
      </g>
      <g id="text_2">
       <!-- 06-24 -->
       <g style="fill: #808080" transform="translate(136.696275 148.30325) scale(0.08 -0.08)">
        <defs>
         <path id="Ubuntu-34" d="M 256 1536 
Q 378 1818 589 2192 
Q 800 2566 1065 2963 
Q 1331 3360 1635 3744 
Q 1939 4128 2246 4435 
L 2816 4435 
L 2816 1619 
L 3341 1619 
L 3341 1133 
L 2816 1133 
L 2816 0 
L 2240 0 
L 2240 1133 
L 256 1133 
L 256 1536 
z
M 2240 3731 
Q 2048 3526 1853 3273 
Q 1658 3021 1472 2745 
Q 1286 2470 1123 2182 
Q 960 1894 832 1619 
L 2240 1619 
L 2240 3731 
z
" transform="scale(0.015625)"/>
        </defs>
        <use xlink:href="#Ubuntu-30"/>
        <use xlink:href="#Ubuntu-36" x="56.399994"/>
        <use xlink:href="#Ubuntu-2d" x="112.799988"/>
        <use xlink:href="#Ubuntu-32" x="142.699982"/>
        <use xlink:href="#Ubuntu-34" x="199.099976"/>
       </g>
      </g>
     </g>
     <g id="xtick_3">
      <g id="line2d_3">
       <path d="M 201.670936 110.09575 
L 201.670936 110.09575 
" clip-path="url(#pa5b65d23f4)" style="fill: none; stroke-dasharray: 0.5,0.825; stroke-dashoffset: 0; stroke: #d9d9d9; stroke-width: 0.5"/>
      </g>
      <g id="text_3">
       <!-- 06-25 -->
       <g style="fill: #808080" transform="translate(191.449686 148.30325) scale(0.08 -0.08)">
        <defs>
         <path id="Ubuntu-35" d="M 1274 2726 
Q 2240 2688 2691 2304 
Q 3142 1920 3142 1261 
Q 3142 966 3043 716 
Q 2944 467 2742 288 
Q 2541 109 2233 6 
Q 1926 -96 1504 -96 
Q 1338 -96 1165 -70 
Q 992 -45 845 -6 
Q 698 32 582 70 
Q 467 109 416 134 
L 531 653 
Q 640 602 886 518 
Q 1133 435 1491 435 
Q 1779 435 1974 499 
Q 2170 563 2291 672 
Q 2413 781 2467 925 
Q 2522 1069 2522 1229 
Q 2522 1472 2438 1661 
Q 2355 1850 2144 1978 
Q 1933 2106 1581 2173 
Q 1229 2240 691 2240 
Q 730 2554 752 2829 
Q 774 3104 793 3366 
Q 813 3629 825 3888 
Q 838 4147 851 4435 
L 2989 4435 
L 2989 3930 
L 1370 3930 
Q 1363 3834 1350 3670 
Q 1338 3507 1325 3331 
Q 1312 3155 1299 2988 
Q 1286 2822 1274 2726 
z
" transform="scale(0.015625)"/>
        </defs>
        <use xlink:href="#Ubuntu-30"/>
        <use xlink:href="#Ubuntu-36" x="56.399994"/>
        <use xlink:href="#Ubuntu-2d" x="112.799988"/>
        <use xlink:href="#Ubuntu-32" x="142.699982"/>
        <use xlink:href="#Ubuntu-35" x="199.099976"/>
       </g>
      </g>
     </g>
     <g id="xtick_4">
      <g id="line2d_4">
       <path d="M 256.424348 110.09575 
L 256.424348 110.09575 
" clip-path="url(#pa5b65d23f4)" style="fill: none; stroke-dasharray: 0.5,0.825; stroke-dashoffset: 0; stroke: #d9d9d9; stroke-width: 0.5"/>
      </g>
      <g id="text_4">
       <!-- 06-26 -->
       <g style="fill: #808080" transform="translate(246.203098 148.30325) scale(0.08 -0.08)">
        <use xlink:href="#Ubuntu-30"/>
        <use xlink:href="#Ubuntu-36" x="56.399994"/>
        <use xlink:href="#Ubuntu-2d" x="112.799988"/>
        <use xlink:href="#Ubuntu-32" x="142.699982"/>
        <use xlink:href="#Ubuntu-36" x="199.099976"/>
       </g>
      </g>
     </g>
     <g id="xtick_5">
      <g id="line2d_5">
       <path d="M 311.177759 110.09575 
L 311.177759 110.09575 
" clip-path="url(#pa5b65d23f4)" style="fill: none; stroke-dasharray: 0.5,0.825; stroke-dashoffset: 0; stroke: #d9d9d9; stroke-width: 0.5"/>
      </g>
      <g id="text_5">
       <!-- 06-27 -->
       <g style="fill: #808080" transform="translate(300.956509 148.30325) scale(0.08 -0.08)">
        <defs>
         <path id="Ubuntu-37" d="M 1043 0 
Q 1082 512 1226 1078 
Q 1370 1645 1581 2179 
Q 1792 2714 2045 3171 
Q 2298 3629 2541 3917 
L 384 3917 
L 384 4435 
L 3206 4435 
L 3206 3942 
Q 2995 3699 2739 3273 
Q 2483 2848 2256 2320 
Q 2029 1792 1865 1193 
Q 1702 595 1664 0 
L 1043 0 
z
" transform="scale(0.015625)"/>
        </defs>
        <use xlink:href="#Ubuntu-30"/>
        <use xlink:href="#Ubuntu-36" x="56.399994"/>
        <use xlink:href="#Ubuntu-2d" x="112.799988"/>
        <use xlink:href="#Ubuntu-32" x="142.699982"/>
        <use xlink:href="#Ubuntu-37" x="199.099976"/>
       </g>
      </g>
     </g>
     <g id="xtick_6">
      <g id="line2d_6">
       <path d="M 365.931171 110.09575 
L 365.931171 110.09575 
" clip-path="url(#pa5b65d23f4)" style="fill: none; stroke-dasharray: 0.5,0.825; stroke-dashoffset: 0; stroke: #d9d9d9; stroke-width: 0.5"/>
      </g>
      <g id="text_6">
       <!-- 06-28 -->
       <g style="fill: #808080" transform="translate(355.709921 148.30325) scale(0.08 -0.08)">
        <defs>
         <path id="Ubuntu-38" d="M 3258 1152 
Q 3258 883 3165 656 
Q 3072 429 2889 259 
Q 2707 90 2432 -3 
Q 2157 -96 1798 -96 
Q 1382 -96 1104 22 
Q 826 141 659 320 
Q 493 499 422 713 
Q 352 928 352 1120 
Q 352 1306 413 1475 
Q 474 1645 573 1792 
Q 672 1939 803 2057 
Q 934 2176 1082 2266 
Q 454 2624 454 3322 
Q 454 3565 550 3785 
Q 646 4006 822 4172 
Q 998 4339 1248 4438 
Q 1498 4538 1805 4538 
Q 2163 4538 2419 4429 
Q 2675 4320 2838 4150 
Q 3002 3981 3075 3776 
Q 3149 3571 3149 3379 
Q 3149 3194 3094 3030 
Q 3040 2867 2947 2726 
Q 2854 2586 2736 2477 
Q 2618 2368 2490 2285 
Q 3245 1926 3258 1152 
z
M 954 1114 
Q 954 998 995 873 
Q 1037 749 1139 643 
Q 1242 538 1402 467 
Q 1562 397 1805 397 
Q 2022 397 2185 461 
Q 2349 525 2451 624 
Q 2554 723 2605 851 
Q 2656 979 2656 1114 
Q 2656 1318 2579 1472 
Q 2502 1626 2358 1741 
Q 2214 1856 2012 1936 
Q 1811 2016 1555 2074 
Q 1267 1914 1110 1677 
Q 954 1440 954 1114 
z
M 2554 3386 
Q 2554 3482 2512 3597 
Q 2470 3712 2380 3811 
Q 2291 3910 2150 3977 
Q 2010 4045 1805 4045 
Q 1600 4045 1456 3981 
Q 1312 3917 1222 3817 
Q 1133 3718 1091 3600 
Q 1050 3482 1050 3366 
Q 1050 3226 1101 3085 
Q 1152 2944 1261 2822 
Q 1370 2701 1546 2605 
Q 1722 2509 1965 2451 
Q 2234 2611 2394 2825 
Q 2554 3040 2554 3386 
z
" transform="scale(0.015625)"/>
        </defs>
        <use xlink:href="#Ubuntu-30"/>
        <use xlink:href="#Ubuntu-36" x="56.399994"/>
        <use xlink:href="#Ubuntu-2d" x="112.799988"/>
        <use xlink:href="#Ubuntu-32" x="142.699982"/>
        <use xlink:href="#Ubuntu-38" x="199.099976"/>
       </g>
      </g>
     </g>
     <g id="xtick_7">
      <g id="line2d_7">
       <path d="M 420.684582 110.09575 
L 420.684582 110.09575 
" clip-path="url(#pa5b65d23f4)" style="fill: none; stroke-dasharray: 0.5,0.825; stroke-dashoffset: 0; stroke: #d9d9d9; stroke-width: 0.5"/>
      </g>
      <g id="text_7">
       <!-- 06-29 -->
       <g style="fill: #808080" transform="translate(410.463332 148.30325) scale(0.08 -0.08)">
        <defs>
         <path id="Ubuntu-39" d="M 3206 2662 
Q 3206 1344 2550 669 
Q 1894 -6 602 -13 
L 582 486 
Q 986 486 1309 563 
Q 1632 640 1875 809 
Q 2118 979 2281 1248 
Q 2445 1517 2522 1907 
Q 2355 1830 2144 1782 
Q 1933 1734 1709 1734 
Q 1331 1734 1068 1846 
Q 806 1958 640 2147 
Q 474 2336 400 2582 
Q 326 2829 326 3098 
Q 326 3334 409 3590 
Q 493 3846 662 4057 
Q 832 4269 1094 4403 
Q 1357 4538 1715 4538 
Q 2080 4538 2358 4410 
Q 2637 4282 2825 4038 
Q 3014 3795 3110 3446 
Q 3206 3098 3206 2662 
z
M 1773 2221 
Q 1997 2221 2195 2262 
Q 2394 2304 2579 2387 
Q 2586 2458 2586 2525 
Q 2586 2592 2586 2662 
Q 2586 2938 2547 3190 
Q 2509 3443 2409 3632 
Q 2310 3821 2144 3933 
Q 1978 4045 1722 4045 
Q 1510 4045 1363 3955 
Q 1216 3866 1120 3728 
Q 1024 3590 982 3427 
Q 941 3264 941 3110 
Q 941 2675 1149 2448 
Q 1357 2221 1773 2221 
z
" transform="scale(0.015625)"/>
        </defs>
        <use xlink:href="#Ubuntu-30"/>
        <use xlink:href="#Ubuntu-36" x="56.399994"/>
        <use xlink:href="#Ubuntu-2d" x="112.799988"/>
        <use xlink:href="#Ubuntu-32" x="142.699982"/>
        <use xlink:href="#Ubuntu-39" x="199.099976"/>
       </g>
      </g>
     </g>
     <g id="xtick_8">
      <g id="line2d_8">
       <path d="M 475.437993 110.09575 
L 475.437993 110.09575 
" clip-path="url(#pa5b65d23f4)" style="fill: none; stroke-dasharray: 0.5,0.825; stroke-dashoffset: 0; stroke: #d9d9d9; stroke-width: 0.5"/>
      </g>
      <g id="text_8">
       <!-- 06-30 -->
       <g style="fill: #808080" transform="translate(465.216743 148.30325) scale(0.08 -0.08)">
        <use xlink:href="#Ubuntu-30"/>
        <use xlink:href="#Ubuntu-36" x="56.399994"/>
        <use xlink:href="#Ubuntu-2d" x="112.799988"/>
        <use xlink:href="#Ubuntu-33" x="142.699982"/>
        <use xlink:href="#Ubuntu-30" x="199.099976"/>
       </g>
      </g>
     </g>
    </g>
    <g id="matplotlib.axis_2"/>
   </g>
   <g id="matplotlib.axis_3">
    <g id="xtick_9">
     <g id="line2d_9">
      <defs>
       <path id="mb5100fefc3" d="M 0 0 
L 0 3 
" style="stroke: #cccccc; stroke-width: 0.75"/>
      </defs>
      <g>
       <use xlink:href="#mb5100fefc3" x="78.475761" y="120.09575" style="fill: #cccccc; stroke: #cccccc; stroke-width: 0.75"/>
      </g>
     </g>
     <g id="text_9">
      <!-- 06 -->
      <g style="fill: #808080" transform="translate(74.527323 134.527312) scale(0.07 -0.07)">
       <use xlink:href="#Ubuntu-30"/>
       <use xlink:href="#Ubuntu-36" x="56.399994"/>
      </g>
     </g>
    </g>
    <g id="xtick_10">
     <g id="line2d_10">
      <g>
       <use xlink:href="#mb5100fefc3" x="92.164114" y="120.09575" style="fill: #cccccc; stroke: #cccccc; stroke-width: 0.75"/>
      </g>
     </g>
     <g id="text_10">
      <!-- 12 -->
      <g style="fill: #808080" transform="translate(88.215676 134.527312) scale(0.07 -0.07)">
       <defs>
        <path id="Ubuntu-31" d="M 595 3520 
Q 960 3661 1305 3881 
Q 1651 4102 1939 4435 
L 2362 4435 
L 2362 0 
L 1766 0 
L 1766 3610 
Q 1690 3539 1578 3462 
Q 1466 3386 1334 3315 
Q 1203 3245 1059 3181 
Q 915 3117 781 3072 
L 595 3520 
z
" transform="scale(0.015625)"/>
       </defs>
       <use xlink:href="#Ubuntu-31"/>
       <use xlink:href="#Ubuntu-32" x="56.399994"/>
      </g>
     </g>
    </g>
    <g id="xtick_11">
     <g id="line2d_11">
      <g>
       <use xlink:href="#mb5100fefc3" x="105.852467" y="120.09575" style="fill: #cccccc; stroke: #cccccc; stroke-width: 0.75"/>
      </g>
     </g>
     <g id="text_11">
      <!-- 18 -->
      <g style="fill: #808080" transform="translate(101.904029 134.527312) scale(0.07 -0.07)">
       <use xlink:href="#Ubuntu-31"/>
       <use xlink:href="#Ubuntu-38" x="56.399994"/>
      </g>
     </g>
    </g>
    <g id="xtick_12">
     <g id="line2d_12">
      <g>
       <use xlink:href="#mb5100fefc3" x="133.229172" y="120.09575" style="fill: #cccccc; stroke: #cccccc; stroke-width: 0.75"/>
      </g>
     </g>
     <g id="text_12">
      <!-- 06 -->
      <g style="fill: #808080" transform="translate(129.280735 134.527312) scale(0.07 -0.07)">
       <use xlink:href="#Ubuntu-30"/>
       <use xlink:href="#Ubuntu-36" x="56.399994"/>
      </g>
     </g>
    </g>
    <g id="xtick_13">
     <g id="line2d_13">
      <g>
       <use xlink:href="#mb5100fefc3" x="146.917525" y="120.09575" style="fill: #cccccc; stroke: #cccccc; stroke-width: 0.75"/>
      </g>
     </g>
     <g id="text_13">
      <!-- 12 -->
      <g style="fill: #808080" transform="translate(142.969088 134.527312) scale(0.07 -0.07)">
       <use xlink:href="#Ubuntu-31"/>
       <use xlink:href="#Ubuntu-32" x="56.399994"/>
      </g>
     </g>
    </g>
    <g id="xtick_14">
     <g id="line2d_14">
      <g>
       <use xlink:href="#mb5100fefc3" x="160.605878" y="120.09575" style="fill: #cccccc; stroke: #cccccc; stroke-width: 0.75"/>
      </g>
     </g>
     <g id="text_14">
      <!-- 18 -->
      <g style="fill: #808080" transform="translate(156.65744 134.527312) scale(0.07 -0.07)">
       <use xlink:href="#Ubuntu-31"/>
       <use xlink:href="#Ubuntu-38" x="56.399994"/>
      </g>
     </g>
    </g>
    <g id="xtick_15">
     <g id="line2d_15">
      <g>
       <use xlink:href="#mb5100fefc3" x="187.982584" y="120.09575" style="fill: #cccccc; stroke: #cccccc; stroke-width: 0.75"/>
      </g>
     </g>
     <g id="text_15">
      <!-- 06 -->
      <g style="fill: #808080" transform="translate(184.034146 134.527312) scale(0.07 -0.07)">
       <use xlink:href="#Ubuntu-30"/>
       <use xlink:href="#Ubuntu-36" x="56.399994"/>
      </g>
     </g>
    </g>
    <g id="xtick_16">
     <g id="line2d_16">
      <g>
       <use xlink:href="#mb5100fefc3" x="201.670936" y="120.09575" style="fill: #cccccc; stroke: #cccccc; stroke-width: 0.75"/>
      </g>
     </g>
     <g id="text_16">
      <!-- 12 -->
      <g style="fill: #808080" transform="translate(197.722499 134.527312) scale(0.07 -0.07)">
       <use xlink:href="#Ubuntu-31"/>
       <use xlink:href="#Ubuntu-32" x="56.399994"/>
      </g>
     </g>
    </g>
    <g id="xtick_17">
     <g id="line2d_17">
      <g>
       <use xlink:href="#mb5100fefc3" x="215.359289" y="120.09575" style="fill: #cccccc; stroke: #cccccc; stroke-width: 0.75"/>
      </g>
     </g>
     <g id="text_17">
      <!-- 18 -->
      <g style="fill: #808080" transform="translate(211.410852 134.527312) scale(0.07 -0.07)">
       <use xlink:href="#Ubuntu-31"/>
       <use xlink:href="#Ubuntu-38" x="56.399994"/>
      </g>
     </g>
    </g>
    <g id="xtick_18">
     <g id="line2d_18">
      <g>
       <use xlink:href="#mb5100fefc3" x="242.735995" y="120.09575" style="fill: #cccccc; stroke: #cccccc; stroke-width: 0.75"/>
      </g>
     </g>
     <g id="text_18">
      <!-- 06 -->
      <g style="fill: #808080" transform="translate(238.787557 134.527312) scale(0.07 -0.07)">
       <use xlink:href="#Ubuntu-30"/>
       <use xlink:href="#Ubuntu-36" x="56.399994"/>
      </g>
     </g>
    </g>
    <g id="xtick_19">
     <g id="line2d_19">
      <g>
       <use xlink:href="#mb5100fefc3" x="256.424348" y="120.09575" style="fill: #cccccc; stroke: #cccccc; stroke-width: 0.75"/>
      </g>
     </g>
     <g id="text_19">
      <!-- 12 -->
      <g style="fill: #808080" transform="translate(252.47591 134.527312) scale(0.07 -0.07)">
       <use xlink:href="#Ubuntu-31"/>
       <use xlink:href="#Ubuntu-32" x="56.399994"/>
      </g>
     </g>
    </g>
    <g id="xtick_20">
     <g id="line2d_20">
      <g>
       <use xlink:href="#mb5100fefc3" x="270.112701" y="120.09575" style="fill: #cccccc; stroke: #cccccc; stroke-width: 0.75"/>
      </g>
     </g>
     <g id="text_20">
      <!-- 18 -->
      <g style="fill: #808080" transform="translate(266.164263 134.527312) scale(0.07 -0.07)">
       <use xlink:href="#Ubuntu-31"/>
       <use xlink:href="#Ubuntu-38" x="56.399994"/>
      </g>
     </g>
    </g>
    <g id="xtick_21">
     <g id="line2d_21">
      <g>
       <use xlink:href="#mb5100fefc3" x="297.489406" y="120.09575" style="fill: #cccccc; stroke: #cccccc; stroke-width: 0.75"/>
      </g>
     </g>
     <g id="text_21">
      <!-- 06 -->
      <g style="fill: #808080" transform="translate(293.540969 134.527312) scale(0.07 -0.07)">
       <use xlink:href="#Ubuntu-30"/>
       <use xlink:href="#Ubuntu-36" x="56.399994"/>
      </g>
     </g>
    </g>
    <g id="xtick_22">
     <g id="line2d_22">
      <g>
       <use xlink:href="#mb5100fefc3" x="311.177759" y="120.09575" style="fill: #cccccc; stroke: #cccccc; stroke-width: 0.75"/>
      </g>
     </g>
     <g id="text_22">
      <!-- 12 -->
      <g style="fill: #808080" transform="translate(307.229322 134.527312) scale(0.07 -0.07)">
       <use xlink:href="#Ubuntu-31"/>
       <use xlink:href="#Ubuntu-32" x="56.399994"/>
      </g>
     </g>
    </g>
    <g id="xtick_23">
     <g id="line2d_23">
      <g>
       <use xlink:href="#mb5100fefc3" x="324.866112" y="120.09575" style="fill: #cccccc; stroke: #cccccc; stroke-width: 0.75"/>
      </g>
     </g>
     <g id="text_23">
      <!-- 18 -->
      <g style="fill: #808080" transform="translate(320.917675 134.527312) scale(0.07 -0.07)">
       <use xlink:href="#Ubuntu-31"/>
       <use xlink:href="#Ubuntu-38" x="56.399994"/>
      </g>
     </g>
    </g>
    <g id="xtick_24">
     <g id="line2d_24">
      <g>
       <use xlink:href="#mb5100fefc3" x="352.242818" y="120.09575" style="fill: #cccccc; stroke: #cccccc; stroke-width: 0.75"/>
      </g>
     </g>
     <g id="text_24">
      <!-- 06 -->
      <g style="fill: #808080" transform="translate(348.29438 134.527312) scale(0.07 -0.07)">
       <use xlink:href="#Ubuntu-30"/>
       <use xlink:href="#Ubuntu-36" x="56.399994"/>
      </g>
     </g>
    </g>
    <g id="xtick_25">
     <g id="line2d_25">
      <g>
       <use xlink:href="#mb5100fefc3" x="365.931171" y="120.09575" style="fill: #cccccc; stroke: #cccccc; stroke-width: 0.75"/>
      </g>
     </g>
     <g id="text_25">
      <!-- 12 -->
      <g style="fill: #808080" transform="translate(361.982733 134.527312) scale(0.07 -0.07)">
       <use xlink:href="#Ubuntu-31"/>
       <use xlink:href="#Ubuntu-32" x="56.399994"/>
      </g>
     </g>
    </g>
    <g id="xtick_26">
     <g id="line2d_26">
      <g>
       <use xlink:href="#mb5100fefc3" x="379.619523" y="120.09575" style="fill: #cccccc; stroke: #cccccc; stroke-width: 0.75"/>
      </g>
     </g>
     <g id="text_26">
      <!-- 18 -->
      <g style="fill: #808080" transform="translate(375.671086 134.527312) scale(0.07 -0.07)">
       <use xlink:href="#Ubuntu-31"/>
       <use xlink:href="#Ubuntu-38" x="56.399994"/>
      </g>
     </g>
    </g>
    <g id="xtick_27">
     <g id="line2d_27">
      <g>
       <use xlink:href="#mb5100fefc3" x="406.996229" y="120.09575" style="fill: #cccccc; stroke: #cccccc; stroke-width: 0.75"/>
      </g>
     </g>
     <g id="text_27">
      <!-- 06 -->
      <g style="fill: #808080" transform="translate(403.047792 134.527312) scale(0.07 -0.07)">
       <use xlink:href="#Ubuntu-30"/>
       <use xlink:href="#Ubuntu-36" x="56.399994"/>
      </g>
     </g>
    </g>
    <g id="xtick_28">
     <g id="line2d_28">
      <g>
       <use xlink:href="#mb5100fefc3" x="420.684582" y="120.09575" style="fill: #cccccc; stroke: #cccccc; stroke-width: 0.75"/>
      </g>
     </g>
     <g id="text_28">
      <!-- 12 -->
      <g style="fill: #808080" transform="translate(416.736144 134.527312) scale(0.07 -0.07)">
       <use xlink:href="#Ubuntu-31"/>
       <use xlink:href="#Ubuntu-32" x="56.399994"/>
      </g>
     </g>
    </g>
    <g id="xtick_29">
     <g id="line2d_29">
      <g>
       <use xlink:href="#mb5100fefc3" x="434.372935" y="120.09575" style="fill: #cccccc; stroke: #cccccc; stroke-width: 0.75"/>
      </g>
     </g>
     <g id="text_29">
      <!-- 18 -->
      <g style="fill: #808080" transform="translate(430.424497 134.527312) scale(0.07 -0.07)">
       <use xlink:href="#Ubuntu-31"/>
       <use xlink:href="#Ubuntu-38" x="56.399994"/>
      </g>
     </g>
    </g>
    <g id="xtick_30">
     <g id="line2d_30">
      <g>
       <use xlink:href="#mb5100fefc3" x="461.74964" y="120.09575" style="fill: #cccccc; stroke: #cccccc; stroke-width: 0.75"/>
      </g>
     </g>
     <g id="text_30">
      <!-- 06 -->
      <g style="fill: #808080" transform="translate(457.801203 134.527312) scale(0.07 -0.07)">
       <use xlink:href="#Ubuntu-30"/>
       <use xlink:href="#Ubuntu-36" x="56.399994"/>
      </g>
     </g>
    </g>
    <g id="xtick_31">
     <g id="line2d_31">
      <g>
       <use xlink:href="#mb5100fefc3" x="475.437993" y="120.09575" style="fill: #cccccc; stroke: #cccccc; stroke-width: 0.75"/>
      </g>
     </g>
     <g id="text_31">
      <!-- 12 -->
      <g style="fill: #808080" transform="translate(471.489556 134.527312) scale(0.07 -0.07)">
       <use xlink:href="#Ubuntu-31"/>
       <use xlink:href="#Ubuntu-32" x="56.399994"/>
      </g>
     </g>
    </g>
    <g id="xtick_32">
     <g id="line2d_32">
      <g>
       <use xlink:href="#mb5100fefc3" x="489.126346" y="120.09575" style="fill: #cccccc; stroke: #cccccc; stroke-width: 0.75"/>
      </g>
     </g>
     <g id="text_32">
      <!-- 18 -->
      <g style="fill: #808080" transform="translate(485.177909 134.527312) scale(0.07 -0.07)">
       <use xlink:href="#Ubuntu-31"/>
       <use xlink:href="#Ubuntu-38" x="56.399994"/>
      </g>
     </g>
    </g>
   </g>
   <g id="matplotlib.axis_4">
    <g id="ytick_1">
     <g id="line2d_33">
      <defs>
       <path id="maa8c8dd7d9" d="M 0 0 
L -3 0 
" style="stroke: #cccccc; stroke-width: 0.75"/>
      </defs>
      <g>
       <use xlink:href="#maa8c8dd7d9" x="55.410938" y="110.09575" style="fill: #cccccc; stroke: #cccccc; stroke-width: 0.75"/>
      </g>
     </g>
     <g id="text_33">
      <!-- 5000 -->
      <g style="fill: #808080" transform="translate(28.360938 113.1995) scale(0.08 -0.08)">
       <use xlink:href="#Ubuntu-35"/>
       <use xlink:href="#Ubuntu-30" x="56.399994"/>
       <use xlink:href="#Ubuntu-30" x="112.799988"/>
       <use xlink:href="#Ubuntu-30" x="169.199982"/>
      </g>
     </g>
    </g>
    <g id="ytick_2">
     <g id="line2d_34">
      <g>
       <use xlink:href="#maa8c8dd7d9" x="55.410938" y="76.83175" style="fill: #cccccc; stroke: #cccccc; stroke-width: 0.75"/>
      </g>
     </g>
     <g id="text_34">
      <!-- 15000 -->
      <g style="fill: #808080" transform="translate(23.848438 79.9355) scale(0.08 -0.08)">
       <use xlink:href="#Ubuntu-31"/>
       <use xlink:href="#Ubuntu-35" x="56.399994"/>
       <use xlink:href="#Ubuntu-30" x="112.799988"/>
       <use xlink:href="#Ubuntu-30" x="169.199982"/>
       <use xlink:href="#Ubuntu-30" x="225.599976"/>
      </g>
     </g>
    </g>
    <g id="ytick_3">
     <g id="line2d_35">
      <g>
       <use xlink:href="#maa8c8dd7d9" x="55.410938" y="43.56775" style="fill: #cccccc; stroke: #cccccc; stroke-width: 0.75"/>
      </g>
     </g>
     <g id="text_35">
      <!-- 25000 -->
      <g style="fill: #808080" transform="translate(23.848438 46.6715) scale(0.08 -0.08)">
       <use xlink:href="#Ubuntu-32"/>
       <use xlink:href="#Ubuntu-35" x="56.399994"/>
       <use xlink:href="#Ubuntu-30" x="112.799988"/>
       <use xlink:href="#Ubuntu-30" x="169.199982"/>
       <use xlink:href="#Ubuntu-30" x="225.599976"/>
      </g>
     </g>
    </g>
    <g id="ytick_4">
     <g id="line2d_36">
      <g>
       <use xlink:href="#maa8c8dd7d9" x="55.410938" y="10.30375" style="fill: #cccccc; stroke: #cccccc; stroke-width: 0.75"/>
      </g>
     </g>
     <g id="text_36">
      <!-- 35000 -->
      <g style="fill: #808080" transform="translate(23.848438 13.4075) scale(0.08 -0.08)">
       <use xlink:href="#Ubuntu-33"/>
       <use xlink:href="#Ubuntu-35" x="56.399994"/>
       <use xlink:href="#Ubuntu-30" x="112.799988"/>
       <use xlink:href="#Ubuntu-30" x="169.199982"/>
       <use xlink:href="#Ubuntu-30" x="225.599976"/>
      </g>
     </g>
    </g>
    <g id="text_37">
     <!-- Target2 -->
     <g style="fill: #505050" transform="translate(14.156719 43.551719) rotate(-90) scale(0.09 -0.09)">
      <defs>
       <path id="Ubuntu-Bold-54" d="M 3802 4435 
L 3802 3584 
L 2464 3584 
L 2464 0 
L 1466 0 
L 1466 3584 
L 128 3584 
L 128 4435 
L 3802 4435 
z
" transform="scale(0.015625)"/>
       <path id="Ubuntu-Bold-61" d="M 1734 666 
Q 1875 666 2003 672 
Q 2131 678 2208 691 
L 2208 1414 
Q 2150 1427 2035 1440 
Q 1920 1453 1824 1453 
Q 1690 1453 1571 1437 
Q 1453 1421 1363 1376 
Q 1274 1331 1222 1254 
Q 1171 1178 1171 1062 
Q 1171 838 1321 752 
Q 1472 666 1734 666 
z
M 1658 3456 
Q 2080 3456 2361 3360 
Q 2643 3264 2812 3085 
Q 2982 2906 3052 2650 
Q 3123 2394 3123 2080 
L 3123 96 
Q 2918 51 2553 -9 
Q 2189 -70 1670 -70 
Q 1344 -70 1078 -12 
Q 813 45 621 176 
Q 429 307 326 518 
Q 224 730 224 1037 
Q 224 1331 342 1536 
Q 461 1741 659 1862 
Q 858 1984 1114 2038 
Q 1370 2093 1645 2093 
Q 1830 2093 1974 2077 
Q 2118 2061 2208 2035 
L 2208 2125 
Q 2208 2368 2061 2515 
Q 1914 2662 1549 2662 
Q 1306 2662 1069 2627 
Q 832 2592 659 2528 
L 538 3296 
Q 621 3322 745 3350 
Q 870 3379 1017 3401 
Q 1165 3424 1328 3440 
Q 1491 3456 1658 3456 
z
" transform="scale(0.015625)"/>
       <path id="Ubuntu-Bold-72" d="M 2477 2522 
Q 2349 2554 2176 2589 
Q 2003 2624 1805 2624 
Q 1715 2624 1590 2608 
Q 1466 2592 1402 2573 
L 1402 0 
L 448 0 
L 448 3187 
Q 704 3277 1053 3357 
Q 1402 3437 1830 3437 
Q 1907 3437 2016 3427 
Q 2125 3418 2233 3402 
Q 2342 3386 2451 3363 
Q 2560 3341 2637 3309 
L 2477 2522 
z
" transform="scale(0.015625)"/>
       <path id="Ubuntu-Bold-67" d="M 1261 1792 
Q 1261 992 1907 992 
Q 2054 992 2182 1030 
Q 2310 1069 2400 1120 
L 2400 2643 
Q 2330 2656 2234 2665 
Q 2138 2675 2010 2675 
Q 1632 2675 1446 2425 
Q 1261 2176 1261 1792 
z
M 3354 422 
Q 3354 -403 2934 -803 
Q 2515 -1203 1638 -1203 
Q 1331 -1203 1024 -1148 
Q 717 -1094 454 -1005 
L 621 -205 
Q 845 -294 1091 -345 
Q 1338 -397 1651 -397 
Q 2061 -397 2230 -217 
Q 2400 -38 2400 243 
L 2400 365 
Q 2246 294 2083 259 
Q 1920 224 1728 224 
Q 1030 224 659 637 
Q 288 1050 288 1792 
Q 288 2163 403 2467 
Q 518 2771 739 2988 
Q 960 3206 1280 3324 
Q 1600 3443 2003 3443 
Q 2176 3443 2358 3427 
Q 2541 3411 2720 3385 
Q 2899 3360 3062 3325 
Q 3226 3290 3354 3251 
L 3354 422 
z
" transform="scale(0.015625)"/>
       <path id="Ubuntu-Bold-65" d="M 288 1658 
Q 288 2106 425 2442 
Q 563 2778 787 3002 
Q 1011 3226 1302 3341 
Q 1594 3456 1901 3456 
Q 2618 3456 3034 3017 
Q 3450 2579 3450 1728 
Q 3450 1645 3443 1545 
Q 3437 1446 3430 1370 
L 1267 1370 
Q 1299 1075 1542 902 
Q 1786 730 2195 730 
Q 2458 730 2710 778 
Q 2963 826 3123 896 
L 3251 122 
Q 3174 83 3046 44 
Q 2918 6 2761 -22 
Q 2605 -51 2425 -70 
Q 2246 -90 2067 -90 
Q 1613 -90 1277 44 
Q 941 179 720 412 
Q 499 646 393 966 
Q 288 1286 288 1658 
z
M 2528 2022 
Q 2522 2144 2486 2259 
Q 2451 2374 2377 2464 
Q 2304 2554 2192 2611 
Q 2080 2669 1914 2669 
Q 1754 2669 1638 2614 
Q 1523 2560 1446 2470 
Q 1370 2381 1328 2262 
Q 1286 2144 1267 2022 
L 2528 2022 
z
" transform="scale(0.015625)"/>
       <path id="Ubuntu-Bold-74" d="M 416 4205 
L 1370 4358 
L 1370 3366 
L 2515 3366 
L 2515 2573 
L 1370 2573 
L 1370 1389 
Q 1370 1088 1475 909 
Q 1581 730 1901 730 
Q 2054 730 2217 758 
Q 2381 787 2515 838 
L 2650 96 
Q 2477 26 2265 -25 
Q 2054 -77 1747 -77 
Q 1357 -77 1101 28 
Q 845 134 691 323 
Q 538 512 477 781 
Q 416 1050 416 1376 
L 416 4205 
z
" transform="scale(0.015625)"/>
       <path id="Ubuntu-Bold-32" d="M 3174 3270 
Q 3174 3027 3078 2803 
Q 2982 2579 2828 2371 
Q 2675 2163 2483 1971 
Q 2291 1779 2106 1606 
Q 2010 1517 1898 1405 
Q 1786 1293 1683 1177 
Q 1581 1062 1501 963 
Q 1421 864 1402 800 
L 3309 800 
L 3309 0 
L 352 0 
Q 339 70 339 179 
Q 339 288 339 333 
Q 339 640 438 896 
Q 538 1152 698 1373 
Q 858 1594 1059 1786 
Q 1261 1978 1459 2170 
Q 1613 2317 1747 2448 
Q 1882 2579 1984 2704 
Q 2086 2829 2144 2953 
Q 2202 3078 2202 3206 
Q 2202 3488 2042 3603 
Q 1882 3718 1645 3718 
Q 1472 3718 1321 3664 
Q 1171 3610 1046 3536 
Q 922 3462 832 3388 
Q 742 3315 698 3270 
L 224 3936 
Q 506 4198 880 4368 
Q 1254 4538 1683 4538 
Q 2074 4538 2355 4448 
Q 2637 4358 2819 4195 
Q 3002 4032 3088 3798 
Q 3174 3565 3174 3270 
z
" transform="scale(0.015625)"/>
      </defs>
      <use xlink:href="#Ubuntu-Bold-54"/>
      <use xlink:href="#Ubuntu-Bold-61" x="53.899994"/>
      <use xlink:href="#Ubuntu-Bold-72" x="109.199982"/>
      <use xlink:href="#Ubuntu-Bold-67" x="150.399979"/>
      <use xlink:href="#Ubuntu-Bold-65" x="209.799973"/>
      <use xlink:href="#Ubuntu-Bold-74" x="268.199966"/>
      <use xlink:href="#Ubuntu-Bold-32" x="312.59996"/>
     </g>
    </g>
   </g>
   <g id="line2d_37">
    <path d="M 64.787408 37.823659 
L 66.308336 42.404547 
L 67.0688 43.151431 
L 67.449032 42.603716 
L 67.829264 42.927366 
L 68.209496 42.753093 
L 68.96996 40.860987 
L 69.350192 40.475097 
L 69.730424 40.798747 
L 70.110656 40.724058 
L 70.87112 43.93566 
L 71.251352 47.209501 
L 72.011817 50.844336 
L 72.392049 55.138919 
L 72.772281 57.392019 
L 73.152513 58.425209 
L 73.532745 60.728101 
L 74.673441 65.221853 
L 76.194369 75.5413 
L 76.574601 77.445855 
L 76.954833 77.66992 
L 77.335065 78.665765 
L 78.095529 79.711403 
L 78.475761 79.748747 
L 78.855993 80.321358 
L 79.236225 79.885676 
L 79.616457 80.346254 
L 79.996689 80.010156 
L 80.376921 79.487338 
L 80.757153 78.653317 
L 81.137385 78.678213 
L 81.517617 77.856641 
L 81.897849 77.66992 
L 82.278081 77.308926 
L 82.658313 76.562042 
L 83.418777 74.433423 
L 83.799009 74.894001 
L 84.179241 73.972844 
L 84.939705 71.259166 
L 85.319937 70.225976 
L 85.700169 68.458351 
L 86.080401 67.574538 
L 86.460633 66.155458 
L 86.840865 65.545503 
L 87.601329 62.67 
L 87.981562 62.097389 
L 88.361794 60.242627 
L 88.742026 59.234333 
L 89.122258 57.279987 
L 89.50249 57.230195 
L 90.643186 54.006145 
L 91.40365 51.840182 
L 91.783882 51.52898 
L 92.164114 51.566324 
L 93.30481 52.836027 
L 93.685042 53.794528 
L 94.065274 54.155522 
L 94.445506 54.068386 
L 95.20597 52.076695 
L 95.586202 50.620271 
L 96.346666 49.823595 
L 96.726898 49.798699 
L 97.487362 48.591236 
L 97.867594 48.840198 
L 98.247826 48.914886 
L 98.628058 48.242691 
L 99.768754 49.848491 
L 100.148986 49.898283 
L 100.529218 50.209485 
L 100.90945 49.425257 
L 101.669914 50.408654 
L 102.050146 50.346414 
L 102.430378 50.732304 
L 102.81061 50.769648 
L 103.190842 50.607823 
L 103.571074 49.997868 
L 103.951306 50.470894 
L 104.331539 50.122349 
L 104.711771 50.296622 
L 105.092003 56.109869 
L 106.612931 51.329811 
L 106.993163 51.018609 
L 107.753627 47.79456 
L 108.894323 39.130706 
L 109.274555 37.699178 
L 109.654787 38.78216 
L 110.035019 41.508287 
L 110.415251 41.495838 
L 111.175715 38.159757 
L 111.555947 37.425321 
L 111.936179 37.661834 
L 112.316411 37.263496 
L 112.696643 38.07262 
L 113.076875 39.217842 
L 113.457107 39.977174 
L 113.837339 39.977174 
L 114.217571 41.520735 
L 114.597803 41.86928 
L 115.738499 41.695008 
L 116.118731 41.86928 
L 116.498963 42.466788 
L 116.879195 42.242722 
L 117.259427 43.313256 
L 117.639659 44.047692 
L 118.019891 44.358894 
L 118.400123 44.333998 
L 119.540819 46.375481 
L 119.921051 46.114071 
L 120.301283 46.649338 
L 120.681516 47.446014 
L 121.061748 47.782112 
L 121.44198 48.404515 
L 122.202444 48.05597 
L 122.582676 48.815302 
L 123.34314 48.541444 
L 123.723372 48.11821 
L 124.103604 46.997884 
L 124.483836 47.670079 
L 124.864068 49.163847 
L 125.624532 51.130642 
L 126.384996 55.387881 
L 126.765228 56.894097 
L 127.525692 63.690741 
L 127.905924 65.234301 
L 128.286156 67.711467 
L 129.04662 70.686554 
L 129.426852 72.342147 
L 131.328012 83.694784 
L 131.708244 84.665733 
L 132.84894 86.171949 
L 133.229172 86.308878 
L 133.609404 85.823403 
L 134.7501 85.387721 
L 135.130332 85.350377 
L 135.510564 84.615941 
L 135.890796 84.479012 
L 136.271028 84.678181 
L 136.65126 84.740422 
L 137.031493 82.711387 
L 137.411725 82.425081 
L 137.791957 82.512218 
L 138.552421 81.030898 
L 138.932653 79.960364 
L 139.693117 78.615973 
L 140.073349 77.470751 
L 140.833813 76.039223 
L 141.214045 75.765366 
L 141.594277 74.943793 
L 141.974509 73.238408 
L 143.495437 69.068306 
L 144.255901 67.960428 
L 145.016365 65.545503 
L 145.396597 63.840118 
L 145.776829 63.640949 
L 146.157061 62.782032 
L 146.537293 62.757136 
L 146.917525 62.0227 
L 148.058221 61.611914 
L 148.438453 61.226024 
L 148.818685 60.379555 
L 149.579149 59.806944 
L 149.959381 59.595327 
L 150.339613 61.238472 
L 150.719845 60.429348 
L 151.100077 60.255075 
L 151.480309 59.869185 
L 152.240773 59.670016 
L 153.001237 59.657568 
L 153.761702 58.960476 
L 154.141934 59.035164 
L 154.522166 58.213592 
L 155.28263 57.777909 
L 156.043094 58.039319 
L 156.423326 58.076663 
L 157.564022 58.512345 
L 157.944254 58.263384 
L 158.324486 59.06006 
L 158.704718 59.010268 
L 159.08495 58.051767 
L 159.465182 58.99782 
L 159.845414 58.039319 
L 160.225646 58.201144 
L 160.605878 57.777909 
L 161.746574 54.379587 
L 162.126806 53.0103 
L 162.507038 50.30907 
L 163.267502 43.848523 
L 163.647734 41.122396 
L 164.027966 40.288376 
L 164.408198 41.446046 
L 164.78843 44.047692 
L 165.168662 43.363048 
L 165.548894 41.943969 
L 166.68959 41.047708 
L 167.069822 40.313272 
L 167.450054 41.010364 
L 167.830286 41.284221 
L 168.210518 41.271773 
L 168.59075 41.533183 
L 168.970982 42.392099 
L 169.351214 41.48339 
L 169.731447 41.86928 
L 170.491911 40.724058 
L 170.872143 40.748954 
L 171.252375 41.072604 
L 171.632607 41.819488 
L 172.012839 41.856832 
L 173.913999 45.504116 
L 174.674463 47.483358 
L 175.054695 47.40867 
L 175.815159 49.960524 
L 176.195391 50.296622 
L 176.575623 50.483343 
L 176.955855 51.354707 
L 177.716319 51.429396 
L 178.096551 50.421102 
L 178.476783 49.935628 
L 178.857015 48.591236 
L 179.237247 48.815302 
L 179.997711 50.919025 
L 181.138407 56.68248 
L 181.518639 58.275832 
L 182.279103 64.611898 
L 182.659335 66.367075 
L 183.039567 68.769552 
L 183.419799 69.690709 
L 183.800031 71.209373 
L 184.180263 72.255011 
L 184.940727 78.142946 
L 185.320959 79.711403 
L 185.701191 82.748731 
L 186.461656 86.109709 
L 186.841888 87.118002 
L 187.22212 87.217587 
L 187.602352 87.864886 
L 187.982584 88.1014 
L 188.362816 87.989367 
L 188.743048 88.288121 
L 189.503512 88.026711 
L 189.883744 88.437497 
L 190.263976 87.914679 
L 190.644208 88.039159 
L 191.02444 87.018418 
L 191.404672 86.570287 
L 192.165136 86.283982 
L 192.9256 85.337929 
L 193.305832 85.337929 
L 193.686064 84.354532 
L 194.066296 83.831713 
L 194.446528 83.682336 
L 194.82676 82.748731 
L 195.206992 82.437529 
L 195.587224 81.802678 
L 195.967456 81.454132 
L 196.72792 79.66161 
L 197.108152 79.101447 
L 197.488384 78.852486 
L 197.868616 77.371166 
L 198.248848 76.63673 
L 199.009312 74.894001 
L 199.389544 74.284046 
L 199.769776 74.271598 
L 200.150008 73.99774 
L 200.53024 73.275752 
L 200.910472 71.209373 
L 201.290704 70.574522 
L 201.670936 69.603573 
L 202.811633 69.006066 
L 203.191865 69.055858 
L 203.572097 67.611882 
L 203.952329 67.30068 
L 204.332561 66.279939 
L 204.712793 66.678277 
L 205.093025 66.504004 
L 205.473257 65.719776 
L 205.853489 65.794464 
L 206.233721 65.458367 
L 206.613953 65.645088 
L 206.994185 63.391988 
L 207.374417 60.466692 
L 207.754649 60.454244 
L 208.134881 60.230179 
L 208.895345 58.362969 
L 209.275577 58.574586 
L 209.655809 58.151351 
L 210.036041 57.5165 
L 210.416273 57.914838 
L 210.796505 57.964631 
L 211.556969 58.811099 
L 212.317433 57.06837 
L 212.697665 57.45426 
L 213.077897 58.263384 
L 213.458129 56.520655 
L 213.838361 56.495759 
L 214.598825 54.87751 
L 214.979057 54.977095 
L 215.359289 54.143074 
L 215.739521 54.416932 
L 216.119753 53.197021 
L 216.499985 51.566324 
L 216.880217 50.993713 
L 217.640681 45.516564 
L 218.020913 41.0975 
L 218.401146 38.881745 
L 218.781378 37.524905 
L 219.16161 38.147309 
L 219.541842 40.761403 
L 220.302306 37.861003 
L 220.682538 37.375528 
L 221.06277 37.475113 
L 222.203466 35.408734 
L 222.96393 34.811227 
L 223.344162 35.284253 
L 223.724394 35.284253 
L 224.104626 35.570559 
L 224.484858 33.977206 
L 224.86509 33.616212 
L 225.245322 33.529076 
L 225.625554 33.765589 
L 226.005786 34.624506 
L 226.386018 34.997948 
L 226.76625 36.20541 
L 227.146482 36.516612 
L 227.526714 37.68673 
L 227.906946 38.309133 
L 228.66741 41.022812 
L 229.047642 41.03526 
L 229.427874 41.645215 
L 230.948802 45.192914 
L 232.089498 49.375465 
L 232.46973 50.035212 
L 233.610426 53.147229 
L 234.751123 56.856753 
L 235.511587 58.499897 
L 235.891819 59.296574 
L 236.272051 59.433502 
L 237.032515 62.844273 
L 237.412747 63.88991 
L 238.553443 67.997772 
L 238.933675 69.404404 
L 240.834835 82.835867 
L 241.215067 84.740422 
L 241.595299 85.537098 
L 241.975531 85.088967 
L 242.355763 85.661579 
L 242.735995 85.375273 
L 243.496459 83.819265 
L 243.876691 82.076535 
L 244.256923 81.653301 
L 244.637155 80.570319 
L 245.017387 80.035052 
L 245.397619 79.748747 
L 245.777851 79.649162 
L 246.158083 79.400201 
L 246.918547 77.433407 
L 247.298779 76.138808 
L 247.679011 75.653333 
L 248.059243 75.47906 
L 248.439475 75.105618 
L 248.819707 75.603541 
L 249.199939 75.230099 
L 249.580171 75.391924 
L 249.960403 74.856657 
L 250.340635 75.329683 
L 250.720867 75.167858 
L 251.861564 73.462473 
L 252.241796 73.263304 
L 252.622028 73.22596 
L 253.00226 73.001895 
L 253.382492 72.914758 
L 253.762724 72.678245 
L 254.142956 72.939655 
L 254.523188 72.118082 
L 254.90342 71.993601 
L 255.283652 72.367043 
L 255.663884 72.06829 
L 257.945276 68.682416 
L 258.325508 68.632624 
L 258.70574 67.823499 
L 259.085972 67.910636 
L 260.226668 67.400265 
L 260.987132 68.993617 
L 262.50806 71.184477 
L 262.888292 71.184477 
L 263.268524 72.317251 
L 263.648756 71.918913 
L 264.028988 72.566213 
L 264.40922 72.603557 
L 264.789452 72.329699 
L 265.169684 72.491524 
L 265.549916 72.84007 
L 265.930148 72.815174 
L 266.31038 72.616005 
L 266.690612 73.823467 
L 267.070844 73.599402 
L 267.451077 73.586954 
L 268.972005 74.221805 
L 269.352237 73.748779 
L 269.732469 73.711435 
L 270.112701 73.786123 
L 270.492933 74.25915 
L 271.253397 74.184461 
L 271.633629 74.495663 
L 272.013861 73.698987 
L 272.394093 73.624298 
L 273.154557 71.570367 
L 273.534789 69.030962 
L 274.675485 54.628549 
L 275.055717 52.94806 
L 275.435949 53.284157 
L 275.816181 53.309054 
L 276.196413 53.632703 
L 276.576645 53.508223 
L 276.956877 53.881665 
L 277.337109 53.732288 
L 277.717341 53.321502 
L 278.097573 53.558015 
L 278.858037 52.17628 
L 279.238269 52.68665 
L 279.618501 52.649306 
L 279.998733 52.412793 
L 280.378965 52.674202 
L 280.759197 52.188728 
L 281.139429 52.313208 
L 281.519661 52.051799 
L 281.899893 53.0103 
L 282.280125 53.45843 
L 282.660357 54.093282 
L 283.040589 56.209453 
L 283.420821 56.570447 
L 283.801054 57.167954 
L 284.181286 58.387865 
L 284.561518 59.022716 
L 285.702214 62.421038 
L 286.082446 63.230163 
L 287.223142 66.939686 
L 288.363838 69.541332 
L 288.74407 69.777846 
L 289.504534 71.42099 
L 289.884766 71.520575 
L 290.264998 72.080738 
L 290.64523 72.416836 
L 291.025462 71.620159 
L 292.54639 74.420974 
L 292.926622 75.665781 
L 293.306854 75.902294 
L 293.687086 76.860795 
L 294.067318 78.82759 
L 294.44755 81.715541 
L 294.827782 83.545407 
L 295.588246 88.947868 
L 295.968478 89.918817 
L 296.728942 90.690597 
L 297.109174 90.640805 
L 297.489406 90.976903 
L 298.24987 90.976903 
L 298.630102 91.12628 
L 299.010334 90.852422 
L 299.390566 90.852422 
L 299.770798 90.167779 
L 300.151031 89.794337 
L 300.531263 90.055746 
L 300.911495 89.371102 
L 301.291727 89.582719 
L 301.671959 88.238328 
L 302.052191 87.441652 
L 302.432423 85.997676 
L 302.812655 85.91054 
L 303.192887 84.653285 
L 303.573119 84.591045 
L 303.953351 83.39603 
L 304.333583 82.898108 
L 304.713815 81.85247 
L 305.094047 81.541269 
L 305.854511 78.76535 
L 306.614975 76.586938 
L 306.995207 76.213496 
L 309.276599 71.308958 
L 309.656831 71.333854 
L 310.037063 70.798587 
L 310.797527 69.479092 
L 311.177759 69.205235 
L 311.938223 67.860843 
L 313.078919 66.006081 
L 313.459151 66.354627 
L 313.839383 65.209405 
L 314.219615 64.462521 
L 314.599847 64.176216 
L 314.980079 63.628501 
L 315.360311 64.064183 
L 315.740543 64.250904 
L 316.120775 64.176216 
L 316.501008 63.902358 
L 316.88124 63.429332 
L 317.261472 64.226008 
L 317.641704 64.524762 
L 318.021936 65.221853 
L 318.402168 65.04758 
L 318.7824 65.259197 
L 319.542864 66.391972 
L 319.923096 66.255043 
L 320.303328 66.665829 
L 320.68356 66.653381 
L 321.063792 67.225992 
L 322.204488 68.246733 
L 322.58472 67.586986 
L 322.964952 68.296526 
L 323.345184 68.645072 
L 323.725416 68.483247 
L 324.105648 68.906481 
L 324.48588 69.155442 
L 324.866112 69.04341 
L 325.246344 68.682416 
L 326.006808 68.570383 
L 326.38704 68.308974 
L 327.147504 66.952135 
L 327.907968 65.122269 
L 328.2882 62.508175 
L 329.428896 47.73232 
L 329.809128 46.450169 
L 330.18936 45.802869 
L 330.949824 46.213656 
L 331.330056 45.914902 
L 332.09052 46.885851 
L 332.470752 46.96054 
L 332.850985 46.823611 
L 333.231217 46.512409 
L 333.611449 46.57465 
L 333.991681 46.288344 
L 334.371913 45.529012 
L 335.512609 45.267603 
L 336.273073 46.773819 
L 337.033537 47.744768 
L 337.413769 48.641029 
L 338.174233 51.267571 
L 338.554465 52.450137 
L 338.934697 53.084988 
L 339.695161 55.885803 
L 340.075393 56.918993 
L 340.835857 60.889926 
L 341.216089 62.520623 
L 341.596321 63.528916 
L 341.976553 64.051735 
L 342.737017 65.75712 
L 343.117249 66.180354 
L 343.497481 67.151304 
L 343.877713 67.611882 
L 344.257945 68.582831 
L 345.018409 69.616021 
L 345.398641 69.939671 
L 345.778873 69.4293 
L 346.159105 69.703157 
L 346.539337 71.010204 
L 347.299801 72.018498 
L 348.440497 74.669936 
L 348.820729 76.288184 
L 350.341658 84.802662 
L 350.72189 85.611786 
L 351.102122 85.698923 
L 351.482354 85.337929 
L 352.242818 85.362825 
L 352.62305 84.329635 
L 353.003282 84.454116 
L 353.383514 83.520511 
L 353.763746 83.470719 
L 354.52421 81.976951 
L 354.904442 80.607664 
L 355.284674 80.184429 
L 356.045138 78.566181 
L 356.42537 76.835899 
L 356.805602 76.163704 
L 357.185834 74.607695 
L 357.566066 73.773675 
L 357.946298 71.533023 
L 358.706762 69.503988 
L 359.086994 69.093202 
L 359.847458 66.616037 
L 360.22769 65.557951 
L 360.607922 65.122269 
L 361.748618 62.221869 
L 362.12885 61.31316 
L 363.269546 59.508191 
L 363.649778 58.425209 
L 364.03001 57.964631 
L 364.410242 56.707376 
L 364.790474 56.520655 
L 365.170706 56.470863 
L 365.550939 55.761323 
L 365.931171 55.499913 
L 366.691635 54.479172 
L 367.071867 54.205314 
L 367.452099 53.433534 
L 368.212563 52.997852 
L 368.973027 51.616117 
L 369.353259 52.014455 
L 369.733491 51.877526 
L 370.493955 51.964662 
L 370.874187 52.885819 
L 371.254419 52.051799 
L 371.634651 52.002007 
L 372.014883 52.101591 
L 372.395115 51.641013 
L 372.775347 53.022748 
L 373.155579 53.732288 
L 373.535811 53.495775 
L 374.676507 54.504068 
L 375.056739 54.192866 
L 375.436971 54.81527 
L 375.817203 54.81527 
L 376.577667 55.462569 
L 376.957899 56.458414 
L 377.338131 57.031026 
L 378.098595 57.566292 
L 378.478827 58.28828 
L 378.859059 58.338072 
L 379.239291 58.051767 
L 379.619523 58.375417 
L 379.999755 58.475001 
L 380.379987 58.325624 
L 380.760219 57.367123 
L 381.140451 57.205298 
L 381.520684 56.707376 
L 381.900916 56.483311 
L 382.281148 56.122317 
L 382.66138 54.802822 
L 383.041612 51.192882 
L 383.802076 41.134845 
L 384.942772 35.682591 
L 385.323004 36.068481 
L 385.703236 36.155618 
L 386.083468 35.981345 
L 386.4637 36.653541 
L 386.843932 36.541508 
L 387.224164 36.155618 
L 387.604396 36.304995 
L 387.984628 36.877606 
L 388.36486 37.68673 
L 388.745092 37.636938 
L 389.125324 38.296685 
L 389.505556 39.180498 
L 390.26602 39.890038 
L 391.406716 43.22612 
L 392.16718 45.690837 
L 392.547412 47.483358 
L 392.927644 48.616133 
L 393.688108 51.616117 
L 394.06834 52.201176 
L 396.349732 60.578724 
L 396.729964 61.275816 
L 397.110196 62.234317 
L 397.490428 63.528916 
L 397.870661 64.113975 
L 398.631125 64.935548 
L 399.391589 66.46666 
L 399.771821 67.574538 
L 400.152053 67.201096 
L 400.532285 66.304835 
L 400.912517 66.678277 
L 401.292749 68.433454 
L 402.433445 70.362905 
L 402.813677 71.022652 
L 403.193909 72.155426 
L 404.334605 78.11805 
L 404.714837 81.441684 
L 405.095069 83.570303 
L 405.475301 83.570303 
L 406.235765 84.703077 
L 406.996229 83.956193 
L 407.756693 82.375289 
L 408.136925 82.11388 
L 408.897389 81.230067 
L 409.657853 79.263272 
L 410.038085 79.21348 
L 410.418317 78.354563 
L 411.178781 75.09317 
L 412.319477 72.379492 
L 413.079941 69.603573 
L 413.840405 68.035116 
L 414.981102 64.437625 
L 415.361334 63.379539 
L 416.121798 62.557967 
L 416.50203 61.873323 
L 417.642726 57.90239 
L 418.022958 57.827702 
L 418.40319 56.782064 
L 419.163654 55.58705 
L 419.543886 55.425225 
L 419.924118 62.582863 
L 420.30435 61.661706 
L 420.684582 61.499881 
L 421.445046 60.279971 
L 422.20551 60.379555 
L 422.585742 60.130594 
L 422.965974 60.578724 
L 423.346206 60.143042 
L 423.726438 60.03101 
L 424.10667 60.317315 
L 424.486902 60.118146 
L 425.247366 60.15549 
L 426.00783 59.259229 
L 426.388062 59.844289 
L 426.768294 59.968769 
L 427.148526 60.889926 
L 427.528758 60.354659 
L 427.90899 61.400297 
L 428.669454 61.126439 
L 429.049686 61.811083 
L 429.81015 62.632655 
L 430.190382 63.342195 
L 430.950847 63.678293 
L 431.331079 64.300696 
L 431.711311 64.051735 
L 432.091543 64.649242 
L 432.471775 64.885755 
L 433.232239 64.2758 
L 433.612471 64.885755 
L 433.992703 64.101527 
L 434.372935 58.325624 
L 435.133399 57.45426 
L 435.513631 57.267539 
L 436.274095 55.64929 
L 436.654327 54.977095 
L 437.414791 51.404499 
L 437.795023 48.168002 
L 438.175255 41.695008 
L 438.555487 37.861003 
L 439.315951 34.226168 
L 439.696183 34.163927 
L 440.456647 33.553972 
L 440.836879 34.450233 
L 441.217111 34.711642 
L 441.597343 33.392147 
L 441.977575 34.59961 
L 442.357807 35.060188 
L 442.738039 35.147325 
L 443.498503 34.973052 
L 443.878735 35.620351 
L 444.258967 36.85271 
L 444.639199 36.641093 
L 445.779895 39.4917 
L 446.160127 40.375512 
L 446.540359 42.317411 
L 446.920592 43.400393 
L 447.300824 45.952246 
L 447.681056 47.73232 
L 449.201984 52.089143 
L 450.722912 57.889942 
L 451.483376 59.196989 
L 451.863608 60.889926 
L 452.24384 61.611914 
L 452.624072 61.63681 
L 453.384536 63.678293 
L 453.764768 64.288248 
L 454.145 65.856705 
L 454.525232 66.08077 
L 455.285696 67.163752 
L 455.665928 67.275784 
L 456.426392 68.732208 
L 456.806624 69.690709 
L 457.186856 70.275768 
L 457.567088 70.362905 
L 457.94732 70.636762 
L 458.327552 72.541316 
L 459.088016 77.458303 
L 459.84848 81.79023 
L 460.228712 82.026743 
L 460.608944 82.537114 
L 460.989176 83.420927 
L 461.74964 82.723835 
L 462.129872 81.877366 
L 462.510104 81.391892 
L 462.890336 79.848331 
L 463.270569 80.010156 
L 464.031033 78.491492 
L 464.411265 77.707264 
L 464.791497 76.337977 
L 465.171729 75.454164 
L 465.551961 74.943793 
L 465.932193 73.898156 
L 466.312425 72.155426 
L 466.692657 71.246717 
L 467.453121 68.533039 
L 467.833353 68.383662 
L 468.593817 66.541348 
L 468.974049 65.159613 
L 469.354281 63.242611 
L 469.734513 62.28411 
L 470.114745 61.948012 
L 470.494977 60.167938 
L 470.875209 59.284126 
L 471.255441 57.504052 
L 471.635673 56.943889 
L 472.015905 55.450121 
L 472.396137 55.213608 
L 472.776369 54.802822 
L 473.156601 53.39619 
L 473.536833 53.122333 
L 473.917065 52.23852 
L 475.057761 50.919025 
L 475.818225 51.827734 
L 476.198457 52.064247 
L 476.578689 51.802838 
L 476.958921 52.736443 
L 477.339153 52.425241 
L 477.719385 52.313208 
L 478.479849 50.346414 
L 479.240313 50.719856 
L 479.620546 50.545583 
L 480.000778 51.043506 
L 480.38101 50.558031 
L 480.761242 50.558031 
L 481.521706 50.172141 
L 481.901938 50.607823 
L 482.28217 50.346414 
L 482.662402 51.504084 
L 483.042634 51.192882 
L 483.422866 52.076695 
L 484.563562 52.636858 
L 484.943794 53.284157 
L 485.324026 52.985404 
L 485.704258 53.533119 
L 486.08449 53.694944 
L 486.464722 54.840166 
L 486.844954 55.20116 
L 487.225186 54.765477 
L 487.605418 55.885803 
L 488.365882 57.018577 
L 488.746114 56.445966 
L 489.126346 56.309038 
L 489.506578 56.794512 
L 489.88681 56.981233 
L 490.647274 55.58705 
L 491.027506 55.437673 
L 491.407738 54.205314 
L 491.78797 53.993697 
L 492.168202 52.823579 
L 492.548434 48.354723 
L 493.308898 37.30084 
L 493.68913 35.010396 
L 494.069362 34.475129 
L 494.449594 33.230322 
L 494.829826 33.753141 
L 495.210058 34.711642 
L 495.970523 34.325752 
L 496.350755 34.736538 
L 496.730987 34.562265 
L 497.111219 35.421182 
L 497.491451 35.259357 
L 497.871683 35.607903 
L 498.251915 36.616196 
L 499.392611 38.184653 
L 499.772843 38.383822 
L 500.153075 40.002071 
L 500.533307 40.798747 
L 500.913539 42.429443 
L 501.293771 43.263464 
L 502.434467 46.811163 
L 502.434467 46.811163 
" clip-path="url(#pd5c51daaf7)" style="fill: none; stroke: #5b5b5b; stroke-width: 1.2; stroke-linecap: square"/>
   </g>
   <g id="patch_4">
    <path d="M 55.410938 110.09575 
L 55.410938 10.30375 
" style="fill: none; stroke: #cccccc; stroke-width: 0.75; stroke-linejoin: miter; stroke-linecap: square"/>
   </g>
   <g id="patch_5">
    <path d="M 78.475761 120.09575 
L 489.126346 120.09575 
" style="fill: none; stroke: #cccccc; stroke-width: 0.75; stroke-linejoin: miter; stroke-linecap: square"/>
   </g>
  </g>
  <g id="axes_3">
   <g id="patch_6">
    <path d="M 60.410938 259.78375 
L 506.810937 259.78375 
L 506.810937 159.99175 
L 60.410938 159.99175 
L 60.410938 259.78375 
z
" style="fill: none"/>
   </g>
   <g id="axes_4">
    <g id="patch_7">
     <path d="M 60.410938 259.78375 
L 506.810937 259.78375 
L 506.810937 259.78375 
L 60.410938 259.78375 
L 60.410938 259.78375 
z
" style="fill: none"/>
    </g>
    <g id="matplotlib.axis_5">
     <g id="xtick_33">
      <g id="line2d_38">
       <path d="M 92.164114 259.78375 
L 92.164114 259.78375 
" clip-path="url(#p16186d6e5c)" style="fill: none; stroke-dasharray: 0.5,0.825; stroke-dashoffset: 0; stroke: #d9d9d9; stroke-width: 0.5"/>
      </g>
      <g id="text_38">
       <!-- 06-23 -->
       <g style="fill: #808080" transform="translate(81.942864 297.99125) scale(0.08 -0.08)">
        <use xlink:href="#Ubuntu-30"/>
        <use xlink:href="#Ubuntu-36" x="56.399994"/>
        <use xlink:href="#Ubuntu-2d" x="112.799988"/>
        <use xlink:href="#Ubuntu-32" x="142.699982"/>
        <use xlink:href="#Ubuntu-33" x="199.099976"/>
       </g>
      </g>
     </g>
     <g id="xtick_34">
      <g id="line2d_39">
       <path d="M 146.917525 259.78375 
L 146.917525 259.78375 
" clip-path="url(#p16186d6e5c)" style="fill: none; stroke-dasharray: 0.5,0.825; stroke-dashoffset: 0; stroke: #d9d9d9; stroke-width: 0.5"/>
      </g>
      <g id="text_39">
       <!-- 06-24 -->
       <g style="fill: #808080" transform="translate(136.696275 297.99125) scale(0.08 -0.08)">
        <use xlink:href="#Ubuntu-30"/>
        <use xlink:href="#Ubuntu-36" x="56.399994"/>
        <use xlink:href="#Ubuntu-2d" x="112.799988"/>
        <use xlink:href="#Ubuntu-32" x="142.699982"/>
        <use xlink:href="#Ubuntu-34" x="199.099976"/>
       </g>
      </g>
     </g>
     <g id="xtick_35">
      <g id="line2d_40">
       <path d="M 201.670936 259.78375 
L 201.670936 259.78375 
" clip-path="url(#p16186d6e5c)" style="fill: none; stroke-dasharray: 0.5,0.825; stroke-dashoffset: 0; stroke: #d9d9d9; stroke-width: 0.5"/>
      </g>
      <g id="text_40">
       <!-- 06-25 -->
       <g style="fill: #808080" transform="translate(191.449686 297.99125) scale(0.08 -0.08)">
        <use xlink:href="#Ubuntu-30"/>
        <use xlink:href="#Ubuntu-36" x="56.399994"/>
        <use xlink:href="#Ubuntu-2d" x="112.799988"/>
        <use xlink:href="#Ubuntu-32" x="142.699982"/>
        <use xlink:href="#Ubuntu-35" x="199.099976"/>
       </g>
      </g>
     </g>
     <g id="xtick_36">
      <g id="line2d_41">
       <path d="M 256.424348 259.78375 
L 256.424348 259.78375 
" clip-path="url(#p16186d6e5c)" style="fill: none; stroke-dasharray: 0.5,0.825; stroke-dashoffset: 0; stroke: #d9d9d9; stroke-width: 0.5"/>
      </g>
      <g id="text_41">
       <!-- 06-26 -->
       <g style="fill: #808080" transform="translate(246.203098 297.99125) scale(0.08 -0.08)">
        <use xlink:href="#Ubuntu-30"/>
        <use xlink:href="#Ubuntu-36" x="56.399994"/>
        <use xlink:href="#Ubuntu-2d" x="112.799988"/>
        <use xlink:href="#Ubuntu-32" x="142.699982"/>
        <use xlink:href="#Ubuntu-36" x="199.099976"/>
       </g>
      </g>
     </g>
     <g id="xtick_37">
      <g id="line2d_42">
       <path d="M 311.177759 259.78375 
L 311.177759 259.78375 
" clip-path="url(#p16186d6e5c)" style="fill: none; stroke-dasharray: 0.5,0.825; stroke-dashoffset: 0; stroke: #d9d9d9; stroke-width: 0.5"/>
      </g>
      <g id="text_42">
       <!-- 06-27 -->
       <g style="fill: #808080" transform="translate(300.956509 297.99125) scale(0.08 -0.08)">
        <use xlink:href="#Ubuntu-30"/>
        <use xlink:href="#Ubuntu-36" x="56.399994"/>
        <use xlink:href="#Ubuntu-2d" x="112.799988"/>
        <use xlink:href="#Ubuntu-32" x="142.699982"/>
        <use xlink:href="#Ubuntu-37" x="199.099976"/>
       </g>
      </g>
     </g>
     <g id="xtick_38">
      <g id="line2d_43">
       <path d="M 365.931171 259.78375 
L 365.931171 259.78375 
" clip-path="url(#p16186d6e5c)" style="fill: none; stroke-dasharray: 0.5,0.825; stroke-dashoffset: 0; stroke: #d9d9d9; stroke-width: 0.5"/>
      </g>
      <g id="text_43">
       <!-- 06-28 -->
       <g style="fill: #808080" transform="translate(355.709921 297.99125) scale(0.08 -0.08)">
        <use xlink:href="#Ubuntu-30"/>
        <use xlink:href="#Ubuntu-36" x="56.399994"/>
        <use xlink:href="#Ubuntu-2d" x="112.799988"/>
        <use xlink:href="#Ubuntu-32" x="142.699982"/>
        <use xlink:href="#Ubuntu-38" x="199.099976"/>
       </g>
      </g>
     </g>
     <g id="xtick_39">
      <g id="line2d_44">
       <path d="M 420.684582 259.78375 
L 420.684582 259.78375 
" clip-path="url(#p16186d6e5c)" style="fill: none; stroke-dasharray: 0.5,0.825; stroke-dashoffset: 0; stroke: #d9d9d9; stroke-width: 0.5"/>
      </g>
      <g id="text_44">
       <!-- 06-29 -->
       <g style="fill: #808080" transform="translate(410.463332 297.99125) scale(0.08 -0.08)">
        <use xlink:href="#Ubuntu-30"/>
        <use xlink:href="#Ubuntu-36" x="56.399994"/>
        <use xlink:href="#Ubuntu-2d" x="112.799988"/>
        <use xlink:href="#Ubuntu-32" x="142.699982"/>
        <use xlink:href="#Ubuntu-39" x="199.099976"/>
       </g>
      </g>
     </g>
     <g id="xtick_40">
      <g id="line2d_45">
       <path d="M 475.437993 259.78375 
L 475.437993 259.78375 
" clip-path="url(#p16186d6e5c)" style="fill: none; stroke-dasharray: 0.5,0.825; stroke-dashoffset: 0; stroke: #d9d9d9; stroke-width: 0.5"/>
      </g>
      <g id="text_45">
       <!-- 06-30 -->
       <g style="fill: #808080" transform="translate(465.216743 297.99125) scale(0.08 -0.08)">
        <use xlink:href="#Ubuntu-30"/>
        <use xlink:href="#Ubuntu-36" x="56.399994"/>
        <use xlink:href="#Ubuntu-2d" x="112.799988"/>
        <use xlink:href="#Ubuntu-33" x="142.699982"/>
        <use xlink:href="#Ubuntu-30" x="199.099976"/>
       </g>
      </g>
     </g>
    </g>
    <g id="matplotlib.axis_6"/>
   </g>
   <g id="matplotlib.axis_7">
    <g id="xtick_41">
     <g id="line2d_46">
      <g>
       <use xlink:href="#mb5100fefc3" x="78.475761" y="269.78375" style="fill: #cccccc; stroke: #cccccc; stroke-width: 0.75"/>
      </g>
     </g>
     <g id="text_46">
      <!-- 06 -->
      <g style="fill: #808080" transform="translate(74.527323 284.215312) scale(0.07 -0.07)">
       <use xlink:href="#Ubuntu-30"/>
       <use xlink:href="#Ubuntu-36" x="56.399994"/>
      </g>
     </g>
    </g>
    <g id="xtick_42">
     <g id="line2d_47">
      <g>
       <use xlink:href="#mb5100fefc3" x="92.164114" y="269.78375" style="fill: #cccccc; stroke: #cccccc; stroke-width: 0.75"/>
      </g>
     </g>
     <g id="text_47">
      <!-- 12 -->
      <g style="fill: #808080" transform="translate(88.215676 284.215312) scale(0.07 -0.07)">
       <use xlink:href="#Ubuntu-31"/>
       <use xlink:href="#Ubuntu-32" x="56.399994"/>
      </g>
     </g>
    </g>
    <g id="xtick_43">
     <g id="line2d_48">
      <g>
       <use xlink:href="#mb5100fefc3" x="105.852467" y="269.78375" style="fill: #cccccc; stroke: #cccccc; stroke-width: 0.75"/>
      </g>
     </g>
     <g id="text_48">
      <!-- 18 -->
      <g style="fill: #808080" transform="translate(101.904029 284.215312) scale(0.07 -0.07)">
       <use xlink:href="#Ubuntu-31"/>
       <use xlink:href="#Ubuntu-38" x="56.399994"/>
      </g>
     </g>
    </g>
    <g id="xtick_44">
     <g id="line2d_49">
      <g>
       <use xlink:href="#mb5100fefc3" x="133.229172" y="269.78375" style="fill: #cccccc; stroke: #cccccc; stroke-width: 0.75"/>
      </g>
     </g>
     <g id="text_49">
      <!-- 06 -->
      <g style="fill: #808080" transform="translate(129.280735 284.215312) scale(0.07 -0.07)">
       <use xlink:href="#Ubuntu-30"/>
       <use xlink:href="#Ubuntu-36" x="56.399994"/>
      </g>
     </g>
    </g>
    <g id="xtick_45">
     <g id="line2d_50">
      <g>
       <use xlink:href="#mb5100fefc3" x="146.917525" y="269.78375" style="fill: #cccccc; stroke: #cccccc; stroke-width: 0.75"/>
      </g>
     </g>
     <g id="text_50">
      <!-- 12 -->
      <g style="fill: #808080" transform="translate(142.969088 284.215312) scale(0.07 -0.07)">
       <use xlink:href="#Ubuntu-31"/>
       <use xlink:href="#Ubuntu-32" x="56.399994"/>
      </g>
     </g>
    </g>
    <g id="xtick_46">
     <g id="line2d_51">
      <g>
       <use xlink:href="#mb5100fefc3" x="160.605878" y="269.78375" style="fill: #cccccc; stroke: #cccccc; stroke-width: 0.75"/>
      </g>
     </g>
     <g id="text_51">
      <!-- 18 -->
      <g style="fill: #808080" transform="translate(156.65744 284.215312) scale(0.07 -0.07)">
       <use xlink:href="#Ubuntu-31"/>
       <use xlink:href="#Ubuntu-38" x="56.399994"/>
      </g>
     </g>
    </g>
    <g id="xtick_47">
     <g id="line2d_52">
      <g>
       <use xlink:href="#mb5100fefc3" x="187.982584" y="269.78375" style="fill: #cccccc; stroke: #cccccc; stroke-width: 0.75"/>
      </g>
     </g>
     <g id="text_52">
      <!-- 06 -->
      <g style="fill: #808080" transform="translate(184.034146 284.215312) scale(0.07 -0.07)">
       <use xlink:href="#Ubuntu-30"/>
       <use xlink:href="#Ubuntu-36" x="56.399994"/>
      </g>
     </g>
    </g>
    <g id="xtick_48">
     <g id="line2d_53">
      <g>
       <use xlink:href="#mb5100fefc3" x="201.670936" y="269.78375" style="fill: #cccccc; stroke: #cccccc; stroke-width: 0.75"/>
      </g>
     </g>
     <g id="text_53">
      <!-- 12 -->
      <g style="fill: #808080" transform="translate(197.722499 284.215312) scale(0.07 -0.07)">
       <use xlink:href="#Ubuntu-31"/>
       <use xlink:href="#Ubuntu-32" x="56.399994"/>
      </g>
     </g>
    </g>
    <g id="xtick_49">
     <g id="line2d_54">
      <g>
       <use xlink:href="#mb5100fefc3" x="215.359289" y="269.78375" style="fill: #cccccc; stroke: #cccccc; stroke-width: 0.75"/>
      </g>
     </g>
     <g id="text_54">
      <!-- 18 -->
      <g style="fill: #808080" transform="translate(211.410852 284.215312) scale(0.07 -0.07)">
       <use xlink:href="#Ubuntu-31"/>
       <use xlink:href="#Ubuntu-38" x="56.399994"/>
      </g>
     </g>
    </g>
    <g id="xtick_50">
     <g id="line2d_55">
      <g>
       <use xlink:href="#mb5100fefc3" x="242.735995" y="269.78375" style="fill: #cccccc; stroke: #cccccc; stroke-width: 0.75"/>
      </g>
     </g>
     <g id="text_55">
      <!-- 06 -->
      <g style="fill: #808080" transform="translate(238.787557 284.215312) scale(0.07 -0.07)">
       <use xlink:href="#Ubuntu-30"/>
       <use xlink:href="#Ubuntu-36" x="56.399994"/>
      </g>
     </g>
    </g>
    <g id="xtick_51">
     <g id="line2d_56">
      <g>
       <use xlink:href="#mb5100fefc3" x="256.424348" y="269.78375" style="fill: #cccccc; stroke: #cccccc; stroke-width: 0.75"/>
      </g>
     </g>
     <g id="text_56">
      <!-- 12 -->
      <g style="fill: #808080" transform="translate(252.47591 284.215312) scale(0.07 -0.07)">
       <use xlink:href="#Ubuntu-31"/>
       <use xlink:href="#Ubuntu-32" x="56.399994"/>
      </g>
     </g>
    </g>
    <g id="xtick_52">
     <g id="line2d_57">
      <g>
       <use xlink:href="#mb5100fefc3" x="270.112701" y="269.78375" style="fill: #cccccc; stroke: #cccccc; stroke-width: 0.75"/>
      </g>
     </g>
     <g id="text_57">
      <!-- 18 -->
      <g style="fill: #808080" transform="translate(266.164263 284.215312) scale(0.07 -0.07)">
       <use xlink:href="#Ubuntu-31"/>
       <use xlink:href="#Ubuntu-38" x="56.399994"/>
      </g>
     </g>
    </g>
    <g id="xtick_53">
     <g id="line2d_58">
      <g>
       <use xlink:href="#mb5100fefc3" x="297.489406" y="269.78375" style="fill: #cccccc; stroke: #cccccc; stroke-width: 0.75"/>
      </g>
     </g>
     <g id="text_58">
      <!-- 06 -->
      <g style="fill: #808080" transform="translate(293.540969 284.215312) scale(0.07 -0.07)">
       <use xlink:href="#Ubuntu-30"/>
       <use xlink:href="#Ubuntu-36" x="56.399994"/>
      </g>
     </g>
    </g>
    <g id="xtick_54">
     <g id="line2d_59">
      <g>
       <use xlink:href="#mb5100fefc3" x="311.177759" y="269.78375" style="fill: #cccccc; stroke: #cccccc; stroke-width: 0.75"/>
      </g>
     </g>
     <g id="text_59">
      <!-- 12 -->
      <g style="fill: #808080" transform="translate(307.229322 284.215312) scale(0.07 -0.07)">
       <use xlink:href="#Ubuntu-31"/>
       <use xlink:href="#Ubuntu-32" x="56.399994"/>
      </g>
     </g>
    </g>
    <g id="xtick_55">
     <g id="line2d_60">
      <g>
       <use xlink:href="#mb5100fefc3" x="324.866112" y="269.78375" style="fill: #cccccc; stroke: #cccccc; stroke-width: 0.75"/>
      </g>
     </g>
     <g id="text_60">
      <!-- 18 -->
      <g style="fill: #808080" transform="translate(320.917675 284.215312) scale(0.07 -0.07)">
       <use xlink:href="#Ubuntu-31"/>
       <use xlink:href="#Ubuntu-38" x="56.399994"/>
      </g>
     </g>
    </g>
    <g id="xtick_56">
     <g id="line2d_61">
      <g>
       <use xlink:href="#mb5100fefc3" x="352.242818" y="269.78375" style="fill: #cccccc; stroke: #cccccc; stroke-width: 0.75"/>
      </g>
     </g>
     <g id="text_61">
      <!-- 06 -->
      <g style="fill: #808080" transform="translate(348.29438 284.215312) scale(0.07 -0.07)">
       <use xlink:href="#Ubuntu-30"/>
       <use xlink:href="#Ubuntu-36" x="56.399994"/>
      </g>
     </g>
    </g>
    <g id="xtick_57">
     <g id="line2d_62">
      <g>
       <use xlink:href="#mb5100fefc3" x="365.931171" y="269.78375" style="fill: #cccccc; stroke: #cccccc; stroke-width: 0.75"/>
      </g>
     </g>
     <g id="text_62">
      <!-- 12 -->
      <g style="fill: #808080" transform="translate(361.982733 284.215312) scale(0.07 -0.07)">
       <use xlink:href="#Ubuntu-31"/>
       <use xlink:href="#Ubuntu-32" x="56.399994"/>
      </g>
     </g>
    </g>
    <g id="xtick_58">
     <g id="line2d_63">
      <g>
       <use xlink:href="#mb5100fefc3" x="379.619523" y="269.78375" style="fill: #cccccc; stroke: #cccccc; stroke-width: 0.75"/>
      </g>
     </g>
     <g id="text_63">
      <!-- 18 -->
      <g style="fill: #808080" transform="translate(375.671086 284.215312) scale(0.07 -0.07)">
       <use xlink:href="#Ubuntu-31"/>
       <use xlink:href="#Ubuntu-38" x="56.399994"/>
      </g>
     </g>
    </g>
    <g id="xtick_59">
     <g id="line2d_64">
      <g>
       <use xlink:href="#mb5100fefc3" x="406.996229" y="269.78375" style="fill: #cccccc; stroke: #cccccc; stroke-width: 0.75"/>
      </g>
     </g>
     <g id="text_64">
      <!-- 06 -->
      <g style="fill: #808080" transform="translate(403.047792 284.215312) scale(0.07 -0.07)">
       <use xlink:href="#Ubuntu-30"/>
       <use xlink:href="#Ubuntu-36" x="56.399994"/>
      </g>
     </g>
    </g>
    <g id="xtick_60">
     <g id="line2d_65">
      <g>
       <use xlink:href="#mb5100fefc3" x="420.684582" y="269.78375" style="fill: #cccccc; stroke: #cccccc; stroke-width: 0.75"/>
      </g>
     </g>
     <g id="text_65">
      <!-- 12 -->
      <g style="fill: #808080" transform="translate(416.736144 284.215312) scale(0.07 -0.07)">
       <use xlink:href="#Ubuntu-31"/>
       <use xlink:href="#Ubuntu-32" x="56.399994"/>
      </g>
     </g>
    </g>
    <g id="xtick_61">
     <g id="line2d_66">
      <g>
       <use xlink:href="#mb5100fefc3" x="434.372935" y="269.78375" style="fill: #cccccc; stroke: #cccccc; stroke-width: 0.75"/>
      </g>
     </g>
     <g id="text_66">
      <!-- 18 -->
      <g style="fill: #808080" transform="translate(430.424497 284.215312) scale(0.07 -0.07)">
       <use xlink:href="#Ubuntu-31"/>
       <use xlink:href="#Ubuntu-38" x="56.399994"/>
      </g>
     </g>
    </g>
    <g id="xtick_62">
     <g id="line2d_67">
      <g>
       <use xlink:href="#mb5100fefc3" x="461.74964" y="269.78375" style="fill: #cccccc; stroke: #cccccc; stroke-width: 0.75"/>
      </g>
     </g>
     <g id="text_67">
      <!-- 06 -->
      <g style="fill: #808080" transform="translate(457.801203 284.215312) scale(0.07 -0.07)">
       <use xlink:href="#Ubuntu-30"/>
       <use xlink:href="#Ubuntu-36" x="56.399994"/>
      </g>
     </g>
    </g>
    <g id="xtick_63">
     <g id="line2d_68">
      <g>
       <use xlink:href="#mb5100fefc3" x="475.437993" y="269.78375" style="fill: #cccccc; stroke: #cccccc; stroke-width: 0.75"/>
      </g>
     </g>
     <g id="text_68">
      <!-- 12 -->
      <g style="fill: #808080" transform="translate(471.489556 284.215312) scale(0.07 -0.07)">
       <use xlink:href="#Ubuntu-31"/>
       <use xlink:href="#Ubuntu-32" x="56.399994"/>
      </g>
     </g>
    </g>
    <g id="xtick_64">
     <g id="line2d_69">
      <g>
       <use xlink:href="#mb5100fefc3" x="489.126346" y="269.78375" style="fill: #cccccc; stroke: #cccccc; stroke-width: 0.75"/>
      </g>
     </g>
     <g id="text_69">
      <!-- 18 -->
      <g style="fill: #808080" transform="translate(485.177909 284.215312) scale(0.07 -0.07)">
       <use xlink:href="#Ubuntu-31"/>
       <use xlink:href="#Ubuntu-38" x="56.399994"/>
      </g>
     </g>
    </g>
   </g>
   <g id="matplotlib.axis_8">
    <g id="ytick_5">
     <g id="line2d_70">
      <g>
       <use xlink:href="#maa8c8dd7d9" x="55.410938" y="259.78375" style="fill: #cccccc; stroke: #cccccc; stroke-width: 0.75"/>
      </g>
     </g>
     <g id="text_70">
      <!-- 5000 -->
      <g style="fill: #808080" transform="translate(28.360938 262.8875) scale(0.08 -0.08)">
       <use xlink:href="#Ubuntu-35"/>
       <use xlink:href="#Ubuntu-30" x="56.399994"/>
       <use xlink:href="#Ubuntu-30" x="112.799988"/>
       <use xlink:href="#Ubuntu-30" x="169.199982"/>
      </g>
     </g>
    </g>
    <g id="ytick_6">
     <g id="line2d_71">
      <g>
       <use xlink:href="#maa8c8dd7d9" x="55.410938" y="226.51975" style="fill: #cccccc; stroke: #cccccc; stroke-width: 0.75"/>
      </g>
     </g>
     <g id="text_71">
      <!-- 15000 -->
      <g style="fill: #808080" transform="translate(23.848438 229.6235) scale(0.08 -0.08)">
       <use xlink:href="#Ubuntu-31"/>
       <use xlink:href="#Ubuntu-35" x="56.399994"/>
       <use xlink:href="#Ubuntu-30" x="112.799988"/>
       <use xlink:href="#Ubuntu-30" x="169.199982"/>
       <use xlink:href="#Ubuntu-30" x="225.599976"/>
      </g>
     </g>
    </g>
    <g id="ytick_7">
     <g id="line2d_72">
      <g>
       <use xlink:href="#maa8c8dd7d9" x="55.410938" y="193.25575" style="fill: #cccccc; stroke: #cccccc; stroke-width: 0.75"/>
      </g>
     </g>
     <g id="text_72">
      <!-- 25000 -->
      <g style="fill: #808080" transform="translate(23.848438 196.3595) scale(0.08 -0.08)">
       <use xlink:href="#Ubuntu-32"/>
       <use xlink:href="#Ubuntu-35" x="56.399994"/>
       <use xlink:href="#Ubuntu-30" x="112.799988"/>
       <use xlink:href="#Ubuntu-30" x="169.199982"/>
       <use xlink:href="#Ubuntu-30" x="225.599976"/>
      </g>
     </g>
    </g>
    <g id="ytick_8">
     <g id="line2d_73">
      <g>
       <use xlink:href="#maa8c8dd7d9" x="55.410938" y="159.99175" style="fill: #cccccc; stroke: #cccccc; stroke-width: 0.75"/>
      </g>
     </g>
     <g id="text_73">
      <!-- 35000 -->
      <g style="fill: #808080" transform="translate(23.848438 163.0955) scale(0.08 -0.08)">
       <use xlink:href="#Ubuntu-33"/>
       <use xlink:href="#Ubuntu-35" x="56.399994"/>
       <use xlink:href="#Ubuntu-30" x="112.799988"/>
       <use xlink:href="#Ubuntu-30" x="169.199982"/>
       <use xlink:href="#Ubuntu-30" x="225.599976"/>
      </g>
     </g>
    </g>
    <g id="text_74">
     <!-- Target3 -->
     <g style="fill: #505050" transform="translate(14.156719 193.239719) rotate(-90) scale(0.09 -0.09)">
      <defs>
       <path id="Ubuntu-Bold-33" d="M 1459 -96 
Q 1286 -96 1094 -73 
Q 902 -51 723 -12 
Q 544 26 397 70 
Q 250 115 166 154 
L 352 947 
Q 518 877 777 797 
Q 1037 717 1421 717 
Q 1862 717 2067 883 
Q 2272 1050 2272 1331 
Q 2272 1504 2198 1622 
Q 2125 1741 1997 1814 
Q 1869 1888 1693 1917 
Q 1517 1946 1318 1946 
L 947 1946 
L 947 2714 
L 1370 2714 
Q 1510 2714 1641 2739 
Q 1773 2765 1875 2825 
Q 1978 2886 2038 2992 
Q 2099 3098 2099 3258 
Q 2099 3379 2048 3468 
Q 1997 3558 1917 3616 
Q 1837 3674 1731 3702 
Q 1626 3731 1517 3731 
Q 1242 3731 1008 3648 
Q 774 3565 582 3443 
L 243 4141 
Q 346 4205 483 4275 
Q 621 4346 787 4403 
Q 954 4461 1142 4499 
Q 1331 4538 1542 4538 
Q 1933 4538 2217 4445 
Q 2502 4352 2688 4182 
Q 2874 4013 2963 3785 
Q 3053 3558 3053 3290 
Q 3053 3027 2905 2780 
Q 2758 2534 2509 2406 
Q 2854 2266 3043 1987 
Q 3232 1709 3232 1318 
Q 3232 1011 3129 752 
Q 3027 493 2809 304 
Q 2592 115 2256 9 
Q 1920 -96 1459 -96 
z
" transform="scale(0.015625)"/>
      </defs>
      <use xlink:href="#Ubuntu-Bold-54"/>
      <use xlink:href="#Ubuntu-Bold-61" x="53.899994"/>
      <use xlink:href="#Ubuntu-Bold-72" x="109.199982"/>
      <use xlink:href="#Ubuntu-Bold-67" x="150.399979"/>
      <use xlink:href="#Ubuntu-Bold-65" x="209.799973"/>
      <use xlink:href="#Ubuntu-Bold-74" x="268.199966"/>
      <use xlink:href="#Ubuntu-Bold-33" x="312.59996"/>
     </g>
    </g>
   </g>
   <g id="line2d_74">
    <path d="M 64.787408 184.761864 
L 65.16764 185.685478 
L 65.928104 186.88421 
L 66.308336 187.17898 
L 67.0688 186.668045 
L 67.449032 186.805605 
L 68.209496 188.20085 
L 68.589728 187.670264 
L 68.96996 186.923513 
L 69.350192 186.825256 
L 70.110656 190.08738 
L 70.490888 191.561231 
L 70.87112 192.504495 
L 71.251352 193.978346 
L 71.631585 196.395462 
L 73.532745 212.372008 
L 73.912977 214.120978 
L 74.293209 215.300059 
L 74.673441 215.044591 
L 75.053673 216.125415 
L 75.814137 223.671533 
L 76.194369 229.724148 
L 76.574601 232.043007 
L 77.335065 234.636985 
L 77.715297 235.305131 
L 78.095529 235.167571 
L 78.475761 235.639204 
L 79.236225 236.130487 
L 79.996689 236.248395 
L 80.376921 236.228744 
L 80.757153 235.87502 
L 81.897849 235.599901 
L 82.278081 235.324782 
L 83.038545 234.008142 
L 83.418777 234.008142 
L 84.179241 233.182785 
L 84.939705 230.962183 
L 85.319937 230.392294 
L 85.700169 230.117175 
L 86.460633 228.014481 
L 86.840865 227.444592 
L 87.221097 226.1083 
L 87.601329 225.931438 
L 88.361794 223.573276 
L 89.122258 223.180249 
L 89.50249 222.846176 
L 90.262954 221.15616 
L 90.643186 219.701961 
L 92.544346 216.950772 
L 92.924578 217.265193 
L 93.30481 217.79578 
L 93.685042 218.051247 
L 94.065274 217.736826 
L 94.445506 217.147285 
L 95.586202 213.649345 
L 95.966434 213.374227 
L 96.346666 212.352357 
L 97.10713 211.743165 
L 97.487362 211.625257 
L 97.867594 211.133973 
L 98.247826 210.957111 
L 98.628058 210.171057 
L 99.388522 209.817333 
L 99.768754 209.954892 
L 100.529218 209.129536 
L 100.90945 208.107665 
L 101.669914 207.360914 
L 102.430378 207.537776 
L 102.81061 207.871849 
L 103.190842 208.009409 
L 103.571074 207.577079 
L 103.951306 207.43952 
L 104.331539 207.125098 
L 104.711771 206.555209 
L 105.092003 205.140312 
L 105.852467 204.373909 
L 106.232699 204.039836 
L 107.753627 198.301643 
L 108.133859 194.960914 
L 108.514091 190.539361 
L 109.274555 177.84459 
L 109.654787 178.473433 
L 110.035019 180.301008 
L 111.175715 177.196096 
L 111.936179 177.864241 
L 112.316411 178.198314 
L 112.696643 177.54982 
L 113.837339 178.846809 
L 114.597803 179.927633 
L 114.978035 180.143798 
L 115.358267 180.635081 
L 115.738499 180.576127 
L 116.118731 181.597997 
L 116.879195 181.676603 
L 117.259427 182.06963 
L 118.400123 184.11337 
L 118.780355 184.211627 
L 119.540819 184.683259 
L 119.921051 185.371056 
L 120.301283 185.764083 
L 120.681516 187.355842 
L 121.061748 187.277237 
L 121.44198 186.74665 
L 121.822212 185.999899 
L 122.202444 185.823037 
L 122.582676 185.921294 
L 122.962908 185.56757 
L 123.34314 184.683259 
L 123.723372 184.349186 
L 124.103604 184.329535 
L 124.483836 185.13524 
L 124.864068 186.333972 
L 125.2443 188.102593 
L 126.765228 198.55711 
L 127.525692 206.653466 
L 128.286156 211.566303 
L 128.666388 213.13841 
L 129.426852 215.162499 
L 129.807084 216.832864 
L 130.187316 219.466144 
L 130.567548 223.278506 
L 130.94778 228.859489 
L 131.328012 231.139045 
L 131.708244 232.730804 
L 132.468708 234.263609 
L 132.84894 234.204655 
L 133.229172 234.578031 
L 133.609404 235.128268 
L 133.989636 235.187223 
L 134.7501 234.872801 
L 135.130332 234.813847 
L 135.510564 233.909885 
L 136.271028 234.027793 
L 136.65126 233.477555 
L 137.031493 233.909885 
L 137.411725 233.733023 
L 137.791957 233.163134 
L 138.552421 231.473118 
L 139.693117 229.390075 
L 140.833813 226.363767 
L 141.214045 226.344116 
L 141.594277 226.1083 
L 141.974509 225.420503 
L 143.115205 221.313371 
L 144.636133 217.677872 
L 145.016365 216.027159 
L 146.537293 211.841421 
L 146.917525 211.035716 
L 147.677989 210.36757 
L 148.058221 209.994195 
L 148.818685 208.6186 
L 149.198917 207.694987 
L 149.579149 207.694987 
L 149.959381 206.908933 
L 150.339613 206.456952 
L 150.719845 205.729852 
L 151.100077 205.454733 
L 151.480309 205.415431 
L 151.860541 204.727634 
L 152.240773 204.354258 
L 152.621005 204.82589 
L 153.38147 204.373909 
L 153.761702 203.627158 
L 154.141934 204.039836 
L 154.522166 203.607507 
L 154.902398 202.683893 
L 155.662862 203.312737 
L 156.043094 203.155526 
L 156.423326 202.546334 
L 156.803558 202.605288 
L 157.18379 202.978664 
L 157.564022 201.996096 
L 157.944254 200.659805 
L 158.324486 200.581199 
L 158.704718 200.168521 
L 160.605878 196.9457 
L 160.98611 195.668362 
L 161.366342 195.019868 
L 161.746574 193.683576 
L 162.126806 191.620185 
L 163.267502 181.04776 
L 164.027966 172.499423 
L 164.408198 172.853148 
L 164.78843 174.936191 
L 165.548894 172.558377 
L 167.069822 171.634764 
L 167.450054 170.966618 
L 167.830286 170.927316 
L 169.351214 173.206872 
L 169.731447 173.265826 
L 170.111679 173.580248 
L 170.491911 173.481991 
L 170.872143 173.010358 
L 171.252375 174.464558 
L 171.632607 174.680723 
L 172.773303 176.115271 
L 173.153535 177.11749 
L 173.533767 177.726682 
L 173.913999 177.903544 
L 174.294231 178.552038 
L 174.674463 178.591341 
L 175.054695 179.200533 
L 175.434927 180.104495 
L 175.815159 180.418917 
L 176.195391 181.696254 
L 176.575623 182.06963 
L 176.955855 181.696254 
L 177.336087 181.912419 
L 177.716319 181.165668 
L 178.096551 180.969154 
L 178.476783 180.143798 
L 178.857015 179.632863 
L 179.237247 181.165668 
L 179.617479 183.307665 
L 179.997711 186.255367 
L 180.758175 188.908299 
L 181.138407 191.286112 
L 182.659335 203.961231 
L 183.419799 208.068363 
L 184.560495 212.430962 
L 184.940727 215.103545 
L 185.320959 219.348236 
L 185.701191 225.538411 
L 186.461656 229.488332 
L 187.22212 231.473118 
L 187.602352 231.414164 
L 187.982584 231.610677 
L 188.362816 231.433815 
L 188.743048 231.630329 
L 189.12328 232.043007 
L 189.503512 232.101961 
L 189.883744 232.396731 
L 190.263976 232.043007 
L 190.644208 231.925099 
L 191.404672 231.885796 
L 191.784904 231.64998 
L 192.165136 230.883577 
L 192.545368 231.139045 
L 192.9256 231.64998 
L 193.686064 230.352991 
L 194.066296 229.232864 
L 194.82676 227.85727 
L 195.587224 226.147603 
L 195.967456 224.909568 
L 196.347688 223.258854 
L 197.488384 220.212896 
L 197.868616 219.426842 
L 198.248848 219.210677 
L 198.62908 217.147285 
L 199.009312 216.616699 
L 199.389544 216.656002 
L 199.769776 216.105764 
L 200.150008 215.005288 
L 200.53024 214.317491 
L 200.910472 213.27597 
L 201.290704 212.804338 
L 201.670936 211.487697 
L 202.051169 210.819551 
L 202.811633 207.557428 
L 203.191865 207.636033 
L 203.572097 207.066144 
L 203.952329 205.69055 
L 204.332561 205.238569 
L 204.712793 205.022404 
L 205.093025 203.646809 
L 205.473257 203.273434 
L 205.853489 203.096572 
L 206.233721 201.662023 
L 206.613953 200.797364 
L 206.994185 201.052832 
L 207.374417 200.934924 
L 207.754649 200.561548 
L 208.134881 199.913053 
L 208.515113 198.871532 
L 208.895345 198.360597 
L 209.275577 198.537459 
L 209.655809 198.301643 
L 210.036041 197.358378 
L 210.796505 197.417332 
L 211.556969 197.043957 
L 211.937201 197.279773 
L 212.317433 196.847443 
L 212.697665 197.043957 
L 213.077897 197.6728 
L 213.458129 197.476286 
L 214.598825 195.275335 
L 214.979057 195.019868 
L 215.739521 193.428109 
L 216.119753 192.288331 
L 216.499985 190.24459 
L 216.880217 189.242372 
L 217.640681 184.938726 
L 218.781378 169.021135 
L 219.16161 169.689281 
L 219.541842 171.968837 
L 219.922074 170.043005 
L 220.682538 168.451246 
L 221.06277 168.274384 
L 221.443002 167.114954 
L 221.823234 166.368203 
L 222.203466 166.152038 
L 222.583698 165.44459 
L 222.96393 165.817965 
L 223.344162 165.464241 
L 223.724394 165.935873 
L 224.104626 165.189122 
L 224.484858 165.110517 
L 224.86509 165.975176 
L 225.245322 165.896571 
L 226.005786 166.859487 
L 226.76625 167.390073 
L 227.146482 168.333338 
L 227.526714 168.667411 
L 227.906946 169.414162 
L 228.66741 171.320343 
L 229.047642 171.477553 
L 229.427874 172.361864 
L 229.808106 172.813845 
L 230.56857 175.270263 
L 231.329034 177.962498 
L 231.709266 179.043322 
L 232.089498 179.59356 
L 232.46973 180.497522 
L 232.849962 181.991024 
L 233.230194 182.443005 
L 233.610426 183.268362 
L 234.37089 185.646175 
L 234.751123 187.532704 
L 235.131355 188.613529 
L 235.511587 189.281674 
L 235.891819 190.185636 
L 236.272051 191.738093 
L 236.652283 193.978346 
L 237.032515 195.471849 
L 237.412747 196.493719 
L 237.792979 197.849662 
L 238.173211 199.913053 
L 238.933675 202.742848 
L 239.313907 204.53112 
L 240.074371 212.11654 
L 240.454603 218.228109 
L 241.215067 223.357111 
L 241.595299 223.592927 
L 241.975531 224.221771 
L 242.355763 225.106081 
L 242.735995 223.828744 
L 243.116227 223.023038 
L 244.256923 219.11242 
L 245.017387 218.110201 
L 245.397619 218.287064 
L 245.777851 218.326366 
L 246.158083 217.343799 
L 246.538315 217.65822 
L 246.918547 217.127634 
L 247.298779 215.948553 
L 247.679011 215.201802 
L 248.059243 214.062024 
L 248.439475 214.160281 
L 248.819707 213.786905 
L 249.199939 213.668997 
L 249.580171 213.295621 
L 249.960403 213.806556 
L 250.340635 213.57074 
L 250.720867 213.57074 
L 251.1011 213.786905 
L 251.481332 213.13841 
L 251.861564 211.939678 
L 252.241796 212.470265 
L 253.382492 211.330486 
L 253.762724 210.033497 
L 254.142956 209.601168 
L 254.523188 210.269314 
L 254.90342 209.738727 
L 255.283652 209.443957 
L 256.044116 209.601168 
L 256.80458 207.419868 
L 257.184812 206.948236 
L 257.565044 205.98532 
L 257.945276 205.729852 
L 258.325508 205.061707 
L 258.70574 206.201485 
L 259.085972 205.376128 
L 259.466204 205.572642 
L 259.846436 206.928585 
L 260.226668 207.321612 
L 260.6069 207.43952 
L 261.367364 207.223355 
L 261.747596 198.26234 
L 262.127828 208.657903 
L 262.888292 208.402436 
L 263.268524 208.539995 
L 263.648756 208.952673 
L 264.028988 209.620819 
L 264.40922 209.797681 
L 264.789452 209.404654 
L 265.169684 208.638252 
L 265.930148 209.247444 
L 266.31038 209.719076 
L 266.690612 209.247444 
L 267.070844 209.463608 
L 267.451077 209.443957 
L 267.831309 209.679773 
L 268.211541 210.524781 
L 268.591773 210.858854 
L 269.352237 210.465827 
L 269.732469 210.269314 
L 270.112701 210.544433 
L 270.492933 211.409092 
L 271.633629 210.112103 
L 272.013861 209.954892 
L 272.394093 208.677555 
L 272.774325 205.592293 
L 273.154557 200.993878 
L 273.915021 187.139677 
L 274.675485 177.25505 
L 275.055717 175.702593 
L 275.435949 175.741896 
L 275.816181 176.233179 
L 276.196413 176.233179 
L 276.956877 176.763766 
L 277.337109 177.294352 
L 277.717341 177.530168 
L 278.477805 177.471214 
L 278.858037 176.940628 
L 279.618501 177.54982 
L 279.998733 177.903544 
L 280.378965 178.414479 
L 280.759197 178.021452 
L 281.519661 178.787855 
L 282.660357 182.462657 
L 283.420821 186.45188 
L 284.94175 191.679139 
L 285.702214 195.589757 
L 286.082446 197.338727 
L 286.462678 199.991659 
L 286.84291 200.777713 
L 287.603374 204.09879 
L 287.983606 204.845542 
L 288.363838 205.946017 
L 288.74407 206.515906 
L 289.124302 207.891501 
L 289.504534 208.382784 
L 289.884766 209.326049 
L 290.64523 208.775811 
L 291.025462 208.186271 
L 291.785926 209.876287 
L 292.166158 210.957111 
L 292.54639 211.369789 
L 292.926622 212.391659 
L 293.306854 213.904813 
L 294.067318 215.673434 
L 294.44755 217.952991 
L 294.827782 221.961866 
L 295.208014 227.601802 
L 295.588246 229.90101 
L 295.968478 231.335558 
L 296.34871 231.591026 
L 296.728942 231.512421 
L 297.109174 231.296256 
L 297.489406 231.748237 
L 297.869638 231.984053 
L 298.630102 231.846493 
L 299.010334 231.807191 
L 299.390566 231.964402 
L 299.770798 231.080091 
L 300.151031 231.748237 
L 300.531263 231.512421 
L 301.291727 230.687064 
L 302.052191 229.272167 
L 303.192887 224.437935 
L 303.573119 223.003387 
L 303.953351 222.61036 
L 305.474279 218.110201 
L 305.854511 217.324147 
L 306.614975 214.29784 
L 307.755671 211.09467 
L 308.516135 209.994195 
L 308.896367 209.18849 
L 309.276599 208.854417 
L 309.656831 208.186271 
L 310.037063 208.048711 
L 310.417295 206.044274 
L 310.797527 205.022404 
L 311.177759 204.865193 
L 311.557991 204.550771 
L 312.318455 202.723196 
L 312.698687 202.310518 
L 313.078919 202.526683 
L 313.459151 201.210042 
L 313.839383 200.895621 
L 314.219615 200.915272 
L 314.599847 200.129218 
L 314.980079 200.423988 
L 315.360311 200.895621 
L 316.120775 200.777713 
L 316.501008 200.109567 
L 316.88124 200.541897 
L 317.261472 201.210042 
L 317.641704 201.347602 
L 318.021936 200.758061 
L 318.7824 201.249345 
L 319.162632 201.249345 
L 319.542864 201.878188 
L 319.923096 201.819234 
L 320.303328 202.05505 
L 320.68356 201.996096 
L 321.063792 202.526683 
L 321.824256 202.585637 
L 322.204488 202.624939 
L 322.58472 202.507031 
L 323.345184 203.568204 
L 323.725416 203.332388 
L 324.105648 203.234131 
L 324.48588 202.939361 
L 325.246344 203.21448 
L 325.626576 202.605288 
L 326.006808 202.310518 
L 326.767272 200.600851 
L 327.147504 199.736191 
L 327.907968 192.052514 
L 328.668432 178.473433 
L 329.048664 173.108615 
L 329.428896 171.045224 
L 329.809128 169.866143 
L 330.18936 171.359645 
L 330.569592 171.811626 
L 330.949824 171.654415 
L 331.710288 172.59768 
L 332.09052 172.460121 
L 332.470752 172.558377 
L 333.231217 172.990707 
L 333.611449 173.010358 
L 333.991681 172.538726 
L 334.371913 172.774542 
L 334.752145 173.423037 
L 335.132377 173.776761 
L 335.512609 175.407823 
L 335.892841 176.272482 
L 336.273073 177.648076 
L 336.653305 178.060755 
L 337.033537 179.495303 
L 337.413769 181.991024 
L 338.934697 186.491183 
L 339.314929 188.829693 
L 339.695161 190.401801 
L 340.075393 191.128901 
L 340.455625 194.567887 
L 340.835857 196.670581 
L 341.216089 198.065827 
L 341.596321 198.832229 
L 342.356785 201.229694 
L 342.737017 201.779931 
L 343.117249 202.959012 
L 343.497481 204.924147 
L 344.257945 206.771374 
L 344.638177 206.908933 
L 345.018409 207.655684 
L 345.398641 207.478822 
L 345.778873 207.852198 
L 346.539337 209.424306 
L 346.919569 210.328268 
L 347.680033 213.079456 
L 348.060265 213.531437 
L 348.440497 214.199583 
L 348.820729 215.594829 
L 349.200962 217.874385 
L 349.581194 221.608141 
L 349.961426 227.248078 
L 350.72189 230.883577 
L 351.102122 231.64998 
L 351.482354 231.551723 
L 351.862586 231.080091 
L 352.62305 231.630329 
L 353.003282 231.885796 
L 353.383514 231.807191 
L 353.763746 231.394512 
L 354.143978 229.881359 
L 354.52421 229.449029 
L 355.284674 228.210994 
L 356.045138 227.385638 
L 356.42537 226.1083 
L 356.805602 225.617016 
L 357.185834 224.732706 
L 358.32653 220.625574 
L 358.706762 219.426842 
L 359.086994 219.505447 
L 359.467226 218.621136 
L 359.847458 216.970423 
L 360.607922 215.300059 
L 360.988154 214.612262 
L 361.748618 213.7083 
L 362.889314 210.996414 
L 363.649778 210.701643 
L 364.03001 209.522562 
L 364.410242 207.753941 
L 364.790474 206.967887 
L 365.170706 206.732071 
L 365.931171 204.275653 
L 366.311403 204.039836 
L 366.691635 202.959012 
L 367.071867 202.703545 
L 367.452099 202.900058 
L 368.212563 200.993878 
L 368.592795 200.817015 
L 368.973027 200.247126 
L 369.353259 200.581199 
L 369.733491 200.659805 
L 370.113723 200.44364 
L 370.493955 199.755843 
L 370.874187 199.461072 
L 371.634651 200.463291 
L 372.014883 200.679456 
L 372.395115 200.699107 
L 372.775347 200.856318 
L 373.155579 201.563767 
L 373.535811 201.858537 
L 373.916043 201.937142 
L 374.296275 201.76028 
L 374.676507 201.013529 
L 375.056739 201.32795 
L 375.436971 201.445859 
L 375.817203 201.799583 
L 376.197435 201.917491 
L 376.577667 201.504813 
L 376.957899 201.799583 
L 377.338131 202.251564 
L 377.718363 202.133656 
L 378.098595 201.89784 
L 378.478827 201.485161 
L 378.859059 201.485161 
L 379.619523 202.860756 
L 379.999755 202.624939 
L 380.760219 201.268996 
L 381.140451 201.03318 
L 381.900916 198.006873 
L 382.66138 189.576445 
L 383.802076 172.558377 
L 384.56254 168.018916 
L 384.942772 168.333338 
L 385.323004 168.392292 
L 385.703236 168.195778 
L 386.083468 168.254732 
L 386.4637 168.588805 
L 386.843932 168.746016 
L 387.224164 168.647759 
L 387.984628 172.283259 
L 388.36486 172.047442 
L 388.745092 172.401167 
L 389.505556 174.130485 
L 391.786948 180.595779 
L 392.547412 183.916856 
L 393.688108 188.790391 
L 394.06834 189.458536 
L 394.828804 192.229376 
L 395.209036 195.62906 
L 395.9695 198.812578 
L 396.349732 198.832229 
L 397.110196 200.777713 
L 397.490428 202.526683 
L 397.870661 202.683893 
L 399.391589 206.162182 
L 399.771821 206.535558 
L 400.152053 206.378347 
L 400.532285 206.083577 
L 400.912517 207.891501 
L 401.292749 208.638252 
L 401.672981 208.893719 
L 402.433445 210.740946 
L 402.813677 211.861073 
L 403.193909 212.411311 
L 403.574141 213.7083 
L 403.954373 215.948553 
L 404.334605 221.057904 
L 404.714837 227.85727 
L 405.095069 229.60624 
L 405.475301 230.785321 
L 405.855533 231.158696 
L 406.235765 231.256953 
L 406.615997 230.903229 
L 406.996229 231.669631 
L 407.376461 232.003704 
L 407.756693 231.512421 
L 408.136925 231.492769 
L 408.897389 230.018918 
L 409.277621 230.470899 
L 410.038085 228.348554 
L 410.418317 227.876921 
L 411.559013 225.047127 
L 411.939245 224.123514 
L 412.319477 222.826525 
L 412.699709 222.688965 
L 413.460173 220.939995 
L 414.220638 218.09055 
L 414.981102 215.90925 
L 415.741566 213.295621 
L 416.121798 212.430962 
L 416.50203 212.332705 
L 417.262494 209.542214 
L 418.40319 206.928585 
L 418.783422 206.456952 
L 419.543886 204.766936 
L 419.924118 204.197047 
L 420.30435 204.000534 
L 420.684582 203.607507 
L 421.064814 203.686112 
L 422.20551 201.524464 
L 422.585742 201.308299 
L 422.965974 201.386905 
L 423.346206 201.013529 
L 423.726438 200.266778 
L 424.10667 200.502594 
L 424.486902 200.423988 
L 424.867134 200.561548 
L 425.247366 199.637935 
L 425.627598 198.340946 
L 426.00783 198.517808 
L 426.388062 199.402118 
L 426.768294 199.913053 
L 427.148526 199.991659 
L 427.528758 200.73841 
L 427.90899 200.758061 
L 428.289222 200.14887 
L 428.669454 200.207824 
L 429.049686 200.404337 
L 429.429918 200.050613 
L 429.81015 200.522245 
L 430.190382 200.089916 
L 430.570615 200.109567 
L 430.950847 200.384686 
L 431.331079 200.286429 
L 431.711311 200.423988 
L 432.471775 199.441421 
L 432.852007 199.932705 
L 433.232239 199.873751 
L 433.612471 199.559329 
L 434.372935 198.203386 
L 434.753167 198.616064 
L 435.513631 196.867095 
L 435.893863 197.417332 
L 436.274095 196.80814 
L 436.654327 195.157427 
L 437.414791 187.296888 
L 438.175255 170.888013 
L 438.555487 167.036349 
L 438.935719 165.090865 
L 439.315951 164.127949 
L 440.076415 164.442371 
L 440.456647 164.638884 
L 440.836879 165.287379 
L 441.217111 165.287379 
L 441.977575 166.250295 
L 442.357807 168.411943 
L 442.738039 169.139043 
L 443.118271 168.942529 
L 443.878735 170.416381 
L 444.258967 170.141262 
L 444.639199 170.612894 
L 445.399663 172.342213 
L 445.779895 174.503861 
L 446.920592 177.589122 
L 447.300824 180.654733 
L 448.821752 187.847126 
L 449.962448 191.914955 
L 451.103144 196.611627 
L 451.483376 198.773275 
L 452.24384 200.718759 
L 452.624072 201.485161 
L 453.004304 202.860756 
L 453.384536 203.686112 
L 454.145 205.828109 
L 454.525232 206.555209 
L 455.285696 206.378347 
L 456.426392 209.149187 
L 456.806624 209.326049 
L 457.567088 213.315273 
L 458.327552 214.455051 
L 458.707784 216.223672 
L 459.088016 220.055685 
L 459.468248 226.501327 
L 460.228712 230.411945 
L 460.989176 231.178348 
L 461.369408 231.237302 
L 461.74964 231.414164 
L 462.129872 231.394512 
L 462.510104 231.080091 
L 463.270569 231.139045 
L 463.650801 230.962183 
L 464.031033 229.507983 
L 464.411265 228.525416 
L 464.791497 227.916224 
L 466.312425 224.595146 
L 466.692657 223.121295 
L 467.453121 222.217333 
L 468.974049 217.520661 
L 470.114745 214.710518 
L 470.494977 212.706081 
L 470.875209 212.332705 
L 471.255441 211.192927 
L 471.635673 208.697206 
L 472.015905 208.284528 
L 472.396137 208.304179 
L 472.776369 207.046493 
L 473.536833 205.55299 
L 473.917065 205.159963 
L 474.297297 204.491817 
L 474.677529 203.234131 
L 476.198457 201.878188 
L 476.578689 202.467729 
L 478.099617 201.367253 
L 478.479849 200.915272 
L 478.860081 200.168521 
L 479.240313 200.482943 
L 479.620546 201.701326 
L 480.38101 201.89784 
L 480.761242 201.937142 
L 481.141474 202.349821 
L 481.521706 202.389123 
L 482.28217 202.19261 
L 482.662402 202.565985 
L 483.042634 203.548553 
L 483.803098 202.821453 
L 484.18333 202.998315 
L 484.563562 202.507031 
L 484.943794 202.212261 
L 485.324026 202.723196 
L 486.08449 202.330169 
L 486.464722 202.251564 
L 486.844954 201.976445 
L 487.225186 202.074702 
L 487.605418 202.605288 
L 487.98565 202.310518 
L 488.365882 201.052832 
L 488.746114 201.740629 
L 489.126346 201.406556 
L 489.88681 199.500375 
L 490.267042 198.733973 
L 491.407738 195.353941 
L 491.78797 192.229376 
L 492.168202 187.866777 
L 492.928666 172.322561 
L 493.308898 166.898789 
L 493.68913 165.326681 
L 494.069362 164.796095 
L 494.449594 164.658536 
L 494.829826 164.835398 
L 495.210058 166.112735 
L 495.59029 166.348552 
L 495.970523 166.152038 
L 496.350755 166.387854 
L 496.730987 167.291816 
L 497.111219 167.311468 
L 497.491451 167.881357 
L 497.871683 168.235081 
L 498.251915 169.178346 
L 498.632147 168.726365 
L 499.012379 169.080089 
L 499.392611 170.062656 
L 499.772843 172.243956 
L 500.153075 173.088964 
L 501.293771 177.314004 
L 502.054235 179.88833 
L 502.434467 181.381833 
L 502.434467 181.381833 
" clip-path="url(#pa14be98cca)" style="fill: none; stroke: #5b5b5b; stroke-width: 1.2; stroke-linecap: square"/>
   </g>
   <g id="patch_8">
    <path d="M 55.410938 259.78375 
L 55.410938 159.99175 
" style="fill: none; stroke: #cccccc; stroke-width: 0.75; stroke-linejoin: miter; stroke-linecap: square"/>
   </g>
   <g id="patch_9">
    <path d="M 78.475761 269.78375 
L 489.126346 269.78375 
" style="fill: none; stroke: #cccccc; stroke-width: 0.75; stroke-linejoin: miter; stroke-linecap: square"/>
   </g>
  </g>
 </g>
 <defs>
  <clipPath id="pa5b65d23f4">
   <rect x="60.410938" y="110.09575" width="446.4" height="0"/>
  </clipPath>
  <clipPath id="pd5c51daaf7">
   <rect x="60.410938" y="10.30375" width="446.4" height="99.792"/>
  </clipPath>
  <clipPath id="p16186d6e5c">
   <rect x="60.410938" y="259.78375" width="446.4" height="0"/>
  </clipPath>
  <clipPath id="pa14be98cca">
   <rect x="60.410938" y="159.99175" width="446.4" height="99.792"/>
  </clipPath>
 </defs>
</svg>
