<?xml version="1.0" encoding="utf-8" standalone="no"?>
<!DOCTYPE svg PUBLIC "-//W3C//DTD SVG 1.1//EN"
  "http://www.w3.org/Graphics/SVG/1.1/DTD/svg11.dtd">
<svg xmlns:xlink="http://www.w3.org/1999/xlink" width="511.510937pt" height="271.95125pt" viewBox="0 0 511.510937 271.95125" xmlns="http://www.w3.org/2000/svg" version="1.1">
 <metadata>
  <rdf:RDF xmlns:dc="http://purl.org/dc/elements/1.1/" xmlns:cc="http://creativecommons.org/ns#" xmlns:rdf="http://www.w3.org/1999/02/22-rdf-syntax-ns#">
   <cc:Work>
    <dc:type rdf:resource="http://purl.org/dc/dcmitype/StillImage"/>
    <dc:date>2024-06-26T11:21:42.156542</dc:date>
    <dc:format>image/svg+xml</dc:format>
    <dc:creator>
     <cc:Agent>
      <dc:title>Matplotlib v3.8.3, https://matplotlib.org/</dc:title>
     </cc:Agent>
    </dc:creator>
   </cc:Work>
  </rdf:RDF>
 </metadata>
 <defs>
  <style type="text/css">*{stroke-linejoin: round; stroke-linecap: butt}</style>
 </defs>
 <g id="figure_1">
  <g id="patch_1">
   <path d="M 0 271.95125 
L 511.510937 271.95125 
L 511.510937 0 
L 0 0 
L 0 271.95125 
z
" style="fill: none"/>
  </g>
  <g id="axes_1">
   <g id="patch_2">
    <path d="M 57.910938 102.70375 
L 504.310937 102.70375 
L 504.310937 10.30375 
L 57.910938 10.30375 
L 57.910938 102.70375 
z
" style="fill: none"/>
   </g>
   <g id="matplotlib.axis_1">
    <g id="xtick_1">
     <g id="line2d_1">
      <defs>
       <path id="ma2e624b668" d="M 0 0 
L 0 3 
" style="stroke: #cecece; stroke-width: 0.75"/>
      </defs>
      <g>
       <use xlink:href="#ma2e624b668" x="62.287408" y="107.70375" style="fill: #cecece; stroke: #cecece; stroke-width: 0.75"/>
      </g>
     </g>
     <g id="text_1">
      <!-- 00 -->
      <g style="fill: #808080" transform="translate(58.338971 122.135312) scale(0.07 -0.07)">
       <defs>
        <path id="Ubuntu-Regular-30" d="M 320 2221 
Q 320 3334 713 3936 
Q 1107 4538 1805 4538 
Q 2502 4538 2896 3936 
Q 3290 3334 3290 2221 
Q 3290 1107 2896 505 
Q 2502 -96 1805 -96 
Q 1107 -96 713 505 
Q 320 1107 320 2221 
z
M 2662 2221 
Q 2662 2586 2620 2912 
Q 2579 3238 2480 3481 
Q 2381 3725 2214 3869 
Q 2048 4013 1805 4013 
Q 1562 4013 1395 3869 
Q 1229 3725 1129 3481 
Q 1030 3238 988 2912 
Q 947 2586 947 2221 
Q 947 1856 988 1529 
Q 1030 1203 1129 960 
Q 1229 717 1395 573 
Q 1562 429 1805 429 
Q 2048 429 2214 573 
Q 2381 717 2480 960 
Q 2579 1203 2620 1529 
Q 2662 1856 2662 2221 
z
" transform="scale(0.015625)"/>
       </defs>
       <use xlink:href="#Ubuntu-Regular-30"/>
       <use xlink:href="#Ubuntu-Regular-30" x="56.399994"/>
      </g>
     </g>
    </g>
    <g id="xtick_2">
     <g id="line2d_2">
      <g>
       <use xlink:href="#ma2e624b668" x="75.975761" y="107.70375" style="fill: #cecece; stroke: #cecece; stroke-width: 0.75"/>
      </g>
     </g>
     <g id="text_2">
      <!-- 06 -->
      <g style="fill: #808080" transform="translate(72.027323 122.135312) scale(0.07 -0.07)">
       <defs>
        <path id="Ubuntu-Regular-36" d="M 403 1779 
Q 403 2426 582 2922 
Q 762 3418 1091 3757 
Q 1421 4096 1891 4272 
Q 2362 4448 2950 4454 
L 2995 3955 
Q 2618 3949 2307 3872 
Q 1997 3795 1753 3628 
Q 1510 3462 1344 3196 
Q 1178 2931 1094 2541 
Q 1261 2618 1469 2669 
Q 1677 2720 1901 2720 
Q 2278 2720 2540 2605 
Q 2803 2490 2969 2301 
Q 3136 2112 3209 1865 
Q 3283 1619 3283 1350 
Q 3283 1107 3200 851 
Q 3117 595 2947 384 
Q 2778 173 2515 38 
Q 2253 -96 1894 -96 
Q 1165 -96 784 403 
Q 403 902 403 1779 
z
M 1837 2234 
Q 1613 2234 1421 2192 
Q 1229 2150 1037 2067 
Q 1030 1997 1027 1923 
Q 1024 1850 1024 1779 
Q 1024 1498 1062 1248 
Q 1101 998 1200 809 
Q 1299 621 1465 509 
Q 1632 397 1888 397 
Q 2099 397 2246 486 
Q 2394 576 2490 717 
Q 2586 858 2627 1021 
Q 2669 1184 2669 1338 
Q 2669 1773 2461 2003 
Q 2253 2234 1837 2234 
z
" transform="scale(0.015625)"/>
       </defs>
       <use xlink:href="#Ubuntu-Regular-30"/>
       <use xlink:href="#Ubuntu-Regular-36" x="56.399994"/>
      </g>
     </g>
    </g>
    <g id="xtick_3">
     <g id="line2d_3">
      <g>
       <use xlink:href="#ma2e624b668" x="89.664114" y="107.70375" style="fill: #cecece; stroke: #cecece; stroke-width: 0.75"/>
      </g>
     </g>
     <g id="text_3">
      <!-- 12 -->
      <g style="fill: #808080" transform="translate(85.715676 122.135312) scale(0.07 -0.07)">
       <defs>
        <path id="Ubuntu-Regular-31" d="M 595 3520 
Q 960 3661 1305 3881 
Q 1651 4102 1939 4435 
L 2362 4435 
L 2362 0 
L 1766 0 
L 1766 3610 
Q 1690 3539 1578 3462 
Q 1466 3386 1334 3315 
Q 1203 3245 1059 3181 
Q 915 3117 781 3072 
L 595 3520 
z
" transform="scale(0.015625)"/>
        <path id="Ubuntu-Regular-32" d="M 2989 3302 
Q 2989 3072 2896 2857 
Q 2803 2643 2649 2435 
Q 2496 2227 2304 2025 
Q 2112 1824 1920 1632 
Q 1811 1523 1667 1376 
Q 1523 1229 1395 1069 
Q 1267 909 1180 761 
Q 1094 614 1094 506 
L 3136 506 
L 3136 0 
L 448 0 
Q 442 38 442 76 
Q 442 115 442 147 
Q 442 448 541 707 
Q 640 966 800 1196 
Q 960 1427 1158 1632 
Q 1357 1837 1549 2029 
Q 1709 2182 1853 2332 
Q 1997 2483 2109 2633 
Q 2221 2784 2288 2944 
Q 2355 3104 2355 3283 
Q 2355 3475 2294 3609 
Q 2234 3744 2131 3833 
Q 2029 3923 1891 3964 
Q 1754 4006 1600 4006 
Q 1414 4006 1260 3955 
Q 1107 3904 985 3837 
Q 864 3770 781 3696 
Q 698 3622 653 3584 
L 358 4006 
Q 416 4070 531 4163 
Q 646 4256 806 4339 
Q 966 4422 1164 4480 
Q 1363 4538 1594 4538 
Q 2291 4538 2640 4214 
Q 2989 3891 2989 3302 
z
" transform="scale(0.015625)"/>
       </defs>
       <use xlink:href="#Ubuntu-Regular-31"/>
       <use xlink:href="#Ubuntu-Regular-32" x="56.399994"/>
      </g>
     </g>
    </g>
    <g id="xtick_4">
     <g id="line2d_4">
      <g>
       <use xlink:href="#ma2e624b668" x="103.352467" y="107.70375" style="fill: #cecece; stroke: #cecece; stroke-width: 0.75"/>
      </g>
     </g>
     <g id="text_4">
      <!-- 18 -->
      <g style="fill: #808080" transform="translate(99.404029 122.135312) scale(0.07 -0.07)">
       <defs>
        <path id="Ubuntu-Regular-38" d="M 3258 1152 
Q 3258 883 3165 656 
Q 3072 429 2889 259 
Q 2707 90 2432 -3 
Q 2157 -96 1798 -96 
Q 1382 -96 1104 22 
Q 826 141 659 320 
Q 493 499 422 713 
Q 352 928 352 1120 
Q 352 1306 413 1475 
Q 474 1645 573 1792 
Q 672 1939 803 2057 
Q 934 2176 1082 2266 
Q 454 2624 454 3322 
Q 454 3565 550 3785 
Q 646 4006 822 4172 
Q 998 4339 1248 4438 
Q 1498 4538 1805 4538 
Q 2163 4538 2419 4429 
Q 2675 4320 2838 4150 
Q 3002 3981 3075 3776 
Q 3149 3571 3149 3379 
Q 3149 3194 3094 3030 
Q 3040 2867 2947 2726 
Q 2854 2586 2736 2477 
Q 2618 2368 2490 2285 
Q 3245 1926 3258 1152 
z
M 954 1114 
Q 954 998 995 873 
Q 1037 749 1139 643 
Q 1242 538 1402 467 
Q 1562 397 1805 397 
Q 2022 397 2185 461 
Q 2349 525 2451 624 
Q 2554 723 2605 851 
Q 2656 979 2656 1114 
Q 2656 1318 2579 1472 
Q 2502 1626 2358 1741 
Q 2214 1856 2012 1936 
Q 1811 2016 1555 2074 
Q 1267 1914 1110 1677 
Q 954 1440 954 1114 
z
M 2554 3386 
Q 2554 3482 2512 3597 
Q 2470 3712 2380 3811 
Q 2291 3910 2150 3977 
Q 2010 4045 1805 4045 
Q 1600 4045 1456 3981 
Q 1312 3917 1222 3817 
Q 1133 3718 1091 3600 
Q 1050 3482 1050 3366 
Q 1050 3226 1101 3085 
Q 1152 2944 1261 2822 
Q 1370 2701 1546 2605 
Q 1722 2509 1965 2451 
Q 2234 2611 2394 2825 
Q 2554 3040 2554 3386 
z
" transform="scale(0.015625)"/>
       </defs>
       <use xlink:href="#Ubuntu-Regular-31"/>
       <use xlink:href="#Ubuntu-Regular-38" x="56.399994"/>
      </g>
     </g>
    </g>
    <g id="xtick_5">
     <g id="line2d_5">
      <g>
       <use xlink:href="#ma2e624b668" x="117.040819" y="107.70375" style="fill: #cecece; stroke: #cecece; stroke-width: 0.75"/>
      </g>
     </g>
     <g id="text_5">
      <!-- 00 -->
      <g style="fill: #808080" transform="translate(113.092382 122.135312) scale(0.07 -0.07)">
       <use xlink:href="#Ubuntu-Regular-30"/>
       <use xlink:href="#Ubuntu-Regular-30" x="56.399994"/>
      </g>
     </g>
    </g>
    <g id="xtick_6">
     <g id="line2d_6">
      <g>
       <use xlink:href="#ma2e624b668" x="130.729172" y="107.70375" style="fill: #cecece; stroke: #cecece; stroke-width: 0.75"/>
      </g>
     </g>
     <g id="text_6">
      <!-- 06 -->
      <g style="fill: #808080" transform="translate(126.780735 122.135312) scale(0.07 -0.07)">
       <use xlink:href="#Ubuntu-Regular-30"/>
       <use xlink:href="#Ubuntu-Regular-36" x="56.399994"/>
      </g>
     </g>
    </g>
    <g id="xtick_7">
     <g id="line2d_7">
      <g>
       <use xlink:href="#ma2e624b668" x="144.417525" y="107.70375" style="fill: #cecece; stroke: #cecece; stroke-width: 0.75"/>
      </g>
     </g>
     <g id="text_7">
      <!-- 12 -->
      <g style="fill: #808080" transform="translate(140.469088 122.135312) scale(0.07 -0.07)">
       <use xlink:href="#Ubuntu-Regular-31"/>
       <use xlink:href="#Ubuntu-Regular-32" x="56.399994"/>
      </g>
     </g>
    </g>
    <g id="xtick_8">
     <g id="line2d_8">
      <g>
       <use xlink:href="#ma2e624b668" x="158.105878" y="107.70375" style="fill: #cecece; stroke: #cecece; stroke-width: 0.75"/>
      </g>
     </g>
     <g id="text_8">
      <!-- 18 -->
      <g style="fill: #808080" transform="translate(154.15744 122.135312) scale(0.07 -0.07)">
       <use xlink:href="#Ubuntu-Regular-31"/>
       <use xlink:href="#Ubuntu-Regular-38" x="56.399994"/>
      </g>
     </g>
    </g>
    <g id="xtick_9">
     <g id="line2d_9">
      <g>
       <use xlink:href="#ma2e624b668" x="171.794231" y="107.70375" style="fill: #cecece; stroke: #cecece; stroke-width: 0.75"/>
      </g>
     </g>
     <g id="text_9">
      <!-- 00 -->
      <g style="fill: #808080" transform="translate(167.845793 122.135312) scale(0.07 -0.07)">
       <use xlink:href="#Ubuntu-Regular-30"/>
       <use xlink:href="#Ubuntu-Regular-30" x="56.399994"/>
      </g>
     </g>
    </g>
    <g id="xtick_10">
     <g id="line2d_10">
      <g>
       <use xlink:href="#ma2e624b668" x="185.482584" y="107.70375" style="fill: #cecece; stroke: #cecece; stroke-width: 0.75"/>
      </g>
     </g>
     <g id="text_10">
      <!-- 06 -->
      <g style="fill: #808080" transform="translate(181.534146 122.135312) scale(0.07 -0.07)">
       <use xlink:href="#Ubuntu-Regular-30"/>
       <use xlink:href="#Ubuntu-Regular-36" x="56.399994"/>
      </g>
     </g>
    </g>
    <g id="xtick_11">
     <g id="line2d_11">
      <g>
       <use xlink:href="#ma2e624b668" x="199.170936" y="107.70375" style="fill: #cecece; stroke: #cecece; stroke-width: 0.75"/>
      </g>
     </g>
     <g id="text_11">
      <!-- 12 -->
      <g style="fill: #808080" transform="translate(195.222499 122.135312) scale(0.07 -0.07)">
       <use xlink:href="#Ubuntu-Regular-31"/>
       <use xlink:href="#Ubuntu-Regular-32" x="56.399994"/>
      </g>
     </g>
    </g>
    <g id="xtick_12">
     <g id="line2d_12">
      <g>
       <use xlink:href="#ma2e624b668" x="212.859289" y="107.70375" style="fill: #cecece; stroke: #cecece; stroke-width: 0.75"/>
      </g>
     </g>
     <g id="text_12">
      <!-- 18 -->
      <g style="fill: #808080" transform="translate(208.910852 122.135312) scale(0.07 -0.07)">
       <use xlink:href="#Ubuntu-Regular-31"/>
       <use xlink:href="#Ubuntu-Regular-38" x="56.399994"/>
      </g>
     </g>
    </g>
    <g id="xtick_13">
     <g id="line2d_13">
      <g>
       <use xlink:href="#ma2e624b668" x="226.547642" y="107.70375" style="fill: #cecece; stroke: #cecece; stroke-width: 0.75"/>
      </g>
     </g>
     <g id="text_13">
      <!-- 00 -->
      <g style="fill: #808080" transform="translate(222.599205 122.135312) scale(0.07 -0.07)">
       <use xlink:href="#Ubuntu-Regular-30"/>
       <use xlink:href="#Ubuntu-Regular-30" x="56.399994"/>
      </g>
     </g>
    </g>
    <g id="xtick_14">
     <g id="line2d_14">
      <g>
       <use xlink:href="#ma2e624b668" x="240.235995" y="107.70375" style="fill: #cecece; stroke: #cecece; stroke-width: 0.75"/>
      </g>
     </g>
     <g id="text_14">
      <!-- 06 -->
      <g style="fill: #808080" transform="translate(236.287557 122.135312) scale(0.07 -0.07)">
       <use xlink:href="#Ubuntu-Regular-30"/>
       <use xlink:href="#Ubuntu-Regular-36" x="56.399994"/>
      </g>
     </g>
    </g>
    <g id="xtick_15">
     <g id="line2d_15">
      <g>
       <use xlink:href="#ma2e624b668" x="253.924348" y="107.70375" style="fill: #cecece; stroke: #cecece; stroke-width: 0.75"/>
      </g>
     </g>
     <g id="text_15">
      <!-- 12 -->
      <g style="fill: #808080" transform="translate(249.97591 122.135312) scale(0.07 -0.07)">
       <use xlink:href="#Ubuntu-Regular-31"/>
       <use xlink:href="#Ubuntu-Regular-32" x="56.399994"/>
      </g>
     </g>
    </g>
    <g id="xtick_16">
     <g id="line2d_16">
      <g>
       <use xlink:href="#ma2e624b668" x="267.612701" y="107.70375" style="fill: #cecece; stroke: #cecece; stroke-width: 0.75"/>
      </g>
     </g>
     <g id="text_16">
      <!-- 18 -->
      <g style="fill: #808080" transform="translate(263.664263 122.135312) scale(0.07 -0.07)">
       <use xlink:href="#Ubuntu-Regular-31"/>
       <use xlink:href="#Ubuntu-Regular-38" x="56.399994"/>
      </g>
     </g>
    </g>
    <g id="xtick_17">
     <g id="line2d_17">
      <g>
       <use xlink:href="#ma2e624b668" x="281.301054" y="107.70375" style="fill: #cecece; stroke: #cecece; stroke-width: 0.75"/>
      </g>
     </g>
     <g id="text_17">
      <!-- 00 -->
      <g style="fill: #808080" transform="translate(277.352616 122.135312) scale(0.07 -0.07)">
       <use xlink:href="#Ubuntu-Regular-30"/>
       <use xlink:href="#Ubuntu-Regular-30" x="56.399994"/>
      </g>
     </g>
    </g>
    <g id="xtick_18">
     <g id="line2d_18">
      <g>
       <use xlink:href="#ma2e624b668" x="294.989406" y="107.70375" style="fill: #cecece; stroke: #cecece; stroke-width: 0.75"/>
      </g>
     </g>
     <g id="text_18">
      <!-- 06 -->
      <g style="fill: #808080" transform="translate(291.040969 122.135312) scale(0.07 -0.07)">
       <use xlink:href="#Ubuntu-Regular-30"/>
       <use xlink:href="#Ubuntu-Regular-36" x="56.399994"/>
      </g>
     </g>
    </g>
    <g id="xtick_19">
     <g id="line2d_19">
      <g>
       <use xlink:href="#ma2e624b668" x="308.677759" y="107.70375" style="fill: #cecece; stroke: #cecece; stroke-width: 0.75"/>
      </g>
     </g>
     <g id="text_19">
      <!-- 12 -->
      <g style="fill: #808080" transform="translate(304.729322 122.135312) scale(0.07 -0.07)">
       <use xlink:href="#Ubuntu-Regular-31"/>
       <use xlink:href="#Ubuntu-Regular-32" x="56.399994"/>
      </g>
     </g>
    </g>
    <g id="xtick_20">
     <g id="line2d_20">
      <g>
       <use xlink:href="#ma2e624b668" x="322.366112" y="107.70375" style="fill: #cecece; stroke: #cecece; stroke-width: 0.75"/>
      </g>
     </g>
     <g id="text_20">
      <!-- 18 -->
      <g style="fill: #808080" transform="translate(318.417675 122.135312) scale(0.07 -0.07)">
       <use xlink:href="#Ubuntu-Regular-31"/>
       <use xlink:href="#Ubuntu-Regular-38" x="56.399994"/>
      </g>
     </g>
    </g>
    <g id="xtick_21">
     <g id="line2d_21">
      <g>
       <use xlink:href="#ma2e624b668" x="336.054465" y="107.70375" style="fill: #cecece; stroke: #cecece; stroke-width: 0.75"/>
      </g>
     </g>
     <g id="text_21">
      <!-- 00 -->
      <g style="fill: #808080" transform="translate(332.106027 122.135312) scale(0.07 -0.07)">
       <use xlink:href="#Ubuntu-Regular-30"/>
       <use xlink:href="#Ubuntu-Regular-30" x="56.399994"/>
      </g>
     </g>
    </g>
    <g id="xtick_22">
     <g id="line2d_22">
      <g>
       <use xlink:href="#ma2e624b668" x="349.742818" y="107.70375" style="fill: #cecece; stroke: #cecece; stroke-width: 0.75"/>
      </g>
     </g>
     <g id="text_22">
      <!-- 06 -->
      <g style="fill: #808080" transform="translate(345.79438 122.135312) scale(0.07 -0.07)">
       <use xlink:href="#Ubuntu-Regular-30"/>
       <use xlink:href="#Ubuntu-Regular-36" x="56.399994"/>
      </g>
     </g>
    </g>
    <g id="xtick_23">
     <g id="line2d_23">
      <g>
       <use xlink:href="#ma2e624b668" x="363.431171" y="107.70375" style="fill: #cecece; stroke: #cecece; stroke-width: 0.75"/>
      </g>
     </g>
     <g id="text_23">
      <!-- 12 -->
      <g style="fill: #808080" transform="translate(359.482733 122.135312) scale(0.07 -0.07)">
       <use xlink:href="#Ubuntu-Regular-31"/>
       <use xlink:href="#Ubuntu-Regular-32" x="56.399994"/>
      </g>
     </g>
    </g>
    <g id="xtick_24">
     <g id="line2d_24">
      <g>
       <use xlink:href="#ma2e624b668" x="377.119523" y="107.70375" style="fill: #cecece; stroke: #cecece; stroke-width: 0.75"/>
      </g>
     </g>
     <g id="text_24">
      <!-- 18 -->
      <g style="fill: #808080" transform="translate(373.171086 122.135312) scale(0.07 -0.07)">
       <use xlink:href="#Ubuntu-Regular-31"/>
       <use xlink:href="#Ubuntu-Regular-38" x="56.399994"/>
      </g>
     </g>
    </g>
    <g id="xtick_25">
     <g id="line2d_25">
      <g>
       <use xlink:href="#ma2e624b668" x="390.807876" y="107.70375" style="fill: #cecece; stroke: #cecece; stroke-width: 0.75"/>
      </g>
     </g>
     <g id="text_25">
      <!-- 00 -->
      <g style="fill: #808080" transform="translate(386.859439 122.135312) scale(0.07 -0.07)">
       <use xlink:href="#Ubuntu-Regular-30"/>
       <use xlink:href="#Ubuntu-Regular-30" x="56.399994"/>
      </g>
     </g>
    </g>
    <g id="xtick_26">
     <g id="line2d_26">
      <g>
       <use xlink:href="#ma2e624b668" x="404.496229" y="107.70375" style="fill: #cecece; stroke: #cecece; stroke-width: 0.75"/>
      </g>
     </g>
     <g id="text_26">
      <!-- 06 -->
      <g style="fill: #808080" transform="translate(400.547792 122.135312) scale(0.07 -0.07)">
       <use xlink:href="#Ubuntu-Regular-30"/>
       <use xlink:href="#Ubuntu-Regular-36" x="56.399994"/>
      </g>
     </g>
    </g>
    <g id="xtick_27">
     <g id="line2d_27">
      <g>
       <use xlink:href="#ma2e624b668" x="418.184582" y="107.70375" style="fill: #cecece; stroke: #cecece; stroke-width: 0.75"/>
      </g>
     </g>
     <g id="text_27">
      <!-- 12 -->
      <g style="fill: #808080" transform="translate(414.236144 122.135312) scale(0.07 -0.07)">
       <use xlink:href="#Ubuntu-Regular-31"/>
       <use xlink:href="#Ubuntu-Regular-32" x="56.399994"/>
      </g>
     </g>
    </g>
    <g id="xtick_28">
     <g id="line2d_28">
      <g>
       <use xlink:href="#ma2e624b668" x="431.872935" y="107.70375" style="fill: #cecece; stroke: #cecece; stroke-width: 0.75"/>
      </g>
     </g>
     <g id="text_28">
      <!-- 18 -->
      <g style="fill: #808080" transform="translate(427.924497 122.135312) scale(0.07 -0.07)">
       <use xlink:href="#Ubuntu-Regular-31"/>
       <use xlink:href="#Ubuntu-Regular-38" x="56.399994"/>
      </g>
     </g>
    </g>
    <g id="xtick_29">
     <g id="line2d_29">
      <g>
       <use xlink:href="#ma2e624b668" x="445.561288" y="107.70375" style="fill: #cecece; stroke: #cecece; stroke-width: 0.75"/>
      </g>
     </g>
     <g id="text_29">
      <!-- 00 -->
      <g style="fill: #808080" transform="translate(441.61285 122.135312) scale(0.07 -0.07)">
       <use xlink:href="#Ubuntu-Regular-30"/>
       <use xlink:href="#Ubuntu-Regular-30" x="56.399994"/>
      </g>
     </g>
    </g>
    <g id="xtick_30">
     <g id="line2d_30">
      <g>
       <use xlink:href="#ma2e624b668" x="459.24964" y="107.70375" style="fill: #cecece; stroke: #cecece; stroke-width: 0.75"/>
      </g>
     </g>
     <g id="text_30">
      <!-- 06 -->
      <g style="fill: #808080" transform="translate(455.301203 122.135312) scale(0.07 -0.07)">
       <use xlink:href="#Ubuntu-Regular-30"/>
       <use xlink:href="#Ubuntu-Regular-36" x="56.399994"/>
      </g>
     </g>
    </g>
    <g id="xtick_31">
     <g id="line2d_31">
      <g>
       <use xlink:href="#ma2e624b668" x="472.937993" y="107.70375" style="fill: #cecece; stroke: #cecece; stroke-width: 0.75"/>
      </g>
     </g>
     <g id="text_31">
      <!-- 12 -->
      <g style="fill: #808080" transform="translate(468.989556 122.135312) scale(0.07 -0.07)">
       <use xlink:href="#Ubuntu-Regular-31"/>
       <use xlink:href="#Ubuntu-Regular-32" x="56.399994"/>
      </g>
     </g>
    </g>
    <g id="xtick_32">
     <g id="line2d_32">
      <g>
       <use xlink:href="#ma2e624b668" x="486.626346" y="107.70375" style="fill: #cecece; stroke: #cecece; stroke-width: 0.75"/>
      </g>
     </g>
     <g id="text_32">
      <!-- 18 -->
      <g style="fill: #808080" transform="translate(482.677909 122.135312) scale(0.07 -0.07)">
       <use xlink:href="#Ubuntu-Regular-31"/>
       <use xlink:href="#Ubuntu-Regular-38" x="56.399994"/>
      </g>
     </g>
    </g>
    <g id="xtick_33">
     <g id="line2d_33">
      <g>
       <use xlink:href="#ma2e624b668" x="500.314699" y="107.70375" style="fill: #cecece; stroke: #cecece; stroke-width: 0.75"/>
      </g>
     </g>
     <g id="text_33">
      <!-- 00 -->
      <g style="fill: #808080" transform="translate(496.366261 122.135312) scale(0.07 -0.07)">
       <use xlink:href="#Ubuntu-Regular-30"/>
       <use xlink:href="#Ubuntu-Regular-30" x="56.399994"/>
      </g>
     </g>
    </g>
   </g>
   <g id="matplotlib.axis_2">
    <g id="ytick_1">
     <g id="line2d_34">
      <defs>
       <path id="mdefd4bbe82" d="M 0 0 
L -3 0 
" style="stroke: #cecece; stroke-width: 0.75"/>
      </defs>
      <g>
       <use xlink:href="#mdefd4bbe82" x="55.410938" y="102.70375" style="fill: #cecece; stroke: #cecece; stroke-width: 0.75"/>
      </g>
     </g>
     <g id="text_34">
      <!-- 5000 -->
      <g style="fill: #808080" transform="translate(28.360938 105.8075) scale(0.08 -0.08)">
       <defs>
        <path id="Ubuntu-Regular-35" d="M 1274 2726 
Q 2240 2688 2691 2304 
Q 3142 1920 3142 1261 
Q 3142 966 3043 716 
Q 2944 467 2742 288 
Q 2541 109 2233 6 
Q 1926 -96 1504 -96 
Q 1338 -96 1165 -70 
Q 992 -45 845 -6 
Q 698 32 582 70 
Q 467 109 416 134 
L 531 653 
Q 640 602 886 518 
Q 1133 435 1491 435 
Q 1779 435 1974 499 
Q 2170 563 2291 672 
Q 2413 781 2467 925 
Q 2522 1069 2522 1229 
Q 2522 1472 2438 1661 
Q 2355 1850 2144 1978 
Q 1933 2106 1581 2173 
Q 1229 2240 691 2240 
Q 730 2554 752 2829 
Q 774 3104 793 3366 
Q 813 3629 825 3888 
Q 838 4147 851 4435 
L 2989 4435 
L 2989 3930 
L 1370 3930 
Q 1363 3834 1350 3670 
Q 1338 3507 1325 3331 
Q 1312 3155 1299 2988 
Q 1286 2822 1274 2726 
z
" transform="scale(0.015625)"/>
       </defs>
       <use xlink:href="#Ubuntu-Regular-35"/>
       <use xlink:href="#Ubuntu-Regular-30" x="56.399994"/>
       <use xlink:href="#Ubuntu-Regular-30" x="112.799988"/>
       <use xlink:href="#Ubuntu-Regular-30" x="169.199982"/>
      </g>
     </g>
    </g>
    <g id="ytick_2">
     <g id="line2d_35">
      <g>
       <use xlink:href="#mdefd4bbe82" x="55.410938" y="71.90375" style="fill: #cecece; stroke: #cecece; stroke-width: 0.75"/>
      </g>
     </g>
     <g id="text_35">
      <!-- 15000 -->
      <g style="fill: #808080" transform="translate(23.848438 75.0075) scale(0.08 -0.08)">
       <use xlink:href="#Ubuntu-Regular-31"/>
       <use xlink:href="#Ubuntu-Regular-35" x="56.399994"/>
       <use xlink:href="#Ubuntu-Regular-30" x="112.799988"/>
       <use xlink:href="#Ubuntu-Regular-30" x="169.199982"/>
       <use xlink:href="#Ubuntu-Regular-30" x="225.599976"/>
      </g>
     </g>
    </g>
    <g id="ytick_3">
     <g id="line2d_36">
      <g>
       <use xlink:href="#mdefd4bbe82" x="55.410938" y="41.10375" style="fill: #cecece; stroke: #cecece; stroke-width: 0.75"/>
      </g>
     </g>
     <g id="text_36">
      <!-- 25000 -->
      <g style="fill: #808080" transform="translate(23.848438 44.2075) scale(0.08 -0.08)">
       <use xlink:href="#Ubuntu-Regular-32"/>
       <use xlink:href="#Ubuntu-Regular-35" x="56.399994"/>
       <use xlink:href="#Ubuntu-Regular-30" x="112.799988"/>
       <use xlink:href="#Ubuntu-Regular-30" x="169.199982"/>
       <use xlink:href="#Ubuntu-Regular-30" x="225.599976"/>
      </g>
     </g>
    </g>
    <g id="ytick_4">
     <g id="line2d_37">
      <g>
       <use xlink:href="#mdefd4bbe82" x="55.410938" y="10.30375" style="fill: #cecece; stroke: #cecece; stroke-width: 0.75"/>
      </g>
     </g>
     <g id="text_37">
      <!-- 35000 -->
      <g style="fill: #808080" transform="translate(23.848438 13.4075) scale(0.08 -0.08)">
       <defs>
        <path id="Ubuntu-Regular-33" d="M 1446 435 
Q 2016 435 2262 659 
Q 2509 883 2509 1261 
Q 2509 1504 2406 1670 
Q 2304 1837 2137 1936 
Q 1971 2035 1750 2076 
Q 1530 2118 1299 2118 
L 1146 2118 
L 1146 2605 
L 1357 2605 
Q 1517 2605 1686 2637 
Q 1856 2669 1997 2752 
Q 2138 2835 2227 2979 
Q 2317 3123 2317 3341 
Q 2317 3520 2253 3648 
Q 2189 3776 2083 3859 
Q 1978 3942 1840 3977 
Q 1702 4013 1549 4013 
Q 1242 4013 1027 3923 
Q 813 3834 666 3738 
L 435 4192 
Q 512 4243 630 4304 
Q 749 4365 896 4416 
Q 1043 4467 1212 4502 
Q 1382 4538 1568 4538 
Q 1920 4538 2176 4451 
Q 2432 4365 2598 4208 
Q 2765 4051 2848 3836 
Q 2931 3622 2931 3373 
Q 2931 3027 2732 2780 
Q 2534 2534 2253 2406 
Q 2426 2355 2586 2259 
Q 2746 2163 2864 2016 
Q 2982 1869 3056 1677 
Q 3130 1485 3130 1248 
Q 3130 960 3030 713 
Q 2931 467 2723 288 
Q 2515 109 2201 6 
Q 1888 -96 1459 -96 
Q 1293 -96 1117 -70 
Q 941 -45 787 -6 
Q 634 32 518 70 
Q 403 109 352 134 
L 467 653 
Q 576 602 829 518 
Q 1082 435 1446 435 
z
" transform="scale(0.015625)"/>
       </defs>
       <use xlink:href="#Ubuntu-Regular-33"/>
       <use xlink:href="#Ubuntu-Regular-35" x="56.399994"/>
       <use xlink:href="#Ubuntu-Regular-30" x="112.799988"/>
       <use xlink:href="#Ubuntu-Regular-30" x="169.199982"/>
       <use xlink:href="#Ubuntu-Regular-30" x="225.599976"/>
      </g>
     </g>
    </g>
    <g id="text_38">
     <!-- Target2 -->
     <g style="fill: #505050" transform="translate(14.156719 44.316719) rotate(-90) scale(0.09 -0.09)">
      <defs>
       <path id="Ubuntu-Bold-54" d="M 3802 4435 
L 3802 3584 
L 2464 3584 
L 2464 0 
L 1466 0 
L 1466 3584 
L 128 3584 
L 128 4435 
L 3802 4435 
z
" transform="scale(0.015625)"/>
       <path id="Ubuntu-Bold-61" d="M 1734 666 
Q 1875 666 2003 672 
Q 2131 678 2208 691 
L 2208 1414 
Q 2150 1427 2035 1440 
Q 1920 1453 1824 1453 
Q 1690 1453 1571 1437 
Q 1453 1421 1363 1376 
Q 1274 1331 1222 1254 
Q 1171 1178 1171 1062 
Q 1171 838 1321 752 
Q 1472 666 1734 666 
z
M 1658 3456 
Q 2080 3456 2361 3360 
Q 2643 3264 2812 3085 
Q 2982 2906 3052 2650 
Q 3123 2394 3123 2080 
L 3123 96 
Q 2918 51 2553 -9 
Q 2189 -70 1670 -70 
Q 1344 -70 1078 -12 
Q 813 45 621 176 
Q 429 307 326 518 
Q 224 730 224 1037 
Q 224 1331 342 1536 
Q 461 1741 659 1862 
Q 858 1984 1114 2038 
Q 1370 2093 1645 2093 
Q 1830 2093 1974 2077 
Q 2118 2061 2208 2035 
L 2208 2125 
Q 2208 2368 2061 2515 
Q 1914 2662 1549 2662 
Q 1306 2662 1069 2627 
Q 832 2592 659 2528 
L 538 3296 
Q 621 3322 745 3350 
Q 870 3379 1017 3401 
Q 1165 3424 1328 3440 
Q 1491 3456 1658 3456 
z
" transform="scale(0.015625)"/>
       <path id="Ubuntu-Bold-72" d="M 2477 2522 
Q 2349 2554 2176 2589 
Q 2003 2624 1805 2624 
Q 1715 2624 1590 2608 
Q 1466 2592 1402 2573 
L 1402 0 
L 448 0 
L 448 3187 
Q 704 3277 1053 3357 
Q 1402 3437 1830 3437 
Q 1907 3437 2016 3427 
Q 2125 3418 2233 3402 
Q 2342 3386 2451 3363 
Q 2560 3341 2637 3309 
L 2477 2522 
z
" transform="scale(0.015625)"/>
       <path id="Ubuntu-Bold-67" d="M 1261 1792 
Q 1261 992 1907 992 
Q 2054 992 2182 1030 
Q 2310 1069 2400 1120 
L 2400 2643 
Q 2330 2656 2234 2665 
Q 2138 2675 2010 2675 
Q 1632 2675 1446 2425 
Q 1261 2176 1261 1792 
z
M 3354 422 
Q 3354 -403 2934 -803 
Q 2515 -1203 1638 -1203 
Q 1331 -1203 1024 -1148 
Q 717 -1094 454 -1005 
L 621 -205 
Q 845 -294 1091 -345 
Q 1338 -397 1651 -397 
Q 2061 -397 2230 -217 
Q 2400 -38 2400 243 
L 2400 365 
Q 2246 294 2083 259 
Q 1920 224 1728 224 
Q 1030 224 659 637 
Q 288 1050 288 1792 
Q 288 2163 403 2467 
Q 518 2771 739 2988 
Q 960 3206 1280 3324 
Q 1600 3443 2003 3443 
Q 2176 3443 2358 3427 
Q 2541 3411 2720 3385 
Q 2899 3360 3062 3325 
Q 3226 3290 3354 3251 
L 3354 422 
z
" transform="scale(0.015625)"/>
       <path id="Ubuntu-Bold-65" d="M 288 1658 
Q 288 2106 425 2442 
Q 563 2778 787 3002 
Q 1011 3226 1302 3341 
Q 1594 3456 1901 3456 
Q 2618 3456 3034 3017 
Q 3450 2579 3450 1728 
Q 3450 1645 3443 1545 
Q 3437 1446 3430 1370 
L 1267 1370 
Q 1299 1075 1542 902 
Q 1786 730 2195 730 
Q 2458 730 2710 778 
Q 2963 826 3123 896 
L 3251 122 
Q 3174 83 3046 44 
Q 2918 6 2761 -22 
Q 2605 -51 2425 -70 
Q 2246 -90 2067 -90 
Q 1613 -90 1277 44 
Q 941 179 720 412 
Q 499 646 393 966 
Q 288 1286 288 1658 
z
M 2528 2022 
Q 2522 2144 2486 2259 
Q 2451 2374 2377 2464 
Q 2304 2554 2192 2611 
Q 2080 2669 1914 2669 
Q 1754 2669 1638 2614 
Q 1523 2560 1446 2470 
Q 1370 2381 1328 2262 
Q 1286 2144 1267 2022 
L 2528 2022 
z
" transform="scale(0.015625)"/>
       <path id="Ubuntu-Bold-74" d="M 416 4205 
L 1370 4358 
L 1370 3366 
L 2515 3366 
L 2515 2573 
L 1370 2573 
L 1370 1389 
Q 1370 1088 1475 909 
Q 1581 730 1901 730 
Q 2054 730 2217 758 
Q 2381 787 2515 838 
L 2650 96 
Q 2477 26 2265 -25 
Q 2054 -77 1747 -77 
Q 1357 -77 1101 28 
Q 845 134 691 323 
Q 538 512 477 781 
Q 416 1050 416 1376 
L 416 4205 
z
" transform="scale(0.015625)"/>
       <path id="Ubuntu-Bold-32" d="M 3174 3270 
Q 3174 3027 3078 2803 
Q 2982 2579 2828 2371 
Q 2675 2163 2483 1971 
Q 2291 1779 2106 1606 
Q 2010 1517 1898 1405 
Q 1786 1293 1683 1177 
Q 1581 1062 1501 963 
Q 1421 864 1402 800 
L 3309 800 
L 3309 0 
L 352 0 
Q 339 70 339 179 
Q 339 288 339 333 
Q 339 640 438 896 
Q 538 1152 698 1373 
Q 858 1594 1059 1786 
Q 1261 1978 1459 2170 
Q 1613 2317 1747 2448 
Q 1882 2579 1984 2704 
Q 2086 2829 2144 2953 
Q 2202 3078 2202 3206 
Q 2202 3488 2042 3603 
Q 1882 3718 1645 3718 
Q 1472 3718 1321 3664 
Q 1171 3610 1046 3536 
Q 922 3462 832 3388 
Q 742 3315 698 3270 
L 224 3936 
Q 506 4198 880 4368 
Q 1254 4538 1683 4538 
Q 2074 4538 2355 4448 
Q 2637 4358 2819 4195 
Q 3002 4032 3088 3798 
Q 3174 3565 3174 3270 
z
" transform="scale(0.015625)"/>
      </defs>
      <use xlink:href="#Ubuntu-Bold-54"/>
      <use xlink:href="#Ubuntu-Bold-61" x="61.399994"/>
      <use xlink:href="#Ubuntu-Bold-72" x="116.699982"/>
      <use xlink:href="#Ubuntu-Bold-67" x="158.899979"/>
      <use xlink:href="#Ubuntu-Bold-65" x="218.299973"/>
      <use xlink:href="#Ubuntu-Bold-74" x="276.699966"/>
      <use xlink:href="#Ubuntu-Bold-32" x="321.09996"/>
     </g>
    </g>
   </g>
   <g id="line2d_38">
    <path d="M 62.287408 35.785147 
L 63.808336 40.02671 
L 64.5688 40.71827 
L 64.949032 40.211126 
L 65.329264 40.510802 
L 65.709496 40.349438 
L 66.46996 38.597488 
L 66.850192 38.240182 
L 67.230424 38.539858 
L 67.610656 38.470702 
L 68.37112 41.444407 
L 68.751352 44.475742 
L 69.511817 47.84133 
L 69.892049 51.817796 
L 70.272281 53.903999 
L 70.652513 54.860656 
L 71.032745 56.992964 
L 72.173441 61.153846 
L 73.694369 70.708889 
L 74.074601 72.472365 
L 74.454833 72.679833 
L 74.835065 73.601912 
L 75.595529 74.570095 
L 75.975761 74.604673 
L 76.355993 75.134869 
L 76.736225 74.731459 
L 77.116457 75.15792 
L 77.496689 74.846719 
L 77.876921 74.362627 
L 78.257153 73.590386 
L 78.637385 73.613438 
L 79.017617 72.852723 
L 79.397849 72.679833 
L 79.778081 72.34558 
L 80.158313 71.65402 
L 80.918777 69.683076 
L 81.299009 70.109538 
L 81.679241 69.256615 
L 82.439705 66.74395 
L 82.819937 65.787293 
L 83.200169 64.150602 
L 83.580401 63.332257 
L 83.960633 62.018295 
L 84.340865 61.453521 
L 85.101329 58.791018 
L 85.481562 58.260823 
L 85.861794 56.543451 
L 86.242026 55.609846 
L 86.622258 53.800266 
L 87.00249 53.754162 
L 88.143186 50.768931 
L 88.90365 48.763409 
L 89.283882 48.475259 
L 89.664114 48.509837 
L 90.80481 49.685488 
L 91.185042 50.572989 
L 91.565274 50.907243 
L 91.945506 50.826561 
L 92.70597 48.982403 
L 93.086202 47.633862 
L 93.846666 46.896199 
L 94.226898 46.873147 
L 94.987362 45.755126 
L 95.367594 45.985646 
L 95.747826 46.054802 
L 96.128058 45.432399 
L 97.268754 46.919251 
L 97.648986 46.965355 
L 98.029218 47.253505 
L 98.40945 46.527367 
L 99.169914 47.43792 
L 99.550146 47.380291 
L 99.930378 47.737596 
L 100.31061 47.772174 
L 100.690842 47.622336 
L 101.071074 47.057563 
L 101.451306 47.49555 
L 101.831539 47.172823 
L 102.211771 47.334187 
L 102.592003 52.716823 
L 104.112931 48.290844 
L 104.493163 48.002694 
L 105.253627 45.017463 
L 106.394323 36.995376 
L 106.774555 35.669887 
L 107.154787 36.672648 
L 107.535019 39.196839 
L 107.915251 39.185313 
L 108.675715 36.096349 
L 109.055947 35.416315 
L 109.436179 35.635309 
L 109.816411 35.266478 
L 110.196643 36.015667 
L 110.576875 37.076058 
L 110.957107 37.779143 
L 111.337339 37.779143 
L 111.717571 39.208365 
L 112.097803 39.531093 
L 113.238499 39.369729 
L 113.618731 39.531093 
L 113.998963 40.08434 
L 114.379195 39.876873 
L 114.759427 40.868108 
L 115.139659 41.548141 
L 115.519891 41.836291 
L 115.900123 41.813239 
L 117.040819 43.703501 
L 117.421051 43.461455 
L 117.801283 43.957072 
L 118.181516 44.694735 
L 118.561748 45.005937 
L 118.94198 45.582236 
L 119.702444 45.259509 
L 120.082676 45.962594 
L 120.84314 45.709022 
L 121.223372 45.317139 
L 121.603604 44.2798 
L 121.983836 44.902203 
L 122.364068 46.285322 
L 123.124532 48.106428 
L 123.884996 52.048315 
L 124.265228 53.44296 
L 125.025692 59.736149 
L 125.405924 61.165372 
L 125.786156 63.459043 
L 126.54662 66.213754 
L 126.926852 67.74671 
L 128.828012 78.258411 
L 129.208244 79.157438 
L 130.34894 80.552083 
L 130.729172 80.678869 
L 131.109404 80.229355 
L 132.2501 79.825945 
L 132.630332 79.791367 
L 133.010564 79.111334 
L 133.390796 78.984548 
L 133.771028 79.168964 
L 134.15126 79.226594 
L 134.531493 77.347858 
L 134.911725 77.08276 
L 135.291957 77.163442 
L 136.052421 75.79185 
L 136.432653 74.800615 
L 137.193117 73.555808 
L 137.573349 72.495417 
L 138.333813 71.169929 
L 138.714045 70.916357 
L 139.094277 70.155642 
L 139.474509 68.576582 
L 140.995437 64.715376 
L 141.755901 63.689563 
L 142.516365 61.453521 
L 142.896597 59.874461 
L 143.276829 59.690045 
L 143.657061 58.894752 
L 144.037293 58.8717 
L 144.417525 58.191667 
L 145.558221 57.811309 
L 145.938453 57.454004 
L 146.318685 56.670236 
L 147.079149 56.140041 
L 147.459381 55.944099 
L 147.839613 57.46553 
L 148.219845 56.71634 
L 148.600077 56.554977 
L 148.980309 56.197671 
L 149.740773 56.013255 
L 150.501237 56.001729 
L 151.261702 55.356274 
L 151.641934 55.42543 
L 152.022166 54.664715 
L 152.78263 54.261305 
L 153.543094 54.503351 
L 154.303558 54.676241 
L 154.68379 54.883708 
L 155.064022 54.941338 
L 155.444254 54.710819 
L 155.824486 55.448482 
L 156.204718 55.402378 
L 156.58495 54.514877 
L 156.965182 55.390852 
L 157.345414 54.503351 
L 157.725646 54.653189 
L 158.105878 54.261305 
L 159.246574 51.11471 
L 159.626806 49.846852 
L 160.007038 47.345713 
L 160.767502 41.363725 
L 161.147734 38.839534 
L 161.527966 38.067293 
L 161.908198 39.139209 
L 162.28843 41.548141 
L 162.668662 40.914212 
L 163.048894 39.600249 
L 164.18959 38.770378 
L 164.569822 38.090345 
L 164.950054 38.7358 
L 165.330286 38.989372 
L 165.710518 38.977846 
L 166.09075 39.219891 
L 166.470982 40.015185 
L 166.851214 39.173787 
L 167.231447 39.531093 
L 167.991911 38.470702 
L 168.372143 38.493754 
L 168.752375 38.79343 
L 169.132607 39.484989 
L 169.512839 39.519567 
L 171.413999 42.896681 
L 172.174463 44.729313 
L 172.554695 44.660157 
L 173.315159 47.022985 
L 174.075623 47.507076 
L 174.455855 48.313896 
L 175.216319 48.383051 
L 175.596551 47.449446 
L 175.976783 46.999933 
L 176.357015 45.755126 
L 176.737247 45.962594 
L 177.497711 47.910486 
L 178.638407 53.247018 
L 179.018639 54.722345 
L 179.779103 60.589072 
L 180.159335 62.214236 
L 180.539567 64.438752 
L 180.919799 65.291675 
L 181.300031 66.697846 
L 181.680263 67.666029 
L 182.440727 73.117821 
L 182.820959 74.570095 
L 183.201191 77.382436 
L 183.961656 80.494453 
L 184.341888 81.428058 
L 184.72212 81.520266 
L 185.102352 82.119617 
L 185.482584 82.338611 
L 185.862816 82.234877 
L 186.243048 82.511501 
L 187.003512 82.269455 
L 187.383744 82.649812 
L 187.763976 82.165721 
L 188.144208 82.280981 
L 188.52444 81.33585 
L 188.904672 80.920914 
L 189.665136 80.655817 
L 190.4256 79.779841 
L 190.805832 79.779841 
L 191.186064 78.869288 
L 191.566296 78.385197 
L 191.946528 78.246885 
L 192.32676 77.382436 
L 192.706992 77.094286 
L 193.087224 76.506461 
L 193.467456 76.183733 
L 194.22792 74.523991 
L 194.608152 74.005322 
L 194.988384 73.774802 
L 195.368616 72.403209 
L 195.748848 71.723176 
L 196.509312 70.109538 
L 196.889544 69.544765 
L 197.269776 69.533239 
L 197.650008 69.279667 
L 198.03024 68.61116 
L 198.410472 66.697846 
L 198.790704 66.11002 
L 199.170936 65.210993 
L 200.311633 64.657746 
L 200.691865 64.70385 
L 201.072097 63.366835 
L 201.452329 63.078686 
L 201.832561 62.133555 
L 202.212793 62.502386 
L 202.593025 62.341022 
L 202.973257 61.614885 
L 203.353489 61.684041 
L 203.733721 61.372839 
L 204.113953 61.545729 
L 204.494185 59.459525 
L 204.874417 56.750918 
L 205.254649 56.739392 
L 205.634881 56.531925 
L 206.395345 54.803027 
L 206.775577 54.998968 
L 207.155809 54.607085 
L 207.536041 54.019259 
L 207.916273 54.388091 
L 208.296505 54.434195 
L 209.056969 55.217962 
L 209.817433 53.604324 
L 210.197665 53.961629 
L 210.577897 54.710819 
L 210.958129 53.09718 
L 211.338361 53.074128 
L 212.098825 51.57575 
L 212.479057 51.667958 
L 212.859289 50.895717 
L 213.239521 51.149288 
L 213.619753 50.019742 
L 213.999985 48.509837 
L 214.380217 47.979642 
L 215.140681 42.908207 
L 215.520913 38.816482 
L 215.901146 36.764856 
L 216.281378 35.508523 
L 216.66161 36.084823 
L 217.041842 38.50528 
L 217.802306 35.819725 
L 218.182538 35.370212 
L 218.56277 35.462419 
L 219.703466 33.549106 
L 220.46393 32.995858 
L 220.844162 33.433846 
L 221.224394 33.433846 
L 221.604626 33.698943 
L 221.984858 32.223617 
L 222.36509 31.889363 
L 222.745322 31.808681 
L 223.125554 32.027675 
L 223.505786 32.822968 
L 223.886018 33.168748 
L 224.26625 34.286769 
L 224.646482 34.574918 
L 225.026714 35.658361 
L 225.406946 36.234661 
L 226.16741 38.747326 
L 226.547642 38.758852 
L 226.927874 39.323625 
L 228.448802 42.608532 
L 229.589498 46.481264 
L 229.96973 47.092141 
L 231.110426 49.973638 
L 232.251123 53.408382 
L 233.011587 54.929812 
L 233.391819 55.667476 
L 233.772051 55.794261 
L 234.532515 58.952382 
L 234.912747 59.920565 
L 236.053443 63.724141 
L 236.433675 65.026577 
L 238.334835 77.463118 
L 238.715067 79.226594 
L 239.095299 79.964257 
L 239.475531 79.549322 
L 239.855763 80.079517 
L 240.235995 79.814419 
L 240.996459 78.373671 
L 241.376691 76.760033 
L 241.756923 76.368149 
L 242.137155 75.365388 
L 242.517387 74.869771 
L 242.897619 74.604673 
L 243.277851 74.512465 
L 243.658083 74.281945 
L 244.418547 72.460839 
L 244.798779 71.262137 
L 245.179011 70.812623 
L 245.559243 70.651259 
L 245.939475 70.30548 
L 246.319707 70.766519 
L 246.699939 70.42074 
L 247.080171 70.570577 
L 247.460403 70.07496 
L 247.840635 70.512948 
L 248.220867 70.36311 
L 249.361564 68.784049 
L 249.741796 68.599634 
L 250.122028 68.565056 
L 250.50226 68.357588 
L 250.882492 68.276906 
L 251.262724 68.057912 
L 251.642956 68.299958 
L 252.023188 67.539243 
L 252.40342 67.423983 
L 252.783652 67.769762 
L 253.163884 67.493139 
L 255.445276 64.35807 
L 255.825508 64.311966 
L 256.20574 63.562777 
L 256.585972 63.643459 
L 257.726668 63.170893 
L 258.487132 64.64622 
L 260.00806 66.674794 
L 260.388292 66.674794 
L 260.768524 67.723659 
L 261.148756 67.354827 
L 261.528988 67.954178 
L 261.90922 67.988756 
L 262.289452 67.735185 
L 262.669684 67.885022 
L 263.049916 68.20775 
L 263.430148 68.184698 
L 263.81038 68.000282 
L 264.190612 69.118303 
L 264.570844 68.910835 
L 264.951077 68.899309 
L 266.472005 69.487135 
L 266.852237 69.049147 
L 267.612701 69.083725 
L 267.992933 69.521713 
L 268.753397 69.452557 
L 269.133629 69.740706 
L 269.513861 69.003043 
L 269.894093 68.933887 
L 270.654557 67.032099 
L 271.034789 64.680798 
L 272.175485 51.34523 
L 272.555717 49.789222 
L 272.935949 50.100424 
L 273.316181 50.123476 
L 273.696413 50.423151 
L 274.076645 50.307891 
L 274.456877 50.653671 
L 274.837109 50.515359 
L 275.217341 50.135002 
L 275.597573 50.353995 
L 276.358037 49.074611 
L 276.738269 49.547176 
L 277.118501 49.512598 
L 277.498733 49.293604 
L 277.878965 49.53565 
L 278.259197 49.086137 
L 278.639429 49.201397 
L 279.019661 48.959351 
L 279.399893 49.846852 
L 279.780125 50.261787 
L 280.160357 50.849613 
L 280.540589 52.809031 
L 280.920821 53.143284 
L 281.301054 53.696532 
L 281.681286 54.826078 
L 282.061518 55.413904 
L 283.202214 58.560498 
L 283.582446 59.309688 
L 284.723142 62.744432 
L 285.863838 65.153363 
L 286.24407 65.372357 
L 287.004534 66.893787 
L 287.384766 66.985995 
L 287.764998 67.504665 
L 288.14523 67.815866 
L 288.525462 67.078203 
L 290.04639 69.67155 
L 290.426622 70.824149 
L 290.806854 71.043143 
L 291.187086 71.930644 
L 291.567318 73.75175 
L 291.94755 76.425779 
L 292.327782 78.120099 
L 293.088246 83.122378 
L 293.468478 84.021405 
L 294.228942 84.736016 
L 294.609174 84.689912 
L 294.989406 85.001114 
L 296.130102 85.139426 
L 296.510334 84.885854 
L 296.890566 84.885854 
L 297.270798 84.251925 
L 297.651031 83.906145 
L 298.031263 84.148191 
L 298.411495 83.514261 
L 298.791727 83.710203 
L 299.171959 82.465397 
L 299.552191 81.727733 
L 299.932423 80.390719 
L 300.312655 80.310037 
L 300.692887 79.145912 
L 301.073119 79.088282 
L 301.453351 77.981787 
L 301.833583 77.520748 
L 302.213815 76.552565 
L 302.594047 76.264415 
L 303.354511 73.69412 
L 304.114975 71.677072 
L 304.495207 71.331293 
L 306.776599 66.790054 
L 307.156831 66.813106 
L 307.537063 66.317488 
L 308.297527 65.095733 
L 308.677759 64.842162 
L 309.438223 63.597355 
L 310.578919 61.879983 
L 310.959151 62.20271 
L 311.339383 61.14232 
L 311.719615 60.45076 
L 312.099847 60.185663 
L 312.480079 59.678519 
L 312.860311 60.081929 
L 313.240543 60.254819 
L 313.620775 60.185663 
L 314.001008 59.932091 
L 314.38124 59.494103 
L 314.761472 60.231767 
L 315.141704 60.50839 
L 315.521936 61.153846 
L 315.902168 60.992482 
L 316.2824 61.188424 
L 317.042864 62.237288 
L 317.423096 62.110503 
L 317.803328 62.49086 
L 318.18356 62.479334 
L 318.563792 63.00953 
L 319.704488 63.954661 
L 320.08472 63.343783 
L 320.464952 64.000765 
L 320.845184 64.323492 
L 321.225416 64.173654 
L 321.605648 64.565538 
L 321.98588 64.796058 
L 322.366112 64.692324 
L 322.746344 64.35807 
L 323.506808 64.254336 
L 323.88704 64.012291 
L 324.647504 62.755958 
L 325.407968 61.061638 
L 325.7882 58.64118 
L 326.928896 44.959833 
L 327.309128 43.772656 
L 327.68936 43.173305 
L 328.449824 43.553663 
L 328.830056 43.277039 
L 329.59052 44.176066 
L 329.970752 44.245222 
L 330.350985 44.118436 
L 330.731217 43.830286 
L 331.111449 43.887916 
L 331.491681 43.622819 
L 331.871913 42.919733 
L 333.012609 42.677688 
L 333.773073 44.072332 
L 334.533537 44.971359 
L 334.913769 45.80123 
L 335.674233 48.233214 
L 336.054465 49.328182 
L 336.434697 49.916008 
L 337.195161 52.509355 
L 337.575393 53.466012 
L 338.335857 57.142802 
L 338.716089 58.652706 
L 339.096321 59.586311 
L 339.476553 60.070403 
L 340.237017 61.649463 
L 340.617249 62.041347 
L 340.997481 62.940374 
L 341.377713 63.366835 
L 341.757945 64.265862 
L 342.518409 65.222519 
L 342.898641 65.522195 
L 343.278873 65.049629 
L 343.659105 65.303201 
L 344.039337 66.51343 
L 344.799801 67.447035 
L 345.940497 69.90207 
L 346.320729 71.400449 
L 347.841658 79.284224 
L 348.22189 80.033413 
L 348.602122 80.114095 
L 348.982354 79.779841 
L 349.742818 79.802893 
L 350.12305 78.846236 
L 350.503282 78.961496 
L 350.883514 78.097047 
L 351.263746 78.050943 
L 352.02421 76.667825 
L 352.404442 75.399966 
L 352.784674 75.008083 
L 353.545138 73.509704 
L 353.92537 71.907592 
L 354.305602 71.285189 
L 354.685834 69.84444 
L 355.066066 69.072199 
L 355.446298 66.997521 
L 356.206762 65.118785 
L 356.586994 64.738428 
L 357.347458 62.444756 
L 357.72769 61.465047 
L 358.107922 61.061638 
L 359.248618 58.376083 
L 359.62885 57.534686 
L 360.769546 55.863417 
L 361.149778 54.860656 
L 361.53001 54.434195 
L 361.910242 53.27007 
L 362.290474 53.09718 
L 362.670706 53.051076 
L 363.050939 52.394095 
L 363.431171 52.152049 
L 364.191635 51.206918 
L 364.571867 50.953347 
L 364.952099 50.238735 
L 365.712563 49.835326 
L 366.473027 48.555941 
L 366.853259 48.924773 
L 367.233491 48.797987 
L 367.993955 48.878669 
L 368.374187 49.731592 
L 368.754419 48.959351 
L 369.134651 48.913247 
L 369.514883 49.005455 
L 369.895115 48.578993 
L 370.275347 49.858378 
L 370.655579 50.515359 
L 371.035811 50.296365 
L 372.176507 51.22997 
L 372.556739 50.941821 
L 372.936971 51.51812 
L 373.317203 51.51812 
L 374.077667 52.117471 
L 374.457899 53.03955 
L 374.838131 53.569746 
L 375.598595 54.065363 
L 375.978827 54.733871 
L 376.359059 54.779975 
L 376.739291 54.514877 
L 377.119523 54.814552 
L 377.499755 54.90676 
L 377.879987 54.768449 
L 378.260219 53.880948 
L 378.640451 53.73111 
L 379.020684 53.27007 
L 379.400916 53.062602 
L 379.781148 52.728349 
L 380.16138 51.506594 
L 380.541612 48.164058 
L 381.302076 38.85106 
L 382.442772 33.802677 
L 382.823004 34.159983 
L 383.203236 34.240665 
L 383.583468 34.079301 
L 383.9637 34.701704 
L 384.343932 34.59797 
L 384.724164 34.240665 
L 385.104396 34.378977 
L 385.484628 34.909172 
L 385.86486 35.658361 
L 386.245092 35.612257 
L 387.385788 37.364207 
L 387.76602 37.698461 
L 388.906716 40.787426 
L 389.66718 43.069571 
L 390.047412 44.729313 
L 390.427644 45.778178 
L 391.188108 48.555941 
L 391.56834 49.097663 
L 393.849732 56.854652 
L 394.229964 57.500108 
L 394.610196 58.387609 
L 394.990428 59.586311 
L 395.370661 60.128033 
L 396.131125 60.888748 
L 396.891589 62.306444 
L 397.271821 63.332257 
L 397.652053 62.986478 
L 398.032285 62.156607 
L 398.412517 62.502386 
L 398.792749 64.12755 
L 399.933445 65.914078 
L 400.313677 66.524956 
L 400.693909 67.573821 
L 401.834605 73.094769 
L 402.214837 76.172207 
L 402.595069 78.143151 
L 402.975301 78.143151 
L 403.735765 79.192016 
L 404.496229 78.500457 
L 405.256693 77.036656 
L 406.017157 76.425779 
L 406.397389 75.976266 
L 407.157853 74.15516 
L 407.538085 74.109056 
L 407.918317 73.313762 
L 408.678781 70.293954 
L 409.819477 67.781288 
L 410.579941 65.210993 
L 411.340405 63.758719 
L 412.481102 60.427708 
L 412.861334 59.447999 
L 413.621798 58.687284 
L 414.00203 58.053355 
L 415.142726 54.376565 
L 415.522958 54.307409 
L 415.90319 53.339226 
L 416.663654 52.232731 
L 417.043886 52.082893 
L 417.424118 58.710336 
L 417.80435 57.857413 
L 418.184582 57.707575 
L 418.945046 56.578029 
L 419.70551 56.670236 
L 420.085742 56.439717 
L 420.465974 56.854652 
L 420.846206 56.451243 
L 421.226438 56.347509 
L 421.60667 56.612607 
L 421.986902 56.428191 
L 422.747366 56.462769 
L 423.50783 55.632898 
L 423.888062 56.174619 
L 424.268294 56.289879 
L 424.648526 57.142802 
L 425.028758 56.647185 
L 425.40899 57.615367 
L 426.169454 57.361796 
L 426.549686 57.995725 
L 427.31015 58.75644 
L 427.690382 59.413422 
L 428.450847 59.724623 
L 428.831079 60.300923 
L 429.211311 60.070403 
L 429.591543 60.62365 
L 429.971775 60.842644 
L 430.732239 60.277871 
L 431.112471 60.842644 
L 431.492703 60.116507 
L 431.872935 54.768449 
L 432.633399 53.961629 
L 433.013631 53.78874 
L 433.774095 52.290361 
L 434.154327 51.667958 
L 434.914791 48.359999 
L 435.295023 45.363243 
L 435.675255 39.369729 
L 436.055487 35.819725 
L 436.815951 32.454137 
L 437.196183 32.396507 
L 437.956647 31.831733 
L 438.336879 32.661604 
L 438.717111 32.90365 
L 439.097343 31.681896 
L 439.477575 32.799916 
L 439.857807 33.226378 
L 440.238039 33.30706 
L 440.998503 33.145696 
L 441.378735 33.745047 
L 441.758967 34.88612 
L 442.139199 34.690178 
L 443.279895 37.329629 
L 443.660127 38.147975 
L 444.040359 39.946029 
L 444.420592 40.94879 
L 444.800824 43.311617 
L 445.181056 44.959833 
L 446.701984 48.993929 
L 448.222912 54.365039 
L 448.983376 55.575268 
L 449.363608 57.142802 
L 449.74384 57.811309 
L 450.124072 57.834361 
L 450.884536 59.724623 
L 451.264768 60.289397 
L 451.645 61.741671 
L 452.025232 61.949139 
L 452.785696 62.9519 
L 453.165928 63.055634 
L 453.926392 64.404174 
L 454.306624 65.291675 
L 454.686856 65.833397 
L 455.067088 65.914078 
L 455.44732 66.16765 
L 455.827552 67.931126 
L 456.588016 72.483891 
L 457.34848 76.494935 
L 457.728712 76.713929 
L 458.108944 77.186494 
L 458.489176 78.004839 
L 459.24964 77.359384 
L 459.629872 76.575617 
L 460.010104 76.126103 
L 460.390336 74.696881 
L 460.770569 74.846719 
L 461.531033 73.440548 
L 461.911265 72.714411 
L 462.291497 71.446552 
L 462.671729 70.628207 
L 463.051961 70.155642 
L 463.432193 69.187459 
L 463.812425 67.573821 
L 464.192657 66.732424 
L 464.953121 64.219758 
L 465.333353 64.081446 
L 466.093817 62.3756 
L 466.474049 61.096216 
L 466.854281 59.321214 
L 467.234513 58.433713 
L 467.614745 58.122511 
L 467.994977 56.474295 
L 468.375209 55.65595 
L 468.755441 54.007733 
L 469.135673 53.489064 
L 469.515905 52.105945 
L 469.896137 51.886952 
L 470.276369 51.506594 
L 470.656601 50.204157 
L 471.036833 49.950586 
L 471.417065 49.132241 
L 472.557761 47.910486 
L 473.318225 48.751883 
L 473.698457 48.970877 
L 474.078689 48.728831 
L 474.458921 49.59328 
L 474.839153 49.30513 
L 475.219385 49.201397 
L 475.979849 47.380291 
L 476.740313 47.72607 
L 477.120546 47.564706 
L 477.500778 48.025746 
L 477.88101 47.576232 
L 478.261242 47.576232 
L 479.021706 47.218927 
L 479.401938 47.622336 
L 479.78217 47.380291 
L 480.162402 48.452207 
L 480.542634 48.164058 
L 480.922866 48.982403 
L 482.063562 49.501072 
L 482.443794 50.100424 
L 482.824026 49.8238 
L 483.204258 50.330943 
L 483.58449 50.480781 
L 483.964722 51.541172 
L 484.344954 51.875426 
L 484.725186 51.472016 
L 485.105418 52.509355 
L 485.865882 53.55822 
L 486.246114 53.028024 
L 486.626346 52.901239 
L 487.006578 53.350752 
L 487.38681 53.523642 
L 488.147274 52.232731 
L 488.527506 52.094419 
L 488.907738 50.953347 
L 489.28797 50.757405 
L 489.668202 49.673962 
L 490.048434 45.536133 
L 490.808898 35.301056 
L 491.18913 33.180274 
L 491.569362 32.684656 
L 491.949594 31.532058 
L 492.329826 32.016149 
L 492.710058 32.90365 
L 493.470523 32.546345 
L 493.850755 32.926702 
L 494.230987 32.765338 
L 494.611219 33.560631 
L 494.991451 33.410794 
L 495.371683 33.733521 
L 495.751915 34.667126 
L 496.892611 36.119401 
L 497.272843 36.303817 
L 497.653075 37.802195 
L 498.033307 38.539858 
L 498.413539 40.049762 
L 498.793771 40.822004 
L 499.934467 44.10691 
L 499.934467 44.10691 
" clip-path="url(#pcd4575b5b8)" style="fill: none; stroke: #5b5b5b; stroke-width: 1.2; stroke-linecap: square"/>
   </g>
   <g id="patch_3">
    <path d="M 55.410938 102.70375 
L 55.410938 10.30375 
" style="fill: none; stroke: #cccccc; stroke-width: 0.75; stroke-linejoin: miter; stroke-linecap: square"/>
   </g>
   <g id="patch_4">
    <path d="M 62.287408 107.70375 
L 500.314699 107.70375 
" style="fill: none; stroke: #cccccc; stroke-width: 0.75; stroke-linejoin: miter; stroke-linecap: square"/>
   </g>
  </g>
  <g id="axes_2">
   <g id="patch_5">
    <path d="M 57.910938 232.06375 
L 504.310937 232.06375 
L 504.310937 139.66375 
L 57.910938 139.66375 
L 57.910938 232.06375 
z
" style="fill: none"/>
   </g>
   <g id="axes_3">
    <g id="patch_6">
     <path d="M 57.910938 232.06375 
L 504.310937 232.06375 
L 504.310937 232.06375 
L 57.910938 232.06375 
L 57.910938 232.06375 
z
" style="fill: none"/>
    </g>
    <g id="matplotlib.axis_3">
     <g id="xtick_34">
      <g id="line2d_39">
       <path d="M 89.664114 232.06375 
L 89.664114 232.06375 
" clip-path="url(#peb163e3817)" style="fill: none; stroke-dasharray: 0.5,0.825; stroke-dashoffset: 0; stroke: #d9d9d9; stroke-width: 0.5"/>
      </g>
      <g id="text_39">
       <!-- 23 -->
       <g style="fill: #808080" transform="translate(85.151614 263.27125) scale(0.08 -0.08)">
        <use xlink:href="#Ubuntu-Regular-32"/>
        <use xlink:href="#Ubuntu-Regular-33" x="56.399994"/>
       </g>
      </g>
     </g>
     <g id="xtick_35">
      <g id="line2d_40">
       <path d="M 144.417525 232.06375 
L 144.417525 232.06375 
" clip-path="url(#peb163e3817)" style="fill: none; stroke-dasharray: 0.5,0.825; stroke-dashoffset: 0; stroke: #d9d9d9; stroke-width: 0.5"/>
      </g>
      <g id="text_40">
       <!-- 24 -->
       <g style="fill: #808080" transform="translate(139.905025 263.27125) scale(0.08 -0.08)">
        <defs>
         <path id="Ubuntu-Regular-34" d="M 256 1536 
Q 378 1818 589 2192 
Q 800 2566 1065 2963 
Q 1331 3360 1635 3744 
Q 1939 4128 2246 4435 
L 2816 4435 
L 2816 1619 
L 3341 1619 
L 3341 1133 
L 2816 1133 
L 2816 0 
L 2240 0 
L 2240 1133 
L 256 1133 
L 256 1536 
z
M 2240 3731 
Q 2048 3526 1853 3273 
Q 1658 3021 1472 2745 
Q 1286 2470 1123 2182 
Q 960 1894 832 1619 
L 2240 1619 
L 2240 3731 
z
" transform="scale(0.015625)"/>
        </defs>
        <use xlink:href="#Ubuntu-Regular-32"/>
        <use xlink:href="#Ubuntu-Regular-34" x="56.399994"/>
       </g>
      </g>
     </g>
     <g id="xtick_36">
      <g id="line2d_41">
       <path d="M 199.170936 232.06375 
L 199.170936 232.06375 
" clip-path="url(#peb163e3817)" style="fill: none; stroke-dasharray: 0.5,0.825; stroke-dashoffset: 0; stroke: #d9d9d9; stroke-width: 0.5"/>
      </g>
      <g id="text_41">
       <!-- 25 -->
       <g style="fill: #808080" transform="translate(194.658436 263.27125) scale(0.08 -0.08)">
        <use xlink:href="#Ubuntu-Regular-32"/>
        <use xlink:href="#Ubuntu-Regular-35" x="56.399994"/>
       </g>
      </g>
     </g>
     <g id="xtick_37">
      <g id="line2d_42">
       <path d="M 253.924348 232.06375 
L 253.924348 232.06375 
" clip-path="url(#peb163e3817)" style="fill: none; stroke-dasharray: 0.5,0.825; stroke-dashoffset: 0; stroke: #d9d9d9; stroke-width: 0.5"/>
      </g>
      <g id="text_42">
       <!-- 26 -->
       <g style="fill: #808080" transform="translate(249.411848 263.27125) scale(0.08 -0.08)">
        <use xlink:href="#Ubuntu-Regular-32"/>
        <use xlink:href="#Ubuntu-Regular-36" x="56.399994"/>
       </g>
      </g>
     </g>
     <g id="xtick_38">
      <g id="line2d_43">
       <path d="M 308.677759 232.06375 
L 308.677759 232.06375 
" clip-path="url(#peb163e3817)" style="fill: none; stroke-dasharray: 0.5,0.825; stroke-dashoffset: 0; stroke: #d9d9d9; stroke-width: 0.5"/>
      </g>
      <g id="text_43">
       <!-- 27 -->
       <g style="fill: #808080" transform="translate(304.165259 263.27125) scale(0.08 -0.08)">
        <defs>
         <path id="Ubuntu-Regular-37" d="M 1043 0 
Q 1082 512 1226 1078 
Q 1370 1645 1581 2179 
Q 1792 2714 2045 3171 
Q 2298 3629 2541 3917 
L 384 3917 
L 384 4435 
L 3206 4435 
L 3206 3942 
Q 2995 3699 2739 3273 
Q 2483 2848 2256 2320 
Q 2029 1792 1865 1193 
Q 1702 595 1664 0 
L 1043 0 
z
" transform="scale(0.015625)"/>
        </defs>
        <use xlink:href="#Ubuntu-Regular-32"/>
        <use xlink:href="#Ubuntu-Regular-37" x="56.399994"/>
       </g>
      </g>
     </g>
     <g id="xtick_39">
      <g id="line2d_44">
       <path d="M 363.431171 232.06375 
L 363.431171 232.06375 
" clip-path="url(#peb163e3817)" style="fill: none; stroke-dasharray: 0.5,0.825; stroke-dashoffset: 0; stroke: #d9d9d9; stroke-width: 0.5"/>
      </g>
      <g id="text_44">
       <!-- 28 -->
       <g style="fill: #808080" transform="translate(358.918671 263.27125) scale(0.08 -0.08)">
        <use xlink:href="#Ubuntu-Regular-32"/>
        <use xlink:href="#Ubuntu-Regular-38" x="56.399994"/>
       </g>
      </g>
     </g>
     <g id="xtick_40">
      <g id="line2d_45">
       <path d="M 418.184582 232.06375 
L 418.184582 232.06375 
" clip-path="url(#peb163e3817)" style="fill: none; stroke-dasharray: 0.5,0.825; stroke-dashoffset: 0; stroke: #d9d9d9; stroke-width: 0.5"/>
      </g>
      <g id="text_45">
       <!-- 29 -->
       <g style="fill: #808080" transform="translate(413.672082 263.27125) scale(0.08 -0.08)">
        <defs>
         <path id="Ubuntu-Regular-39" d="M 3206 2662 
Q 3206 1344 2550 669 
Q 1894 -6 602 -13 
L 582 486 
Q 986 486 1309 563 
Q 1632 640 1875 809 
Q 2118 979 2281 1248 
Q 2445 1517 2522 1907 
Q 2355 1830 2144 1782 
Q 1933 1734 1709 1734 
Q 1331 1734 1068 1846 
Q 806 1958 640 2147 
Q 474 2336 400 2582 
Q 326 2829 326 3098 
Q 326 3334 409 3590 
Q 493 3846 662 4057 
Q 832 4269 1094 4403 
Q 1357 4538 1715 4538 
Q 2080 4538 2358 4410 
Q 2637 4282 2825 4038 
Q 3014 3795 3110 3446 
Q 3206 3098 3206 2662 
z
M 1773 2221 
Q 1997 2221 2195 2262 
Q 2394 2304 2579 2387 
Q 2586 2458 2586 2525 
Q 2586 2592 2586 2662 
Q 2586 2938 2547 3190 
Q 2509 3443 2409 3632 
Q 2310 3821 2144 3933 
Q 1978 4045 1722 4045 
Q 1510 4045 1363 3955 
Q 1216 3866 1120 3728 
Q 1024 3590 982 3427 
Q 941 3264 941 3110 
Q 941 2675 1149 2448 
Q 1357 2221 1773 2221 
z
" transform="scale(0.015625)"/>
        </defs>
        <use xlink:href="#Ubuntu-Regular-32"/>
        <use xlink:href="#Ubuntu-Regular-39" x="56.399994"/>
       </g>
      </g>
     </g>
     <g id="xtick_41">
      <g id="line2d_46">
       <path d="M 472.937993 232.06375 
L 472.937993 232.06375 
" clip-path="url(#peb163e3817)" style="fill: none; stroke-dasharray: 0.5,0.825; stroke-dashoffset: 0; stroke: #d9d9d9; stroke-width: 0.5"/>
      </g>
      <g id="text_46">
       <!-- 30 -->
       <g style="fill: #808080" transform="translate(468.425493 263.27125) scale(0.08 -0.08)">
        <use xlink:href="#Ubuntu-Regular-33"/>
        <use xlink:href="#Ubuntu-Regular-30" x="56.399994"/>
       </g>
      </g>
     </g>
    </g>
    <g id="matplotlib.axis_4"/>
   </g>
   <g id="matplotlib.axis_5">
    <g id="xtick_42">
     <g id="line2d_47">
      <g>
       <use xlink:href="#ma2e624b668" x="62.287408" y="237.06375" style="fill: #cecece; stroke: #cecece; stroke-width: 0.75"/>
      </g>
     </g>
     <g id="text_47">
      <!-- 00 -->
      <g style="fill: #808080" transform="translate(58.338971 251.495312) scale(0.07 -0.07)">
       <use xlink:href="#Ubuntu-Regular-30"/>
       <use xlink:href="#Ubuntu-Regular-30" x="56.399994"/>
      </g>
     </g>
    </g>
    <g id="xtick_43">
     <g id="line2d_48">
      <g>
       <use xlink:href="#ma2e624b668" x="75.975761" y="237.06375" style="fill: #cecece; stroke: #cecece; stroke-width: 0.75"/>
      </g>
     </g>
     <g id="text_48">
      <!-- 06 -->
      <g style="fill: #808080" transform="translate(72.027323 251.495312) scale(0.07 -0.07)">
       <use xlink:href="#Ubuntu-Regular-30"/>
       <use xlink:href="#Ubuntu-Regular-36" x="56.399994"/>
      </g>
     </g>
    </g>
    <g id="xtick_44">
     <g id="line2d_49">
      <g>
       <use xlink:href="#ma2e624b668" x="89.664114" y="237.06375" style="fill: #cecece; stroke: #cecece; stroke-width: 0.75"/>
      </g>
     </g>
     <g id="text_49">
      <!-- 12 -->
      <g style="fill: #808080" transform="translate(85.715676 251.495312) scale(0.07 -0.07)">
       <use xlink:href="#Ubuntu-Regular-31"/>
       <use xlink:href="#Ubuntu-Regular-32" x="56.399994"/>
      </g>
     </g>
    </g>
    <g id="xtick_45">
     <g id="line2d_50">
      <g>
       <use xlink:href="#ma2e624b668" x="103.352467" y="237.06375" style="fill: #cecece; stroke: #cecece; stroke-width: 0.75"/>
      </g>
     </g>
     <g id="text_50">
      <!-- 18 -->
      <g style="fill: #808080" transform="translate(99.404029 251.495312) scale(0.07 -0.07)">
       <use xlink:href="#Ubuntu-Regular-31"/>
       <use xlink:href="#Ubuntu-Regular-38" x="56.399994"/>
      </g>
     </g>
    </g>
    <g id="xtick_46">
     <g id="line2d_51">
      <g>
       <use xlink:href="#ma2e624b668" x="117.040819" y="237.06375" style="fill: #cecece; stroke: #cecece; stroke-width: 0.75"/>
      </g>
     </g>
     <g id="text_51">
      <!-- 00 -->
      <g style="fill: #808080" transform="translate(113.092382 251.495312) scale(0.07 -0.07)">
       <use xlink:href="#Ubuntu-Regular-30"/>
       <use xlink:href="#Ubuntu-Regular-30" x="56.399994"/>
      </g>
     </g>
    </g>
    <g id="xtick_47">
     <g id="line2d_52">
      <g>
       <use xlink:href="#ma2e624b668" x="130.729172" y="237.06375" style="fill: #cecece; stroke: #cecece; stroke-width: 0.75"/>
      </g>
     </g>
     <g id="text_52">
      <!-- 06 -->
      <g style="fill: #808080" transform="translate(126.780735 251.495312) scale(0.07 -0.07)">
       <use xlink:href="#Ubuntu-Regular-30"/>
       <use xlink:href="#Ubuntu-Regular-36" x="56.399994"/>
      </g>
     </g>
    </g>
    <g id="xtick_48">
     <g id="line2d_53">
      <g>
       <use xlink:href="#ma2e624b668" x="144.417525" y="237.06375" style="fill: #cecece; stroke: #cecece; stroke-width: 0.75"/>
      </g>
     </g>
     <g id="text_53">
      <!-- 12 -->
      <g style="fill: #808080" transform="translate(140.469088 251.495312) scale(0.07 -0.07)">
       <use xlink:href="#Ubuntu-Regular-31"/>
       <use xlink:href="#Ubuntu-Regular-32" x="56.399994"/>
      </g>
     </g>
    </g>
    <g id="xtick_49">
     <g id="line2d_54">
      <g>
       <use xlink:href="#ma2e624b668" x="158.105878" y="237.06375" style="fill: #cecece; stroke: #cecece; stroke-width: 0.75"/>
      </g>
     </g>
     <g id="text_54">
      <!-- 18 -->
      <g style="fill: #808080" transform="translate(154.15744 251.495312) scale(0.07 -0.07)">
       <use xlink:href="#Ubuntu-Regular-31"/>
       <use xlink:href="#Ubuntu-Regular-38" x="56.399994"/>
      </g>
     </g>
    </g>
    <g id="xtick_50">
     <g id="line2d_55">
      <g>
       <use xlink:href="#ma2e624b668" x="171.794231" y="237.06375" style="fill: #cecece; stroke: #cecece; stroke-width: 0.75"/>
      </g>
     </g>
     <g id="text_55">
      <!-- 00 -->
      <g style="fill: #808080" transform="translate(167.845793 251.495312) scale(0.07 -0.07)">
       <use xlink:href="#Ubuntu-Regular-30"/>
       <use xlink:href="#Ubuntu-Regular-30" x="56.399994"/>
      </g>
     </g>
    </g>
    <g id="xtick_51">
     <g id="line2d_56">
      <g>
       <use xlink:href="#ma2e624b668" x="185.482584" y="237.06375" style="fill: #cecece; stroke: #cecece; stroke-width: 0.75"/>
      </g>
     </g>
     <g id="text_56">
      <!-- 06 -->
      <g style="fill: #808080" transform="translate(181.534146 251.495312) scale(0.07 -0.07)">
       <use xlink:href="#Ubuntu-Regular-30"/>
       <use xlink:href="#Ubuntu-Regular-36" x="56.399994"/>
      </g>
     </g>
    </g>
    <g id="xtick_52">
     <g id="line2d_57">
      <g>
       <use xlink:href="#ma2e624b668" x="199.170936" y="237.06375" style="fill: #cecece; stroke: #cecece; stroke-width: 0.75"/>
      </g>
     </g>
     <g id="text_57">
      <!-- 12 -->
      <g style="fill: #808080" transform="translate(195.222499 251.495312) scale(0.07 -0.07)">
       <use xlink:href="#Ubuntu-Regular-31"/>
       <use xlink:href="#Ubuntu-Regular-32" x="56.399994"/>
      </g>
     </g>
    </g>
    <g id="xtick_53">
     <g id="line2d_58">
      <g>
       <use xlink:href="#ma2e624b668" x="212.859289" y="237.06375" style="fill: #cecece; stroke: #cecece; stroke-width: 0.75"/>
      </g>
     </g>
     <g id="text_58">
      <!-- 18 -->
      <g style="fill: #808080" transform="translate(208.910852 251.495312) scale(0.07 -0.07)">
       <use xlink:href="#Ubuntu-Regular-31"/>
       <use xlink:href="#Ubuntu-Regular-38" x="56.399994"/>
      </g>
     </g>
    </g>
    <g id="xtick_54">
     <g id="line2d_59">
      <g>
       <use xlink:href="#ma2e624b668" x="226.547642" y="237.06375" style="fill: #cecece; stroke: #cecece; stroke-width: 0.75"/>
      </g>
     </g>
     <g id="text_59">
      <!-- 00 -->
      <g style="fill: #808080" transform="translate(222.599205 251.495312) scale(0.07 -0.07)">
       <use xlink:href="#Ubuntu-Regular-30"/>
       <use xlink:href="#Ubuntu-Regular-30" x="56.399994"/>
      </g>
     </g>
    </g>
    <g id="xtick_55">
     <g id="line2d_60">
      <g>
       <use xlink:href="#ma2e624b668" x="240.235995" y="237.06375" style="fill: #cecece; stroke: #cecece; stroke-width: 0.75"/>
      </g>
     </g>
     <g id="text_60">
      <!-- 06 -->
      <g style="fill: #808080" transform="translate(236.287557 251.495312) scale(0.07 -0.07)">
       <use xlink:href="#Ubuntu-Regular-30"/>
       <use xlink:href="#Ubuntu-Regular-36" x="56.399994"/>
      </g>
     </g>
    </g>
    <g id="xtick_56">
     <g id="line2d_61">
      <g>
       <use xlink:href="#ma2e624b668" x="253.924348" y="237.06375" style="fill: #cecece; stroke: #cecece; stroke-width: 0.75"/>
      </g>
     </g>
     <g id="text_61">
      <!-- 12 -->
      <g style="fill: #808080" transform="translate(249.97591 251.495312) scale(0.07 -0.07)">
       <use xlink:href="#Ubuntu-Regular-31"/>
       <use xlink:href="#Ubuntu-Regular-32" x="56.399994"/>
      </g>
     </g>
    </g>
    <g id="xtick_57">
     <g id="line2d_62">
      <g>
       <use xlink:href="#ma2e624b668" x="267.612701" y="237.06375" style="fill: #cecece; stroke: #cecece; stroke-width: 0.75"/>
      </g>
     </g>
     <g id="text_62">
      <!-- 18 -->
      <g style="fill: #808080" transform="translate(263.664263 251.495312) scale(0.07 -0.07)">
       <use xlink:href="#Ubuntu-Regular-31"/>
       <use xlink:href="#Ubuntu-Regular-38" x="56.399994"/>
      </g>
     </g>
    </g>
    <g id="xtick_58">
     <g id="line2d_63">
      <g>
       <use xlink:href="#ma2e624b668" x="281.301054" y="237.06375" style="fill: #cecece; stroke: #cecece; stroke-width: 0.75"/>
      </g>
     </g>
     <g id="text_63">
      <!-- 00 -->
      <g style="fill: #808080" transform="translate(277.352616 251.495312) scale(0.07 -0.07)">
       <use xlink:href="#Ubuntu-Regular-30"/>
       <use xlink:href="#Ubuntu-Regular-30" x="56.399994"/>
      </g>
     </g>
    </g>
    <g id="xtick_59">
     <g id="line2d_64">
      <g>
       <use xlink:href="#ma2e624b668" x="294.989406" y="237.06375" style="fill: #cecece; stroke: #cecece; stroke-width: 0.75"/>
      </g>
     </g>
     <g id="text_64">
      <!-- 06 -->
      <g style="fill: #808080" transform="translate(291.040969 251.495312) scale(0.07 -0.07)">
       <use xlink:href="#Ubuntu-Regular-30"/>
       <use xlink:href="#Ubuntu-Regular-36" x="56.399994"/>
      </g>
     </g>
    </g>
    <g id="xtick_60">
     <g id="line2d_65">
      <g>
       <use xlink:href="#ma2e624b668" x="308.677759" y="237.06375" style="fill: #cecece; stroke: #cecece; stroke-width: 0.75"/>
      </g>
     </g>
     <g id="text_65">
      <!-- 12 -->
      <g style="fill: #808080" transform="translate(304.729322 251.495312) scale(0.07 -0.07)">
       <use xlink:href="#Ubuntu-Regular-31"/>
       <use xlink:href="#Ubuntu-Regular-32" x="56.399994"/>
      </g>
     </g>
    </g>
    <g id="xtick_61">
     <g id="line2d_66">
      <g>
       <use xlink:href="#ma2e624b668" x="322.366112" y="237.06375" style="fill: #cecece; stroke: #cecece; stroke-width: 0.75"/>
      </g>
     </g>
     <g id="text_66">
      <!-- 18 -->
      <g style="fill: #808080" transform="translate(318.417675 251.495312) scale(0.07 -0.07)">
       <use xlink:href="#Ubuntu-Regular-31"/>
       <use xlink:href="#Ubuntu-Regular-38" x="56.399994"/>
      </g>
     </g>
    </g>
    <g id="xtick_62">
     <g id="line2d_67">
      <g>
       <use xlink:href="#ma2e624b668" x="336.054465" y="237.06375" style="fill: #cecece; stroke: #cecece; stroke-width: 0.75"/>
      </g>
     </g>
     <g id="text_67">
      <!-- 00 -->
      <g style="fill: #808080" transform="translate(332.106027 251.495312) scale(0.07 -0.07)">
       <use xlink:href="#Ubuntu-Regular-30"/>
       <use xlink:href="#Ubuntu-Regular-30" x="56.399994"/>
      </g>
     </g>
    </g>
    <g id="xtick_63">
     <g id="line2d_68">
      <g>
       <use xlink:href="#ma2e624b668" x="349.742818" y="237.06375" style="fill: #cecece; stroke: #cecece; stroke-width: 0.75"/>
      </g>
     </g>
     <g id="text_68">
      <!-- 06 -->
      <g style="fill: #808080" transform="translate(345.79438 251.495312) scale(0.07 -0.07)">
       <use xlink:href="#Ubuntu-Regular-30"/>
       <use xlink:href="#Ubuntu-Regular-36" x="56.399994"/>
      </g>
     </g>
    </g>
    <g id="xtick_64">
     <g id="line2d_69">
      <g>
       <use xlink:href="#ma2e624b668" x="363.431171" y="237.06375" style="fill: #cecece; stroke: #cecece; stroke-width: 0.75"/>
      </g>
     </g>
     <g id="text_69">
      <!-- 12 -->
      <g style="fill: #808080" transform="translate(359.482733 251.495312) scale(0.07 -0.07)">
       <use xlink:href="#Ubuntu-Regular-31"/>
       <use xlink:href="#Ubuntu-Regular-32" x="56.399994"/>
      </g>
     </g>
    </g>
    <g id="xtick_65">
     <g id="line2d_70">
      <g>
       <use xlink:href="#ma2e624b668" x="377.119523" y="237.06375" style="fill: #cecece; stroke: #cecece; stroke-width: 0.75"/>
      </g>
     </g>
     <g id="text_70">
      <!-- 18 -->
      <g style="fill: #808080" transform="translate(373.171086 251.495312) scale(0.07 -0.07)">
       <use xlink:href="#Ubuntu-Regular-31"/>
       <use xlink:href="#Ubuntu-Regular-38" x="56.399994"/>
      </g>
     </g>
    </g>
    <g id="xtick_66">
     <g id="line2d_71">
      <g>
       <use xlink:href="#ma2e624b668" x="390.807876" y="237.06375" style="fill: #cecece; stroke: #cecece; stroke-width: 0.75"/>
      </g>
     </g>
     <g id="text_71">
      <!-- 00 -->
      <g style="fill: #808080" transform="translate(386.859439 251.495312) scale(0.07 -0.07)">
       <use xlink:href="#Ubuntu-Regular-30"/>
       <use xlink:href="#Ubuntu-Regular-30" x="56.399994"/>
      </g>
     </g>
    </g>
    <g id="xtick_67">
     <g id="line2d_72">
      <g>
       <use xlink:href="#ma2e624b668" x="404.496229" y="237.06375" style="fill: #cecece; stroke: #cecece; stroke-width: 0.75"/>
      </g>
     </g>
     <g id="text_72">
      <!-- 06 -->
      <g style="fill: #808080" transform="translate(400.547792 251.495312) scale(0.07 -0.07)">
       <use xlink:href="#Ubuntu-Regular-30"/>
       <use xlink:href="#Ubuntu-Regular-36" x="56.399994"/>
      </g>
     </g>
    </g>
    <g id="xtick_68">
     <g id="line2d_73">
      <g>
       <use xlink:href="#ma2e624b668" x="418.184582" y="237.06375" style="fill: #cecece; stroke: #cecece; stroke-width: 0.75"/>
      </g>
     </g>
     <g id="text_73">
      <!-- 12 -->
      <g style="fill: #808080" transform="translate(414.236144 251.495312) scale(0.07 -0.07)">
       <use xlink:href="#Ubuntu-Regular-31"/>
       <use xlink:href="#Ubuntu-Regular-32" x="56.399994"/>
      </g>
     </g>
    </g>
    <g id="xtick_69">
     <g id="line2d_74">
      <g>
       <use xlink:href="#ma2e624b668" x="431.872935" y="237.06375" style="fill: #cecece; stroke: #cecece; stroke-width: 0.75"/>
      </g>
     </g>
     <g id="text_74">
      <!-- 18 -->
      <g style="fill: #808080" transform="translate(427.924497 251.495312) scale(0.07 -0.07)">
       <use xlink:href="#Ubuntu-Regular-31"/>
       <use xlink:href="#Ubuntu-Regular-38" x="56.399994"/>
      </g>
     </g>
    </g>
    <g id="xtick_70">
     <g id="line2d_75">
      <g>
       <use xlink:href="#ma2e624b668" x="445.561288" y="237.06375" style="fill: #cecece; stroke: #cecece; stroke-width: 0.75"/>
      </g>
     </g>
     <g id="text_75">
      <!-- 00 -->
      <g style="fill: #808080" transform="translate(441.61285 251.495312) scale(0.07 -0.07)">
       <use xlink:href="#Ubuntu-Regular-30"/>
       <use xlink:href="#Ubuntu-Regular-30" x="56.399994"/>
      </g>
     </g>
    </g>
    <g id="xtick_71">
     <g id="line2d_76">
      <g>
       <use xlink:href="#ma2e624b668" x="459.24964" y="237.06375" style="fill: #cecece; stroke: #cecece; stroke-width: 0.75"/>
      </g>
     </g>
     <g id="text_76">
      <!-- 06 -->
      <g style="fill: #808080" transform="translate(455.301203 251.495312) scale(0.07 -0.07)">
       <use xlink:href="#Ubuntu-Regular-30"/>
       <use xlink:href="#Ubuntu-Regular-36" x="56.399994"/>
      </g>
     </g>
    </g>
    <g id="xtick_72">
     <g id="line2d_77">
      <g>
       <use xlink:href="#ma2e624b668" x="472.937993" y="237.06375" style="fill: #cecece; stroke: #cecece; stroke-width: 0.75"/>
      </g>
     </g>
     <g id="text_77">
      <!-- 12 -->
      <g style="fill: #808080" transform="translate(468.989556 251.495312) scale(0.07 -0.07)">
       <use xlink:href="#Ubuntu-Regular-31"/>
       <use xlink:href="#Ubuntu-Regular-32" x="56.399994"/>
      </g>
     </g>
    </g>
    <g id="xtick_73">
     <g id="line2d_78">
      <g>
       <use xlink:href="#ma2e624b668" x="486.626346" y="237.06375" style="fill: #cecece; stroke: #cecece; stroke-width: 0.75"/>
      </g>
     </g>
     <g id="text_78">
      <!-- 18 -->
      <g style="fill: #808080" transform="translate(482.677909 251.495312) scale(0.07 -0.07)">
       <use xlink:href="#Ubuntu-Regular-31"/>
       <use xlink:href="#Ubuntu-Regular-38" x="56.399994"/>
      </g>
     </g>
    </g>
    <g id="xtick_74">
     <g id="line2d_79">
      <g>
       <use xlink:href="#ma2e624b668" x="500.314699" y="237.06375" style="fill: #cecece; stroke: #cecece; stroke-width: 0.75"/>
      </g>
     </g>
     <g id="text_79">
      <!-- 00 -->
      <g style="fill: #808080" transform="translate(496.366261 251.495312) scale(0.07 -0.07)">
       <use xlink:href="#Ubuntu-Regular-30"/>
       <use xlink:href="#Ubuntu-Regular-30" x="56.399994"/>
      </g>
     </g>
    </g>
   </g>
   <g id="matplotlib.axis_6">
    <g id="ytick_5">
     <g id="line2d_80">
      <g>
       <use xlink:href="#mdefd4bbe82" x="55.410938" y="232.06375" style="fill: #cecece; stroke: #cecece; stroke-width: 0.75"/>
      </g>
     </g>
     <g id="text_80">
      <!-- 5000 -->
      <g style="fill: #808080" transform="translate(28.360938 235.1675) scale(0.08 -0.08)">
       <use xlink:href="#Ubuntu-Regular-35"/>
       <use xlink:href="#Ubuntu-Regular-30" x="56.399994"/>
       <use xlink:href="#Ubuntu-Regular-30" x="112.799988"/>
       <use xlink:href="#Ubuntu-Regular-30" x="169.199982"/>
      </g>
     </g>
    </g>
    <g id="ytick_6">
     <g id="line2d_81">
      <g>
       <use xlink:href="#mdefd4bbe82" x="55.410938" y="208.96375" style="fill: #cecece; stroke: #cecece; stroke-width: 0.75"/>
      </g>
     </g>
     <g id="text_81">
      <!-- 15000 -->
      <g style="fill: #808080" transform="translate(23.848438 212.0675) scale(0.08 -0.08)">
       <use xlink:href="#Ubuntu-Regular-31"/>
       <use xlink:href="#Ubuntu-Regular-35" x="56.399994"/>
       <use xlink:href="#Ubuntu-Regular-30" x="112.799988"/>
       <use xlink:href="#Ubuntu-Regular-30" x="169.199982"/>
       <use xlink:href="#Ubuntu-Regular-30" x="225.599976"/>
      </g>
     </g>
    </g>
    <g id="ytick_7">
     <g id="line2d_82">
      <g>
       <use xlink:href="#mdefd4bbe82" x="55.410938" y="185.86375" style="fill: #cecece; stroke: #cecece; stroke-width: 0.75"/>
      </g>
     </g>
     <g id="text_82">
      <!-- 25000 -->
      <g style="fill: #808080" transform="translate(23.848438 188.9675) scale(0.08 -0.08)">
       <use xlink:href="#Ubuntu-Regular-32"/>
       <use xlink:href="#Ubuntu-Regular-35" x="56.399994"/>
       <use xlink:href="#Ubuntu-Regular-30" x="112.799988"/>
       <use xlink:href="#Ubuntu-Regular-30" x="169.199982"/>
       <use xlink:href="#Ubuntu-Regular-30" x="225.599976"/>
      </g>
     </g>
    </g>
    <g id="ytick_8">
     <g id="line2d_83">
      <g>
       <use xlink:href="#mdefd4bbe82" x="55.410938" y="162.76375" style="fill: #cecece; stroke: #cecece; stroke-width: 0.75"/>
      </g>
     </g>
     <g id="text_83">
      <!-- 35000 -->
      <g style="fill: #808080" transform="translate(23.848438 165.8675) scale(0.08 -0.08)">
       <use xlink:href="#Ubuntu-Regular-33"/>
       <use xlink:href="#Ubuntu-Regular-35" x="56.399994"/>
       <use xlink:href="#Ubuntu-Regular-30" x="112.799988"/>
       <use xlink:href="#Ubuntu-Regular-30" x="169.199982"/>
       <use xlink:href="#Ubuntu-Regular-30" x="225.599976"/>
      </g>
     </g>
    </g>
    <g id="ytick_9">
     <g id="line2d_84">
      <g>
       <use xlink:href="#mdefd4bbe82" x="55.410938" y="139.66375" style="fill: #cecece; stroke: #cecece; stroke-width: 0.75"/>
      </g>
     </g>
     <g id="text_84">
      <!-- 45000 -->
      <g style="fill: #808080" transform="translate(23.848438 142.7675) scale(0.08 -0.08)">
       <use xlink:href="#Ubuntu-Regular-34"/>
       <use xlink:href="#Ubuntu-Regular-35" x="56.399994"/>
       <use xlink:href="#Ubuntu-Regular-30" x="112.799988"/>
       <use xlink:href="#Ubuntu-Regular-30" x="169.199982"/>
       <use xlink:href="#Ubuntu-Regular-30" x="225.599976"/>
      </g>
     </g>
    </g>
    <g id="text_85">
     <!-- Target3 -->
     <g style="fill: #505050" transform="translate(14.156719 173.676719) rotate(-90) scale(0.09 -0.09)">
      <defs>
       <path id="Ubuntu-Bold-33" d="M 1459 -96 
Q 1286 -96 1094 -73 
Q 902 -51 723 -12 
Q 544 26 397 70 
Q 250 115 166 154 
L 352 947 
Q 518 877 777 797 
Q 1037 717 1421 717 
Q 1862 717 2067 883 
Q 2272 1050 2272 1331 
Q 2272 1504 2198 1622 
Q 2125 1741 1997 1814 
Q 1869 1888 1693 1917 
Q 1517 1946 1318 1946 
L 947 1946 
L 947 2714 
L 1370 2714 
Q 1510 2714 1641 2739 
Q 1773 2765 1875 2825 
Q 1978 2886 2038 2992 
Q 2099 3098 2099 3258 
Q 2099 3379 2048 3468 
Q 1997 3558 1917 3616 
Q 1837 3674 1731 3702 
Q 1626 3731 1517 3731 
Q 1242 3731 1008 3648 
Q 774 3565 582 3443 
L 243 4141 
Q 346 4205 483 4275 
Q 621 4346 787 4403 
Q 954 4461 1142 4499 
Q 1331 4538 1542 4538 
Q 1933 4538 2217 4445 
Q 2502 4352 2688 4182 
Q 2874 4013 2963 3785 
Q 3053 3558 3053 3290 
Q 3053 3027 2905 2780 
Q 2758 2534 2509 2406 
Q 2854 2266 3043 1987 
Q 3232 1709 3232 1318 
Q 3232 1011 3129 752 
Q 3027 493 2809 304 
Q 2592 115 2256 9 
Q 1920 -96 1459 -96 
z
" transform="scale(0.015625)"/>
      </defs>
      <use xlink:href="#Ubuntu-Bold-54"/>
      <use xlink:href="#Ubuntu-Bold-61" x="61.399994"/>
      <use xlink:href="#Ubuntu-Bold-72" x="116.699982"/>
      <use xlink:href="#Ubuntu-Bold-67" x="158.899979"/>
      <use xlink:href="#Ubuntu-Bold-65" x="218.299973"/>
      <use xlink:href="#Ubuntu-Bold-74" x="276.699966"/>
      <use xlink:href="#Ubuntu-Bold-33" x="321.09996"/>
     </g>
    </g>
   </g>
   <g id="line2d_85">
    <path d="M 62.287408 179.965218 
L 62.66764 180.606616 
L 63.808336 181.643771 
L 64.5688 181.288955 
L 64.949032 181.384482 
L 65.709496 182.353403 
L 66.850192 181.398129 
L 67.610656 183.663493 
L 67.990888 184.687 
L 68.37112 185.342045 
L 68.751352 186.365553 
L 69.131585 188.044106 
L 71.032745 199.138929 
L 71.412977 200.353492 
L 71.793209 201.172298 
L 72.173441 200.99489 
L 72.553673 201.745462 
L 73.314137 206.985821 
L 73.694369 211.189026 
L 74.074601 212.799345 
L 74.835065 214.600719 
L 75.215297 215.064709 
L 75.595529 214.969181 
L 75.975761 215.296704 
L 77.116457 215.69246 
L 77.876921 215.706107 
L 78.257153 215.460465 
L 79.397849 215.26941 
L 79.778081 215.078356 
L 80.538545 214.164022 
L 80.918777 214.164022 
L 81.679241 213.590858 
L 82.439705 212.048773 
L 82.819937 211.653016 
L 83.200169 211.461962 
L 83.960633 210.001757 
L 84.340865 209.606001 
L 84.721097 208.678021 
L 85.101329 208.5552 
L 85.861794 206.917588 
L 86.622258 206.644652 
L 87.00249 206.412657 
L 87.762954 205.239035 
L 88.143186 204.229174 
L 90.044346 202.318626 
L 90.424578 202.536975 
L 90.80481 202.905437 
L 91.185042 203.082845 
L 91.565274 202.864497 
L 91.945506 202.455094 
L 93.086202 200.025969 
L 93.466434 199.834914 
L 93.846666 199.125282 
L 94.60713 198.702232 
L 94.987362 198.620352 
L 95.367594 198.279183 
L 95.747826 198.156362 
L 96.128058 197.610491 
L 96.888522 197.364849 
L 97.268754 197.460376 
L 98.029218 196.887212 
L 98.40945 196.17758 
L 99.169914 195.659003 
L 99.930378 195.781824 
L 100.31061 196.013819 
L 100.690842 196.109346 
L 101.071074 195.809117 
L 101.451306 195.71359 
L 101.831539 195.495242 
L 102.211771 195.099485 
L 102.592003 194.116918 
L 103.352467 193.584694 
L 103.732699 193.352699 
L 105.253627 189.367842 
L 105.633859 187.047892 
L 106.014091 183.977368 
L 106.774555 175.161556 
L 107.154787 175.598252 
L 107.535019 176.867402 
L 108.675715 174.711212 
L 109.436179 175.175202 
L 109.816411 175.407197 
L 110.196643 174.956854 
L 111.717571 176.280591 
L 112.097803 176.608113 
L 112.478035 176.758228 
L 112.858267 177.099397 
L 113.238499 177.058456 
L 113.618731 177.768088 
L 114.379195 177.822676 
L 114.759427 178.095611 
L 115.900123 179.514875 
L 116.280355 179.583109 
L 117.040819 179.910631 
L 117.421051 180.388268 
L 117.801283 180.661204 
L 118.181516 181.766592 
L 118.561748 181.712005 
L 119.702444 180.702144 
L 120.082676 180.770378 
L 120.462908 180.524736 
L 120.84314 179.910631 
L 121.223372 179.678636 
L 121.603604 179.664989 
L 121.983836 180.224507 
L 122.364068 181.05696 
L 122.7443 182.285169 
L 124.265228 189.54525 
L 125.025692 195.167719 
L 125.786156 198.579412 
L 126.166388 199.671153 
L 126.926852 201.07677 
L 127.307084 202.236746 
L 127.687316 204.065413 
L 128.067548 206.712886 
L 128.44778 210.588568 
L 128.828012 212.171594 
L 129.208244 213.276982 
L 129.968708 214.34143 
L 130.34894 214.30049 
L 131.489636 214.982828 
L 132.2501 214.76448 
L 132.630332 214.72354 
L 133.010564 214.095788 
L 133.771028 214.177669 
L 134.15126 213.795559 
L 134.531493 214.095788 
L 134.911725 213.972967 
L 135.291957 213.577211 
L 136.052421 212.403589 
L 137.573349 210.206459 
L 138.333813 208.855429 
L 138.714045 208.841782 
L 139.094277 208.678021 
L 139.474509 208.200384 
L 140.615205 205.348209 
L 142.136133 202.823557 
L 142.516365 201.677228 
L 144.037293 198.770466 
L 144.417525 198.210949 
L 145.938453 197.010033 
L 146.698917 195.890998 
L 147.079149 195.890998 
L 147.459381 195.345127 
L 147.839613 195.031252 
L 148.219845 194.526321 
L 148.600077 194.335266 
L 148.980309 194.307973 
L 149.360541 193.830336 
L 149.740773 193.571047 
L 150.121005 193.89857 
L 150.88147 193.584694 
L 151.261702 193.066117 
L 151.641934 193.352699 
L 152.022166 193.05247 
L 152.402398 192.411072 
L 153.162862 192.847768 
L 153.543094 192.738594 
L 153.923326 192.315544 
L 154.303558 192.356485 
L 154.68379 192.615773 
L 155.064022 191.933435 
L 155.444254 191.005455 
L 155.824486 190.950868 
L 156.58495 190.241236 
L 156.965182 189.941007 
L 158.105878 188.426215 
L 158.48611 187.539175 
L 158.866342 187.088832 
L 159.246574 186.160852 
L 159.626806 184.727941 
L 160.767502 177.385979 
L 161.527966 171.449634 
L 161.908198 171.695276 
L 162.28843 173.141834 
L 163.048894 171.490575 
L 164.569822 170.849176 
L 164.950054 170.385186 
L 165.330286 170.357893 
L 166.851214 171.940918 
L 167.231447 171.981858 
L 167.611679 172.200207 
L 167.991911 172.131973 
L 168.372143 171.80445 
L 168.752375 172.814311 
L 169.132607 172.964426 
L 170.273303 173.96064 
L 170.653535 174.656625 
L 171.033767 175.079675 
L 171.413999 175.202496 
L 171.794231 175.652839 
L 172.174463 175.680133 
L 172.554695 176.103183 
L 172.934927 176.730934 
L 173.315159 176.949282 
L 173.695391 177.836322 
L 174.075623 178.095611 
L 174.455855 177.836322 
L 174.836087 177.986437 
L 175.216319 177.46786 
L 175.596551 177.331392 
L 175.976783 176.758228 
L 176.357015 176.403412 
L 176.737247 177.46786 
L 177.117479 178.955357 
L 177.497711 181.002373 
L 178.258175 182.844687 
L 178.638407 184.495946 
L 180.159335 193.298112 
L 180.919799 196.150287 
L 182.060495 199.179869 
L 182.440727 201.03583 
L 182.820959 203.983532 
L 183.201191 208.282264 
L 183.961656 211.025265 
L 184.72212 212.403589 
L 185.102352 212.362648 
L 185.482584 212.499116 
L 185.862816 212.376295 
L 186.243048 212.512763 
L 186.62328 212.799345 
L 187.003512 212.840285 
L 187.383744 213.044987 
L 187.763976 212.799345 
L 188.52444 212.731111 
L 188.904672 212.690171 
L 189.284904 212.52641 
L 189.665136 211.994186 
L 190.045368 212.171594 
L 190.4256 212.52641 
L 191.186064 211.625723 
L 191.566296 210.847857 
L 192.32676 209.892583 
L 193.087224 208.705314 
L 193.467456 207.845568 
L 193.847688 206.699239 
L 194.988384 204.58399 
L 195.368616 204.038119 
L 195.748848 203.888005 
L 196.12908 202.455094 
L 196.509312 202.086631 
L 196.889544 202.113925 
L 197.269776 201.731815 
L 197.650008 200.967596 
L 198.03024 200.489959 
L 198.410472 199.76668 
L 198.790704 199.439158 
L 199.170936 198.524824 
L 199.551169 198.060834 
L 200.311633 195.795471 
L 200.691865 195.850058 
L 201.072097 195.454301 
L 201.452329 194.499028 
L 201.832561 194.185152 
L 202.212793 194.035037 
L 202.593025 193.079764 
L 202.973257 192.820475 
L 203.353489 192.697654 
L 203.733721 191.70144 
L 204.113953 191.100982 
L 204.494185 191.27839 
L 204.874417 191.196509 
L 205.254649 190.937221 
L 205.634881 190.486877 
L 206.015113 189.763599 
L 206.395345 189.408783 
L 206.775577 189.531604 
L 207.155809 189.367842 
L 207.536041 188.712797 
L 208.676737 188.589976 
L 209.056969 188.494449 
L 209.437201 188.65821 
L 209.817433 188.357981 
L 210.197665 188.494449 
L 210.577897 188.931146 
L 210.958129 188.794678 
L 212.098825 187.26624 
L 212.479057 187.088832 
L 213.239521 185.983444 
L 213.619753 185.191931 
L 213.999985 183.772667 
L 214.380217 183.076682 
L 215.140681 180.088039 
L 216.281378 169.034156 
L 216.66161 169.498146 
L 217.041842 171.081172 
L 217.422074 169.743788 
L 218.182538 168.6384 
L 218.56277 168.515579 
L 218.943002 167.71042 
L 219.323234 167.191842 
L 219.703466 167.041728 
L 220.083698 166.550444 
L 220.46393 166.809733 
L 220.844162 166.564091 
L 221.224394 166.891613 
L 221.604626 166.373036 
L 221.984858 166.318449 
L 222.36509 166.918907 
L 222.745322 166.86432 
L 223.886018 167.71042 
L 224.26625 167.901474 
L 224.646482 168.556519 
L 225.026714 168.788514 
L 225.406946 169.307092 
L 226.16741 170.630828 
L 226.547642 170.740002 
L 226.927874 171.354107 
L 227.308106 171.667983 
L 228.06857 173.373829 
L 228.829034 175.243436 
L 229.209266 175.994008 
L 229.589498 176.376118 
L 229.96973 177.003869 
L 230.349962 178.041024 
L 230.730194 178.3549 
L 231.110426 178.928064 
L 231.87089 180.579323 
L 232.251123 181.889413 
L 232.631355 182.639985 
L 233.391819 183.731727 
L 233.772051 184.809821 
L 234.152283 186.365553 
L 234.532515 187.402708 
L 235.292979 189.053967 
L 235.673211 190.486877 
L 236.433675 192.452012 
L 236.813907 193.693868 
L 237.574371 198.961521 
L 237.954603 203.205666 
L 238.715067 206.767473 
L 239.095299 206.931234 
L 239.475531 207.367931 
L 239.855763 207.982036 
L 240.235995 207.094996 
L 240.616227 206.535478 
L 241.756923 203.819771 
L 242.517387 203.123786 
L 243.277851 203.2739 
L 243.658083 202.591562 
L 244.038315 202.80991 
L 244.418547 202.441447 
L 244.798779 201.622641 
L 245.179011 201.104064 
L 245.559243 200.312551 
L 245.939475 200.380785 
L 246.319707 200.121496 
L 246.699939 200.039616 
L 247.080171 199.780327 
L 247.460403 200.135143 
L 247.840635 199.971382 
L 248.220867 199.971382 
L 248.6011 200.121496 
L 248.981332 199.671153 
L 249.361564 198.8387 
L 249.741796 199.207163 
L 250.882492 198.41565 
L 251.262724 197.514964 
L 251.642956 197.214735 
L 252.023188 197.678725 
L 252.40342 197.310262 
L 252.783652 197.10556 
L 253.544116 197.214735 
L 254.30458 195.699943 
L 254.684812 195.372421 
L 255.065044 194.703729 
L 255.445276 194.526321 
L 255.825508 194.062331 
L 256.20574 194.853844 
L 256.585972 194.280679 
L 256.966204 194.417147 
L 257.346436 195.358774 
L 257.726668 195.631709 
L 258.1069 195.71359 
L 258.867364 195.563476 
L 259.247596 189.340549 
L 259.627828 196.55969 
L 260.388292 196.382282 
L 260.768524 196.477809 
L 261.148756 196.764391 
L 261.528988 197.228381 
L 261.90922 197.351202 
L 262.289452 197.078267 
L 262.669684 196.546043 
L 263.430148 196.969093 
L 263.81038 197.296615 
L 264.190612 196.969093 
L 264.570844 197.119207 
L 264.951077 197.10556 
L 265.331309 197.269322 
L 265.711541 197.856133 
L 266.091773 198.088128 
L 266.852237 197.815192 
L 267.232469 197.678725 
L 267.612701 197.86978 
L 267.992933 198.470237 
L 269.133629 197.569551 
L 269.513861 197.460376 
L 269.894093 196.573336 
L 270.274325 194.430794 
L 270.654557 191.23745 
L 271.415021 181.616477 
L 272.175485 174.752152 
L 272.555717 173.674058 
L 272.935949 173.701351 
L 273.316181 174.04252 
L 273.696413 174.04252 
L 274.456877 174.410983 
L 274.837109 174.779446 
L 275.217341 174.943207 
L 275.977805 174.902267 
L 276.358037 174.533804 
L 277.498733 175.202496 
L 277.878965 175.557312 
L 278.259197 175.284376 
L 279.019661 175.8166 
L 280.160357 178.368546 
L 280.920821 181.13884 
L 282.44175 184.768881 
L 283.202214 187.484588 
L 283.582446 188.699151 
L 283.962678 190.541464 
L 284.34291 191.087335 
L 285.103374 193.393639 
L 285.483606 193.912216 
L 285.863838 194.676436 
L 286.24407 195.072192 
L 286.624302 196.027466 
L 287.004534 196.368635 
L 287.384766 197.02368 
L 288.14523 196.64157 
L 288.525462 196.232167 
L 289.285926 197.405789 
L 289.666158 198.156362 
L 290.04639 198.442944 
L 290.426622 199.152576 
L 290.806854 200.203377 
L 291.567318 201.431586 
L 291.94755 203.014612 
L 292.327782 205.798552 
L 292.708014 209.715175 
L 293.088246 211.311847 
L 293.468478 212.308061 
L 293.84871 212.485469 
L 294.609174 212.280768 
L 294.989406 212.594644 
L 295.369638 212.758405 
L 296.130102 212.662877 
L 296.510334 212.635584 
L 296.890566 212.744758 
L 297.270798 212.130653 
L 297.651031 212.594644 
L 298.411495 212.157947 
L 298.791727 211.857718 
L 299.552191 210.875151 
L 300.692887 207.518045 
L 301.073119 206.521831 
L 301.453351 206.248896 
L 302.974279 203.123786 
L 303.354511 202.577915 
L 304.114975 200.476312 
L 305.255671 198.251889 
L 306.016135 197.48767 
L 306.396367 196.928152 
L 306.776599 196.696157 
L 307.156831 196.232167 
L 307.537063 196.13664 
L 307.917295 194.744669 
L 308.297527 194.035037 
L 309.057991 193.707515 
L 309.818455 192.438365 
L 310.198687 192.151783 
L 310.578919 192.301898 
L 310.959151 191.387564 
L 311.339383 191.169216 
L 311.719615 191.182863 
L 312.099847 190.636992 
L 313.240543 191.155569 
L 313.620775 191.087335 
L 314.001008 190.623345 
L 314.38124 190.923574 
L 314.761472 191.387564 
L 315.141704 191.483092 
L 315.521936 191.073688 
L 316.662632 191.414858 
L 317.042864 191.851554 
L 317.423096 191.810614 
L 317.803328 191.974375 
L 318.18356 191.933435 
L 318.563792 192.301898 
L 319.704488 192.370132 
L 320.08472 192.288251 
L 320.845184 193.025176 
L 321.98588 192.58848 
L 322.746344 192.779535 
L 323.126576 192.356485 
L 323.506808 192.151783 
L 324.267272 190.964514 
L 324.647504 190.364056 
L 325.407968 185.02817 
L 326.168432 175.598252 
L 326.548664 171.872684 
L 326.928896 170.439773 
L 327.309128 169.620967 
L 327.68936 170.658122 
L 328.069592 170.971997 
L 328.449824 170.862823 
L 329.210288 171.517868 
L 329.59052 171.422341 
L 330.350985 171.667983 
L 331.111449 171.80445 
L 331.491681 171.476928 
L 331.871913 171.640689 
L 332.252145 172.091032 
L 332.632377 172.336674 
L 333.012609 173.469356 
L 333.392841 174.069814 
L 333.773073 175.025088 
L 334.153305 175.31167 
L 334.533537 176.307884 
L 334.913769 178.041024 
L 336.434697 181.166134 
L 336.814929 182.7901 
L 337.195161 183.881841 
L 337.575393 184.386772 
L 337.955625 186.774956 
L 338.335857 188.23516 
L 338.716089 189.204081 
L 339.096321 189.736305 
L 339.856785 191.401211 
L 340.237017 191.78332 
L 340.617249 192.602127 
L 340.997481 193.966804 
L 341.757945 195.2496 
L 342.138177 195.345127 
L 342.518409 195.863704 
L 342.898641 195.740884 
L 343.278873 196.000172 
L 344.039337 197.091914 
L 344.419569 197.719665 
L 345.180033 199.630213 
L 345.560265 199.944088 
L 345.940497 200.408079 
L 346.320729 201.376999 
L 346.700962 202.960024 
L 347.081194 205.552911 
L 347.461426 209.469533 
L 348.22189 211.994186 
L 348.602122 212.52641 
L 348.982354 212.458176 
L 349.362586 212.130653 
L 350.12305 212.512763 
L 350.503282 212.690171 
L 350.883514 212.635584 
L 351.263746 212.349002 
L 351.643978 211.2982 
L 352.02421 210.997972 
L 352.784674 210.138225 
L 353.545138 209.565061 
L 353.92537 208.678021 
L 354.305602 208.336852 
L 354.685834 207.722747 
L 355.82653 204.870572 
L 356.206762 204.038119 
L 356.586994 204.092706 
L 356.967226 203.478602 
L 357.347458 202.332273 
L 358.488154 200.694661 
L 359.248618 200.066909 
L 360.389314 198.183655 
L 361.149778 197.978954 
L 361.53001 197.160148 
L 361.910242 195.931938 
L 362.290474 195.386068 
L 362.670706 195.222306 
L 363.431171 193.51646 
L 363.811403 193.352699 
L 364.191635 192.602127 
L 364.571867 192.424719 
L 364.952099 192.561186 
L 365.712563 191.23745 
L 366.092795 191.114629 
L 366.473027 190.718872 
L 366.853259 190.950868 
L 367.233491 191.005455 
L 367.613723 190.85534 
L 367.993955 190.377703 
L 368.374187 190.173002 
L 369.514883 191.019101 
L 370.275347 191.141922 
L 370.655579 191.633206 
L 371.035811 191.837908 
L 371.416043 191.892495 
L 371.796275 191.769674 
L 372.176507 191.251096 
L 372.556739 191.469445 
L 372.936971 191.551325 
L 373.317203 191.796967 
L 373.697435 191.878848 
L 374.077667 191.592266 
L 374.838131 192.110843 
L 375.598595 191.865201 
L 375.978827 191.578619 
L 376.359059 191.578619 
L 377.119523 192.533893 
L 377.499755 192.370132 
L 378.260219 191.428504 
L 378.640451 191.264743 
L 379.400916 189.163141 
L 380.16138 183.308677 
L 381.302076 171.490575 
L 382.06254 168.338171 
L 382.442772 168.556519 
L 382.823004 168.59746 
L 383.203236 168.460992 
L 383.583468 168.501932 
L 384.343932 168.843101 
L 384.724164 168.774868 
L 385.484628 171.29952 
L 385.86486 171.135759 
L 386.245092 171.3814 
L 387.005556 172.582316 
L 389.286948 177.072103 
L 390.047412 179.378407 
L 391.188108 182.762806 
L 391.56834 183.226796 
L 392.328804 185.150991 
L 392.709036 187.511882 
L 393.4695 189.722658 
L 393.849732 189.736305 
L 394.610196 191.087335 
L 394.990428 192.301898 
L 395.370661 192.411072 
L 396.891589 194.82655 
L 397.271821 195.085839 
L 398.032285 194.771963 
L 398.412517 196.027466 
L 398.792749 196.546043 
L 399.172981 196.723451 
L 399.933445 198.006247 
L 400.313677 198.784113 
L 400.693909 199.166223 
L 401.074141 200.066909 
L 401.454373 201.622641 
L 401.834605 205.170801 
L 402.214837 209.892583 
L 402.595069 211.107146 
L 402.975301 211.925952 
L 403.355533 212.18524 
L 403.735765 212.253474 
L 404.115997 212.007832 
L 404.496229 212.540056 
L 404.876461 212.772052 
L 405.256693 212.430882 
L 405.636925 212.417236 
L 406.397389 211.393728 
L 406.777621 211.707604 
L 407.538085 210.233752 
L 407.918317 209.90623 
L 409.819477 206.39901 
L 410.199709 206.303483 
L 410.960173 205.08892 
L 411.720638 203.110139 
L 412.481102 201.595348 
L 413.241566 199.780327 
L 413.621798 199.179869 
L 414.00203 199.111636 
L 414.762494 197.173794 
L 415.90319 195.358774 
L 416.283422 195.031252 
L 417.043886 193.857629 
L 417.424118 193.461873 
L 417.80435 193.325405 
L 418.184582 193.05247 
L 418.564814 193.107057 
L 419.70551 191.605912 
L 420.085742 191.455798 
L 420.465974 191.510385 
L 420.846206 191.251096 
L 421.226438 190.732519 
L 421.60667 190.89628 
L 421.986902 190.841693 
L 422.367134 190.937221 
L 422.747366 190.295823 
L 423.127598 189.395136 
L 423.50783 189.517957 
L 423.888062 190.132061 
L 424.268294 190.486877 
L 424.648526 190.541464 
L 425.028758 191.060042 
L 425.40899 191.073688 
L 425.789222 190.650639 
L 426.549686 190.828047 
L 426.929918 190.582405 
L 427.31015 190.909927 
L 427.690382 190.609698 
L 428.070615 190.623345 
L 428.450847 190.8144 
L 428.831079 190.746166 
L 429.211311 190.841693 
L 429.971775 190.159355 
L 430.352007 190.500524 
L 430.732239 190.459584 
L 431.112471 190.241236 
L 431.872935 189.299608 
L 432.253167 189.586191 
L 433.013631 188.371628 
L 433.393863 188.753738 
L 433.774095 188.330688 
L 434.154327 187.184359 
L 434.914791 181.725652 
L 435.675255 170.330599 
L 436.055487 167.655832 
L 436.435719 166.304802 
L 436.815951 165.636111 
L 437.956647 165.990927 
L 438.336879 166.44127 
L 438.717111 166.44127 
L 439.477575 167.109962 
L 439.857807 168.611106 
L 440.238039 169.116037 
L 440.618271 168.979569 
L 441.378735 170.003077 
L 441.758967 169.812022 
L 442.139199 170.139544 
L 442.899663 171.34046 
L 443.279895 172.841605 
L 444.420592 174.984148 
L 444.800824 177.113044 
L 446.321752 182.107761 
L 447.462448 184.932642 
L 448.603144 188.19422 
L 448.983376 189.695365 
L 449.74384 191.046395 
L 450.124072 191.578619 
L 450.504304 192.533893 
L 450.884536 193.107057 
L 451.645 194.594555 
L 452.025232 195.099485 
L 452.785696 194.976664 
L 453.926392 196.900859 
L 454.306624 197.02368 
L 455.067088 199.793974 
L 455.827552 200.585487 
L 456.207784 201.813696 
L 456.588016 204.474816 
L 456.968248 208.950956 
L 457.728712 211.666663 
L 458.489176 212.198887 
L 459.629872 212.349002 
L 460.010104 212.130653 
L 460.770569 212.171594 
L 461.150801 212.048773 
L 461.531033 211.038912 
L 461.911265 210.356573 
L 462.291497 209.933524 
L 463.812425 207.62722 
L 464.192657 206.603712 
L 464.953121 205.97596 
L 466.474049 202.714383 
L 467.614745 200.762895 
L 467.994977 199.370924 
L 468.375209 199.111636 
L 468.755441 198.320123 
L 469.135673 196.586983 
L 469.515905 196.300401 
L 469.896137 196.314048 
L 470.656601 194.840197 
L 471.797297 193.666575 
L 472.177529 192.793181 
L 473.698457 191.851554 
L 474.078689 192.260957 
L 475.979849 191.182863 
L 476.360081 190.664285 
L 476.740313 190.882634 
L 477.120546 191.728733 
L 477.88101 191.865201 
L 478.261242 191.892495 
L 478.641474 192.179077 
L 479.401938 192.12449 
L 479.78217 192.069903 
L 480.162402 192.329191 
L 480.542634 193.01153 
L 481.303098 192.506599 
L 481.68333 192.62942 
L 482.443794 192.083549 
L 482.824026 192.438365 
L 483.58449 192.16543 
L 483.964722 192.110843 
L 484.344954 191.919788 
L 484.725186 191.988022 
L 485.105418 192.356485 
L 485.48565 192.151783 
L 485.865882 191.27839 
L 486.246114 191.756027 
L 486.626346 191.524032 
L 487.38681 190.200295 
L 487.767042 189.668071 
L 488.907738 187.320827 
L 489.28797 185.150991 
L 489.668202 182.121408 
L 490.428666 171.326813 
L 490.808898 167.560305 
L 491.18913 166.468564 
L 491.569362 166.100101 
L 491.949594 166.004573 
L 492.329826 166.127394 
L 492.710058 167.014434 
L 493.09029 167.178196 
L 493.470523 167.041728 
L 493.850755 167.205489 
L 494.230987 167.83324 
L 494.611219 167.846887 
L 495.751915 169.14333 
L 496.132147 168.829455 
L 496.512379 169.075096 
L 496.892611 169.757435 
L 497.272843 171.272226 
L 497.653075 171.859037 
L 498.793771 174.793093 
L 499.554235 176.58082 
L 499.934467 177.617974 
L 499.934467 177.617974 
" clip-path="url(#pda795d09bf)" style="fill: none; stroke: #5b5b5b; stroke-width: 1.2; stroke-linecap: square"/>
   </g>
   <g id="patch_7">
    <path d="M 55.410938 232.06375 
L 55.410938 139.66375 
" style="fill: none; stroke: #cccccc; stroke-width: 0.75; stroke-linejoin: miter; stroke-linecap: square"/>
   </g>
   <g id="patch_8">
    <path d="M 62.287408 237.06375 
L 500.314699 237.06375 
" style="fill: none; stroke: #cccccc; stroke-width: 0.75; stroke-linejoin: miter; stroke-linecap: square"/>
   </g>
  </g>
 </g>
 <defs>
  <clipPath id="pcd4575b5b8">
   <rect x="57.910938" y="10.30375" width="446.4" height="92.4"/>
  </clipPath>
  <clipPath id="peb163e3817">
   <rect x="57.910938" y="232.06375" width="446.4" height="0"/>
  </clipPath>
  <clipPath id="pda795d09bf">
   <rect x="57.910938" y="139.66375" width="446.4" height="92.4"/>
  </clipPath>
 </defs>
</svg>
