<?xml version="1.0" encoding="utf-8" standalone="no"?>
<!DOCTYPE svg PUBLIC "-//W3C//DTD SVG 1.1//EN"
  "http://www.w3.org/Graphics/SVG/1.1/DTD/svg11.dtd">
<svg xmlns:xlink="http://www.w3.org/1999/xlink" width="621.585037pt" height="215.535pt" viewBox="0 0 621.585037 215.535" xmlns="http://www.w3.org/2000/svg" version="1.1">
 <metadata>
  <rdf:RDF xmlns:dc="http://purl.org/dc/elements/1.1/" xmlns:cc="http://creativecommons.org/ns#" xmlns:rdf="http://www.w3.org/1999/02/22-rdf-syntax-ns#">
   <cc:Work>
    <dc:type rdf:resource="http://purl.org/dc/dcmitype/StillImage"/>
    <dc:date>2024-04-14T11:12:27.402313</dc:date>
    <dc:format>image/svg+xml</dc:format>
    <dc:creator>
     <cc:Agent>
      <dc:title>Matplotlib v3.8.3, https://matplotlib.org/</dc:title>
     </cc:Agent>
    </dc:creator>
   </cc:Work>
  </rdf:RDF>
 </metadata>
 <defs>
  <style type="text/css">*{stroke-linejoin: round; stroke-linecap: butt}</style>
 </defs>
 <g id="figure_1">
  <g id="patch_1">
   <path d="M 0 215.535 
L 621.585037 215.535 
L 621.585037 0 
L 0 0 
L 0 215.535 
z
" style="fill: none"/>
  </g>
  <g id="axes_1">
   <g id="patch_2">
    <path d="M 48.7625 70.78375 
L 606.7625 70.78375 
L 606.7625 10.30375 
L 48.7625 10.30375 
L 48.7625 70.78375 
z
" style="fill: none"/>
   </g>
   <g id="matplotlib.axis_1">
    <g id="xtick_1">
     <g id="line2d_1">
      <defs>
       <path id="mdfd4b16c30" d="M 0 0 
L 0 3 
" style="stroke: #aaaaaa; stroke-width: 0.75"/>
      </defs>
      <g>
       <use xlink:href="#mdfd4b16c30" x="54.233088" y="85.78375" style="fill: #aaaaaa; stroke: #aaaaaa; stroke-width: 0.75"/>
      </g>
     </g>
     <g id="text_1">
      <!-- 04-01 -->
      <g style="fill: #808080" transform="translate(44.011838 100.99125) scale(0.08 -0.08)">
       <defs>
        <path id="Ubuntu-30" d="M 320 2221 
Q 320 3334 713 3936 
Q 1107 4538 1805 4538 
Q 2502 4538 2896 3936 
Q 3290 3334 3290 2221 
Q 3290 1107 2896 505 
Q 2502 -96 1805 -96 
Q 1107 -96 713 505 
Q 320 1107 320 2221 
z
M 2662 2221 
Q 2662 2586 2620 2912 
Q 2579 3238 2480 3481 
Q 2381 3725 2214 3869 
Q 2048 4013 1805 4013 
Q 1562 4013 1395 3869 
Q 1229 3725 1129 3481 
Q 1030 3238 988 2912 
Q 947 2586 947 2221 
Q 947 1856 988 1529 
Q 1030 1203 1129 960 
Q 1229 717 1395 573 
Q 1562 429 1805 429 
Q 2048 429 2214 573 
Q 2381 717 2480 960 
Q 2579 1203 2620 1529 
Q 2662 1856 2662 2221 
z
" transform="scale(0.015625)"/>
        <path id="Ubuntu-34" d="M 256 1536 
Q 378 1818 589 2192 
Q 800 2566 1065 2963 
Q 1331 3360 1635 3744 
Q 1939 4128 2246 4435 
L 2816 4435 
L 2816 1619 
L 3341 1619 
L 3341 1133 
L 2816 1133 
L 2816 0 
L 2240 0 
L 2240 1133 
L 256 1133 
L 256 1536 
z
M 2240 3731 
Q 2048 3526 1853 3273 
Q 1658 3021 1472 2745 
Q 1286 2470 1123 2182 
Q 960 1894 832 1619 
L 2240 1619 
L 2240 3731 
z
" transform="scale(0.015625)"/>
        <path id="Ubuntu-2d" d="M 166 2195 
L 1747 2195 
L 1747 1638 
L 166 1638 
L 166 2195 
z
" transform="scale(0.015625)"/>
        <path id="Ubuntu-31" d="M 595 3520 
Q 960 3661 1305 3881 
Q 1651 4102 1939 4435 
L 2362 4435 
L 2362 0 
L 1766 0 
L 1766 3610 
Q 1690 3539 1578 3462 
Q 1466 3386 1334 3315 
Q 1203 3245 1059 3181 
Q 915 3117 781 3072 
L 595 3520 
z
" transform="scale(0.015625)"/>
       </defs>
       <use xlink:href="#Ubuntu-30"/>
       <use xlink:href="#Ubuntu-34" x="56.399994"/>
       <use xlink:href="#Ubuntu-2d" x="112.799988"/>
       <use xlink:href="#Ubuntu-30" x="142.699982"/>
       <use xlink:href="#Ubuntu-31" x="199.099976"/>
      </g>
     </g>
    </g>
    <g id="xtick_2">
     <g id="line2d_2">
      <g>
       <use xlink:href="#mdfd4b16c30" x="127.191153" y="85.78375" style="fill: #aaaaaa; stroke: #aaaaaa; stroke-width: 0.75"/>
      </g>
     </g>
     <g id="text_2">
      <!-- 04-05 -->
      <g style="fill: #808080" transform="translate(116.969903 100.99125) scale(0.08 -0.08)">
       <defs>
        <path id="Ubuntu-35" d="M 1274 2726 
Q 2240 2688 2691 2304 
Q 3142 1920 3142 1261 
Q 3142 966 3043 716 
Q 2944 467 2742 288 
Q 2541 109 2233 6 
Q 1926 -96 1504 -96 
Q 1338 -96 1165 -70 
Q 992 -45 845 -6 
Q 698 32 582 70 
Q 467 109 416 134 
L 531 653 
Q 640 602 886 518 
Q 1133 435 1491 435 
Q 1779 435 1974 499 
Q 2170 563 2291 672 
Q 2413 781 2467 925 
Q 2522 1069 2522 1229 
Q 2522 1472 2438 1661 
Q 2355 1850 2144 1978 
Q 1933 2106 1581 2173 
Q 1229 2240 691 2240 
Q 730 2554 752 2829 
Q 774 3104 793 3366 
Q 813 3629 825 3888 
Q 838 4147 851 4435 
L 2989 4435 
L 2989 3930 
L 1370 3930 
Q 1363 3834 1350 3670 
Q 1338 3507 1325 3331 
Q 1312 3155 1299 2988 
Q 1286 2822 1274 2726 
z
" transform="scale(0.015625)"/>
       </defs>
       <use xlink:href="#Ubuntu-30"/>
       <use xlink:href="#Ubuntu-34" x="56.399994"/>
       <use xlink:href="#Ubuntu-2d" x="112.799988"/>
       <use xlink:href="#Ubuntu-30" x="142.699982"/>
       <use xlink:href="#Ubuntu-35" x="199.099976"/>
      </g>
     </g>
    </g>
    <g id="xtick_3">
     <g id="line2d_3">
      <g>
       <use xlink:href="#mdfd4b16c30" x="200.149218" y="85.78375" style="fill: #aaaaaa; stroke: #aaaaaa; stroke-width: 0.75"/>
      </g>
     </g>
     <g id="text_3">
      <!-- 04-09 -->
      <g style="fill: #808080" transform="translate(189.927968 100.99125) scale(0.08 -0.08)">
       <defs>
        <path id="Ubuntu-39" d="M 3206 2662 
Q 3206 1344 2550 669 
Q 1894 -6 602 -13 
L 582 486 
Q 986 486 1309 563 
Q 1632 640 1875 809 
Q 2118 979 2281 1248 
Q 2445 1517 2522 1907 
Q 2355 1830 2144 1782 
Q 1933 1734 1709 1734 
Q 1331 1734 1068 1846 
Q 806 1958 640 2147 
Q 474 2336 400 2582 
Q 326 2829 326 3098 
Q 326 3334 409 3590 
Q 493 3846 662 4057 
Q 832 4269 1094 4403 
Q 1357 4538 1715 4538 
Q 2080 4538 2358 4410 
Q 2637 4282 2825 4038 
Q 3014 3795 3110 3446 
Q 3206 3098 3206 2662 
z
M 1773 2221 
Q 1997 2221 2195 2262 
Q 2394 2304 2579 2387 
Q 2586 2458 2586 2525 
Q 2586 2592 2586 2662 
Q 2586 2938 2547 3190 
Q 2509 3443 2409 3632 
Q 2310 3821 2144 3933 
Q 1978 4045 1722 4045 
Q 1510 4045 1363 3955 
Q 1216 3866 1120 3728 
Q 1024 3590 982 3427 
Q 941 3264 941 3110 
Q 941 2675 1149 2448 
Q 1357 2221 1773 2221 
z
" transform="scale(0.015625)"/>
       </defs>
       <use xlink:href="#Ubuntu-30"/>
       <use xlink:href="#Ubuntu-34" x="56.399994"/>
       <use xlink:href="#Ubuntu-2d" x="112.799988"/>
       <use xlink:href="#Ubuntu-30" x="142.699982"/>
       <use xlink:href="#Ubuntu-39" x="199.099976"/>
      </g>
     </g>
    </g>
    <g id="xtick_4">
     <g id="line2d_4">
      <g>
       <use xlink:href="#mdfd4b16c30" x="273.107283" y="85.78375" style="fill: #aaaaaa; stroke: #aaaaaa; stroke-width: 0.75"/>
      </g>
     </g>
     <g id="text_4">
      <!-- 04-13 -->
      <g style="fill: #808080" transform="translate(262.886033 100.99125) scale(0.08 -0.08)">
       <defs>
        <path id="Ubuntu-33" d="M 1446 435 
Q 2016 435 2262 659 
Q 2509 883 2509 1261 
Q 2509 1504 2406 1670 
Q 2304 1837 2137 1936 
Q 1971 2035 1750 2076 
Q 1530 2118 1299 2118 
L 1146 2118 
L 1146 2605 
L 1357 2605 
Q 1517 2605 1686 2637 
Q 1856 2669 1997 2752 
Q 2138 2835 2227 2979 
Q 2317 3123 2317 3341 
Q 2317 3520 2253 3648 
Q 2189 3776 2083 3859 
Q 1978 3942 1840 3977 
Q 1702 4013 1549 4013 
Q 1242 4013 1027 3923 
Q 813 3834 666 3738 
L 435 4192 
Q 512 4243 630 4304 
Q 749 4365 896 4416 
Q 1043 4467 1212 4502 
Q 1382 4538 1568 4538 
Q 1920 4538 2176 4451 
Q 2432 4365 2598 4208 
Q 2765 4051 2848 3836 
Q 2931 3622 2931 3373 
Q 2931 3027 2732 2780 
Q 2534 2534 2253 2406 
Q 2426 2355 2586 2259 
Q 2746 2163 2864 2016 
Q 2982 1869 3056 1677 
Q 3130 1485 3130 1248 
Q 3130 960 3030 713 
Q 2931 467 2723 288 
Q 2515 109 2201 6 
Q 1888 -96 1459 -96 
Q 1293 -96 1117 -70 
Q 941 -45 787 -6 
Q 634 32 518 70 
Q 403 109 352 134 
L 467 653 
Q 576 602 829 518 
Q 1082 435 1446 435 
z
" transform="scale(0.015625)"/>
       </defs>
       <use xlink:href="#Ubuntu-30"/>
       <use xlink:href="#Ubuntu-34" x="56.399994"/>
       <use xlink:href="#Ubuntu-2d" x="112.799988"/>
       <use xlink:href="#Ubuntu-31" x="142.699982"/>
       <use xlink:href="#Ubuntu-33" x="199.099976"/>
      </g>
     </g>
    </g>
    <g id="xtick_5">
     <g id="line2d_5">
      <g>
       <use xlink:href="#mdfd4b16c30" x="346.065348" y="85.78375" style="fill: #aaaaaa; stroke: #aaaaaa; stroke-width: 0.75"/>
      </g>
     </g>
     <g id="text_5">
      <!-- 04-17 -->
      <g style="fill: #808080" transform="translate(335.844098 100.99125) scale(0.08 -0.08)">
       <defs>
        <path id="Ubuntu-37" d="M 1043 0 
Q 1082 512 1226 1078 
Q 1370 1645 1581 2179 
Q 1792 2714 2045 3171 
Q 2298 3629 2541 3917 
L 384 3917 
L 384 4435 
L 3206 4435 
L 3206 3942 
Q 2995 3699 2739 3273 
Q 2483 2848 2256 2320 
Q 2029 1792 1865 1193 
Q 1702 595 1664 0 
L 1043 0 
z
" transform="scale(0.015625)"/>
       </defs>
       <use xlink:href="#Ubuntu-30"/>
       <use xlink:href="#Ubuntu-34" x="56.399994"/>
       <use xlink:href="#Ubuntu-2d" x="112.799988"/>
       <use xlink:href="#Ubuntu-31" x="142.699982"/>
       <use xlink:href="#Ubuntu-37" x="199.099976"/>
      </g>
     </g>
    </g>
    <g id="xtick_6">
     <g id="line2d_6">
      <g>
       <use xlink:href="#mdfd4b16c30" x="419.023413" y="85.78375" style="fill: #aaaaaa; stroke: #aaaaaa; stroke-width: 0.75"/>
      </g>
     </g>
     <g id="text_6">
      <!-- 04-21 -->
      <g style="fill: #808080" transform="translate(408.802163 100.99125) scale(0.08 -0.08)">
       <defs>
        <path id="Ubuntu-32" d="M 2989 3302 
Q 2989 3072 2896 2857 
Q 2803 2643 2649 2435 
Q 2496 2227 2304 2025 
Q 2112 1824 1920 1632 
Q 1811 1523 1667 1376 
Q 1523 1229 1395 1069 
Q 1267 909 1180 761 
Q 1094 614 1094 506 
L 3136 506 
L 3136 0 
L 448 0 
Q 442 38 442 76 
Q 442 115 442 147 
Q 442 448 541 707 
Q 640 966 800 1196 
Q 960 1427 1158 1632 
Q 1357 1837 1549 2029 
Q 1709 2182 1853 2332 
Q 1997 2483 2109 2633 
Q 2221 2784 2288 2944 
Q 2355 3104 2355 3283 
Q 2355 3475 2294 3609 
Q 2234 3744 2131 3833 
Q 2029 3923 1891 3964 
Q 1754 4006 1600 4006 
Q 1414 4006 1260 3955 
Q 1107 3904 985 3837 
Q 864 3770 781 3696 
Q 698 3622 653 3584 
L 358 4006 
Q 416 4070 531 4163 
Q 646 4256 806 4339 
Q 966 4422 1164 4480 
Q 1363 4538 1594 4538 
Q 2291 4538 2640 4214 
Q 2989 3891 2989 3302 
z
" transform="scale(0.015625)"/>
       </defs>
       <use xlink:href="#Ubuntu-30"/>
       <use xlink:href="#Ubuntu-34" x="56.399994"/>
       <use xlink:href="#Ubuntu-2d" x="112.799988"/>
       <use xlink:href="#Ubuntu-32" x="142.699982"/>
       <use xlink:href="#Ubuntu-31" x="199.099976"/>
      </g>
     </g>
    </g>
    <g id="xtick_7">
     <g id="line2d_7">
      <g>
       <use xlink:href="#mdfd4b16c30" x="491.981478" y="85.78375" style="fill: #aaaaaa; stroke: #aaaaaa; stroke-width: 0.75"/>
      </g>
     </g>
     <g id="text_7">
      <!-- 04-25 -->
      <g style="fill: #808080" transform="translate(481.760228 100.99125) scale(0.08 -0.08)">
       <use xlink:href="#Ubuntu-30"/>
       <use xlink:href="#Ubuntu-34" x="56.399994"/>
       <use xlink:href="#Ubuntu-2d" x="112.799988"/>
       <use xlink:href="#Ubuntu-32" x="142.699982"/>
       <use xlink:href="#Ubuntu-35" x="199.099976"/>
      </g>
     </g>
    </g>
    <g id="xtick_8">
     <g id="line2d_8">
      <g>
       <use xlink:href="#mdfd4b16c30" x="564.939543" y="85.78375" style="fill: #aaaaaa; stroke: #aaaaaa; stroke-width: 0.75"/>
      </g>
     </g>
     <g id="text_8">
      <!-- 04-29 -->
      <g style="fill: #808080" transform="translate(554.718293 100.99125) scale(0.08 -0.08)">
       <use xlink:href="#Ubuntu-30"/>
       <use xlink:href="#Ubuntu-34" x="56.399994"/>
       <use xlink:href="#Ubuntu-2d" x="112.799988"/>
       <use xlink:href="#Ubuntu-32" x="142.699982"/>
       <use xlink:href="#Ubuntu-39" x="199.099976"/>
      </g>
     </g>
    </g>
    <g id="xtick_9">
     <g id="line2d_9">
      <g>
       <use xlink:href="#mdfd4b16c30" x="601.418575" y="85.78375" style="fill: #aaaaaa; stroke: #aaaaaa; stroke-width: 0.75"/>
      </g>
     </g>
     <g id="text_9">
      <!-- 05-01 -->
      <g style="fill: #808080" transform="translate(591.197325 100.99125) scale(0.08 -0.08)">
       <use xlink:href="#Ubuntu-30"/>
       <use xlink:href="#Ubuntu-35" x="56.399994"/>
       <use xlink:href="#Ubuntu-2d" x="112.799988"/>
       <use xlink:href="#Ubuntu-30" x="142.699982"/>
       <use xlink:href="#Ubuntu-31" x="199.099976"/>
      </g>
     </g>
    </g>
   </g>
   <g id="matplotlib.axis_2">
    <g id="ytick_1">
     <g id="line2d_10">
      <defs>
       <path id="m9ab7166de8" d="M 0 0 
L -3 0 
" style="stroke: #aaaaaa; stroke-width: 0.75"/>
      </defs>
      <g>
       <use xlink:href="#m9ab7166de8" x="38.7625" y="67.00375" style="fill: #aaaaaa; stroke: #aaaaaa; stroke-width: 0.75"/>
      </g>
     </g>
     <g id="text_10">
      <!-- 20000 -->
      <g style="fill: #808080" transform="translate(7.2 70.1075) scale(0.08 -0.08)">
       <use xlink:href="#Ubuntu-32"/>
       <use xlink:href="#Ubuntu-30" x="56.399994"/>
       <use xlink:href="#Ubuntu-30" x="112.799988"/>
       <use xlink:href="#Ubuntu-30" x="169.199982"/>
       <use xlink:href="#Ubuntu-30" x="225.599976"/>
      </g>
     </g>
    </g>
    <g id="ytick_2">
     <g id="line2d_11">
      <g>
       <use xlink:href="#m9ab7166de8" x="38.7625" y="48.10375" style="fill: #aaaaaa; stroke: #aaaaaa; stroke-width: 0.75"/>
      </g>
     </g>
     <g id="text_11">
      <!-- 30000 -->
      <g style="fill: #808080" transform="translate(7.2 51.2075) scale(0.08 -0.08)">
       <use xlink:href="#Ubuntu-33"/>
       <use xlink:href="#Ubuntu-30" x="56.399994"/>
       <use xlink:href="#Ubuntu-30" x="112.799988"/>
       <use xlink:href="#Ubuntu-30" x="169.199982"/>
       <use xlink:href="#Ubuntu-30" x="225.599976"/>
      </g>
     </g>
    </g>
    <g id="ytick_3">
     <g id="line2d_12">
      <g>
       <use xlink:href="#m9ab7166de8" x="38.7625" y="29.20375" style="fill: #aaaaaa; stroke: #aaaaaa; stroke-width: 0.75"/>
      </g>
     </g>
     <g id="text_12">
      <!-- 40000 -->
      <g style="fill: #808080" transform="translate(7.2 32.3075) scale(0.08 -0.08)">
       <use xlink:href="#Ubuntu-34"/>
       <use xlink:href="#Ubuntu-30" x="56.399994"/>
       <use xlink:href="#Ubuntu-30" x="112.799988"/>
       <use xlink:href="#Ubuntu-30" x="169.199982"/>
       <use xlink:href="#Ubuntu-30" x="225.599976"/>
      </g>
     </g>
    </g>
    <g id="ytick_4">
     <g id="line2d_13">
      <g>
       <use xlink:href="#m9ab7166de8" x="38.7625" y="10.30375" style="fill: #aaaaaa; stroke: #aaaaaa; stroke-width: 0.75"/>
      </g>
     </g>
     <g id="text_13">
      <!-- 50000 -->
      <g style="fill: #808080" transform="translate(7.2 13.4075) scale(0.08 -0.08)">
       <use xlink:href="#Ubuntu-35"/>
       <use xlink:href="#Ubuntu-30" x="56.399994"/>
       <use xlink:href="#Ubuntu-30" x="112.799988"/>
       <use xlink:href="#Ubuntu-30" x="169.199982"/>
       <use xlink:href="#Ubuntu-30" x="225.599976"/>
      </g>
     </g>
    </g>
   </g>
   <g id="line2d_14">
    <path d="M 54.233088 50.992826 
L 54.613078 53.711496 
L 55.246395 57.602007 
L 55.373058 57.976996 
L 55.499721 58.000433 
L 55.753048 59.266021 
L 55.879711 59.359768 
L 56.006375 59.312894 
L 56.133038 59.758194 
L 56.386364 59.594136 
L 56.639691 60.367551 
L 56.893018 59.922252 
L 57.019681 60.203493 
L 57.146344 60.109746 
L 57.399671 58.984779 
L 57.526334 58.984779 
L 57.779661 54.297416 
L 57.906324 54.789589 
L 58.032987 55.914556 
L 58.159651 55.516131 
L 58.286314 55.984867 
L 58.919631 60.039436 
L 59.046294 59.828504 
L 59.299621 59.945688 
L 59.426284 60.297241 
L 59.67961 57.484823 
L 59.806274 58.844158 
L 59.932937 58.820721 
L 60.312927 52.914644 
L 62.086213 38.313509 
L 62.212877 38.38382 
L 62.33954 38.829119 
L 62.466203 38.501004 
L 62.846193 36.133886 
L 62.972856 36.063575 
L 63.09952 36.157322 
L 63.352846 35.782333 
L 63.47951 35.80577 
L 63.606173 35.641713 
L 63.732836 35.055792 
L 64.112826 37.376037 
L 64.239489 37.586968 
L 64.366153 37.469784 
L 64.492816 36.883864 
L 64.619479 38.477567 
L 65.126133 39.063487 
L 65.506123 42.157147 
L 65.759449 42.555573 
L 66.012776 41.664974 
L 66.139439 41.571226 
L 66.266102 41.641537 
L 66.392766 42.250894 
L 66.519429 42.0634 
L 66.772756 43.000872 
L 67.026082 43.657103 
L 67.152746 43.633666 
L 67.532735 44.078965 
L 67.786062 43.188367 
L 68.039389 41.243111 
L 68.292715 36.649496 
L 68.799369 20.243726 
L 68.926032 19.212506 
L 69.052695 19.212506 
L 69.179358 19.376564 
L 69.306022 18.603149 
L 69.432685 18.626586 
L 69.559348 18.767207 
L 69.686012 19.25938 
L 69.812675 18.673459 
L 69.939338 18.790643 
L 70.066002 19.423437 
L 70.699318 25.07171 
L 70.825981 25.540446 
L 71.585961 35.383908 
L 72.472604 48.086661 
L 72.725931 50.828768 
L 72.979258 52.844334 
L 73.485911 57.531697 
L 73.612574 57.766065 
L 73.865901 59.05509 
L 74.119227 59.500389 
L 74.499217 61.25815 
L 74.625881 61.492518 
L 74.879207 61.351897 
L 75.005871 61.515955 
L 75.512524 61.398771 
L 75.76585 60.812851 
L 76.019177 57.976996 
L 76.272504 59.805068 
L 76.52583 60.484735 
L 76.779157 64.586178 
L 77.032484 67.351722 
L 77.159147 67.609527 
L 77.28581 68.382941 
L 77.539137 67.750147 
L 77.6658 67.211101 
L 77.792463 66.03926 
L 77.919127 66.156444 
L 78.04579 65.593961 
L 78.299117 63.484647 
L 78.42578 65.312719 
L 79.059096 58.141054 
L 79.18576 57.930122 
L 79.439086 53.359944 
L 79.94574 49.516306 
L 80.199066 49.281938 
L 80.452393 50.969389 
L 80.705719 49.399122 
L 80.832383 49.188191 
L 81.339036 47.641361 
L 81.465699 47.711672 
L 81.592363 48.156971 
L 81.845689 47.688235 
L 81.972352 46.164842 
L 82.099016 46.492957 
L 82.479006 45.438301 
L 82.605669 45.649232 
L 82.985659 47.477303 
L 83.112322 47.594488 
L 83.745639 49.516306 
L 83.872302 49.469433 
L 84.378955 50.500652 
L 84.505619 51.039699 
L 84.632282 50.641273 
L 84.758945 50.735021 
L 84.885609 52.328724 
L 85.012272 52.070919 
L 85.138935 52.469345 
L 85.265598 52.234977 
L 85.518925 52.914644 
L 85.645588 53.547438 
L 85.898915 53.336507 
L 86.152242 52.539655 
L 86.278905 51.69593 
L 86.658895 43.493045 
L 87.038885 29.290336 
L 87.292211 26.266987 
L 87.418875 25.821688 
L 87.672201 25.751377 
L 87.925528 24.509226 
L 88.558844 26.360734 
L 88.685508 26.17324 
L 88.812171 26.056056 
L 89.825478 38.805682 
L 90.332131 46.164842 
L 90.585457 49.258501 
L 91.092111 54.602095 
L 91.598764 58.398859 
L 91.85209 59.383205 
L 92.105417 60.531609 
L 92.23208 60.367551 
L 92.358744 60.508172 
L 92.61207 61.234713 
L 92.738734 61.094092 
L 92.99206 61.539392 
L 93.118724 60.953471 
L 93.245387 61.281587 
L 93.37205 61.070655 
L 93.498713 61.234713 
L 93.75204 59.922252 
L 93.878703 60.109746 
L 94.005367 59.71132 
L 94.258693 58.164491 
L 94.51202 59.1254 
L 94.638683 59.266021 
L 94.765347 58.891032 
L 95.145336 61.726886 
L 95.272 61.515955 
L 95.65199 59.734757 
L 95.905316 60.508172 
L 96.158643 58.02387 
L 96.665296 54.438037 
L 97.298613 49.399122 
L 97.425276 49.352249 
L 98.058593 42.813378 
L 98.565246 39.274419 
L 98.691909 38.219762 
L 98.818572 38.149452 
L 99.071899 37.563531 
L 99.198562 37.376037 
L 99.325226 36.532311 
L 99.451889 36.672932 
L 99.578552 36.602622 
L 99.705215 36.180759 
L 99.831879 36.227633 
L 99.958542 36.087012 
L 100.085205 36.344817 
L 100.211869 36.25107 
L 100.465195 37.891647 
L 100.591859 38.149452 
L 100.718522 37.610405 
L 100.971849 38.96974 
L 101.225175 38.993177 
L 101.605165 40.165018 
L 101.858492 40.58688 
L 102.111818 41.782158 
L 102.365145 42.391515 
L 102.618472 43.188367 
L 102.745135 43.118056 
L 102.998461 44.125839 
L 103.125125 44.008655 
L 103.251788 44.500828 
L 103.378451 44.19615 
L 103.631778 45.086748 
L 103.758441 44.828944 
L 104.138431 43.352424 
L 104.265095 43.071183 
L 104.518421 41.664974 
L 104.771748 37.329163 
L 105.405064 20.196852 
L 105.531728 20.149979 
L 105.658391 19.91561 
L 105.911718 20.267163 
L 106.038381 20.173415 
L 106.165044 20.36091 
L 107.305014 29.85282 
L 108.064994 41.055617 
L 108.571647 47.664798 
L 109.711617 57.273892 
L 110.091607 58.328548 
L 110.344933 59.500389 
L 110.724923 60.367551 
L 111.104913 60.414425 
L 111.231576 60.555046 
L 111.484903 60.273804 
L 111.611566 60.390988 
L 111.73823 60.344114 
L 111.991556 60.531609 
L 112.11822 60.461298 
L 112.244883 60.062872 
L 112.49821 57.742628 
L 112.751536 58.656664 
L 112.878199 58.750411 
L 113.004863 58.984779 
L 113.131526 59.500389 
L 113.384853 61.562829 
L 113.511516 61.422208 
L 113.891506 59.898815 
L 114.144833 60.320677 
L 114.398159 57.695754 
L 114.524822 57.742628 
L 114.778149 55.703625 
L 115.284802 50.758457 
L 115.664792 48.696018 
L 115.791456 48.180408 
L 116.044782 46.446084 
L 117.058089 40.00096 
L 117.184752 39.790029 
L 117.818068 37.047921 
L 117.944732 36.040138 
L 118.071395 37.329163 
L 118.198058 37.329163 
L 118.451385 37.704152 
L 118.704712 39.790029 
L 118.831375 39.579097 
L 119.338028 41.266548 
L 119.464691 41.03218 
L 119.591355 41.196237 
L 119.718018 41.54779 
L 119.844681 41.008743 
L 119.971345 41.289985 
L 120.351335 43.305551 
L 120.477998 43.024309 
L 120.731324 43.23524 
L 120.857988 43.305551 
L 121.237978 45.321117 
L 121.364641 45.274243 
L 121.491304 45.016438 
L 121.744631 43.938345 
L 121.871294 44.172713 
L 122.251284 43.938345 
L 122.377947 43.23524 
L 122.504611 43.188367 
L 122.757937 42.0634 
L 123.137927 34.352688 
L 123.517917 20.712462 
L 123.771244 19.657806 
L 123.897907 19.400001 
L 124.40456 20.618715 
L 124.531224 21.368693 
L 124.657887 20.94683 
L 125.797857 31.001223 
L 126.811163 47.641361 
L 127.06449 50.195974 
L 127.571143 54.297416 
L 128.077796 57.836375 
L 128.20446 57.766065 
L 128.457786 59.078526 
L 128.58445 59.406642 
L 128.711113 59.383205 
L 128.837776 60.015999 
L 128.964439 59.969125 
L 129.091103 60.086309 
L 129.217766 60.578482 
L 129.344429 60.15662 
L 129.597756 60.109746 
L 129.851083 60.859724 
L 130.231073 59.71132 
L 130.357736 59.664447 
L 130.484399 58.726974 
L 130.611062 56.687971 
L 130.737726 56.570787 
L 130.991052 58.281675 
L 131.244379 58.562916 
L 131.624369 61.84407 
L 131.751032 61.703449 
L 132.004359 59.875378 
L 132.131022 60.320677 
L 132.257685 60.297241 
L 132.384349 60.578482 
L 133.144329 54.766153 
L 133.524319 52.234977 
L 134.157635 47.453867 
L 134.410962 45.133622 
L 134.790952 43.399298 
L 135.170941 40.750938 
L 135.297605 39.836902 
L 135.424268 40.118144 
L 135.677595 38.852556 
L 135.930921 38.266636 
L 136.057585 37.376037 
L 136.310911 37.821336 
L 136.437575 38.641625 
L 136.564238 37.821336 
L 136.690901 39.532224 
L 136.944228 38.149452 
L 137.197554 38.594751 
L 137.324218 38.477567 
L 137.704208 39.579097 
L 138.464187 41.875905 
L 138.717514 41.969652 
L 138.970841 42.930562 
L 139.097504 42.391515 
L 139.350831 42.743067 
L 139.604157 44.219586 
L 139.730821 43.282114 
L 139.984147 44.19615 
L 140.11081 44.289897 
L 140.4908 42.977435 
L 140.617464 42.883688 
L 140.744127 43.305551 
L 140.87079 42.953998 
L 140.997454 41.969652 
L 141.377444 35.055792 
L 141.757433 21.110888 
L 142.01076 19.821863 
L 142.137423 19.77499 
L 142.39075 20.196852 
L 142.644077 20.43122 
L 143.404056 24.649847 
L 144.417363 37.961957 
L 144.924016 45.649232 
L 145.937323 54.977084 
L 146.317313 57.273892 
L 146.443976 57.555133 
L 146.950629 60.367551 
L 147.077292 59.992562 
L 147.203956 59.969125 
L 147.457282 60.531609 
L 147.710609 60.062872 
L 147.963936 61.023782 
L 148.090599 60.648793 
L 148.217262 60.625356 
L 148.470589 59.570699 
L 148.597252 59.594136 
L 148.723915 59.19571 
L 148.850579 57.602007 
L 148.977242 57.812938 
L 149.230569 59.05509 
L 149.357232 58.305111 
L 149.610559 60.22693 
L 149.863885 62.500301 
L 150.370538 60.062872 
L 150.497202 60.508172 
L 150.623865 60.22693 
L 150.877192 57.57857 
L 151.130518 56.758282 
L 151.383845 54.531784 
L 151.510508 54.438037 
L 151.637171 53.852117 
L 152.397151 45.414864 
L 152.903804 41.641537 
L 153.537121 40.047834 
L 154.170438 37.094795 
L 154.297101 36.930737 
L 154.423764 36.110449 
L 154.550427 36.157322 
L 154.677091 36.508875 
L 154.803754 36.297943 
L 154.930417 36.32138 
L 155.437071 38.196325 
L 155.563734 38.266636 
L 155.817061 38.735372 
L 156.070387 40.399386 
L 156.19705 40.680628 
L 156.323714 40.329075 
L 156.450377 40.774375 
L 156.57704 40.797812 
L 156.703704 41.008743 
L 156.95703 41.899342 
L 157.083694 41.782158 
L 157.210357 42.086836 
L 157.33702 41.969652 
L 157.463684 42.227457 
L 157.71701 44.149276 
L 157.843673 44.055529 
L 157.970337 43.399298 
L 158.097 43.657103 
L 158.223663 43.633666 
L 158.350327 43.961781 
L 158.47699 43.727413 
L 158.730317 42.579009 
L 158.85698 42.414952 
L 158.983643 42.0634 
L 159.110307 42.157147 
L 159.490296 36.790116 
L 159.61696 33.860515 
L 159.99695 20.032795 
L 160.123613 19.048448 
L 160.630266 19.939047 
L 160.883593 19.798426 
L 161.770236 25.259204 
L 162.783542 38.547877 
L 163.670186 50.07879 
L 164.556829 57.203581 
L 164.810155 58.000433 
L 165.063482 58.750411 
L 165.316809 59.875378 
L 165.570135 60.250367 
L 165.823462 59.898815 
L 166.076788 60.297241 
L 166.203452 60.273804 
L 166.330115 59.781631 
L 166.456778 59.781631 
L 166.583442 59.992562 
L 166.710105 59.734757 
L 166.963432 58.726974 
L 167.090095 56.875466 
L 167.470085 58.562916 
L 167.596748 58.820721 
L 167.723411 58.656664 
L 167.976738 61.18784 
L 168.230065 61.750323 
L 168.483391 59.758194 
L 168.736718 60.390988 
L 168.863381 60.555046 
L 168.990045 60.086309 
L 169.243371 58.211364 
L 169.370034 58.750411 
L 169.876688 51.684212 
L 170.003351 50.137382 
L 170.130014 46.375773 
L 170.256678 46.364055 
L 170.636667 45.063312 
L 171.143321 39.028332 
L 171.523311 36.860427 
L 171.649974 36.754961 
L 171.776637 37.188542 
L 171.903301 35.934673 
L 172.029964 35.922954 
L 172.156627 35.489373 
L 172.28329 34.516745 
L 172.409954 34.422998 
L 172.536617 34.692522 
L 172.66328 34.645648 
L 172.789944 38.875993 
L 172.916607 39.2627 
L 173.42326 42.42667 
L 173.549924 42.321204 
L 173.80325 41.829031 
L 174.056577 42.286049 
L 174.309903 42.508699 
L 174.689893 43.715695 
L 174.94322 44.629731 
L 175.069883 44.664886 
L 175.196547 44.465673 
L 175.576536 44.910972 
L 175.7032 45.133622 
L 175.829863 44.981283 
L 175.956526 44.653167 
L 176.08319 44.817225 
L 176.209853 44.758633 
L 176.336516 44.85238 
L 176.46318 45.157059 
L 176.716506 44.875817 
L 176.84317 45.227369 
L 176.969833 45.157059 
L 177.223159 44.067247 
L 177.349823 44.524265 
L 177.476486 43.914908 
L 177.856476 37.762744 
L 178.236466 24.286576 
L 178.489793 21.7554 
L 178.869782 22.810057 
L 178.996446 22.610844 
L 179.123109 22.681155 
L 179.376436 21.966332 
L 180.263079 29.044249 
L 180.389742 28.973939 
L 180.516405 29.11456 
L 180.896395 35.946391 
L 181.909702 50.102227 
L 182.796345 56.54735 
L 183.176335 57.73091 
L 183.809651 59.687883 
L 184.062978 60.027717 
L 184.316305 59.629291 
L 184.442968 59.64101 
L 184.696295 59.430079 
L 184.822958 59.64101 
L 185.076285 59.101963 
L 185.329611 56.54735 
L 185.582938 57.742628 
L 185.962928 58.773848 
L 186.342918 64.773672 
L 186.469581 64.12916 
L 186.976234 62.711232 
L 187.102897 62.500301 
L 187.989541 55.316918 
L 188.622857 49.246783 
L 188.876184 47.418711 
L 189.12951 44.770352 
L 189.636164 42.168865 
L 189.88949 40.87984 
L 190.016153 40.211891 
L 190.142817 40.528288 
L 190.522807 39.075206 
L 190.64947 39.567379 
L 190.776133 38.958022 
L 191.02946 38.993177 
L 191.282787 40.340794 
L 191.40945 39.672845 
L 191.662776 39.579097 
L 191.916103 39.825184 
L 192.16943 40.633754 
L 192.296093 40.247046 
L 192.422756 41.172801 
L 192.54942 41.266548 
L 192.676083 41.161082 
L 192.92941 41.864187 
L 193.182736 43.844597 
L 193.436063 44.184431 
L 193.562726 45.016438 
L 193.689389 44.969564 
L 193.816053 44.688323 
L 194.069379 45.473456 
L 194.322706 46.000784 
L 194.449369 45.742979 
L 194.702696 46.270308 
L 194.829359 46.246871 
L 194.956022 45.696106 
L 195.209349 46.10625 
L 195.716002 43.727413 
L 195.969329 40.58688 
L 196.222656 33.204284 
L 196.475982 24.755313 
L 196.729309 23.665501 
L 196.855972 23.395977 
L 197.109299 22.774902 
L 197.235962 22.915523 
L 197.489289 23.478006 
L 197.615952 23.349104 
L 197.869279 25.177175 
L 197.995942 25.399825 
L 198.882585 32.290248 
L 200.655871 54.027893 
L 201.162525 56.980931 
L 201.289188 57.367639 
L 201.542514 58.785566 
L 201.669178 59.019934 
L 201.922504 59.805068 
L 202.175831 59.875378 
L 202.429158 60.555046 
L 202.555821 60.660511 
L 202.682484 61.094092 
L 202.809148 61.129248 
L 202.935811 60.801132 
L 203.062474 61.070655 
L 203.315801 60.379269 
L 203.569127 58.293393 
L 203.695791 58.551198 
L 203.949117 60.133183 
L 204.202444 61.410489 
L 204.582434 66.672054 
L 204.709097 66.988451 
L 204.83576 66.988451 
L 204.962424 67.375158 
L 205.089087 67.152509 
L 205.469077 65.675989 
L 205.59574 65.488495 
L 205.849067 63.742452 
L 205.97573 63.414337 
L 206.229057 59.1254 
L 206.989037 52.621684 
L 207.1157 52.024045 
L 207.49569 48.942104 
L 207.749016 46.645297 
L 207.87568 47.852293 
L 208.002343 47.992913 
L 208.129006 47.781982 
L 208.382333 46.492957 
L 208.508996 46.446084 
L 208.63566 46.270308 
L 208.888986 45.227369 
L 209.142313 45.180496 
L 209.268976 45.52033 
L 209.395639 45.203933 
L 209.522303 45.29768 
L 209.775629 44.184431 
L 209.902293 43.868034 
L 210.028956 44.125839 
L 210.155619 44.008655 
L 210.282283 44.360207 
L 210.408946 44.254742 
L 211.168926 46.727325 
L 211.548916 48.719455 
L 211.675579 48.625707 
L 211.928906 49.04757 
L 212.308896 49.832703 
L 212.562222 50.617837 
L 213.068875 48.696018 
L 213.322202 47.184343 
L 213.828855 45.438301 
L 214.335508 37.926802 
L 214.715498 28.259116 
L 214.842162 27.977874 
L 215.095488 27.087276 
L 215.222152 26.876344 
L 215.475478 25.294359 
L 215.728805 25.528727 
L 215.855468 25.130302 
L 215.982131 25.36467 
L 216.868775 31.270747 
L 217.122101 34.130038 
L 218.388734 51.40297 
L 219.022051 54.988802 
L 219.402041 57.449668 
L 219.528704 57.531697 
L 219.782031 58.187927 
L 220.035357 59.183992 
L 220.162021 58.973061 
L 220.415347 60.121465 
L 220.668674 60.613638 
L 220.922 60.414425 
L 221.30199 59.840223 
L 221.428654 59.137118 
L 221.555317 59.41836 
L 221.808644 57.461386 
L 222.06197 59.547263 
L 222.315297 59.945688 
L 222.44196 60.906598 
L 222.82195 65.101787 
L 222.948613 64.926011 
L 223.20194 65.066632 
L 224.7219 53.969301 
L 225.608543 44.48911 
L 226.241859 39.356448 
L 226.368523 41.700129 
L 226.495186 49.199909 
L 226.621849 49.164754 
L 226.748513 48.485086 
L 227.001839 44.817225 
L 227.128502 44.957846 
L 227.635156 40.680628 
L 228.015146 38.430693 
L 228.268472 38.711935 
L 228.395136 38.571314 
L 228.521799 37.809618 
L 228.648462 38.102578 
L 229.155115 40.540007 
L 229.281779 40.551725 
L 229.408442 40.973588 
L 229.661769 42.145428 
L 229.915095 42.766504 
L 230.295085 40.270483 
L 230.801738 41.301703 
L 230.928402 40.774375 
L 231.181728 41.805595 
L 231.435055 43.305551 
L 231.688382 43.5282 
L 231.941708 41.676692 
L 232.068371 41.770439 
L 232.321698 37.833055 
L 232.575025 33.954262 
L 232.955015 23.454569 
L 233.081678 22.751465 
L 233.208341 22.974115 
L 233.335005 22.845212 
L 233.461668 22.435068 
L 233.588331 22.481942 
L 233.968321 23.981898 
L 234.348311 25.188894 
L 234.601638 27.216178 
L 234.728301 27.813817 
L 234.981628 30.21609 
L 235.108291 30.684826 
L 235.741607 39.274419 
L 235.994934 43.106338 
L 236.628251 50.500652 
L 237.261567 55.188015 
L 237.514894 56.500477 
L 237.641557 56.734845 
L 237.894884 58.516043 
L 238.021547 59.101963 
L 238.14821 59.1254 
L 238.781527 60.683948 
L 238.90819 60.344114 
L 239.161517 60.660511 
L 239.414843 60.262085 
L 239.66817 59.523826 
L 239.794833 59.078526 
L 239.921496 57.402794 
L 240.04816 57.543415 
L 240.42815 59.34805 
L 240.554813 59.512107 
L 240.681476 60.332396 
L 241.061466 64.949448 
L 241.314793 65.629116 
L 241.568119 64.586178 
L 241.948109 61.539392 
L 242.074773 58.644945 
L 242.201436 59.289458 
L 242.328099 58.691819 
L 242.581426 56.77 
L 242.708089 57.355921 
L 243.214742 50.899078 
L 243.468069 48.860076 
L 243.721396 47.160907 
L 244.101386 43.387579 
L 244.734702 38.946303 
L 244.861365 39.110361 
L 244.988029 38.711935 
L 245.114692 39.168953 
L 245.241355 37.809618 
L 245.368019 38.887711 
L 245.621345 38.313509 
L 245.874672 38.911148 
L 246.254662 38.360383 
L 246.381325 38.758809 
L 246.507988 40.047834 
L 246.761315 39.321292 
L 247.014642 39.063487 
L 247.141305 40.856404 
L 247.267968 39.55566 
L 247.394632 39.731437 
L 247.521295 39.602534 
L 248.027948 41.653255 
L 248.154611 41.676692 
L 248.281275 41.887623 
L 248.407938 41.723566 
L 248.661265 41.700129 
L 248.914591 42.35636 
L 249.294581 43.399298 
L 249.547908 44.688323 
L 249.801234 44.137558 
L 249.927898 44.26646 
L 250.181224 44.125839 
L 250.307888 44.114121 
L 250.814541 37.493221 
L 251.321194 22.118671 
L 251.574521 21.661653 
L 251.701184 21.790556 
L 251.954511 22.833494 
L 252.207837 23.044425 
L 252.461164 22.868649 
L 252.587827 23.243638 
L 252.967817 25.868561 
L 253.221144 28.177087 
L 253.47447 29.887975 
L 253.981124 36.192478 
L 254.867767 48.883512 
L 256.1344 57.297328 
L 256.387726 58.269956 
L 256.51439 58.492606 
L 256.641053 58.187927 
L 256.767716 58.38714 
L 256.89438 59.043371 
L 257.021043 58.926187 
L 257.147706 59.453515 
L 257.27437 59.465234 
L 257.527696 59.148837 
L 257.781023 58.516043 
L 258.161013 56.090333 
L 258.287676 56.54735 
L 259.427646 64.597896 
L 259.554309 64.351809 
L 259.680972 64.351809 
L 259.934299 63.086221 
L 260.060962 62.992474 
L 260.314289 60.191775 
L 260.440952 60.121465 
L 260.694279 57.695754 
L 260.820942 57.2153 
L 261.074269 54.730997 
L 261.327595 51.742804 
L 261.580922 49.949887 
L 262.847555 40.094707 
L 262.974218 39.872057 
L 263.227545 38.524441 
L 263.354208 39.356448 
L 263.860862 37.668997 
L 263.987525 37.891647 
L 264.114188 37.704152 
L 264.240851 38.055704 
L 264.494178 37.610405 
L 264.747505 38.852556 
L 264.874168 38.758809 
L 265.127495 39.848621 
L 265.254158 39.438476 
L 265.380821 39.696281 
L 265.507485 39.333011 
L 265.634148 39.567379 
L 266.140801 41.922779 
L 266.267464 41.758721 
L 266.520791 41.641537 
L 266.647454 41.981371 
L 266.774118 42.672757 
L 266.900781 42.567291 
L 267.027444 42.039963 
L 267.280771 43.094619 
L 267.534097 43.364143 
L 267.787424 44.383644 
L 267.914087 44.430518 
L 268.040751 44.348489 
L 268.167414 44.711759 
L 268.294077 44.371926 
L 268.547404 45.051593 
L 268.800731 43.153211 
L 269.18072 34.962045 
L 269.434047 25.048273 
L 269.56071 23.489725 
L 269.687374 23.384259 
L 269.814037 22.681155 
L 269.9407 22.739747 
L 270.194027 23.536598 
L 270.32069 23.642064 
L 270.447354 24.321731 
L 270.574017 23.548317 
L 270.70068 23.735811 
L 271.587323 29.102842 
L 272.347303 39.204108 
L 272.727293 44.418799 
L 272.853956 45.461738 
L 273.107283 49.27022 
L 274.247253 56.863747 
L 274.753906 58.656664 
L 274.880569 58.586353 
L 275.133896 59.183992 
L 275.260559 58.961342 
L 275.513886 59.547263 
L 275.640549 59.359768 
L 275.767212 58.914469 
L 275.893876 58.996497 
L 276.020539 59.277739 
L 276.273866 58.293393 
L 276.400529 56.77 
L 276.527192 56.840311 
L 276.780519 58.328548 
L 276.907182 58.363703 
L 277.033845 58.738693 
L 277.540499 65.101787 
L 277.667162 64.961167 
L 277.920489 64.328373 
L 278.047152 64.504149 
L 278.300479 63.027629 
L 278.553805 60.062872 
L 278.807132 58.961342 
L 279.187122 55.715344 
L 279.567112 52.129511 
L 280.073765 49.422559 
L 280.453755 45.742979 
L 280.707081 43.996937 
L 280.960408 41.770439 
L 281.087071 41.758721 
L 281.593725 39.239263 
L 281.720388 39.461913 
L 282.100378 37.715871 
L 282.227041 38.079141 
L 282.353704 37.715871 
L 282.607031 37.950239 
L 282.733694 38.020549 
L 282.860358 37.844773 
L 282.987021 37.961957 
L 283.113684 37.786181 
L 283.493674 38.852556 
L 283.620337 38.442412 
L 283.873664 38.524441 
L 284.000327 38.735372 
L 284.253654 44.26646 
L 284.506981 40.715783 
L 284.886971 40.950151 
L 285.393624 42.953998 
L 285.520287 43.996937 
L 285.773614 42.953998 
L 286.02694 44.160994 
L 286.153604 44.500828 
L 286.280267 44.278178 
L 286.40693 44.313334 
L 286.533594 44.160994 
L 286.660257 44.19615 
L 286.78692 44.055529 
L 287.040247 41.653255 
L 287.293573 37.751026 
L 287.92689 21.532751 
L 288.180217 21.673372 
L 288.30688 21.649935 
L 288.433543 22.224137 
L 288.560206 22.048361 
L 288.68687 22.282729 
L 288.813533 22.915523 
L 288.940196 22.868649 
L 289.06686 23.372541 
L 290.206829 33.579273 
L 291.093473 44.793788 
L 291.853452 51.953735 
L 292.486769 55.902838 
L 292.993422 58.199646 
L 293.120085 58.070743 
L 293.373412 58.434014 
L 293.500075 58.211364 
L 293.753402 59.148837 
L 293.880065 58.516043 
L 294.006729 58.633227 
L 294.133392 59.008216 
L 294.386719 58.117617 
L 294.513382 57.355921 
L 294.640045 55.89112 
L 294.766708 56.359856 
L 295.020035 58.305111 
L 295.146698 57.976996 
L 295.273362 58.621508 
L 295.780015 64.363528 
L 296.413331 63.039348 
L 296.919985 59.699602 
L 297.046648 59.664447 
L 297.299975 58.351985 
L 297.426638 58.797285 
L 297.933291 52.199821 
L 298.186618 50.195974 
L 299.453251 40.317357 
L 299.579914 40.047834 
L 299.706577 40.270483 
L 300.086567 38.665062 
L 300.339894 38.278354 
L 300.719884 40.844685 
L 300.973211 42.13371 
L 301.226537 43.036027 
L 301.479864 40.715783 
L 301.606527 40.352512 
L 301.859854 41.184519 
L 301.986517 41.243111 
L 302.366507 42.227457 
L 302.49317 42.379797 
L 302.746497 43.036027 
L 302.87316 42.930562 
L 302.999823 43.246959 
L 303.126487 44.172713 
L 303.379813 43.328987 
L 303.63314 42.953998 
L 303.759803 43.188367 
L 303.886467 43.118056 
L 304.01313 43.539919 
L 304.266457 45.555485 
L 304.39312 45.391427 
L 304.646446 45.742979 
L 304.77311 45.602358 
L 305.026436 46.235152 
L 305.1531 45.907037 
L 305.279763 44.993001 
L 305.53309 40.961869 
L 306.039743 24.532663 
L 306.166406 24.485789 
L 306.419733 23.665501 
L 306.673059 24.345168 
L 306.799723 23.782685 
L 307.053049 24.274858 
L 307.179713 24.04049 
L 307.306376 24.251421 
L 307.813029 26.946655 
L 308.193019 30.087188 
L 308.573009 34.469872 
L 309.966305 52.188103 
L 310.599622 55.680188 
L 310.726285 55.89112 
L 310.979612 57.484823 
L 311.232938 58.398859 
L 311.359602 58.562916 
L 311.866255 59.875378 
L 311.992918 59.687883 
L 312.372908 58.726974 
L 312.499571 59.1254 
L 312.626235 59.1254 
L 312.879561 57.250455 
L 313.006225 57.625444 
L 313.259551 58.820721 
L 313.386215 58.844158 
L 313.512878 59.781631 
L 313.892868 65.00804 
L 314.019531 65.734581 
L 314.146194 65.547087 
L 314.272858 65.570524 
L 314.779511 64.211189 
L 315.032838 62.195623 
L 315.919481 55.070831 
L 316.046144 53.781806 
L 316.172807 54.8599 
L 316.426134 51.531872 
L 316.932787 47.172625 
L 317.312777 44.711759 
L 317.43944 45.227369 
L 317.692767 43.000872 
L 317.946094 40.914996 
L 318.072757 40.680628 
L 318.326084 39.907213 
L 318.57941 39.368166 
L 318.9594 40.258765 
L 319.086063 40.118144 
L 319.33939 41.336858 
L 319.466053 40.446259 
L 319.592717 40.985306 
L 319.71938 40.844685 
L 320.226033 41.946215 
L 320.47936 42.274331 
L 320.986013 43.469608 
L 321.366003 42.883688 
L 321.61933 43.985218 
L 322.125983 46.000784 
L 322.379309 45.81329 
L 322.505973 45.508611 
L 322.759299 46.188279 
L 323.139289 45.696106 
L 323.519279 43.727413 
L 323.772606 39.719718 
L 324.405922 23.07958 
L 324.532586 23.431133 
L 324.785912 22.915523 
L 324.912576 23.126454 
L 325.039239 23.571753 
L 325.292566 23.149891 
L 325.419229 23.267075 
L 325.672555 25.14202 
L 325.799219 25.048273 
L 326.305872 28.89191 
L 326.559199 30.930913 
L 326.812525 34.422998 
L 327.192515 37.516658 
L 327.319178 38.89943 
L 327.699168 45.29768 
L 328.079158 50.172537 
L 329.092465 57.742628 
L 329.725781 59.500389 
L 329.979108 59.945688 
L 330.105771 59.617573 
L 330.232434 59.992562 
L 330.485761 59.875378 
L 330.739088 60.625356 
L 330.865751 60.273804 
L 331.119078 58.60979 
L 331.499068 59.945688 
L 331.625731 60.086309 
L 331.879057 63.133095 
L 332.132384 67.539216 
L 332.385711 68.406378 
L 332.512374 68.61731 
L 332.765701 67.539216 
L 333.019027 67.375158 
L 333.272354 66.648617 
L 333.52568 65.312719 
L 333.652344 65.476776 
L 335.42563 51.414688 
L 335.552293 51.719367 
L 335.678957 49.914732 
L 335.932283 50.219411 
L 336.18561 46.680452 
L 336.312273 46.938257 
L 336.692263 45.461738 
L 336.818926 45.36799 
L 336.94559 45.8836 
L 337.072253 45.672669 
L 337.32558 45.836727 
L 337.578906 46.657015 
L 337.70557 46.516394 
L 337.832233 46.164842 
L 338.212223 46.680452 
L 338.338886 46.446084 
L 338.718876 47.360119 
L 339.098866 49.094444 
L 339.478856 50.383468 
L 339.605519 50.524089 
L 339.732183 50.360032 
L 339.858846 50.781894 
L 339.985509 50.430342 
L 340.492162 50.570963 
L 340.745489 51.672493 
L 340.872152 51.203757 
L 340.998816 51.18032 
L 341.378806 49.797548 
L 341.505469 49.750674 
L 341.758795 47.477303 
L 342.138785 38.946303 
L 342.392112 28.8216 
L 342.645439 25.774814 
L 343.025429 24.649847 
L 343.152092 24.532663 
L 343.278755 24.602973 
L 343.532082 24.462352 
L 343.658745 24.157674 
L 343.785408 23.290512 
L 343.912072 23.384259 
L 344.418725 27.813817 
L 344.798715 32.290248 
L 345.558695 43.985218 
L 346.698664 55.211452 
L 346.951991 56.523914 
L 347.205318 58.047307 
L 347.458644 58.820721 
L 347.711971 58.937905 
L 348.091961 59.781631 
L 348.598614 59.359768 
L 348.725277 59.500389 
L 349.105267 58.422296 
L 349.358594 56.99265 
L 349.738584 58.844158 
L 349.99191 60.039436 
L 350.245237 62.828417 
L 350.498564 62.687796 
L 350.878554 59.172274 
L 351.13188 59.875378 
L 351.258543 59.969125 
L 351.638533 55.89112 
L 352.145187 53.594312 
L 352.65184 49.703801 
L 352.905166 48.742891 
L 353.79181 41.571226 
L 353.918473 41.03218 
L 354.1718 39.602534 
L 354.298463 39.719718 
L 354.551789 38.688498 
L 354.678453 36.883864 
L 354.931779 37.118232 
L 355.058443 36.344817 
L 355.185106 36.508875 
L 355.311769 37.469784 
L 355.438433 37.516658 
L 355.818423 38.102578 
L 356.071749 38.89943 
L 356.325076 38.407257 
L 356.451739 38.524441 
L 356.578402 39.368166 
L 356.831729 38.547877 
L 357.338382 40.211891 
L 357.591709 40.422823 
L 357.718372 40.938432 
L 357.845035 40.938432 
L 357.971699 40.58688 
L 358.098362 40.821248 
L 358.351689 42.016526 
L 358.478352 41.641537 
L 358.985005 42.813378 
L 359.618322 41.68841 
L 359.744985 41.594663 
L 359.998312 40.563443 
L 360.378302 32.805858 
L 360.758292 18.556275 
L 360.884955 18.251597 
L 361.011618 17.478182 
L 361.138281 18.767207 
L 361.264945 18.81408 
L 361.391608 19.118759 
L 361.518271 18.509402 
L 361.898261 19.892174 
L 362.658241 26.75916 
L 363.038231 32.219938 
L 363.924874 45.29768 
L 364.431527 51.367815 
L 364.684854 52.352161 
L 365.191507 56.008304 
L 365.571497 57.203581 
L 365.69816 57.320765 
L 365.824824 58.258238 
L 365.951487 58.117617 
L 366.07815 58.187927 
L 366.45814 59.289458 
L 366.584804 59.078526 
L 366.83813 59.359768 
L 367.21812 58.6801 
L 367.344783 58.047307 
L 367.471447 56.47704 
L 367.59811 56.805155 
L 367.851437 58.187927 
L 367.9781 58.211364 
L 368.104763 58.351985 
L 368.231427 58.937905 
L 368.484753 61.539392 
L 368.611417 62.101875 
L 368.73808 62.031565 
L 368.864743 61.445645 
L 369.11807 58.937905 
L 369.244733 58.820721 
L 369.49806 59.242584 
L 369.624723 58.60979 
L 370.004713 55.773936 
L 371.018019 48.110097 
L 371.144683 47.688235 
L 371.271346 46.117968 
L 371.398009 46.211716 
L 371.651336 43.703976 
L 372.031326 41.6181 
L 372.157989 40.352512 
L 372.284652 40.282202 
L 372.411316 40.657191 
L 372.664642 38.758809 
L 372.791306 38.38382 
L 372.917969 36.883864 
L 373.044632 37.001048 
L 373.297959 36.462001 
L 373.551286 36.860427 
L 373.804612 37.844773 
L 373.931275 35.899517 
L 374.311265 37.305726 
L 374.437929 37.469784 
L 374.691255 38.055704 
L 375.071245 39.086924 
L 375.324572 40.610317 
L 375.451235 40.727501 
L 375.577898 41.336858 
L 375.957888 41.008743 
L 376.464542 42.485262 
L 376.844532 42.438389 
L 376.971195 42.532136 
L 377.224521 43.141493 
L 377.351185 42.602446 
L 377.477848 43.118056 
L 377.857838 41.735284 
L 377.984501 42.110273 
L 378.237828 40.165018 
L 378.491155 36.696369 
L 378.617818 33.579273 
L 378.997808 20.314036 
L 379.124471 19.32969 
L 379.377798 19.540621 
L 379.757788 19.868737 
L 380.897757 26.477918 
L 382.671044 51.086573 
L 383.177697 54.977084 
L 383.937677 58.351985 
L 384.191003 58.469169 
L 384.317667 58.726974 
L 384.570993 59.594136 
L 384.697657 59.219147 
L 384.82432 59.19571 
L 384.950983 59.359768 
L 385.077646 59.734757 
L 385.20431 59.500389 
L 385.330973 59.031653 
L 385.457636 59.008216 
L 385.710963 56.453603 
L 385.837626 56.945776 
L 386.090953 58.047307 
L 386.470943 60.062872 
L 386.597606 62.078438 
L 386.850933 62.148749 
L 387.104259 61.281587 
L 387.357586 59.758194 
L 387.484249 59.922252 
L 387.610913 59.734757 
L 387.737576 59.969125 
L 388.117566 56.078614 
L 388.624219 51.039699 
L 388.877546 47.992913 
L 389.004209 47.242935 
L 389.130872 47.172625 
L 389.637526 45.649232 
L 390.270842 40.727501 
L 390.524169 39.321292 
L 390.650832 39.133798 
L 391.030822 37.633842 
L 391.157485 36.462001 
L 391.284149 36.977611 
L 391.537475 35.688586 
L 391.664138 36.602622 
L 391.790802 36.204196 
L 391.917465 36.391691 
L 392.170792 36.133886 
L 392.297455 36.743243 
L 392.550782 36.227633 
L 392.677445 37.094795 
L 392.804108 36.883864 
L 392.930772 36.930737 
L 393.310761 38.38382 
L 393.437425 38.219762 
L 393.564088 38.524441 
L 393.944078 40.493133 
L 394.577395 41.196237 
L 394.830721 42.766504 
L 395.084048 42.461825 
L 395.337374 42.461825 
L 395.464038 42.789941 
L 395.590701 42.696193 
L 395.970691 40.58688 
L 396.224018 40.235328 
L 396.857334 31.774638 
L 397.237324 20.665589 
L 397.490651 20.056231 
L 397.617314 20.126542 
L 397.997304 21.368693 
L 398.25063 21.46244 
L 398.503957 22.048361 
L 399.517263 33.907388 
L 400.023917 42.532136 
L 401.037223 53.406817 
L 401.67054 57.367639 
L 401.797203 57.391076 
L 401.923866 57.648881 
L 402.43052 59.71132 
L 402.557183 59.617573 
L 402.683846 59.008216 
L 402.810509 59.05509 
L 403.063836 59.664447 
L 403.190499 59.1254 
L 403.317163 59.828504 
L 403.570489 59.19571 
L 403.697153 58.844158 
L 403.823816 58.117617 
L 403.950479 56.617661 
L 404.077143 56.99265 
L 404.710459 61.351897 
L 404.837122 63.062785 
L 405.090449 63.203406 
L 405.217112 63.156532 
L 405.343776 62.500301 
L 405.597102 59.687883 
L 405.723766 59.383205 
L 405.977092 59.922252 
L 406.230419 56.781719 
L 406.357082 56.266109 
L 406.483745 56.453603 
L 407.497052 48.344466 
L 408.130368 44.360207 
L 408.257032 43.258677 
L 408.383695 43.352424 
L 408.637022 41.266548 
L 408.890348 39.883776 
L 409.017012 38.477567 
L 409.143675 39.040051 
L 409.523665 36.579185 
L 409.776991 34.844861 
L 409.903655 36.462001 
L 410.030318 73.023431 
L 410.156981 71.171922 
L 410.283645 53.781806 
L 410.410308 54.109922 
L 410.536971 55.234889 
L 410.663635 54.367727 
L 411.043624 54.273979 
L 411.423614 55.070831 
L 411.550278 54.953647 
L 411.676941 55.047394 
L 411.930268 54.93021 
L 412.183594 55.539567 
L 412.310258 55.281762 
L 412.436921 55.281762 
L 412.563584 55.656752 
L 412.690247 55.586441 
L 412.816911 55.281762 
L 413.070237 56.359856 
L 413.703554 57.06296 
L 413.830217 56.676253 
L 413.956881 56.77 
L 414.083544 57.039524 
L 414.590197 54.801308 
L 414.843524 53.102139 
L 415.223514 41.336858 
L 415.350177 30.462177 
L 415.603504 30.087188 
L 416.490147 32.231656 
L 416.870137 35.594839 
L 417.250126 38.102578 
L 417.883443 44.934409 
L 418.263433 49.164754 
L 418.896749 55.715344 
L 419.530066 60.074591 
L 419.910056 62.06672 
L 420.163383 63.191687 
L 420.416709 63.894792 
L 420.670036 64.023694 
L 420.923362 64.410401 
L 421.050026 64.340091 
L 421.176689 64.117441 
L 421.303352 64.258062 
L 421.556679 64.058849 
L 421.683342 63.578395 
L 421.810006 63.554958 
L 421.936669 63.332308 
L 422.189995 61.797197 
L 422.569985 63.109658 
L 422.823312 63.965102 
L 423.203302 66.800956 
L 423.329965 66.718928 
L 423.456629 67.047043 
L 423.963282 62.758106 
L 424.343272 61.972973 
L 424.596598 58.961342 
L 424.849925 55.949712 
L 424.976588 55.645033 
L 425.356578 52.996673 
L 425.483241 52.047482 
L 425.736568 46.539831 
L 426.243221 36.122167 
L 426.496548 33.684739 
L 427.003201 29.92313 
L 427.256528 28.563795 
L 427.509854 27.837254 
L 428.016508 24.520944 
L 428.776487 31.235592 
L 428.903151 31.24731 
L 429.029814 30.66139 
L 429.283141 30.778574 
L 429.536467 31.680891 
L 429.789794 31.458241 
L 429.916457 32.290248 
L 430.043121 32.266811 
L 430.296447 31.915259 
L 430.549774 32.34884 
L 430.676437 31.997288 
L 430.8031 32.219938 
L 430.929764 32.911324 
L 431.056427 32.817576 
L 431.18309 31.751201 
L 431.436417 37.12995 
L 431.94307 38.301791 
L 432.196397 41.747003 
L 432.32306 41.430606 
L 432.576387 39.391603 
L 432.829713 37.93852 
L 433.336366 33.462089 
L 433.716356 22.329602 
L 433.84302 21.90774 
L 434.22301 22.458505 
L 434.349673 22.540534 
L 434.476336 22.821775 
L 434.603 22.681155 
L 434.856326 23.630345 
L 436.122959 36.497156 
L 436.502949 42.696193 
L 437.136266 50.324876 
L 438.276235 57.777783 
L 438.529562 58.527761 
L 438.656225 58.422296 
L 439.036215 59.828504 
L 439.289542 60.683948 
L 439.542869 61.0355 
L 439.669532 60.765977 
L 439.922858 59.547263 
L 440.049522 59.535544 
L 440.176185 59.64101 
L 440.302848 57.754346 
L 440.429512 57.766065 
L 440.682838 59.523826 
L 441.062828 61.609702 
L 441.442818 64.984603 
L 441.569481 65.277564 
L 441.696145 66.144726 
L 442.202798 62.910445 
L 442.456125 63.953384 
L 442.709451 62.019846 
L 443.596094 54.145077 
L 443.849421 51.555309 
L 444.609401 45.438301 
L 444.989391 40.633754 
L 445.369381 38.594751 
L 445.496044 38.430693 
L 446.129361 35.243287 
L 446.382687 35.594839 
L 446.636014 34.493309 
L 446.762677 34.610493 
L 447.142667 36.825272 
L 447.26933 37.997112 
L 447.395994 37.915083 
L 447.522657 38.313509 
L 447.64932 37.434629 
L 448.155973 39.672845 
L 448.78929 42.731349 
L 448.915953 42.965717 
L 449.042617 42.94228 
L 449.16928 42.801659 
L 449.295943 42.473544 
L 449.422607 42.731349 
L 449.54927 42.496981 
L 449.802596 41.54779 
L 450.055923 46.680452 
L 450.30925 46.645297 
L 450.435913 46.094531 
L 450.562576 44.78207 
L 450.815903 40.645472 
L 451.195893 36.919019 
L 451.575883 32.173064 
L 451.955873 22.997552 
L 452.082536 22.950678 
L 452.462526 24.298295 
L 452.589189 23.360822 
L 452.715852 23.841277 
L 452.842516 23.618627 
L 452.969179 23.829558 
L 453.222506 26.372453 
L 453.349169 26.583384 
L 453.729159 29.934848 
L 454.109149 32.489461 
L 455.375782 47.266372 
L 455.755772 52.914644 
L 456.262425 57.262173 
L 457.022405 61.070655 
L 457.149068 63.027629 
L 457.275732 62.441709 
L 457.402395 62.383117 
L 457.782385 63.402618 
L 457.909048 64.42212 
L 458.035711 63.812763 
L 458.162375 65.090069 
L 458.542365 62.019846 
L 458.669028 61.762042 
L 459.175681 64.504149 
L 459.302344 65.347874 
L 459.682334 69.414161 
L 459.935661 70.562565 
L 460.188988 71.019583 
L 460.442314 69.578219 
L 460.568978 69.671966 
L 461.202294 67.105635 
L 461.328957 66.859548 
L 461.455621 66.226755 
L 461.962274 61.094092 
L 462.215601 59.957407 
L 463.608897 46.69217 
L 464.242213 44.172713 
L 464.368877 42.801659 
L 464.622203 43.106338 
L 464.87553 41.477479 
L 465.002193 41.770439 
L 465.128857 41.735284 
L 465.382183 42.227457 
L 465.508847 41.934497 
L 465.63551 42.157147 
L 465.762173 42.075118 
L 466.39549 43.891471 
L 466.522153 43.868034 
L 466.648816 43.715695 
L 467.028806 44.993001 
L 467.15547 44.700041 
L 467.282133 44.700041 
L 467.408796 44.922691 
L 467.788786 46.961694 
L 467.915449 46.446084 
L 468.042113 46.879665 
L 468.295439 46.563268 
L 468.422103 46.91482 
L 468.548766 46.891383 
L 468.675429 46.586705 
L 468.802092 46.610141 
L 469.055419 45.203933 
L 469.308746 44.278178 
L 469.815399 38.196325 
L 470.322052 25.059991 
L 470.448715 24.942807 
L 470.575379 25.294359 
L 470.828705 25.106865 
L 470.955369 25.21233 
L 471.082032 25.505291 
L 471.208695 25.083428 
L 471.335359 24.052208 
L 471.462022 24.474071 
L 471.588685 24.274858 
L 471.715349 24.84906 
L 472.475328 31.575425 
L 472.981982 40.973588 
L 473.741961 50.278003 
L 474.501941 56.969213 
L 474.628605 57.355921 
L 475.008595 59.113682 
L 475.135258 59.371486 
L 475.388584 60.015999 
L 475.515248 59.992562 
L 475.641911 60.332396 
L 475.768574 60.344114 
L 476.021901 59.875378 
L 476.275228 60.332396 
L 476.401891 60.039436 
L 476.528554 60.086309 
L 476.655218 59.570699 
L 476.781881 57.836375 
L 476.908544 57.906686 
L 477.161871 59.723039 
L 477.288534 59.957407 
L 477.668524 63.226842 
L 477.921851 65.254127 
L 478.048514 65.476776 
L 478.68183 60.203493 
L 478.808494 60.297241 
L 478.935157 59.887096 
L 479.695137 53.922427 
L 479.8218 53.53572 
L 480.075127 55.504412 
L 481.215097 47.746827 
L 481.468423 45.977347 
L 481.595087 46.012503 
L 481.975076 43.610229 
L 482.228403 37.903365 
L 482.86172 36.087012 
L 482.988383 36.485438 
L 483.115046 35.829207 
L 483.24171 36.415127 
L 483.368373 37.551813 
L 483.495036 37.633842 
L 483.621699 38.793964 
L 483.748363 38.782246 
L 483.875026 39.250982 
L 484.255016 38.922866 
L 484.508343 39.860339 
L 484.888333 41.536071 
L 485.014996 41.653255 
L 485.141659 42.192302 
L 485.394986 41.864187 
L 485.521649 41.477479 
L 485.901639 43.000872 
L 486.028302 42.696193 
L 486.154966 42.743067 
L 486.408292 43.176648 
L 486.661619 42.42667 
L 486.788282 42.743067 
L 486.914945 42.379797 
L 487.294935 40.551725 
L 487.421599 40.563443 
L 487.674925 39.016614 
L 488.054915 33.192565 
L 488.561568 20.58356 
L 488.814895 20.278881 
L 489.068222 20.642152 
L 489.194885 21.204635 
L 489.321548 21.134325 
L 489.954865 24.767031 
L 490.208191 27.520857 
L 490.588181 31.282465 
L 491.981478 50.465497 
L 492.994784 57.707473 
L 493.628101 59.289458 
L 493.754764 59.242584 
L 493.881427 59.558981 
L 494.134754 59.465234 
L 494.514744 60.51989 
L 494.641407 60.062872 
L 494.76807 60.074591 
L 494.894734 59.523826 
L 495.021397 57.80122 
L 495.274724 58.60979 
L 495.52805 60.109746 
L 495.781377 61.797197 
L 496.034704 64.71508 
L 496.161367 65.254127 
L 496.28803 65.301 
L 496.541357 64.12916 
L 496.794683 61.680013 
L 496.921347 61.082374 
L 497.04801 61.574547 
L 497.174673 61.25815 
L 497.554663 57.156708 
L 497.681327 57.238736 
L 498.061316 54.848181 
L 498.441306 51.11001 
L 499.074623 46.938257 
L 499.581276 42.918843 
L 499.834603 41.114209 
L 500.087929 39.989242 
L 500.214593 39.836902 
L 500.467919 38.864274 
L 500.594583 37.903365 
L 500.721246 38.067423 
L 500.974573 38.793964 
L 501.227899 38.524441 
L 501.354562 38.465849 
L 501.607889 37.903365 
L 501.861216 38.74709 
L 502.241206 37.844773 
L 502.367869 38.079141 
L 502.621196 39.590816 
L 502.747859 39.403321 
L 502.874522 39.696281 
L 503.001185 39.391603 
L 503.254512 40.504851 
L 503.507839 41.465761 
L 503.634502 41.336858 
L 504.014492 42.35636 
L 504.141155 42.87197 
L 504.267818 42.672757 
L 504.521145 43.141493 
L 504.647808 42.661038 
L 504.901135 42.672757 
L 505.154462 43.563356 
L 505.407788 41.243111 
L 505.534452 41.266548 
L 505.661115 41.500916 
L 505.787778 40.797812 
L 505.914441 39.368166 
L 506.421095 26.196677 
L 506.674421 18.017229 
L 506.801085 16.306341 
L 506.927748 16.821951 
L 507.054411 18.954701 
L 507.307738 18.29847 
L 507.561064 20.384347 
L 507.687728 20.173415 
L 507.814391 20.642152 
L 508.954361 30.696545 
L 510.474321 52.516218 
L 510.980974 55.469257 
L 511.107637 55.727062 
L 511.360964 57.016087 
L 511.487627 57.156708 
L 511.740954 58.141054 
L 511.99428 58.328548 
L 512.500933 59.289458 
L 513.007587 59.148837 
L 513.260913 57.57857 
L 514.020893 60.508172 
L 514.27422 64.140878 
L 514.527546 64.914293 
L 514.65421 64.258062 
L 515.0342 60.508172 
L 515.160863 60.765977 
L 515.287526 61.281587 
L 515.41419 61.281587 
L 515.794179 56.805155 
L 516.047506 55.305199 
L 516.427496 52.609966 
L 516.554159 53.524001 
L 516.807486 51.906861 
L 517.187476 45.649232 
L 517.314139 47.125751 
L 517.440802 46.633578 
L 517.694129 43.868034 
L 517.947456 41.524353 
L 518.454109 39.860339 
L 518.580772 39.977523 
L 518.960762 37.28229 
L 519.087425 36.555748 
L 519.340752 37.094795 
L 519.467415 36.9073 
L 519.720742 37.211979 
L 519.974069 38.102578 
L 520.100732 38.360383 
L 520.227395 38.008831 
L 520.354059 38.243199 
L 520.480722 38.149452 
L 521.620692 41.805595 
L 521.874018 41.6181 
L 522.000681 41.782158 
L 522.254008 43.469608 
L 522.380671 43.188367 
L 522.633998 43.914908 
L 522.760661 45.321117 
L 522.887325 44.078965 
L 523.013988 43.938345 
L 523.140651 44.125839 
L 523.773968 41.899342 
L 523.900631 42.883688 
L 524.153958 41.243111 
L 524.407284 38.641625 
L 524.660611 31.915259 
L 524.913938 20.87652 
L 525.167264 19.8453 
L 525.420591 19.235943 
L 525.547254 19.821863 
L 525.673917 19.751553 
L 525.800581 19.540621 
L 525.927244 20.548404 
L 526.053907 19.868737 
L 526.307234 21.720245 
L 526.94055 27.438828 
L 527.193877 31.516833 
L 527.70053 40.188454 
L 528.587173 51.859988 
L 529.093827 55.281762 
L 529.473817 57.320765 
L 529.60048 57.906686 
L 529.727143 57.906686 
L 530.107133 59.05509 
L 530.233796 58.797285 
L 530.613786 59.523826 
L 530.867113 59.101963 
L 531.12044 59.05509 
L 531.247103 58.914469 
L 531.50043 57.156708 
L 531.627093 57.50826 
L 531.880419 58.773848 
L 532.007083 59.008216 
L 532.133746 59.734757 
L 532.640399 64.703362 
L 532.767063 65.312719 
L 532.893726 64.843983 
L 533.147053 61.914381 
L 533.400379 61.023782 
L 533.527042 60.836287 
L 533.653706 60.953471 
L 534.033696 58.305111 
L 534.287022 56.898903 
L 534.667012 53.641186 
L 534.920339 50.031916 
L 535.806982 44.055529 
L 536.186972 41.03218 
L 536.440299 40.493133 
L 537.073615 36.391691 
L 537.200278 36.274507 
L 537.326942 36.485438 
L 537.453605 36.415127 
L 537.580268 37.540094 
L 537.706932 37.165105 
L 537.960258 37.188542 
L 538.593575 39.41504 
L 538.720238 39.48535 
L 538.846901 40.211891 
L 538.973565 40.188454 
L 539.353555 40.540007 
L 539.733544 42.672757 
L 539.986871 42.743067 
L 540.240198 42.555573 
L 540.366861 42.625883 
L 540.873514 44.008655 
L 541.000178 44.125839 
L 541.126841 44.407081 
L 541.760157 43.422735 
L 541.886821 43.000872 
L 542.013484 43.375861 
L 542.266811 42.977435 
L 542.520137 40.680628 
L 542.900127 32.430869 
L 543.153454 22.188981 
L 543.40678 20.36091 
L 543.533444 20.571841 
L 543.660107 21.110888 
L 543.78677 20.782773 
L 543.913434 21.298383 
L 544.16676 20.782773 
L 544.673413 24.063927 
L 544.92674 25.985745 
L 546.193373 42.344641 
L 546.82669 51.484999 
L 547.713333 57.953559 
L 547.839996 58.117617 
L 548.093323 59.148837 
L 548.219986 59.336331 
L 548.346649 60.062872 
L 548.726639 60.344114 
L 548.853303 60.601919 
L 548.979966 60.367551 
L 549.106629 59.805068 
L 549.233293 59.758194 
L 549.359956 59.570699 
L 549.486619 59.078526 
L 549.739946 56.99265 
L 549.993272 58.164491 
L 550.499926 60.719103 
L 550.753252 64.070568 
L 551.006579 64.843983 
L 551.259905 62.711232 
L 551.639895 59.851941 
L 551.893222 60.508172 
L 552.146549 58.258238 
L 552.273212 57.906686 
L 552.399875 57.227018 
L 552.526539 58.516043 
L 552.653202 57.930122 
L 553.286518 49.56318 
L 553.413182 49.235065 
L 553.666508 47.688235 
L 554.046498 43.938345 
L 554.553151 40.493133 
L 554.933141 38.89943 
L 555.059805 39.297855 
L 555.313131 36.040138 
L 555.439795 35.782333 
L 555.566458 35.266724 
L 555.819785 36.649496 
L 556.199774 39.461913 
L 556.326438 39.344729 
L 556.453101 40.58688 
L 556.579764 40.352512 
L 556.706428 38.96974 
L 556.833091 39.227545 
L 556.959754 39.180671 
L 557.466407 42.274331 
L 557.719734 41.782158 
L 557.846397 41.664974 
L 558.099724 42.13371 
L 558.353051 42.953998 
L 558.479714 44.219586 
L 558.606377 44.289897 
L 558.859704 43.868034 
L 558.986367 43.844597 
L 559.11303 44.477391 
L 559.619684 43.094619 
L 559.746347 43.094619 
L 560.253 39.907213 
L 560.379664 41.008743 
L 560.506327 40.938432 
L 560.63299 39.954086 
L 561.139643 31.235592 
L 561.39297 22.540534 
L 561.646297 21.46244 
L 561.77296 21.626498 
L 562.15295 22.704591 
L 562.279613 22.774902 
L 562.406276 22.704591 
L 562.786266 24.392042 
L 563.419583 29.571578 
L 563.799573 34.376125 
L 564.559553 45.649232 
L 565.192869 52.234977 
L 565.446196 54.180232 
L 565.572859 55.281762 
L 565.699522 55.398947 
L 566.079512 57.930122 
L 566.206176 57.836375 
L 566.459502 59.266021 
L 566.839492 60.133183 
L 566.966156 60.086309 
L 567.219482 60.74254 
L 567.346145 60.531609 
L 567.472809 60.67223 
L 567.726135 60.390988 
L 567.979462 58.305111 
L 568.359452 59.430079 
L 568.739442 62.429991 
L 568.992768 65.570524 
L 569.246095 66.648617 
L 569.879412 63.648705 
L 570.132738 64.797109 
L 570.766055 58.117617 
L 570.892718 57.766065 
L 571.399371 53.641186 
L 571.652698 51.297504 
L 571.779361 50.66471 
L 572.286014 45.672669 
L 572.539341 43.469608 
L 573.552648 37.586968 
L 573.679311 37.821336 
L 573.932637 36.743243 
L 574.059301 36.719806 
L 574.185964 36.9073 
L 574.312627 37.329163 
L 574.439291 37.28229 
L 574.692617 38.102578 
L 574.819281 37.727589 
L 575.072607 36.602622 
L 575.19927 36.133886 
L 575.452597 36.040138 
L 575.832587 38.594751 
L 576.33924 42.0634 
L 576.592567 42.110273 
L 576.71923 41.993089 
L 576.845893 42.13371 
L 577.09922 43.094619 
L 577.352547 43.610229 
L 577.47921 43.258677 
L 577.605873 42.438389 
L 577.8592 43.16493 
L 577.985863 43.16493 
L 578.23919 42.391515 
L 578.365853 42.532136 
L 578.492516 42.344641 
L 578.745843 41.055617 
L 579.125833 36.672932 
L 579.37916 31.587144 
L 579.632486 22.892086 
L 579.885813 21.790556 
L 580.012476 22.118671 
L 580.139139 21.954613 
L 580.265803 22.634281 
L 580.519129 24.62641 
L 580.645793 24.790468 
L 580.772456 25.845124 
L 581.025783 25.65763 
L 581.405773 29.173152 
L 581.912426 32.173064 
L 582.292416 36.274507 
L 582.545742 39.040051 
L 582.672406 39.954086 
L 583.432385 51.719367 
L 584.319029 58.797285 
L 584.445692 59.05509 
L 584.699019 60.484735 
L 584.952345 61.070655 
L 585.079008 60.976908 
L 585.332335 61.539392 
L 585.712325 62.35968 
L 586.218978 60.437862 
L 586.345642 60.695666 
L 586.852295 64.023694 
L 587.105621 67.58609 
L 587.612275 70.093829 
L 587.738938 69.78915 
L 587.865601 69.132919 
L 587.992265 69.296977 
L 588.245591 68.148573 
L 588.498918 67.632963 
L 588.752244 66.906422 
L 588.878908 66.742364 
L 589.005571 66.297065 
L 589.765551 59.547263 
L 589.892214 58.891032 
L 590.525531 53.125576 
L 590.778857 50.828768 
L 591.158847 47.383556 
L 591.285511 47.102314 
L 591.538837 45.766416 
L 591.918827 44.360207 
L 592.172154 44.032092 
L 592.298817 44.407081 
L 592.42548 44.33677 
L 592.552144 44.125839 
L 592.80547 44.922691 
L 593.18546 43.844597 
L 593.56545 44.383644 
L 593.692113 44.618012 
L 593.818777 44.524265 
L 594.70542 47.453867 
L 594.832083 47.50074 
L 594.958746 47.805419 
L 595.212073 49.04757 
L 595.4654 49.328812 
L 595.592063 49.914732 
L 595.84539 49.63349 
L 596.098716 50.852205 
L 596.225379 50.383468 
L 596.352043 50.781894 
L 596.478706 50.570963 
L 596.858696 51.367815 
L 597.112023 49.891295 
L 597.492013 45.977347 
L 597.745339 36.157322 
L 597.998666 29.266899 
L 598.251992 26.595102 
L 598.378656 27.649759 
L 598.505319 27.602885 
L 598.631982 27.391954 
L 598.758646 26.735723 
L 598.885309 26.923218 
L 599.011972 26.266987 
L 599.265299 27.227896 
L 599.391962 28.118495 
L 599.518625 27.837254 
L 600.151942 32.337122 
L 600.785259 41.500916 
L 601.291912 48.367902 
L 601.291912 48.367902 
" clip-path="url(#pe6e4a90178)" style="fill: none; stroke: #4e9a73; stroke-width: 1.2; stroke-linecap: square"/>
   </g>
   <g id="patch_3">
    <path d="M 38.7625 67.00375 
L 38.7625 10.30375 
" style="fill: none; stroke: #aaaaaa; stroke-width: 0.75; stroke-linejoin: miter; stroke-linecap: square"/>
   </g>
   <g id="patch_4">
    <path d="M 54.233088 85.78375 
L 601.418575 85.78375 
" style="fill: none; stroke: #aaaaaa; stroke-width: 0.75; stroke-linejoin: miter; stroke-linecap: square"/>
   </g>
  </g>
  <g id="axes_2">
   <g id="patch_5">
    <path d="M 48.7625 176.62375 
L 606.7625 176.62375 
L 606.7625 116.14375 
L 48.7625 116.14375 
L 48.7625 176.62375 
z
" style="fill: none"/>
   </g>
   <g id="matplotlib.axis_3">
    <g id="xtick_10">
     <g id="text_14">
      <!-- Sunday -->
      <g style="fill: #808080" transform="translate(60.004061 206.83125) scale(0.08 -0.08)">
       <defs>
        <path id="Ubuntu-53" d="M 1581 442 
Q 2554 442 2554 1107 
Q 2554 1312 2467 1456 
Q 2381 1600 2233 1705 
Q 2086 1811 1897 1888 
Q 1709 1965 1498 2042 
Q 1254 2125 1036 2230 
Q 819 2336 659 2480 
Q 499 2624 406 2822 
Q 314 3021 314 3302 
Q 314 3885 710 4211 
Q 1107 4538 1805 4538 
Q 2208 4538 2537 4451 
Q 2867 4365 3021 4262 
L 2822 3757 
Q 2688 3840 2422 3920 
Q 2157 4000 1805 4000 
Q 1626 4000 1472 3961 
Q 1318 3923 1203 3846 
Q 1088 3770 1021 3651 
Q 954 3533 954 3373 
Q 954 3194 1024 3072 
Q 1094 2950 1222 2857 
Q 1350 2765 1520 2688 
Q 1690 2611 1894 2534 
Q 2182 2419 2422 2304 
Q 2662 2189 2838 2029 
Q 3014 1869 3110 1648 
Q 3206 1427 3206 1114 
Q 3206 531 2780 217 
Q 2355 -96 1581 -96 
Q 1318 -96 1097 -61 
Q 877 -26 704 22 
Q 531 70 406 124 
Q 282 179 211 218 
L 397 730 
Q 544 646 845 544 
Q 1146 442 1581 442 
z
" transform="scale(0.015625)"/>
        <path id="Ubuntu-75" d="M 3162 96 
Q 2957 45 2621 -12 
Q 2285 -70 1843 -70 
Q 1459 -70 1196 42 
Q 934 154 774 358 
Q 614 563 544 841 
Q 474 1120 474 1459 
L 474 3328 
L 1069 3328 
L 1069 1587 
Q 1069 979 1261 716 
Q 1453 454 1907 454 
Q 2003 454 2105 460 
Q 2208 467 2297 476 
Q 2387 486 2460 496 
Q 2534 506 2566 518 
L 2566 3328 
L 3162 3328 
L 3162 96 
z
" transform="scale(0.015625)"/>
        <path id="Ubuntu-6e" d="M 512 3232 
Q 717 3283 1056 3340 
Q 1395 3398 1837 3398 
Q 2234 3398 2496 3286 
Q 2758 3174 2915 2972 
Q 3072 2771 3136 2489 
Q 3200 2208 3200 1869 
L 3200 0 
L 2605 0 
L 2605 1741 
Q 2605 2048 2563 2265 
Q 2522 2483 2426 2617 
Q 2330 2752 2170 2813 
Q 2010 2874 1773 2874 
Q 1677 2874 1574 2867 
Q 1472 2861 1379 2851 
Q 1286 2842 1212 2829 
Q 1139 2816 1107 2810 
L 1107 0 
L 512 0 
L 512 3232 
z
" transform="scale(0.015625)"/>
        <path id="Ubuntu-64" d="M 2662 2624 
Q 2554 2714 2349 2797 
Q 2144 2880 1901 2880 
Q 1645 2880 1462 2787 
Q 1280 2694 1165 2531 
Q 1050 2368 998 2144 
Q 947 1920 947 1664 
Q 947 1082 1235 765 
Q 1523 448 2003 448 
Q 2246 448 2409 470 
Q 2573 493 2662 518 
L 2662 2624 
z
M 2662 4864 
L 3258 4966 
L 3258 96 
Q 3053 38 2733 -19 
Q 2413 -77 1997 -77 
Q 1613 -77 1305 44 
Q 998 166 780 390 
Q 563 614 444 937 
Q 326 1261 326 1664 
Q 326 2048 425 2368 
Q 525 2688 717 2918 
Q 909 3149 1187 3277 
Q 1466 3405 1824 3405 
Q 2112 3405 2333 3328 
Q 2554 3251 2662 3181 
L 2662 4864 
z
" transform="scale(0.015625)"/>
        <path id="Ubuntu-61" d="M 1638 429 
Q 1850 429 2013 438 
Q 2176 448 2285 474 
L 2285 1466 
Q 2221 1498 2077 1520 
Q 1933 1542 1728 1542 
Q 1594 1542 1443 1523 
Q 1293 1504 1168 1443 
Q 1043 1382 960 1276 
Q 877 1171 877 998 
Q 877 678 1081 553 
Q 1286 429 1638 429 
z
M 1587 3411 
Q 1946 3411 2192 3318 
Q 2438 3226 2588 3056 
Q 2739 2886 2803 2652 
Q 2867 2419 2867 2138 
L 2867 58 
Q 2790 45 2652 22 
Q 2515 0 2342 -19 
Q 2170 -38 1968 -54 
Q 1766 -70 1568 -70 
Q 1286 -70 1049 -12 
Q 813 45 640 169 
Q 467 294 371 499 
Q 275 704 275 992 
Q 275 1267 387 1465 
Q 499 1664 691 1785 
Q 883 1907 1139 1964 
Q 1395 2022 1677 2022 
Q 1766 2022 1862 2012 
Q 1958 2003 2044 1987 
Q 2131 1971 2195 1958 
Q 2259 1946 2285 1939 
L 2285 2106 
Q 2285 2253 2253 2397 
Q 2221 2541 2137 2653 
Q 2054 2765 1910 2832 
Q 1766 2899 1536 2899 
Q 1242 2899 1021 2857 
Q 800 2816 691 2771 
L 621 3264 
Q 736 3315 1005 3363 
Q 1274 3411 1587 3411 
z
" transform="scale(0.015625)"/>
        <path id="Ubuntu-79" d="M 122 -621 
Q 192 -653 304 -681 
Q 416 -710 525 -710 
Q 877 -710 1075 -553 
Q 1274 -397 1434 -45 
Q 1030 723 681 1584 
Q 333 2445 102 3328 
L 742 3328 
Q 813 3040 912 2707 
Q 1011 2374 1132 2022 
Q 1254 1670 1395 1318 
Q 1536 966 1690 640 
Q 1933 1312 2112 1971 
Q 2291 2630 2451 3328 
L 3066 3328 
Q 2835 2387 2553 1520 
Q 2272 653 1946 -102 
Q 1818 -390 1680 -598 
Q 1542 -806 1376 -940 
Q 1210 -1075 1002 -1139 
Q 794 -1203 531 -1203 
Q 461 -1203 384 -1193 
Q 307 -1184 233 -1168 
Q 160 -1152 99 -1133 
Q 38 -1114 13 -1101 
L 122 -621 
z
" transform="scale(0.015625)"/>
       </defs>
       <use xlink:href="#Ubuntu-53"/>
       <use xlink:href="#Ubuntu-75" x="53.199997"/>
       <use xlink:href="#Ubuntu-6e" x="110.599991"/>
       <use xlink:href="#Ubuntu-64" x="167.999985"/>
       <use xlink:href="#Ubuntu-61" x="226.899979"/>
       <use xlink:href="#Ubuntu-79" x="277.599976"/>
      </g>
     </g>
    </g>
    <g id="xtick_11">
     <g id="text_15">
      <!-- Sunday -->
      <g style="fill: #808080" transform="translate(192.052742 206.83125) scale(0.08 -0.08)">
       <use xlink:href="#Ubuntu-53"/>
       <use xlink:href="#Ubuntu-75" x="53.199997"/>
       <use xlink:href="#Ubuntu-6e" x="110.599991"/>
       <use xlink:href="#Ubuntu-64" x="167.999985"/>
       <use xlink:href="#Ubuntu-61" x="226.899979"/>
       <use xlink:href="#Ubuntu-79" x="277.599976"/>
      </g>
     </g>
    </g>
    <g id="xtick_12">
     <g id="text_16">
      <!-- Sunday -->
      <g style="fill: #808080" transform="translate(324.101424 206.83125) scale(0.08 -0.08)">
       <use xlink:href="#Ubuntu-53"/>
       <use xlink:href="#Ubuntu-75" x="53.199997"/>
       <use xlink:href="#Ubuntu-6e" x="110.599991"/>
       <use xlink:href="#Ubuntu-64" x="167.999985"/>
       <use xlink:href="#Ubuntu-61" x="226.899979"/>
       <use xlink:href="#Ubuntu-79" x="277.599976"/>
      </g>
     </g>
    </g>
    <g id="xtick_13">
     <g id="text_17">
      <!-- Sunday -->
      <g style="fill: #808080" transform="translate(456.150105 206.83125) scale(0.08 -0.08)">
       <use xlink:href="#Ubuntu-53"/>
       <use xlink:href="#Ubuntu-75" x="53.199997"/>
       <use xlink:href="#Ubuntu-6e" x="110.599991"/>
       <use xlink:href="#Ubuntu-64" x="167.999985"/>
       <use xlink:href="#Ubuntu-61" x="226.899979"/>
       <use xlink:href="#Ubuntu-79" x="277.599976"/>
      </g>
     </g>
    </g>
    <g id="xtick_14">
     <g id="text_18">
      <!-- Sunday -->
      <g style="fill: #808080" transform="translate(588.198787 206.83125) scale(0.08 -0.08)">
       <use xlink:href="#Ubuntu-53"/>
       <use xlink:href="#Ubuntu-75" x="53.199997"/>
       <use xlink:href="#Ubuntu-6e" x="110.599991"/>
       <use xlink:href="#Ubuntu-64" x="167.999985"/>
       <use xlink:href="#Ubuntu-61" x="226.899979"/>
       <use xlink:href="#Ubuntu-79" x="277.599976"/>
      </g>
     </g>
    </g>
   </g>
   <g id="matplotlib.axis_4">
    <g id="ytick_5">
     <g id="line2d_15">
      <g>
       <use xlink:href="#m9ab7166de8" x="38.7625" y="176.62375" style="fill: #aaaaaa; stroke: #aaaaaa; stroke-width: 0.75"/>
      </g>
     </g>
     <g id="text_19">
      <!-- 28000 -->
      <g style="fill: #808080" transform="translate(7.2 179.7275) scale(0.08 -0.08)">
       <defs>
        <path id="Ubuntu-38" d="M 3258 1152 
Q 3258 883 3165 656 
Q 3072 429 2889 259 
Q 2707 90 2432 -3 
Q 2157 -96 1798 -96 
Q 1382 -96 1104 22 
Q 826 141 659 320 
Q 493 499 422 713 
Q 352 928 352 1120 
Q 352 1306 413 1475 
Q 474 1645 573 1792 
Q 672 1939 803 2057 
Q 934 2176 1082 2266 
Q 454 2624 454 3322 
Q 454 3565 550 3785 
Q 646 4006 822 4172 
Q 998 4339 1248 4438 
Q 1498 4538 1805 4538 
Q 2163 4538 2419 4429 
Q 2675 4320 2838 4150 
Q 3002 3981 3075 3776 
Q 3149 3571 3149 3379 
Q 3149 3194 3094 3030 
Q 3040 2867 2947 2726 
Q 2854 2586 2736 2477 
Q 2618 2368 2490 2285 
Q 3245 1926 3258 1152 
z
M 954 1114 
Q 954 998 995 873 
Q 1037 749 1139 643 
Q 1242 538 1402 467 
Q 1562 397 1805 397 
Q 2022 397 2185 461 
Q 2349 525 2451 624 
Q 2554 723 2605 851 
Q 2656 979 2656 1114 
Q 2656 1318 2579 1472 
Q 2502 1626 2358 1741 
Q 2214 1856 2012 1936 
Q 1811 2016 1555 2074 
Q 1267 1914 1110 1677 
Q 954 1440 954 1114 
z
M 2554 3386 
Q 2554 3482 2512 3597 
Q 2470 3712 2380 3811 
Q 2291 3910 2150 3977 
Q 2010 4045 1805 4045 
Q 1600 4045 1456 3981 
Q 1312 3917 1222 3817 
Q 1133 3718 1091 3600 
Q 1050 3482 1050 3366 
Q 1050 3226 1101 3085 
Q 1152 2944 1261 2822 
Q 1370 2701 1546 2605 
Q 1722 2509 1965 2451 
Q 2234 2611 2394 2825 
Q 2554 3040 2554 3386 
z
" transform="scale(0.015625)"/>
       </defs>
       <use xlink:href="#Ubuntu-32"/>
       <use xlink:href="#Ubuntu-38" x="56.399994"/>
       <use xlink:href="#Ubuntu-30" x="112.799988"/>
       <use xlink:href="#Ubuntu-30" x="169.199982"/>
       <use xlink:href="#Ubuntu-30" x="225.599976"/>
      </g>
     </g>
    </g>
    <g id="ytick_6">
     <g id="line2d_16">
      <g>
       <use xlink:href="#m9ab7166de8" x="38.7625" y="161.50375" style="fill: #aaaaaa; stroke: #aaaaaa; stroke-width: 0.75"/>
      </g>
     </g>
     <g id="text_20">
      <!-- 30000 -->
      <g style="fill: #808080" transform="translate(7.2 164.6075) scale(0.08 -0.08)">
       <use xlink:href="#Ubuntu-33"/>
       <use xlink:href="#Ubuntu-30" x="56.399994"/>
       <use xlink:href="#Ubuntu-30" x="112.799988"/>
       <use xlink:href="#Ubuntu-30" x="169.199982"/>
       <use xlink:href="#Ubuntu-30" x="225.599976"/>
      </g>
     </g>
    </g>
    <g id="ytick_7">
     <g id="line2d_17">
      <g>
       <use xlink:href="#m9ab7166de8" x="38.7625" y="146.38375" style="fill: #aaaaaa; stroke: #aaaaaa; stroke-width: 0.75"/>
      </g>
     </g>
     <g id="text_21">
      <!-- 32000 -->
      <g style="fill: #808080" transform="translate(7.2 149.4875) scale(0.08 -0.08)">
       <use xlink:href="#Ubuntu-33"/>
       <use xlink:href="#Ubuntu-32" x="56.399994"/>
       <use xlink:href="#Ubuntu-30" x="112.799988"/>
       <use xlink:href="#Ubuntu-30" x="169.199982"/>
       <use xlink:href="#Ubuntu-30" x="225.599976"/>
      </g>
     </g>
    </g>
    <g id="ytick_8">
     <g id="line2d_18">
      <g>
       <use xlink:href="#m9ab7166de8" x="38.7625" y="131.26375" style="fill: #aaaaaa; stroke: #aaaaaa; stroke-width: 0.75"/>
      </g>
     </g>
     <g id="text_22">
      <!-- 34000 -->
      <g style="fill: #808080" transform="translate(7.2 134.3675) scale(0.08 -0.08)">
       <use xlink:href="#Ubuntu-33"/>
       <use xlink:href="#Ubuntu-34" x="56.399994"/>
       <use xlink:href="#Ubuntu-30" x="112.799988"/>
       <use xlink:href="#Ubuntu-30" x="169.199982"/>
       <use xlink:href="#Ubuntu-30" x="225.599976"/>
      </g>
     </g>
    </g>
    <g id="ytick_9">
     <g id="line2d_19">
      <g>
       <use xlink:href="#m9ab7166de8" x="38.7625" y="116.14375" style="fill: #aaaaaa; stroke: #aaaaaa; stroke-width: 0.75"/>
      </g>
     </g>
     <g id="text_23">
      <!-- 36000 -->
      <g style="fill: #808080" transform="translate(7.2 119.2475) scale(0.08 -0.08)">
       <defs>
        <path id="Ubuntu-36" d="M 403 1779 
Q 403 2426 582 2922 
Q 762 3418 1091 3757 
Q 1421 4096 1891 4272 
Q 2362 4448 2950 4454 
L 2995 3955 
Q 2618 3949 2307 3872 
Q 1997 3795 1753 3628 
Q 1510 3462 1344 3196 
Q 1178 2931 1094 2541 
Q 1261 2618 1469 2669 
Q 1677 2720 1901 2720 
Q 2278 2720 2540 2605 
Q 2803 2490 2969 2301 
Q 3136 2112 3209 1865 
Q 3283 1619 3283 1350 
Q 3283 1107 3200 851 
Q 3117 595 2947 384 
Q 2778 173 2515 38 
Q 2253 -96 1894 -96 
Q 1165 -96 784 403 
Q 403 902 403 1779 
z
M 1837 2234 
Q 1613 2234 1421 2192 
Q 1229 2150 1037 2067 
Q 1030 1997 1027 1923 
Q 1024 1850 1024 1779 
Q 1024 1498 1062 1248 
Q 1101 998 1200 809 
Q 1299 621 1465 509 
Q 1632 397 1888 397 
Q 2099 397 2246 486 
Q 2394 576 2490 717 
Q 2586 858 2627 1021 
Q 2669 1184 2669 1338 
Q 2669 1773 2461 2003 
Q 2253 2234 1837 2234 
z
" transform="scale(0.015625)"/>
       </defs>
       <use xlink:href="#Ubuntu-33"/>
       <use xlink:href="#Ubuntu-36" x="56.399994"/>
       <use xlink:href="#Ubuntu-30" x="112.799988"/>
       <use xlink:href="#Ubuntu-30" x="169.199982"/>
       <use xlink:href="#Ubuntu-30" x="225.599976"/>
      </g>
     </g>
    </g>
   </g>
   <g id="PolyCollection_1">
    <defs>
     <path id="m76dd47edaf" d="M 54.233088 -80.746369 
L 54.233088 -64.122703 
L 73.097186 -38.516405 
L 91.961283 -58.488265 
L 110.82538 -58.19825 
L 129.689478 -59.031999 
L 148.553575 -60.586039 
L 167.417672 -58.458301 
L 186.28177 -56.011775 
L 205.145867 -45.202968 
L 224.009965 -55.828097 
L 242.874062 -57.884352 
L 261.738159 -57.701569 
L 280.602257 -58.556785 
L 299.466354 -56.726728 
L 318.330451 -54.355573 
L 337.194549 -40.034524 
L 356.058646 -62.178228 
L 374.922743 -62.384619 
L 393.786841 -62.555187 
L 412.650938 -36.365255 
L 431.515035 -64.334838 
L 450.379133 -56.734507 
L 469.24323 -40.138363 
L 488.107328 -56.458897 
L 506.971425 -59.737073 
L 525.835522 -59.094464 
L 544.69962 -58.742424 
L 563.563717 -57.614039 
L 582.427814 -56.256331 
L 601.291912 -37.902767 
L 601.291912 -53.400035 
L 601.291912 -53.400035 
L 582.427814 -72.84927 
L 563.563717 -74.02653 
L 544.69962 -74.359724 
L 525.835522 -75.628665 
L 506.971425 -76.521892 
L 488.107328 -72.368254 
L 469.24323 -58.192277 
L 450.379133 -72.914494 
L 431.515035 -82.73351 
L 412.650938 -48.434938 
L 393.786841 -78.3023 
L 374.922743 -77.962011 
L 356.058646 -78.21259 
L 337.194549 -56.052154 
L 318.330451 -69.35681 
L 299.466354 -71.463544 
L 280.602257 -74.03807 
L 261.738159 -73.493319 
L 242.874062 -73.368729 
L 224.009965 -70.998152 
L 205.145867 -59.195601 
L 186.28177 -71.330825 
L 167.417672 -73.330905 
L 148.553575 -76.740676 
L 129.689478 -74.369815 
L 110.82538 -74.068407 
L 91.961283 -74.269004 
L 73.097186 -54.153805 
L 54.233088 -80.746369 
z
" style="stroke: #4e9a73; stroke-opacity: 0.2"/>
    </defs>
    <g clip-path="url(#p5e6a4b1233)">
     <use xlink:href="#m76dd47edaf" x="0" y="215.535" style="fill: #4e9a73; fill-opacity: 0.2; stroke: #4e9a73; stroke-opacity: 0.2"/>
    </g>
   </g>
   <g id="line2d_20">
    <path d="M 54.233088 143.204156 
L 73.097186 168.965771 
L 91.961283 148.829642 
L 110.82538 149.526887 
L 129.689478 148.953987 
L 148.553575 147.034122 
L 167.417672 149.425002 
L 186.28177 151.931439 
L 205.145867 163.648218 
L 224.009965 152.12284 
L 242.874062 150.078303 
L 261.738159 149.890483 
L 280.602257 149.377152 
L 299.466354 151.796352 
L 318.330451 153.514401 
L 337.194549 167.254233 
L 356.058646 145.689109 
L 374.922743 145.228836 
L 393.786841 144.941084 
L 412.650938 173.348455 
L 431.515035 142.371172 
L 450.379133 150.709795 
L 469.24323 166.159213 
L 488.107328 150.601725 
L 506.971425 147.659429 
L 525.835522 147.9755 
L 544.69962 148.888234 
L 563.563717 149.784041 
L 582.427814 150.994292 
L 601.291912 169.905197 
" clip-path="url(#p5e6a4b1233)" style="fill: none; stroke: #4e9a73; stroke-width: 1.2; stroke-linecap: square"/>
   </g>
   <g id="patch_6">
    <path d="M 38.7625 176.62375 
L 38.7625 116.14375 
" style="fill: none; stroke: #aaaaaa; stroke-width: 0.75; stroke-linejoin: miter; stroke-linecap: square"/>
   </g>
  </g>
 </g>
 <defs>
  <clipPath id="pe6e4a90178">
   <rect x="48.7625" y="10.30375" width="558" height="60.48"/>
  </clipPath>
  <clipPath id="p5e6a4b1233">
   <rect x="48.7625" y="116.14375" width="558" height="60.48"/>
  </clipPath>
 </defs>
</svg>
