<?xml version="1.0" encoding="utf-8" standalone="no"?>
<!DOCTYPE svg PUBLIC "-//W3C//DTD SVG 1.1//EN"
  "http://www.w3.org/Graphics/SVG/1.1/DTD/svg11.dtd">
<svg xmlns:xlink="http://www.w3.org/1999/xlink" width="512.715795pt" height="236.154531pt" viewBox="0 0 512.715795 236.154531" xmlns="http://www.w3.org/2000/svg" version="1.1">
 <metadata>
  <rdf:RDF xmlns:dc="http://purl.org/dc/elements/1.1/" xmlns:cc="http://creativecommons.org/ns#" xmlns:rdf="http://www.w3.org/1999/02/22-rdf-syntax-ns#">
   <cc:Work>
    <dc:type rdf:resource="http://purl.org/dc/dcmitype/StillImage"/>
    <dc:date>2024-04-19T23:32:32.962001</dc:date>
    <dc:format>image/svg+xml</dc:format>
    <dc:creator>
     <cc:Agent>
      <dc:title>Matplotlib v3.8.3, https://matplotlib.org/</dc:title>
     </cc:Agent>
    </dc:creator>
   </cc:Work>
  </rdf:RDF>
 </metadata>
 <defs>
  <style type="text/css">*{stroke-linejoin: round; stroke-linecap: butt}</style>
 </defs>
 <g id="figure_1">
  <g id="patch_1">
   <path d="M 0 236.154531 
L 512.715795 236.154531 
L 512.715795 0 
L 0 0 
L 0 236.154531 
z
" style="fill: none"/>
  </g>
  <g id="axes_1">
   <g id="patch_2">
    <path d="M 48.7625 90.439375 
L 495.1625 90.439375 
L 495.1625 29.959375 
L 48.7625 29.959375 
L 48.7625 90.439375 
z
" style="fill: none"/>
   </g>
   <g id="matplotlib.axis_1">
    <g id="xtick_1">
     <g id="line2d_1">
      <defs>
       <path id="m27648729f2" d="M 0 0 
L 0 3 
" style="stroke: #cccccc; stroke-width: 0.75"/>
      </defs>
      <g>
       <use xlink:href="#m27648729f2" x="53.138971" y="105.439375" style="fill: #cccccc; stroke: #cccccc; stroke-width: 0.75"/>
      </g>
     </g>
     <g id="text_1">
      <!-- 01 -->
      <g style="fill: #999999" transform="translate(48.626471 120.646875) scale(0.08 -0.08)">
       <defs>
        <path id="Ubuntu-30" d="M 320 2221 
Q 320 3334 713 3936 
Q 1107 4538 1805 4538 
Q 2502 4538 2896 3936 
Q 3290 3334 3290 2221 
Q 3290 1107 2896 505 
Q 2502 -96 1805 -96 
Q 1107 -96 713 505 
Q 320 1107 320 2221 
z
M 2662 2221 
Q 2662 2586 2620 2912 
Q 2579 3238 2480 3481 
Q 2381 3725 2214 3869 
Q 2048 4013 1805 4013 
Q 1562 4013 1395 3869 
Q 1229 3725 1129 3481 
Q 1030 3238 988 2912 
Q 947 2586 947 2221 
Q 947 1856 988 1529 
Q 1030 1203 1129 960 
Q 1229 717 1395 573 
Q 1562 429 1805 429 
Q 2048 429 2214 573 
Q 2381 717 2480 960 
Q 2579 1203 2620 1529 
Q 2662 1856 2662 2221 
z
" transform="scale(0.015625)"/>
        <path id="Ubuntu-31" d="M 595 3520 
Q 960 3661 1305 3881 
Q 1651 4102 1939 4435 
L 2362 4435 
L 2362 0 
L 1766 0 
L 1766 3610 
Q 1690 3539 1578 3462 
Q 1466 3386 1334 3315 
Q 1203 3245 1059 3181 
Q 915 3117 781 3072 
L 595 3520 
z
" transform="scale(0.015625)"/>
       </defs>
       <use xlink:href="#Ubuntu-30"/>
       <use xlink:href="#Ubuntu-31" x="56.399994"/>
      </g>
     </g>
    </g>
    <g id="xtick_2">
     <g id="line2d_2">
      <g>
       <use xlink:href="#m27648729f2" x="111.505423" y="105.439375" style="fill: #cccccc; stroke: #cccccc; stroke-width: 0.75"/>
      </g>
     </g>
     <g id="text_2">
      <!-- 05 -->
      <g style="fill: #999999" transform="translate(106.992923 120.646875) scale(0.08 -0.08)">
       <defs>
        <path id="Ubuntu-35" d="M 1274 2726 
Q 2240 2688 2691 2304 
Q 3142 1920 3142 1261 
Q 3142 966 3043 716 
Q 2944 467 2742 288 
Q 2541 109 2233 6 
Q 1926 -96 1504 -96 
Q 1338 -96 1165 -70 
Q 992 -45 845 -6 
Q 698 32 582 70 
Q 467 109 416 134 
L 531 653 
Q 640 602 886 518 
Q 1133 435 1491 435 
Q 1779 435 1974 499 
Q 2170 563 2291 672 
Q 2413 781 2467 925 
Q 2522 1069 2522 1229 
Q 2522 1472 2438 1661 
Q 2355 1850 2144 1978 
Q 1933 2106 1581 2173 
Q 1229 2240 691 2240 
Q 730 2554 752 2829 
Q 774 3104 793 3366 
Q 813 3629 825 3888 
Q 838 4147 851 4435 
L 2989 4435 
L 2989 3930 
L 1370 3930 
Q 1363 3834 1350 3670 
Q 1338 3507 1325 3331 
Q 1312 3155 1299 2988 
Q 1286 2822 1274 2726 
z
" transform="scale(0.015625)"/>
       </defs>
       <use xlink:href="#Ubuntu-30"/>
       <use xlink:href="#Ubuntu-35" x="56.399994"/>
      </g>
     </g>
    </g>
    <g id="xtick_3">
     <g id="line2d_3">
      <g>
       <use xlink:href="#m27648729f2" x="169.871874" y="105.439375" style="fill: #cccccc; stroke: #cccccc; stroke-width: 0.75"/>
      </g>
     </g>
     <g id="text_3">
      <!-- 09 -->
      <g style="fill: #999999" transform="translate(165.359374 120.646875) scale(0.08 -0.08)">
       <defs>
        <path id="Ubuntu-39" d="M 3206 2662 
Q 3206 1344 2550 669 
Q 1894 -6 602 -13 
L 582 486 
Q 986 486 1309 563 
Q 1632 640 1875 809 
Q 2118 979 2281 1248 
Q 2445 1517 2522 1907 
Q 2355 1830 2144 1782 
Q 1933 1734 1709 1734 
Q 1331 1734 1068 1846 
Q 806 1958 640 2147 
Q 474 2336 400 2582 
Q 326 2829 326 3098 
Q 326 3334 409 3590 
Q 493 3846 662 4057 
Q 832 4269 1094 4403 
Q 1357 4538 1715 4538 
Q 2080 4538 2358 4410 
Q 2637 4282 2825 4038 
Q 3014 3795 3110 3446 
Q 3206 3098 3206 2662 
z
M 1773 2221 
Q 1997 2221 2195 2262 
Q 2394 2304 2579 2387 
Q 2586 2458 2586 2525 
Q 2586 2592 2586 2662 
Q 2586 2938 2547 3190 
Q 2509 3443 2409 3632 
Q 2310 3821 2144 3933 
Q 1978 4045 1722 4045 
Q 1510 4045 1363 3955 
Q 1216 3866 1120 3728 
Q 1024 3590 982 3427 
Q 941 3264 941 3110 
Q 941 2675 1149 2448 
Q 1357 2221 1773 2221 
z
" transform="scale(0.015625)"/>
       </defs>
       <use xlink:href="#Ubuntu-30"/>
       <use xlink:href="#Ubuntu-39" x="56.399994"/>
      </g>
     </g>
    </g>
    <g id="xtick_4">
     <g id="line2d_4">
      <g>
       <use xlink:href="#m27648729f2" x="228.238326" y="105.439375" style="fill: #cccccc; stroke: #cccccc; stroke-width: 0.75"/>
      </g>
     </g>
     <g id="text_4">
      <!-- 13 -->
      <g style="fill: #999999" transform="translate(223.725826 120.646875) scale(0.08 -0.08)">
       <defs>
        <path id="Ubuntu-33" d="M 1446 435 
Q 2016 435 2262 659 
Q 2509 883 2509 1261 
Q 2509 1504 2406 1670 
Q 2304 1837 2137 1936 
Q 1971 2035 1750 2076 
Q 1530 2118 1299 2118 
L 1146 2118 
L 1146 2605 
L 1357 2605 
Q 1517 2605 1686 2637 
Q 1856 2669 1997 2752 
Q 2138 2835 2227 2979 
Q 2317 3123 2317 3341 
Q 2317 3520 2253 3648 
Q 2189 3776 2083 3859 
Q 1978 3942 1840 3977 
Q 1702 4013 1549 4013 
Q 1242 4013 1027 3923 
Q 813 3834 666 3738 
L 435 4192 
Q 512 4243 630 4304 
Q 749 4365 896 4416 
Q 1043 4467 1212 4502 
Q 1382 4538 1568 4538 
Q 1920 4538 2176 4451 
Q 2432 4365 2598 4208 
Q 2765 4051 2848 3836 
Q 2931 3622 2931 3373 
Q 2931 3027 2732 2780 
Q 2534 2534 2253 2406 
Q 2426 2355 2586 2259 
Q 2746 2163 2864 2016 
Q 2982 1869 3056 1677 
Q 3130 1485 3130 1248 
Q 3130 960 3030 713 
Q 2931 467 2723 288 
Q 2515 109 2201 6 
Q 1888 -96 1459 -96 
Q 1293 -96 1117 -70 
Q 941 -45 787 -6 
Q 634 32 518 70 
Q 403 109 352 134 
L 467 653 
Q 576 602 829 518 
Q 1082 435 1446 435 
z
" transform="scale(0.015625)"/>
       </defs>
       <use xlink:href="#Ubuntu-31"/>
       <use xlink:href="#Ubuntu-33" x="56.399994"/>
      </g>
     </g>
    </g>
    <g id="xtick_5">
     <g id="line2d_5">
      <g>
       <use xlink:href="#m27648729f2" x="286.604778" y="105.439375" style="fill: #cccccc; stroke: #cccccc; stroke-width: 0.75"/>
      </g>
     </g>
     <g id="text_5">
      <!-- 17 -->
      <g style="fill: #999999" transform="translate(282.092278 120.646875) scale(0.08 -0.08)">
       <defs>
        <path id="Ubuntu-37" d="M 1043 0 
Q 1082 512 1226 1078 
Q 1370 1645 1581 2179 
Q 1792 2714 2045 3171 
Q 2298 3629 2541 3917 
L 384 3917 
L 384 4435 
L 3206 4435 
L 3206 3942 
Q 2995 3699 2739 3273 
Q 2483 2848 2256 2320 
Q 2029 1792 1865 1193 
Q 1702 595 1664 0 
L 1043 0 
z
" transform="scale(0.015625)"/>
       </defs>
       <use xlink:href="#Ubuntu-31"/>
       <use xlink:href="#Ubuntu-37" x="56.399994"/>
      </g>
     </g>
    </g>
    <g id="xtick_6">
     <g id="line2d_6">
      <g>
       <use xlink:href="#m27648729f2" x="344.97123" y="105.439375" style="fill: #cccccc; stroke: #cccccc; stroke-width: 0.75"/>
      </g>
     </g>
     <g id="text_6">
      <!-- 21 -->
      <g style="fill: #999999" transform="translate(340.45873 120.646875) scale(0.08 -0.08)">
       <defs>
        <path id="Ubuntu-32" d="M 2989 3302 
Q 2989 3072 2896 2857 
Q 2803 2643 2649 2435 
Q 2496 2227 2304 2025 
Q 2112 1824 1920 1632 
Q 1811 1523 1667 1376 
Q 1523 1229 1395 1069 
Q 1267 909 1180 761 
Q 1094 614 1094 506 
L 3136 506 
L 3136 0 
L 448 0 
Q 442 38 442 76 
Q 442 115 442 147 
Q 442 448 541 707 
Q 640 966 800 1196 
Q 960 1427 1158 1632 
Q 1357 1837 1549 2029 
Q 1709 2182 1853 2332 
Q 1997 2483 2109 2633 
Q 2221 2784 2288 2944 
Q 2355 3104 2355 3283 
Q 2355 3475 2294 3609 
Q 2234 3744 2131 3833 
Q 2029 3923 1891 3964 
Q 1754 4006 1600 4006 
Q 1414 4006 1260 3955 
Q 1107 3904 985 3837 
Q 864 3770 781 3696 
Q 698 3622 653 3584 
L 358 4006 
Q 416 4070 531 4163 
Q 646 4256 806 4339 
Q 966 4422 1164 4480 
Q 1363 4538 1594 4538 
Q 2291 4538 2640 4214 
Q 2989 3891 2989 3302 
z
" transform="scale(0.015625)"/>
       </defs>
       <use xlink:href="#Ubuntu-32"/>
       <use xlink:href="#Ubuntu-31" x="56.399994"/>
      </g>
     </g>
    </g>
    <g id="xtick_7">
     <g id="line2d_7">
      <g>
       <use xlink:href="#m27648729f2" x="403.337682" y="105.439375" style="fill: #cccccc; stroke: #cccccc; stroke-width: 0.75"/>
      </g>
     </g>
     <g id="text_7">
      <!-- 25 -->
      <g style="fill: #999999" transform="translate(398.825182 120.646875) scale(0.08 -0.08)">
       <use xlink:href="#Ubuntu-32"/>
       <use xlink:href="#Ubuntu-35" x="56.399994"/>
      </g>
     </g>
    </g>
    <g id="xtick_8">
     <g id="line2d_8">
      <g>
       <use xlink:href="#m27648729f2" x="461.704134" y="105.439375" style="fill: #cccccc; stroke: #cccccc; stroke-width: 0.75"/>
      </g>
     </g>
     <g id="text_8">
      <!-- 29 -->
      <g style="fill: #999999" transform="translate(457.191634 120.646875) scale(0.08 -0.08)">
       <use xlink:href="#Ubuntu-32"/>
       <use xlink:href="#Ubuntu-39" x="56.399994"/>
      </g>
     </g>
    </g>
    <g id="xtick_9">
     <g id="line2d_9">
      <g>
       <use xlink:href="#m27648729f2" x="490.88736" y="105.439375" style="fill: #cccccc; stroke: #cccccc; stroke-width: 0.75"/>
      </g>
     </g>
    </g>
   </g>
   <g id="matplotlib.axis_2">
    <g id="ytick_1">
     <g id="line2d_10">
      <defs>
       <path id="mae7c5c77c1" d="M 0 0 
L -3 0 
" style="stroke: #cccccc; stroke-width: 0.75"/>
      </defs>
      <g>
       <use xlink:href="#mae7c5c77c1" x="38.7625" y="86.659375" style="fill: #cccccc; stroke: #cccccc; stroke-width: 0.75"/>
      </g>
     </g>
     <g id="text_9">
      <!-- 20000 -->
      <g style="fill: #999999" transform="translate(7.2 89.763125) scale(0.08 -0.08)">
       <use xlink:href="#Ubuntu-32"/>
       <use xlink:href="#Ubuntu-30" x="56.399994"/>
       <use xlink:href="#Ubuntu-30" x="112.799988"/>
       <use xlink:href="#Ubuntu-30" x="169.199982"/>
       <use xlink:href="#Ubuntu-30" x="225.599976"/>
      </g>
     </g>
    </g>
    <g id="ytick_2">
     <g id="line2d_11">
      <g>
       <use xlink:href="#mae7c5c77c1" x="38.7625" y="67.759375" style="fill: #cccccc; stroke: #cccccc; stroke-width: 0.75"/>
      </g>
     </g>
     <g id="text_10">
      <!-- 30000 -->
      <g style="fill: #999999" transform="translate(7.2 70.863125) scale(0.08 -0.08)">
       <use xlink:href="#Ubuntu-33"/>
       <use xlink:href="#Ubuntu-30" x="56.399994"/>
       <use xlink:href="#Ubuntu-30" x="112.799988"/>
       <use xlink:href="#Ubuntu-30" x="169.199982"/>
       <use xlink:href="#Ubuntu-30" x="225.599976"/>
      </g>
     </g>
    </g>
    <g id="ytick_3">
     <g id="line2d_12">
      <g>
       <use xlink:href="#mae7c5c77c1" x="38.7625" y="48.859375" style="fill: #cccccc; stroke: #cccccc; stroke-width: 0.75"/>
      </g>
     </g>
     <g id="text_11">
      <!-- 40000 -->
      <g style="fill: #999999" transform="translate(7.2 51.963125) scale(0.08 -0.08)">
       <defs>
        <path id="Ubuntu-34" d="M 256 1536 
Q 378 1818 589 2192 
Q 800 2566 1065 2963 
Q 1331 3360 1635 3744 
Q 1939 4128 2246 4435 
L 2816 4435 
L 2816 1619 
L 3341 1619 
L 3341 1133 
L 2816 1133 
L 2816 0 
L 2240 0 
L 2240 1133 
L 256 1133 
L 256 1536 
z
M 2240 3731 
Q 2048 3526 1853 3273 
Q 1658 3021 1472 2745 
Q 1286 2470 1123 2182 
Q 960 1894 832 1619 
L 2240 1619 
L 2240 3731 
z
" transform="scale(0.015625)"/>
       </defs>
       <use xlink:href="#Ubuntu-34"/>
       <use xlink:href="#Ubuntu-30" x="56.399994"/>
       <use xlink:href="#Ubuntu-30" x="112.799988"/>
       <use xlink:href="#Ubuntu-30" x="169.199982"/>
       <use xlink:href="#Ubuntu-30" x="225.599976"/>
      </g>
     </g>
    </g>
    <g id="ytick_4">
     <g id="line2d_13">
      <g>
       <use xlink:href="#mae7c5c77c1" x="38.7625" y="29.959375" style="fill: #cccccc; stroke: #cccccc; stroke-width: 0.75"/>
      </g>
     </g>
     <g id="text_12">
      <!-- 50000 -->
      <g style="fill: #999999" transform="translate(7.2 33.063125) scale(0.08 -0.08)">
       <use xlink:href="#Ubuntu-35"/>
       <use xlink:href="#Ubuntu-30" x="56.399994"/>
       <use xlink:href="#Ubuntu-30" x="112.799988"/>
       <use xlink:href="#Ubuntu-30" x="169.199982"/>
       <use xlink:href="#Ubuntu-30" x="225.599976"/>
      </g>
     </g>
    </g>
   </g>
   <g id="line2d_14">
    <path d="M 53.138971 70.648451 
L 53.442963 73.367121 
L 53.949616 77.257632 
L 54.456269 79.015393 
L 54.5576 78.968519 
L 54.65893 79.413819 
L 54.861592 79.249761 
L 55.064253 80.023176 
L 55.266914 79.577877 
L 55.368245 79.859118 
L 55.469575 79.765371 
L 55.672237 78.640404 
L 55.773567 78.640404 
L 55.976229 73.953041 
L 56.077559 74.445214 
L 56.17889 75.570181 
L 56.280221 75.171756 
L 56.482882 76.624838 
L 56.685543 79.202888 
L 56.888204 79.695061 
L 56.989535 79.484129 
L 57.192196 79.601313 
L 57.293527 79.952866 
L 57.496188 77.140448 
L 57.597519 78.499783 
L 57.69885 78.476346 
L 58.002842 72.570269 
L 59.421471 57.969134 
L 59.522801 58.039445 
L 59.624132 58.484744 
L 59.725463 58.156629 
L 60.029454 55.789511 
L 60.130785 55.7192 
L 60.232116 55.812947 
L 60.434777 55.437958 
L 60.536108 55.461395 
L 60.637438 55.297338 
L 60.738769 54.711417 
L 61.042761 57.031662 
L 61.144092 57.242593 
L 61.245422 57.125409 
L 61.346753 56.539489 
L 61.549414 58.273813 
L 61.853406 58.719112 
L 62.157398 61.812772 
L 62.360059 62.211198 
L 62.562721 61.320599 
L 62.664051 61.226851 
L 62.765382 61.297162 
L 62.866713 61.906519 
L 62.968043 61.719025 
L 63.170705 62.656497 
L 63.373366 63.312728 
L 63.474696 63.289291 
L 63.778688 63.73459 
L 63.98135 62.843992 
L 64.184011 60.898736 
L 64.386672 56.305121 
L 64.893325 38.868131 
L 64.994656 38.868131 
L 65.095987 39.032189 
L 65.197317 38.258774 
L 65.298648 38.282211 
L 65.399979 38.422832 
L 65.501309 38.915005 
L 65.60264 38.329084 
L 65.703971 38.446268 
L 66.007963 40.813387 
L 66.919938 52.813035 
L 67.527922 64.859558 
L 67.730584 67.742286 
L 68.034576 71.374992 
L 68.74389 78.45291 
L 69.047882 79.156014 
L 69.351874 80.913775 
L 69.453205 81.148143 
L 69.655866 81.007522 
L 69.858527 81.124706 
L 70.061188 81.148143 
L 70.162519 81.054396 
L 70.36518 80.468476 
L 70.567842 77.632621 
L 70.770503 79.460693 
L 70.973164 80.14036 
L 71.581148 88.038566 
L 71.783809 87.405772 
L 71.88514 86.866726 
L 71.986471 85.694885 
L 72.087801 85.812069 
L 72.189132 85.249586 
L 72.391793 83.140272 
L 72.493124 84.968344 
L 72.999777 77.796679 
L 73.101108 77.585747 
L 73.303769 73.015569 
L 73.709092 69.171931 
L 73.911753 68.937563 
L 74.114414 70.625014 
L 74.418406 68.843816 
L 74.823729 67.296986 
L 74.925059 67.367297 
L 75.02639 67.812596 
L 75.229051 67.34386 
L 75.330382 65.820467 
L 75.431713 66.148582 
L 75.735705 65.093926 
L 75.837035 65.304857 
L 76.141027 67.132928 
L 76.242358 67.250113 
L 76.749011 69.171931 
L 76.850342 69.125058 
L 77.356995 70.695324 
L 77.458326 70.296898 
L 77.559656 70.390646 
L 77.660987 71.984349 
L 77.762317 71.726544 
L 77.863648 72.12497 
L 77.964979 71.890602 
L 78.16764 72.570269 
L 78.268971 73.203063 
L 78.370301 73.15619 
L 78.572963 72.664017 
L 78.775624 71.351555 
L 79.079616 63.14867 
L 79.383608 48.945961 
L 79.586269 45.922612 
L 79.78893 45.453876 
L 79.890261 45.407002 
L 80.092922 44.164851 
L 80.599576 46.016359 
L 80.700906 45.828865 
L 80.802237 45.711681 
L 81.612882 58.461307 
L 82.018205 65.820467 
L 82.220866 68.914126 
L 82.626188 74.25772 
L 83.031511 78.054484 
L 83.234172 79.03883 
L 83.436834 80.187234 
L 83.538164 80.023176 
L 83.639495 80.163797 
L 83.842156 80.890338 
L 83.943487 80.749717 
L 84.146148 81.195017 
L 84.247479 80.609096 
L 84.348809 80.937212 
L 84.45014 80.72628 
L 84.551471 80.890338 
L 84.754132 79.577877 
L 84.855463 79.765371 
L 84.956793 79.366945 
L 85.159455 77.820116 
L 85.362116 78.781025 
L 85.463447 78.921646 
L 85.564777 78.546657 
L 85.868769 81.382511 
L 85.9701 81.17158 
L 86.274092 79.390382 
L 86.476753 80.163797 
L 86.780745 76.90608 
L 86.983406 75.078008 
L 88.908689 57.289467 
L 89.11135 57.031662 
L 89.21268 56.187936 
L 89.314011 56.328557 
L 89.415342 56.258247 
L 89.516672 55.836384 
L 89.618003 55.883258 
L 89.719334 55.742637 
L 89.820664 56.000442 
L 89.921995 55.906695 
L 90.225987 57.805077 
L 90.327318 57.26603 
L 90.529979 58.625365 
L 90.73264 58.648802 
L 91.036632 59.820643 
L 91.239293 60.242505 
L 91.441955 61.437783 
L 91.644616 62.04714 
L 92.151269 63.781464 
L 92.2526 63.66428 
L 92.35393 64.156453 
L 92.455261 63.851775 
L 92.657922 64.742373 
L 92.759253 64.484569 
L 93.367237 61.320599 
L 93.569898 56.984788 
L 94.076551 39.852477 
L 94.177882 39.805604 
L 94.279213 39.571235 
L 94.481874 39.922788 
L 94.583205 39.82904 
L 94.684535 40.016535 
L 95.596511 49.508445 
L 96.204495 60.711242 
L 96.609818 67.320423 
L 97.521793 76.929517 
L 97.825785 77.984173 
L 98.028447 79.156014 
L 98.433769 80.023176 
L 98.5351 79.929429 
L 98.737761 80.210671 
L 98.940422 79.929429 
L 99.244414 80.14036 
L 99.447076 80.116923 
L 99.548406 79.718497 
L 99.751068 77.398253 
L 99.953729 78.312289 
L 100.15639 78.640404 
L 100.257721 79.156014 
L 100.460382 81.218454 
L 100.561713 81.077833 
L 100.865705 79.55444 
L 101.068366 79.976302 
L 101.271027 77.351379 
L 101.372358 77.398253 
L 101.575019 75.35925 
L 101.980342 70.414082 
L 102.284334 68.351643 
L 102.385664 67.836033 
L 102.588326 66.101709 
L 103.398971 59.656585 
L 103.500302 59.445654 
L 104.006955 56.703546 
L 104.108285 55.695763 
L 104.310947 56.984788 
L 104.513608 57.359777 
L 104.716269 59.445654 
L 104.8176 59.234722 
L 105.222922 60.922173 
L 105.324253 60.687805 
L 105.526914 61.203415 
L 105.628245 60.664368 
L 105.729576 60.94561 
L 106.033568 62.961176 
L 106.134898 62.679934 
L 106.33756 62.890865 
L 106.43889 62.961176 
L 106.742882 64.976742 
L 106.844213 64.929868 
L 106.945543 64.672063 
L 107.148205 63.59397 
L 107.249535 63.828338 
L 107.553527 63.59397 
L 107.756189 62.843992 
L 107.95885 61.719025 
L 108.262842 54.008313 
L 108.566834 40.368087 
L 108.769495 39.313431 
L 108.870826 39.055626 
L 109.276148 40.27434 
L 109.377479 41.024318 
L 109.47881 40.602455 
L 110.492116 52.953656 
L 111.505423 71.09375 
L 111.910745 74.937387 
L 112.214737 77.492 
L 112.316068 77.42169 
L 112.62006 79.062267 
L 112.72139 79.03883 
L 112.822721 79.671624 
L 112.924052 79.62475 
L 113.025382 79.741934 
L 113.126713 80.234107 
L 113.329374 79.788808 
L 113.430705 79.765371 
L 113.633366 80.515349 
L 113.937358 79.366945 
L 114.038689 79.320072 
L 114.140019 78.382599 
L 114.342681 76.226412 
L 114.545342 77.9373 
L 114.748003 78.218541 
L 115.051995 81.499695 
L 115.153326 81.359074 
L 115.355987 79.531003 
L 115.457318 79.976302 
L 115.558648 79.952866 
L 115.659979 80.234107 
L 116.977277 68.515701 
L 117.3826 64.2502 
L 117.990584 59.492527 
L 118.091914 59.773769 
L 118.395906 58.250376 
L 118.497237 57.922261 
L 118.598568 57.031662 
L 118.801229 57.476961 
L 118.90256 58.29725 
L 119.00389 57.476961 
L 119.105221 59.187849 
L 119.307882 57.805077 
L 119.510544 58.250376 
L 119.611874 58.133192 
L 120.118527 60.265942 
L 120.219858 60.523747 
L 120.321189 60.476873 
L 120.52385 61.53153 
L 120.726511 61.625277 
L 120.929173 62.586187 
L 121.030503 62.04714 
L 121.233165 62.398692 
L 121.435826 63.875211 
L 121.537156 62.937739 
L 121.739818 63.851775 
L 121.841148 63.945522 
L 122.246471 62.539313 
L 122.347802 62.961176 
L 122.449132 62.609623 
L 122.550463 61.625277 
L 122.854455 54.711417 
L 123.158447 40.766513 
L 123.361108 39.477488 
L 123.462439 39.430615 
L 123.6651 39.852477 
L 123.867761 40.086845 
L 124.475745 44.305472 
L 125.28639 57.617582 
L 125.691713 65.304857 
L 126.603689 75.687366 
L 127.110342 78.687278 
L 127.313003 80.023176 
L 127.515665 79.62475 
L 127.718326 80.187234 
L 127.920987 79.718497 
L 128.123648 80.679407 
L 128.528971 79.226324 
L 128.630302 79.249761 
L 128.731632 78.851335 
L 128.832963 77.257632 
L 128.934294 77.468563 
L 129.136955 78.710715 
L 129.238286 77.960736 
L 129.440947 79.882555 
L 129.643608 82.155926 
L 130.048931 79.718497 
L 130.150261 80.163797 
L 130.251592 79.882555 
L 130.555584 76.859206 
L 130.656915 76.413907 
L 130.859576 74.187409 
L 130.960906 74.093662 
L 131.062237 73.507742 
L 131.670221 65.070489 
L 132.075544 61.297162 
L 132.683527 59.000354 
L 132.886189 58.039445 
L 133.08885 56.75042 
L 133.190181 56.586362 
L 133.291511 55.766074 
L 133.392842 55.812947 
L 133.494173 56.1645 
L 133.696834 55.977005 
L 134.102157 57.85195 
L 134.203487 57.922261 
L 134.406148 58.390997 
L 134.60881 60.055011 
L 134.71014 60.336253 
L 134.811471 59.9847 
L 135.014132 60.453437 
L 135.115463 60.664368 
L 135.318124 61.554967 
L 135.419455 61.437783 
L 135.520786 61.742461 
L 135.622116 61.625277 
L 135.723447 61.883082 
L 135.926108 63.804901 
L 136.027439 63.711154 
L 136.128769 63.054923 
L 136.432761 63.617406 
L 136.534092 63.383038 
L 136.736753 62.234634 
L 136.939415 61.719025 
L 137.040745 61.812772 
L 137.344737 56.445741 
L 137.547398 47.867868 
L 137.85139 38.704073 
L 138.256713 39.594672 
L 138.459374 39.454051 
L 139.270019 46.414785 
L 139.675342 52.602104 
L 141.093971 74.32803 
L 141.296632 75.734239 
L 141.499294 77.515437 
L 141.600624 77.656058 
L 142.208608 79.905992 
L 142.411269 79.55444 
L 142.613931 79.952866 
L 142.715261 79.929429 
L 142.917923 79.437256 
L 143.019253 79.648187 
L 143.120584 79.390382 
L 143.323245 78.382599 
L 143.424576 76.531091 
L 143.728568 78.218541 
L 143.829898 78.476346 
L 143.931229 78.312289 
L 144.13389 80.843465 
L 144.336552 81.405948 
L 144.539213 79.413819 
L 144.741874 80.046613 
L 144.843205 80.210671 
L 144.944536 79.741934 
L 145.147197 77.866989 
L 145.248528 78.406036 
L 145.856511 66.031398 
L 145.957842 66.01968 
L 146.261834 64.718937 
L 146.768487 57.758203 
L 147.072479 56.410586 
L 147.17381 56.844167 
L 147.376471 55.578579 
L 147.477802 55.144998 
L 147.680463 54.078623 
L 147.781794 54.348147 
L 147.883124 54.301273 
L 148.085786 58.918325 
L 148.491108 62.082295 
L 148.592439 61.976829 
L 148.7951 61.484656 
L 148.997761 61.941674 
L 149.200423 62.164324 
L 149.605745 63.88693 
L 149.808407 64.320511 
L 149.909737 64.121298 
L 150.213729 64.566597 
L 150.31506 64.789247 
L 150.517721 64.308792 
L 150.619052 64.47285 
L 150.720382 64.414258 
L 150.821713 64.508005 
L 150.923044 64.812684 
L 151.125705 64.531442 
L 151.227036 64.882994 
L 151.328366 64.812684 
L 151.531028 63.722872 
L 151.632358 64.17989 
L 151.733689 63.570533 
L 152.037681 57.418369 
L 152.341673 43.942201 
L 152.544334 41.411025 
L 152.848326 42.465682 
L 152.949657 42.266469 
L 153.050987 42.33678 
L 153.253649 41.621957 
L 153.962963 48.699874 
L 154.064294 48.629564 
L 154.165624 48.770185 
L 154.570947 57.523835 
L 155.0776 67.214957 
L 155.786915 74.527243 
L 156.090907 76.742022 
L 156.394899 77.820116 
L 156.901552 79.531003 
L 157.002882 79.683342 
L 157.205544 79.284916 
L 157.306874 79.296635 
L 157.509536 79.085704 
L 157.610866 79.296635 
L 157.813528 78.757588 
L 158.016189 76.202975 
L 158.21885 77.398253 
L 158.522842 78.429473 
L 158.826834 84.429297 
L 158.928165 83.784785 
L 159.333487 82.366857 
L 159.434818 82.155926 
L 160.144132 74.972543 
L 160.650786 68.902408 
L 160.853447 67.074336 
L 161.056108 64.425977 
L 161.461431 61.82449 
L 161.664092 60.535465 
L 161.765423 59.867516 
L 161.866753 60.183913 
L 162.170745 58.730831 
L 162.272076 59.223004 
L 162.373407 58.613647 
L 162.576068 58.648802 
L 162.778729 59.996419 
L 162.981391 59.293314 
L 163.082721 59.234722 
L 163.285382 59.480809 
L 163.488044 60.289379 
L 163.589374 59.902671 
L 163.792036 60.922173 
L 163.893366 60.816707 
L 164.096028 61.519812 
L 164.298689 63.500222 
L 164.50135 63.840056 
L 164.602681 64.672063 
L 164.704012 64.625189 
L 164.805342 64.343948 
L 165.008003 65.129081 
L 165.210665 65.656409 
L 165.311995 65.398604 
L 165.615987 65.902496 
L 165.717318 65.351731 
L 165.919979 65.761875 
L 166.325302 63.383038 
L 166.527963 60.242505 
L 166.730624 52.859909 
L 166.933286 44.410938 
L 167.135947 43.321126 
L 167.439939 42.430527 
L 167.6426 42.899263 
L 167.743931 43.133631 
L 167.845262 43.004729 
L 168.047923 44.8328 
L 168.149253 45.05545 
L 168.858568 51.945873 
L 170.277197 73.683518 
L 170.68252 76.636556 
L 170.78385 77.023264 
L 170.986512 78.441191 
L 171.087842 78.675559 
L 171.290503 79.460693 
L 171.493165 79.531003 
L 171.695826 80.210671 
L 171.797157 80.316136 
L 171.999818 80.784873 
L 172.101149 80.456757 
L 172.202479 80.72628 
L 172.405141 80.034894 
L 172.607802 77.949018 
L 172.709133 78.206823 
L 172.911794 79.788808 
L 173.114455 81.066114 
L 173.418447 86.327679 
L 173.722439 87.030783 
L 173.82377 86.808134 
L 174.127762 85.331614 
L 174.229092 85.14412 
L 174.837076 77.527155 
L 175.242399 72.980414 
L 175.647721 69.746133 
L 175.951713 66.300922 
L 176.154374 67.648538 
L 176.255705 67.437607 
L 176.458366 66.148582 
L 176.559697 66.101709 
L 176.661028 65.925933 
L 176.863689 64.882994 
L 177.06635 64.836121 
L 177.167681 65.175955 
L 177.269012 64.859558 
L 177.370342 64.953305 
L 177.573004 63.840056 
L 177.674334 63.523659 
L 177.775665 63.781464 
L 177.876995 63.66428 
L 177.978326 64.015832 
L 178.079657 63.910367 
L 178.687641 66.38295 
L 178.991633 68.37508 
L 179.092963 68.281332 
L 179.396955 68.937563 
L 179.802278 70.273462 
L 180.2076 68.351643 
L 180.410262 66.839968 
L 180.916915 63.44163 
L 181.322237 54.008313 
L 181.524899 47.914741 
L 181.626229 47.633499 
L 181.828891 46.742901 
L 181.930221 46.531969 
L 182.132883 44.949984 
L 182.335544 45.184352 
L 182.436875 44.785927 
L 182.538205 45.020295 
L 183.34885 52.109931 
L 183.956834 63.195544 
L 184.159495 66.781376 
L 184.767479 73.214782 
L 185.476794 77.515437 
L 186.287439 80.269263 
L 186.38877 80.187234 
L 186.692762 79.788808 
L 186.794092 79.495848 
L 186.895423 78.792743 
L 186.996754 79.073985 
L 187.199415 77.117011 
L 187.402076 79.202888 
L 187.604737 79.601313 
L 187.908729 83.444951 
L 188.01006 84.757412 
L 188.111391 84.581636 
L 188.314052 84.722257 
L 189.53002 73.624926 
L 190.340665 63.066641 
L 190.745987 59.012073 
L 190.847318 61.355754 
L 190.948649 68.855534 
L 191.049979 68.820379 
L 191.15131 68.140711 
L 191.353971 64.47285 
L 191.455302 64.613471 
L 191.961955 59.39878 
L 192.164617 58.086318 
L 192.367278 58.36756 
L 192.468608 58.226939 
L 192.569939 57.465243 
L 192.7726 58.390997 
L 192.975262 59.140975 
L 193.177923 60.20735 
L 193.279254 60.629213 
L 193.481915 61.801053 
L 193.684576 62.422129 
L 193.988568 59.926108 
L 194.393891 60.957328 
L 194.495221 60.43 
L 194.697883 61.46122 
L 194.900544 62.961176 
L 195.103205 63.183825 
L 195.305867 61.332317 
L 195.407197 61.426064 
L 195.711189 55.613735 
L 195.91385 49.90687 
L 196.116512 43.110194 
L 196.217842 42.40709 
L 196.319173 42.62974 
L 196.420504 42.500837 
L 196.521834 42.090693 
L 196.623165 42.137567 
L 196.927157 43.637523 
L 197.231149 44.844519 
L 197.43381 46.871803 
L 197.535141 47.469442 
L 197.737802 49.871715 
L 197.839133 50.340451 
L 198.345786 58.930044 
L 198.649778 64.519724 
L 199.359092 73.531179 
L 199.865746 76.39047 
L 200.169738 78.757588 
L 200.271068 78.781025 
L 200.777721 80.339573 
L 200.879052 79.999739 
L 201.081713 80.316136 
L 201.284375 79.91771 
L 201.487036 79.179451 
L 201.588367 78.734151 
L 201.689697 77.058419 
L 201.791028 77.19904 
L 202.09502 79.003675 
L 202.19635 79.167732 
L 202.297681 79.988021 
L 202.601673 84.605073 
L 202.804334 85.284741 
L 203.006996 84.241803 
L 203.310988 81.195017 
L 203.412318 78.30057 
L 203.513649 78.945083 
L 203.614979 78.347444 
L 203.817641 76.425625 
L 203.918971 77.011546 
L 204.425625 69.195368 
L 204.729617 66.816532 
L 205.134939 61.965111 
L 205.540262 58.601928 
L 205.641592 58.765986 
L 205.742923 58.36756 
L 205.844254 58.824578 
L 205.945584 57.465243 
L 206.046915 58.543336 
L 206.249576 57.969134 
L 206.452238 58.566773 
L 206.756229 58.016008 
L 206.85756 58.414434 
L 206.958891 59.703459 
L 207.262883 58.730831 
L 207.364213 58.719112 
L 207.465544 60.512029 
L 207.566875 59.211285 
L 207.668205 59.387062 
L 207.769536 59.258159 
L 208.174859 61.30888 
L 208.276189 61.332317 
L 208.37752 61.543248 
L 208.580181 61.414346 
L 208.681512 61.355754 
L 208.985504 62.293226 
L 209.086834 62.410411 
L 209.390826 64.343948 
L 209.593488 63.793183 
L 209.694818 63.922085 
L 209.89748 63.781464 
L 209.99881 63.769746 
L 210.404133 57.148846 
L 210.910786 41.528209 
L 211.012117 41.317278 
L 211.113447 41.446181 
L 211.417439 42.641458 
L 211.6201 42.653177 
L 211.721431 42.524274 
L 211.924092 43.696115 
L 212.937399 55.848103 
L 213.646713 68.539137 
L 214.76135 77.597466 
L 214.964012 78.148231 
L 215.065342 77.843552 
L 215.166673 78.042765 
L 215.268004 78.698996 
L 215.369334 78.581812 
L 215.571996 79.120859 
L 215.774657 78.804462 
L 215.977318 78.171668 
L 216.28131 75.745958 
L 216.483971 77.140448 
L 217.294617 84.253521 
L 217.497278 84.007434 
L 217.699939 82.741846 
L 217.80127 82.648099 
L 218.003931 79.8474 
L 218.105262 79.77709 
L 218.307923 77.351379 
L 218.409254 76.870925 
L 219.929213 60.078448 
L 220.233205 59.012073 
L 220.334536 58.180066 
L 220.435867 59.012073 
L 220.841189 57.324622 
L 220.94252 57.547272 
L 221.043851 57.359777 
L 221.145181 57.711329 
L 221.347842 57.26603 
L 221.550504 58.508181 
L 221.651834 58.414434 
L 221.854496 59.504246 
L 221.955826 59.094101 
L 222.057157 59.351906 
L 222.158488 58.988636 
L 222.259818 59.223004 
L 222.665141 61.578404 
L 222.766472 61.414346 
L 222.969133 61.297162 
L 223.171794 62.328382 
L 223.273125 62.222916 
L 223.374455 61.695588 
L 223.577117 62.750244 
L 223.881109 63.711154 
L 224.08377 64.086143 
L 224.185101 64.004114 
L 224.286431 64.367384 
L 224.387762 64.027551 
L 224.590423 64.707218 
L 224.793084 62.808836 
L 225.097076 54.61767 
L 225.299738 44.703898 
L 225.502399 43.039884 
L 225.60373 42.33678 
L 225.70506 42.395372 
L 225.907722 43.192223 
L 226.009052 43.297689 
L 226.110383 43.977356 
L 226.211713 43.203942 
L 226.313044 43.391436 
L 227.022359 48.758467 
L 227.630343 58.859733 
L 227.934334 64.074424 
L 228.035665 65.117363 
L 228.339657 69.851599 
L 229.150302 76.519372 
L 229.555625 78.312289 
L 229.656955 78.241978 
L 229.859617 78.839617 
L 229.960947 78.616967 
L 230.163609 79.202888 
L 230.264939 79.015393 
L 230.36627 78.570094 
L 230.467601 78.652122 
L 230.568931 78.933364 
L 230.872923 76.425625 
L 230.974254 76.495936 
L 231.176915 77.984173 
L 231.278246 78.019328 
L 231.379576 78.394318 
L 231.784899 84.757412 
L 231.88623 84.616792 
L 232.088891 83.983998 
L 232.190222 84.159774 
L 232.392883 82.683254 
L 232.595544 79.718497 
L 232.798205 78.616967 
L 233.102197 75.370969 
L 233.50752 71.152342 
L 233.608851 70.789071 
L 234.318165 63.652562 
L 234.520826 61.426064 
L 234.622157 61.414346 
L 235.02748 58.894888 
L 235.12881 59.117538 
L 235.432802 57.371496 
L 235.534133 57.734766 
L 235.635464 57.371496 
L 235.838125 57.605864 
L 235.939455 57.676174 
L 236.040786 57.500398 
L 236.142117 57.617582 
L 236.243447 57.441806 
L 236.547439 58.508181 
L 236.750101 58.109755 
L 236.851431 58.180066 
L 236.952762 58.390997 
L 237.155423 63.922085 
L 237.358084 60.371408 
L 237.662076 60.605776 
L 238.067399 62.609623 
L 238.16873 63.652562 
L 238.371391 62.609623 
L 238.574052 63.816619 
L 238.675383 64.156453 
L 238.878044 63.968959 
L 239.182036 63.711154 
L 239.384697 61.30888 
L 239.688689 53.51614 
L 239.992681 41.645394 
L 240.094012 41.188376 
L 240.296673 41.328997 
L 240.398004 41.30556 
L 240.499335 41.879762 
L 240.600665 41.703986 
L 240.701996 41.938354 
L 240.803326 42.571148 
L 240.904657 42.524274 
L 241.107318 44.071104 
L 241.41131 46.531969 
L 241.613972 48.781903 
L 241.816633 51.336516 
L 242.627278 64.449413 
L 243.336593 72.523396 
L 243.640585 75.019416 
L 244.147238 77.855271 
L 244.248568 77.726368 
L 244.45123 78.089639 
L 244.55256 77.866989 
L 244.755222 78.804462 
L 244.856552 78.171668 
L 244.957883 78.288852 
L 245.059214 78.663841 
L 245.363206 77.011546 
L 245.464536 75.546745 
L 245.565867 76.015481 
L 245.768528 77.960736 
L 245.869859 77.632621 
L 245.971189 78.277133 
L 246.376512 84.019153 
L 246.883165 82.694973 
L 247.288488 79.355227 
L 247.389818 79.320072 
L 247.59248 78.00761 
L 247.69381 78.45291 
L 248.200464 70.35549 
L 248.403125 68.796942 
L 249.112439 61.191696 
L 249.21377 61.086231 
L 249.416431 59.703459 
L 249.517762 59.926108 
L 249.923085 57.969134 
L 250.024415 57.933979 
L 250.429738 61.496375 
L 250.73373 62.691652 
L 250.936391 60.371408 
L 251.037722 60.008137 
L 251.240383 60.840144 
L 251.341714 60.898736 
L 251.645706 61.883082 
L 251.747036 62.035422 
L 251.949697 62.691652 
L 252.051028 62.586187 
L 252.152359 62.902584 
L 252.253689 63.828338 
L 252.557681 62.750244 
L 252.659012 62.609623 
L 252.760343 62.843992 
L 252.861673 62.773681 
L 252.963004 63.195544 
L 253.165665 65.21111 
L 253.266996 65.047052 
L 253.469657 65.398604 
L 253.570988 65.257983 
L 253.773649 65.890777 
L 253.87498 65.562662 
L 254.077641 62.867428 
L 254.280302 56.000442 
L 254.482964 44.914829 
L 254.685625 44.141414 
L 254.888286 43.321126 
L 255.090947 44.000793 
L 255.192278 43.43831 
L 255.394939 43.930483 
L 255.49627 43.696115 
L 255.597601 43.907046 
L 256.002923 46.60228 
L 256.408246 50.984964 
L 257.11756 62.937739 
L 257.725544 71.843728 
L 258.232198 75.335813 
L 258.333528 75.546745 
L 258.536189 77.140448 
L 258.738851 78.054484 
L 258.840181 78.218541 
L 259.245504 79.531003 
L 259.346835 79.343508 
L 259.650827 78.382599 
L 259.853488 78.781025 
L 260.056149 76.90608 
L 260.15748 77.281069 
L 260.360141 78.476346 
L 260.461472 78.499783 
L 260.664133 81.359074 
L 260.968125 85.390206 
L 261.474778 84.40586 
L 261.576109 83.866814 
L 261.77877 81.851248 
L 262.589415 73.437431 
L 262.690746 74.515525 
L 263.602722 64.367384 
L 263.704052 64.882994 
L 264.008044 61.203415 
L 264.312036 59.703459 
L 264.514698 59.32847 
L 264.616028 59.023791 
L 264.92002 59.91439 
L 265.021351 59.773769 
L 265.224012 60.992483 
L 265.325343 60.101884 
L 265.426673 60.640931 
L 265.528004 60.50031 
L 265.933327 61.60184 
L 266.237319 62.211198 
L 266.54131 63.125233 
L 266.845302 62.539313 
L 267.047964 63.640843 
L 267.453286 65.656409 
L 267.655948 65.468915 
L 267.757278 65.164236 
L 267.959939 65.843904 
L 268.06127 65.656409 
L 268.263931 65.351731 
L 268.567923 63.383038 
L 268.770585 59.375343 
L 269.277238 42.735205 
L 269.378569 43.086758 
L 269.58123 42.571148 
L 269.783891 43.227378 
L 269.986552 42.805516 
L 270.087883 42.9227 
L 270.290544 44.797645 
L 270.391875 44.703898 
L 271.607843 58.555055 
L 271.911835 64.953305 
L 272.215827 69.828162 
L 273.026472 77.398253 
L 273.533125 79.156014 
L 273.735786 79.601313 
L 273.837117 79.273198 
L 274.039778 79.62475 
L 274.141109 79.531003 
L 274.34377 80.280981 
L 274.445101 79.929429 
L 274.647762 78.265415 
L 274.951754 79.601313 
L 275.053085 79.741934 
L 275.255746 82.78872 
L 275.458407 87.194841 
L 275.762399 88.272935 
L 275.965061 87.194841 
L 276.167722 87.030783 
L 276.370383 86.304242 
L 276.573044 84.968344 
L 276.674375 85.132401 
L 278.093004 71.070313 
L 278.194335 71.374992 
L 278.295665 69.570357 
L 278.498327 69.875036 
L 278.700988 66.336077 
L 278.802319 66.593882 
L 279.207641 65.023615 
L 279.308972 65.539225 
L 279.410302 65.328294 
L 279.612964 65.492352 
L 279.815625 66.31264 
L 279.916956 66.172019 
L 280.018286 65.820467 
L 280.322278 66.336077 
L 280.423609 66.101709 
L 280.727601 67.015744 
L 281.234254 70.015657 
L 281.335585 70.039093 
L 281.436915 70.179714 
L 281.538246 70.015657 
L 281.639577 70.437519 
L 281.740907 70.085967 
L 281.842238 70.132841 
L 282.14623 70.226588 
L 282.348891 71.328118 
L 282.855544 69.453173 
L 282.956875 69.406299 
L 283.159536 67.132928 
L 283.463528 58.601928 
L 283.76752 46.344475 
L 283.970182 44.938266 
L 284.274173 44.188288 
L 284.375504 44.258598 
L 284.578165 44.117977 
L 284.679496 43.813299 
L 284.780827 42.946137 
L 284.882157 43.039884 
L 285.388811 48.852214 
L 285.692802 54.219244 
L 286.300786 64.929868 
L 286.80744 72.101533 
L 287.618085 78.241978 
L 287.820746 78.546657 
L 287.922077 78.59353 
L 288.226069 79.437256 
L 288.631391 79.015393 
L 288.732722 79.156014 
L 289.036714 78.077921 
L 289.239375 76.648275 
L 289.543367 78.499783 
L 289.746028 79.695061 
L 289.94869 82.484042 
L 290.151351 82.343421 
L 290.455343 78.827899 
L 290.759335 79.62475 
L 291.063327 75.546745 
L 291.468649 73.249937 
L 291.873972 69.359426 
L 292.076633 68.398516 
L 292.785948 61.226851 
L 292.887278 60.687805 
L 293.08994 59.258159 
L 293.19127 59.375343 
L 293.393932 58.344123 
L 293.495262 56.539489 
L 293.697924 56.773857 
L 293.799254 56.000442 
L 293.900585 56.1645 
L 294.103246 57.172283 
L 294.407238 57.758203 
L 294.609899 58.555055 
L 294.812561 58.062882 
L 294.913891 58.180066 
L 295.015222 59.023791 
L 295.217883 58.203502 
L 295.724536 60.031574 
L 295.825867 60.078448 
L 296.028528 60.594057 
L 296.129859 60.242505 
L 296.23119 60.476873 
L 296.433851 61.672151 
L 296.535182 61.297162 
L 296.940504 62.469003 
L 297.447157 61.344035 
L 297.548488 61.250288 
L 297.751149 60.219068 
L 298.055141 52.461483 
L 298.359133 38.2119 
L 298.460464 37.907222 
L 298.561794 37.133807 
L 298.764456 38.469705 
L 298.865786 38.774384 
L 298.967117 38.165027 
L 299.271109 39.547799 
L 299.980424 47.891304 
L 301.399053 71.468739 
L 301.601714 73.062442 
L 301.905706 75.663929 
L 302.209698 76.859206 
L 302.311028 76.97639 
L 302.412359 77.913863 
L 302.51369 77.773242 
L 302.61502 77.843552 
L 302.919012 78.945083 
L 303.020343 78.734151 
L 303.223004 79.015393 
L 303.526996 78.335725 
L 303.628327 77.702932 
L 303.729657 76.132665 
L 303.830988 76.46078 
L 304.13498 77.866989 
L 304.236311 78.00761 
L 304.337641 78.59353 
L 304.540303 81.195017 
L 304.641633 81.7575 
L 304.742964 81.68719 
L 304.844295 81.10127 
L 305.046956 78.59353 
L 305.148286 78.476346 
L 305.350948 78.898209 
L 305.553609 76.952953 
L 305.958932 73.601489 
L 306.465585 68.304769 
L 306.668246 67.34386 
L 306.972238 64.297074 
L 307.478891 60.008137 
L 307.580222 59.937827 
L 307.681553 60.312816 
L 307.884214 58.414434 
L 307.985545 58.039445 
L 308.086875 56.539489 
L 308.188206 56.656673 
L 308.390867 56.117626 
L 308.593528 56.516052 
L 308.79619 57.500398 
L 308.89752 55.555142 
L 309.201512 56.961351 
L 309.302843 57.125409 
L 309.606835 58.086318 
L 309.809496 58.742549 
L 310.012157 60.265942 
L 310.113488 60.383126 
L 310.214819 60.992483 
L 310.518811 60.664368 
L 310.924133 62.140887 
L 311.228125 62.094014 
L 311.329456 62.187761 
L 311.532117 62.797118 
L 311.633448 62.258071 
L 311.734778 62.773681 
L 312.03877 61.390909 
L 312.140101 61.765898 
L 312.342762 59.820643 
L 312.545424 56.351994 
L 312.748085 47.047579 
L 312.950746 39.969661 
L 313.052077 38.985315 
L 313.153407 39.032189 
L 313.55873 39.524362 
L 314.470706 46.133543 
L 315.889335 70.742198 
L 316.294657 74.632709 
L 316.902641 78.00761 
L 317.105303 78.124794 
L 317.307964 78.898209 
L 317.409295 79.249761 
L 317.611956 78.851335 
L 317.814617 79.390382 
L 317.915948 79.156014 
L 318.21994 77.726368 
L 318.32127 76.109228 
L 318.827924 78.851335 
L 318.929254 79.718497 
L 319.131916 81.780937 
L 319.233246 81.804374 
L 319.435908 80.937212 
L 319.638569 79.413819 
L 319.739899 79.577877 
L 319.84123 79.390382 
L 319.942561 79.62475 
L 320.246553 75.734239 
L 320.651875 70.695324 
L 320.854537 67.648538 
L 321.057198 66.82825 
L 321.46252 65.304857 
L 322.070504 59.422217 
L 322.577158 57.289467 
L 322.678488 56.117626 
L 322.779819 56.633236 
L 322.98248 55.344211 
L 323.083811 56.258247 
L 323.185141 55.859821 
L 323.286472 56.047316 
L 323.489133 55.789511 
L 323.590464 56.398868 
L 323.793125 55.883258 
L 323.894456 56.75042 
L 323.995787 56.539489 
L 324.097117 56.586362 
L 324.401109 58.039445 
L 324.50244 57.875387 
L 324.60377 58.180066 
L 324.907762 60.148758 
L 325.414416 60.851862 
L 325.617077 62.422129 
L 325.819738 62.11745 
L 326.022399 62.11745 
L 326.12373 62.445566 
L 326.225061 62.351818 
L 326.529053 60.242505 
L 326.731714 59.890953 
L 327.238367 51.430263 
L 327.542359 40.321214 
L 327.74502 39.711856 
L 327.846351 39.782167 
L 328.150343 41.024318 
L 328.353004 41.118065 
L 328.555666 41.703986 
L 329.568972 57.430088 
L 329.974295 65.164236 
L 330.683609 73.976478 
L 331.088932 77.023264 
L 331.190262 77.046701 
L 331.291593 77.304506 
L 331.696916 79.366945 
L 331.798246 79.273198 
L 331.899577 78.663841 
L 332.000908 78.710715 
L 332.203569 79.320072 
L 332.3049 78.781025 
L 332.40623 79.484129 
L 332.811553 77.773242 
L 332.912883 76.273286 
L 333.014214 76.648275 
L 333.824859 82.859031 
L 333.92619 82.812157 
L 334.02752 82.155926 
L 334.230182 79.343508 
L 334.331512 79.03883 
L 334.534174 79.577877 
L 334.838166 75.921734 
L 334.939496 76.109228 
L 335.750141 68.000091 
L 336.864779 59.539401 
L 336.966109 58.133192 
L 337.06744 58.695676 
L 337.472762 55.391085 
L 337.574093 54.500486 
L 337.675424 56.117626 
L 337.776754 92.679056 
L 337.878085 90.827547 
L 337.979416 73.437431 
L 338.080746 73.765547 
L 338.182077 74.890514 
L 338.384738 73.953041 
L 338.5874 73.929604 
L 338.891391 74.726456 
L 338.992722 74.609272 
L 339.094053 74.703019 
L 339.296714 74.585835 
L 339.499375 75.195192 
L 339.702037 74.937387 
L 339.803367 75.312377 
L 339.904698 75.242066 
L 340.006029 74.937387 
L 340.20869 76.015481 
L 340.715343 76.718585 
L 340.816674 76.331878 
L 340.918004 76.425625 
L 341.019335 76.695149 
L 341.424658 74.456933 
L 341.627319 72.757764 
L 341.931311 60.992483 
L 342.133972 49.918589 
L 342.235303 49.742813 
L 342.944617 51.887281 
L 343.248609 55.250464 
L 343.653932 58.988636 
L 343.957924 63.277573 
L 345.173892 78.23026 
L 346.085867 83.550417 
L 346.288529 83.679319 
L 346.49119 84.066026 
L 346.592521 83.995716 
L 346.693851 83.773066 
L 346.795182 83.913687 
L 347.301835 82.987933 
L 347.504496 81.452822 
L 347.808488 82.765283 
L 348.01115 83.620727 
L 348.315142 86.456581 
L 348.416472 86.374553 
L 348.517803 86.702668 
L 348.923125 82.413731 
L 349.227117 81.628598 
L 349.429779 78.616967 
L 349.63244 75.605337 
L 349.733771 75.300658 
L 350.037763 72.652298 
L 350.139093 71.703107 
L 350.443085 62.92602 
L 350.645746 57.723048 
L 350.949738 53.340364 
L 351.355061 49.578755 
L 351.659053 47.903023 
L 351.760383 47.492879 
L 352.165706 44.176569 
L 352.77369 50.891217 
L 352.875021 50.902935 
L 352.976351 50.317015 
L 353.179013 50.434199 
L 353.381674 51.336516 
L 353.584335 51.113866 
L 353.685666 51.945873 
L 353.786996 51.922436 
L 353.989658 51.570884 
L 354.192319 52.004465 
L 354.29365 51.652913 
L 354.39498 51.875563 
L 354.496311 52.566949 
L 354.597642 52.473201 
L 354.698972 51.406826 
L 354.901634 56.785575 
L 355.306956 57.957416 
L 355.509617 61.402628 
L 355.610948 61.086231 
L 355.813609 59.047228 
L 356.016271 57.594145 
L 356.421593 53.117714 
L 356.725585 41.985227 
L 356.826916 41.563365 
L 357.130908 42.11413 
L 357.232238 42.196159 
L 357.333569 42.4774 
L 357.4349 42.33678 
L 357.637561 43.28597 
L 358.650867 56.152781 
L 359.05619 64.156453 
L 359.562843 70.894537 
L 359.866835 73.425713 
L 360.170827 76.706867 
L 360.57615 78.183386 
L 360.67748 78.077921 
L 361.386795 80.691125 
L 361.488125 80.421602 
L 361.690787 79.202888 
L 361.792117 79.191169 
L 361.893448 79.296635 
L 361.994779 77.409971 
L 362.096109 77.42169 
L 362.298771 79.179451 
L 362.602763 81.265327 
L 362.906755 84.640228 
L 363.008085 84.933189 
L 363.109416 85.800351 
L 363.514738 82.56607 
L 363.7174 83.609009 
L 363.920061 81.675471 
L 364.629376 73.800702 
L 364.933367 70.226588 
L 365.541351 63.218981 
L 365.946674 58.543336 
L 366.149335 58.086318 
L 366.655988 54.898912 
L 366.85865 55.250464 
L 367.061311 54.148934 
L 367.162642 54.266118 
L 367.466634 56.480897 
L 367.567964 57.652737 
L 367.669295 57.570708 
L 367.770626 57.969134 
L 367.871956 57.090254 
L 368.277279 59.32847 
L 368.783932 62.386974 
L 368.986593 62.597905 
L 369.189255 62.129169 
L 369.290585 62.386974 
L 369.391916 62.152606 
L 369.594577 61.203415 
L 369.797238 66.336077 
L 369.9999 66.300922 
L 370.10123 65.750156 
L 370.303892 61.941674 
L 371.114537 48.21942 
L 371.317198 42.653177 
L 371.418529 42.606303 
L 371.722521 43.95392 
L 371.823851 43.016447 
L 371.925182 43.496902 
L 372.026513 43.274252 
L 372.127843 43.485183 
L 372.533166 47.715528 
L 372.837158 50.363888 
L 373.14115 53.574732 
L 374.053126 66.921997 
L 374.458448 73.917886 
L 374.863771 77.632621 
L 375.370424 80.72628 
L 375.471755 82.683254 
L 375.674416 82.038742 
L 375.978408 83.058243 
L 376.079738 84.077745 
L 376.181069 83.468388 
L 376.2824 84.745694 
L 376.586392 81.675471 
L 376.687722 81.417667 
L 377.093045 84.159774 
L 377.295706 86.726105 
L 377.599698 89.749454 
L 377.90369 90.675208 
L 378.106351 89.233844 
L 378.207682 89.327591 
L 379.018327 84.347268 
L 379.42365 80.245826 
L 379.626311 78.335725 
L 380.335626 69.289115 
L 380.538287 67.671975 
L 380.740948 65.820467 
L 381.247601 62.457284 
L 381.348932 62.609623 
L 381.450263 62.761963 
L 381.652924 61.133104 
L 381.754255 61.426064 
L 381.855585 61.390909 
L 382.058247 61.883082 
L 382.159577 61.590122 
L 382.260908 61.812772 
L 382.362239 61.730743 
L 382.970222 63.523659 
L 383.071553 63.37132 
L 383.375545 64.648626 
L 383.578206 64.355666 
L 383.679537 64.578316 
L 383.983529 66.617319 
L 384.084859 66.101709 
L 384.18619 66.53529 
L 384.388851 66.218893 
L 384.591513 66.547008 
L 384.895505 65.340012 
L 385.199497 63.933803 
L 385.604819 57.85195 
L 386.010142 44.715616 
L 386.111472 44.598432 
L 386.212803 44.949984 
L 386.415464 44.76249 
L 386.516795 44.867955 
L 386.618126 45.160916 
L 386.719456 44.739053 
L 386.820787 43.707833 
L 386.922118 44.129696 
L 387.023448 43.930483 
L 387.226109 45.699962 
L 387.530101 48.242857 
L 387.834093 54.020031 
L 388.8474 71.234371 
L 389.556714 77.796679 
L 389.860706 79.027111 
L 390.063368 79.671624 
L 390.164698 79.648187 
L 390.36736 79.999739 
L 390.570021 79.531003 
L 390.772682 79.988021 
L 391.076674 79.226324 
L 391.178005 77.492 
L 391.279335 77.562311 
L 391.481997 79.378664 
L 391.583327 79.613032 
L 392.191311 85.132401 
L 392.697964 79.859118 
L 392.799295 79.952866 
L 392.900626 79.542721 
L 393.50861 73.578052 
L 393.60994 73.191345 
L 393.812601 75.160037 
L 394.724577 67.402452 
L 394.927239 65.632972 
L 395.028569 65.668128 
L 395.332561 63.265854 
L 395.535222 57.55899 
L 396.041876 55.742637 
L 396.143206 56.141063 
L 396.244537 55.484832 
L 396.852521 58.906607 
L 397.156513 58.578491 
L 397.460505 60.113603 
L 397.865827 61.847927 
L 398.068489 61.519812 
L 398.169819 61.133104 
L 398.473811 62.656497 
L 398.575142 62.351818 
L 398.676472 62.398692 
L 398.879134 62.832273 
L 399.081795 62.082295 
L 399.183126 62.398692 
L 399.385787 61.332317 
L 399.588448 60.20735 
L 399.689779 60.219068 
L 399.89244 58.672239 
L 400.196432 52.84819 
L 400.601755 40.239185 
L 400.804416 39.934506 
L 401.007077 40.297777 
L 401.108408 40.86026 
L 401.209739 40.78995 
L 401.716392 44.422656 
L 402.020384 48.324885 
L 402.324376 52.813035 
L 403.03369 65.586099 
L 403.844335 75.394405 
L 404.249658 77.702932 
L 404.350989 77.796679 
L 404.55365 78.605249 
L 404.654981 78.945083 
L 404.756311 78.898209 
L 404.958972 79.214606 
L 405.060303 79.120859 
L 405.364295 80.175515 
L 405.668287 79.179451 
L 405.769618 77.456845 
L 405.972279 78.265415 
L 406.17494 79.765371 
L 406.377602 81.452822 
L 406.580263 84.370705 
L 406.782924 84.956625 
L 406.985585 83.784785 
L 407.188247 81.335638 
L 407.289577 80.737999 
L 407.390908 81.230172 
L 407.492239 80.913775 
L 407.796231 76.812333 
L 407.897561 76.894361 
L 408.201553 74.503806 
L 408.505545 70.765635 
L 409.113529 65.738438 
L 409.518852 61.250288 
L 410.228166 57.55899 
L 410.329497 57.723048 
L 410.532158 58.449589 
L 410.734819 58.180066 
L 410.83615 58.121474 
L 411.038811 57.55899 
L 411.241473 58.402715 
L 411.545464 57.500398 
L 411.646795 57.734766 
L 411.849456 59.246441 
L 411.950787 59.058946 
L 412.052118 59.351906 
L 412.153448 59.047228 
L 412.35611 60.160476 
L 412.558771 61.121386 
L 412.660102 60.992483 
L 412.964094 62.011985 
L 413.065424 62.527595 
L 413.166755 62.328382 
L 413.369416 62.797118 
L 413.470747 62.316663 
L 413.572077 62.3401 
L 413.673408 62.328382 
L 413.876069 63.218981 
L 414.078731 60.898736 
L 414.180061 60.922173 
L 414.281392 61.156541 
L 414.484053 59.023791 
L 414.889376 45.852302 
L 415.092037 37.672854 
L 415.193368 35.961966 
L 415.294698 36.477576 
L 415.396029 38.610326 
L 415.59869 37.954095 
L 415.801352 40.039972 
L 415.902682 39.82904 
L 416.004013 40.297777 
L 416.915989 50.35217 
L 418.131956 72.171843 
L 418.537279 75.124882 
L 418.63861 75.382687 
L 418.841271 76.671712 
L 418.942602 76.812333 
L 419.145263 77.796679 
L 419.347924 77.984173 
L 419.854577 78.921646 
L 419.955908 78.827899 
L 420.057239 78.921646 
L 420.158569 78.804462 
L 420.361231 77.234195 
L 420.969215 80.163797 
L 421.171876 83.796503 
L 421.374537 84.569918 
L 421.475868 83.913687 
L 421.77986 80.163797 
L 422.083852 80.937212 
L 422.489174 75.898297 
L 422.894497 72.265591 
L 422.995827 73.179626 
L 423.198489 71.562486 
L 423.502481 65.304857 
L 423.603811 66.781376 
L 423.806473 65.28142 
L 424.110465 61.179978 
L 424.515787 59.515964 
L 424.617118 59.633148 
L 425.02244 56.211373 
L 425.225102 56.75042 
L 425.326432 56.562925 
L 425.529094 56.867604 
L 425.833086 58.016008 
L 425.934416 57.664456 
L 426.035747 57.898824 
L 426.137077 57.805077 
L 427.049053 61.46122 
L 427.251715 61.273725 
L 427.353045 61.437783 
L 427.555706 63.125233 
L 427.657037 62.843992 
L 427.859698 63.570533 
L 427.961029 64.976742 
L 428.16369 63.59397 
L 428.265021 63.781464 
L 428.771674 61.554967 
L 428.873005 62.539313 
L 429.075666 60.898736 
L 429.278327 58.29725 
L 429.480989 51.570884 
L 429.68365 40.532145 
L 429.886311 39.500925 
L 430.088973 38.891568 
L 430.190303 39.477488 
L 430.291634 39.407178 
L 430.392965 39.196246 
L 430.494295 40.204029 
L 430.595626 39.524362 
L 430.899618 42.40709 
L 431.406271 48.781903 
L 432.115586 63.289291 
L 433.128892 75.80455 
L 433.432884 77.562311 
L 433.534215 77.562311 
L 433.838207 78.710715 
L 433.939537 78.45291 
L 434.243529 79.179451 
L 434.44619 78.757588 
L 434.648852 78.710715 
L 434.750182 78.570094 
L 434.952844 76.812333 
L 435.054174 77.163885 
L 435.256836 78.429473 
L 435.358166 78.663841 
L 435.459497 79.390382 
L 435.864819 84.358987 
L 435.96615 84.968344 
L 436.067481 84.499608 
L 436.371473 81.054396 
L 436.574134 80.491912 
L 436.675465 80.609096 
L 436.979457 77.960736 
L 437.182118 76.554528 
L 437.48611 73.296811 
L 437.688771 69.687541 
L 439.411392 56.047316 
L 439.512723 55.930132 
L 439.614053 56.141063 
L 439.715384 56.070752 
L 439.816715 57.195719 
L 440.019376 56.844167 
L 440.120707 56.844167 
L 440.62736 59.070665 
L 440.72869 59.140975 
L 440.830021 59.867516 
L 440.931352 59.844079 
L 441.235344 60.195632 
L 441.640666 62.422129 
L 441.741997 62.398692 
L 441.944658 62.211198 
L 442.045989 62.281508 
L 442.451311 63.66428 
L 442.653973 64.062706 
L 442.755303 63.875211 
L 442.957965 63.476786 
L 443.059295 63.406475 
L 443.261957 62.656497 
L 443.363287 63.031486 
L 443.565949 62.63306 
L 443.76861 60.336253 
L 444.072602 52.086494 
L 444.275263 41.844606 
L 444.477924 40.016535 
L 444.579255 40.227466 
L 444.680586 40.766513 
L 444.781916 40.438398 
L 444.883247 40.954008 
L 445.085908 40.438398 
L 446.099215 51.102148 
L 447.213852 71.140624 
L 447.923166 77.609184 
L 448.024497 77.773242 
L 448.227158 78.804462 
L 448.328489 78.991956 
L 448.53115 79.788808 
L 448.835142 80.257544 
L 448.936473 80.023176 
L 449.139134 79.413819 
L 449.240465 79.226324 
L 449.341795 78.734151 
L 449.544457 76.648275 
L 449.848449 78.476346 
L 450.05111 79.249761 
L 450.557763 84.499608 
L 451.064416 79.507566 
L 451.165747 79.929429 
L 451.267078 80.163797 
L 451.469739 77.913863 
L 451.6724 76.882643 
L 451.773731 78.171668 
L 451.875061 77.585747 
L 452.381715 69.218805 
L 452.483045 68.89069 
L 452.787037 65.72672 
L 453.091029 62.492439 
L 453.597682 58.836296 
L 453.699013 58.555055 
L 453.800344 58.95348 
L 454.003005 55.695763 
L 454.205666 54.922349 
L 454.408328 56.305121 
L 454.71232 59.117538 
L 454.81365 59.000354 
L 454.914981 60.242505 
L 455.016311 60.008137 
L 455.117642 58.625365 
L 455.218973 58.88317 
L 455.320303 58.836296 
L 455.725626 61.929956 
L 455.928287 61.437783 
L 456.029618 61.320599 
L 456.33361 62.258071 
L 456.434941 62.609623 
L 456.637602 63.945522 
L 456.840263 63.523659 
L 456.941594 63.500222 
L 457.042924 64.133016 
L 457.448247 62.750244 
L 457.549578 62.750244 
L 457.9549 59.562838 
L 458.056231 60.664368 
L 458.157561 60.594057 
L 458.258892 59.609711 
L 458.664215 50.891217 
L 458.866876 42.196159 
L 459.069537 41.118065 
L 459.170868 41.282123 
L 459.47486 42.360216 
L 459.576191 42.430527 
L 459.677521 42.360216 
L 460.082844 44.985139 
L 460.792158 54.03175 
L 461.501473 66.875124 
L 462.210787 74.937387 
L 462.312118 75.054572 
L 462.61611 77.585747 
L 462.717441 77.492 
L 462.920102 78.921646 
L 463.528086 80.398165 
L 463.629416 80.187234 
L 463.730747 80.327855 
L 463.933408 80.046613 
L 464.13607 77.960736 
L 464.440062 79.085704 
L 464.744053 82.085616 
L 464.946715 85.226149 
L 465.149376 86.304242 
L 465.656029 83.30433 
L 465.858691 84.452734 
L 466.466674 77.42169 
L 466.871997 73.296811 
L 467.074658 70.953129 
L 467.175989 70.320335 
L 467.682642 63.922085 
L 468.594618 57.242593 
L 468.695949 57.476961 
L 468.999941 56.375431 
L 469.101271 56.562925 
L 469.202602 56.984788 
L 469.303933 56.937915 
L 469.506594 57.758203 
L 469.607924 57.383214 
L 469.911916 55.789511 
L 470.114578 55.695763 
L 470.5199 59.258159 
L 470.925223 61.789335 
L 471.229215 61.789335 
L 471.533207 63.031486 
L 471.634537 63.265854 
L 471.735868 62.914302 
L 471.837199 62.094014 
L 472.03986 62.820555 
L 472.141191 62.820555 
L 472.343852 62.04714 
L 472.445183 62.187761 
L 472.546513 62.000266 
L 472.850505 59.562838 
L 473.255828 51.242769 
L 473.458489 42.547711 
L 473.66115 41.446181 
L 473.762481 41.774296 
L 473.863812 41.610238 
L 474.370465 45.500749 
L 474.471795 45.336692 
L 474.573126 45.313255 
L 474.877118 48.828777 
L 475.282441 51.828689 
L 475.687763 57.758203 
L 475.890424 59.609711 
L 476.498408 71.374992 
L 477.410384 79.718497 
L 477.714376 80.72628 
L 477.815707 80.632533 
L 478.018368 81.195017 
L 478.32236 82.015305 
L 478.727683 80.093487 
L 478.829013 80.351291 
L 479.234336 83.679319 
L 479.538328 88.038566 
L 479.84232 89.749454 
L 480.247642 88.272935 
L 480.652965 86.702668 
L 480.855626 86.397989 
L 480.956957 85.95269 
L 481.564941 79.202888 
L 481.767602 77.187322 
L 481.970263 75.476434 
L 482.780908 66.757939 
L 483.0849 64.789247 
L 483.287562 64.015832 
L 483.490223 63.687717 
L 483.591554 64.062706 
L 483.692884 63.992395 
L 483.794215 63.781464 
L 483.996876 64.578316 
L 484.300868 63.500222 
L 484.60486 64.039269 
L 484.706191 64.273637 
L 484.807521 64.17989 
L 485.516836 67.109492 
L 485.618166 67.156365 
L 485.719497 67.461044 
L 485.922158 68.703195 
L 486.12482 68.984437 
L 486.22615 69.570357 
L 486.428812 69.289115 
L 486.631473 70.50783 
L 486.732804 70.039093 
L 486.834134 70.437519 
L 486.935465 70.226588 
L 487.239457 71.02344 
L 487.543449 68.328206 
L 487.644779 67.507918 
L 487.847441 61.953393 
L 488.151433 48.922524 
L 488.354094 46.250727 
L 488.455425 47.305384 
L 488.556755 47.25851 
L 488.658086 47.047579 
L 488.759416 46.391348 
L 488.860747 46.578843 
L 488.962078 45.922612 
L 489.570062 49.156892 
L 489.874054 51.992747 
L 490.380707 61.156541 
L 490.786029 68.023527 
L 490.786029 68.023527 
" clip-path="url(#p83550d886e)" style="fill: none; stroke: #b45f58; stroke-width: 1.2; stroke-linecap: square"/>
   </g>
   <g id="patch_3">
    <path d="M 38.7625 86.659375 
L 38.7625 29.959375 
" style="fill: none; stroke: #cccccc; stroke-width: 0.75; stroke-linejoin: miter; stroke-linecap: square"/>
   </g>
   <g id="patch_4">
    <path d="M 53.138971 105.439375 
L 490.88736 105.439375 
" style="fill: none; stroke: #cccccc; stroke-width: 0.75; stroke-linejoin: miter; stroke-linecap: square"/>
   </g>
   <g id="text_13">
    <!-- April -->
    <g style="fill: #505050" transform="translate(48.7625 14.959375) scale(0.1 -0.1)">
     <defs>
      <path id="Ubuntu-Bold-41" d="M 3482 0 
Q 3411 230 3324 473 
Q 3238 717 3155 960 
L 1427 960 
Q 1344 717 1257 473 
Q 1171 230 1101 0 
L 64 0 
Q 314 717 538 1325 
Q 762 1933 976 2470 
Q 1190 3008 1398 3491 
Q 1606 3974 1830 4435 
L 2784 4435 
Q 3002 3974 3213 3491 
Q 3424 3008 3638 2470 
Q 3853 1933 4077 1325 
Q 4301 717 4550 0 
L 3482 0 
z
M 2285 3430 
Q 2253 3334 2189 3168 
Q 2125 3002 2041 2784 
Q 1958 2566 1859 2304 
Q 1760 2042 1658 1754 
L 2918 1754 
Q 2816 2042 2720 2304 
Q 2624 2566 2537 2784 
Q 2451 3002 2387 3168 
Q 2323 3334 2285 3430 
z
" transform="scale(0.015625)"/>
      <path id="Ubuntu-Bold-70" d="M 2605 1658 
Q 2605 2099 2406 2364 
Q 2208 2630 1818 2630 
Q 1690 2630 1581 2620 
Q 1472 2611 1402 2598 
L 1402 877 
Q 1491 819 1635 780 
Q 1779 742 1926 742 
Q 2605 742 2605 1658 
z
M 3578 1683 
Q 3578 1293 3482 973 
Q 3386 653 3200 422 
Q 3014 192 2739 64 
Q 2464 -64 2106 -64 
Q 1907 -64 1734 -25 
Q 1562 13 1402 83 
L 1402 -1184 
L 448 -1184 
L 448 3251 
Q 576 3290 742 3325 
Q 909 3360 1091 3385 
Q 1274 3411 1462 3427 
Q 1651 3443 1824 3443 
Q 2240 3443 2566 3318 
Q 2893 3194 3117 2966 
Q 3341 2739 3459 2412 
Q 3578 2086 3578 1683 
z
" transform="scale(0.015625)"/>
      <path id="Ubuntu-Bold-72" d="M 2477 2522 
Q 2349 2554 2176 2589 
Q 2003 2624 1805 2624 
Q 1715 2624 1590 2608 
Q 1466 2592 1402 2573 
L 1402 0 
L 448 0 
L 448 3187 
Q 704 3277 1053 3357 
Q 1402 3437 1830 3437 
Q 1907 3437 2016 3427 
Q 2125 3418 2233 3402 
Q 2342 3386 2451 3363 
Q 2560 3341 2637 3309 
L 2477 2522 
z
" transform="scale(0.015625)"/>
      <path id="Ubuntu-Bold-69" d="M 1402 0 
L 448 0 
L 448 3366 
L 1402 3366 
L 1402 0 
z
M 1491 4339 
Q 1491 4077 1321 3926 
Q 1152 3776 922 3776 
Q 691 3776 521 3926 
Q 352 4077 352 4339 
Q 352 4602 521 4752 
Q 691 4902 922 4902 
Q 1152 4902 1321 4752 
Q 1491 4602 1491 4339 
z
" transform="scale(0.015625)"/>
      <path id="Ubuntu-Bold-6c" d="M 1792 -64 
Q 1376 -58 1117 25 
Q 858 109 707 259 
Q 557 410 502 624 
Q 448 838 448 1107 
L 448 4813 
L 1402 4966 
L 1402 1299 
Q 1402 1171 1421 1068 
Q 1440 966 1494 896 
Q 1549 826 1651 781 
Q 1754 736 1926 723 
L 1792 -64 
z
" transform="scale(0.015625)"/>
     </defs>
     <use xlink:href="#Ubuntu-Bold-41"/>
     <use xlink:href="#Ubuntu-Bold-70" x="72.099991"/>
     <use xlink:href="#Ubuntu-Bold-72" x="132.499985"/>
     <use xlink:href="#Ubuntu-Bold-69" x="174.699982"/>
     <use xlink:href="#Ubuntu-Bold-6c" x="203.599976"/>
    </g>
   </g>
  </g>
  <g id="axes_2">
   <g id="patch_5">
    <path d="M 48.7625 196.279375 
L 495.1625 196.279375 
L 495.1625 135.799375 
L 48.7625 135.799375 
L 48.7625 196.279375 
z
" style="fill: none"/>
   </g>
   <g id="matplotlib.axis_3">
    <g id="xtick_10">
     <g id="text_14">
      <!-- Sunday -->
      <g style="fill: #999999" transform="translate(53.500483 227.262812) scale(0.09 -0.09)">
       <defs>
        <path id="Ubuntu-53" d="M 1581 442 
Q 2554 442 2554 1107 
Q 2554 1312 2467 1456 
Q 2381 1600 2233 1705 
Q 2086 1811 1897 1888 
Q 1709 1965 1498 2042 
Q 1254 2125 1036 2230 
Q 819 2336 659 2480 
Q 499 2624 406 2822 
Q 314 3021 314 3302 
Q 314 3885 710 4211 
Q 1107 4538 1805 4538 
Q 2208 4538 2537 4451 
Q 2867 4365 3021 4262 
L 2822 3757 
Q 2688 3840 2422 3920 
Q 2157 4000 1805 4000 
Q 1626 4000 1472 3961 
Q 1318 3923 1203 3846 
Q 1088 3770 1021 3651 
Q 954 3533 954 3373 
Q 954 3194 1024 3072 
Q 1094 2950 1222 2857 
Q 1350 2765 1520 2688 
Q 1690 2611 1894 2534 
Q 2182 2419 2422 2304 
Q 2662 2189 2838 2029 
Q 3014 1869 3110 1648 
Q 3206 1427 3206 1114 
Q 3206 531 2780 217 
Q 2355 -96 1581 -96 
Q 1318 -96 1097 -61 
Q 877 -26 704 22 
Q 531 70 406 124 
Q 282 179 211 218 
L 397 730 
Q 544 646 845 544 
Q 1146 442 1581 442 
z
" transform="scale(0.015625)"/>
        <path id="Ubuntu-75" d="M 3162 96 
Q 2957 45 2621 -12 
Q 2285 -70 1843 -70 
Q 1459 -70 1196 42 
Q 934 154 774 358 
Q 614 563 544 841 
Q 474 1120 474 1459 
L 474 3328 
L 1069 3328 
L 1069 1587 
Q 1069 979 1261 716 
Q 1453 454 1907 454 
Q 2003 454 2105 460 
Q 2208 467 2297 476 
Q 2387 486 2460 496 
Q 2534 506 2566 518 
L 2566 3328 
L 3162 3328 
L 3162 96 
z
" transform="scale(0.015625)"/>
        <path id="Ubuntu-6e" d="M 512 3232 
Q 717 3283 1056 3340 
Q 1395 3398 1837 3398 
Q 2234 3398 2496 3286 
Q 2758 3174 2915 2972 
Q 3072 2771 3136 2489 
Q 3200 2208 3200 1869 
L 3200 0 
L 2605 0 
L 2605 1741 
Q 2605 2048 2563 2265 
Q 2522 2483 2426 2617 
Q 2330 2752 2170 2813 
Q 2010 2874 1773 2874 
Q 1677 2874 1574 2867 
Q 1472 2861 1379 2851 
Q 1286 2842 1212 2829 
Q 1139 2816 1107 2810 
L 1107 0 
L 512 0 
L 512 3232 
z
" transform="scale(0.015625)"/>
        <path id="Ubuntu-64" d="M 2662 2624 
Q 2554 2714 2349 2797 
Q 2144 2880 1901 2880 
Q 1645 2880 1462 2787 
Q 1280 2694 1165 2531 
Q 1050 2368 998 2144 
Q 947 1920 947 1664 
Q 947 1082 1235 765 
Q 1523 448 2003 448 
Q 2246 448 2409 470 
Q 2573 493 2662 518 
L 2662 2624 
z
M 2662 4864 
L 3258 4966 
L 3258 96 
Q 3053 38 2733 -19 
Q 2413 -77 1997 -77 
Q 1613 -77 1305 44 
Q 998 166 780 390 
Q 563 614 444 937 
Q 326 1261 326 1664 
Q 326 2048 425 2368 
Q 525 2688 717 2918 
Q 909 3149 1187 3277 
Q 1466 3405 1824 3405 
Q 2112 3405 2333 3328 
Q 2554 3251 2662 3181 
L 2662 4864 
z
" transform="scale(0.015625)"/>
        <path id="Ubuntu-61" d="M 1638 429 
Q 1850 429 2013 438 
Q 2176 448 2285 474 
L 2285 1466 
Q 2221 1498 2077 1520 
Q 1933 1542 1728 1542 
Q 1594 1542 1443 1523 
Q 1293 1504 1168 1443 
Q 1043 1382 960 1276 
Q 877 1171 877 998 
Q 877 678 1081 553 
Q 1286 429 1638 429 
z
M 1587 3411 
Q 1946 3411 2192 3318 
Q 2438 3226 2588 3056 
Q 2739 2886 2803 2652 
Q 2867 2419 2867 2138 
L 2867 58 
Q 2790 45 2652 22 
Q 2515 0 2342 -19 
Q 2170 -38 1968 -54 
Q 1766 -70 1568 -70 
Q 1286 -70 1049 -12 
Q 813 45 640 169 
Q 467 294 371 499 
Q 275 704 275 992 
Q 275 1267 387 1465 
Q 499 1664 691 1785 
Q 883 1907 1139 1964 
Q 1395 2022 1677 2022 
Q 1766 2022 1862 2012 
Q 1958 2003 2044 1987 
Q 2131 1971 2195 1958 
Q 2259 1946 2285 1939 
L 2285 2106 
Q 2285 2253 2253 2397 
Q 2221 2541 2137 2653 
Q 2054 2765 1910 2832 
Q 1766 2899 1536 2899 
Q 1242 2899 1021 2857 
Q 800 2816 691 2771 
L 621 3264 
Q 736 3315 1005 3363 
Q 1274 3411 1587 3411 
z
" transform="scale(0.015625)"/>
        <path id="Ubuntu-79" d="M 122 -621 
Q 192 -653 304 -681 
Q 416 -710 525 -710 
Q 877 -710 1075 -553 
Q 1274 -397 1434 -45 
Q 1030 723 681 1584 
Q 333 2445 102 3328 
L 742 3328 
Q 813 3040 912 2707 
Q 1011 2374 1132 2022 
Q 1254 1670 1395 1318 
Q 1536 966 1690 640 
Q 1933 1312 2112 1971 
Q 2291 2630 2451 3328 
L 3066 3328 
Q 2835 2387 2553 1520 
Q 2272 653 1946 -102 
Q 1818 -390 1680 -598 
Q 1542 -806 1376 -940 
Q 1210 -1075 1002 -1139 
Q 794 -1203 531 -1203 
Q 461 -1203 384 -1193 
Q 307 -1184 233 -1168 
Q 160 -1152 99 -1133 
Q 38 -1114 13 -1101 
L 122 -621 
z
" transform="scale(0.015625)"/>
       </defs>
       <use xlink:href="#Ubuntu-53"/>
       <use xlink:href="#Ubuntu-75" x="53.199997"/>
       <use xlink:href="#Ubuntu-6e" x="110.599991"/>
       <use xlink:href="#Ubuntu-64" x="167.999985"/>
       <use xlink:href="#Ubuntu-61" x="226.899979"/>
       <use xlink:href="#Ubuntu-79" x="277.599976"/>
      </g>
     </g>
    </g>
    <g id="xtick_11">
     <g id="text_15">
      <!-- Sunday -->
      <g style="fill: #999999" transform="translate(159.139428 227.262812) scale(0.09 -0.09)">
       <use xlink:href="#Ubuntu-53"/>
       <use xlink:href="#Ubuntu-75" x="53.199997"/>
       <use xlink:href="#Ubuntu-6e" x="110.599991"/>
       <use xlink:href="#Ubuntu-64" x="167.999985"/>
       <use xlink:href="#Ubuntu-61" x="226.899979"/>
       <use xlink:href="#Ubuntu-79" x="277.599976"/>
      </g>
     </g>
    </g>
    <g id="xtick_12">
     <g id="text_16">
      <!-- Sunday -->
      <g style="fill: #999999" transform="translate(264.778373 227.262812) scale(0.09 -0.09)">
       <use xlink:href="#Ubuntu-53"/>
       <use xlink:href="#Ubuntu-75" x="53.199997"/>
       <use xlink:href="#Ubuntu-6e" x="110.599991"/>
       <use xlink:href="#Ubuntu-64" x="167.999985"/>
       <use xlink:href="#Ubuntu-61" x="226.899979"/>
       <use xlink:href="#Ubuntu-79" x="277.599976"/>
      </g>
     </g>
    </g>
    <g id="xtick_13">
     <g id="text_17">
      <!-- Sunday -->
      <g style="fill: #999999" transform="translate(370.417319 227.262812) scale(0.09 -0.09)">
       <use xlink:href="#Ubuntu-53"/>
       <use xlink:href="#Ubuntu-75" x="53.199997"/>
       <use xlink:href="#Ubuntu-6e" x="110.599991"/>
       <use xlink:href="#Ubuntu-64" x="167.999985"/>
       <use xlink:href="#Ubuntu-61" x="226.899979"/>
       <use xlink:href="#Ubuntu-79" x="277.599976"/>
      </g>
     </g>
    </g>
    <g id="xtick_14">
     <g id="text_18">
      <!-- Sunday -->
      <g style="fill: #999999" transform="translate(476.056264 227.262812) scale(0.09 -0.09)">
       <use xlink:href="#Ubuntu-53"/>
       <use xlink:href="#Ubuntu-75" x="53.199997"/>
       <use xlink:href="#Ubuntu-6e" x="110.599991"/>
       <use xlink:href="#Ubuntu-64" x="167.999985"/>
       <use xlink:href="#Ubuntu-61" x="226.899979"/>
       <use xlink:href="#Ubuntu-79" x="277.599976"/>
      </g>
     </g>
    </g>
   </g>
   <g id="matplotlib.axis_4">
    <g id="ytick_5">
     <g id="line2d_15">
      <g>
       <use xlink:href="#mae7c5c77c1" x="38.7625" y="196.279375" style="fill: #cccccc; stroke: #cccccc; stroke-width: 0.75"/>
      </g>
     </g>
     <g id="text_19">
      <!-- 28000 -->
      <g style="fill: #999999" transform="translate(7.2 199.383125) scale(0.08 -0.08)">
       <defs>
        <path id="Ubuntu-38" d="M 3258 1152 
Q 3258 883 3165 656 
Q 3072 429 2889 259 
Q 2707 90 2432 -3 
Q 2157 -96 1798 -96 
Q 1382 -96 1104 22 
Q 826 141 659 320 
Q 493 499 422 713 
Q 352 928 352 1120 
Q 352 1306 413 1475 
Q 474 1645 573 1792 
Q 672 1939 803 2057 
Q 934 2176 1082 2266 
Q 454 2624 454 3322 
Q 454 3565 550 3785 
Q 646 4006 822 4172 
Q 998 4339 1248 4438 
Q 1498 4538 1805 4538 
Q 2163 4538 2419 4429 
Q 2675 4320 2838 4150 
Q 3002 3981 3075 3776 
Q 3149 3571 3149 3379 
Q 3149 3194 3094 3030 
Q 3040 2867 2947 2726 
Q 2854 2586 2736 2477 
Q 2618 2368 2490 2285 
Q 3245 1926 3258 1152 
z
M 954 1114 
Q 954 998 995 873 
Q 1037 749 1139 643 
Q 1242 538 1402 467 
Q 1562 397 1805 397 
Q 2022 397 2185 461 
Q 2349 525 2451 624 
Q 2554 723 2605 851 
Q 2656 979 2656 1114 
Q 2656 1318 2579 1472 
Q 2502 1626 2358 1741 
Q 2214 1856 2012 1936 
Q 1811 2016 1555 2074 
Q 1267 1914 1110 1677 
Q 954 1440 954 1114 
z
M 2554 3386 
Q 2554 3482 2512 3597 
Q 2470 3712 2380 3811 
Q 2291 3910 2150 3977 
Q 2010 4045 1805 4045 
Q 1600 4045 1456 3981 
Q 1312 3917 1222 3817 
Q 1133 3718 1091 3600 
Q 1050 3482 1050 3366 
Q 1050 3226 1101 3085 
Q 1152 2944 1261 2822 
Q 1370 2701 1546 2605 
Q 1722 2509 1965 2451 
Q 2234 2611 2394 2825 
Q 2554 3040 2554 3386 
z
" transform="scale(0.015625)"/>
       </defs>
       <use xlink:href="#Ubuntu-32"/>
       <use xlink:href="#Ubuntu-38" x="56.399994"/>
       <use xlink:href="#Ubuntu-30" x="112.799988"/>
       <use xlink:href="#Ubuntu-30" x="169.199982"/>
       <use xlink:href="#Ubuntu-30" x="225.599976"/>
      </g>
     </g>
    </g>
    <g id="ytick_6">
     <g id="line2d_16">
      <g>
       <use xlink:href="#mae7c5c77c1" x="38.7625" y="181.159375" style="fill: #cccccc; stroke: #cccccc; stroke-width: 0.75"/>
      </g>
     </g>
     <g id="text_20">
      <!-- 30000 -->
      <g style="fill: #999999" transform="translate(7.2 184.263125) scale(0.08 -0.08)">
       <use xlink:href="#Ubuntu-33"/>
       <use xlink:href="#Ubuntu-30" x="56.399994"/>
       <use xlink:href="#Ubuntu-30" x="112.799988"/>
       <use xlink:href="#Ubuntu-30" x="169.199982"/>
       <use xlink:href="#Ubuntu-30" x="225.599976"/>
      </g>
     </g>
    </g>
    <g id="ytick_7">
     <g id="line2d_17">
      <g>
       <use xlink:href="#mae7c5c77c1" x="38.7625" y="166.039375" style="fill: #cccccc; stroke: #cccccc; stroke-width: 0.75"/>
      </g>
     </g>
     <g id="text_21">
      <!-- 32000 -->
      <g style="fill: #999999" transform="translate(7.2 169.143125) scale(0.08 -0.08)">
       <use xlink:href="#Ubuntu-33"/>
       <use xlink:href="#Ubuntu-32" x="56.399994"/>
       <use xlink:href="#Ubuntu-30" x="112.799988"/>
       <use xlink:href="#Ubuntu-30" x="169.199982"/>
       <use xlink:href="#Ubuntu-30" x="225.599976"/>
      </g>
     </g>
    </g>
    <g id="ytick_8">
     <g id="line2d_18">
      <g>
       <use xlink:href="#mae7c5c77c1" x="38.7625" y="150.919375" style="fill: #cccccc; stroke: #cccccc; stroke-width: 0.75"/>
      </g>
     </g>
     <g id="text_22">
      <!-- 34000 -->
      <g style="fill: #999999" transform="translate(7.2 154.023125) scale(0.08 -0.08)">
       <use xlink:href="#Ubuntu-33"/>
       <use xlink:href="#Ubuntu-34" x="56.399994"/>
       <use xlink:href="#Ubuntu-30" x="112.799988"/>
       <use xlink:href="#Ubuntu-30" x="169.199982"/>
       <use xlink:href="#Ubuntu-30" x="225.599976"/>
      </g>
     </g>
    </g>
    <g id="ytick_9">
     <g id="line2d_19">
      <g>
       <use xlink:href="#mae7c5c77c1" x="38.7625" y="135.799375" style="fill: #cccccc; stroke: #cccccc; stroke-width: 0.75"/>
      </g>
     </g>
     <g id="text_23">
      <!-- 36000 -->
      <g style="fill: #999999" transform="translate(7.2 138.903125) scale(0.08 -0.08)">
       <defs>
        <path id="Ubuntu-36" d="M 403 1779 
Q 403 2426 582 2922 
Q 762 3418 1091 3757 
Q 1421 4096 1891 4272 
Q 2362 4448 2950 4454 
L 2995 3955 
Q 2618 3949 2307 3872 
Q 1997 3795 1753 3628 
Q 1510 3462 1344 3196 
Q 1178 2931 1094 2541 
Q 1261 2618 1469 2669 
Q 1677 2720 1901 2720 
Q 2278 2720 2540 2605 
Q 2803 2490 2969 2301 
Q 3136 2112 3209 1865 
Q 3283 1619 3283 1350 
Q 3283 1107 3200 851 
Q 3117 595 2947 384 
Q 2778 173 2515 38 
Q 2253 -96 1894 -96 
Q 1165 -96 784 403 
Q 403 902 403 1779 
z
M 1837 2234 
Q 1613 2234 1421 2192 
Q 1229 2150 1037 2067 
Q 1030 1997 1027 1923 
Q 1024 1850 1024 1779 
Q 1024 1498 1062 1248 
Q 1101 998 1200 809 
Q 1299 621 1465 509 
Q 1632 397 1888 397 
Q 2099 397 2246 486 
Q 2394 576 2490 717 
Q 2586 858 2627 1021 
Q 2669 1184 2669 1338 
Q 2669 1773 2461 2003 
Q 2253 2234 1837 2234 
z
" transform="scale(0.015625)"/>
       </defs>
       <use xlink:href="#Ubuntu-33"/>
       <use xlink:href="#Ubuntu-36" x="56.399994"/>
       <use xlink:href="#Ubuntu-30" x="112.799988"/>
       <use xlink:href="#Ubuntu-30" x="169.199982"/>
       <use xlink:href="#Ubuntu-30" x="225.599976"/>
      </g>
     </g>
    </g>
   </g>
   <g id="PolyCollection_1">
    <defs>
     <path id="m0cf2afab63" d="M 53.138971 -81.640421 
L 53.138971 -65.079415 
L 68.230248 -40.494279 
L 83.321526 -59.566002 
L 98.412804 -58.914735 
L 113.504082 -60.249543 
L 128.59536 -61.062589 
L 143.686638 -60.079667 
L 158.777916 -56.971311 
L 173.869194 -45.489258 
L 188.960472 -56.59996 
L 204.051749 -58.948939 
L 219.143027 -59.006375 
L 234.234305 -59.506043 
L 249.325583 -57.403264 
L 264.416861 -55.010651 
L 279.508139 -41.312175 
L 294.599417 -62.528464 
L 309.690695 -64.20296 
L 324.781973 -63.79804 
L 339.873251 -37.252471 
L 354.964528 -64.432315 
L 370.055806 -57.851485 
L 385.147084 -41.734745 
L 400.238362 -57.5294 
L 415.32964 -60.532982 
L 430.420918 -61.20723 
L 445.512196 -60.037375 
L 460.603474 -58.877171 
L 475.694752 -57.142538 
L 490.786029 -38.992776 
L 490.786029 -54.284695 
L 490.786029 -54.284695 
L 475.694752 -73.687724 
L 460.603474 -74.801542 
L 445.512196 -75.568415 
L 430.420918 -75.70508 
L 415.32964 -77.256931 
L 400.238362 -73.788698 
L 385.147084 -58.439961 
L 370.055806 -73.686333 
L 354.964528 -84.393311 
L 339.873251 -49.199004 
L 324.781973 -79.550411 
L 309.690695 -79.22031 
L 294.599417 -79.398185 
L 279.508139 -57.148218 
L 264.416861 -70.920748 
L 249.325583 -72.087511 
L 234.234305 -74.355958 
L 219.143027 -74.340163 
L 204.051749 -74.838919 
L 188.960472 -71.975868 
L 173.869194 -60.487574 
L 158.777916 -72.649091 
L 143.686638 -75.098002 
L 128.59536 -77.32655 
L 113.504082 -75.599566 
L 98.412804 -74.454987 
L 83.321526 -75.644649 
L 68.230248 -55.479598 
L 53.138971 -81.640421 
z
" style="stroke: #b45f58; stroke-opacity: 0.2"/>
    </defs>
    <g clip-path="url(#p46fd0f8c47)">
     <use xlink:href="#m0cf2afab63" x="0" y="236.154531" style="fill: #b45f58; fill-opacity: 0.2; stroke: #b45f58; stroke-opacity: 0.2"/>
    </g>
   </g>
   <g id="line2d_20">
    <path d="M 53.138971 162.859781 
L 68.230248 188.621396 
L 83.321526 168.485267 
L 98.412804 169.182512 
L 113.504082 168.609612 
L 128.59536 166.689747 
L 143.686638 169.080627 
L 158.777916 171.587064 
L 173.869194 183.303843 
L 188.960472 171.778465 
L 204.051749 169.733928 
L 219.143027 169.546108 
L 234.234305 169.032777 
L 249.325583 171.451977 
L 264.416861 173.170026 
L 279.508139 186.909858 
L 294.599417 165.344734 
L 309.690695 164.884461 
L 324.781973 164.596709 
L 339.873251 193.00408 
L 354.964528 162.026797 
L 370.055806 170.36542 
L 385.147084 185.814838 
L 400.238362 170.25735 
L 415.32964 167.315054 
L 430.420918 167.631125 
L 445.512196 168.543859 
L 460.603474 169.439666 
L 475.694752 170.649917 
L 490.786029 189.560822 
" clip-path="url(#p46fd0f8c47)" style="fill: none; stroke: #b45f58; stroke-width: 1.2; stroke-linecap: square"/>
   </g>
   <g id="patch_6">
    <path d="M 38.7625 196.279375 
L 38.7625 135.799375 
" style="fill: none; stroke: #cccccc; stroke-width: 0.75; stroke-linejoin: miter; stroke-linecap: square"/>
   </g>
  </g>
 </g>
 <defs>
  <clipPath id="p83550d886e">
   <rect x="48.7625" y="29.959375" width="446.4" height="60.48"/>
  </clipPath>
  <clipPath id="p46fd0f8c47">
   <rect x="48.7625" y="135.799375" width="446.4" height="60.48"/>
  </clipPath>
 </defs>
</svg>
