<?xml version="1.0" encoding="utf-8" standalone="no"?>
<!DOCTYPE svg PUBLIC "-//W3C//DTD SVG 1.1//EN"
  "http://www.w3.org/Graphics/SVG/1.1/DTD/svg11.dtd">
<svg xmlns:xlink="http://www.w3.org/1999/xlink" width="566.332096pt" height="235.190625pt" viewBox="0 0 566.332096 235.190625" xmlns="http://www.w3.org/2000/svg" version="1.1">
 <metadata>
  <rdf:RDF xmlns:dc="http://purl.org/dc/elements/1.1/" xmlns:cc="http://creativecommons.org/ns#" xmlns:rdf="http://www.w3.org/1999/02/22-rdf-syntax-ns#">
   <cc:Work>
    <dc:type rdf:resource="http://purl.org/dc/dcmitype/StillImage"/>
    <dc:date>2024-04-15T11:43:39.055498</dc:date>
    <dc:format>image/svg+xml</dc:format>
    <dc:creator>
     <cc:Agent>
      <dc:title>Matplotlib v3.8.3, https://matplotlib.org/</dc:title>
     </cc:Agent>
    </dc:creator>
   </cc:Work>
  </rdf:RDF>
 </metadata>
 <defs>
  <style type="text/css">*{stroke-linejoin: round; stroke-linecap: butt}</style>
 </defs>
 <g id="figure_1">
  <g id="patch_1">
   <path d="M 0 235.190625 
L 566.332096 235.190625 
L 566.332096 0 
L 0 0 
L 0 235.190625 
z
" style="fill: none"/>
  </g>
  <g id="axes_1">
   <g id="patch_2">
    <path d="M 48.7625 90.439375 
L 550.9625 90.439375 
L 550.9625 29.959375 
L 48.7625 29.959375 
L 48.7625 90.439375 
z
" style="fill: none"/>
   </g>
   <g id="matplotlib.axis_1">
    <g id="xtick_1">
     <g id="line2d_1">
      <defs>
       <path id="mb0796e2a91" d="M 0 0 
L 0 3 
" style="stroke: #aaaaaa; stroke-width: 0.75"/>
      </defs>
      <g>
       <use xlink:href="#mb0796e2a91" x="53.686029" y="105.439375" style="fill: #aaaaaa; stroke: #aaaaaa; stroke-width: 0.75"/>
      </g>
     </g>
     <g id="text_1">
      <!-- 01 -->
      <g style="fill: #808080" transform="translate(49.173529 120.646875) scale(0.08 -0.08)">
       <defs>
        <path id="Ubuntu-30" d="M 320 2221 
Q 320 3334 713 3936 
Q 1107 4538 1805 4538 
Q 2502 4538 2896 3936 
Q 3290 3334 3290 2221 
Q 3290 1107 2896 505 
Q 2502 -96 1805 -96 
Q 1107 -96 713 505 
Q 320 1107 320 2221 
z
M 2662 2221 
Q 2662 2586 2620 2912 
Q 2579 3238 2480 3481 
Q 2381 3725 2214 3869 
Q 2048 4013 1805 4013 
Q 1562 4013 1395 3869 
Q 1229 3725 1129 3481 
Q 1030 3238 988 2912 
Q 947 2586 947 2221 
Q 947 1856 988 1529 
Q 1030 1203 1129 960 
Q 1229 717 1395 573 
Q 1562 429 1805 429 
Q 2048 429 2214 573 
Q 2381 717 2480 960 
Q 2579 1203 2620 1529 
Q 2662 1856 2662 2221 
z
" transform="scale(0.015625)"/>
        <path id="Ubuntu-31" d="M 595 3520 
Q 960 3661 1305 3881 
Q 1651 4102 1939 4435 
L 2362 4435 
L 2362 0 
L 1766 0 
L 1766 3610 
Q 1690 3539 1578 3462 
Q 1466 3386 1334 3315 
Q 1203 3245 1059 3181 
Q 915 3117 781 3072 
L 595 3520 
z
" transform="scale(0.015625)"/>
       </defs>
       <use xlink:href="#Ubuntu-30"/>
       <use xlink:href="#Ubuntu-31" x="56.399994"/>
      </g>
     </g>
    </g>
    <g id="xtick_2">
     <g id="line2d_2">
      <g>
       <use xlink:href="#mb0796e2a91" x="119.348288" y="105.439375" style="fill: #aaaaaa; stroke: #aaaaaa; stroke-width: 0.75"/>
      </g>
     </g>
     <g id="text_2">
      <!-- 05 -->
      <g style="fill: #808080" transform="translate(114.835788 120.646875) scale(0.08 -0.08)">
       <defs>
        <path id="Ubuntu-35" d="M 1274 2726 
Q 2240 2688 2691 2304 
Q 3142 1920 3142 1261 
Q 3142 966 3043 716 
Q 2944 467 2742 288 
Q 2541 109 2233 6 
Q 1926 -96 1504 -96 
Q 1338 -96 1165 -70 
Q 992 -45 845 -6 
Q 698 32 582 70 
Q 467 109 416 134 
L 531 653 
Q 640 602 886 518 
Q 1133 435 1491 435 
Q 1779 435 1974 499 
Q 2170 563 2291 672 
Q 2413 781 2467 925 
Q 2522 1069 2522 1229 
Q 2522 1472 2438 1661 
Q 2355 1850 2144 1978 
Q 1933 2106 1581 2173 
Q 1229 2240 691 2240 
Q 730 2554 752 2829 
Q 774 3104 793 3366 
Q 813 3629 825 3888 
Q 838 4147 851 4435 
L 2989 4435 
L 2989 3930 
L 1370 3930 
Q 1363 3834 1350 3670 
Q 1338 3507 1325 3331 
Q 1312 3155 1299 2988 
Q 1286 2822 1274 2726 
z
" transform="scale(0.015625)"/>
       </defs>
       <use xlink:href="#Ubuntu-30"/>
       <use xlink:href="#Ubuntu-35" x="56.399994"/>
      </g>
     </g>
    </g>
    <g id="xtick_3">
     <g id="line2d_3">
      <g>
       <use xlink:href="#mb0796e2a91" x="185.010546" y="105.439375" style="fill: #aaaaaa; stroke: #aaaaaa; stroke-width: 0.75"/>
      </g>
     </g>
     <g id="text_3">
      <!-- 09 -->
      <g style="fill: #808080" transform="translate(180.498046 120.646875) scale(0.08 -0.08)">
       <defs>
        <path id="Ubuntu-39" d="M 3206 2662 
Q 3206 1344 2550 669 
Q 1894 -6 602 -13 
L 582 486 
Q 986 486 1309 563 
Q 1632 640 1875 809 
Q 2118 979 2281 1248 
Q 2445 1517 2522 1907 
Q 2355 1830 2144 1782 
Q 1933 1734 1709 1734 
Q 1331 1734 1068 1846 
Q 806 1958 640 2147 
Q 474 2336 400 2582 
Q 326 2829 326 3098 
Q 326 3334 409 3590 
Q 493 3846 662 4057 
Q 832 4269 1094 4403 
Q 1357 4538 1715 4538 
Q 2080 4538 2358 4410 
Q 2637 4282 2825 4038 
Q 3014 3795 3110 3446 
Q 3206 3098 3206 2662 
z
M 1773 2221 
Q 1997 2221 2195 2262 
Q 2394 2304 2579 2387 
Q 2586 2458 2586 2525 
Q 2586 2592 2586 2662 
Q 2586 2938 2547 3190 
Q 2509 3443 2409 3632 
Q 2310 3821 2144 3933 
Q 1978 4045 1722 4045 
Q 1510 4045 1363 3955 
Q 1216 3866 1120 3728 
Q 1024 3590 982 3427 
Q 941 3264 941 3110 
Q 941 2675 1149 2448 
Q 1357 2221 1773 2221 
z
" transform="scale(0.015625)"/>
       </defs>
       <use xlink:href="#Ubuntu-30"/>
       <use xlink:href="#Ubuntu-39" x="56.399994"/>
      </g>
     </g>
    </g>
    <g id="xtick_4">
     <g id="line2d_4">
      <g>
       <use xlink:href="#mb0796e2a91" x="250.672805" y="105.439375" style="fill: #aaaaaa; stroke: #aaaaaa; stroke-width: 0.75"/>
      </g>
     </g>
     <g id="text_4">
      <!-- 13 -->
      <g style="fill: #808080" transform="translate(246.160305 120.646875) scale(0.08 -0.08)">
       <defs>
        <path id="Ubuntu-33" d="M 1446 435 
Q 2016 435 2262 659 
Q 2509 883 2509 1261 
Q 2509 1504 2406 1670 
Q 2304 1837 2137 1936 
Q 1971 2035 1750 2076 
Q 1530 2118 1299 2118 
L 1146 2118 
L 1146 2605 
L 1357 2605 
Q 1517 2605 1686 2637 
Q 1856 2669 1997 2752 
Q 2138 2835 2227 2979 
Q 2317 3123 2317 3341 
Q 2317 3520 2253 3648 
Q 2189 3776 2083 3859 
Q 1978 3942 1840 3977 
Q 1702 4013 1549 4013 
Q 1242 4013 1027 3923 
Q 813 3834 666 3738 
L 435 4192 
Q 512 4243 630 4304 
Q 749 4365 896 4416 
Q 1043 4467 1212 4502 
Q 1382 4538 1568 4538 
Q 1920 4538 2176 4451 
Q 2432 4365 2598 4208 
Q 2765 4051 2848 3836 
Q 2931 3622 2931 3373 
Q 2931 3027 2732 2780 
Q 2534 2534 2253 2406 
Q 2426 2355 2586 2259 
Q 2746 2163 2864 2016 
Q 2982 1869 3056 1677 
Q 3130 1485 3130 1248 
Q 3130 960 3030 713 
Q 2931 467 2723 288 
Q 2515 109 2201 6 
Q 1888 -96 1459 -96 
Q 1293 -96 1117 -70 
Q 941 -45 787 -6 
Q 634 32 518 70 
Q 403 109 352 134 
L 467 653 
Q 576 602 829 518 
Q 1082 435 1446 435 
z
" transform="scale(0.015625)"/>
       </defs>
       <use xlink:href="#Ubuntu-31"/>
       <use xlink:href="#Ubuntu-33" x="56.399994"/>
      </g>
     </g>
    </g>
    <g id="xtick_5">
     <g id="line2d_5">
      <g>
       <use xlink:href="#mb0796e2a91" x="316.335063" y="105.439375" style="fill: #aaaaaa; stroke: #aaaaaa; stroke-width: 0.75"/>
      </g>
     </g>
     <g id="text_5">
      <!-- 17 -->
      <g style="fill: #808080" transform="translate(311.822563 120.646875) scale(0.08 -0.08)">
       <defs>
        <path id="Ubuntu-37" d="M 1043 0 
Q 1082 512 1226 1078 
Q 1370 1645 1581 2179 
Q 1792 2714 2045 3171 
Q 2298 3629 2541 3917 
L 384 3917 
L 384 4435 
L 3206 4435 
L 3206 3942 
Q 2995 3699 2739 3273 
Q 2483 2848 2256 2320 
Q 2029 1792 1865 1193 
Q 1702 595 1664 0 
L 1043 0 
z
" transform="scale(0.015625)"/>
       </defs>
       <use xlink:href="#Ubuntu-31"/>
       <use xlink:href="#Ubuntu-37" x="56.399994"/>
      </g>
     </g>
    </g>
    <g id="xtick_6">
     <g id="line2d_6">
      <g>
       <use xlink:href="#mb0796e2a91" x="381.997322" y="105.439375" style="fill: #aaaaaa; stroke: #aaaaaa; stroke-width: 0.75"/>
      </g>
     </g>
     <g id="text_6">
      <!-- 21 -->
      <g style="fill: #808080" transform="translate(377.484822 120.646875) scale(0.08 -0.08)">
       <defs>
        <path id="Ubuntu-32" d="M 2989 3302 
Q 2989 3072 2896 2857 
Q 2803 2643 2649 2435 
Q 2496 2227 2304 2025 
Q 2112 1824 1920 1632 
Q 1811 1523 1667 1376 
Q 1523 1229 1395 1069 
Q 1267 909 1180 761 
Q 1094 614 1094 506 
L 3136 506 
L 3136 0 
L 448 0 
Q 442 38 442 76 
Q 442 115 442 147 
Q 442 448 541 707 
Q 640 966 800 1196 
Q 960 1427 1158 1632 
Q 1357 1837 1549 2029 
Q 1709 2182 1853 2332 
Q 1997 2483 2109 2633 
Q 2221 2784 2288 2944 
Q 2355 3104 2355 3283 
Q 2355 3475 2294 3609 
Q 2234 3744 2131 3833 
Q 2029 3923 1891 3964 
Q 1754 4006 1600 4006 
Q 1414 4006 1260 3955 
Q 1107 3904 985 3837 
Q 864 3770 781 3696 
Q 698 3622 653 3584 
L 358 4006 
Q 416 4070 531 4163 
Q 646 4256 806 4339 
Q 966 4422 1164 4480 
Q 1363 4538 1594 4538 
Q 2291 4538 2640 4214 
Q 2989 3891 2989 3302 
z
" transform="scale(0.015625)"/>
       </defs>
       <use xlink:href="#Ubuntu-32"/>
       <use xlink:href="#Ubuntu-31" x="56.399994"/>
      </g>
     </g>
    </g>
    <g id="xtick_7">
     <g id="line2d_7">
      <g>
       <use xlink:href="#mb0796e2a91" x="447.65958" y="105.439375" style="fill: #aaaaaa; stroke: #aaaaaa; stroke-width: 0.75"/>
      </g>
     </g>
     <g id="text_7">
      <!-- 25 -->
      <g style="fill: #808080" transform="translate(443.14708 120.646875) scale(0.08 -0.08)">
       <use xlink:href="#Ubuntu-32"/>
       <use xlink:href="#Ubuntu-35" x="56.399994"/>
      </g>
     </g>
    </g>
    <g id="xtick_8">
     <g id="line2d_8">
      <g>
       <use xlink:href="#mb0796e2a91" x="513.321838" y="105.439375" style="fill: #aaaaaa; stroke: #aaaaaa; stroke-width: 0.75"/>
      </g>
     </g>
     <g id="text_8">
      <!-- 29 -->
      <g style="fill: #808080" transform="translate(508.809338 120.646875) scale(0.08 -0.08)">
       <use xlink:href="#Ubuntu-32"/>
       <use xlink:href="#Ubuntu-39" x="56.399994"/>
      </g>
     </g>
    </g>
    <g id="xtick_9">
     <g id="line2d_9">
      <g>
       <use xlink:href="#mb0796e2a91" x="546.152968" y="105.439375" style="fill: #aaaaaa; stroke: #aaaaaa; stroke-width: 0.75"/>
      </g>
     </g>
    </g>
   </g>
   <g id="matplotlib.axis_2">
    <g id="ytick_1">
     <g id="line2d_10">
      <defs>
       <path id="mb76cee16f8" d="M 0 0 
L -3 0 
" style="stroke: #aaaaaa; stroke-width: 0.75"/>
      </defs>
      <g>
       <use xlink:href="#mb76cee16f8" x="38.7625" y="86.659375" style="fill: #aaaaaa; stroke: #aaaaaa; stroke-width: 0.75"/>
      </g>
     </g>
     <g id="text_9">
      <!-- 20000 -->
      <g style="fill: #808080" transform="translate(7.2 89.763125) scale(0.08 -0.08)">
       <use xlink:href="#Ubuntu-32"/>
       <use xlink:href="#Ubuntu-30" x="56.399994"/>
       <use xlink:href="#Ubuntu-30" x="112.799988"/>
       <use xlink:href="#Ubuntu-30" x="169.199982"/>
       <use xlink:href="#Ubuntu-30" x="225.599976"/>
      </g>
     </g>
    </g>
    <g id="ytick_2">
     <g id="line2d_11">
      <g>
       <use xlink:href="#mb76cee16f8" x="38.7625" y="67.759375" style="fill: #aaaaaa; stroke: #aaaaaa; stroke-width: 0.75"/>
      </g>
     </g>
     <g id="text_10">
      <!-- 30000 -->
      <g style="fill: #808080" transform="translate(7.2 70.863125) scale(0.08 -0.08)">
       <use xlink:href="#Ubuntu-33"/>
       <use xlink:href="#Ubuntu-30" x="56.399994"/>
       <use xlink:href="#Ubuntu-30" x="112.799988"/>
       <use xlink:href="#Ubuntu-30" x="169.199982"/>
       <use xlink:href="#Ubuntu-30" x="225.599976"/>
      </g>
     </g>
    </g>
    <g id="ytick_3">
     <g id="line2d_12">
      <g>
       <use xlink:href="#mb76cee16f8" x="38.7625" y="48.859375" style="fill: #aaaaaa; stroke: #aaaaaa; stroke-width: 0.75"/>
      </g>
     </g>
     <g id="text_11">
      <!-- 40000 -->
      <g style="fill: #808080" transform="translate(7.2 51.963125) scale(0.08 -0.08)">
       <defs>
        <path id="Ubuntu-34" d="M 256 1536 
Q 378 1818 589 2192 
Q 800 2566 1065 2963 
Q 1331 3360 1635 3744 
Q 1939 4128 2246 4435 
L 2816 4435 
L 2816 1619 
L 3341 1619 
L 3341 1133 
L 2816 1133 
L 2816 0 
L 2240 0 
L 2240 1133 
L 256 1133 
L 256 1536 
z
M 2240 3731 
Q 2048 3526 1853 3273 
Q 1658 3021 1472 2745 
Q 1286 2470 1123 2182 
Q 960 1894 832 1619 
L 2240 1619 
L 2240 3731 
z
" transform="scale(0.015625)"/>
       </defs>
       <use xlink:href="#Ubuntu-34"/>
       <use xlink:href="#Ubuntu-30" x="56.399994"/>
       <use xlink:href="#Ubuntu-30" x="112.799988"/>
       <use xlink:href="#Ubuntu-30" x="169.199982"/>
       <use xlink:href="#Ubuntu-30" x="225.599976"/>
      </g>
     </g>
    </g>
    <g id="ytick_4">
     <g id="line2d_13">
      <g>
       <use xlink:href="#mb76cee16f8" x="38.7625" y="29.959375" style="fill: #aaaaaa; stroke: #aaaaaa; stroke-width: 0.75"/>
      </g>
     </g>
     <g id="text_12">
      <!-- 50000 -->
      <g style="fill: #808080" transform="translate(7.2 33.063125) scale(0.08 -0.08)">
       <use xlink:href="#Ubuntu-35"/>
       <use xlink:href="#Ubuntu-30" x="56.399994"/>
       <use xlink:href="#Ubuntu-30" x="112.799988"/>
       <use xlink:href="#Ubuntu-30" x="169.199982"/>
       <use xlink:href="#Ubuntu-30" x="225.599976"/>
      </g>
     </g>
    </g>
   </g>
   <g id="line2d_14">
    <path d="M 53.686029 70.648451 
L 54.02802 73.367121 
L 54.598005 77.257632 
L 55.16799 79.015393 
L 55.281987 78.968519 
L 55.395984 79.413819 
L 55.623978 79.249761 
L 55.851972 80.023176 
L 56.079966 79.577877 
L 56.193963 79.859118 
L 56.30796 79.765371 
L 56.535954 78.640404 
L 56.649951 78.640404 
L 56.877945 73.953041 
L 56.991942 74.445214 
L 57.105939 75.570181 
L 57.219936 75.171756 
L 57.333933 75.640492 
L 57.903918 79.695061 
L 58.017915 79.484129 
L 58.245908 79.601313 
L 58.359905 79.952866 
L 58.587899 77.140448 
L 58.701896 78.499783 
L 58.815893 78.476346 
L 59.157884 72.570269 
L 60.753842 57.969134 
L 60.867839 58.039445 
L 60.981836 58.484744 
L 61.095833 58.156629 
L 61.437824 55.789511 
L 61.551821 55.7192 
L 61.665818 55.812947 
L 61.893812 55.437958 
L 62.007809 55.461395 
L 62.121806 55.297338 
L 62.235803 54.711417 
L 62.577794 57.031662 
L 62.691791 57.242593 
L 62.805788 57.125409 
L 62.919785 56.539489 
L 63.147778 58.273813 
L 63.375772 58.555055 
L 63.489769 58.719112 
L 63.83176 61.812772 
L 64.059754 62.211198 
L 64.287748 61.320599 
L 64.401745 61.226851 
L 64.515742 61.297162 
L 64.629739 61.906519 
L 64.743736 61.719025 
L 64.97173 62.656497 
L 65.199724 63.312728 
L 65.313721 63.289291 
L 65.655712 63.73459 
L 65.883706 62.843992 
L 66.1117 60.898736 
L 66.339694 56.305121 
L 66.795682 39.899351 
L 66.909679 38.868131 
L 67.023676 38.868131 
L 67.137673 39.032189 
L 67.25167 38.258774 
L 67.365667 38.282211 
L 67.479664 38.422832 
L 67.593661 38.915005 
L 67.707658 38.329084 
L 67.821654 38.446268 
L 67.935651 39.079062 
L 68.505636 44.727335 
L 68.619633 45.196071 
L 69.417612 57.101972 
L 70.215591 69.570357 
L 70.671579 73.999915 
L 70.899573 76.156102 
L 71.241564 78.45291 
L 71.583555 79.156014 
L 71.925546 80.913775 
L 72.039543 81.148143 
L 72.267537 81.007522 
L 72.381534 81.17158 
L 72.837521 81.054396 
L 73.065515 80.468476 
L 73.293509 77.632621 
L 73.521503 79.460693 
L 73.749497 80.14036 
L 74.433479 88.038566 
L 74.661473 87.405772 
L 74.77547 86.866726 
L 74.889467 85.694885 
L 75.003464 85.812069 
L 75.117461 85.249586 
L 75.345455 83.140272 
L 75.459452 84.968344 
L 76.029437 77.796679 
L 76.143434 77.585747 
L 76.371428 73.015569 
L 76.827416 69.171931 
L 77.05541 68.937563 
L 77.283404 70.625014 
L 77.625394 68.843816 
L 78.081382 67.296986 
L 78.195379 67.367297 
L 78.309376 67.812596 
L 78.53737 67.34386 
L 78.651367 65.820467 
L 78.765364 66.148582 
L 79.107355 65.093926 
L 79.221352 65.304857 
L 79.563343 67.132928 
L 79.67734 67.250113 
L 80.247325 69.171931 
L 80.361322 69.125058 
L 80.81731 70.156277 
L 80.931307 70.695324 
L 81.045304 70.296898 
L 81.159301 70.390646 
L 81.273298 71.984349 
L 81.387295 71.726544 
L 81.501292 72.12497 
L 81.615289 71.890602 
L 81.843283 72.570269 
L 81.95728 73.203063 
L 82.185274 72.992132 
L 82.413267 72.19528 
L 82.527264 71.351555 
L 82.869255 63.14867 
L 83.211246 48.945961 
L 83.43924 45.922612 
L 83.667234 45.453876 
L 83.781231 45.407002 
L 84.009225 44.164851 
L 84.57921 46.016359 
L 84.693207 45.828865 
L 84.807204 45.711681 
L 85.71918 58.461307 
L 86.175168 65.820467 
L 86.403162 68.914126 
L 86.85915 74.25772 
L 87.315137 78.054484 
L 87.543131 79.03883 
L 87.771125 80.187234 
L 87.885122 80.023176 
L 87.999119 80.163797 
L 88.227113 80.890338 
L 88.34111 80.749717 
L 88.569104 81.195017 
L 88.683101 80.609096 
L 88.797098 80.937212 
L 88.911095 80.72628 
L 89.025092 80.890338 
L 89.253086 79.577877 
L 89.367083 79.765371 
L 89.48108 79.366945 
L 89.709074 77.820116 
L 89.937068 78.781025 
L 90.051065 78.921646 
L 90.165062 78.546657 
L 90.507053 81.382511 
L 90.62105 81.17158 
L 90.963041 79.390382 
L 91.191035 80.163797 
L 91.419029 77.679495 
L 91.989013 73.085879 
L 92.445001 69.054747 
L 92.558998 69.007874 
L 93.128983 62.469003 
L 93.926962 57.289467 
L 94.154956 57.031662 
L 94.268953 56.187936 
L 94.38295 56.328557 
L 94.496947 56.258247 
L 94.610944 55.836384 
L 94.724941 55.883258 
L 94.838938 55.742637 
L 94.952935 56.000442 
L 95.066932 55.906695 
L 95.294926 57.547272 
L 95.408923 57.805077 
L 95.52292 57.26603 
L 95.750914 58.625365 
L 95.978908 58.648802 
L 96.320899 59.820643 
L 96.548893 60.242505 
L 96.776887 61.437783 
L 97.00488 62.04714 
L 97.232874 62.843992 
L 97.346871 62.773681 
L 97.574865 63.781464 
L 97.688862 63.66428 
L 97.802859 64.156453 
L 97.916856 63.851775 
L 98.14485 64.742373 
L 98.258847 64.484569 
L 98.600838 63.008049 
L 98.714835 62.726808 
L 98.942829 61.320599 
L 99.170823 56.984788 
L 99.740808 39.852477 
L 99.854805 39.805604 
L 99.968802 39.571235 
L 100.196796 39.922788 
L 100.310793 39.82904 
L 100.42479 40.016535 
L 101.450763 49.508445 
L 102.134744 60.711242 
L 102.590732 67.320423 
L 103.616705 76.929517 
L 103.958696 77.984173 
L 104.18669 79.156014 
L 104.528681 80.023176 
L 104.870672 80.07005 
L 104.984669 80.210671 
L 105.212663 79.929429 
L 105.32666 80.046613 
L 105.440657 79.999739 
L 105.668651 80.187234 
L 105.782648 80.116923 
L 105.896645 79.718497 
L 106.124639 77.398253 
L 106.352633 78.312289 
L 106.580626 78.640404 
L 106.694623 79.156014 
L 106.922617 81.218454 
L 107.036614 81.077833 
L 107.378605 79.55444 
L 107.606599 79.976302 
L 107.834593 77.351379 
L 107.94859 77.398253 
L 108.176584 75.35925 
L 108.632572 70.414082 
L 108.974563 68.351643 
L 109.08856 67.836033 
L 109.316554 66.101709 
L 110.22853 59.656585 
L 110.342527 59.445654 
L 110.912512 56.703546 
L 111.026509 55.695763 
L 111.140506 56.984788 
L 111.254503 56.984788 
L 111.482496 57.359777 
L 111.71049 59.445654 
L 111.824487 59.234722 
L 112.280475 60.922173 
L 112.394472 60.687805 
L 112.622466 61.203415 
L 112.736463 60.664368 
L 112.85046 60.94561 
L 113.192451 62.961176 
L 113.306448 62.679934 
L 113.534442 62.890865 
L 113.648439 62.961176 
L 113.99043 64.976742 
L 114.104427 64.929868 
L 114.218424 64.672063 
L 114.446418 63.59397 
L 114.560415 63.828338 
L 114.902406 63.59397 
L 115.1304 62.843992 
L 115.358394 61.719025 
L 115.700385 54.008313 
L 116.042376 40.368087 
L 116.270369 39.313431 
L 116.384366 39.055626 
L 116.840354 40.27434 
L 116.954351 41.024318 
L 117.068348 40.602455 
L 118.208318 52.953656 
L 119.348288 71.09375 
L 119.804276 74.937387 
L 120.146267 77.492 
L 120.260264 77.42169 
L 120.488258 78.734151 
L 120.602255 79.062267 
L 120.716252 79.03883 
L 120.830249 79.671624 
L 120.944246 79.62475 
L 121.058242 79.741934 
L 121.172239 80.234107 
L 121.400233 79.788808 
L 121.51423 79.765371 
L 121.742224 80.515349 
L 122.084215 79.366945 
L 122.198212 79.320072 
L 122.312209 78.382599 
L 122.540203 76.226412 
L 122.768197 77.9373 
L 122.996191 78.218541 
L 123.338182 81.499695 
L 123.452179 81.359074 
L 123.680173 79.531003 
L 123.79417 79.976302 
L 123.908167 79.952866 
L 124.022164 80.234107 
L 124.706146 74.421778 
L 125.162134 71.000003 
L 125.390128 69.47661 
L 126.644094 59.492527 
L 126.758091 59.773769 
L 126.986085 58.508181 
L 127.214079 57.922261 
L 127.328076 57.031662 
L 127.55607 57.476961 
L 127.670067 58.29725 
L 127.784064 57.476961 
L 127.898061 59.187849 
L 128.126055 57.805077 
L 128.354049 58.250376 
L 128.468046 58.133192 
L 129.038031 60.265942 
L 129.152028 60.523747 
L 129.266025 60.476873 
L 129.494019 61.53153 
L 129.722013 61.625277 
L 129.950007 62.586187 
L 130.064004 62.04714 
L 130.291998 62.398692 
L 130.519992 63.875211 
L 130.633988 62.937739 
L 130.861982 63.851775 
L 130.975979 63.945522 
L 131.431967 62.539313 
L 131.545964 62.961176 
L 131.659961 62.609623 
L 131.773958 61.625277 
L 132.115949 54.711417 
L 132.45794 40.766513 
L 132.685934 39.477488 
L 132.799931 39.430615 
L 133.027925 39.852477 
L 133.255919 40.086845 
L 133.939901 44.305472 
L 134.851877 57.617582 
L 135.307865 65.304857 
L 136.333837 75.687366 
L 136.789825 78.00761 
L 137.131816 80.023176 
L 137.35981 79.62475 
L 137.587804 80.187234 
L 137.815798 79.718497 
L 138.043792 80.679407 
L 138.49978 79.226324 
L 138.613777 79.249761 
L 138.727774 78.851335 
L 138.841771 77.257632 
L 138.955768 77.468563 
L 139.183762 78.710715 
L 139.297759 77.960736 
L 139.525753 79.882555 
L 139.753747 82.155926 
L 140.209735 79.718497 
L 140.323731 80.163797 
L 140.437728 79.882555 
L 140.779719 76.859206 
L 140.893716 76.413907 
L 141.12171 74.187409 
L 141.235707 74.093662 
L 141.349704 73.507742 
L 142.033686 65.070489 
L 142.489674 61.297162 
L 143.173656 59.000354 
L 143.40165 58.039445 
L 143.629644 56.75042 
L 143.743641 56.586362 
L 143.857638 55.766074 
L 143.971635 55.812947 
L 144.085632 56.1645 
L 144.199629 55.953568 
L 144.313626 55.977005 
L 144.769614 57.85195 
L 144.883611 57.922261 
L 145.111605 58.390997 
L 145.339598 60.055011 
L 145.453595 60.336253 
L 145.567592 59.9847 
L 145.795586 60.453437 
L 145.909583 60.664368 
L 146.137577 61.554967 
L 146.251574 61.437783 
L 146.365571 61.742461 
L 146.479568 61.625277 
L 146.593565 61.883082 
L 146.821559 63.804901 
L 146.935556 63.711154 
L 147.049553 63.054923 
L 147.16355 63.312728 
L 147.277547 63.289291 
L 147.391544 63.617406 
L 147.505541 63.383038 
L 147.733535 62.234634 
L 147.961529 61.719025 
L 148.075526 61.812772 
L 148.417517 56.445741 
L 148.645511 47.867868 
L 148.873505 39.68842 
L 148.987502 38.704073 
L 149.44349 39.594672 
L 149.671484 39.454051 
L 150.469462 44.914829 
L 151.381438 58.203502 
L 152.293414 70.882819 
L 152.749402 74.867077 
L 153.20539 77.656058 
L 153.889372 79.905992 
L 154.117366 79.55444 
L 154.34536 79.952866 
L 154.459357 79.929429 
L 154.687351 79.437256 
L 154.801348 79.648187 
L 154.915344 79.390382 
L 155.143338 78.382599 
L 155.257335 76.531091 
L 155.599326 78.218541 
L 155.713323 78.476346 
L 155.82732 78.312289 
L 156.055314 80.843465 
L 156.283308 81.405948 
L 156.511302 79.413819 
L 156.739296 80.046613 
L 156.853293 80.210671 
L 156.96729 79.741934 
L 157.195284 77.866989 
L 157.309281 78.406036 
L 157.993263 66.031398 
L 158.10726 66.01968 
L 158.449251 64.718937 
L 158.905239 58.683957 
L 159.24723 56.516052 
L 159.361227 56.410586 
L 159.475224 56.844167 
L 159.589221 55.590298 
L 159.703217 55.578579 
L 159.817214 55.144998 
L 160.045208 54.078623 
L 160.159205 54.348147 
L 160.273202 54.301273 
L 160.501196 58.918325 
L 160.957184 62.082295 
L 161.071181 61.976829 
L 161.299175 61.484656 
L 161.527169 61.941674 
L 161.755163 62.164324 
L 162.097154 63.37132 
L 162.325148 64.285356 
L 162.439145 64.320511 
L 162.553142 64.121298 
L 162.895133 64.566597 
L 163.00913 64.789247 
L 163.237124 64.308792 
L 163.351121 64.47285 
L 163.465118 64.414258 
L 163.579115 64.508005 
L 163.693112 64.812684 
L 163.921106 64.531442 
L 164.035103 64.882994 
L 164.1491 64.812684 
L 164.377094 63.722872 
L 164.49109 64.17989 
L 164.605087 63.570533 
L 164.947078 57.418369 
L 165.289069 43.942201 
L 165.517063 41.411025 
L 165.859054 42.465682 
L 165.973051 42.266469 
L 166.087048 42.33678 
L 166.315042 41.621957 
L 167.113021 48.699874 
L 167.227018 48.629564 
L 167.341015 48.770185 
L 167.683006 55.602016 
L 168.594982 69.757852 
L 169.39296 76.202975 
L 169.734951 77.386535 
L 170.304936 79.343508 
L 170.53293 79.683342 
L 170.760924 79.284916 
L 170.874921 79.296635 
L 171.102915 79.085704 
L 171.216912 79.296635 
L 171.444906 78.757588 
L 171.6729 76.202975 
L 171.900894 77.398253 
L 172.242885 78.429473 
L 172.584876 84.429297 
L 172.698873 83.784785 
L 173.154861 82.366857 
L 173.268858 82.155926 
L 174.066837 74.972543 
L 174.636821 68.902408 
L 174.864815 67.074336 
L 175.092809 64.425977 
L 175.548797 61.82449 
L 175.776791 60.535465 
L 175.890788 59.867516 
L 176.004785 60.183913 
L 176.346776 58.730831 
L 176.460773 59.223004 
L 176.57477 58.613647 
L 176.802764 58.648802 
L 177.030758 59.996419 
L 177.258752 59.293314 
L 177.372749 59.234722 
L 177.600743 59.480809 
L 177.828737 60.289379 
L 177.942734 59.902671 
L 178.170728 60.922173 
L 178.284725 60.816707 
L 178.512719 61.519812 
L 178.740713 63.500222 
L 178.968707 63.840056 
L 179.082703 64.672063 
L 179.1967 64.625189 
L 179.310697 64.343948 
L 179.538691 65.129081 
L 179.766685 65.656409 
L 179.880682 65.398604 
L 180.108676 65.925933 
L 180.222673 65.902496 
L 180.33667 65.351731 
L 180.564664 65.761875 
L 181.020652 63.383038 
L 181.248646 60.242505 
L 181.47664 52.859909 
L 181.704634 44.410938 
L 181.932628 43.321126 
L 182.274619 42.430527 
L 182.388616 42.571148 
L 182.61661 43.133631 
L 182.730607 43.004729 
L 182.958601 44.8328 
L 183.072598 45.05545 
L 183.870576 51.945873 
L 185.466534 73.683518 
L 185.922522 76.636556 
L 186.036519 77.023264 
L 186.264513 78.441191 
L 186.37851 78.675559 
L 186.606504 79.460693 
L 186.834498 79.531003 
L 187.062492 80.210671 
L 187.176489 80.316136 
L 187.404483 80.784873 
L 187.51848 80.456757 
L 187.632477 80.72628 
L 187.860471 80.034894 
L 188.088465 77.949018 
L 188.202462 78.206823 
L 188.430456 79.788808 
L 188.658449 81.066114 
L 189.00044 86.327679 
L 189.342431 87.030783 
L 189.456428 86.808134 
L 189.798419 85.331614 
L 189.912416 85.14412 
L 190.14041 83.398077 
L 190.254407 83.069962 
L 190.482401 78.781025 
L 191.166383 72.277309 
L 191.28038 71.67967 
L 191.622371 68.597729 
L 191.850365 66.300922 
L 192.078359 67.648538 
L 192.192356 67.437607 
L 192.42035 66.148582 
L 192.534347 66.101709 
L 192.648344 65.925933 
L 192.876338 64.882994 
L 193.104332 64.836121 
L 193.218329 65.175955 
L 193.332326 64.859558 
L 193.446323 64.953305 
L 193.674316 63.840056 
L 193.788313 63.523659 
L 193.90231 63.781464 
L 194.016307 63.66428 
L 194.130304 64.015832 
L 194.244301 63.910367 
L 194.928283 66.38295 
L 195.270274 68.37508 
L 195.384271 68.281332 
L 195.612265 68.703195 
L 195.954256 69.488328 
L 196.18225 70.273462 
L 196.638238 68.351643 
L 196.866232 66.839968 
L 197.32222 65.093926 
L 197.778208 57.582427 
L 198.120199 47.914741 
L 198.234196 47.633499 
L 198.462189 46.742901 
L 198.576186 46.531969 
L 198.80418 44.949984 
L 199.032174 45.184352 
L 199.146171 44.785927 
L 199.260168 45.020295 
L 200.172144 52.109931 
L 200.856126 63.195544 
L 201.08412 66.781376 
L 201.768102 73.214782 
L 202.566081 77.515437 
L 202.680078 77.843552 
L 202.908072 78.839617 
L 203.022069 78.628686 
L 203.364059 80.07005 
L 203.478056 80.269263 
L 203.70605 80.07005 
L 204.048041 79.495848 
L 204.162038 78.792743 
L 204.276035 79.073985 
L 204.504029 77.117011 
L 204.732023 79.202888 
L 204.960017 79.601313 
L 205.188011 82.448886 
L 205.416005 84.757412 
L 205.530002 84.581636 
L 205.757996 84.722257 
L 207.12596 73.624926 
L 208.037935 63.066641 
L 208.493923 59.012073 
L 208.60792 61.355754 
L 208.721917 68.855534 
L 208.835914 68.820379 
L 208.949911 68.140711 
L 209.177905 64.47285 
L 209.291902 64.613471 
L 209.74789 60.336253 
L 210.089881 58.086318 
L 210.317875 58.36756 
L 210.431872 58.226939 
L 210.545869 57.465243 
L 210.659866 57.758203 
L 211.115854 60.195632 
L 211.229851 60.20735 
L 211.343848 60.629213 
L 211.571842 61.801053 
L 211.799836 62.422129 
L 212.141827 59.926108 
L 212.597815 60.957328 
L 212.711812 60.43 
L 212.939805 61.46122 
L 213.167799 62.961176 
L 213.395793 63.183825 
L 213.623787 61.332317 
L 213.737784 61.426064 
L 214.079775 55.613735 
L 214.307769 49.90687 
L 214.535763 43.110194 
L 214.64976 42.40709 
L 214.763757 42.62974 
L 214.877754 42.500837 
L 214.991751 42.090693 
L 215.105748 42.137567 
L 215.447739 43.637523 
L 215.78973 44.844519 
L 216.017724 46.871803 
L 216.131721 47.469442 
L 216.359715 49.871715 
L 216.473712 50.340451 
L 217.043697 58.930044 
L 217.271691 62.761963 
L 217.841675 70.156277 
L 218.525657 75.65221 
L 218.867648 77.527155 
L 219.095642 78.757588 
L 219.209639 78.781025 
L 219.779624 80.339573 
L 219.893621 79.999739 
L 220.121615 80.316136 
L 220.349609 79.91771 
L 220.577603 79.179451 
L 220.6916 78.734151 
L 220.805597 77.058419 
L 220.919594 77.19904 
L 221.261585 79.003675 
L 221.375582 79.167732 
L 221.489579 79.988021 
L 221.83157 84.605073 
L 222.059564 85.284741 
L 222.287558 84.241803 
L 222.629548 81.195017 
L 222.743545 78.30057 
L 222.857542 78.945083 
L 222.971539 78.347444 
L 223.199533 76.425625 
L 223.31353 77.011546 
L 223.769518 70.554703 
L 224.111509 67.800878 
L 224.339503 65.257983 
L 224.567497 63.043204 
L 225.137482 58.601928 
L 225.251479 58.765986 
L 225.365476 58.36756 
L 225.479473 58.824578 
L 225.59347 57.465243 
L 225.707467 58.543336 
L 225.935461 57.969134 
L 226.163455 58.566773 
L 226.505446 58.016008 
L 226.619443 58.414434 
L 226.73344 59.703459 
L 226.961434 58.976917 
L 227.189428 58.719112 
L 227.303425 60.512029 
L 227.417421 59.211285 
L 227.531418 59.387062 
L 227.645415 59.258159 
L 228.101403 61.30888 
L 228.2154 61.332317 
L 228.329397 61.543248 
L 228.443394 61.379191 
L 228.671388 61.355754 
L 228.899382 62.011985 
L 229.241373 63.054923 
L 229.469367 64.343948 
L 229.697361 63.793183 
L 229.811358 63.922085 
L 230.039352 63.781464 
L 230.153349 63.769746 
L 230.609337 57.148846 
L 231.179322 41.528209 
L 231.293319 41.317278 
L 231.407316 41.446181 
L 231.749307 42.641458 
L 231.977301 42.653177 
L 232.091298 42.524274 
L 232.205294 42.899263 
L 232.547285 45.524186 
L 232.775279 47.832712 
L 233.003273 49.5436 
L 233.459261 55.848103 
L 234.25724 68.539137 
L 235.511207 77.597466 
L 235.739201 78.148231 
L 235.853198 77.843552 
L 235.967195 78.042765 
L 236.081192 78.698996 
L 236.195189 78.581812 
L 236.423183 79.120859 
L 236.651177 78.804462 
L 236.879171 78.171668 
L 237.221161 75.745958 
L 237.335158 76.202975 
L 238.361131 84.253521 
L 238.589125 84.007434 
L 238.817119 82.741846 
L 238.931116 82.648099 
L 239.15911 79.8474 
L 239.273107 79.77709 
L 239.501101 77.351379 
L 239.615098 76.870925 
L 240.641071 67.039181 
L 240.755068 66.207174 
L 241.211056 61.062794 
L 241.43905 59.750332 
L 241.553047 59.527682 
L 241.781041 58.180066 
L 241.895037 59.012073 
L 242.351025 57.324622 
L 242.465022 57.547272 
L 242.579019 57.359777 
L 242.693016 57.711329 
L 242.92101 57.26603 
L 243.149004 58.508181 
L 243.263001 58.414434 
L 243.490995 59.504246 
L 243.604992 59.094101 
L 243.718989 59.351906 
L 243.832986 58.988636 
L 243.946983 59.223004 
L 244.402971 61.578404 
L 244.516968 61.414346 
L 244.744962 61.297162 
L 244.858959 61.636996 
L 244.972956 62.328382 
L 245.086953 62.222916 
L 245.20095 61.695588 
L 245.428944 62.750244 
L 245.656938 63.019768 
L 245.884932 64.039269 
L 245.998929 64.086143 
L 246.112926 64.004114 
L 246.226923 64.367384 
L 246.34092 64.027551 
L 246.568914 64.707218 
L 246.796907 62.808836 
L 247.138898 54.61767 
L 247.366892 44.703898 
L 247.594886 43.039884 
L 247.708883 42.33678 
L 247.82288 42.395372 
L 248.050874 43.192223 
L 248.164871 43.297689 
L 248.278868 43.977356 
L 248.392865 43.203942 
L 248.506862 43.391436 
L 249.304841 48.758467 
L 249.988823 58.859733 
L 250.330814 64.074424 
L 250.444811 65.117363 
L 250.786802 69.851599 
L 251.698777 76.519372 
L 252.154765 78.312289 
L 252.268762 78.241978 
L 252.496756 78.839617 
L 252.610753 78.616967 
L 252.838747 79.202888 
L 252.952744 79.015393 
L 253.066741 78.570094 
L 253.180738 78.652122 
L 253.294735 78.933364 
L 253.636726 76.425625 
L 253.750723 76.495936 
L 253.978717 77.984173 
L 254.092714 78.019328 
L 254.206711 78.394318 
L 254.662699 84.757412 
L 254.776696 84.616792 
L 255.00469 83.983998 
L 255.118687 84.159774 
L 255.346681 82.683254 
L 255.574675 79.718497 
L 255.802669 78.616967 
L 256.14466 75.370969 
L 256.48665 71.785136 
L 256.942638 69.078184 
L 257.284629 65.398604 
L 257.512623 63.652562 
L 257.740617 61.426064 
L 257.854614 61.414346 
L 258.310602 58.894888 
L 258.424599 59.117538 
L 258.76659 57.371496 
L 258.880587 57.734766 
L 258.994584 57.371496 
L 259.222578 57.605864 
L 259.336575 57.676174 
L 259.450572 57.500398 
L 259.564569 57.617582 
L 259.678566 57.441806 
L 260.020557 58.508181 
L 260.134554 58.098037 
L 260.362548 58.180066 
L 260.476545 58.390997 
L 260.704539 63.922085 
L 260.932533 60.371408 
L 261.274523 60.605776 
L 261.730511 62.609623 
L 261.844508 63.652562 
L 262.072502 62.609623 
L 262.300496 63.816619 
L 262.414493 64.156453 
L 262.52849 63.933803 
L 262.642487 63.968959 
L 262.756484 63.816619 
L 262.870481 63.851775 
L 262.984478 63.711154 
L 263.212472 61.30888 
L 263.440466 57.406651 
L 264.010451 41.188376 
L 264.238445 41.328997 
L 264.352442 41.30556 
L 264.466439 41.879762 
L 264.580436 41.703986 
L 264.694433 41.938354 
L 264.80843 42.571148 
L 264.922427 42.524274 
L 265.036424 43.028166 
L 266.062396 53.234898 
L 266.860375 64.449413 
L 267.544357 71.60936 
L 268.114342 75.558463 
L 268.57033 77.855271 
L 268.684327 77.726368 
L 268.912321 78.089639 
L 269.026318 77.866989 
L 269.254312 78.804462 
L 269.368309 78.171668 
L 269.482306 78.288852 
L 269.596303 78.663841 
L 269.938294 77.011546 
L 270.052291 75.546745 
L 270.166288 76.015481 
L 270.394282 77.960736 
L 270.508279 77.632621 
L 270.622276 78.277133 
L 271.078263 84.019153 
L 271.648248 82.694973 
L 272.104236 79.355227 
L 272.218233 79.320072 
L 272.446227 78.00761 
L 272.560224 78.45291 
L 273.130209 70.35549 
L 273.244206 69.851599 
L 274.384176 59.972982 
L 274.498173 59.703459 
L 274.61217 59.926108 
L 275.068158 57.969134 
L 275.182155 57.933979 
L 275.524146 60.50031 
L 275.752139 61.789335 
L 275.980133 62.691652 
L 276.208127 60.371408 
L 276.322124 60.008137 
L 276.550118 60.840144 
L 276.664115 60.898736 
L 277.006106 61.883082 
L 277.120103 62.035422 
L 277.348097 62.691652 
L 277.462094 62.586187 
L 277.576091 62.902584 
L 277.690088 63.828338 
L 277.918082 62.984612 
L 278.146076 62.609623 
L 278.260073 62.843992 
L 278.37407 62.773681 
L 278.488067 63.195544 
L 278.716061 65.21111 
L 278.830058 65.047052 
L 279.058052 65.398604 
L 279.172049 65.257983 
L 279.400043 65.890777 
L 279.51404 65.562662 
L 279.742034 62.867428 
L 279.856031 60.617494 
L 280.312019 44.188288 
L 280.426016 44.141414 
L 280.654009 43.321126 
L 280.882003 44.000793 
L 280.996 43.43831 
L 281.223994 43.930483 
L 281.337991 43.696115 
L 281.451988 43.907046 
L 281.907976 46.60228 
L 282.249967 49.742813 
L 282.705955 55.836384 
L 283.503934 67.742286 
L 283.845925 71.843728 
L 284.41591 75.335813 
L 284.529907 75.546745 
L 284.757901 77.140448 
L 284.985895 78.054484 
L 285.099892 78.218541 
L 285.555879 79.531003 
L 285.669876 79.343508 
L 286.011867 78.382599 
L 286.239861 78.781025 
L 286.467855 76.90608 
L 286.581852 77.281069 
L 286.809846 78.476346 
L 286.923843 78.499783 
L 287.03784 79.437256 
L 287.493828 85.390206 
L 288.063813 84.40586 
L 288.17781 83.866814 
L 288.405804 81.851248 
L 289.31778 73.437431 
L 289.431777 74.515525 
L 289.773768 69.875036 
L 290.229755 65.843904 
L 290.457749 64.367384 
L 290.571746 64.882994 
L 290.79974 62.656497 
L 291.027734 60.570621 
L 291.141731 60.336253 
L 291.369725 59.562838 
L 291.597719 59.023791 
L 291.93971 59.91439 
L 292.053707 59.773769 
L 292.281701 60.992483 
L 292.395698 60.101884 
L 292.509695 60.640931 
L 292.623692 60.50031 
L 293.07968 61.60184 
L 293.307674 61.929956 
L 293.763662 63.125233 
L 294.105653 62.539313 
L 294.333647 63.640843 
L 294.789635 65.656409 
L 295.017629 65.468915 
L 295.131625 65.164236 
L 295.359619 65.843904 
L 295.70161 65.351731 
L 296.043601 63.383038 
L 296.271595 59.375343 
L 296.84158 42.735205 
L 296.955577 43.086758 
L 297.183571 42.571148 
L 297.297568 42.782079 
L 297.411565 43.227378 
L 297.639559 42.805516 
L 297.753556 42.9227 
L 297.98155 44.797645 
L 298.095547 44.703898 
L 299.463511 58.555055 
L 299.805502 64.953305 
L 300.147492 69.828162 
L 301.059468 77.398253 
L 301.629453 79.156014 
L 301.857447 79.601313 
L 301.971444 79.273198 
L 302.085441 79.648187 
L 302.313435 79.531003 
L 302.541429 80.280981 
L 302.655426 79.929429 
L 302.88342 78.265415 
L 303.225411 79.601313 
L 303.339408 79.741934 
L 303.567402 82.78872 
L 303.795396 87.194841 
L 304.02339 88.062003 
L 304.137387 88.272935 
L 304.365381 87.194841 
L 304.593375 87.030783 
L 304.821368 86.304242 
L 305.049362 84.968344 
L 305.163359 85.132401 
L 306.759317 71.070313 
L 306.873314 71.374992 
L 306.987311 69.570357 
L 307.215305 69.875036 
L 307.443299 66.336077 
L 307.557296 66.593882 
L 307.899287 65.117363 
L 308.013284 65.023615 
L 308.127281 65.539225 
L 308.241278 65.328294 
L 308.469272 65.492352 
L 308.697266 66.31264 
L 308.811263 66.172019 
L 308.92526 65.820467 
L 309.267251 66.336077 
L 309.381248 66.101709 
L 309.723238 67.015744 
L 310.179226 69.335989 
L 310.40722 70.039093 
L 310.521217 70.179714 
L 310.635214 70.015657 
L 310.749211 70.437519 
L 310.863208 70.085967 
L 311.319196 70.226588 
L 311.54719 71.328118 
L 312.117175 69.453173 
L 312.231172 69.406299 
L 312.459166 67.132928 
L 312.801157 58.601928 
L 313.029151 48.477225 
L 313.257145 45.430439 
L 313.599136 44.305472 
L 313.713133 44.188288 
L 313.82713 44.258598 
L 314.055124 44.117977 
L 314.169121 43.813299 
L 314.283118 42.946137 
L 314.397114 43.039884 
L 314.853102 47.469442 
L 315.30909 54.219244 
L 315.879075 63.640843 
L 317.019045 75.35925 
L 317.475033 78.241978 
L 317.703027 78.546657 
L 317.817024 78.59353 
L 318.159015 79.437256 
L 318.615003 79.015393 
L 318.729 79.156014 
L 319.070991 78.077921 
L 319.298984 76.648275 
L 319.640975 78.499783 
L 319.868969 79.695061 
L 320.096963 82.484042 
L 320.324957 82.343421 
L 320.666948 78.827899 
L 321.008939 79.62475 
L 321.35093 75.546745 
L 321.806918 73.249937 
L 322.262906 69.359426 
L 322.4909 68.398516 
L 323.288879 61.226851 
L 323.402876 60.687805 
L 323.63087 59.258159 
L 323.744867 59.375343 
L 323.972861 58.344123 
L 324.086857 56.539489 
L 324.314851 56.773857 
L 324.428848 56.000442 
L 324.542845 56.1645 
L 324.770839 57.172283 
L 325.11283 57.758203 
L 325.340824 58.555055 
L 325.568818 58.062882 
L 325.682815 58.180066 
L 325.796812 59.023791 
L 326.024806 58.203502 
L 326.480794 59.867516 
L 326.708788 60.078448 
L 326.822785 60.594057 
L 326.936782 60.594057 
L 327.050779 60.242505 
L 327.164776 60.476873 
L 327.39277 61.672151 
L 327.506767 61.297162 
L 327.962755 62.469003 
L 328.53274 61.344035 
L 328.646737 61.250288 
L 328.87473 60.219068 
L 329.216721 52.461483 
L 329.558712 38.2119 
L 329.672709 37.907222 
L 329.786706 37.133807 
L 330.0147 38.469705 
L 330.128697 38.774384 
L 330.242694 38.165027 
L 330.584685 39.547799 
L 331.382664 47.891304 
L 331.952649 57.641019 
L 332.29464 63.07836 
L 332.864625 71.02344 
L 333.092619 72.007786 
L 333.548607 75.663929 
L 333.890597 76.859206 
L 334.004594 76.97639 
L 334.118591 77.913863 
L 334.232588 77.773242 
L 334.346585 77.843552 
L 334.688576 78.945083 
L 334.802573 78.734151 
L 335.030567 79.015393 
L 335.372558 78.335725 
L 335.486555 77.702932 
L 335.600552 76.132665 
L 335.714549 76.46078 
L 335.942543 77.843552 
L 336.05654 77.866989 
L 336.170537 78.00761 
L 336.284534 78.59353 
L 336.512528 81.195017 
L 336.626525 81.7575 
L 336.740522 81.68719 
L 336.854519 81.10127 
L 337.082513 78.59353 
L 337.19651 78.476346 
L 337.424504 78.898209 
L 337.538501 78.265415 
L 337.880492 75.429561 
L 339.020461 65.773593 
L 339.134458 65.867341 
L 339.476449 62.679934 
L 339.81844 60.008137 
L 339.932437 59.937827 
L 340.046434 60.312816 
L 340.274428 58.414434 
L 340.388425 58.039445 
L 340.502422 56.539489 
L 340.616419 56.656673 
L 340.844413 56.117626 
L 341.072407 56.516052 
L 341.300401 57.500398 
L 341.414398 55.555142 
L 341.756389 56.961351 
L 341.870386 57.125409 
L 342.09838 57.711329 
L 342.440371 58.742549 
L 342.668365 60.265942 
L 342.782362 60.383126 
L 342.896359 60.992483 
L 343.23835 60.664368 
L 343.694337 62.140887 
L 344.036328 62.094014 
L 344.150325 62.187761 
L 344.378319 62.797118 
L 344.492316 62.258071 
L 344.606313 62.773681 
L 344.948304 61.390909 
L 345.062301 61.765898 
L 345.290295 59.820643 
L 345.518289 56.351994 
L 345.632286 53.234898 
L 345.974277 39.969661 
L 346.088274 38.985315 
L 346.316268 39.196246 
L 346.658259 39.524362 
L 347.684232 46.133543 
L 349.280189 70.742198 
L 349.736177 74.632709 
L 350.420159 78.00761 
L 350.648153 78.124794 
L 350.876147 78.898209 
L 350.990144 79.249761 
L 351.218138 78.851335 
L 351.332135 79.015393 
L 351.446132 79.390382 
L 351.788123 78.663841 
L 352.016117 76.109228 
L 352.130114 76.601401 
L 352.358108 77.702932 
L 352.700099 79.718497 
L 352.814096 81.734063 
L 353.04209 81.804374 
L 353.270083 80.937212 
L 353.498077 79.413819 
L 353.612074 79.577877 
L 353.726071 79.390382 
L 353.840068 79.62475 
L 354.182059 75.734239 
L 354.638047 70.695324 
L 354.866041 67.648538 
L 355.094035 66.82825 
L 355.550023 65.304857 
L 356.120008 60.383126 
L 356.348002 58.976917 
L 356.461999 58.789423 
L 356.80399 57.289467 
L 356.917987 56.117626 
L 357.031984 56.633236 
L 357.259978 55.344211 
L 357.373975 56.258247 
L 357.487972 55.859821 
L 357.601969 56.047316 
L 357.829963 55.789511 
L 357.943959 56.398868 
L 358.171953 55.883258 
L 358.28595 56.75042 
L 358.399947 56.539489 
L 358.513944 56.586362 
L 358.855935 58.039445 
L 358.969932 57.875387 
L 359.083929 58.180066 
L 359.42592 60.148758 
L 359.995905 60.851862 
L 360.223899 62.422129 
L 360.451893 62.11745 
L 360.679887 62.11745 
L 360.793884 62.445566 
L 360.907881 62.351818 
L 361.249872 60.242505 
L 361.477866 59.890953 
L 362.047851 51.430263 
L 362.389842 40.321214 
L 362.617836 39.711856 
L 362.731832 39.782167 
L 363.073823 41.024318 
L 363.301817 41.118065 
L 363.529811 41.703986 
L 364.669781 57.430088 
L 365.125769 65.164236 
L 365.923748 73.976478 
L 366.379736 77.023264 
L 366.493733 77.046701 
L 366.60773 77.304506 
L 367.063718 79.366945 
L 367.177715 79.273198 
L 367.291712 78.663841 
L 367.405709 78.710715 
L 367.633702 79.320072 
L 367.747699 78.781025 
L 367.861696 79.484129 
L 368.317684 77.773242 
L 368.431681 76.273286 
L 368.545678 76.648275 
L 369.115663 81.007522 
L 369.343657 82.835594 
L 369.571651 82.812157 
L 369.685648 82.155926 
L 369.913642 79.343508 
L 370.027639 79.03883 
L 370.255633 79.577877 
L 370.483627 76.437344 
L 370.597624 75.921734 
L 370.711621 76.109228 
L 371.623597 68.000091 
L 372.193582 64.015832 
L 372.307579 62.914302 
L 372.421575 63.008049 
L 372.763566 60.265942 
L 373.675542 54.500486 
L 373.789539 56.117626 
L 373.903536 92.679056 
L 374.017533 90.827547 
L 374.13153 73.437431 
L 374.245527 73.765547 
L 374.359524 74.890514 
L 374.587518 73.953041 
L 374.815512 73.929604 
L 375.157503 74.726456 
L 375.2715 74.609272 
L 375.385497 74.703019 
L 375.613491 74.585835 
L 375.841485 75.195192 
L 376.069479 74.937387 
L 376.183476 75.312377 
L 376.297473 75.242066 
L 376.41147 74.937387 
L 376.639464 76.015481 
L 377.209449 76.718585 
L 377.323445 76.331878 
L 377.437442 76.425625 
L 377.551439 76.695149 
L 378.007427 74.456933 
L 378.235421 72.757764 
L 378.577412 60.992483 
L 378.691409 50.117802 
L 378.919403 49.742813 
L 379.717382 51.887281 
L 380.059373 55.250464 
L 380.401364 57.758203 
L 380.971349 64.590034 
L 381.427337 70.35549 
L 381.769328 73.96476 
L 382.225315 78.23026 
L 383.251288 83.550417 
L 383.479282 83.679319 
L 383.707276 84.066026 
L 383.821273 83.995716 
L 383.93527 83.773066 
L 384.049267 83.913687 
L 384.619252 82.987933 
L 384.847246 81.452822 
L 385.189237 82.765283 
L 385.417231 83.620727 
L 385.759222 86.456581 
L 385.873219 86.374553 
L 385.987216 86.702668 
L 386.443204 82.413731 
L 386.785195 81.628598 
L 387.013188 78.616967 
L 387.241182 75.605337 
L 387.355179 75.300658 
L 387.69717 72.652298 
L 387.811167 71.703107 
L 388.039161 66.195456 
L 388.495149 55.777792 
L 388.723143 53.340364 
L 389.179131 49.578755 
L 389.521122 47.903023 
L 389.635119 47.492879 
L 390.091107 44.176569 
L 390.775089 50.891217 
L 390.889086 50.902935 
L 391.003083 50.317015 
L 391.231077 50.434199 
L 391.459071 51.336516 
L 391.687065 51.113866 
L 391.801061 51.945873 
L 391.915058 51.922436 
L 392.143052 51.570884 
L 392.371046 52.004465 
L 392.485043 51.652913 
L 392.59904 51.875563 
L 392.713037 52.566949 
L 392.827034 52.473201 
L 392.941031 51.406826 
L 393.169025 56.785575 
L 393.625013 57.957416 
L 393.853007 61.402628 
L 393.967004 61.086231 
L 394.194998 59.047228 
L 394.422992 57.594145 
L 394.87898 53.117714 
L 395.220971 41.985227 
L 395.334968 41.563365 
L 395.676959 42.11413 
L 395.790956 42.196159 
L 395.904953 42.4774 
L 396.01895 42.33678 
L 396.246944 43.28597 
L 397.386913 56.152781 
L 397.842901 64.156453 
L 398.412886 70.894537 
L 398.754877 73.425713 
L 399.096868 76.706867 
L 399.552856 78.183386 
L 399.666853 78.077921 
L 400.464832 80.691125 
L 400.578829 80.421602 
L 400.806823 79.202888 
L 400.92082 79.191169 
L 401.034817 79.296635 
L 401.148814 77.409971 
L 401.262811 77.42169 
L 401.490804 79.179451 
L 401.832795 81.265327 
L 402.174786 84.640228 
L 402.288783 84.933189 
L 402.40278 85.800351 
L 402.858768 82.56607 
L 403.086762 83.609009 
L 403.314756 81.675471 
L 404.112735 73.800702 
L 404.454726 70.226588 
L 405.024711 65.093926 
L 405.480699 59.375343 
L 405.708693 58.250376 
L 405.82269 58.086318 
L 406.392674 54.898912 
L 406.620668 55.250464 
L 406.848662 54.148934 
L 406.962659 54.266118 
L 407.30465 56.480897 
L 407.418647 57.652737 
L 407.532644 57.570708 
L 407.646641 57.969134 
L 407.760638 57.090254 
L 408.216626 59.32847 
L 408.786611 62.386974 
L 408.900608 62.621342 
L 409.014605 62.597905 
L 409.128602 62.457284 
L 409.242599 62.129169 
L 409.356596 62.386974 
L 409.470593 62.152606 
L 409.698587 61.203415 
L 409.926581 66.336077 
L 410.154575 66.300922 
L 410.268572 65.750156 
L 410.496566 61.941674 
L 411.066551 54.91063 
L 411.294544 51.828689 
L 411.636535 42.653177 
L 411.750532 42.606303 
L 412.092523 43.95392 
L 412.20652 43.016447 
L 412.320517 43.496902 
L 412.434514 43.274252 
L 412.548511 43.485183 
L 413.004499 47.715528 
L 413.34649 50.363888 
L 413.688481 53.574732 
L 414.600457 64.754092 
L 415.170442 73.917886 
L 415.512433 76.917798 
L 416.196414 80.72628 
L 416.310411 82.683254 
L 416.538405 82.038742 
L 416.880396 83.058243 
L 416.994393 84.077745 
L 417.10839 83.468388 
L 417.222387 84.745694 
L 417.564378 81.675471 
L 417.678375 81.417667 
L 418.134363 84.159774 
L 418.24836 85.003499 
L 418.590351 89.069786 
L 418.818345 90.21819 
L 419.046339 90.675208 
L 419.274333 89.233844 
L 419.38833 89.327591 
L 419.958315 86.76126 
L 420.072312 86.515173 
L 420.186309 85.88238 
L 420.642297 80.749717 
L 420.87029 79.613032 
L 422.124257 66.347795 
L 422.694242 63.828338 
L 422.808239 62.457284 
L 423.036233 62.761963 
L 423.264227 61.133104 
L 423.378224 61.426064 
L 423.492221 61.390909 
L 423.720215 61.883082 
L 423.834212 61.590122 
L 423.948209 61.812772 
L 424.062206 61.730743 
L 424.632191 63.547096 
L 424.746188 63.523659 
L 424.860185 63.37132 
L 425.202176 64.648626 
L 425.43017 64.355666 
L 425.544167 64.578316 
L 425.886157 66.617319 
L 426.000154 66.101709 
L 426.114151 66.53529 
L 426.342145 66.218893 
L 426.456142 66.570445 
L 426.570139 66.547008 
L 426.684136 66.24233 
L 426.798133 66.265766 
L 427.026127 64.859558 
L 427.254121 63.933803 
L 427.710109 57.85195 
L 428.166097 44.715616 
L 428.280094 44.598432 
L 428.394091 44.949984 
L 428.622085 44.76249 
L 428.736082 44.867955 
L 428.850079 45.160916 
L 428.964076 44.739053 
L 429.078073 43.707833 
L 429.19207 44.129696 
L 429.306067 43.930483 
L 429.420064 44.504685 
L 430.218043 54.020031 
L 431.244015 69.933628 
L 431.927997 76.624838 
L 432.041994 77.011546 
L 432.383985 78.769307 
L 432.95397 79.988021 
L 433.067967 79.999739 
L 433.295961 79.531003 
L 433.523955 79.988021 
L 433.637952 79.695061 
L 433.751949 79.741934 
L 433.865946 79.226324 
L 433.979943 77.492 
L 434.09394 77.562311 
L 434.321934 79.378664 
L 434.435931 79.613032 
L 435.119913 85.132401 
L 435.689897 79.859118 
L 435.803894 79.952866 
L 435.917891 79.542721 
L 436.601873 73.578052 
L 436.71587 73.191345 
L 436.943864 75.160037 
L 437.969837 67.402452 
L 438.197831 65.632972 
L 438.311828 65.668128 
L 438.653819 63.265854 
L 438.881813 57.55899 
L 439.451798 55.742637 
L 439.565795 56.141063 
L 439.679792 55.484832 
L 440.021783 57.289467 
L 440.135779 58.449589 
L 440.249776 58.437871 
L 440.363773 58.906607 
L 440.705764 58.578491 
L 440.933758 59.515964 
L 441.275749 61.191696 
L 441.389746 61.30888 
L 441.503743 61.847927 
L 441.731737 61.519812 
L 441.845734 61.133104 
L 442.187725 62.656497 
L 442.301722 62.351818 
L 442.415719 62.398692 
L 442.643713 62.832273 
L 442.871707 62.082295 
L 442.985704 62.398692 
L 443.213698 61.332317 
L 443.441692 60.20735 
L 443.555689 60.219068 
L 443.783683 58.672239 
L 444.125674 52.84819 
L 444.581662 40.239185 
L 444.809656 39.934506 
L 445.037649 40.297777 
L 445.151646 40.86026 
L 445.265643 40.78995 
L 445.835628 44.422656 
L 446.063622 47.176482 
L 446.51961 52.813035 
L 447.203592 64.203327 
L 448.229565 75.394405 
L 448.685553 77.702932 
L 448.79955 77.796679 
L 449.027544 78.605249 
L 449.141541 78.945083 
L 449.255538 78.898209 
L 449.483532 79.214606 
L 449.597529 79.120859 
L 449.939519 80.175515 
L 450.053516 79.718497 
L 450.167513 79.730216 
L 450.28151 79.179451 
L 450.395507 77.456845 
L 450.623501 78.265415 
L 450.851495 79.765371 
L 451.079489 81.452822 
L 451.307483 84.370705 
L 451.535477 84.956625 
L 451.763471 83.784785 
L 451.991465 81.335638 
L 452.105462 80.737999 
L 452.219459 81.230172 
L 452.333456 80.913775 
L 452.675447 76.812333 
L 452.789444 76.894361 
L 453.131435 74.503806 
L 453.473426 70.765635 
L 454.157408 65.738438 
L 454.499399 62.574468 
L 454.727392 60.769834 
L 454.955386 59.644867 
L 455.069383 59.492527 
L 455.297377 58.519899 
L 455.411374 57.55899 
L 455.525371 57.723048 
L 455.753365 58.449589 
L 455.981359 58.180066 
L 456.095356 58.121474 
L 456.32335 57.55899 
L 456.551344 58.402715 
L 456.893335 57.500398 
L 457.007332 57.734766 
L 457.235326 59.246441 
L 457.349323 59.058946 
L 457.46332 59.351906 
L 457.577317 59.047228 
L 457.805311 60.160476 
L 458.033305 61.121386 
L 458.147302 60.992483 
L 458.489293 62.011985 
L 458.60329 62.527595 
L 458.717287 62.328382 
L 458.945281 62.797118 
L 459.059278 62.316663 
L 459.287272 62.328382 
L 459.515265 63.218981 
L 459.743259 60.898736 
L 459.857256 60.922173 
L 459.971253 61.156541 
L 460.08525 60.453437 
L 460.313244 56.281684 
L 460.655235 45.852302 
L 460.883229 37.672854 
L 460.997226 35.961966 
L 461.111223 36.477576 
L 461.22522 38.610326 
L 461.453214 37.954095 
L 461.681208 40.039972 
L 461.795205 39.82904 
L 461.909202 40.297777 
L 462.935175 50.35217 
L 464.303138 72.171843 
L 464.759126 75.124882 
L 464.873123 75.382687 
L 465.101117 76.671712 
L 465.215114 76.812333 
L 465.443108 77.796679 
L 465.671102 77.984173 
L 466.241087 78.921646 
L 466.355084 78.827899 
L 466.469081 78.921646 
L 466.583078 78.804462 
L 466.811072 77.234195 
L 467.495054 80.163797 
L 467.723048 83.796503 
L 467.951042 84.569918 
L 468.065039 83.913687 
L 468.40703 80.163797 
L 468.749021 80.937212 
L 469.091012 76.46078 
L 469.319005 74.960824 
L 469.660996 72.265591 
L 469.774993 73.179626 
L 470.002987 71.562486 
L 470.344978 65.304857 
L 470.458975 66.781376 
L 470.572972 66.289203 
L 470.800966 63.523659 
L 471.02896 61.179978 
L 471.484948 59.515964 
L 471.598945 59.633148 
L 472.054933 56.211373 
L 472.282927 56.75042 
L 472.396924 56.562925 
L 472.624918 56.867604 
L 472.966909 58.016008 
L 473.080906 57.664456 
L 473.194903 57.898824 
L 473.3089 57.805077 
L 474.334872 61.46122 
L 474.562866 61.273725 
L 474.676863 61.437783 
L 474.904857 63.125233 
L 475.018854 62.843992 
L 475.246848 63.570533 
L 475.360845 64.976742 
L 475.588839 63.59397 
L 475.702836 63.781464 
L 476.272821 61.554967 
L 476.386818 62.539313 
L 476.614812 60.898736 
L 476.842806 58.29725 
L 477.0708 51.570884 
L 477.298794 40.532145 
L 477.526788 39.500925 
L 477.754782 38.891568 
L 477.868779 39.477488 
L 477.982776 39.407178 
L 478.096773 39.196246 
L 478.21077 40.204029 
L 478.324767 39.524362 
L 478.552761 41.37587 
L 479.122745 47.094453 
L 479.350739 51.172458 
L 479.806727 59.844079 
L 480.604706 71.515613 
L 481.060694 74.937387 
L 481.516682 77.562311 
L 481.630679 77.562311 
L 481.97267 78.710715 
L 482.086667 78.45291 
L 482.428658 79.179451 
L 482.656652 78.757588 
L 482.884646 78.710715 
L 482.998643 78.570094 
L 483.226637 76.812333 
L 483.340634 77.163885 
L 483.568628 78.429473 
L 483.682624 78.663841 
L 483.796621 79.390382 
L 484.252609 84.358987 
L 484.366606 84.968344 
L 484.480603 84.499608 
L 484.822594 81.054396 
L 485.050588 80.491912 
L 485.164585 80.609096 
L 485.506576 77.960736 
L 485.73457 76.554528 
L 486.076561 73.296811 
L 486.304555 69.687541 
L 487.102534 63.711154 
L 487.444525 60.687805 
L 487.672519 60.148758 
L 488.242504 56.047316 
L 488.356501 55.930132 
L 488.470497 56.141063 
L 488.584494 56.070752 
L 488.698491 57.195719 
L 488.812488 56.82073 
L 489.040482 56.844167 
L 489.610467 59.070665 
L 489.724464 59.140975 
L 489.838461 59.867516 
L 489.952458 59.844079 
L 490.294449 60.195632 
L 490.750437 62.422129 
L 490.864434 62.398692 
L 491.092428 62.211198 
L 491.206425 62.281508 
L 491.662413 63.66428 
L 491.77641 63.781464 
L 491.890407 64.062706 
L 492.460392 63.07836 
L 492.574389 62.656497 
L 492.688386 63.031486 
L 492.91638 62.63306 
L 493.144374 60.336253 
L 493.486364 52.086494 
L 493.714358 41.844606 
L 493.942352 40.016535 
L 494.056349 40.227466 
L 494.170346 40.766513 
L 494.284343 40.438398 
L 494.39834 40.954008 
L 494.626334 40.438398 
L 495.766304 51.102148 
L 497.020271 71.140624 
L 497.81825 77.609184 
L 497.932247 77.773242 
L 498.16024 78.804462 
L 498.274237 78.991956 
L 498.502231 79.788808 
L 498.844222 80.257544 
L 498.958219 80.023176 
L 499.186213 79.413819 
L 499.30021 79.226324 
L 499.414207 78.734151 
L 499.642201 76.648275 
L 499.870195 77.820116 
L 500.326183 80.374728 
L 500.554177 83.726193 
L 500.782171 84.499608 
L 501.010165 82.366857 
L 501.352156 79.507566 
L 501.58015 80.163797 
L 501.808144 77.913863 
L 502.036138 76.882643 
L 502.150135 78.171668 
L 502.264132 77.585747 
L 502.834117 69.218805 
L 502.948113 68.89069 
L 503.176107 67.34386 
L 503.518098 63.59397 
L 503.974086 60.148758 
L 504.316077 58.555055 
L 504.430074 58.95348 
L 504.658068 55.695763 
L 504.886062 54.922349 
L 505.114056 56.305121 
L 505.456047 59.117538 
L 505.570044 59.000354 
L 505.684041 60.242505 
L 505.798038 60.008137 
L 505.912035 58.625365 
L 506.026032 58.88317 
L 506.140029 58.836296 
L 506.596017 61.929956 
L 506.824011 61.437783 
L 506.938008 61.320599 
L 507.279999 62.258071 
L 507.393996 62.609623 
L 507.62199 63.945522 
L 507.849983 63.523659 
L 507.96398 63.500222 
L 508.077977 64.133016 
L 508.533965 62.750244 
L 508.647962 62.750244 
L 509.10395 59.562838 
L 509.217947 60.664368 
L 509.331944 60.594057 
L 509.445941 59.609711 
L 509.901929 50.891217 
L 510.129923 42.196159 
L 510.357917 41.118065 
L 510.471914 41.282123 
L 510.813905 42.360216 
L 510.927902 42.430527 
L 511.041899 42.360216 
L 511.38389 44.047667 
L 512.067872 50.586538 
L 512.409863 56.1645 
L 513.207841 68.093838 
L 514.00582 75.054572 
L 514.347811 77.585747 
L 514.461808 77.492 
L 514.689802 78.921646 
L 515.031793 79.788808 
L 515.14579 79.741934 
L 515.373784 80.398165 
L 515.487781 80.187234 
L 515.601778 80.327855 
L 515.829772 80.046613 
L 516.057766 77.960736 
L 516.399757 79.085704 
L 516.741748 82.085616 
L 516.969742 85.226149 
L 517.197736 86.304242 
L 517.76772 83.30433 
L 517.995714 84.452734 
L 518.679696 77.42169 
L 519.135684 73.296811 
L 519.363678 70.953129 
L 519.477675 70.320335 
L 520.04766 63.922085 
L 520.503648 60.804989 
L 520.617645 60.734678 
L 520.959636 58.203502 
L 521.073633 57.242593 
L 521.18763 57.476961 
L 521.529621 56.375431 
L 521.643618 56.562925 
L 521.757615 56.984788 
L 521.871612 56.937915 
L 522.099606 57.758203 
L 522.213603 57.383214 
L 522.441596 56.258247 
L 522.66959 55.766074 
L 522.783587 55.695763 
L 523.239575 59.258159 
L 523.695563 61.789335 
L 524.037554 61.789335 
L 524.265548 62.750244 
L 524.493542 63.265854 
L 524.607539 62.914302 
L 524.721536 62.094014 
L 524.94953 62.820555 
L 525.063527 62.820555 
L 525.291521 62.04714 
L 525.405518 62.187761 
L 525.519515 62.000266 
L 525.747509 60.711242 
L 526.0895 56.328557 
L 526.317494 51.242769 
L 526.545488 42.547711 
L 526.773482 41.446181 
L 526.887479 41.774296 
L 527.001476 41.610238 
L 527.115473 42.289906 
L 527.343466 44.282035 
L 527.457463 44.446093 
L 527.57146 45.500749 
L 527.799454 45.313255 
L 528.141445 48.828777 
L 528.597433 51.828689 
L 529.053421 57.758203 
L 529.281415 59.609711 
L 529.965397 71.374992 
L 530.99137 79.718497 
L 531.333361 80.72628 
L 531.447358 80.632533 
L 531.675352 81.195017 
L 532.017342 82.015305 
L 532.47333 80.093487 
L 532.587327 80.351291 
L 533.043315 83.679319 
L 533.271309 87.241715 
L 533.727297 89.749454 
L 533.841294 89.444775 
L 533.955291 88.788544 
L 534.069288 88.952602 
L 534.297282 87.804198 
L 534.525276 87.288588 
L 534.75327 86.562047 
L 534.867267 86.397989 
L 534.981264 85.95269 
L 535.665246 79.202888 
L 535.779243 78.546657 
L 536.349228 72.781201 
L 536.691219 69.195368 
L 536.919212 67.039181 
L 537.033209 66.757939 
L 537.3752 64.789247 
L 537.603194 64.015832 
L 537.831188 63.687717 
L 537.945185 64.062706 
L 538.059182 63.992395 
L 538.173179 63.781464 
L 538.401173 64.578316 
L 538.743164 63.500222 
L 539.085155 64.039269 
L 539.199152 64.273637 
L 539.313149 64.17989 
L 540.111128 67.109492 
L 540.225125 67.156365 
L 540.339122 67.461044 
L 540.567116 68.703195 
L 540.79511 68.984437 
L 540.909107 69.570357 
L 541.137101 69.289115 
L 541.365095 70.50783 
L 541.479092 70.039093 
L 541.593089 70.437519 
L 541.707085 70.226588 
L 542.049076 71.02344 
L 542.391067 68.328206 
L 542.505064 67.507918 
L 542.733058 61.953393 
L 543.075049 48.922524 
L 543.303043 46.250727 
L 543.41704 47.305384 
L 543.531037 47.25851 
L 543.645034 47.047579 
L 543.759031 46.391348 
L 543.873028 46.578843 
L 543.987025 45.922612 
L 544.671007 49.156892 
L 545.012998 51.992747 
L 545.582983 61.156541 
L 546.038971 68.023527 
L 546.038971 68.023527 
" clip-path="url(#pbe224186ef)" style="fill: none; stroke: #4e9a73; stroke-width: 1.2; stroke-linecap: square"/>
   </g>
   <g id="patch_3">
    <path d="M 38.7625 86.659375 
L 38.7625 29.959375 
" style="fill: none; stroke: #aaaaaa; stroke-width: 0.75; stroke-linejoin: miter; stroke-linecap: square"/>
   </g>
   <g id="patch_4">
    <path d="M 53.686029 105.439375 
L 546.152968 105.439375 
" style="fill: none; stroke: #aaaaaa; stroke-width: 0.75; stroke-linejoin: miter; stroke-linecap: square"/>
   </g>
   <g id="text_13">
    <!-- April -->
    <g style="fill: #606060" transform="translate(48.7625 14.959375) scale(0.1 -0.1)">
     <defs>
      <path id="Ubuntu-Bold-41" d="M 3482 0 
Q 3411 230 3324 473 
Q 3238 717 3155 960 
L 1427 960 
Q 1344 717 1257 473 
Q 1171 230 1101 0 
L 64 0 
Q 314 717 538 1325 
Q 762 1933 976 2470 
Q 1190 3008 1398 3491 
Q 1606 3974 1830 4435 
L 2784 4435 
Q 3002 3974 3213 3491 
Q 3424 3008 3638 2470 
Q 3853 1933 4077 1325 
Q 4301 717 4550 0 
L 3482 0 
z
M 2285 3430 
Q 2253 3334 2189 3168 
Q 2125 3002 2041 2784 
Q 1958 2566 1859 2304 
Q 1760 2042 1658 1754 
L 2918 1754 
Q 2816 2042 2720 2304 
Q 2624 2566 2537 2784 
Q 2451 3002 2387 3168 
Q 2323 3334 2285 3430 
z
" transform="scale(0.015625)"/>
      <path id="Ubuntu-Bold-70" d="M 2605 1658 
Q 2605 2099 2406 2364 
Q 2208 2630 1818 2630 
Q 1690 2630 1581 2620 
Q 1472 2611 1402 2598 
L 1402 877 
Q 1491 819 1635 780 
Q 1779 742 1926 742 
Q 2605 742 2605 1658 
z
M 3578 1683 
Q 3578 1293 3482 973 
Q 3386 653 3200 422 
Q 3014 192 2739 64 
Q 2464 -64 2106 -64 
Q 1907 -64 1734 -25 
Q 1562 13 1402 83 
L 1402 -1184 
L 448 -1184 
L 448 3251 
Q 576 3290 742 3325 
Q 909 3360 1091 3385 
Q 1274 3411 1462 3427 
Q 1651 3443 1824 3443 
Q 2240 3443 2566 3318 
Q 2893 3194 3117 2966 
Q 3341 2739 3459 2412 
Q 3578 2086 3578 1683 
z
" transform="scale(0.015625)"/>
      <path id="Ubuntu-Bold-72" d="M 2477 2522 
Q 2349 2554 2176 2589 
Q 2003 2624 1805 2624 
Q 1715 2624 1590 2608 
Q 1466 2592 1402 2573 
L 1402 0 
L 448 0 
L 448 3187 
Q 704 3277 1053 3357 
Q 1402 3437 1830 3437 
Q 1907 3437 2016 3427 
Q 2125 3418 2233 3402 
Q 2342 3386 2451 3363 
Q 2560 3341 2637 3309 
L 2477 2522 
z
" transform="scale(0.015625)"/>
      <path id="Ubuntu-Bold-69" d="M 1402 0 
L 448 0 
L 448 3366 
L 1402 3366 
L 1402 0 
z
M 1491 4339 
Q 1491 4077 1321 3926 
Q 1152 3776 922 3776 
Q 691 3776 521 3926 
Q 352 4077 352 4339 
Q 352 4602 521 4752 
Q 691 4902 922 4902 
Q 1152 4902 1321 4752 
Q 1491 4602 1491 4339 
z
" transform="scale(0.015625)"/>
      <path id="Ubuntu-Bold-6c" d="M 1792 -64 
Q 1376 -58 1117 25 
Q 858 109 707 259 
Q 557 410 502 624 
Q 448 838 448 1107 
L 448 4813 
L 1402 4966 
L 1402 1299 
Q 1402 1171 1421 1068 
Q 1440 966 1494 896 
Q 1549 826 1651 781 
Q 1754 736 1926 723 
L 1792 -64 
z
" transform="scale(0.015625)"/>
     </defs>
     <use xlink:href="#Ubuntu-Bold-41"/>
     <use xlink:href="#Ubuntu-Bold-70" x="72.099991"/>
     <use xlink:href="#Ubuntu-Bold-72" x="132.499985"/>
     <use xlink:href="#Ubuntu-Bold-69" x="174.699982"/>
     <use xlink:href="#Ubuntu-Bold-6c" x="203.599976"/>
    </g>
   </g>
  </g>
  <g id="axes_2">
   <g id="patch_5">
    <path d="M 48.7625 196.279375 
L 550.9625 196.279375 
L 550.9625 135.799375 
L 48.7625 135.799375 
L 48.7625 196.279375 
z
" style="fill: none"/>
   </g>
   <g id="matplotlib.axis_3">
    <g id="xtick_10">
     <g id="text_14">
      <!-- Sunday -->
      <g style="fill: #808080" transform="translate(57.570592 226.486875) scale(0.08 -0.08)">
       <defs>
        <path id="Ubuntu-53" d="M 1581 442 
Q 2554 442 2554 1107 
Q 2554 1312 2467 1456 
Q 2381 1600 2233 1705 
Q 2086 1811 1897 1888 
Q 1709 1965 1498 2042 
Q 1254 2125 1036 2230 
Q 819 2336 659 2480 
Q 499 2624 406 2822 
Q 314 3021 314 3302 
Q 314 3885 710 4211 
Q 1107 4538 1805 4538 
Q 2208 4538 2537 4451 
Q 2867 4365 3021 4262 
L 2822 3757 
Q 2688 3840 2422 3920 
Q 2157 4000 1805 4000 
Q 1626 4000 1472 3961 
Q 1318 3923 1203 3846 
Q 1088 3770 1021 3651 
Q 954 3533 954 3373 
Q 954 3194 1024 3072 
Q 1094 2950 1222 2857 
Q 1350 2765 1520 2688 
Q 1690 2611 1894 2534 
Q 2182 2419 2422 2304 
Q 2662 2189 2838 2029 
Q 3014 1869 3110 1648 
Q 3206 1427 3206 1114 
Q 3206 531 2780 217 
Q 2355 -96 1581 -96 
Q 1318 -96 1097 -61 
Q 877 -26 704 22 
Q 531 70 406 124 
Q 282 179 211 218 
L 397 730 
Q 544 646 845 544 
Q 1146 442 1581 442 
z
" transform="scale(0.015625)"/>
        <path id="Ubuntu-75" d="M 3162 96 
Q 2957 45 2621 -12 
Q 2285 -70 1843 -70 
Q 1459 -70 1196 42 
Q 934 154 774 358 
Q 614 563 544 841 
Q 474 1120 474 1459 
L 474 3328 
L 1069 3328 
L 1069 1587 
Q 1069 979 1261 716 
Q 1453 454 1907 454 
Q 2003 454 2105 460 
Q 2208 467 2297 476 
Q 2387 486 2460 496 
Q 2534 506 2566 518 
L 2566 3328 
L 3162 3328 
L 3162 96 
z
" transform="scale(0.015625)"/>
        <path id="Ubuntu-6e" d="M 512 3232 
Q 717 3283 1056 3340 
Q 1395 3398 1837 3398 
Q 2234 3398 2496 3286 
Q 2758 3174 2915 2972 
Q 3072 2771 3136 2489 
Q 3200 2208 3200 1869 
L 3200 0 
L 2605 0 
L 2605 1741 
Q 2605 2048 2563 2265 
Q 2522 2483 2426 2617 
Q 2330 2752 2170 2813 
Q 2010 2874 1773 2874 
Q 1677 2874 1574 2867 
Q 1472 2861 1379 2851 
Q 1286 2842 1212 2829 
Q 1139 2816 1107 2810 
L 1107 0 
L 512 0 
L 512 3232 
z
" transform="scale(0.015625)"/>
        <path id="Ubuntu-64" d="M 2662 2624 
Q 2554 2714 2349 2797 
Q 2144 2880 1901 2880 
Q 1645 2880 1462 2787 
Q 1280 2694 1165 2531 
Q 1050 2368 998 2144 
Q 947 1920 947 1664 
Q 947 1082 1235 765 
Q 1523 448 2003 448 
Q 2246 448 2409 470 
Q 2573 493 2662 518 
L 2662 2624 
z
M 2662 4864 
L 3258 4966 
L 3258 96 
Q 3053 38 2733 -19 
Q 2413 -77 1997 -77 
Q 1613 -77 1305 44 
Q 998 166 780 390 
Q 563 614 444 937 
Q 326 1261 326 1664 
Q 326 2048 425 2368 
Q 525 2688 717 2918 
Q 909 3149 1187 3277 
Q 1466 3405 1824 3405 
Q 2112 3405 2333 3328 
Q 2554 3251 2662 3181 
L 2662 4864 
z
" transform="scale(0.015625)"/>
        <path id="Ubuntu-61" d="M 1638 429 
Q 1850 429 2013 438 
Q 2176 448 2285 474 
L 2285 1466 
Q 2221 1498 2077 1520 
Q 1933 1542 1728 1542 
Q 1594 1542 1443 1523 
Q 1293 1504 1168 1443 
Q 1043 1382 960 1276 
Q 877 1171 877 998 
Q 877 678 1081 553 
Q 1286 429 1638 429 
z
M 1587 3411 
Q 1946 3411 2192 3318 
Q 2438 3226 2588 3056 
Q 2739 2886 2803 2652 
Q 2867 2419 2867 2138 
L 2867 58 
Q 2790 45 2652 22 
Q 2515 0 2342 -19 
Q 2170 -38 1968 -54 
Q 1766 -70 1568 -70 
Q 1286 -70 1049 -12 
Q 813 45 640 169 
Q 467 294 371 499 
Q 275 704 275 992 
Q 275 1267 387 1465 
Q 499 1664 691 1785 
Q 883 1907 1139 1964 
Q 1395 2022 1677 2022 
Q 1766 2022 1862 2012 
Q 1958 2003 2044 1987 
Q 2131 1971 2195 1958 
Q 2259 1946 2285 1939 
L 2285 2106 
Q 2285 2253 2253 2397 
Q 2221 2541 2137 2653 
Q 2054 2765 1910 2832 
Q 1766 2899 1536 2899 
Q 1242 2899 1021 2857 
Q 800 2816 691 2771 
L 621 3264 
Q 736 3315 1005 3363 
Q 1274 3411 1587 3411 
z
" transform="scale(0.015625)"/>
        <path id="Ubuntu-79" d="M 122 -621 
Q 192 -653 304 -681 
Q 416 -710 525 -710 
Q 877 -710 1075 -553 
Q 1274 -397 1434 -45 
Q 1030 723 681 1584 
Q 333 2445 102 3328 
L 742 3328 
Q 813 3040 912 2707 
Q 1011 2374 1132 2022 
Q 1254 1670 1395 1318 
Q 1536 966 1690 640 
Q 1933 1312 2112 1971 
Q 2291 2630 2451 3328 
L 3066 3328 
Q 2835 2387 2553 1520 
Q 2272 653 1946 -102 
Q 1818 -390 1680 -598 
Q 1542 -806 1376 -940 
Q 1210 -1075 1002 -1139 
Q 794 -1203 531 -1203 
Q 461 -1203 384 -1193 
Q 307 -1184 233 -1168 
Q 160 -1152 99 -1133 
Q 38 -1114 13 -1101 
L 122 -621 
z
" transform="scale(0.015625)"/>
       </defs>
       <use xlink:href="#Ubuntu-53"/>
       <use xlink:href="#Ubuntu-75" x="53.199997"/>
       <use xlink:href="#Ubuntu-6e" x="110.599991"/>
       <use xlink:href="#Ubuntu-64" x="167.999985"/>
       <use xlink:href="#Ubuntu-61" x="226.899979"/>
       <use xlink:href="#Ubuntu-79" x="277.599976"/>
      </g>
     </g>
    </g>
    <g id="xtick_11">
     <g id="text_15">
      <!-- Sunday -->
      <g style="fill: #808080" transform="translate(176.414405 226.486875) scale(0.08 -0.08)">
       <use xlink:href="#Ubuntu-53"/>
       <use xlink:href="#Ubuntu-75" x="53.199997"/>
       <use xlink:href="#Ubuntu-6e" x="110.599991"/>
       <use xlink:href="#Ubuntu-64" x="167.999985"/>
       <use xlink:href="#Ubuntu-61" x="226.899979"/>
       <use xlink:href="#Ubuntu-79" x="277.599976"/>
      </g>
     </g>
    </g>
    <g id="xtick_12">
     <g id="text_16">
      <!-- Sunday -->
      <g style="fill: #808080" transform="translate(295.258219 226.486875) scale(0.08 -0.08)">
       <use xlink:href="#Ubuntu-53"/>
       <use xlink:href="#Ubuntu-75" x="53.199997"/>
       <use xlink:href="#Ubuntu-6e" x="110.599991"/>
       <use xlink:href="#Ubuntu-64" x="167.999985"/>
       <use xlink:href="#Ubuntu-61" x="226.899979"/>
       <use xlink:href="#Ubuntu-79" x="277.599976"/>
      </g>
     </g>
    </g>
    <g id="xtick_13">
     <g id="text_17">
      <!-- Sunday -->
      <g style="fill: #808080" transform="translate(414.102032 226.486875) scale(0.08 -0.08)">
       <use xlink:href="#Ubuntu-53"/>
       <use xlink:href="#Ubuntu-75" x="53.199997"/>
       <use xlink:href="#Ubuntu-6e" x="110.599991"/>
       <use xlink:href="#Ubuntu-64" x="167.999985"/>
       <use xlink:href="#Ubuntu-61" x="226.899979"/>
       <use xlink:href="#Ubuntu-79" x="277.599976"/>
      </g>
     </g>
    </g>
    <g id="xtick_14">
     <g id="text_18">
      <!-- Sunday -->
      <g style="fill: #808080" transform="translate(532.945846 226.486875) scale(0.08 -0.08)">
       <use xlink:href="#Ubuntu-53"/>
       <use xlink:href="#Ubuntu-75" x="53.199997"/>
       <use xlink:href="#Ubuntu-6e" x="110.599991"/>
       <use xlink:href="#Ubuntu-64" x="167.999985"/>
       <use xlink:href="#Ubuntu-61" x="226.899979"/>
       <use xlink:href="#Ubuntu-79" x="277.599976"/>
      </g>
     </g>
    </g>
   </g>
   <g id="matplotlib.axis_4">
    <g id="ytick_5">
     <g id="line2d_15">
      <g>
       <use xlink:href="#mb76cee16f8" x="38.7625" y="196.279375" style="fill: #aaaaaa; stroke: #aaaaaa; stroke-width: 0.75"/>
      </g>
     </g>
     <g id="text_19">
      <!-- 28000 -->
      <g style="fill: #808080" transform="translate(7.2 199.383125) scale(0.08 -0.08)">
       <defs>
        <path id="Ubuntu-38" d="M 3258 1152 
Q 3258 883 3165 656 
Q 3072 429 2889 259 
Q 2707 90 2432 -3 
Q 2157 -96 1798 -96 
Q 1382 -96 1104 22 
Q 826 141 659 320 
Q 493 499 422 713 
Q 352 928 352 1120 
Q 352 1306 413 1475 
Q 474 1645 573 1792 
Q 672 1939 803 2057 
Q 934 2176 1082 2266 
Q 454 2624 454 3322 
Q 454 3565 550 3785 
Q 646 4006 822 4172 
Q 998 4339 1248 4438 
Q 1498 4538 1805 4538 
Q 2163 4538 2419 4429 
Q 2675 4320 2838 4150 
Q 3002 3981 3075 3776 
Q 3149 3571 3149 3379 
Q 3149 3194 3094 3030 
Q 3040 2867 2947 2726 
Q 2854 2586 2736 2477 
Q 2618 2368 2490 2285 
Q 3245 1926 3258 1152 
z
M 954 1114 
Q 954 998 995 873 
Q 1037 749 1139 643 
Q 1242 538 1402 467 
Q 1562 397 1805 397 
Q 2022 397 2185 461 
Q 2349 525 2451 624 
Q 2554 723 2605 851 
Q 2656 979 2656 1114 
Q 2656 1318 2579 1472 
Q 2502 1626 2358 1741 
Q 2214 1856 2012 1936 
Q 1811 2016 1555 2074 
Q 1267 1914 1110 1677 
Q 954 1440 954 1114 
z
M 2554 3386 
Q 2554 3482 2512 3597 
Q 2470 3712 2380 3811 
Q 2291 3910 2150 3977 
Q 2010 4045 1805 4045 
Q 1600 4045 1456 3981 
Q 1312 3917 1222 3817 
Q 1133 3718 1091 3600 
Q 1050 3482 1050 3366 
Q 1050 3226 1101 3085 
Q 1152 2944 1261 2822 
Q 1370 2701 1546 2605 
Q 1722 2509 1965 2451 
Q 2234 2611 2394 2825 
Q 2554 3040 2554 3386 
z
" transform="scale(0.015625)"/>
       </defs>
       <use xlink:href="#Ubuntu-32"/>
       <use xlink:href="#Ubuntu-38" x="56.399994"/>
       <use xlink:href="#Ubuntu-30" x="112.799988"/>
       <use xlink:href="#Ubuntu-30" x="169.199982"/>
       <use xlink:href="#Ubuntu-30" x="225.599976"/>
      </g>
     </g>
    </g>
    <g id="ytick_6">
     <g id="line2d_16">
      <g>
       <use xlink:href="#mb76cee16f8" x="38.7625" y="181.159375" style="fill: #aaaaaa; stroke: #aaaaaa; stroke-width: 0.75"/>
      </g>
     </g>
     <g id="text_20">
      <!-- 30000 -->
      <g style="fill: #808080" transform="translate(7.2 184.263125) scale(0.08 -0.08)">
       <use xlink:href="#Ubuntu-33"/>
       <use xlink:href="#Ubuntu-30" x="56.399994"/>
       <use xlink:href="#Ubuntu-30" x="112.799988"/>
       <use xlink:href="#Ubuntu-30" x="169.199982"/>
       <use xlink:href="#Ubuntu-30" x="225.599976"/>
      </g>
     </g>
    </g>
    <g id="ytick_7">
     <g id="line2d_17">
      <g>
       <use xlink:href="#mb76cee16f8" x="38.7625" y="166.039375" style="fill: #aaaaaa; stroke: #aaaaaa; stroke-width: 0.75"/>
      </g>
     </g>
     <g id="text_21">
      <!-- 32000 -->
      <g style="fill: #808080" transform="translate(7.2 169.143125) scale(0.08 -0.08)">
       <use xlink:href="#Ubuntu-33"/>
       <use xlink:href="#Ubuntu-32" x="56.399994"/>
       <use xlink:href="#Ubuntu-30" x="112.799988"/>
       <use xlink:href="#Ubuntu-30" x="169.199982"/>
       <use xlink:href="#Ubuntu-30" x="225.599976"/>
      </g>
     </g>
    </g>
    <g id="ytick_8">
     <g id="line2d_18">
      <g>
       <use xlink:href="#mb76cee16f8" x="38.7625" y="150.919375" style="fill: #aaaaaa; stroke: #aaaaaa; stroke-width: 0.75"/>
      </g>
     </g>
     <g id="text_22">
      <!-- 34000 -->
      <g style="fill: #808080" transform="translate(7.2 154.023125) scale(0.08 -0.08)">
       <use xlink:href="#Ubuntu-33"/>
       <use xlink:href="#Ubuntu-34" x="56.399994"/>
       <use xlink:href="#Ubuntu-30" x="112.799988"/>
       <use xlink:href="#Ubuntu-30" x="169.199982"/>
       <use xlink:href="#Ubuntu-30" x="225.599976"/>
      </g>
     </g>
    </g>
    <g id="ytick_9">
     <g id="line2d_19">
      <g>
       <use xlink:href="#mb76cee16f8" x="38.7625" y="135.799375" style="fill: #aaaaaa; stroke: #aaaaaa; stroke-width: 0.75"/>
      </g>
     </g>
     <g id="text_23">
      <!-- 36000 -->
      <g style="fill: #808080" transform="translate(7.2 138.903125) scale(0.08 -0.08)">
       <defs>
        <path id="Ubuntu-36" d="M 403 1779 
Q 403 2426 582 2922 
Q 762 3418 1091 3757 
Q 1421 4096 1891 4272 
Q 2362 4448 2950 4454 
L 2995 3955 
Q 2618 3949 2307 3872 
Q 1997 3795 1753 3628 
Q 1510 3462 1344 3196 
Q 1178 2931 1094 2541 
Q 1261 2618 1469 2669 
Q 1677 2720 1901 2720 
Q 2278 2720 2540 2605 
Q 2803 2490 2969 2301 
Q 3136 2112 3209 1865 
Q 3283 1619 3283 1350 
Q 3283 1107 3200 851 
Q 3117 595 2947 384 
Q 2778 173 2515 38 
Q 2253 -96 1894 -96 
Q 1165 -96 784 403 
Q 403 902 403 1779 
z
M 1837 2234 
Q 1613 2234 1421 2192 
Q 1229 2150 1037 2067 
Q 1030 1997 1027 1923 
Q 1024 1850 1024 1779 
Q 1024 1498 1062 1248 
Q 1101 998 1200 809 
Q 1299 621 1465 509 
Q 1632 397 1888 397 
Q 2099 397 2246 486 
Q 2394 576 2490 717 
Q 2586 858 2627 1021 
Q 2669 1184 2669 1338 
Q 2669 1773 2461 2003 
Q 2253 2234 1837 2234 
z
" transform="scale(0.015625)"/>
       </defs>
       <use xlink:href="#Ubuntu-33"/>
       <use xlink:href="#Ubuntu-36" x="56.399994"/>
       <use xlink:href="#Ubuntu-30" x="112.799988"/>
       <use xlink:href="#Ubuntu-30" x="169.199982"/>
       <use xlink:href="#Ubuntu-30" x="225.599976"/>
      </g>
     </g>
    </g>
   </g>
   <g id="PolyCollection_1">
    <defs>
     <path id="m580393f2eb" d="M 53.686029 -80.806117 
L 53.686029 -64.512079 
L 70.663717 -39.161584 
L 87.641405 -59.335912 
L 104.619092 -58.802513 
L 121.59678 -58.657807 
L 138.574468 -61.076796 
L 155.552155 -58.518407 
L 172.529843 -56.597011 
L 189.50753 -44.642552 
L 206.485218 -55.236138 
L 223.462906 -57.703384 
L 240.440593 -58.728175 
L 257.418281 -58.808739 
L 274.395969 -56.338531 
L 291.373656 -54.267376 
L 308.351344 -40.870698 
L 325.329031 -62.101798 
L 342.306719 -62.019395 
L 359.284407 -62.401578 
L 376.262094 -35.825948 
L 393.239782 -63.791365 
L 410.21747 -56.921611 
L 427.195157 -40.709798 
L 444.172845 -57.074081 
L 461.150532 -59.556918 
L 478.12822 -59.75395 
L 495.105908 -59.424923 
L 512.083595 -58.166611 
L 529.061283 -56.636675 
L 546.038971 -38.162004 
L 546.038971 -53.225333 
L 546.038971 -53.225333 
L 529.061283 -72.327394 
L 512.083595 -73.996193 
L 495.105908 -73.838645 
L 478.12822 -76.412545 
L 461.150532 -76.397115 
L 444.172845 -72.729254 
L 427.195157 -58.254963 
L 410.21747 -72.960961 
L 393.239782 -82.754937 
L 376.262094 -48.713054 
L 359.284407 -78.490234 
L 342.306719 -78.121088 
L 325.329031 -78.027699 
L 308.351344 -55.665349 
L 291.373656 -70.176074 
L 274.395969 -71.223105 
L 257.418281 -74.234296 
L 240.440593 -73.366638 
L 223.462906 -73.550535 
L 206.485218 -70.914699 
L 189.50753 -59.426982 
L 172.529843 -70.995581 
L 155.552155 -73.847947 
L 138.574468 -76.457286 
L 121.59678 -74.648208 
L 104.619092 -74.337915 
L 87.641405 -74.345125 
L 70.663717 -54.24044 
L 53.686029 -80.806117 
z
" style="stroke: #4e9a73; stroke-opacity: 0.2"/>
    </defs>
    <g clip-path="url(#pdbd6661907)">
     <use xlink:href="#m580393f2eb" x="0" y="235.190625" style="fill: #4e9a73; fill-opacity: 0.2; stroke: #4e9a73; stroke-opacity: 0.2"/>
    </g>
   </g>
   <g id="line2d_20">
    <path d="M 53.686029 162.859781 
L 70.663717 188.621396 
L 87.641405 168.485267 
L 104.619092 169.182512 
L 121.59678 168.609612 
L 138.574468 166.689747 
L 155.552155 169.080627 
L 172.529843 171.587064 
L 189.50753 183.303843 
L 206.485218 171.778465 
L 223.462906 169.733928 
L 240.440593 169.546108 
L 257.418281 169.032777 
L 274.395969 171.451977 
L 291.373656 173.170026 
L 308.351344 186.909858 
L 325.329031 165.344734 
L 342.306719 164.884461 
L 359.284407 164.596709 
L 376.262094 193.00408 
L 393.239782 162.026797 
L 410.21747 170.36542 
L 427.195157 185.814838 
L 444.172845 170.25735 
L 461.150532 167.315054 
L 478.12822 167.631125 
L 495.105908 168.543859 
L 512.083595 169.439666 
L 529.061283 170.649917 
L 546.038971 189.560822 
" clip-path="url(#pdbd6661907)" style="fill: none; stroke: #4e9a73; stroke-width: 1.2; stroke-linecap: square"/>
   </g>
   <g id="patch_6">
    <path d="M 38.7625 196.279375 
L 38.7625 135.799375 
" style="fill: none; stroke: #aaaaaa; stroke-width: 0.75; stroke-linejoin: miter; stroke-linecap: square"/>
   </g>
  </g>
 </g>
 <defs>
  <clipPath id="pbe224186ef">
   <rect x="48.7625" y="29.959375" width="502.2" height="60.48"/>
  </clipPath>
  <clipPath id="pdbd6661907">
   <rect x="48.7625" y="135.799375" width="502.2" height="60.48"/>
  </clipPath>
 </defs>
</svg>
