<?xml version="1.0" encoding="utf-8" standalone="no"?>
<!DOCTYPE svg PUBLIC "-//W3C//DTD SVG 1.1//EN"
  "http://www.w3.org/Graphics/SVG/1.1/DTD/svg11.dtd">
<svg xmlns:xlink="http://www.w3.org/1999/xlink" width="571.234375pt" height="179.726875pt" viewBox="0 0 571.234375 179.726875" xmlns="http://www.w3.org/2000/svg" version="1.1">
 <metadata>
  <rdf:RDF xmlns:dc="http://purl.org/dc/elements/1.1/" xmlns:cc="http://creativecommons.org/ns#" xmlns:rdf="http://www.w3.org/1999/02/22-rdf-syntax-ns#">
   <cc:Work>
    <dc:type rdf:resource="http://purl.org/dc/dcmitype/StillImage"/>
    <dc:date>2024-05-15T16:15:18.906732</dc:date>
    <dc:format>image/svg+xml</dc:format>
    <dc:creator>
     <cc:Agent>
      <dc:title>Matplotlib v3.8.3, https://matplotlib.org/</dc:title>
     </cc:Agent>
    </dc:creator>
   </cc:Work>
  </rdf:RDF>
 </metadata>
 <defs>
  <style type="text/css">*{stroke-linejoin: round; stroke-linecap: butt}</style>
 </defs>
 <g id="figure_1">
  <g id="patch_1">
   <path d="M 0 179.726875 
L 571.234375 179.726875 
L 571.234375 0 
L 0 0 
L 0 179.726875 
z
" style="fill: none"/>
  </g>
  <g id="axes_1">
   <g id="patch_2">
    <path d="M 57.910938 150.839375 
L 504.310937 150.839375 
L 504.310937 39.959375 
L 57.910938 39.959375 
L 57.910938 150.839375 
z
" style="fill: none"/>
   </g>
   <g id="matplotlib.axis_1">
    <g id="xtick_1">
     <g id="line2d_1">
      <defs>
       <path id="m1f40052997" d="M 0 0 
L 0 3 
" style="stroke: #cecece; stroke-width: 0.75"/>
      </defs>
      <g>
       <use xlink:href="#m1f40052997" x="62.287408" y="155.839375" style="fill: #cecece; stroke: #cecece; stroke-width: 0.75"/>
      </g>
     </g>
     <g id="text_1">
      <!-- 00 h -->
      <g style="fill: #808080" transform="translate(54.567408 171.046875) scale(0.08 -0.08)">
       <defs>
        <path id="Ubuntu-30" d="M 320 2221 
Q 320 3334 713 3936 
Q 1107 4538 1805 4538 
Q 2502 4538 2896 3936 
Q 3290 3334 3290 2221 
Q 3290 1107 2896 505 
Q 2502 -96 1805 -96 
Q 1107 -96 713 505 
Q 320 1107 320 2221 
z
M 2662 2221 
Q 2662 2586 2620 2912 
Q 2579 3238 2480 3481 
Q 2381 3725 2214 3869 
Q 2048 4013 1805 4013 
Q 1562 4013 1395 3869 
Q 1229 3725 1129 3481 
Q 1030 3238 988 2912 
Q 947 2586 947 2221 
Q 947 1856 988 1529 
Q 1030 1203 1129 960 
Q 1229 717 1395 573 
Q 1562 429 1805 429 
Q 2048 429 2214 573 
Q 2381 717 2480 960 
Q 2579 1203 2620 1529 
Q 2662 1856 2662 2221 
z
" transform="scale(0.015625)"/>
        <path id="Ubuntu-20" transform="scale(0.015625)"/>
        <path id="Ubuntu-68" d="M 512 0 
L 512 4864 
L 1107 4966 
L 1107 3264 
Q 1274 3328 1462 3363 
Q 1651 3398 1837 3398 
Q 2234 3398 2496 3286 
Q 2758 3174 2915 2972 
Q 3072 2771 3136 2489 
Q 3200 2208 3200 1869 
L 3200 0 
L 2605 0 
L 2605 1741 
Q 2605 2048 2563 2265 
Q 2522 2483 2426 2617 
Q 2330 2752 2170 2813 
Q 2010 2874 1773 2874 
Q 1677 2874 1574 2861 
Q 1472 2848 1379 2832 
Q 1286 2816 1212 2797 
Q 1139 2778 1107 2765 
L 1107 0 
L 512 0 
z
" transform="scale(0.015625)"/>
       </defs>
       <use xlink:href="#Ubuntu-30"/>
       <use xlink:href="#Ubuntu-30" x="56.399994"/>
       <use xlink:href="#Ubuntu-20" x="112.799988"/>
       <use xlink:href="#Ubuntu-68" x="135.899979"/>
      </g>
     </g>
    </g>
    <g id="xtick_2">
     <g id="line2d_2">
      <g>
       <use xlink:href="#m1f40052997" x="117.375849" y="155.839375" style="fill: #cecece; stroke: #cecece; stroke-width: 0.75"/>
      </g>
     </g>
     <g id="text_2">
      <!-- 03 h -->
      <g style="fill: #808080" transform="translate(109.655849 171.046875) scale(0.08 -0.08)">
       <defs>
        <path id="Ubuntu-33" d="M 1446 435 
Q 2016 435 2262 659 
Q 2509 883 2509 1261 
Q 2509 1504 2406 1670 
Q 2304 1837 2137 1936 
Q 1971 2035 1750 2076 
Q 1530 2118 1299 2118 
L 1146 2118 
L 1146 2605 
L 1357 2605 
Q 1517 2605 1686 2637 
Q 1856 2669 1997 2752 
Q 2138 2835 2227 2979 
Q 2317 3123 2317 3341 
Q 2317 3520 2253 3648 
Q 2189 3776 2083 3859 
Q 1978 3942 1840 3977 
Q 1702 4013 1549 4013 
Q 1242 4013 1027 3923 
Q 813 3834 666 3738 
L 435 4192 
Q 512 4243 630 4304 
Q 749 4365 896 4416 
Q 1043 4467 1212 4502 
Q 1382 4538 1568 4538 
Q 1920 4538 2176 4451 
Q 2432 4365 2598 4208 
Q 2765 4051 2848 3836 
Q 2931 3622 2931 3373 
Q 2931 3027 2732 2780 
Q 2534 2534 2253 2406 
Q 2426 2355 2586 2259 
Q 2746 2163 2864 2016 
Q 2982 1869 3056 1677 
Q 3130 1485 3130 1248 
Q 3130 960 3030 713 
Q 2931 467 2723 288 
Q 2515 109 2201 6 
Q 1888 -96 1459 -96 
Q 1293 -96 1117 -70 
Q 941 -45 787 -6 
Q 634 32 518 70 
Q 403 109 352 134 
L 467 653 
Q 576 602 829 518 
Q 1082 435 1446 435 
z
" transform="scale(0.015625)"/>
       </defs>
       <use xlink:href="#Ubuntu-30"/>
       <use xlink:href="#Ubuntu-33" x="56.399994"/>
       <use xlink:href="#Ubuntu-20" x="112.799988"/>
       <use xlink:href="#Ubuntu-68" x="135.899979"/>
      </g>
     </g>
    </g>
    <g id="xtick_3">
     <g id="line2d_3">
      <g>
       <use xlink:href="#m1f40052997" x="172.46429" y="155.839375" style="fill: #cecece; stroke: #cecece; stroke-width: 0.75"/>
      </g>
     </g>
     <g id="text_3">
      <!-- 06 h -->
      <g style="fill: #808080" transform="translate(164.74429 171.046875) scale(0.08 -0.08)">
       <defs>
        <path id="Ubuntu-36" d="M 403 1779 
Q 403 2426 582 2922 
Q 762 3418 1091 3757 
Q 1421 4096 1891 4272 
Q 2362 4448 2950 4454 
L 2995 3955 
Q 2618 3949 2307 3872 
Q 1997 3795 1753 3628 
Q 1510 3462 1344 3196 
Q 1178 2931 1094 2541 
Q 1261 2618 1469 2669 
Q 1677 2720 1901 2720 
Q 2278 2720 2540 2605 
Q 2803 2490 2969 2301 
Q 3136 2112 3209 1865 
Q 3283 1619 3283 1350 
Q 3283 1107 3200 851 
Q 3117 595 2947 384 
Q 2778 173 2515 38 
Q 2253 -96 1894 -96 
Q 1165 -96 784 403 
Q 403 902 403 1779 
z
M 1837 2234 
Q 1613 2234 1421 2192 
Q 1229 2150 1037 2067 
Q 1030 1997 1027 1923 
Q 1024 1850 1024 1779 
Q 1024 1498 1062 1248 
Q 1101 998 1200 809 
Q 1299 621 1465 509 
Q 1632 397 1888 397 
Q 2099 397 2246 486 
Q 2394 576 2490 717 
Q 2586 858 2627 1021 
Q 2669 1184 2669 1338 
Q 2669 1773 2461 2003 
Q 2253 2234 1837 2234 
z
" transform="scale(0.015625)"/>
       </defs>
       <use xlink:href="#Ubuntu-30"/>
       <use xlink:href="#Ubuntu-36" x="56.399994"/>
       <use xlink:href="#Ubuntu-20" x="112.799988"/>
       <use xlink:href="#Ubuntu-68" x="135.899979"/>
      </g>
     </g>
    </g>
    <g id="xtick_4">
     <g id="line2d_4">
      <g>
       <use xlink:href="#m1f40052997" x="227.552731" y="155.839375" style="fill: #cecece; stroke: #cecece; stroke-width: 0.75"/>
      </g>
     </g>
     <g id="text_4">
      <!-- 09 h -->
      <g style="fill: #808080" transform="translate(219.832731 171.046875) scale(0.08 -0.08)">
       <defs>
        <path id="Ubuntu-39" d="M 3206 2662 
Q 3206 1344 2550 669 
Q 1894 -6 602 -13 
L 582 486 
Q 986 486 1309 563 
Q 1632 640 1875 809 
Q 2118 979 2281 1248 
Q 2445 1517 2522 1907 
Q 2355 1830 2144 1782 
Q 1933 1734 1709 1734 
Q 1331 1734 1068 1846 
Q 806 1958 640 2147 
Q 474 2336 400 2582 
Q 326 2829 326 3098 
Q 326 3334 409 3590 
Q 493 3846 662 4057 
Q 832 4269 1094 4403 
Q 1357 4538 1715 4538 
Q 2080 4538 2358 4410 
Q 2637 4282 2825 4038 
Q 3014 3795 3110 3446 
Q 3206 3098 3206 2662 
z
M 1773 2221 
Q 1997 2221 2195 2262 
Q 2394 2304 2579 2387 
Q 2586 2458 2586 2525 
Q 2586 2592 2586 2662 
Q 2586 2938 2547 3190 
Q 2509 3443 2409 3632 
Q 2310 3821 2144 3933 
Q 1978 4045 1722 4045 
Q 1510 4045 1363 3955 
Q 1216 3866 1120 3728 
Q 1024 3590 982 3427 
Q 941 3264 941 3110 
Q 941 2675 1149 2448 
Q 1357 2221 1773 2221 
z
" transform="scale(0.015625)"/>
       </defs>
       <use xlink:href="#Ubuntu-30"/>
       <use xlink:href="#Ubuntu-39" x="56.399994"/>
       <use xlink:href="#Ubuntu-20" x="112.799988"/>
       <use xlink:href="#Ubuntu-68" x="135.899979"/>
      </g>
     </g>
    </g>
    <g id="xtick_5">
     <g id="line2d_5">
      <g>
       <use xlink:href="#m1f40052997" x="282.641172" y="155.839375" style="fill: #cecece; stroke: #cecece; stroke-width: 0.75"/>
      </g>
     </g>
     <g id="text_5">
      <!-- 12 h -->
      <g style="fill: #808080" transform="translate(274.921172 171.046875) scale(0.08 -0.08)">
       <defs>
        <path id="Ubuntu-31" d="M 595 3520 
Q 960 3661 1305 3881 
Q 1651 4102 1939 4435 
L 2362 4435 
L 2362 0 
L 1766 0 
L 1766 3610 
Q 1690 3539 1578 3462 
Q 1466 3386 1334 3315 
Q 1203 3245 1059 3181 
Q 915 3117 781 3072 
L 595 3520 
z
" transform="scale(0.015625)"/>
        <path id="Ubuntu-32" d="M 2989 3302 
Q 2989 3072 2896 2857 
Q 2803 2643 2649 2435 
Q 2496 2227 2304 2025 
Q 2112 1824 1920 1632 
Q 1811 1523 1667 1376 
Q 1523 1229 1395 1069 
Q 1267 909 1180 761 
Q 1094 614 1094 506 
L 3136 506 
L 3136 0 
L 448 0 
Q 442 38 442 76 
Q 442 115 442 147 
Q 442 448 541 707 
Q 640 966 800 1196 
Q 960 1427 1158 1632 
Q 1357 1837 1549 2029 
Q 1709 2182 1853 2332 
Q 1997 2483 2109 2633 
Q 2221 2784 2288 2944 
Q 2355 3104 2355 3283 
Q 2355 3475 2294 3609 
Q 2234 3744 2131 3833 
Q 2029 3923 1891 3964 
Q 1754 4006 1600 4006 
Q 1414 4006 1260 3955 
Q 1107 3904 985 3837 
Q 864 3770 781 3696 
Q 698 3622 653 3584 
L 358 4006 
Q 416 4070 531 4163 
Q 646 4256 806 4339 
Q 966 4422 1164 4480 
Q 1363 4538 1594 4538 
Q 2291 4538 2640 4214 
Q 2989 3891 2989 3302 
z
" transform="scale(0.015625)"/>
       </defs>
       <use xlink:href="#Ubuntu-31"/>
       <use xlink:href="#Ubuntu-32" x="56.399994"/>
       <use xlink:href="#Ubuntu-20" x="112.799988"/>
       <use xlink:href="#Ubuntu-68" x="135.899979"/>
      </g>
     </g>
    </g>
    <g id="xtick_6">
     <g id="line2d_6">
      <g>
       <use xlink:href="#m1f40052997" x="337.729613" y="155.839375" style="fill: #cecece; stroke: #cecece; stroke-width: 0.75"/>
      </g>
     </g>
     <g id="text_6">
      <!-- 15 h -->
      <g style="fill: #808080" transform="translate(330.009613 171.046875) scale(0.08 -0.08)">
       <defs>
        <path id="Ubuntu-35" d="M 1274 2726 
Q 2240 2688 2691 2304 
Q 3142 1920 3142 1261 
Q 3142 966 3043 716 
Q 2944 467 2742 288 
Q 2541 109 2233 6 
Q 1926 -96 1504 -96 
Q 1338 -96 1165 -70 
Q 992 -45 845 -6 
Q 698 32 582 70 
Q 467 109 416 134 
L 531 653 
Q 640 602 886 518 
Q 1133 435 1491 435 
Q 1779 435 1974 499 
Q 2170 563 2291 672 
Q 2413 781 2467 925 
Q 2522 1069 2522 1229 
Q 2522 1472 2438 1661 
Q 2355 1850 2144 1978 
Q 1933 2106 1581 2173 
Q 1229 2240 691 2240 
Q 730 2554 752 2829 
Q 774 3104 793 3366 
Q 813 3629 825 3888 
Q 838 4147 851 4435 
L 2989 4435 
L 2989 3930 
L 1370 3930 
Q 1363 3834 1350 3670 
Q 1338 3507 1325 3331 
Q 1312 3155 1299 2988 
Q 1286 2822 1274 2726 
z
" transform="scale(0.015625)"/>
       </defs>
       <use xlink:href="#Ubuntu-31"/>
       <use xlink:href="#Ubuntu-35" x="56.399994"/>
       <use xlink:href="#Ubuntu-20" x="112.799988"/>
       <use xlink:href="#Ubuntu-68" x="135.899979"/>
      </g>
     </g>
    </g>
    <g id="xtick_7">
     <g id="line2d_7">
      <g>
       <use xlink:href="#m1f40052997" x="392.818054" y="155.839375" style="fill: #cecece; stroke: #cecece; stroke-width: 0.75"/>
      </g>
     </g>
     <g id="text_7">
      <!-- 18 h -->
      <g style="fill: #808080" transform="translate(385.098054 171.046875) scale(0.08 -0.08)">
       <defs>
        <path id="Ubuntu-38" d="M 3258 1152 
Q 3258 883 3165 656 
Q 3072 429 2889 259 
Q 2707 90 2432 -3 
Q 2157 -96 1798 -96 
Q 1382 -96 1104 22 
Q 826 141 659 320 
Q 493 499 422 713 
Q 352 928 352 1120 
Q 352 1306 413 1475 
Q 474 1645 573 1792 
Q 672 1939 803 2057 
Q 934 2176 1082 2266 
Q 454 2624 454 3322 
Q 454 3565 550 3785 
Q 646 4006 822 4172 
Q 998 4339 1248 4438 
Q 1498 4538 1805 4538 
Q 2163 4538 2419 4429 
Q 2675 4320 2838 4150 
Q 3002 3981 3075 3776 
Q 3149 3571 3149 3379 
Q 3149 3194 3094 3030 
Q 3040 2867 2947 2726 
Q 2854 2586 2736 2477 
Q 2618 2368 2490 2285 
Q 3245 1926 3258 1152 
z
M 954 1114 
Q 954 998 995 873 
Q 1037 749 1139 643 
Q 1242 538 1402 467 
Q 1562 397 1805 397 
Q 2022 397 2185 461 
Q 2349 525 2451 624 
Q 2554 723 2605 851 
Q 2656 979 2656 1114 
Q 2656 1318 2579 1472 
Q 2502 1626 2358 1741 
Q 2214 1856 2012 1936 
Q 1811 2016 1555 2074 
Q 1267 1914 1110 1677 
Q 954 1440 954 1114 
z
M 2554 3386 
Q 2554 3482 2512 3597 
Q 2470 3712 2380 3811 
Q 2291 3910 2150 3977 
Q 2010 4045 1805 4045 
Q 1600 4045 1456 3981 
Q 1312 3917 1222 3817 
Q 1133 3718 1091 3600 
Q 1050 3482 1050 3366 
Q 1050 3226 1101 3085 
Q 1152 2944 1261 2822 
Q 1370 2701 1546 2605 
Q 1722 2509 1965 2451 
Q 2234 2611 2394 2825 
Q 2554 3040 2554 3386 
z
" transform="scale(0.015625)"/>
       </defs>
       <use xlink:href="#Ubuntu-31"/>
       <use xlink:href="#Ubuntu-38" x="56.399994"/>
       <use xlink:href="#Ubuntu-20" x="112.799988"/>
       <use xlink:href="#Ubuntu-68" x="135.899979"/>
      </g>
     </g>
    </g>
    <g id="xtick_8">
     <g id="line2d_8">
      <g>
       <use xlink:href="#m1f40052997" x="447.906495" y="155.839375" style="fill: #cecece; stroke: #cecece; stroke-width: 0.75"/>
      </g>
     </g>
     <g id="text_8">
      <!-- 21 h -->
      <g style="fill: #808080" transform="translate(440.186495 171.046875) scale(0.08 -0.08)">
       <use xlink:href="#Ubuntu-32"/>
       <use xlink:href="#Ubuntu-31" x="56.399994"/>
       <use xlink:href="#Ubuntu-20" x="112.799988"/>
       <use xlink:href="#Ubuntu-68" x="135.899979"/>
      </g>
     </g>
    </g>
    <g id="xtick_9">
     <g id="line2d_9">
      <g>
       <use xlink:href="#m1f40052997" x="502.994936" y="155.839375" style="fill: #cecece; stroke: #cecece; stroke-width: 0.75"/>
      </g>
     </g>
     <g id="text_9">
      <!-- 24 h -->
      <g style="fill: #808080" transform="translate(495.274936 171.046875) scale(0.08 -0.08)">
       <defs>
        <path id="Ubuntu-34" d="M 256 1536 
Q 378 1818 589 2192 
Q 800 2566 1065 2963 
Q 1331 3360 1635 3744 
Q 1939 4128 2246 4435 
L 2816 4435 
L 2816 1619 
L 3341 1619 
L 3341 1133 
L 2816 1133 
L 2816 0 
L 2240 0 
L 2240 1133 
L 256 1133 
L 256 1536 
z
M 2240 3731 
Q 2048 3526 1853 3273 
Q 1658 3021 1472 2745 
Q 1286 2470 1123 2182 
Q 960 1894 832 1619 
L 2240 1619 
L 2240 3731 
z
" transform="scale(0.015625)"/>
       </defs>
       <use xlink:href="#Ubuntu-32"/>
       <use xlink:href="#Ubuntu-34" x="56.399994"/>
       <use xlink:href="#Ubuntu-20" x="112.799988"/>
       <use xlink:href="#Ubuntu-68" x="135.899979"/>
      </g>
     </g>
    </g>
   </g>
   <g id="matplotlib.axis_2">
    <g id="ytick_1">
     <g id="line2d_10">
      <defs>
       <path id="ma66ebb6749" d="M 0 0 
L -3 0 
" style="stroke: #cecece; stroke-width: 0.75"/>
      </defs>
      <g>
       <use xlink:href="#ma66ebb6749" x="55.410938" y="149.759066" style="fill: #cecece; stroke: #cecece; stroke-width: 0.75"/>
      </g>
     </g>
     <g id="text_10">
      <!-- 20000 -->
      <g style="fill: #808080" transform="translate(23.848438 152.862816) scale(0.08 -0.08)">
       <use xlink:href="#Ubuntu-32"/>
       <use xlink:href="#Ubuntu-30" x="56.399994"/>
       <use xlink:href="#Ubuntu-30" x="112.799988"/>
       <use xlink:href="#Ubuntu-30" x="169.199982"/>
       <use xlink:href="#Ubuntu-30" x="225.599976"/>
      </g>
     </g>
    </g>
    <g id="ytick_2">
     <g id="line2d_11">
      <g>
       <use xlink:href="#ma66ebb6749" x="55.410938" y="131.459118" style="fill: #cecece; stroke: #cecece; stroke-width: 0.75"/>
      </g>
     </g>
     <g id="text_11">
      <!-- 25000 -->
      <g style="fill: #808080" transform="translate(23.848438 134.562868) scale(0.08 -0.08)">
       <use xlink:href="#Ubuntu-32"/>
       <use xlink:href="#Ubuntu-35" x="56.399994"/>
       <use xlink:href="#Ubuntu-30" x="112.799988"/>
       <use xlink:href="#Ubuntu-30" x="169.199982"/>
       <use xlink:href="#Ubuntu-30" x="225.599976"/>
      </g>
     </g>
    </g>
    <g id="ytick_3">
     <g id="line2d_12">
      <g>
       <use xlink:href="#ma66ebb6749" x="55.410938" y="113.159169" style="fill: #cecece; stroke: #cecece; stroke-width: 0.75"/>
      </g>
     </g>
     <g id="text_12">
      <!-- 30000 -->
      <g style="fill: #808080" transform="translate(23.848438 116.262919) scale(0.08 -0.08)">
       <use xlink:href="#Ubuntu-33"/>
       <use xlink:href="#Ubuntu-30" x="56.399994"/>
       <use xlink:href="#Ubuntu-30" x="112.799988"/>
       <use xlink:href="#Ubuntu-30" x="169.199982"/>
       <use xlink:href="#Ubuntu-30" x="225.599976"/>
      </g>
     </g>
    </g>
    <g id="ytick_4">
     <g id="line2d_13">
      <g>
       <use xlink:href="#ma66ebb6749" x="55.410938" y="94.859221" style="fill: #cecece; stroke: #cecece; stroke-width: 0.75"/>
      </g>
     </g>
     <g id="text_13">
      <!-- 35000 -->
      <g style="fill: #808080" transform="translate(23.848438 97.962971) scale(0.08 -0.08)">
       <use xlink:href="#Ubuntu-33"/>
       <use xlink:href="#Ubuntu-35" x="56.399994"/>
       <use xlink:href="#Ubuntu-30" x="112.799988"/>
       <use xlink:href="#Ubuntu-30" x="169.199982"/>
       <use xlink:href="#Ubuntu-30" x="225.599976"/>
      </g>
     </g>
    </g>
    <g id="ytick_5">
     <g id="line2d_14">
      <g>
       <use xlink:href="#ma66ebb6749" x="55.410938" y="76.559272" style="fill: #cecece; stroke: #cecece; stroke-width: 0.75"/>
      </g>
     </g>
     <g id="text_14">
      <!-- 40000 -->
      <g style="fill: #808080" transform="translate(23.848438 79.663022) scale(0.08 -0.08)">
       <use xlink:href="#Ubuntu-34"/>
       <use xlink:href="#Ubuntu-30" x="56.399994"/>
       <use xlink:href="#Ubuntu-30" x="112.799988"/>
       <use xlink:href="#Ubuntu-30" x="169.199982"/>
       <use xlink:href="#Ubuntu-30" x="225.599976"/>
      </g>
     </g>
    </g>
    <g id="ytick_6">
     <g id="line2d_15">
      <g>
       <use xlink:href="#ma66ebb6749" x="55.410938" y="58.259324" style="fill: #cecece; stroke: #cecece; stroke-width: 0.75"/>
      </g>
     </g>
     <g id="text_15">
      <!-- 45000 -->
      <g style="fill: #808080" transform="translate(23.848438 61.363074) scale(0.08 -0.08)">
       <use xlink:href="#Ubuntu-34"/>
       <use xlink:href="#Ubuntu-35" x="56.399994"/>
       <use xlink:href="#Ubuntu-30" x="112.799988"/>
       <use xlink:href="#Ubuntu-30" x="169.199982"/>
       <use xlink:href="#Ubuntu-30" x="225.599976"/>
      </g>
     </g>
    </g>
    <g id="ytick_7">
     <g id="line2d_16">
      <g>
       <use xlink:href="#ma66ebb6749" x="55.410938" y="39.959375" style="fill: #cecece; stroke: #cecece; stroke-width: 0.75"/>
      </g>
     </g>
     <g id="text_16">
      <!-- 50000 -->
      <g style="fill: #808080" transform="translate(23.848438 43.063125) scale(0.08 -0.08)">
       <use xlink:href="#Ubuntu-35"/>
       <use xlink:href="#Ubuntu-30" x="56.399994"/>
       <use xlink:href="#Ubuntu-30" x="112.799988"/>
       <use xlink:href="#Ubuntu-30" x="169.199982"/>
       <use xlink:href="#Ubuntu-30" x="225.599976"/>
      </g>
     </g>
    </g>
    <g id="text_17">
     <!-- Target -->
     <g style="fill: #505050" transform="translate(14.156719 68.095625) rotate(-90) scale(0.09 -0.09)">
      <defs>
       <path id="Ubuntu-Bold-54" d="M 3802 4435 
L 3802 3584 
L 2464 3584 
L 2464 0 
L 1466 0 
L 1466 3584 
L 128 3584 
L 128 4435 
L 3802 4435 
z
" transform="scale(0.015625)"/>
       <path id="Ubuntu-Bold-61" d="M 1734 666 
Q 1875 666 2003 672 
Q 2131 678 2208 691 
L 2208 1414 
Q 2150 1427 2035 1440 
Q 1920 1453 1824 1453 
Q 1690 1453 1571 1437 
Q 1453 1421 1363 1376 
Q 1274 1331 1222 1254 
Q 1171 1178 1171 1062 
Q 1171 838 1321 752 
Q 1472 666 1734 666 
z
M 1658 3456 
Q 2080 3456 2361 3360 
Q 2643 3264 2812 3085 
Q 2982 2906 3052 2650 
Q 3123 2394 3123 2080 
L 3123 96 
Q 2918 51 2553 -9 
Q 2189 -70 1670 -70 
Q 1344 -70 1078 -12 
Q 813 45 621 176 
Q 429 307 326 518 
Q 224 730 224 1037 
Q 224 1331 342 1536 
Q 461 1741 659 1862 
Q 858 1984 1114 2038 
Q 1370 2093 1645 2093 
Q 1830 2093 1974 2077 
Q 2118 2061 2208 2035 
L 2208 2125 
Q 2208 2368 2061 2515 
Q 1914 2662 1549 2662 
Q 1306 2662 1069 2627 
Q 832 2592 659 2528 
L 538 3296 
Q 621 3322 745 3350 
Q 870 3379 1017 3401 
Q 1165 3424 1328 3440 
Q 1491 3456 1658 3456 
z
" transform="scale(0.015625)"/>
       <path id="Ubuntu-Bold-72" d="M 2477 2522 
Q 2349 2554 2176 2589 
Q 2003 2624 1805 2624 
Q 1715 2624 1590 2608 
Q 1466 2592 1402 2573 
L 1402 0 
L 448 0 
L 448 3187 
Q 704 3277 1053 3357 
Q 1402 3437 1830 3437 
Q 1907 3437 2016 3427 
Q 2125 3418 2233 3402 
Q 2342 3386 2451 3363 
Q 2560 3341 2637 3309 
L 2477 2522 
z
" transform="scale(0.015625)"/>
       <path id="Ubuntu-Bold-67" d="M 1261 1792 
Q 1261 992 1907 992 
Q 2054 992 2182 1030 
Q 2310 1069 2400 1120 
L 2400 2643 
Q 2330 2656 2234 2665 
Q 2138 2675 2010 2675 
Q 1632 2675 1446 2425 
Q 1261 2176 1261 1792 
z
M 3354 422 
Q 3354 -403 2934 -803 
Q 2515 -1203 1638 -1203 
Q 1331 -1203 1024 -1148 
Q 717 -1094 454 -1005 
L 621 -205 
Q 845 -294 1091 -345 
Q 1338 -397 1651 -397 
Q 2061 -397 2230 -217 
Q 2400 -38 2400 243 
L 2400 365 
Q 2246 294 2083 259 
Q 1920 224 1728 224 
Q 1030 224 659 637 
Q 288 1050 288 1792 
Q 288 2163 403 2467 
Q 518 2771 739 2988 
Q 960 3206 1280 3324 
Q 1600 3443 2003 3443 
Q 2176 3443 2358 3427 
Q 2541 3411 2720 3385 
Q 2899 3360 3062 3325 
Q 3226 3290 3354 3251 
L 3354 422 
z
" transform="scale(0.015625)"/>
       <path id="Ubuntu-Bold-65" d="M 288 1658 
Q 288 2106 425 2442 
Q 563 2778 787 3002 
Q 1011 3226 1302 3341 
Q 1594 3456 1901 3456 
Q 2618 3456 3034 3017 
Q 3450 2579 3450 1728 
Q 3450 1645 3443 1545 
Q 3437 1446 3430 1370 
L 1267 1370 
Q 1299 1075 1542 902 
Q 1786 730 2195 730 
Q 2458 730 2710 778 
Q 2963 826 3123 896 
L 3251 122 
Q 3174 83 3046 44 
Q 2918 6 2761 -22 
Q 2605 -51 2425 -70 
Q 2246 -90 2067 -90 
Q 1613 -90 1277 44 
Q 941 179 720 412 
Q 499 646 393 966 
Q 288 1286 288 1658 
z
M 2528 2022 
Q 2522 2144 2486 2259 
Q 2451 2374 2377 2464 
Q 2304 2554 2192 2611 
Q 2080 2669 1914 2669 
Q 1754 2669 1638 2614 
Q 1523 2560 1446 2470 
Q 1370 2381 1328 2262 
Q 1286 2144 1267 2022 
L 2528 2022 
z
" transform="scale(0.015625)"/>
       <path id="Ubuntu-Bold-74" d="M 416 4205 
L 1370 4358 
L 1370 3366 
L 2515 3366 
L 2515 2573 
L 1370 2573 
L 1370 1389 
Q 1370 1088 1475 909 
Q 1581 730 1901 730 
Q 2054 730 2217 758 
Q 2381 787 2515 838 
L 2650 96 
Q 2477 26 2265 -25 
Q 2054 -77 1747 -77 
Q 1357 -77 1101 28 
Q 845 134 691 323 
Q 538 512 477 781 
Q 416 1050 416 1376 
L 416 4205 
z
" transform="scale(0.015625)"/>
      </defs>
      <use xlink:href="#Ubuntu-Bold-54"/>
      <use xlink:href="#Ubuntu-Bold-61" x="53.899994"/>
      <use xlink:href="#Ubuntu-Bold-72" x="109.199982"/>
      <use xlink:href="#Ubuntu-Bold-67" x="150.399979"/>
      <use xlink:href="#Ubuntu-Bold-65" x="209.799973"/>
      <use xlink:href="#Ubuntu-Bold-74" x="268.199966"/>
     </g>
    </g>
   </g>
   <g id="line2d_17">
    <path d="M 62.287408 110.477897 
L 65.347877 112.505411 
L 68.408346 114.164286 
L 71.468815 116.56044 
L 74.529284 118.495794 
L 77.589753 120.984107 
L 80.650222 122.182184 
L 83.710691 123.748899 
L 86.77116 124.993056 
L 89.831629 125.730334 
L 92.892098 126.145053 
L 95.952566 127.435289 
L 99.013035 128.541206 
L 102.073504 130.107922 
L 105.133973 130.56872 
L 108.194442 131.444238 
L 111.254911 131.305998 
L 114.31538 130.937359 
L 117.375849 130.200081 
L 120.436318 130.384401 
L 123.496787 129.969682 
L 126.557256 127.850008 
L 129.617725 128.402966 
L 132.678194 129.647123 
L 135.738663 131.398158 
L 138.799132 132.550155 
L 141.859601 132.227596 
L 144.92007 132.826634 
L 147.980538 133.978631 
L 151.041007 137.80326 
L 154.101476 141.950448 
L 157.161945 144.530921 
L 160.222414 146.834915 
L 166.343352 147.249633 
L 169.403821 145.129959 
L 172.46429 143.194605 
L 175.524759 140.752372 
L 178.585228 138.955257 
L 181.645697 138.586618 
L 184.706166 139.692535 
L 187.766635 139.462135 
L 190.827104 136.144385 
L 193.887573 134.715909 
L 196.948042 131.444238 
L 200.008511 130.56872 
L 203.068979 129.094164 
L 206.129448 126.559772 
L 209.189917 124.209698 
L 212.250386 123.38026 
L 215.310855 119.87819 
L 218.371324 117.712436 
L 221.431793 115.823162 
L 224.492262 114.855484 
L 227.552731 111.215175 
L 230.6132 108.127823 
L 239.794607 101.953121 
L 242.855076 100.847204 
L 245.915545 100.294245 
L 248.976014 99.280488 
L 255.096951 94.165623 
L 258.15742 93.290105 
L 261.217889 93.013626 
L 264.278358 93.197945 
L 267.338827 93.658744 
L 270.399296 92.138108 
L 276.520234 90.433153 
L 279.580703 90.202754 
L 282.641172 90.156674 
L 285.701641 89.281156 
L 288.76211 89.741955 
L 291.822579 91.262591 
L 294.883048 92.967546 
L 297.943517 91.907709 
L 301.003986 91.216511 
L 307.124924 92.322428 
L 310.185392 92.368508 
L 313.245861 94.257782 
L 316.30633 95.22546 
L 319.366799 95.640178 
L 322.427268 96.930415 
L 325.487737 96.746095 
L 328.548206 98.54321 
L 331.608675 97.898092 
L 334.669144 99.741287 
L 337.729613 108.634702 
L 340.790082 114.532925 
L 343.850551 113.933887 
L 349.971489 107.021906 
L 353.031958 108.957261 
L 356.092427 106.008149 
L 359.152896 106.468948 
L 362.213364 105.040472 
L 365.273833 106.008149 
L 368.334302 107.252306 
L 371.394771 104.717913 
L 374.45524 104.810073 
L 380.576178 106.008149 
L 383.636647 106.745427 
L 386.697116 107.805264 
L 389.757585 106.883667 
L 392.818054 106.561108 
L 395.878523 106.975827 
L 398.938992 105.82383 
L 401.999461 103.750236 
L 405.05993 100.109926 
L 408.120399 97.299054 
L 411.180868 94.99506 
L 414.241337 88.037 
L 417.301805 75.503275 
L 420.362274 66.60986 
L 423.422743 63.15387 
L 426.483212 59.51356 
L 429.543681 59.37532 
L 432.60415 58.085084 
L 438.725088 58.914522 
L 441.785557 60.619477 
L 444.846026 60.527317 
L 447.906495 62.96955 
L 450.966964 63.06171 
L 454.027433 62.96955 
L 457.087902 64.950985 
L 460.148371 67.070659 
L 463.20884 68.683454 
L 466.269309 70.480569 
L 469.329777 70.664889 
L 472.390246 73.245361 
L 475.450715 77.25431 
L 478.511184 80.019102 
L 481.571653 82.968214 
L 484.632122 85.226128 
L 487.692591 88.405639 
L 490.75306 92.644987 
L 493.813529 96.469616 
L 496.873998 103.243357 
L 499.934467 106.607188 
L 499.934467 106.607188 
" clip-path="url(#pad55a0dc0a)" style="fill: none; stroke: #5b5b5b; stroke-width: 1.2; stroke-linecap: square"/>
   </g>
   <g id="line2d_18">
    <path d="M 62.287408 116.115161 
L 65.347877 118.731414 
L 68.408346 121.092885 
L 71.468815 123.250593 
L 74.529284 125.05351 
L 77.589753 126.604302 
L 80.650222 127.940018 
L 83.710691 128.899346 
L 86.77116 129.671288 
L 89.831629 130.246713 
L 92.892098 130.64784 
L 99.013035 131.019646 
L 105.133973 130.96884 
L 117.375849 130.867194 
L 123.496787 131.077715 
L 126.557256 131.264258 
L 129.617725 131.615338 
L 141.859601 133.527254 
L 144.92007 134.23821 
L 151.041007 135.884188 
L 166.343352 139.352496 
L 169.403821 139.74302 
L 172.46429 139.774169 
L 175.524759 139.58093 
L 178.585228 139.255275 
L 181.645697 138.776414 
L 184.706166 138.001611 
L 187.766635 136.992985 
L 193.887573 134.264254 
L 196.948042 132.788883 
L 200.008511 131.123446 
L 206.129448 127.386698 
L 227.552731 112.625187 
L 236.734138 106.816366 
L 239.794607 105.092255 
L 245.915545 102.029419 
L 248.976014 100.585819 
L 252.036483 99.380489 
L 258.15742 97.391702 
L 264.278358 95.716176 
L 267.338827 95.139736 
L 276.520234 93.798838 
L 279.580703 93.478468 
L 288.76211 93.157126 
L 294.883048 93.251125 
L 301.003986 93.583713 
L 304.064455 93.831445 
L 310.185392 94.656747 
L 319.366799 96.344256 
L 325.487737 97.83171 
L 331.608675 100.22495 
L 334.669144 100.800894 
L 337.729613 101.525366 
L 346.91102 104.121076 
L 349.971489 104.925633 
L 356.092427 106.230111 
L 362.213364 107.046136 
L 368.334302 106.75097 
L 371.394771 106.457912 
L 374.45524 105.856908 
L 377.515709 105.009664 
L 380.576178 103.837943 
L 383.636647 102.452272 
L 386.697116 100.800567 
L 389.757585 98.945248 
L 392.818054 96.856306 
L 395.878523 94.481199 
L 398.938992 91.865946 
L 405.05993 86.184729 
L 408.120399 82.999039 
L 411.180868 79.53614 
L 414.241337 76.360408 
L 417.301805 73.599942 
L 420.362274 71.149411 
L 423.422743 68.964678 
L 426.483212 66.991757 
L 429.543681 65.287186 
L 432.60415 63.97041 
L 435.664619 62.894591 
L 438.725088 62.240249 
L 441.785557 62.026026 
L 444.846026 62.122188 
L 447.906495 62.698413 
L 450.966964 63.752125 
L 454.027433 65.147381 
L 457.087902 66.982248 
L 460.148371 69.140993 
L 463.20884 71.632224 
L 466.269309 74.507053 
L 469.329777 77.58912 
L 472.390246 80.937613 
L 478.511184 88.186234 
L 490.75306 102.983683 
L 493.813529 106.50075 
L 496.873998 109.831249 
L 499.934467 112.966167 
L 499.934467 112.966167 
" clip-path="url(#pad55a0dc0a)" style="fill: none; stroke: #b45f58; stroke-width: 1.2; stroke-linecap: square"/>
   </g>
   <g id="patch_3">
    <path d="M 55.410938 149.759066 
L 55.410938 39.959375 
" style="fill: none; stroke: #cccccc; stroke-width: 0.75; stroke-linejoin: miter; stroke-linecap: square"/>
   </g>
   <g id="patch_4">
    <path d="M 62.287408 155.839375 
L 502.994936 155.839375 
" style="fill: none; stroke: #cccccc; stroke-width: 0.75; stroke-linejoin: miter; stroke-linecap: square"/>
   </g>
  </g>
  <g id="axes_2">
   <g id="matplotlib.axis_3">
    <g id="ytick_8">
     <g id="line2d_19">
      <defs>
       <path id="m0ad1693eec" d="M 0 0 
L 3 0 
" style="stroke: #cccccc; stroke-width: 0.75"/>
      </defs>
      <g>
       <use xlink:href="#m0ad1693eec" x="509.310937" y="149.02167" style="fill: #cccccc; stroke: #cccccc; stroke-width: 0.75"/>
      </g>
     </g>
     <g id="text_18">
      <!-- −15000 -->
      <g style="fill: #808080" transform="translate(520.310938 152.12542) scale(0.08 -0.08)">
       <defs>
        <path id="Ubuntu-2212" d="M 339 2138 
L 3270 2138 
L 3270 1632 
L 339 1632 
L 339 2138 
z
" transform="scale(0.015625)"/>
       </defs>
       <use xlink:href="#Ubuntu-2212"/>
       <use xlink:href="#Ubuntu-31" x="56.399994"/>
       <use xlink:href="#Ubuntu-35" x="112.799988"/>
       <use xlink:href="#Ubuntu-30" x="169.199982"/>
       <use xlink:href="#Ubuntu-30" x="225.599976"/>
       <use xlink:href="#Ubuntu-30" x="281.999969"/>
      </g>
     </g>
    </g>
    <g id="ytick_9">
     <g id="line2d_20">
      <g>
       <use xlink:href="#m0ad1693eec" x="509.310937" y="130.844621" style="fill: #cccccc; stroke: #cccccc; stroke-width: 0.75"/>
      </g>
     </g>
     <g id="text_19">
      <!-- −10000 -->
      <g style="fill: #808080" transform="translate(520.310938 133.948371) scale(0.08 -0.08)">
       <use xlink:href="#Ubuntu-2212"/>
       <use xlink:href="#Ubuntu-31" x="56.399994"/>
       <use xlink:href="#Ubuntu-30" x="112.799988"/>
       <use xlink:href="#Ubuntu-30" x="169.199982"/>
       <use xlink:href="#Ubuntu-30" x="225.599976"/>
       <use xlink:href="#Ubuntu-30" x="281.999969"/>
      </g>
     </g>
    </g>
    <g id="ytick_10">
     <g id="line2d_21">
      <g>
       <use xlink:href="#m0ad1693eec" x="509.310937" y="112.667572" style="fill: #cccccc; stroke: #cccccc; stroke-width: 0.75"/>
      </g>
     </g>
     <g id="text_20">
      <!-- −5000 -->
      <g style="fill: #808080" transform="translate(520.310938 115.771322) scale(0.08 -0.08)">
       <use xlink:href="#Ubuntu-2212"/>
       <use xlink:href="#Ubuntu-35" x="56.399994"/>
       <use xlink:href="#Ubuntu-30" x="112.799988"/>
       <use xlink:href="#Ubuntu-30" x="169.199982"/>
       <use xlink:href="#Ubuntu-30" x="225.599976"/>
      </g>
     </g>
    </g>
    <g id="ytick_11">
     <g id="line2d_22">
      <g>
       <use xlink:href="#m0ad1693eec" x="509.310937" y="94.490523" style="fill: #cccccc; stroke: #cccccc; stroke-width: 0.75"/>
      </g>
     </g>
     <g id="text_21">
      <!-- 0 -->
      <g style="fill: #808080" transform="translate(520.310938 97.594273) scale(0.08 -0.08)">
       <use xlink:href="#Ubuntu-30"/>
      </g>
     </g>
    </g>
    <g id="ytick_12">
     <g id="line2d_23">
      <g>
       <use xlink:href="#m0ad1693eec" x="509.310937" y="76.313473" style="fill: #cccccc; stroke: #cccccc; stroke-width: 0.75"/>
      </g>
     </g>
     <g id="text_22">
      <!-- 5000 -->
      <g style="fill: #808080" transform="translate(520.310938 79.417223) scale(0.08 -0.08)">
       <use xlink:href="#Ubuntu-35"/>
       <use xlink:href="#Ubuntu-30" x="56.399994"/>
       <use xlink:href="#Ubuntu-30" x="112.799988"/>
       <use xlink:href="#Ubuntu-30" x="169.199982"/>
      </g>
     </g>
    </g>
    <g id="ytick_13">
     <g id="line2d_24">
      <g>
       <use xlink:href="#m0ad1693eec" x="509.310937" y="58.136424" style="fill: #cccccc; stroke: #cccccc; stroke-width: 0.75"/>
      </g>
     </g>
     <g id="text_23">
      <!-- 10000 -->
      <g style="fill: #808080" transform="translate(520.310938 61.240174) scale(0.08 -0.08)">
       <use xlink:href="#Ubuntu-31"/>
       <use xlink:href="#Ubuntu-30" x="56.399994"/>
       <use xlink:href="#Ubuntu-30" x="112.799988"/>
       <use xlink:href="#Ubuntu-30" x="169.199982"/>
       <use xlink:href="#Ubuntu-30" x="225.599976"/>
      </g>
     </g>
    </g>
    <g id="ytick_14">
     <g id="line2d_25">
      <g>
       <use xlink:href="#m0ad1693eec" x="509.310937" y="39.959375" style="fill: #cccccc; stroke: #cccccc; stroke-width: 0.75"/>
      </g>
     </g>
     <g id="text_24">
      <!-- 15000 -->
      <g style="fill: #808080" transform="translate(520.310938 43.063125) scale(0.08 -0.08)">
       <use xlink:href="#Ubuntu-31"/>
       <use xlink:href="#Ubuntu-35" x="56.399994"/>
       <use xlink:href="#Ubuntu-30" x="112.799988"/>
       <use xlink:href="#Ubuntu-30" x="169.199982"/>
       <use xlink:href="#Ubuntu-30" x="225.599976"/>
      </g>
     </g>
    </g>
    <g id="text_25">
     <!-- RMSE -->
     <g style="fill: #505050" transform="translate(562.369375 64.727656) rotate(-90) scale(0.09 -0.09)">
      <defs>
       <path id="Ubuntu-Bold-52" d="M 1811 4486 
Q 2810 4486 3341 4131 
Q 3872 3776 3872 3027 
Q 3872 2560 3657 2269 
Q 3443 1978 3040 1811 
Q 3174 1645 3321 1430 
Q 3469 1216 3613 982 
Q 3757 749 3891 496 
Q 4026 243 4141 0 
L 3021 0 
Q 2899 218 2774 442 
Q 2650 666 2518 877 
Q 2387 1088 2259 1277 
Q 2131 1466 2003 1619 
L 1510 1619 
L 1510 0 
L 512 0 
L 512 4371 
Q 838 4435 1187 4460 
Q 1536 4486 1811 4486 
z
M 1869 3635 
Q 1760 3635 1673 3628 
Q 1587 3622 1510 3616 
L 1510 2413 
L 1792 2413 
Q 2355 2413 2598 2553 
Q 2842 2694 2842 3034 
Q 2842 3360 2595 3497 
Q 2349 3635 1869 3635 
z
" transform="scale(0.015625)"/>
       <path id="Ubuntu-Bold-4d" d="M 1690 4435 
Q 1805 4224 1955 3913 
Q 2106 3603 2269 3241 
Q 2432 2880 2592 2502 
Q 2752 2125 2893 1792 
Q 3034 2125 3194 2502 
Q 3354 2880 3517 3241 
Q 3680 3603 3830 3913 
Q 3981 4224 4096 4435 
L 5005 4435 
Q 5069 3994 5123 3446 
Q 5178 2899 5219 2307 
Q 5261 1715 5296 1120 
Q 5331 525 5357 0 
L 4384 0 
Q 4365 646 4333 1408 
Q 4301 2170 4237 2944 
Q 4122 2675 3981 2348 
Q 3840 2022 3702 1696 
Q 3565 1370 3437 1072 
Q 3309 774 3219 563 
L 2522 563 
Q 2432 774 2304 1072 
Q 2176 1370 2038 1696 
Q 1901 2022 1760 2348 
Q 1619 2675 1504 2944 
Q 1440 2170 1408 1408 
Q 1376 646 1357 0 
L 384 0 
Q 410 525 445 1120 
Q 480 1715 521 2307 
Q 563 2899 617 3446 
Q 672 3994 736 4435 
L 1690 4435 
z
" transform="scale(0.015625)"/>
       <path id="Ubuntu-Bold-53" d="M 1722 762 
Q 1933 762 2070 797 
Q 2208 832 2291 893 
Q 2374 954 2406 1037 
Q 2438 1120 2438 1222 
Q 2438 1440 2233 1584 
Q 2029 1728 1530 1894 
Q 1312 1971 1094 2070 
Q 877 2170 704 2320 
Q 531 2470 422 2684 
Q 314 2899 314 3206 
Q 314 3514 429 3760 
Q 544 4006 755 4179 
Q 966 4352 1267 4445 
Q 1568 4538 1946 4538 
Q 2394 4538 2720 4442 
Q 3046 4346 3258 4230 
L 2970 3443 
Q 2784 3539 2557 3612 
Q 2330 3686 2010 3686 
Q 1651 3686 1494 3587 
Q 1338 3488 1338 3283 
Q 1338 3162 1395 3078 
Q 1453 2995 1558 2928 
Q 1664 2861 1801 2806 
Q 1939 2752 2106 2694 
Q 2451 2566 2707 2441 
Q 2963 2317 3132 2150 
Q 3302 1984 3385 1760 
Q 3469 1536 3469 1216 
Q 3469 595 3033 252 
Q 2598 -90 1722 -90 
Q 1427 -90 1190 -54 
Q 954 -19 771 32 
Q 589 83 457 140 
Q 326 198 237 250 
L 518 1043 
Q 717 934 1008 848 
Q 1299 762 1722 762 
z
" transform="scale(0.015625)"/>
       <path id="Ubuntu-Bold-45" d="M 512 0 
L 512 4435 
L 3507 4435 
L 3507 3597 
L 1510 3597 
L 1510 2726 
L 3283 2726 
L 3283 1907 
L 1510 1907 
L 1510 838 
L 3654 838 
L 3654 0 
L 512 0 
z
" transform="scale(0.015625)"/>
      </defs>
      <use xlink:href="#Ubuntu-Bold-52"/>
      <use xlink:href="#Ubuntu-Bold-4d" x="66.699997"/>
      <use xlink:href="#Ubuntu-Bold-53" x="156.399979"/>
      <use xlink:href="#Ubuntu-Bold-45" x="214.599976"/>
     </g>
    </g>
   </g>
   <g id="line2d_26">
    <path d="M 62.287408 100.089928 
L 68.408346 101.37259 
L 74.529284 101.004198 
L 77.589753 100.072974 
L 80.650222 100.209688 
L 83.710691 99.60638 
L 86.77116 99.137336 
L 89.831629 98.976571 
L 92.892098 98.963069 
L 99.013035 96.952318 
L 102.073504 95.421195 
L 105.133973 94.887955 
L 108.194442 93.986225 
L 111.254911 94.065127 
L 114.31538 94.351257 
L 117.375849 95.153155 
L 120.436318 95.050435 
L 123.496787 95.591114 
L 126.557256 97.881843 
L 129.617725 97.68132 
L 132.678194 96.912917 
L 135.738663 95.606741 
L 138.799132 95.008417 
L 141.859601 95.781453 
L 144.92007 95.892619 
L 147.980538 95.591493 
L 151.041007 92.584339 
L 154.101476 89.164099 
L 157.161945 87.295172 
L 160.222414 85.805529 
L 163.282883 86.287666 
L 166.343352 86.646421 
L 169.403821 89.139761 
L 172.46429 91.093058 
L 175.524759 93.326948 
L 178.585228 94.788526 
L 181.645697 94.679045 
L 184.706166 92.810955 
L 187.766635 92.037955 
L 190.827104 93.984209 
L 193.887573 94.041902 
L 196.948042 95.826137 
L 200.008511 95.041522 
L 203.068979 94.694126 
L 206.129448 95.311896 
L 209.189917 95.550033 
L 212.250386 94.231309 
L 215.310855 95.592518 
L 218.371324 95.582492 
L 221.431793 95.375717 
L 224.492262 94.317458 
L 227.552731 95.891066 
L 230.6132 96.993898 
L 236.734138 97.215669 
L 239.794607 97.608575 
L 242.855076 97.139075 
L 245.915545 96.214043 
L 248.976014 95.787087 
L 252.036483 97.152994 
L 255.096951 98.67689 
L 258.15742 98.564574 
L 261.217889 97.968878 
L 267.338827 95.961568 
L 270.399296 97.019937 
L 276.520234 97.833604 
L 282.641172 97.657333 
L 285.701641 98.363506 
L 288.76211 97.882757 
L 294.883048 94.772197 
L 297.943517 95.93805 
L 301.003986 96.841827 
L 304.064455 96.49288 
L 307.124924 96.389988 
L 310.185392 96.763395 
L 313.245861 95.438278 
L 316.30633 94.976659 
L 319.366799 95.189872 
L 322.427268 94.607485 
L 325.487737 95.568846 
L 328.548206 94.956096 
L 331.608675 96.801754 
L 334.669144 95.543013 
L 337.729613 87.428931 
L 340.790082 82.458073 
L 343.850551 83.924992 
L 349.971489 92.408327 
L 353.031958 91.145569 
L 356.092427 94.710994 
L 359.152896 94.711841 
L 362.213364 96.482717 
L 365.273833 95.430084 
L 368.334302 93.992553 
L 371.394771 96.218836 
L 374.45524 95.530327 
L 377.515709 94.139529 
L 380.576178 92.334891 
L 383.636647 90.2262 
L 386.697116 87.532868 
L 389.757585 86.605416 
L 392.818054 84.850897 
L 395.878523 82.079807 
L 398.938992 80.626378 
L 401.999461 79.912657 
L 405.05993 80.658844 
L 408.120399 80.286544 
L 411.180868 79.135422 
L 414.241337 82.892349 
L 417.301805 92.599972 
L 420.362274 98.999587 
L 423.422743 100.262307 
L 426.483212 101.918497 
L 429.543681 100.362685 
L 432.60415 100.336323 
L 435.664619 98.855796 
L 438.725088 97.793914 
L 441.785557 95.887625 
L 444.846026 96.074683 
L 447.906495 94.221206 
L 450.966964 95.176301 
L 454.027433 96.653727 
L 457.087902 96.508144 
L 460.148371 96.546953 
L 463.20884 97.419489 
L 466.269309 98.489965 
L 469.329777 101.368251 
L 472.390246 102.131114 
L 475.450715 101.696522 
L 478.511184 102.602805 
L 481.571653 103.384855 
L 484.632122 104.812105 
L 487.692591 105.319595 
L 490.75306 104.759786 
L 493.813529 104.454289 
L 496.873998 101.034171 
L 499.934467 100.806796 
L 499.934467 100.806796 
" clip-path="url(#pad55a0dc0a)" style="fill: none; stroke: #4e9a73; stroke-opacity: 0.5; stroke-width: 1.2; stroke-linecap: square"/>
   </g>
   <g id="patch_5">
    <path d="M 509.310937 149.02167 
L 509.310937 39.959375 
" style="fill: none; stroke: #cccccc; stroke-width: 0.5; stroke-linejoin: miter; stroke-linecap: square"/>
   </g>
   <g id="text_26">
    <!-- May, 13 -->
    <g style="fill: #505050" transform="translate(57.910938 14.959375) scale(0.1 -0.1)">
     <defs>
      <path id="Ubuntu-Bold-79" d="M 3437 3366 
Q 3149 2394 2835 1542 
Q 2522 691 2150 -109 
Q 2016 -397 1881 -598 
Q 1747 -800 1587 -931 
Q 1427 -1062 1225 -1123 
Q 1024 -1184 755 -1184 
Q 531 -1184 342 -1142 
Q 154 -1101 32 -1050 
L 198 -288 
Q 346 -339 461 -358 
Q 576 -378 704 -378 
Q 960 -378 1097 -240 
Q 1235 -102 1331 141 
Q 1005 781 678 1577 
Q 352 2374 64 3366 
L 1075 3366 
Q 1139 3117 1225 2825 
Q 1312 2534 1408 2236 
Q 1504 1939 1603 1657 
Q 1702 1376 1792 1146 
Q 1875 1376 1964 1657 
Q 2054 1939 2140 2236 
Q 2227 2534 2307 2825 
Q 2387 3117 2451 3366 
L 3437 3366 
z
" transform="scale(0.015625)"/>
      <path id="Ubuntu-Bold-2c" d="M 1350 973 
Q 1363 819 1366 755 
Q 1370 691 1370 646 
Q 1370 454 1334 240 
Q 1299 26 1235 -192 
Q 1171 -410 1075 -627 
Q 979 -845 858 -1043 
L 109 -858 
Q 256 -435 313 -64 
Q 371 307 371 550 
Q 371 589 368 649 
Q 365 710 361 774 
Q 358 838 355 896 
Q 352 954 352 973 
L 1350 973 
z
" transform="scale(0.015625)"/>
      <path id="Ubuntu-Bold-20" transform="scale(0.015625)"/>
      <path id="Ubuntu-Bold-31" d="M 448 3514 
Q 634 3590 835 3689 
Q 1037 3789 1229 3907 
Q 1421 4026 1597 4157 
Q 1773 4288 1914 4435 
L 2579 4435 
L 2579 0 
L 1626 0 
L 1626 3194 
Q 1434 3066 1197 2960 
Q 960 2854 736 2778 
L 448 3514 
z
" transform="scale(0.015625)"/>
      <path id="Ubuntu-Bold-33" d="M 1459 -96 
Q 1286 -96 1094 -73 
Q 902 -51 723 -12 
Q 544 26 397 70 
Q 250 115 166 154 
L 352 947 
Q 518 877 777 797 
Q 1037 717 1421 717 
Q 1862 717 2067 883 
Q 2272 1050 2272 1331 
Q 2272 1504 2198 1622 
Q 2125 1741 1997 1814 
Q 1869 1888 1693 1917 
Q 1517 1946 1318 1946 
L 947 1946 
L 947 2714 
L 1370 2714 
Q 1510 2714 1641 2739 
Q 1773 2765 1875 2825 
Q 1978 2886 2038 2992 
Q 2099 3098 2099 3258 
Q 2099 3379 2048 3468 
Q 1997 3558 1917 3616 
Q 1837 3674 1731 3702 
Q 1626 3731 1517 3731 
Q 1242 3731 1008 3648 
Q 774 3565 582 3443 
L 243 4141 
Q 346 4205 483 4275 
Q 621 4346 787 4403 
Q 954 4461 1142 4499 
Q 1331 4538 1542 4538 
Q 1933 4538 2217 4445 
Q 2502 4352 2688 4182 
Q 2874 4013 2963 3785 
Q 3053 3558 3053 3290 
Q 3053 3027 2905 2780 
Q 2758 2534 2509 2406 
Q 2854 2266 3043 1987 
Q 3232 1709 3232 1318 
Q 3232 1011 3129 752 
Q 3027 493 2809 304 
Q 2592 115 2256 9 
Q 1920 -96 1459 -96 
z
" transform="scale(0.015625)"/>
     </defs>
     <use xlink:href="#Ubuntu-Bold-4d"/>
     <use xlink:href="#Ubuntu-Bold-61" x="89.699982"/>
     <use xlink:href="#Ubuntu-Bold-79" x="143.749969"/>
     <use xlink:href="#Ubuntu-Bold-2c" x="198.449966"/>
     <use xlink:href="#Ubuntu-Bold-20" x="223.049957"/>
     <use xlink:href="#Ubuntu-Bold-31" x="247.049942"/>
     <use xlink:href="#Ubuntu-Bold-33" x="303.84993"/>
    </g>
   </g>
   <g id="legend_1">
    <g id="line2d_27">
     <path d="M 65.110938 28.479375 
L 70.510938 28.479375 
L 75.910938 28.479375 
" style="fill: none; stroke: #5b5b5b; stroke-width: 1.5; stroke-linecap: square"/>
    </g>
    <g id="text_27">
     <!-- Actual -->
     <g style="fill: #4b4b4b" transform="translate(81.910938 31.279375) scale(0.08 -0.08)">
      <defs>
       <path id="Ubuntu-41" d="M 3514 0 
Q 3405 288 3309 566 
Q 3213 845 3110 1133 
L 1101 1133 
L 698 0 
L 51 0 
Q 307 704 531 1302 
Q 755 1901 969 2438 
Q 1184 2976 1395 3465 
Q 1606 3955 1837 4435 
L 2406 4435 
Q 2637 3955 2848 3465 
Q 3059 2976 3273 2438 
Q 3488 1901 3712 1302 
Q 3936 704 4192 0 
L 3514 0 
z
M 2931 1645 
Q 2726 2202 2524 2723 
Q 2323 3245 2106 3725 
Q 1882 3245 1680 2723 
Q 1478 2202 1280 1645 
L 2931 1645 
z
" transform="scale(0.015625)"/>
       <path id="Ubuntu-63" d="M 1958 -77 
Q 1555 -77 1251 51 
Q 947 179 739 409 
Q 531 640 428 957 
Q 326 1274 326 1658 
Q 326 2042 438 2362 
Q 550 2682 755 2915 
Q 960 3149 1257 3280 
Q 1555 3411 1920 3411 
Q 2144 3411 2368 3372 
Q 2592 3334 2797 3251 
L 2662 2746 
Q 2528 2810 2352 2848 
Q 2176 2886 1978 2886 
Q 1478 2886 1212 2572 
Q 947 2259 947 1658 
Q 947 1389 1008 1165 
Q 1069 941 1200 781 
Q 1331 621 1536 534 
Q 1741 448 2035 448 
Q 2272 448 2464 493 
Q 2656 538 2765 589 
L 2848 90 
Q 2797 58 2701 29 
Q 2605 0 2483 -22 
Q 2362 -45 2224 -61 
Q 2086 -77 1958 -77 
z
" transform="scale(0.015625)"/>
       <path id="Ubuntu-74" d="M 1069 3328 
L 2330 3328 
L 2330 2829 
L 1069 2829 
L 1069 1293 
Q 1069 1043 1107 880 
Q 1146 717 1222 624 
Q 1299 531 1414 492 
Q 1530 454 1683 454 
Q 1952 454 2115 515 
Q 2278 576 2342 602 
L 2458 109 
Q 2368 64 2144 -3 
Q 1920 -70 1632 -70 
Q 1293 -70 1072 16 
Q 851 102 716 275 
Q 582 448 528 701 
Q 474 954 474 1286 
L 474 4256 
L 1069 4358 
L 1069 3328 
z
" transform="scale(0.015625)"/>
       <path id="Ubuntu-75" d="M 3162 96 
Q 2957 45 2621 -12 
Q 2285 -70 1843 -70 
Q 1459 -70 1196 42 
Q 934 154 774 358 
Q 614 563 544 841 
Q 474 1120 474 1459 
L 474 3328 
L 1069 3328 
L 1069 1587 
Q 1069 979 1261 716 
Q 1453 454 1907 454 
Q 2003 454 2105 460 
Q 2208 467 2297 476 
Q 2387 486 2460 496 
Q 2534 506 2566 518 
L 2566 3328 
L 3162 3328 
L 3162 96 
z
" transform="scale(0.015625)"/>
       <path id="Ubuntu-61" d="M 1638 429 
Q 1850 429 2013 438 
Q 2176 448 2285 474 
L 2285 1466 
Q 2221 1498 2077 1520 
Q 1933 1542 1728 1542 
Q 1594 1542 1443 1523 
Q 1293 1504 1168 1443 
Q 1043 1382 960 1276 
Q 877 1171 877 998 
Q 877 678 1081 553 
Q 1286 429 1638 429 
z
M 1587 3411 
Q 1946 3411 2192 3318 
Q 2438 3226 2588 3056 
Q 2739 2886 2803 2652 
Q 2867 2419 2867 2138 
L 2867 58 
Q 2790 45 2652 22 
Q 2515 0 2342 -19 
Q 2170 -38 1968 -54 
Q 1766 -70 1568 -70 
Q 1286 -70 1049 -12 
Q 813 45 640 169 
Q 467 294 371 499 
Q 275 704 275 992 
Q 275 1267 387 1465 
Q 499 1664 691 1785 
Q 883 1907 1139 1964 
Q 1395 2022 1677 2022 
Q 1766 2022 1862 2012 
Q 1958 2003 2044 1987 
Q 2131 1971 2195 1958 
Q 2259 1946 2285 1939 
L 2285 2106 
Q 2285 2253 2253 2397 
Q 2221 2541 2137 2653 
Q 2054 2765 1910 2832 
Q 1766 2899 1536 2899 
Q 1242 2899 1021 2857 
Q 800 2816 691 2771 
L 621 3264 
Q 736 3315 1005 3363 
Q 1274 3411 1587 3411 
z
" transform="scale(0.015625)"/>
       <path id="Ubuntu-6c" d="M 1510 -64 
Q 960 -51 729 173 
Q 499 397 499 870 
L 499 4864 
L 1094 4966 
L 1094 966 
Q 1094 819 1120 723 
Q 1146 627 1203 569 
Q 1261 512 1357 483 
Q 1453 454 1594 435 
L 1510 -64 
z
" transform="scale(0.015625)"/>
      </defs>
      <use xlink:href="#Ubuntu-41"/>
      <use xlink:href="#Ubuntu-63" x="65.049988"/>
      <use xlink:href="#Ubuntu-74" x="111.549973"/>
      <use xlink:href="#Ubuntu-75" x="151.749969"/>
      <use xlink:href="#Ubuntu-61" x="209.149963"/>
      <use xlink:href="#Ubuntu-6c" x="261.34996"/>
     </g>
    </g>
    <g id="line2d_28">
     <path d="M 121.003438 28.479375 
L 126.403438 28.479375 
L 131.803438 28.479375 
" style="fill: none; stroke: #b45f58; stroke-width: 1.5; stroke-linecap: square"/>
    </g>
    <g id="text_28">
     <!-- Forecast -->
     <g style="fill: #4b4b4b" transform="translate(137.803438 31.279375) scale(0.08 -0.08)">
      <defs>
       <path id="Ubuntu-46" d="M 550 0 
L 550 4435 
L 3226 4435 
L 3226 3904 
L 1171 3904 
L 1171 2566 
L 2995 2566 
L 2995 2042 
L 1171 2042 
L 1171 0 
L 550 0 
z
" transform="scale(0.015625)"/>
       <path id="Ubuntu-6f" d="M 3450 1664 
Q 3450 1267 3334 947 
Q 3219 627 3011 396 
Q 2803 166 2515 41 
Q 2227 -83 1888 -83 
Q 1549 -83 1261 41 
Q 973 166 765 396 
Q 557 627 441 947 
Q 326 1267 326 1664 
Q 326 2054 441 2377 
Q 557 2701 765 2931 
Q 973 3162 1261 3286 
Q 1549 3411 1888 3411 
Q 2227 3411 2515 3286 
Q 2803 3162 3011 2931 
Q 3219 2701 3334 2377 
Q 3450 2054 3450 1664 
z
M 2829 1664 
Q 2829 2227 2576 2556 
Q 2323 2886 1888 2886 
Q 1453 2886 1200 2556 
Q 947 2227 947 1664 
Q 947 1101 1200 771 
Q 1453 442 1888 442 
Q 2323 442 2576 771 
Q 2829 1101 2829 1664 
z
" transform="scale(0.015625)"/>
       <path id="Ubuntu-72" d="M 1741 3398 
Q 1818 3398 1917 3388 
Q 2016 3379 2112 3363 
Q 2208 3347 2288 3331 
Q 2368 3315 2406 3302 
L 2304 2784 
Q 2234 2810 2070 2845 
Q 1907 2880 1651 2880 
Q 1485 2880 1321 2845 
Q 1158 2810 1107 2797 
L 1107 0 
L 512 0 
L 512 3187 
Q 723 3264 1036 3331 
Q 1350 3398 1741 3398 
z
" transform="scale(0.015625)"/>
       <path id="Ubuntu-65" d="M 326 1658 
Q 326 2099 454 2428 
Q 582 2758 793 2976 
Q 1005 3194 1280 3302 
Q 1555 3411 1843 3411 
Q 2515 3411 2873 2992 
Q 3232 2573 3232 1715 
Q 3232 1677 3232 1616 
Q 3232 1555 3226 1504 
L 947 1504 
Q 986 986 1248 717 
Q 1510 448 2067 448 
Q 2381 448 2595 502 
Q 2810 557 2918 608 
L 3002 109 
Q 2893 51 2621 -13 
Q 2349 -77 2003 -77 
Q 1568 -77 1251 54 
Q 934 186 729 416 
Q 525 646 425 963 
Q 326 1280 326 1658 
z
M 2611 1984 
Q 2618 2387 2410 2646 
Q 2202 2906 1837 2906 
Q 1632 2906 1475 2826 
Q 1318 2746 1209 2618 
Q 1101 2490 1040 2323 
Q 979 2157 960 1984 
L 2611 1984 
z
" transform="scale(0.015625)"/>
       <path id="Ubuntu-73" d="M 1286 429 
Q 1651 429 1827 525 
Q 2003 621 2003 832 
Q 2003 1050 1830 1178 
Q 1658 1306 1261 1466 
Q 1069 1542 893 1622 
Q 717 1702 589 1811 
Q 461 1920 384 2073 
Q 307 2227 307 2451 
Q 307 2893 633 3152 
Q 960 3411 1523 3411 
Q 1664 3411 1805 3395 
Q 1946 3379 2067 3356 
Q 2189 3334 2281 3308 
Q 2374 3283 2426 3264 
L 2317 2752 
Q 2221 2803 2016 2857 
Q 1811 2912 1523 2912 
Q 1274 2912 1088 2813 
Q 902 2714 902 2502 
Q 902 2394 944 2310 
Q 986 2227 1072 2160 
Q 1158 2093 1286 2035 
Q 1414 1978 1594 1914 
Q 1830 1824 2016 1737 
Q 2202 1651 2333 1536 
Q 2464 1421 2534 1257 
Q 2605 1094 2605 858 
Q 2605 397 2262 160 
Q 1920 -77 1286 -77 
Q 845 -77 595 -3 
Q 346 70 256 109 
L 365 621 
Q 467 582 691 505 
Q 915 429 1286 429 
z
" transform="scale(0.015625)"/>
      </defs>
      <use xlink:href="#Ubuntu-46"/>
      <use xlink:href="#Ubuntu-6f" x="52.324997"/>
      <use xlink:href="#Ubuntu-72" x="111.324982"/>
      <use xlink:href="#Ubuntu-65" x="149.924973"/>
      <use xlink:href="#Ubuntu-63" x="205.824966"/>
      <use xlink:href="#Ubuntu-61" x="252.324951"/>
      <use xlink:href="#Ubuntu-73" x="304.524948"/>
      <use xlink:href="#Ubuntu-74" x="349.124939"/>
     </g>
    </g>
    <g id="line2d_29">
     <path d="M 184.949688 28.479375 
L 190.349688 28.479375 
L 195.749688 28.479375 
" style="fill: none; stroke: #4e9a73; stroke-opacity: 0.5; stroke-width: 1.5; stroke-linecap: square"/>
    </g>
    <g id="text_29">
     <!-- Residuals -->
     <g style="fill: #4b4b4b" transform="translate(201.749688 31.279375) scale(0.08 -0.08)">
      <defs>
       <path id="Ubuntu-52" d="M 2720 1856 
Q 2822 1728 2979 1520 
Q 3136 1312 3302 1059 
Q 3469 806 3632 531 
Q 3795 256 3910 0 
L 3232 0 
Q 3104 243 2953 492 
Q 2803 742 2649 969 
Q 2496 1197 2345 1395 
Q 2195 1594 2074 1741 
Q 1990 1734 1904 1734 
Q 1818 1734 1728 1734 
L 1171 1734 
L 1171 0 
L 550 0 
L 550 4371 
Q 813 4435 1136 4457 
Q 1459 4480 1728 4480 
Q 2662 4480 3152 4128 
Q 3642 3776 3642 3078 
Q 3642 2637 3408 2323 
Q 3174 2010 2720 1856 
z
M 1779 3936 
Q 1382 3936 1171 3917 
L 1171 2246 
L 1613 2246 
Q 1933 2246 2189 2278 
Q 2445 2310 2621 2400 
Q 2797 2490 2893 2653 
Q 2989 2816 2989 3085 
Q 2989 3334 2893 3500 
Q 2797 3667 2633 3763 
Q 2470 3859 2249 3897 
Q 2029 3936 1779 3936 
z
" transform="scale(0.015625)"/>
       <path id="Ubuntu-69" d="M 1107 0 
L 512 0 
L 512 3328 
L 1107 3328 
L 1107 0 
z
M 806 3930 
Q 646 3930 534 4035 
Q 422 4141 422 4320 
Q 422 4499 534 4604 
Q 646 4710 806 4710 
Q 966 4710 1078 4604 
Q 1190 4499 1190 4320 
Q 1190 4141 1078 4035 
Q 966 3930 806 3930 
z
" transform="scale(0.015625)"/>
       <path id="Ubuntu-64" d="M 2662 2624 
Q 2554 2714 2349 2797 
Q 2144 2880 1901 2880 
Q 1645 2880 1462 2787 
Q 1280 2694 1165 2531 
Q 1050 2368 998 2144 
Q 947 1920 947 1664 
Q 947 1082 1235 765 
Q 1523 448 2003 448 
Q 2246 448 2409 470 
Q 2573 493 2662 518 
L 2662 2624 
z
M 2662 4864 
L 3258 4966 
L 3258 96 
Q 3053 38 2733 -19 
Q 2413 -77 1997 -77 
Q 1613 -77 1305 44 
Q 998 166 780 390 
Q 563 614 444 937 
Q 326 1261 326 1664 
Q 326 2048 425 2368 
Q 525 2688 717 2918 
Q 909 3149 1187 3277 
Q 1466 3405 1824 3405 
Q 2112 3405 2333 3328 
Q 2554 3251 2662 3181 
L 2662 4864 
z
" transform="scale(0.015625)"/>
      </defs>
      <use xlink:href="#Ubuntu-52"/>
      <use xlink:href="#Ubuntu-65" x="62.899994"/>
      <use xlink:href="#Ubuntu-73" x="118.799988"/>
      <use xlink:href="#Ubuntu-69" x="163.399979"/>
      <use xlink:href="#Ubuntu-64" x="188.699966"/>
      <use xlink:href="#Ubuntu-75" x="247.59996"/>
      <use xlink:href="#Ubuntu-61" x="304.999954"/>
      <use xlink:href="#Ubuntu-6c" x="357.199951"/>
      <use xlink:href="#Ubuntu-73" x="384.499939"/>
     </g>
    </g>
   </g>
   <g id="line2d_30">
    <path d="M 62.374938 94.490523 
L 499.846937 94.490523 
" clip-path="url(#pad55a0dc0a)" style="fill: none; stroke-dasharray: 0.5,0.825; stroke-dashoffset: 0; stroke: #5b5b5b; stroke-width: 0.5"/>
   </g>
  </g>
 </g>
 <defs>
  <clipPath id="pad55a0dc0a">
   <rect x="57.910938" y="39.959375" width="446.4" height="110.88"/>
  </clipPath>
 </defs>
</svg>
