<?xml version="1.0" encoding="utf-8" standalone="no"?>
<!DOCTYPE svg PUBLIC "-//W3C//DTD SVG 1.1//EN"
  "http://www.w3.org/Graphics/SVG/1.1/DTD/svg11.dtd">
<svg xmlns:xlink="http://www.w3.org/1999/xlink" width="497.85pt" height="209.4625pt" viewBox="0 0 497.85 209.4625" xmlns="http://www.w3.org/2000/svg" version="1.1">
 <metadata>
  <rdf:RDF xmlns:dc="http://purl.org/dc/elements/1.1/" xmlns:cc="http://creativecommons.org/ns#" xmlns:rdf="http://www.w3.org/1999/02/22-rdf-syntax-ns#">
   <cc:Work>
    <dc:type rdf:resource="http://purl.org/dc/dcmitype/StillImage"/>
    <dc:date>2024-04-14T10:29:10.336229</dc:date>
    <dc:format>image/svg+xml</dc:format>
    <dc:creator>
     <cc:Agent>
      <dc:title>Matplotlib v3.8.3, https://matplotlib.org/</dc:title>
     </cc:Agent>
    </dc:creator>
   </cc:Work>
  </rdf:RDF>
 </metadata>
 <defs>
  <style type="text/css">*{stroke-linejoin: round; stroke-linecap: butt}</style>
 </defs>
 <g id="figure_1">
  <g id="patch_1">
   <path d="M 0 209.4625 
L 497.85 209.4625 
L 497.85 -0 
L 0 -0 
L 0 209.4625 
z
" style="fill: none"/>
  </g>
  <g id="axes_1">
   <g id="patch_2">
    <path d="M 44.25 175.575 
L 490.65 175.575 
L 490.65 36.975 
L 44.25 36.975 
L 44.25 175.575 
z
" style="fill: none"/>
   </g>
   <g id="matplotlib.axis_1">
    <g id="xtick_1">
     <g id="line2d_1">
      <defs>
       <path id="m0e3660e4d1" d="M 0 0 
L 0 3 
" style="stroke: #aaaaaa; stroke-width: 0.75"/>
      </defs>
      <g>
       <use xlink:href="#m0e3660e4d1" x="48.626471" y="185.575" style="fill: #aaaaaa; stroke: #aaaaaa; stroke-width: 0.75"/>
      </g>
     </g>
     <g id="text_1">
      <!-- 0 -->
      <g style="fill: #808080" transform="translate(46.370221 200.7825) scale(0.08 -0.08)">
       <defs>
        <path id="Ubuntu-30" d="M 320 2221 
Q 320 3334 713 3936 
Q 1107 4538 1805 4538 
Q 2502 4538 2896 3936 
Q 3290 3334 3290 2221 
Q 3290 1107 2896 505 
Q 2502 -96 1805 -96 
Q 1107 -96 713 505 
Q 320 1107 320 2221 
z
M 2662 2221 
Q 2662 2586 2620 2912 
Q 2579 3238 2480 3481 
Q 2381 3725 2214 3869 
Q 2048 4013 1805 4013 
Q 1562 4013 1395 3869 
Q 1229 3725 1129 3481 
Q 1030 3238 988 2912 
Q 947 2586 947 2221 
Q 947 1856 988 1529 
Q 1030 1203 1129 960 
Q 1229 717 1395 573 
Q 1562 429 1805 429 
Q 2048 429 2214 573 
Q 2381 717 2480 960 
Q 2579 1203 2620 1529 
Q 2662 1856 2662 2221 
z
" transform="scale(0.015625)"/>
       </defs>
       <use xlink:href="#Ubuntu-30"/>
      </g>
     </g>
    </g>
    <g id="xtick_2">
     <g id="line2d_2">
      <g>
       <use xlink:href="#m0e3660e4d1" x="158.038235" y="185.575" style="fill: #aaaaaa; stroke: #aaaaaa; stroke-width: 0.75"/>
      </g>
     </g>
     <g id="text_2">
      <!-- 1 -->
      <g style="fill: #808080" transform="translate(155.781985 200.7825) scale(0.08 -0.08)">
       <defs>
        <path id="Ubuntu-31" d="M 595 3520 
Q 960 3661 1305 3881 
Q 1651 4102 1939 4435 
L 2362 4435 
L 2362 0 
L 1766 0 
L 1766 3610 
Q 1690 3539 1578 3462 
Q 1466 3386 1334 3315 
Q 1203 3245 1059 3181 
Q 915 3117 781 3072 
L 595 3520 
z
" transform="scale(0.015625)"/>
       </defs>
       <use xlink:href="#Ubuntu-31"/>
      </g>
     </g>
    </g>
    <g id="xtick_3">
     <g id="line2d_3">
      <g>
       <use xlink:href="#m0e3660e4d1" x="267.45" y="185.575" style="fill: #aaaaaa; stroke: #aaaaaa; stroke-width: 0.75"/>
      </g>
     </g>
     <g id="text_3">
      <!-- 2 -->
      <g style="fill: #808080" transform="translate(265.19375 200.7825) scale(0.08 -0.08)">
       <defs>
        <path id="Ubuntu-32" d="M 2989 3302 
Q 2989 3072 2896 2857 
Q 2803 2643 2649 2435 
Q 2496 2227 2304 2025 
Q 2112 1824 1920 1632 
Q 1811 1523 1667 1376 
Q 1523 1229 1395 1069 
Q 1267 909 1180 761 
Q 1094 614 1094 506 
L 3136 506 
L 3136 0 
L 448 0 
Q 442 38 442 76 
Q 442 115 442 147 
Q 442 448 541 707 
Q 640 966 800 1196 
Q 960 1427 1158 1632 
Q 1357 1837 1549 2029 
Q 1709 2182 1853 2332 
Q 1997 2483 2109 2633 
Q 2221 2784 2288 2944 
Q 2355 3104 2355 3283 
Q 2355 3475 2294 3609 
Q 2234 3744 2131 3833 
Q 2029 3923 1891 3964 
Q 1754 4006 1600 4006 
Q 1414 4006 1260 3955 
Q 1107 3904 985 3837 
Q 864 3770 781 3696 
Q 698 3622 653 3584 
L 358 4006 
Q 416 4070 531 4163 
Q 646 4256 806 4339 
Q 966 4422 1164 4480 
Q 1363 4538 1594 4538 
Q 2291 4538 2640 4214 
Q 2989 3891 2989 3302 
z
" transform="scale(0.015625)"/>
       </defs>
       <use xlink:href="#Ubuntu-32"/>
      </g>
     </g>
    </g>
    <g id="xtick_4">
     <g id="line2d_4">
      <g>
       <use xlink:href="#m0e3660e4d1" x="376.861765" y="185.575" style="fill: #aaaaaa; stroke: #aaaaaa; stroke-width: 0.75"/>
      </g>
     </g>
     <g id="text_4">
      <!-- 3 -->
      <g style="fill: #808080" transform="translate(374.605515 200.7825) scale(0.08 -0.08)">
       <defs>
        <path id="Ubuntu-33" d="M 1446 435 
Q 2016 435 2262 659 
Q 2509 883 2509 1261 
Q 2509 1504 2406 1670 
Q 2304 1837 2137 1936 
Q 1971 2035 1750 2076 
Q 1530 2118 1299 2118 
L 1146 2118 
L 1146 2605 
L 1357 2605 
Q 1517 2605 1686 2637 
Q 1856 2669 1997 2752 
Q 2138 2835 2227 2979 
Q 2317 3123 2317 3341 
Q 2317 3520 2253 3648 
Q 2189 3776 2083 3859 
Q 1978 3942 1840 3977 
Q 1702 4013 1549 4013 
Q 1242 4013 1027 3923 
Q 813 3834 666 3738 
L 435 4192 
Q 512 4243 630 4304 
Q 749 4365 896 4416 
Q 1043 4467 1212 4502 
Q 1382 4538 1568 4538 
Q 1920 4538 2176 4451 
Q 2432 4365 2598 4208 
Q 2765 4051 2848 3836 
Q 2931 3622 2931 3373 
Q 2931 3027 2732 2780 
Q 2534 2534 2253 2406 
Q 2426 2355 2586 2259 
Q 2746 2163 2864 2016 
Q 2982 1869 3056 1677 
Q 3130 1485 3130 1248 
Q 3130 960 3030 713 
Q 2931 467 2723 288 
Q 2515 109 2201 6 
Q 1888 -96 1459 -96 
Q 1293 -96 1117 -70 
Q 941 -45 787 -6 
Q 634 32 518 70 
Q 403 109 352 134 
L 467 653 
Q 576 602 829 518 
Q 1082 435 1446 435 
z
" transform="scale(0.015625)"/>
       </defs>
       <use xlink:href="#Ubuntu-33"/>
      </g>
     </g>
    </g>
    <g id="xtick_5">
     <g id="line2d_5">
      <g>
       <use xlink:href="#m0e3660e4d1" x="486.273529" y="185.575" style="fill: #aaaaaa; stroke: #aaaaaa; stroke-width: 0.75"/>
      </g>
     </g>
     <g id="text_5">
      <!-- 4 -->
      <g style="fill: #808080" transform="translate(484.017279 200.7825) scale(0.08 -0.08)">
       <defs>
        <path id="Ubuntu-34" d="M 256 1536 
Q 378 1818 589 2192 
Q 800 2566 1065 2963 
Q 1331 3360 1635 3744 
Q 1939 4128 2246 4435 
L 2816 4435 
L 2816 1619 
L 3341 1619 
L 3341 1133 
L 2816 1133 
L 2816 0 
L 2240 0 
L 2240 1133 
L 256 1133 
L 256 1536 
z
M 2240 3731 
Q 2048 3526 1853 3273 
Q 1658 3021 1472 2745 
Q 1286 2470 1123 2182 
Q 960 1894 832 1619 
L 2240 1619 
L 2240 3731 
z
" transform="scale(0.015625)"/>
       </defs>
       <use xlink:href="#Ubuntu-34"/>
      </g>
     </g>
    </g>
   </g>
   <g id="matplotlib.axis_2">
    <g id="ytick_1">
     <g id="line2d_6">
      <defs>
       <path id="ma81169bc44" d="M 0 0 
L -3 0 
" style="stroke: #aaaaaa; stroke-width: 0.75"/>
      </defs>
      <g>
       <use xlink:href="#ma81169bc44" x="34.25" y="175.575" style="fill: #aaaaaa; stroke: #aaaaaa; stroke-width: 0.75"/>
      </g>
     </g>
     <g id="text_6">
      <!-- 1000 -->
      <g style="fill: #808080" transform="translate(7.2 178.67875) scale(0.08 -0.08)">
       <use xlink:href="#Ubuntu-31"/>
       <use xlink:href="#Ubuntu-30" x="56.399994"/>
       <use xlink:href="#Ubuntu-30" x="112.799988"/>
       <use xlink:href="#Ubuntu-30" x="169.199982"/>
      </g>
     </g>
    </g>
    <g id="ytick_2">
     <g id="line2d_7">
      <g>
       <use xlink:href="#ma81169bc44" x="34.25" y="152.475" style="fill: #aaaaaa; stroke: #aaaaaa; stroke-width: 0.75"/>
      </g>
     </g>
     <g id="text_7">
      <!-- 2000 -->
      <g style="fill: #808080" transform="translate(7.2 155.57875) scale(0.08 -0.08)">
       <use xlink:href="#Ubuntu-32"/>
       <use xlink:href="#Ubuntu-30" x="56.399994"/>
       <use xlink:href="#Ubuntu-30" x="112.799988"/>
       <use xlink:href="#Ubuntu-30" x="169.199982"/>
      </g>
     </g>
    </g>
    <g id="ytick_3">
     <g id="line2d_8">
      <g>
       <use xlink:href="#ma81169bc44" x="34.25" y="129.375" style="fill: #aaaaaa; stroke: #aaaaaa; stroke-width: 0.75"/>
      </g>
     </g>
     <g id="text_8">
      <!-- 3000 -->
      <g style="fill: #808080" transform="translate(7.2 132.47875) scale(0.08 -0.08)">
       <use xlink:href="#Ubuntu-33"/>
       <use xlink:href="#Ubuntu-30" x="56.399994"/>
       <use xlink:href="#Ubuntu-30" x="112.799988"/>
       <use xlink:href="#Ubuntu-30" x="169.199982"/>
      </g>
     </g>
    </g>
    <g id="ytick_4">
     <g id="line2d_9">
      <g>
       <use xlink:href="#ma81169bc44" x="34.25" y="106.275" style="fill: #aaaaaa; stroke: #aaaaaa; stroke-width: 0.75"/>
      </g>
     </g>
     <g id="text_9">
      <!-- 4000 -->
      <g style="fill: #808080" transform="translate(7.2 109.37875) scale(0.08 -0.08)">
       <use xlink:href="#Ubuntu-34"/>
       <use xlink:href="#Ubuntu-30" x="56.399994"/>
       <use xlink:href="#Ubuntu-30" x="112.799988"/>
       <use xlink:href="#Ubuntu-30" x="169.199982"/>
      </g>
     </g>
    </g>
    <g id="ytick_5">
     <g id="line2d_10">
      <g>
       <use xlink:href="#ma81169bc44" x="34.25" y="83.175" style="fill: #aaaaaa; stroke: #aaaaaa; stroke-width: 0.75"/>
      </g>
     </g>
     <g id="text_10">
      <!-- 5000 -->
      <g style="fill: #808080" transform="translate(7.2 86.27875) scale(0.08 -0.08)">
       <defs>
        <path id="Ubuntu-35" d="M 1274 2726 
Q 2240 2688 2691 2304 
Q 3142 1920 3142 1261 
Q 3142 966 3043 716 
Q 2944 467 2742 288 
Q 2541 109 2233 6 
Q 1926 -96 1504 -96 
Q 1338 -96 1165 -70 
Q 992 -45 845 -6 
Q 698 32 582 70 
Q 467 109 416 134 
L 531 653 
Q 640 602 886 518 
Q 1133 435 1491 435 
Q 1779 435 1974 499 
Q 2170 563 2291 672 
Q 2413 781 2467 925 
Q 2522 1069 2522 1229 
Q 2522 1472 2438 1661 
Q 2355 1850 2144 1978 
Q 1933 2106 1581 2173 
Q 1229 2240 691 2240 
Q 730 2554 752 2829 
Q 774 3104 793 3366 
Q 813 3629 825 3888 
Q 838 4147 851 4435 
L 2989 4435 
L 2989 3930 
L 1370 3930 
Q 1363 3834 1350 3670 
Q 1338 3507 1325 3331 
Q 1312 3155 1299 2988 
Q 1286 2822 1274 2726 
z
" transform="scale(0.015625)"/>
       </defs>
       <use xlink:href="#Ubuntu-35"/>
       <use xlink:href="#Ubuntu-30" x="56.399994"/>
       <use xlink:href="#Ubuntu-30" x="112.799988"/>
       <use xlink:href="#Ubuntu-30" x="169.199982"/>
      </g>
     </g>
    </g>
    <g id="ytick_6">
     <g id="line2d_11">
      <g>
       <use xlink:href="#ma81169bc44" x="34.25" y="60.075" style="fill: #aaaaaa; stroke: #aaaaaa; stroke-width: 0.75"/>
      </g>
     </g>
     <g id="text_11">
      <!-- 6000 -->
      <g style="fill: #808080" transform="translate(7.2 63.17875) scale(0.08 -0.08)">
       <defs>
        <path id="Ubuntu-36" d="M 403 1779 
Q 403 2426 582 2922 
Q 762 3418 1091 3757 
Q 1421 4096 1891 4272 
Q 2362 4448 2950 4454 
L 2995 3955 
Q 2618 3949 2307 3872 
Q 1997 3795 1753 3628 
Q 1510 3462 1344 3196 
Q 1178 2931 1094 2541 
Q 1261 2618 1469 2669 
Q 1677 2720 1901 2720 
Q 2278 2720 2540 2605 
Q 2803 2490 2969 2301 
Q 3136 2112 3209 1865 
Q 3283 1619 3283 1350 
Q 3283 1107 3200 851 
Q 3117 595 2947 384 
Q 2778 173 2515 38 
Q 2253 -96 1894 -96 
Q 1165 -96 784 403 
Q 403 902 403 1779 
z
M 1837 2234 
Q 1613 2234 1421 2192 
Q 1229 2150 1037 2067 
Q 1030 1997 1027 1923 
Q 1024 1850 1024 1779 
Q 1024 1498 1062 1248 
Q 1101 998 1200 809 
Q 1299 621 1465 509 
Q 1632 397 1888 397 
Q 2099 397 2246 486 
Q 2394 576 2490 717 
Q 2586 858 2627 1021 
Q 2669 1184 2669 1338 
Q 2669 1773 2461 2003 
Q 2253 2234 1837 2234 
z
" transform="scale(0.015625)"/>
       </defs>
       <use xlink:href="#Ubuntu-36"/>
       <use xlink:href="#Ubuntu-30" x="56.399994"/>
       <use xlink:href="#Ubuntu-30" x="112.799988"/>
       <use xlink:href="#Ubuntu-30" x="169.199982"/>
      </g>
     </g>
    </g>
    <g id="ytick_7">
     <g id="line2d_12">
      <g>
       <use xlink:href="#ma81169bc44" x="34.25" y="36.975" style="fill: #aaaaaa; stroke: #aaaaaa; stroke-width: 0.75"/>
      </g>
     </g>
     <g id="text_12">
      <!-- 7000 -->
      <g style="fill: #808080" transform="translate(7.2 40.07875) scale(0.08 -0.08)">
       <defs>
        <path id="Ubuntu-37" d="M 1043 0 
Q 1082 512 1226 1078 
Q 1370 1645 1581 2179 
Q 1792 2714 2045 3171 
Q 2298 3629 2541 3917 
L 384 3917 
L 384 4435 
L 3206 4435 
L 3206 3942 
Q 2995 3699 2739 3273 
Q 2483 2848 2256 2320 
Q 2029 1792 1865 1193 
Q 1702 595 1664 0 
L 1043 0 
z
" transform="scale(0.015625)"/>
       </defs>
       <use xlink:href="#Ubuntu-37"/>
       <use xlink:href="#Ubuntu-30" x="56.399994"/>
       <use xlink:href="#Ubuntu-30" x="112.799988"/>
       <use xlink:href="#Ubuntu-30" x="169.199982"/>
      </g>
     </g>
    </g>
   </g>
   <g id="line2d_13">
    <path d="M 48.626471 153.997485 
L 75.017248 153.254861 
L 112.404183 152.19803 
L 129.998034 151.495043 
L 145.392654 150.679463 
L 158.588043 149.786384 
L 171.783432 148.676557 
L 184.978821 147.314306 
L 195.974978 145.960533 
L 206.971135 144.386043 
L 217.967292 142.570187 
L 228.96345 140.49232 
L 237.760375 138.627503 
L 246.557301 136.571214 
L 255.354227 134.312881 
L 264.151153 131.841933 
L 272.948079 129.149332 
L 281.745004 126.246842 
L 292.741162 122.364379 
L 303.737319 118.248688 
L 316.932708 113.076493 
L 336.725791 105.031341 
L 367.515031 92.491213 
L 380.71042 87.352892 
L 391.706577 83.276136 
L 402.702734 79.442342 
L 411.49966 76.585796 
L 420.296586 73.945699 
L 429.093512 71.54914 
L 437.890437 69.42321 
L 444.488132 68.022659 
L 451.085826 66.801003 
L 457.683521 65.769672 
L 464.281215 64.940093 
L 470.878909 64.323695 
L 477.476604 63.931907 
L 484.074298 63.776157 
L 486.273529 63.778669 
L 486.273529 63.778669 
" clip-path="url(#pc336cd7f4e)" style="fill: none; stroke: #5b5b5b; stroke-width: 1.2; stroke-linecap: square"/>
   </g>
   <g id="line2d_14">
    <path d="M 48.626471 153.994258 
L 75.017248 153.253014 
L 112.404183 152.197469 
L 129.998034 151.49486 
L 145.392654 150.67951 
L 158.588043 149.786563 
L 171.783432 148.676818 
L 184.978821 147.314604 
L 195.974978 145.960834 
L 206.971135 144.386324 
L 217.967292 142.570434 
L 228.96345 140.49252 
L 237.760375 138.62766 
L 246.557301 136.571324 
L 255.354227 134.312945 
L 264.151153 131.841952 
L 272.948079 129.149309 
L 281.745004 126.246783 
L 292.741162 122.364281 
L 303.737319 118.248556 
L 316.932708 113.076327 
L 336.725791 105.031135 
L 367.515031 92.490961 
L 380.71042 87.352623 
L 391.706577 83.275852 
L 402.702734 79.442042 
L 411.49966 76.585483 
L 420.296586 73.94537 
L 429.093512 71.548794 
L 437.890437 69.422844 
L 444.488132 68.022277 
L 451.085826 66.800603 
L 457.683521 65.769252 
L 464.281215 64.93965 
L 470.878909 64.323228 
L 477.476604 63.931414 
L 484.074298 63.775635 
L 486.273529 63.778136 
L 486.273529 63.778136 
" clip-path="url(#pc336cd7f4e)" style="fill: none; stroke: #b45f58; stroke-width: 1.2; stroke-linecap: square"/>
   </g>
   <g id="line2d_15">
    <path d="M 48.626471 154.091961 
L 66.220322 153.220755 
L 90.411868 152.279285 
L 129.998034 150.762073 
L 147.591886 149.851177 
L 162.986506 148.824005 
L 176.181895 147.720277 
L 189.377283 146.366721 
L 200.373441 145.018043 
L 211.369598 143.443154 
L 222.365755 141.618091 
L 231.162681 139.961812 
L 239.959607 138.117816 
L 248.756533 136.073834 
L 257.553458 133.817597 
L 266.350384 131.336835 
L 275.14731 128.623782 
L 283.944236 125.696969 
L 294.940393 121.780585 
L 305.93655 117.628835 
L 319.131939 112.413223 
L 338.925022 104.309475 
L 367.515031 92.595385 
L 380.71042 87.418689 
L 391.706577 83.312109 
L 402.702734 79.452477 
L 411.49966 76.579405 
L 420.296586 73.927518 
L 429.093512 71.52488 
L 437.890437 69.399551 
L 444.488132 68.004419 
L 451.085826 66.792898 
L 457.683521 65.776825 
L 464.281215 64.96804 
L 470.878909 64.37838 
L 477.476604 64.019685 
L 484.074298 63.903793 
L 486.273529 63.921164 
L 486.273529 63.921164 
" clip-path="url(#pc336cd7f4e)" style="fill: none; stroke: #3d6b91; stroke-width: 1.2; stroke-linecap: square"/>
   </g>
   <g id="line2d_16">
    <path d="M 48.626471 154.098701 
L 66.220322 153.224839 
L 90.411868 152.280929 
L 129.998034 150.762055 
L 147.591886 149.851069 
L 162.986506 148.824021 
L 176.181895 147.720491 
L 189.377283 146.367167 
L 200.373441 145.018675 
L 211.369598 143.443937 
L 222.365755 141.618962 
L 231.162681 139.96269 
L 239.959607 138.118629 
L 248.756533 136.074497 
L 257.553458 133.818011 
L 266.350384 131.336886 
L 275.14731 128.623348 
L 283.944236 125.695938 
L 294.940393 121.778681 
L 305.93655 117.625954 
L 319.131939 112.409085 
L 338.925022 104.30342 
L 367.515031 92.586907 
L 380.71042 87.409394 
L 391.706577 83.302348 
L 402.702734 79.442485 
L 411.49966 76.569424 
L 420.296586 73.917744 
L 429.093512 71.515527 
L 437.890437 69.390855 
L 444.488132 67.996382 
L 451.085826 66.785671 
L 457.683521 65.770568 
L 464.281215 64.962921 
L 470.878909 64.374576 
L 477.476604 64.017381 
L 484.074298 63.903182 
L 486.273529 63.921163 
L 486.273529 63.921163 
" clip-path="url(#pc336cd7f4e)" style="fill: none; stroke: #4e9a73; stroke-width: 1.2; stroke-linecap: square"/>
   </g>
   <g id="line2d_17">
    <path d="M 48.626471 154.662117 
L 64.021091 153.484447 
L 81.614942 152.392863 
L 105.806488 151.146559 
L 140.994192 149.336047 
L 158.588043 148.198918 
L 173.982663 146.964316 
L 187.178052 145.671321 
L 198.174209 144.393974 
L 209.170367 142.90722 
L 220.166524 141.185066 
L 231.162681 139.201519 
L 239.959607 137.409012 
L 248.756533 135.419271 
L 257.553458 133.218987 
L 266.350384 130.794852 
L 275.14731 128.138147 
L 283.944236 125.266948 
L 294.940393 121.418637 
L 305.93655 117.33286 
L 319.131939 112.192894 
L 338.925022 104.193502 
L 367.515031 92.605175 
L 380.71042 87.474308 
L 391.706577 83.399093 
L 402.702734 79.564053 
L 411.49966 76.705421 
L 420.296586 74.063028 
L 429.093512 71.664666 
L 437.890437 69.538123 
L 444.488132 68.138314 
L 451.085826 66.918761 
L 457.683521 65.891185 
L 464.281215 65.067312 
L 470.878909 64.458865 
L 477.476604 64.077568 
L 484.074298 63.935146 
L 486.273529 63.942781 
L 486.273529 63.942781 
" clip-path="url(#pc336cd7f4e)" style="fill: none; stroke: #c3824d; stroke-width: 1.2; stroke-linecap: square"/>
   </g>
   <g id="line2d_18">
    <path d="M 48.626471 152.218009 
L 94.810331 152.007088 
L 114.603414 151.663338 
L 129.998034 151.190201 
L 145.392654 150.482249 
L 158.588043 149.650638 
L 171.783432 148.578289 
L 182.779589 147.478051 
L 193.775746 146.170545 
L 204.771904 144.637551 
L 215.768061 142.860847 
L 226.764218 140.822211 
L 235.561144 138.990467 
L 244.35807 136.970096 
L 253.154996 134.751767 
L 261.951921 132.326153 
L 270.748847 129.684239 
L 279.545773 126.831355 
L 290.54193 123.007182 
L 301.538087 118.944929 
L 314.733476 113.829374 
L 332.327328 106.747853 
L 367.515031 92.491572 
L 380.71042 87.388714 
L 391.706577 83.340921 
L 402.702734 79.534735 
L 411.49966 76.698781 
L 420.296586 74.077519 
L 429.093512 71.697646 
L 437.890437 69.585857 
L 444.488132 68.194004 
L 451.085826 66.979227 
L 457.683521 65.952788 
L 464.281215 65.125949 
L 470.878909 64.509973 
L 477.476604 64.11612 
L 484.074298 63.955655 
L 486.273529 63.955976 
L 486.273529 63.955976 
" clip-path="url(#pc336cd7f4e)" style="fill: none; stroke: #71588b; stroke-width: 1.2; stroke-linecap: square"/>
   </g>
   <g id="line2d_19">
    <path d="M 48.626471 152.218517 
L 94.810331 152.007672 
L 114.603414 151.663704 
L 129.998034 151.190324 
L 145.392654 150.482082 
L 158.588043 149.650198 
L 171.783432 148.577561 
L 182.779589 147.477081 
L 193.775746 146.169337 
L 204.771904 144.636114 
L 215.768061 142.859195 
L 226.764218 140.820365 
L 235.561144 138.988484 
L 244.35807 136.967995 
L 253.154996 134.749572 
L 261.951921 132.323888 
L 270.748847 129.681933 
L 279.545773 126.829037 
L 290.54193 123.004883 
L 301.538087 118.942683 
L 314.733476 113.827225 
L 332.327328 106.74587 
L 367.515031 92.489946 
L 380.71042 87.387193 
L 391.706577 83.339463 
L 402.702734 79.53331 
L 411.49966 76.697354 
L 420.296586 74.076065 
L 429.093512 71.696134 
L 437.890437 69.584252 
L 444.488132 68.192305 
L 451.085826 66.977411 
L 457.683521 65.950831 
L 464.281215 65.123825 
L 470.878909 64.507655 
L 477.476604 64.11358 
L 484.074298 63.952861 
L 486.273529 63.953092 
L 486.273529 63.953092 
" clip-path="url(#pc336cd7f4e)" style="fill: none; stroke: #8d7a5a; stroke-width: 1.2; stroke-linecap: square"/>
   </g>
   <g id="line2d_20">
    <path d="M 48.626471 152.508774 
L 92.6111 152.244222 
L 112.404183 151.877861 
L 127.798803 151.391688 
L 143.193423 150.67628 
L 156.388812 149.843827 
L 169.5842 148.776727 
L 180.580358 147.686179 
L 191.576515 146.393765 
L 202.572672 144.881796 
L 213.568829 143.132581 
L 224.564987 141.128432 
L 235.561144 138.851658 
L 244.35807 136.822062 
L 253.154996 134.597608 
L 261.951921 132.16924 
L 270.748847 129.528208 
L 279.545773 126.67978 
L 290.54193 122.865405 
L 301.538087 118.816639 
L 314.733476 113.720617 
L 332.327328 106.667754 
L 369.714262 91.597703 
L 382.909651 86.543242 
L 393.905808 82.541401 
L 404.901966 78.785122 
L 413.698892 75.991216 
L 422.495817 73.413289 
L 431.292743 71.077484 
L 440.089669 69.009943 
L 446.687363 67.651061 
L 453.285058 66.468811 
L 459.882752 65.474222 
L 466.480446 64.678323 
L 473.078141 64.092141 
L 479.675835 63.726707 
L 486.273529 63.593047 
L 486.273529 63.593047 
" clip-path="url(#pc336cd7f4e)" style="fill: none; stroke: #274574; stroke-width: 1.2; stroke-linecap: square"/>
   </g>
   <g id="line2d_21">
    <path d="M 48.626471 152.419967 
L 90.411868 152.23445 
L 110.204951 151.910765 
L 125.599571 151.462421 
L 140.994192 150.789284 
L 154.18958 149.996868 
L 167.384969 148.97355 
L 178.381126 147.922509 
L 189.377283 146.672487 
L 200.373441 145.205921 
L 211.369598 143.505251 
L 222.365755 141.552917 
L 233.361913 139.331357 
L 242.158838 137.348465 
L 250.955764 135.173039 
L 259.75269 132.796087 
L 268.549616 130.20863 
L 277.346542 127.409971 
L 288.342699 123.648911 
L 299.338856 119.64352 
L 312.534245 114.586335 
L 330.128096 107.562661 
L 371.913494 90.746544 
L 385.108883 85.733327 
L 396.10504 81.776789 
L 407.101197 78.075686 
L 415.898123 75.332986 
L 424.695049 72.812513 
L 433.491975 70.540376 
L 442.2889 68.542686 
L 448.886595 67.240232 
L 455.484289 66.117856 
L 462.081983 65.186574 
L 468.679678 64.457402 
L 475.277372 63.941354 
L 481.875067 63.649445 
L 486.273529 63.584802 
L 486.273529 63.584802 
" clip-path="url(#pc336cd7f4e)" style="fill: none; stroke: #bf8296; stroke-width: 1.2; stroke-linecap: square"/>
   </g>
   <g id="line2d_22">
    <path d="M 48.626471 152.254563 
L 83.814174 152.281311 
L 103.607257 152.082299 
L 121.201108 151.67461 
L 136.595729 151.082761 
L 149.791117 150.36379 
L 162.986506 149.41852 
L 176.181895 148.21767 
L 187.178052 147.000601 
L 198.174209 145.568764 
L 209.170367 143.905213 
L 220.166524 141.993003 
L 231.162681 139.815188 
L 239.959607 137.870312 
L 248.756533 135.735928 
L 257.553458 133.403358 
L 266.350384 130.863927 
L 275.14731 128.112824 
L 286.143467 124.404313 
L 297.139625 120.443509 
L 310.335013 115.428893 
L 325.729633 109.32846 
L 376.311957 89.067186 
L 389.507346 84.150307 
L 400.503503 80.295839 
L 409.300429 77.407771 
L 418.097354 74.721607 
L 426.89428 72.2633 
L 435.691206 70.058805 
L 444.488132 68.134079 
L 451.085826 66.889745 
L 457.683521 65.828331 
L 464.281215 64.960785 
L 470.878909 64.298057 
L 477.476604 63.851098 
L 484.074298 63.630856 
L 486.273529 63.609717 
L 486.273529 63.609717 
" clip-path="url(#pc336cd7f4e)" style="fill: none; stroke: #d2c52d; stroke-width: 1.2; stroke-linecap: square"/>
   </g>
   <g id="patch_3">
    <path d="M 34.25 175.575 
L 34.25 36.975 
" style="fill: none; stroke: #aaaaaa; stroke-width: 0.75; stroke-linejoin: miter; stroke-linecap: square"/>
   </g>
   <g id="patch_4">
    <path d="M 48.626471 185.575 
L 486.273529 185.575 
" style="fill: none; stroke: #aaaaaa; stroke-width: 0.75; stroke-linejoin: miter; stroke-linecap: square"/>
   </g>
   <g id="legend_1">
    <g id="line2d_23">
     <path d="M 51.45 13.8075 
L 59.45 13.8075 
L 67.45 13.8075 
" style="fill: none; stroke: #5b5b5b; stroke-width: 1.2; stroke-linecap: square"/>
    </g>
    <g id="text_13">
     <!-- model149 -->
     <g style="fill: #4b4b4b" transform="translate(73.85 16.6075) scale(0.08 -0.08)">
      <defs>
       <path id="Ubuntu-6d" d="M 512 3232 
Q 717 3283 1053 3340 
Q 1389 3398 1830 3398 
Q 2150 3398 2368 3312 
Q 2586 3226 2733 3059 
Q 2778 3091 2874 3148 
Q 2970 3206 3110 3260 
Q 3251 3315 3424 3356 
Q 3597 3398 3795 3398 
Q 4179 3398 4422 3286 
Q 4666 3174 4803 2969 
Q 4941 2765 4989 2483 
Q 5037 2202 5037 1869 
L 5037 0 
L 4442 0 
L 4442 1741 
Q 4442 2035 4413 2246 
Q 4384 2458 4304 2598 
Q 4224 2739 4086 2806 
Q 3949 2874 3731 2874 
Q 3430 2874 3235 2794 
Q 3040 2714 2970 2650 
Q 3021 2483 3046 2284 
Q 3072 2086 3072 1869 
L 3072 0 
L 2477 0 
L 2477 1741 
Q 2477 2035 2445 2246 
Q 2413 2458 2333 2598 
Q 2253 2739 2115 2806 
Q 1978 2874 1766 2874 
Q 1677 2874 1574 2867 
Q 1472 2861 1379 2851 
Q 1286 2842 1209 2829 
Q 1133 2816 1107 2810 
L 1107 0 
L 512 0 
L 512 3232 
z
" transform="scale(0.015625)"/>
       <path id="Ubuntu-6f" d="M 3450 1664 
Q 3450 1267 3334 947 
Q 3219 627 3011 396 
Q 2803 166 2515 41 
Q 2227 -83 1888 -83 
Q 1549 -83 1261 41 
Q 973 166 765 396 
Q 557 627 441 947 
Q 326 1267 326 1664 
Q 326 2054 441 2377 
Q 557 2701 765 2931 
Q 973 3162 1261 3286 
Q 1549 3411 1888 3411 
Q 2227 3411 2515 3286 
Q 2803 3162 3011 2931 
Q 3219 2701 3334 2377 
Q 3450 2054 3450 1664 
z
M 2829 1664 
Q 2829 2227 2576 2556 
Q 2323 2886 1888 2886 
Q 1453 2886 1200 2556 
Q 947 2227 947 1664 
Q 947 1101 1200 771 
Q 1453 442 1888 442 
Q 2323 442 2576 771 
Q 2829 1101 2829 1664 
z
" transform="scale(0.015625)"/>
       <path id="Ubuntu-64" d="M 2662 2624 
Q 2554 2714 2349 2797 
Q 2144 2880 1901 2880 
Q 1645 2880 1462 2787 
Q 1280 2694 1165 2531 
Q 1050 2368 998 2144 
Q 947 1920 947 1664 
Q 947 1082 1235 765 
Q 1523 448 2003 448 
Q 2246 448 2409 470 
Q 2573 493 2662 518 
L 2662 2624 
z
M 2662 4864 
L 3258 4966 
L 3258 96 
Q 3053 38 2733 -19 
Q 2413 -77 1997 -77 
Q 1613 -77 1305 44 
Q 998 166 780 390 
Q 563 614 444 937 
Q 326 1261 326 1664 
Q 326 2048 425 2368 
Q 525 2688 717 2918 
Q 909 3149 1187 3277 
Q 1466 3405 1824 3405 
Q 2112 3405 2333 3328 
Q 2554 3251 2662 3181 
L 2662 4864 
z
" transform="scale(0.015625)"/>
       <path id="Ubuntu-65" d="M 326 1658 
Q 326 2099 454 2428 
Q 582 2758 793 2976 
Q 1005 3194 1280 3302 
Q 1555 3411 1843 3411 
Q 2515 3411 2873 2992 
Q 3232 2573 3232 1715 
Q 3232 1677 3232 1616 
Q 3232 1555 3226 1504 
L 947 1504 
Q 986 986 1248 717 
Q 1510 448 2067 448 
Q 2381 448 2595 502 
Q 2810 557 2918 608 
L 3002 109 
Q 2893 51 2621 -13 
Q 2349 -77 2003 -77 
Q 1568 -77 1251 54 
Q 934 186 729 416 
Q 525 646 425 963 
Q 326 1280 326 1658 
z
M 2611 1984 
Q 2618 2387 2410 2646 
Q 2202 2906 1837 2906 
Q 1632 2906 1475 2826 
Q 1318 2746 1209 2618 
Q 1101 2490 1040 2323 
Q 979 2157 960 1984 
L 2611 1984 
z
" transform="scale(0.015625)"/>
       <path id="Ubuntu-6c" d="M 1510 -64 
Q 960 -51 729 173 
Q 499 397 499 870 
L 499 4864 
L 1094 4966 
L 1094 966 
Q 1094 819 1120 723 
Q 1146 627 1203 569 
Q 1261 512 1357 483 
Q 1453 454 1594 435 
L 1510 -64 
z
" transform="scale(0.015625)"/>
       <path id="Ubuntu-39" d="M 3206 2662 
Q 3206 1344 2550 669 
Q 1894 -6 602 -13 
L 582 486 
Q 986 486 1309 563 
Q 1632 640 1875 809 
Q 2118 979 2281 1248 
Q 2445 1517 2522 1907 
Q 2355 1830 2144 1782 
Q 1933 1734 1709 1734 
Q 1331 1734 1068 1846 
Q 806 1958 640 2147 
Q 474 2336 400 2582 
Q 326 2829 326 3098 
Q 326 3334 409 3590 
Q 493 3846 662 4057 
Q 832 4269 1094 4403 
Q 1357 4538 1715 4538 
Q 2080 4538 2358 4410 
Q 2637 4282 2825 4038 
Q 3014 3795 3110 3446 
Q 3206 3098 3206 2662 
z
M 1773 2221 
Q 1997 2221 2195 2262 
Q 2394 2304 2579 2387 
Q 2586 2458 2586 2525 
Q 2586 2592 2586 2662 
Q 2586 2938 2547 3190 
Q 2509 3443 2409 3632 
Q 2310 3821 2144 3933 
Q 1978 4045 1722 4045 
Q 1510 4045 1363 3955 
Q 1216 3866 1120 3728 
Q 1024 3590 982 3427 
Q 941 3264 941 3110 
Q 941 2675 1149 2448 
Q 1357 2221 1773 2221 
z
" transform="scale(0.015625)"/>
      </defs>
      <use xlink:href="#Ubuntu-6d"/>
      <use xlink:href="#Ubuntu-6f" x="86.099991"/>
      <use xlink:href="#Ubuntu-64" x="145.099976"/>
      <use xlink:href="#Ubuntu-65" x="203.999969"/>
      <use xlink:href="#Ubuntu-6c" x="259.899963"/>
      <use xlink:href="#Ubuntu-31" x="287.199951"/>
      <use xlink:href="#Ubuntu-34" x="343.599945"/>
      <use xlink:href="#Ubuntu-39" x="399.999939"/>
     </g>
    </g>
    <g id="line2d_24">
     <path d="M 51.45 25.495 
L 59.45 25.495 
L 67.45 25.495 
" style="fill: none; stroke: #b45f58; stroke-width: 1.2; stroke-linecap: square"/>
    </g>
    <g id="text_14">
     <!-- model155 -->
     <g style="fill: #4b4b4b" transform="translate(73.85 28.295) scale(0.08 -0.08)">
      <use xlink:href="#Ubuntu-6d"/>
      <use xlink:href="#Ubuntu-6f" x="86.099991"/>
      <use xlink:href="#Ubuntu-64" x="145.099976"/>
      <use xlink:href="#Ubuntu-65" x="203.999969"/>
      <use xlink:href="#Ubuntu-6c" x="259.899963"/>
      <use xlink:href="#Ubuntu-31" x="287.199951"/>
      <use xlink:href="#Ubuntu-35" x="343.599945"/>
      <use xlink:href="#Ubuntu-35" x="399.999939"/>
     </g>
    </g>
    <g id="line2d_25">
     <path d="M 126.36375 13.8075 
L 134.36375 13.8075 
L 142.36375 13.8075 
" style="fill: none; stroke: #3d6b91; stroke-width: 1.2; stroke-linecap: square"/>
    </g>
    <g id="text_15">
     <!-- model151 -->
     <g style="fill: #4b4b4b" transform="translate(148.76375 16.6075) scale(0.08 -0.08)">
      <use xlink:href="#Ubuntu-6d"/>
      <use xlink:href="#Ubuntu-6f" x="86.099991"/>
      <use xlink:href="#Ubuntu-64" x="145.099976"/>
      <use xlink:href="#Ubuntu-65" x="203.999969"/>
      <use xlink:href="#Ubuntu-6c" x="259.899963"/>
      <use xlink:href="#Ubuntu-31" x="287.199951"/>
      <use xlink:href="#Ubuntu-35" x="343.599945"/>
      <use xlink:href="#Ubuntu-31" x="399.999939"/>
     </g>
    </g>
    <g id="line2d_26">
     <path d="M 126.36375 25.495 
L 134.36375 25.495 
L 142.36375 25.495 
" style="fill: none; stroke: #4e9a73; stroke-width: 1.2; stroke-linecap: square"/>
    </g>
    <g id="text_16">
     <!-- model145 -->
     <g style="fill: #4b4b4b" transform="translate(148.76375 28.295) scale(0.08 -0.08)">
      <use xlink:href="#Ubuntu-6d"/>
      <use xlink:href="#Ubuntu-6f" x="86.099991"/>
      <use xlink:href="#Ubuntu-64" x="145.099976"/>
      <use xlink:href="#Ubuntu-65" x="203.999969"/>
      <use xlink:href="#Ubuntu-6c" x="259.899963"/>
      <use xlink:href="#Ubuntu-31" x="287.199951"/>
      <use xlink:href="#Ubuntu-34" x="343.599945"/>
      <use xlink:href="#Ubuntu-35" x="399.999939"/>
     </g>
    </g>
    <g id="line2d_27">
     <path d="M 201.2775 13.8075 
L 209.2775 13.8075 
L 217.2775 13.8075 
" style="fill: none; stroke: #c3824d; stroke-width: 1.2; stroke-linecap: square"/>
    </g>
    <g id="text_17">
     <!-- model144 -->
     <g style="fill: #4b4b4b" transform="translate(223.6775 16.6075) scale(0.08 -0.08)">
      <use xlink:href="#Ubuntu-6d"/>
      <use xlink:href="#Ubuntu-6f" x="86.099991"/>
      <use xlink:href="#Ubuntu-64" x="145.099976"/>
      <use xlink:href="#Ubuntu-65" x="203.999969"/>
      <use xlink:href="#Ubuntu-6c" x="259.899963"/>
      <use xlink:href="#Ubuntu-31" x="287.199951"/>
      <use xlink:href="#Ubuntu-34" x="343.599945"/>
      <use xlink:href="#Ubuntu-34" x="399.999939"/>
     </g>
    </g>
    <g id="line2d_28">
     <path d="M 201.2775 25.495 
L 209.2775 25.495 
L 217.2775 25.495 
" style="fill: none; stroke: #71588b; stroke-width: 1.2; stroke-linecap: square"/>
    </g>
    <g id="text_18">
     <!-- model152 -->
     <g style="fill: #4b4b4b" transform="translate(223.6775 28.295) scale(0.08 -0.08)">
      <use xlink:href="#Ubuntu-6d"/>
      <use xlink:href="#Ubuntu-6f" x="86.099991"/>
      <use xlink:href="#Ubuntu-64" x="145.099976"/>
      <use xlink:href="#Ubuntu-65" x="203.999969"/>
      <use xlink:href="#Ubuntu-6c" x="259.899963"/>
      <use xlink:href="#Ubuntu-31" x="287.199951"/>
      <use xlink:href="#Ubuntu-35" x="343.599945"/>
      <use xlink:href="#Ubuntu-32" x="399.999939"/>
     </g>
    </g>
    <g id="line2d_29">
     <path d="M 276.19125 13.8075 
L 284.19125 13.8075 
L 292.19125 13.8075 
" style="fill: none; stroke: #8d7a5a; stroke-width: 1.2; stroke-linecap: square"/>
    </g>
    <g id="text_19">
     <!-- model146 -->
     <g style="fill: #4b4b4b" transform="translate(298.59125 16.6075) scale(0.08 -0.08)">
      <use xlink:href="#Ubuntu-6d"/>
      <use xlink:href="#Ubuntu-6f" x="86.099991"/>
      <use xlink:href="#Ubuntu-64" x="145.099976"/>
      <use xlink:href="#Ubuntu-65" x="203.999969"/>
      <use xlink:href="#Ubuntu-6c" x="259.899963"/>
      <use xlink:href="#Ubuntu-31" x="287.199951"/>
      <use xlink:href="#Ubuntu-34" x="343.599945"/>
      <use xlink:href="#Ubuntu-36" x="399.999939"/>
     </g>
    </g>
    <g id="line2d_30">
     <path d="M 276.19125 25.495 
L 284.19125 25.495 
L 292.19125 25.495 
" style="fill: none; stroke: #274574; stroke-width: 1.2; stroke-linecap: square"/>
    </g>
    <g id="text_20">
     <!-- model154 -->
     <g style="fill: #4b4b4b" transform="translate(298.59125 28.295) scale(0.08 -0.08)">
      <use xlink:href="#Ubuntu-6d"/>
      <use xlink:href="#Ubuntu-6f" x="86.099991"/>
      <use xlink:href="#Ubuntu-64" x="145.099976"/>
      <use xlink:href="#Ubuntu-65" x="203.999969"/>
      <use xlink:href="#Ubuntu-6c" x="259.899963"/>
      <use xlink:href="#Ubuntu-31" x="287.199951"/>
      <use xlink:href="#Ubuntu-35" x="343.599945"/>
      <use xlink:href="#Ubuntu-34" x="399.999939"/>
     </g>
    </g>
    <g id="line2d_31">
     <path d="M 351.105 13.8075 
L 359.105 13.8075 
L 367.105 13.8075 
" style="fill: none; stroke: #bf8296; stroke-width: 1.2; stroke-linecap: square"/>
    </g>
    <g id="text_21">
     <!-- model148 -->
     <g style="fill: #4b4b4b" transform="translate(373.505 16.6075) scale(0.08 -0.08)">
      <defs>
       <path id="Ubuntu-38" d="M 3258 1152 
Q 3258 883 3165 656 
Q 3072 429 2889 259 
Q 2707 90 2432 -3 
Q 2157 -96 1798 -96 
Q 1382 -96 1104 22 
Q 826 141 659 320 
Q 493 499 422 713 
Q 352 928 352 1120 
Q 352 1306 413 1475 
Q 474 1645 573 1792 
Q 672 1939 803 2057 
Q 934 2176 1082 2266 
Q 454 2624 454 3322 
Q 454 3565 550 3785 
Q 646 4006 822 4172 
Q 998 4339 1248 4438 
Q 1498 4538 1805 4538 
Q 2163 4538 2419 4429 
Q 2675 4320 2838 4150 
Q 3002 3981 3075 3776 
Q 3149 3571 3149 3379 
Q 3149 3194 3094 3030 
Q 3040 2867 2947 2726 
Q 2854 2586 2736 2477 
Q 2618 2368 2490 2285 
Q 3245 1926 3258 1152 
z
M 954 1114 
Q 954 998 995 873 
Q 1037 749 1139 643 
Q 1242 538 1402 467 
Q 1562 397 1805 397 
Q 2022 397 2185 461 
Q 2349 525 2451 624 
Q 2554 723 2605 851 
Q 2656 979 2656 1114 
Q 2656 1318 2579 1472 
Q 2502 1626 2358 1741 
Q 2214 1856 2012 1936 
Q 1811 2016 1555 2074 
Q 1267 1914 1110 1677 
Q 954 1440 954 1114 
z
M 2554 3386 
Q 2554 3482 2512 3597 
Q 2470 3712 2380 3811 
Q 2291 3910 2150 3977 
Q 2010 4045 1805 4045 
Q 1600 4045 1456 3981 
Q 1312 3917 1222 3817 
Q 1133 3718 1091 3600 
Q 1050 3482 1050 3366 
Q 1050 3226 1101 3085 
Q 1152 2944 1261 2822 
Q 1370 2701 1546 2605 
Q 1722 2509 1965 2451 
Q 2234 2611 2394 2825 
Q 2554 3040 2554 3386 
z
" transform="scale(0.015625)"/>
      </defs>
      <use xlink:href="#Ubuntu-6d"/>
      <use xlink:href="#Ubuntu-6f" x="86.099991"/>
      <use xlink:href="#Ubuntu-64" x="145.099976"/>
      <use xlink:href="#Ubuntu-65" x="203.999969"/>
      <use xlink:href="#Ubuntu-6c" x="259.899963"/>
      <use xlink:href="#Ubuntu-31" x="287.199951"/>
      <use xlink:href="#Ubuntu-34" x="343.599945"/>
      <use xlink:href="#Ubuntu-38" x="399.999939"/>
     </g>
    </g>
    <g id="line2d_32">
     <path d="M 426.01875 13.8075 
L 434.01875 13.8075 
L 442.01875 13.8075 
" style="fill: none; stroke: #d2c52d; stroke-width: 1.2; stroke-linecap: square"/>
    </g>
    <g id="text_22">
     <!-- model147 -->
     <g style="fill: #4b4b4b" transform="translate(448.41875 16.6075) scale(0.08 -0.08)">
      <use xlink:href="#Ubuntu-6d"/>
      <use xlink:href="#Ubuntu-6f" x="86.099991"/>
      <use xlink:href="#Ubuntu-64" x="145.099976"/>
      <use xlink:href="#Ubuntu-65" x="203.999969"/>
      <use xlink:href="#Ubuntu-6c" x="259.899963"/>
      <use xlink:href="#Ubuntu-31" x="287.199951"/>
      <use xlink:href="#Ubuntu-34" x="343.599945"/>
      <use xlink:href="#Ubuntu-37" x="399.999939"/>
     </g>
    </g>
   </g>
  </g>
 </g>
 <defs>
  <clipPath id="pc336cd7f4e">
   <rect x="44.25" y="36.975" width="446.4" height="138.6"/>
  </clipPath>
 </defs>
</svg>
