<?xml version="1.0" encoding="utf-8" standalone="no"?>
<!DOCTYPE svg PUBLIC "-//W3C//DTD SVG 1.1//EN"
  "http://www.w3.org/Graphics/SVG/1.1/DTD/svg11.dtd">
<svg xmlns:xlink="http://www.w3.org/1999/xlink" width="494.85pt" height="239.3375pt" viewBox="0 0 494.85 239.3375" xmlns="http://www.w3.org/2000/svg" version="1.1">
 <metadata>
  <rdf:RDF xmlns:dc="http://purl.org/dc/elements/1.1/" xmlns:cc="http://creativecommons.org/ns#" xmlns:rdf="http://www.w3.org/1999/02/22-rdf-syntax-ns#">
   <cc:Work>
    <dc:type rdf:resource="http://purl.org/dc/dcmitype/StillImage"/>
    <dc:date>2024-04-16T18:09:45.031175</dc:date>
    <dc:format>image/svg+xml</dc:format>
    <dc:creator>
     <cc:Agent>
      <dc:title>Matplotlib v3.8.3, https://matplotlib.org/</dc:title>
     </cc:Agent>
    </dc:creator>
   </cc:Work>
  </rdf:RDF>
 </metadata>
 <defs>
  <style type="text/css">*{stroke-linejoin: round; stroke-linecap: butt}</style>
 </defs>
 <g id="figure_1">
  <g id="patch_1">
   <path d="M 0 239.3375 
L 494.85 239.3375 
L 494.85 0 
L 0 0 
L 0 239.3375 
z
" style="fill: none"/>
  </g>
  <g id="axes_1">
   <g id="patch_2">
    <path d="M 41.25 84.22375 
L 487.65 84.22375 
L 487.65 10.30375 
L 41.25 10.30375 
L 41.25 84.22375 
z
" style="fill: none"/>
   </g>
   <g id="matplotlib.axis_1">
    <g id="xtick_1"/>
    <g id="xtick_2"/>
    <g id="xtick_3"/>
    <g id="xtick_4"/>
    <g id="xtick_5"/>
    <g id="xtick_6"/>
    <g id="xtick_7"/>
    <g id="xtick_8"/>
    <g id="xtick_9"/>
    <g id="xtick_10"/>
   </g>
   <g id="matplotlib.axis_2">
    <g id="ytick_1">
     <g id="line2d_1">
      <defs>
       <path id="m22f0c65651" d="M 0 0 
L -3 0 
" style="stroke: #aaaaaa; stroke-width: 0.75"/>
      </defs>
      <g>
       <use xlink:href="#m22f0c65651" x="34.25" y="84.22375" style="fill: #aaaaaa; stroke: #aaaaaa; stroke-width: 0.75"/>
      </g>
     </g>
     <g id="text_1">
      <!-- 1000 -->
      <g style="fill: #808080" transform="translate(7.2 87.3275) scale(0.08 -0.08)">
       <defs>
        <path id="Ubuntu-31" d="M 595 3520 
Q 960 3661 1305 3881 
Q 1651 4102 1939 4435 
L 2362 4435 
L 2362 0 
L 1766 0 
L 1766 3610 
Q 1690 3539 1578 3462 
Q 1466 3386 1334 3315 
Q 1203 3245 1059 3181 
Q 915 3117 781 3072 
L 595 3520 
z
" transform="scale(0.015625)"/>
        <path id="Ubuntu-30" d="M 320 2221 
Q 320 3334 713 3936 
Q 1107 4538 1805 4538 
Q 2502 4538 2896 3936 
Q 3290 3334 3290 2221 
Q 3290 1107 2896 505 
Q 2502 -96 1805 -96 
Q 1107 -96 713 505 
Q 320 1107 320 2221 
z
M 2662 2221 
Q 2662 2586 2620 2912 
Q 2579 3238 2480 3481 
Q 2381 3725 2214 3869 
Q 2048 4013 1805 4013 
Q 1562 4013 1395 3869 
Q 1229 3725 1129 3481 
Q 1030 3238 988 2912 
Q 947 2586 947 2221 
Q 947 1856 988 1529 
Q 1030 1203 1129 960 
Q 1229 717 1395 573 
Q 1562 429 1805 429 
Q 2048 429 2214 573 
Q 2381 717 2480 960 
Q 2579 1203 2620 1529 
Q 2662 1856 2662 2221 
z
" transform="scale(0.015625)"/>
       </defs>
       <use xlink:href="#Ubuntu-31"/>
       <use xlink:href="#Ubuntu-30" x="56.399994"/>
       <use xlink:href="#Ubuntu-30" x="112.799988"/>
       <use xlink:href="#Ubuntu-30" x="169.199982"/>
      </g>
     </g>
    </g>
    <g id="ytick_2">
     <g id="line2d_2">
      <g>
       <use xlink:href="#m22f0c65651" x="34.25" y="69.43975" style="fill: #aaaaaa; stroke: #aaaaaa; stroke-width: 0.75"/>
      </g>
     </g>
     <g id="text_2">
      <!-- 2000 -->
      <g style="fill: #808080" transform="translate(7.2 72.5435) scale(0.08 -0.08)">
       <defs>
        <path id="Ubuntu-32" d="M 2989 3302 
Q 2989 3072 2896 2857 
Q 2803 2643 2649 2435 
Q 2496 2227 2304 2025 
Q 2112 1824 1920 1632 
Q 1811 1523 1667 1376 
Q 1523 1229 1395 1069 
Q 1267 909 1180 761 
Q 1094 614 1094 506 
L 3136 506 
L 3136 0 
L 448 0 
Q 442 38 442 76 
Q 442 115 442 147 
Q 442 448 541 707 
Q 640 966 800 1196 
Q 960 1427 1158 1632 
Q 1357 1837 1549 2029 
Q 1709 2182 1853 2332 
Q 1997 2483 2109 2633 
Q 2221 2784 2288 2944 
Q 2355 3104 2355 3283 
Q 2355 3475 2294 3609 
Q 2234 3744 2131 3833 
Q 2029 3923 1891 3964 
Q 1754 4006 1600 4006 
Q 1414 4006 1260 3955 
Q 1107 3904 985 3837 
Q 864 3770 781 3696 
Q 698 3622 653 3584 
L 358 4006 
Q 416 4070 531 4163 
Q 646 4256 806 4339 
Q 966 4422 1164 4480 
Q 1363 4538 1594 4538 
Q 2291 4538 2640 4214 
Q 2989 3891 2989 3302 
z
" transform="scale(0.015625)"/>
       </defs>
       <use xlink:href="#Ubuntu-32"/>
       <use xlink:href="#Ubuntu-30" x="56.399994"/>
       <use xlink:href="#Ubuntu-30" x="112.799988"/>
       <use xlink:href="#Ubuntu-30" x="169.199982"/>
      </g>
     </g>
    </g>
    <g id="ytick_3">
     <g id="line2d_3">
      <g>
       <use xlink:href="#m22f0c65651" x="34.25" y="54.65575" style="fill: #aaaaaa; stroke: #aaaaaa; stroke-width: 0.75"/>
      </g>
     </g>
     <g id="text_3">
      <!-- 3000 -->
      <g style="fill: #808080" transform="translate(7.2 57.7595) scale(0.08 -0.08)">
       <defs>
        <path id="Ubuntu-33" d="M 1446 435 
Q 2016 435 2262 659 
Q 2509 883 2509 1261 
Q 2509 1504 2406 1670 
Q 2304 1837 2137 1936 
Q 1971 2035 1750 2076 
Q 1530 2118 1299 2118 
L 1146 2118 
L 1146 2605 
L 1357 2605 
Q 1517 2605 1686 2637 
Q 1856 2669 1997 2752 
Q 2138 2835 2227 2979 
Q 2317 3123 2317 3341 
Q 2317 3520 2253 3648 
Q 2189 3776 2083 3859 
Q 1978 3942 1840 3977 
Q 1702 4013 1549 4013 
Q 1242 4013 1027 3923 
Q 813 3834 666 3738 
L 435 4192 
Q 512 4243 630 4304 
Q 749 4365 896 4416 
Q 1043 4467 1212 4502 
Q 1382 4538 1568 4538 
Q 1920 4538 2176 4451 
Q 2432 4365 2598 4208 
Q 2765 4051 2848 3836 
Q 2931 3622 2931 3373 
Q 2931 3027 2732 2780 
Q 2534 2534 2253 2406 
Q 2426 2355 2586 2259 
Q 2746 2163 2864 2016 
Q 2982 1869 3056 1677 
Q 3130 1485 3130 1248 
Q 3130 960 3030 713 
Q 2931 467 2723 288 
Q 2515 109 2201 6 
Q 1888 -96 1459 -96 
Q 1293 -96 1117 -70 
Q 941 -45 787 -6 
Q 634 32 518 70 
Q 403 109 352 134 
L 467 653 
Q 576 602 829 518 
Q 1082 435 1446 435 
z
" transform="scale(0.015625)"/>
       </defs>
       <use xlink:href="#Ubuntu-33"/>
       <use xlink:href="#Ubuntu-30" x="56.399994"/>
       <use xlink:href="#Ubuntu-30" x="112.799988"/>
       <use xlink:href="#Ubuntu-30" x="169.199982"/>
      </g>
     </g>
    </g>
    <g id="ytick_4">
     <g id="line2d_4">
      <g>
       <use xlink:href="#m22f0c65651" x="34.25" y="39.87175" style="fill: #aaaaaa; stroke: #aaaaaa; stroke-width: 0.75"/>
      </g>
     </g>
     <g id="text_4">
      <!-- 4000 -->
      <g style="fill: #808080" transform="translate(7.2 42.9755) scale(0.08 -0.08)">
       <defs>
        <path id="Ubuntu-34" d="M 256 1536 
Q 378 1818 589 2192 
Q 800 2566 1065 2963 
Q 1331 3360 1635 3744 
Q 1939 4128 2246 4435 
L 2816 4435 
L 2816 1619 
L 3341 1619 
L 3341 1133 
L 2816 1133 
L 2816 0 
L 2240 0 
L 2240 1133 
L 256 1133 
L 256 1536 
z
M 2240 3731 
Q 2048 3526 1853 3273 
Q 1658 3021 1472 2745 
Q 1286 2470 1123 2182 
Q 960 1894 832 1619 
L 2240 1619 
L 2240 3731 
z
" transform="scale(0.015625)"/>
       </defs>
       <use xlink:href="#Ubuntu-34"/>
       <use xlink:href="#Ubuntu-30" x="56.399994"/>
       <use xlink:href="#Ubuntu-30" x="112.799988"/>
       <use xlink:href="#Ubuntu-30" x="169.199982"/>
      </g>
     </g>
    </g>
    <g id="ytick_5">
     <g id="line2d_5">
      <g>
       <use xlink:href="#m22f0c65651" x="34.25" y="25.08775" style="fill: #aaaaaa; stroke: #aaaaaa; stroke-width: 0.75"/>
      </g>
     </g>
     <g id="text_5">
      <!-- 5000 -->
      <g style="fill: #808080" transform="translate(7.2 28.1915) scale(0.08 -0.08)">
       <defs>
        <path id="Ubuntu-35" d="M 1274 2726 
Q 2240 2688 2691 2304 
Q 3142 1920 3142 1261 
Q 3142 966 3043 716 
Q 2944 467 2742 288 
Q 2541 109 2233 6 
Q 1926 -96 1504 -96 
Q 1338 -96 1165 -70 
Q 992 -45 845 -6 
Q 698 32 582 70 
Q 467 109 416 134 
L 531 653 
Q 640 602 886 518 
Q 1133 435 1491 435 
Q 1779 435 1974 499 
Q 2170 563 2291 672 
Q 2413 781 2467 925 
Q 2522 1069 2522 1229 
Q 2522 1472 2438 1661 
Q 2355 1850 2144 1978 
Q 1933 2106 1581 2173 
Q 1229 2240 691 2240 
Q 730 2554 752 2829 
Q 774 3104 793 3366 
Q 813 3629 825 3888 
Q 838 4147 851 4435 
L 2989 4435 
L 2989 3930 
L 1370 3930 
Q 1363 3834 1350 3670 
Q 1338 3507 1325 3331 
Q 1312 3155 1299 2988 
Q 1286 2822 1274 2726 
z
" transform="scale(0.015625)"/>
       </defs>
       <use xlink:href="#Ubuntu-35"/>
       <use xlink:href="#Ubuntu-30" x="56.399994"/>
       <use xlink:href="#Ubuntu-30" x="112.799988"/>
       <use xlink:href="#Ubuntu-30" x="169.199982"/>
      </g>
     </g>
    </g>
    <g id="ytick_6">
     <g id="line2d_6">
      <g>
       <use xlink:href="#m22f0c65651" x="34.25" y="10.30375" style="fill: #aaaaaa; stroke: #aaaaaa; stroke-width: 0.75"/>
      </g>
     </g>
     <g id="text_6">
      <!-- 6000 -->
      <g style="fill: #808080" transform="translate(7.2 13.4075) scale(0.08 -0.08)">
       <defs>
        <path id="Ubuntu-36" d="M 403 1779 
Q 403 2426 582 2922 
Q 762 3418 1091 3757 
Q 1421 4096 1891 4272 
Q 2362 4448 2950 4454 
L 2995 3955 
Q 2618 3949 2307 3872 
Q 1997 3795 1753 3628 
Q 1510 3462 1344 3196 
Q 1178 2931 1094 2541 
Q 1261 2618 1469 2669 
Q 1677 2720 1901 2720 
Q 2278 2720 2540 2605 
Q 2803 2490 2969 2301 
Q 3136 2112 3209 1865 
Q 3283 1619 3283 1350 
Q 3283 1107 3200 851 
Q 3117 595 2947 384 
Q 2778 173 2515 38 
Q 2253 -96 1894 -96 
Q 1165 -96 784 403 
Q 403 902 403 1779 
z
M 1837 2234 
Q 1613 2234 1421 2192 
Q 1229 2150 1037 2067 
Q 1030 1997 1027 1923 
Q 1024 1850 1024 1779 
Q 1024 1498 1062 1248 
Q 1101 998 1200 809 
Q 1299 621 1465 509 
Q 1632 397 1888 397 
Q 2099 397 2246 486 
Q 2394 576 2490 717 
Q 2586 858 2627 1021 
Q 2669 1184 2669 1338 
Q 2669 1773 2461 2003 
Q 2253 2234 1837 2234 
z
" transform="scale(0.015625)"/>
       </defs>
       <use xlink:href="#Ubuntu-36"/>
       <use xlink:href="#Ubuntu-30" x="56.399994"/>
       <use xlink:href="#Ubuntu-30" x="112.799988"/>
       <use xlink:href="#Ubuntu-30" x="169.199982"/>
      </g>
     </g>
    </g>
   </g>
   <g id="PathCollection_1">
    <defs>
     <path id="mb24d749b0d" d="M 0 0.790569 
C 0.209661 0.790569 0.410764 0.70727 0.559017 0.559017 
C 0.70727 0.410764 0.790569 0.209661 0.790569 0 
C 0.790569 -0.209661 0.70727 -0.410764 0.559017 -0.559017 
C 0.410764 -0.70727 0.209661 -0.790569 0 -0.790569 
C -0.209661 -0.790569 -0.410764 -0.70727 -0.559017 -0.559017 
C -0.70727 -0.410764 -0.790569 -0.209661 -0.790569 0 
C -0.790569 0.209661 -0.70727 0.410764 -0.559017 0.559017 
C -0.410764 0.70727 -0.209661 0.790569 0 0.790569 
z
" style="stroke: #fefefe"/>
    </defs>
    <g clip-path="url(#p159f97f679)">
     <use xlink:href="#mb24d749b0d" x="45.626471" y="46.897804" style="fill: #5b5b5b; stroke: #fefefe"/>
     <use xlink:href="#mb24d749b0d" x="94.253922" y="47.005474" style="fill: #5b5b5b; stroke: #fefefe"/>
     <use xlink:href="#mb24d749b0d" x="142.881373" y="46.788335" style="fill: #5b5b5b; stroke: #fefefe"/>
     <use xlink:href="#mb24d749b0d" x="191.508824" y="46.742686" style="fill: #5b5b5b; stroke: #fefefe"/>
     <use xlink:href="#mb24d749b0d" x="240.136275" y="46.74982" style="fill: #5b5b5b; stroke: #fefefe"/>
     <use xlink:href="#mb24d749b0d" x="288.763725" y="47.028812" style="fill: #5b5b5b; stroke: #fefefe"/>
     <use xlink:href="#mb24d749b0d" x="337.391176" y="47.005779" style="fill: #5b5b5b; stroke: #fefefe"/>
     <use xlink:href="#mb24d749b0d" x="386.018627" y="46.789186" style="fill: #5b5b5b; stroke: #fefefe"/>
     <use xlink:href="#mb24d749b0d" x="434.646078" y="46.76136" style="fill: #5b5b5b; stroke: #fefefe"/>
     <use xlink:href="#mb24d749b0d" x="483.273529" y="47.02832" style="fill: #5b5b5b; stroke: #fefefe"/>
    </g>
   </g>
   <g id="LineCollection_1">
    <path d="M 45.626471 72.048989 
L 45.626471 21.74662 
" clip-path="url(#p159f97f679)" style="fill: none; stroke: #5b5b5b; stroke-opacity: 0.75; stroke-width: 0.5"/>
    <path d="M 94.253922 72.232026 
L 94.253922 21.778921 
" clip-path="url(#p159f97f679)" style="fill: none; stroke: #5b5b5b; stroke-opacity: 0.75; stroke-width: 0.5"/>
    <path d="M 142.881373 71.787033 
L 142.881373 21.789637 
" clip-path="url(#p159f97f679)" style="fill: none; stroke: #5b5b5b; stroke-opacity: 0.75; stroke-width: 0.5"/>
    <path d="M 191.508824 71.826412 
L 191.508824 21.65896 
" clip-path="url(#p159f97f679)" style="fill: none; stroke: #5b5b5b; stroke-opacity: 0.75; stroke-width: 0.5"/>
    <path d="M 240.136275 71.855328 
L 240.136275 21.644313 
" clip-path="url(#p159f97f679)" style="fill: none; stroke: #5b5b5b; stroke-opacity: 0.75; stroke-width: 0.5"/>
    <path d="M 288.763725 72.354711 
L 288.763725 21.702913 
" clip-path="url(#p159f97f679)" style="fill: none; stroke: #5b5b5b; stroke-opacity: 0.75; stroke-width: 0.5"/>
    <path d="M 337.391176 72.230282 
L 337.391176 21.781277 
" clip-path="url(#p159f97f679)" style="fill: none; stroke: #5b5b5b; stroke-opacity: 0.75; stroke-width: 0.5"/>
    <path d="M 386.018627 71.78719 
L 386.018627 21.791183 
" clip-path="url(#p159f97f679)" style="fill: none; stroke: #5b5b5b; stroke-opacity: 0.75; stroke-width: 0.5"/>
    <path d="M 434.646078 71.87878 
L 434.646078 21.64394 
" clip-path="url(#p159f97f679)" style="fill: none; stroke: #5b5b5b; stroke-opacity: 0.75; stroke-width: 0.5"/>
    <path d="M 483.273529 72.353911 
L 483.273529 21.702729 
" clip-path="url(#p159f97f679)" style="fill: none; stroke: #5b5b5b; stroke-opacity: 0.75; stroke-width: 0.5"/>
   </g>
   <g id="line2d_7">
    <defs>
     <path id="m711f9efd97" d="M 1 0 
L -1 -0 
" style="stroke: #5b5b5b; stroke-opacity: 0.75"/>
    </defs>
    <g clip-path="url(#p159f97f679)">
     <use xlink:href="#m711f9efd97" x="45.626471" y="72.048989" style="fill: #5b5b5b; fill-opacity: 0.75; stroke: #5b5b5b; stroke-opacity: 0.75"/>
     <use xlink:href="#m711f9efd97" x="94.253922" y="72.232026" style="fill: #5b5b5b; fill-opacity: 0.75; stroke: #5b5b5b; stroke-opacity: 0.75"/>
     <use xlink:href="#m711f9efd97" x="142.881373" y="71.787033" style="fill: #5b5b5b; fill-opacity: 0.75; stroke: #5b5b5b; stroke-opacity: 0.75"/>
     <use xlink:href="#m711f9efd97" x="191.508824" y="71.826412" style="fill: #5b5b5b; fill-opacity: 0.75; stroke: #5b5b5b; stroke-opacity: 0.75"/>
     <use xlink:href="#m711f9efd97" x="240.136275" y="71.855328" style="fill: #5b5b5b; fill-opacity: 0.75; stroke: #5b5b5b; stroke-opacity: 0.75"/>
     <use xlink:href="#m711f9efd97" x="288.763725" y="72.354711" style="fill: #5b5b5b; fill-opacity: 0.75; stroke: #5b5b5b; stroke-opacity: 0.75"/>
     <use xlink:href="#m711f9efd97" x="337.391176" y="72.230282" style="fill: #5b5b5b; fill-opacity: 0.75; stroke: #5b5b5b; stroke-opacity: 0.75"/>
     <use xlink:href="#m711f9efd97" x="386.018627" y="71.78719" style="fill: #5b5b5b; fill-opacity: 0.75; stroke: #5b5b5b; stroke-opacity: 0.75"/>
     <use xlink:href="#m711f9efd97" x="434.646078" y="71.87878" style="fill: #5b5b5b; fill-opacity: 0.75; stroke: #5b5b5b; stroke-opacity: 0.75"/>
     <use xlink:href="#m711f9efd97" x="483.273529" y="72.353911" style="fill: #5b5b5b; fill-opacity: 0.75; stroke: #5b5b5b; stroke-opacity: 0.75"/>
    </g>
   </g>
   <g id="line2d_8">
    <g clip-path="url(#p159f97f679)">
     <use xlink:href="#m711f9efd97" x="45.626471" y="21.74662" style="fill: #5b5b5b; fill-opacity: 0.75; stroke: #5b5b5b; stroke-opacity: 0.75"/>
     <use xlink:href="#m711f9efd97" x="94.253922" y="21.778921" style="fill: #5b5b5b; fill-opacity: 0.75; stroke: #5b5b5b; stroke-opacity: 0.75"/>
     <use xlink:href="#m711f9efd97" x="142.881373" y="21.789637" style="fill: #5b5b5b; fill-opacity: 0.75; stroke: #5b5b5b; stroke-opacity: 0.75"/>
     <use xlink:href="#m711f9efd97" x="191.508824" y="21.65896" style="fill: #5b5b5b; fill-opacity: 0.75; stroke: #5b5b5b; stroke-opacity: 0.75"/>
     <use xlink:href="#m711f9efd97" x="240.136275" y="21.644313" style="fill: #5b5b5b; fill-opacity: 0.75; stroke: #5b5b5b; stroke-opacity: 0.75"/>
     <use xlink:href="#m711f9efd97" x="288.763725" y="21.702913" style="fill: #5b5b5b; fill-opacity: 0.75; stroke: #5b5b5b; stroke-opacity: 0.75"/>
     <use xlink:href="#m711f9efd97" x="337.391176" y="21.781277" style="fill: #5b5b5b; fill-opacity: 0.75; stroke: #5b5b5b; stroke-opacity: 0.75"/>
     <use xlink:href="#m711f9efd97" x="386.018627" y="21.791183" style="fill: #5b5b5b; fill-opacity: 0.75; stroke: #5b5b5b; stroke-opacity: 0.75"/>
     <use xlink:href="#m711f9efd97" x="434.646078" y="21.64394" style="fill: #5b5b5b; fill-opacity: 0.75; stroke: #5b5b5b; stroke-opacity: 0.75"/>
     <use xlink:href="#m711f9efd97" x="483.273529" y="21.702729" style="fill: #5b5b5b; fill-opacity: 0.75; stroke: #5b5b5b; stroke-opacity: 0.75"/>
    </g>
   </g>
   <g id="LineCollection_2">
    <path d="M 288.763725 72.354711 
L 288.763725 21.702913 
" clip-path="url(#p159f97f679)" style="fill: none; stroke: #cb4c41"/>
   </g>
   <g id="line2d_9">
    <defs>
     <path id="m3e8d7d41b3" d="M 1.5 0 
L -1.5 -0 
" style="stroke: #cb4c41"/>
    </defs>
    <g clip-path="url(#p159f97f679)">
     <use xlink:href="#m3e8d7d41b3" x="288.763725" y="72.354711" style="fill: #cb4c41; stroke: #cb4c41"/>
    </g>
   </g>
   <g id="line2d_10">
    <g clip-path="url(#p159f97f679)">
     <use xlink:href="#m3e8d7d41b3" x="288.763725" y="21.702913" style="fill: #cb4c41; stroke: #cb4c41"/>
    </g>
   </g>
   <g id="line2d_11"/>
   <g id="line2d_12">
    <defs>
     <path id="m6fc88f0a62" d="M 0 1 
C 0.265203 1 0.51958 0.894634 0.707107 0.707107 
C 0.894634 0.51958 1 0.265203 1 0 
C 1 -0.265203 0.894634 -0.51958 0.707107 -0.707107 
C 0.51958 -0.894634 0.265203 -1 0 -1 
C -0.265203 -1 -0.51958 -0.894634 -0.707107 -0.707107 
C -0.894634 -0.51958 -1 -0.265203 -1 0 
C -1 0.265203 -0.894634 0.51958 -0.707107 0.707107 
C -0.51958 0.894634 -0.265203 1 0 1 
z
" style="stroke: #cb4c41"/>
    </defs>
    <g clip-path="url(#p159f97f679)">
     <use xlink:href="#m6fc88f0a62" x="288.763725" y="47.028812" style="fill: #cb4c41; stroke: #cb4c41"/>
    </g>
   </g>
   <g id="patch_3">
    <path d="M 34.25 84.22375 
L 34.25 10.30375 
" style="fill: none; stroke: #aaaaaa; stroke-width: 0.75; stroke-linejoin: miter; stroke-linecap: square"/>
   </g>
  </g>
  <g id="axes_2">
   <g id="patch_4">
    <path d="M 41.25 176.62375 
L 487.65 176.62375 
L 487.65 102.70375 
L 41.25 102.70375 
L 41.25 176.62375 
z
" style="fill: none"/>
   </g>
   <g id="matplotlib.axis_3">
    <g id="xtick_11">
     <g id="line2d_13">
      <defs>
       <path id="m7b8a4462d5" d="M 0 0 
L 0 3 
" style="stroke: #aaaaaa; stroke-width: 0.75"/>
      </defs>
      <g>
       <use xlink:href="#m7b8a4462d5" x="49.35846" y="186.62375" style="fill: #aaaaaa; stroke: #aaaaaa; stroke-width: 0.75"/>
      </g>
     </g>
     <g id="text_7">
      <!-- model144 -->
      <g style="fill: #808080" transform="translate(51.72221 232.1375) rotate(-90) scale(0.08 -0.08)">
       <defs>
        <path id="Ubuntu-6d" d="M 512 3232 
Q 717 3283 1053 3340 
Q 1389 3398 1830 3398 
Q 2150 3398 2368 3312 
Q 2586 3226 2733 3059 
Q 2778 3091 2874 3148 
Q 2970 3206 3110 3260 
Q 3251 3315 3424 3356 
Q 3597 3398 3795 3398 
Q 4179 3398 4422 3286 
Q 4666 3174 4803 2969 
Q 4941 2765 4989 2483 
Q 5037 2202 5037 1869 
L 5037 0 
L 4442 0 
L 4442 1741 
Q 4442 2035 4413 2246 
Q 4384 2458 4304 2598 
Q 4224 2739 4086 2806 
Q 3949 2874 3731 2874 
Q 3430 2874 3235 2794 
Q 3040 2714 2970 2650 
Q 3021 2483 3046 2284 
Q 3072 2086 3072 1869 
L 3072 0 
L 2477 0 
L 2477 1741 
Q 2477 2035 2445 2246 
Q 2413 2458 2333 2598 
Q 2253 2739 2115 2806 
Q 1978 2874 1766 2874 
Q 1677 2874 1574 2867 
Q 1472 2861 1379 2851 
Q 1286 2842 1209 2829 
Q 1133 2816 1107 2810 
L 1107 0 
L 512 0 
L 512 3232 
z
" transform="scale(0.015625)"/>
        <path id="Ubuntu-6f" d="M 3450 1664 
Q 3450 1267 3334 947 
Q 3219 627 3011 396 
Q 2803 166 2515 41 
Q 2227 -83 1888 -83 
Q 1549 -83 1261 41 
Q 973 166 765 396 
Q 557 627 441 947 
Q 326 1267 326 1664 
Q 326 2054 441 2377 
Q 557 2701 765 2931 
Q 973 3162 1261 3286 
Q 1549 3411 1888 3411 
Q 2227 3411 2515 3286 
Q 2803 3162 3011 2931 
Q 3219 2701 3334 2377 
Q 3450 2054 3450 1664 
z
M 2829 1664 
Q 2829 2227 2576 2556 
Q 2323 2886 1888 2886 
Q 1453 2886 1200 2556 
Q 947 2227 947 1664 
Q 947 1101 1200 771 
Q 1453 442 1888 442 
Q 2323 442 2576 771 
Q 2829 1101 2829 1664 
z
" transform="scale(0.015625)"/>
        <path id="Ubuntu-64" d="M 2662 2624 
Q 2554 2714 2349 2797 
Q 2144 2880 1901 2880 
Q 1645 2880 1462 2787 
Q 1280 2694 1165 2531 
Q 1050 2368 998 2144 
Q 947 1920 947 1664 
Q 947 1082 1235 765 
Q 1523 448 2003 448 
Q 2246 448 2409 470 
Q 2573 493 2662 518 
L 2662 2624 
z
M 2662 4864 
L 3258 4966 
L 3258 96 
Q 3053 38 2733 -19 
Q 2413 -77 1997 -77 
Q 1613 -77 1305 44 
Q 998 166 780 390 
Q 563 614 444 937 
Q 326 1261 326 1664 
Q 326 2048 425 2368 
Q 525 2688 717 2918 
Q 909 3149 1187 3277 
Q 1466 3405 1824 3405 
Q 2112 3405 2333 3328 
Q 2554 3251 2662 3181 
L 2662 4864 
z
" transform="scale(0.015625)"/>
        <path id="Ubuntu-65" d="M 326 1658 
Q 326 2099 454 2428 
Q 582 2758 793 2976 
Q 1005 3194 1280 3302 
Q 1555 3411 1843 3411 
Q 2515 3411 2873 2992 
Q 3232 2573 3232 1715 
Q 3232 1677 3232 1616 
Q 3232 1555 3226 1504 
L 947 1504 
Q 986 986 1248 717 
Q 1510 448 2067 448 
Q 2381 448 2595 502 
Q 2810 557 2918 608 
L 3002 109 
Q 2893 51 2621 -13 
Q 2349 -77 2003 -77 
Q 1568 -77 1251 54 
Q 934 186 729 416 
Q 525 646 425 963 
Q 326 1280 326 1658 
z
M 2611 1984 
Q 2618 2387 2410 2646 
Q 2202 2906 1837 2906 
Q 1632 2906 1475 2826 
Q 1318 2746 1209 2618 
Q 1101 2490 1040 2323 
Q 979 2157 960 1984 
L 2611 1984 
z
" transform="scale(0.015625)"/>
        <path id="Ubuntu-6c" d="M 1510 -64 
Q 960 -51 729 173 
Q 499 397 499 870 
L 499 4864 
L 1094 4966 
L 1094 966 
Q 1094 819 1120 723 
Q 1146 627 1203 569 
Q 1261 512 1357 483 
Q 1453 454 1594 435 
L 1510 -64 
z
" transform="scale(0.015625)"/>
       </defs>
       <use xlink:href="#Ubuntu-6d"/>
       <use xlink:href="#Ubuntu-6f" x="86.099991"/>
       <use xlink:href="#Ubuntu-64" x="145.099976"/>
       <use xlink:href="#Ubuntu-65" x="203.999969"/>
       <use xlink:href="#Ubuntu-6c" x="259.899963"/>
       <use xlink:href="#Ubuntu-31" x="287.199951"/>
       <use xlink:href="#Ubuntu-34" x="343.599945"/>
       <use xlink:href="#Ubuntu-34" x="399.999939"/>
      </g>
     </g>
    </g>
    <g id="xtick_12">
     <g id="line2d_14">
      <g>
       <use xlink:href="#m7b8a4462d5" x="97.165704" y="186.62375" style="fill: #aaaaaa; stroke: #aaaaaa; stroke-width: 0.75"/>
      </g>
     </g>
     <g id="text_8">
      <!-- model145 -->
      <g style="fill: #808080" transform="translate(99.529454 232.1375) rotate(-90) scale(0.08 -0.08)">
       <use xlink:href="#Ubuntu-6d"/>
       <use xlink:href="#Ubuntu-6f" x="86.099991"/>
       <use xlink:href="#Ubuntu-64" x="145.099976"/>
       <use xlink:href="#Ubuntu-65" x="203.999969"/>
       <use xlink:href="#Ubuntu-6c" x="259.899963"/>
       <use xlink:href="#Ubuntu-31" x="287.199951"/>
       <use xlink:href="#Ubuntu-34" x="343.599945"/>
       <use xlink:href="#Ubuntu-35" x="399.999939"/>
      </g>
     </g>
    </g>
    <g id="xtick_13">
     <g id="line2d_15">
      <g>
       <use xlink:href="#m7b8a4462d5" x="144.972948" y="186.62375" style="fill: #aaaaaa; stroke: #aaaaaa; stroke-width: 0.75"/>
      </g>
     </g>
     <g id="text_9">
      <!-- model146 -->
      <g style="fill: #808080" transform="translate(147.336698 232.1375) rotate(-90) scale(0.08 -0.08)">
       <use xlink:href="#Ubuntu-6d"/>
       <use xlink:href="#Ubuntu-6f" x="86.099991"/>
       <use xlink:href="#Ubuntu-64" x="145.099976"/>
       <use xlink:href="#Ubuntu-65" x="203.999969"/>
       <use xlink:href="#Ubuntu-6c" x="259.899963"/>
       <use xlink:href="#Ubuntu-31" x="287.199951"/>
       <use xlink:href="#Ubuntu-34" x="343.599945"/>
       <use xlink:href="#Ubuntu-36" x="399.999939"/>
      </g>
     </g>
    </g>
    <g id="xtick_14">
     <g id="line2d_16">
      <g>
       <use xlink:href="#m7b8a4462d5" x="192.780193" y="186.62375" style="fill: #aaaaaa; stroke: #aaaaaa; stroke-width: 0.75"/>
      </g>
     </g>
     <g id="text_10">
      <!-- model147 -->
      <g style="fill: #808080" transform="translate(195.143943 232.1375) rotate(-90) scale(0.08 -0.08)">
       <defs>
        <path id="Ubuntu-37" d="M 1043 0 
Q 1082 512 1226 1078 
Q 1370 1645 1581 2179 
Q 1792 2714 2045 3171 
Q 2298 3629 2541 3917 
L 384 3917 
L 384 4435 
L 3206 4435 
L 3206 3942 
Q 2995 3699 2739 3273 
Q 2483 2848 2256 2320 
Q 2029 1792 1865 1193 
Q 1702 595 1664 0 
L 1043 0 
z
" transform="scale(0.015625)"/>
       </defs>
       <use xlink:href="#Ubuntu-6d"/>
       <use xlink:href="#Ubuntu-6f" x="86.099991"/>
       <use xlink:href="#Ubuntu-64" x="145.099976"/>
       <use xlink:href="#Ubuntu-65" x="203.999969"/>
       <use xlink:href="#Ubuntu-6c" x="259.899963"/>
       <use xlink:href="#Ubuntu-31" x="287.199951"/>
       <use xlink:href="#Ubuntu-34" x="343.599945"/>
       <use xlink:href="#Ubuntu-37" x="399.999939"/>
      </g>
     </g>
    </g>
    <g id="xtick_15">
     <g id="line2d_17">
      <g>
       <use xlink:href="#m7b8a4462d5" x="240.587437" y="186.62375" style="fill: #aaaaaa; stroke: #aaaaaa; stroke-width: 0.75"/>
      </g>
     </g>
     <g id="text_11">
      <!-- model148 -->
      <g style="fill: #808080" transform="translate(242.951187 232.1375) rotate(-90) scale(0.08 -0.08)">
       <defs>
        <path id="Ubuntu-38" d="M 3258 1152 
Q 3258 883 3165 656 
Q 3072 429 2889 259 
Q 2707 90 2432 -3 
Q 2157 -96 1798 -96 
Q 1382 -96 1104 22 
Q 826 141 659 320 
Q 493 499 422 713 
Q 352 928 352 1120 
Q 352 1306 413 1475 
Q 474 1645 573 1792 
Q 672 1939 803 2057 
Q 934 2176 1082 2266 
Q 454 2624 454 3322 
Q 454 3565 550 3785 
Q 646 4006 822 4172 
Q 998 4339 1248 4438 
Q 1498 4538 1805 4538 
Q 2163 4538 2419 4429 
Q 2675 4320 2838 4150 
Q 3002 3981 3075 3776 
Q 3149 3571 3149 3379 
Q 3149 3194 3094 3030 
Q 3040 2867 2947 2726 
Q 2854 2586 2736 2477 
Q 2618 2368 2490 2285 
Q 3245 1926 3258 1152 
z
M 954 1114 
Q 954 998 995 873 
Q 1037 749 1139 643 
Q 1242 538 1402 467 
Q 1562 397 1805 397 
Q 2022 397 2185 461 
Q 2349 525 2451 624 
Q 2554 723 2605 851 
Q 2656 979 2656 1114 
Q 2656 1318 2579 1472 
Q 2502 1626 2358 1741 
Q 2214 1856 2012 1936 
Q 1811 2016 1555 2074 
Q 1267 1914 1110 1677 
Q 954 1440 954 1114 
z
M 2554 3386 
Q 2554 3482 2512 3597 
Q 2470 3712 2380 3811 
Q 2291 3910 2150 3977 
Q 2010 4045 1805 4045 
Q 1600 4045 1456 3981 
Q 1312 3917 1222 3817 
Q 1133 3718 1091 3600 
Q 1050 3482 1050 3366 
Q 1050 3226 1101 3085 
Q 1152 2944 1261 2822 
Q 1370 2701 1546 2605 
Q 1722 2509 1965 2451 
Q 2234 2611 2394 2825 
Q 2554 3040 2554 3386 
z
" transform="scale(0.015625)"/>
       </defs>
       <use xlink:href="#Ubuntu-6d"/>
       <use xlink:href="#Ubuntu-6f" x="86.099991"/>
       <use xlink:href="#Ubuntu-64" x="145.099976"/>
       <use xlink:href="#Ubuntu-65" x="203.999969"/>
       <use xlink:href="#Ubuntu-6c" x="259.899963"/>
       <use xlink:href="#Ubuntu-31" x="287.199951"/>
       <use xlink:href="#Ubuntu-34" x="343.599945"/>
       <use xlink:href="#Ubuntu-38" x="399.999939"/>
      </g>
     </g>
    </g>
    <g id="xtick_16">
     <g id="line2d_18">
      <g>
       <use xlink:href="#m7b8a4462d5" x="288.394682" y="186.62375" style="fill: #aaaaaa; stroke: #aaaaaa; stroke-width: 0.75"/>
      </g>
     </g>
     <g id="text_12">
      <!-- model149 -->
      <g style="fill: #808080" transform="translate(290.758432 232.1375) rotate(-90) scale(0.08 -0.08)">
       <defs>
        <path id="Ubuntu-39" d="M 3206 2662 
Q 3206 1344 2550 669 
Q 1894 -6 602 -13 
L 582 486 
Q 986 486 1309 563 
Q 1632 640 1875 809 
Q 2118 979 2281 1248 
Q 2445 1517 2522 1907 
Q 2355 1830 2144 1782 
Q 1933 1734 1709 1734 
Q 1331 1734 1068 1846 
Q 806 1958 640 2147 
Q 474 2336 400 2582 
Q 326 2829 326 3098 
Q 326 3334 409 3590 
Q 493 3846 662 4057 
Q 832 4269 1094 4403 
Q 1357 4538 1715 4538 
Q 2080 4538 2358 4410 
Q 2637 4282 2825 4038 
Q 3014 3795 3110 3446 
Q 3206 3098 3206 2662 
z
M 1773 2221 
Q 1997 2221 2195 2262 
Q 2394 2304 2579 2387 
Q 2586 2458 2586 2525 
Q 2586 2592 2586 2662 
Q 2586 2938 2547 3190 
Q 2509 3443 2409 3632 
Q 2310 3821 2144 3933 
Q 1978 4045 1722 4045 
Q 1510 4045 1363 3955 
Q 1216 3866 1120 3728 
Q 1024 3590 982 3427 
Q 941 3264 941 3110 
Q 941 2675 1149 2448 
Q 1357 2221 1773 2221 
z
" transform="scale(0.015625)"/>
       </defs>
       <use xlink:href="#Ubuntu-6d"/>
       <use xlink:href="#Ubuntu-6f" x="86.099991"/>
       <use xlink:href="#Ubuntu-64" x="145.099976"/>
       <use xlink:href="#Ubuntu-65" x="203.999969"/>
       <use xlink:href="#Ubuntu-6c" x="259.899963"/>
       <use xlink:href="#Ubuntu-31" x="287.199951"/>
       <use xlink:href="#Ubuntu-34" x="343.599945"/>
       <use xlink:href="#Ubuntu-39" x="399.999939"/>
      </g>
     </g>
    </g>
    <g id="xtick_17">
     <g id="line2d_19">
      <g>
       <use xlink:href="#m7b8a4462d5" x="336.201926" y="186.62375" style="fill: #aaaaaa; stroke: #aaaaaa; stroke-width: 0.75"/>
      </g>
     </g>
     <g id="text_13">
      <!-- model151 -->
      <g style="fill: #808080" transform="translate(338.565676 232.1375) rotate(-90) scale(0.08 -0.08)">
       <use xlink:href="#Ubuntu-6d"/>
       <use xlink:href="#Ubuntu-6f" x="86.099991"/>
       <use xlink:href="#Ubuntu-64" x="145.099976"/>
       <use xlink:href="#Ubuntu-65" x="203.999969"/>
       <use xlink:href="#Ubuntu-6c" x="259.899963"/>
       <use xlink:href="#Ubuntu-31" x="287.199951"/>
       <use xlink:href="#Ubuntu-35" x="343.599945"/>
       <use xlink:href="#Ubuntu-31" x="399.999939"/>
      </g>
     </g>
    </g>
    <g id="xtick_18">
     <g id="line2d_20">
      <g>
       <use xlink:href="#m7b8a4462d5" x="384.00917" y="186.62375" style="fill: #aaaaaa; stroke: #aaaaaa; stroke-width: 0.75"/>
      </g>
     </g>
     <g id="text_14">
      <!-- model152 -->
      <g style="fill: #808080" transform="translate(386.37292 232.1375) rotate(-90) scale(0.08 -0.08)">
       <use xlink:href="#Ubuntu-6d"/>
       <use xlink:href="#Ubuntu-6f" x="86.099991"/>
       <use xlink:href="#Ubuntu-64" x="145.099976"/>
       <use xlink:href="#Ubuntu-65" x="203.999969"/>
       <use xlink:href="#Ubuntu-6c" x="259.899963"/>
       <use xlink:href="#Ubuntu-31" x="287.199951"/>
       <use xlink:href="#Ubuntu-35" x="343.599945"/>
       <use xlink:href="#Ubuntu-32" x="399.999939"/>
      </g>
     </g>
    </g>
    <g id="xtick_19">
     <g id="line2d_21">
      <g>
       <use xlink:href="#m7b8a4462d5" x="431.816415" y="186.62375" style="fill: #aaaaaa; stroke: #aaaaaa; stroke-width: 0.75"/>
      </g>
     </g>
     <g id="text_15">
      <!-- model154 -->
      <g style="fill: #808080" transform="translate(434.180165 232.1375) rotate(-90) scale(0.08 -0.08)">
       <use xlink:href="#Ubuntu-6d"/>
       <use xlink:href="#Ubuntu-6f" x="86.099991"/>
       <use xlink:href="#Ubuntu-64" x="145.099976"/>
       <use xlink:href="#Ubuntu-65" x="203.999969"/>
       <use xlink:href="#Ubuntu-6c" x="259.899963"/>
       <use xlink:href="#Ubuntu-31" x="287.199951"/>
       <use xlink:href="#Ubuntu-35" x="343.599945"/>
       <use xlink:href="#Ubuntu-34" x="399.999939"/>
      </g>
     </g>
    </g>
    <g id="xtick_20">
     <g id="line2d_22">
      <g>
       <use xlink:href="#m7b8a4462d5" x="479.623659" y="186.62375" style="fill: #aaaaaa; stroke: #aaaaaa; stroke-width: 0.75"/>
      </g>
     </g>
     <g id="text_16">
      <!-- model155 -->
      <g style="fill: #808080" transform="translate(481.987409 232.1375) rotate(-90) scale(0.08 -0.08)">
       <use xlink:href="#Ubuntu-6d"/>
       <use xlink:href="#Ubuntu-6f" x="86.099991"/>
       <use xlink:href="#Ubuntu-64" x="145.099976"/>
       <use xlink:href="#Ubuntu-65" x="203.999969"/>
       <use xlink:href="#Ubuntu-6c" x="259.899963"/>
       <use xlink:href="#Ubuntu-31" x="287.199951"/>
       <use xlink:href="#Ubuntu-35" x="343.599945"/>
       <use xlink:href="#Ubuntu-35" x="399.999939"/>
      </g>
     </g>
    </g>
   </g>
   <g id="matplotlib.axis_4">
    <g id="ytick_7">
     <g id="line2d_23">
      <g>
       <use xlink:href="#m22f0c65651" x="34.25" y="176.62375" style="fill: #aaaaaa; stroke: #aaaaaa; stroke-width: 0.75"/>
      </g>
     </g>
     <g id="text_17">
      <!-- 0 -->
      <g style="fill: #808080" transform="translate(20.7375 179.7275) scale(0.08 -0.08)">
       <use xlink:href="#Ubuntu-30"/>
      </g>
     </g>
    </g>
    <g id="ytick_8">
     <g id="line2d_24">
      <g>
       <use xlink:href="#m22f0c65651" x="34.25" y="158.14375" style="fill: #aaaaaa; stroke: #aaaaaa; stroke-width: 0.75"/>
      </g>
     </g>
     <g id="text_18">
      <!-- 2000 -->
      <g style="fill: #808080" transform="translate(7.2 161.2475) scale(0.08 -0.08)">
       <use xlink:href="#Ubuntu-32"/>
       <use xlink:href="#Ubuntu-30" x="56.399994"/>
       <use xlink:href="#Ubuntu-30" x="112.799988"/>
       <use xlink:href="#Ubuntu-30" x="169.199982"/>
      </g>
     </g>
    </g>
    <g id="ytick_9">
     <g id="line2d_25">
      <g>
       <use xlink:href="#m22f0c65651" x="34.25" y="139.66375" style="fill: #aaaaaa; stroke: #aaaaaa; stroke-width: 0.75"/>
      </g>
     </g>
     <g id="text_19">
      <!-- 4000 -->
      <g style="fill: #808080" transform="translate(7.2 142.7675) scale(0.08 -0.08)">
       <use xlink:href="#Ubuntu-34"/>
       <use xlink:href="#Ubuntu-30" x="56.399994"/>
       <use xlink:href="#Ubuntu-30" x="112.799988"/>
       <use xlink:href="#Ubuntu-30" x="169.199982"/>
      </g>
     </g>
    </g>
    <g id="ytick_10">
     <g id="line2d_26">
      <g>
       <use xlink:href="#m22f0c65651" x="34.25" y="121.18375" style="fill: #aaaaaa; stroke: #aaaaaa; stroke-width: 0.75"/>
      </g>
     </g>
     <g id="text_20">
      <!-- 6000 -->
      <g style="fill: #808080" transform="translate(7.2 124.2875) scale(0.08 -0.08)">
       <use xlink:href="#Ubuntu-36"/>
       <use xlink:href="#Ubuntu-30" x="56.399994"/>
       <use xlink:href="#Ubuntu-30" x="112.799988"/>
       <use xlink:href="#Ubuntu-30" x="169.199982"/>
      </g>
     </g>
    </g>
    <g id="ytick_11">
     <g id="line2d_27">
      <g>
       <use xlink:href="#m22f0c65651" x="34.25" y="102.70375" style="fill: #aaaaaa; stroke: #aaaaaa; stroke-width: 0.75"/>
      </g>
     </g>
     <g id="text_21">
      <!-- 8000 -->
      <g style="fill: #808080" transform="translate(7.2 105.8075) scale(0.08 -0.08)">
       <use xlink:href="#Ubuntu-38"/>
       <use xlink:href="#Ubuntu-30" x="56.399994"/>
       <use xlink:href="#Ubuntu-30" x="112.799988"/>
       <use xlink:href="#Ubuntu-30" x="169.199982"/>
      </g>
     </g>
    </g>
   </g>
   <g id="patch_5">
    <path d="M 34.25 176.62375 
L 34.25 102.70375 
" style="fill: none; stroke: #aaaaaa; stroke-width: 0.75; stroke-linejoin: miter; stroke-linecap: square"/>
   </g>
   <g id="patch_6">
    <path d="M 49.35846 186.62375 
L 479.623659 186.62375 
" style="fill: none; stroke: #aaaaaa; stroke-width: 0.75; stroke-linejoin: miter; stroke-linecap: square"/>
   </g>
   <g id="PathCollection_2">
    <defs>
     <path id="m2f47198f5e" d="M 0 1.25 
C 0.331504 1.25 0.649475 1.118292 0.883883 0.883883 
C 1.118292 0.649475 1.25 0.331504 1.25 0 
C 1.25 -0.331504 1.118292 -0.649475 0.883883 -0.883883 
C 0.649475 -1.118292 0.331504 -1.25 0 -1.25 
C -0.331504 -1.25 -0.649475 -1.118292 -0.883883 -0.883883 
C -1.118292 -0.649475 -1.25 -0.331504 -1.25 0 
C -1.25 0.331504 -1.118292 0.649475 -0.883883 0.883883 
C -0.649475 1.118292 -0.331504 1.25 0 1.25 
z
"/>
    </defs>
    <g clip-path="url(#pa8aa4b0732)">
     <use xlink:href="#m2f47198f5e" x="48.253675" y="159.018597" style="fill: #909090"/>
     <use xlink:href="#m2f47198f5e" x="45.627497" y="156.449105" style="fill: #909090"/>
     <use xlink:href="#m2f47198f5e" x="48.024354" y="149.343923" style="fill: #909090"/>
     <use xlink:href="#m2f47198f5e" x="46.337173" y="132.732682" style="fill: #909090"/>
     <use xlink:href="#m2f47198f5e" x="45.626471" y="122.730862" style="fill: #909090"/>
    </g>
   </g>
   <g id="PathCollection_3">
    <g clip-path="url(#pa8aa4b0732)">
     <use xlink:href="#m2f47198f5e" x="96.453718" y="158.79323" style="fill: #909090"/>
     <use xlink:href="#m2f47198f5e" x="97.119885" y="156.826513" style="fill: #909090"/>
     <use xlink:href="#m2f47198f5e" x="100.341171" y="149.557886" style="fill: #909090"/>
     <use xlink:href="#m2f47198f5e" x="96.646981" y="132.711793" style="fill: #909090"/>
     <use xlink:href="#m2f47198f5e" x="96.273155" y="122.722215" style="fill: #909090"/>
    </g>
   </g>
   <g id="PathCollection_4">
    <g clip-path="url(#pa8aa4b0732)">
     <use xlink:href="#m2f47198f5e" x="145.883248" y="158.041157" style="fill: #909090"/>
     <use xlink:href="#m2f47198f5e" x="141.941355" y="157.029529" style="fill: #909090"/>
     <use xlink:href="#m2f47198f5e" x="143.573748" y="149.433127" style="fill: #909090"/>
     <use xlink:href="#m2f47198f5e" x="143.371263" y="132.694279" style="fill: #909090"/>
     <use xlink:href="#m2f47198f5e" x="144.439282" y="122.734987" style="fill: #909090"/>
    </g>
   </g>
   <g id="PathCollection_5">
    <g clip-path="url(#pa8aa4b0732)">
     <use xlink:href="#m2f47198f5e" x="194.135399" y="158.055575" style="fill: #909090"/>
     <use xlink:href="#m2f47198f5e" x="193.79209" y="157.0743" style="fill: #909090"/>
     <use xlink:href="#m2f47198f5e" x="194.672822" y="149.366358" style="fill: #909090"/>
     <use xlink:href="#m2f47198f5e" x="189.056408" y="132.696554" style="fill: #909090"/>
     <use xlink:href="#m2f47198f5e" x="195.291532" y="122.597637" style="fill: #909090"/>
    </g>
   </g>
   <g id="PathCollection_6">
    <g clip-path="url(#pa8aa4b0732)">
     <use xlink:href="#m2f47198f5e" x="238.970713" y="158.121737" style="fill: #909090"/>
     <use xlink:href="#m2f47198f5e" x="238.772511" y="157.04319" style="fill: #909090"/>
     <use xlink:href="#m2f47198f5e" x="239.065393" y="149.371299" style="fill: #909090"/>
     <use xlink:href="#m2f47198f5e" x="236.712909" y="132.688823" style="fill: #909090"/>
     <use xlink:href="#m2f47198f5e" x="241.817376" y="122.587671" style="fill: #909090"/>
    </g>
   </g>
   <g id="PathCollection_7">
    <g clip-path="url(#pa8aa4b0732)">
     <use xlink:href="#m2f47198f5e" x="284.035137" y="158.752744" style="fill: #909090"/>
     <use xlink:href="#m2f47198f5e" x="285.705798" y="157.08482" style="fill: #909090"/>
     <use xlink:href="#m2f47198f5e" x="288.496977" y="149.497092" style="fill: #909090"/>
     <use xlink:href="#m2f47198f5e" x="286.824327" y="132.684696" style="fill: #909090"/>
     <use xlink:href="#m2f47198f5e" x="289.897147" y="122.665217" style="fill: #909090"/>
    </g>
   </g>
   <g id="PathCollection_8">
    <g clip-path="url(#pa8aa4b0732)">
     <use xlink:href="#m2f47198f5e" x="333.220241" y="158.790534" style="fill: #909090"/>
     <use xlink:href="#m2f47198f5e" x="336.60925" y="156.826529" style="fill: #909090"/>
     <use xlink:href="#m2f47198f5e" x="340.972075" y="149.557887" style="fill: #909090"/>
     <use xlink:href="#m2f47198f5e" x="337.515696" y="132.715426" style="fill: #909090"/>
     <use xlink:href="#m2f47198f5e" x="333.880927" y="122.722216" style="fill: #909090"/>
    </g>
   </g>
   <g id="PathCollection_9">
    <g clip-path="url(#pa8aa4b0732)">
     <use xlink:href="#m2f47198f5e" x="379.3438" y="158.040954" style="fill: #909090"/>
     <use xlink:href="#m2f47198f5e" x="384.86865" y="157.029701" style="fill: #909090"/>
     <use xlink:href="#m2f47198f5e" x="382.315891" y="149.434044" style="fill: #909090"/>
     <use xlink:href="#m2f47198f5e" x="379.97859" y="132.694899" style="fill: #909090"/>
     <use xlink:href="#m2f47198f5e" x="383.123657" y="122.736141" style="fill: #909090"/>
    </g>
   </g>
   <g id="PathCollection_10">
    <g clip-path="url(#pa8aa4b0732)">
     <use xlink:href="#m2f47198f5e" x="429.968015" y="158.157259" style="fill: #909090"/>
     <use xlink:href="#m2f47198f5e" x="432.683611" y="157.043309" style="fill: #909090"/>
     <use xlink:href="#m2f47198f5e" x="428.51296" y="149.371324" style="fill: #909090"/>
     <use xlink:href="#m2f47198f5e" x="435.140869" y="132.68592" style="fill: #909090"/>
     <use xlink:href="#m2f47198f5e" x="429.085704" y="122.590969" style="fill: #909090"/>
    </g>
   </g>
   <g id="PathCollection_11">
    <g clip-path="url(#pa8aa4b0732)">
     <use xlink:href="#m2f47198f5e" x="480.910147" y="158.751453" style="fill: #909090"/>
     <use xlink:href="#m2f47198f5e" x="481.493989" y="157.08489" style="fill: #909090"/>
     <use xlink:href="#m2f47198f5e" x="476.155124" y="149.497093" style="fill: #909090"/>
     <use xlink:href="#m2f47198f5e" x="475.14065" y="132.68459" style="fill: #909090"/>
     <use xlink:href="#m2f47198f5e" x="483.273529" y="122.665005" style="fill: #909090"/>
    </g>
   </g>
  </g>
 </g>
 <defs>
  <clipPath id="p159f97f679">
   <rect x="41.25" y="10.30375" width="446.4" height="73.92"/>
  </clipPath>
  <clipPath id="pa8aa4b0732">
   <rect x="41.25" y="102.70375" width="446.4" height="73.92"/>
  </clipPath>
 </defs>
</svg>
