<?xml version="1.0" encoding="utf-8" standalone="no"?>
<!DOCTYPE svg PUBLIC "-//W3C//DTD SVG 1.1//EN"
  "http://www.w3.org/Graphics/SVG/1.1/DTD/svg11.dtd">
<svg xmlns:xlink="http://www.w3.org/1999/xlink" width="499.609091pt" height="166.866875pt" viewBox="0 0 499.609091 166.866875" xmlns="http://www.w3.org/2000/svg" version="1.1">
 <metadata>
  <rdf:RDF xmlns:dc="http://purl.org/dc/elements/1.1/" xmlns:cc="http://creativecommons.org/ns#" xmlns:rdf="http://www.w3.org/1999/02/22-rdf-syntax-ns#">
   <cc:Work>
    <dc:type rdf:resource="http://purl.org/dc/dcmitype/StillImage"/>
    <dc:date>2024-04-26T09:04:48.738762</dc:date>
    <dc:format>image/svg+xml</dc:format>
    <dc:creator>
     <cc:Agent>
      <dc:title>Matplotlib v3.8.3, https://matplotlib.org/</dc:title>
     </cc:Agent>
    </dc:creator>
   </cc:Work>
  </rdf:RDF>
 </metadata>
 <defs>
  <style type="text/css">*{stroke-linejoin: round; stroke-linecap: butt}</style>
 </defs>
 <g id="figure_1">
  <g id="patch_1">
   <path d="M 0 166.866875 
L 499.609091 166.866875 
L 499.609091 0 
L 0 0 
L 0 166.866875 
z
" style="fill: none"/>
  </g>
  <g id="axes_1">
   <g id="patch_2">
    <path d="M 45.775 126.979375 
L 492.175 126.979375 
L 492.175 29.959375 
L 45.775 29.959375 
L 45.775 126.979375 
z
" style="fill: none"/>
   </g>
   <g id="axes_2">
    <g id="patch_3">
     <path d="M 45.775 126.979375 
L 492.175 126.979375 
L 492.175 126.979375 
L 45.775 126.979375 
L 45.775 126.979375 
z
" style="fill: none"/>
    </g>
    <g id="matplotlib.axis_1">
     <g id="xtick_1">
      <g id="line2d_1">
       <path d="M 50.151471 126.979375 
L 50.151471 126.979375 
" clip-path="url(#p21baf29eba)" style="fill: none; stroke-dasharray: 0.5,0.825; stroke-dashoffset: 0; stroke: #d9d9d9; stroke-width: 0.5"/>
      </g>
      <g id="text_1">
       <!-- 6 -->
       <g style="fill: #808080" transform="translate(47.895221 158.186875) scale(0.08 -0.08)">
        <defs>
         <path id="Ubuntu-36" d="M 403 1779 
Q 403 2426 582 2922 
Q 762 3418 1091 3757 
Q 1421 4096 1891 4272 
Q 2362 4448 2950 4454 
L 2995 3955 
Q 2618 3949 2307 3872 
Q 1997 3795 1753 3628 
Q 1510 3462 1344 3196 
Q 1178 2931 1094 2541 
Q 1261 2618 1469 2669 
Q 1677 2720 1901 2720 
Q 2278 2720 2540 2605 
Q 2803 2490 2969 2301 
Q 3136 2112 3209 1865 
Q 3283 1619 3283 1350 
Q 3283 1107 3200 851 
Q 3117 595 2947 384 
Q 2778 173 2515 38 
Q 2253 -96 1894 -96 
Q 1165 -96 784 403 
Q 403 902 403 1779 
z
M 1837 2234 
Q 1613 2234 1421 2192 
Q 1229 2150 1037 2067 
Q 1030 1997 1027 1923 
Q 1024 1850 1024 1779 
Q 1024 1498 1062 1248 
Q 1101 998 1200 809 
Q 1299 621 1465 509 
Q 1632 397 1888 397 
Q 2099 397 2246 486 
Q 2394 576 2490 717 
Q 2586 858 2627 1021 
Q 2669 1184 2669 1338 
Q 2669 1773 2461 2003 
Q 2253 2234 1837 2234 
z
" transform="scale(0.015625)"/>
        </defs>
        <use xlink:href="#Ubuntu-36"/>
       </g>
      </g>
     </g>
     <g id="xtick_2">
      <g id="line2d_2">
       <path d="M 64.272281 126.979375 
L 64.272281 126.979375 
" clip-path="url(#p21baf29eba)" style="fill: none; stroke-dasharray: 0.5,0.825; stroke-dashoffset: 0; stroke: #d9d9d9; stroke-width: 0.5"/>
      </g>
      <g id="text_2">
       <!-- 0 -->
       <g style="fill: #808080" transform="translate(62.016031 158.186875) scale(0.08 -0.08)">
        <defs>
         <path id="Ubuntu-30" d="M 320 2221 
Q 320 3334 713 3936 
Q 1107 4538 1805 4538 
Q 2502 4538 2896 3936 
Q 3290 3334 3290 2221 
Q 3290 1107 2896 505 
Q 2502 -96 1805 -96 
Q 1107 -96 713 505 
Q 320 1107 320 2221 
z
M 2662 2221 
Q 2662 2586 2620 2912 
Q 2579 3238 2480 3481 
Q 2381 3725 2214 3869 
Q 2048 4013 1805 4013 
Q 1562 4013 1395 3869 
Q 1229 3725 1129 3481 
Q 1030 3238 988 2912 
Q 947 2586 947 2221 
Q 947 1856 988 1529 
Q 1030 1203 1129 960 
Q 1229 717 1395 573 
Q 1562 429 1805 429 
Q 2048 429 2214 573 
Q 2381 717 2480 960 
Q 2579 1203 2620 1529 
Q 2662 1856 2662 2221 
z
" transform="scale(0.015625)"/>
        </defs>
        <use xlink:href="#Ubuntu-30"/>
       </g>
      </g>
     </g>
     <g id="xtick_3">
      <g id="line2d_3">
       <path d="M 78.393091 126.979375 
L 78.393091 126.979375 
" clip-path="url(#p21baf29eba)" style="fill: none; stroke-dasharray: 0.5,0.825; stroke-dashoffset: 0; stroke: #d9d9d9; stroke-width: 0.5"/>
      </g>
      <g id="text_3">
       <!-- 1 -->
       <g style="fill: #808080" transform="translate(76.136841 158.186875) scale(0.08 -0.08)">
        <defs>
         <path id="Ubuntu-31" d="M 595 3520 
Q 960 3661 1305 3881 
Q 1651 4102 1939 4435 
L 2362 4435 
L 2362 0 
L 1766 0 
L 1766 3610 
Q 1690 3539 1578 3462 
Q 1466 3386 1334 3315 
Q 1203 3245 1059 3181 
Q 915 3117 781 3072 
L 595 3520 
z
" transform="scale(0.015625)"/>
        </defs>
        <use xlink:href="#Ubuntu-31"/>
       </g>
      </g>
     </g>
     <g id="xtick_4">
      <g id="line2d_4">
       <path d="M 92.513902 126.979375 
L 92.513902 126.979375 
" clip-path="url(#p21baf29eba)" style="fill: none; stroke-dasharray: 0.5,0.825; stroke-dashoffset: 0; stroke: #d9d9d9; stroke-width: 0.5"/>
      </g>
      <g id="text_4">
       <!-- 2 -->
       <g style="fill: #808080" transform="translate(90.257652 158.186875) scale(0.08 -0.08)">
        <defs>
         <path id="Ubuntu-32" d="M 2989 3302 
Q 2989 3072 2896 2857 
Q 2803 2643 2649 2435 
Q 2496 2227 2304 2025 
Q 2112 1824 1920 1632 
Q 1811 1523 1667 1376 
Q 1523 1229 1395 1069 
Q 1267 909 1180 761 
Q 1094 614 1094 506 
L 3136 506 
L 3136 0 
L 448 0 
Q 442 38 442 76 
Q 442 115 442 147 
Q 442 448 541 707 
Q 640 966 800 1196 
Q 960 1427 1158 1632 
Q 1357 1837 1549 2029 
Q 1709 2182 1853 2332 
Q 1997 2483 2109 2633 
Q 2221 2784 2288 2944 
Q 2355 3104 2355 3283 
Q 2355 3475 2294 3609 
Q 2234 3744 2131 3833 
Q 2029 3923 1891 3964 
Q 1754 4006 1600 4006 
Q 1414 4006 1260 3955 
Q 1107 3904 985 3837 
Q 864 3770 781 3696 
Q 698 3622 653 3584 
L 358 4006 
Q 416 4070 531 4163 
Q 646 4256 806 4339 
Q 966 4422 1164 4480 
Q 1363 4538 1594 4538 
Q 2291 4538 2640 4214 
Q 2989 3891 2989 3302 
z
" transform="scale(0.015625)"/>
        </defs>
        <use xlink:href="#Ubuntu-32"/>
       </g>
      </g>
     </g>
     <g id="xtick_5">
      <g id="line2d_5">
       <path d="M 106.634712 126.979375 
L 106.634712 126.979375 
" clip-path="url(#p21baf29eba)" style="fill: none; stroke-dasharray: 0.5,0.825; stroke-dashoffset: 0; stroke: #d9d9d9; stroke-width: 0.5"/>
      </g>
      <g id="text_5">
       <!-- 3 -->
       <g style="fill: #808080" transform="translate(104.378462 158.186875) scale(0.08 -0.08)">
        <defs>
         <path id="Ubuntu-33" d="M 1446 435 
Q 2016 435 2262 659 
Q 2509 883 2509 1261 
Q 2509 1504 2406 1670 
Q 2304 1837 2137 1936 
Q 1971 2035 1750 2076 
Q 1530 2118 1299 2118 
L 1146 2118 
L 1146 2605 
L 1357 2605 
Q 1517 2605 1686 2637 
Q 1856 2669 1997 2752 
Q 2138 2835 2227 2979 
Q 2317 3123 2317 3341 
Q 2317 3520 2253 3648 
Q 2189 3776 2083 3859 
Q 1978 3942 1840 3977 
Q 1702 4013 1549 4013 
Q 1242 4013 1027 3923 
Q 813 3834 666 3738 
L 435 4192 
Q 512 4243 630 4304 
Q 749 4365 896 4416 
Q 1043 4467 1212 4502 
Q 1382 4538 1568 4538 
Q 1920 4538 2176 4451 
Q 2432 4365 2598 4208 
Q 2765 4051 2848 3836 
Q 2931 3622 2931 3373 
Q 2931 3027 2732 2780 
Q 2534 2534 2253 2406 
Q 2426 2355 2586 2259 
Q 2746 2163 2864 2016 
Q 2982 1869 3056 1677 
Q 3130 1485 3130 1248 
Q 3130 960 3030 713 
Q 2931 467 2723 288 
Q 2515 109 2201 6 
Q 1888 -96 1459 -96 
Q 1293 -96 1117 -70 
Q 941 -45 787 -6 
Q 634 32 518 70 
Q 403 109 352 134 
L 467 653 
Q 576 602 829 518 
Q 1082 435 1446 435 
z
" transform="scale(0.015625)"/>
        </defs>
        <use xlink:href="#Ubuntu-33"/>
       </g>
      </g>
     </g>
     <g id="xtick_6">
      <g id="line2d_6">
       <path d="M 120.755522 126.979375 
L 120.755522 126.979375 
" clip-path="url(#p21baf29eba)" style="fill: none; stroke-dasharray: 0.5,0.825; stroke-dashoffset: 0; stroke: #d9d9d9; stroke-width: 0.5"/>
      </g>
      <g id="text_6">
       <!-- 4 -->
       <g style="fill: #808080" transform="translate(118.499272 158.186875) scale(0.08 -0.08)">
        <defs>
         <path id="Ubuntu-34" d="M 256 1536 
Q 378 1818 589 2192 
Q 800 2566 1065 2963 
Q 1331 3360 1635 3744 
Q 1939 4128 2246 4435 
L 2816 4435 
L 2816 1619 
L 3341 1619 
L 3341 1133 
L 2816 1133 
L 2816 0 
L 2240 0 
L 2240 1133 
L 256 1133 
L 256 1536 
z
M 2240 3731 
Q 2048 3526 1853 3273 
Q 1658 3021 1472 2745 
Q 1286 2470 1123 2182 
Q 960 1894 832 1619 
L 2240 1619 
L 2240 3731 
z
" transform="scale(0.015625)"/>
        </defs>
        <use xlink:href="#Ubuntu-34"/>
       </g>
      </g>
     </g>
     <g id="xtick_7">
      <g id="line2d_7">
       <path d="M 134.876333 126.979375 
L 134.876333 126.979375 
" clip-path="url(#p21baf29eba)" style="fill: none; stroke-dasharray: 0.5,0.825; stroke-dashoffset: 0; stroke: #d9d9d9; stroke-width: 0.5"/>
      </g>
      <g id="text_7">
       <!-- 5 -->
       <g style="fill: #808080" transform="translate(132.620083 158.186875) scale(0.08 -0.08)">
        <defs>
         <path id="Ubuntu-35" d="M 1274 2726 
Q 2240 2688 2691 2304 
Q 3142 1920 3142 1261 
Q 3142 966 3043 716 
Q 2944 467 2742 288 
Q 2541 109 2233 6 
Q 1926 -96 1504 -96 
Q 1338 -96 1165 -70 
Q 992 -45 845 -6 
Q 698 32 582 70 
Q 467 109 416 134 
L 531 653 
Q 640 602 886 518 
Q 1133 435 1491 435 
Q 1779 435 1974 499 
Q 2170 563 2291 672 
Q 2413 781 2467 925 
Q 2522 1069 2522 1229 
Q 2522 1472 2438 1661 
Q 2355 1850 2144 1978 
Q 1933 2106 1581 2173 
Q 1229 2240 691 2240 
Q 730 2554 752 2829 
Q 774 3104 793 3366 
Q 813 3629 825 3888 
Q 838 4147 851 4435 
L 2989 4435 
L 2989 3930 
L 1370 3930 
Q 1363 3834 1350 3670 
Q 1338 3507 1325 3331 
Q 1312 3155 1299 2988 
Q 1286 2822 1274 2726 
z
" transform="scale(0.015625)"/>
        </defs>
        <use xlink:href="#Ubuntu-35"/>
       </g>
      </g>
     </g>
     <g id="xtick_8">
      <g id="line2d_8">
       <path d="M 148.997143 126.979375 
L 148.997143 126.979375 
" clip-path="url(#p21baf29eba)" style="fill: none; stroke-dasharray: 0.5,0.825; stroke-dashoffset: 0; stroke: #d9d9d9; stroke-width: 0.5"/>
      </g>
      <g id="text_8">
       <!-- 6 -->
       <g style="fill: #808080" transform="translate(146.740893 158.186875) scale(0.08 -0.08)">
        <use xlink:href="#Ubuntu-36"/>
       </g>
      </g>
     </g>
     <g id="xtick_9">
      <g id="line2d_9">
       <path d="M 163.117953 126.979375 
L 163.117953 126.979375 
" clip-path="url(#p21baf29eba)" style="fill: none; stroke-dasharray: 0.5,0.825; stroke-dashoffset: 0; stroke: #d9d9d9; stroke-width: 0.5"/>
      </g>
      <g id="text_9">
       <!-- 0 -->
       <g style="fill: #808080" transform="translate(160.861703 158.186875) scale(0.08 -0.08)">
        <use xlink:href="#Ubuntu-30"/>
       </g>
      </g>
     </g>
     <g id="xtick_10">
      <g id="line2d_10">
       <path d="M 177.238763 126.979375 
L 177.238763 126.979375 
" clip-path="url(#p21baf29eba)" style="fill: none; stroke-dasharray: 0.5,0.825; stroke-dashoffset: 0; stroke: #d9d9d9; stroke-width: 0.5"/>
      </g>
      <g id="text_10">
       <!-- 1 -->
       <g style="fill: #808080" transform="translate(174.982513 158.186875) scale(0.08 -0.08)">
        <use xlink:href="#Ubuntu-31"/>
       </g>
      </g>
     </g>
     <g id="xtick_11">
      <g id="line2d_11">
       <path d="M 191.359574 126.979375 
L 191.359574 126.979375 
" clip-path="url(#p21baf29eba)" style="fill: none; stroke-dasharray: 0.5,0.825; stroke-dashoffset: 0; stroke: #d9d9d9; stroke-width: 0.5"/>
      </g>
      <g id="text_11">
       <!-- 2 -->
       <g style="fill: #808080" transform="translate(189.103324 158.186875) scale(0.08 -0.08)">
        <use xlink:href="#Ubuntu-32"/>
       </g>
      </g>
     </g>
     <g id="xtick_12">
      <g id="line2d_12">
       <path d="M 205.480384 126.979375 
L 205.480384 126.979375 
" clip-path="url(#p21baf29eba)" style="fill: none; stroke-dasharray: 0.5,0.825; stroke-dashoffset: 0; stroke: #d9d9d9; stroke-width: 0.5"/>
      </g>
      <g id="text_12">
       <!-- 3 -->
       <g style="fill: #808080" transform="translate(203.224134 158.186875) scale(0.08 -0.08)">
        <use xlink:href="#Ubuntu-33"/>
       </g>
      </g>
     </g>
     <g id="xtick_13">
      <g id="line2d_13">
       <path d="M 219.601194 126.979375 
L 219.601194 126.979375 
" clip-path="url(#p21baf29eba)" style="fill: none; stroke-dasharray: 0.5,0.825; stroke-dashoffset: 0; stroke: #d9d9d9; stroke-width: 0.5"/>
      </g>
      <g id="text_13">
       <!-- 4 -->
       <g style="fill: #808080" transform="translate(217.344944 158.186875) scale(0.08 -0.08)">
        <use xlink:href="#Ubuntu-34"/>
       </g>
      </g>
     </g>
     <g id="xtick_14">
      <g id="line2d_14">
       <path d="M 233.722005 126.979375 
L 233.722005 126.979375 
" clip-path="url(#p21baf29eba)" style="fill: none; stroke-dasharray: 0.5,0.825; stroke-dashoffset: 0; stroke: #d9d9d9; stroke-width: 0.5"/>
      </g>
      <g id="text_14">
       <!-- 5 -->
       <g style="fill: #808080" transform="translate(231.465755 158.186875) scale(0.08 -0.08)">
        <use xlink:href="#Ubuntu-35"/>
       </g>
      </g>
     </g>
     <g id="xtick_15">
      <g id="line2d_15">
       <path d="M 247.842815 126.979375 
L 247.842815 126.979375 
" clip-path="url(#p21baf29eba)" style="fill: none; stroke-dasharray: 0.5,0.825; stroke-dashoffset: 0; stroke: #d9d9d9; stroke-width: 0.5"/>
      </g>
      <g id="text_15">
       <!-- 6 -->
       <g style="fill: #808080" transform="translate(245.586565 158.186875) scale(0.08 -0.08)">
        <use xlink:href="#Ubuntu-36"/>
       </g>
      </g>
     </g>
     <g id="xtick_16">
      <g id="line2d_16">
       <path d="M 261.963625 126.979375 
L 261.963625 126.979375 
" clip-path="url(#p21baf29eba)" style="fill: none; stroke-dasharray: 0.5,0.825; stroke-dashoffset: 0; stroke: #d9d9d9; stroke-width: 0.5"/>
      </g>
      <g id="text_16">
       <!-- 0 -->
       <g style="fill: #808080" transform="translate(259.707375 158.186875) scale(0.08 -0.08)">
        <use xlink:href="#Ubuntu-30"/>
       </g>
      </g>
     </g>
     <g id="xtick_17">
      <g id="line2d_17">
       <path d="M 276.084436 126.979375 
L 276.084436 126.979375 
" clip-path="url(#p21baf29eba)" style="fill: none; stroke-dasharray: 0.5,0.825; stroke-dashoffset: 0; stroke: #d9d9d9; stroke-width: 0.5"/>
      </g>
      <g id="text_17">
       <!-- 1 -->
       <g style="fill: #808080" transform="translate(273.828186 158.186875) scale(0.08 -0.08)">
        <use xlink:href="#Ubuntu-31"/>
       </g>
      </g>
     </g>
     <g id="xtick_18">
      <g id="line2d_18">
       <path d="M 290.205246 126.979375 
L 290.205246 126.979375 
" clip-path="url(#p21baf29eba)" style="fill: none; stroke-dasharray: 0.5,0.825; stroke-dashoffset: 0; stroke: #d9d9d9; stroke-width: 0.5"/>
      </g>
      <g id="text_18">
       <!-- 2 -->
       <g style="fill: #808080" transform="translate(287.948996 158.186875) scale(0.08 -0.08)">
        <use xlink:href="#Ubuntu-32"/>
       </g>
      </g>
     </g>
     <g id="xtick_19">
      <g id="line2d_19">
       <path d="M 304.326056 126.979375 
L 304.326056 126.979375 
" clip-path="url(#p21baf29eba)" style="fill: none; stroke-dasharray: 0.5,0.825; stroke-dashoffset: 0; stroke: #d9d9d9; stroke-width: 0.5"/>
      </g>
      <g id="text_19">
       <!-- 3 -->
       <g style="fill: #808080" transform="translate(302.069806 158.186875) scale(0.08 -0.08)">
        <use xlink:href="#Ubuntu-33"/>
       </g>
      </g>
     </g>
     <g id="xtick_20">
      <g id="line2d_20">
       <path d="M 318.446867 126.979375 
L 318.446867 126.979375 
" clip-path="url(#p21baf29eba)" style="fill: none; stroke-dasharray: 0.5,0.825; stroke-dashoffset: 0; stroke: #d9d9d9; stroke-width: 0.5"/>
      </g>
      <g id="text_20">
       <!-- 4 -->
       <g style="fill: #808080" transform="translate(316.190617 158.186875) scale(0.08 -0.08)">
        <use xlink:href="#Ubuntu-34"/>
       </g>
      </g>
     </g>
     <g id="xtick_21">
      <g id="line2d_21">
       <path d="M 332.567677 126.979375 
L 332.567677 126.979375 
" clip-path="url(#p21baf29eba)" style="fill: none; stroke-dasharray: 0.5,0.825; stroke-dashoffset: 0; stroke: #d9d9d9; stroke-width: 0.5"/>
      </g>
      <g id="text_21">
       <!-- 5 -->
       <g style="fill: #808080" transform="translate(330.311427 158.186875) scale(0.08 -0.08)">
        <use xlink:href="#Ubuntu-35"/>
       </g>
      </g>
     </g>
     <g id="xtick_22">
      <g id="line2d_22">
       <path d="M 346.688487 126.979375 
L 346.688487 126.979375 
" clip-path="url(#p21baf29eba)" style="fill: none; stroke-dasharray: 0.5,0.825; stroke-dashoffset: 0; stroke: #d9d9d9; stroke-width: 0.5"/>
      </g>
      <g id="text_22">
       <!-- 6 -->
       <g style="fill: #808080" transform="translate(344.432237 158.186875) scale(0.08 -0.08)">
        <use xlink:href="#Ubuntu-36"/>
       </g>
      </g>
     </g>
     <g id="xtick_23">
      <g id="line2d_23">
       <path d="M 360.809298 126.979375 
L 360.809298 126.979375 
" clip-path="url(#p21baf29eba)" style="fill: none; stroke-dasharray: 0.5,0.825; stroke-dashoffset: 0; stroke: #d9d9d9; stroke-width: 0.5"/>
      </g>
      <g id="text_23">
       <!-- 0 -->
       <g style="fill: #808080" transform="translate(358.553048 158.186875) scale(0.08 -0.08)">
        <use xlink:href="#Ubuntu-30"/>
       </g>
      </g>
     </g>
     <g id="xtick_24">
      <g id="line2d_24">
       <path d="M 374.930108 126.979375 
L 374.930108 126.979375 
" clip-path="url(#p21baf29eba)" style="fill: none; stroke-dasharray: 0.5,0.825; stroke-dashoffset: 0; stroke: #d9d9d9; stroke-width: 0.5"/>
      </g>
      <g id="text_24">
       <!-- 1 -->
       <g style="fill: #808080" transform="translate(372.673858 158.186875) scale(0.08 -0.08)">
        <use xlink:href="#Ubuntu-31"/>
       </g>
      </g>
     </g>
     <g id="xtick_25">
      <g id="line2d_25">
       <path d="M 389.050918 126.979375 
L 389.050918 126.979375 
" clip-path="url(#p21baf29eba)" style="fill: none; stroke-dasharray: 0.5,0.825; stroke-dashoffset: 0; stroke: #d9d9d9; stroke-width: 0.5"/>
      </g>
      <g id="text_25">
       <!-- 2 -->
       <g style="fill: #808080" transform="translate(386.794668 158.186875) scale(0.08 -0.08)">
        <use xlink:href="#Ubuntu-32"/>
       </g>
      </g>
     </g>
     <g id="xtick_26">
      <g id="line2d_26">
       <path d="M 403.171729 126.979375 
L 403.171729 126.979375 
" clip-path="url(#p21baf29eba)" style="fill: none; stroke-dasharray: 0.5,0.825; stroke-dashoffset: 0; stroke: #d9d9d9; stroke-width: 0.5"/>
      </g>
      <g id="text_26">
       <!-- 3 -->
       <g style="fill: #808080" transform="translate(400.915479 158.186875) scale(0.08 -0.08)">
        <use xlink:href="#Ubuntu-33"/>
       </g>
      </g>
     </g>
     <g id="xtick_27">
      <g id="line2d_27">
       <path d="M 417.292539 126.979375 
L 417.292539 126.979375 
" clip-path="url(#p21baf29eba)" style="fill: none; stroke-dasharray: 0.5,0.825; stroke-dashoffset: 0; stroke: #d9d9d9; stroke-width: 0.5"/>
      </g>
      <g id="text_27">
       <!-- 4 -->
       <g style="fill: #808080" transform="translate(415.036289 158.186875) scale(0.08 -0.08)">
        <use xlink:href="#Ubuntu-34"/>
       </g>
      </g>
     </g>
     <g id="xtick_28">
      <g id="line2d_28">
       <path d="M 431.413349 126.979375 
L 431.413349 126.979375 
" clip-path="url(#p21baf29eba)" style="fill: none; stroke-dasharray: 0.5,0.825; stroke-dashoffset: 0; stroke: #d9d9d9; stroke-width: 0.5"/>
      </g>
      <g id="text_28">
       <!-- 5 -->
       <g style="fill: #808080" transform="translate(429.157099 158.186875) scale(0.08 -0.08)">
        <use xlink:href="#Ubuntu-35"/>
       </g>
      </g>
     </g>
     <g id="xtick_29">
      <g id="line2d_29">
       <path d="M 445.53416 126.979375 
L 445.53416 126.979375 
" clip-path="url(#p21baf29eba)" style="fill: none; stroke-dasharray: 0.5,0.825; stroke-dashoffset: 0; stroke: #d9d9d9; stroke-width: 0.5"/>
      </g>
      <g id="text_29">
       <!-- 6 -->
       <g style="fill: #808080" transform="translate(443.27791 158.186875) scale(0.08 -0.08)">
        <use xlink:href="#Ubuntu-36"/>
       </g>
      </g>
     </g>
     <g id="xtick_30">
      <g id="line2d_30">
       <path d="M 459.65497 126.979375 
L 459.65497 126.979375 
" clip-path="url(#p21baf29eba)" style="fill: none; stroke-dasharray: 0.5,0.825; stroke-dashoffset: 0; stroke: #d9d9d9; stroke-width: 0.5"/>
      </g>
      <g id="text_30">
       <!-- 0 -->
       <g style="fill: #808080" transform="translate(457.39872 158.186875) scale(0.08 -0.08)">
        <use xlink:href="#Ubuntu-30"/>
       </g>
      </g>
     </g>
     <g id="xtick_31">
      <g id="line2d_31">
       <path d="M 473.77578 126.979375 
L 473.77578 126.979375 
" clip-path="url(#p21baf29eba)" style="fill: none; stroke-dasharray: 0.5,0.825; stroke-dashoffset: 0; stroke: #d9d9d9; stroke-width: 0.5"/>
      </g>
      <g id="text_31">
       <!-- 1 -->
       <g style="fill: #808080" transform="translate(471.51953 158.186875) scale(0.08 -0.08)">
        <use xlink:href="#Ubuntu-31"/>
       </g>
      </g>
     </g>
     <g id="xtick_32">
      <g id="line2d_32">
       <path d="M 487.896591 126.979375 
L 487.896591 126.979375 
" clip-path="url(#p21baf29eba)" style="fill: none; stroke-dasharray: 0.5,0.825; stroke-dashoffset: 0; stroke: #d9d9d9; stroke-width: 0.5"/>
      </g>
      <g id="text_32">
       <!-- 2 -->
       <g style="fill: #808080" transform="translate(485.640341 158.186875) scale(0.08 -0.08)">
        <use xlink:href="#Ubuntu-32"/>
       </g>
      </g>
     </g>
    </g>
    <g id="matplotlib.axis_2"/>
   </g>
   <g id="matplotlib.axis_3">
    <g id="xtick_33">
     <g id="line2d_33">
      <defs>
       <path id="m48336be274" d="M 0 0 
L 0 3 
" style="stroke: #cccccc; stroke-width: 0.75"/>
      </defs>
      <g>
       <use xlink:href="#m48336be274" x="50.151471" y="131.979375" style="fill: #cccccc; stroke: #cccccc; stroke-width: 0.75"/>
      </g>
     </g>
     <g id="text_33">
      <!-- 01 -->
      <g style="fill: #808080" transform="translate(45.638971 147.186875) scale(0.08 -0.08)">
       <use xlink:href="#Ubuntu-30"/>
       <use xlink:href="#Ubuntu-31" x="56.399994"/>
      </g>
     </g>
    </g>
    <g id="xtick_34">
     <g id="line2d_34">
      <g>
       <use xlink:href="#m48336be274" x="106.634712" y="131.979375" style="fill: #cccccc; stroke: #cccccc; stroke-width: 0.75"/>
      </g>
     </g>
     <g id="text_34">
      <!-- 05 -->
      <g style="fill: #808080" transform="translate(102.122212 147.186875) scale(0.08 -0.08)">
       <use xlink:href="#Ubuntu-30"/>
       <use xlink:href="#Ubuntu-35" x="56.399994"/>
      </g>
     </g>
    </g>
    <g id="xtick_35">
     <g id="line2d_35">
      <g>
       <use xlink:href="#m48336be274" x="163.117953" y="131.979375" style="fill: #cccccc; stroke: #cccccc; stroke-width: 0.75"/>
      </g>
     </g>
     <g id="text_35">
      <!-- 09 -->
      <g style="fill: #808080" transform="translate(158.605453 147.186875) scale(0.08 -0.08)">
       <defs>
        <path id="Ubuntu-39" d="M 3206 2662 
Q 3206 1344 2550 669 
Q 1894 -6 602 -13 
L 582 486 
Q 986 486 1309 563 
Q 1632 640 1875 809 
Q 2118 979 2281 1248 
Q 2445 1517 2522 1907 
Q 2355 1830 2144 1782 
Q 1933 1734 1709 1734 
Q 1331 1734 1068 1846 
Q 806 1958 640 2147 
Q 474 2336 400 2582 
Q 326 2829 326 3098 
Q 326 3334 409 3590 
Q 493 3846 662 4057 
Q 832 4269 1094 4403 
Q 1357 4538 1715 4538 
Q 2080 4538 2358 4410 
Q 2637 4282 2825 4038 
Q 3014 3795 3110 3446 
Q 3206 3098 3206 2662 
z
M 1773 2221 
Q 1997 2221 2195 2262 
Q 2394 2304 2579 2387 
Q 2586 2458 2586 2525 
Q 2586 2592 2586 2662 
Q 2586 2938 2547 3190 
Q 2509 3443 2409 3632 
Q 2310 3821 2144 3933 
Q 1978 4045 1722 4045 
Q 1510 4045 1363 3955 
Q 1216 3866 1120 3728 
Q 1024 3590 982 3427 
Q 941 3264 941 3110 
Q 941 2675 1149 2448 
Q 1357 2221 1773 2221 
z
" transform="scale(0.015625)"/>
       </defs>
       <use xlink:href="#Ubuntu-30"/>
       <use xlink:href="#Ubuntu-39" x="56.399994"/>
      </g>
     </g>
    </g>
    <g id="xtick_36">
     <g id="line2d_36">
      <g>
       <use xlink:href="#m48336be274" x="219.601194" y="131.979375" style="fill: #cccccc; stroke: #cccccc; stroke-width: 0.75"/>
      </g>
     </g>
     <g id="text_36">
      <!-- 13 -->
      <g style="fill: #808080" transform="translate(215.088694 147.186875) scale(0.08 -0.08)">
       <use xlink:href="#Ubuntu-31"/>
       <use xlink:href="#Ubuntu-33" x="56.399994"/>
      </g>
     </g>
    </g>
    <g id="xtick_37">
     <g id="line2d_37">
      <g>
       <use xlink:href="#m48336be274" x="276.084436" y="131.979375" style="fill: #cccccc; stroke: #cccccc; stroke-width: 0.75"/>
      </g>
     </g>
     <g id="text_37">
      <!-- 17 -->
      <g style="fill: #808080" transform="translate(271.571936 147.186875) scale(0.08 -0.08)">
       <defs>
        <path id="Ubuntu-37" d="M 1043 0 
Q 1082 512 1226 1078 
Q 1370 1645 1581 2179 
Q 1792 2714 2045 3171 
Q 2298 3629 2541 3917 
L 384 3917 
L 384 4435 
L 3206 4435 
L 3206 3942 
Q 2995 3699 2739 3273 
Q 2483 2848 2256 2320 
Q 2029 1792 1865 1193 
Q 1702 595 1664 0 
L 1043 0 
z
" transform="scale(0.015625)"/>
       </defs>
       <use xlink:href="#Ubuntu-31"/>
       <use xlink:href="#Ubuntu-37" x="56.399994"/>
      </g>
     </g>
    </g>
    <g id="xtick_38">
     <g id="line2d_38">
      <g>
       <use xlink:href="#m48336be274" x="332.567677" y="131.979375" style="fill: #cccccc; stroke: #cccccc; stroke-width: 0.75"/>
      </g>
     </g>
     <g id="text_38">
      <!-- 21 -->
      <g style="fill: #808080" transform="translate(328.055177 147.186875) scale(0.08 -0.08)">
       <use xlink:href="#Ubuntu-32"/>
       <use xlink:href="#Ubuntu-31" x="56.399994"/>
      </g>
     </g>
    </g>
    <g id="xtick_39">
     <g id="line2d_39">
      <g>
       <use xlink:href="#m48336be274" x="389.050918" y="131.979375" style="fill: #cccccc; stroke: #cccccc; stroke-width: 0.75"/>
      </g>
     </g>
     <g id="text_39">
      <!-- 25 -->
      <g style="fill: #808080" transform="translate(384.538418 147.186875) scale(0.08 -0.08)">
       <use xlink:href="#Ubuntu-32"/>
       <use xlink:href="#Ubuntu-35" x="56.399994"/>
      </g>
     </g>
    </g>
    <g id="xtick_40">
     <g id="line2d_40">
      <g>
       <use xlink:href="#m48336be274" x="445.53416" y="131.979375" style="fill: #cccccc; stroke: #cccccc; stroke-width: 0.75"/>
      </g>
     </g>
     <g id="text_40">
      <!-- 29 -->
      <g style="fill: #808080" transform="translate(441.02166 147.186875) scale(0.08 -0.08)">
       <use xlink:href="#Ubuntu-32"/>
       <use xlink:href="#Ubuntu-39" x="56.399994"/>
      </g>
     </g>
    </g>
    <g id="xtick_41">
     <g id="line2d_41">
      <g>
       <use xlink:href="#m48336be274" x="487.896591" y="131.979375" style="fill: #cccccc; stroke: #cccccc; stroke-width: 0.75"/>
      </g>
     </g>
     <g id="text_41">
      <!-- 01 -->
      <g style="fill: #808080" transform="translate(483.384091 147.186875) scale(0.08 -0.08)">
       <use xlink:href="#Ubuntu-30"/>
       <use xlink:href="#Ubuntu-31" x="56.399994"/>
      </g>
     </g>
    </g>
   </g>
   <g id="matplotlib.axis_4">
    <g id="ytick_1">
     <g id="line2d_42">
      <defs>
       <path id="m788eef931a" d="M 0 0 
L -3 0 
" style="stroke: #cccccc; stroke-width: 0.75"/>
      </defs>
      <g>
       <use xlink:href="#m788eef931a" x="43.275" y="126.979375" style="fill: #cccccc; stroke: #cccccc; stroke-width: 0.75"/>
      </g>
     </g>
     <g id="text_42">
      <!-- −10000 -->
      <g style="fill: #808080" transform="translate(7.2 130.083125) scale(0.08 -0.08)">
       <defs>
        <path id="Ubuntu-2212" d="M 339 2138 
L 3270 2138 
L 3270 1632 
L 339 1632 
L 339 2138 
z
" transform="scale(0.015625)"/>
       </defs>
       <use xlink:href="#Ubuntu-2212"/>
       <use xlink:href="#Ubuntu-31" x="56.399994"/>
       <use xlink:href="#Ubuntu-30" x="112.799988"/>
       <use xlink:href="#Ubuntu-30" x="169.199982"/>
       <use xlink:href="#Ubuntu-30" x="225.599976"/>
       <use xlink:href="#Ubuntu-30" x="281.999969"/>
      </g>
     </g>
    </g>
    <g id="ytick_2">
     <g id="line2d_43">
      <g>
       <use xlink:href="#m788eef931a" x="43.275" y="102.724375" style="fill: #cccccc; stroke: #cccccc; stroke-width: 0.75"/>
      </g>
     </g>
     <g id="text_43">
      <!-- −5000 -->
      <g style="fill: #808080" transform="translate(11.7125 105.828125) scale(0.08 -0.08)">
       <use xlink:href="#Ubuntu-2212"/>
       <use xlink:href="#Ubuntu-35" x="56.399994"/>
       <use xlink:href="#Ubuntu-30" x="112.799988"/>
       <use xlink:href="#Ubuntu-30" x="169.199982"/>
       <use xlink:href="#Ubuntu-30" x="225.599976"/>
      </g>
     </g>
    </g>
    <g id="ytick_3">
     <g id="line2d_44">
      <g>
       <use xlink:href="#m788eef931a" x="43.275" y="78.469375" style="fill: #cccccc; stroke: #cccccc; stroke-width: 0.75"/>
      </g>
     </g>
     <g id="text_44">
      <!-- 0 -->
      <g style="fill: #808080" transform="translate(29.7625 81.573125) scale(0.08 -0.08)">
       <use xlink:href="#Ubuntu-30"/>
      </g>
     </g>
    </g>
    <g id="ytick_4">
     <g id="line2d_45">
      <g>
       <use xlink:href="#m788eef931a" x="43.275" y="54.214375" style="fill: #cccccc; stroke: #cccccc; stroke-width: 0.75"/>
      </g>
     </g>
     <g id="text_45">
      <!-- 5000 -->
      <g style="fill: #808080" transform="translate(16.225 57.318125) scale(0.08 -0.08)">
       <use xlink:href="#Ubuntu-35"/>
       <use xlink:href="#Ubuntu-30" x="56.399994"/>
       <use xlink:href="#Ubuntu-30" x="112.799988"/>
       <use xlink:href="#Ubuntu-30" x="169.199982"/>
      </g>
     </g>
    </g>
    <g id="ytick_5">
     <g id="line2d_46">
      <g>
       <use xlink:href="#m788eef931a" x="43.275" y="29.959375" style="fill: #cccccc; stroke: #cccccc; stroke-width: 0.75"/>
      </g>
     </g>
     <g id="text_46">
      <!-- 10000 -->
      <g style="fill: #808080" transform="translate(11.7125 33.063125) scale(0.08 -0.08)">
       <use xlink:href="#Ubuntu-31"/>
       <use xlink:href="#Ubuntu-30" x="56.399994"/>
       <use xlink:href="#Ubuntu-30" x="112.799988"/>
       <use xlink:href="#Ubuntu-30" x="169.199982"/>
       <use xlink:href="#Ubuntu-30" x="225.599976"/>
      </g>
     </g>
    </g>
   </g>
   <g id="line2d_47">
    <path d="M 50.151471 74.727203 
L 50.93596 52.768125 
L 51.132082 46.510767 
L 51.230144 46.01918 
L 51.426266 47.055859 
L 51.916572 54.250399 
L 52.210755 64.544624 
L 52.603 77.140083 
L 52.701061 77.094601 
L 52.799123 78.136135 
L 52.897184 77.608057 
L 52.995245 76.0064 
L 53.191367 78.051663 
L 53.289428 76.748544 
L 53.681673 82.651617 
L 53.779734 82.884723 
L 54.073918 86.500283 
L 54.171979 89.004863 
L 54.466163 87.121622 
L 54.662285 84.157238 
L 54.858407 88.029787 
L 55.05453 86.376847 
L 55.152591 86.365473 
L 55.250652 86.021507 
L 55.348713 85.214601 
L 55.544836 87.15628 
L 55.642897 87.335024 
L 55.839019 86.285571 
L 56.133203 93.464067 
L 56.231264 93.372899 
L 56.427386 95.543043 
L 56.525447 93.70039 
L 56.72157 94.754199 
L 56.819631 94.781823 
L 56.917692 93.561753 
L 57.015753 93.56983 
L 57.113815 93.927113 
L 57.211876 93.208596 
L 57.309937 91.391016 
L 57.60412 93.027098 
L 57.702182 92.864603 
L 57.898304 90.701089 
L 57.996365 90.924364 
L 58.094426 90.730987 
L 58.682793 86.493085 
L 58.780855 86.799695 
L 58.878916 86.4331 
L 58.976977 85.621761 
L 59.075038 85.697629 
L 59.173099 85.479147 
L 59.369222 83.752824 
L 59.467283 83.933728 
L 59.663405 81.495574 
L 59.957589 82.259648 
L 60.153711 81.876047 
L 60.447895 75.052655 
L 60.545956 75.301541 
L 60.742078 70.339146 
L 61.232384 58.115689 
L 61.428507 57.562805 
L 61.526568 58.584361 
L 61.624629 63.387344 
L 61.918813 89.569002 
L 62.114935 91.46393 
L 62.311057 89.420668 
L 62.50718 87.589245 
L 62.605241 87.294719 
L 62.801363 87.997999 
L 63.095547 84.470226 
L 63.193608 84.838119 
L 63.38973 79.609335 
L 63.585853 80.541146 
L 63.683914 79.93955 
L 65.252893 45.464279 
L 65.350954 45.17621 
L 65.449015 44.311955 
L 65.645137 45.092739 
L 66.037382 52.735753 
L 66.429627 66.389278 
L 66.821872 79.929742 
L 66.919933 80.383971 
L 67.017994 77.238424 
L 67.116055 77.557904 
L 67.312178 79.511602 
L 67.410239 77.329989 
L 67.900545 87.835685 
L 68.096667 91.022052 
L 68.194728 90.015239 
L 68.292789 90.396423 
L 68.488912 89.993333 
L 68.685034 88.616889 
L 68.783095 89.191785 
L 68.881157 88.619769 
L 68.979218 88.919608 
L 69.17534 87.684655 
L 69.371462 84.825644 
L 69.469524 84.704339 
L 69.567585 84.946613 
L 69.665646 84.797484 
L 69.763707 85.094303 
L 70.057891 83.484133 
L 70.254013 88.1381 
L 70.352074 86.851885 
L 70.450135 89.322381 
L 70.548197 88.946952 
L 70.744319 92.076856 
L 70.940441 90.144993 
L 71.038503 91.655931 
L 71.234625 87.991079 
L 71.332686 89.045293 
L 71.528808 87.999771 
L 71.724931 89.228278 
L 71.921053 86.466972 
L 72.117176 86.545428 
L 72.313298 72.892402 
L 72.411359 70.186249 
L 72.50942 72.233948 
L 72.607481 79.004834 
L 72.999726 75.558419 
L 73.097787 75.102976 
L 73.195849 75.616734 
L 73.490032 73.105777 
L 73.588093 73.198957 
L 74.17646 71.100315 
L 74.568705 67.371964 
L 74.862889 62.345435 
L 75.255133 53.164226 
L 75.451256 48.043768 
L 75.647378 52.130143 
L 75.8435 68.431509 
L 76.039623 82.203436 
L 76.235745 84.269858 
L 76.333806 83.585981 
L 76.431868 83.943117 
L 76.529929 81.936758 
L 76.62799 82.40147 
L 76.824112 87.081937 
L 76.922173 86.630125 
L 77.118296 88.924622 
L 77.216357 88.354939 
L 77.314418 88.604852 
L 77.706663 81.649508 
L 77.804724 80.802197 
L 78.883397 47.380518 
L 79.177581 41.989123 
L 79.373703 40.049308 
L 79.471764 41.512658 
L 79.667887 40.597229 
L 79.864009 45.16014 
L 80.158193 52.97532 
L 80.550437 66.652015 
L 80.942682 80.13303 
L 81.040743 79.269047 
L 81.138804 78.600485 
L 81.236866 79.618856 
L 81.334927 79.142239 
L 81.531049 81.833934 
L 82.609722 103.770345 
L 82.903906 86.038112 
L 83.001967 86.966157 
L 83.100028 86.885379 
L 83.198089 87.026316 
L 83.394212 88.424372 
L 83.688395 105.517881 
L 83.786456 105.873142 
L 83.884517 105.35812 
L 84.08064 108.028833 
L 84.178701 107.580646 
L 84.669007 112.453562 
L 84.767068 112.595038 
L 84.96319 111.258087 
L 85.159313 112.581753 
L 85.257374 112.330833 
L 85.453496 111.850879 
L 85.551558 110.401017 
L 85.649619 110.996809 
L 85.74768 110.567473 
L 86.139925 103.86751 
L 86.237986 104.350705 
L 86.630231 98.626054 
L 86.728292 99.191673 
L 86.924414 96.788436 
L 87.022475 97.488923 
L 87.218598 95.423649 
L 87.316659 94.739156 
L 87.512781 95.427748 
L 87.905026 92.164313 
L 88.003087 92.538426 
L 88.297271 89.89669 
L 88.395332 89.101629 
L 88.493393 86.960017 
L 88.591454 87.385505 
L 88.787577 83.2086 
L 89.572066 64.894831 
L 89.670127 64.274042 
L 89.86625 73.49687 
L 90.160433 96.591997 
L 90.258494 97.076044 
L 90.356556 96.561594 
L 90.454617 97.062097 
L 90.650739 94.505002 
L 90.7488 95.382037 
L 91.042984 92.456245 
L 91.141045 93.295337 
L 91.239106 92.476031 
L 91.435229 92.991729 
L 91.827473 85.864292 
L 93.004207 49.079499 
L 93.396452 40.325553 
L 93.494513 39.36307 
L 93.984819 45.231019 
L 94.279003 52.483428 
L 94.671248 70.610616 
L 95.161553 83.874713 
L 95.357676 82.385761 
L 95.455737 82.078187 
L 96.044104 90.774941 
L 96.142165 86.48815 
L 96.240227 87.081952 
L 96.632471 94.228201 
L 96.828594 109.220158 
L 96.926655 109.111327 
L 97.024716 105.643479 
L 97.220838 93.508601 
L 97.416961 97.351085 
L 97.515022 97.334803 
L 97.711144 95.61033 
L 97.809205 96.326051 
L 97.907267 101.189423 
L 98.005328 99.441701 
L 98.20145 102.931267 
L 98.299511 102.598011 
L 98.397573 101.620054 
L 98.593695 79.564917 
L 98.789817 80.742509 
L 98.887878 80.652292 
L 99.084001 79.376465 
L 99.182062 80.583009 
L 99.476246 76.281969 
L 99.672368 72.116123 
L 99.770429 74.508148 
L 99.86849 99.921917 
L 99.966551 99.400015 
L 100.064613 98.732053 
L 100.162674 95.883724 
L 100.260735 97.468799 
L 100.358796 95.492994 
L 100.554919 89.165134 
L 100.751041 87.787518 
L 100.849102 89.751376 
L 101.045224 85.462887 
L 101.143286 85.37897 
L 101.241347 85.131254 
L 101.437469 102.509407 
L 101.53553 101.559973 
L 101.633592 102.26269 
L 101.731653 102.126674 
L 101.829714 101.65434 
L 102.025836 97.949928 
L 102.123897 98.496135 
L 102.221959 97.789014 
L 102.32002 98.301831 
L 102.810326 89.98014 
L 103.692876 73.908001 
L 103.98706 82.075921 
L 104.281243 100.456851 
L 104.477366 101.367243 
L 105.261855 91.305667 
L 105.556039 93.872465 
L 106.732773 61.216478 
L 107.419201 45.118505 
L 107.517263 45.185014 
L 107.713385 43.789043 
L 107.811446 43.685261 
L 107.909507 43.833769 
L 108.007568 44.752002 
L 108.497874 59.52981 
L 108.792058 69.706401 
L 109.282364 85.558147 
L 109.478486 80.313781 
L 109.674609 83.71297 
L 109.77267 84.327073 
L 110.164914 95.883627 
L 110.361037 102.005442 
L 110.459098 101.991002 
L 110.851343 108.66761 
L 111.047465 105.765648 
L 111.243587 104.465406 
L 111.43971 109.961212 
L 111.733893 112.422095 
L 111.831955 111.817589 
L 112.126138 114.97888 
L 112.224199 114.766926 
L 112.420322 117.771494 
L 112.518383 116.520077 
L 112.616444 119.495606 
L 112.714505 119.417246 
L 112.910628 121.462774 
L 113.008689 122.563796 
L 113.204811 120.629931 
L 113.302872 122.748157 
L 113.400933 121.567795 
L 113.498995 118.521465 
L 113.793178 121.100067 
L 113.989301 118.622474 
L 114.087362 118.194927 
L 114.283484 113.107084 
L 114.381545 115.290439 
L 114.577668 111.227011 
L 114.969912 108.413216 
L 115.067974 109.618939 
L 115.460218 106.53624 
L 115.656341 108.038861 
L 115.754402 107.120943 
L 115.852463 107.693574 
L 116.146647 104.607309 
L 116.244708 104.695922 
L 116.342769 105.848902 
L 116.44083 105.606734 
L 116.833075 100.410174 
L 117.323381 85.560121 
L 117.519503 82.155662 
L 117.715626 76.327425 
L 118.009809 79.641233 
L 118.10787 83.499922 
L 118.303993 101.366825 
L 118.402054 101.560902 
L 118.598176 103.705825 
L 118.794299 101.123276 
L 118.990421 98.649064 
L 119.088482 97.679582 
L 119.186543 97.798766 
L 119.284604 97.429418 
L 119.382666 95.736956 
L 119.578788 98.458084 
L 119.676849 98.530417 
L 120.363277 81.323444 
L 120.657461 70.947923 
L 121.540012 47.617135 
L 122.030318 43.854652 
L 122.520623 57.509952 
L 122.618685 60.625627 
L 122.814807 70.251084 
L 122.912868 70.185641 
L 123.403174 87.082445 
L 123.599297 83.034807 
L 123.697358 83.245952 
L 123.991541 89.504203 
L 124.285725 97.706536 
L 124.481847 104.628151 
L 124.67797 101.544216 
L 124.972153 109.72471 
L 125.070214 109.771499 
L 125.168275 110.86976 
L 125.364398 109.307644 
L 125.56052 111.628642 
L 125.658581 109.440453 
L 125.756643 109.612573 
L 125.952765 111.86789 
L 126.050826 111.241772 
L 126.246948 114.883001 
L 126.34501 113.973221 
L 126.443071 116.825706 
L 126.639193 128.208545 
L 126.933377 134.632699 
L 127.129499 137.345216 
L 127.22756 137.592954 
L 127.423683 138.562746 
L 127.521744 138.343148 
L 127.913989 132.511109 
L 128.01205 130.627935 
L 128.110111 131.444102 
L 128.600417 124.490342 
L 128.8946 120.252534 
L 128.992662 121.025617 
L 129.090723 120.850122 
L 129.286845 122.966581 
L 129.384906 122.773982 
L 129.482967 122.28375 
L 129.777151 119.405097 
L 129.973273 120.117216 
L 130.56164 113.150183 
L 130.659702 110.898926 
L 131.150008 85.947305 
L 131.248069 84.69899 
L 131.640313 74.413599 
L 131.934497 69.449278 
L 132.032558 69.267487 
L 132.130619 71.304387 
L 132.326742 89.074875 
L 132.522864 99.604466 
L 132.718987 101.772253 
L 133.01317 96.712184 
L 133.111231 93.369352 
L 133.209292 93.477091 
L 133.307354 94.454914 
L 133.503476 92.066599 
L 133.699598 94.845346 
L 133.895721 93.963422 
L 135.072455 60.228645 
L 135.366638 50.900962 
L 135.660822 46.617731 
L 135.856944 44.141821 
L 135.955006 44.609193 
L 136.053067 44.231189 
L 136.151128 43.109805 
L 136.543373 51.912905 
L 137.327862 80.757534 
L 137.523984 84.789674 
L 137.622046 84.323843 
L 137.720107 82.352303 
L 137.818168 82.482966 
L 137.916229 82.571654 
L 138.994902 107.593785 
L 139.092963 107.553881 
L 139.191025 107.961473 
L 139.289086 109.894439 
L 139.387147 109.233892 
L 139.485208 109.669132 
L 139.583269 110.739047 
L 139.779392 109.820386 
L 139.975514 110.582956 
L 140.073575 101.126847 
L 140.171636 101.558593 
L 140.367759 110.121324 
L 140.661942 118.350347 
L 140.760003 116.832788 
L 140.858065 119.186708 
L 140.956126 118.554113 
L 141.054187 116.310105 
L 141.152248 106.998631 
L 141.348371 79.085132 
L 141.642554 80.04385 
L 141.936738 73.243374 
L 142.13286 105.849786 
L 142.230921 105.475162 
L 142.427044 101.869438 
L 142.525105 101.870175 
L 142.721227 104.710506 
L 142.819288 104.739062 
L 143.015411 103.390206 
L 143.407655 99.917431 
L 143.505717 99.237669 
L 143.603778 101.615861 
L 143.7999 100.108417 
L 143.897961 100.715444 
L 144.290206 96.613686 
L 144.388267 96.632714 
L 144.486328 94.493413 
L 144.58439 94.849185 
L 144.682451 94.304139 
L 144.976634 88.179682 
L 145.565001 74.831882 
L 146.055307 63.006298 
L 146.153369 63.09385 
L 146.25143 63.997434 
L 146.349491 67.631291 
L 146.643674 94.662767 
L 146.741736 96.807233 
L 146.839797 96.125262 
L 146.937858 96.945258 
L 147.428164 92.741679 
L 147.624286 94.229807 
L 147.722347 93.888216 
L 147.820409 93.043549 
L 147.91847 93.0668 
L 148.016531 94.423989 
L 148.408776 84.928037 
L 148.997143 67.732883 
L 149.291326 57.956906 
L 149.781632 46.731366 
L 149.879693 45.997618 
L 149.977755 43.636896 
L 150.075816 44.147559 
L 150.271938 43.211704 
L 150.468061 46.086302 
L 150.762244 54.422487 
L 150.860305 57.185745 
L 151.056428 69.255413 
L 151.154489 70.154241 
L 151.644795 86.515407 
L 151.938978 81.778053 
L 152.233162 87.615446 
L 152.821529 101.12764 
L 152.91959 100.085615 
L 153.115713 102.488224 
L 153.213774 101.928078 
L 153.409896 106.245193 
L 153.507957 104.862128 
L 153.606018 105.065675 
L 153.802141 107.859358 
L 153.900202 106.632696 
L 154.096324 114.413592 
L 154.194386 115.456089 
L 154.292447 114.106692 
L 154.390508 114.516065 
L 154.58663 117.690683 
L 154.684691 119.603592 
L 154.880814 118.688392 
L 154.978875 118.608312 
L 155.174997 122.27034 
L 155.273059 119.265497 
L 155.37112 119.713356 
L 155.469181 120.80068 
L 155.567242 120.68587 
L 155.665303 120.31507 
L 155.763364 120.377774 
L 155.861426 122.444093 
L 155.959487 121.775268 
L 156.25367 117.204207 
L 156.351732 116.646524 
L 156.547854 101.963876 
L 156.645915 103.282064 
L 156.743976 102.768183 
L 157.430405 95.442358 
L 157.528466 96.240906 
L 157.626527 95.256129 
L 157.92071 96.328235 
L 158.018772 92.177775 
L 158.116833 94.88098 
L 158.214894 93.445348 
L 158.312955 95.463564 
L 158.411016 94.298811 
L 158.509078 94.977251 
L 158.901322 91.434245 
L 158.999383 91.129857 
L 159.489689 83.289167 
L 159.881934 71.902776 
L 160.274179 66.140848 
L 160.470301 74.300783 
L 160.764485 101.960878 
L 160.862546 102.017512 
L 161.450913 94.682354 
L 161.548974 94.401563 
L 161.647035 94.610838 
L 161.843158 96.79086 
L 161.941219 96.115238 
L 162.431525 86.482089 
L 162.529586 85.746966 
L 162.921831 75.336921 
L 163.412137 60.106222 
L 164.196626 44.60155 
L 164.294687 44.925181 
L 164.49081 46.784405 
L 164.883054 54.828158 
L 165.471422 78.672595 
L 165.765605 86.097194 
L 166.059789 78.767618 
L 166.15785 78.690768 
L 166.255911 79.5733 
L 166.942339 93.68424 
L 167.0404 93.232881 
L 167.236523 96.739081 
L 167.530706 92.663444 
L 167.726829 91.522186 
L 167.82489 91.758614 
L 168.021012 91.052745 
L 168.217135 90.51143 
L 168.511318 93.024428 
L 168.609379 92.86914 
L 168.903563 97.154498 
L 169.001624 98.045483 
L 169.099685 97.491194 
L 169.197747 98.016302 
L 169.393869 101.010248 
L 169.49193 100.168857 
L 169.589991 100.788983 
L 169.688052 100.32328 
L 169.982236 101.581837 
L 170.27642 97.310545 
L 170.374481 95.817286 
L 170.570603 102.50964 
L 171.15897 95.988263 
L 171.257031 95.576485 
L 171.355093 93.821213 
L 171.453154 94.131207 
L 171.649276 92.130386 
L 171.747337 91.913398 
L 171.845398 92.51121 
L 171.94346 92.316573 
L 172.041521 91.777193 
L 172.237643 90.347315 
L 172.433766 90.645161 
L 172.629888 89.711008 
L 172.727949 89.539728 
L 172.82601 89.716089 
L 172.924071 89.613547 
L 173.120194 80.606766 
L 173.414377 74.891477 
L 173.708561 56.897893 
L 173.806622 56.438152 
L 174.394989 45.364562 
L 174.49305 47.896098 
L 174.591112 54.579009 
L 174.885295 83.50854 
L 174.983356 85.200136 
L 175.27754 82.816813 
L 175.375601 83.861795 
L 175.473662 81.949363 
L 175.767846 86.145093 
L 175.963968 72.704257 
L 176.062029 74.257618 
L 176.16009 74.140786 
L 176.258152 74.373195 
L 176.552335 68.630782 
L 176.846519 63.306447 
L 176.94458 67.718182 
L 177.238763 57.033988 
L 177.336825 56.481402 
L 177.729069 48.968839 
L 177.925192 44.815667 
L 178.219375 41.798138 
L 178.317437 41.122135 
L 178.415498 42.555911 
L 178.513559 42.225942 
L 178.709681 43.979266 
L 179.886415 86.661285 
L 179.984477 86.25231 
L 180.082538 83.716475 
L 180.180599 84.091178 
L 180.376721 89.069625 
L 180.474783 89.403755 
L 180.965088 106.036756 
L 181.06315 106.384793 
L 181.357333 112.270104 
L 181.455394 112.379887 
L 181.553456 110.901921 
L 181.651517 111.763152 
L 181.847639 121.865881 
L 181.9457 120.930277 
L 182.337945 125.070725 
L 182.436006 124.795009 
L 182.534067 123.169103 
L 182.632129 100.11541 
L 183.024373 120.299237 
L 183.318557 125.165375 
L 183.514679 123.918264 
L 183.808863 127.585454 
L 183.906924 127.507777 
L 184.103046 125.819194 
L 184.201107 125.90688 
L 184.593352 121.891331 
L 184.691413 121.513323 
L 185.083658 116.757121 
L 185.573964 111.333316 
L 185.672025 111.375542 
L 185.770086 111.295638 
L 185.868148 110.548347 
L 185.966209 111.246306 
L 186.06427 110.771198 
L 186.358453 106.591097 
L 186.456515 107.245584 
L 186.554576 108.731972 
L 186.848759 104.966487 
L 187.044882 102.87809 
L 187.73131 89.045986 
L 188.221616 77.795762 
L 188.417738 74.880506 
L 188.5158 74.569606 
L 188.613861 75.420908 
L 188.711922 81.293959 
L 188.908044 104.752292 
L 189.104167 107.01904 
L 189.202228 106.586597 
L 189.300289 106.903728 
L 189.39835 105.703946 
L 189.594473 100.837042 
L 189.692534 100.197876 
L 189.790595 100.299227 
L 189.888656 98.957834 
L 190.084778 101.393632 
L 190.280901 98.416554 
L 191.06539 80.965193 
L 191.261513 75.197058 
L 191.457635 69.690055 
L 191.84988 56.658465 
L 192.144063 50.802921 
L 192.438247 48.238472 
L 192.536308 47.869004 
L 192.634369 48.393405 
L 192.928553 54.583068 
L 193.222736 65.007072 
L 193.51692 77.572849 
L 194.007226 92.029098 
L 194.203348 86.901189 
L 194.39947 88.808091 
L 194.595593 93.150477 
L 195.085899 109.311556 
L 195.674266 119.828208 
L 195.772327 119.871349 
L 196.066511 120.849941 
L 196.262633 124.362872 
L 196.360694 124.206964 
L 196.458755 123.953866 
L 196.556817 122.654735 
L 196.949061 130.38732 
L 197.145184 129.689519 
L 197.439367 134.594373 
L 197.537428 133.16495 
L 197.63549 133.617978 
L 197.733551 131.925723 
L 197.929673 132.649929 
L 198.027734 134.838883 
L 198.223857 131.461531 
L 198.321918 131.888068 
L 198.714163 128.201615 
L 198.910285 131.361947 
L 199.204468 116.683034 
L 199.30253 115.278902 
L 199.400591 115.786097 
L 199.694774 112.962026 
L 199.792836 112.916452 
L 199.890897 112.42773 
L 200.087019 110.230204 
L 200.18508 110.131446 
L 200.381203 108.90725 
L 200.479264 108.742943 
L 200.675386 108.097401 
L 200.773447 108.063982 
L 201.165692 104.389426 
L 201.655998 95.832381 
L 201.754059 94.645861 
L 202.146304 83.97421 
L 202.63661 75.905955 
L 202.734671 77.360575 
L 202.832732 82.83365 
L 203.028855 105.842925 
L 203.224977 108.871669 
L 203.715283 102.293658 
L 203.813344 102.308568 
L 203.911405 101.425071 
L 204.205589 102.280771 
L 204.30365 101.989272 
L 204.597833 97.666767 
L 204.892017 90.503843 
L 205.578445 69.152891 
L 206.460996 48.535534 
L 206.559057 47.885444 
L 206.657118 48.136365 
L 206.951302 51.41281 
L 207.245485 60.110254 
L 208.029975 91.44256 
L 208.128036 94.249696 
L 208.226097 93.402029 
L 208.324158 90.302204 
L 208.42222 90.663797 
L 208.912526 100.157937 
L 209.206709 111.368751 
L 209.30477 113.047348 
L 209.402831 112.194488 
L 209.500893 113.410834 
L 209.697015 117.161152 
L 209.795076 117.004448 
L 209.893137 119.420921 
L 209.991199 117.890915 
L 210.08926 118.188053 
L 210.187321 118.925671 
L 210.285382 121.614473 
L 210.383443 121.388818 
L 210.579566 120.495847 
L 210.677627 121.114437 
L 210.775688 119.88485 
L 210.873749 120.769957 
L 211.069872 125.940797 
L 211.167933 126.411719 
L 211.265994 126.074958 
L 211.658239 131.336563 
L 211.7563 131.194352 
L 212.050483 134.31005 
L 212.148545 134.35081 
L 212.246606 136.067835 
L 212.442728 132.933286 
L 212.63885 131.064557 
L 213.619462 116.027335 
L 213.815585 117.488741 
L 213.913646 115.631844 
L 214.011707 116.303113 
L 214.109768 113.940981 
L 214.207829 114.055742 
L 214.305891 113.428661 
L 214.403952 114.127773 
L 214.502013 113.651025 
L 214.600074 112.124302 
L 214.796197 112.637226 
L 215.384564 103.639001 
L 215.482625 101.565206 
L 215.580686 102.27891 
L 215.87487 96.51923 
L 216.169053 88.514975 
L 216.267114 87.923978 
L 216.75742 78.122288 
L 216.855481 80.02368 
L 216.953543 85.722199 
L 217.247726 112.646667 
L 217.345787 113.38634 
L 217.443848 113.234673 
L 217.836093 106.41064 
L 217.934154 106.186539 
L 218.130277 104.942992 
L 218.326399 106.3255 
L 218.718644 99.840878 
L 218.816705 98.742488 
L 219.20895 86.283667 
L 219.503133 70.391405 
L 219.601194 69.801511 
L 219.895378 61.875119 
L 220.385684 51.420111 
L 220.679867 49.079582 
L 220.87599 50.895084 
L 221.072112 53.278096 
L 222.248846 94.383228 
L 222.346908 94.058547 
L 222.444969 90.369732 
L 222.54303 91.120022 
L 222.641091 93.612986 
L 222.739152 93.527741 
L 222.837213 94.477687 
L 223.033336 99.512095 
L 223.327519 111.092854 
L 223.425581 111.095791 
L 223.915887 118.82873 
L 224.013948 118.72371 
L 224.21007 121.110745 
L 224.406192 116.756536 
L 224.602315 120.455977 
L 224.700376 122.546793 
L 224.798437 121.061241 
L 224.896498 121.20032 
L 224.99456 121.986956 
L 225.288743 126.290078 
L 225.386804 126.17998 
L 225.484865 127.007554 
L 225.680988 129.657939 
L 225.87711 130.625177 
L 225.975171 130.588005 
L 226.171294 136.096374 
L 226.269355 135.138414 
L 226.367416 134.760595 
L 226.465477 133.781366 
L 226.563538 134.928133 
L 226.6616 130.406618 
L 226.759661 130.646288 
L 226.857722 127.770491 
L 226.955783 128.549161 
L 227.249967 121.864633 
L 227.348028 122.28286 
L 227.54415 118.77077 
L 227.642211 109.535869 
L 227.838334 116.8027 
L 228.034456 114.018372 
L 228.132517 113.83832 
L 228.230579 113.975275 
L 228.524762 111.907021 
L 228.622823 113.27757 
L 228.720884 112.091985 
L 228.818946 113.316711 
L 229.309252 108.519626 
L 229.407313 108.789165 
L 229.701496 101.08081 
L 230.682108 80.846665 
L 230.780169 79.864808 
L 230.87823 80.08223 
L 230.976292 82.130565 
L 231.368536 107.301714 
L 231.466598 108.05419 
L 231.564659 107.795365 
L 231.956903 101.824634 
L 232.153026 99.909768 
L 232.251087 99.712208 
L 232.349148 100.318388 
L 232.643332 97.800126 
L 232.741393 95.057715 
L 232.937515 83.61916 
L 233.035577 83.132444 
L 233.133638 91.818399 
L 233.231699 90.673056 
L 234.604555 51.227106 
L 234.800678 50.156421 
L 234.9968 48.709315 
L 235.192923 52.582633 
L 235.585167 65.199058 
L 235.977412 83.857697 
L 236.369657 96.982841 
L 236.467718 96.5885 
L 236.565779 94.698662 
L 236.66384 94.994864 
L 236.761901 97.196991 
L 236.859963 97.034007 
L 237.056085 80.900184 
L 237.44833 98.411073 
L 237.742513 102.468279 
L 237.938636 106.027907 
L 238.036697 106.644784 
L 238.134758 106.628782 
L 238.232819 106.322483 
L 238.33088 107.287264 
L 238.428942 109.436075 
L 238.527003 109.412693 
L 238.821186 110.15112 
L 238.919247 110.232851 
L 239.017309 111.563932 
L 239.213431 109.287225 
L 239.311492 109.443236 
L 239.605676 116.627615 
L 239.703737 114.786056 
L 240.095982 119.320466 
L 240.390165 117.866208 
L 240.488226 117.86855 
L 240.586288 117.181225 
L 240.684349 115.236716 
L 240.978532 104.446822 
L 241.370777 94.06029 
L 241.566899 98.085763 
L 241.664961 97.717087 
L 241.763022 95.748821 
L 241.959144 96.723349 
L 242.155267 109.999789 
L 242.253328 109.055454 
L 242.351389 109.161009 
L 242.645572 122.205868 
L 242.743634 122.307743 
L 242.841695 118.479634 
L 242.939756 120.607507 
L 243.037817 118.778699 
L 243.23394 121.547982 
L 243.332001 119.644642 
L 243.430062 119.756374 
L 243.528123 118.567769 
L 243.822307 93.868517 
L 243.920368 94.54963 
L 244.018429 92.503395 
L 244.214551 73.611779 
L 244.312613 73.205927 
L 244.90098 56.549675 
L 244.999041 56.7014 
L 245.097102 58.503407 
L 245.293224 77.877306 
L 245.489347 89.330315 
L 245.587408 90.562793 
L 245.685469 89.792717 
L 246.273836 80.097321 
L 246.371897 80.088469 
L 246.469959 80.668431 
L 246.56802 80.502439 
L 246.666081 80.574485 
L 246.764142 80.092583 
L 247.058326 76.178223 
L 247.254448 62.289464 
L 247.352509 62.703174 
L 247.45057 64.846163 
L 248.431182 36.100979 
L 248.823427 30.355077 
L 249.019549 29.046207 
L 249.411794 52.915638 
L 249.705978 61.640049 
L 250.196283 81.921583 
L 250.490467 92.249818 
L 250.588528 90.76972 
L 250.686589 88.588589 
L 250.980773 91.265072 
L 251.078834 91.69828 
L 251.667201 107.891258 
L 251.961385 110.6231 
L 252.059446 110.522529 
L 252.157507 109.944506 
L 252.255568 111.688764 
L 252.35363 111.483068 
L 252.451691 109.960803 
L 252.745874 113.539136 
L 252.843935 112.167143 
L 252.941997 114.458252 
L 253.040058 114.037575 
L 253.23618 117.971189 
L 253.334241 114.031069 
L 253.530364 119.584079 
L 253.628425 117.779112 
L 253.726486 121.94429 
L 253.824547 121.125383 
L 254.02067 121.556664 
L 254.118731 117.43695 
L 254.510976 123.653285 
L 254.707098 120.731546 
L 254.805159 121.100464 
L 255.001281 119.898921 
L 255.295465 117.758978 
L 255.589649 111.366144 
L 255.68771 109.148283 
L 255.785771 110.315186 
L 255.883832 109.379481 
L 255.981893 107.027881 
L 256.079954 107.109084 
L 256.178016 106.341856 
L 256.276077 103.934229 
L 256.374138 104.036169 
L 256.472199 102.195804 
L 256.766383 103.868941 
L 256.864444 102.941609 
L 256.962505 103.662921 
L 257.35475 100.197212 
L 257.452811 101.685283 
L 257.648933 98.905312 
L 257.746995 98.447545 
L 258.335362 87.687226 
L 258.531484 81.982137 
L 258.727606 78.008809 
L 258.923729 74.068568 
L 259.02179 72.606709 
L 259.119851 72.725203 
L 259.217912 73.648301 
L 259.414035 95.803282 
L 259.610157 109.946374 
L 259.708218 110.85128 
L 260.002402 106.995027 
L 260.198524 102.812686 
L 260.296585 102.713121 
L 260.590769 105.841529 
L 260.786891 103.397726 
L 260.884952 103.493229 
L 261.081075 101.523093 
L 261.277197 96.88817 
L 261.571381 89.373419 
L 261.865564 81.089998 
L 262.846176 56.681635 
L 262.944237 56.038644 
L 263.042298 56.704023 
L 263.238421 55.032236 
L 263.434543 57.977256 
L 263.826788 69.340249 
L 264.219033 85.724027 
L 264.611277 97.591776 
L 264.709339 97.485223 
L 264.8074 94.235712 
L 264.905461 94.239858 
L 265.297706 99.61321 
L 265.68995 108.279358 
L 265.886073 109.888738 
L 265.984134 109.138587 
L 266.082195 109.757505 
L 266.376379 106.976149 
L 266.47444 107.161587 
L 266.670562 105.833528 
L 266.866685 104.311549 
L 266.964746 104.384591 
L 267.258929 106.269871 
L 267.35699 105.194425 
L 267.553113 108.490073 
L 267.651174 109.697841 
L 267.749235 109.340197 
L 267.847296 110.949432 
L 267.945358 110.929257 
L 268.043419 108.405618 
L 268.239541 109.743412 
L 268.337602 109.17365 
L 268.533725 109.787954 
L 268.729847 108.156309 
L 268.827908 107.814847 
L 269.122092 104.339849 
L 269.220153 104.412349 
L 269.318214 104.42643 
L 269.416275 103.514307 
L 269.514337 100.632759 
L 269.612398 100.894608 
L 269.710459 100.863626 
L 269.80852 100.149182 
L 270.102704 97.082037 
L 270.59301 91.467389 
L 270.887193 93.204394 
L 271.083315 91.243907 
L 271.181377 92.833703 
L 271.279438 91.931668 
L 271.47556 89.327342 
L 271.573621 89.497962 
L 271.671683 89.353306 
L 271.769744 89.923742 
L 272.26005 81.044461 
L 272.358111 80.534119 
L 272.848417 69.922613 
L 273.1426 67.275987 
L 273.240661 67.944448 
L 273.338723 70.8345 
L 273.730967 101.79951 
L 273.829029 101.971838 
L 273.92709 101.778861 
L 274.123212 100.775637 
L 274.221273 100.592949 
L 274.319334 99.805146 
L 274.417396 100.059066 
L 274.515457 98.68322 
L 274.613518 99.044163 
L 274.711579 101.26183 
L 275.201885 96.171945 
L 276.770864 51.495599 
L 276.868925 51.454103 
L 277.065048 47.141261 
L 277.163109 47.173141 
L 277.26117 48.225082 
L 277.359231 47.820879 
L 277.947598 62.845161 
L 278.241782 76.090927 
L 278.830149 94.046962 
L 279.026271 90.119472 
L 279.222394 92.723367 
L 279.516577 99.986911 
L 279.810761 106.143609 
L 279.908822 106.719833 
L 280.301067 114.067589 
L 280.399128 114.453535 
L 280.59525 115.353873 
L 280.791373 119.41802 
L 280.889434 120.923204 
L 280.987495 120.853028 
L 281.575862 126.281398 
L 281.673923 125.859853 
L 281.870046 128.28031 
L 282.164229 131.136661 
L 282.26229 130.484631 
L 282.458413 132.400854 
L 282.654535 131.447874 
L 282.752596 131.284379 
L 282.850657 129.273122 
L 283.04678 130.757654 
L 283.144841 130.985547 
L 283.340963 126.911397 
L 283.439024 126.925327 
L 283.92933 120.628533 
L 284.027392 121.684772 
L 284.321575 117.607225 
L 284.419636 118.044803 
L 284.517697 117.801985 
L 284.615759 119.018648 
L 285.008003 113.231332 
L 285.106065 112.38174 
L 285.204126 110.547109 
L 285.400248 111.65451 
L 285.498309 113.016281 
L 285.792493 108.767021 
L 285.890554 108.496959 
L 286.086676 105.595298 
L 286.478921 96.432344 
L 287.263411 78.917759 
L 287.361472 79.499636 
L 287.459533 82.800645 
L 287.753717 112.147274 
L 287.851778 112.766935 
L 288.244022 108.591729 
L 288.440145 106.044351 
L 288.636267 105.232314 
L 288.734328 105.332145 
L 289.126573 101.010757 
L 289.224634 100.881908 
L 289.420757 96.135632 
L 290.107185 75.369001 
L 290.695552 58.006251 
L 291.283919 48.220488 
L 291.480041 48.932093 
L 291.872286 57.478806 
L 292.754837 91.315131 
L 292.950959 94.983033 
L 293.04902 93.508567 
L 293.147082 93.684501 
L 293.245143 94.833033 
L 293.343204 93.944026 
L 293.637387 99.912221 
L 294.029632 110.027712 
L 294.127693 111.671196 
L 294.225755 110.23877 
L 294.421877 115.563382 
L 294.519938 115.682118 
L 294.617999 115.523747 
L 295.010244 121.823604 
L 295.206366 122.189403 
L 295.304428 122.37759 
L 295.402489 124.474901 
L 295.50055 123.930484 
L 296.088917 132.464993 
L 296.186978 131.170353 
L 296.481162 139.586216 
L 296.677284 138.481924 
L 296.775345 138.745294 
L 296.971468 135.685534 
L 297.069529 135.543603 
L 297.363712 131.036199 
L 297.461774 130.765123 
L 297.854018 125.951882 
L 297.95208 127.009858 
L 298.050141 126.549208 
L 298.148202 125.53926 
L 298.344324 119.807283 
L 298.540447 120.515229 
L 298.736569 119.566324 
L 298.83463 119.690932 
L 299.030753 119.070998 
L 299.128814 119.948758 
L 299.324936 115.822549 
L 299.422997 117.373323 
L 299.815242 112.402925 
L 300.011364 109.971409 
L 300.305548 104.302259 
L 300.403609 103.75494 
L 300.893915 94.56857 
L 301.188099 86.667174 
L 301.28616 84.880719 
L 301.482282 85.78737 
L 301.580343 88.015115 
L 301.972588 113.313242 
L 302.16871 107.134123 
L 302.364833 111.429056 
L 302.855139 105.191451 
L 303.051261 106.449118 
L 303.345445 102.80557 
L 303.737689 94.902664 
L 304.129934 81.56993 
L 304.227995 78.730993 
L 304.424118 63.772425 
L 304.522179 65.295948 
L 304.914423 57.054137 
L 305.208607 51.608412 
L 305.306668 51.269061 
L 305.502791 49.942051 
L 305.600852 49.984164 
L 305.796974 51.315104 
L 305.993097 59.624713 
L 306.875647 94.060239 
L 306.973708 96.12931 
L 307.07177 96.115586 
L 307.267892 92.708951 
L 307.758198 99.500966 
L 308.052381 108.202328 
L 308.346565 111.052747 
L 308.640748 117.056885 
L 308.836871 118.892533 
L 308.934932 117.935326 
L 309.131054 122.407261 
L 309.229116 123.770535 
L 309.327177 123.432016 
L 309.425238 122.383997 
L 309.62136 126.339949 
L 309.915544 128.068564 
L 310.40585 136.369426 
L 310.503911 135.08847 
L 310.700033 142.657249 
L 310.798094 140.952668 
L 310.896156 140.959042 
L 310.994217 141.258171 
L 311.092278 140.380992 
L 311.190339 140.747719 
L 311.2884 139.944299 
L 311.386462 140.454188 
L 311.974829 130.281052 
L 312.07289 130.78906 
L 312.269012 118.534356 
L 312.465135 125.238825 
L 312.563196 125.163025 
L 312.661257 127.730352 
L 312.857379 123.041124 
L 312.95544 122.924434 
L 313.053502 122.503251 
L 313.151563 123.573781 
L 313.249624 123.190642 
L 313.445746 120.736893 
L 313.543808 120.197853 
L 313.641869 120.633696 
L 313.936052 116.482257 
L 314.034113 116.476465 
L 314.132175 117.462729 
L 314.426358 111.683373 
L 314.524419 110.992922 
L 314.818603 103.025021 
L 315.308909 91.958626 
L 315.40697 90.840118 
L 315.603092 88.015289 
L 315.701154 89.773549 
L 315.799215 95.872044 
L 315.995337 118.14173 
L 316.19146 120.732238 
L 316.485643 116.166272 
L 316.583704 117.031387 
L 316.681765 110.857171 
L 316.779827 113.368118 
L 316.877888 113.080316 
L 316.975949 109.813887 
L 317.172071 99.376377 
L 317.270133 99.738954 
L 317.368194 99.255071 
L 318.152683 78.755879 
L 318.250744 81.342354 
L 318.348806 80.653592 
L 318.642989 72.201173 
L 319.329417 52.368427 
L 319.427479 44.514896 
L 319.623601 46.821356 
L 320.015846 52.254094 
L 320.113907 54.589498 
L 320.604213 80.775706 
L 320.800335 85.909758 
L 321.19258 97.205155 
L 321.388702 91.492103 
L 321.486763 93.883396 
L 321.584825 93.76614 
L 321.879008 96.893654 
L 321.977069 101.441221 
L 322.07513 99.378077 
L 322.173192 99.998554 
L 322.565436 106.791473 
L 322.761559 118.961805 
L 322.85962 116.468361 
L 322.957681 118.535089 
L 323.055742 117.994473 
L 323.153803 118.24904 
L 323.349926 121.200268 
L 323.644109 118.562615 
L 323.840232 123.788072 
L 324.52666 128.109105 
L 324.722782 131.30151 
L 324.820844 130.382074 
L 325.115027 133.240208 
L 325.409211 129.405298 
L 325.507272 128.848025 
L 325.605333 129.018035 
L 325.703394 128.425179 
L 325.801455 125.515809 
L 325.899517 127.14835 
L 326.095639 121.045173 
L 326.291761 121.545401 
L 326.487884 117.390886 
L 326.782067 113.250738 
L 326.880128 113.271319 
L 327.076251 109.984972 
L 327.174312 110.694973 
L 327.272373 109.957228 
L 327.468496 110.723461 
L 327.566557 110.010561 
L 327.664618 110.148461 
L 327.762679 109.831299 
L 327.958801 106.757794 
L 328.056863 107.199586 
L 328.154924 105.025785 
L 328.252985 105.789654 
L 328.449107 101.246325 
L 328.64523 99.768143 
L 329.037474 88.561481 
L 329.135536 87.883612 
L 329.331658 83.812881 
L 329.52778 77.513179 
L 329.723903 76.524518 
L 329.821964 79.050567 
L 330.214209 109.412108 
L 330.410331 107.559102 
L 330.802576 101.540356 
L 330.900637 102.225958 
L 331.096759 99.473201 
L 331.19482 99.619195 
L 331.292882 100.512591 
L 331.97931 87.439857 
L 333.156044 51.21646 
L 333.450228 46.557577 
L 333.548289 47.438579 
L 333.744411 45.648183 
L 333.940534 47.275409 
L 334.43084 58.838012 
L 335.31339 91.313517 
L 335.509513 86.905112 
L 335.607574 87.143942 
L 335.999818 93.043964 
L 336.294002 102.793129 
L 336.392063 103.585193 
L 336.588186 107.128062 
L 336.686247 107.205854 
L 337.470736 116.417247 
L 337.568797 115.902823 
L 337.862981 119.025378 
L 337.961042 118.97487 
L 338.059103 119.447289 
L 338.353287 122.342793 
L 338.451348 122.1875 
L 338.64747 124.274351 
L 338.745532 124.466325 
L 338.941654 123.84825 
L 339.039715 123.807288 
L 339.137776 123.078949 
L 339.235837 124.309119 
L 339.530021 120.278489 
L 339.824205 110.736692 
L 340.118388 104.233639 
L 340.216449 103.846442 
L 340.31451 106.065171 
L 340.412572 105.973859 
L 340.510633 105.898763 
L 340.804816 101.925174 
L 340.902878 104.283978 
L 341.000939 104.174231 
L 341.099 102.960399 
L 341.197061 103.49428 
L 341.393183 102.013727 
L 341.491245 102.63007 
L 341.589306 102.043114 
L 341.687367 102.982554 
L 341.785428 102.064421 
L 341.883489 102.166899 
L 342.373795 99.227932 
L 342.667979 94.193195 
L 342.864101 92.03559 
L 343.256346 80.776647 
L 343.648591 75.202112 
L 343.746652 73.08892 
L 343.942774 74.624994 
L 344.335019 106.30734 
L 344.43308 106.374797 
L 344.629203 103.999408 
L 344.727264 104.734417 
L 344.825325 103.601024 
L 345.021447 100.669571 
L 345.119508 99.96411 
L 345.21757 100.446083 
L 345.315631 100.132958 
L 345.413692 100.736279 
L 345.609814 99.108814 
L 345.805937 94.515513 
L 347.276854 50.604072 
L 347.76716 45.201464 
L 347.963283 46.092936 
L 348.061344 44.860994 
L 348.747772 70.581403 
L 348.943895 77.95371 
L 349.4342 90.235455 
L 349.630323 86.04289 
L 349.728384 86.366015 
L 349.924506 87.272176 
L 350.414812 98.825759 
L 350.708996 102.038656 
L 350.905118 105.262176 
L 351.003179 103.882832 
L 351.101241 104.446978 
L 351.199302 103.995261 
L 351.689608 109.58346 
L 351.787669 108.615924 
L 352.277975 116.146113 
L 352.376036 115.902292 
L 352.474097 116.578884 
L 352.67022 120.011736 
L 352.866342 118.698148 
L 353.062464 119.855118 
L 353.160525 120.051336 
L 353.356648 120.913969 
L 353.846954 113.447328 
L 353.945015 112.483915 
L 354.043076 110.285021 
L 354.141137 110.674802 
L 354.33726 108.394717 
L 354.435321 108.559606 
L 354.729504 105.881519 
L 354.827566 106.235243 
L 355.023688 103.739419 
L 355.21981 103.561352 
L 355.612055 100.282421 
L 355.710116 100.995844 
L 355.808177 100.626826 
L 356.0043 101.248433 
L 356.102361 101.152365 
L 356.298483 98.980722 
L 356.494606 99.761206 
L 356.592667 99.385447 
L 357.769401 75.124906 
L 357.867462 73.648719 
L 358.063585 77.189855 
L 358.455829 106.82263 
L 358.55389 108.602026 
L 358.651952 107.483038 
L 359.142258 96.240037 
L 359.436441 94.55883 
L 359.534502 95.065053 
L 359.828686 92.559089 
L 360.122869 87.925603 
L 360.515114 76.52004 
L 361.78991 46.128421 
L 361.887971 44.99528 
L 362.084093 46.314166 
L 362.182154 46.149385 
L 362.280215 46.941491 
L 362.574399 54.932422 
L 362.868583 69.35333 
L 363.064705 77.112809 
L 363.260827 81.845558 
L 363.45695 87.360687 
L 363.555011 87.734135 
L 363.947256 83.035288 
L 364.241439 90.011044 
L 364.3395 90.155827 
L 364.535623 93.788922 
L 364.731745 96.862695 
L 364.829806 96.528372 
L 364.927867 95.390536 
L 365.025929 95.679424 
L 365.12399 96.806484 
L 365.320112 94.970706 
L 365.516234 96.497962 
L 365.712357 94.903275 
L 365.810418 94.661091 
L 365.908479 91.7391 
L 366.00654 92.443202 
L 366.104602 96.611002 
L 366.202663 96.382152 
L 366.300724 97.260033 
L 366.398785 96.802665 
L 366.496846 98.39913 
L 366.594907 97.978381 
L 366.79103 98.208681 
L 367.183275 102.637612 
L 367.379397 104.248504 
L 367.967764 95.267075 
L 368.065825 96.790402 
L 368.163886 96.433926 
L 368.261948 96.667467 
L 368.556131 94.559893 
L 368.654192 95.951876 
L 369.046437 90.71988 
L 369.242559 87.613315 
L 369.340621 86.899912 
L 369.438682 87.003942 
L 369.536743 87.374328 
L 369.830927 86.54799 
L 369.928988 87.201624 
L 370.027049 87.128257 
L 370.12511 86.988219 
L 370.321232 85.422397 
L 370.419294 87.996531 
L 370.517355 86.740205 
L 370.615416 86.913103 
L 370.713477 86.659592 
L 371.988273 62.90232 
L 372.184395 69.719935 
L 372.57664 101.77665 
L 372.674701 103.497665 
L 372.772762 103.049369 
L 372.968884 99.617023 
L 373.165007 98.54288 
L 373.361129 99.086554 
L 373.45919 98.593738 
L 373.557251 99.834331 
L 374.24368 92.038827 
L 374.930108 70.001658 
L 375.224292 61.668735 
L 375.518475 54.079781 
L 375.616536 53.582065 
L 375.91072 50.004203 
L 376.106842 49.672408 
L 376.204903 51.707692 
L 376.302965 51.349935 
L 376.401026 52.236089 
L 376.891332 68.857997 
L 377.283576 85.34516 
L 377.675821 97.864416 
L 377.871943 92.578472 
L 377.970005 92.5693 
L 378.068066 93.043015 
L 378.264188 98.192359 
L 378.460311 103.781172 
L 378.656433 109.393568 
L 378.754494 110.568993 
L 379.048678 117.723585 
L 379.2448 120.596914 
L 379.538984 118.138057 
L 379.637045 120.322385 
L 379.735106 118.606422 
L 379.931228 125.220322 
L 380.02929 126.227361 
L 380.127351 126.083192 
L 380.225412 127.899304 
L 380.323473 127.740877 
L 380.421534 125.880966 
L 381.009901 136.328116 
L 381.107963 136.276963 
L 381.304085 137.098893 
L 381.402146 137.068447 
L 381.500207 136.873461 
L 381.69633 139.70801 
L 381.794391 138.985169 
L 381.990513 134.933175 
L 382.088574 136.286345 
L 382.284697 134.427617 
L 382.480819 132.59267 
L 382.57888 132.290529 
L 382.775003 129.144483 
L 382.971125 127.208279 
L 383.265309 124.371861 
L 383.559492 123.404281 
L 383.657553 121.412158 
L 383.755614 121.615058 
L 384.049798 119.961025 
L 384.442043 115.464128 
L 384.638165 116.208342 
L 384.736226 115.445931 
L 384.932349 111.678164 
L 385.03041 112.04067 
L 385.422655 104.574776 
L 386.011022 91.195584 
L 386.207144 89.020869 
L 386.305205 90.596975 
L 386.599389 120.855287 
L 386.69745 120.738865 
L 386.795511 122.643252 
L 386.991633 119.868801 
L 387.285817 112.021279 
L 387.383878 111.794435 
L 387.580001 110.630913 
L 387.678062 111.270475 
L 387.776123 110.462753 
L 388.266429 101.850534 
L 388.36449 100.188736 
L 388.658674 91.12286 
L 389.247041 74.721604 
L 389.737347 59.201236 
L 390.03153 56.187669 
L 390.129591 56.176104 
L 390.227653 55.490649 
L 390.423775 57.632631 
L 390.521836 57.857697 
L 390.717958 61.311501 
L 391.69857 100.800523 
L 391.796631 102.253174 
L 391.992754 97.615819 
L 392.286937 100.747277 
L 392.973366 115.306191 
L 393.071427 115.960072 
L 393.36561 120.939271 
L 393.561733 121.768882 
L 393.659794 117.383222 
L 393.855916 126.753185 
L 393.953977 126.865619 
L 394.1501 130.768548 
L 394.248161 128.700104 
L 394.444283 135.034183 
L 394.836528 139.771382 
L 394.934589 138.538105 
L 395.228773 141.02576 
L 395.326834 141.43626 
L 395.424895 142.81821 
L 395.522956 142.045432 
L 395.621018 143.721369 
L 395.81714 140.470158 
L 395.915201 141.137019 
L 396.013262 140.75019 
L 396.209385 136.905818 
L 396.307446 137.203762 
L 396.601629 132.977249 
L 396.699691 128.89622 
L 396.895813 130.448824 
L 397.386119 125.855613 
L 397.48418 125.852718 
L 397.582241 125.692482 
L 397.680302 124.966836 
L 397.778364 125.15888 
L 397.974486 121.645917 
L 398.072547 122.593777 
L 398.26867 121.591213 
L 398.366731 121.347522 
L 398.562853 117.902242 
L 398.955098 113.348779 
L 399.249281 108.728729 
L 399.445404 105.692151 
L 400.229893 88.209272 
L 400.327954 87.649302 
L 400.426016 90.193641 
L 400.81826 121.149508 
L 400.916321 120.526153 
L 401.308566 113.449592 
L 401.504689 110.119231 
L 401.700811 109.758253 
L 402.093056 107.480951 
L 403.563973 67.148903 
L 403.956218 58.709764 
L 404.15234 57.299792 
L 404.348463 57.231697 
L 404.544585 57.678811 
L 405.034891 69.740016 
L 405.231013 80.49803 
L 405.525197 93.601674 
L 405.917442 102.717172 
L 406.211625 97.881174 
L 406.60387 105.181416 
L 406.996115 115.618536 
L 407.192237 117.335602 
L 407.290298 120.309713 
L 407.38836 119.791333 
L 407.486421 120.568718 
L 407.584482 120.093598 
L 407.780604 123.955393 
L 407.878665 123.65725 
L 408.074788 126.191275 
L 408.172849 126.146031 
L 408.368971 128.809247 
L 408.467033 128.93659 
L 408.565094 128.29435 
L 408.859277 132.738468 
L 408.957338 132.993896 
L 409.447644 141.81779 
L 409.545706 142.011549 
L 409.741828 139.428332 
L 409.839889 139.628077 
L 409.93795 138.010241 
L 410.134073 140.097785 
L 410.330195 137.440079 
L 410.624379 135.856963 
L 410.918562 131.169971 
L 411.114684 125.272963 
L 411.310807 125.381639 
L 411.408868 124.645208 
L 411.506929 124.696833 
L 411.60499 125.053827 
L 411.801113 124.894119 
L 411.899174 123.085369 
L 412.095296 124.34681 
L 412.38948 119.298123 
L 412.487541 119.126151 
L 412.585602 118.094468 
L 412.781725 118.730505 
L 412.879786 118.085804 
L 414.252642 89.658841 
L 414.350703 90.309582 
L 414.546826 94.850502 
L 414.841009 121.069282 
L 414.939071 123.326041 
L 415.233254 120.091714 
L 415.527438 114.60091 
L 415.72356 112.631474 
L 415.821621 113.309244 
L 416.017744 110.92102 
L 416.409988 105.450743 
L 416.704172 97.141316 
L 416.802233 96.736858 
L 418.077028 61.262414 
L 418.371212 58.804509 
L 418.469273 58.748663 
L 418.567334 58.948464 
L 419.155701 71.753448 
L 420.038252 105.340558 
L 420.234374 100.093179 
L 420.332436 99.878684 
L 420.430497 100.962728 
L 420.528558 100.66313 
L 420.72468 106.031893 
L 421.018864 113.124433 
L 421.116925 113.894853 
L 421.411109 120.641011 
L 421.607231 125.279631 
L 421.705292 125.207078 
L 421.803353 124.424739 
L 421.901415 125.827756 
L 421.999476 125.139392 
L 422.195598 129.989665 
L 422.293659 130.097156 
L 422.39172 132.346727 
L 422.489782 131.854637 
L 422.587843 132.503976 
L 423.17621 141.330845 
L 423.274271 140.84576 
L 423.470393 141.625797 
L 423.568455 141.487092 
L 423.666516 141.546789 
L 423.764577 141.037867 
L 423.960699 141.355563 
L 424.156822 139.213654 
L 424.254883 140.282682 
L 424.451005 137.074781 
L 424.549067 138.669064 
L 424.647128 138.642219 
L 424.745189 137.69641 
L 425.039372 131.00969 
L 425.235495 129.714158 
L 425.431617 125.02846 
L 425.529678 125.208513 
L 425.725801 125.63146 
L 425.921923 124.543076 
L 426.019984 124.782144 
L 426.314168 121.794274 
L 426.412229 122.061726 
L 426.51029 120.774028 
L 426.608351 120.851355 
L 426.706413 121.421176 
L 426.902535 118.286558 
L 427.098657 117.518355 
L 427.490902 108.867809 
L 427.588963 108.640672 
L 427.883147 103.141225 
L 428.275391 93.38939 
L 428.373453 92.37118 
L 428.471514 92.591459 
L 428.569575 93.726201 
L 428.667636 96.824242 
L 428.96182 122.472706 
L 429.157942 124.243448 
L 429.354064 121.561064 
L 429.84437 113.089529 
L 429.942432 113.3142 
L 430.138554 112.55187 
L 430.334676 109.59598 
L 430.824982 99.444609 
L 430.923043 98.225795 
L 431.805594 70.766811 
L 432.197839 64.986049 
L 432.2959 64.30123 
L 432.393961 60.47474 
L 432.492022 61.035094 
L 432.590083 62.348525 
L 432.688145 61.889981 
L 433.178451 70.667759 
L 434.159062 106.032744 
L 434.453246 99.493648 
L 434.551307 100.180461 
L 434.845491 106.739093 
L 435.335797 116.778661 
L 435.433858 116.330931 
L 435.62998 118.912188 
L 435.728041 121.177365 
L 435.826103 117.665081 
L 435.924164 119.139391 
L 436.218347 127.664718 
L 436.41447 130.184809 
L 436.512531 129.65528 
L 436.806714 131.526777 
L 437.198959 137.516569 
L 437.29702 137.317986 
L 437.395081 137.278453 
L 437.493143 137.677273 
L 437.591204 134.577449 
L 437.787326 136.316625 
L 437.885387 135.653215 
L 438.08151 137.371665 
L 438.277632 137.376882 
L 438.473754 132.360617 
L 438.96406 117.964818 
L 439.160183 119.605888 
L 439.258244 121.476043 
L 439.454366 119.584348 
L 439.552427 121.790172 
L 439.650489 119.473119 
L 439.944672 121.121188 
L 440.140795 118.789523 
L 440.238856 119.508627 
L 440.336917 120.341801 
L 440.434978 120.239877 
L 440.6311 117.831985 
L 440.925284 119.565095 
L 441.023345 118.125903 
L 441.121406 118.321623 
L 441.905896 103.88807 
L 442.494263 91.262413 
L 442.690385 89.537971 
L 442.788447 92.684026 
L 443.08263 117.508607 
L 443.180691 117.442107 
L 443.474875 113.61559 
L 443.670997 110.458989 
L 443.965181 107.819959 
L 444.063242 108.204606 
L 444.259364 109.20825 
L 444.455487 107.163126 
L 444.553548 108.140917 
L 444.651609 106.719421 
L 444.847731 101.892284 
L 445.043854 98.388669 
L 446.318649 62.241931 
L 446.41671 61.728214 
L 446.514771 60.357065 
L 446.710894 61.594379 
L 446.808955 61.023113 
L 447.299261 67.443716 
L 447.593444 79.355331 
L 447.887628 92.433445 
L 448.279873 103.859019 
L 448.672117 97.274692 
L 449.162423 110.073694 
L 449.260485 110.053432 
L 449.456607 114.134995 
L 449.75079 117.584526 
L 449.848852 117.283928 
L 449.946913 116.606304 
L 450.143035 120.735688 
L 450.241096 119.955334 
L 450.53528 126.637915 
L 450.829463 128.568467 
L 451.221708 135.168347 
L 451.319769 134.970755 
L 451.417831 135.796348 
L 451.515892 139.032761 
L 451.613953 132.730538 
L 451.810075 137.696773 
L 451.908137 138.451322 
L 452.006198 137.497381 
L 452.20232 139.91899 
L 452.496504 135.276588 
L 452.692626 130.758476 
L 452.888748 127.557146 
L 452.98681 127.322576 
L 453.182932 122.660394 
L 453.280993 122.673844 
L 453.379054 125.136416 
L 453.575177 121.373036 
L 453.86936 119.005797 
L 453.967421 119.817564 
L 454.163544 117.142538 
L 454.261605 116.568317 
L 454.457727 114.003161 
L 454.65385 114.999127 
L 454.751911 116.185364 
L 454.849972 116.168108 
L 454.948033 115.465979 
L 455.046094 115.568539 
L 455.438339 109.484529 
L 455.634461 109.111573 
L 455.732523 108.781085 
L 456.124767 102.286024 
L 456.222829 100.908045 
L 456.517012 93.134764 
L 456.615073 91.110516 
L 456.713134 91.463409 
L 456.811196 93.15414 
L 456.909257 97.534649 
L 457.20344 124.435476 
L 457.301502 124.621247 
L 457.595685 120.126098 
L 457.889869 110.973928 
L 458.380175 109.721787 
L 458.674358 104.383065 
L 458.968542 102.57334 
L 459.262725 95.296759 
L 460.439459 64.888548 
L 460.733643 62.053302 
L 460.831704 62.428148 
L 460.929765 62.396026 
L 461.125888 64.459851 
L 461.223949 64.006699 
L 461.518132 73.378636 
L 462.400683 102.758682 
L 462.498744 102.026397 
L 462.694867 97.056044 
L 462.792928 96.833689 
L 463.479356 105.65562 
L 463.577417 105.450588 
L 463.675478 106.304228 
L 463.77354 106.226314 
L 463.871601 106.187935 
L 464.165784 104.554731 
L 464.263846 105.367082 
L 464.361907 105.083801 
L 464.459968 106.072782 
L 464.558029 105.377948 
L 464.754151 107.486702 
L 465.048335 109.003189 
L 465.146396 108.886924 
L 465.244457 111.824093 
L 465.342519 111.765704 
L 465.44058 111.658883 
L 465.538641 111.340566 
L 465.832824 115.470194 
L 465.930886 115.392385 
L 466.028947 115.148442 
L 466.225069 115.259347 
L 466.32313 115.068185 
L 466.421192 116.109945 
L 466.617314 115.629199 
L 466.911497 109.708904 
L 467.009559 109.442286 
L 467.499865 103.542574 
L 467.597926 103.600549 
L 467.695987 102.74121 
L 467.794048 102.9611 
L 467.892109 102.612603 
L 468.186293 99.343972 
L 468.382415 98.058662 
L 468.480476 98.045417 
L 468.578538 98.313076 
L 468.77466 96.902023 
L 468.872721 97.17734 
L 469.264966 94.564116 
L 469.461088 95.053536 
L 469.755272 93.827791 
L 470.147517 87.309704 
L 470.735884 76.876672 
L 470.833945 76.080397 
L 471.030067 82.923465 
L 471.324251 113.092693 
L 471.422312 112.997993 
L 471.716495 108.517172 
L 472.010679 103.722743 
L 472.10874 104.393254 
L 472.206801 103.655631 
L 472.304863 104.099421 
L 472.402924 105.214488 
L 472.500985 105.032643 
L 472.697107 101.428771 
L 472.89323 103.976958 
L 472.991291 104.425959 
L 473.187413 100.715778 
L 473.285474 100.05821 
L 473.579658 92.468406 
L 473.77578 85.373963 
L 473.873841 84.25327 
L 474.266086 71.66563 
L 474.658331 63.037357 
L 475.050576 61.551663 
L 475.835065 82.360789 
L 476.129249 94.883677 
L 476.521493 105.936942 
L 477.011799 101.194122 
L 477.207922 106.501455 
L 477.502105 116.550448 
L 477.89435 120.760749 
L 478.090472 123.632325 
L 478.188533 123.411077 
L 479.071084 132.75892 
L 479.169145 133.19192 
L 479.56139 136.775911 
L 479.757512 139.901312 
L 479.855574 140.110739 
L 479.953635 139.875528 
L 480.051696 140.138094 
L 480.149757 139.956038 
L 480.247818 141.420701 
L 480.542002 138.999059 
L 480.738124 140.313022 
L 480.934247 138.682693 
L 481.032308 138.41535 
L 481.424553 132.015619 
L 481.914858 126.097761 
L 482.01292 126.925107 
L 482.209042 125.611649 
L 482.405164 125.283508 
L 482.503226 123.949272 
L 482.601287 125.080927 
L 482.89547 124.246966 
L 482.993531 124.646056 
L 483.091593 123.746536 
L 483.189654 121.159155 
L 483.287715 121.805127 
L 484.366388 100.472719 
L 484.856694 88.254895 
L 484.954755 88.88201 
L 485.150877 98.69563 
L 485.445061 121.438477 
L 485.543122 121.18906 
L 485.739245 118.546848 
L 486.131489 111.882868 
L 486.22955 111.934513 
L 486.523734 109.413875 
L 486.621795 109.634293 
L 487.504346 92.673137 
L 487.798529 82.605981 
L 487.798529 82.605981 
" clip-path="url(#p783f21f3ff)" style="fill: none; stroke: #5b5b5b; stroke-opacity: 0.85; stroke-width: 1.2; stroke-linecap: square"/>
   </g>
   <g id="patch_4">
    <path d="M 43.275 126.979375 
L 43.275 29.959375 
" style="fill: none; stroke: #cccccc; stroke-width: 0.75; stroke-linejoin: miter; stroke-linecap: square"/>
   </g>
   <g id="patch_5">
    <path d="M 50.151471 131.979375 
L 487.896591 131.979375 
" style="fill: none; stroke: #cccccc; stroke-width: 0.75; stroke-linejoin: miter; stroke-linecap: square"/>
   </g>
   <g id="text_47">
    <!-- Residuals: July -->
    <g style="fill: #505050" transform="translate(45.775 14.959375) scale(0.1 -0.1)">
     <defs>
      <path id="Ubuntu-Bold-52" d="M 1811 4486 
Q 2810 4486 3341 4131 
Q 3872 3776 3872 3027 
Q 3872 2560 3657 2269 
Q 3443 1978 3040 1811 
Q 3174 1645 3321 1430 
Q 3469 1216 3613 982 
Q 3757 749 3891 496 
Q 4026 243 4141 0 
L 3021 0 
Q 2899 218 2774 442 
Q 2650 666 2518 877 
Q 2387 1088 2259 1277 
Q 2131 1466 2003 1619 
L 1510 1619 
L 1510 0 
L 512 0 
L 512 4371 
Q 838 4435 1187 4460 
Q 1536 4486 1811 4486 
z
M 1869 3635 
Q 1760 3635 1673 3628 
Q 1587 3622 1510 3616 
L 1510 2413 
L 1792 2413 
Q 2355 2413 2598 2553 
Q 2842 2694 2842 3034 
Q 2842 3360 2595 3497 
Q 2349 3635 1869 3635 
z
" transform="scale(0.015625)"/>
      <path id="Ubuntu-Bold-65" d="M 288 1658 
Q 288 2106 425 2442 
Q 563 2778 787 3002 
Q 1011 3226 1302 3341 
Q 1594 3456 1901 3456 
Q 2618 3456 3034 3017 
Q 3450 2579 3450 1728 
Q 3450 1645 3443 1545 
Q 3437 1446 3430 1370 
L 1267 1370 
Q 1299 1075 1542 902 
Q 1786 730 2195 730 
Q 2458 730 2710 778 
Q 2963 826 3123 896 
L 3251 122 
Q 3174 83 3046 44 
Q 2918 6 2761 -22 
Q 2605 -51 2425 -70 
Q 2246 -90 2067 -90 
Q 1613 -90 1277 44 
Q 941 179 720 412 
Q 499 646 393 966 
Q 288 1286 288 1658 
z
M 2528 2022 
Q 2522 2144 2486 2259 
Q 2451 2374 2377 2464 
Q 2304 2554 2192 2611 
Q 2080 2669 1914 2669 
Q 1754 2669 1638 2614 
Q 1523 2560 1446 2470 
Q 1370 2381 1328 2262 
Q 1286 2144 1267 2022 
L 2528 2022 
z
" transform="scale(0.015625)"/>
      <path id="Ubuntu-Bold-73" d="M 1414 685 
Q 1677 685 1785 736 
Q 1894 787 1894 934 
Q 1894 1050 1753 1136 
Q 1613 1222 1325 1331 
Q 1101 1414 918 1504 
Q 736 1594 608 1718 
Q 480 1843 409 2016 
Q 339 2189 339 2432 
Q 339 2906 691 3181 
Q 1043 3456 1658 3456 
Q 1965 3456 2246 3401 
Q 2528 3347 2694 3283 
L 2528 2541 
Q 2362 2598 2166 2643 
Q 1971 2688 1728 2688 
Q 1280 2688 1280 2438 
Q 1280 2381 1299 2336 
Q 1318 2291 1376 2249 
Q 1434 2208 1533 2160 
Q 1632 2112 1786 2054 
Q 2099 1939 2304 1827 
Q 2509 1715 2627 1584 
Q 2746 1453 2794 1293 
Q 2842 1133 2842 922 
Q 2842 422 2467 166 
Q 2093 -90 1408 -90 
Q 960 -90 662 -13 
Q 365 64 250 115 
L 410 890 
Q 653 794 909 739 
Q 1165 685 1414 685 
z
" transform="scale(0.015625)"/>
      <path id="Ubuntu-Bold-69" d="M 1402 0 
L 448 0 
L 448 3366 
L 1402 3366 
L 1402 0 
z
M 1491 4339 
Q 1491 4077 1321 3926 
Q 1152 3776 922 3776 
Q 691 3776 521 3926 
Q 352 4077 352 4339 
Q 352 4602 521 4752 
Q 691 4902 922 4902 
Q 1152 4902 1321 4752 
Q 1491 4602 1491 4339 
z
" transform="scale(0.015625)"/>
      <path id="Ubuntu-Bold-64" d="M 1261 1709 
Q 1261 1267 1459 998 
Q 1658 730 2048 730 
Q 2176 730 2285 739 
Q 2394 749 2464 762 
L 2464 2496 
Q 2374 2554 2230 2592 
Q 2086 2630 1939 2630 
Q 1261 2630 1261 1709 
z
M 3418 109 
Q 3290 70 3123 35 
Q 2957 0 2774 -25 
Q 2592 -51 2403 -67 
Q 2214 -83 2042 -83 
Q 1626 -83 1299 38 
Q 973 160 749 387 
Q 525 614 406 937 
Q 288 1261 288 1664 
Q 288 2074 390 2403 
Q 493 2733 685 2963 
Q 877 3194 1155 3315 
Q 1434 3437 1792 3437 
Q 1990 3437 2147 3398 
Q 2304 3360 2464 3290 
L 2464 4813 
L 3418 4966 
L 3418 109 
z
" transform="scale(0.015625)"/>
      <path id="Ubuntu-Bold-75" d="M 3322 115 
Q 3078 45 2694 -16 
Q 2310 -77 1888 -77 
Q 1459 -77 1174 38 
Q 890 154 723 362 
Q 557 570 486 858 
Q 416 1146 416 1491 
L 416 3366 
L 1370 3366 
L 1370 1606 
Q 1370 1146 1491 941 
Q 1613 736 1946 736 
Q 2048 736 2163 745 
Q 2278 755 2368 768 
L 2368 3366 
L 3322 3366 
L 3322 115 
z
" transform="scale(0.015625)"/>
      <path id="Ubuntu-Bold-61" d="M 1734 666 
Q 1875 666 2003 672 
Q 2131 678 2208 691 
L 2208 1414 
Q 2150 1427 2035 1440 
Q 1920 1453 1824 1453 
Q 1690 1453 1571 1437 
Q 1453 1421 1363 1376 
Q 1274 1331 1222 1254 
Q 1171 1178 1171 1062 
Q 1171 838 1321 752 
Q 1472 666 1734 666 
z
M 1658 3456 
Q 2080 3456 2361 3360 
Q 2643 3264 2812 3085 
Q 2982 2906 3052 2650 
Q 3123 2394 3123 2080 
L 3123 96 
Q 2918 51 2553 -9 
Q 2189 -70 1670 -70 
Q 1344 -70 1078 -12 
Q 813 45 621 176 
Q 429 307 326 518 
Q 224 730 224 1037 
Q 224 1331 342 1536 
Q 461 1741 659 1862 
Q 858 1984 1114 2038 
Q 1370 2093 1645 2093 
Q 1830 2093 1974 2077 
Q 2118 2061 2208 2035 
L 2208 2125 
Q 2208 2368 2061 2515 
Q 1914 2662 1549 2662 
Q 1306 2662 1069 2627 
Q 832 2592 659 2528 
L 538 3296 
Q 621 3322 745 3350 
Q 870 3379 1017 3401 
Q 1165 3424 1328 3440 
Q 1491 3456 1658 3456 
z
" transform="scale(0.015625)"/>
      <path id="Ubuntu-Bold-6c" d="M 1792 -64 
Q 1376 -58 1117 25 
Q 858 109 707 259 
Q 557 410 502 624 
Q 448 838 448 1107 
L 448 4813 
L 1402 4966 
L 1402 1299 
Q 1402 1171 1421 1068 
Q 1440 966 1494 896 
Q 1549 826 1651 781 
Q 1754 736 1926 723 
L 1792 -64 
z
" transform="scale(0.015625)"/>
      <path id="Ubuntu-Bold-3a" d="M 1382 2810 
Q 1382 2522 1200 2371 
Q 1018 2221 787 2221 
Q 557 2221 374 2371 
Q 192 2522 192 2810 
Q 192 3098 374 3248 
Q 557 3398 787 3398 
Q 1018 3398 1200 3248 
Q 1382 3098 1382 2810 
z
M 1382 506 
Q 1382 218 1200 67 
Q 1018 -83 787 -83 
Q 557 -83 374 67 
Q 192 218 192 506 
Q 192 794 374 944 
Q 557 1094 787 1094 
Q 1018 1094 1200 944 
Q 1382 794 1382 506 
z
" transform="scale(0.015625)"/>
      <path id="Ubuntu-Bold-20" transform="scale(0.015625)"/>
      <path id="Ubuntu-Bold-4a" d="M 2938 1491 
Q 2938 1165 2864 877 
Q 2790 589 2608 374 
Q 2426 160 2115 35 
Q 1805 -90 1331 -90 
Q 896 -90 582 16 
Q 269 122 64 262 
L 397 1037 
Q 582 928 793 845 
Q 1005 762 1254 762 
Q 1619 762 1779 941 
Q 1939 1120 1939 1542 
L 1939 4435 
L 2938 4435 
L 2938 1491 
z
" transform="scale(0.015625)"/>
      <path id="Ubuntu-Bold-79" d="M 3437 3366 
Q 3149 2394 2835 1542 
Q 2522 691 2150 -109 
Q 2016 -397 1881 -598 
Q 1747 -800 1587 -931 
Q 1427 -1062 1225 -1123 
Q 1024 -1184 755 -1184 
Q 531 -1184 342 -1142 
Q 154 -1101 32 -1050 
L 198 -288 
Q 346 -339 461 -358 
Q 576 -378 704 -378 
Q 960 -378 1097 -240 
Q 1235 -102 1331 141 
Q 1005 781 678 1577 
Q 352 2374 64 3366 
L 1075 3366 
Q 1139 3117 1225 2825 
Q 1312 2534 1408 2236 
Q 1504 1939 1603 1657 
Q 1702 1376 1792 1146 
Q 1875 1376 1964 1657 
Q 2054 1939 2140 2236 
Q 2227 2534 2307 2825 
Q 2387 3117 2451 3366 
L 3437 3366 
z
" transform="scale(0.015625)"/>
     </defs>
     <use xlink:href="#Ubuntu-Bold-52"/>
     <use xlink:href="#Ubuntu-Bold-65" x="64.199997"/>
     <use xlink:href="#Ubuntu-Bold-73" x="122.599991"/>
     <use xlink:href="#Ubuntu-Bold-69" x="171.099976"/>
     <use xlink:href="#Ubuntu-Bold-64" x="199.999969"/>
     <use xlink:href="#Ubuntu-Bold-75" x="260.399963"/>
     <use xlink:href="#Ubuntu-Bold-61" x="319.299957"/>
     <use xlink:href="#Ubuntu-Bold-6c" x="374.599945"/>
     <use xlink:href="#Ubuntu-Bold-73" x="406.199936"/>
     <use xlink:href="#Ubuntu-Bold-3a" x="454.699921"/>
     <use xlink:href="#Ubuntu-Bold-20" x="479.299911"/>
     <use xlink:href="#Ubuntu-Bold-4a" x="503.299896"/>
     <use xlink:href="#Ubuntu-Bold-75" x="556.19989"/>
     <use xlink:href="#Ubuntu-Bold-6c" x="615.099884"/>
     <use xlink:href="#Ubuntu-Bold-79" x="645.574875"/>
    </g>
   </g>
   <g id="line2d_48">
    <path d="M 50.239 78.469375 
L 487.711 78.469375 
" clip-path="url(#p783f21f3ff)" style="fill: none; stroke-dasharray: 0.5,0.825; stroke-dashoffset: 0; stroke: #cd4a3f; stroke-width: 0.5"/>
   </g>
  </g>
 </g>
 <defs>
  <clipPath id="p21baf29eba">
   <rect x="45.775" y="126.979375" width="446.4" height="0"/>
  </clipPath>
  <clipPath id="p783f21f3ff">
   <rect x="45.775" y="29.959375" width="446.4" height="97.02"/>
  </clipPath>
 </defs>
</svg>
