<?xml version="1.0" encoding="utf-8" standalone="no"?>
<!DOCTYPE svg PUBLIC "-//W3C//DTD SVG 1.1//EN"
  "http://www.w3.org/Graphics/SVG/1.1/DTD/svg11.dtd">
<svg xmlns:xlink="http://www.w3.org/1999/xlink" width="524.709375pt" height="192.79875pt" viewBox="0 0 524.709375 192.79875" xmlns="http://www.w3.org/2000/svg" version="1.1">
 <metadata>
  <rdf:RDF xmlns:dc="http://purl.org/dc/elements/1.1/" xmlns:cc="http://creativecommons.org/ns#" xmlns:rdf="http://www.w3.org/1999/02/22-rdf-syntax-ns#">
   <cc:Work>
    <dc:type rdf:resource="http://purl.org/dc/dcmitype/StillImage"/>
    <dc:date>2024-05-07T19:25:13.197362</dc:date>
    <dc:format>image/svg+xml</dc:format>
    <dc:creator>
     <cc:Agent>
      <dc:title>Matplotlib v3.8.3, https://matplotlib.org/</dc:title>
     </cc:Agent>
    </dc:creator>
   </cc:Work>
  </rdf:RDF>
 </metadata>
 <defs>
  <style type="text/css">*{stroke-linejoin: round; stroke-linecap: butt}</style>
 </defs>
 <g id="figure_1">
  <g id="patch_1">
   <path d="M 0 192.79875 
L 524.709375 192.79875 
L 524.709375 0 
L 0 0 
L 0 192.79875 
z
" style="fill: none"/>
  </g>
  <g id="axes_1">
   <g id="patch_2">
    <path d="M 40.410938 163.8875 
L 486.810937 163.8875 
L 486.810937 25.2875 
L 40.410938 25.2875 
L 40.410938 163.8875 
z
" style="fill: none"/>
   </g>
   <g id="matplotlib.axis_1">
    <g id="xtick_1">
     <g id="line2d_1">
      <defs>
       <path id="m93742d2a57" d="M 0 0 
L 0 3 
" style="stroke: #cecece; stroke-width: 0.75"/>
      </defs>
      <g>
       <use xlink:href="#m93742d2a57" x="60.701847" y="168.8875" style="fill: #cecece; stroke: #cecece; stroke-width: 0.75"/>
      </g>
     </g>
     <g id="text_1">
      <!-- February -->
      <g style="fill: #808080" transform="translate(44.471222 184.095) scale(0.08 -0.08)">
       <defs>
        <path id="Ubuntu-46" d="M 550 0 
L 550 4435 
L 3226 4435 
L 3226 3904 
L 1171 3904 
L 1171 2566 
L 2995 2566 
L 2995 2042 
L 1171 2042 
L 1171 0 
L 550 0 
z
" transform="scale(0.015625)"/>
        <path id="Ubuntu-65" d="M 326 1658 
Q 326 2099 454 2428 
Q 582 2758 793 2976 
Q 1005 3194 1280 3302 
Q 1555 3411 1843 3411 
Q 2515 3411 2873 2992 
Q 3232 2573 3232 1715 
Q 3232 1677 3232 1616 
Q 3232 1555 3226 1504 
L 947 1504 
Q 986 986 1248 717 
Q 1510 448 2067 448 
Q 2381 448 2595 502 
Q 2810 557 2918 608 
L 3002 109 
Q 2893 51 2621 -13 
Q 2349 -77 2003 -77 
Q 1568 -77 1251 54 
Q 934 186 729 416 
Q 525 646 425 963 
Q 326 1280 326 1658 
z
M 2611 1984 
Q 2618 2387 2410 2646 
Q 2202 2906 1837 2906 
Q 1632 2906 1475 2826 
Q 1318 2746 1209 2618 
Q 1101 2490 1040 2323 
Q 979 2157 960 1984 
L 2611 1984 
z
" transform="scale(0.015625)"/>
        <path id="Ubuntu-62" d="M 1107 3181 
Q 1216 3251 1437 3328 
Q 1658 3405 1946 3405 
Q 2304 3405 2582 3277 
Q 2861 3149 3053 2918 
Q 3245 2688 3344 2368 
Q 3443 2048 3443 1664 
Q 3443 1261 3324 937 
Q 3206 614 2988 390 
Q 2771 166 2464 44 
Q 2157 -77 1773 -77 
Q 1357 -77 1037 -19 
Q 717 38 512 96 
L 512 4864 
L 1107 4966 
L 1107 3181 
z
M 1107 518 
Q 1197 493 1360 470 
Q 1523 448 1766 448 
Q 2246 448 2534 765 
Q 2822 1082 2822 1664 
Q 2822 1920 2771 2144 
Q 2720 2368 2605 2531 
Q 2490 2694 2307 2787 
Q 2125 2880 1869 2880 
Q 1626 2880 1421 2797 
Q 1216 2714 1107 2624 
L 1107 518 
z
" transform="scale(0.015625)"/>
        <path id="Ubuntu-72" d="M 1741 3398 
Q 1818 3398 1917 3388 
Q 2016 3379 2112 3363 
Q 2208 3347 2288 3331 
Q 2368 3315 2406 3302 
L 2304 2784 
Q 2234 2810 2070 2845 
Q 1907 2880 1651 2880 
Q 1485 2880 1321 2845 
Q 1158 2810 1107 2797 
L 1107 0 
L 512 0 
L 512 3187 
Q 723 3264 1036 3331 
Q 1350 3398 1741 3398 
z
" transform="scale(0.015625)"/>
        <path id="Ubuntu-75" d="M 3162 96 
Q 2957 45 2621 -12 
Q 2285 -70 1843 -70 
Q 1459 -70 1196 42 
Q 934 154 774 358 
Q 614 563 544 841 
Q 474 1120 474 1459 
L 474 3328 
L 1069 3328 
L 1069 1587 
Q 1069 979 1261 716 
Q 1453 454 1907 454 
Q 2003 454 2105 460 
Q 2208 467 2297 476 
Q 2387 486 2460 496 
Q 2534 506 2566 518 
L 2566 3328 
L 3162 3328 
L 3162 96 
z
" transform="scale(0.015625)"/>
        <path id="Ubuntu-61" d="M 1638 429 
Q 1850 429 2013 438 
Q 2176 448 2285 474 
L 2285 1466 
Q 2221 1498 2077 1520 
Q 1933 1542 1728 1542 
Q 1594 1542 1443 1523 
Q 1293 1504 1168 1443 
Q 1043 1382 960 1276 
Q 877 1171 877 998 
Q 877 678 1081 553 
Q 1286 429 1638 429 
z
M 1587 3411 
Q 1946 3411 2192 3318 
Q 2438 3226 2588 3056 
Q 2739 2886 2803 2652 
Q 2867 2419 2867 2138 
L 2867 58 
Q 2790 45 2652 22 
Q 2515 0 2342 -19 
Q 2170 -38 1968 -54 
Q 1766 -70 1568 -70 
Q 1286 -70 1049 -12 
Q 813 45 640 169 
Q 467 294 371 499 
Q 275 704 275 992 
Q 275 1267 387 1465 
Q 499 1664 691 1785 
Q 883 1907 1139 1964 
Q 1395 2022 1677 2022 
Q 1766 2022 1862 2012 
Q 1958 2003 2044 1987 
Q 2131 1971 2195 1958 
Q 2259 1946 2285 1939 
L 2285 2106 
Q 2285 2253 2253 2397 
Q 2221 2541 2137 2653 
Q 2054 2765 1910 2832 
Q 1766 2899 1536 2899 
Q 1242 2899 1021 2857 
Q 800 2816 691 2771 
L 621 3264 
Q 736 3315 1005 3363 
Q 1274 3411 1587 3411 
z
" transform="scale(0.015625)"/>
        <path id="Ubuntu-79" d="M 122 -621 
Q 192 -653 304 -681 
Q 416 -710 525 -710 
Q 877 -710 1075 -553 
Q 1274 -397 1434 -45 
Q 1030 723 681 1584 
Q 333 2445 102 3328 
L 742 3328 
Q 813 3040 912 2707 
Q 1011 2374 1132 2022 
Q 1254 1670 1395 1318 
Q 1536 966 1690 640 
Q 1933 1312 2112 1971 
Q 2291 2630 2451 3328 
L 3066 3328 
Q 2835 2387 2553 1520 
Q 2272 653 1946 -102 
Q 1818 -390 1680 -598 
Q 1542 -806 1376 -940 
Q 1210 -1075 1002 -1139 
Q 794 -1203 531 -1203 
Q 461 -1203 384 -1193 
Q 307 -1184 233 -1168 
Q 160 -1152 99 -1133 
Q 38 -1114 13 -1101 
L 122 -621 
z
" transform="scale(0.015625)"/>
       </defs>
       <use xlink:href="#Ubuntu-46"/>
       <use xlink:href="#Ubuntu-65" x="52.324997"/>
       <use xlink:href="#Ubuntu-62" x="108.224991"/>
       <use xlink:href="#Ubuntu-72" x="167.124985"/>
       <use xlink:href="#Ubuntu-75" x="205.724976"/>
       <use xlink:href="#Ubuntu-61" x="263.124969"/>
       <use xlink:href="#Ubuntu-72" x="315.324966"/>
       <use xlink:href="#Ubuntu-79" x="356.049957"/>
      </g>
     </g>
    </g>
    <g id="xtick_2">
     <g id="line2d_2">
      <g>
       <use xlink:href="#m93742d2a57" x="128.33821" y="168.8875" style="fill: #cecece; stroke: #cecece; stroke-width: 0.75"/>
      </g>
     </g>
     <g id="text_2">
      <!-- March -->
      <g style="fill: #808080" transform="translate(117.078835 184.095) scale(0.08 -0.08)">
       <defs>
        <path id="Ubuntu-4d" d="M 2541 614 
Q 2477 768 2371 1005 
Q 2266 1242 2144 1517 
Q 2022 1792 1884 2083 
Q 1747 2374 1625 2633 
Q 1504 2893 1398 3097 
Q 1293 3302 1229 3411 
Q 1158 2656 1113 1776 
Q 1069 896 1037 0 
L 429 0 
Q 454 576 486 1161 
Q 518 1747 560 2313 
Q 602 2880 650 3417 
Q 698 3955 755 4435 
L 1299 4435 
Q 1472 4154 1670 3770 
Q 1869 3386 2067 2966 
Q 2266 2547 2451 2128 
Q 2637 1709 2790 1363 
Q 2944 1709 3129 2128 
Q 3315 2547 3513 2966 
Q 3712 3386 3910 3770 
Q 4109 4154 4282 4435 
L 4826 4435 
Q 5043 2291 5152 0 
L 4544 0 
Q 4512 896 4467 1776 
Q 4422 2656 4352 3411 
Q 4288 3302 4182 3097 
Q 4077 2893 3955 2633 
Q 3834 2374 3696 2083 
Q 3558 1792 3436 1517 
Q 3315 1242 3209 1005 
Q 3104 768 3040 614 
L 2541 614 
z
" transform="scale(0.015625)"/>
        <path id="Ubuntu-63" d="M 1958 -77 
Q 1555 -77 1251 51 
Q 947 179 739 409 
Q 531 640 428 957 
Q 326 1274 326 1658 
Q 326 2042 438 2362 
Q 550 2682 755 2915 
Q 960 3149 1257 3280 
Q 1555 3411 1920 3411 
Q 2144 3411 2368 3372 
Q 2592 3334 2797 3251 
L 2662 2746 
Q 2528 2810 2352 2848 
Q 2176 2886 1978 2886 
Q 1478 2886 1212 2572 
Q 947 2259 947 1658 
Q 947 1389 1008 1165 
Q 1069 941 1200 781 
Q 1331 621 1536 534 
Q 1741 448 2035 448 
Q 2272 448 2464 493 
Q 2656 538 2765 589 
L 2848 90 
Q 2797 58 2701 29 
Q 2605 0 2483 -22 
Q 2362 -45 2224 -61 
Q 2086 -77 1958 -77 
z
" transform="scale(0.015625)"/>
        <path id="Ubuntu-68" d="M 512 0 
L 512 4864 
L 1107 4966 
L 1107 3264 
Q 1274 3328 1462 3363 
Q 1651 3398 1837 3398 
Q 2234 3398 2496 3286 
Q 2758 3174 2915 2972 
Q 3072 2771 3136 2489 
Q 3200 2208 3200 1869 
L 3200 0 
L 2605 0 
L 2605 1741 
Q 2605 2048 2563 2265 
Q 2522 2483 2426 2617 
Q 2330 2752 2170 2813 
Q 2010 2874 1773 2874 
Q 1677 2874 1574 2861 
Q 1472 2848 1379 2832 
Q 1286 2816 1212 2797 
Q 1139 2778 1107 2765 
L 1107 0 
L 512 0 
z
" transform="scale(0.015625)"/>
       </defs>
       <use xlink:href="#Ubuntu-4d"/>
       <use xlink:href="#Ubuntu-61" x="87.099991"/>
       <use xlink:href="#Ubuntu-72" x="139.299988"/>
       <use xlink:href="#Ubuntu-63" x="177.899979"/>
       <use xlink:href="#Ubuntu-68" x="224.399963"/>
      </g>
     </g>
    </g>
    <g id="xtick_3">
     <g id="line2d_3">
      <g>
       <use xlink:href="#m93742d2a57" x="195.974574" y="168.8875" style="fill: #cecece; stroke: #cecece; stroke-width: 0.75"/>
      </g>
     </g>
     <g id="text_3">
      <!-- April -->
      <g style="fill: #808080" transform="translate(187.318949 184.095) scale(0.08 -0.08)">
       <defs>
        <path id="Ubuntu-41" d="M 3514 0 
Q 3405 288 3309 566 
Q 3213 845 3110 1133 
L 1101 1133 
L 698 0 
L 51 0 
Q 307 704 531 1302 
Q 755 1901 969 2438 
Q 1184 2976 1395 3465 
Q 1606 3955 1837 4435 
L 2406 4435 
Q 2637 3955 2848 3465 
Q 3059 2976 3273 2438 
Q 3488 1901 3712 1302 
Q 3936 704 4192 0 
L 3514 0 
z
M 2931 1645 
Q 2726 2202 2524 2723 
Q 2323 3245 2106 3725 
Q 1882 3245 1680 2723 
Q 1478 2202 1280 1645 
L 2931 1645 
z
" transform="scale(0.015625)"/>
        <path id="Ubuntu-70" d="M 2822 1658 
Q 2822 2240 2534 2553 
Q 2246 2867 1766 2867 
Q 1498 2867 1347 2848 
Q 1197 2829 1107 2803 
L 1107 704 
Q 1216 614 1421 531 
Q 1626 448 1869 448 
Q 2125 448 2307 541 
Q 2490 634 2605 797 
Q 2720 960 2771 1181 
Q 2822 1402 2822 1658 
z
M 3443 1658 
Q 3443 1280 3344 960 
Q 3245 640 3053 409 
Q 2861 179 2582 51 
Q 2304 -77 1946 -77 
Q 1658 -77 1437 0 
Q 1216 77 1107 147 
L 1107 -1184 
L 512 -1184 
L 512 3226 
Q 723 3277 1040 3337 
Q 1357 3398 1773 3398 
Q 2157 3398 2464 3276 
Q 2771 3155 2988 2931 
Q 3206 2707 3324 2384 
Q 3443 2061 3443 1658 
z
" transform="scale(0.015625)"/>
        <path id="Ubuntu-69" d="M 1107 0 
L 512 0 
L 512 3328 
L 1107 3328 
L 1107 0 
z
M 806 3930 
Q 646 3930 534 4035 
Q 422 4141 422 4320 
Q 422 4499 534 4604 
Q 646 4710 806 4710 
Q 966 4710 1078 4604 
Q 1190 4499 1190 4320 
Q 1190 4141 1078 4035 
Q 966 3930 806 3930 
z
" transform="scale(0.015625)"/>
        <path id="Ubuntu-6c" d="M 1510 -64 
Q 960 -51 729 173 
Q 499 397 499 870 
L 499 4864 
L 1094 4966 
L 1094 966 
Q 1094 819 1120 723 
Q 1146 627 1203 569 
Q 1261 512 1357 483 
Q 1453 454 1594 435 
L 1510 -64 
z
" transform="scale(0.015625)"/>
       </defs>
       <use xlink:href="#Ubuntu-41"/>
       <use xlink:href="#Ubuntu-70" x="66.299988"/>
       <use xlink:href="#Ubuntu-72" x="125.199982"/>
       <use xlink:href="#Ubuntu-69" x="163.799973"/>
       <use xlink:href="#Ubuntu-6c" x="189.09996"/>
      </g>
     </g>
    </g>
    <g id="xtick_4">
     <g id="line2d_4">
      <g>
       <use xlink:href="#m93742d2a57" x="263.610937" y="168.8875" style="fill: #cecece; stroke: #cecece; stroke-width: 0.75"/>
      </g>
     </g>
     <g id="text_4">
      <!-- May -->
      <g style="fill: #808080" transform="translate(256.110937 184.07125) scale(0.08 -0.08)">
       <use xlink:href="#Ubuntu-4d"/>
       <use xlink:href="#Ubuntu-61" x="87.099991"/>
       <use xlink:href="#Ubuntu-79" x="137.799988"/>
      </g>
     </g>
    </g>
    <g id="xtick_5">
     <g id="line2d_5">
      <g>
       <use xlink:href="#m93742d2a57" x="331.247301" y="168.8875" style="fill: #cecece; stroke: #cecece; stroke-width: 0.75"/>
      </g>
     </g>
     <g id="text_5">
      <!-- June -->
      <g style="fill: #808080" transform="translate(322.418551 184.095) scale(0.08 -0.08)">
       <defs>
        <path id="Ubuntu-4a" d="M 2682 1427 
Q 2682 1107 2614 832 
Q 2547 557 2377 349 
Q 2208 141 1923 22 
Q 1638 -96 1210 -96 
Q 992 -96 809 -61 
Q 627 -26 480 28 
Q 333 83 224 144 
Q 115 205 51 262 
L 294 755 
Q 429 659 643 553 
Q 858 448 1178 448 
Q 1638 448 1849 681 
Q 2061 915 2061 1485 
L 2061 4435 
L 2682 4435 
L 2682 1427 
z
" transform="scale(0.015625)"/>
        <path id="Ubuntu-6e" d="M 512 3232 
Q 717 3283 1056 3340 
Q 1395 3398 1837 3398 
Q 2234 3398 2496 3286 
Q 2758 3174 2915 2972 
Q 3072 2771 3136 2489 
Q 3200 2208 3200 1869 
L 3200 0 
L 2605 0 
L 2605 1741 
Q 2605 2048 2563 2265 
Q 2522 2483 2426 2617 
Q 2330 2752 2170 2813 
Q 2010 2874 1773 2874 
Q 1677 2874 1574 2867 
Q 1472 2861 1379 2851 
Q 1286 2842 1212 2829 
Q 1139 2816 1107 2810 
L 1107 0 
L 512 0 
L 512 3232 
z
" transform="scale(0.015625)"/>
       </defs>
       <use xlink:href="#Ubuntu-4a"/>
       <use xlink:href="#Ubuntu-75" x="49.999985"/>
       <use xlink:href="#Ubuntu-6e" x="107.399979"/>
       <use xlink:href="#Ubuntu-65" x="164.799973"/>
      </g>
     </g>
    </g>
    <g id="xtick_6">
     <g id="line2d_6">
      <g>
       <use xlink:href="#m93742d2a57" x="398.883665" y="168.8875" style="fill: #cecece; stroke: #cecece; stroke-width: 0.75"/>
      </g>
     </g>
     <g id="text_6">
      <!-- July -->
      <g style="fill: #808080" transform="translate(391.507415 184.095) scale(0.08 -0.08)">
       <use xlink:href="#Ubuntu-4a"/>
       <use xlink:href="#Ubuntu-75" x="49.999985"/>
       <use xlink:href="#Ubuntu-6c" x="107.399979"/>
       <use xlink:href="#Ubuntu-79" x="134.699966"/>
      </g>
     </g>
    </g>
    <g id="xtick_7">
     <g id="line2d_7">
      <g>
       <use xlink:href="#m93742d2a57" x="466.520028" y="168.8875" style="fill: #cecece; stroke: #cecece; stroke-width: 0.75"/>
      </g>
     </g>
     <g id="text_7">
      <!-- August -->
      <g style="fill: #808080" transform="translate(453.631903 184.07125) scale(0.08 -0.08)">
       <defs>
        <path id="Ubuntu-67" d="M 2598 333 
Q 2522 282 2301 202 
Q 2080 122 1786 122 
Q 1485 122 1219 218 
Q 954 314 755 515 
Q 557 717 441 1017 
Q 326 1318 326 1734 
Q 326 2099 435 2403 
Q 544 2707 752 2928 
Q 960 3149 1261 3273 
Q 1562 3398 1939 3398 
Q 2355 3398 2665 3337 
Q 2976 3277 3187 3226 
L 3187 256 
Q 3187 -512 2790 -857 
Q 2394 -1203 1587 -1203 
Q 1274 -1203 995 -1152 
Q 717 -1101 512 -1030 
L 621 -512 
Q 800 -582 1059 -636 
Q 1318 -691 1600 -691 
Q 2131 -691 2364 -480 
Q 2598 -269 2598 192 
L 2598 333 
z
M 2592 2803 
Q 2502 2829 2352 2851 
Q 2202 2874 1946 2874 
Q 1466 2874 1206 2560 
Q 947 2246 947 1728 
Q 947 1440 1020 1235 
Q 1094 1030 1219 896 
Q 1344 762 1507 698 
Q 1670 634 1843 634 
Q 2080 634 2278 701 
Q 2477 768 2592 858 
L 2592 2803 
z
" transform="scale(0.015625)"/>
        <path id="Ubuntu-73" d="M 1286 429 
Q 1651 429 1827 525 
Q 2003 621 2003 832 
Q 2003 1050 1830 1178 
Q 1658 1306 1261 1466 
Q 1069 1542 893 1622 
Q 717 1702 589 1811 
Q 461 1920 384 2073 
Q 307 2227 307 2451 
Q 307 2893 633 3152 
Q 960 3411 1523 3411 
Q 1664 3411 1805 3395 
Q 1946 3379 2067 3356 
Q 2189 3334 2281 3308 
Q 2374 3283 2426 3264 
L 2317 2752 
Q 2221 2803 2016 2857 
Q 1811 2912 1523 2912 
Q 1274 2912 1088 2813 
Q 902 2714 902 2502 
Q 902 2394 944 2310 
Q 986 2227 1072 2160 
Q 1158 2093 1286 2035 
Q 1414 1978 1594 1914 
Q 1830 1824 2016 1737 
Q 2202 1651 2333 1536 
Q 2464 1421 2534 1257 
Q 2605 1094 2605 858 
Q 2605 397 2262 160 
Q 1920 -77 1286 -77 
Q 845 -77 595 -3 
Q 346 70 256 109 
L 365 621 
Q 467 582 691 505 
Q 915 429 1286 429 
z
" transform="scale(0.015625)"/>
        <path id="Ubuntu-74" d="M 1069 3328 
L 2330 3328 
L 2330 2829 
L 1069 2829 
L 1069 1293 
Q 1069 1043 1107 880 
Q 1146 717 1222 624 
Q 1299 531 1414 492 
Q 1530 454 1683 454 
Q 1952 454 2115 515 
Q 2278 576 2342 602 
L 2458 109 
Q 2368 64 2144 -3 
Q 1920 -70 1632 -70 
Q 1293 -70 1072 16 
Q 851 102 716 275 
Q 582 448 528 701 
Q 474 954 474 1286 
L 474 4256 
L 1069 4358 
L 1069 3328 
z
" transform="scale(0.015625)"/>
       </defs>
       <use xlink:href="#Ubuntu-41"/>
       <use xlink:href="#Ubuntu-75" x="64.799988"/>
       <use xlink:href="#Ubuntu-67" x="122.199982"/>
       <use xlink:href="#Ubuntu-75" x="179.999969"/>
       <use xlink:href="#Ubuntu-73" x="237.399963"/>
       <use xlink:href="#Ubuntu-74" x="281.999954"/>
      </g>
     </g>
    </g>
   </g>
   <g id="matplotlib.axis_2">
    <g id="ytick_1">
     <g id="line2d_8">
      <defs>
       <path id="m6dd7cabe6b" d="M 0 0 
L -3 0 
" style="stroke: #cecece; stroke-width: 0.75"/>
      </defs>
      <g>
       <use xlink:href="#m6dd7cabe6b" x="55.410938" y="163.8875" style="fill: #cecece; stroke: #cecece; stroke-width: 0.75"/>
      </g>
     </g>
     <g id="text_8">
      <!-- 30000 -->
      <g style="fill: #808080" transform="translate(23.848438 166.99125) scale(0.08 -0.08)">
       <defs>
        <path id="Ubuntu-33" d="M 1446 435 
Q 2016 435 2262 659 
Q 2509 883 2509 1261 
Q 2509 1504 2406 1670 
Q 2304 1837 2137 1936 
Q 1971 2035 1750 2076 
Q 1530 2118 1299 2118 
L 1146 2118 
L 1146 2605 
L 1357 2605 
Q 1517 2605 1686 2637 
Q 1856 2669 1997 2752 
Q 2138 2835 2227 2979 
Q 2317 3123 2317 3341 
Q 2317 3520 2253 3648 
Q 2189 3776 2083 3859 
Q 1978 3942 1840 3977 
Q 1702 4013 1549 4013 
Q 1242 4013 1027 3923 
Q 813 3834 666 3738 
L 435 4192 
Q 512 4243 630 4304 
Q 749 4365 896 4416 
Q 1043 4467 1212 4502 
Q 1382 4538 1568 4538 
Q 1920 4538 2176 4451 
Q 2432 4365 2598 4208 
Q 2765 4051 2848 3836 
Q 2931 3622 2931 3373 
Q 2931 3027 2732 2780 
Q 2534 2534 2253 2406 
Q 2426 2355 2586 2259 
Q 2746 2163 2864 2016 
Q 2982 1869 3056 1677 
Q 3130 1485 3130 1248 
Q 3130 960 3030 713 
Q 2931 467 2723 288 
Q 2515 109 2201 6 
Q 1888 -96 1459 -96 
Q 1293 -96 1117 -70 
Q 941 -45 787 -6 
Q 634 32 518 70 
Q 403 109 352 134 
L 467 653 
Q 576 602 829 518 
Q 1082 435 1446 435 
z
" transform="scale(0.015625)"/>
        <path id="Ubuntu-30" d="M 320 2221 
Q 320 3334 713 3936 
Q 1107 4538 1805 4538 
Q 2502 4538 2896 3936 
Q 3290 3334 3290 2221 
Q 3290 1107 2896 505 
Q 2502 -96 1805 -96 
Q 1107 -96 713 505 
Q 320 1107 320 2221 
z
M 2662 2221 
Q 2662 2586 2620 2912 
Q 2579 3238 2480 3481 
Q 2381 3725 2214 3869 
Q 2048 4013 1805 4013 
Q 1562 4013 1395 3869 
Q 1229 3725 1129 3481 
Q 1030 3238 988 2912 
Q 947 2586 947 2221 
Q 947 1856 988 1529 
Q 1030 1203 1129 960 
Q 1229 717 1395 573 
Q 1562 429 1805 429 
Q 2048 429 2214 573 
Q 2381 717 2480 960 
Q 2579 1203 2620 1529 
Q 2662 1856 2662 2221 
z
" transform="scale(0.015625)"/>
       </defs>
       <use xlink:href="#Ubuntu-33"/>
       <use xlink:href="#Ubuntu-30" x="56.399994"/>
       <use xlink:href="#Ubuntu-30" x="112.799988"/>
       <use xlink:href="#Ubuntu-30" x="169.199982"/>
       <use xlink:href="#Ubuntu-30" x="225.599976"/>
      </g>
     </g>
    </g>
    <g id="ytick_2">
     <g id="line2d_9">
      <g>
       <use xlink:href="#m6dd7cabe6b" x="55.410938" y="136.1675" style="fill: #cecece; stroke: #cecece; stroke-width: 0.75"/>
      </g>
     </g>
     <g id="text_9">
      <!-- 32000 -->
      <g style="fill: #808080" transform="translate(23.848438 139.27125) scale(0.08 -0.08)">
       <defs>
        <path id="Ubuntu-32" d="M 2989 3302 
Q 2989 3072 2896 2857 
Q 2803 2643 2649 2435 
Q 2496 2227 2304 2025 
Q 2112 1824 1920 1632 
Q 1811 1523 1667 1376 
Q 1523 1229 1395 1069 
Q 1267 909 1180 761 
Q 1094 614 1094 506 
L 3136 506 
L 3136 0 
L 448 0 
Q 442 38 442 76 
Q 442 115 442 147 
Q 442 448 541 707 
Q 640 966 800 1196 
Q 960 1427 1158 1632 
Q 1357 1837 1549 2029 
Q 1709 2182 1853 2332 
Q 1997 2483 2109 2633 
Q 2221 2784 2288 2944 
Q 2355 3104 2355 3283 
Q 2355 3475 2294 3609 
Q 2234 3744 2131 3833 
Q 2029 3923 1891 3964 
Q 1754 4006 1600 4006 
Q 1414 4006 1260 3955 
Q 1107 3904 985 3837 
Q 864 3770 781 3696 
Q 698 3622 653 3584 
L 358 4006 
Q 416 4070 531 4163 
Q 646 4256 806 4339 
Q 966 4422 1164 4480 
Q 1363 4538 1594 4538 
Q 2291 4538 2640 4214 
Q 2989 3891 2989 3302 
z
" transform="scale(0.015625)"/>
       </defs>
       <use xlink:href="#Ubuntu-33"/>
       <use xlink:href="#Ubuntu-32" x="56.399994"/>
       <use xlink:href="#Ubuntu-30" x="112.799988"/>
       <use xlink:href="#Ubuntu-30" x="169.199982"/>
       <use xlink:href="#Ubuntu-30" x="225.599976"/>
      </g>
     </g>
    </g>
    <g id="ytick_3">
     <g id="line2d_10">
      <g>
       <use xlink:href="#m6dd7cabe6b" x="55.410938" y="108.4475" style="fill: #cecece; stroke: #cecece; stroke-width: 0.75"/>
      </g>
     </g>
     <g id="text_10">
      <!-- 34000 -->
      <g style="fill: #808080" transform="translate(23.848438 111.55125) scale(0.08 -0.08)">
       <defs>
        <path id="Ubuntu-34" d="M 256 1536 
Q 378 1818 589 2192 
Q 800 2566 1065 2963 
Q 1331 3360 1635 3744 
Q 1939 4128 2246 4435 
L 2816 4435 
L 2816 1619 
L 3341 1619 
L 3341 1133 
L 2816 1133 
L 2816 0 
L 2240 0 
L 2240 1133 
L 256 1133 
L 256 1536 
z
M 2240 3731 
Q 2048 3526 1853 3273 
Q 1658 3021 1472 2745 
Q 1286 2470 1123 2182 
Q 960 1894 832 1619 
L 2240 1619 
L 2240 3731 
z
" transform="scale(0.015625)"/>
       </defs>
       <use xlink:href="#Ubuntu-33"/>
       <use xlink:href="#Ubuntu-34" x="56.399994"/>
       <use xlink:href="#Ubuntu-30" x="112.799988"/>
       <use xlink:href="#Ubuntu-30" x="169.199982"/>
       <use xlink:href="#Ubuntu-30" x="225.599976"/>
      </g>
     </g>
    </g>
    <g id="ytick_4">
     <g id="line2d_11">
      <g>
       <use xlink:href="#m6dd7cabe6b" x="55.410938" y="80.7275" style="fill: #cecece; stroke: #cecece; stroke-width: 0.75"/>
      </g>
     </g>
     <g id="text_11">
      <!-- 36000 -->
      <g style="fill: #808080" transform="translate(23.848438 83.83125) scale(0.08 -0.08)">
       <defs>
        <path id="Ubuntu-36" d="M 403 1779 
Q 403 2426 582 2922 
Q 762 3418 1091 3757 
Q 1421 4096 1891 4272 
Q 2362 4448 2950 4454 
L 2995 3955 
Q 2618 3949 2307 3872 
Q 1997 3795 1753 3628 
Q 1510 3462 1344 3196 
Q 1178 2931 1094 2541 
Q 1261 2618 1469 2669 
Q 1677 2720 1901 2720 
Q 2278 2720 2540 2605 
Q 2803 2490 2969 2301 
Q 3136 2112 3209 1865 
Q 3283 1619 3283 1350 
Q 3283 1107 3200 851 
Q 3117 595 2947 384 
Q 2778 173 2515 38 
Q 2253 -96 1894 -96 
Q 1165 -96 784 403 
Q 403 902 403 1779 
z
M 1837 2234 
Q 1613 2234 1421 2192 
Q 1229 2150 1037 2067 
Q 1030 1997 1027 1923 
Q 1024 1850 1024 1779 
Q 1024 1498 1062 1248 
Q 1101 998 1200 809 
Q 1299 621 1465 509 
Q 1632 397 1888 397 
Q 2099 397 2246 486 
Q 2394 576 2490 717 
Q 2586 858 2627 1021 
Q 2669 1184 2669 1338 
Q 2669 1773 2461 2003 
Q 2253 2234 1837 2234 
z
" transform="scale(0.015625)"/>
       </defs>
       <use xlink:href="#Ubuntu-33"/>
       <use xlink:href="#Ubuntu-36" x="56.399994"/>
       <use xlink:href="#Ubuntu-30" x="112.799988"/>
       <use xlink:href="#Ubuntu-30" x="169.199982"/>
       <use xlink:href="#Ubuntu-30" x="225.599976"/>
      </g>
     </g>
    </g>
    <g id="ytick_5">
     <g id="line2d_12">
      <g>
       <use xlink:href="#m6dd7cabe6b" x="55.410938" y="53.0075" style="fill: #cecece; stroke: #cecece; stroke-width: 0.75"/>
      </g>
     </g>
     <g id="text_12">
      <!-- 38000 -->
      <g style="fill: #808080" transform="translate(23.848438 56.11125) scale(0.08 -0.08)">
       <defs>
        <path id="Ubuntu-38" d="M 3258 1152 
Q 3258 883 3165 656 
Q 3072 429 2889 259 
Q 2707 90 2432 -3 
Q 2157 -96 1798 -96 
Q 1382 -96 1104 22 
Q 826 141 659 320 
Q 493 499 422 713 
Q 352 928 352 1120 
Q 352 1306 413 1475 
Q 474 1645 573 1792 
Q 672 1939 803 2057 
Q 934 2176 1082 2266 
Q 454 2624 454 3322 
Q 454 3565 550 3785 
Q 646 4006 822 4172 
Q 998 4339 1248 4438 
Q 1498 4538 1805 4538 
Q 2163 4538 2419 4429 
Q 2675 4320 2838 4150 
Q 3002 3981 3075 3776 
Q 3149 3571 3149 3379 
Q 3149 3194 3094 3030 
Q 3040 2867 2947 2726 
Q 2854 2586 2736 2477 
Q 2618 2368 2490 2285 
Q 3245 1926 3258 1152 
z
M 954 1114 
Q 954 998 995 873 
Q 1037 749 1139 643 
Q 1242 538 1402 467 
Q 1562 397 1805 397 
Q 2022 397 2185 461 
Q 2349 525 2451 624 
Q 2554 723 2605 851 
Q 2656 979 2656 1114 
Q 2656 1318 2579 1472 
Q 2502 1626 2358 1741 
Q 2214 1856 2012 1936 
Q 1811 2016 1555 2074 
Q 1267 1914 1110 1677 
Q 954 1440 954 1114 
z
M 2554 3386 
Q 2554 3482 2512 3597 
Q 2470 3712 2380 3811 
Q 2291 3910 2150 3977 
Q 2010 4045 1805 4045 
Q 1600 4045 1456 3981 
Q 1312 3917 1222 3817 
Q 1133 3718 1091 3600 
Q 1050 3482 1050 3366 
Q 1050 3226 1101 3085 
Q 1152 2944 1261 2822 
Q 1370 2701 1546 2605 
Q 1722 2509 1965 2451 
Q 2234 2611 2394 2825 
Q 2554 3040 2554 3386 
z
" transform="scale(0.015625)"/>
       </defs>
       <use xlink:href="#Ubuntu-33"/>
       <use xlink:href="#Ubuntu-38" x="56.399994"/>
       <use xlink:href="#Ubuntu-30" x="112.799988"/>
       <use xlink:href="#Ubuntu-30" x="169.199982"/>
       <use xlink:href="#Ubuntu-30" x="225.599976"/>
      </g>
     </g>
    </g>
    <g id="ytick_6">
     <g id="line2d_13">
      <g>
       <use xlink:href="#m6dd7cabe6b" x="55.410938" y="25.2875" style="fill: #cecece; stroke: #cecece; stroke-width: 0.75"/>
      </g>
     </g>
     <g id="text_13">
      <!-- 40000 -->
      <g style="fill: #808080" transform="translate(23.848438 28.39125) scale(0.08 -0.08)">
       <use xlink:href="#Ubuntu-34"/>
       <use xlink:href="#Ubuntu-30" x="56.399994"/>
       <use xlink:href="#Ubuntu-30" x="112.799988"/>
       <use xlink:href="#Ubuntu-30" x="169.199982"/>
       <use xlink:href="#Ubuntu-30" x="225.599976"/>
      </g>
     </g>
    </g>
    <g id="text_14">
     <!-- Target -->
     <g style="fill: #505050" transform="translate(14.156719 53.42375) rotate(-90) scale(0.09 -0.09)">
      <defs>
       <path id="Ubuntu-Bold-54" d="M 3802 4435 
L 3802 3584 
L 2464 3584 
L 2464 0 
L 1466 0 
L 1466 3584 
L 128 3584 
L 128 4435 
L 3802 4435 
z
" transform="scale(0.015625)"/>
       <path id="Ubuntu-Bold-61" d="M 1734 666 
Q 1875 666 2003 672 
Q 2131 678 2208 691 
L 2208 1414 
Q 2150 1427 2035 1440 
Q 1920 1453 1824 1453 
Q 1690 1453 1571 1437 
Q 1453 1421 1363 1376 
Q 1274 1331 1222 1254 
Q 1171 1178 1171 1062 
Q 1171 838 1321 752 
Q 1472 666 1734 666 
z
M 1658 3456 
Q 2080 3456 2361 3360 
Q 2643 3264 2812 3085 
Q 2982 2906 3052 2650 
Q 3123 2394 3123 2080 
L 3123 96 
Q 2918 51 2553 -9 
Q 2189 -70 1670 -70 
Q 1344 -70 1078 -12 
Q 813 45 621 176 
Q 429 307 326 518 
Q 224 730 224 1037 
Q 224 1331 342 1536 
Q 461 1741 659 1862 
Q 858 1984 1114 2038 
Q 1370 2093 1645 2093 
Q 1830 2093 1974 2077 
Q 2118 2061 2208 2035 
L 2208 2125 
Q 2208 2368 2061 2515 
Q 1914 2662 1549 2662 
Q 1306 2662 1069 2627 
Q 832 2592 659 2528 
L 538 3296 
Q 621 3322 745 3350 
Q 870 3379 1017 3401 
Q 1165 3424 1328 3440 
Q 1491 3456 1658 3456 
z
" transform="scale(0.015625)"/>
       <path id="Ubuntu-Bold-72" d="M 2477 2522 
Q 2349 2554 2176 2589 
Q 2003 2624 1805 2624 
Q 1715 2624 1590 2608 
Q 1466 2592 1402 2573 
L 1402 0 
L 448 0 
L 448 3187 
Q 704 3277 1053 3357 
Q 1402 3437 1830 3437 
Q 1907 3437 2016 3427 
Q 2125 3418 2233 3402 
Q 2342 3386 2451 3363 
Q 2560 3341 2637 3309 
L 2477 2522 
z
" transform="scale(0.015625)"/>
       <path id="Ubuntu-Bold-67" d="M 1261 1792 
Q 1261 992 1907 992 
Q 2054 992 2182 1030 
Q 2310 1069 2400 1120 
L 2400 2643 
Q 2330 2656 2234 2665 
Q 2138 2675 2010 2675 
Q 1632 2675 1446 2425 
Q 1261 2176 1261 1792 
z
M 3354 422 
Q 3354 -403 2934 -803 
Q 2515 -1203 1638 -1203 
Q 1331 -1203 1024 -1148 
Q 717 -1094 454 -1005 
L 621 -205 
Q 845 -294 1091 -345 
Q 1338 -397 1651 -397 
Q 2061 -397 2230 -217 
Q 2400 -38 2400 243 
L 2400 365 
Q 2246 294 2083 259 
Q 1920 224 1728 224 
Q 1030 224 659 637 
Q 288 1050 288 1792 
Q 288 2163 403 2467 
Q 518 2771 739 2988 
Q 960 3206 1280 3324 
Q 1600 3443 2003 3443 
Q 2176 3443 2358 3427 
Q 2541 3411 2720 3385 
Q 2899 3360 3062 3325 
Q 3226 3290 3354 3251 
L 3354 422 
z
" transform="scale(0.015625)"/>
       <path id="Ubuntu-Bold-65" d="M 288 1658 
Q 288 2106 425 2442 
Q 563 2778 787 3002 
Q 1011 3226 1302 3341 
Q 1594 3456 1901 3456 
Q 2618 3456 3034 3017 
Q 3450 2579 3450 1728 
Q 3450 1645 3443 1545 
Q 3437 1446 3430 1370 
L 1267 1370 
Q 1299 1075 1542 902 
Q 1786 730 2195 730 
Q 2458 730 2710 778 
Q 2963 826 3123 896 
L 3251 122 
Q 3174 83 3046 44 
Q 2918 6 2761 -22 
Q 2605 -51 2425 -70 
Q 2246 -90 2067 -90 
Q 1613 -90 1277 44 
Q 941 179 720 412 
Q 499 646 393 966 
Q 288 1286 288 1658 
z
M 2528 2022 
Q 2522 2144 2486 2259 
Q 2451 2374 2377 2464 
Q 2304 2554 2192 2611 
Q 2080 2669 1914 2669 
Q 1754 2669 1638 2614 
Q 1523 2560 1446 2470 
Q 1370 2381 1328 2262 
Q 1286 2144 1267 2022 
L 2528 2022 
z
" transform="scale(0.015625)"/>
       <path id="Ubuntu-Bold-74" d="M 416 4205 
L 1370 4358 
L 1370 3366 
L 2515 3366 
L 2515 2573 
L 1370 2573 
L 1370 1389 
Q 1370 1088 1475 909 
Q 1581 730 1901 730 
Q 2054 730 2217 758 
Q 2381 787 2515 838 
L 2650 96 
Q 2477 26 2265 -25 
Q 2054 -77 1747 -77 
Q 1357 -77 1101 28 
Q 845 134 691 323 
Q 538 512 477 781 
Q 416 1050 416 1376 
L 416 4205 
z
" transform="scale(0.015625)"/>
      </defs>
      <use xlink:href="#Ubuntu-Bold-54"/>
      <use xlink:href="#Ubuntu-Bold-61" x="53.899994"/>
      <use xlink:href="#Ubuntu-Bold-72" x="109.199982"/>
      <use xlink:href="#Ubuntu-Bold-67" x="150.399979"/>
      <use xlink:href="#Ubuntu-Bold-65" x="209.799973"/>
      <use xlink:href="#Ubuntu-Bold-74" x="268.199966"/>
     </g>
    </g>
   </g>
   <g id="line2d_14">
    <path d="M 60.701847 155.799368 
L 63.416349 156.376457 
L 66.130852 156.574326 
L 68.845355 156.43132 
L 71.559858 155.985785 
L 74.274361 155.276068 
L 76.988864 154.340514 
L 79.703367 153.217469 
L 83.775121 151.265241 
L 90.561378 147.628118 
L 94.633133 145.562183 
L 97.347636 144.42797 
L 100.062138 143.601523 
L 102.776641 143.1768 
L 105.491144 143.189645 
L 108.205647 143.624905 
L 110.92015 144.465694 
L 113.634653 145.695126 
L 116.349156 147.289191 
L 123.135413 151.685522 
L 124.492664 152.384793 
L 125.849916 152.950609 
L 127.207167 153.351489 
L 128.564419 153.555995 
L 129.92167 153.546784 
L 131.278922 153.341071 
L 132.636173 152.961268 
L 133.993425 152.42979 
L 136.707927 151.001456 
L 139.42243 149.235373 
L 146.208688 144.602179 
L 147.565939 143.891296 
L 148.92319 143.3391 
L 150.280442 142.983198 
L 151.637693 142.861201 
L 152.994945 143.010714 
L 154.352196 143.469348 
L 155.709448 144.274407 
L 157.066699 145.419686 
L 159.781202 148.341451 
L 162.495705 151.402018 
L 163.852956 152.7208 
L 165.210208 153.75802 
L 166.567459 154.408257 
L 167.924711 154.56609 
L 169.281962 154.126895 
L 170.639214 153.068232 
L 171.996465 151.520156 
L 173.353716 149.629288 
L 177.425471 143.366148 
L 178.782722 141.570326 
L 180.139974 140.164818 
L 181.497225 139.296247 
L 182.854477 139.109923 
L 184.211728 139.649862 
L 185.568979 140.788372 
L 186.926231 142.381129 
L 189.640734 146.352093 
L 192.355237 150.408163 
L 193.712488 152.107304 
L 195.06974 153.39475 
L 196.426991 154.127721 
L 197.784242 154.255945 
L 199.141494 153.872546 
L 200.498745 153.082981 
L 201.855997 151.992708 
L 204.5705 149.33187 
L 207.285003 146.733692 
L 208.642254 145.721746 
L 209.999505 145.04049 
L 211.356757 144.729645 
L 212.714008 144.737592 
L 214.07126 145.005769 
L 215.428511 145.475612 
L 218.143014 146.786046 
L 220.857517 148.200391 
L 222.214768 148.800123 
L 223.57202 149.250988 
L 224.929271 149.528068 
L 226.286523 149.649061 
L 227.643774 149.634507 
L 230.358277 149.280933 
L 233.07278 148.631689 
L 239.859037 146.775998 
L 242.57354 146.297633 
L 245.288043 146.133696 
L 246.645294 146.202746 
L 248.002546 146.390133 
L 249.359797 146.709101 
L 250.717049 147.171724 
L 253.431552 148.415318 
L 256.146055 149.7163 
L 257.503306 150.248913 
L 258.860557 150.628595 
L 260.217809 150.799587 
L 261.57506 150.70613 
L 262.932312 150.292463 
L 264.289563 149.505583 
L 265.646815 148.355843 
L 267.004066 146.916953 
L 269.718569 143.477589 
L 273.790323 138.061571 
L 275.147575 136.493568 
L 276.504826 135.171677 
L 277.862078 134.168743 
L 279.219329 133.486045 
L 280.576581 133.059261 
L 281.933832 132.821641 
L 288.720089 132.134811 
L 290.077341 131.630458 
L 291.434592 130.851513 
L 292.791844 129.794425 
L 294.149095 128.505807 
L 296.863598 125.42667 
L 303.649855 117.049128 
L 305.007107 115.640141 
L 307.721609 113.293031 
L 310.436112 111.463426 
L 313.150615 110.016734 
L 317.22237 108.270234 
L 324.008627 105.683178 
L 329.437633 103.8845 
L 333.509387 102.787834 
L 337.581141 101.984108 
L 340.295644 101.649382 
L 343.010147 101.502472 
L 349.796404 101.453101 
L 351.153656 101.076321 
L 352.510907 100.404738 
L 353.868159 99.36361 
L 355.22541 97.878198 
L 356.582661 95.873758 
L 357.939913 93.275551 
L 359.297164 90.031577 
L 362.011667 82.348515 
L 364.72617 74.877429 
L 366.083422 71.899517 
L 367.440673 69.788367 
L 368.797924 68.815237 
L 370.155176 69.251381 
L 371.512427 71.368057 
L 372.869679 75.387864 
L 374.22693 81.132661 
L 375.584182 88.22723 
L 378.298685 104.959329 
L 381.013187 122.571444 
L 382.370439 130.766033 
L 383.72769 138.050858 
L 385.084942 144.049328 
L 386.442193 148.432452 
L 387.799445 151.223004 
L 389.156696 152.601422 
L 390.513948 152.748889 
L 391.871199 151.846587 
L 393.22845 150.075698 
L 394.585702 147.617405 
L 395.942953 144.652889 
L 400.014708 134.515878 
L 404.086462 124.63372 
L 409.515468 112.112912 
L 414.944474 100.09467 
L 417.658976 94.490852 
L 420.373479 89.525476 
L 421.730731 87.373769 
L 423.087982 85.491551 
L 424.445234 83.915447 
L 425.802485 82.682084 
L 427.159737 81.813986 
L 428.516988 81.257406 
L 429.874239 80.93293 
L 432.588742 80.662547 
L 435.303245 80.367358 
L 436.660497 80.011874 
L 438.017748 79.411885 
L 439.375 78.487954 
L 440.732251 77.178637 
L 442.089502 75.510412 
L 443.446754 73.536587 
L 446.161257 68.885385 
L 450.233011 60.949383 
L 452.947514 55.641227 
L 455.662017 50.816662 
L 457.019268 48.719007 
L 458.37652 46.902186 
L 459.733771 45.419513 
L 461.091023 44.324299 
L 462.448274 43.669856 
L 463.805526 43.509498 
L 465.162777 43.896535 
L 466.520028 44.884281 
L 466.520028 44.884281 
" clip-path="url(#pebd382b3df)" style="fill: none; stroke: #5b5b5b; stroke-width: 1.2; stroke-linecap: square"/>
   </g>
   <g id="patch_3">
    <path d="M 55.410938 163.8875 
L 55.410938 25.2875 
" style="fill: none; stroke: #cccccc; stroke-width: 0.75; stroke-linejoin: miter; stroke-linecap: square"/>
   </g>
   <g id="patch_4">
    <path d="M 60.701847 168.8875 
L 466.520028 168.8875 
" style="fill: none; stroke: #cccccc; stroke-width: 0.75; stroke-linejoin: miter; stroke-linecap: square"/>
   </g>
  </g>
  <g id="axes_2">
   <g id="matplotlib.axis_3">
    <g id="ytick_7">
     <g id="line2d_15">
      <defs>
       <path id="m59cf969abe" d="M 0 0 
L 3 0 
" style="stroke: #cecece; stroke-width: 0.75"/>
      </defs>
      <g>
       <use xlink:href="#m59cf969abe" x="471.810937" y="163.8875" style="fill: #cecece; stroke: #cecece; stroke-width: 0.75"/>
      </g>
     </g>
     <g id="text_15">
      <!-- 0 -->
      <g style="fill: #808080" transform="translate(482.810937 166.99125) scale(0.08 -0.08)">
       <use xlink:href="#Ubuntu-30"/>
      </g>
     </g>
    </g>
    <g id="ytick_8">
     <g id="line2d_16">
      <g>
       <use xlink:href="#m59cf969abe" x="471.810937" y="129.2375" style="fill: #cecece; stroke: #cecece; stroke-width: 0.75"/>
      </g>
     </g>
     <g id="text_16">
      <!-- 2000 -->
      <g style="fill: #808080" transform="translate(482.810937 132.34125) scale(0.08 -0.08)">
       <use xlink:href="#Ubuntu-32"/>
       <use xlink:href="#Ubuntu-30" x="56.399994"/>
       <use xlink:href="#Ubuntu-30" x="112.799988"/>
       <use xlink:href="#Ubuntu-30" x="169.199982"/>
      </g>
     </g>
    </g>
    <g id="ytick_9">
     <g id="line2d_17">
      <g>
       <use xlink:href="#m59cf969abe" x="471.810937" y="94.5875" style="fill: #cecece; stroke: #cecece; stroke-width: 0.75"/>
      </g>
     </g>
     <g id="text_17">
      <!-- 4000 -->
      <g style="fill: #808080" transform="translate(482.810937 97.69125) scale(0.08 -0.08)">
       <use xlink:href="#Ubuntu-34"/>
       <use xlink:href="#Ubuntu-30" x="56.399994"/>
       <use xlink:href="#Ubuntu-30" x="112.799988"/>
       <use xlink:href="#Ubuntu-30" x="169.199982"/>
      </g>
     </g>
    </g>
    <g id="ytick_10">
     <g id="line2d_18">
      <g>
       <use xlink:href="#m59cf969abe" x="471.810937" y="59.9375" style="fill: #cecece; stroke: #cecece; stroke-width: 0.75"/>
      </g>
     </g>
     <g id="text_18">
      <!-- 6000 -->
      <g style="fill: #808080" transform="translate(482.810937 63.04125) scale(0.08 -0.08)">
       <use xlink:href="#Ubuntu-36"/>
       <use xlink:href="#Ubuntu-30" x="56.399994"/>
       <use xlink:href="#Ubuntu-30" x="112.799988"/>
       <use xlink:href="#Ubuntu-30" x="169.199982"/>
      </g>
     </g>
    </g>
    <g id="ytick_11">
     <g id="line2d_19">
      <g>
       <use xlink:href="#m59cf969abe" x="471.810937" y="25.2875" style="fill: #cecece; stroke: #cecece; stroke-width: 0.75"/>
      </g>
     </g>
     <g id="text_19">
      <!-- 8000 -->
      <g style="fill: #808080" transform="translate(482.810937 28.39125) scale(0.08 -0.08)">
       <use xlink:href="#Ubuntu-38"/>
       <use xlink:href="#Ubuntu-30" x="56.399994"/>
       <use xlink:href="#Ubuntu-30" x="112.799988"/>
       <use xlink:href="#Ubuntu-30" x="169.199982"/>
      </g>
     </g>
    </g>
    <g id="text_20">
     <!-- RMSE -->
     <g style="fill: #505050" transform="translate(515.844375 50.055781) rotate(-90) scale(0.09 -0.09)">
      <defs>
       <path id="Ubuntu-Bold-52" d="M 1811 4486 
Q 2810 4486 3341 4131 
Q 3872 3776 3872 3027 
Q 3872 2560 3657 2269 
Q 3443 1978 3040 1811 
Q 3174 1645 3321 1430 
Q 3469 1216 3613 982 
Q 3757 749 3891 496 
Q 4026 243 4141 0 
L 3021 0 
Q 2899 218 2774 442 
Q 2650 666 2518 877 
Q 2387 1088 2259 1277 
Q 2131 1466 2003 1619 
L 1510 1619 
L 1510 0 
L 512 0 
L 512 4371 
Q 838 4435 1187 4460 
Q 1536 4486 1811 4486 
z
M 1869 3635 
Q 1760 3635 1673 3628 
Q 1587 3622 1510 3616 
L 1510 2413 
L 1792 2413 
Q 2355 2413 2598 2553 
Q 2842 2694 2842 3034 
Q 2842 3360 2595 3497 
Q 2349 3635 1869 3635 
z
" transform="scale(0.015625)"/>
       <path id="Ubuntu-Bold-4d" d="M 1690 4435 
Q 1805 4224 1955 3913 
Q 2106 3603 2269 3241 
Q 2432 2880 2592 2502 
Q 2752 2125 2893 1792 
Q 3034 2125 3194 2502 
Q 3354 2880 3517 3241 
Q 3680 3603 3830 3913 
Q 3981 4224 4096 4435 
L 5005 4435 
Q 5069 3994 5123 3446 
Q 5178 2899 5219 2307 
Q 5261 1715 5296 1120 
Q 5331 525 5357 0 
L 4384 0 
Q 4365 646 4333 1408 
Q 4301 2170 4237 2944 
Q 4122 2675 3981 2348 
Q 3840 2022 3702 1696 
Q 3565 1370 3437 1072 
Q 3309 774 3219 563 
L 2522 563 
Q 2432 774 2304 1072 
Q 2176 1370 2038 1696 
Q 1901 2022 1760 2348 
Q 1619 2675 1504 2944 
Q 1440 2170 1408 1408 
Q 1376 646 1357 0 
L 384 0 
Q 410 525 445 1120 
Q 480 1715 521 2307 
Q 563 2899 617 3446 
Q 672 3994 736 4435 
L 1690 4435 
z
" transform="scale(0.015625)"/>
       <path id="Ubuntu-Bold-53" d="M 1722 762 
Q 1933 762 2070 797 
Q 2208 832 2291 893 
Q 2374 954 2406 1037 
Q 2438 1120 2438 1222 
Q 2438 1440 2233 1584 
Q 2029 1728 1530 1894 
Q 1312 1971 1094 2070 
Q 877 2170 704 2320 
Q 531 2470 422 2684 
Q 314 2899 314 3206 
Q 314 3514 429 3760 
Q 544 4006 755 4179 
Q 966 4352 1267 4445 
Q 1568 4538 1946 4538 
Q 2394 4538 2720 4442 
Q 3046 4346 3258 4230 
L 2970 3443 
Q 2784 3539 2557 3612 
Q 2330 3686 2010 3686 
Q 1651 3686 1494 3587 
Q 1338 3488 1338 3283 
Q 1338 3162 1395 3078 
Q 1453 2995 1558 2928 
Q 1664 2861 1801 2806 
Q 1939 2752 2106 2694 
Q 2451 2566 2707 2441 
Q 2963 2317 3132 2150 
Q 3302 1984 3385 1760 
Q 3469 1536 3469 1216 
Q 3469 595 3033 252 
Q 2598 -90 1722 -90 
Q 1427 -90 1190 -54 
Q 954 -19 771 32 
Q 589 83 457 140 
Q 326 198 237 250 
L 518 1043 
Q 717 934 1008 848 
Q 1299 762 1722 762 
z
" transform="scale(0.015625)"/>
       <path id="Ubuntu-Bold-45" d="M 512 0 
L 512 4435 
L 3507 4435 
L 3507 3597 
L 1510 3597 
L 1510 2726 
L 3283 2726 
L 3283 1907 
L 1510 1907 
L 1510 838 
L 3654 838 
L 3654 0 
L 512 0 
z
" transform="scale(0.015625)"/>
      </defs>
      <use xlink:href="#Ubuntu-Bold-52"/>
      <use xlink:href="#Ubuntu-Bold-4d" x="66.699997"/>
      <use xlink:href="#Ubuntu-Bold-53" x="156.399979"/>
      <use xlink:href="#Ubuntu-Bold-45" x="214.599976"/>
     </g>
    </g>
   </g>
   <g id="PathCollection_1">
    <defs>
     <path id="m0c53e8a9fe" d="M 0 1.25 
C 0.331504 1.25 0.649475 1.118292 0.883883 0.883883 
C 1.118292 0.649475 1.25 0.331504 1.25 0 
C 1.25 -0.331504 1.118292 -0.649475 0.883883 -0.883883 
C 0.649475 -1.118292 0.331504 -1.25 0 -1.25 
C -0.331504 -1.25 -0.649475 -1.118292 -0.883883 -0.883883 
C -1.118292 -0.649475 -1.25 -0.331504 -1.25 0 
C -1.25 0.331504 -1.118292 0.649475 -0.883883 0.883883 
C -0.649475 1.118292 -0.331504 1.25 0 1.25 
z
" style="stroke: #cd4a3f"/>
    </defs>
    <g clip-path="url(#pebd382b3df)">
     <use xlink:href="#m0c53e8a9fe" x="128.33821" y="132.251403" style="fill: #cd4a3f; stroke: #cd4a3f"/>
     <use xlink:href="#m0c53e8a9fe" x="195.974574" y="129.373793" style="fill: #cd4a3f; stroke: #cd4a3f"/>
     <use xlink:href="#m0c53e8a9fe" x="263.610937" y="116.36924" style="fill: #cd4a3f; stroke: #cd4a3f"/>
     <use xlink:href="#m0c53e8a9fe" x="331.247301" y="83.17363" style="fill: #cd4a3f; stroke: #cd4a3f"/>
     <use xlink:href="#m0c53e8a9fe" x="398.883665" y="59.596816" style="fill: #cd4a3f; stroke: #cd4a3f"/>
    </g>
   </g>
   <g id="patch_5">
    <path d="M 471.810937 163.8875 
L 471.810937 25.2875 
" style="fill: none; stroke: #cccccc; stroke-width: 0.5; stroke-linejoin: miter; stroke-linecap: square"/>
   </g>
   <g id="text_21">
    <!-- 100% -->
    <g style="fill: #4b4b4b" transform="translate(120.127852 124.455153) scale(0.075 -0.075)">
     <defs>
      <path id="Ubuntu-31" d="M 595 3520 
Q 960 3661 1305 3881 
Q 1651 4102 1939 4435 
L 2362 4435 
L 2362 0 
L 1766 0 
L 1766 3610 
Q 1690 3539 1578 3462 
Q 1466 3386 1334 3315 
Q 1203 3245 1059 3181 
Q 915 3117 781 3072 
L 595 3520 
z
" transform="scale(0.015625)"/>
      <path id="Ubuntu-25" d="M 320 3354 
Q 320 3642 397 3859 
Q 474 4077 611 4227 
Q 749 4378 934 4454 
Q 1120 4531 1338 4531 
Q 1555 4531 1740 4454 
Q 1926 4378 2064 4227 
Q 2202 4077 2278 3859 
Q 2355 3642 2355 3354 
Q 2355 3066 2278 2848 
Q 2202 2630 2064 2480 
Q 1926 2330 1740 2253 
Q 1555 2176 1338 2176 
Q 1120 2176 934 2253 
Q 749 2330 611 2480 
Q 474 2630 397 2848 
Q 320 3066 320 3354 
z
M 1856 3354 
Q 1856 3699 1721 3894 
Q 1587 4090 1338 4090 
Q 1088 4090 953 3894 
Q 819 3699 819 3354 
Q 819 3008 953 2813 
Q 1088 2618 1338 2618 
Q 1587 2618 1721 2813 
Q 1856 3008 1856 3354 
z
M 3136 1082 
Q 3136 1370 3213 1587 
Q 3290 1805 3427 1955 
Q 3565 2106 3750 2182 
Q 3936 2259 4154 2259 
Q 4371 2259 4556 2182 
Q 4742 2106 4880 1955 
Q 5018 1805 5094 1587 
Q 5171 1370 5171 1082 
Q 5171 794 5094 576 
Q 5018 358 4880 208 
Q 4742 58 4556 -19 
Q 4371 -96 4154 -96 
Q 3936 -96 3750 -19 
Q 3565 58 3427 208 
Q 3290 358 3213 576 
Q 3136 794 3136 1082 
z
M 4672 1082 
Q 4672 1427 4537 1622 
Q 4403 1818 4154 1818 
Q 3904 1818 3769 1622 
Q 3635 1427 3635 1082 
Q 3635 736 3769 541 
Q 3904 346 4154 346 
Q 4403 346 4537 541 
Q 4672 736 4672 1082 
z
M 4288 4435 
L 1786 0 
L 1203 0 
L 3706 4435 
L 4288 4435 
z
" transform="scale(0.015625)"/>
     </defs>
     <use xlink:href="#Ubuntu-31"/>
     <use xlink:href="#Ubuntu-30" x="56.399994"/>
     <use xlink:href="#Ubuntu-30" x="112.799988"/>
     <use xlink:href="#Ubuntu-25" x="169.199982"/>
    </g>
   </g>
   <g id="text_22">
    <!-- February - March -->
    <g style="fill: #4b4b4b" transform="translate(97.80446 113.193903) scale(0.08 -0.08)">
     <defs>
      <path id="Ubuntu-20" transform="scale(0.015625)"/>
      <path id="Ubuntu-2d" d="M 166 2195 
L 1747 2195 
L 1747 1638 
L 166 1638 
L 166 2195 
z
" transform="scale(0.015625)"/>
     </defs>
     <use xlink:href="#Ubuntu-46"/>
     <use xlink:href="#Ubuntu-65" x="52.324997"/>
     <use xlink:href="#Ubuntu-62" x="108.224991"/>
     <use xlink:href="#Ubuntu-72" x="167.124985"/>
     <use xlink:href="#Ubuntu-75" x="205.724976"/>
     <use xlink:href="#Ubuntu-61" x="263.124969"/>
     <use xlink:href="#Ubuntu-72" x="315.324966"/>
     <use xlink:href="#Ubuntu-79" x="356.049957"/>
     <use xlink:href="#Ubuntu-20" x="405.749954"/>
     <use xlink:href="#Ubuntu-2d" x="428.849945"/>
     <use xlink:href="#Ubuntu-20" x="458.749939"/>
     <use xlink:href="#Ubuntu-4d" x="481.84993"/>
     <use xlink:href="#Ubuntu-61" x="568.949921"/>
     <use xlink:href="#Ubuntu-72" x="621.149918"/>
     <use xlink:href="#Ubuntu-63" x="659.749908"/>
     <use xlink:href="#Ubuntu-68" x="706.249893"/>
    </g>
   </g>
   <g id="text_23">
    <!-- 109% -->
    <g style="fill: #cd4a3f" transform="translate(187.764215 121.144418) scale(0.075 -0.075)">
     <defs>
      <path id="Ubuntu-39" d="M 3206 2662 
Q 3206 1344 2550 669 
Q 1894 -6 602 -13 
L 582 486 
Q 986 486 1309 563 
Q 1632 640 1875 809 
Q 2118 979 2281 1248 
Q 2445 1517 2522 1907 
Q 2355 1830 2144 1782 
Q 1933 1734 1709 1734 
Q 1331 1734 1068 1846 
Q 806 1958 640 2147 
Q 474 2336 400 2582 
Q 326 2829 326 3098 
Q 326 3334 409 3590 
Q 493 3846 662 4057 
Q 832 4269 1094 4403 
Q 1357 4538 1715 4538 
Q 2080 4538 2358 4410 
Q 2637 4282 2825 4038 
Q 3014 3795 3110 3446 
Q 3206 3098 3206 2662 
z
M 1773 2221 
Q 1997 2221 2195 2262 
Q 2394 2304 2579 2387 
Q 2586 2458 2586 2525 
Q 2586 2592 2586 2662 
Q 2586 2938 2547 3190 
Q 2509 3443 2409 3632 
Q 2310 3821 2144 3933 
Q 1978 4045 1722 4045 
Q 1510 4045 1363 3955 
Q 1216 3866 1120 3728 
Q 1024 3590 982 3427 
Q 941 3264 941 3110 
Q 941 2675 1149 2448 
Q 1357 2221 1773 2221 
z
" transform="scale(0.015625)"/>
     </defs>
     <use xlink:href="#Ubuntu-31"/>
     <use xlink:href="#Ubuntu-30" x="56.399994"/>
     <use xlink:href="#Ubuntu-39" x="112.799988"/>
     <use xlink:href="#Ubuntu-25" x="169.199982"/>
    </g>
   </g>
   <g id="text_24">
    <!-- March - April -->
    <g style="fill: #4b4b4b" transform="translate(173.015824 110.316293) scale(0.08 -0.08)">
     <use xlink:href="#Ubuntu-4d"/>
     <use xlink:href="#Ubuntu-61" x="87.099991"/>
     <use xlink:href="#Ubuntu-72" x="139.299988"/>
     <use xlink:href="#Ubuntu-63" x="177.899979"/>
     <use xlink:href="#Ubuntu-68" x="224.399963"/>
     <use xlink:href="#Ubuntu-20" x="281.499954"/>
     <use xlink:href="#Ubuntu-2d" x="304.599945"/>
     <use xlink:href="#Ubuntu-20" x="334.499939"/>
     <use xlink:href="#Ubuntu-41" x="357.59993"/>
     <use xlink:href="#Ubuntu-70" x="423.899918"/>
     <use xlink:href="#Ubuntu-72" x="482.799911"/>
     <use xlink:href="#Ubuntu-69" x="521.399902"/>
     <use xlink:href="#Ubuntu-6c" x="546.69989"/>
    </g>
   </g>
   <g id="text_25">
    <!-- 150% -->
    <g style="fill: #cd4a3f" transform="translate(255.400579 108.139865) scale(0.075 -0.075)">
     <defs>
      <path id="Ubuntu-35" d="M 1274 2726 
Q 2240 2688 2691 2304 
Q 3142 1920 3142 1261 
Q 3142 966 3043 716 
Q 2944 467 2742 288 
Q 2541 109 2233 6 
Q 1926 -96 1504 -96 
Q 1338 -96 1165 -70 
Q 992 -45 845 -6 
Q 698 32 582 70 
Q 467 109 416 134 
L 531 653 
Q 640 602 886 518 
Q 1133 435 1491 435 
Q 1779 435 1974 499 
Q 2170 563 2291 672 
Q 2413 781 2467 925 
Q 2522 1069 2522 1229 
Q 2522 1472 2438 1661 
Q 2355 1850 2144 1978 
Q 1933 2106 1581 2173 
Q 1229 2240 691 2240 
Q 730 2554 752 2829 
Q 774 3104 793 3366 
Q 813 3629 825 3888 
Q 838 4147 851 4435 
L 2989 4435 
L 2989 3930 
L 1370 3930 
Q 1363 3834 1350 3670 
Q 1338 3507 1325 3331 
Q 1312 3155 1299 2988 
Q 1286 2822 1274 2726 
z
" transform="scale(0.015625)"/>
     </defs>
     <use xlink:href="#Ubuntu-31"/>
     <use xlink:href="#Ubuntu-35" x="56.399994"/>
     <use xlink:href="#Ubuntu-30" x="112.799988"/>
     <use xlink:href="#Ubuntu-25" x="169.199982"/>
    </g>
   </g>
   <g id="text_26">
    <!-- April - May -->
    <g style="fill: #4b4b4b" transform="translate(244.411562 97.31174) scale(0.08 -0.08)">
     <use xlink:href="#Ubuntu-41"/>
     <use xlink:href="#Ubuntu-70" x="66.299988"/>
     <use xlink:href="#Ubuntu-72" x="125.199982"/>
     <use xlink:href="#Ubuntu-69" x="163.799973"/>
     <use xlink:href="#Ubuntu-6c" x="189.09996"/>
     <use xlink:href="#Ubuntu-20" x="216.399948"/>
     <use xlink:href="#Ubuntu-2d" x="239.499939"/>
     <use xlink:href="#Ubuntu-20" x="269.399933"/>
     <use xlink:href="#Ubuntu-4d" x="292.499924"/>
     <use xlink:href="#Ubuntu-61" x="379.599915"/>
     <use xlink:href="#Ubuntu-79" x="430.299911"/>
    </g>
   </g>
   <g id="text_27">
    <!-- 255% -->
    <g style="fill: #cd4a3f" transform="translate(323.036942 74.944255) scale(0.075 -0.075)">
     <use xlink:href="#Ubuntu-32"/>
     <use xlink:href="#Ubuntu-35" x="56.399994"/>
     <use xlink:href="#Ubuntu-35" x="112.799988"/>
     <use xlink:href="#Ubuntu-25" x="169.199982"/>
    </g>
   </g>
   <g id="text_28">
    <!-- May - June -->
    <g style="fill: #4b4b4b" transform="translate(311.874801 64.11613) scale(0.08 -0.08)">
     <use xlink:href="#Ubuntu-4d"/>
     <use xlink:href="#Ubuntu-61" x="87.099991"/>
     <use xlink:href="#Ubuntu-79" x="137.799988"/>
     <use xlink:href="#Ubuntu-20" x="187.499985"/>
     <use xlink:href="#Ubuntu-2d" x="210.599976"/>
     <use xlink:href="#Ubuntu-20" x="240.499969"/>
     <use xlink:href="#Ubuntu-4a" x="263.59996"/>
     <use xlink:href="#Ubuntu-75" x="313.599945"/>
     <use xlink:href="#Ubuntu-6e" x="370.999939"/>
     <use xlink:href="#Ubuntu-65" x="428.399933"/>
    </g>
   </g>
   <g id="text_29">
    <!-- 330% -->
    <g style="fill: #cd4a3f" transform="translate(390.673306 51.367441) scale(0.075 -0.075)">
     <use xlink:href="#Ubuntu-33"/>
     <use xlink:href="#Ubuntu-33" x="56.399994"/>
     <use xlink:href="#Ubuntu-30" x="112.799988"/>
     <use xlink:href="#Ubuntu-25" x="169.199982"/>
    </g>
   </g>
   <g id="text_30">
    <!-- June - July -->
    <g style="fill: #4b4b4b" transform="translate(379.634915 40.539316) scale(0.08 -0.08)">
     <use xlink:href="#Ubuntu-4a"/>
     <use xlink:href="#Ubuntu-75" x="49.999985"/>
     <use xlink:href="#Ubuntu-6e" x="107.399979"/>
     <use xlink:href="#Ubuntu-65" x="164.799973"/>
     <use xlink:href="#Ubuntu-20" x="220.699966"/>
     <use xlink:href="#Ubuntu-2d" x="243.799957"/>
     <use xlink:href="#Ubuntu-20" x="273.699951"/>
     <use xlink:href="#Ubuntu-4a" x="296.799942"/>
     <use xlink:href="#Ubuntu-75" x="346.799927"/>
     <use xlink:href="#Ubuntu-6c" x="404.199921"/>
     <use xlink:href="#Ubuntu-79" x="431.499908"/>
    </g>
   </g>
   <g id="legend_1">
    <g id="line2d_20">
     <path d="M 65.466938 13.8075 
L 70.866938 13.8075 
L 76.266937 13.8075 
" style="fill: none; stroke: #5b5b5b; stroke-width: 1.5; stroke-linecap: square"/>
    </g>
    <g id="text_31">
     <!-- Consumption -->
     <g style="fill: #4b4b4b" transform="translate(82.266937 16.6075) scale(0.08 -0.08)">
      <defs>
       <path id="Ubuntu-43" d="M 2458 -96 
Q 1990 -96 1606 57 
Q 1222 211 947 505 
Q 672 800 521 1232 
Q 371 1664 371 2221 
Q 371 2778 540 3210 
Q 710 3642 998 3936 
Q 1286 4230 1670 4384 
Q 2054 4538 2490 4538 
Q 2765 4538 2985 4499 
Q 3206 4461 3369 4409 
Q 3533 4358 3635 4307 
Q 3738 4256 3776 4230 
L 3597 3718 
Q 3539 3757 3430 3801 
Q 3322 3846 3184 3891 
Q 3046 3936 2883 3965 
Q 2720 3994 2554 3994 
Q 2202 3994 1920 3872 
Q 1638 3750 1440 3520 
Q 1242 3290 1136 2960 
Q 1030 2630 1030 2221 
Q 1030 1824 1123 1497 
Q 1216 1171 1401 937 
Q 1587 704 1865 576 
Q 2144 448 2515 448 
Q 2944 448 3225 537 
Q 3507 627 3648 698 
L 3808 186 
Q 3763 154 3648 106 
Q 3533 58 3360 13 
Q 3187 -32 2956 -64 
Q 2726 -96 2458 -96 
z
" transform="scale(0.015625)"/>
       <path id="Ubuntu-6f" d="M 3450 1664 
Q 3450 1267 3334 947 
Q 3219 627 3011 396 
Q 2803 166 2515 41 
Q 2227 -83 1888 -83 
Q 1549 -83 1261 41 
Q 973 166 765 396 
Q 557 627 441 947 
Q 326 1267 326 1664 
Q 326 2054 441 2377 
Q 557 2701 765 2931 
Q 973 3162 1261 3286 
Q 1549 3411 1888 3411 
Q 2227 3411 2515 3286 
Q 2803 3162 3011 2931 
Q 3219 2701 3334 2377 
Q 3450 2054 3450 1664 
z
M 2829 1664 
Q 2829 2227 2576 2556 
Q 2323 2886 1888 2886 
Q 1453 2886 1200 2556 
Q 947 2227 947 1664 
Q 947 1101 1200 771 
Q 1453 442 1888 442 
Q 2323 442 2576 771 
Q 2829 1101 2829 1664 
z
" transform="scale(0.015625)"/>
       <path id="Ubuntu-6d" d="M 512 3232 
Q 717 3283 1053 3340 
Q 1389 3398 1830 3398 
Q 2150 3398 2368 3312 
Q 2586 3226 2733 3059 
Q 2778 3091 2874 3148 
Q 2970 3206 3110 3260 
Q 3251 3315 3424 3356 
Q 3597 3398 3795 3398 
Q 4179 3398 4422 3286 
Q 4666 3174 4803 2969 
Q 4941 2765 4989 2483 
Q 5037 2202 5037 1869 
L 5037 0 
L 4442 0 
L 4442 1741 
Q 4442 2035 4413 2246 
Q 4384 2458 4304 2598 
Q 4224 2739 4086 2806 
Q 3949 2874 3731 2874 
Q 3430 2874 3235 2794 
Q 3040 2714 2970 2650 
Q 3021 2483 3046 2284 
Q 3072 2086 3072 1869 
L 3072 0 
L 2477 0 
L 2477 1741 
Q 2477 2035 2445 2246 
Q 2413 2458 2333 2598 
Q 2253 2739 2115 2806 
Q 1978 2874 1766 2874 
Q 1677 2874 1574 2867 
Q 1472 2861 1379 2851 
Q 1286 2842 1209 2829 
Q 1133 2816 1107 2810 
L 1107 0 
L 512 0 
L 512 3232 
z
" transform="scale(0.015625)"/>
      </defs>
      <use xlink:href="#Ubuntu-43"/>
      <use xlink:href="#Ubuntu-6f" x="60.499985"/>
      <use xlink:href="#Ubuntu-6e" x="119.499969"/>
      <use xlink:href="#Ubuntu-73" x="176.899963"/>
      <use xlink:href="#Ubuntu-75" x="221.499954"/>
      <use xlink:href="#Ubuntu-6d" x="278.899948"/>
      <use xlink:href="#Ubuntu-70" x="364.999939"/>
      <use xlink:href="#Ubuntu-74" x="423.899933"/>
      <use xlink:href="#Ubuntu-69" x="464.09993"/>
      <use xlink:href="#Ubuntu-6f" x="489.399918"/>
      <use xlink:href="#Ubuntu-6e" x="548.399902"/>
     </g>
    </g>
    <g id="line2d_21">
     <defs>
      <path id="m7ea3e38db7" d="M 0 1.5 
C 0.397805 1.5 0.77937 1.341951 1.06066 1.06066 
C 1.341951 0.77937 1.5 0.397805 1.5 0 
C 1.5 -0.397805 1.341951 -0.77937 1.06066 -1.06066 
C 0.77937 -1.341951 0.397805 -1.5 0 -1.5 
C -0.397805 -1.5 -0.77937 -1.341951 -1.06066 -1.06066 
C -1.341951 -0.77937 -1.5 -0.397805 -1.5 0 
C -1.5 0.397805 -1.341951 0.77937 -1.06066 1.06066 
C -0.77937 1.341951 -0.397805 1.5 0 1.5 
z
" style="stroke: #cd4a3f"/>
     </defs>
     <g>
      <use xlink:href="#m7ea3e38db7" x="152.131938" y="13.8075" style="fill: #cd4a3f; stroke: #cd4a3f"/>
     </g>
    </g>
    <g id="text_32">
     <!-- RMSE -->
     <g style="fill: #4b4b4b" transform="translate(163.531938 16.6075) scale(0.08 -0.08)">
      <defs>
       <path id="Ubuntu-52" d="M 2720 1856 
Q 2822 1728 2979 1520 
Q 3136 1312 3302 1059 
Q 3469 806 3632 531 
Q 3795 256 3910 0 
L 3232 0 
Q 3104 243 2953 492 
Q 2803 742 2649 969 
Q 2496 1197 2345 1395 
Q 2195 1594 2074 1741 
Q 1990 1734 1904 1734 
Q 1818 1734 1728 1734 
L 1171 1734 
L 1171 0 
L 550 0 
L 550 4371 
Q 813 4435 1136 4457 
Q 1459 4480 1728 4480 
Q 2662 4480 3152 4128 
Q 3642 3776 3642 3078 
Q 3642 2637 3408 2323 
Q 3174 2010 2720 1856 
z
M 1779 3936 
Q 1382 3936 1171 3917 
L 1171 2246 
L 1613 2246 
Q 1933 2246 2189 2278 
Q 2445 2310 2621 2400 
Q 2797 2490 2893 2653 
Q 2989 2816 2989 3085 
Q 2989 3334 2893 3500 
Q 2797 3667 2633 3763 
Q 2470 3859 2249 3897 
Q 2029 3936 1779 3936 
z
" transform="scale(0.015625)"/>
       <path id="Ubuntu-53" d="M 1581 442 
Q 2554 442 2554 1107 
Q 2554 1312 2467 1456 
Q 2381 1600 2233 1705 
Q 2086 1811 1897 1888 
Q 1709 1965 1498 2042 
Q 1254 2125 1036 2230 
Q 819 2336 659 2480 
Q 499 2624 406 2822 
Q 314 3021 314 3302 
Q 314 3885 710 4211 
Q 1107 4538 1805 4538 
Q 2208 4538 2537 4451 
Q 2867 4365 3021 4262 
L 2822 3757 
Q 2688 3840 2422 3920 
Q 2157 4000 1805 4000 
Q 1626 4000 1472 3961 
Q 1318 3923 1203 3846 
Q 1088 3770 1021 3651 
Q 954 3533 954 3373 
Q 954 3194 1024 3072 
Q 1094 2950 1222 2857 
Q 1350 2765 1520 2688 
Q 1690 2611 1894 2534 
Q 2182 2419 2422 2304 
Q 2662 2189 2838 2029 
Q 3014 1869 3110 1648 
Q 3206 1427 3206 1114 
Q 3206 531 2780 217 
Q 2355 -96 1581 -96 
Q 1318 -96 1097 -61 
Q 877 -26 704 22 
Q 531 70 406 124 
Q 282 179 211 218 
L 397 730 
Q 544 646 845 544 
Q 1146 442 1581 442 
z
" transform="scale(0.015625)"/>
       <path id="Ubuntu-45" d="M 550 0 
L 550 4435 
L 3258 4435 
L 3258 3904 
L 1171 3904 
L 1171 2586 
L 3027 2586 
L 3027 2067 
L 1171 2067 
L 1171 531 
L 3418 531 
L 3418 0 
L 550 0 
z
" transform="scale(0.015625)"/>
      </defs>
      <use xlink:href="#Ubuntu-52"/>
      <use xlink:href="#Ubuntu-4d" x="62.899994"/>
      <use xlink:href="#Ubuntu-53" x="149.999985"/>
      <use xlink:href="#Ubuntu-45" x="203.199982"/>
     </g>
    </g>
   </g>
  </g>
 </g>
 <defs>
  <clipPath id="pebd382b3df">
   <rect x="40.410938" y="25.2875" width="446.4" height="138.6"/>
  </clipPath>
 </defs>
</svg>
