<?xml version="1.0" encoding="utf-8" standalone="no"?>
<!DOCTYPE svg PUBLIC "-//W3C//DTD SVG 1.1//EN"
  "http://www.w3.org/Graphics/SVG/1.1/DTD/svg11.dtd">
<svg xmlns:xlink="http://www.w3.org/1999/xlink" width="514.125pt" height="198.8075pt" viewBox="0 0 514.125 198.8075" xmlns="http://www.w3.org/2000/svg" version="1.1">
 <metadata>
  <rdf:RDF xmlns:dc="http://purl.org/dc/elements/1.1/" xmlns:cc="http://creativecommons.org/ns#" xmlns:rdf="http://www.w3.org/1999/02/22-rdf-syntax-ns#">
   <cc:Work>
    <dc:type rdf:resource="http://purl.org/dc/dcmitype/StillImage"/>
    <dc:date>2024-04-16T01:06:38.543316</dc:date>
    <dc:format>image/svg+xml</dc:format>
    <dc:creator>
     <cc:Agent>
      <dc:title>Matplotlib v3.8.3, https://matplotlib.org/</dc:title>
     </cc:Agent>
    </dc:creator>
   </cc:Work>
  </rdf:RDF>
 </metadata>
 <defs>
  <style type="text/css">*{stroke-linejoin: round; stroke-linecap: butt}</style>
 </defs>
 <g id="figure_1">
  <g id="patch_1">
   <path d="M 0 198.8075 
L 514.125 198.8075 
L 514.125 0 
L 0 0 
L 0 198.8075 
z
" style="fill: none"/>
  </g>
  <g id="axes_1">
   <g id="patch_2">
    <path d="M 60.525 191.6075 
L 506.925 191.6075 
L 506.925 25.2875 
L 60.525 25.2875 
L 60.525 191.6075 
z
" style="fill: none"/>
   </g>
   <g id="matplotlib.axis_1">
    <g id="xtick_1"/>
    <g id="xtick_2"/>
    <g id="xtick_3"/>
    <g id="xtick_4"/>
    <g id="xtick_5"/>
    <g id="xtick_6"/>
    <g id="xtick_7"/>
    <g id="xtick_8"/>
    <g id="xtick_9"/>
   </g>
   <g id="matplotlib.axis_2">
    <g id="ytick_1">
     <g id="text_1">
      <!-- Test -->
      <g style="fill: #505050" transform="translate(33.055312 183.219219) scale(0.09 -0.09)">
       <defs>
        <path id="Ubuntu-Bold-54" d="M 3802 4435 
L 3802 3584 
L 2464 3584 
L 2464 0 
L 1466 0 
L 1466 3584 
L 128 3584 
L 128 4435 
L 3802 4435 
z
" transform="scale(0.015625)"/>
        <path id="Ubuntu-Bold-65" d="M 288 1658 
Q 288 2106 425 2442 
Q 563 2778 787 3002 
Q 1011 3226 1302 3341 
Q 1594 3456 1901 3456 
Q 2618 3456 3034 3017 
Q 3450 2579 3450 1728 
Q 3450 1645 3443 1545 
Q 3437 1446 3430 1370 
L 1267 1370 
Q 1299 1075 1542 902 
Q 1786 730 2195 730 
Q 2458 730 2710 778 
Q 2963 826 3123 896 
L 3251 122 
Q 3174 83 3046 44 
Q 2918 6 2761 -22 
Q 2605 -51 2425 -70 
Q 2246 -90 2067 -90 
Q 1613 -90 1277 44 
Q 941 179 720 412 
Q 499 646 393 966 
Q 288 1286 288 1658 
z
M 2528 2022 
Q 2522 2144 2486 2259 
Q 2451 2374 2377 2464 
Q 2304 2554 2192 2611 
Q 2080 2669 1914 2669 
Q 1754 2669 1638 2614 
Q 1523 2560 1446 2470 
Q 1370 2381 1328 2262 
Q 1286 2144 1267 2022 
L 2528 2022 
z
" transform="scale(0.015625)"/>
        <path id="Ubuntu-Bold-73" d="M 1414 685 
Q 1677 685 1785 736 
Q 1894 787 1894 934 
Q 1894 1050 1753 1136 
Q 1613 1222 1325 1331 
Q 1101 1414 918 1504 
Q 736 1594 608 1718 
Q 480 1843 409 2016 
Q 339 2189 339 2432 
Q 339 2906 691 3181 
Q 1043 3456 1658 3456 
Q 1965 3456 2246 3401 
Q 2528 3347 2694 3283 
L 2528 2541 
Q 2362 2598 2166 2643 
Q 1971 2688 1728 2688 
Q 1280 2688 1280 2438 
Q 1280 2381 1299 2336 
Q 1318 2291 1376 2249 
Q 1434 2208 1533 2160 
Q 1632 2112 1786 2054 
Q 2099 1939 2304 1827 
Q 2509 1715 2627 1584 
Q 2746 1453 2794 1293 
Q 2842 1133 2842 922 
Q 2842 422 2467 166 
Q 2093 -90 1408 -90 
Q 960 -90 662 -13 
Q 365 64 250 115 
L 410 890 
Q 653 794 909 739 
Q 1165 685 1414 685 
z
" transform="scale(0.015625)"/>
        <path id="Ubuntu-Bold-74" d="M 416 4205 
L 1370 4358 
L 1370 3366 
L 2515 3366 
L 2515 2573 
L 1370 2573 
L 1370 1389 
Q 1370 1088 1475 909 
Q 1581 730 1901 730 
Q 2054 730 2217 758 
Q 2381 787 2515 838 
L 2650 96 
Q 2477 26 2265 -25 
Q 2054 -77 1747 -77 
Q 1357 -77 1101 28 
Q 845 134 691 323 
Q 538 512 477 781 
Q 416 1050 416 1376 
L 416 4205 
z
" transform="scale(0.015625)"/>
       </defs>
       <use xlink:href="#Ubuntu-Bold-54"/>
       <use xlink:href="#Ubuntu-Bold-65" x="53.899994"/>
       <use xlink:href="#Ubuntu-Bold-73" x="112.299988"/>
       <use xlink:href="#Ubuntu-Bold-74" x="160.799973"/>
      </g>
     </g>
    </g>
    <g id="ytick_2">
     <g id="text_2">
      <!-- Validation -->
      <g style="fill: #505050" transform="translate(7.2 159.459219) scale(0.09 -0.09)">
       <defs>
        <path id="Ubuntu-Bold-56" d="M 1830 0 
Q 1568 557 1312 1158 
Q 1056 1760 825 2349 
Q 595 2938 400 3475 
Q 205 4013 64 4435 
L 1165 4435 
Q 1293 4051 1443 3606 
Q 1594 3162 1750 2720 
Q 1907 2278 2054 1875 
Q 2202 1472 2330 1178 
Q 2451 1472 2601 1875 
Q 2752 2278 2909 2720 
Q 3066 3162 3216 3606 
Q 3366 4051 3494 4435 
L 4557 4435 
Q 4410 4013 4218 3475 
Q 4026 2938 3795 2349 
Q 3565 1760 3309 1158 
Q 3053 557 2790 0 
L 1830 0 
z
" transform="scale(0.015625)"/>
        <path id="Ubuntu-Bold-61" d="M 1734 666 
Q 1875 666 2003 672 
Q 2131 678 2208 691 
L 2208 1414 
Q 2150 1427 2035 1440 
Q 1920 1453 1824 1453 
Q 1690 1453 1571 1437 
Q 1453 1421 1363 1376 
Q 1274 1331 1222 1254 
Q 1171 1178 1171 1062 
Q 1171 838 1321 752 
Q 1472 666 1734 666 
z
M 1658 3456 
Q 2080 3456 2361 3360 
Q 2643 3264 2812 3085 
Q 2982 2906 3052 2650 
Q 3123 2394 3123 2080 
L 3123 96 
Q 2918 51 2553 -9 
Q 2189 -70 1670 -70 
Q 1344 -70 1078 -12 
Q 813 45 621 176 
Q 429 307 326 518 
Q 224 730 224 1037 
Q 224 1331 342 1536 
Q 461 1741 659 1862 
Q 858 1984 1114 2038 
Q 1370 2093 1645 2093 
Q 1830 2093 1974 2077 
Q 2118 2061 2208 2035 
L 2208 2125 
Q 2208 2368 2061 2515 
Q 1914 2662 1549 2662 
Q 1306 2662 1069 2627 
Q 832 2592 659 2528 
L 538 3296 
Q 621 3322 745 3350 
Q 870 3379 1017 3401 
Q 1165 3424 1328 3440 
Q 1491 3456 1658 3456 
z
" transform="scale(0.015625)"/>
        <path id="Ubuntu-Bold-6c" d="M 1792 -64 
Q 1376 -58 1117 25 
Q 858 109 707 259 
Q 557 410 502 624 
Q 448 838 448 1107 
L 448 4813 
L 1402 4966 
L 1402 1299 
Q 1402 1171 1421 1068 
Q 1440 966 1494 896 
Q 1549 826 1651 781 
Q 1754 736 1926 723 
L 1792 -64 
z
" transform="scale(0.015625)"/>
        <path id="Ubuntu-Bold-69" d="M 1402 0 
L 448 0 
L 448 3366 
L 1402 3366 
L 1402 0 
z
M 1491 4339 
Q 1491 4077 1321 3926 
Q 1152 3776 922 3776 
Q 691 3776 521 3926 
Q 352 4077 352 4339 
Q 352 4602 521 4752 
Q 691 4902 922 4902 
Q 1152 4902 1321 4752 
Q 1491 4602 1491 4339 
z
" transform="scale(0.015625)"/>
        <path id="Ubuntu-Bold-64" d="M 1261 1709 
Q 1261 1267 1459 998 
Q 1658 730 2048 730 
Q 2176 730 2285 739 
Q 2394 749 2464 762 
L 2464 2496 
Q 2374 2554 2230 2592 
Q 2086 2630 1939 2630 
Q 1261 2630 1261 1709 
z
M 3418 109 
Q 3290 70 3123 35 
Q 2957 0 2774 -25 
Q 2592 -51 2403 -67 
Q 2214 -83 2042 -83 
Q 1626 -83 1299 38 
Q 973 160 749 387 
Q 525 614 406 937 
Q 288 1261 288 1664 
Q 288 2074 390 2403 
Q 493 2733 685 2963 
Q 877 3194 1155 3315 
Q 1434 3437 1792 3437 
Q 1990 3437 2147 3398 
Q 2304 3360 2464 3290 
L 2464 4813 
L 3418 4966 
L 3418 109 
z
" transform="scale(0.015625)"/>
        <path id="Ubuntu-Bold-6f" d="M 3597 1690 
Q 3597 1293 3481 963 
Q 3366 634 3148 400 
Q 2931 166 2627 38 
Q 2323 -90 1946 -90 
Q 1574 -90 1270 38 
Q 966 166 748 400 
Q 531 634 409 963 
Q 288 1293 288 1690 
Q 288 2086 413 2412 
Q 538 2739 758 2969 
Q 979 3200 1283 3328 
Q 1587 3456 1946 3456 
Q 2310 3456 2614 3328 
Q 2918 3200 3136 2969 
Q 3354 2739 3475 2412 
Q 3597 2086 3597 1690 
z
M 2624 1690 
Q 2624 2131 2448 2384 
Q 2272 2637 1946 2637 
Q 1619 2637 1440 2384 
Q 1261 2131 1261 1690 
Q 1261 1248 1440 989 
Q 1619 730 1946 730 
Q 2272 730 2448 989 
Q 2624 1248 2624 1690 
z
" transform="scale(0.015625)"/>
        <path id="Ubuntu-Bold-6e" d="M 448 3251 
Q 691 3322 1075 3382 
Q 1459 3443 1882 3443 
Q 2310 3443 2595 3331 
Q 2880 3219 3046 3014 
Q 3213 2810 3283 2528 
Q 3354 2246 3354 1901 
L 3354 0 
L 2400 0 
L 2400 1786 
Q 2400 2246 2278 2438 
Q 2157 2630 1824 2630 
Q 1722 2630 1606 2620 
Q 1491 2611 1402 2598 
L 1402 0 
L 448 0 
L 448 3251 
z
" transform="scale(0.015625)"/>
       </defs>
       <use xlink:href="#Ubuntu-Bold-56"/>
       <use xlink:href="#Ubuntu-Bold-61" x="68.074982"/>
       <use xlink:href="#Ubuntu-Bold-6c" x="123.374969"/>
       <use xlink:href="#Ubuntu-Bold-69" x="154.97496"/>
       <use xlink:href="#Ubuntu-Bold-64" x="183.874954"/>
       <use xlink:href="#Ubuntu-Bold-61" x="244.274948"/>
       <use xlink:href="#Ubuntu-Bold-74" x="299.574936"/>
       <use xlink:href="#Ubuntu-Bold-69" x="343.97493"/>
       <use xlink:href="#Ubuntu-Bold-6f" x="372.874924"/>
       <use xlink:href="#Ubuntu-Bold-6e" x="433.574921"/>
      </g>
     </g>
    </g>
    <g id="ytick_3">
     <g id="text_3">
      <!-- Fold 5 -->
      <g style="fill: #505050" transform="translate(25.433438 135.699219) scale(0.09 -0.09)">
       <defs>
        <path id="Ubuntu-Bold-46" d="M 512 0 
L 512 4435 
L 3482 4435 
L 3482 3597 
L 1510 3597 
L 1510 2669 
L 3264 2669 
L 3264 1830 
L 1510 1830 
L 1510 0 
L 512 0 
z
" transform="scale(0.015625)"/>
        <path id="Ubuntu-Bold-20" transform="scale(0.015625)"/>
        <path id="Ubuntu-Bold-35" d="M 2304 1306 
Q 2304 1491 2221 1635 
Q 2138 1779 1933 1875 
Q 1728 1971 1382 2022 
Q 1037 2074 512 2074 
Q 582 2669 627 3283 
Q 672 3898 698 4435 
L 3098 4435 
L 3098 3635 
L 1498 3635 
Q 1485 3405 1469 3190 
Q 1453 2976 1434 2816 
Q 2368 2752 2813 2377 
Q 3258 2003 3258 1338 
Q 3258 1030 3149 768 
Q 3040 506 2822 314 
Q 2605 122 2275 13 
Q 1946 -96 1504 -96 
Q 1331 -96 1142 -73 
Q 954 -51 778 -16 
Q 602 19 461 57 
Q 320 96 243 134 
L 416 922 
Q 576 851 838 784 
Q 1101 717 1466 717 
Q 1907 717 2105 893 
Q 2304 1069 2304 1306 
z
" transform="scale(0.015625)"/>
       </defs>
       <use xlink:href="#Ubuntu-Bold-46"/>
       <use xlink:href="#Ubuntu-Bold-6f" x="56.399994"/>
       <use xlink:href="#Ubuntu-Bold-6c" x="117.099991"/>
       <use xlink:href="#Ubuntu-Bold-64" x="148.699982"/>
       <use xlink:href="#Ubuntu-Bold-20" x="209.099976"/>
       <use xlink:href="#Ubuntu-Bold-35" x="233.09996"/>
      </g>
     </g>
    </g>
    <g id="ytick_4">
     <g id="text_4">
      <!-- Fold 4 -->
      <g style="fill: #505050" transform="translate(25.433438 111.939219) scale(0.09 -0.09)">
       <defs>
        <path id="Ubuntu-Bold-34" d="M 2042 3270 
Q 1792 2944 1510 2560 
Q 1229 2176 1037 1773 
L 2042 1773 
L 2042 3270 
z
M 2976 4435 
L 2976 1773 
L 3450 1773 
L 3450 992 
L 2976 992 
L 2976 0 
L 2042 0 
L 2042 992 
L 128 992 
L 128 1690 
Q 269 1971 480 2326 
Q 691 2682 950 3056 
Q 1210 3430 1498 3788 
Q 1786 4147 2074 4435 
L 2976 4435 
z
" transform="scale(0.015625)"/>
       </defs>
       <use xlink:href="#Ubuntu-Bold-46"/>
       <use xlink:href="#Ubuntu-Bold-6f" x="56.399994"/>
       <use xlink:href="#Ubuntu-Bold-6c" x="117.099991"/>
       <use xlink:href="#Ubuntu-Bold-64" x="148.699982"/>
       <use xlink:href="#Ubuntu-Bold-20" x="209.099976"/>
       <use xlink:href="#Ubuntu-Bold-34" x="233.09996"/>
      </g>
     </g>
    </g>
    <g id="ytick_5">
     <g id="text_5">
      <!-- Fold 3 -->
      <g style="fill: #505050" transform="translate(25.433438 88.179219) scale(0.09 -0.09)">
       <defs>
        <path id="Ubuntu-Bold-33" d="M 1459 -96 
Q 1286 -96 1094 -73 
Q 902 -51 723 -12 
Q 544 26 397 70 
Q 250 115 166 154 
L 352 947 
Q 518 877 777 797 
Q 1037 717 1421 717 
Q 1862 717 2067 883 
Q 2272 1050 2272 1331 
Q 2272 1504 2198 1622 
Q 2125 1741 1997 1814 
Q 1869 1888 1693 1917 
Q 1517 1946 1318 1946 
L 947 1946 
L 947 2714 
L 1370 2714 
Q 1510 2714 1641 2739 
Q 1773 2765 1875 2825 
Q 1978 2886 2038 2992 
Q 2099 3098 2099 3258 
Q 2099 3379 2048 3468 
Q 1997 3558 1917 3616 
Q 1837 3674 1731 3702 
Q 1626 3731 1517 3731 
Q 1242 3731 1008 3648 
Q 774 3565 582 3443 
L 243 4141 
Q 346 4205 483 4275 
Q 621 4346 787 4403 
Q 954 4461 1142 4499 
Q 1331 4538 1542 4538 
Q 1933 4538 2217 4445 
Q 2502 4352 2688 4182 
Q 2874 4013 2963 3785 
Q 3053 3558 3053 3290 
Q 3053 3027 2905 2780 
Q 2758 2534 2509 2406 
Q 2854 2266 3043 1987 
Q 3232 1709 3232 1318 
Q 3232 1011 3129 752 
Q 3027 493 2809 304 
Q 2592 115 2256 9 
Q 1920 -96 1459 -96 
z
" transform="scale(0.015625)"/>
       </defs>
       <use xlink:href="#Ubuntu-Bold-46"/>
       <use xlink:href="#Ubuntu-Bold-6f" x="56.399994"/>
       <use xlink:href="#Ubuntu-Bold-6c" x="117.099991"/>
       <use xlink:href="#Ubuntu-Bold-64" x="148.699982"/>
       <use xlink:href="#Ubuntu-Bold-20" x="209.099976"/>
       <use xlink:href="#Ubuntu-Bold-33" x="233.09996"/>
      </g>
     </g>
    </g>
    <g id="ytick_6">
     <g id="text_6">
      <!-- Fold 2 -->
      <g style="fill: #505050" transform="translate(25.433438 64.419219) scale(0.09 -0.09)">
       <defs>
        <path id="Ubuntu-Bold-32" d="M 3174 3270 
Q 3174 3027 3078 2803 
Q 2982 2579 2828 2371 
Q 2675 2163 2483 1971 
Q 2291 1779 2106 1606 
Q 2010 1517 1898 1405 
Q 1786 1293 1683 1177 
Q 1581 1062 1501 963 
Q 1421 864 1402 800 
L 3309 800 
L 3309 0 
L 352 0 
Q 339 70 339 179 
Q 339 288 339 333 
Q 339 640 438 896 
Q 538 1152 698 1373 
Q 858 1594 1059 1786 
Q 1261 1978 1459 2170 
Q 1613 2317 1747 2448 
Q 1882 2579 1984 2704 
Q 2086 2829 2144 2953 
Q 2202 3078 2202 3206 
Q 2202 3488 2042 3603 
Q 1882 3718 1645 3718 
Q 1472 3718 1321 3664 
Q 1171 3610 1046 3536 
Q 922 3462 832 3388 
Q 742 3315 698 3270 
L 224 3936 
Q 506 4198 880 4368 
Q 1254 4538 1683 4538 
Q 2074 4538 2355 4448 
Q 2637 4358 2819 4195 
Q 3002 4032 3088 3798 
Q 3174 3565 3174 3270 
z
" transform="scale(0.015625)"/>
       </defs>
       <use xlink:href="#Ubuntu-Bold-46"/>
       <use xlink:href="#Ubuntu-Bold-6f" x="56.399994"/>
       <use xlink:href="#Ubuntu-Bold-6c" x="117.099991"/>
       <use xlink:href="#Ubuntu-Bold-64" x="148.699982"/>
       <use xlink:href="#Ubuntu-Bold-20" x="209.099976"/>
       <use xlink:href="#Ubuntu-Bold-32" x="233.09996"/>
      </g>
     </g>
    </g>
    <g id="ytick_7">
     <g id="text_7">
      <!-- Fold 1 -->
      <g style="fill: #505050" transform="translate(25.433438 40.659219) scale(0.09 -0.09)">
       <defs>
        <path id="Ubuntu-Bold-31" d="M 448 3514 
Q 634 3590 835 3689 
Q 1037 3789 1229 3907 
Q 1421 4026 1597 4157 
Q 1773 4288 1914 4435 
L 2579 4435 
L 2579 0 
L 1626 0 
L 1626 3194 
Q 1434 3066 1197 2960 
Q 960 2854 736 2778 
L 448 3514 
z
" transform="scale(0.015625)"/>
       </defs>
       <use xlink:href="#Ubuntu-Bold-46"/>
       <use xlink:href="#Ubuntu-Bold-6f" x="56.399994"/>
       <use xlink:href="#Ubuntu-Bold-6c" x="117.099991"/>
       <use xlink:href="#Ubuntu-Bold-64" x="148.699982"/>
       <use xlink:href="#Ubuntu-Bold-20" x="209.099976"/>
       <use xlink:href="#Ubuntu-Bold-31" x="233.09996"/>
      </g>
     </g>
    </g>
   </g>
   <g id="line2d_1"/>
   <g id="line2d_2">
    <path d="M 64.901471 37.1675 
L 66.717433 37.1675 
L 68.533396 37.1675 
L 70.349359 37.1675 
L 72.165322 37.1675 
L 73.981285 37.1675 
L 75.797248 37.1675 
L 77.613211 37.1675 
L 79.429174 37.1675 
L 81.245137 37.1675 
L 83.0611 37.1675 
L 84.877062 37.1675 
L 86.693025 37.1675 
L 88.508988 37.1675 
L 90.324951 37.1675 
L 92.140914 37.1675 
L 93.956877 37.1675 
L 95.77284 37.1675 
L 97.588803 37.1675 
L 99.404766 37.1675 
L 101.220729 37.1675 
L 103.036691 37.1675 
L 104.852654 37.1675 
L 106.668617 37.1675 
L 108.48458 37.1675 
L 110.300543 37.1675 
L 112.116506 37.1675 
L 113.932469 37.1675 
" clip-path="url(#p480391b89e)" style="fill: none; stroke: #5b5b5b; stroke-width: 15"/>
   </g>
   <g id="line2d_3">
    <path d="M 115.748432 37.1675 
L 117.564395 37.1675 
L 119.380358 37.1675 
L 121.19632 37.1675 
L 123.012283 37.1675 
L 124.828246 37.1675 
L 126.644209 37.1675 
L 128.460172 37.1675 
L 130.276135 37.1675 
L 132.092098 37.1675 
L 133.908061 37.1675 
L 135.724024 37.1675 
L 137.539987 37.1675 
L 139.355949 37.1675 
L 141.171912 37.1675 
L 142.987875 37.1675 
L 144.803838 37.1675 
L 146.619801 37.1675 
L 148.435764 37.1675 
L 150.251727 37.1675 
L 152.06769 37.1675 
L 153.883653 37.1675 
L 155.699616 37.1675 
L 157.515578 37.1675 
L 159.331541 37.1675 
L 161.147504 37.1675 
L 162.963467 37.1675 
L 164.77943 37.1675 
L 166.595393 37.1675 
L 168.411356 37.1675 
L 170.227319 37.1675 
" clip-path="url(#p480391b89e)" style="fill: none; stroke: #5a81a1; stroke-width: 15"/>
   </g>
   <g id="line2d_4">
    <path d="M 172.043282 37.1675 
L 502.548529 37.1675 
L 502.548529 37.1675 
" clip-path="url(#p480391b89e)" style="fill: none; stroke: #e4e4e4; stroke-width: 15"/>
   </g>
   <g id="line2d_5">
    <path d="M 64.901471 60.9275 
L 66.717433 60.9275 
L 68.533396 60.9275 
L 70.349359 60.9275 
L 72.165322 60.9275 
L 73.981285 60.9275 
L 75.797248 60.9275 
L 77.613211 60.9275 
L 79.429174 60.9275 
L 81.245137 60.9275 
L 83.0611 60.9275 
L 84.877062 60.9275 
L 86.693025 60.9275 
L 88.508988 60.9275 
L 90.324951 60.9275 
L 92.140914 60.9275 
L 93.956877 60.9275 
L 95.77284 60.9275 
L 97.588803 60.9275 
L 99.404766 60.9275 
L 101.220729 60.9275 
L 103.036691 60.9275 
L 104.852654 60.9275 
L 106.668617 60.9275 
L 108.48458 60.9275 
L 110.300543 60.9275 
L 112.116506 60.9275 
L 113.932469 60.9275 
" clip-path="url(#p480391b89e)" style="fill: none; stroke: #e4e4e4; stroke-width: 15"/>
   </g>
   <g id="line2d_6">
    <path d="M 115.748432 60.9275 
L 117.564395 60.9275 
L 119.380358 60.9275 
L 121.19632 60.9275 
L 123.012283 60.9275 
L 124.828246 60.9275 
L 126.644209 60.9275 
L 128.460172 60.9275 
L 130.276135 60.9275 
L 132.092098 60.9275 
L 133.908061 60.9275 
L 135.724024 60.9275 
L 137.539987 60.9275 
L 139.355949 60.9275 
L 141.171912 60.9275 
L 142.987875 60.9275 
L 144.803838 60.9275 
L 146.619801 60.9275 
L 148.435764 60.9275 
L 150.251727 60.9275 
L 152.06769 60.9275 
L 153.883653 60.9275 
L 155.699616 60.9275 
L 157.515578 60.9275 
L 159.331541 60.9275 
L 161.147504 60.9275 
L 162.963467 60.9275 
L 164.77943 60.9275 
L 166.595393 60.9275 
L 168.411356 60.9275 
L 170.227319 60.9275 
" clip-path="url(#p480391b89e)" style="fill: none; stroke: #5b5b5b; stroke-width: 15"/>
   </g>
   <g id="line2d_7">
    <path d="M 172.043282 60.9275 
L 173.859245 60.9275 
L 175.675207 60.9275 
L 177.49117 60.9275 
L 179.307133 60.9275 
L 181.123096 60.9275 
L 182.939059 60.9275 
L 184.755022 60.9275 
L 186.570985 60.9275 
L 188.386948 60.9275 
L 190.202911 60.9275 
L 192.018874 60.9275 
L 193.834836 60.9275 
L 195.650799 60.9275 
L 197.466762 60.9275 
L 199.282725 60.9275 
L 201.098688 60.9275 
L 202.914651 60.9275 
L 204.730614 60.9275 
L 206.546577 60.9275 
L 208.36254 60.9275 
L 210.178503 60.9275 
L 211.994465 60.9275 
L 213.810428 60.9275 
L 215.626391 60.9275 
L 217.442354 60.9275 
L 219.258317 60.9275 
L 221.07428 60.9275 
L 222.890243 60.9275 
L 224.706206 60.9275 
" clip-path="url(#p480391b89e)" style="fill: none; stroke: #5a81a1; stroke-width: 15"/>
   </g>
   <g id="line2d_8">
    <path d="M 226.522169 60.9275 
L 502.548529 60.9275 
L 502.548529 60.9275 
" clip-path="url(#p480391b89e)" style="fill: none; stroke: #e4e4e4; stroke-width: 15"/>
   </g>
   <g id="line2d_9">
    <path d="M 64.901471 84.6875 
L 66.717433 84.6875 
L 68.533396 84.6875 
L 70.349359 84.6875 
L 72.165322 84.6875 
L 73.981285 84.6875 
L 75.797248 84.6875 
L 77.613211 84.6875 
L 79.429174 84.6875 
L 81.245137 84.6875 
L 83.0611 84.6875 
L 84.877062 84.6875 
L 86.693025 84.6875 
L 88.508988 84.6875 
L 90.324951 84.6875 
L 92.140914 84.6875 
L 93.956877 84.6875 
L 95.77284 84.6875 
L 97.588803 84.6875 
L 99.404766 84.6875 
L 101.220729 84.6875 
L 103.036691 84.6875 
L 104.852654 84.6875 
L 106.668617 84.6875 
L 108.48458 84.6875 
L 110.300543 84.6875 
L 112.116506 84.6875 
L 113.932469 84.6875 
L 115.748432 84.6875 
L 117.564395 84.6875 
L 119.380358 84.6875 
L 121.19632 84.6875 
L 123.012283 84.6875 
L 124.828246 84.6875 
L 126.644209 84.6875 
L 128.460172 84.6875 
L 130.276135 84.6875 
L 132.092098 84.6875 
L 133.908061 84.6875 
L 135.724024 84.6875 
L 137.539987 84.6875 
L 139.355949 84.6875 
L 141.171912 84.6875 
L 142.987875 84.6875 
L 144.803838 84.6875 
L 146.619801 84.6875 
L 148.435764 84.6875 
L 150.251727 84.6875 
L 152.06769 84.6875 
L 153.883653 84.6875 
L 155.699616 84.6875 
L 157.515578 84.6875 
L 159.331541 84.6875 
L 161.147504 84.6875 
L 162.963467 84.6875 
L 164.77943 84.6875 
L 166.595393 84.6875 
L 168.411356 84.6875 
L 170.227319 84.6875 
" clip-path="url(#p480391b89e)" style="fill: none; stroke: #e4e4e4; stroke-width: 15"/>
   </g>
   <g id="line2d_10">
    <path d="M 172.043282 84.6875 
L 173.859245 84.6875 
L 175.675207 84.6875 
L 177.49117 84.6875 
L 179.307133 84.6875 
L 181.123096 84.6875 
L 182.939059 84.6875 
L 184.755022 84.6875 
L 186.570985 84.6875 
L 188.386948 84.6875 
L 190.202911 84.6875 
L 192.018874 84.6875 
L 193.834836 84.6875 
L 195.650799 84.6875 
L 197.466762 84.6875 
L 199.282725 84.6875 
L 201.098688 84.6875 
L 202.914651 84.6875 
L 204.730614 84.6875 
L 206.546577 84.6875 
L 208.36254 84.6875 
L 210.178503 84.6875 
L 211.994465 84.6875 
L 213.810428 84.6875 
L 215.626391 84.6875 
L 217.442354 84.6875 
L 219.258317 84.6875 
L 221.07428 84.6875 
L 222.890243 84.6875 
L 224.706206 84.6875 
" clip-path="url(#p480391b89e)" style="fill: none; stroke: #5b5b5b; stroke-width: 15"/>
   </g>
   <g id="line2d_11">
    <path d="M 226.522169 84.6875 
L 228.338132 84.6875 
L 230.154094 84.6875 
L 231.970057 84.6875 
L 233.78602 84.6875 
L 235.601983 84.6875 
L 237.417946 84.6875 
L 239.233909 84.6875 
L 241.049872 84.6875 
L 242.865835 84.6875 
L 244.681798 84.6875 
L 246.497761 84.6875 
L 248.313723 84.6875 
L 250.129686 84.6875 
L 251.945649 84.6875 
L 253.761612 84.6875 
L 255.577575 84.6875 
L 257.393538 84.6875 
L 259.209501 84.6875 
L 261.025464 84.6875 
L 262.841427 84.6875 
L 264.65739 84.6875 
L 266.473352 84.6875 
L 268.289315 84.6875 
L 270.105278 84.6875 
L 271.921241 84.6875 
L 273.737204 84.6875 
L 275.553167 84.6875 
L 277.36913 84.6875 
L 279.185093 84.6875 
L 281.001056 84.6875 
" clip-path="url(#p480391b89e)" style="fill: none; stroke: #5a81a1; stroke-width: 15"/>
   </g>
   <g id="line2d_12">
    <path d="M 282.817019 84.6875 
L 284.632981 84.6875 
L 286.448944 84.6875 
L 288.264907 84.6875 
L 290.08087 84.6875 
L 291.896833 84.6875 
L 293.712796 84.6875 
L 295.528759 84.6875 
L 297.344722 84.6875 
L 299.160685 84.6875 
L 300.976648 84.6875 
L 302.79261 84.6875 
L 304.608573 84.6875 
L 306.424536 84.6875 
L 308.240499 84.6875 
L 310.056462 84.6875 
L 311.872425 84.6875 
L 313.688388 84.6875 
L 315.504351 84.6875 
L 317.320314 84.6875 
L 319.136277 84.6875 
L 320.952239 84.6875 
L 322.768202 84.6875 
L 324.584165 84.6875 
L 326.400128 84.6875 
L 328.216091 84.6875 
L 330.032054 84.6875 
L 331.848017 84.6875 
L 333.66398 84.6875 
L 335.479943 84.6875 
L 337.295906 84.6875 
L 339.111868 84.6875 
L 340.927831 84.6875 
L 342.743794 84.6875 
L 344.559757 84.6875 
L 346.37572 84.6875 
L 348.191683 84.6875 
L 350.007646 84.6875 
L 351.823609 84.6875 
L 353.639572 84.6875 
L 355.455535 84.6875 
L 357.271497 84.6875 
L 359.08746 84.6875 
L 360.903423 84.6875 
L 362.719386 84.6875 
L 364.535349 84.6875 
L 366.351312 84.6875 
L 368.167275 84.6875 
L 369.983238 84.6875 
L 371.799201 84.6875 
L 373.615164 84.6875 
L 375.431126 84.6875 
L 377.247089 84.6875 
L 379.063052 84.6875 
L 380.879015 84.6875 
L 382.694978 84.6875 
L 384.510941 84.6875 
L 386.326904 84.6875 
L 388.142867 84.6875 
L 389.95883 84.6875 
L 391.774793 84.6875 
L 393.590755 84.6875 
L 395.406718 84.6875 
L 397.222681 84.6875 
L 399.038644 84.6875 
L 400.854607 84.6875 
L 402.67057 84.6875 
L 404.486533 84.6875 
L 406.302496 84.6875 
L 408.118459 84.6875 
L 409.934422 84.6875 
L 411.750384 84.6875 
L 413.566347 84.6875 
L 415.38231 84.6875 
L 417.198273 84.6875 
L 419.014236 84.6875 
L 420.830199 84.6875 
L 422.646162 84.6875 
L 424.462125 84.6875 
L 426.278088 84.6875 
L 428.094051 84.6875 
L 429.910013 84.6875 
L 431.725976 84.6875 
L 433.541939 84.6875 
L 435.357902 84.6875 
L 437.173865 84.6875 
L 438.989828 84.6875 
L 440.805791 84.6875 
L 442.621754 84.6875 
L 444.437717 84.6875 
L 446.25368 84.6875 
L 448.069642 84.6875 
L 449.885605 84.6875 
L 451.701568 84.6875 
L 453.517531 84.6875 
L 455.333494 84.6875 
L 457.149457 84.6875 
L 458.96542 84.6875 
L 460.781383 84.6875 
L 462.597346 84.6875 
L 464.413309 84.6875 
L 466.229271 84.6875 
L 468.045234 84.6875 
L 469.861197 84.6875 
L 471.67716 84.6875 
L 473.493123 84.6875 
L 475.309086 84.6875 
L 477.125049 84.6875 
L 478.941012 84.6875 
L 480.756975 84.6875 
L 482.572938 84.6875 
L 484.3889 84.6875 
L 486.204863 84.6875 
L 488.020826 84.6875 
L 489.836789 84.6875 
L 491.652752 84.6875 
L 493.468715 84.6875 
L 495.284678 84.6875 
L 497.100641 84.6875 
L 498.916604 84.6875 
L 500.732567 84.6875 
L 502.548529 84.6875 
" clip-path="url(#p480391b89e)" style="fill: none; stroke: #e4e4e4; stroke-width: 15"/>
   </g>
   <g id="line2d_13">
    <path d="M 64.901471 108.4475 
L 66.717433 108.4475 
L 68.533396 108.4475 
L 70.349359 108.4475 
L 72.165322 108.4475 
L 73.981285 108.4475 
L 75.797248 108.4475 
L 77.613211 108.4475 
L 79.429174 108.4475 
L 81.245137 108.4475 
L 83.0611 108.4475 
L 84.877062 108.4475 
L 86.693025 108.4475 
L 88.508988 108.4475 
L 90.324951 108.4475 
L 92.140914 108.4475 
L 93.956877 108.4475 
L 95.77284 108.4475 
L 97.588803 108.4475 
L 99.404766 108.4475 
L 101.220729 108.4475 
L 103.036691 108.4475 
L 104.852654 108.4475 
L 106.668617 108.4475 
L 108.48458 108.4475 
L 110.300543 108.4475 
L 112.116506 108.4475 
L 113.932469 108.4475 
L 115.748432 108.4475 
L 117.564395 108.4475 
L 119.380358 108.4475 
L 121.19632 108.4475 
L 123.012283 108.4475 
L 124.828246 108.4475 
L 126.644209 108.4475 
L 128.460172 108.4475 
L 130.276135 108.4475 
L 132.092098 108.4475 
L 133.908061 108.4475 
L 135.724024 108.4475 
L 137.539987 108.4475 
L 139.355949 108.4475 
L 141.171912 108.4475 
L 142.987875 108.4475 
L 144.803838 108.4475 
L 146.619801 108.4475 
L 148.435764 108.4475 
L 150.251727 108.4475 
L 152.06769 108.4475 
L 153.883653 108.4475 
L 155.699616 108.4475 
L 157.515578 108.4475 
L 159.331541 108.4475 
L 161.147504 108.4475 
L 162.963467 108.4475 
L 164.77943 108.4475 
L 166.595393 108.4475 
L 168.411356 108.4475 
L 170.227319 108.4475 
L 172.043282 108.4475 
L 173.859245 108.4475 
L 175.675207 108.4475 
L 177.49117 108.4475 
L 179.307133 108.4475 
L 181.123096 108.4475 
L 182.939059 108.4475 
L 184.755022 108.4475 
L 186.570985 108.4475 
L 188.386948 108.4475 
L 190.202911 108.4475 
L 192.018874 108.4475 
L 193.834836 108.4475 
L 195.650799 108.4475 
L 197.466762 108.4475 
L 199.282725 108.4475 
L 201.098688 108.4475 
L 202.914651 108.4475 
L 204.730614 108.4475 
L 206.546577 108.4475 
L 208.36254 108.4475 
L 210.178503 108.4475 
L 211.994465 108.4475 
L 213.810428 108.4475 
L 215.626391 108.4475 
L 217.442354 108.4475 
L 219.258317 108.4475 
L 221.07428 108.4475 
L 222.890243 108.4475 
L 224.706206 108.4475 
" clip-path="url(#p480391b89e)" style="fill: none; stroke: #e4e4e4; stroke-width: 15"/>
   </g>
   <g id="line2d_14">
    <path d="M 226.522169 108.4475 
L 228.338132 108.4475 
L 230.154094 108.4475 
L 231.970057 108.4475 
L 233.78602 108.4475 
L 235.601983 108.4475 
L 237.417946 108.4475 
L 239.233909 108.4475 
L 241.049872 108.4475 
L 242.865835 108.4475 
L 244.681798 108.4475 
L 246.497761 108.4475 
L 248.313723 108.4475 
L 250.129686 108.4475 
L 251.945649 108.4475 
L 253.761612 108.4475 
L 255.577575 108.4475 
L 257.393538 108.4475 
L 259.209501 108.4475 
L 261.025464 108.4475 
L 262.841427 108.4475 
L 264.65739 108.4475 
L 266.473352 108.4475 
L 268.289315 108.4475 
L 270.105278 108.4475 
L 271.921241 108.4475 
L 273.737204 108.4475 
L 275.553167 108.4475 
L 277.36913 108.4475 
L 279.185093 108.4475 
L 281.001056 108.4475 
" clip-path="url(#p480391b89e)" style="fill: none; stroke: #5b5b5b; stroke-width: 15"/>
   </g>
   <g id="line2d_15">
    <path d="M 282.817019 108.4475 
L 284.632981 108.4475 
L 286.448944 108.4475 
L 288.264907 108.4475 
L 290.08087 108.4475 
L 291.896833 108.4475 
L 293.712796 108.4475 
L 295.528759 108.4475 
L 297.344722 108.4475 
L 299.160685 108.4475 
L 300.976648 108.4475 
L 302.79261 108.4475 
L 304.608573 108.4475 
L 306.424536 108.4475 
L 308.240499 108.4475 
L 310.056462 108.4475 
L 311.872425 108.4475 
L 313.688388 108.4475 
L 315.504351 108.4475 
L 317.320314 108.4475 
L 319.136277 108.4475 
L 320.952239 108.4475 
L 322.768202 108.4475 
L 324.584165 108.4475 
L 326.400128 108.4475 
L 328.216091 108.4475 
L 330.032054 108.4475 
L 331.848017 108.4475 
L 333.66398 108.4475 
L 335.479943 108.4475 
" clip-path="url(#p480391b89e)" style="fill: none; stroke: #5a81a1; stroke-width: 15"/>
   </g>
   <g id="line2d_16">
    <path d="M 337.295906 108.4475 
L 339.111868 108.4475 
L 340.927831 108.4475 
L 342.743794 108.4475 
L 344.559757 108.4475 
L 346.37572 108.4475 
L 348.191683 108.4475 
L 350.007646 108.4475 
L 351.823609 108.4475 
L 353.639572 108.4475 
L 355.455535 108.4475 
L 357.271497 108.4475 
L 359.08746 108.4475 
L 360.903423 108.4475 
L 362.719386 108.4475 
L 364.535349 108.4475 
L 366.351312 108.4475 
L 368.167275 108.4475 
L 369.983238 108.4475 
L 371.799201 108.4475 
L 373.615164 108.4475 
L 375.431126 108.4475 
L 377.247089 108.4475 
L 379.063052 108.4475 
L 380.879015 108.4475 
L 382.694978 108.4475 
L 384.510941 108.4475 
L 386.326904 108.4475 
L 388.142867 108.4475 
L 389.95883 108.4475 
L 391.774793 108.4475 
L 393.590755 108.4475 
L 395.406718 108.4475 
L 397.222681 108.4475 
L 399.038644 108.4475 
L 400.854607 108.4475 
L 402.67057 108.4475 
L 404.486533 108.4475 
L 406.302496 108.4475 
L 408.118459 108.4475 
L 409.934422 108.4475 
L 411.750384 108.4475 
L 413.566347 108.4475 
L 415.38231 108.4475 
L 417.198273 108.4475 
L 419.014236 108.4475 
L 420.830199 108.4475 
L 422.646162 108.4475 
L 424.462125 108.4475 
L 426.278088 108.4475 
L 428.094051 108.4475 
L 429.910013 108.4475 
L 431.725976 108.4475 
L 433.541939 108.4475 
L 435.357902 108.4475 
L 437.173865 108.4475 
L 438.989828 108.4475 
L 440.805791 108.4475 
L 442.621754 108.4475 
L 444.437717 108.4475 
L 446.25368 108.4475 
L 448.069642 108.4475 
L 449.885605 108.4475 
L 451.701568 108.4475 
L 453.517531 108.4475 
L 455.333494 108.4475 
L 457.149457 108.4475 
L 458.96542 108.4475 
L 460.781383 108.4475 
L 462.597346 108.4475 
L 464.413309 108.4475 
L 466.229271 108.4475 
L 468.045234 108.4475 
L 469.861197 108.4475 
L 471.67716 108.4475 
L 473.493123 108.4475 
L 475.309086 108.4475 
L 477.125049 108.4475 
L 478.941012 108.4475 
L 480.756975 108.4475 
L 482.572938 108.4475 
L 484.3889 108.4475 
L 486.204863 108.4475 
L 488.020826 108.4475 
L 489.836789 108.4475 
L 491.652752 108.4475 
L 493.468715 108.4475 
L 495.284678 108.4475 
L 497.100641 108.4475 
L 498.916604 108.4475 
L 500.732567 108.4475 
L 502.548529 108.4475 
" clip-path="url(#p480391b89e)" style="fill: none; stroke: #e4e4e4; stroke-width: 15"/>
   </g>
   <g id="line2d_17">
    <path d="M 64.901471 132.2075 
L 66.717433 132.2075 
L 68.533396 132.2075 
L 70.349359 132.2075 
L 72.165322 132.2075 
L 73.981285 132.2075 
L 75.797248 132.2075 
L 77.613211 132.2075 
L 79.429174 132.2075 
L 81.245137 132.2075 
L 83.0611 132.2075 
L 84.877062 132.2075 
L 86.693025 132.2075 
L 88.508988 132.2075 
L 90.324951 132.2075 
L 92.140914 132.2075 
L 93.956877 132.2075 
L 95.77284 132.2075 
L 97.588803 132.2075 
L 99.404766 132.2075 
L 101.220729 132.2075 
L 103.036691 132.2075 
L 104.852654 132.2075 
L 106.668617 132.2075 
L 108.48458 132.2075 
L 110.300543 132.2075 
L 112.116506 132.2075 
L 113.932469 132.2075 
L 115.748432 132.2075 
L 117.564395 132.2075 
L 119.380358 132.2075 
L 121.19632 132.2075 
L 123.012283 132.2075 
L 124.828246 132.2075 
L 126.644209 132.2075 
L 128.460172 132.2075 
L 130.276135 132.2075 
L 132.092098 132.2075 
L 133.908061 132.2075 
L 135.724024 132.2075 
L 137.539987 132.2075 
L 139.355949 132.2075 
L 141.171912 132.2075 
L 142.987875 132.2075 
L 144.803838 132.2075 
L 146.619801 132.2075 
L 148.435764 132.2075 
L 150.251727 132.2075 
L 152.06769 132.2075 
L 153.883653 132.2075 
L 155.699616 132.2075 
L 157.515578 132.2075 
L 159.331541 132.2075 
L 161.147504 132.2075 
L 162.963467 132.2075 
L 164.77943 132.2075 
L 166.595393 132.2075 
L 168.411356 132.2075 
L 170.227319 132.2075 
L 172.043282 132.2075 
L 173.859245 132.2075 
L 175.675207 132.2075 
L 177.49117 132.2075 
L 179.307133 132.2075 
L 181.123096 132.2075 
L 182.939059 132.2075 
L 184.755022 132.2075 
L 186.570985 132.2075 
L 188.386948 132.2075 
L 190.202911 132.2075 
L 192.018874 132.2075 
L 193.834836 132.2075 
L 195.650799 132.2075 
L 197.466762 132.2075 
L 199.282725 132.2075 
L 201.098688 132.2075 
L 202.914651 132.2075 
L 204.730614 132.2075 
L 206.546577 132.2075 
L 208.36254 132.2075 
L 210.178503 132.2075 
L 211.994465 132.2075 
L 213.810428 132.2075 
L 215.626391 132.2075 
L 217.442354 132.2075 
L 219.258317 132.2075 
L 221.07428 132.2075 
L 222.890243 132.2075 
L 224.706206 132.2075 
L 226.522169 132.2075 
L 228.338132 132.2075 
L 230.154094 132.2075 
L 231.970057 132.2075 
L 233.78602 132.2075 
L 235.601983 132.2075 
L 237.417946 132.2075 
L 239.233909 132.2075 
L 241.049872 132.2075 
L 242.865835 132.2075 
L 244.681798 132.2075 
L 246.497761 132.2075 
L 248.313723 132.2075 
L 250.129686 132.2075 
L 251.945649 132.2075 
L 253.761612 132.2075 
L 255.577575 132.2075 
L 257.393538 132.2075 
L 259.209501 132.2075 
L 261.025464 132.2075 
L 262.841427 132.2075 
L 264.65739 132.2075 
L 266.473352 132.2075 
L 268.289315 132.2075 
L 270.105278 132.2075 
L 271.921241 132.2075 
L 273.737204 132.2075 
L 275.553167 132.2075 
L 277.36913 132.2075 
L 279.185093 132.2075 
L 281.001056 132.2075 
" clip-path="url(#p480391b89e)" style="fill: none; stroke: #e4e4e4; stroke-width: 15"/>
   </g>
   <g id="line2d_18">
    <path d="M 282.817019 132.2075 
L 284.632981 132.2075 
L 286.448944 132.2075 
L 288.264907 132.2075 
L 290.08087 132.2075 
L 291.896833 132.2075 
L 293.712796 132.2075 
L 295.528759 132.2075 
L 297.344722 132.2075 
L 299.160685 132.2075 
L 300.976648 132.2075 
L 302.79261 132.2075 
L 304.608573 132.2075 
L 306.424536 132.2075 
L 308.240499 132.2075 
L 310.056462 132.2075 
L 311.872425 132.2075 
L 313.688388 132.2075 
L 315.504351 132.2075 
L 317.320314 132.2075 
L 319.136277 132.2075 
L 320.952239 132.2075 
L 322.768202 132.2075 
L 324.584165 132.2075 
L 326.400128 132.2075 
L 328.216091 132.2075 
L 330.032054 132.2075 
L 331.848017 132.2075 
L 333.66398 132.2075 
L 335.479943 132.2075 
" clip-path="url(#p480391b89e)" style="fill: none; stroke: #5b5b5b; stroke-width: 15"/>
   </g>
   <g id="line2d_19">
    <path d="M 337.295906 132.2075 
L 339.111868 132.2075 
L 340.927831 132.2075 
L 342.743794 132.2075 
L 344.559757 132.2075 
L 346.37572 132.2075 
L 348.191683 132.2075 
L 350.007646 132.2075 
L 351.823609 132.2075 
L 353.639572 132.2075 
L 355.455535 132.2075 
L 357.271497 132.2075 
L 359.08746 132.2075 
L 360.903423 132.2075 
L 362.719386 132.2075 
L 364.535349 132.2075 
L 366.351312 132.2075 
L 368.167275 132.2075 
L 369.983238 132.2075 
L 371.799201 132.2075 
L 373.615164 132.2075 
L 375.431126 132.2075 
L 377.247089 132.2075 
L 379.063052 132.2075 
L 380.879015 132.2075 
L 382.694978 132.2075 
L 384.510941 132.2075 
L 386.326904 132.2075 
L 388.142867 132.2075 
L 389.95883 132.2075 
L 391.774793 132.2075 
" clip-path="url(#p480391b89e)" style="fill: none; stroke: #5a81a1; stroke-width: 15"/>
   </g>
   <g id="line2d_20">
    <path d="M 393.590755 132.2075 
L 395.406718 132.2075 
L 397.222681 132.2075 
L 399.038644 132.2075 
L 400.854607 132.2075 
L 402.67057 132.2075 
L 404.486533 132.2075 
L 406.302496 132.2075 
L 408.118459 132.2075 
L 409.934422 132.2075 
L 411.750384 132.2075 
L 413.566347 132.2075 
L 415.38231 132.2075 
L 417.198273 132.2075 
L 419.014236 132.2075 
L 420.830199 132.2075 
L 422.646162 132.2075 
L 424.462125 132.2075 
L 426.278088 132.2075 
L 428.094051 132.2075 
L 429.910013 132.2075 
L 431.725976 132.2075 
L 433.541939 132.2075 
L 435.357902 132.2075 
L 437.173865 132.2075 
L 438.989828 132.2075 
L 440.805791 132.2075 
L 442.621754 132.2075 
L 444.437717 132.2075 
L 446.25368 132.2075 
L 448.069642 132.2075 
L 449.885605 132.2075 
L 451.701568 132.2075 
L 453.517531 132.2075 
L 455.333494 132.2075 
L 457.149457 132.2075 
L 458.96542 132.2075 
L 460.781383 132.2075 
L 462.597346 132.2075 
L 464.413309 132.2075 
L 466.229271 132.2075 
L 468.045234 132.2075 
L 469.861197 132.2075 
L 471.67716 132.2075 
L 473.493123 132.2075 
L 475.309086 132.2075 
L 477.125049 132.2075 
L 478.941012 132.2075 
L 480.756975 132.2075 
L 482.572938 132.2075 
L 484.3889 132.2075 
L 486.204863 132.2075 
L 488.020826 132.2075 
L 489.836789 132.2075 
L 491.652752 132.2075 
L 493.468715 132.2075 
L 495.284678 132.2075 
L 497.100641 132.2075 
L 498.916604 132.2075 
L 500.732567 132.2075 
L 502.548529 132.2075 
" clip-path="url(#p480391b89e)" style="fill: none; stroke: #e4e4e4; stroke-width: 15"/>
   </g>
   <g id="line2d_21">
    <path d="M 64.901471 155.9675 
L 335.479943 155.9675 
L 335.479943 155.9675 
" clip-path="url(#p480391b89e)" style="fill: none; stroke: #e4e4e4; stroke-width: 15"/>
   </g>
   <g id="line2d_22">
    <path d="M 337.295906 155.9675 
L 339.111868 155.9675 
L 340.927831 155.9675 
L 342.743794 155.9675 
L 344.559757 155.9675 
L 346.37572 155.9675 
L 348.191683 155.9675 
L 350.007646 155.9675 
L 351.823609 155.9675 
L 353.639572 155.9675 
L 355.455535 155.9675 
L 357.271497 155.9675 
L 359.08746 155.9675 
L 360.903423 155.9675 
L 362.719386 155.9675 
L 364.535349 155.9675 
L 366.351312 155.9675 
L 368.167275 155.9675 
L 369.983238 155.9675 
L 371.799201 155.9675 
L 373.615164 155.9675 
L 375.431126 155.9675 
L 377.247089 155.9675 
L 379.063052 155.9675 
L 380.879015 155.9675 
L 382.694978 155.9675 
L 384.510941 155.9675 
L 386.326904 155.9675 
L 388.142867 155.9675 
L 389.95883 155.9675 
L 391.774793 155.9675 
" clip-path="url(#p480391b89e)" style="fill: none; stroke: #5b5b5b; stroke-width: 15"/>
   </g>
   <g id="line2d_23">
    <path d="M 393.590755 155.9675 
L 395.406718 155.9675 
L 397.222681 155.9675 
L 399.038644 155.9675 
L 400.854607 155.9675 
L 402.67057 155.9675 
L 404.486533 155.9675 
L 406.302496 155.9675 
L 408.118459 155.9675 
L 409.934422 155.9675 
L 411.750384 155.9675 
L 413.566347 155.9675 
L 415.38231 155.9675 
L 417.198273 155.9675 
L 419.014236 155.9675 
L 420.830199 155.9675 
L 422.646162 155.9675 
L 424.462125 155.9675 
L 426.278088 155.9675 
L 428.094051 155.9675 
L 429.910013 155.9675 
L 431.725976 155.9675 
L 433.541939 155.9675 
L 435.357902 155.9675 
L 437.173865 155.9675 
L 438.989828 155.9675 
L 440.805791 155.9675 
L 442.621754 155.9675 
L 444.437717 155.9675 
L 446.25368 155.9675 
L 448.069642 155.9675 
" clip-path="url(#p480391b89e)" style="fill: none; stroke: #4e9a73; stroke-width: 15"/>
   </g>
   <g id="line2d_24">
    <path d="M 449.885605 155.9675 
L 451.701568 155.9675 
L 453.517531 155.9675 
L 455.333494 155.9675 
L 457.149457 155.9675 
L 458.96542 155.9675 
L 460.781383 155.9675 
L 462.597346 155.9675 
L 464.413309 155.9675 
L 466.229271 155.9675 
L 468.045234 155.9675 
L 469.861197 155.9675 
L 471.67716 155.9675 
L 473.493123 155.9675 
L 475.309086 155.9675 
L 477.125049 155.9675 
L 478.941012 155.9675 
L 480.756975 155.9675 
L 482.572938 155.9675 
L 484.3889 155.9675 
L 486.204863 155.9675 
L 488.020826 155.9675 
L 489.836789 155.9675 
L 491.652752 155.9675 
L 493.468715 155.9675 
L 495.284678 155.9675 
L 497.100641 155.9675 
L 498.916604 155.9675 
L 500.732567 155.9675 
L 502.548529 155.9675 
" clip-path="url(#p480391b89e)" style="fill: none; stroke: #e4e4e4; stroke-width: 15"/>
   </g>
   <g id="line2d_25">
    <path d="M 64.901471 179.7275 
L 391.774793 179.7275 
L 391.774793 179.7275 
" clip-path="url(#p480391b89e)" style="fill: none; stroke: #e4e4e4; stroke-width: 15"/>
   </g>
   <g id="line2d_26">
    <path d="M 393.590755 179.7275 
L 395.406718 179.7275 
L 397.222681 179.7275 
L 399.038644 179.7275 
L 400.854607 179.7275 
L 402.67057 179.7275 
L 404.486533 179.7275 
L 406.302496 179.7275 
L 408.118459 179.7275 
L 409.934422 179.7275 
L 411.750384 179.7275 
L 413.566347 179.7275 
L 415.38231 179.7275 
L 417.198273 179.7275 
L 419.014236 179.7275 
L 420.830199 179.7275 
L 422.646162 179.7275 
L 424.462125 179.7275 
L 426.278088 179.7275 
L 428.094051 179.7275 
L 429.910013 179.7275 
L 431.725976 179.7275 
L 433.541939 179.7275 
L 435.357902 179.7275 
L 437.173865 179.7275 
L 438.989828 179.7275 
L 440.805791 179.7275 
L 442.621754 179.7275 
L 444.437717 179.7275 
L 446.25368 179.7275 
L 448.069642 179.7275 
" clip-path="url(#p480391b89e)" style="fill: none; stroke: #5b5b5b; stroke-width: 15"/>
   </g>
   <g id="line2d_27">
    <path d="M 449.885605 179.7275 
L 451.701568 179.7275 
L 453.517531 179.7275 
L 455.333494 179.7275 
L 457.149457 179.7275 
L 458.96542 179.7275 
L 460.781383 179.7275 
L 462.597346 179.7275 
L 464.413309 179.7275 
L 466.229271 179.7275 
L 468.045234 179.7275 
L 469.861197 179.7275 
L 471.67716 179.7275 
L 473.493123 179.7275 
L 475.309086 179.7275 
L 477.125049 179.7275 
L 478.941012 179.7275 
L 480.756975 179.7275 
L 482.572938 179.7275 
L 484.3889 179.7275 
L 486.204863 179.7275 
L 488.020826 179.7275 
L 489.836789 179.7275 
L 491.652752 179.7275 
L 493.468715 179.7275 
L 495.284678 179.7275 
L 497.100641 179.7275 
L 498.916604 179.7275 
L 500.732567 179.7275 
L 502.548529 179.7275 
" clip-path="url(#p480391b89e)" style="fill: none; stroke: #b45f58; stroke-width: 15"/>
   </g>
   <g id="line2d_28"/>
   <g id="text_8">
    <!-- Feb -->
    <g style="fill: #ffffff" transform="translate(81.500238 40.7315) scale(0.08 -0.08)">
     <defs>
      <path id="Ubuntu-Bold-62" d="M 2605 1709 
Q 2605 2630 1926 2630 
Q 1779 2630 1635 2592 
Q 1491 2554 1402 2496 
L 1402 762 
Q 1472 749 1581 739 
Q 1690 730 1818 730 
Q 2208 730 2406 998 
Q 2605 1267 2605 1709 
z
M 3578 1683 
Q 3578 1280 3459 953 
Q 3341 627 3117 396 
Q 2893 166 2566 41 
Q 2240 -83 1824 -83 
Q 1651 -83 1462 -67 
Q 1274 -51 1091 -25 
Q 909 0 742 35 
Q 576 70 448 109 
L 448 4813 
L 1402 4966 
L 1402 3290 
Q 1562 3360 1734 3398 
Q 1907 3437 2106 3437 
Q 2464 3437 2739 3312 
Q 3014 3187 3200 2956 
Q 3386 2726 3482 2403 
Q 3578 2080 3578 1683 
z
" transform="scale(0.015625)"/>
     </defs>
     <use xlink:href="#Ubuntu-Bold-46"/>
     <use xlink:href="#Ubuntu-Bold-65" x="56.399994"/>
     <use xlink:href="#Ubuntu-Bold-62" x="114.799988"/>
    </g>
   </g>
   <g id="text_9">
    <!-- Mar -->
    <g style="fill: #ffffff" transform="translate(133.683787 40.7315) scale(0.08 -0.08)">
     <defs>
      <path id="Ubuntu-Bold-4d" d="M 1690 4435 
Q 1805 4224 1955 3913 
Q 2106 3603 2269 3241 
Q 2432 2880 2592 2502 
Q 2752 2125 2893 1792 
Q 3034 2125 3194 2502 
Q 3354 2880 3517 3241 
Q 3680 3603 3830 3913 
Q 3981 4224 4096 4435 
L 5005 4435 
Q 5069 3994 5123 3446 
Q 5178 2899 5219 2307 
Q 5261 1715 5296 1120 
Q 5331 525 5357 0 
L 4384 0 
Q 4365 646 4333 1408 
Q 4301 2170 4237 2944 
Q 4122 2675 3981 2348 
Q 3840 2022 3702 1696 
Q 3565 1370 3437 1072 
Q 3309 774 3219 563 
L 2522 563 
Q 2432 774 2304 1072 
Q 2176 1370 2038 1696 
Q 1901 2022 1760 2348 
Q 1619 2675 1504 2944 
Q 1440 2170 1408 1408 
Q 1376 646 1357 0 
L 384 0 
Q 410 525 445 1120 
Q 480 1715 521 2307 
Q 563 2899 617 3446 
Q 672 3994 736 4435 
L 1690 4435 
z
" transform="scale(0.015625)"/>
      <path id="Ubuntu-Bold-72" d="M 2477 2522 
Q 2349 2554 2176 2589 
Q 2003 2624 1805 2624 
Q 1715 2624 1590 2608 
Q 1466 2592 1402 2573 
L 1402 0 
L 448 0 
L 448 3187 
Q 704 3277 1053 3357 
Q 1402 3437 1830 3437 
Q 1907 3437 2016 3427 
Q 2125 3418 2233 3402 
Q 2342 3386 2451 3363 
Q 2560 3341 2637 3309 
L 2477 2522 
z
" transform="scale(0.015625)"/>
     </defs>
     <use xlink:href="#Ubuntu-Bold-4d"/>
     <use xlink:href="#Ubuntu-Bold-61" x="89.699982"/>
     <use xlink:href="#Ubuntu-Bold-72" x="144.999969"/>
    </g>
   </g>
   <g id="text_10">
    <!-- Mar -->
    <g style="fill: #ffffff" transform="translate(133.683787 64.4915) scale(0.08 -0.08)">
     <use xlink:href="#Ubuntu-Bold-4d"/>
     <use xlink:href="#Ubuntu-Bold-61" x="89.699982"/>
     <use xlink:href="#Ubuntu-Bold-72" x="144.999969"/>
    </g>
   </g>
   <g id="text_11">
    <!-- Apr -->
    <g style="fill: #ffffff" transform="translate(188.662674 64.4915) scale(0.08 -0.08)">
     <defs>
      <path id="Ubuntu-Bold-41" d="M 3482 0 
Q 3411 230 3324 473 
Q 3238 717 3155 960 
L 1427 960 
Q 1344 717 1257 473 
Q 1171 230 1101 0 
L 64 0 
Q 314 717 538 1325 
Q 762 1933 976 2470 
Q 1190 3008 1398 3491 
Q 1606 3974 1830 4435 
L 2784 4435 
Q 3002 3974 3213 3491 
Q 3424 3008 3638 2470 
Q 3853 1933 4077 1325 
Q 4301 717 4550 0 
L 3482 0 
z
M 2285 3430 
Q 2253 3334 2189 3168 
Q 2125 3002 2041 2784 
Q 1958 2566 1859 2304 
Q 1760 2042 1658 1754 
L 2918 1754 
Q 2816 2042 2720 2304 
Q 2624 2566 2537 2784 
Q 2451 3002 2387 3168 
Q 2323 3334 2285 3430 
z
" transform="scale(0.015625)"/>
      <path id="Ubuntu-Bold-70" d="M 2605 1658 
Q 2605 2099 2406 2364 
Q 2208 2630 1818 2630 
Q 1690 2630 1581 2620 
Q 1472 2611 1402 2598 
L 1402 877 
Q 1491 819 1635 780 
Q 1779 742 1926 742 
Q 2605 742 2605 1658 
z
M 3578 1683 
Q 3578 1293 3482 973 
Q 3386 653 3200 422 
Q 3014 192 2739 64 
Q 2464 -64 2106 -64 
Q 1907 -64 1734 -25 
Q 1562 13 1402 83 
L 1402 -1184 
L 448 -1184 
L 448 3251 
Q 576 3290 742 3325 
Q 909 3360 1091 3385 
Q 1274 3411 1462 3427 
Q 1651 3443 1824 3443 
Q 2240 3443 2566 3318 
Q 2893 3194 3117 2966 
Q 3341 2739 3459 2412 
Q 3578 2086 3578 1683 
z
" transform="scale(0.015625)"/>
     </defs>
     <use xlink:href="#Ubuntu-Bold-41"/>
     <use xlink:href="#Ubuntu-Bold-70" x="72.099991"/>
     <use xlink:href="#Ubuntu-Bold-72" x="132.499985"/>
    </g>
   </g>
   <g id="text_12">
    <!-- Apr -->
    <g style="fill: #ffffff" transform="translate(188.662674 88.2515) scale(0.08 -0.08)">
     <use xlink:href="#Ubuntu-Bold-41"/>
     <use xlink:href="#Ubuntu-Bold-70" x="72.099991"/>
     <use xlink:href="#Ubuntu-Bold-72" x="132.499985"/>
    </g>
   </g>
   <g id="text_13">
    <!-- May -->
    <g style="fill: #ffffff" transform="translate(244.007524 88.2515) scale(0.08 -0.08)">
     <defs>
      <path id="Ubuntu-Bold-79" d="M 3437 3366 
Q 3149 2394 2835 1542 
Q 2522 691 2150 -109 
Q 2016 -397 1881 -598 
Q 1747 -800 1587 -931 
Q 1427 -1062 1225 -1123 
Q 1024 -1184 755 -1184 
Q 531 -1184 342 -1142 
Q 154 -1101 32 -1050 
L 198 -288 
Q 346 -339 461 -358 
Q 576 -378 704 -378 
Q 960 -378 1097 -240 
Q 1235 -102 1331 141 
Q 1005 781 678 1577 
Q 352 2374 64 3366 
L 1075 3366 
Q 1139 3117 1225 2825 
Q 1312 2534 1408 2236 
Q 1504 1939 1603 1657 
Q 1702 1376 1792 1146 
Q 1875 1376 1964 1657 
Q 2054 1939 2140 2236 
Q 2227 2534 2307 2825 
Q 2387 3117 2451 3366 
L 3437 3366 
z
" transform="scale(0.015625)"/>
     </defs>
     <use xlink:href="#Ubuntu-Bold-4d"/>
     <use xlink:href="#Ubuntu-Bold-61" x="89.699982"/>
     <use xlink:href="#Ubuntu-Bold-79" x="143.749969"/>
    </g>
   </g>
   <g id="text_14">
    <!-- May -->
    <g style="fill: #ffffff" transform="translate(244.007524 112.0115) scale(0.08 -0.08)">
     <use xlink:href="#Ubuntu-Bold-4d"/>
     <use xlink:href="#Ubuntu-Bold-61" x="89.699982"/>
     <use xlink:href="#Ubuntu-Bold-79" x="143.749969"/>
    </g>
   </g>
   <g id="text_15">
    <!-- Jun -->
    <g style="fill: #ffffff" transform="translate(299.595786 112.0115) scale(0.08 -0.08)">
     <defs>
      <path id="Ubuntu-Bold-4a" d="M 2938 1491 
Q 2938 1165 2864 877 
Q 2790 589 2608 374 
Q 2426 160 2115 35 
Q 1805 -90 1331 -90 
Q 896 -90 582 16 
Q 269 122 64 262 
L 397 1037 
Q 582 928 793 845 
Q 1005 762 1254 762 
Q 1619 762 1779 941 
Q 1939 1120 1939 1542 
L 1939 4435 
L 2938 4435 
L 2938 1491 
z
" transform="scale(0.015625)"/>
      <path id="Ubuntu-Bold-75" d="M 3322 115 
Q 3078 45 2694 -16 
Q 2310 -77 1888 -77 
Q 1459 -77 1174 38 
Q 890 154 723 362 
Q 557 570 486 858 
Q 416 1146 416 1491 
L 416 3366 
L 1370 3366 
L 1370 1606 
Q 1370 1146 1491 941 
Q 1613 736 1946 736 
Q 2048 736 2163 745 
Q 2278 755 2368 768 
L 2368 3366 
L 3322 3366 
L 3322 115 
z
" transform="scale(0.015625)"/>
     </defs>
     <use xlink:href="#Ubuntu-Bold-4a"/>
     <use xlink:href="#Ubuntu-Bold-75" x="52.899994"/>
     <use xlink:href="#Ubuntu-Bold-6e" x="111.799988"/>
    </g>
   </g>
   <g id="text_16">
    <!-- Jun -->
    <g style="fill: #ffffff" transform="translate(299.595786 135.7715) scale(0.08 -0.08)">
     <use xlink:href="#Ubuntu-Bold-4a"/>
     <use xlink:href="#Ubuntu-Bold-75" x="52.899994"/>
     <use xlink:href="#Ubuntu-Bold-6e" x="111.799988"/>
    </g>
   </g>
   <g id="text_17">
    <!-- Jul -->
    <g style="fill: #ffffff" transform="translate(356.983136 135.7715) scale(0.08 -0.08)">
     <use xlink:href="#Ubuntu-Bold-4a"/>
     <use xlink:href="#Ubuntu-Bold-75" x="52.899994"/>
     <use xlink:href="#Ubuntu-Bold-6c" x="111.799988"/>
    </g>
   </g>
   <g id="text_18">
    <!-- Jul -->
    <g style="fill: #ffffff" transform="translate(356.983136 159.5315) scale(0.08 -0.08)">
     <use xlink:href="#Ubuntu-Bold-4a"/>
     <use xlink:href="#Ubuntu-Bold-75" x="52.899994"/>
     <use xlink:href="#Ubuntu-Bold-6c" x="111.799988"/>
    </g>
   </g>
   <g id="text_19">
    <!-- Aug -->
    <g style="fill: #ffffff" transform="translate(411.397986 159.5315) scale(0.08 -0.08)">
     <defs>
      <path id="Ubuntu-Bold-67" d="M 1261 1792 
Q 1261 992 1907 992 
Q 2054 992 2182 1030 
Q 2310 1069 2400 1120 
L 2400 2643 
Q 2330 2656 2234 2665 
Q 2138 2675 2010 2675 
Q 1632 2675 1446 2425 
Q 1261 2176 1261 1792 
z
M 3354 422 
Q 3354 -403 2934 -803 
Q 2515 -1203 1638 -1203 
Q 1331 -1203 1024 -1148 
Q 717 -1094 454 -1005 
L 621 -205 
Q 845 -294 1091 -345 
Q 1338 -397 1651 -397 
Q 2061 -397 2230 -217 
Q 2400 -38 2400 243 
L 2400 365 
Q 2246 294 2083 259 
Q 1920 224 1728 224 
Q 1030 224 659 637 
Q 288 1050 288 1792 
Q 288 2163 403 2467 
Q 518 2771 739 2988 
Q 960 3206 1280 3324 
Q 1600 3443 2003 3443 
Q 2176 3443 2358 3427 
Q 2541 3411 2720 3385 
Q 2899 3360 3062 3325 
Q 3226 3290 3354 3251 
L 3354 422 
z
" transform="scale(0.015625)"/>
     </defs>
     <use xlink:href="#Ubuntu-Bold-41"/>
     <use xlink:href="#Ubuntu-Bold-75" x="72.099991"/>
     <use xlink:href="#Ubuntu-Bold-67" x="130.999985"/>
    </g>
   </g>
   <g id="text_20">
    <!-- Aug -->
    <g style="fill: #ffffff" transform="translate(411.397986 183.2915) scale(0.08 -0.08)">
     <use xlink:href="#Ubuntu-Bold-41"/>
     <use xlink:href="#Ubuntu-Bold-75" x="72.099991"/>
     <use xlink:href="#Ubuntu-Bold-67" x="130.999985"/>
    </g>
   </g>
   <g id="text_21">
    <!-- Sep -->
    <g style="fill: #ffffff" transform="translate(466.412498 183.2915) scale(0.08 -0.08)">
     <defs>
      <path id="Ubuntu-Bold-53" d="M 1722 762 
Q 1933 762 2070 797 
Q 2208 832 2291 893 
Q 2374 954 2406 1037 
Q 2438 1120 2438 1222 
Q 2438 1440 2233 1584 
Q 2029 1728 1530 1894 
Q 1312 1971 1094 2070 
Q 877 2170 704 2320 
Q 531 2470 422 2684 
Q 314 2899 314 3206 
Q 314 3514 429 3760 
Q 544 4006 755 4179 
Q 966 4352 1267 4445 
Q 1568 4538 1946 4538 
Q 2394 4538 2720 4442 
Q 3046 4346 3258 4230 
L 2970 3443 
Q 2784 3539 2557 3612 
Q 2330 3686 2010 3686 
Q 1651 3686 1494 3587 
Q 1338 3488 1338 3283 
Q 1338 3162 1395 3078 
Q 1453 2995 1558 2928 
Q 1664 2861 1801 2806 
Q 1939 2752 2106 2694 
Q 2451 2566 2707 2441 
Q 2963 2317 3132 2150 
Q 3302 1984 3385 1760 
Q 3469 1536 3469 1216 
Q 3469 595 3033 252 
Q 2598 -90 1722 -90 
Q 1427 -90 1190 -54 
Q 954 -19 771 32 
Q 589 83 457 140 
Q 326 198 237 250 
L 518 1043 
Q 717 934 1008 848 
Q 1299 762 1722 762 
z
" transform="scale(0.015625)"/>
     </defs>
     <use xlink:href="#Ubuntu-Bold-53"/>
     <use xlink:href="#Ubuntu-Bold-65" x="58.199997"/>
     <use xlink:href="#Ubuntu-Bold-70" x="116.599991"/>
    </g>
   </g>
   <g id="legend_1">
    <g id="line2d_29">
     <path d="M 67.725 13.8075 
L 72.725 13.8075 
L 77.725 13.8075 
" style="fill: none; stroke: #5b5b5b; stroke-width: 5; stroke-linecap: square"/>
    </g>
    <g id="text_22">
     <!-- Train -->
     <g style="fill: #4b4b4b" transform="translate(85.725 16.6075) scale(0.08 -0.08)">
      <defs>
       <path id="Ubuntu-54" d="M 3514 4435 
L 3514 3898 
L 2118 3898 
L 2118 0 
L 1498 0 
L 1498 3898 
L 102 3898 
L 102 4435 
L 3514 4435 
z
" transform="scale(0.015625)"/>
       <path id="Ubuntu-72" d="M 1741 3398 
Q 1818 3398 1917 3388 
Q 2016 3379 2112 3363 
Q 2208 3347 2288 3331 
Q 2368 3315 2406 3302 
L 2304 2784 
Q 2234 2810 2070 2845 
Q 1907 2880 1651 2880 
Q 1485 2880 1321 2845 
Q 1158 2810 1107 2797 
L 1107 0 
L 512 0 
L 512 3187 
Q 723 3264 1036 3331 
Q 1350 3398 1741 3398 
z
" transform="scale(0.015625)"/>
       <path id="Ubuntu-61" d="M 1638 429 
Q 1850 429 2013 438 
Q 2176 448 2285 474 
L 2285 1466 
Q 2221 1498 2077 1520 
Q 1933 1542 1728 1542 
Q 1594 1542 1443 1523 
Q 1293 1504 1168 1443 
Q 1043 1382 960 1276 
Q 877 1171 877 998 
Q 877 678 1081 553 
Q 1286 429 1638 429 
z
M 1587 3411 
Q 1946 3411 2192 3318 
Q 2438 3226 2588 3056 
Q 2739 2886 2803 2652 
Q 2867 2419 2867 2138 
L 2867 58 
Q 2790 45 2652 22 
Q 2515 0 2342 -19 
Q 2170 -38 1968 -54 
Q 1766 -70 1568 -70 
Q 1286 -70 1049 -12 
Q 813 45 640 169 
Q 467 294 371 499 
Q 275 704 275 992 
Q 275 1267 387 1465 
Q 499 1664 691 1785 
Q 883 1907 1139 1964 
Q 1395 2022 1677 2022 
Q 1766 2022 1862 2012 
Q 1958 2003 2044 1987 
Q 2131 1971 2195 1958 
Q 2259 1946 2285 1939 
L 2285 2106 
Q 2285 2253 2253 2397 
Q 2221 2541 2137 2653 
Q 2054 2765 1910 2832 
Q 1766 2899 1536 2899 
Q 1242 2899 1021 2857 
Q 800 2816 691 2771 
L 621 3264 
Q 736 3315 1005 3363 
Q 1274 3411 1587 3411 
z
" transform="scale(0.015625)"/>
       <path id="Ubuntu-69" d="M 1107 0 
L 512 0 
L 512 3328 
L 1107 3328 
L 1107 0 
z
M 806 3930 
Q 646 3930 534 4035 
Q 422 4141 422 4320 
Q 422 4499 534 4604 
Q 646 4710 806 4710 
Q 966 4710 1078 4604 
Q 1190 4499 1190 4320 
Q 1190 4141 1078 4035 
Q 966 3930 806 3930 
z
" transform="scale(0.015625)"/>
       <path id="Ubuntu-6e" d="M 512 3232 
Q 717 3283 1056 3340 
Q 1395 3398 1837 3398 
Q 2234 3398 2496 3286 
Q 2758 3174 2915 2972 
Q 3072 2771 3136 2489 
Q 3200 2208 3200 1869 
L 3200 0 
L 2605 0 
L 2605 1741 
Q 2605 2048 2563 2265 
Q 2522 2483 2426 2617 
Q 2330 2752 2170 2813 
Q 2010 2874 1773 2874 
Q 1677 2874 1574 2867 
Q 1472 2861 1379 2851 
Q 1286 2842 1212 2829 
Q 1139 2816 1107 2810 
L 1107 0 
L 512 0 
L 512 3232 
z
" transform="scale(0.015625)"/>
      </defs>
      <use xlink:href="#Ubuntu-54"/>
      <use xlink:href="#Ubuntu-72" x="52.499985"/>
      <use xlink:href="#Ubuntu-61" x="91.099976"/>
      <use xlink:href="#Ubuntu-69" x="143.299973"/>
      <use xlink:href="#Ubuntu-6e" x="168.59996"/>
     </g>
    </g>
    <g id="line2d_30">
     <path d="M 121.805 13.8075 
L 126.805 13.8075 
L 131.805 13.8075 
" style="fill: none; stroke: #5a81a1; stroke-width: 5; stroke-linecap: square"/>
    </g>
    <g id="text_23">
     <!-- Evaluation -->
     <g style="fill: #4b4b4b" transform="translate(139.805 16.6075) scale(0.08 -0.08)">
      <defs>
       <path id="Ubuntu-45" d="M 550 0 
L 550 4435 
L 3258 4435 
L 3258 3904 
L 1171 3904 
L 1171 2586 
L 3027 2586 
L 3027 2067 
L 1171 2067 
L 1171 531 
L 3418 531 
L 3418 0 
L 550 0 
z
" transform="scale(0.015625)"/>
       <path id="Ubuntu-76" d="M 3110 3328 
Q 2861 2394 2525 1536 
Q 2189 678 1875 0 
L 1338 0 
Q 1024 678 688 1536 
Q 352 2394 102 3328 
L 742 3328 
Q 819 3014 924 2659 
Q 1030 2304 1148 1955 
Q 1267 1606 1388 1280 
Q 1510 954 1619 698 
Q 1728 954 1849 1280 
Q 1971 1606 2089 1955 
Q 2208 2304 2313 2659 
Q 2419 3014 2496 3328 
L 3110 3328 
z
" transform="scale(0.015625)"/>
       <path id="Ubuntu-6c" d="M 1510 -64 
Q 960 -51 729 173 
Q 499 397 499 870 
L 499 4864 
L 1094 4966 
L 1094 966 
Q 1094 819 1120 723 
Q 1146 627 1203 569 
Q 1261 512 1357 483 
Q 1453 454 1594 435 
L 1510 -64 
z
" transform="scale(0.015625)"/>
       <path id="Ubuntu-75" d="M 3162 96 
Q 2957 45 2621 -12 
Q 2285 -70 1843 -70 
Q 1459 -70 1196 42 
Q 934 154 774 358 
Q 614 563 544 841 
Q 474 1120 474 1459 
L 474 3328 
L 1069 3328 
L 1069 1587 
Q 1069 979 1261 716 
Q 1453 454 1907 454 
Q 2003 454 2105 460 
Q 2208 467 2297 476 
Q 2387 486 2460 496 
Q 2534 506 2566 518 
L 2566 3328 
L 3162 3328 
L 3162 96 
z
" transform="scale(0.015625)"/>
       <path id="Ubuntu-74" d="M 1069 3328 
L 2330 3328 
L 2330 2829 
L 1069 2829 
L 1069 1293 
Q 1069 1043 1107 880 
Q 1146 717 1222 624 
Q 1299 531 1414 492 
Q 1530 454 1683 454 
Q 1952 454 2115 515 
Q 2278 576 2342 602 
L 2458 109 
Q 2368 64 2144 -3 
Q 1920 -70 1632 -70 
Q 1293 -70 1072 16 
Q 851 102 716 275 
Q 582 448 528 701 
Q 474 954 474 1286 
L 474 4256 
L 1069 4358 
L 1069 3328 
z
" transform="scale(0.015625)"/>
       <path id="Ubuntu-6f" d="M 3450 1664 
Q 3450 1267 3334 947 
Q 3219 627 3011 396 
Q 2803 166 2515 41 
Q 2227 -83 1888 -83 
Q 1549 -83 1261 41 
Q 973 166 765 396 
Q 557 627 441 947 
Q 326 1267 326 1664 
Q 326 2054 441 2377 
Q 557 2701 765 2931 
Q 973 3162 1261 3286 
Q 1549 3411 1888 3411 
Q 2227 3411 2515 3286 
Q 2803 3162 3011 2931 
Q 3219 2701 3334 2377 
Q 3450 2054 3450 1664 
z
M 2829 1664 
Q 2829 2227 2576 2556 
Q 2323 2886 1888 2886 
Q 1453 2886 1200 2556 
Q 947 2227 947 1664 
Q 947 1101 1200 771 
Q 1453 442 1888 442 
Q 2323 442 2576 771 
Q 2829 1101 2829 1664 
z
" transform="scale(0.015625)"/>
      </defs>
      <use xlink:href="#Ubuntu-45"/>
      <use xlink:href="#Ubuntu-76" x="54.599991"/>
      <use xlink:href="#Ubuntu-61" x="104.799988"/>
      <use xlink:href="#Ubuntu-6c" x="156.999985"/>
      <use xlink:href="#Ubuntu-75" x="184.299973"/>
      <use xlink:href="#Ubuntu-61" x="241.699966"/>
      <use xlink:href="#Ubuntu-74" x="293.899963"/>
      <use xlink:href="#Ubuntu-69" x="334.09996"/>
      <use xlink:href="#Ubuntu-6f" x="359.399948"/>
      <use xlink:href="#Ubuntu-6e" x="418.399933"/>
     </g>
    </g>
    <g id="line2d_31">
     <path d="M 195.87 13.8075 
L 200.87 13.8075 
L 205.87 13.8075 
" style="fill: none; stroke: #4e9a73; stroke-width: 5; stroke-linecap: square"/>
    </g>
    <g id="text_24">
     <!-- Validation -->
     <g style="fill: #4b4b4b" transform="translate(213.87 16.6075) scale(0.08 -0.08)">
      <defs>
       <path id="Ubuntu-56" d="M 4134 4435 
Q 3891 3731 3670 3132 
Q 3450 2534 3238 1996 
Q 3027 1459 2819 969 
Q 2611 480 2394 0 
L 1811 0 
Q 1594 480 1386 969 
Q 1178 1459 963 1996 
Q 749 2534 525 3132 
Q 301 3731 64 4435 
L 749 4435 
Q 1094 3424 1427 2489 
Q 1760 1555 2112 736 
Q 2464 1549 2797 2486 
Q 3130 3424 3469 4435 
L 4134 4435 
z
" transform="scale(0.015625)"/>
       <path id="Ubuntu-64" d="M 2662 2624 
Q 2554 2714 2349 2797 
Q 2144 2880 1901 2880 
Q 1645 2880 1462 2787 
Q 1280 2694 1165 2531 
Q 1050 2368 998 2144 
Q 947 1920 947 1664 
Q 947 1082 1235 765 
Q 1523 448 2003 448 
Q 2246 448 2409 470 
Q 2573 493 2662 518 
L 2662 2624 
z
M 2662 4864 
L 3258 4966 
L 3258 96 
Q 3053 38 2733 -19 
Q 2413 -77 1997 -77 
Q 1613 -77 1305 44 
Q 998 166 780 390 
Q 563 614 444 937 
Q 326 1261 326 1664 
Q 326 2048 425 2368 
Q 525 2688 717 2918 
Q 909 3149 1187 3277 
Q 1466 3405 1824 3405 
Q 2112 3405 2333 3328 
Q 2554 3251 2662 3181 
L 2662 4864 
z
" transform="scale(0.015625)"/>
      </defs>
      <use xlink:href="#Ubuntu-56"/>
      <use xlink:href="#Ubuntu-61" x="63.099991"/>
      <use xlink:href="#Ubuntu-6c" x="115.299988"/>
      <use xlink:href="#Ubuntu-69" x="142.599976"/>
      <use xlink:href="#Ubuntu-64" x="167.899963"/>
      <use xlink:href="#Ubuntu-61" x="226.799957"/>
      <use xlink:href="#Ubuntu-74" x="278.999954"/>
      <use xlink:href="#Ubuntu-69" x="319.199951"/>
      <use xlink:href="#Ubuntu-6f" x="344.499939"/>
      <use xlink:href="#Ubuntu-6e" x="403.499924"/>
     </g>
    </g>
    <g id="line2d_32">
     <path d="M 268.7425 13.8075 
L 273.7425 13.8075 
L 278.7425 13.8075 
" style="fill: none; stroke: #b45f58; stroke-width: 5; stroke-linecap: square"/>
    </g>
    <g id="text_25">
     <!-- Test -->
     <g style="fill: #4b4b4b" transform="translate(286.7425 16.6075) scale(0.08 -0.08)">
      <defs>
       <path id="Ubuntu-65" d="M 326 1658 
Q 326 2099 454 2428 
Q 582 2758 793 2976 
Q 1005 3194 1280 3302 
Q 1555 3411 1843 3411 
Q 2515 3411 2873 2992 
Q 3232 2573 3232 1715 
Q 3232 1677 3232 1616 
Q 3232 1555 3226 1504 
L 947 1504 
Q 986 986 1248 717 
Q 1510 448 2067 448 
Q 2381 448 2595 502 
Q 2810 557 2918 608 
L 3002 109 
Q 2893 51 2621 -13 
Q 2349 -77 2003 -77 
Q 1568 -77 1251 54 
Q 934 186 729 416 
Q 525 646 425 963 
Q 326 1280 326 1658 
z
M 2611 1984 
Q 2618 2387 2410 2646 
Q 2202 2906 1837 2906 
Q 1632 2906 1475 2826 
Q 1318 2746 1209 2618 
Q 1101 2490 1040 2323 
Q 979 2157 960 1984 
L 2611 1984 
z
" transform="scale(0.015625)"/>
       <path id="Ubuntu-73" d="M 1286 429 
Q 1651 429 1827 525 
Q 2003 621 2003 832 
Q 2003 1050 1830 1178 
Q 1658 1306 1261 1466 
Q 1069 1542 893 1622 
Q 717 1702 589 1811 
Q 461 1920 384 2073 
Q 307 2227 307 2451 
Q 307 2893 633 3152 
Q 960 3411 1523 3411 
Q 1664 3411 1805 3395 
Q 1946 3379 2067 3356 
Q 2189 3334 2281 3308 
Q 2374 3283 2426 3264 
L 2317 2752 
Q 2221 2803 2016 2857 
Q 1811 2912 1523 2912 
Q 1274 2912 1088 2813 
Q 902 2714 902 2502 
Q 902 2394 944 2310 
Q 986 2227 1072 2160 
Q 1158 2093 1286 2035 
Q 1414 1978 1594 1914 
Q 1830 1824 2016 1737 
Q 2202 1651 2333 1536 
Q 2464 1421 2534 1257 
Q 2605 1094 2605 858 
Q 2605 397 2262 160 
Q 1920 -77 1286 -77 
Q 845 -77 595 -3 
Q 346 70 256 109 
L 365 621 
Q 467 582 691 505 
Q 915 429 1286 429 
z
" transform="scale(0.015625)"/>
      </defs>
      <use xlink:href="#Ubuntu-54"/>
      <use xlink:href="#Ubuntu-65" x="50.999985"/>
      <use xlink:href="#Ubuntu-73" x="106.899979"/>
      <use xlink:href="#Ubuntu-74" x="151.499969"/>
     </g>
    </g>
   </g>
  </g>
 </g>
 <defs>
  <clipPath id="p480391b89e">
   <rect x="60.525" y="25.2875" width="446.4" height="166.32"/>
  </clipPath>
 </defs>
</svg>
