<?xml version="1.0" encoding="utf-8" standalone="no"?>
<!DOCTYPE svg PUBLIC "-//W3C//DTD SVG 1.1//EN"
  "http://www.w3.org/Graphics/SVG/1.1/DTD/svg11.dtd">
<svg xmlns:xlink="http://www.w3.org/1999/xlink" width="513.010937pt" height="154.07125pt" viewBox="0 0 513.010937 154.07125" xmlns="http://www.w3.org/2000/svg" version="1.1">
 <metadata>
  <rdf:RDF xmlns:dc="http://purl.org/dc/elements/1.1/" xmlns:cc="http://creativecommons.org/ns#" xmlns:rdf="http://www.w3.org/1999/02/22-rdf-syntax-ns#">
   <cc:Work>
    <dc:type rdf:resource="http://purl.org/dc/dcmitype/StillImage"/>
    <dc:date>2024-04-25T16:18:45.043116</dc:date>
    <dc:format>image/svg+xml</dc:format>
    <dc:creator>
     <cc:Agent>
      <dc:title>Matplotlib v3.8.3, https://matplotlib.org/</dc:title>
     </cc:Agent>
    </dc:creator>
   </cc:Work>
  </rdf:RDF>
 </metadata>
 <defs>
  <style type="text/css">*{stroke-linejoin: round; stroke-linecap: butt}</style>
 </defs>
 <g id="figure_1">
  <g id="patch_1">
   <path d="M 0 154.07125 
L 513.010937 154.07125 
L 513.010937 0 
L 0 0 
L 0 154.07125 
z
" style="fill: none"/>
  </g>
  <g id="axes_1">
   <g id="patch_2">
    <path d="M 59.410938 121.18375 
L 505.810937 121.18375 
L 505.810937 10.30375 
L 59.410938 10.30375 
L 59.410938 121.18375 
z
" style="fill: none"/>
   </g>
   <g id="matplotlib.axis_1">
    <g id="xtick_1">
     <g id="text_1">
      <!-- 1 -->
      <g style="fill: #808080" transform="translate(67.214886 145.39125) scale(0.08 -0.08)">
       <defs>
        <path id="Ubuntu-31" d="M 595 3520 
Q 960 3661 1305 3881 
Q 1651 4102 1939 4435 
L 2362 4435 
L 2362 0 
L 1766 0 
L 1766 3610 
Q 1690 3539 1578 3462 
Q 1466 3386 1334 3315 
Q 1203 3245 1059 3181 
Q 915 3117 781 3072 
L 595 3520 
z
" transform="scale(0.015625)"/>
       </defs>
       <use xlink:href="#Ubuntu-31"/>
      </g>
     </g>
    </g>
    <g id="xtick_2">
     <g id="text_2">
      <!-- 2 -->
      <g style="fill: #808080" transform="translate(81.424206 145.39125) scale(0.08 -0.08)">
       <defs>
        <path id="Ubuntu-32" d="M 2989 3302 
Q 2989 3072 2896 2857 
Q 2803 2643 2649 2435 
Q 2496 2227 2304 2025 
Q 2112 1824 1920 1632 
Q 1811 1523 1667 1376 
Q 1523 1229 1395 1069 
Q 1267 909 1180 761 
Q 1094 614 1094 506 
L 3136 506 
L 3136 0 
L 448 0 
Q 442 38 442 76 
Q 442 115 442 147 
Q 442 448 541 707 
Q 640 966 800 1196 
Q 960 1427 1158 1632 
Q 1357 1837 1549 2029 
Q 1709 2182 1853 2332 
Q 1997 2483 2109 2633 
Q 2221 2784 2288 2944 
Q 2355 3104 2355 3283 
Q 2355 3475 2294 3609 
Q 2234 3744 2131 3833 
Q 2029 3923 1891 3964 
Q 1754 4006 1600 4006 
Q 1414 4006 1260 3955 
Q 1107 3904 985 3837 
Q 864 3770 781 3696 
Q 698 3622 653 3584 
L 358 4006 
Q 416 4070 531 4163 
Q 646 4256 806 4339 
Q 966 4422 1164 4480 
Q 1363 4538 1594 4538 
Q 2291 4538 2640 4214 
Q 2989 3891 2989 3302 
z
" transform="scale(0.015625)"/>
       </defs>
       <use xlink:href="#Ubuntu-32"/>
      </g>
     </g>
    </g>
    <g id="xtick_3">
     <g id="text_3">
      <!-- 3 -->
      <g style="fill: #808080" transform="translate(95.633526 145.39125) scale(0.08 -0.08)">
       <defs>
        <path id="Ubuntu-33" d="M 1446 435 
Q 2016 435 2262 659 
Q 2509 883 2509 1261 
Q 2509 1504 2406 1670 
Q 2304 1837 2137 1936 
Q 1971 2035 1750 2076 
Q 1530 2118 1299 2118 
L 1146 2118 
L 1146 2605 
L 1357 2605 
Q 1517 2605 1686 2637 
Q 1856 2669 1997 2752 
Q 2138 2835 2227 2979 
Q 2317 3123 2317 3341 
Q 2317 3520 2253 3648 
Q 2189 3776 2083 3859 
Q 1978 3942 1840 3977 
Q 1702 4013 1549 4013 
Q 1242 4013 1027 3923 
Q 813 3834 666 3738 
L 435 4192 
Q 512 4243 630 4304 
Q 749 4365 896 4416 
Q 1043 4467 1212 4502 
Q 1382 4538 1568 4538 
Q 1920 4538 2176 4451 
Q 2432 4365 2598 4208 
Q 2765 4051 2848 3836 
Q 2931 3622 2931 3373 
Q 2931 3027 2732 2780 
Q 2534 2534 2253 2406 
Q 2426 2355 2586 2259 
Q 2746 2163 2864 2016 
Q 2982 1869 3056 1677 
Q 3130 1485 3130 1248 
Q 3130 960 3030 713 
Q 2931 467 2723 288 
Q 2515 109 2201 6 
Q 1888 -96 1459 -96 
Q 1293 -96 1117 -70 
Q 941 -45 787 -6 
Q 634 32 518 70 
Q 403 109 352 134 
L 467 653 
Q 576 602 829 518 
Q 1082 435 1446 435 
z
" transform="scale(0.015625)"/>
       </defs>
       <use xlink:href="#Ubuntu-33"/>
      </g>
     </g>
    </g>
    <g id="xtick_4">
     <g id="text_4">
      <!-- 4 -->
      <g style="fill: #808080" transform="translate(109.842846 145.39125) scale(0.08 -0.08)">
       <defs>
        <path id="Ubuntu-34" d="M 256 1536 
Q 378 1818 589 2192 
Q 800 2566 1065 2963 
Q 1331 3360 1635 3744 
Q 1939 4128 2246 4435 
L 2816 4435 
L 2816 1619 
L 3341 1619 
L 3341 1133 
L 2816 1133 
L 2816 0 
L 2240 0 
L 2240 1133 
L 256 1133 
L 256 1536 
z
M 2240 3731 
Q 2048 3526 1853 3273 
Q 1658 3021 1472 2745 
Q 1286 2470 1123 2182 
Q 960 1894 832 1619 
L 2240 1619 
L 2240 3731 
z
" transform="scale(0.015625)"/>
       </defs>
       <use xlink:href="#Ubuntu-34"/>
      </g>
     </g>
    </g>
    <g id="xtick_5">
     <g id="text_5">
      <!-- 5 -->
      <g style="fill: #808080" transform="translate(124.052166 145.39125) scale(0.08 -0.08)">
       <defs>
        <path id="Ubuntu-35" d="M 1274 2726 
Q 2240 2688 2691 2304 
Q 3142 1920 3142 1261 
Q 3142 966 3043 716 
Q 2944 467 2742 288 
Q 2541 109 2233 6 
Q 1926 -96 1504 -96 
Q 1338 -96 1165 -70 
Q 992 -45 845 -6 
Q 698 32 582 70 
Q 467 109 416 134 
L 531 653 
Q 640 602 886 518 
Q 1133 435 1491 435 
Q 1779 435 1974 499 
Q 2170 563 2291 672 
Q 2413 781 2467 925 
Q 2522 1069 2522 1229 
Q 2522 1472 2438 1661 
Q 2355 1850 2144 1978 
Q 1933 2106 1581 2173 
Q 1229 2240 691 2240 
Q 730 2554 752 2829 
Q 774 3104 793 3366 
Q 813 3629 825 3888 
Q 838 4147 851 4435 
L 2989 4435 
L 2989 3930 
L 1370 3930 
Q 1363 3834 1350 3670 
Q 1338 3507 1325 3331 
Q 1312 3155 1299 2988 
Q 1286 2822 1274 2726 
z
" transform="scale(0.015625)"/>
       </defs>
       <use xlink:href="#Ubuntu-35"/>
      </g>
     </g>
    </g>
    <g id="xtick_6">
     <g id="text_6">
      <!-- 6 -->
      <g style="fill: #808080" transform="translate(138.261487 145.39125) scale(0.08 -0.08)">
       <defs>
        <path id="Ubuntu-36" d="M 403 1779 
Q 403 2426 582 2922 
Q 762 3418 1091 3757 
Q 1421 4096 1891 4272 
Q 2362 4448 2950 4454 
L 2995 3955 
Q 2618 3949 2307 3872 
Q 1997 3795 1753 3628 
Q 1510 3462 1344 3196 
Q 1178 2931 1094 2541 
Q 1261 2618 1469 2669 
Q 1677 2720 1901 2720 
Q 2278 2720 2540 2605 
Q 2803 2490 2969 2301 
Q 3136 2112 3209 1865 
Q 3283 1619 3283 1350 
Q 3283 1107 3200 851 
Q 3117 595 2947 384 
Q 2778 173 2515 38 
Q 2253 -96 1894 -96 
Q 1165 -96 784 403 
Q 403 902 403 1779 
z
M 1837 2234 
Q 1613 2234 1421 2192 
Q 1229 2150 1037 2067 
Q 1030 1997 1027 1923 
Q 1024 1850 1024 1779 
Q 1024 1498 1062 1248 
Q 1101 998 1200 809 
Q 1299 621 1465 509 
Q 1632 397 1888 397 
Q 2099 397 2246 486 
Q 2394 576 2490 717 
Q 2586 858 2627 1021 
Q 2669 1184 2669 1338 
Q 2669 1773 2461 2003 
Q 2253 2234 1837 2234 
z
" transform="scale(0.015625)"/>
       </defs>
       <use xlink:href="#Ubuntu-36"/>
      </g>
     </g>
    </g>
    <g id="xtick_7">
     <g id="text_7">
      <!-- 7 -->
      <g style="fill: #808080" transform="translate(152.470807 145.39125) scale(0.08 -0.08)">
       <defs>
        <path id="Ubuntu-37" d="M 1043 0 
Q 1082 512 1226 1078 
Q 1370 1645 1581 2179 
Q 1792 2714 2045 3171 
Q 2298 3629 2541 3917 
L 384 3917 
L 384 4435 
L 3206 4435 
L 3206 3942 
Q 2995 3699 2739 3273 
Q 2483 2848 2256 2320 
Q 2029 1792 1865 1193 
Q 1702 595 1664 0 
L 1043 0 
z
" transform="scale(0.015625)"/>
       </defs>
       <use xlink:href="#Ubuntu-37"/>
      </g>
     </g>
    </g>
    <g id="xtick_8">
     <g id="text_8">
      <!-- 8 -->
      <g style="fill: #808080" transform="translate(166.680127 145.39125) scale(0.08 -0.08)">
       <defs>
        <path id="Ubuntu-38" d="M 3258 1152 
Q 3258 883 3165 656 
Q 3072 429 2889 259 
Q 2707 90 2432 -3 
Q 2157 -96 1798 -96 
Q 1382 -96 1104 22 
Q 826 141 659 320 
Q 493 499 422 713 
Q 352 928 352 1120 
Q 352 1306 413 1475 
Q 474 1645 573 1792 
Q 672 1939 803 2057 
Q 934 2176 1082 2266 
Q 454 2624 454 3322 
Q 454 3565 550 3785 
Q 646 4006 822 4172 
Q 998 4339 1248 4438 
Q 1498 4538 1805 4538 
Q 2163 4538 2419 4429 
Q 2675 4320 2838 4150 
Q 3002 3981 3075 3776 
Q 3149 3571 3149 3379 
Q 3149 3194 3094 3030 
Q 3040 2867 2947 2726 
Q 2854 2586 2736 2477 
Q 2618 2368 2490 2285 
Q 3245 1926 3258 1152 
z
M 954 1114 
Q 954 998 995 873 
Q 1037 749 1139 643 
Q 1242 538 1402 467 
Q 1562 397 1805 397 
Q 2022 397 2185 461 
Q 2349 525 2451 624 
Q 2554 723 2605 851 
Q 2656 979 2656 1114 
Q 2656 1318 2579 1472 
Q 2502 1626 2358 1741 
Q 2214 1856 2012 1936 
Q 1811 2016 1555 2074 
Q 1267 1914 1110 1677 
Q 954 1440 954 1114 
z
M 2554 3386 
Q 2554 3482 2512 3597 
Q 2470 3712 2380 3811 
Q 2291 3910 2150 3977 
Q 2010 4045 1805 4045 
Q 1600 4045 1456 3981 
Q 1312 3917 1222 3817 
Q 1133 3718 1091 3600 
Q 1050 3482 1050 3366 
Q 1050 3226 1101 3085 
Q 1152 2944 1261 2822 
Q 1370 2701 1546 2605 
Q 1722 2509 1965 2451 
Q 2234 2611 2394 2825 
Q 2554 3040 2554 3386 
z
" transform="scale(0.015625)"/>
       </defs>
       <use xlink:href="#Ubuntu-38"/>
      </g>
     </g>
    </g>
    <g id="xtick_9">
     <g id="text_9">
      <!-- 9 -->
      <g style="fill: #808080" transform="translate(180.889447 145.39125) scale(0.08 -0.08)">
       <defs>
        <path id="Ubuntu-39" d="M 3206 2662 
Q 3206 1344 2550 669 
Q 1894 -6 602 -13 
L 582 486 
Q 986 486 1309 563 
Q 1632 640 1875 809 
Q 2118 979 2281 1248 
Q 2445 1517 2522 1907 
Q 2355 1830 2144 1782 
Q 1933 1734 1709 1734 
Q 1331 1734 1068 1846 
Q 806 1958 640 2147 
Q 474 2336 400 2582 
Q 326 2829 326 3098 
Q 326 3334 409 3590 
Q 493 3846 662 4057 
Q 832 4269 1094 4403 
Q 1357 4538 1715 4538 
Q 2080 4538 2358 4410 
Q 2637 4282 2825 4038 
Q 3014 3795 3110 3446 
Q 3206 3098 3206 2662 
z
M 1773 2221 
Q 1997 2221 2195 2262 
Q 2394 2304 2579 2387 
Q 2586 2458 2586 2525 
Q 2586 2592 2586 2662 
Q 2586 2938 2547 3190 
Q 2509 3443 2409 3632 
Q 2310 3821 2144 3933 
Q 1978 4045 1722 4045 
Q 1510 4045 1363 3955 
Q 1216 3866 1120 3728 
Q 1024 3590 982 3427 
Q 941 3264 941 3110 
Q 941 2675 1149 2448 
Q 1357 2221 1773 2221 
z
" transform="scale(0.015625)"/>
       </defs>
       <use xlink:href="#Ubuntu-39"/>
      </g>
     </g>
    </g>
    <g id="xtick_10">
     <g id="text_10">
      <!-- 10 -->
      <g style="fill: #808080" transform="translate(192.842517 145.39125) scale(0.08 -0.08)">
       <defs>
        <path id="Ubuntu-30" d="M 320 2221 
Q 320 3334 713 3936 
Q 1107 4538 1805 4538 
Q 2502 4538 2896 3936 
Q 3290 3334 3290 2221 
Q 3290 1107 2896 505 
Q 2502 -96 1805 -96 
Q 1107 -96 713 505 
Q 320 1107 320 2221 
z
M 2662 2221 
Q 2662 2586 2620 2912 
Q 2579 3238 2480 3481 
Q 2381 3725 2214 3869 
Q 2048 4013 1805 4013 
Q 1562 4013 1395 3869 
Q 1229 3725 1129 3481 
Q 1030 3238 988 2912 
Q 947 2586 947 2221 
Q 947 1856 988 1529 
Q 1030 1203 1129 960 
Q 1229 717 1395 573 
Q 1562 429 1805 429 
Q 2048 429 2214 573 
Q 2381 717 2480 960 
Q 2579 1203 2620 1529 
Q 2662 1856 2662 2221 
z
" transform="scale(0.015625)"/>
       </defs>
       <use xlink:href="#Ubuntu-31"/>
       <use xlink:href="#Ubuntu-30" x="56.399994"/>
      </g>
     </g>
    </g>
    <g id="xtick_11">
     <g id="text_11">
      <!-- 11 -->
      <g style="fill: #808080" transform="translate(207.051837 145.39125) scale(0.08 -0.08)">
       <use xlink:href="#Ubuntu-31"/>
       <use xlink:href="#Ubuntu-31" x="56.399994"/>
      </g>
     </g>
    </g>
    <g id="xtick_12">
     <g id="text_12">
      <!-- 12 -->
      <g style="fill: #808080" transform="translate(221.261157 145.39125) scale(0.08 -0.08)">
       <use xlink:href="#Ubuntu-31"/>
       <use xlink:href="#Ubuntu-32" x="56.399994"/>
      </g>
     </g>
    </g>
    <g id="xtick_13">
     <g id="text_13">
      <!-- 13 -->
      <g style="fill: #808080" transform="translate(235.470477 145.39125) scale(0.08 -0.08)">
       <use xlink:href="#Ubuntu-31"/>
       <use xlink:href="#Ubuntu-33" x="56.399994"/>
      </g>
     </g>
    </g>
    <g id="xtick_14">
     <g id="text_14">
      <!-- 14 -->
      <g style="fill: #808080" transform="translate(249.679797 145.39125) scale(0.08 -0.08)">
       <use xlink:href="#Ubuntu-31"/>
       <use xlink:href="#Ubuntu-34" x="56.399994"/>
      </g>
     </g>
    </g>
    <g id="xtick_15">
     <g id="text_15">
      <!-- 15 -->
      <g style="fill: #808080" transform="translate(263.889117 145.39125) scale(0.08 -0.08)">
       <use xlink:href="#Ubuntu-31"/>
       <use xlink:href="#Ubuntu-35" x="56.399994"/>
      </g>
     </g>
    </g>
    <g id="xtick_16">
     <g id="text_16">
      <!-- 16 -->
      <g style="fill: #808080" transform="translate(278.098438 145.39125) scale(0.08 -0.08)">
       <use xlink:href="#Ubuntu-31"/>
       <use xlink:href="#Ubuntu-36" x="56.399994"/>
      </g>
     </g>
    </g>
    <g id="xtick_17">
     <g id="text_17">
      <!-- 17 -->
      <g style="fill: #808080" transform="translate(292.307758 145.39125) scale(0.08 -0.08)">
       <use xlink:href="#Ubuntu-31"/>
       <use xlink:href="#Ubuntu-37" x="56.399994"/>
      </g>
     </g>
    </g>
    <g id="xtick_18">
     <g id="text_18">
      <!-- 18 -->
      <g style="fill: #808080" transform="translate(306.517078 145.39125) scale(0.08 -0.08)">
       <use xlink:href="#Ubuntu-31"/>
       <use xlink:href="#Ubuntu-38" x="56.399994"/>
      </g>
     </g>
    </g>
    <g id="xtick_19">
     <g id="text_19">
      <!-- 19 -->
      <g style="fill: #808080" transform="translate(320.726398 145.39125) scale(0.08 -0.08)">
       <use xlink:href="#Ubuntu-31"/>
       <use xlink:href="#Ubuntu-39" x="56.399994"/>
      </g>
     </g>
    </g>
    <g id="xtick_20">
     <g id="text_20">
      <!-- 20 -->
      <g style="fill: #808080" transform="translate(334.935718 145.39125) scale(0.08 -0.08)">
       <use xlink:href="#Ubuntu-32"/>
       <use xlink:href="#Ubuntu-30" x="56.399994"/>
      </g>
     </g>
    </g>
    <g id="xtick_21">
     <g id="text_21">
      <!-- 21 -->
      <g style="fill: #808080" transform="translate(349.145038 145.39125) scale(0.08 -0.08)">
       <use xlink:href="#Ubuntu-32"/>
       <use xlink:href="#Ubuntu-31" x="56.399994"/>
      </g>
     </g>
    </g>
    <g id="xtick_22">
     <g id="text_22">
      <!-- 22 -->
      <g style="fill: #808080" transform="translate(363.354358 145.39125) scale(0.08 -0.08)">
       <use xlink:href="#Ubuntu-32"/>
       <use xlink:href="#Ubuntu-32" x="56.399994"/>
      </g>
     </g>
    </g>
    <g id="xtick_23">
     <g id="text_23">
      <!-- 23 -->
      <g style="fill: #808080" transform="translate(377.563678 145.39125) scale(0.08 -0.08)">
       <use xlink:href="#Ubuntu-32"/>
       <use xlink:href="#Ubuntu-33" x="56.399994"/>
      </g>
     </g>
    </g>
    <g id="xtick_24">
     <g id="text_24">
      <!-- 24 -->
      <g style="fill: #808080" transform="translate(391.772998 145.39125) scale(0.08 -0.08)">
       <use xlink:href="#Ubuntu-32"/>
       <use xlink:href="#Ubuntu-34" x="56.399994"/>
      </g>
     </g>
    </g>
    <g id="xtick_25">
     <g id="text_25">
      <!-- 25 -->
      <g style="fill: #808080" transform="translate(405.982318 145.39125) scale(0.08 -0.08)">
       <use xlink:href="#Ubuntu-32"/>
       <use xlink:href="#Ubuntu-35" x="56.399994"/>
      </g>
     </g>
    </g>
    <g id="xtick_26">
     <g id="text_26">
      <!-- 26 -->
      <g style="fill: #808080" transform="translate(420.191638 145.39125) scale(0.08 -0.08)">
       <use xlink:href="#Ubuntu-32"/>
       <use xlink:href="#Ubuntu-36" x="56.399994"/>
      </g>
     </g>
    </g>
    <g id="xtick_27">
     <g id="text_27">
      <!-- 27 -->
      <g style="fill: #808080" transform="translate(434.400959 145.39125) scale(0.08 -0.08)">
       <use xlink:href="#Ubuntu-32"/>
       <use xlink:href="#Ubuntu-37" x="56.399994"/>
      </g>
     </g>
    </g>
    <g id="xtick_28">
     <g id="text_28">
      <!-- 28 -->
      <g style="fill: #808080" transform="translate(448.610279 145.39125) scale(0.08 -0.08)">
       <use xlink:href="#Ubuntu-32"/>
       <use xlink:href="#Ubuntu-38" x="56.399994"/>
      </g>
     </g>
    </g>
    <g id="xtick_29">
     <g id="text_29">
      <!-- 29 -->
      <g style="fill: #808080" transform="translate(462.819599 145.39125) scale(0.08 -0.08)">
       <use xlink:href="#Ubuntu-32"/>
       <use xlink:href="#Ubuntu-39" x="56.399994"/>
      </g>
     </g>
    </g>
    <g id="xtick_30">
     <g id="text_30">
      <!-- 30 -->
      <g style="fill: #808080" transform="translate(477.028919 145.39125) scale(0.08 -0.08)">
       <use xlink:href="#Ubuntu-33"/>
       <use xlink:href="#Ubuntu-30" x="56.399994"/>
      </g>
     </g>
    </g>
    <g id="xtick_31">
     <g id="text_31">
      <!-- 31 -->
      <g style="fill: #808080" transform="translate(491.238239 145.39125) scale(0.08 -0.08)">
       <use xlink:href="#Ubuntu-33"/>
       <use xlink:href="#Ubuntu-31" x="56.399994"/>
      </g>
     </g>
    </g>
   </g>
   <g id="matplotlib.axis_2">
    <g id="ytick_1">
     <g id="line2d_1">
      <defs>
       <path id="mfdadcbe488" d="M 0 0 
L -3 0 
" style="stroke: #cccccc; stroke-width: 0.75"/>
      </defs>
      <g>
       <use xlink:href="#mfdadcbe488" x="54.410938" y="121.18375" style="fill: #cccccc; stroke: #cccccc; stroke-width: 0.75"/>
      </g>
     </g>
     <g id="text_32">
      <!-- 30000 -->
      <g style="fill: #808080" transform="translate(23.848438 124.2875) scale(0.08 -0.08)">
       <use xlink:href="#Ubuntu-33"/>
       <use xlink:href="#Ubuntu-30" x="56.399994"/>
       <use xlink:href="#Ubuntu-30" x="112.799988"/>
       <use xlink:href="#Ubuntu-30" x="169.199982"/>
       <use xlink:href="#Ubuntu-30" x="225.599976"/>
      </g>
     </g>
    </g>
    <g id="ytick_2">
     <g id="line2d_2">
      <g>
       <use xlink:href="#mfdadcbe488" x="54.410938" y="99.00775" style="fill: #cccccc; stroke: #cccccc; stroke-width: 0.75"/>
      </g>
     </g>
     <g id="text_33">
      <!-- 31000 -->
      <g style="fill: #808080" transform="translate(23.848438 102.1115) scale(0.08 -0.08)">
       <use xlink:href="#Ubuntu-33"/>
       <use xlink:href="#Ubuntu-31" x="56.399994"/>
       <use xlink:href="#Ubuntu-30" x="112.799988"/>
       <use xlink:href="#Ubuntu-30" x="169.199982"/>
       <use xlink:href="#Ubuntu-30" x="225.599976"/>
      </g>
     </g>
    </g>
    <g id="ytick_3">
     <g id="line2d_3">
      <g>
       <use xlink:href="#mfdadcbe488" x="54.410938" y="76.83175" style="fill: #cccccc; stroke: #cccccc; stroke-width: 0.75"/>
      </g>
     </g>
     <g id="text_34">
      <!-- 32000 -->
      <g style="fill: #808080" transform="translate(23.848438 79.9355) scale(0.08 -0.08)">
       <use xlink:href="#Ubuntu-33"/>
       <use xlink:href="#Ubuntu-32" x="56.399994"/>
       <use xlink:href="#Ubuntu-30" x="112.799988"/>
       <use xlink:href="#Ubuntu-30" x="169.199982"/>
       <use xlink:href="#Ubuntu-30" x="225.599976"/>
      </g>
     </g>
    </g>
    <g id="ytick_4">
     <g id="line2d_4">
      <g>
       <use xlink:href="#mfdadcbe488" x="54.410938" y="54.65575" style="fill: #cccccc; stroke: #cccccc; stroke-width: 0.75"/>
      </g>
     </g>
     <g id="text_35">
      <!-- 33000 -->
      <g style="fill: #808080" transform="translate(23.848438 57.7595) scale(0.08 -0.08)">
       <use xlink:href="#Ubuntu-33"/>
       <use xlink:href="#Ubuntu-33" x="56.399994"/>
       <use xlink:href="#Ubuntu-30" x="112.799988"/>
       <use xlink:href="#Ubuntu-30" x="169.199982"/>
       <use xlink:href="#Ubuntu-30" x="225.599976"/>
      </g>
     </g>
    </g>
    <g id="ytick_5">
     <g id="line2d_5">
      <g>
       <use xlink:href="#mfdadcbe488" x="54.410938" y="32.47975" style="fill: #cccccc; stroke: #cccccc; stroke-width: 0.75"/>
      </g>
     </g>
     <g id="text_36">
      <!-- 34000 -->
      <g style="fill: #808080" transform="translate(23.848438 35.5835) scale(0.08 -0.08)">
       <use xlink:href="#Ubuntu-33"/>
       <use xlink:href="#Ubuntu-34" x="56.399994"/>
       <use xlink:href="#Ubuntu-30" x="112.799988"/>
       <use xlink:href="#Ubuntu-30" x="169.199982"/>
       <use xlink:href="#Ubuntu-30" x="225.599976"/>
      </g>
     </g>
    </g>
    <g id="ytick_6">
     <g id="line2d_6">
      <g>
       <use xlink:href="#mfdadcbe488" x="54.410938" y="10.30375" style="fill: #cccccc; stroke: #cccccc; stroke-width: 0.75"/>
      </g>
     </g>
     <g id="text_37">
      <!-- 35000 -->
      <g style="fill: #808080" transform="translate(23.848438 13.4075) scale(0.08 -0.08)">
       <use xlink:href="#Ubuntu-33"/>
       <use xlink:href="#Ubuntu-35" x="56.399994"/>
       <use xlink:href="#Ubuntu-30" x="112.799988"/>
       <use xlink:href="#Ubuntu-30" x="169.199982"/>
       <use xlink:href="#Ubuntu-30" x="225.599976"/>
      </g>
     </g>
    </g>
    <g id="text_38">
     <!-- Target -->
     <g style="fill: #505050" transform="translate(14.156719 38.44) rotate(-90) scale(0.09 -0.09)">
      <defs>
       <path id="Ubuntu-Bold-54" d="M 3802 4435 
L 3802 3584 
L 2464 3584 
L 2464 0 
L 1466 0 
L 1466 3584 
L 128 3584 
L 128 4435 
L 3802 4435 
z
" transform="scale(0.015625)"/>
       <path id="Ubuntu-Bold-61" d="M 1734 666 
Q 1875 666 2003 672 
Q 2131 678 2208 691 
L 2208 1414 
Q 2150 1427 2035 1440 
Q 1920 1453 1824 1453 
Q 1690 1453 1571 1437 
Q 1453 1421 1363 1376 
Q 1274 1331 1222 1254 
Q 1171 1178 1171 1062 
Q 1171 838 1321 752 
Q 1472 666 1734 666 
z
M 1658 3456 
Q 2080 3456 2361 3360 
Q 2643 3264 2812 3085 
Q 2982 2906 3052 2650 
Q 3123 2394 3123 2080 
L 3123 96 
Q 2918 51 2553 -9 
Q 2189 -70 1670 -70 
Q 1344 -70 1078 -12 
Q 813 45 621 176 
Q 429 307 326 518 
Q 224 730 224 1037 
Q 224 1331 342 1536 
Q 461 1741 659 1862 
Q 858 1984 1114 2038 
Q 1370 2093 1645 2093 
Q 1830 2093 1974 2077 
Q 2118 2061 2208 2035 
L 2208 2125 
Q 2208 2368 2061 2515 
Q 1914 2662 1549 2662 
Q 1306 2662 1069 2627 
Q 832 2592 659 2528 
L 538 3296 
Q 621 3322 745 3350 
Q 870 3379 1017 3401 
Q 1165 3424 1328 3440 
Q 1491 3456 1658 3456 
z
" transform="scale(0.015625)"/>
       <path id="Ubuntu-Bold-72" d="M 2477 2522 
Q 2349 2554 2176 2589 
Q 2003 2624 1805 2624 
Q 1715 2624 1590 2608 
Q 1466 2592 1402 2573 
L 1402 0 
L 448 0 
L 448 3187 
Q 704 3277 1053 3357 
Q 1402 3437 1830 3437 
Q 1907 3437 2016 3427 
Q 2125 3418 2233 3402 
Q 2342 3386 2451 3363 
Q 2560 3341 2637 3309 
L 2477 2522 
z
" transform="scale(0.015625)"/>
       <path id="Ubuntu-Bold-67" d="M 1261 1792 
Q 1261 992 1907 992 
Q 2054 992 2182 1030 
Q 2310 1069 2400 1120 
L 2400 2643 
Q 2330 2656 2234 2665 
Q 2138 2675 2010 2675 
Q 1632 2675 1446 2425 
Q 1261 2176 1261 1792 
z
M 3354 422 
Q 3354 -403 2934 -803 
Q 2515 -1203 1638 -1203 
Q 1331 -1203 1024 -1148 
Q 717 -1094 454 -1005 
L 621 -205 
Q 845 -294 1091 -345 
Q 1338 -397 1651 -397 
Q 2061 -397 2230 -217 
Q 2400 -38 2400 243 
L 2400 365 
Q 2246 294 2083 259 
Q 1920 224 1728 224 
Q 1030 224 659 637 
Q 288 1050 288 1792 
Q 288 2163 403 2467 
Q 518 2771 739 2988 
Q 960 3206 1280 3324 
Q 1600 3443 2003 3443 
Q 2176 3443 2358 3427 
Q 2541 3411 2720 3385 
Q 2899 3360 3062 3325 
Q 3226 3290 3354 3251 
L 3354 422 
z
" transform="scale(0.015625)"/>
       <path id="Ubuntu-Bold-65" d="M 288 1658 
Q 288 2106 425 2442 
Q 563 2778 787 3002 
Q 1011 3226 1302 3341 
Q 1594 3456 1901 3456 
Q 2618 3456 3034 3017 
Q 3450 2579 3450 1728 
Q 3450 1645 3443 1545 
Q 3437 1446 3430 1370 
L 1267 1370 
Q 1299 1075 1542 902 
Q 1786 730 2195 730 
Q 2458 730 2710 778 
Q 2963 826 3123 896 
L 3251 122 
Q 3174 83 3046 44 
Q 2918 6 2761 -22 
Q 2605 -51 2425 -70 
Q 2246 -90 2067 -90 
Q 1613 -90 1277 44 
Q 941 179 720 412 
Q 499 646 393 966 
Q 288 1286 288 1658 
z
M 2528 2022 
Q 2522 2144 2486 2259 
Q 2451 2374 2377 2464 
Q 2304 2554 2192 2611 
Q 2080 2669 1914 2669 
Q 1754 2669 1638 2614 
Q 1523 2560 1446 2470 
Q 1370 2381 1328 2262 
Q 1286 2144 1267 2022 
L 2528 2022 
z
" transform="scale(0.015625)"/>
       <path id="Ubuntu-Bold-74" d="M 416 4205 
L 1370 4358 
L 1370 3366 
L 2515 3366 
L 2515 2573 
L 1370 2573 
L 1370 1389 
Q 1370 1088 1475 909 
Q 1581 730 1901 730 
Q 2054 730 2217 758 
Q 2381 787 2515 838 
L 2650 96 
Q 2477 26 2265 -25 
Q 2054 -77 1747 -77 
Q 1357 -77 1101 28 
Q 845 134 691 323 
Q 538 512 477 781 
Q 416 1050 416 1376 
L 416 4205 
z
" transform="scale(0.015625)"/>
      </defs>
      <use xlink:href="#Ubuntu-Bold-54"/>
      <use xlink:href="#Ubuntu-Bold-61" x="53.899994"/>
      <use xlink:href="#Ubuntu-Bold-72" x="109.199982"/>
      <use xlink:href="#Ubuntu-Bold-67" x="150.399979"/>
      <use xlink:href="#Ubuntu-Bold-65" x="209.799973"/>
      <use xlink:href="#Ubuntu-Bold-74" x="268.199966"/>
     </g>
    </g>
   </g>
   <g id="patch_3">
    <path d="M 63.787408 786.46375 
L 75.154864 786.46375 
L 75.154864 91.573871 
L 63.787408 91.573871 
z
" clip-path="url(#p1d4fcc3e99)" style="fill: #707070; stroke: #fefefe; stroke-linejoin: miter"/>
   </g>
   <g id="patch_4">
    <path d="M 77.996728 786.46375 
L 89.364184 786.46375 
L 89.364184 92.040021 
L 77.996728 92.040021 
z
" clip-path="url(#p1d4fcc3e99)" style="fill: #707070; stroke: #fefefe; stroke-linejoin: miter"/>
   </g>
   <g id="patch_5">
    <path d="M 92.206048 786.46375 
L 103.573504 786.46375 
L 103.573504 75.38119 
L 92.206048 75.38119 
z
" clip-path="url(#p1d4fcc3e99)" style="fill: #707070; stroke: #fefefe; stroke-linejoin: miter"/>
   </g>
   <g id="patch_6">
    <path d="M 106.415368 786.46375 
L 117.782824 786.46375 
L 117.782824 85.18484 
L 106.415368 85.18484 
z
" clip-path="url(#p1d4fcc3e99)" style="fill: #707070; stroke: #fefefe; stroke-linejoin: miter"/>
   </g>
   <g id="patch_7">
    <path d="M 120.624688 786.46375 
L 131.992145 786.46375 
L 131.992145 83.600175 
L 120.624688 83.600175 
z
" clip-path="url(#p1d4fcc3e99)" style="fill: #707070; stroke: #fefefe; stroke-linejoin: miter"/>
   </g>
   <g id="patch_8">
    <path d="M 134.834009 786.46375 
L 146.201465 786.46375 
L 146.201465 66.472167 
L 134.834009 66.472167 
z
" clip-path="url(#p1d4fcc3e99)" style="fill: #707070; stroke: #fefefe; stroke-linejoin: miter"/>
   </g>
   <g id="patch_9">
    <path d="M 149.043329 786.46375 
L 160.410785 786.46375 
L 160.410785 84.087237 
L 149.043329 84.087237 
z
" clip-path="url(#p1d4fcc3e99)" style="fill: #707070; stroke: #fefefe; stroke-linejoin: miter"/>
   </g>
   <g id="patch_10">
    <path d="M 163.252649 786.46375 
L 174.620105 786.46375 
L 174.620105 70.034441 
L 163.252649 70.034441 
z
" clip-path="url(#p1d4fcc3e99)" style="fill: #707070; stroke: #fefefe; stroke-linejoin: miter"/>
   </g>
   <g id="patch_11">
    <path d="M 177.461969 786.46375 
L 188.829425 786.46375 
L 188.829425 83.860924 
L 177.461969 83.860924 
z
" clip-path="url(#p1d4fcc3e99)" style="fill: #707070; stroke: #fefefe; stroke-linejoin: miter"/>
   </g>
   <g id="patch_12">
    <path d="M 191.671289 786.46375 
L 203.038745 786.46375 
L 203.038745 61.006838 
L 191.671289 61.006838 
z
" clip-path="url(#p1d4fcc3e99)" style="fill: #707070; stroke: #fefefe; stroke-linejoin: miter"/>
   </g>
   <g id="patch_13">
    <path d="M 205.880609 786.46375 
L 217.248065 786.46375 
L 217.248065 67.560827 
L 205.880609 67.560827 
z
" clip-path="url(#p1d4fcc3e99)" style="fill: #707070; stroke: #fefefe; stroke-linejoin: miter"/>
   </g>
   <g id="patch_14">
    <path d="M 220.089929 786.46375 
L 231.457385 786.46375 
L 231.457385 64.565578 
L 220.089929 64.565578 
z
" clip-path="url(#p1d4fcc3e99)" style="fill: #707070; stroke: #fefefe; stroke-linejoin: miter"/>
   </g>
   <g id="patch_15">
    <path d="M 234.299249 786.46375 
L 245.666705 786.46375 
L 245.666705 54.753871 
L 234.299249 54.753871 
z
" clip-path="url(#p1d4fcc3e99)" style="fill: #707070; stroke: #fefefe; stroke-linejoin: miter"/>
   </g>
   <g id="patch_16">
    <path d="M 248.508569 786.46375 
L 259.876025 786.46375 
L 259.876025 81.19505 
L 248.508569 81.19505 
z
" clip-path="url(#p1d4fcc3e99)" style="fill: #707070; stroke: #fefefe; stroke-linejoin: miter"/>
   </g>
   <g id="patch_17">
    <path d="M 262.717889 786.46375 
L 274.085345 786.46375 
L 274.085345 73.928123 
L 262.717889 73.928123 
z
" clip-path="url(#p1d4fcc3e99)" style="fill: #707070; stroke: #fefefe; stroke-linejoin: miter"/>
   </g>
   <g id="patch_18">
    <path d="M 276.927209 786.46375 
L 288.294666 786.46375 
L 288.294666 67.841341 
L 276.927209 67.841341 
z
" clip-path="url(#p1d4fcc3e99)" style="fill: #707070; stroke: #fefefe; stroke-linejoin: miter"/>
   </g>
   <g id="patch_19">
    <path d="M 291.13653 786.46375 
L 302.503986 786.46375 
L 302.503986 51.863095 
L 291.13653 51.863095 
z
" clip-path="url(#p1d4fcc3e99)" style="fill: #707070; stroke: #fefefe; stroke-linejoin: miter"/>
   </g>
   <g id="patch_20">
    <path d="M 305.34585 786.46375 
L 316.713306 786.46375 
L 316.713306 53.434738 
L 305.34585 53.434738 
z
" clip-path="url(#p1d4fcc3e99)" style="fill: #707070; stroke: #fefefe; stroke-linejoin: miter"/>
   </g>
   <g id="patch_21">
    <path d="M 319.55517 786.46375 
L 330.922626 786.46375 
L 330.922626 56.188965 
L 319.55517 56.188965 
z
" clip-path="url(#p1d4fcc3e99)" style="fill: #707070; stroke: #fefefe; stroke-linejoin: miter"/>
   </g>
   <g id="patch_22">
    <path d="M 333.76449 786.46375 
L 345.131946 786.46375 
L 345.131946 59.916613 
L 333.76449 59.916613 
z
" clip-path="url(#p1d4fcc3e99)" style="fill: #707070; stroke: #fefefe; stroke-linejoin: miter"/>
   </g>
   <g id="patch_23">
    <path d="M 347.97381 786.46375 
L 359.341266 786.46375 
L 359.341266 53.231903 
L 347.97381 53.231903 
z
" clip-path="url(#p1d4fcc3e99)" style="fill: #707070; stroke: #fefefe; stroke-linejoin: miter"/>
   </g>
   <g id="patch_24">
    <path d="M 362.18313 786.46375 
L 373.550586 786.46375 
L 373.550586 55.42683 
L 362.18313 55.42683 
z
" clip-path="url(#p1d4fcc3e99)" style="fill: #707070; stroke: #fefefe; stroke-linejoin: miter"/>
   </g>
   <g id="patch_25">
    <path d="M 376.39245 786.46375 
L 387.759906 786.46375 
L 387.759906 58.354595 
L 376.39245 58.354595 
z
" clip-path="url(#p1d4fcc3e99)" style="fill: #707070; stroke: #fefefe; stroke-linejoin: miter"/>
   </g>
   <g id="patch_26">
    <path d="M 390.60177 786.46375 
L 401.969226 786.46375 
L 401.969226 49.270489 
L 390.60177 49.270489 
z
" clip-path="url(#p1d4fcc3e99)" style="fill: #707070; stroke: #fefefe; stroke-linejoin: miter"/>
   </g>
   <g id="patch_27">
    <path d="M 404.81109 786.46375 
L 416.178546 786.46375 
L 416.178546 49.73896 
L 404.81109 49.73896 
z
" clip-path="url(#p1d4fcc3e99)" style="fill: #707070; stroke: #fefefe; stroke-linejoin: miter"/>
   </g>
   <g id="patch_28">
    <path d="M 419.02041 786.46375 
L 430.387866 786.46375 
L 430.387866 66.164305 
L 419.02041 66.164305 
z
" clip-path="url(#p1d4fcc3e99)" style="fill: #707070; stroke: #fefefe; stroke-linejoin: miter"/>
   </g>
   <g id="patch_29">
    <path d="M 433.22973 786.46375 
L 444.597187 786.46375 
L 444.597187 62.825476 
L 433.22973 62.825476 
z
" clip-path="url(#p1d4fcc3e99)" style="fill: #707070; stroke: #fefefe; stroke-linejoin: miter"/>
   </g>
   <g id="patch_30">
    <path d="M 447.439051 786.46375 
L 458.806507 786.46375 
L 458.806507 66.056355 
L 447.439051 66.056355 
z
" clip-path="url(#p1d4fcc3e99)" style="fill: #707070; stroke: #fefefe; stroke-linejoin: miter"/>
   </g>
   <g id="patch_31">
    <path d="M 461.648371 786.46375 
L 473.015827 786.46375 
L 473.015827 54.623614 
L 461.648371 54.623614 
z
" clip-path="url(#p1d4fcc3e99)" style="fill: #707070; stroke: #fefefe; stroke-linejoin: miter"/>
   </g>
   <g id="patch_32">
    <path d="M 475.857691 786.46375 
L 487.225147 786.46375 
L 487.225147 68.069448 
L 475.857691 68.069448 
z
" clip-path="url(#p1d4fcc3e99)" style="fill: #707070; stroke: #fefefe; stroke-linejoin: miter"/>
   </g>
   <g id="patch_33">
    <path d="M 490.067011 786.46375 
L 501.434467 786.46375 
L 501.434467 35.399655 
L 490.067011 35.399655 
z
" clip-path="url(#p1d4fcc3e99)" style="fill: #707070; stroke: #fefefe; stroke-linejoin: miter"/>
   </g>
   <g id="line2d_7">
    <path d="M 69.471136 100.981448 
L 69.471136 82.214116 
" clip-path="url(#p1d4fcc3e99)" style="fill: none; stroke: #505050; stroke-width: 1.8; stroke-linecap: square"/>
   </g>
   <g id="line2d_8">
    <path d="M 83.680456 101.552786 
L 83.680456 82.494222 
" clip-path="url(#p1d4fcc3e99)" style="fill: none; stroke: #505050; stroke-width: 1.8; stroke-linecap: square"/>
   </g>
   <g id="line2d_9">
    <path d="M 97.889776 85.006276 
L 97.889776 66.346851 
" clip-path="url(#p1d4fcc3e99)" style="fill: none; stroke: #505050; stroke-width: 1.8; stroke-linecap: square"/>
   </g>
   <g id="line2d_10">
    <path d="M 112.099096 94.66803 
L 112.099096 75.593654 
" clip-path="url(#p1d4fcc3e99)" style="fill: none; stroke: #505050; stroke-width: 1.8; stroke-linecap: square"/>
   </g>
   <g id="line2d_11">
    <path d="M 126.308416 93.803846 
L 126.308416 73.898957 
" clip-path="url(#p1d4fcc3e99)" style="fill: none; stroke: #505050; stroke-width: 1.8; stroke-linecap: square"/>
   </g>
   <g id="line2d_12">
    <path d="M 140.517737 76.264482 
L 140.517737 55.990407 
" clip-path="url(#p1d4fcc3e99)" style="fill: none; stroke: #505050; stroke-width: 1.8; stroke-linecap: square"/>
   </g>
   <g id="line2d_13">
    <path d="M 154.727057 93.667346 
L 154.727057 74.746177 
" clip-path="url(#p1d4fcc3e99)" style="fill: none; stroke: #505050; stroke-width: 1.8; stroke-linecap: square"/>
   </g>
   <g id="line2d_14">
    <path d="M 168.936377 79.494101 
L 168.936377 60.831854 
" clip-path="url(#p1d4fcc3e99)" style="fill: none; stroke: #505050; stroke-width: 1.8; stroke-linecap: square"/>
   </g>
   <g id="line2d_15">
    <path d="M 183.145697 93.089652 
L 183.145697 74.543599 
" clip-path="url(#p1d4fcc3e99)" style="fill: none; stroke: #505050; stroke-width: 1.8; stroke-linecap: square"/>
   </g>
   <g id="line2d_16">
    <path d="M 197.355017 70.22032 
L 197.355017 52.198974 
" clip-path="url(#p1d4fcc3e99)" style="fill: none; stroke: #505050; stroke-width: 1.8; stroke-linecap: square"/>
   </g>
   <g id="line2d_17">
    <path d="M 211.564337 77.510217 
L 211.564337 57.906267 
" clip-path="url(#p1d4fcc3e99)" style="fill: none; stroke: #505050; stroke-width: 1.8; stroke-linecap: square"/>
   </g>
   <g id="line2d_18">
    <path d="M 225.773657 75.05732 
L 225.773657 54.233097 
" clip-path="url(#p1d4fcc3e99)" style="fill: none; stroke: #505050; stroke-width: 1.8; stroke-linecap: square"/>
   </g>
   <g id="line2d_19">
    <path d="M 239.982977 63.903374 
L 239.982977 45.571458 
" clip-path="url(#p1d4fcc3e99)" style="fill: none; stroke: #505050; stroke-width: 1.8; stroke-linecap: square"/>
   </g>
   <g id="line2d_20">
    <path d="M 254.192297 89.509034 
L 254.192297 72.297357 
" clip-path="url(#p1d4fcc3e99)" style="fill: none; stroke: #505050; stroke-width: 1.8; stroke-linecap: square"/>
   </g>
   <g id="line2d_21">
    <path d="M 268.401617 84.44579 
L 268.401617 63.557346 
" clip-path="url(#p1d4fcc3e99)" style="fill: none; stroke: #505050; stroke-width: 1.8; stroke-linecap: square"/>
   </g>
   <g id="line2d_22">
    <path d="M 282.610938 77.654633 
L 282.610938 58.148024 
" clip-path="url(#p1d4fcc3e99)" style="fill: none; stroke: #505050; stroke-width: 1.8; stroke-linecap: square"/>
   </g>
   <g id="line2d_23">
    <path d="M 296.820258 61.871172 
L 296.820258 41.945146 
" clip-path="url(#p1d4fcc3e99)" style="fill: none; stroke: #505050; stroke-width: 1.8; stroke-linecap: square"/>
   </g>
   <g id="line2d_24">
    <path d="M 311.029578 63.466471 
L 311.029578 43.235567 
" clip-path="url(#p1d4fcc3e99)" style="fill: none; stroke: #505050; stroke-width: 1.8; stroke-linecap: square"/>
   </g>
   <g id="line2d_25">
    <path d="M 325.238898 67.055756 
L 325.238898 46.182297 
" clip-path="url(#p1d4fcc3e99)" style="fill: none; stroke: #505050; stroke-width: 1.8; stroke-linecap: square"/>
   </g>
   <g id="line2d_26">
    <path d="M 339.448218 69.728588 
L 339.448218 50.168473 
" clip-path="url(#p1d4fcc3e99)" style="fill: none; stroke: #505050; stroke-width: 1.8; stroke-linecap: square"/>
   </g>
   <g id="line2d_27">
    <path d="M 353.657538 62.436796 
L 353.657538 43.797002 
" clip-path="url(#p1d4fcc3e99)" style="fill: none; stroke: #505050; stroke-width: 1.8; stroke-linecap: square"/>
   </g>
   <g id="line2d_28">
    <path d="M 367.866858 65.251029 
L 367.866858 45.274595 
" clip-path="url(#p1d4fcc3e99)" style="fill: none; stroke: #505050; stroke-width: 1.8; stroke-linecap: square"/>
   </g>
   <g id="line2d_29">
    <path d="M 382.076178 69.142667 
L 382.076178 48.287294 
" clip-path="url(#p1d4fcc3e99)" style="fill: none; stroke: #505050; stroke-width: 1.8; stroke-linecap: square"/>
   </g>
   <g id="line2d_30">
    <path d="M 396.285498 59.504275 
L 396.285498 38.91412 
" clip-path="url(#p1d4fcc3e99)" style="fill: none; stroke: #505050; stroke-width: 1.8; stroke-linecap: square"/>
   </g>
   <g id="line2d_31">
    <path d="M 410.494818 60.28692 
L 410.494818 39.154692 
" clip-path="url(#p1d4fcc3e99)" style="fill: none; stroke: #505050; stroke-width: 1.8; stroke-linecap: square"/>
   </g>
   <g id="line2d_32">
    <path d="M 424.704138 76.382904 
L 424.704138 56.627007 
" clip-path="url(#p1d4fcc3e99)" style="fill: none; stroke: #505050; stroke-width: 1.8; stroke-linecap: square"/>
   </g>
   <g id="line2d_33">
    <path d="M 438.913459 72.099428 
L 438.913459 52.779278 
" clip-path="url(#p1d4fcc3e99)" style="fill: none; stroke: #505050; stroke-width: 1.8; stroke-linecap: square"/>
   </g>
   <g id="line2d_34">
    <path d="M 453.122779 76.007636 
L 453.122779 56.713492 
" clip-path="url(#p1d4fcc3e99)" style="fill: none; stroke: #505050; stroke-width: 1.8; stroke-linecap: square"/>
   </g>
   <g id="line2d_35">
    <path d="M 467.332099 65.542989 
L 467.332099 43.54681 
" clip-path="url(#p1d4fcc3e99)" style="fill: none; stroke: #505050; stroke-width: 1.8; stroke-linecap: square"/>
   </g>
   <g id="line2d_36">
    <path d="M 481.541419 78.236523 
L 481.541419 57.832925 
" clip-path="url(#p1d4fcc3e99)" style="fill: none; stroke: #505050; stroke-width: 1.8; stroke-linecap: square"/>
   </g>
   <g id="line2d_37">
    <path d="M 495.750739 48.27686 
L 495.750739 22.718895 
" clip-path="url(#p1d4fcc3e99)" style="fill: none; stroke: #505050; stroke-width: 1.8; stroke-linecap: square"/>
   </g>
   <g id="patch_34">
    <path d="M 54.410938 121.18375 
L 54.410938 10.30375 
" style="fill: none; stroke: #cccccc; stroke-width: 0.75; stroke-linejoin: miter; stroke-linecap: square"/>
   </g>
   <g id="patch_35">
    <path d="M 69.471136 131.18375 
L 495.750739 131.18375 
" style="fill: none; stroke: #cccccc; stroke-width: 0.75; stroke-linejoin: miter; stroke-linecap: square"/>
   </g>
   <g id="text_39">
    <!-- 1008 -->
    <g style="fill: #fefefe" transform="translate(72.646847 115.63975) rotate(-90) scale(0.08 -0.08)">
     <defs>
      <path id="Ubuntu-Bold-31" d="M 448 3514 
Q 634 3590 835 3689 
Q 1037 3789 1229 3907 
Q 1421 4026 1597 4157 
Q 1773 4288 1914 4435 
L 2579 4435 
L 2579 0 
L 1626 0 
L 1626 3194 
Q 1434 3066 1197 2960 
Q 960 2854 736 2778 
L 448 3514 
z
" transform="scale(0.015625)"/>
      <path id="Ubuntu-Bold-30" d="M 3418 2227 
Q 3418 1107 2992 508 
Q 2566 -90 1818 -90 
Q 1069 -90 643 508 
Q 218 1107 218 2227 
Q 218 2784 330 3213 
Q 442 3642 653 3936 
Q 864 4230 1158 4384 
Q 1453 4538 1818 4538 
Q 2566 4538 2992 3939 
Q 3418 3341 3418 2227 
z
M 2445 2227 
Q 2445 2560 2413 2832 
Q 2381 3104 2310 3302 
Q 2240 3501 2118 3609 
Q 1997 3718 1818 3718 
Q 1638 3718 1520 3609 
Q 1402 3501 1328 3302 
Q 1254 3104 1222 2832 
Q 1190 2560 1190 2227 
Q 1190 1894 1222 1619 
Q 1254 1344 1328 1145 
Q 1402 947 1520 838 
Q 1638 730 1818 730 
Q 1997 730 2118 838 
Q 2240 947 2310 1145 
Q 2381 1344 2413 1619 
Q 2445 1894 2445 2227 
z
" transform="scale(0.015625)"/>
      <path id="Ubuntu-Bold-38" d="M 3392 1235 
Q 3392 947 3293 707 
Q 3194 467 2995 288 
Q 2797 109 2499 9 
Q 2202 -90 1811 -90 
Q 1363 -90 1065 35 
Q 768 160 585 345 
Q 403 531 326 752 
Q 250 973 250 1158 
Q 250 1350 301 1510 
Q 352 1670 441 1801 
Q 531 1933 643 2041 
Q 755 2150 883 2246 
Q 608 2470 477 2688 
Q 346 2906 346 3245 
Q 346 3501 451 3737 
Q 557 3974 749 4150 
Q 941 4326 1213 4432 
Q 1485 4538 1818 4538 
Q 2208 4538 2486 4426 
Q 2765 4314 2944 4141 
Q 3123 3968 3203 3753 
Q 3283 3539 3283 3328 
Q 3283 3021 3120 2755 
Q 2957 2490 2714 2336 
Q 3078 2099 3235 1840 
Q 3392 1581 3392 1235 
z
M 1178 1197 
Q 1178 1120 1213 1027 
Q 1248 934 1325 857 
Q 1402 781 1523 729 
Q 1645 678 1818 678 
Q 2150 678 2304 838 
Q 2458 998 2458 1197 
Q 2458 1344 2390 1459 
Q 2323 1574 2208 1660 
Q 2093 1747 1936 1814 
Q 1779 1882 1600 1939 
Q 1421 1805 1299 1625 
Q 1178 1446 1178 1197 
z
M 2362 3302 
Q 2362 3373 2333 3453 
Q 2304 3533 2237 3603 
Q 2170 3674 2067 3722 
Q 1965 3770 1818 3770 
Q 1677 3770 1574 3725 
Q 1472 3680 1405 3606 
Q 1338 3533 1306 3449 
Q 1274 3366 1274 3290 
Q 1274 3085 1424 2905 
Q 1574 2726 1939 2598 
Q 2144 2726 2253 2892 
Q 2362 3059 2362 3302 
z
" transform="scale(0.015625)"/>
     </defs>
     <use xlink:href="#Ubuntu-Bold-31"/>
     <use xlink:href="#Ubuntu-Bold-30" x="56.799988"/>
     <use xlink:href="#Ubuntu-Bold-30" x="113.599976"/>
     <use xlink:href="#Ubuntu-Bold-38" x="170.399963"/>
    </g>
   </g>
   <g id="text_40">
    <!-- 1008 -->
    <g style="fill: #fefefe" transform="translate(86.856167 115.63975) rotate(-90) scale(0.08 -0.08)">
     <use xlink:href="#Ubuntu-Bold-31"/>
     <use xlink:href="#Ubuntu-Bold-30" x="56.799988"/>
     <use xlink:href="#Ubuntu-Bold-30" x="113.599976"/>
     <use xlink:href="#Ubuntu-Bold-38" x="170.399963"/>
    </g>
   </g>
   <g id="text_41">
    <!-- 1008 -->
    <g style="fill: #fefefe" transform="translate(101.065487 115.63975) rotate(-90) scale(0.08 -0.08)">
     <use xlink:href="#Ubuntu-Bold-31"/>
     <use xlink:href="#Ubuntu-Bold-30" x="56.799988"/>
     <use xlink:href="#Ubuntu-Bold-30" x="113.599976"/>
     <use xlink:href="#Ubuntu-Bold-38" x="170.399963"/>
    </g>
   </g>
   <g id="text_42">
    <!-- 1008 -->
    <g style="fill: #fefefe" transform="translate(115.274808 115.63975) rotate(-90) scale(0.08 -0.08)">
     <use xlink:href="#Ubuntu-Bold-31"/>
     <use xlink:href="#Ubuntu-Bold-30" x="56.799988"/>
     <use xlink:href="#Ubuntu-Bold-30" x="113.599976"/>
     <use xlink:href="#Ubuntu-Bold-38" x="170.399963"/>
    </g>
   </g>
   <g id="text_43">
    <!-- 1008 -->
    <g style="fill: #fefefe" transform="translate(129.484128 115.63975) rotate(-90) scale(0.08 -0.08)">
     <use xlink:href="#Ubuntu-Bold-31"/>
     <use xlink:href="#Ubuntu-Bold-30" x="56.799988"/>
     <use xlink:href="#Ubuntu-Bold-30" x="113.599976"/>
     <use xlink:href="#Ubuntu-Bold-38" x="170.399963"/>
    </g>
   </g>
   <g id="text_44">
    <!-- 1008 -->
    <g style="fill: #fefefe" transform="translate(143.693448 115.63975) rotate(-90) scale(0.08 -0.08)">
     <use xlink:href="#Ubuntu-Bold-31"/>
     <use xlink:href="#Ubuntu-Bold-30" x="56.799988"/>
     <use xlink:href="#Ubuntu-Bold-30" x="113.599976"/>
     <use xlink:href="#Ubuntu-Bold-38" x="170.399963"/>
    </g>
   </g>
   <g id="text_45">
    <!-- 1008 -->
    <g style="fill: #fefefe" transform="translate(157.902768 115.63975) rotate(-90) scale(0.08 -0.08)">
     <use xlink:href="#Ubuntu-Bold-31"/>
     <use xlink:href="#Ubuntu-Bold-30" x="56.799988"/>
     <use xlink:href="#Ubuntu-Bold-30" x="113.599976"/>
     <use xlink:href="#Ubuntu-Bold-38" x="170.399963"/>
    </g>
   </g>
   <g id="text_46">
    <!-- 1008 -->
    <g style="fill: #fefefe" transform="translate(172.112088 115.63975) rotate(-90) scale(0.08 -0.08)">
     <use xlink:href="#Ubuntu-Bold-31"/>
     <use xlink:href="#Ubuntu-Bold-30" x="56.799988"/>
     <use xlink:href="#Ubuntu-Bold-30" x="113.599976"/>
     <use xlink:href="#Ubuntu-Bold-38" x="170.399963"/>
    </g>
   </g>
   <g id="text_47">
    <!-- 1008 -->
    <g style="fill: #fefefe" transform="translate(186.321408 115.63975) rotate(-90) scale(0.08 -0.08)">
     <use xlink:href="#Ubuntu-Bold-31"/>
     <use xlink:href="#Ubuntu-Bold-30" x="56.799988"/>
     <use xlink:href="#Ubuntu-Bold-30" x="113.599976"/>
     <use xlink:href="#Ubuntu-Bold-38" x="170.399963"/>
    </g>
   </g>
   <g id="text_48">
    <!-- 1008 -->
    <g style="fill: #fefefe" transform="translate(200.530728 115.63975) rotate(-90) scale(0.08 -0.08)">
     <use xlink:href="#Ubuntu-Bold-31"/>
     <use xlink:href="#Ubuntu-Bold-30" x="56.799988"/>
     <use xlink:href="#Ubuntu-Bold-30" x="113.599976"/>
     <use xlink:href="#Ubuntu-Bold-38" x="170.399963"/>
    </g>
   </g>
   <g id="text_49">
    <!-- 1008 -->
    <g style="fill: #fefefe" transform="translate(214.740048 115.63975) rotate(-90) scale(0.08 -0.08)">
     <use xlink:href="#Ubuntu-Bold-31"/>
     <use xlink:href="#Ubuntu-Bold-30" x="56.799988"/>
     <use xlink:href="#Ubuntu-Bold-30" x="113.599976"/>
     <use xlink:href="#Ubuntu-Bold-38" x="170.399963"/>
    </g>
   </g>
   <g id="text_50">
    <!-- 1008 -->
    <g style="fill: #fefefe" transform="translate(228.949368 115.63975) rotate(-90) scale(0.08 -0.08)">
     <use xlink:href="#Ubuntu-Bold-31"/>
     <use xlink:href="#Ubuntu-Bold-30" x="56.799988"/>
     <use xlink:href="#Ubuntu-Bold-30" x="113.599976"/>
     <use xlink:href="#Ubuntu-Bold-38" x="170.399963"/>
    </g>
   </g>
   <g id="text_51">
    <!-- 1008 -->
    <g style="fill: #fefefe" transform="translate(243.158688 115.63975) rotate(-90) scale(0.08 -0.08)">
     <use xlink:href="#Ubuntu-Bold-31"/>
     <use xlink:href="#Ubuntu-Bold-30" x="56.799988"/>
     <use xlink:href="#Ubuntu-Bold-30" x="113.599976"/>
     <use xlink:href="#Ubuntu-Bold-38" x="170.399963"/>
    </g>
   </g>
   <g id="text_52">
    <!-- 1008 -->
    <g style="fill: #fefefe" transform="translate(257.368008 115.63975) rotate(-90) scale(0.08 -0.08)">
     <use xlink:href="#Ubuntu-Bold-31"/>
     <use xlink:href="#Ubuntu-Bold-30" x="56.799988"/>
     <use xlink:href="#Ubuntu-Bold-30" x="113.599976"/>
     <use xlink:href="#Ubuntu-Bold-38" x="170.399963"/>
    </g>
   </g>
   <g id="text_53">
    <!-- 1008 -->
    <g style="fill: #fefefe" transform="translate(271.577329 115.63975) rotate(-90) scale(0.08 -0.08)">
     <use xlink:href="#Ubuntu-Bold-31"/>
     <use xlink:href="#Ubuntu-Bold-30" x="56.799988"/>
     <use xlink:href="#Ubuntu-Bold-30" x="113.599976"/>
     <use xlink:href="#Ubuntu-Bold-38" x="170.399963"/>
    </g>
   </g>
   <g id="text_54">
    <!-- 1008 -->
    <g style="fill: #fefefe" transform="translate(285.786649 115.63975) rotate(-90) scale(0.08 -0.08)">
     <use xlink:href="#Ubuntu-Bold-31"/>
     <use xlink:href="#Ubuntu-Bold-30" x="56.799988"/>
     <use xlink:href="#Ubuntu-Bold-30" x="113.599976"/>
     <use xlink:href="#Ubuntu-Bold-38" x="170.399963"/>
    </g>
   </g>
   <g id="text_55">
    <!-- 1008 -->
    <g style="fill: #fefefe" transform="translate(299.995969 115.63975) rotate(-90) scale(0.08 -0.08)">
     <use xlink:href="#Ubuntu-Bold-31"/>
     <use xlink:href="#Ubuntu-Bold-30" x="56.799988"/>
     <use xlink:href="#Ubuntu-Bold-30" x="113.599976"/>
     <use xlink:href="#Ubuntu-Bold-38" x="170.399963"/>
    </g>
   </g>
   <g id="text_56">
    <!-- 1008 -->
    <g style="fill: #fefefe" transform="translate(314.205289 115.63975) rotate(-90) scale(0.08 -0.08)">
     <use xlink:href="#Ubuntu-Bold-31"/>
     <use xlink:href="#Ubuntu-Bold-30" x="56.799988"/>
     <use xlink:href="#Ubuntu-Bold-30" x="113.599976"/>
     <use xlink:href="#Ubuntu-Bold-38" x="170.399963"/>
    </g>
   </g>
   <g id="text_57">
    <!-- 1008 -->
    <g style="fill: #fefefe" transform="translate(328.414609 115.63975) rotate(-90) scale(0.08 -0.08)">
     <use xlink:href="#Ubuntu-Bold-31"/>
     <use xlink:href="#Ubuntu-Bold-30" x="56.799988"/>
     <use xlink:href="#Ubuntu-Bold-30" x="113.599976"/>
     <use xlink:href="#Ubuntu-Bold-38" x="170.399963"/>
    </g>
   </g>
   <g id="text_58">
    <!-- 1008 -->
    <g style="fill: #fefefe" transform="translate(342.623929 115.63975) rotate(-90) scale(0.08 -0.08)">
     <use xlink:href="#Ubuntu-Bold-31"/>
     <use xlink:href="#Ubuntu-Bold-30" x="56.799988"/>
     <use xlink:href="#Ubuntu-Bold-30" x="113.599976"/>
     <use xlink:href="#Ubuntu-Bold-38" x="170.399963"/>
    </g>
   </g>
   <g id="text_59">
    <!-- 1008 -->
    <g style="fill: #fefefe" transform="translate(356.833249 115.63975) rotate(-90) scale(0.08 -0.08)">
     <use xlink:href="#Ubuntu-Bold-31"/>
     <use xlink:href="#Ubuntu-Bold-30" x="56.799988"/>
     <use xlink:href="#Ubuntu-Bold-30" x="113.599976"/>
     <use xlink:href="#Ubuntu-Bold-38" x="170.399963"/>
    </g>
   </g>
   <g id="text_60">
    <!-- 1008 -->
    <g style="fill: #fefefe" transform="translate(371.042569 115.63975) rotate(-90) scale(0.08 -0.08)">
     <use xlink:href="#Ubuntu-Bold-31"/>
     <use xlink:href="#Ubuntu-Bold-30" x="56.799988"/>
     <use xlink:href="#Ubuntu-Bold-30" x="113.599976"/>
     <use xlink:href="#Ubuntu-Bold-38" x="170.399963"/>
    </g>
   </g>
   <g id="text_61">
    <!-- 1008 -->
    <g style="fill: #fefefe" transform="translate(385.251889 115.63975) rotate(-90) scale(0.08 -0.08)">
     <use xlink:href="#Ubuntu-Bold-31"/>
     <use xlink:href="#Ubuntu-Bold-30" x="56.799988"/>
     <use xlink:href="#Ubuntu-Bold-30" x="113.599976"/>
     <use xlink:href="#Ubuntu-Bold-38" x="170.399963"/>
    </g>
   </g>
   <g id="text_62">
    <!-- 1008 -->
    <g style="fill: #fefefe" transform="translate(399.461209 115.63975) rotate(-90) scale(0.08 -0.08)">
     <use xlink:href="#Ubuntu-Bold-31"/>
     <use xlink:href="#Ubuntu-Bold-30" x="56.799988"/>
     <use xlink:href="#Ubuntu-Bold-30" x="113.599976"/>
     <use xlink:href="#Ubuntu-Bold-38" x="170.399963"/>
    </g>
   </g>
   <g id="text_63">
    <!-- 1008 -->
    <g style="fill: #fefefe" transform="translate(413.670529 115.63975) rotate(-90) scale(0.08 -0.08)">
     <use xlink:href="#Ubuntu-Bold-31"/>
     <use xlink:href="#Ubuntu-Bold-30" x="56.799988"/>
     <use xlink:href="#Ubuntu-Bold-30" x="113.599976"/>
     <use xlink:href="#Ubuntu-Bold-38" x="170.399963"/>
    </g>
   </g>
   <g id="text_64">
    <!-- 1008 -->
    <g style="fill: #fefefe" transform="translate(427.87985 115.63975) rotate(-90) scale(0.08 -0.08)">
     <use xlink:href="#Ubuntu-Bold-31"/>
     <use xlink:href="#Ubuntu-Bold-30" x="56.799988"/>
     <use xlink:href="#Ubuntu-Bold-30" x="113.599976"/>
     <use xlink:href="#Ubuntu-Bold-38" x="170.399963"/>
    </g>
   </g>
   <g id="text_65">
    <!-- 1008 -->
    <g style="fill: #fefefe" transform="translate(442.08917 115.63975) rotate(-90) scale(0.08 -0.08)">
     <use xlink:href="#Ubuntu-Bold-31"/>
     <use xlink:href="#Ubuntu-Bold-30" x="56.799988"/>
     <use xlink:href="#Ubuntu-Bold-30" x="113.599976"/>
     <use xlink:href="#Ubuntu-Bold-38" x="170.399963"/>
    </g>
   </g>
   <g id="text_66">
    <!-- 1008 -->
    <g style="fill: #fefefe" transform="translate(456.29849 115.63975) rotate(-90) scale(0.08 -0.08)">
     <use xlink:href="#Ubuntu-Bold-31"/>
     <use xlink:href="#Ubuntu-Bold-30" x="56.799988"/>
     <use xlink:href="#Ubuntu-Bold-30" x="113.599976"/>
     <use xlink:href="#Ubuntu-Bold-38" x="170.399963"/>
    </g>
   </g>
   <g id="text_67">
    <!-- 864 -->
    <g style="fill: #fefefe" transform="translate(470.50781 115.63975) rotate(-90) scale(0.08 -0.08)">
     <defs>
      <path id="Ubuntu-Bold-36" d="M 1754 2086 
Q 1613 2086 1453 2060 
Q 1293 2035 1203 1990 
Q 1203 1965 1200 1913 
Q 1197 1862 1197 1824 
Q 1197 1594 1229 1389 
Q 1261 1184 1337 1030 
Q 1414 877 1542 790 
Q 1670 704 1862 704 
Q 2022 704 2134 771 
Q 2246 838 2320 940 
Q 2394 1043 2429 1168 
Q 2464 1293 2464 1408 
Q 2464 1734 2301 1910 
Q 2138 2086 1754 2086 
z
M 1875 2829 
Q 2291 2829 2582 2717 
Q 2874 2605 3059 2413 
Q 3245 2221 3328 1965 
Q 3411 1709 3411 1421 
Q 3411 1165 3318 896 
Q 3226 627 3037 409 
Q 2848 192 2557 51 
Q 2266 -90 1869 -90 
Q 1069 -90 653 416 
Q 237 922 237 1811 
Q 237 2451 435 2944 
Q 634 3437 1002 3773 
Q 1370 4109 1891 4285 
Q 2413 4461 3066 4467 
Q 3078 4269 3091 4080 
Q 3104 3891 3117 3686 
Q 2790 3680 2505 3625 
Q 2221 3571 1987 3456 
Q 1754 3341 1581 3158 
Q 1408 2976 1312 2714 
Q 1453 2778 1600 2803 
Q 1747 2829 1875 2829 
z
" transform="scale(0.015625)"/>
      <path id="Ubuntu-Bold-34" d="M 2042 3270 
Q 1792 2944 1510 2560 
Q 1229 2176 1037 1773 
L 2042 1773 
L 2042 3270 
z
M 2976 4435 
L 2976 1773 
L 3450 1773 
L 3450 992 
L 2976 992 
L 2976 0 
L 2042 0 
L 2042 992 
L 128 992 
L 128 1690 
Q 269 1971 480 2326 
Q 691 2682 950 3056 
Q 1210 3430 1498 3788 
Q 1786 4147 2074 4435 
L 2976 4435 
z
" transform="scale(0.015625)"/>
     </defs>
     <use xlink:href="#Ubuntu-Bold-38"/>
     <use xlink:href="#Ubuntu-Bold-36" x="56.799988"/>
     <use xlink:href="#Ubuntu-Bold-34" x="113.599976"/>
    </g>
   </g>
   <g id="text_68">
    <!-- 864 -->
    <g style="fill: #fefefe" transform="translate(484.71713 115.63975) rotate(-90) scale(0.08 -0.08)">
     <use xlink:href="#Ubuntu-Bold-38"/>
     <use xlink:href="#Ubuntu-Bold-36" x="56.799988"/>
     <use xlink:href="#Ubuntu-Bold-34" x="113.599976"/>
    </g>
   </g>
   <g id="text_69">
    <!-- 576 -->
    <g style="fill: #fefefe" transform="translate(498.92645 115.63975) rotate(-90) scale(0.08 -0.08)">
     <defs>
      <path id="Ubuntu-Bold-35" d="M 2304 1306 
Q 2304 1491 2221 1635 
Q 2138 1779 1933 1875 
Q 1728 1971 1382 2022 
Q 1037 2074 512 2074 
Q 582 2669 627 3283 
Q 672 3898 698 4435 
L 3098 4435 
L 3098 3635 
L 1498 3635 
Q 1485 3405 1469 3190 
Q 1453 2976 1434 2816 
Q 2368 2752 2813 2377 
Q 3258 2003 3258 1338 
Q 3258 1030 3149 768 
Q 3040 506 2822 314 
Q 2605 122 2275 13 
Q 1946 -96 1504 -96 
Q 1331 -96 1142 -73 
Q 954 -51 778 -16 
Q 602 19 461 57 
Q 320 96 243 134 
L 416 922 
Q 576 851 838 784 
Q 1101 717 1466 717 
Q 1907 717 2105 893 
Q 2304 1069 2304 1306 
z
" transform="scale(0.015625)"/>
      <path id="Ubuntu-Bold-37" d="M 909 0 
Q 947 467 1068 972 
Q 1190 1478 1366 1964 
Q 1542 2451 1760 2883 
Q 1978 3315 2202 3629 
L 275 3629 
L 275 4442 
L 3379 4442 
L 3379 3750 
Q 3174 3526 2928 3129 
Q 2682 2733 2461 2230 
Q 2240 1728 2077 1152 
Q 1914 576 1875 0 
L 909 0 
z
" transform="scale(0.015625)"/>
     </defs>
     <use xlink:href="#Ubuntu-Bold-35"/>
     <use xlink:href="#Ubuntu-Bold-37" x="56.799988"/>
     <use xlink:href="#Ubuntu-Bold-36" x="113.599976"/>
    </g>
   </g>
  </g>
 </g>
 <defs>
  <clipPath id="p1d4fcc3e99">
   <rect x="59.410938" y="10.30375" width="446.4" height="110.88"/>
  </clipPath>
 </defs>
</svg>
