<?xml version="1.0" encoding="utf-8" standalone="no"?>
<!DOCTYPE svg PUBLIC "-//W3C//DTD SVG 1.1//EN"
  "http://www.w3.org/Graphics/SVG/1.1/DTD/svg11.dtd">
<svg xmlns:xlink="http://www.w3.org/1999/xlink" width="516.6pt" height="263.919375pt" viewBox="0 0 516.6 263.919375" xmlns="http://www.w3.org/2000/svg" version="1.1">
 <metadata>
  <rdf:RDF xmlns:dc="http://purl.org/dc/elements/1.1/" xmlns:cc="http://creativecommons.org/ns#" xmlns:rdf="http://www.w3.org/1999/02/22-rdf-syntax-ns#">
   <cc:Work>
    <dc:type rdf:resource="http://purl.org/dc/dcmitype/StillImage"/>
    <dc:date>2024-05-16T11:45:05.897224</dc:date>
    <dc:format>image/svg+xml</dc:format>
    <dc:creator>
     <cc:Agent>
      <dc:title>Matplotlib v3.8.3, https://matplotlib.org/</dc:title>
     </cc:Agent>
    </dc:creator>
   </cc:Work>
  </rdf:RDF>
 </metadata>
 <defs>
  <style type="text/css">*{stroke-linejoin: round; stroke-linecap: butt}</style>
 </defs>
 <g id="figure_1">
  <g id="patch_1">
   <path d="M 0 263.919375 
L 516.6 263.919375 
L 516.6 0 
L 0 0 
L 0 263.919375 
z
" style="fill: none"/>
  </g>
  <g id="axes_1">
   <g id="patch_2">
    <path d="M 7.2 113.642394 
L 509.4 113.642394 
L 509.4 29.959375 
L 7.2 29.959375 
L 7.2 113.642394 
z
" style="fill: none"/>
   </g>
   <g id="matplotlib.axis_1">
    <g id="xtick_1"/>
    <g id="xtick_2"/>
    <g id="xtick_3"/>
    <g id="xtick_4"/>
    <g id="xtick_5"/>
    <g id="xtick_6"/>
   </g>
   <g id="matplotlib.axis_2">
    <g id="ytick_1"/>
    <g id="ytick_2"/>
    <g id="ytick_3"/>
    <g id="ytick_4"/>
    <g id="ytick_5"/>
    <g id="ytick_6"/>
    <g id="ytick_7"/>
   </g>
   <g id="line2d_1">
    <path d="M 7.2 113.618372 
L 16.2 113.594131 
L 17.325 113.430666 
L 20.7 113.582978 
L 21.825 113.405738 
L 22.95 113.485673 
L 24.075 113.427464 
L 25.2 113.597881 
L 27.45 113.251796 
L 28.575 113.480856 
L 30.825 113.44738 
L 31.95 112.957603 
L 34.2 113.447814 
L 36.45 113.424705 
L 37.575 112.680499 
L 39.825 111.74502 
L 40.95 111.096226 
L 42.075 91.533707 
L 43.2 111.236932 
L 44.325 112.648225 
L 45.45 112.704092 
L 46.575 112.175485 
L 47.7 112.261522 
L 48.825 113.180275 
L 49.95 113.180142 
L 51.075 113.303393 
L 52.2 112.242882 
L 53.325 112.583829 
L 54.45 113.336082 
L 55.575 113.077391 
L 56.7 113.50671 
L 57.825 113.442177 
L 58.95 113.254988 
L 60.075 112.603238 
L 61.2 112.387279 
L 62.325 113.394194 
L 64.575 113.226491 
L 65.7 111.620481 
L 66.825 111.530043 
L 69.075 112.790129 
L 70.2 112.615068 
L 71.325 110.869849 
L 72.45 110.835103 
L 73.575 109.752659 
L 74.7 107.388602 
L 75.825 104.309043 
L 76.95 64.218288 
L 78.075 109.407433 
L 79.2 109.770212 
L 80.325 109.435227 
L 81.45 109.504826 
L 82.575 111.351428 
L 83.7 112.168266 
L 84.825 112.171547 
L 85.95 111.306631 
L 87.075 112.113108 
L 88.2 111.976307 
L 89.325 111.394388 
L 90.45 112.638775 
L 91.575 112.7513 
L 92.7 111.801523 
L 93.825 112.733616 
L 94.95 111.968643 
L 96.075 112.640924 
L 97.2 112.765002 
L 98.325 111.674337 
L 99.45 113.233096 
L 100.575 111.944553 
L 101.7 112.399428 
L 102.825 111.119865 
L 103.95 112.614659 
L 105.075 112.018164 
L 106.2 112.177773 
L 107.325 110.929886 
L 108.45 110.830354 
L 110.7 102.798077 
L 111.825 56.368846 
L 112.95 108.040727 
L 115.2 108.604273 
L 116.325 108.085333 
L 117.45 107.828272 
L 118.575 111.050076 
L 119.7 112.035127 
L 120.825 111.85902 
L 121.95 111.539805 
L 123.075 112.489449 
L 124.2 111.948436 
L 125.325 112.072282 
L 126.45 113.338702 
L 127.575 112.873412 
L 128.7 112.634618 
L 129.825 111.711116 
L 130.95 113.059787 
L 132.075 113.427002 
L 133.2 112.645897 
L 134.325 112.597066 
L 136.575 112.133881 
L 137.7 112.9248 
L 138.825 113.257927 
L 139.95 112.38506 
L 141.075 107.705207 
L 142.2 111.462565 
L 143.325 109.833207 
L 144.45 107.731612 
L 145.575 107.998563 
L 146.7 50.81396 
L 147.825 106.735658 
L 148.95 106.880771 
L 150.075 107.846027 
L 151.2 112.80483 
L 152.325 110.027485 
L 153.45 112.136356 
L 154.575 112.585967 
L 155.7 106.960936 
L 156.825 110.619018 
L 157.95 108.274407 
L 159.075 109.369675 
L 160.2 112.229361 
L 161.325 110.622706 
L 162.45 109.73214 
L 163.575 109.738339 
L 164.7 110.530202 
L 165.825 110.914057 
L 166.95 112.521471 
L 168.075 110.524724 
L 169.2 110.619246 
L 170.325 110.274105 
L 171.45 109.559657 
L 172.575 112.87585 
L 173.7 111.470503 
L 174.825 111.367029 
L 175.95 108.135971 
L 177.075 107.905714 
L 178.2 108.317554 
L 179.325 104.542653 
L 180.45 102.551911 
L 181.575 96.39761 
L 182.7 110.106346 
L 183.825 109.699512 
L 184.95 112.784153 
L 186.075 110.068078 
L 187.2 112.099191 
L 188.325 111.496603 
L 189.45 112.892507 
L 190.575 111.51651 
L 191.7 109.833532 
L 192.825 112.025248 
L 193.95 112.319565 
L 195.075 111.310948 
L 196.2 112.280025 
L 197.325 112.86832 
L 198.45 112.40659 
L 199.575 111.051388 
L 200.7 110.960506 
L 201.825 111.467614 
L 202.95 112.400003 
L 204.075 111.837007 
L 205.2 111.012899 
L 206.325 110.505 
L 207.45 109.183075 
L 208.575 112.985817 
L 209.7 113.221772 
L 210.825 108.9788 
L 211.95 108.996286 
L 213.075 105.299871 
L 214.2 103.861074 
L 215.325 101.897342 
L 216.45 79.959348 
L 217.575 102.947252 
L 218.7 102.866367 
L 219.825 103.392333 
L 220.95 108.125206 
L 222.075 108.055304 
L 223.2 111.758989 
L 224.325 110.440936 
L 225.45 110.100384 
L 226.575 110.00207 
L 227.7 109.293909 
L 228.825 110.373845 
L 229.95 111.676148 
L 231.075 110.579444 
L 232.2 113.058622 
L 233.325 112.185403 
L 234.45 112.343918 
L 235.575 112.289838 
L 236.7 110.160616 
L 237.825 111.654612 
L 238.95 112.013798 
L 241.2 109.998641 
L 242.325 111.514188 
L 243.45 110.767368 
L 244.575 112.155893 
L 245.7 111.828972 
L 246.825 109.194339 
L 247.95 109.076772 
L 249.075 109.126429 
L 250.2 108.065219 
L 251.325 87.97488 
L 252.45 103.26672 
L 253.575 104.740948 
L 254.7 108.834439 
L 255.825 109.998321 
L 256.95 109.319159 
L 258.075 113.318134 
L 259.2 111.991963 
L 260.325 111.912769 
L 261.45 109.34769 
L 262.575 111.630427 
L 263.7 112.406823 
L 264.825 110.776706 
L 265.95 113.385072 
L 267.075 111.350038 
L 268.2 111.300374 
L 269.325 109.449364 
L 270.45 112.070448 
L 271.575 113.04443 
L 272.7 112.693378 
L 273.825 113.274544 
L 274.95 111.54386 
L 276.075 112.053119 
L 277.2 110.676697 
L 278.325 113.023612 
L 279.45 113.177431 
L 280.575 110.761597 
L 281.7 111.729051 
L 282.825 105.999292 
L 283.95 108.627506 
L 285.075 107.778676 
L 286.2 91.863406 
L 287.325 108.865632 
L 289.575 111.393325 
L 290.7 107.923779 
L 291.825 108.892293 
L 292.95 113.178273 
L 294.075 111.526966 
L 295.2 111.61861 
L 297.45 112.322557 
L 298.575 110.717431 
L 299.7 111.986568 
L 300.825 111.091235 
L 301.95 112.406184 
L 303.075 112.47666 
L 304.2 111.140908 
L 305.325 111.360198 
L 307.575 112.050859 
L 308.7 112.648459 
L 309.825 112.710395 
L 310.95 108.726707 
L 312.075 110.855051 
L 313.2 111.750689 
L 314.325 112.806485 
L 315.45 112.008558 
L 316.575 111.571488 
L 317.7 108.510963 
L 318.825 106.60468 
L 319.95 101.787946 
L 321.075 86.780313 
L 322.2 106.767368 
L 323.325 111.081249 
L 324.45 110.219293 
L 325.575 108.676906 
L 326.7 112.965239 
L 330.075 111.905993 
L 331.2 111.001643 
L 332.325 113.295147 
L 333.45 111.711956 
L 334.575 111.778502 
L 335.7 112.68832 
L 336.825 111.81388 
L 337.95 112.169259 
L 339.075 111.502202 
L 340.2 112.595598 
L 341.325 111.840627 
L 342.45 111.755428 
L 343.575 112.104091 
L 344.7 112.736406 
L 345.825 112.791577 
L 346.95 113.300969 
L 348.075 112.660042 
L 350.325 113.294557 
L 351.45 110.877443 
L 352.575 113.526003 
L 353.7 112.651432 
L 354.825 109.579477 
L 355.95 108.391624 
L 357.075 109.247955 
L 358.2 111.750369 
L 359.325 112.354147 
L 361.575 111.996911 
L 362.7 111.53474 
L 363.825 112.701105 
L 364.95 112.269764 
L 366.075 112.603008 
L 367.2 112.092397 
L 368.325 112.52739 
L 370.575 111.826186 
L 371.7 113.450085 
L 372.825 112.322997 
L 373.95 112.341954 
L 375.075 113.079984 
L 376.2 111.98663 
L 377.325 112.895265 
L 378.45 112.881931 
L 379.575 112.695592 
L 381.825 113.278738 
L 384.075 112.140479 
L 385.2 112.400054 
L 386.325 110.30316 
L 387.45 112.374931 
L 388.575 111.524795 
L 389.7 110.53003 
L 390.825 95.74236 
L 391.95 111.311894 
L 393.075 112.38778 
L 394.2 112.002386 
L 395.325 113.373621 
L 396.45 112.929564 
L 397.575 113.146793 
L 398.7 113.204005 
L 399.825 112.899858 
L 400.95 112.195568 
L 403.2 113.143346 
L 404.325 112.677466 
L 405.45 112.500044 
L 406.575 112.585694 
L 407.7 112.261237 
L 408.825 112.17714 
L 409.95 112.56444 
L 411.075 113.074161 
L 412.2 111.884769 
L 413.325 112.529182 
L 414.45 113.359395 
L 415.575 112.413508 
L 416.7 112.476201 
L 417.825 112.062839 
L 418.95 113.337626 
L 420.075 112.869196 
L 421.2 111.607538 
L 422.325 112.069764 
L 423.45 110.412042 
L 424.575 107.401298 
L 425.7 105.66761 
L 426.825 109.270876 
L 427.95 111.022555 
L 429.075 112.163455 
L 430.2 111.743791 
L 431.325 112.51095 
L 432.45 112.939012 
L 433.575 111.980303 
L 435.825 112.728403 
L 436.95 112.872626 
L 438.075 112.387537 
L 439.2 112.957425 
L 440.325 112.747622 
L 441.45 113.091883 
L 443.7 112.909781 
L 444.825 111.674131 
L 445.95 112.874887 
L 447.075 112.450176 
L 450.45 113.097364 
L 451.575 112.401197 
L 452.7 112.209334 
L 453.825 112.410538 
L 454.95 113.352844 
L 456.075 112.499945 
L 457.2 111.842341 
L 459.45 107.871226 
L 460.575 106.765102 
L 461.7 112.958561 
L 462.825 111.397848 
L 465.075 111.216303 
L 466.2 110.873129 
L 467.325 112.765743 
L 468.45 113.25629 
L 469.575 112.656216 
L 470.7 113.192555 
L 471.825 112.334059 
L 472.95 112.691005 
L 474.075 112.668256 
L 476.325 112.834929 
L 477.45 113.556546 
L 478.575 112.654291 
L 479.7 113.120884 
L 480.825 113.008873 
L 481.95 113.250371 
L 483.075 112.620396 
L 484.2 112.461954 
L 485.325 112.90686 
L 486.45 112.537573 
L 487.575 112.874409 
L 488.7 113.355239 
L 489.825 113.125382 
L 490.95 111.06502 
L 492.075 112.153824 
L 493.2 111.988609 
L 494.325 109.017595 
L 495.45 107.078636 
L 496.575 111.431163 
L 497.7 111.693891 
L 499.95 113.157312 
L 501.075 112.465925 
L 502.2 113.045406 
L 504.45 112.334354 
L 505.575 112.272255 
L 506.7 113.364181 
L 507.825 112.599881 
L 508.95 113.215408 
L 510.075 112.994164 
L 510.075 112.994164 
" clip-path="url(#p1b10d36369)" style="fill: none; stroke: #5b5b5b; stroke-width: 1.2; stroke-linecap: square"/>
   </g>
   <g id="patch_3">
    <path d="M 7.2 118.642394 
L 509.4 118.642394 
" style="fill: none; stroke: #cccccc; stroke-width: 0.75; stroke-linejoin: miter; stroke-linecap: square"/>
   </g>
   <g id="text_1">
    <!-- 144 -->
    <g style="fill: #4b4b4b" transform="translate(35.30625 83.165406) scale(0.08 -0.08)">
     <defs>
      <path id="Ubuntu-31" d="M 595 3520 
Q 960 3661 1305 3881 
Q 1651 4102 1939 4435 
L 2362 4435 
L 2362 0 
L 1766 0 
L 1766 3610 
Q 1690 3539 1578 3462 
Q 1466 3386 1334 3315 
Q 1203 3245 1059 3181 
Q 915 3117 781 3072 
L 595 3520 
z
" transform="scale(0.015625)"/>
      <path id="Ubuntu-34" d="M 256 1536 
Q 378 1818 589 2192 
Q 800 2566 1065 2963 
Q 1331 3360 1635 3744 
Q 1939 4128 2246 4435 
L 2816 4435 
L 2816 1619 
L 3341 1619 
L 3341 1133 
L 2816 1133 
L 2816 0 
L 2240 0 
L 2240 1133 
L 256 1133 
L 256 1536 
z
M 2240 3731 
Q 2048 3526 1853 3273 
Q 1658 3021 1472 2745 
Q 1286 2470 1123 2182 
Q 960 1894 832 1619 
L 2240 1619 
L 2240 3731 
z
" transform="scale(0.015625)"/>
     </defs>
     <use xlink:href="#Ubuntu-31"/>
     <use xlink:href="#Ubuntu-34" x="56.399994"/>
     <use xlink:href="#Ubuntu-34" x="112.799988"/>
    </g>
   </g>
   <g id="text_2">
    <!-- 72 -->
    <g style="fill: #4b4b4b" transform="translate(72.4375 55.849986) scale(0.08 -0.08)">
     <defs>
      <path id="Ubuntu-37" d="M 1043 0 
Q 1082 512 1226 1078 
Q 1370 1645 1581 2179 
Q 1792 2714 2045 3171 
Q 2298 3629 2541 3917 
L 384 3917 
L 384 4435 
L 3206 4435 
L 3206 3942 
Q 2995 3699 2739 3273 
Q 2483 2848 2256 2320 
Q 2029 1792 1865 1193 
Q 1702 595 1664 0 
L 1043 0 
z
" transform="scale(0.015625)"/>
      <path id="Ubuntu-32" d="M 2989 3302 
Q 2989 3072 2896 2857 
Q 2803 2643 2649 2435 
Q 2496 2227 2304 2025 
Q 2112 1824 1920 1632 
Q 1811 1523 1667 1376 
Q 1523 1229 1395 1069 
Q 1267 909 1180 761 
Q 1094 614 1094 506 
L 3136 506 
L 3136 0 
L 448 0 
Q 442 38 442 76 
Q 442 115 442 147 
Q 442 448 541 707 
Q 640 966 800 1196 
Q 960 1427 1158 1632 
Q 1357 1837 1549 2029 
Q 1709 2182 1853 2332 
Q 1997 2483 2109 2633 
Q 2221 2784 2288 2944 
Q 2355 3104 2355 3283 
Q 2355 3475 2294 3609 
Q 2234 3744 2131 3833 
Q 2029 3923 1891 3964 
Q 1754 4006 1600 4006 
Q 1414 4006 1260 3955 
Q 1107 3904 985 3837 
Q 864 3770 781 3696 
Q 698 3622 653 3584 
L 358 4006 
Q 416 4070 531 4163 
Q 646 4256 806 4339 
Q 966 4422 1164 4480 
Q 1363 4538 1594 4538 
Q 2291 4538 2640 4214 
Q 2989 3891 2989 3302 
z
" transform="scale(0.015625)"/>
     </defs>
     <use xlink:href="#Ubuntu-37"/>
     <use xlink:href="#Ubuntu-32" x="56.399994"/>
    </g>
   </g>
   <g id="text_3">
    <!-- 48 -->
    <g style="fill: #4b4b4b" transform="translate(107.3125 48.000544) scale(0.08 -0.08)">
     <defs>
      <path id="Ubuntu-38" d="M 3258 1152 
Q 3258 883 3165 656 
Q 3072 429 2889 259 
Q 2707 90 2432 -3 
Q 2157 -96 1798 -96 
Q 1382 -96 1104 22 
Q 826 141 659 320 
Q 493 499 422 713 
Q 352 928 352 1120 
Q 352 1306 413 1475 
Q 474 1645 573 1792 
Q 672 1939 803 2057 
Q 934 2176 1082 2266 
Q 454 2624 454 3322 
Q 454 3565 550 3785 
Q 646 4006 822 4172 
Q 998 4339 1248 4438 
Q 1498 4538 1805 4538 
Q 2163 4538 2419 4429 
Q 2675 4320 2838 4150 
Q 3002 3981 3075 3776 
Q 3149 3571 3149 3379 
Q 3149 3194 3094 3030 
Q 3040 2867 2947 2726 
Q 2854 2586 2736 2477 
Q 2618 2368 2490 2285 
Q 3245 1926 3258 1152 
z
M 954 1114 
Q 954 998 995 873 
Q 1037 749 1139 643 
Q 1242 538 1402 467 
Q 1562 397 1805 397 
Q 2022 397 2185 461 
Q 2349 525 2451 624 
Q 2554 723 2605 851 
Q 2656 979 2656 1114 
Q 2656 1318 2579 1472 
Q 2502 1626 2358 1741 
Q 2214 1856 2012 1936 
Q 1811 2016 1555 2074 
Q 1267 1914 1110 1677 
Q 954 1440 954 1114 
z
M 2554 3386 
Q 2554 3482 2512 3597 
Q 2470 3712 2380 3811 
Q 2291 3910 2150 3977 
Q 2010 4045 1805 4045 
Q 1600 4045 1456 3981 
Q 1312 3917 1222 3817 
Q 1133 3718 1091 3600 
Q 1050 3482 1050 3366 
Q 1050 3226 1101 3085 
Q 1152 2944 1261 2822 
Q 1370 2701 1546 2605 
Q 1722 2509 1965 2451 
Q 2234 2611 2394 2825 
Q 2554 3040 2554 3386 
z
" transform="scale(0.015625)"/>
     </defs>
     <use xlink:href="#Ubuntu-34"/>
     <use xlink:href="#Ubuntu-38" x="56.399994"/>
    </g>
   </g>
   <g id="text_4">
    <!-- 36 -->
    <g style="fill: #4b4b4b" transform="translate(142.1875 42.445658) scale(0.08 -0.08)">
     <defs>
      <path id="Ubuntu-33" d="M 1446 435 
Q 2016 435 2262 659 
Q 2509 883 2509 1261 
Q 2509 1504 2406 1670 
Q 2304 1837 2137 1936 
Q 1971 2035 1750 2076 
Q 1530 2118 1299 2118 
L 1146 2118 
L 1146 2605 
L 1357 2605 
Q 1517 2605 1686 2637 
Q 1856 2669 1997 2752 
Q 2138 2835 2227 2979 
Q 2317 3123 2317 3341 
Q 2317 3520 2253 3648 
Q 2189 3776 2083 3859 
Q 1978 3942 1840 3977 
Q 1702 4013 1549 4013 
Q 1242 4013 1027 3923 
Q 813 3834 666 3738 
L 435 4192 
Q 512 4243 630 4304 
Q 749 4365 896 4416 
Q 1043 4467 1212 4502 
Q 1382 4538 1568 4538 
Q 1920 4538 2176 4451 
Q 2432 4365 2598 4208 
Q 2765 4051 2848 3836 
Q 2931 3622 2931 3373 
Q 2931 3027 2732 2780 
Q 2534 2534 2253 2406 
Q 2426 2355 2586 2259 
Q 2746 2163 2864 2016 
Q 2982 1869 3056 1677 
Q 3130 1485 3130 1248 
Q 3130 960 3030 713 
Q 2931 467 2723 288 
Q 2515 109 2201 6 
Q 1888 -96 1459 -96 
Q 1293 -96 1117 -70 
Q 941 -45 787 -6 
Q 634 32 518 70 
Q 403 109 352 134 
L 467 653 
Q 576 602 829 518 
Q 1082 435 1446 435 
z
" transform="scale(0.015625)"/>
      <path id="Ubuntu-36" d="M 403 1779 
Q 403 2426 582 2922 
Q 762 3418 1091 3757 
Q 1421 4096 1891 4272 
Q 2362 4448 2950 4454 
L 2995 3955 
Q 2618 3949 2307 3872 
Q 1997 3795 1753 3628 
Q 1510 3462 1344 3196 
Q 1178 2931 1094 2541 
Q 1261 2618 1469 2669 
Q 1677 2720 1901 2720 
Q 2278 2720 2540 2605 
Q 2803 2490 2969 2301 
Q 3136 2112 3209 1865 
Q 3283 1619 3283 1350 
Q 3283 1107 3200 851 
Q 3117 595 2947 384 
Q 2778 173 2515 38 
Q 2253 -96 1894 -96 
Q 1165 -96 784 403 
Q 403 902 403 1779 
z
M 1837 2234 
Q 1613 2234 1421 2192 
Q 1229 2150 1037 2067 
Q 1030 1997 1027 1923 
Q 1024 1850 1024 1779 
Q 1024 1498 1062 1248 
Q 1101 998 1200 809 
Q 1299 621 1465 509 
Q 1632 397 1888 397 
Q 2099 397 2246 486 
Q 2394 576 2490 717 
Q 2586 858 2627 1021 
Q 2669 1184 2669 1338 
Q 2669 1773 2461 2003 
Q 2253 2234 1837 2234 
z
" transform="scale(0.015625)"/>
     </defs>
     <use xlink:href="#Ubuntu-33"/>
     <use xlink:href="#Ubuntu-36" x="56.399994"/>
    </g>
   </g>
   <g id="text_5">
    <!-- 29 -->
    <g style="fill: #4b4b4b" transform="translate(177.0625 88.029308) scale(0.08 -0.08)">
     <defs>
      <path id="Ubuntu-39" d="M 3206 2662 
Q 3206 1344 2550 669 
Q 1894 -6 602 -13 
L 582 486 
Q 986 486 1309 563 
Q 1632 640 1875 809 
Q 2118 979 2281 1248 
Q 2445 1517 2522 1907 
Q 2355 1830 2144 1782 
Q 1933 1734 1709 1734 
Q 1331 1734 1068 1846 
Q 806 1958 640 2147 
Q 474 2336 400 2582 
Q 326 2829 326 3098 
Q 326 3334 409 3590 
Q 493 3846 662 4057 
Q 832 4269 1094 4403 
Q 1357 4538 1715 4538 
Q 2080 4538 2358 4410 
Q 2637 4282 2825 4038 
Q 3014 3795 3110 3446 
Q 3206 3098 3206 2662 
z
M 1773 2221 
Q 1997 2221 2195 2262 
Q 2394 2304 2579 2387 
Q 2586 2458 2586 2525 
Q 2586 2592 2586 2662 
Q 2586 2938 2547 3190 
Q 2509 3443 2409 3632 
Q 2310 3821 2144 3933 
Q 1978 4045 1722 4045 
Q 1510 4045 1363 3955 
Q 1216 3866 1120 3728 
Q 1024 3590 982 3427 
Q 941 3264 941 3110 
Q 941 2675 1149 2448 
Q 1357 2221 1773 2221 
z
" transform="scale(0.015625)"/>
     </defs>
     <use xlink:href="#Ubuntu-32"/>
     <use xlink:href="#Ubuntu-39" x="56.399994"/>
    </g>
   </g>
   <g id="text_6">
    <!-- 24 -->
    <g style="fill: #4b4b4b" transform="translate(211.9375 71.591046) scale(0.08 -0.08)">
     <use xlink:href="#Ubuntu-32"/>
     <use xlink:href="#Ubuntu-34" x="56.399994"/>
    </g>
   </g>
   <g id="text_7">
    <!-- 21 -->
    <g style="fill: #4b4b4b" transform="translate(246.8125 79.606578) scale(0.08 -0.08)">
     <use xlink:href="#Ubuntu-32"/>
     <use xlink:href="#Ubuntu-31" x="56.399994"/>
    </g>
   </g>
   <g id="text_8">
    <!-- 18 -->
    <g style="fill: #4b4b4b" transform="translate(281.6875 83.495104) scale(0.08 -0.08)">
     <use xlink:href="#Ubuntu-31"/>
     <use xlink:href="#Ubuntu-38" x="56.399994"/>
    </g>
   </g>
   <g id="text_9">
    <!-- 16 -->
    <g style="fill: #4b4b4b" transform="translate(316.5625 78.412011) scale(0.08 -0.08)">
     <use xlink:href="#Ubuntu-31"/>
     <use xlink:href="#Ubuntu-36" x="56.399994"/>
    </g>
   </g>
   <g id="text_10">
    <!-- 13 -->
    <g style="fill: #4b4b4b" transform="translate(386.3125 87.374058) scale(0.08 -0.08)">
     <use xlink:href="#Ubuntu-31"/>
     <use xlink:href="#Ubuntu-33" x="56.399994"/>
    </g>
   </g>
   <g id="text_11">
    <!-- Periods -->
    <g style="fill: #505050" transform="translate(7.2 14.959375) scale(0.1 -0.1)">
     <defs>
      <path id="Ubuntu-Bold-50" d="M 1843 4486 
Q 2835 4486 3366 4137 
Q 3898 3789 3898 2995 
Q 3898 2195 3360 1840 
Q 2822 1485 1824 1485 
L 1510 1485 
L 1510 0 
L 512 0 
L 512 4371 
Q 838 4435 1203 4460 
Q 1568 4486 1843 4486 
z
M 1907 3635 
Q 1798 3635 1692 3628 
Q 1587 3622 1510 3616 
L 1510 2336 
L 1824 2336 
Q 2342 2336 2604 2477 
Q 2867 2618 2867 3002 
Q 2867 3187 2800 3308 
Q 2733 3430 2608 3504 
Q 2483 3578 2304 3606 
Q 2125 3635 1907 3635 
z
" transform="scale(0.015625)"/>
      <path id="Ubuntu-Bold-65" d="M 288 1658 
Q 288 2106 425 2442 
Q 563 2778 787 3002 
Q 1011 3226 1302 3341 
Q 1594 3456 1901 3456 
Q 2618 3456 3034 3017 
Q 3450 2579 3450 1728 
Q 3450 1645 3443 1545 
Q 3437 1446 3430 1370 
L 1267 1370 
Q 1299 1075 1542 902 
Q 1786 730 2195 730 
Q 2458 730 2710 778 
Q 2963 826 3123 896 
L 3251 122 
Q 3174 83 3046 44 
Q 2918 6 2761 -22 
Q 2605 -51 2425 -70 
Q 2246 -90 2067 -90 
Q 1613 -90 1277 44 
Q 941 179 720 412 
Q 499 646 393 966 
Q 288 1286 288 1658 
z
M 2528 2022 
Q 2522 2144 2486 2259 
Q 2451 2374 2377 2464 
Q 2304 2554 2192 2611 
Q 2080 2669 1914 2669 
Q 1754 2669 1638 2614 
Q 1523 2560 1446 2470 
Q 1370 2381 1328 2262 
Q 1286 2144 1267 2022 
L 2528 2022 
z
" transform="scale(0.015625)"/>
      <path id="Ubuntu-Bold-72" d="M 2477 2522 
Q 2349 2554 2176 2589 
Q 2003 2624 1805 2624 
Q 1715 2624 1590 2608 
Q 1466 2592 1402 2573 
L 1402 0 
L 448 0 
L 448 3187 
Q 704 3277 1053 3357 
Q 1402 3437 1830 3437 
Q 1907 3437 2016 3427 
Q 2125 3418 2233 3402 
Q 2342 3386 2451 3363 
Q 2560 3341 2637 3309 
L 2477 2522 
z
" transform="scale(0.015625)"/>
      <path id="Ubuntu-Bold-69" d="M 1402 0 
L 448 0 
L 448 3366 
L 1402 3366 
L 1402 0 
z
M 1491 4339 
Q 1491 4077 1321 3926 
Q 1152 3776 922 3776 
Q 691 3776 521 3926 
Q 352 4077 352 4339 
Q 352 4602 521 4752 
Q 691 4902 922 4902 
Q 1152 4902 1321 4752 
Q 1491 4602 1491 4339 
z
" transform="scale(0.015625)"/>
      <path id="Ubuntu-Bold-6f" d="M 3597 1690 
Q 3597 1293 3481 963 
Q 3366 634 3148 400 
Q 2931 166 2627 38 
Q 2323 -90 1946 -90 
Q 1574 -90 1270 38 
Q 966 166 748 400 
Q 531 634 409 963 
Q 288 1293 288 1690 
Q 288 2086 413 2412 
Q 538 2739 758 2969 
Q 979 3200 1283 3328 
Q 1587 3456 1946 3456 
Q 2310 3456 2614 3328 
Q 2918 3200 3136 2969 
Q 3354 2739 3475 2412 
Q 3597 2086 3597 1690 
z
M 2624 1690 
Q 2624 2131 2448 2384 
Q 2272 2637 1946 2637 
Q 1619 2637 1440 2384 
Q 1261 2131 1261 1690 
Q 1261 1248 1440 989 
Q 1619 730 1946 730 
Q 2272 730 2448 989 
Q 2624 1248 2624 1690 
z
" transform="scale(0.015625)"/>
      <path id="Ubuntu-Bold-64" d="M 1261 1709 
Q 1261 1267 1459 998 
Q 1658 730 2048 730 
Q 2176 730 2285 739 
Q 2394 749 2464 762 
L 2464 2496 
Q 2374 2554 2230 2592 
Q 2086 2630 1939 2630 
Q 1261 2630 1261 1709 
z
M 3418 109 
Q 3290 70 3123 35 
Q 2957 0 2774 -25 
Q 2592 -51 2403 -67 
Q 2214 -83 2042 -83 
Q 1626 -83 1299 38 
Q 973 160 749 387 
Q 525 614 406 937 
Q 288 1261 288 1664 
Q 288 2074 390 2403 
Q 493 2733 685 2963 
Q 877 3194 1155 3315 
Q 1434 3437 1792 3437 
Q 1990 3437 2147 3398 
Q 2304 3360 2464 3290 
L 2464 4813 
L 3418 4966 
L 3418 109 
z
" transform="scale(0.015625)"/>
      <path id="Ubuntu-Bold-73" d="M 1414 685 
Q 1677 685 1785 736 
Q 1894 787 1894 934 
Q 1894 1050 1753 1136 
Q 1613 1222 1325 1331 
Q 1101 1414 918 1504 
Q 736 1594 608 1718 
Q 480 1843 409 2016 
Q 339 2189 339 2432 
Q 339 2906 691 3181 
Q 1043 3456 1658 3456 
Q 1965 3456 2246 3401 
Q 2528 3347 2694 3283 
L 2528 2541 
Q 2362 2598 2166 2643 
Q 1971 2688 1728 2688 
Q 1280 2688 1280 2438 
Q 1280 2381 1299 2336 
Q 1318 2291 1376 2249 
Q 1434 2208 1533 2160 
Q 1632 2112 1786 2054 
Q 2099 1939 2304 1827 
Q 2509 1715 2627 1584 
Q 2746 1453 2794 1293 
Q 2842 1133 2842 922 
Q 2842 422 2467 166 
Q 2093 -90 1408 -90 
Q 960 -90 662 -13 
Q 365 64 250 115 
L 410 890 
Q 653 794 909 739 
Q 1165 685 1414 685 
z
" transform="scale(0.015625)"/>
     </defs>
     <use xlink:href="#Ubuntu-Bold-50"/>
     <use xlink:href="#Ubuntu-Bold-65" x="62.899994"/>
     <use xlink:href="#Ubuntu-Bold-72" x="121.299988"/>
     <use xlink:href="#Ubuntu-Bold-69" x="163.499985"/>
     <use xlink:href="#Ubuntu-Bold-6f" x="192.399979"/>
     <use xlink:href="#Ubuntu-Bold-64" x="253.099976"/>
     <use xlink:href="#Ubuntu-Bold-73" x="313.499969"/>
    </g>
   </g>
   <g id="PathCollection_1">
    <defs>
     <path id="m2fed58b34a" d="M 0 1.118034 
C 0.296506 1.118034 0.580908 1.000231 0.790569 0.790569 
C 1.000231 0.580908 1.118034 0.296506 1.118034 0 
C 1.118034 -0.296506 1.000231 -0.580908 0.790569 -0.790569 
C 0.580908 -1.000231 0.296506 -1.118034 0 -1.118034 
C -0.296506 -1.118034 -0.580908 -1.000231 -0.790569 -0.790569 
C -1.000231 -0.580908 -1.118034 -0.296506 -1.118034 0 
C -1.118034 0.296506 -1.000231 0.580908 -0.790569 0.790569 
C -0.580908 1.000231 -0.296506 1.118034 0 1.118034 
z
" style="stroke: #cb4c41"/>
    </defs>
    <g clip-path="url(#p1b10d36369)">
     <use xlink:href="#m2fed58b34a" x="42.075" y="91.533707" style="fill: #cb4c41; stroke: #cb4c41"/>
    </g>
   </g>
   <g id="PathCollection_2">
    <g clip-path="url(#p1b10d36369)">
     <use xlink:href="#m2fed58b34a" x="76.95" y="64.218288" style="fill: #cb4c41; stroke: #cb4c41"/>
    </g>
   </g>
   <g id="PathCollection_3">
    <g clip-path="url(#p1b10d36369)">
     <use xlink:href="#m2fed58b34a" x="111.825" y="56.368846" style="fill: #cb4c41; stroke: #cb4c41"/>
    </g>
   </g>
   <g id="PathCollection_4">
    <g clip-path="url(#p1b10d36369)">
     <use xlink:href="#m2fed58b34a" x="146.7" y="50.81396" style="fill: #cb4c41; stroke: #cb4c41"/>
    </g>
   </g>
   <g id="PathCollection_5">
    <g clip-path="url(#p1b10d36369)">
     <use xlink:href="#m2fed58b34a" x="181.575" y="96.39761" style="fill: #cb4c41; stroke: #cb4c41"/>
    </g>
   </g>
   <g id="PathCollection_6">
    <g clip-path="url(#p1b10d36369)">
     <use xlink:href="#m2fed58b34a" x="216.45" y="79.959348" style="fill: #cb4c41; stroke: #cb4c41"/>
    </g>
   </g>
   <g id="PathCollection_7">
    <g clip-path="url(#p1b10d36369)">
     <use xlink:href="#m2fed58b34a" x="251.325" y="87.97488" style="fill: #cb4c41; stroke: #cb4c41"/>
    </g>
   </g>
   <g id="PathCollection_8">
    <g clip-path="url(#p1b10d36369)">
     <use xlink:href="#m2fed58b34a" x="286.2" y="91.863406" style="fill: #cb4c41; stroke: #cb4c41"/>
    </g>
   </g>
   <g id="PathCollection_9">
    <g clip-path="url(#p1b10d36369)">
     <use xlink:href="#m2fed58b34a" x="321.075" y="86.780313" style="fill: #cb4c41; stroke: #cb4c41"/>
    </g>
   </g>
   <g id="PathCollection_10">
    <g clip-path="url(#p1b10d36369)">
     <use xlink:href="#m2fed58b34a" x="390.825" y="95.74236" style="fill: #cb4c41; stroke: #cb4c41"/>
    </g>
   </g>
  </g>
  <g id="axes_2">
   <g id="patch_4">
    <path d="M 7.2 251.719375 
L 509.4 251.719375 
L 509.4 168.036356 
L 7.2 168.036356 
L 7.2 251.719375 
z
" style="fill: none"/>
   </g>
   <g id="matplotlib.axis_3">
    <g id="xtick_7"/>
    <g id="xtick_8"/>
    <g id="xtick_9"/>
    <g id="xtick_10"/>
    <g id="xtick_11"/>
    <g id="xtick_12"/>
   </g>
   <g id="matplotlib.axis_4">
    <g id="ytick_8"/>
    <g id="ytick_9"/>
    <g id="ytick_10"/>
    <g id="ytick_11"/>
    <g id="ytick_12"/>
    <g id="ytick_13"/>
    <g id="ytick_14"/>
   </g>
   <g id="line2d_2">
    <path d="M 7.2 251.695353 
L 16.2 251.671112 
L 17.325 251.507647 
L 20.7 251.659959 
L 21.825 251.482719 
L 22.95 251.562654 
L 24.075 251.504445 
L 25.2 251.674862 
L 27.45 251.328777 
L 28.575 251.557837 
L 30.825 251.524361 
L 31.95 251.034584 
L 34.2 251.524795 
L 36.45 251.501686 
L 37.575 250.75748 
L 39.825 249.822001 
L 40.95 249.173207 
L 42.075 229.610689 
L 43.2 249.313913 
L 44.325 250.725206 
L 45.45 250.781073 
L 46.575 250.252466 
L 47.7 250.338503 
L 48.825 251.257256 
L 49.95 251.257123 
L 51.075 251.380374 
L 52.2 250.319863 
L 53.325 250.66081 
L 54.45 251.413063 
L 55.575 251.154372 
L 56.7 251.583691 
L 57.825 251.519159 
L 58.95 251.331969 
L 60.075 250.680219 
L 61.2 250.46426 
L 62.325 251.471175 
L 64.575 251.303472 
L 65.7 249.697462 
L 66.825 249.607024 
L 69.075 250.86711 
L 70.2 250.69205 
L 71.325 248.946831 
L 72.45 248.912084 
L 73.575 247.82964 
L 74.7 245.465583 
L 75.825 242.386024 
L 76.95 202.295269 
L 78.075 247.484414 
L 79.2 247.847193 
L 80.325 247.512208 
L 81.45 247.581807 
L 82.575 249.428409 
L 83.7 250.245247 
L 84.825 250.248528 
L 85.95 249.383612 
L 87.075 250.190089 
L 88.2 250.053289 
L 89.325 249.471369 
L 90.45 250.715756 
L 91.575 250.828281 
L 92.7 249.878504 
L 93.825 250.810597 
L 94.95 250.045624 
L 96.075 250.717905 
L 97.2 250.841983 
L 98.325 249.751318 
L 99.45 251.310077 
L 100.575 250.021534 
L 101.7 250.476409 
L 102.825 249.196846 
L 103.95 250.691641 
L 105.075 250.095145 
L 106.2 250.254754 
L 107.325 249.006867 
L 108.45 248.907335 
L 110.7 240.875058 
L 111.825 194.445827 
L 112.95 246.117708 
L 115.2 246.681255 
L 116.325 246.162314 
L 117.45 245.905253 
L 118.575 249.127057 
L 119.7 250.112108 
L 120.825 249.936001 
L 121.95 249.616786 
L 123.075 250.56643 
L 124.2 250.025417 
L 125.325 250.149263 
L 126.45 251.415683 
L 127.575 250.950393 
L 128.7 250.711599 
L 129.825 249.788097 
L 130.95 251.136768 
L 132.075 251.503983 
L 133.2 250.722879 
L 134.325 250.674047 
L 136.575 250.210862 
L 137.7 251.001781 
L 138.825 251.334908 
L 139.95 250.462042 
L 141.075 245.782188 
L 142.2 249.539547 
L 143.325 247.910188 
L 144.45 245.808593 
L 145.575 246.075545 
L 146.7 188.890941 
L 147.825 244.812639 
L 148.95 244.957752 
L 150.075 245.923008 
L 151.2 250.881812 
L 152.325 248.104467 
L 153.45 250.213337 
L 154.575 250.662949 
L 155.7 245.037917 
L 156.825 248.695999 
L 157.95 246.351388 
L 159.075 247.446656 
L 160.2 250.306342 
L 161.325 248.699687 
L 162.45 247.809122 
L 163.575 247.81532 
L 164.7 248.607183 
L 165.825 248.991038 
L 166.95 250.598452 
L 168.075 248.601705 
L 169.2 248.696227 
L 170.325 248.351086 
L 171.45 247.636638 
L 172.575 250.952831 
L 173.7 249.547484 
L 174.825 249.44401 
L 175.95 246.212952 
L 177.075 245.982695 
L 178.2 246.394535 
L 179.325 242.619634 
L 180.45 240.628893 
L 181.575 234.474591 
L 182.7 248.183327 
L 183.825 247.776493 
L 184.95 250.861134 
L 186.075 248.145059 
L 187.2 250.176173 
L 188.325 249.573584 
L 189.45 250.969488 
L 190.575 249.593492 
L 191.7 247.910513 
L 192.825 250.102229 
L 193.95 250.396546 
L 195.075 249.387929 
L 196.2 250.357006 
L 197.325 250.945301 
L 198.45 250.483571 
L 199.575 249.12837 
L 200.7 249.037487 
L 201.825 249.544595 
L 202.95 250.476984 
L 204.075 249.913988 
L 205.2 249.08988 
L 206.325 248.581981 
L 207.45 247.260056 
L 208.575 251.062798 
L 209.7 251.298753 
L 210.825 247.055781 
L 211.95 247.073267 
L 213.075 243.376852 
L 214.2 241.938055 
L 215.325 239.974324 
L 216.45 218.036329 
L 217.575 241.024233 
L 218.7 240.943348 
L 219.825 241.469314 
L 220.95 246.202187 
L 222.075 246.132285 
L 223.2 249.83597 
L 224.325 248.517917 
L 225.45 248.177365 
L 226.575 248.079051 
L 227.7 247.370891 
L 228.825 248.450826 
L 229.95 249.753129 
L 231.075 248.656425 
L 232.2 251.135603 
L 233.325 250.262384 
L 234.45 250.420899 
L 235.575 250.366819 
L 236.7 248.237597 
L 237.825 249.731593 
L 238.95 250.09078 
L 241.2 248.075622 
L 242.325 249.591169 
L 243.45 248.84435 
L 244.575 250.232874 
L 245.7 249.905953 
L 246.825 247.27132 
L 247.95 247.153753 
L 249.075 247.203411 
L 250.2 246.1422 
L 251.325 226.051861 
L 252.45 241.343701 
L 253.575 242.817929 
L 254.7 246.911421 
L 255.825 248.075302 
L 256.95 247.39614 
L 258.075 251.395115 
L 259.2 250.068944 
L 260.325 249.98975 
L 261.45 247.424671 
L 262.575 249.707408 
L 263.7 250.483805 
L 264.825 248.853688 
L 265.95 251.462054 
L 267.075 249.427019 
L 268.2 249.377355 
L 269.325 247.526345 
L 270.45 250.147429 
L 271.575 251.121411 
L 272.7 250.770359 
L 273.825 251.351525 
L 274.95 249.620841 
L 276.075 250.1301 
L 277.2 248.753678 
L 278.325 251.100593 
L 279.45 251.254412 
L 280.575 248.838579 
L 281.7 249.806033 
L 282.825 244.076273 
L 283.95 246.704487 
L 285.075 245.855658 
L 286.2 229.940387 
L 287.325 246.942613 
L 289.575 249.470306 
L 290.7 246.00076 
L 291.825 246.969275 
L 292.95 251.255254 
L 294.075 249.603947 
L 295.2 249.695591 
L 297.45 250.399538 
L 298.575 248.794412 
L 299.7 250.063549 
L 300.825 249.168216 
L 301.95 250.483165 
L 303.075 250.553641 
L 304.2 249.217889 
L 305.325 249.437179 
L 307.575 250.127841 
L 308.7 250.72544 
L 309.825 250.787376 
L 310.95 246.803688 
L 312.075 248.932032 
L 313.2 249.827671 
L 314.325 250.883466 
L 315.45 250.085539 
L 316.575 249.648469 
L 317.7 246.587944 
L 318.825 244.681661 
L 319.95 239.864927 
L 321.075 224.857294 
L 322.2 244.84435 
L 323.325 249.15823 
L 324.45 248.296274 
L 325.575 246.753887 
L 326.7 251.04222 
L 330.075 249.982974 
L 331.2 249.078624 
L 332.325 251.372128 
L 333.45 249.788937 
L 334.575 249.855483 
L 335.7 250.765301 
L 336.825 249.890862 
L 337.95 250.24624 
L 339.075 249.579183 
L 340.2 250.672579 
L 341.325 249.917608 
L 342.45 249.832409 
L 343.575 250.181072 
L 344.7 250.813387 
L 345.825 250.868558 
L 346.95 251.37795 
L 348.075 250.737023 
L 350.325 251.371538 
L 351.45 248.954424 
L 352.575 251.602984 
L 353.7 250.728413 
L 354.825 247.656458 
L 355.95 246.468606 
L 357.075 247.324936 
L 358.2 249.827351 
L 359.325 250.431128 
L 361.575 250.073892 
L 362.7 249.611721 
L 363.825 250.778086 
L 364.95 250.346745 
L 366.075 250.679989 
L 367.2 250.169379 
L 368.325 250.604371 
L 370.575 249.903167 
L 371.7 251.527066 
L 372.825 250.399979 
L 373.95 250.418935 
L 375.075 251.156965 
L 376.2 250.063611 
L 377.325 250.972246 
L 378.45 250.958912 
L 379.575 250.772573 
L 381.825 251.35572 
L 384.075 250.217461 
L 385.2 250.477035 
L 386.325 248.380141 
L 387.45 250.451912 
L 388.575 249.601776 
L 389.7 248.607011 
L 390.825 233.819341 
L 391.95 249.388875 
L 393.075 250.464762 
L 394.2 250.079367 
L 395.325 251.450602 
L 396.45 251.006545 
L 397.575 251.223774 
L 398.7 251.280986 
L 399.825 250.976839 
L 400.95 250.272549 
L 403.2 251.220327 
L 404.325 250.754447 
L 405.45 250.577026 
L 406.575 250.662675 
L 407.7 250.338218 
L 408.825 250.254122 
L 409.95 250.641421 
L 411.075 251.151142 
L 412.2 249.961751 
L 413.325 250.606163 
L 414.45 251.436376 
L 415.575 250.490489 
L 416.7 250.553182 
L 417.825 250.13982 
L 418.95 251.414607 
L 420.075 250.946177 
L 421.2 249.684519 
L 422.325 250.146745 
L 423.45 248.489024 
L 424.575 245.478279 
L 425.7 243.744592 
L 426.825 247.347857 
L 427.95 249.099536 
L 429.075 250.240436 
L 430.2 249.820772 
L 431.325 250.587931 
L 432.45 251.015993 
L 433.575 250.057284 
L 435.825 250.805384 
L 436.95 250.949607 
L 438.075 250.464518 
L 439.2 251.034406 
L 440.325 250.824603 
L 441.45 251.168864 
L 443.7 250.986762 
L 444.825 249.751112 
L 445.95 250.951868 
L 447.075 250.527157 
L 450.45 251.174345 
L 451.575 250.478178 
L 452.7 250.286315 
L 453.825 250.487519 
L 454.95 251.429825 
L 456.075 250.576926 
L 457.2 249.919322 
L 459.45 245.948207 
L 460.575 244.842083 
L 461.7 251.035542 
L 462.825 249.474829 
L 465.075 249.293284 
L 466.2 248.95011 
L 467.325 250.842724 
L 468.45 251.333271 
L 469.575 250.733197 
L 470.7 251.269536 
L 471.825 250.41104 
L 472.95 250.767987 
L 474.075 250.745237 
L 476.325 250.911911 
L 477.45 251.633528 
L 478.575 250.731272 
L 479.7 251.197865 
L 480.825 251.085854 
L 481.95 251.327352 
L 483.075 250.697378 
L 484.2 250.538935 
L 485.325 250.983842 
L 486.45 250.614554 
L 487.575 250.951391 
L 488.7 251.43222 
L 489.825 251.202363 
L 490.95 249.142001 
L 492.075 250.230805 
L 493.2 250.06559 
L 494.325 247.094576 
L 495.45 245.155617 
L 496.575 249.508145 
L 497.7 249.770872 
L 499.95 251.234294 
L 501.075 250.542906 
L 502.2 251.122387 
L 504.45 250.411335 
L 505.575 250.349236 
L 506.7 251.441163 
L 507.825 250.676862 
L 508.95 251.292389 
L 510.075 251.071145 
L 510.075 251.071145 
" clip-path="url(#pe8cc8b0c07)" style="fill: none; stroke: #5b5b5b; stroke-width: 1.2; stroke-linecap: square"/>
   </g>
   <g id="patch_5">
    <path d="M 7.2 256.719375 
L 509.4 256.719375 
" style="fill: none; stroke: #cccccc; stroke-width: 0.75; stroke-linejoin: miter; stroke-linecap: square"/>
   </g>
   <g id="text_12">
    <!-- 24 h -->
    <g style="fill: #4b4b4b" transform="translate(34.355 221.242387) scale(0.08 -0.08)">
     <defs>
      <path id="Ubuntu-20" transform="scale(0.015625)"/>
      <path id="Ubuntu-68" d="M 512 0 
L 512 4864 
L 1107 4966 
L 1107 3264 
Q 1274 3328 1462 3363 
Q 1651 3398 1837 3398 
Q 2234 3398 2496 3286 
Q 2758 3174 2915 2972 
Q 3072 2771 3136 2489 
Q 3200 2208 3200 1869 
L 3200 0 
L 2605 0 
L 2605 1741 
Q 2605 2048 2563 2265 
Q 2522 2483 2426 2617 
Q 2330 2752 2170 2813 
Q 2010 2874 1773 2874 
Q 1677 2874 1574 2861 
Q 1472 2848 1379 2832 
Q 1286 2816 1212 2797 
Q 1139 2778 1107 2765 
L 1107 0 
L 512 0 
z
" transform="scale(0.015625)"/>
     </defs>
     <use xlink:href="#Ubuntu-32"/>
     <use xlink:href="#Ubuntu-34" x="56.399994"/>
     <use xlink:href="#Ubuntu-20" x="112.799988"/>
     <use xlink:href="#Ubuntu-68" x="135.899979"/>
    </g>
   </g>
   <g id="text_13">
    <!-- 12 h -->
    <g style="fill: #4b4b4b" transform="translate(69.23 193.926967) scale(0.08 -0.08)">
     <use xlink:href="#Ubuntu-31"/>
     <use xlink:href="#Ubuntu-32" x="56.399994"/>
     <use xlink:href="#Ubuntu-20" x="112.799988"/>
     <use xlink:href="#Ubuntu-68" x="135.899979"/>
    </g>
   </g>
   <g id="text_14">
    <!-- 8 h -->
    <g style="fill: #4b4b4b" transform="translate(106.36125 186.077525) scale(0.08 -0.08)">
     <use xlink:href="#Ubuntu-38"/>
     <use xlink:href="#Ubuntu-20" x="56.399994"/>
     <use xlink:href="#Ubuntu-68" x="79.499985"/>
    </g>
   </g>
   <g id="text_15">
    <!-- 6 h -->
    <g style="fill: #4b4b4b" transform="translate(141.23625 180.522639) scale(0.08 -0.08)">
     <use xlink:href="#Ubuntu-36"/>
     <use xlink:href="#Ubuntu-20" x="56.399994"/>
     <use xlink:href="#Ubuntu-68" x="79.499985"/>
    </g>
   </g>
   <g id="text_16">
    <!-- 5 h -->
    <g style="fill: #4b4b4b" transform="translate(176.11125 226.106289) scale(0.08 -0.08)">
     <defs>
      <path id="Ubuntu-35" d="M 1274 2726 
Q 2240 2688 2691 2304 
Q 3142 1920 3142 1261 
Q 3142 966 3043 716 
Q 2944 467 2742 288 
Q 2541 109 2233 6 
Q 1926 -96 1504 -96 
Q 1338 -96 1165 -70 
Q 992 -45 845 -6 
Q 698 32 582 70 
Q 467 109 416 134 
L 531 653 
Q 640 602 886 518 
Q 1133 435 1491 435 
Q 1779 435 1974 499 
Q 2170 563 2291 672 
Q 2413 781 2467 925 
Q 2522 1069 2522 1229 
Q 2522 1472 2438 1661 
Q 2355 1850 2144 1978 
Q 1933 2106 1581 2173 
Q 1229 2240 691 2240 
Q 730 2554 752 2829 
Q 774 3104 793 3366 
Q 813 3629 825 3888 
Q 838 4147 851 4435 
L 2989 4435 
L 2989 3930 
L 1370 3930 
Q 1363 3834 1350 3670 
Q 1338 3507 1325 3331 
Q 1312 3155 1299 2988 
Q 1286 2822 1274 2726 
z
" transform="scale(0.015625)"/>
     </defs>
     <use xlink:href="#Ubuntu-35"/>
     <use xlink:href="#Ubuntu-20" x="56.399994"/>
     <use xlink:href="#Ubuntu-68" x="79.499985"/>
    </g>
   </g>
   <g id="text_17">
    <!-- 4 h -->
    <g style="fill: #4b4b4b" transform="translate(210.98625 209.668028) scale(0.08 -0.08)">
     <use xlink:href="#Ubuntu-34"/>
     <use xlink:href="#Ubuntu-20" x="56.399994"/>
     <use xlink:href="#Ubuntu-68" x="79.499985"/>
    </g>
   </g>
   <g id="text_18">
    <!-- 3 h -->
    <g style="fill: #4b4b4b" transform="translate(245.86125 217.683559) scale(0.08 -0.08)">
     <use xlink:href="#Ubuntu-33"/>
     <use xlink:href="#Ubuntu-20" x="56.399994"/>
     <use xlink:href="#Ubuntu-68" x="79.499985"/>
    </g>
   </g>
   <g id="text_19">
    <!-- 3 h -->
    <g style="fill: #4b4b4b" transform="translate(280.73625 221.572085) scale(0.08 -0.08)">
     <use xlink:href="#Ubuntu-33"/>
     <use xlink:href="#Ubuntu-20" x="56.399994"/>
     <use xlink:href="#Ubuntu-68" x="79.499985"/>
    </g>
   </g>
   <g id="text_20">
    <!-- 3 h -->
    <g style="fill: #4b4b4b" transform="translate(315.61125 216.488992) scale(0.08 -0.08)">
     <use xlink:href="#Ubuntu-33"/>
     <use xlink:href="#Ubuntu-20" x="56.399994"/>
     <use xlink:href="#Ubuntu-68" x="79.499985"/>
    </g>
   </g>
   <g id="text_21">
    <!-- 2 h -->
    <g style="fill: #4b4b4b" transform="translate(385.36125 225.451039) scale(0.08 -0.08)">
     <use xlink:href="#Ubuntu-32"/>
     <use xlink:href="#Ubuntu-20" x="56.399994"/>
     <use xlink:href="#Ubuntu-68" x="79.499985"/>
    </g>
   </g>
   <g id="text_22">
    <!-- Hours -->
    <g style="fill: #505050" transform="translate(7.2 153.036356) scale(0.1 -0.1)">
     <defs>
      <path id="Ubuntu-Bold-48" d="M 3187 4435 
L 4186 4435 
L 4186 0 
L 3187 0 
L 3187 1882 
L 1510 1882 
L 1510 0 
L 512 0 
L 512 4435 
L 1510 4435 
L 1510 2739 
L 3187 2739 
L 3187 4435 
z
" transform="scale(0.015625)"/>
      <path id="Ubuntu-Bold-75" d="M 3322 115 
Q 3078 45 2694 -16 
Q 2310 -77 1888 -77 
Q 1459 -77 1174 38 
Q 890 154 723 362 
Q 557 570 486 858 
Q 416 1146 416 1491 
L 416 3366 
L 1370 3366 
L 1370 1606 
Q 1370 1146 1491 941 
Q 1613 736 1946 736 
Q 2048 736 2163 745 
Q 2278 755 2368 768 
L 2368 3366 
L 3322 3366 
L 3322 115 
z
" transform="scale(0.015625)"/>
     </defs>
     <use xlink:href="#Ubuntu-Bold-48"/>
     <use xlink:href="#Ubuntu-Bold-6f" x="73.399994"/>
     <use xlink:href="#Ubuntu-Bold-75" x="134.099991"/>
     <use xlink:href="#Ubuntu-Bold-72" x="192.999985"/>
     <use xlink:href="#Ubuntu-Bold-73" x="235.199982"/>
    </g>
   </g>
   <g id="PathCollection_11">
    <g clip-path="url(#pe8cc8b0c07)">
     <use xlink:href="#m2fed58b34a" x="42.075" y="229.610689" style="fill: #cb4c41; stroke: #cb4c41"/>
    </g>
   </g>
   <g id="PathCollection_12">
    <g clip-path="url(#pe8cc8b0c07)">
     <use xlink:href="#m2fed58b34a" x="76.95" y="202.295269" style="fill: #cb4c41; stroke: #cb4c41"/>
    </g>
   </g>
   <g id="PathCollection_13">
    <g clip-path="url(#pe8cc8b0c07)">
     <use xlink:href="#m2fed58b34a" x="111.825" y="194.445827" style="fill: #cb4c41; stroke: #cb4c41"/>
    </g>
   </g>
   <g id="PathCollection_14">
    <g clip-path="url(#pe8cc8b0c07)">
     <use xlink:href="#m2fed58b34a" x="146.7" y="188.890941" style="fill: #cb4c41; stroke: #cb4c41"/>
    </g>
   </g>
   <g id="PathCollection_15">
    <g clip-path="url(#pe8cc8b0c07)">
     <use xlink:href="#m2fed58b34a" x="181.575" y="234.474591" style="fill: #cb4c41; stroke: #cb4c41"/>
    </g>
   </g>
   <g id="PathCollection_16">
    <g clip-path="url(#pe8cc8b0c07)">
     <use xlink:href="#m2fed58b34a" x="216.45" y="218.036329" style="fill: #cb4c41; stroke: #cb4c41"/>
    </g>
   </g>
   <g id="PathCollection_17">
    <g clip-path="url(#pe8cc8b0c07)">
     <use xlink:href="#m2fed58b34a" x="251.325" y="226.051861" style="fill: #cb4c41; stroke: #cb4c41"/>
    </g>
   </g>
   <g id="PathCollection_18">
    <g clip-path="url(#pe8cc8b0c07)">
     <use xlink:href="#m2fed58b34a" x="286.2" y="229.940387" style="fill: #cb4c41; stroke: #cb4c41"/>
    </g>
   </g>
   <g id="PathCollection_19">
    <g clip-path="url(#pe8cc8b0c07)">
     <use xlink:href="#m2fed58b34a" x="321.075" y="224.857294" style="fill: #cb4c41; stroke: #cb4c41"/>
    </g>
   </g>
   <g id="PathCollection_20">
    <g clip-path="url(#pe8cc8b0c07)">
     <use xlink:href="#m2fed58b34a" x="390.825" y="233.819341" style="fill: #cb4c41; stroke: #cb4c41"/>
    </g>
   </g>
  </g>
 </g>
 <defs>
  <clipPath id="p1b10d36369">
   <rect x="7.2" y="29.959375" width="502.2" height="83.683019"/>
  </clipPath>
  <clipPath id="pe8cc8b0c07">
   <rect x="7.2" y="168.036356" width="502.2" height="83.683019"/>
  </clipPath>
 </defs>
</svg>
