<?xml version="1.0" encoding="utf-8" standalone="no"?>
<!DOCTYPE svg PUBLIC "-//W3C//DTD SVG 1.1//EN"
  "http://www.w3.org/Graphics/SVG/1.1/DTD/svg11.dtd">
<svg xmlns:xlink="http://www.w3.org/1999/xlink" width="516.6pt" height="268.919375pt" viewBox="0 0 516.6 268.919375" xmlns="http://www.w3.org/2000/svg" version="1.1">
 <metadata>
  <rdf:RDF xmlns:dc="http://purl.org/dc/elements/1.1/" xmlns:cc="http://creativecommons.org/ns#" xmlns:rdf="http://www.w3.org/1999/02/22-rdf-syntax-ns#">
   <cc:Work>
    <dc:type rdf:resource="http://purl.org/dc/dcmitype/StillImage"/>
    <dc:date>2024-04-17T08:04:12.076481</dc:date>
    <dc:format>image/svg+xml</dc:format>
    <dc:creator>
     <cc:Agent>
      <dc:title>Matplotlib v3.8.3, https://matplotlib.org/</dc:title>
     </cc:Agent>
    </dc:creator>
   </cc:Work>
  </rdf:RDF>
 </metadata>
 <defs>
  <style type="text/css">*{stroke-linejoin: round; stroke-linecap: butt}</style>
 </defs>
 <g id="figure_1">
  <g id="patch_1">
   <path d="M 0 268.919375 
L 516.6 268.919375 
L 516.6 0 
L 0 0 
L 0 268.919375 
z
" style="fill: none"/>
  </g>
  <g id="axes_1">
   <g id="patch_2">
    <path d="M 7.2 113.642394 
L 509.4 113.642394 
L 509.4 29.959375 
L 7.2 29.959375 
L 7.2 113.642394 
z
" style="fill: none"/>
   </g>
   <g id="matplotlib.axis_1">
    <g id="xtick_1"/>
    <g id="xtick_2"/>
    <g id="xtick_3"/>
    <g id="xtick_4"/>
    <g id="xtick_5"/>
    <g id="xtick_6"/>
   </g>
   <g id="matplotlib.axis_2">
    <g id="ytick_1"/>
    <g id="ytick_2"/>
    <g id="ytick_3"/>
    <g id="ytick_4"/>
    <g id="ytick_5"/>
    <g id="ytick_6"/>
    <g id="ytick_7"/>
   </g>
   <g id="line2d_1">
    <path d="M 7.2 113.58241 
L 19.575 113.570839 
L 21.825 113.223666 
L 22.95 113.48851 
L 24.075 113.572702 
L 26.325 113.433009 
L 27.45 112.992248 
L 28.575 113.415032 
L 31.95 113.224595 
L 34.2 113.463899 
L 35.325 113.464397 
L 37.575 112.614345 
L 38.7 113.127884 
L 39.825 113.150504 
L 40.95 112.356891 
L 42.075 90.9013 
L 43.2 112.993795 
L 44.325 112.501247 
L 45.45 112.715011 
L 47.7 112.315722 
L 48.825 112.938352 
L 51.075 112.798457 
L 52.2 113.236595 
L 54.45 112.637082 
L 55.575 113.359634 
L 56.7 112.414205 
L 57.825 113.365674 
L 58.95 113.197931 
L 60.075 113.23404 
L 61.2 113.120021 
L 62.325 112.700877 
L 63.45 111.46078 
L 65.7 112.168088 
L 66.825 112.810641 
L 67.95 112.588261 
L 70.2 112.768955 
L 71.325 111.99084 
L 72.45 113.398592 
L 73.575 111.983385 
L 74.7 112.441352 
L 75.825 111.813373 
L 76.95 60.030276 
L 78.075 112.309751 
L 79.2 112.956492 
L 80.325 112.871375 
L 81.45 111.34103 
L 82.575 113.380016 
L 84.825 111.365117 
L 85.95 113.197279 
L 87.075 111.965472 
L 88.2 112.604902 
L 89.325 113.522816 
L 90.45 112.152443 
L 91.575 112.565814 
L 92.7 112.710181 
L 93.825 113.078095 
L 94.95 112.825638 
L 96.075 113.107612 
L 97.2 110.391683 
L 98.325 111.872721 
L 99.45 111.677071 
L 100.575 111.648617 
L 101.7 109.793108 
L 102.825 112.875649 
L 103.95 113.378238 
L 105.075 113.146792 
L 106.2 113.260111 
L 107.325 112.974597 
L 108.45 111.795901 
L 109.575 112.498723 
L 110.7 111.109021 
L 111.825 65.508895 
L 112.95 110.185592 
L 114.075 112.894993 
L 115.2 112.773503 
L 116.325 111.053503 
L 117.45 112.218263 
L 118.575 112.928052 
L 120.825 112.003778 
L 121.95 111.65709 
L 123.075 112.340294 
L 125.325 111.156238 
L 126.45 110.674097 
L 127.575 112.723918 
L 128.7 112.436175 
L 129.825 113.240678 
L 130.95 111.567868 
L 132.075 111.20953 
L 133.2 111.898768 
L 134.325 111.780457 
L 135.45 110.690754 
L 136.575 109.320549 
L 137.7 112.500319 
L 138.825 112.817597 
L 139.95 112.277315 
L 141.075 110.982829 
L 142.2 110.936214 
L 143.325 112.132108 
L 144.45 111.675477 
L 145.575 110.796253 
L 146.7 45.194343 
L 147.825 111.956348 
L 148.95 112.652824 
L 150.075 110.392798 
L 151.2 110.751332 
L 152.325 111.698659 
L 153.45 111.933085 
L 154.575 113.117897 
L 155.7 110.258943 
L 156.825 110.057558 
L 157.95 110.182005 
L 159.075 108.696681 
L 160.2 109.637925 
L 162.45 112.200834 
L 163.575 111.182296 
L 164.7 112.143032 
L 165.825 109.287978 
L 166.95 112.039032 
L 168.075 113.009457 
L 169.2 109.985497 
L 170.325 111.795129 
L 171.45 111.614572 
L 172.575 111.851144 
L 173.7 110.067923 
L 174.825 112.205826 
L 175.95 111.680754 
L 177.075 110.508535 
L 178.2 110.512833 
L 179.325 112.007706 
L 180.45 110.664064 
L 181.575 97.205683 
L 182.7 108.45524 
L 183.825 111.553359 
L 184.95 111.619256 
L 186.075 111.572479 
L 187.2 113.045417 
L 188.325 113.113295 
L 189.45 110.91533 
L 192.825 109.691263 
L 193.95 111.30567 
L 195.075 110.108145 
L 196.2 112.828219 
L 197.325 112.902664 
L 198.45 112.181978 
L 199.575 111.030881 
L 200.7 110.241183 
L 201.825 112.937585 
L 202.95 108.558276 
L 205.2 111.83071 
L 206.325 111.861465 
L 207.45 111.202635 
L 208.575 110.28111 
L 209.7 109.650183 
L 210.825 110.87836 
L 211.95 111.270548 
L 213.075 112.614396 
L 214.2 110.494738 
L 215.325 109.30277 
L 216.45 72.46763 
L 217.575 111.335401 
L 218.7 109.831914 
L 219.825 111.14781 
L 220.95 111.437661 
L 222.075 112.918998 
L 223.2 108.909738 
L 224.325 108.791056 
L 225.45 110.010964 
L 226.575 112.774558 
L 227.7 108.757323 
L 228.825 110.783068 
L 229.95 112.06532 
L 231.075 112.865685 
L 232.2 113.149601 
L 233.325 109.300378 
L 234.45 107.904486 
L 235.575 110.969212 
L 236.7 112.856842 
L 237.825 112.155189 
L 238.95 111.770898 
L 241.2 112.844194 
L 242.325 110.371359 
L 243.45 112.709701 
L 244.575 112.967864 
L 245.7 112.384803 
L 246.825 110.144174 
L 247.95 110.926958 
L 249.075 110.573084 
L 250.2 108.814826 
L 251.325 75.840627 
L 252.45 110.525766 
L 253.575 111.802577 
L 254.7 111.227016 
L 255.825 111.46448 
L 256.95 110.43512 
L 258.075 112.426716 
L 259.2 109.994871 
L 260.325 109.850898 
L 261.45 110.677549 
L 262.575 112.742851 
L 263.7 110.562097 
L 264.825 110.861516 
L 265.95 112.871124 
L 267.075 111.468441 
L 268.2 112.437329 
L 269.325 111.531832 
L 270.45 109.999456 
L 271.575 112.085186 
L 272.7 112.38922 
L 273.825 111.65336 
L 274.95 111.654807 
L 276.075 113.322005 
L 277.2 111.354347 
L 278.325 110.816299 
L 279.45 112.604638 
L 280.575 112.305895 
L 281.7 111.011315 
L 282.825 109.379884 
L 283.95 109.734239 
L 285.075 110.304396 
L 286.2 98.075723 
L 287.325 108.674743 
L 288.45 112.430572 
L 289.575 112.798411 
L 290.7 111.991314 
L 291.825 111.039872 
L 292.95 111.837255 
L 294.075 112.797425 
L 295.2 110.224365 
L 296.325 110.287117 
L 297.45 111.416429 
L 298.575 110.312608 
L 299.7 112.471144 
L 300.825 109.965972 
L 301.95 110.782752 
L 303.075 110.587955 
L 304.2 111.892375 
L 305.325 110.786185 
L 306.45 111.29455 
L 307.575 110.847332 
L 308.7 111.614566 
L 309.825 110.488933 
L 310.95 111.926867 
L 312.075 111.433734 
L 313.2 111.144206 
L 314.325 112.278786 
L 315.45 112.187502 
L 316.575 112.941438 
L 317.7 112.10636 
L 318.825 112.202242 
L 319.95 109.330591 
L 321.075 79.663913 
L 322.2 112.087296 
L 323.325 111.001121 
L 324.45 112.11066 
L 325.575 112.921021 
L 326.7 112.083069 
L 327.825 112.249653 
L 328.95 110.278615 
L 330.075 110.741516 
L 331.2 111.047823 
L 332.325 110.190401 
L 333.45 109.087285 
L 334.575 111.041854 
L 335.7 111.653454 
L 336.825 111.601824 
L 337.95 113.130348 
L 339.075 113.417834 
L 341.325 112.103243 
L 342.45 109.582335 
L 344.7 111.965354 
L 345.825 111.452525 
L 346.95 111.270041 
L 348.075 113.212644 
L 349.2 111.345965 
L 350.325 112.584239 
L 351.45 112.074758 
L 352.575 111.888122 
L 353.7 110.872627 
L 354.825 111.708381 
L 355.95 98.621228 
L 357.075 112.50152 
L 358.2 113.040786 
L 359.325 113.357436 
L 360.45 112.796682 
L 361.575 110.839236 
L 362.7 112.151493 
L 363.825 113.129513 
L 364.95 111.331877 
L 366.075 112.572964 
L 367.2 112.048489 
L 368.325 112.022205 
L 369.45 112.985104 
L 372.825 112.232 
L 373.95 112.638152 
L 375.075 111.773685 
L 376.2 111.838428 
L 377.325 111.65163 
L 378.45 111.705422 
L 379.575 111.87179 
L 380.7 112.315951 
L 382.95 113.423351 
L 384.075 112.325452 
L 386.325 112.770961 
L 387.45 111.389813 
L 388.575 111.259021 
L 389.7 111.917899 
L 390.825 98.249168 
L 391.95 110.747515 
L 393.075 111.974881 
L 394.2 111.735544 
L 395.325 112.188958 
L 396.45 111.423517 
L 397.575 111.742659 
L 398.7 111.657802 
L 399.825 111.782067 
L 400.95 112.720104 
L 402.075 113.177283 
L 403.2 112.230792 
L 404.325 113.273953 
L 405.45 112.005665 
L 406.575 112.580421 
L 407.7 112.407833 
L 408.825 112.423776 
L 409.95 112.899757 
L 411.075 111.912725 
L 412.2 112.836095 
L 413.325 113.238401 
L 416.7 112.559254 
L 417.825 112.950663 
L 418.95 111.688313 
L 420.075 111.858931 
L 421.2 111.295894 
L 422.325 111.931014 
L 423.45 111.886161 
L 424.575 112.529903 
L 425.7 98.796278 
L 426.825 111.591726 
L 427.95 111.510965 
L 429.075 111.73157 
L 430.2 113.063288 
L 432.45 111.789603 
L 433.575 111.351762 
L 434.7 112.583327 
L 435.825 112.804641 
L 436.95 113.226127 
L 438.075 113.303201 
L 439.2 112.559713 
L 440.325 111.378687 
L 441.45 113.133668 
L 442.575 113.162463 
L 443.7 112.672045 
L 444.825 113.078468 
L 445.95 112.044825 
L 447.075 111.605869 
L 448.2 112.17733 
L 449.325 113.33351 
L 450.45 113.071715 
L 451.575 111.697108 
L 452.7 113.064753 
L 453.825 112.614786 
L 454.95 112.430361 
L 456.075 112.454127 
L 458.325 111.790704 
L 459.45 112.664701 
L 460.575 107.157237 
L 461.7 112.92252 
L 462.825 112.020523 
L 463.95 111.67247 
L 465.075 112.879486 
L 466.2 113.034522 
L 467.325 113.562929 
L 468.45 113.38794 
L 469.575 112.817624 
L 470.7 112.831819 
L 471.825 112.573767 
L 472.95 113.216288 
L 474.075 113.20305 
L 475.2 112.852633 
L 476.325 112.038488 
L 477.45 112.256489 
L 478.575 113.179966 
L 479.7 112.703274 
L 480.825 111.924605 
L 483.075 112.908319 
L 484.2 112.54887 
L 485.325 112.827855 
L 486.45 112.281831 
L 487.575 112.085331 
L 488.7 113.447701 
L 489.825 113.272254 
L 490.95 112.006333 
L 492.075 113.292832 
L 494.325 113.103571 
L 495.45 104.170154 
L 496.575 111.716554 
L 497.7 111.484205 
L 498.825 113.206201 
L 499.95 112.863616 
L 501.075 112.334222 
L 502.2 113.073825 
L 503.325 113.272043 
L 504.45 112.535657 
L 505.575 113.301129 
L 506.7 113.263353 
L 507.825 113.422338 
L 508.95 113.374066 
L 510.075 113.00741 
L 510.075 113.00741 
" clip-path="url(#p49d2f72baa)" style="fill: none; stroke: #5b5b5b; stroke-width: 1.2; stroke-linecap: square"/>
   </g>
   <g id="patch_3">
    <path d="M 7.2 123.642394 
L 509.4 123.642394 
" style="fill: none; stroke: #aaaaaa; stroke-width: 0.75; stroke-linejoin: miter; stroke-linecap: square"/>
   </g>
   <g id="text_1">
    <!-- 144 -->
    <g style="fill: #4b4b4b" transform="translate(35.30625 82.532998) scale(0.08 -0.08)">
     <defs>
      <path id="Ubuntu-31" d="M 595 3520 
Q 960 3661 1305 3881 
Q 1651 4102 1939 4435 
L 2362 4435 
L 2362 0 
L 1766 0 
L 1766 3610 
Q 1690 3539 1578 3462 
Q 1466 3386 1334 3315 
Q 1203 3245 1059 3181 
Q 915 3117 781 3072 
L 595 3520 
z
" transform="scale(0.015625)"/>
      <path id="Ubuntu-34" d="M 256 1536 
Q 378 1818 589 2192 
Q 800 2566 1065 2963 
Q 1331 3360 1635 3744 
Q 1939 4128 2246 4435 
L 2816 4435 
L 2816 1619 
L 3341 1619 
L 3341 1133 
L 2816 1133 
L 2816 0 
L 2240 0 
L 2240 1133 
L 256 1133 
L 256 1536 
z
M 2240 3731 
Q 2048 3526 1853 3273 
Q 1658 3021 1472 2745 
Q 1286 2470 1123 2182 
Q 960 1894 832 1619 
L 2240 1619 
L 2240 3731 
z
" transform="scale(0.015625)"/>
     </defs>
     <use xlink:href="#Ubuntu-31"/>
     <use xlink:href="#Ubuntu-34" x="56.399994"/>
     <use xlink:href="#Ubuntu-34" x="112.799988"/>
    </g>
   </g>
   <g id="text_2">
    <!-- 72 -->
    <g style="fill: #4b4b4b" transform="translate(72.4375 51.661974) scale(0.08 -0.08)">
     <defs>
      <path id="Ubuntu-37" d="M 1043 0 
Q 1082 512 1226 1078 
Q 1370 1645 1581 2179 
Q 1792 2714 2045 3171 
Q 2298 3629 2541 3917 
L 384 3917 
L 384 4435 
L 3206 4435 
L 3206 3942 
Q 2995 3699 2739 3273 
Q 2483 2848 2256 2320 
Q 2029 1792 1865 1193 
Q 1702 595 1664 0 
L 1043 0 
z
" transform="scale(0.015625)"/>
      <path id="Ubuntu-32" d="M 2989 3302 
Q 2989 3072 2896 2857 
Q 2803 2643 2649 2435 
Q 2496 2227 2304 2025 
Q 2112 1824 1920 1632 
Q 1811 1523 1667 1376 
Q 1523 1229 1395 1069 
Q 1267 909 1180 761 
Q 1094 614 1094 506 
L 3136 506 
L 3136 0 
L 448 0 
Q 442 38 442 76 
Q 442 115 442 147 
Q 442 448 541 707 
Q 640 966 800 1196 
Q 960 1427 1158 1632 
Q 1357 1837 1549 2029 
Q 1709 2182 1853 2332 
Q 1997 2483 2109 2633 
Q 2221 2784 2288 2944 
Q 2355 3104 2355 3283 
Q 2355 3475 2294 3609 
Q 2234 3744 2131 3833 
Q 2029 3923 1891 3964 
Q 1754 4006 1600 4006 
Q 1414 4006 1260 3955 
Q 1107 3904 985 3837 
Q 864 3770 781 3696 
Q 698 3622 653 3584 
L 358 4006 
Q 416 4070 531 4163 
Q 646 4256 806 4339 
Q 966 4422 1164 4480 
Q 1363 4538 1594 4538 
Q 2291 4538 2640 4214 
Q 2989 3891 2989 3302 
z
" transform="scale(0.015625)"/>
     </defs>
     <use xlink:href="#Ubuntu-37"/>
     <use xlink:href="#Ubuntu-32" x="56.399994"/>
    </g>
   </g>
   <g id="text_3">
    <!-- 48 -->
    <g style="fill: #4b4b4b" transform="translate(107.3125 57.140593) scale(0.08 -0.08)">
     <defs>
      <path id="Ubuntu-38" d="M 3258 1152 
Q 3258 883 3165 656 
Q 3072 429 2889 259 
Q 2707 90 2432 -3 
Q 2157 -96 1798 -96 
Q 1382 -96 1104 22 
Q 826 141 659 320 
Q 493 499 422 713 
Q 352 928 352 1120 
Q 352 1306 413 1475 
Q 474 1645 573 1792 
Q 672 1939 803 2057 
Q 934 2176 1082 2266 
Q 454 2624 454 3322 
Q 454 3565 550 3785 
Q 646 4006 822 4172 
Q 998 4339 1248 4438 
Q 1498 4538 1805 4538 
Q 2163 4538 2419 4429 
Q 2675 4320 2838 4150 
Q 3002 3981 3075 3776 
Q 3149 3571 3149 3379 
Q 3149 3194 3094 3030 
Q 3040 2867 2947 2726 
Q 2854 2586 2736 2477 
Q 2618 2368 2490 2285 
Q 3245 1926 3258 1152 
z
M 954 1114 
Q 954 998 995 873 
Q 1037 749 1139 643 
Q 1242 538 1402 467 
Q 1562 397 1805 397 
Q 2022 397 2185 461 
Q 2349 525 2451 624 
Q 2554 723 2605 851 
Q 2656 979 2656 1114 
Q 2656 1318 2579 1472 
Q 2502 1626 2358 1741 
Q 2214 1856 2012 1936 
Q 1811 2016 1555 2074 
Q 1267 1914 1110 1677 
Q 954 1440 954 1114 
z
M 2554 3386 
Q 2554 3482 2512 3597 
Q 2470 3712 2380 3811 
Q 2291 3910 2150 3977 
Q 2010 4045 1805 4045 
Q 1600 4045 1456 3981 
Q 1312 3917 1222 3817 
Q 1133 3718 1091 3600 
Q 1050 3482 1050 3366 
Q 1050 3226 1101 3085 
Q 1152 2944 1261 2822 
Q 1370 2701 1546 2605 
Q 1722 2509 1965 2451 
Q 2234 2611 2394 2825 
Q 2554 3040 2554 3386 
z
" transform="scale(0.015625)"/>
     </defs>
     <use xlink:href="#Ubuntu-34"/>
     <use xlink:href="#Ubuntu-38" x="56.399994"/>
    </g>
   </g>
   <g id="text_4">
    <!-- 36 -->
    <g style="fill: #4b4b4b" transform="translate(142.1875 36.826041) scale(0.08 -0.08)">
     <defs>
      <path id="Ubuntu-33" d="M 1446 435 
Q 2016 435 2262 659 
Q 2509 883 2509 1261 
Q 2509 1504 2406 1670 
Q 2304 1837 2137 1936 
Q 1971 2035 1750 2076 
Q 1530 2118 1299 2118 
L 1146 2118 
L 1146 2605 
L 1357 2605 
Q 1517 2605 1686 2637 
Q 1856 2669 1997 2752 
Q 2138 2835 2227 2979 
Q 2317 3123 2317 3341 
Q 2317 3520 2253 3648 
Q 2189 3776 2083 3859 
Q 1978 3942 1840 3977 
Q 1702 4013 1549 4013 
Q 1242 4013 1027 3923 
Q 813 3834 666 3738 
L 435 4192 
Q 512 4243 630 4304 
Q 749 4365 896 4416 
Q 1043 4467 1212 4502 
Q 1382 4538 1568 4538 
Q 1920 4538 2176 4451 
Q 2432 4365 2598 4208 
Q 2765 4051 2848 3836 
Q 2931 3622 2931 3373 
Q 2931 3027 2732 2780 
Q 2534 2534 2253 2406 
Q 2426 2355 2586 2259 
Q 2746 2163 2864 2016 
Q 2982 1869 3056 1677 
Q 3130 1485 3130 1248 
Q 3130 960 3030 713 
Q 2931 467 2723 288 
Q 2515 109 2201 6 
Q 1888 -96 1459 -96 
Q 1293 -96 1117 -70 
Q 941 -45 787 -6 
Q 634 32 518 70 
Q 403 109 352 134 
L 467 653 
Q 576 602 829 518 
Q 1082 435 1446 435 
z
" transform="scale(0.015625)"/>
      <path id="Ubuntu-36" d="M 403 1779 
Q 403 2426 582 2922 
Q 762 3418 1091 3757 
Q 1421 4096 1891 4272 
Q 2362 4448 2950 4454 
L 2995 3955 
Q 2618 3949 2307 3872 
Q 1997 3795 1753 3628 
Q 1510 3462 1344 3196 
Q 1178 2931 1094 2541 
Q 1261 2618 1469 2669 
Q 1677 2720 1901 2720 
Q 2278 2720 2540 2605 
Q 2803 2490 2969 2301 
Q 3136 2112 3209 1865 
Q 3283 1619 3283 1350 
Q 3283 1107 3200 851 
Q 3117 595 2947 384 
Q 2778 173 2515 38 
Q 2253 -96 1894 -96 
Q 1165 -96 784 403 
Q 403 902 403 1779 
z
M 1837 2234 
Q 1613 2234 1421 2192 
Q 1229 2150 1037 2067 
Q 1030 1997 1027 1923 
Q 1024 1850 1024 1779 
Q 1024 1498 1062 1248 
Q 1101 998 1200 809 
Q 1299 621 1465 509 
Q 1632 397 1888 397 
Q 2099 397 2246 486 
Q 2394 576 2490 717 
Q 2586 858 2627 1021 
Q 2669 1184 2669 1338 
Q 2669 1773 2461 2003 
Q 2253 2234 1837 2234 
z
" transform="scale(0.015625)"/>
     </defs>
     <use xlink:href="#Ubuntu-33"/>
     <use xlink:href="#Ubuntu-36" x="56.399994"/>
    </g>
   </g>
   <g id="text_5">
    <!-- 29 -->
    <g style="fill: #4b4b4b" transform="translate(177.0625 88.837381) scale(0.08 -0.08)">
     <defs>
      <path id="Ubuntu-39" d="M 3206 2662 
Q 3206 1344 2550 669 
Q 1894 -6 602 -13 
L 582 486 
Q 986 486 1309 563 
Q 1632 640 1875 809 
Q 2118 979 2281 1248 
Q 2445 1517 2522 1907 
Q 2355 1830 2144 1782 
Q 1933 1734 1709 1734 
Q 1331 1734 1068 1846 
Q 806 1958 640 2147 
Q 474 2336 400 2582 
Q 326 2829 326 3098 
Q 326 3334 409 3590 
Q 493 3846 662 4057 
Q 832 4269 1094 4403 
Q 1357 4538 1715 4538 
Q 2080 4538 2358 4410 
Q 2637 4282 2825 4038 
Q 3014 3795 3110 3446 
Q 3206 3098 3206 2662 
z
M 1773 2221 
Q 1997 2221 2195 2262 
Q 2394 2304 2579 2387 
Q 2586 2458 2586 2525 
Q 2586 2592 2586 2662 
Q 2586 2938 2547 3190 
Q 2509 3443 2409 3632 
Q 2310 3821 2144 3933 
Q 1978 4045 1722 4045 
Q 1510 4045 1363 3955 
Q 1216 3866 1120 3728 
Q 1024 3590 982 3427 
Q 941 3264 941 3110 
Q 941 2675 1149 2448 
Q 1357 2221 1773 2221 
z
" transform="scale(0.015625)"/>
     </defs>
     <use xlink:href="#Ubuntu-32"/>
     <use xlink:href="#Ubuntu-39" x="56.399994"/>
    </g>
   </g>
   <g id="text_6">
    <!-- 24 -->
    <g style="fill: #4b4b4b" transform="translate(211.9375 64.099328) scale(0.08 -0.08)">
     <use xlink:href="#Ubuntu-32"/>
     <use xlink:href="#Ubuntu-34" x="56.399994"/>
    </g>
   </g>
   <g id="text_7">
    <!-- 21 -->
    <g style="fill: #4b4b4b" transform="translate(246.8125 67.472325) scale(0.08 -0.08)">
     <use xlink:href="#Ubuntu-32"/>
     <use xlink:href="#Ubuntu-31" x="56.399994"/>
    </g>
   </g>
   <g id="text_8">
    <!-- 18 -->
    <g style="fill: #4b4b4b" transform="translate(281.6875 89.707421) scale(0.08 -0.08)">
     <use xlink:href="#Ubuntu-31"/>
     <use xlink:href="#Ubuntu-38" x="56.399994"/>
    </g>
   </g>
   <g id="text_9">
    <!-- 16 -->
    <g style="fill: #4b4b4b" transform="translate(316.5625 71.295611) scale(0.08 -0.08)">
     <use xlink:href="#Ubuntu-31"/>
     <use xlink:href="#Ubuntu-36" x="56.399994"/>
    </g>
   </g>
   <g id="text_10">
    <!-- 14 -->
    <g style="fill: #4b4b4b" transform="translate(351.4375 90.252926) scale(0.08 -0.08)">
     <use xlink:href="#Ubuntu-31"/>
     <use xlink:href="#Ubuntu-34" x="56.399994"/>
    </g>
   </g>
   <g id="text_11">
    <!-- 13 -->
    <g style="fill: #4b4b4b" transform="translate(386.3125 89.880866) scale(0.08 -0.08)">
     <use xlink:href="#Ubuntu-31"/>
     <use xlink:href="#Ubuntu-33" x="56.399994"/>
    </g>
   </g>
   <g id="text_12">
    <!-- 12 -->
    <g style="fill: #4b4b4b" transform="translate(421.1875 90.427976) scale(0.08 -0.08)">
     <use xlink:href="#Ubuntu-31"/>
     <use xlink:href="#Ubuntu-32" x="56.399994"/>
    </g>
   </g>
   <g id="text_13">
    <!-- Periods -->
    <g style="fill: #505050" transform="translate(7.2 14.959375) scale(0.1 -0.1)">
     <defs>
      <path id="Ubuntu-Bold-50" d="M 1843 4486 
Q 2835 4486 3366 4137 
Q 3898 3789 3898 2995 
Q 3898 2195 3360 1840 
Q 2822 1485 1824 1485 
L 1510 1485 
L 1510 0 
L 512 0 
L 512 4371 
Q 838 4435 1203 4460 
Q 1568 4486 1843 4486 
z
M 1907 3635 
Q 1798 3635 1692 3628 
Q 1587 3622 1510 3616 
L 1510 2336 
L 1824 2336 
Q 2342 2336 2604 2477 
Q 2867 2618 2867 3002 
Q 2867 3187 2800 3308 
Q 2733 3430 2608 3504 
Q 2483 3578 2304 3606 
Q 2125 3635 1907 3635 
z
" transform="scale(0.015625)"/>
      <path id="Ubuntu-Bold-65" d="M 288 1658 
Q 288 2106 425 2442 
Q 563 2778 787 3002 
Q 1011 3226 1302 3341 
Q 1594 3456 1901 3456 
Q 2618 3456 3034 3017 
Q 3450 2579 3450 1728 
Q 3450 1645 3443 1545 
Q 3437 1446 3430 1370 
L 1267 1370 
Q 1299 1075 1542 902 
Q 1786 730 2195 730 
Q 2458 730 2710 778 
Q 2963 826 3123 896 
L 3251 122 
Q 3174 83 3046 44 
Q 2918 6 2761 -22 
Q 2605 -51 2425 -70 
Q 2246 -90 2067 -90 
Q 1613 -90 1277 44 
Q 941 179 720 412 
Q 499 646 393 966 
Q 288 1286 288 1658 
z
M 2528 2022 
Q 2522 2144 2486 2259 
Q 2451 2374 2377 2464 
Q 2304 2554 2192 2611 
Q 2080 2669 1914 2669 
Q 1754 2669 1638 2614 
Q 1523 2560 1446 2470 
Q 1370 2381 1328 2262 
Q 1286 2144 1267 2022 
L 2528 2022 
z
" transform="scale(0.015625)"/>
      <path id="Ubuntu-Bold-72" d="M 2477 2522 
Q 2349 2554 2176 2589 
Q 2003 2624 1805 2624 
Q 1715 2624 1590 2608 
Q 1466 2592 1402 2573 
L 1402 0 
L 448 0 
L 448 3187 
Q 704 3277 1053 3357 
Q 1402 3437 1830 3437 
Q 1907 3437 2016 3427 
Q 2125 3418 2233 3402 
Q 2342 3386 2451 3363 
Q 2560 3341 2637 3309 
L 2477 2522 
z
" transform="scale(0.015625)"/>
      <path id="Ubuntu-Bold-69" d="M 1402 0 
L 448 0 
L 448 3366 
L 1402 3366 
L 1402 0 
z
M 1491 4339 
Q 1491 4077 1321 3926 
Q 1152 3776 922 3776 
Q 691 3776 521 3926 
Q 352 4077 352 4339 
Q 352 4602 521 4752 
Q 691 4902 922 4902 
Q 1152 4902 1321 4752 
Q 1491 4602 1491 4339 
z
" transform="scale(0.015625)"/>
      <path id="Ubuntu-Bold-6f" d="M 3597 1690 
Q 3597 1293 3481 963 
Q 3366 634 3148 400 
Q 2931 166 2627 38 
Q 2323 -90 1946 -90 
Q 1574 -90 1270 38 
Q 966 166 748 400 
Q 531 634 409 963 
Q 288 1293 288 1690 
Q 288 2086 413 2412 
Q 538 2739 758 2969 
Q 979 3200 1283 3328 
Q 1587 3456 1946 3456 
Q 2310 3456 2614 3328 
Q 2918 3200 3136 2969 
Q 3354 2739 3475 2412 
Q 3597 2086 3597 1690 
z
M 2624 1690 
Q 2624 2131 2448 2384 
Q 2272 2637 1946 2637 
Q 1619 2637 1440 2384 
Q 1261 2131 1261 1690 
Q 1261 1248 1440 989 
Q 1619 730 1946 730 
Q 2272 730 2448 989 
Q 2624 1248 2624 1690 
z
" transform="scale(0.015625)"/>
      <path id="Ubuntu-Bold-64" d="M 1261 1709 
Q 1261 1267 1459 998 
Q 1658 730 2048 730 
Q 2176 730 2285 739 
Q 2394 749 2464 762 
L 2464 2496 
Q 2374 2554 2230 2592 
Q 2086 2630 1939 2630 
Q 1261 2630 1261 1709 
z
M 3418 109 
Q 3290 70 3123 35 
Q 2957 0 2774 -25 
Q 2592 -51 2403 -67 
Q 2214 -83 2042 -83 
Q 1626 -83 1299 38 
Q 973 160 749 387 
Q 525 614 406 937 
Q 288 1261 288 1664 
Q 288 2074 390 2403 
Q 493 2733 685 2963 
Q 877 3194 1155 3315 
Q 1434 3437 1792 3437 
Q 1990 3437 2147 3398 
Q 2304 3360 2464 3290 
L 2464 4813 
L 3418 4966 
L 3418 109 
z
" transform="scale(0.015625)"/>
      <path id="Ubuntu-Bold-73" d="M 1414 685 
Q 1677 685 1785 736 
Q 1894 787 1894 934 
Q 1894 1050 1753 1136 
Q 1613 1222 1325 1331 
Q 1101 1414 918 1504 
Q 736 1594 608 1718 
Q 480 1843 409 2016 
Q 339 2189 339 2432 
Q 339 2906 691 3181 
Q 1043 3456 1658 3456 
Q 1965 3456 2246 3401 
Q 2528 3347 2694 3283 
L 2528 2541 
Q 2362 2598 2166 2643 
Q 1971 2688 1728 2688 
Q 1280 2688 1280 2438 
Q 1280 2381 1299 2336 
Q 1318 2291 1376 2249 
Q 1434 2208 1533 2160 
Q 1632 2112 1786 2054 
Q 2099 1939 2304 1827 
Q 2509 1715 2627 1584 
Q 2746 1453 2794 1293 
Q 2842 1133 2842 922 
Q 2842 422 2467 166 
Q 2093 -90 1408 -90 
Q 960 -90 662 -13 
Q 365 64 250 115 
L 410 890 
Q 653 794 909 739 
Q 1165 685 1414 685 
z
" transform="scale(0.015625)"/>
     </defs>
     <use xlink:href="#Ubuntu-Bold-50"/>
     <use xlink:href="#Ubuntu-Bold-65" x="62.899994"/>
     <use xlink:href="#Ubuntu-Bold-72" x="121.299988"/>
     <use xlink:href="#Ubuntu-Bold-69" x="163.499985"/>
     <use xlink:href="#Ubuntu-Bold-6f" x="192.399979"/>
     <use xlink:href="#Ubuntu-Bold-64" x="253.099976"/>
     <use xlink:href="#Ubuntu-Bold-73" x="313.499969"/>
    </g>
   </g>
   <g id="PathCollection_1">
    <defs>
     <path id="m96e96e4000" d="M 0 1.118034 
C 0.296506 1.118034 0.580908 1.000231 0.790569 0.790569 
C 1.000231 0.580908 1.118034 0.296506 1.118034 0 
C 1.118034 -0.296506 1.000231 -0.580908 0.790569 -0.790569 
C 0.580908 -1.000231 0.296506 -1.118034 0 -1.118034 
C -0.296506 -1.118034 -0.580908 -1.000231 -0.790569 -0.790569 
C -1.000231 -0.580908 -1.118034 -0.296506 -1.118034 0 
C -1.118034 0.296506 -1.000231 0.580908 -0.790569 0.790569 
C -0.580908 1.000231 -0.296506 1.118034 0 1.118034 
z
" style="stroke: #cb4c41"/>
    </defs>
    <g clip-path="url(#p49d2f72baa)">
     <use xlink:href="#m96e96e4000" x="42.075" y="90.9013" style="fill: #cb4c41; stroke: #cb4c41"/>
    </g>
   </g>
   <g id="PathCollection_2">
    <g clip-path="url(#p49d2f72baa)">
     <use xlink:href="#m96e96e4000" x="76.95" y="60.030276" style="fill: #cb4c41; stroke: #cb4c41"/>
    </g>
   </g>
   <g id="PathCollection_3">
    <g clip-path="url(#p49d2f72baa)">
     <use xlink:href="#m96e96e4000" x="111.825" y="65.508895" style="fill: #cb4c41; stroke: #cb4c41"/>
    </g>
   </g>
   <g id="PathCollection_4">
    <g clip-path="url(#p49d2f72baa)">
     <use xlink:href="#m96e96e4000" x="146.7" y="45.194343" style="fill: #cb4c41; stroke: #cb4c41"/>
    </g>
   </g>
   <g id="PathCollection_5">
    <g clip-path="url(#p49d2f72baa)">
     <use xlink:href="#m96e96e4000" x="181.575" y="97.205683" style="fill: #cb4c41; stroke: #cb4c41"/>
    </g>
   </g>
   <g id="PathCollection_6">
    <g clip-path="url(#p49d2f72baa)">
     <use xlink:href="#m96e96e4000" x="216.45" y="72.46763" style="fill: #cb4c41; stroke: #cb4c41"/>
    </g>
   </g>
   <g id="PathCollection_7">
    <g clip-path="url(#p49d2f72baa)">
     <use xlink:href="#m96e96e4000" x="251.325" y="75.840627" style="fill: #cb4c41; stroke: #cb4c41"/>
    </g>
   </g>
   <g id="PathCollection_8">
    <g clip-path="url(#p49d2f72baa)">
     <use xlink:href="#m96e96e4000" x="286.2" y="98.075723" style="fill: #cb4c41; stroke: #cb4c41"/>
    </g>
   </g>
   <g id="PathCollection_9">
    <g clip-path="url(#p49d2f72baa)">
     <use xlink:href="#m96e96e4000" x="321.075" y="79.663913" style="fill: #cb4c41; stroke: #cb4c41"/>
    </g>
   </g>
   <g id="PathCollection_10">
    <g clip-path="url(#p49d2f72baa)">
     <use xlink:href="#m96e96e4000" x="355.95" y="98.621228" style="fill: #cb4c41; stroke: #cb4c41"/>
    </g>
   </g>
   <g id="PathCollection_11">
    <g clip-path="url(#p49d2f72baa)">
     <use xlink:href="#m96e96e4000" x="390.825" y="98.249168" style="fill: #cb4c41; stroke: #cb4c41"/>
    </g>
   </g>
   <g id="PathCollection_12">
    <g clip-path="url(#p49d2f72baa)">
     <use xlink:href="#m96e96e4000" x="425.7" y="98.796278" style="fill: #cb4c41; stroke: #cb4c41"/>
    </g>
   </g>
  </g>
  <g id="axes_2">
   <g id="patch_4">
    <path d="M 7.2 251.719375 
L 509.4 251.719375 
L 509.4 168.036356 
L 7.2 168.036356 
L 7.2 251.719375 
z
" style="fill: none"/>
   </g>
   <g id="matplotlib.axis_3">
    <g id="xtick_7"/>
    <g id="xtick_8"/>
    <g id="xtick_9"/>
    <g id="xtick_10"/>
    <g id="xtick_11"/>
    <g id="xtick_12"/>
   </g>
   <g id="matplotlib.axis_4">
    <g id="ytick_8"/>
    <g id="ytick_9"/>
    <g id="ytick_10"/>
    <g id="ytick_11"/>
    <g id="ytick_12"/>
    <g id="ytick_13"/>
    <g id="ytick_14"/>
   </g>
   <g id="line2d_2">
    <path d="M 7.2 251.659391 
L 19.575 251.647821 
L 21.825 251.300647 
L 22.95 251.565491 
L 24.075 251.649683 
L 26.325 251.50999 
L 27.45 251.069229 
L 28.575 251.492013 
L 31.95 251.301576 
L 34.2 251.54088 
L 35.325 251.541378 
L 37.575 250.691326 
L 38.7 251.204865 
L 39.825 251.227486 
L 40.95 250.433872 
L 42.075 228.978281 
L 43.2 251.070776 
L 44.325 250.578228 
L 45.45 250.791992 
L 47.7 250.392703 
L 48.825 251.015333 
L 51.075 250.875438 
L 52.2 251.313576 
L 54.45 250.714063 
L 55.575 251.436616 
L 56.7 250.491186 
L 57.825 251.442655 
L 58.95 251.274912 
L 60.075 251.311022 
L 61.2 251.197002 
L 62.325 250.777858 
L 63.45 249.537761 
L 65.7 250.245069 
L 66.825 250.887622 
L 67.95 250.665242 
L 70.2 250.845936 
L 71.325 250.067821 
L 72.45 251.475573 
L 73.575 250.060367 
L 74.7 250.518333 
L 75.825 249.890355 
L 76.95 198.107257 
L 78.075 250.386732 
L 79.2 251.033473 
L 80.325 250.948356 
L 81.45 249.418011 
L 82.575 251.456997 
L 84.825 249.442099 
L 85.95 251.27426 
L 87.075 250.042453 
L 88.2 250.681883 
L 89.325 251.599797 
L 90.45 250.229424 
L 91.575 250.642795 
L 92.7 250.787162 
L 93.825 251.155077 
L 94.95 250.902619 
L 96.075 251.184593 
L 97.2 248.468664 
L 98.325 249.949702 
L 99.45 249.754052 
L 100.575 249.725598 
L 101.7 247.87009 
L 102.825 250.952631 
L 103.95 251.455219 
L 105.075 251.223773 
L 106.2 251.337092 
L 107.325 251.051578 
L 108.45 249.872882 
L 109.575 250.575704 
L 110.7 249.186002 
L 111.825 203.585876 
L 112.95 248.262573 
L 114.075 250.971975 
L 115.2 250.850485 
L 116.325 249.130484 
L 117.45 250.295245 
L 118.575 251.005033 
L 120.825 250.080759 
L 121.95 249.734071 
L 123.075 250.417276 
L 125.325 249.233219 
L 126.45 248.751079 
L 127.575 250.800899 
L 128.7 250.513156 
L 129.825 251.317659 
L 130.95 249.644849 
L 132.075 249.286511 
L 133.2 249.975749 
L 134.325 249.857438 
L 135.45 248.767735 
L 136.575 247.39753 
L 137.7 250.5773 
L 138.825 250.894578 
L 139.95 250.354297 
L 141.075 249.05981 
L 142.2 249.013195 
L 143.325 250.209089 
L 144.45 249.752458 
L 145.575 248.873234 
L 146.7 183.271324 
L 147.825 250.033329 
L 148.95 250.729805 
L 150.075 248.469779 
L 151.2 248.828313 
L 152.325 249.77564 
L 153.45 250.010066 
L 154.575 251.194878 
L 155.7 248.335924 
L 156.825 248.134539 
L 157.95 248.258986 
L 159.075 246.773662 
L 160.2 247.714906 
L 162.45 250.277816 
L 163.575 249.259277 
L 164.7 250.220013 
L 165.825 247.36496 
L 166.95 250.116013 
L 168.075 251.086439 
L 169.2 248.062478 
L 170.325 249.87211 
L 171.45 249.691553 
L 172.575 249.928125 
L 173.7 248.144904 
L 174.825 250.282807 
L 175.95 249.757735 
L 177.075 248.585516 
L 178.2 248.589814 
L 179.325 250.084687 
L 180.45 248.741045 
L 181.575 235.282664 
L 182.7 246.532221 
L 183.825 249.63034 
L 184.95 249.696237 
L 186.075 249.64946 
L 187.2 251.122398 
L 188.325 251.190276 
L 189.45 248.992311 
L 192.825 247.768244 
L 193.95 249.382651 
L 195.075 248.185126 
L 196.2 250.9052 
L 197.325 250.979645 
L 198.45 250.258959 
L 199.575 249.107862 
L 200.7 248.318164 
L 201.825 251.014566 
L 202.95 246.635258 
L 205.2 249.907691 
L 206.325 249.938446 
L 207.45 249.279616 
L 208.575 248.358092 
L 209.7 247.727164 
L 210.825 248.955342 
L 211.95 249.347529 
L 213.075 250.691377 
L 214.2 248.571719 
L 215.325 247.379751 
L 216.45 210.544611 
L 217.575 249.412382 
L 218.7 247.908895 
L 219.825 249.224791 
L 220.95 249.514642 
L 222.075 250.995979 
L 223.2 246.986719 
L 224.325 246.868037 
L 225.45 248.087945 
L 226.575 250.851539 
L 227.7 246.834304 
L 228.825 248.860049 
L 229.95 250.142302 
L 231.075 250.942667 
L 232.2 251.226583 
L 233.325 247.377359 
L 234.45 245.981467 
L 235.575 249.046193 
L 236.7 250.933823 
L 237.825 250.23217 
L 238.95 249.847879 
L 241.2 250.921175 
L 242.325 248.448341 
L 243.45 250.786682 
L 244.575 251.044845 
L 245.7 250.461784 
L 246.825 248.221155 
L 247.95 249.003939 
L 249.075 248.650065 
L 250.2 246.891807 
L 251.325 213.917608 
L 252.45 248.602747 
L 253.575 249.879558 
L 254.7 249.303997 
L 255.825 249.541461 
L 256.95 248.512101 
L 258.075 250.503698 
L 259.2 248.071853 
L 260.325 247.927879 
L 261.45 248.75453 
L 262.575 250.819833 
L 263.7 248.639078 
L 264.825 248.938497 
L 265.95 250.948105 
L 267.075 249.545422 
L 268.2 250.51431 
L 269.325 249.608813 
L 270.45 248.076437 
L 271.575 250.162167 
L 272.7 250.466201 
L 273.825 249.730341 
L 274.95 249.731788 
L 276.075 251.398986 
L 277.2 249.431328 
L 278.325 248.89328 
L 279.45 250.681619 
L 280.575 250.382876 
L 281.7 249.088296 
L 282.825 247.456866 
L 283.95 247.81122 
L 285.075 248.381377 
L 286.2 236.152704 
L 287.325 246.751724 
L 288.45 250.507553 
L 289.575 250.875392 
L 290.7 250.068295 
L 291.825 249.116853 
L 292.95 249.914236 
L 294.075 250.874406 
L 295.2 248.301346 
L 296.325 248.364098 
L 297.45 249.493411 
L 298.575 248.389589 
L 299.7 250.548125 
L 300.825 248.042953 
L 301.95 248.859733 
L 303.075 248.664936 
L 304.2 249.969356 
L 305.325 248.863166 
L 306.45 249.371531 
L 307.575 248.924314 
L 308.7 249.691547 
L 309.825 248.565915 
L 310.95 250.003848 
L 312.075 249.510715 
L 313.2 249.221187 
L 314.325 250.355767 
L 315.45 250.264483 
L 316.575 251.018419 
L 317.7 250.183342 
L 318.825 250.279223 
L 319.95 247.407572 
L 321.075 217.740894 
L 322.2 250.164277 
L 323.325 249.078102 
L 324.45 250.187641 
L 325.575 250.998002 
L 326.7 250.16005 
L 327.825 250.326634 
L 328.95 248.355597 
L 330.075 248.818498 
L 331.2 249.124804 
L 332.325 248.267382 
L 333.45 247.164266 
L 334.575 249.118835 
L 335.7 249.730435 
L 336.825 249.678805 
L 337.95 251.207329 
L 339.075 251.494815 
L 341.325 250.180224 
L 342.45 247.659316 
L 344.7 250.042335 
L 345.825 249.529506 
L 346.95 249.347022 
L 348.075 251.289625 
L 349.2 249.422946 
L 350.325 250.66122 
L 351.45 250.151739 
L 352.575 249.965103 
L 353.7 248.949608 
L 354.825 249.785362 
L 355.95 236.698209 
L 357.075 250.578501 
L 358.2 251.117767 
L 359.325 251.434417 
L 360.45 250.873664 
L 361.575 248.916217 
L 362.7 250.228474 
L 363.825 251.206494 
L 364.95 249.408858 
L 366.075 250.649945 
L 367.2 250.12547 
L 368.325 250.099186 
L 369.45 251.062085 
L 372.825 250.308981 
L 373.95 250.715134 
L 375.075 249.850666 
L 376.2 249.915409 
L 377.325 249.728611 
L 378.45 249.782403 
L 379.575 249.948771 
L 380.7 250.392932 
L 382.95 251.500332 
L 384.075 250.402433 
L 386.325 250.847942 
L 387.45 249.466795 
L 388.575 249.336002 
L 389.7 249.99488 
L 390.825 236.326149 
L 391.95 248.824496 
L 393.075 250.051862 
L 394.2 249.812525 
L 395.325 250.265939 
L 396.45 249.500498 
L 397.575 249.819641 
L 398.7 249.734783 
L 399.825 249.859048 
L 400.95 250.797085 
L 402.075 251.254264 
L 403.2 250.307773 
L 404.325 251.350934 
L 405.45 250.082646 
L 406.575 250.657402 
L 407.7 250.484814 
L 408.825 250.500757 
L 409.95 250.976738 
L 411.075 249.989706 
L 412.2 250.913076 
L 413.325 251.315382 
L 416.7 250.636235 
L 417.825 251.027644 
L 418.95 249.765294 
L 420.075 249.935912 
L 421.2 249.372876 
L 422.325 250.007995 
L 423.45 249.963143 
L 424.575 250.606885 
L 425.7 236.873259 
L 426.825 249.668707 
L 427.95 249.587946 
L 429.075 249.808551 
L 430.2 251.140269 
L 432.45 249.866584 
L 433.575 249.428743 
L 434.7 250.660308 
L 435.825 250.881622 
L 436.95 251.303108 
L 438.075 251.380182 
L 439.2 250.636694 
L 440.325 249.455669 
L 441.45 251.210649 
L 442.575 251.239444 
L 443.7 250.749026 
L 444.825 251.155449 
L 445.95 250.121806 
L 447.075 249.68285 
L 448.2 250.254311 
L 449.325 251.410491 
L 450.45 251.148697 
L 451.575 249.774089 
L 452.7 251.141734 
L 453.825 250.691767 
L 454.95 250.507343 
L 456.075 250.531108 
L 458.325 249.867685 
L 459.45 250.741682 
L 460.575 245.234218 
L 461.7 250.999501 
L 462.825 250.097504 
L 463.95 249.749451 
L 465.075 250.956467 
L 466.2 251.111503 
L 467.325 251.63991 
L 468.45 251.464921 
L 469.575 250.894605 
L 470.7 250.9088 
L 471.825 250.650748 
L 472.95 251.293269 
L 474.075 251.280031 
L 475.2 250.929614 
L 476.325 250.115469 
L 477.45 250.333471 
L 478.575 251.256947 
L 479.7 250.780255 
L 480.825 250.001587 
L 483.075 250.9853 
L 484.2 250.625851 
L 485.325 250.904836 
L 486.45 250.358812 
L 487.575 250.162312 
L 488.7 251.524682 
L 489.825 251.349235 
L 490.95 250.083314 
L 492.075 251.369813 
L 494.325 251.180552 
L 495.45 242.247135 
L 496.575 249.793536 
L 497.7 249.561186 
L 498.825 251.283182 
L 499.95 250.940597 
L 501.075 250.411203 
L 502.2 251.150806 
L 503.325 251.349024 
L 504.45 250.612638 
L 505.575 251.37811 
L 506.7 251.340334 
L 507.825 251.499319 
L 508.95 251.451047 
L 510.075 251.084391 
L 510.075 251.084391 
" clip-path="url(#pf71eafea74)" style="fill: none; stroke: #5b5b5b; stroke-width: 1.2; stroke-linecap: square"/>
   </g>
   <g id="patch_5">
    <path d="M 7.2 261.719375 
L 509.4 261.719375 
" style="fill: none; stroke: #aaaaaa; stroke-width: 0.75; stroke-linejoin: miter; stroke-linecap: square"/>
   </g>
   <g id="text_14">
    <!-- 24 h -->
    <g style="fill: #4b4b4b" transform="translate(34.355 220.609979) scale(0.08 -0.08)">
     <defs>
      <path id="Ubuntu-20" transform="scale(0.015625)"/>
      <path id="Ubuntu-68" d="M 512 0 
L 512 4864 
L 1107 4966 
L 1107 3264 
Q 1274 3328 1462 3363 
Q 1651 3398 1837 3398 
Q 2234 3398 2496 3286 
Q 2758 3174 2915 2972 
Q 3072 2771 3136 2489 
Q 3200 2208 3200 1869 
L 3200 0 
L 2605 0 
L 2605 1741 
Q 2605 2048 2563 2265 
Q 2522 2483 2426 2617 
Q 2330 2752 2170 2813 
Q 2010 2874 1773 2874 
Q 1677 2874 1574 2861 
Q 1472 2848 1379 2832 
Q 1286 2816 1212 2797 
Q 1139 2778 1107 2765 
L 1107 0 
L 512 0 
z
" transform="scale(0.015625)"/>
     </defs>
     <use xlink:href="#Ubuntu-32"/>
     <use xlink:href="#Ubuntu-34" x="56.399994"/>
     <use xlink:href="#Ubuntu-20" x="112.799988"/>
     <use xlink:href="#Ubuntu-68" x="135.899979"/>
    </g>
   </g>
   <g id="text_15">
    <!-- 12 h -->
    <g style="fill: #4b4b4b" transform="translate(69.23 189.738955) scale(0.08 -0.08)">
     <use xlink:href="#Ubuntu-31"/>
     <use xlink:href="#Ubuntu-32" x="56.399994"/>
     <use xlink:href="#Ubuntu-20" x="112.799988"/>
     <use xlink:href="#Ubuntu-68" x="135.899979"/>
    </g>
   </g>
   <g id="text_16">
    <!-- 8 h -->
    <g style="fill: #4b4b4b" transform="translate(106.36125 195.217574) scale(0.08 -0.08)">
     <use xlink:href="#Ubuntu-38"/>
     <use xlink:href="#Ubuntu-20" x="56.399994"/>
     <use xlink:href="#Ubuntu-68" x="79.499985"/>
    </g>
   </g>
   <g id="text_17">
    <!-- 6 h -->
    <g style="fill: #4b4b4b" transform="translate(141.23625 174.903022) scale(0.08 -0.08)">
     <use xlink:href="#Ubuntu-36"/>
     <use xlink:href="#Ubuntu-20" x="56.399994"/>
     <use xlink:href="#Ubuntu-68" x="79.499985"/>
    </g>
   </g>
   <g id="text_18">
    <!-- 5 h -->
    <g style="fill: #4b4b4b" transform="translate(176.11125 226.914362) scale(0.08 -0.08)">
     <defs>
      <path id="Ubuntu-35" d="M 1274 2726 
Q 2240 2688 2691 2304 
Q 3142 1920 3142 1261 
Q 3142 966 3043 716 
Q 2944 467 2742 288 
Q 2541 109 2233 6 
Q 1926 -96 1504 -96 
Q 1338 -96 1165 -70 
Q 992 -45 845 -6 
Q 698 32 582 70 
Q 467 109 416 134 
L 531 653 
Q 640 602 886 518 
Q 1133 435 1491 435 
Q 1779 435 1974 499 
Q 2170 563 2291 672 
Q 2413 781 2467 925 
Q 2522 1069 2522 1229 
Q 2522 1472 2438 1661 
Q 2355 1850 2144 1978 
Q 1933 2106 1581 2173 
Q 1229 2240 691 2240 
Q 730 2554 752 2829 
Q 774 3104 793 3366 
Q 813 3629 825 3888 
Q 838 4147 851 4435 
L 2989 4435 
L 2989 3930 
L 1370 3930 
Q 1363 3834 1350 3670 
Q 1338 3507 1325 3331 
Q 1312 3155 1299 2988 
Q 1286 2822 1274 2726 
z
" transform="scale(0.015625)"/>
     </defs>
     <use xlink:href="#Ubuntu-35"/>
     <use xlink:href="#Ubuntu-20" x="56.399994"/>
     <use xlink:href="#Ubuntu-68" x="79.499985"/>
    </g>
   </g>
   <g id="text_19">
    <!-- 4 h -->
    <g style="fill: #4b4b4b" transform="translate(210.98625 202.176309) scale(0.08 -0.08)">
     <use xlink:href="#Ubuntu-34"/>
     <use xlink:href="#Ubuntu-20" x="56.399994"/>
     <use xlink:href="#Ubuntu-68" x="79.499985"/>
    </g>
   </g>
   <g id="text_20">
    <!-- 3 h -->
    <g style="fill: #4b4b4b" transform="translate(245.86125 205.549306) scale(0.08 -0.08)">
     <use xlink:href="#Ubuntu-33"/>
     <use xlink:href="#Ubuntu-20" x="56.399994"/>
     <use xlink:href="#Ubuntu-68" x="79.499985"/>
    </g>
   </g>
   <g id="text_21">
    <!-- 3 h -->
    <g style="fill: #4b4b4b" transform="translate(280.73625 227.784402) scale(0.08 -0.08)">
     <use xlink:href="#Ubuntu-33"/>
     <use xlink:href="#Ubuntu-20" x="56.399994"/>
     <use xlink:href="#Ubuntu-68" x="79.499985"/>
    </g>
   </g>
   <g id="text_22">
    <!-- 3 h -->
    <g style="fill: #4b4b4b" transform="translate(315.61125 209.372592) scale(0.08 -0.08)">
     <use xlink:href="#Ubuntu-33"/>
     <use xlink:href="#Ubuntu-20" x="56.399994"/>
     <use xlink:href="#Ubuntu-68" x="79.499985"/>
    </g>
   </g>
   <g id="text_23">
    <!-- 2 h -->
    <g style="fill: #4b4b4b" transform="translate(350.48625 228.329907) scale(0.08 -0.08)">
     <use xlink:href="#Ubuntu-32"/>
     <use xlink:href="#Ubuntu-20" x="56.399994"/>
     <use xlink:href="#Ubuntu-68" x="79.499985"/>
    </g>
   </g>
   <g id="text_24">
    <!-- 2 h -->
    <g style="fill: #4b4b4b" transform="translate(385.36125 227.957847) scale(0.08 -0.08)">
     <use xlink:href="#Ubuntu-32"/>
     <use xlink:href="#Ubuntu-20" x="56.399994"/>
     <use xlink:href="#Ubuntu-68" x="79.499985"/>
    </g>
   </g>
   <g id="text_25">
    <!-- 2 h -->
    <g style="fill: #4b4b4b" transform="translate(420.23625 228.504957) scale(0.08 -0.08)">
     <use xlink:href="#Ubuntu-32"/>
     <use xlink:href="#Ubuntu-20" x="56.399994"/>
     <use xlink:href="#Ubuntu-68" x="79.499985"/>
    </g>
   </g>
   <g id="text_26">
    <!-- Hours -->
    <g style="fill: #505050" transform="translate(7.2 153.036356) scale(0.1 -0.1)">
     <defs>
      <path id="Ubuntu-Bold-48" d="M 3187 4435 
L 4186 4435 
L 4186 0 
L 3187 0 
L 3187 1882 
L 1510 1882 
L 1510 0 
L 512 0 
L 512 4435 
L 1510 4435 
L 1510 2739 
L 3187 2739 
L 3187 4435 
z
" transform="scale(0.015625)"/>
      <path id="Ubuntu-Bold-75" d="M 3322 115 
Q 3078 45 2694 -16 
Q 2310 -77 1888 -77 
Q 1459 -77 1174 38 
Q 890 154 723 362 
Q 557 570 486 858 
Q 416 1146 416 1491 
L 416 3366 
L 1370 3366 
L 1370 1606 
Q 1370 1146 1491 941 
Q 1613 736 1946 736 
Q 2048 736 2163 745 
Q 2278 755 2368 768 
L 2368 3366 
L 3322 3366 
L 3322 115 
z
" transform="scale(0.015625)"/>
     </defs>
     <use xlink:href="#Ubuntu-Bold-48"/>
     <use xlink:href="#Ubuntu-Bold-6f" x="73.399994"/>
     <use xlink:href="#Ubuntu-Bold-75" x="134.099991"/>
     <use xlink:href="#Ubuntu-Bold-72" x="192.999985"/>
     <use xlink:href="#Ubuntu-Bold-73" x="235.199982"/>
    </g>
   </g>
   <g id="PathCollection_13">
    <g clip-path="url(#pf71eafea74)">
     <use xlink:href="#m96e96e4000" x="42.075" y="228.978281" style="fill: #cb4c41; stroke: #cb4c41"/>
    </g>
   </g>
   <g id="PathCollection_14">
    <g clip-path="url(#pf71eafea74)">
     <use xlink:href="#m96e96e4000" x="76.95" y="198.107257" style="fill: #cb4c41; stroke: #cb4c41"/>
    </g>
   </g>
   <g id="PathCollection_15">
    <g clip-path="url(#pf71eafea74)">
     <use xlink:href="#m96e96e4000" x="111.825" y="203.585876" style="fill: #cb4c41; stroke: #cb4c41"/>
    </g>
   </g>
   <g id="PathCollection_16">
    <g clip-path="url(#pf71eafea74)">
     <use xlink:href="#m96e96e4000" x="146.7" y="183.271324" style="fill: #cb4c41; stroke: #cb4c41"/>
    </g>
   </g>
   <g id="PathCollection_17">
    <g clip-path="url(#pf71eafea74)">
     <use xlink:href="#m96e96e4000" x="181.575" y="235.282664" style="fill: #cb4c41; stroke: #cb4c41"/>
    </g>
   </g>
   <g id="PathCollection_18">
    <g clip-path="url(#pf71eafea74)">
     <use xlink:href="#m96e96e4000" x="216.45" y="210.544611" style="fill: #cb4c41; stroke: #cb4c41"/>
    </g>
   </g>
   <g id="PathCollection_19">
    <g clip-path="url(#pf71eafea74)">
     <use xlink:href="#m96e96e4000" x="251.325" y="213.917608" style="fill: #cb4c41; stroke: #cb4c41"/>
    </g>
   </g>
   <g id="PathCollection_20">
    <g clip-path="url(#pf71eafea74)">
     <use xlink:href="#m96e96e4000" x="286.2" y="236.152704" style="fill: #cb4c41; stroke: #cb4c41"/>
    </g>
   </g>
   <g id="PathCollection_21">
    <g clip-path="url(#pf71eafea74)">
     <use xlink:href="#m96e96e4000" x="321.075" y="217.740894" style="fill: #cb4c41; stroke: #cb4c41"/>
    </g>
   </g>
   <g id="PathCollection_22">
    <g clip-path="url(#pf71eafea74)">
     <use xlink:href="#m96e96e4000" x="355.95" y="236.698209" style="fill: #cb4c41; stroke: #cb4c41"/>
    </g>
   </g>
   <g id="PathCollection_23">
    <g clip-path="url(#pf71eafea74)">
     <use xlink:href="#m96e96e4000" x="390.825" y="236.326149" style="fill: #cb4c41; stroke: #cb4c41"/>
    </g>
   </g>
   <g id="PathCollection_24">
    <g clip-path="url(#pf71eafea74)">
     <use xlink:href="#m96e96e4000" x="425.7" y="236.873259" style="fill: #cb4c41; stroke: #cb4c41"/>
    </g>
   </g>
  </g>
 </g>
 <defs>
  <clipPath id="p49d2f72baa">
   <rect x="7.2" y="29.959375" width="502.2" height="83.683019"/>
  </clipPath>
  <clipPath id="pf71eafea74">
   <rect x="7.2" y="168.036356" width="502.2" height="83.683019"/>
  </clipPath>
 </defs>
</svg>
