<?xml version="1.0" encoding="utf-8" standalone="no"?>
<!DOCTYPE svg PUBLIC "-//W3C//DTD SVG 1.1//EN"
  "http://www.w3.org/Graphics/SVG/1.1/DTD/svg11.dtd">
<svg xmlns:xlink="http://www.w3.org/1999/xlink" width="494.998529pt" height="209.8225pt" viewBox="0 0 494.998529 209.8225" xmlns="http://www.w3.org/2000/svg" version="1.1">
 <metadata>
  <rdf:RDF xmlns:dc="http://purl.org/dc/elements/1.1/" xmlns:cc="http://creativecommons.org/ns#" xmlns:rdf="http://www.w3.org/1999/02/22-rdf-syntax-ns#">
   <cc:Work>
    <dc:type rdf:resource="http://purl.org/dc/dcmitype/StillImage"/>
    <dc:date>2024-05-23T13:52:30.055155</dc:date>
    <dc:format>image/svg+xml</dc:format>
    <dc:creator>
     <cc:Agent>
      <dc:title>Matplotlib v3.8.3, https://matplotlib.org/</dc:title>
     </cc:Agent>
    </dc:creator>
   </cc:Work>
  </rdf:RDF>
 </metadata>
 <defs>
  <style type="text/css">*{stroke-linejoin: round; stroke-linecap: butt}</style>
 </defs>
 <g id="figure_1">
  <g id="patch_1">
   <path d="M 0 209.8225 
L 494.998529 209.8225 
L 494.998529 0 
L 0 0 
L 0 209.8225 
z
" style="fill: none"/>
  </g>
  <g id="axes_1">
   <g id="patch_2">
    <path d="M 41.2625 163.91125 
L 487.6625 163.91125 
L 487.6625 25.31125 
L 41.2625 25.31125 
L 41.2625 163.91125 
z
" style="fill: none"/>
   </g>
   <g id="line2d_1">
    <path d="M 113.341278 159.717399 
L 113.341278 29.505101 
" clip-path="url(#pf14cb580c9)" style="fill: none; stroke-dasharray: 0.5,0.825; stroke-dashoffset: 0; stroke: #d9d9d9; stroke-width: 0.5"/>
   </g>
   <g id="line2d_2">
    <path d="M 188.297404 159.717399 
L 188.297404 29.505101 
" clip-path="url(#pf14cb580c9)" style="fill: none; stroke-dasharray: 0.5,0.825; stroke-dashoffset: 0; stroke: #d9d9d9; stroke-width: 0.5"/>
   </g>
   <g id="line2d_3">
    <path d="M 260.835591 159.717399 
L 260.835591 29.505101 
" clip-path="url(#pf14cb580c9)" style="fill: none; stroke-dasharray: 0.5,0.825; stroke-dashoffset: 0; stroke: #d9d9d9; stroke-width: 0.5"/>
   </g>
   <g id="line2d_4">
    <path d="M 335.791717 159.717399 
L 335.791717 29.505101 
" clip-path="url(#pf14cb580c9)" style="fill: none; stroke-dasharray: 0.5,0.825; stroke-dashoffset: 0; stroke: #d9d9d9; stroke-width: 0.5"/>
   </g>
   <g id="line2d_5">
    <path d="M 408.329903 159.717399 
L 408.329903 29.505101 
" clip-path="url(#pf14cb580c9)" style="fill: none; stroke-dasharray: 0.5,0.825; stroke-dashoffset: 0; stroke: #d9d9d9; stroke-width: 0.5"/>
   </g>
   <g id="line2d_6">
    <path d="M 45.638971 138.01535 
L 483.286029 138.01535 
" clip-path="url(#pf14cb580c9)" style="fill: none; stroke-dasharray: 0.5,0.825; stroke-dashoffset: 0; stroke: #d9d9d9; stroke-width: 0.5"/>
   </g>
   <g id="line2d_7">
    <path d="M 45.638971 116.3133 
L 483.286029 116.3133 
" clip-path="url(#pf14cb580c9)" style="fill: none; stroke-dasharray: 0.5,0.825; stroke-dashoffset: 0; stroke: #d9d9d9; stroke-width: 0.5"/>
   </g>
   <g id="line2d_8">
    <path d="M 45.638971 94.61125 
L 483.286029 94.61125 
" clip-path="url(#pf14cb580c9)" style="fill: none; stroke-dasharray: 0.5,0.825; stroke-dashoffset: 0; stroke: #d9d9d9; stroke-width: 0.5"/>
   </g>
   <g id="line2d_9">
    <path d="M 45.638971 72.9092 
L 483.286029 72.9092 
" clip-path="url(#pf14cb580c9)" style="fill: none; stroke-dasharray: 0.5,0.825; stroke-dashoffset: 0; stroke: #d9d9d9; stroke-width: 0.5"/>
   </g>
   <g id="line2d_10">
    <path d="M 45.638971 51.20715 
L 483.286029 51.20715 
" clip-path="url(#pf14cb580c9)" style="fill: none; stroke-dasharray: 0.5,0.825; stroke-dashoffset: 0; stroke: #d9d9d9; stroke-width: 0.5"/>
   </g>
   <g id="axes_2">
    <g id="patch_3">
     <path d="M 41.2625 163.91125 
L 487.6625 163.91125 
L 487.6625 163.91125 
L 41.2625 163.91125 
L 41.2625 163.91125 
z
" style="fill: none"/>
    </g>
    <g id="matplotlib.axis_1">
     <g id="xtick_1">
      <g id="line2d_11">
       <path d="M 79.490124 163.91125 
L 79.490124 163.91125 
" clip-path="url(#pc99c765989)" style="fill: none; stroke-dasharray: 0.5,0.825; stroke-dashoffset: 0; stroke: #d9d9d9; stroke-width: 0.5"/>
      </g>
      <g id="text_1">
       <!-- February -->
       <g style="fill: #808080" transform="translate(63.259499 201.11875) scale(0.08 -0.08)">
        <defs>
         <path id="Ubuntu-46" d="M 550 0 
L 550 4435 
L 3226 4435 
L 3226 3904 
L 1171 3904 
L 1171 2566 
L 2995 2566 
L 2995 2042 
L 1171 2042 
L 1171 0 
L 550 0 
z
" transform="scale(0.015625)"/>
         <path id="Ubuntu-65" d="M 326 1658 
Q 326 2099 454 2428 
Q 582 2758 793 2976 
Q 1005 3194 1280 3302 
Q 1555 3411 1843 3411 
Q 2515 3411 2873 2992 
Q 3232 2573 3232 1715 
Q 3232 1677 3232 1616 
Q 3232 1555 3226 1504 
L 947 1504 
Q 986 986 1248 717 
Q 1510 448 2067 448 
Q 2381 448 2595 502 
Q 2810 557 2918 608 
L 3002 109 
Q 2893 51 2621 -13 
Q 2349 -77 2003 -77 
Q 1568 -77 1251 54 
Q 934 186 729 416 
Q 525 646 425 963 
Q 326 1280 326 1658 
z
M 2611 1984 
Q 2618 2387 2410 2646 
Q 2202 2906 1837 2906 
Q 1632 2906 1475 2826 
Q 1318 2746 1209 2618 
Q 1101 2490 1040 2323 
Q 979 2157 960 1984 
L 2611 1984 
z
" transform="scale(0.015625)"/>
         <path id="Ubuntu-62" d="M 1107 3181 
Q 1216 3251 1437 3328 
Q 1658 3405 1946 3405 
Q 2304 3405 2582 3277 
Q 2861 3149 3053 2918 
Q 3245 2688 3344 2368 
Q 3443 2048 3443 1664 
Q 3443 1261 3324 937 
Q 3206 614 2988 390 
Q 2771 166 2464 44 
Q 2157 -77 1773 -77 
Q 1357 -77 1037 -19 
Q 717 38 512 96 
L 512 4864 
L 1107 4966 
L 1107 3181 
z
M 1107 518 
Q 1197 493 1360 470 
Q 1523 448 1766 448 
Q 2246 448 2534 765 
Q 2822 1082 2822 1664 
Q 2822 1920 2771 2144 
Q 2720 2368 2605 2531 
Q 2490 2694 2307 2787 
Q 2125 2880 1869 2880 
Q 1626 2880 1421 2797 
Q 1216 2714 1107 2624 
L 1107 518 
z
" transform="scale(0.015625)"/>
         <path id="Ubuntu-72" d="M 1741 3398 
Q 1818 3398 1917 3388 
Q 2016 3379 2112 3363 
Q 2208 3347 2288 3331 
Q 2368 3315 2406 3302 
L 2304 2784 
Q 2234 2810 2070 2845 
Q 1907 2880 1651 2880 
Q 1485 2880 1321 2845 
Q 1158 2810 1107 2797 
L 1107 0 
L 512 0 
L 512 3187 
Q 723 3264 1036 3331 
Q 1350 3398 1741 3398 
z
" transform="scale(0.015625)"/>
         <path id="Ubuntu-75" d="M 3162 96 
Q 2957 45 2621 -12 
Q 2285 -70 1843 -70 
Q 1459 -70 1196 42 
Q 934 154 774 358 
Q 614 563 544 841 
Q 474 1120 474 1459 
L 474 3328 
L 1069 3328 
L 1069 1587 
Q 1069 979 1261 716 
Q 1453 454 1907 454 
Q 2003 454 2105 460 
Q 2208 467 2297 476 
Q 2387 486 2460 496 
Q 2534 506 2566 518 
L 2566 3328 
L 3162 3328 
L 3162 96 
z
" transform="scale(0.015625)"/>
         <path id="Ubuntu-61" d="M 1638 429 
Q 1850 429 2013 438 
Q 2176 448 2285 474 
L 2285 1466 
Q 2221 1498 2077 1520 
Q 1933 1542 1728 1542 
Q 1594 1542 1443 1523 
Q 1293 1504 1168 1443 
Q 1043 1382 960 1276 
Q 877 1171 877 998 
Q 877 678 1081 553 
Q 1286 429 1638 429 
z
M 1587 3411 
Q 1946 3411 2192 3318 
Q 2438 3226 2588 3056 
Q 2739 2886 2803 2652 
Q 2867 2419 2867 2138 
L 2867 58 
Q 2790 45 2652 22 
Q 2515 0 2342 -19 
Q 2170 -38 1968 -54 
Q 1766 -70 1568 -70 
Q 1286 -70 1049 -12 
Q 813 45 640 169 
Q 467 294 371 499 
Q 275 704 275 992 
Q 275 1267 387 1465 
Q 499 1664 691 1785 
Q 883 1907 1139 1964 
Q 1395 2022 1677 2022 
Q 1766 2022 1862 2012 
Q 1958 2003 2044 1987 
Q 2131 1971 2195 1958 
Q 2259 1946 2285 1939 
L 2285 2106 
Q 2285 2253 2253 2397 
Q 2221 2541 2137 2653 
Q 2054 2765 1910 2832 
Q 1766 2899 1536 2899 
Q 1242 2899 1021 2857 
Q 800 2816 691 2771 
L 621 3264 
Q 736 3315 1005 3363 
Q 1274 3411 1587 3411 
z
" transform="scale(0.015625)"/>
         <path id="Ubuntu-79" d="M 122 -621 
Q 192 -653 304 -681 
Q 416 -710 525 -710 
Q 877 -710 1075 -553 
Q 1274 -397 1434 -45 
Q 1030 723 681 1584 
Q 333 2445 102 3328 
L 742 3328 
Q 813 3040 912 2707 
Q 1011 2374 1132 2022 
Q 1254 1670 1395 1318 
Q 1536 966 1690 640 
Q 1933 1312 2112 1971 
Q 2291 2630 2451 3328 
L 3066 3328 
Q 2835 2387 2553 1520 
Q 2272 653 1946 -102 
Q 1818 -390 1680 -598 
Q 1542 -806 1376 -940 
Q 1210 -1075 1002 -1139 
Q 794 -1203 531 -1203 
Q 461 -1203 384 -1193 
Q 307 -1184 233 -1168 
Q 160 -1152 99 -1133 
Q 38 -1114 13 -1101 
L 122 -621 
z
" transform="scale(0.015625)"/>
        </defs>
        <use xlink:href="#Ubuntu-46"/>
        <use xlink:href="#Ubuntu-65" x="52.324997"/>
        <use xlink:href="#Ubuntu-62" x="108.224991"/>
        <use xlink:href="#Ubuntu-72" x="167.124985"/>
        <use xlink:href="#Ubuntu-75" x="205.724976"/>
        <use xlink:href="#Ubuntu-61" x="263.124969"/>
        <use xlink:href="#Ubuntu-72" x="315.324966"/>
        <use xlink:href="#Ubuntu-79" x="356.049957"/>
       </g>
      </g>
     </g>
     <g id="xtick_2">
      <g id="line2d_12">
       <path d="M 147.192432 163.91125 
L 147.192432 163.91125 
" clip-path="url(#pc99c765989)" style="fill: none; stroke-dasharray: 0.5,0.825; stroke-dashoffset: 0; stroke: #d9d9d9; stroke-width: 0.5"/>
      </g>
      <g id="text_2">
       <!-- March -->
       <g style="fill: #808080" transform="translate(135.933057 201.11875) scale(0.08 -0.08)">
        <defs>
         <path id="Ubuntu-4d" d="M 2541 614 
Q 2477 768 2371 1005 
Q 2266 1242 2144 1517 
Q 2022 1792 1884 2083 
Q 1747 2374 1625 2633 
Q 1504 2893 1398 3097 
Q 1293 3302 1229 3411 
Q 1158 2656 1113 1776 
Q 1069 896 1037 0 
L 429 0 
Q 454 576 486 1161 
Q 518 1747 560 2313 
Q 602 2880 650 3417 
Q 698 3955 755 4435 
L 1299 4435 
Q 1472 4154 1670 3770 
Q 1869 3386 2067 2966 
Q 2266 2547 2451 2128 
Q 2637 1709 2790 1363 
Q 2944 1709 3129 2128 
Q 3315 2547 3513 2966 
Q 3712 3386 3910 3770 
Q 4109 4154 4282 4435 
L 4826 4435 
Q 5043 2291 5152 0 
L 4544 0 
Q 4512 896 4467 1776 
Q 4422 2656 4352 3411 
Q 4288 3302 4182 3097 
Q 4077 2893 3955 2633 
Q 3834 2374 3696 2083 
Q 3558 1792 3436 1517 
Q 3315 1242 3209 1005 
Q 3104 768 3040 614 
L 2541 614 
z
" transform="scale(0.015625)"/>
         <path id="Ubuntu-63" d="M 1958 -77 
Q 1555 -77 1251 51 
Q 947 179 739 409 
Q 531 640 428 957 
Q 326 1274 326 1658 
Q 326 2042 438 2362 
Q 550 2682 755 2915 
Q 960 3149 1257 3280 
Q 1555 3411 1920 3411 
Q 2144 3411 2368 3372 
Q 2592 3334 2797 3251 
L 2662 2746 
Q 2528 2810 2352 2848 
Q 2176 2886 1978 2886 
Q 1478 2886 1212 2572 
Q 947 2259 947 1658 
Q 947 1389 1008 1165 
Q 1069 941 1200 781 
Q 1331 621 1536 534 
Q 1741 448 2035 448 
Q 2272 448 2464 493 
Q 2656 538 2765 589 
L 2848 90 
Q 2797 58 2701 29 
Q 2605 0 2483 -22 
Q 2362 -45 2224 -61 
Q 2086 -77 1958 -77 
z
" transform="scale(0.015625)"/>
         <path id="Ubuntu-68" d="M 512 0 
L 512 4864 
L 1107 4966 
L 1107 3264 
Q 1274 3328 1462 3363 
Q 1651 3398 1837 3398 
Q 2234 3398 2496 3286 
Q 2758 3174 2915 2972 
Q 3072 2771 3136 2489 
Q 3200 2208 3200 1869 
L 3200 0 
L 2605 0 
L 2605 1741 
Q 2605 2048 2563 2265 
Q 2522 2483 2426 2617 
Q 2330 2752 2170 2813 
Q 2010 2874 1773 2874 
Q 1677 2874 1574 2861 
Q 1472 2848 1379 2832 
Q 1286 2816 1212 2797 
Q 1139 2778 1107 2765 
L 1107 0 
L 512 0 
z
" transform="scale(0.015625)"/>
        </defs>
        <use xlink:href="#Ubuntu-4d"/>
        <use xlink:href="#Ubuntu-61" x="87.099991"/>
        <use xlink:href="#Ubuntu-72" x="139.299988"/>
        <use xlink:href="#Ubuntu-63" x="177.899979"/>
        <use xlink:href="#Ubuntu-68" x="224.399963"/>
       </g>
      </g>
     </g>
     <g id="xtick_3">
      <g id="line2d_13">
       <path d="M 222.148558 163.91125 
L 222.148558 163.91125 
" clip-path="url(#pc99c765989)" style="fill: none; stroke-dasharray: 0.5,0.825; stroke-dashoffset: 0; stroke: #d9d9d9; stroke-width: 0.5"/>
      </g>
      <g id="text_3">
       <!-- April -->
       <g style="fill: #808080" transform="translate(213.492933 201.11875) scale(0.08 -0.08)">
        <defs>
         <path id="Ubuntu-41" d="M 3514 0 
Q 3405 288 3309 566 
Q 3213 845 3110 1133 
L 1101 1133 
L 698 0 
L 51 0 
Q 307 704 531 1302 
Q 755 1901 969 2438 
Q 1184 2976 1395 3465 
Q 1606 3955 1837 4435 
L 2406 4435 
Q 2637 3955 2848 3465 
Q 3059 2976 3273 2438 
Q 3488 1901 3712 1302 
Q 3936 704 4192 0 
L 3514 0 
z
M 2931 1645 
Q 2726 2202 2524 2723 
Q 2323 3245 2106 3725 
Q 1882 3245 1680 2723 
Q 1478 2202 1280 1645 
L 2931 1645 
z
" transform="scale(0.015625)"/>
         <path id="Ubuntu-70" d="M 2822 1658 
Q 2822 2240 2534 2553 
Q 2246 2867 1766 2867 
Q 1498 2867 1347 2848 
Q 1197 2829 1107 2803 
L 1107 704 
Q 1216 614 1421 531 
Q 1626 448 1869 448 
Q 2125 448 2307 541 
Q 2490 634 2605 797 
Q 2720 960 2771 1181 
Q 2822 1402 2822 1658 
z
M 3443 1658 
Q 3443 1280 3344 960 
Q 3245 640 3053 409 
Q 2861 179 2582 51 
Q 2304 -77 1946 -77 
Q 1658 -77 1437 0 
Q 1216 77 1107 147 
L 1107 -1184 
L 512 -1184 
L 512 3226 
Q 723 3277 1040 3337 
Q 1357 3398 1773 3398 
Q 2157 3398 2464 3276 
Q 2771 3155 2988 2931 
Q 3206 2707 3324 2384 
Q 3443 2061 3443 1658 
z
" transform="scale(0.015625)"/>
         <path id="Ubuntu-69" d="M 1107 0 
L 512 0 
L 512 3328 
L 1107 3328 
L 1107 0 
z
M 806 3930 
Q 646 3930 534 4035 
Q 422 4141 422 4320 
Q 422 4499 534 4604 
Q 646 4710 806 4710 
Q 966 4710 1078 4604 
Q 1190 4499 1190 4320 
Q 1190 4141 1078 4035 
Q 966 3930 806 3930 
z
" transform="scale(0.015625)"/>
         <path id="Ubuntu-6c" d="M 1510 -64 
Q 960 -51 729 173 
Q 499 397 499 870 
L 499 4864 
L 1094 4966 
L 1094 966 
Q 1094 819 1120 723 
Q 1146 627 1203 569 
Q 1261 512 1357 483 
Q 1453 454 1594 435 
L 1510 -64 
z
" transform="scale(0.015625)"/>
        </defs>
        <use xlink:href="#Ubuntu-41"/>
        <use xlink:href="#Ubuntu-70" x="66.299988"/>
        <use xlink:href="#Ubuntu-72" x="125.199982"/>
        <use xlink:href="#Ubuntu-69" x="163.799973"/>
        <use xlink:href="#Ubuntu-6c" x="189.09996"/>
       </g>
      </g>
     </g>
     <g id="xtick_4">
      <g id="line2d_14">
       <path d="M 294.686744 163.91125 
L 294.686744 163.91125 
" clip-path="url(#pc99c765989)" style="fill: none; stroke-dasharray: 0.5,0.825; stroke-dashoffset: 0; stroke: #d9d9d9; stroke-width: 0.5"/>
      </g>
      <g id="text_4">
       <!-- May -->
       <g style="fill: #808080" transform="translate(287.186744 201.095) scale(0.08 -0.08)">
        <use xlink:href="#Ubuntu-4d"/>
        <use xlink:href="#Ubuntu-61" x="87.099991"/>
        <use xlink:href="#Ubuntu-79" x="137.799988"/>
       </g>
      </g>
     </g>
     <g id="xtick_5">
      <g id="line2d_15">
       <path d="M 369.64287 163.91125 
L 369.64287 163.91125 
" clip-path="url(#pc99c765989)" style="fill: none; stroke-dasharray: 0.5,0.825; stroke-dashoffset: 0; stroke: #d9d9d9; stroke-width: 0.5"/>
      </g>
      <g id="text_5">
       <!-- June -->
       <g style="fill: #808080" transform="translate(360.81412 201.11875) scale(0.08 -0.08)">
        <defs>
         <path id="Ubuntu-4a" d="M 2682 1427 
Q 2682 1107 2614 832 
Q 2547 557 2377 349 
Q 2208 141 1923 22 
Q 1638 -96 1210 -96 
Q 992 -96 809 -61 
Q 627 -26 480 28 
Q 333 83 224 144 
Q 115 205 51 262 
L 294 755 
Q 429 659 643 553 
Q 858 448 1178 448 
Q 1638 448 1849 681 
Q 2061 915 2061 1485 
L 2061 4435 
L 2682 4435 
L 2682 1427 
z
" transform="scale(0.015625)"/>
         <path id="Ubuntu-6e" d="M 512 3232 
Q 717 3283 1056 3340 
Q 1395 3398 1837 3398 
Q 2234 3398 2496 3286 
Q 2758 3174 2915 2972 
Q 3072 2771 3136 2489 
Q 3200 2208 3200 1869 
L 3200 0 
L 2605 0 
L 2605 1741 
Q 2605 2048 2563 2265 
Q 2522 2483 2426 2617 
Q 2330 2752 2170 2813 
Q 2010 2874 1773 2874 
Q 1677 2874 1574 2867 
Q 1472 2861 1379 2851 
Q 1286 2842 1212 2829 
Q 1139 2816 1107 2810 
L 1107 0 
L 512 0 
L 512 3232 
z
" transform="scale(0.015625)"/>
        </defs>
        <use xlink:href="#Ubuntu-4a"/>
        <use xlink:href="#Ubuntu-75" x="49.999985"/>
        <use xlink:href="#Ubuntu-6e" x="107.399979"/>
        <use xlink:href="#Ubuntu-65" x="164.799973"/>
       </g>
      </g>
     </g>
     <g id="xtick_6">
      <g id="line2d_16">
       <path d="M 442.181057 163.91125 
L 442.181057 163.91125 
" clip-path="url(#pc99c765989)" style="fill: none; stroke-dasharray: 0.5,0.825; stroke-dashoffset: 0; stroke: #d9d9d9; stroke-width: 0.5"/>
      </g>
      <g id="text_6">
       <!-- July -->
       <g style="fill: #808080" transform="translate(434.804807 201.11875) scale(0.08 -0.08)">
        <use xlink:href="#Ubuntu-4a"/>
        <use xlink:href="#Ubuntu-75" x="49.999985"/>
        <use xlink:href="#Ubuntu-6c" x="107.399979"/>
        <use xlink:href="#Ubuntu-79" x="134.699966"/>
       </g>
      </g>
     </g>
    </g>
    <g id="matplotlib.axis_2"/>
   </g>
   <g id="matplotlib.axis_3">
    <g id="xtick_7">
     <g id="line2d_17">
      <defs>
       <path id="mdb5f0d648e" d="M 0 0 
L 0 3 
" style="stroke: #cecece; stroke-width: 0.75"/>
      </defs>
      <g>
       <use xlink:href="#mdb5f0d648e" x="45.638971" y="168.91125" style="fill: #cecece; stroke: #cecece; stroke-width: 0.75"/>
      </g>
     </g>
     <g id="text_7">
      <!-- 01 -->
      <g style="fill: #808080" transform="translate(41.126471 184.11875) scale(0.08 -0.08)">
       <defs>
        <path id="Ubuntu-30" d="M 320 2221 
Q 320 3334 713 3936 
Q 1107 4538 1805 4538 
Q 2502 4538 2896 3936 
Q 3290 3334 3290 2221 
Q 3290 1107 2896 505 
Q 2502 -96 1805 -96 
Q 1107 -96 713 505 
Q 320 1107 320 2221 
z
M 2662 2221 
Q 2662 2586 2620 2912 
Q 2579 3238 2480 3481 
Q 2381 3725 2214 3869 
Q 2048 4013 1805 4013 
Q 1562 4013 1395 3869 
Q 1229 3725 1129 3481 
Q 1030 3238 988 2912 
Q 947 2586 947 2221 
Q 947 1856 988 1529 
Q 1030 1203 1129 960 
Q 1229 717 1395 573 
Q 1562 429 1805 429 
Q 2048 429 2214 573 
Q 2381 717 2480 960 
Q 2579 1203 2620 1529 
Q 2662 1856 2662 2221 
z
" transform="scale(0.015625)"/>
        <path id="Ubuntu-31" d="M 595 3520 
Q 960 3661 1305 3881 
Q 1651 4102 1939 4435 
L 2362 4435 
L 2362 0 
L 1766 0 
L 1766 3610 
Q 1690 3539 1578 3462 
Q 1466 3386 1334 3315 
Q 1203 3245 1059 3181 
Q 915 3117 781 3072 
L 595 3520 
z
" transform="scale(0.015625)"/>
       </defs>
       <use xlink:href="#Ubuntu-30"/>
       <use xlink:href="#Ubuntu-31" x="56.399994"/>
      </g>
     </g>
    </g>
    <g id="xtick_8">
     <g id="line2d_18">
      <g>
       <use xlink:href="#mdb5f0d648e" x="67.400427" y="168.91125" style="fill: #cecece; stroke: #cecece; stroke-width: 0.75"/>
      </g>
     </g>
     <g id="text_8">
      <!-- 10 -->
      <g style="fill: #808080" transform="translate(62.887927 184.11875) scale(0.08 -0.08)">
       <use xlink:href="#Ubuntu-31"/>
       <use xlink:href="#Ubuntu-30" x="56.399994"/>
      </g>
     </g>
    </g>
    <g id="xtick_9">
     <g id="line2d_19">
      <g>
       <use xlink:href="#mdb5f0d648e" x="91.579822" y="168.91125" style="fill: #cecece; stroke: #cecece; stroke-width: 0.75"/>
      </g>
     </g>
     <g id="text_9">
      <!-- 20 -->
      <g style="fill: #808080" transform="translate(87.067322 184.11875) scale(0.08 -0.08)">
       <defs>
        <path id="Ubuntu-32" d="M 2989 3302 
Q 2989 3072 2896 2857 
Q 2803 2643 2649 2435 
Q 2496 2227 2304 2025 
Q 2112 1824 1920 1632 
Q 1811 1523 1667 1376 
Q 1523 1229 1395 1069 
Q 1267 909 1180 761 
Q 1094 614 1094 506 
L 3136 506 
L 3136 0 
L 448 0 
Q 442 38 442 76 
Q 442 115 442 147 
Q 442 448 541 707 
Q 640 966 800 1196 
Q 960 1427 1158 1632 
Q 1357 1837 1549 2029 
Q 1709 2182 1853 2332 
Q 1997 2483 2109 2633 
Q 2221 2784 2288 2944 
Q 2355 3104 2355 3283 
Q 2355 3475 2294 3609 
Q 2234 3744 2131 3833 
Q 2029 3923 1891 3964 
Q 1754 4006 1600 4006 
Q 1414 4006 1260 3955 
Q 1107 3904 985 3837 
Q 864 3770 781 3696 
Q 698 3622 653 3584 
L 358 4006 
Q 416 4070 531 4163 
Q 646 4256 806 4339 
Q 966 4422 1164 4480 
Q 1363 4538 1594 4538 
Q 2291 4538 2640 4214 
Q 2989 3891 2989 3302 
z
" transform="scale(0.015625)"/>
       </defs>
       <use xlink:href="#Ubuntu-32"/>
       <use xlink:href="#Ubuntu-30" x="56.399994"/>
      </g>
     </g>
    </g>
    <g id="xtick_10">
     <g id="line2d_20">
      <g>
       <use xlink:href="#mdb5f0d648e" x="113.341278" y="168.91125" style="fill: #cecece; stroke: #cecece; stroke-width: 0.75"/>
      </g>
     </g>
     <g id="text_10">
      <!-- 01 -->
      <g style="fill: #808080" transform="translate(108.828778 184.11875) scale(0.08 -0.08)">
       <use xlink:href="#Ubuntu-30"/>
       <use xlink:href="#Ubuntu-31" x="56.399994"/>
      </g>
     </g>
    </g>
    <g id="xtick_11">
     <g id="line2d_21">
      <g>
       <use xlink:href="#mdb5f0d648e" x="135.102734" y="168.91125" style="fill: #cecece; stroke: #cecece; stroke-width: 0.75"/>
      </g>
     </g>
     <g id="text_11">
      <!-- 10 -->
      <g style="fill: #808080" transform="translate(130.590234 184.11875) scale(0.08 -0.08)">
       <use xlink:href="#Ubuntu-31"/>
       <use xlink:href="#Ubuntu-30" x="56.399994"/>
      </g>
     </g>
    </g>
    <g id="xtick_12">
     <g id="line2d_22">
      <g>
       <use xlink:href="#mdb5f0d648e" x="159.28213" y="168.91125" style="fill: #cecece; stroke: #cecece; stroke-width: 0.75"/>
      </g>
     </g>
     <g id="text_12">
      <!-- 20 -->
      <g style="fill: #808080" transform="translate(154.76963 184.11875) scale(0.08 -0.08)">
       <use xlink:href="#Ubuntu-32"/>
       <use xlink:href="#Ubuntu-30" x="56.399994"/>
      </g>
     </g>
    </g>
    <g id="xtick_13">
     <g id="line2d_23">
      <g>
       <use xlink:href="#mdb5f0d648e" x="188.297404" y="168.91125" style="fill: #cecece; stroke: #cecece; stroke-width: 0.75"/>
      </g>
     </g>
     <g id="text_13">
      <!-- 01 -->
      <g style="fill: #808080" transform="translate(183.784904 184.11875) scale(0.08 -0.08)">
       <use xlink:href="#Ubuntu-30"/>
       <use xlink:href="#Ubuntu-31" x="56.399994"/>
      </g>
     </g>
    </g>
    <g id="xtick_14">
     <g id="line2d_24">
      <g>
       <use xlink:href="#mdb5f0d648e" x="210.05886" y="168.91125" style="fill: #cecece; stroke: #cecece; stroke-width: 0.75"/>
      </g>
     </g>
     <g id="text_14">
      <!-- 10 -->
      <g style="fill: #808080" transform="translate(205.54636 184.11875) scale(0.08 -0.08)">
       <use xlink:href="#Ubuntu-31"/>
       <use xlink:href="#Ubuntu-30" x="56.399994"/>
      </g>
     </g>
    </g>
    <g id="xtick_15">
     <g id="line2d_25">
      <g>
       <use xlink:href="#mdb5f0d648e" x="234.238256" y="168.91125" style="fill: #cecece; stroke: #cecece; stroke-width: 0.75"/>
      </g>
     </g>
     <g id="text_15">
      <!-- 20 -->
      <g style="fill: #808080" transform="translate(229.725756 184.11875) scale(0.08 -0.08)">
       <use xlink:href="#Ubuntu-32"/>
       <use xlink:href="#Ubuntu-30" x="56.399994"/>
      </g>
     </g>
    </g>
    <g id="xtick_16">
     <g id="line2d_26">
      <g>
       <use xlink:href="#mdb5f0d648e" x="260.835591" y="168.91125" style="fill: #cecece; stroke: #cecece; stroke-width: 0.75"/>
      </g>
     </g>
     <g id="text_16">
      <!-- 01 -->
      <g style="fill: #808080" transform="translate(256.323091 184.11875) scale(0.08 -0.08)">
       <use xlink:href="#Ubuntu-30"/>
       <use xlink:href="#Ubuntu-31" x="56.399994"/>
      </g>
     </g>
    </g>
    <g id="xtick_17">
     <g id="line2d_27">
      <g>
       <use xlink:href="#mdb5f0d648e" x="282.597047" y="168.91125" style="fill: #cecece; stroke: #cecece; stroke-width: 0.75"/>
      </g>
     </g>
     <g id="text_17">
      <!-- 10 -->
      <g style="fill: #808080" transform="translate(278.084547 184.11875) scale(0.08 -0.08)">
       <use xlink:href="#Ubuntu-31"/>
       <use xlink:href="#Ubuntu-30" x="56.399994"/>
      </g>
     </g>
    </g>
    <g id="xtick_18">
     <g id="line2d_28">
      <g>
       <use xlink:href="#mdb5f0d648e" x="306.776442" y="168.91125" style="fill: #cecece; stroke: #cecece; stroke-width: 0.75"/>
      </g>
     </g>
     <g id="text_18">
      <!-- 20 -->
      <g style="fill: #808080" transform="translate(302.263942 184.11875) scale(0.08 -0.08)">
       <use xlink:href="#Ubuntu-32"/>
       <use xlink:href="#Ubuntu-30" x="56.399994"/>
      </g>
     </g>
    </g>
    <g id="xtick_19">
     <g id="line2d_29">
      <g>
       <use xlink:href="#mdb5f0d648e" x="335.791717" y="168.91125" style="fill: #cecece; stroke: #cecece; stroke-width: 0.75"/>
      </g>
     </g>
     <g id="text_19">
      <!-- 01 -->
      <g style="fill: #808080" transform="translate(331.279217 184.11875) scale(0.08 -0.08)">
       <use xlink:href="#Ubuntu-30"/>
       <use xlink:href="#Ubuntu-31" x="56.399994"/>
      </g>
     </g>
    </g>
    <g id="xtick_20">
     <g id="line2d_30">
      <g>
       <use xlink:href="#mdb5f0d648e" x="357.553173" y="168.91125" style="fill: #cecece; stroke: #cecece; stroke-width: 0.75"/>
      </g>
     </g>
     <g id="text_20">
      <!-- 10 -->
      <g style="fill: #808080" transform="translate(353.040673 184.11875) scale(0.08 -0.08)">
       <use xlink:href="#Ubuntu-31"/>
       <use xlink:href="#Ubuntu-30" x="56.399994"/>
      </g>
     </g>
    </g>
    <g id="xtick_21">
     <g id="line2d_31">
      <g>
       <use xlink:href="#mdb5f0d648e" x="381.732568" y="168.91125" style="fill: #cecece; stroke: #cecece; stroke-width: 0.75"/>
      </g>
     </g>
     <g id="text_21">
      <!-- 20 -->
      <g style="fill: #808080" transform="translate(377.220068 184.11875) scale(0.08 -0.08)">
       <use xlink:href="#Ubuntu-32"/>
       <use xlink:href="#Ubuntu-30" x="56.399994"/>
      </g>
     </g>
    </g>
    <g id="xtick_22">
     <g id="line2d_32">
      <g>
       <use xlink:href="#mdb5f0d648e" x="408.329903" y="168.91125" style="fill: #cecece; stroke: #cecece; stroke-width: 0.75"/>
      </g>
     </g>
     <g id="text_22">
      <!-- 01 -->
      <g style="fill: #808080" transform="translate(403.817403 184.11875) scale(0.08 -0.08)">
       <use xlink:href="#Ubuntu-30"/>
       <use xlink:href="#Ubuntu-31" x="56.399994"/>
      </g>
     </g>
    </g>
    <g id="xtick_23">
     <g id="line2d_33">
      <g>
       <use xlink:href="#mdb5f0d648e" x="430.091359" y="168.91125" style="fill: #cecece; stroke: #cecece; stroke-width: 0.75"/>
      </g>
     </g>
     <g id="text_23">
      <!-- 10 -->
      <g style="fill: #808080" transform="translate(425.578859 184.11875) scale(0.08 -0.08)">
       <use xlink:href="#Ubuntu-31"/>
       <use xlink:href="#Ubuntu-30" x="56.399994"/>
      </g>
     </g>
    </g>
    <g id="xtick_24">
     <g id="line2d_34">
      <g>
       <use xlink:href="#mdb5f0d648e" x="454.270755" y="168.91125" style="fill: #cecece; stroke: #cecece; stroke-width: 0.75"/>
      </g>
     </g>
     <g id="text_24">
      <!-- 20 -->
      <g style="fill: #808080" transform="translate(449.758255 184.11875) scale(0.08 -0.08)">
       <use xlink:href="#Ubuntu-32"/>
       <use xlink:href="#Ubuntu-30" x="56.399994"/>
      </g>
     </g>
    </g>
    <g id="xtick_25">
     <g id="line2d_35">
      <g>
       <use xlink:href="#mdb5f0d648e" x="483.286029" y="168.91125" style="fill: #cecece; stroke: #cecece; stroke-width: 0.75"/>
      </g>
     </g>
     <g id="text_25">
      <!-- 31 -->
      <g style="fill: #808080" transform="translate(478.773529 184.11875) scale(0.08 -0.08)">
       <defs>
        <path id="Ubuntu-33" d="M 1446 435 
Q 2016 435 2262 659 
Q 2509 883 2509 1261 
Q 2509 1504 2406 1670 
Q 2304 1837 2137 1936 
Q 1971 2035 1750 2076 
Q 1530 2118 1299 2118 
L 1146 2118 
L 1146 2605 
L 1357 2605 
Q 1517 2605 1686 2637 
Q 1856 2669 1997 2752 
Q 2138 2835 2227 2979 
Q 2317 3123 2317 3341 
Q 2317 3520 2253 3648 
Q 2189 3776 2083 3859 
Q 1978 3942 1840 3977 
Q 1702 4013 1549 4013 
Q 1242 4013 1027 3923 
Q 813 3834 666 3738 
L 435 4192 
Q 512 4243 630 4304 
Q 749 4365 896 4416 
Q 1043 4467 1212 4502 
Q 1382 4538 1568 4538 
Q 1920 4538 2176 4451 
Q 2432 4365 2598 4208 
Q 2765 4051 2848 3836 
Q 2931 3622 2931 3373 
Q 2931 3027 2732 2780 
Q 2534 2534 2253 2406 
Q 2426 2355 2586 2259 
Q 2746 2163 2864 2016 
Q 2982 1869 3056 1677 
Q 3130 1485 3130 1248 
Q 3130 960 3030 713 
Q 2931 467 2723 288 
Q 2515 109 2201 6 
Q 1888 -96 1459 -96 
Q 1293 -96 1117 -70 
Q 941 -45 787 -6 
Q 634 32 518 70 
Q 403 109 352 134 
L 467 653 
Q 576 602 829 518 
Q 1082 435 1446 435 
z
" transform="scale(0.015625)"/>
       </defs>
       <use xlink:href="#Ubuntu-33"/>
       <use xlink:href="#Ubuntu-31" x="56.399994"/>
      </g>
     </g>
    </g>
   </g>
   <g id="matplotlib.axis_4">
    <g id="ytick_1">
     <g id="line2d_36">
      <defs>
       <path id="m52aff9cb3a" d="M 0 0 
L -3 0 
" style="stroke: #cecece; stroke-width: 0.75"/>
      </defs>
      <g>
       <use xlink:href="#m52aff9cb3a" x="38.7625" y="159.717399" style="fill: #cecece; stroke: #cecece; stroke-width: 0.75"/>
      </g>
     </g>
     <g id="text_26">
      <!-- 25000 -->
      <g style="fill: #808080" transform="translate(7.2 162.821149) scale(0.08 -0.08)">
       <defs>
        <path id="Ubuntu-35" d="M 1274 2726 
Q 2240 2688 2691 2304 
Q 3142 1920 3142 1261 
Q 3142 966 3043 716 
Q 2944 467 2742 288 
Q 2541 109 2233 6 
Q 1926 -96 1504 -96 
Q 1338 -96 1165 -70 
Q 992 -45 845 -6 
Q 698 32 582 70 
Q 467 109 416 134 
L 531 653 
Q 640 602 886 518 
Q 1133 435 1491 435 
Q 1779 435 1974 499 
Q 2170 563 2291 672 
Q 2413 781 2467 925 
Q 2522 1069 2522 1229 
Q 2522 1472 2438 1661 
Q 2355 1850 2144 1978 
Q 1933 2106 1581 2173 
Q 1229 2240 691 2240 
Q 730 2554 752 2829 
Q 774 3104 793 3366 
Q 813 3629 825 3888 
Q 838 4147 851 4435 
L 2989 4435 
L 2989 3930 
L 1370 3930 
Q 1363 3834 1350 3670 
Q 1338 3507 1325 3331 
Q 1312 3155 1299 2988 
Q 1286 2822 1274 2726 
z
" transform="scale(0.015625)"/>
       </defs>
       <use xlink:href="#Ubuntu-32"/>
       <use xlink:href="#Ubuntu-35" x="56.399994"/>
       <use xlink:href="#Ubuntu-30" x="112.799988"/>
       <use xlink:href="#Ubuntu-30" x="169.199982"/>
       <use xlink:href="#Ubuntu-30" x="225.599976"/>
      </g>
     </g>
    </g>
    <g id="ytick_2">
     <g id="line2d_37">
      <g>
       <use xlink:href="#m52aff9cb3a" x="38.7625" y="138.01535" style="fill: #cecece; stroke: #cecece; stroke-width: 0.75"/>
      </g>
     </g>
     <g id="text_27">
      <!-- 27500 -->
      <g style="fill: #808080" transform="translate(7.2 141.1191) scale(0.08 -0.08)">
       <defs>
        <path id="Ubuntu-37" d="M 1043 0 
Q 1082 512 1226 1078 
Q 1370 1645 1581 2179 
Q 1792 2714 2045 3171 
Q 2298 3629 2541 3917 
L 384 3917 
L 384 4435 
L 3206 4435 
L 3206 3942 
Q 2995 3699 2739 3273 
Q 2483 2848 2256 2320 
Q 2029 1792 1865 1193 
Q 1702 595 1664 0 
L 1043 0 
z
" transform="scale(0.015625)"/>
       </defs>
       <use xlink:href="#Ubuntu-32"/>
       <use xlink:href="#Ubuntu-37" x="56.399994"/>
       <use xlink:href="#Ubuntu-35" x="112.799988"/>
       <use xlink:href="#Ubuntu-30" x="169.199982"/>
       <use xlink:href="#Ubuntu-30" x="225.599976"/>
      </g>
     </g>
    </g>
    <g id="ytick_3">
     <g id="line2d_38">
      <g>
       <use xlink:href="#m52aff9cb3a" x="38.7625" y="116.3133" style="fill: #cecece; stroke: #cecece; stroke-width: 0.75"/>
      </g>
     </g>
     <g id="text_28">
      <!-- 30000 -->
      <g style="fill: #808080" transform="translate(7.2 119.41705) scale(0.08 -0.08)">
       <use xlink:href="#Ubuntu-33"/>
       <use xlink:href="#Ubuntu-30" x="56.399994"/>
       <use xlink:href="#Ubuntu-30" x="112.799988"/>
       <use xlink:href="#Ubuntu-30" x="169.199982"/>
       <use xlink:href="#Ubuntu-30" x="225.599976"/>
      </g>
     </g>
    </g>
    <g id="ytick_4">
     <g id="line2d_39">
      <g>
       <use xlink:href="#m52aff9cb3a" x="38.7625" y="94.61125" style="fill: #cecece; stroke: #cecece; stroke-width: 0.75"/>
      </g>
     </g>
     <g id="text_29">
      <!-- 32500 -->
      <g style="fill: #808080" transform="translate(7.2 97.715) scale(0.08 -0.08)">
       <use xlink:href="#Ubuntu-33"/>
       <use xlink:href="#Ubuntu-32" x="56.399994"/>
       <use xlink:href="#Ubuntu-35" x="112.799988"/>
       <use xlink:href="#Ubuntu-30" x="169.199982"/>
       <use xlink:href="#Ubuntu-30" x="225.599976"/>
      </g>
     </g>
    </g>
    <g id="ytick_5">
     <g id="line2d_40">
      <g>
       <use xlink:href="#m52aff9cb3a" x="38.7625" y="72.9092" style="fill: #cecece; stroke: #cecece; stroke-width: 0.75"/>
      </g>
     </g>
     <g id="text_30">
      <!-- 35000 -->
      <g style="fill: #808080" transform="translate(7.2 76.01295) scale(0.08 -0.08)">
       <use xlink:href="#Ubuntu-33"/>
       <use xlink:href="#Ubuntu-35" x="56.399994"/>
       <use xlink:href="#Ubuntu-30" x="112.799988"/>
       <use xlink:href="#Ubuntu-30" x="169.199982"/>
       <use xlink:href="#Ubuntu-30" x="225.599976"/>
      </g>
     </g>
    </g>
    <g id="ytick_6">
     <g id="line2d_41">
      <g>
       <use xlink:href="#m52aff9cb3a" x="38.7625" y="51.20715" style="fill: #cecece; stroke: #cecece; stroke-width: 0.75"/>
      </g>
     </g>
     <g id="text_31">
      <!-- 37500 -->
      <g style="fill: #808080" transform="translate(7.2 54.3109) scale(0.08 -0.08)">
       <use xlink:href="#Ubuntu-33"/>
       <use xlink:href="#Ubuntu-37" x="56.399994"/>
       <use xlink:href="#Ubuntu-35" x="112.799988"/>
       <use xlink:href="#Ubuntu-30" x="169.199982"/>
       <use xlink:href="#Ubuntu-30" x="225.599976"/>
      </g>
     </g>
    </g>
    <g id="ytick_7">
     <g id="line2d_42">
      <g>
       <use xlink:href="#m52aff9cb3a" x="38.7625" y="29.505101" style="fill: #cecece; stroke: #cecece; stroke-width: 0.75"/>
      </g>
     </g>
     <g id="text_32">
      <!-- 40000 -->
      <g style="fill: #808080" transform="translate(7.2 32.608851) scale(0.08 -0.08)">
       <defs>
        <path id="Ubuntu-34" d="M 256 1536 
Q 378 1818 589 2192 
Q 800 2566 1065 2963 
Q 1331 3360 1635 3744 
Q 1939 4128 2246 4435 
L 2816 4435 
L 2816 1619 
L 3341 1619 
L 3341 1133 
L 2816 1133 
L 2816 0 
L 2240 0 
L 2240 1133 
L 256 1133 
L 256 1536 
z
M 2240 3731 
Q 2048 3526 1853 3273 
Q 1658 3021 1472 2745 
Q 1286 2470 1123 2182 
Q 960 1894 832 1619 
L 2240 1619 
L 2240 3731 
z
" transform="scale(0.015625)"/>
       </defs>
       <use xlink:href="#Ubuntu-34"/>
       <use xlink:href="#Ubuntu-30" x="56.399994"/>
       <use xlink:href="#Ubuntu-30" x="112.799988"/>
       <use xlink:href="#Ubuntu-30" x="169.199982"/>
       <use xlink:href="#Ubuntu-30" x="225.599976"/>
      </g>
     </g>
    </g>
   </g>
   <g id="PolyCollection_1">
    <defs>
     <path id="m47765d9248" d="M 45.638971 -116.019762 
L 45.638971 -95.66277 
L 48.05691 -100.092241 
L 50.47485 -90.504423 
L 52.892789 -91.026826 
L 55.310729 -69.11342 
L 57.728668 -88.553243 
L 60.146608 -90.672283 
L 62.564547 -89.523812 
L 64.982487 -90.828059 
L 67.400427 -90.149125 
L 69.818366 -92.992802 
L 72.236306 -83.024397 
L 74.654245 -103.599945 
L 77.072185 -83.186703 
L 79.490124 -92.169007 
L 81.908064 -96.179545 
L 84.326003 -98.369926 
L 86.743943 -96.697976 
L 89.161883 -83.654447 
L 91.579822 -101.654485 
L 93.997762 -99.36674 
L 96.415701 -100.617854 
L 98.833641 -104.97489 
L 101.25158 -95.045218 
L 103.66952 -89.049466 
L 106.087459 -84.28902 
L 108.505399 -95.546167 
L 110.923338 -93.553588 
L 110.923338 -112.955221 
L 110.923338 -112.955221 
L 108.505399 -115.069975 
L 106.087459 -103.10181 
L 103.66952 -110.095939 
L 101.25158 -113.777103 
L 98.833641 -126.891486 
L 96.415701 -117.861907 
L 93.997762 -120.690034 
L 91.579822 -123.417448 
L 89.161883 -104.639722 
L 86.743943 -115.803109 
L 84.326003 -117.309158 
L 81.908064 -115.019205 
L 79.490124 -110.1467 
L 77.072185 -98.313933 
L 74.654245 -123.933129 
L 72.236306 -103.251232 
L 69.818366 -111.998308 
L 67.400427 -109.151541 
L 64.982487 -108.599169 
L 62.564547 -108.851198 
L 60.146608 -109.679756 
L 57.728668 -108.137568 
L 55.310729 -87.523996 
L 52.892789 -108.151518 
L 50.47485 -108.869166 
L 48.05691 -120.173451 
L 45.638971 -116.019762 
z
" style="stroke: #5b5b5b; stroke-opacity: 0.2"/>
    </defs>
    <g clip-path="url(#pf14cb580c9)">
     <use xlink:href="#m47765d9248" x="0" y="209.8225" style="fill: #5b5b5b; fill-opacity: 0.2; stroke: #5b5b5b; stroke-opacity: 0.2"/>
    </g>
   </g>
   <g id="PolyCollection_2">
    <defs>
     <path id="m26b3da5bc3" d="M 113.341278 -112.452098 
L 113.341278 -94.369885 
L 115.759218 -92.471399 
L 118.177157 -93.385138 
L 120.595097 -93.228957 
L 123.013036 -80.255334 
L 125.430976 -101.477805 
L 127.848915 -94.589584 
L 130.266855 -105.862524 
L 132.684794 -94.955037 
L 135.102734 -92.955622 
L 137.520674 -92.49323 
L 139.938613 -79.72223 
L 142.356553 -96.688153 
L 144.774492 -93.17292 
L 147.192432 -103.849497 
L 149.610371 -106.485604 
L 152.028311 -95.986632 
L 154.44625 -94.052065 
L 156.86419 -82.725627 
L 159.28213 -93.898914 
L 161.700069 -90.944018 
L 164.118009 -96.578664 
L 166.535948 -95.272681 
L 168.953888 -88.905521 
L 171.371827 -85.82045 
L 173.789767 -78.976215 
L 176.207706 -98.91748 
L 178.625646 -92.054793 
L 181.043585 -110.432699 
L 183.461525 -102.211778 
L 185.879465 -96.676462 
L 185.879465 -113.648906 
L 185.879465 -113.648906 
L 183.461525 -120.460339 
L 181.043585 -130.194142 
L 178.625646 -110.554378 
L 176.207706 -117.335465 
L 173.789767 -99.871595 
L 171.371827 -105.2407 
L 168.953888 -107.628646 
L 166.535948 -113.539176 
L 164.118009 -115.301697 
L 161.700069 -109.321868 
L 159.28213 -113.611763 
L 156.86419 -102.148334 
L 154.44625 -113.015538 
L 152.028311 -115.20026 
L 149.610371 -126.303325 
L 147.192432 -125.116232 
L 144.774492 -111.980415 
L 142.356553 -115.505955 
L 139.938613 -97.830716 
L 137.520674 -111.297585 
L 135.102734 -110.24185 
L 132.684794 -112.511275 
L 130.266855 -126.716125 
L 127.848915 -112.435438 
L 125.430976 -120.412788 
L 123.013036 -99.039224 
L 120.595097 -111.853703 
L 118.177157 -112.422786 
L 115.759218 -111.47822 
L 113.341278 -112.452098 
z
" style="stroke: #bb5951; stroke-opacity: 0.2"/>
    </defs>
    <g clip-path="url(#pf14cb580c9)">
     <use xlink:href="#m26b3da5bc3" x="0" y="209.8225" style="fill: #bb5951; fill-opacity: 0.2; stroke: #bb5951; stroke-opacity: 0.2"/>
    </g>
   </g>
   <g id="PolyCollection_3">
    <defs>
     <path id="md92c6a2c86" d="M 188.297404 -123.24554 
L 188.297404 -105.340532 
L 190.715344 -75.798907 
L 193.133283 -98.317122 
L 195.551223 -98.095402 
L 197.969162 -99.33731 
L 200.387102 -100.612952 
L 202.805041 -98.65702 
L 205.222981 -95.733032 
L 207.640921 -83.355052 
L 210.05886 -95.689572 
L 212.4768 -97.654035 
L 214.894739 -98.295668 
L 217.312679 -98.896037 
L 219.730618 -96.247265 
L 222.148558 -93.938943 
L 224.566497 -77.506571 
L 226.984437 -102.076226 
L 229.402377 -103.900992 
L 231.820316 -103.611282 
L 234.238256 -73.268322 
L 236.656195 -103.83775 
L 239.074135 -96.861109 
L 241.492074 -78.459602 
L 243.910014 -96.705041 
L 246.327953 -99.80713 
L 248.745893 -100.638218 
L 251.163832 -99.484071 
L 253.581772 -98.053913 
L 255.999712 -96.131892 
L 258.417651 -75.185886 
L 258.417651 -92.861101 
L 258.417651 -92.861101 
L 255.999712 -114.551881 
L 253.581772 -115.989534 
L 251.163832 -117.819215 
L 248.745893 -118.108625 
L 246.327953 -119.804974 
L 243.910014 -114.996519 
L 241.492074 -97.41228 
L 239.074135 -114.921017 
L 236.656195 -127.285803 
L 234.238256 -86.830426 
L 231.820316 -120.818611 
L 229.402377 -121.137307 
L 226.984437 -120.801623 
L 224.566497 -96.07121 
L 222.148558 -111.312655 
L 219.730618 -112.467008 
L 217.312679 -116.468745 
L 214.894739 -115.40391 
L 212.4768 -115.46361 
L 210.05886 -113.145719 
L 207.640921 -99.172524 
L 205.222981 -113.295629 
L 202.805041 -115.648748 
L 200.387102 -118.527286 
L 197.969162 -116.956796 
L 195.551223 -116.832442 
L 193.133283 -116.827191 
L 190.715344 -93.98815 
L 188.297404 -123.24554 
z
" style="stroke: #5481a6; stroke-opacity: 0.2"/>
    </defs>
    <g clip-path="url(#pf14cb580c9)">
     <use xlink:href="#md92c6a2c86" x="0" y="209.8225" style="fill: #5481a6; fill-opacity: 0.2; stroke: #5481a6; stroke-opacity: 0.2"/>
    </g>
   </g>
   <g id="PolyCollection_4">
    <defs>
     <path id="m84abf26e60" d="M 260.835591 -97.945716 
L 260.835591 -78.682379 
L 263.25353 -100.942297 
L 265.67147 -89.187879 
L 268.089409 -102.270054 
L 270.507349 -99.870543 
L 272.925288 -99.532797 
L 275.343228 -80.032564 
L 277.761168 -105.967989 
L 280.179107 -103.057685 
L 282.597047 -108.518556 
L 285.014986 -109.176856 
L 287.432926 -104.338974 
L 289.850865 -101.88918 
L 292.268805 -85.031047 
L 294.686744 -107.460217 
L 297.104684 -107.641385 
L 299.522623 -107.736296 
L 301.940563 -107.739825 
L 304.358503 -103.774844 
L 306.776442 -102.491183 
L 309.194382 -98.384728 
L 311.612321 -111.512974 
L 314.030261 -114.231048 
L 316.4482 -111.877189 
L 318.86614 -114.741935 
L 321.284079 -116.828084 
L 323.702019 -118.168136 
L 326.119959 -105.470915 
L 328.537898 -119.623213 
L 330.955838 -118.136601 
L 333.373777 -118.743556 
L 333.373777 -137.465912 
L 333.373777 -137.465912 
L 330.955838 -136.938536 
L 328.537898 -139.802751 
L 326.119959 -125.845909 
L 323.702019 -137.213039 
L 321.284079 -137.393069 
L 318.86614 -135.846157 
L 316.4482 -130.794527 
L 314.030261 -133.583204 
L 311.612321 -132.133289 
L 309.194382 -115.010481 
L 306.776442 -120.875888 
L 304.358503 -120.893743 
L 301.940563 -125.935336 
L 299.522623 -126.605704 
L 297.104684 -126.096714 
L 294.686744 -126.142916 
L 292.268805 -104.239263 
L 289.850865 -119.603062 
L 287.432926 -123.04985 
L 285.014986 -126.454316 
L 282.597047 -127.280607 
L 280.179107 -121.62648 
L 277.761168 -124.311614 
L 275.343228 -98.22225 
L 272.925288 -117.488832 
L 270.507349 -117.665825 
L 268.089409 -120.910706 
L 265.67147 -107.828189 
L 263.25353 -120.475451 
L 260.835591 -97.945716 
z
" style="stroke: #48a072; stroke-opacity: 0.2"/>
    </defs>
    <g clip-path="url(#pf14cb580c9)">
     <use xlink:href="#m84abf26e60" x="0" y="209.8225" style="fill: #48a072; fill-opacity: 0.2; stroke: #48a072; stroke-opacity: 0.2"/>
    </g>
   </g>
   <g id="PolyCollection_5">
    <defs>
     <path id="m2b40865618" d="M 335.791717 -140.376679 
L 335.791717 -121.752353 
L 338.209656 -126.05003 
L 340.627596 -134.491543 
L 343.045535 -102.247643 
L 345.463475 -121.567354 
L 347.881415 -120.787747 
L 350.299354 -121.131857 
L 352.717294 -125.564 
L 355.135233 -125.053882 
L 357.553173 -132.447947 
L 359.971112 -109.206211 
L 362.389052 -130.993191 
L 364.806991 -129.56854 
L 367.224931 -127.277915 
L 369.64287 -131.492176 
L 372.06081 -130.913359 
L 374.47875 -129.634691 
L 376.896689 -116.817297 
L 379.314629 -139.008003 
L 381.732568 -144.366828 
L 384.150508 -148.133729 
L 386.568447 -141.086494 
L 388.986387 -142.459501 
L 391.404326 -140.685164 
L 393.822266 -129.205805 
L 396.240206 -97.38945 
L 398.658145 -77.701925 
L 401.076085 -102.731652 
L 403.494024 -102.693623 
L 405.911964 -103.592059 
L 405.911964 -120.833968 
L 405.911964 -120.833968 
L 403.494024 -121.149314 
L 401.076085 -120.260105 
L 398.658145 -94.390965 
L 396.240206 -112.759704 
L 393.822266 -152.266757 
L 391.404326 -161.468388 
L 388.986387 -165.032468 
L 386.568447 -161.055714 
L 384.150508 -166.849653 
L 381.732568 -164.871308 
L 379.314629 -158.449954 
L 376.896689 -137.07492 
L 374.47875 -149.556425 
L 372.06081 -150.791037 
L 369.64287 -151.608874 
L 367.224931 -147.2951 
L 364.806991 -148.604256 
L 362.389052 -151.854524 
L 359.971112 -129.592092 
L 357.553173 -151.639036 
L 355.135233 -145.854774 
L 352.717294 -145.426501 
L 350.299354 -141.524923 
L 347.881415 -141.591227 
L 345.463475 -142.509554 
L 343.045535 -123.314767 
L 340.627596 -155.285383 
L 338.209656 -147.285711 
L 335.791717 -140.376679 
z
" style="stroke: #736194; stroke-opacity: 0.2"/>
    </defs>
    <g clip-path="url(#pf14cb580c9)">
     <use xlink:href="#m2b40865618" x="0" y="209.8225" style="fill: #736194; fill-opacity: 0.2; stroke: #736194; stroke-opacity: 0.2"/>
    </g>
   </g>
   <g id="PolyCollection_6">
    <defs>
     <path id="m5eb3e0b55c" d="M 408.329903 -122.194878 
L 408.329903 -103.954207 
L 410.747843 -98.523157 
L 413.165782 -117.394866 
L 415.583722 -110.391943 
L 418.001662 -130.991606 
L 420.419601 -135.682171 
L 422.837541 -118.607421 
L 425.25548 -125.019731 
L 427.67342 -107.058335 
L 430.091359 -134.245164 
L 432.509299 -140.861727 
L 434.927238 -143.789346 
L 437.345178 -142.917139 
L 439.763117 -124.280044 
L 442.181057 -132.590107 
L 444.598997 -128.07536 
L 447.016936 -143.257729 
L 449.434876 -146.862077 
L 451.852815 -151.232307 
L 454.270755 -142.814998 
L 456.688694 -132.266802 
L 459.106634 -129.808707 
L 461.524573 -116.181983 
L 463.942513 -151.916064 
L 466.360453 -157.252153 
L 468.778392 -155.149799 
L 471.196332 -155.735605 
L 473.614271 -152.717949 
L 476.032211 -153.378421 
L 478.45015 -134.737702 
L 480.86809 -158.828563 
L 480.86809 -177.363854 
L 480.86809 -177.363854 
L 478.45015 -153.857751 
L 476.032211 -173.517222 
L 473.614271 -171.527276 
L 471.196332 -175.593216 
L 468.778392 -173.422377 
L 466.360453 -176.476949 
L 463.942513 -172.911824 
L 461.524573 -135.789619 
L 459.106634 -149.302349 
L 456.688694 -150.704364 
L 454.270755 -160.958729 
L 451.852815 -171.520316 
L 449.434876 -166.026588 
L 447.016936 -163.776496 
L 444.598997 -145.27589 
L 442.181057 -151.051116 
L 439.763117 -140.567733 
L 437.345178 -161.086672 
L 434.927238 -163.210733 
L 432.509299 -159.544611 
L 430.091359 -153.756657 
L 427.67342 -124.036404 
L 425.25548 -143.500466 
L 422.837541 -135.730814 
L 420.419601 -155.650383 
L 418.001662 -149.478205 
L 415.583722 -130.500952 
L 413.165782 -136.584851 
L 410.747843 -116.098905 
L 408.329903 -122.194878 
z
" style="stroke: #dd7c49; stroke-opacity: 0.2"/>
    </defs>
    <g clip-path="url(#pf14cb580c9)">
     <use xlink:href="#m5eb3e0b55c" x="0" y="209.8225" style="fill: #dd7c49; fill-opacity: 0.2; stroke: #dd7c49; stroke-opacity: 0.2"/>
    </g>
   </g>
   <g id="line2d_43">
    <path d="M 45.638971 104.384161 
L 48.05691 99.985266 
L 50.47485 109.924069 
L 52.892789 110.526577 
L 55.310729 131.417559 
L 57.728668 111.62014 
L 60.146608 110.133733 
L 62.564547 110.787737 
L 64.982487 110.114974 
L 67.400427 110.158746 
L 69.818366 107.175265 
L 72.236306 116.50825 
L 74.654245 95.908959 
L 77.072185 119.109922 
L 79.490124 108.335038 
L 81.908064 104.525041 
L 84.326003 101.978912 
L 86.743943 103.879129 
L 89.161883 115.870063 
L 91.579822 97.734138 
L 93.997762 99.524373 
L 96.415701 100.834956 
L 98.833641 93.652681 
L 101.25158 105.375835 
L 103.66952 110.811646 
L 106.087459 116.24378 
L 108.505399 104.575801 
L 110.923338 106.07545 
" clip-path="url(#pf14cb580c9)" style="fill: none; stroke: #5b5b5b; stroke-width: 1.2; stroke-linecap: square"/>
   </g>
   <g id="line2d_44">
    <path d="M 113.341278 106.374684 
L 115.759218 107.702665 
L 118.177157 106.938384 
L 120.595097 107.648733 
L 123.013036 120.487851 
L 125.430976 99.032188 
L 127.848915 106.552734 
L 130.266855 93.430658 
L 132.684794 106.002702 
L 135.102734 108.223514 
L 137.520674 108.157762 
L 139.938613 120.969913 
L 142.356553 103.458298 
L 144.774492 106.95279 
L 147.192432 94.786344 
L 149.610371 93.740213 
L 152.028311 103.792233 
L 154.44625 106.730413 
L 156.86419 117.776849 
L 159.28213 106.471836 
L 161.700069 109.975193 
L 164.118009 103.930387 
L 166.535948 106.049985 
L 168.953888 111.48307 
L 171.371827 113.96246 
L 173.789767 120.320514 
L 176.207706 101.470945 
L 178.625646 109.042836 
L 181.043585 89.880018 
L 183.461525 98.505429 
L 185.879465 104.999421 
" clip-path="url(#pf14cb580c9)" style="fill: none; stroke: #bb5951; stroke-width: 1.2; stroke-linecap: square"/>
   </g>
   <g id="line2d_45">
    <path d="M 188.297404 95.30067 
L 190.715344 124.881615 
L 193.133283 101.760172 
L 195.551223 102.560788 
L 197.969162 101.902952 
L 200.387102 99.698453 
L 202.805041 102.443798 
L 205.222981 105.321831 
L 207.640921 118.7757 
L 210.05886 105.541608 
L 212.4768 103.193955 
L 214.894739 102.97829 
L 217.312679 102.388853 
L 219.730618 105.166716 
L 222.148558 107.139477 
L 224.566497 122.916329 
L 226.984437 98.154034 
L 229.402377 97.625522 
L 231.820316 97.295109 
L 234.238256 129.914061 
L 236.656195 94.344191 
L 239.074135 103.91907 
L 241.492074 121.658966 
L 243.910014 103.794978 
L 246.327953 100.416467 
L 248.745893 100.779398 
L 251.163832 101.82745 
L 253.581772 102.856067 
L 255.999712 104.245745 
L 258.417651 125.960316 
" clip-path="url(#pf14cb580c9)" style="fill: none; stroke: #5481a6; stroke-width: 1.2; stroke-linecap: square"/>
   </g>
   <g id="line2d_46">
    <path d="M 260.835591 121.81286 
L 263.25353 99.521653 
L 265.67147 111.498338 
L 268.089409 98.034055 
L 270.507349 100.754994 
L 272.925288 100.796737 
L 275.343228 120.66073 
L 277.761168 94.620168 
L 280.179107 97.390441 
L 282.597047 91.64573 
L 285.014986 92.402432 
L 287.432926 95.776852 
L 289.850865 99.056399 
L 292.268805 115.162688 
L 294.686744 93.506746 
L 297.104684 92.872999 
L 299.522623 93.297268 
L 301.940563 92.706023 
L 304.358503 97.670504 
L 306.776442 98.166117 
L 309.194382 103.230782 
L 311.612321 87.762795 
L 314.030261 85.95263 
L 316.4482 88.798801 
L 318.86614 84.967476 
L 321.284079 82.670806 
L 323.702019 81.871601 
L 326.119959 94.258135 
L 328.537898 80.166176 
L 330.955838 82.223008 
L 333.373777 81.677303 
" clip-path="url(#pf14cb580c9)" style="fill: none; stroke: #48a072; stroke-width: 1.2; stroke-linecap: square"/>
   </g>
   <g id="line2d_47">
    <path d="M 335.791717 78.546942 
L 338.209656 73.725542 
L 340.627596 64.442239 
L 343.045535 96.914254 
L 345.463475 77.683076 
L 347.881415 79.158624 
L 350.299354 78.703312 
L 352.717294 73.906441 
L 355.135233 73.763102 
L 357.553173 68.101597 
L 359.971112 89.436102 
L 362.389052 68.341518 
L 364.806991 70.299205 
L 367.224931 71.980947 
L 369.64287 68.282496 
L 372.06081 69.520423 
L 374.47875 69.992598 
L 376.896689 82.676177 
L 379.314629 61.546333 
L 381.732568 55.271614 
L 384.150508 52.670051 
L 386.568447 58.679554 
L 388.986387 56.134713 
L 391.404326 58.626664 
L 393.822266 68.988459 
L 396.240206 105.10067 
L 398.658145 124.094227 
L 401.076085 98.235732 
L 403.494024 97.666209 
L 405.911964 97.514055 
" clip-path="url(#pf14cb580c9)" style="fill: none; stroke: #736194; stroke-width: 1.2; stroke-linecap: square"/>
   </g>
   <g id="line2d_48">
    <path d="M 408.329903 97.001696 
L 410.747843 102.390918 
L 413.165782 82.692859 
L 415.583722 89.540997 
L 418.001662 69.618372 
L 420.419601 63.83808 
L 422.837541 83.053935 
L 425.25548 75.835492 
L 427.67342 94.252289 
L 430.091359 65.489262 
L 432.509299 59.761267 
L 434.927238 56.183193 
L 437.345178 57.553282 
L 439.763117 77.177126 
L 442.181057 68.31596 
L 444.598997 73.236053 
L 447.016936 56.615407 
L 449.434876 53.45109 
L 451.852815 48.20376 
L 454.270755 57.919741 
L 456.688694 68.673191 
L 459.106634 70.569705 
L 461.524573 84.017958 
L 463.942513 46.490668 
L 466.360453 42.961044 
L 468.778392 45.394366 
L 471.196332 44.066575 
L 473.614271 47.6235 
L 476.032211 46.859434 
L 478.45015 65.843417 
L 480.86809 41.778992 
" clip-path="url(#pf14cb580c9)" style="fill: none; stroke: #dd7c49; stroke-width: 1.2; stroke-linecap: square"/>
   </g>
   <g id="line2d_49"/>
   <g id="line2d_50"/>
   <g id="line2d_51"/>
   <g id="line2d_52"/>
   <g id="line2d_53"/>
   <g id="line2d_54"/>
   <g id="patch_4">
    <path d="M 38.7625 159.717399 
L 38.7625 29.505101 
" style="fill: none; stroke: #cccccc; stroke-width: 0.75; stroke-linejoin: miter; stroke-linecap: square"/>
   </g>
   <g id="patch_5">
    <path d="M 45.638971 168.91125 
L 483.286029 168.91125 
" style="fill: none; stroke: #cccccc; stroke-width: 0.75; stroke-linejoin: miter; stroke-linecap: square"/>
   </g>
   <g id="legend_1">
    <g id="line2d_55">
     <defs>
      <path id="m123c5caa23" d="M 0 1.5 
C 0.397805 1.5 0.77937 1.341951 1.06066 1.06066 
C 1.341951 0.77937 1.5 0.397805 1.5 0 
C 1.5 -0.397805 1.341951 -0.77937 1.06066 -1.06066 
C 0.77937 -1.341951 0.397805 -1.5 0 -1.5 
C -0.397805 -1.5 -0.77937 -1.341951 -1.06066 -1.06066 
C -1.341951 -0.77937 -1.5 -0.397805 -1.5 0 
C -1.5 0.397805 -1.341951 0.77937 -1.06066 1.06066 
C -0.77937 1.341951 -0.397805 1.5 0 1.5 
z
" style="stroke: #5b5b5b"/>
     </defs>
     <g>
      <use xlink:href="#m123c5caa23" x="56.4625" y="13.8075" style="fill: #5b5b5b; stroke: #5b5b5b"/>
     </g>
    </g>
    <g id="text_33">
     <!-- February -->
     <g style="fill: #4b4b4b" transform="translate(64.4625 16.6075) scale(0.08 -0.08)">
      <use xlink:href="#Ubuntu-46"/>
      <use xlink:href="#Ubuntu-65" x="52.324997"/>
      <use xlink:href="#Ubuntu-62" x="108.224991"/>
      <use xlink:href="#Ubuntu-72" x="167.124985"/>
      <use xlink:href="#Ubuntu-75" x="205.724976"/>
      <use xlink:href="#Ubuntu-61" x="263.124969"/>
      <use xlink:href="#Ubuntu-72" x="315.324966"/>
      <use xlink:href="#Ubuntu-79" x="356.049957"/>
     </g>
    </g>
    <g id="line2d_56">
     <defs>
      <path id="m48b93f6f08" d="M 0 1.5 
C 0.397805 1.5 0.77937 1.341951 1.06066 1.06066 
C 1.341951 0.77937 1.5 0.397805 1.5 0 
C 1.5 -0.397805 1.341951 -0.77937 1.06066 -1.06066 
C 0.77937 -1.341951 0.397805 -1.5 0 -1.5 
C -0.397805 -1.5 -0.77937 -1.341951 -1.06066 -1.06066 
C -1.341951 -0.77937 -1.5 -0.397805 -1.5 0 
C -1.5 0.397805 -1.341951 0.77937 -1.06066 1.06066 
C -0.77937 1.341951 -0.397805 1.5 0 1.5 
z
" style="stroke: #bb5951"/>
     </defs>
     <g>
      <use xlink:href="#m48b93f6f08" x="120.92375" y="13.8075" style="fill: #bb5951; stroke: #bb5951"/>
     </g>
    </g>
    <g id="text_34">
     <!-- March -->
     <g style="fill: #4b4b4b" transform="translate(128.92375 16.6075) scale(0.08 -0.08)">
      <use xlink:href="#Ubuntu-4d"/>
      <use xlink:href="#Ubuntu-61" x="87.099991"/>
      <use xlink:href="#Ubuntu-72" x="139.299988"/>
      <use xlink:href="#Ubuntu-63" x="177.899979"/>
      <use xlink:href="#Ubuntu-68" x="224.399963"/>
     </g>
    </g>
    <g id="line2d_57">
     <defs>
      <path id="m7b88834bfd" d="M 0 1.5 
C 0.397805 1.5 0.77937 1.341951 1.06066 1.06066 
C 1.341951 0.77937 1.5 0.397805 1.5 0 
C 1.5 -0.397805 1.341951 -0.77937 1.06066 -1.06066 
C 0.77937 -1.341951 0.397805 -1.5 0 -1.5 
C -0.397805 -1.5 -0.77937 -1.341951 -1.06066 -1.06066 
C -1.341951 -0.77937 -1.5 -0.397805 -1.5 0 
C -1.5 0.397805 -1.341951 0.77937 -1.06066 1.06066 
C -0.77937 1.341951 -0.397805 1.5 0 1.5 
z
" style="stroke: #5481a6"/>
     </defs>
     <g>
      <use xlink:href="#m7b88834bfd" x="175.4425" y="13.8075" style="fill: #5481a6; stroke: #5481a6"/>
     </g>
    </g>
    <g id="text_35">
     <!-- April -->
     <g style="fill: #4b4b4b" transform="translate(183.4425 16.6075) scale(0.08 -0.08)">
      <use xlink:href="#Ubuntu-41"/>
      <use xlink:href="#Ubuntu-70" x="66.299988"/>
      <use xlink:href="#Ubuntu-72" x="125.199982"/>
      <use xlink:href="#Ubuntu-69" x="163.799973"/>
      <use xlink:href="#Ubuntu-6c" x="189.09996"/>
     </g>
    </g>
    <g id="line2d_58">
     <defs>
      <path id="m831d96f083" d="M 0 1.5 
C 0.397805 1.5 0.77937 1.341951 1.06066 1.06066 
C 1.341951 0.77937 1.5 0.397805 1.5 0 
C 1.5 -0.397805 1.341951 -0.77937 1.06066 -1.06066 
C 0.77937 -1.341951 0.397805 -1.5 0 -1.5 
C -0.397805 -1.5 -0.77937 -1.341951 -1.06066 -1.06066 
C -1.341951 -0.77937 -1.5 -0.397805 -1.5 0 
C -1.5 0.397805 -1.341951 0.77937 -1.06066 1.06066 
C -0.77937 1.341951 -0.397805 1.5 0 1.5 
z
" style="stroke: #48a072"/>
     </defs>
     <g>
      <use xlink:href="#m831d96f083" x="224.75375" y="13.8075" style="fill: #48a072; stroke: #48a072"/>
     </g>
    </g>
    <g id="text_36">
     <!-- May -->
     <g style="fill: #4b4b4b" transform="translate(232.75375 16.6075) scale(0.08 -0.08)">
      <use xlink:href="#Ubuntu-4d"/>
      <use xlink:href="#Ubuntu-61" x="87.099991"/>
      <use xlink:href="#Ubuntu-79" x="137.799988"/>
     </g>
    </g>
    <g id="line2d_59">
     <defs>
      <path id="m72d867fe4e" d="M 0 1.5 
C 0.397805 1.5 0.77937 1.341951 1.06066 1.06066 
C 1.341951 0.77937 1.5 0.397805 1.5 0 
C 1.5 -0.397805 1.341951 -0.77937 1.06066 -1.06066 
C 0.77937 -1.341951 0.397805 -1.5 0 -1.5 
C -0.397805 -1.5 -0.77937 -1.341951 -1.06066 -1.06066 
C -1.341951 -0.77937 -1.5 -0.397805 -1.5 0 
C -1.5 0.397805 -1.341951 0.77937 -1.06066 1.06066 
C -0.77937 1.341951 -0.397805 1.5 0 1.5 
z
" style="stroke: #736194"/>
     </defs>
     <g>
      <use xlink:href="#m72d867fe4e" x="271.75375" y="13.8075" style="fill: #736194; stroke: #736194"/>
     </g>
    </g>
    <g id="text_37">
     <!-- June -->
     <g style="fill: #4b4b4b" transform="translate(279.75375 16.6075) scale(0.08 -0.08)">
      <use xlink:href="#Ubuntu-4a"/>
      <use xlink:href="#Ubuntu-75" x="49.999985"/>
      <use xlink:href="#Ubuntu-6e" x="107.399979"/>
      <use xlink:href="#Ubuntu-65" x="164.799973"/>
     </g>
    </g>
    <g id="line2d_60">
     <defs>
      <path id="m0fffe23c63" d="M 0 1.5 
C 0.397805 1.5 0.77937 1.341951 1.06066 1.06066 
C 1.341951 0.77937 1.5 0.397805 1.5 0 
C 1.5 -0.397805 1.341951 -0.77937 1.06066 -1.06066 
C 0.77937 -1.341951 0.397805 -1.5 0 -1.5 
C -0.397805 -1.5 -0.77937 -1.341951 -1.06066 -1.06066 
C -1.341951 -0.77937 -1.5 -0.397805 -1.5 0 
C -1.5 0.397805 -1.341951 0.77937 -1.06066 1.06066 
C -0.77937 1.341951 -0.397805 1.5 0 1.5 
z
" style="stroke: #dd7c49"/>
     </defs>
     <g>
      <use xlink:href="#m0fffe23c63" x="321.41125" y="13.8075" style="fill: #dd7c49; stroke: #dd7c49"/>
     </g>
    </g>
    <g id="text_38">
     <!-- July -->
     <g style="fill: #4b4b4b" transform="translate(329.41125 16.6075) scale(0.08 -0.08)">
      <use xlink:href="#Ubuntu-4a"/>
      <use xlink:href="#Ubuntu-75" x="49.999985"/>
      <use xlink:href="#Ubuntu-6c" x="107.399979"/>
      <use xlink:href="#Ubuntu-79" x="134.699966"/>
     </g>
    </g>
   </g>
  </g>
 </g>
 <defs>
  <clipPath id="pf14cb580c9">
   <rect x="41.2625" y="25.31125" width="446.4" height="138.6"/>
  </clipPath>
  <clipPath id="pc99c765989">
   <rect x="41.2625" y="163.91125" width="446.4" height="0"/>
  </clipPath>
 </defs>
</svg>
