<?xml version="1.0" encoding="utf-8" standalone="no"?>
<!DOCTYPE svg PUBLIC "-//W3C//DTD SVG 1.1//EN"
  "http://www.w3.org/Graphics/SVG/1.1/DTD/svg11.dtd">
<svg xmlns:xlink="http://www.w3.org/1999/xlink" width="497.3625pt" height="209.8225pt" viewBox="0 0 497.3625 209.8225" xmlns="http://www.w3.org/2000/svg" version="1.1">
 <metadata>
  <rdf:RDF xmlns:dc="http://purl.org/dc/elements/1.1/" xmlns:cc="http://creativecommons.org/ns#" xmlns:rdf="http://www.w3.org/1999/02/22-rdf-syntax-ns#">
   <cc:Work>
    <dc:type rdf:resource="http://purl.org/dc/dcmitype/StillImage"/>
    <dc:date>2024-04-15T11:13:53.211811</dc:date>
    <dc:format>image/svg+xml</dc:format>
    <dc:creator>
     <cc:Agent>
      <dc:title>Matplotlib v3.8.3, https://matplotlib.org/</dc:title>
     </cc:Agent>
    </dc:creator>
   </cc:Work>
  </rdf:RDF>
 </metadata>
 <defs>
  <style type="text/css">*{stroke-linejoin: round; stroke-linecap: butt}</style>
 </defs>
 <g id="figure_1">
  <g id="patch_1">
   <path d="M 0 209.8225 
L 497.3625 209.8225 
L 497.3625 0 
L 0 0 
L 0 209.8225 
z
" style="fill: none"/>
  </g>
  <g id="axes_1">
   <g id="patch_2">
    <path d="M 43.7625 163.91125 
L 490.1625 163.91125 
L 490.1625 25.31125 
L 43.7625 25.31125 
L 43.7625 163.91125 
z
" style="fill: none"/>
   </g>
   <g id="axes_2">
    <g id="patch_3">
     <path d="M 43.7625 163.91125 
L 490.1625 163.91125 
L 490.1625 163.91125 
L 43.7625 163.91125 
L 43.7625 163.91125 
z
" style="fill: none"/>
    </g>
    <g id="matplotlib.axis_1">
     <g id="xtick_1">
      <g id="line2d_1">
       <path d="M 77.177164 163.91125 
L 77.177164 163.91125 
" clip-path="url(#p01e3609b29)" style="fill: none; stroke-dasharray: 0.5,0.825; stroke-dashoffset: 0; stroke: #d9d9d9; stroke-width: 0.5"/>
      </g>
      <g id="text_1">
       <!-- January -->
       <g style="fill: #808080" transform="translate(62.791539 201.095) scale(0.08 -0.08)">
        <defs>
         <path id="Ubuntu-4a" d="M 2682 1427 
Q 2682 1107 2614 832 
Q 2547 557 2377 349 
Q 2208 141 1923 22 
Q 1638 -96 1210 -96 
Q 992 -96 809 -61 
Q 627 -26 480 28 
Q 333 83 224 144 
Q 115 205 51 262 
L 294 755 
Q 429 659 643 553 
Q 858 448 1178 448 
Q 1638 448 1849 681 
Q 2061 915 2061 1485 
L 2061 4435 
L 2682 4435 
L 2682 1427 
z
" transform="scale(0.015625)"/>
         <path id="Ubuntu-61" d="M 1638 429 
Q 1850 429 2013 438 
Q 2176 448 2285 474 
L 2285 1466 
Q 2221 1498 2077 1520 
Q 1933 1542 1728 1542 
Q 1594 1542 1443 1523 
Q 1293 1504 1168 1443 
Q 1043 1382 960 1276 
Q 877 1171 877 998 
Q 877 678 1081 553 
Q 1286 429 1638 429 
z
M 1587 3411 
Q 1946 3411 2192 3318 
Q 2438 3226 2588 3056 
Q 2739 2886 2803 2652 
Q 2867 2419 2867 2138 
L 2867 58 
Q 2790 45 2652 22 
Q 2515 0 2342 -19 
Q 2170 -38 1968 -54 
Q 1766 -70 1568 -70 
Q 1286 -70 1049 -12 
Q 813 45 640 169 
Q 467 294 371 499 
Q 275 704 275 992 
Q 275 1267 387 1465 
Q 499 1664 691 1785 
Q 883 1907 1139 1964 
Q 1395 2022 1677 2022 
Q 1766 2022 1862 2012 
Q 1958 2003 2044 1987 
Q 2131 1971 2195 1958 
Q 2259 1946 2285 1939 
L 2285 2106 
Q 2285 2253 2253 2397 
Q 2221 2541 2137 2653 
Q 2054 2765 1910 2832 
Q 1766 2899 1536 2899 
Q 1242 2899 1021 2857 
Q 800 2816 691 2771 
L 621 3264 
Q 736 3315 1005 3363 
Q 1274 3411 1587 3411 
z
" transform="scale(0.015625)"/>
         <path id="Ubuntu-6e" d="M 512 3232 
Q 717 3283 1056 3340 
Q 1395 3398 1837 3398 
Q 2234 3398 2496 3286 
Q 2758 3174 2915 2972 
Q 3072 2771 3136 2489 
Q 3200 2208 3200 1869 
L 3200 0 
L 2605 0 
L 2605 1741 
Q 2605 2048 2563 2265 
Q 2522 2483 2426 2617 
Q 2330 2752 2170 2813 
Q 2010 2874 1773 2874 
Q 1677 2874 1574 2867 
Q 1472 2861 1379 2851 
Q 1286 2842 1212 2829 
Q 1139 2816 1107 2810 
L 1107 0 
L 512 0 
L 512 3232 
z
" transform="scale(0.015625)"/>
         <path id="Ubuntu-75" d="M 3162 96 
Q 2957 45 2621 -12 
Q 2285 -70 1843 -70 
Q 1459 -70 1196 42 
Q 934 154 774 358 
Q 614 563 544 841 
Q 474 1120 474 1459 
L 474 3328 
L 1069 3328 
L 1069 1587 
Q 1069 979 1261 716 
Q 1453 454 1907 454 
Q 2003 454 2105 460 
Q 2208 467 2297 476 
Q 2387 486 2460 496 
Q 2534 506 2566 518 
L 2566 3328 
L 3162 3328 
L 3162 96 
z
" transform="scale(0.015625)"/>
         <path id="Ubuntu-72" d="M 1741 3398 
Q 1818 3398 1917 3388 
Q 2016 3379 2112 3363 
Q 2208 3347 2288 3331 
Q 2368 3315 2406 3302 
L 2304 2784 
Q 2234 2810 2070 2845 
Q 1907 2880 1651 2880 
Q 1485 2880 1321 2845 
Q 1158 2810 1107 2797 
L 1107 0 
L 512 0 
L 512 3187 
Q 723 3264 1036 3331 
Q 1350 3398 1741 3398 
z
" transform="scale(0.015625)"/>
         <path id="Ubuntu-79" d="M 122 -621 
Q 192 -653 304 -681 
Q 416 -710 525 -710 
Q 877 -710 1075 -553 
Q 1274 -397 1434 -45 
Q 1030 723 681 1584 
Q 333 2445 102 3328 
L 742 3328 
Q 813 3040 912 2707 
Q 1011 2374 1132 2022 
Q 1254 1670 1395 1318 
Q 1536 966 1690 640 
Q 1933 1312 2112 1971 
Q 2291 2630 2451 3328 
L 3066 3328 
Q 2835 2387 2553 1520 
Q 2272 653 1946 -102 
Q 1818 -390 1680 -598 
Q 1542 -806 1376 -940 
Q 1210 -1075 1002 -1139 
Q 794 -1203 531 -1203 
Q 461 -1203 384 -1193 
Q 307 -1184 233 -1168 
Q 160 -1152 99 -1133 
Q 38 -1114 13 -1101 
L 122 -621 
z
" transform="scale(0.015625)"/>
        </defs>
        <use xlink:href="#Ubuntu-4a"/>
        <use xlink:href="#Ubuntu-61" x="49.999985"/>
        <use xlink:href="#Ubuntu-6e" x="102.199982"/>
        <use xlink:href="#Ubuntu-75" x="159.599976"/>
        <use xlink:href="#Ubuntu-61" x="216.999969"/>
        <use xlink:href="#Ubuntu-72" x="269.199966"/>
        <use xlink:href="#Ubuntu-79" x="309.924957"/>
       </g>
      </g>
     </g>
     <g id="xtick_2">
      <g id="line2d_2">
       <path d="M 141.476021 163.91125 
L 141.476021 163.91125 
" clip-path="url(#p01e3609b29)" style="fill: none; stroke-dasharray: 0.5,0.825; stroke-dashoffset: 0; stroke: #d9d9d9; stroke-width: 0.5"/>
      </g>
      <g id="text_2">
       <!-- February -->
       <g style="fill: #808080" transform="translate(125.245396 201.11875) scale(0.08 -0.08)">
        <defs>
         <path id="Ubuntu-46" d="M 550 0 
L 550 4435 
L 3226 4435 
L 3226 3904 
L 1171 3904 
L 1171 2566 
L 2995 2566 
L 2995 2042 
L 1171 2042 
L 1171 0 
L 550 0 
z
" transform="scale(0.015625)"/>
         <path id="Ubuntu-65" d="M 326 1658 
Q 326 2099 454 2428 
Q 582 2758 793 2976 
Q 1005 3194 1280 3302 
Q 1555 3411 1843 3411 
Q 2515 3411 2873 2992 
Q 3232 2573 3232 1715 
Q 3232 1677 3232 1616 
Q 3232 1555 3226 1504 
L 947 1504 
Q 986 986 1248 717 
Q 1510 448 2067 448 
Q 2381 448 2595 502 
Q 2810 557 2918 608 
L 3002 109 
Q 2893 51 2621 -13 
Q 2349 -77 2003 -77 
Q 1568 -77 1251 54 
Q 934 186 729 416 
Q 525 646 425 963 
Q 326 1280 326 1658 
z
M 2611 1984 
Q 2618 2387 2410 2646 
Q 2202 2906 1837 2906 
Q 1632 2906 1475 2826 
Q 1318 2746 1209 2618 
Q 1101 2490 1040 2323 
Q 979 2157 960 1984 
L 2611 1984 
z
" transform="scale(0.015625)"/>
         <path id="Ubuntu-62" d="M 1107 3181 
Q 1216 3251 1437 3328 
Q 1658 3405 1946 3405 
Q 2304 3405 2582 3277 
Q 2861 3149 3053 2918 
Q 3245 2688 3344 2368 
Q 3443 2048 3443 1664 
Q 3443 1261 3324 937 
Q 3206 614 2988 390 
Q 2771 166 2464 44 
Q 2157 -77 1773 -77 
Q 1357 -77 1037 -19 
Q 717 38 512 96 
L 512 4864 
L 1107 4966 
L 1107 3181 
z
M 1107 518 
Q 1197 493 1360 470 
Q 1523 448 1766 448 
Q 2246 448 2534 765 
Q 2822 1082 2822 1664 
Q 2822 1920 2771 2144 
Q 2720 2368 2605 2531 
Q 2490 2694 2307 2787 
Q 2125 2880 1869 2880 
Q 1626 2880 1421 2797 
Q 1216 2714 1107 2624 
L 1107 518 
z
" transform="scale(0.015625)"/>
        </defs>
        <use xlink:href="#Ubuntu-46"/>
        <use xlink:href="#Ubuntu-65" x="52.324997"/>
        <use xlink:href="#Ubuntu-62" x="108.224991"/>
        <use xlink:href="#Ubuntu-72" x="167.124985"/>
        <use xlink:href="#Ubuntu-75" x="205.724976"/>
        <use xlink:href="#Ubuntu-61" x="263.124969"/>
        <use xlink:href="#Ubuntu-72" x="315.324966"/>
        <use xlink:href="#Ubuntu-79" x="356.049957"/>
       </g>
      </g>
     </g>
     <g id="xtick_3">
      <g id="line2d_3">
       <path d="M 199.552408 163.91125 
L 199.552408 163.91125 
" clip-path="url(#p01e3609b29)" style="fill: none; stroke-dasharray: 0.5,0.825; stroke-dashoffset: 0; stroke: #d9d9d9; stroke-width: 0.5"/>
      </g>
      <g id="text_3">
       <!-- March -->
       <g style="fill: #808080" transform="translate(188.293033 201.11875) scale(0.08 -0.08)">
        <defs>
         <path id="Ubuntu-4d" d="M 2541 614 
Q 2477 768 2371 1005 
Q 2266 1242 2144 1517 
Q 2022 1792 1884 2083 
Q 1747 2374 1625 2633 
Q 1504 2893 1398 3097 
Q 1293 3302 1229 3411 
Q 1158 2656 1113 1776 
Q 1069 896 1037 0 
L 429 0 
Q 454 576 486 1161 
Q 518 1747 560 2313 
Q 602 2880 650 3417 
Q 698 3955 755 4435 
L 1299 4435 
Q 1472 4154 1670 3770 
Q 1869 3386 2067 2966 
Q 2266 2547 2451 2128 
Q 2637 1709 2790 1363 
Q 2944 1709 3129 2128 
Q 3315 2547 3513 2966 
Q 3712 3386 3910 3770 
Q 4109 4154 4282 4435 
L 4826 4435 
Q 5043 2291 5152 0 
L 4544 0 
Q 4512 896 4467 1776 
Q 4422 2656 4352 3411 
Q 4288 3302 4182 3097 
Q 4077 2893 3955 2633 
Q 3834 2374 3696 2083 
Q 3558 1792 3436 1517 
Q 3315 1242 3209 1005 
Q 3104 768 3040 614 
L 2541 614 
z
" transform="scale(0.015625)"/>
         <path id="Ubuntu-63" d="M 1958 -77 
Q 1555 -77 1251 51 
Q 947 179 739 409 
Q 531 640 428 957 
Q 326 1274 326 1658 
Q 326 2042 438 2362 
Q 550 2682 755 2915 
Q 960 3149 1257 3280 
Q 1555 3411 1920 3411 
Q 2144 3411 2368 3372 
Q 2592 3334 2797 3251 
L 2662 2746 
Q 2528 2810 2352 2848 
Q 2176 2886 1978 2886 
Q 1478 2886 1212 2572 
Q 947 2259 947 1658 
Q 947 1389 1008 1165 
Q 1069 941 1200 781 
Q 1331 621 1536 534 
Q 1741 448 2035 448 
Q 2272 448 2464 493 
Q 2656 538 2765 589 
L 2848 90 
Q 2797 58 2701 29 
Q 2605 0 2483 -22 
Q 2362 -45 2224 -61 
Q 2086 -77 1958 -77 
z
" transform="scale(0.015625)"/>
         <path id="Ubuntu-68" d="M 512 0 
L 512 4864 
L 1107 4966 
L 1107 3264 
Q 1274 3328 1462 3363 
Q 1651 3398 1837 3398 
Q 2234 3398 2496 3286 
Q 2758 3174 2915 2972 
Q 3072 2771 3136 2489 
Q 3200 2208 3200 1869 
L 3200 0 
L 2605 0 
L 2605 1741 
Q 2605 2048 2563 2265 
Q 2522 2483 2426 2617 
Q 2330 2752 2170 2813 
Q 2010 2874 1773 2874 
Q 1677 2874 1574 2861 
Q 1472 2848 1379 2832 
Q 1286 2816 1212 2797 
Q 1139 2778 1107 2765 
L 1107 0 
L 512 0 
z
" transform="scale(0.015625)"/>
        </defs>
        <use xlink:href="#Ubuntu-4d"/>
        <use xlink:href="#Ubuntu-61" x="87.099991"/>
        <use xlink:href="#Ubuntu-72" x="139.299988"/>
        <use xlink:href="#Ubuntu-63" x="177.899979"/>
        <use xlink:href="#Ubuntu-68" x="224.399963"/>
       </g>
      </g>
     </g>
     <g id="xtick_4">
      <g id="line2d_4">
       <path d="M 263.851265 163.91125 
L 263.851265 163.91125 
" clip-path="url(#p01e3609b29)" style="fill: none; stroke-dasharray: 0.5,0.825; stroke-dashoffset: 0; stroke: #d9d9d9; stroke-width: 0.5"/>
      </g>
      <g id="text_4">
       <!-- April -->
       <g style="fill: #808080" transform="translate(255.19564 201.11875) scale(0.08 -0.08)">
        <defs>
         <path id="Ubuntu-41" d="M 3514 0 
Q 3405 288 3309 566 
Q 3213 845 3110 1133 
L 1101 1133 
L 698 0 
L 51 0 
Q 307 704 531 1302 
Q 755 1901 969 2438 
Q 1184 2976 1395 3465 
Q 1606 3955 1837 4435 
L 2406 4435 
Q 2637 3955 2848 3465 
Q 3059 2976 3273 2438 
Q 3488 1901 3712 1302 
Q 3936 704 4192 0 
L 3514 0 
z
M 2931 1645 
Q 2726 2202 2524 2723 
Q 2323 3245 2106 3725 
Q 1882 3245 1680 2723 
Q 1478 2202 1280 1645 
L 2931 1645 
z
" transform="scale(0.015625)"/>
         <path id="Ubuntu-70" d="M 2822 1658 
Q 2822 2240 2534 2553 
Q 2246 2867 1766 2867 
Q 1498 2867 1347 2848 
Q 1197 2829 1107 2803 
L 1107 704 
Q 1216 614 1421 531 
Q 1626 448 1869 448 
Q 2125 448 2307 541 
Q 2490 634 2605 797 
Q 2720 960 2771 1181 
Q 2822 1402 2822 1658 
z
M 3443 1658 
Q 3443 1280 3344 960 
Q 3245 640 3053 409 
Q 2861 179 2582 51 
Q 2304 -77 1946 -77 
Q 1658 -77 1437 0 
Q 1216 77 1107 147 
L 1107 -1184 
L 512 -1184 
L 512 3226 
Q 723 3277 1040 3337 
Q 1357 3398 1773 3398 
Q 2157 3398 2464 3276 
Q 2771 3155 2988 2931 
Q 3206 2707 3324 2384 
Q 3443 2061 3443 1658 
z
" transform="scale(0.015625)"/>
         <path id="Ubuntu-69" d="M 1107 0 
L 512 0 
L 512 3328 
L 1107 3328 
L 1107 0 
z
M 806 3930 
Q 646 3930 534 4035 
Q 422 4141 422 4320 
Q 422 4499 534 4604 
Q 646 4710 806 4710 
Q 966 4710 1078 4604 
Q 1190 4499 1190 4320 
Q 1190 4141 1078 4035 
Q 966 3930 806 3930 
z
" transform="scale(0.015625)"/>
         <path id="Ubuntu-6c" d="M 1510 -64 
Q 960 -51 729 173 
Q 499 397 499 870 
L 499 4864 
L 1094 4966 
L 1094 966 
Q 1094 819 1120 723 
Q 1146 627 1203 569 
Q 1261 512 1357 483 
Q 1453 454 1594 435 
L 1510 -64 
z
" transform="scale(0.015625)"/>
        </defs>
        <use xlink:href="#Ubuntu-41"/>
        <use xlink:href="#Ubuntu-70" x="66.299988"/>
        <use xlink:href="#Ubuntu-72" x="125.199982"/>
        <use xlink:href="#Ubuntu-69" x="163.799973"/>
        <use xlink:href="#Ubuntu-6c" x="189.09996"/>
       </g>
      </g>
     </g>
     <g id="xtick_5">
      <g id="line2d_5">
       <path d="M 326.075965 163.91125 
L 326.075965 163.91125 
" clip-path="url(#p01e3609b29)" style="fill: none; stroke-dasharray: 0.5,0.825; stroke-dashoffset: 0; stroke: #d9d9d9; stroke-width: 0.5"/>
      </g>
      <g id="text_5">
       <!-- May -->
       <g style="fill: #808080" transform="translate(318.575965 201.095) scale(0.08 -0.08)">
        <use xlink:href="#Ubuntu-4d"/>
        <use xlink:href="#Ubuntu-61" x="87.099991"/>
        <use xlink:href="#Ubuntu-79" x="137.799988"/>
       </g>
      </g>
     </g>
     <g id="xtick_6">
      <g id="line2d_6">
       <path d="M 390.374822 163.91125 
L 390.374822 163.91125 
" clip-path="url(#p01e3609b29)" style="fill: none; stroke-dasharray: 0.5,0.825; stroke-dashoffset: 0; stroke: #d9d9d9; stroke-width: 0.5"/>
      </g>
      <g id="text_6">
       <!-- June -->
       <g style="fill: #808080" transform="translate(381.546072 201.11875) scale(0.08 -0.08)">
        <use xlink:href="#Ubuntu-4a"/>
        <use xlink:href="#Ubuntu-75" x="49.999985"/>
        <use xlink:href="#Ubuntu-6e" x="107.399979"/>
        <use xlink:href="#Ubuntu-65" x="164.799973"/>
       </g>
      </g>
     </g>
     <g id="xtick_7">
      <g id="line2d_7">
       <path d="M 452.599523 163.91125 
L 452.599523 163.91125 
" clip-path="url(#p01e3609b29)" style="fill: none; stroke-dasharray: 0.5,0.825; stroke-dashoffset: 0; stroke: #d9d9d9; stroke-width: 0.5"/>
      </g>
      <g id="text_7">
       <!-- July -->
       <g style="fill: #808080" transform="translate(445.223273 201.11875) scale(0.08 -0.08)">
        <use xlink:href="#Ubuntu-4a"/>
        <use xlink:href="#Ubuntu-75" x="49.999985"/>
        <use xlink:href="#Ubuntu-6c" x="107.399979"/>
        <use xlink:href="#Ubuntu-79" x="134.699966"/>
       </g>
      </g>
     </g>
    </g>
    <g id="matplotlib.axis_2"/>
   </g>
   <g id="matplotlib.axis_3">
    <g id="xtick_8">
     <g id="line2d_8">
      <defs>
       <path id="m0c8046561b" d="M 0 0 
L 0 3 
" style="stroke: #aaaaaa; stroke-width: 0.75"/>
      </defs>
      <g>
       <use xlink:href="#m0c8046561b" x="48.138971" y="173.91125" style="fill: #aaaaaa; stroke: #aaaaaa; stroke-width: 0.75"/>
      </g>
     </g>
     <g id="text_8">
      <!-- 01 -->
      <g style="fill: #808080" transform="translate(43.626471 189.11875) scale(0.08 -0.08)">
       <defs>
        <path id="Ubuntu-30" d="M 320 2221 
Q 320 3334 713 3936 
Q 1107 4538 1805 4538 
Q 2502 4538 2896 3936 
Q 3290 3334 3290 2221 
Q 3290 1107 2896 505 
Q 2502 -96 1805 -96 
Q 1107 -96 713 505 
Q 320 1107 320 2221 
z
M 2662 2221 
Q 2662 2586 2620 2912 
Q 2579 3238 2480 3481 
Q 2381 3725 2214 3869 
Q 2048 4013 1805 4013 
Q 1562 4013 1395 3869 
Q 1229 3725 1129 3481 
Q 1030 3238 988 2912 
Q 947 2586 947 2221 
Q 947 1856 988 1529 
Q 1030 1203 1129 960 
Q 1229 717 1395 573 
Q 1562 429 1805 429 
Q 2048 429 2214 573 
Q 2381 717 2480 960 
Q 2579 1203 2620 1529 
Q 2662 1856 2662 2221 
z
" transform="scale(0.015625)"/>
        <path id="Ubuntu-31" d="M 595 3520 
Q 960 3661 1305 3881 
Q 1651 4102 1939 4435 
L 2362 4435 
L 2362 0 
L 1766 0 
L 1766 3610 
Q 1690 3539 1578 3462 
Q 1466 3386 1334 3315 
Q 1203 3245 1059 3181 
Q 915 3117 781 3072 
L 595 3520 
z
" transform="scale(0.015625)"/>
       </defs>
       <use xlink:href="#Ubuntu-30"/>
       <use xlink:href="#Ubuntu-31" x="56.399994"/>
      </g>
     </g>
    </g>
    <g id="xtick_9">
     <g id="line2d_9">
      <g>
       <use xlink:href="#m0c8046561b" x="62.658067" y="173.91125" style="fill: #aaaaaa; stroke: #aaaaaa; stroke-width: 0.75"/>
      </g>
     </g>
     <g id="text_9">
      <!-- 08 -->
      <g style="fill: #808080" transform="translate(58.145567 189.11875) scale(0.08 -0.08)">
       <defs>
        <path id="Ubuntu-38" d="M 3258 1152 
Q 3258 883 3165 656 
Q 3072 429 2889 259 
Q 2707 90 2432 -3 
Q 2157 -96 1798 -96 
Q 1382 -96 1104 22 
Q 826 141 659 320 
Q 493 499 422 713 
Q 352 928 352 1120 
Q 352 1306 413 1475 
Q 474 1645 573 1792 
Q 672 1939 803 2057 
Q 934 2176 1082 2266 
Q 454 2624 454 3322 
Q 454 3565 550 3785 
Q 646 4006 822 4172 
Q 998 4339 1248 4438 
Q 1498 4538 1805 4538 
Q 2163 4538 2419 4429 
Q 2675 4320 2838 4150 
Q 3002 3981 3075 3776 
Q 3149 3571 3149 3379 
Q 3149 3194 3094 3030 
Q 3040 2867 2947 2726 
Q 2854 2586 2736 2477 
Q 2618 2368 2490 2285 
Q 3245 1926 3258 1152 
z
M 954 1114 
Q 954 998 995 873 
Q 1037 749 1139 643 
Q 1242 538 1402 467 
Q 1562 397 1805 397 
Q 2022 397 2185 461 
Q 2349 525 2451 624 
Q 2554 723 2605 851 
Q 2656 979 2656 1114 
Q 2656 1318 2579 1472 
Q 2502 1626 2358 1741 
Q 2214 1856 2012 1936 
Q 1811 2016 1555 2074 
Q 1267 1914 1110 1677 
Q 954 1440 954 1114 
z
M 2554 3386 
Q 2554 3482 2512 3597 
Q 2470 3712 2380 3811 
Q 2291 3910 2150 3977 
Q 2010 4045 1805 4045 
Q 1600 4045 1456 3981 
Q 1312 3917 1222 3817 
Q 1133 3718 1091 3600 
Q 1050 3482 1050 3366 
Q 1050 3226 1101 3085 
Q 1152 2944 1261 2822 
Q 1370 2701 1546 2605 
Q 1722 2509 1965 2451 
Q 2234 2611 2394 2825 
Q 2554 3040 2554 3386 
z
" transform="scale(0.015625)"/>
       </defs>
       <use xlink:href="#Ubuntu-30"/>
       <use xlink:href="#Ubuntu-38" x="56.399994"/>
      </g>
     </g>
    </g>
    <g id="xtick_10">
     <g id="line2d_10">
      <g>
       <use xlink:href="#m0c8046561b" x="77.177164" y="173.91125" style="fill: #aaaaaa; stroke: #aaaaaa; stroke-width: 0.75"/>
      </g>
     </g>
     <g id="text_10">
      <!-- 15 -->
      <g style="fill: #808080" transform="translate(72.664664 189.11875) scale(0.08 -0.08)">
       <defs>
        <path id="Ubuntu-35" d="M 1274 2726 
Q 2240 2688 2691 2304 
Q 3142 1920 3142 1261 
Q 3142 966 3043 716 
Q 2944 467 2742 288 
Q 2541 109 2233 6 
Q 1926 -96 1504 -96 
Q 1338 -96 1165 -70 
Q 992 -45 845 -6 
Q 698 32 582 70 
Q 467 109 416 134 
L 531 653 
Q 640 602 886 518 
Q 1133 435 1491 435 
Q 1779 435 1974 499 
Q 2170 563 2291 672 
Q 2413 781 2467 925 
Q 2522 1069 2522 1229 
Q 2522 1472 2438 1661 
Q 2355 1850 2144 1978 
Q 1933 2106 1581 2173 
Q 1229 2240 691 2240 
Q 730 2554 752 2829 
Q 774 3104 793 3366 
Q 813 3629 825 3888 
Q 838 4147 851 4435 
L 2989 4435 
L 2989 3930 
L 1370 3930 
Q 1363 3834 1350 3670 
Q 1338 3507 1325 3331 
Q 1312 3155 1299 2988 
Q 1286 2822 1274 2726 
z
" transform="scale(0.015625)"/>
       </defs>
       <use xlink:href="#Ubuntu-31"/>
       <use xlink:href="#Ubuntu-35" x="56.399994"/>
      </g>
     </g>
    </g>
    <g id="xtick_11">
     <g id="line2d_11">
      <g>
       <use xlink:href="#m0c8046561b" x="91.696261" y="173.91125" style="fill: #aaaaaa; stroke: #aaaaaa; stroke-width: 0.75"/>
      </g>
     </g>
     <g id="text_11">
      <!-- 22 -->
      <g style="fill: #808080" transform="translate(87.183761 189.11875) scale(0.08 -0.08)">
       <defs>
        <path id="Ubuntu-32" d="M 2989 3302 
Q 2989 3072 2896 2857 
Q 2803 2643 2649 2435 
Q 2496 2227 2304 2025 
Q 2112 1824 1920 1632 
Q 1811 1523 1667 1376 
Q 1523 1229 1395 1069 
Q 1267 909 1180 761 
Q 1094 614 1094 506 
L 3136 506 
L 3136 0 
L 448 0 
Q 442 38 442 76 
Q 442 115 442 147 
Q 442 448 541 707 
Q 640 966 800 1196 
Q 960 1427 1158 1632 
Q 1357 1837 1549 2029 
Q 1709 2182 1853 2332 
Q 1997 2483 2109 2633 
Q 2221 2784 2288 2944 
Q 2355 3104 2355 3283 
Q 2355 3475 2294 3609 
Q 2234 3744 2131 3833 
Q 2029 3923 1891 3964 
Q 1754 4006 1600 4006 
Q 1414 4006 1260 3955 
Q 1107 3904 985 3837 
Q 864 3770 781 3696 
Q 698 3622 653 3584 
L 358 4006 
Q 416 4070 531 4163 
Q 646 4256 806 4339 
Q 966 4422 1164 4480 
Q 1363 4538 1594 4538 
Q 2291 4538 2640 4214 
Q 2989 3891 2989 3302 
z
" transform="scale(0.015625)"/>
       </defs>
       <use xlink:href="#Ubuntu-32"/>
       <use xlink:href="#Ubuntu-32" x="56.399994"/>
      </g>
     </g>
    </g>
    <g id="xtick_12">
     <g id="line2d_12">
      <g>
       <use xlink:href="#m0c8046561b" x="106.215358" y="173.91125" style="fill: #aaaaaa; stroke: #aaaaaa; stroke-width: 0.75"/>
      </g>
     </g>
     <g id="text_12">
      <!-- 29 -->
      <g style="fill: #808080" transform="translate(101.702858 189.11875) scale(0.08 -0.08)">
       <defs>
        <path id="Ubuntu-39" d="M 3206 2662 
Q 3206 1344 2550 669 
Q 1894 -6 602 -13 
L 582 486 
Q 986 486 1309 563 
Q 1632 640 1875 809 
Q 2118 979 2281 1248 
Q 2445 1517 2522 1907 
Q 2355 1830 2144 1782 
Q 1933 1734 1709 1734 
Q 1331 1734 1068 1846 
Q 806 1958 640 2147 
Q 474 2336 400 2582 
Q 326 2829 326 3098 
Q 326 3334 409 3590 
Q 493 3846 662 4057 
Q 832 4269 1094 4403 
Q 1357 4538 1715 4538 
Q 2080 4538 2358 4410 
Q 2637 4282 2825 4038 
Q 3014 3795 3110 3446 
Q 3206 3098 3206 2662 
z
M 1773 2221 
Q 1997 2221 2195 2262 
Q 2394 2304 2579 2387 
Q 2586 2458 2586 2525 
Q 2586 2592 2586 2662 
Q 2586 2938 2547 3190 
Q 2509 3443 2409 3632 
Q 2310 3821 2144 3933 
Q 1978 4045 1722 4045 
Q 1510 4045 1363 3955 
Q 1216 3866 1120 3728 
Q 1024 3590 982 3427 
Q 941 3264 941 3110 
Q 941 2675 1149 2448 
Q 1357 2221 1773 2221 
z
" transform="scale(0.015625)"/>
       </defs>
       <use xlink:href="#Ubuntu-32"/>
       <use xlink:href="#Ubuntu-39" x="56.399994"/>
      </g>
     </g>
    </g>
    <g id="xtick_13">
     <g id="line2d_13">
      <g>
       <use xlink:href="#m0c8046561b" x="120.734454" y="173.91125" style="fill: #aaaaaa; stroke: #aaaaaa; stroke-width: 0.75"/>
      </g>
     </g>
     <g id="text_13">
      <!-- 05 -->
      <g style="fill: #808080" transform="translate(116.221954 189.11875) scale(0.08 -0.08)">
       <use xlink:href="#Ubuntu-30"/>
       <use xlink:href="#Ubuntu-35" x="56.399994"/>
      </g>
     </g>
    </g>
    <g id="xtick_14">
     <g id="line2d_14">
      <g>
       <use xlink:href="#m0c8046561b" x="135.253551" y="173.91125" style="fill: #aaaaaa; stroke: #aaaaaa; stroke-width: 0.75"/>
      </g>
     </g>
     <g id="text_14">
      <!-- 12 -->
      <g style="fill: #808080" transform="translate(130.741051 189.11875) scale(0.08 -0.08)">
       <use xlink:href="#Ubuntu-31"/>
       <use xlink:href="#Ubuntu-32" x="56.399994"/>
      </g>
     </g>
    </g>
    <g id="xtick_15">
     <g id="line2d_15">
      <g>
       <use xlink:href="#m0c8046561b" x="149.772648" y="173.91125" style="fill: #aaaaaa; stroke: #aaaaaa; stroke-width: 0.75"/>
      </g>
     </g>
     <g id="text_15">
      <!-- 19 -->
      <g style="fill: #808080" transform="translate(145.260148 189.11875) scale(0.08 -0.08)">
       <use xlink:href="#Ubuntu-31"/>
       <use xlink:href="#Ubuntu-39" x="56.399994"/>
      </g>
     </g>
    </g>
    <g id="xtick_16">
     <g id="line2d_16">
      <g>
       <use xlink:href="#m0c8046561b" x="164.291744" y="173.91125" style="fill: #aaaaaa; stroke: #aaaaaa; stroke-width: 0.75"/>
      </g>
     </g>
     <g id="text_16">
      <!-- 26 -->
      <g style="fill: #808080" transform="translate(159.779244 189.11875) scale(0.08 -0.08)">
       <defs>
        <path id="Ubuntu-36" d="M 403 1779 
Q 403 2426 582 2922 
Q 762 3418 1091 3757 
Q 1421 4096 1891 4272 
Q 2362 4448 2950 4454 
L 2995 3955 
Q 2618 3949 2307 3872 
Q 1997 3795 1753 3628 
Q 1510 3462 1344 3196 
Q 1178 2931 1094 2541 
Q 1261 2618 1469 2669 
Q 1677 2720 1901 2720 
Q 2278 2720 2540 2605 
Q 2803 2490 2969 2301 
Q 3136 2112 3209 1865 
Q 3283 1619 3283 1350 
Q 3283 1107 3200 851 
Q 3117 595 2947 384 
Q 2778 173 2515 38 
Q 2253 -96 1894 -96 
Q 1165 -96 784 403 
Q 403 902 403 1779 
z
M 1837 2234 
Q 1613 2234 1421 2192 
Q 1229 2150 1037 2067 
Q 1030 1997 1027 1923 
Q 1024 1850 1024 1779 
Q 1024 1498 1062 1248 
Q 1101 998 1200 809 
Q 1299 621 1465 509 
Q 1632 397 1888 397 
Q 2099 397 2246 486 
Q 2394 576 2490 717 
Q 2586 858 2627 1021 
Q 2669 1184 2669 1338 
Q 2669 1773 2461 2003 
Q 2253 2234 1837 2234 
z
" transform="scale(0.015625)"/>
       </defs>
       <use xlink:href="#Ubuntu-32"/>
       <use xlink:href="#Ubuntu-36" x="56.399994"/>
      </g>
     </g>
    </g>
    <g id="xtick_17">
     <g id="line2d_17">
      <g>
       <use xlink:href="#m0c8046561b" x="178.810841" y="173.91125" style="fill: #aaaaaa; stroke: #aaaaaa; stroke-width: 0.75"/>
      </g>
     </g>
     <g id="text_17">
      <!-- 05 -->
      <g style="fill: #808080" transform="translate(174.298341 189.11875) scale(0.08 -0.08)">
       <use xlink:href="#Ubuntu-30"/>
       <use xlink:href="#Ubuntu-35" x="56.399994"/>
      </g>
     </g>
    </g>
    <g id="xtick_18">
     <g id="line2d_18">
      <g>
       <use xlink:href="#m0c8046561b" x="193.329938" y="173.91125" style="fill: #aaaaaa; stroke: #aaaaaa; stroke-width: 0.75"/>
      </g>
     </g>
     <g id="text_18">
      <!-- 12 -->
      <g style="fill: #808080" transform="translate(188.817438 189.11875) scale(0.08 -0.08)">
       <use xlink:href="#Ubuntu-31"/>
       <use xlink:href="#Ubuntu-32" x="56.399994"/>
      </g>
     </g>
    </g>
    <g id="xtick_19">
     <g id="line2d_19">
      <g>
       <use xlink:href="#m0c8046561b" x="207.849035" y="173.91125" style="fill: #aaaaaa; stroke: #aaaaaa; stroke-width: 0.75"/>
      </g>
     </g>
     <g id="text_19">
      <!-- 19 -->
      <g style="fill: #808080" transform="translate(203.336535 189.11875) scale(0.08 -0.08)">
       <use xlink:href="#Ubuntu-31"/>
       <use xlink:href="#Ubuntu-39" x="56.399994"/>
      </g>
     </g>
    </g>
    <g id="xtick_20">
     <g id="line2d_20">
      <g>
       <use xlink:href="#m0c8046561b" x="222.368131" y="173.91125" style="fill: #aaaaaa; stroke: #aaaaaa; stroke-width: 0.75"/>
      </g>
     </g>
     <g id="text_20">
      <!-- 26 -->
      <g style="fill: #808080" transform="translate(217.855631 189.11875) scale(0.08 -0.08)">
       <use xlink:href="#Ubuntu-32"/>
       <use xlink:href="#Ubuntu-36" x="56.399994"/>
      </g>
     </g>
    </g>
    <g id="xtick_21">
     <g id="line2d_21">
      <g>
       <use xlink:href="#m0c8046561b" x="236.887228" y="173.91125" style="fill: #aaaaaa; stroke: #aaaaaa; stroke-width: 0.75"/>
      </g>
     </g>
     <g id="text_21">
      <!-- 02 -->
      <g style="fill: #808080" transform="translate(232.374728 189.11875) scale(0.08 -0.08)">
       <use xlink:href="#Ubuntu-30"/>
       <use xlink:href="#Ubuntu-32" x="56.399994"/>
      </g>
     </g>
    </g>
    <g id="xtick_22">
     <g id="line2d_22">
      <g>
       <use xlink:href="#m0c8046561b" x="251.406325" y="173.91125" style="fill: #aaaaaa; stroke: #aaaaaa; stroke-width: 0.75"/>
      </g>
     </g>
     <g id="text_22">
      <!-- 09 -->
      <g style="fill: #808080" transform="translate(246.893825 189.11875) scale(0.08 -0.08)">
       <use xlink:href="#Ubuntu-30"/>
       <use xlink:href="#Ubuntu-39" x="56.399994"/>
      </g>
     </g>
    </g>
    <g id="xtick_23">
     <g id="line2d_23">
      <g>
       <use xlink:href="#m0c8046561b" x="265.925422" y="173.91125" style="fill: #aaaaaa; stroke: #aaaaaa; stroke-width: 0.75"/>
      </g>
     </g>
     <g id="text_23">
      <!-- 16 -->
      <g style="fill: #808080" transform="translate(261.412922 189.11875) scale(0.08 -0.08)">
       <use xlink:href="#Ubuntu-31"/>
       <use xlink:href="#Ubuntu-36" x="56.399994"/>
      </g>
     </g>
    </g>
    <g id="xtick_24">
     <g id="line2d_24">
      <g>
       <use xlink:href="#m0c8046561b" x="280.444518" y="173.91125" style="fill: #aaaaaa; stroke: #aaaaaa; stroke-width: 0.75"/>
      </g>
     </g>
     <g id="text_24">
      <!-- 23 -->
      <g style="fill: #808080" transform="translate(275.932018 189.11875) scale(0.08 -0.08)">
       <defs>
        <path id="Ubuntu-33" d="M 1446 435 
Q 2016 435 2262 659 
Q 2509 883 2509 1261 
Q 2509 1504 2406 1670 
Q 2304 1837 2137 1936 
Q 1971 2035 1750 2076 
Q 1530 2118 1299 2118 
L 1146 2118 
L 1146 2605 
L 1357 2605 
Q 1517 2605 1686 2637 
Q 1856 2669 1997 2752 
Q 2138 2835 2227 2979 
Q 2317 3123 2317 3341 
Q 2317 3520 2253 3648 
Q 2189 3776 2083 3859 
Q 1978 3942 1840 3977 
Q 1702 4013 1549 4013 
Q 1242 4013 1027 3923 
Q 813 3834 666 3738 
L 435 4192 
Q 512 4243 630 4304 
Q 749 4365 896 4416 
Q 1043 4467 1212 4502 
Q 1382 4538 1568 4538 
Q 1920 4538 2176 4451 
Q 2432 4365 2598 4208 
Q 2765 4051 2848 3836 
Q 2931 3622 2931 3373 
Q 2931 3027 2732 2780 
Q 2534 2534 2253 2406 
Q 2426 2355 2586 2259 
Q 2746 2163 2864 2016 
Q 2982 1869 3056 1677 
Q 3130 1485 3130 1248 
Q 3130 960 3030 713 
Q 2931 467 2723 288 
Q 2515 109 2201 6 
Q 1888 -96 1459 -96 
Q 1293 -96 1117 -70 
Q 941 -45 787 -6 
Q 634 32 518 70 
Q 403 109 352 134 
L 467 653 
Q 576 602 829 518 
Q 1082 435 1446 435 
z
" transform="scale(0.015625)"/>
       </defs>
       <use xlink:href="#Ubuntu-32"/>
       <use xlink:href="#Ubuntu-33" x="56.399994"/>
      </g>
     </g>
    </g>
    <g id="xtick_25">
     <g id="line2d_25">
      <g>
       <use xlink:href="#m0c8046561b" x="294.963615" y="173.91125" style="fill: #aaaaaa; stroke: #aaaaaa; stroke-width: 0.75"/>
      </g>
     </g>
     <g id="text_25">
      <!-- 30 -->
      <g style="fill: #808080" transform="translate(290.451115 189.11875) scale(0.08 -0.08)">
       <use xlink:href="#Ubuntu-33"/>
       <use xlink:href="#Ubuntu-30" x="56.399994"/>
      </g>
     </g>
    </g>
    <g id="xtick_26">
     <g id="line2d_26">
      <g>
       <use xlink:href="#m0c8046561b" x="309.482712" y="173.91125" style="fill: #aaaaaa; stroke: #aaaaaa; stroke-width: 0.75"/>
      </g>
     </g>
     <g id="text_26">
      <!-- 07 -->
      <g style="fill: #808080" transform="translate(304.970212 189.11875) scale(0.08 -0.08)">
       <defs>
        <path id="Ubuntu-37" d="M 1043 0 
Q 1082 512 1226 1078 
Q 1370 1645 1581 2179 
Q 1792 2714 2045 3171 
Q 2298 3629 2541 3917 
L 384 3917 
L 384 4435 
L 3206 4435 
L 3206 3942 
Q 2995 3699 2739 3273 
Q 2483 2848 2256 2320 
Q 2029 1792 1865 1193 
Q 1702 595 1664 0 
L 1043 0 
z
" transform="scale(0.015625)"/>
       </defs>
       <use xlink:href="#Ubuntu-30"/>
       <use xlink:href="#Ubuntu-37" x="56.399994"/>
      </g>
     </g>
    </g>
    <g id="xtick_27">
     <g id="line2d_27">
      <g>
       <use xlink:href="#m0c8046561b" x="324.001809" y="173.91125" style="fill: #aaaaaa; stroke: #aaaaaa; stroke-width: 0.75"/>
      </g>
     </g>
     <g id="text_27">
      <!-- 14 -->
      <g style="fill: #808080" transform="translate(319.489309 189.11875) scale(0.08 -0.08)">
       <defs>
        <path id="Ubuntu-34" d="M 256 1536 
Q 378 1818 589 2192 
Q 800 2566 1065 2963 
Q 1331 3360 1635 3744 
Q 1939 4128 2246 4435 
L 2816 4435 
L 2816 1619 
L 3341 1619 
L 3341 1133 
L 2816 1133 
L 2816 0 
L 2240 0 
L 2240 1133 
L 256 1133 
L 256 1536 
z
M 2240 3731 
Q 2048 3526 1853 3273 
Q 1658 3021 1472 2745 
Q 1286 2470 1123 2182 
Q 960 1894 832 1619 
L 2240 1619 
L 2240 3731 
z
" transform="scale(0.015625)"/>
       </defs>
       <use xlink:href="#Ubuntu-31"/>
       <use xlink:href="#Ubuntu-34" x="56.399994"/>
      </g>
     </g>
    </g>
    <g id="xtick_28">
     <g id="line2d_28">
      <g>
       <use xlink:href="#m0c8046561b" x="338.520905" y="173.91125" style="fill: #aaaaaa; stroke: #aaaaaa; stroke-width: 0.75"/>
      </g>
     </g>
     <g id="text_28">
      <!-- 21 -->
      <g style="fill: #808080" transform="translate(334.008405 189.11875) scale(0.08 -0.08)">
       <use xlink:href="#Ubuntu-32"/>
       <use xlink:href="#Ubuntu-31" x="56.399994"/>
      </g>
     </g>
    </g>
    <g id="xtick_29">
     <g id="line2d_29">
      <g>
       <use xlink:href="#m0c8046561b" x="353.040002" y="173.91125" style="fill: #aaaaaa; stroke: #aaaaaa; stroke-width: 0.75"/>
      </g>
     </g>
     <g id="text_29">
      <!-- 28 -->
      <g style="fill: #808080" transform="translate(348.527502 189.11875) scale(0.08 -0.08)">
       <use xlink:href="#Ubuntu-32"/>
       <use xlink:href="#Ubuntu-38" x="56.399994"/>
      </g>
     </g>
    </g>
    <g id="xtick_30">
     <g id="line2d_30">
      <g>
       <use xlink:href="#m0c8046561b" x="367.559099" y="173.91125" style="fill: #aaaaaa; stroke: #aaaaaa; stroke-width: 0.75"/>
      </g>
     </g>
     <g id="text_30">
      <!-- 04 -->
      <g style="fill: #808080" transform="translate(363.046599 189.11875) scale(0.08 -0.08)">
       <use xlink:href="#Ubuntu-30"/>
       <use xlink:href="#Ubuntu-34" x="56.399994"/>
      </g>
     </g>
    </g>
    <g id="xtick_31">
     <g id="line2d_31">
      <g>
       <use xlink:href="#m0c8046561b" x="382.078196" y="173.91125" style="fill: #aaaaaa; stroke: #aaaaaa; stroke-width: 0.75"/>
      </g>
     </g>
     <g id="text_31">
      <!-- 11 -->
      <g style="fill: #808080" transform="translate(377.565696 189.11875) scale(0.08 -0.08)">
       <use xlink:href="#Ubuntu-31"/>
       <use xlink:href="#Ubuntu-31" x="56.399994"/>
      </g>
     </g>
    </g>
    <g id="xtick_32">
     <g id="line2d_32">
      <g>
       <use xlink:href="#m0c8046561b" x="396.597292" y="173.91125" style="fill: #aaaaaa; stroke: #aaaaaa; stroke-width: 0.75"/>
      </g>
     </g>
     <g id="text_32">
      <!-- 18 -->
      <g style="fill: #808080" transform="translate(392.084792 189.11875) scale(0.08 -0.08)">
       <use xlink:href="#Ubuntu-31"/>
       <use xlink:href="#Ubuntu-38" x="56.399994"/>
      </g>
     </g>
    </g>
    <g id="xtick_33">
     <g id="line2d_33">
      <g>
       <use xlink:href="#m0c8046561b" x="411.116389" y="173.91125" style="fill: #aaaaaa; stroke: #aaaaaa; stroke-width: 0.75"/>
      </g>
     </g>
     <g id="text_33">
      <!-- 25 -->
      <g style="fill: #808080" transform="translate(406.603889 189.11875) scale(0.08 -0.08)">
       <use xlink:href="#Ubuntu-32"/>
       <use xlink:href="#Ubuntu-35" x="56.399994"/>
      </g>
     </g>
    </g>
    <g id="xtick_34">
     <g id="line2d_34">
      <g>
       <use xlink:href="#m0c8046561b" x="425.635486" y="173.91125" style="fill: #aaaaaa; stroke: #aaaaaa; stroke-width: 0.75"/>
      </g>
     </g>
     <g id="text_34">
      <!-- 02 -->
      <g style="fill: #808080" transform="translate(421.122986 189.11875) scale(0.08 -0.08)">
       <use xlink:href="#Ubuntu-30"/>
       <use xlink:href="#Ubuntu-32" x="56.399994"/>
      </g>
     </g>
    </g>
    <g id="xtick_35">
     <g id="line2d_35">
      <g>
       <use xlink:href="#m0c8046561b" x="440.154583" y="173.91125" style="fill: #aaaaaa; stroke: #aaaaaa; stroke-width: 0.75"/>
      </g>
     </g>
     <g id="text_35">
      <!-- 09 -->
      <g style="fill: #808080" transform="translate(435.642083 189.11875) scale(0.08 -0.08)">
       <use xlink:href="#Ubuntu-30"/>
       <use xlink:href="#Ubuntu-39" x="56.399994"/>
      </g>
     </g>
    </g>
    <g id="xtick_36">
     <g id="line2d_36">
      <g>
       <use xlink:href="#m0c8046561b" x="454.673679" y="173.91125" style="fill: #aaaaaa; stroke: #aaaaaa; stroke-width: 0.75"/>
      </g>
     </g>
     <g id="text_36">
      <!-- 16 -->
      <g style="fill: #808080" transform="translate(450.161179 189.11875) scale(0.08 -0.08)">
       <use xlink:href="#Ubuntu-31"/>
       <use xlink:href="#Ubuntu-36" x="56.399994"/>
      </g>
     </g>
    </g>
    <g id="xtick_37">
     <g id="line2d_37">
      <g>
       <use xlink:href="#m0c8046561b" x="469.192776" y="173.91125" style="fill: #aaaaaa; stroke: #aaaaaa; stroke-width: 0.75"/>
      </g>
     </g>
     <g id="text_37">
      <!-- 23 -->
      <g style="fill: #808080" transform="translate(464.680276 189.11875) scale(0.08 -0.08)">
       <use xlink:href="#Ubuntu-32"/>
       <use xlink:href="#Ubuntu-33" x="56.399994"/>
      </g>
     </g>
    </g>
    <g id="xtick_38">
     <g id="line2d_38">
      <g>
       <use xlink:href="#m0c8046561b" x="483.711873" y="173.91125" style="fill: #aaaaaa; stroke: #aaaaaa; stroke-width: 0.75"/>
      </g>
     </g>
     <g id="text_38">
      <!-- 30 -->
      <g style="fill: #808080" transform="translate(479.199373 189.11875) scale(0.08 -0.08)">
       <use xlink:href="#Ubuntu-33"/>
       <use xlink:href="#Ubuntu-30" x="56.399994"/>
      </g>
     </g>
    </g>
   </g>
   <g id="matplotlib.axis_4">
    <g id="ytick_1">
     <g id="line2d_39">
      <defs>
       <path id="m339893a922" d="M 0 0 
L -3 0 
" style="stroke: #aaaaaa; stroke-width: 0.75"/>
      </defs>
      <g>
       <use xlink:href="#m339893a922" x="38.7625" y="163.91125" style="fill: #aaaaaa; stroke: #aaaaaa; stroke-width: 0.75"/>
      </g>
     </g>
     <g id="text_39">
      <!-- 24000 -->
      <g style="fill: #808080" transform="translate(7.2 167.015) scale(0.08 -0.08)">
       <use xlink:href="#Ubuntu-32"/>
       <use xlink:href="#Ubuntu-34" x="56.399994"/>
       <use xlink:href="#Ubuntu-30" x="112.799988"/>
       <use xlink:href="#Ubuntu-30" x="169.199982"/>
       <use xlink:href="#Ubuntu-30" x="225.599976"/>
      </g>
     </g>
    </g>
    <g id="ytick_2">
     <g id="line2d_40">
      <g>
       <use xlink:href="#m339893a922" x="38.7625" y="148.51125" style="fill: #aaaaaa; stroke: #aaaaaa; stroke-width: 0.75"/>
      </g>
     </g>
     <g id="text_40">
      <!-- 26000 -->
      <g style="fill: #808080" transform="translate(7.2 151.615) scale(0.08 -0.08)">
       <use xlink:href="#Ubuntu-32"/>
       <use xlink:href="#Ubuntu-36" x="56.399994"/>
       <use xlink:href="#Ubuntu-30" x="112.799988"/>
       <use xlink:href="#Ubuntu-30" x="169.199982"/>
       <use xlink:href="#Ubuntu-30" x="225.599976"/>
      </g>
     </g>
    </g>
    <g id="ytick_3">
     <g id="line2d_41">
      <g>
       <use xlink:href="#m339893a922" x="38.7625" y="133.11125" style="fill: #aaaaaa; stroke: #aaaaaa; stroke-width: 0.75"/>
      </g>
     </g>
     <g id="text_41">
      <!-- 28000 -->
      <g style="fill: #808080" transform="translate(7.2 136.215) scale(0.08 -0.08)">
       <use xlink:href="#Ubuntu-32"/>
       <use xlink:href="#Ubuntu-38" x="56.399994"/>
       <use xlink:href="#Ubuntu-30" x="112.799988"/>
       <use xlink:href="#Ubuntu-30" x="169.199982"/>
       <use xlink:href="#Ubuntu-30" x="225.599976"/>
      </g>
     </g>
    </g>
    <g id="ytick_4">
     <g id="line2d_42">
      <g>
       <use xlink:href="#m339893a922" x="38.7625" y="117.71125" style="fill: #aaaaaa; stroke: #aaaaaa; stroke-width: 0.75"/>
      </g>
     </g>
     <g id="text_42">
      <!-- 30000 -->
      <g style="fill: #808080" transform="translate(7.2 120.815) scale(0.08 -0.08)">
       <use xlink:href="#Ubuntu-33"/>
       <use xlink:href="#Ubuntu-30" x="56.399994"/>
       <use xlink:href="#Ubuntu-30" x="112.799988"/>
       <use xlink:href="#Ubuntu-30" x="169.199982"/>
       <use xlink:href="#Ubuntu-30" x="225.599976"/>
      </g>
     </g>
    </g>
    <g id="ytick_5">
     <g id="line2d_43">
      <g>
       <use xlink:href="#m339893a922" x="38.7625" y="102.31125" style="fill: #aaaaaa; stroke: #aaaaaa; stroke-width: 0.75"/>
      </g>
     </g>
     <g id="text_43">
      <!-- 32000 -->
      <g style="fill: #808080" transform="translate(7.2 105.415) scale(0.08 -0.08)">
       <use xlink:href="#Ubuntu-33"/>
       <use xlink:href="#Ubuntu-32" x="56.399994"/>
       <use xlink:href="#Ubuntu-30" x="112.799988"/>
       <use xlink:href="#Ubuntu-30" x="169.199982"/>
       <use xlink:href="#Ubuntu-30" x="225.599976"/>
      </g>
     </g>
    </g>
    <g id="ytick_6">
     <g id="line2d_44">
      <g>
       <use xlink:href="#m339893a922" x="38.7625" y="86.91125" style="fill: #aaaaaa; stroke: #aaaaaa; stroke-width: 0.75"/>
      </g>
     </g>
     <g id="text_44">
      <!-- 34000 -->
      <g style="fill: #808080" transform="translate(7.2 90.015) scale(0.08 -0.08)">
       <use xlink:href="#Ubuntu-33"/>
       <use xlink:href="#Ubuntu-34" x="56.399994"/>
       <use xlink:href="#Ubuntu-30" x="112.799988"/>
       <use xlink:href="#Ubuntu-30" x="169.199982"/>
       <use xlink:href="#Ubuntu-30" x="225.599976"/>
      </g>
     </g>
    </g>
    <g id="ytick_7">
     <g id="line2d_45">
      <g>
       <use xlink:href="#m339893a922" x="38.7625" y="71.51125" style="fill: #aaaaaa; stroke: #aaaaaa; stroke-width: 0.75"/>
      </g>
     </g>
     <g id="text_45">
      <!-- 36000 -->
      <g style="fill: #808080" transform="translate(7.2 74.615) scale(0.08 -0.08)">
       <use xlink:href="#Ubuntu-33"/>
       <use xlink:href="#Ubuntu-36" x="56.399994"/>
       <use xlink:href="#Ubuntu-30" x="112.799988"/>
       <use xlink:href="#Ubuntu-30" x="169.199982"/>
       <use xlink:href="#Ubuntu-30" x="225.599976"/>
      </g>
     </g>
    </g>
    <g id="ytick_8">
     <g id="line2d_46">
      <g>
       <use xlink:href="#m339893a922" x="38.7625" y="56.11125" style="fill: #aaaaaa; stroke: #aaaaaa; stroke-width: 0.75"/>
      </g>
     </g>
     <g id="text_46">
      <!-- 38000 -->
      <g style="fill: #808080" transform="translate(7.2 59.215) scale(0.08 -0.08)">
       <use xlink:href="#Ubuntu-33"/>
       <use xlink:href="#Ubuntu-38" x="56.399994"/>
       <use xlink:href="#Ubuntu-30" x="112.799988"/>
       <use xlink:href="#Ubuntu-30" x="169.199982"/>
       <use xlink:href="#Ubuntu-30" x="225.599976"/>
      </g>
     </g>
    </g>
    <g id="ytick_9">
     <g id="line2d_47">
      <g>
       <use xlink:href="#m339893a922" x="38.7625" y="40.71125" style="fill: #aaaaaa; stroke: #aaaaaa; stroke-width: 0.75"/>
      </g>
     </g>
     <g id="text_47">
      <!-- 40000 -->
      <g style="fill: #808080" transform="translate(7.2 43.815) scale(0.08 -0.08)">
       <use xlink:href="#Ubuntu-34"/>
       <use xlink:href="#Ubuntu-30" x="56.399994"/>
       <use xlink:href="#Ubuntu-30" x="112.799988"/>
       <use xlink:href="#Ubuntu-30" x="169.199982"/>
       <use xlink:href="#Ubuntu-30" x="225.599976"/>
      </g>
     </g>
    </g>
    <g id="ytick_10">
     <g id="line2d_48">
      <g>
       <use xlink:href="#m339893a922" x="38.7625" y="25.31125" style="fill: #aaaaaa; stroke: #aaaaaa; stroke-width: 0.75"/>
      </g>
     </g>
     <g id="text_48">
      <!-- 42000 -->
      <g style="fill: #808080" transform="translate(7.2 28.415) scale(0.08 -0.08)">
       <use xlink:href="#Ubuntu-34"/>
       <use xlink:href="#Ubuntu-32" x="56.399994"/>
       <use xlink:href="#Ubuntu-30" x="112.799988"/>
       <use xlink:href="#Ubuntu-30" x="169.199982"/>
       <use xlink:href="#Ubuntu-30" x="225.599976"/>
      </g>
     </g>
    </g>
   </g>
   <g id="PolyCollection_1">
    <defs>
     <path id="m308fbe41f0" d="M 48.138971 -89.512289 
L 48.138971 -71.19658 
L 50.213127 -74.485974 
L 52.287284 -88.015484 
L 54.361441 -88.517974 
L 56.435597 -89.008978 
L 58.509754 -88.758655 
L 60.583911 -88.626098 
L 62.658067 -80.069335 
L 64.732224 -86.804196 
L 66.806381 -97.619666 
L 68.880537 -91.906843 
L 70.954694 -98.844437 
L 73.028851 -94.957651 
L 75.103007 -89.086937 
L 77.177164 -54.7364 
L 79.251321 -86.67704 
L 81.325477 -97.755041 
L 83.399634 -104.948969 
L 85.473791 -98.972957 
L 87.547947 -96.681606 
L 89.622104 -97.21756 
L 91.696261 -89.63263 
L 93.770417 -102.876289 
L 95.844574 -95.596134 
L 97.918731 -100.300452 
L 99.992888 -103.169668 
L 102.067044 -100.715066 
L 104.141201 -92.773694 
L 106.215358 -77.819286 
L 108.289514 -94.7052 
L 110.363671 -95.161912 
L 110.363671 -112.885233 
L 110.363671 -112.885233 
L 108.289514 -113.399191 
L 106.215358 -95.220044 
L 104.141201 -110.791271 
L 102.067044 -119.340148 
L 99.992888 -122.712 
L 97.918731 -119.327923 
L 95.844574 -113.627535 
L 93.770417 -121.271572 
L 91.696261 -108.678645 
L 89.622104 -116.75415 
L 87.547947 -114.996478 
L 85.473791 -118.349471 
L 83.399634 -123.354252 
L 81.325477 -115.245007 
L 79.251321 -106.390534 
L 77.177164 -79.132965 
L 75.103007 -106.767753 
L 73.028851 -112.040507 
L 70.954694 -117.458253 
L 68.880537 -108.838282 
L 66.806381 -115.468534 
L 64.732224 -105.900001 
L 62.658067 -97.983426 
L 60.583911 -104.806284 
L 58.509754 -106.073949 
L 56.435597 -107.217943 
L 54.361441 -106.157423 
L 52.287284 -105.509079 
L 50.213127 -92.278311 
L 48.138971 -89.512289 
z
" style="stroke: #5b5b5b; stroke-opacity: 0.2"/>
    </defs>
    <g clip-path="url(#pf67c11336c)">
     <use xlink:href="#m308fbe41f0" x="0" y="209.8225" style="fill: #5b5b5b; fill-opacity: 0.2; stroke: #5b5b5b; stroke-opacity: 0.2"/>
    </g>
   </g>
   <g id="PolyCollection_2">
    <defs>
     <path id="m0271d87ef3" d="M 112.437828 -112.213691 
L 112.437828 -93.8861 
L 114.511984 -98.122103 
L 116.586141 -89.920698 
L 118.660298 -89.761241 
L 120.734454 -70.995843 
L 122.808611 -88.019556 
L 124.882768 -89.334062 
L 126.956924 -88.539429 
L 129.031081 -89.254354 
L 131.105238 -88.645026 
L 133.179394 -91.807981 
L 135.253551 -83.550098 
L 137.327708 -101.613548 
L 139.401864 -82.987313 
L 141.476021 -90.903525 
L 143.550178 -94.580862 
L 145.624334 -96.136082 
L 147.698491 -94.748361 
L 149.772648 -83.101883 
L 151.846804 -97.965159 
L 153.920961 -97.741108 
L 155.995118 -98.185979 
L 158.069274 -102.596195 
L 160.143431 -93.095578 
L 162.217588 -88.093351 
L 164.291744 -83.783724 
L 166.365901 -94.065933 
L 168.440058 -92.680471 
L 168.440058 -109.932092 
L 168.440058 -109.932092 
L 166.365901 -110.722737 
L 164.291744 -100.536918 
L 162.217588 -105.6367 
L 160.143431 -110.136844 
L 158.069274 -121.041879 
L 155.995118 -113.060209 
L 153.920961 -117.087521 
L 151.846804 -118.445821 
L 149.772648 -101.755435 
L 147.698491 -111.840306 
L 145.624334 -113.503269 
L 143.550178 -110.511469 
L 141.476021 -107.594767 
L 139.401864 -95.699629 
L 137.327708 -119.513535 
L 135.253551 -101.070314 
L 133.179394 -109.038517 
L 131.105238 -106.503774 
L 129.031081 -106.250432 
L 126.956924 -105.032943 
L 124.882768 -106.277504 
L 122.808611 -105.114739 
L 120.734454 -87.270503 
L 118.660298 -105.391597 
L 116.586141 -105.463099 
L 114.511984 -114.822237 
L 112.437828 -112.213691 
z
" style="stroke: #b45f58; stroke-opacity: 0.2"/>
    </defs>
    <g clip-path="url(#pf67c11336c)">
     <use xlink:href="#m0271d87ef3" x="0" y="209.8225" style="fill: #b45f58; fill-opacity: 0.2; stroke: #b45f58; stroke-opacity: 0.2"/>
    </g>
   </g>
   <g id="PolyCollection_3">
    <defs>
     <path id="m221febce4f" d="M 170.514215 -109.514053 
L 170.514215 -92.52261 
L 172.588371 -90.81054 
L 174.662528 -92.504876 
L 176.736685 -91.75832 
L 178.810841 -79.684597 
L 180.884998 -99.342795 
L 182.959155 -92.824123 
L 185.033311 -103.120481 
L 187.107468 -93.474216 
L 189.181625 -91.13122 
L 191.255781 -91.287727 
L 193.329938 -79.81779 
L 195.404095 -95.284699 
L 197.478251 -91.791651 
L 199.552408 -101.671554 
L 201.626565 -103.211504 
L 203.700721 -94.282978 
L 205.774878 -92.512174 
L 207.849035 -82.223549 
L 209.923191 -92.341103 
L 211.997348 -89.187609 
L 214.071505 -94.354276 
L 216.145661 -92.851367 
L 218.219818 -87.623215 
L 220.293975 -85.979642 
L 222.368131 -79.441162 
L 224.442288 -97.055469 
L 226.516445 -89.90864 
L 228.590601 -106.619385 
L 230.664758 -100.698487 
L 232.738915 -95.01302 
L 232.738915 -109.781636 
L 232.738915 -109.781636 
L 230.664758 -115.43183 
L 228.590601 -124.234544 
L 226.516445 -107.205462 
L 224.442288 -113.068586 
L 222.368131 -98.433802 
L 220.293975 -102.405708 
L 218.219818 -104.748572 
L 216.145661 -109.476241 
L 214.071505 -111.383662 
L 211.997348 -106.038813 
L 209.923191 -109.929574 
L 207.849035 -99.520518 
L 205.774878 -109.795938 
L 203.700721 -111.107347 
L 201.626565 -120.64224 
L 199.552408 -120.53852 
L 197.478251 -109.206659 
L 195.404095 -111.798626 
L 193.329938 -96.094739 
L 191.255781 -107.712417 
L 189.181625 -107.280971 
L 187.107468 -109.143306 
L 185.033311 -121.353393 
L 182.959155 -108.340442 
L 180.884998 -115.755296 
L 178.810841 -96.418818 
L 176.736685 -109.050521 
L 174.662528 -108.634418 
L 172.588371 -108.245085 
L 170.514215 -109.514053 
z
" style="stroke: #3d6b91; stroke-opacity: 0.2"/>
    </defs>
    <g clip-path="url(#pf67c11336c)">
     <use xlink:href="#m221febce4f" x="0" y="209.8225" style="fill: #3d6b91; fill-opacity: 0.2; stroke: #3d6b91; stroke-opacity: 0.2"/>
    </g>
   </g>
   <g id="PolyCollection_4">
    <defs>
     <path id="mf7d3bb3a70" d="M 234.813072 -119.134139 
L 234.813072 -102.332324 
L 236.887228 -76.581784 
L 238.961385 -96.797873 
L 241.035542 -96.11646 
L 243.109698 -97.331634 
L 245.183855 -98.646536 
L 247.258012 -96.551738 
L 249.332168 -94.798343 
L 251.406325 -82.60548 
L 253.480482 -93.829336 
L 255.554638 -95.786197 
L 257.628795 -96.504154 
L 259.702952 -96.616778 
L 261.777108 -94.457918 
L 263.851265 -91.92035 
L 265.925422 -78.83403 
L 267.999578 -100.369794 
L 270.073735 -100.76421 
L 272.147892 -101.530745 
L 274.222048 -74.373616 
L 276.296205 -101.448689 
L 278.370362 -94.681235 
L 280.444518 -78.982435 
L 282.518675 -95.022828 
L 284.592832 -97.250573 
L 286.666988 -97.728222 
L 288.741145 -96.952818 
L 290.815302 -96.219817 
L 292.889458 -94.579129 
L 294.963615 -76.276304 
L 294.963615 -91.743009 
L 294.963615 -91.743009 
L 292.889458 -110.991385 
L 290.815302 -111.864974 
L 288.741145 -113.441924 
L 286.666988 -114.346662 
L 284.592832 -115.010785 
L 282.518675 -110.81644 
L 280.444518 -96.17462 
L 278.370362 -111.547592 
L 276.296205 -121.726063 
L 274.222048 -86.154633 
L 272.147892 -117.154999 
L 270.073735 -116.728324 
L 267.999578 -116.489268 
L 265.925422 -94.853362 
L 263.851265 -108.281233 
L 261.777108 -109.544 
L 259.702952 -112.066152 
L 257.628795 -112.316149 
L 255.554638 -111.69535 
L 253.480482 -109.503478 
L 251.406325 -97.58285 
L 249.332168 -109.342574 
L 247.258012 -111.977822 
L 245.183855 -114.579734 
L 243.109698 -113.351298 
L 241.035542 -111.851331 
L 238.961385 -112.993534 
L 236.887228 -91.981618 
L 234.813072 -119.134139 
z
" style="stroke: #4e9a73; stroke-opacity: 0.2"/>
    </defs>
    <g clip-path="url(#pf67c11336c)">
     <use xlink:href="#mf7d3bb3a70" x="0" y="209.8225" style="fill: #4e9a73; fill-opacity: 0.2; stroke: #4e9a73; stroke-opacity: 0.2"/>
    </g>
   </g>
   <g id="PolyCollection_5">
    <defs>
     <path id="m555e678b4e" d="M 297.037772 -96.595663 
L 297.037772 -78.490362 
L 299.111928 -99.567997 
L 301.186085 -88.974464 
L 303.260242 -100.01798 
L 305.334399 -97.852488 
L 307.408555 -97.98821 
L 309.482712 -80.03829 
L 311.556869 -102.835238 
L 313.631025 -100.485534 
L 315.705182 -105.904836 
L 317.779339 -105.425753 
L 319.853495 -102.657136 
L 321.927652 -98.966236 
L 324.001809 -84.429175 
L 326.075965 -104.351035 
L 328.150122 -104.810359 
L 330.224279 -104.525737 
L 332.298435 -105.069197 
L 334.372592 -101.098858 
L 336.446749 -100.544896 
L 338.520905 -96.502354 
L 340.595062 -108.529097 
L 342.669219 -110.242301 
L 344.743375 -107.897933 
L 346.817532 -110.501425 
L 348.891689 -112.565732 
L 350.965845 -114.292602 
L 353.040002 -102.640407 
L 355.114159 -115.462682 
L 357.188315 -113.84888 
L 359.262472 -114.235765 
L 359.262472 -131.781078 
L 359.262472 -131.781078 
L 357.188315 -130.588865 
L 355.114159 -132.422627 
L 353.040002 -120.770566 
L 350.965845 -131.328267 
L 348.891689 -131.367028 
L 346.817532 -129.306794 
L 344.743375 -124.815414 
L 342.669219 -127.733268 
L 340.595062 -125.504442 
L 338.520905 -110.941916 
L 336.446749 -116.151104 
L 334.372592 -116.048354 
L 332.298435 -120.858809 
L 330.224279 -121.154522 
L 328.150122 -121.37603 
L 326.075965 -120.467531 
L 324.001809 -101.638212 
L 321.927652 -116.205484 
L 319.853495 -117.988232 
L 317.779339 -121.239349 
L 315.705182 -121.78264 
L 313.631025 -116.938507 
L 311.556869 -119.196619 
L 309.482712 -96.822893 
L 307.408555 -113.318161 
L 305.334399 -113.907939 
L 303.260242 -116.43842 
L 301.186085 -104.88231 
L 299.111928 -114.397339 
L 297.037772 -96.595663 
z
" style="stroke: #c3824d; stroke-opacity: 0.2"/>
    </defs>
    <g clip-path="url(#pf67c11336c)">
     <use xlink:href="#m555e678b4e" x="0" y="209.8225" style="fill: #c3824d; fill-opacity: 0.2; stroke: #c3824d; stroke-opacity: 0.2"/>
    </g>
   </g>
   <g id="PolyCollection_6">
    <defs>
     <path id="md476cf6cb7" d="M 361.336629 -134.714466 
L 361.336629 -117.201233 
L 363.410785 -120.602491 
L 365.484942 -129.053725 
L 367.559099 -100.058993 
L 369.633256 -117.011826 
L 371.707412 -116.265572 
L 373.781569 -116.257005 
L 375.855726 -121.207153 
L 377.929882 -121.055346 
L 380.004039 -126.344039 
L 382.078196 -106.96081 
L 384.152352 -125.805957 
L 386.226509 -124.369253 
L 388.300666 -121.970201 
L 390.374822 -125.555206 
L 392.448979 -125.284431 
L 394.523136 -124.061916 
L 396.597292 -112.641609 
L 398.671449 -131.584595 
L 400.745606 -137.324103 
L 402.819762 -139.930528 
L 404.893919 -134.085327 
L 406.968076 -135.493271 
L 409.042232 -132.968096 
L 411.116389 -124.33541 
L 413.190546 -95.636694 
L 415.264702 -78.216167 
L 417.338859 -99.945958 
L 419.413016 -100.415972 
L 421.487172 -100.616444 
L 421.487172 -116.962805 
L 421.487172 -116.962805 
L 419.413016 -116.325081 
L 417.338859 -116.053219 
L 415.264702 -92.565321 
L 413.190546 -108.962955 
L 411.116389 -143.310097 
L 409.042232 -152.717797 
L 406.968076 -155.674852 
L 404.893919 -151.975129 
L 402.819762 -156.674492 
L 400.745606 -155.507152 
L 398.671449 -149.39551 
L 396.597292 -131.009865 
L 394.523136 -142.926049 
L 392.448979 -142.516538 
L 390.374822 -143.642608 
L 388.300666 -140.075587 
L 386.226509 -141.394089 
L 384.152352 -143.558622 
L 382.078196 -125.15727 
L 380.004039 -143.813316 
L 377.929882 -138.867129 
L 375.855726 -138.13041 
L 373.781569 -133.605037 
L 371.707412 -134.353705 
L 369.633256 -134.887351 
L 367.559099 -118.539979 
L 365.484942 -146.982623 
L 363.410785 -139.051062 
L 361.336629 -134.714466 
z
" style="stroke: #71588b; stroke-opacity: 0.2"/>
    </defs>
    <g clip-path="url(#pf67c11336c)">
     <use xlink:href="#md476cf6cb7" x="0" y="209.8225" style="fill: #71588b; fill-opacity: 0.2; stroke: #71588b; stroke-opacity: 0.2"/>
    </g>
   </g>
   <g id="PolyCollection_7">
    <defs>
     <path id="m6edd685ef8" d="M 423.561329 -118.158551 
L 423.561329 -101.258884 
L 425.635486 -96.785841 
L 427.709642 -113.292253 
L 429.783799 -107.109972 
L 431.857956 -124.388686 
L 433.932112 -129.798052 
L 436.006269 -113.479424 
L 438.080426 -119.800842 
L 440.154583 -104.00937 
L 442.228739 -129.061461 
L 444.302896 -134.593941 
L 446.377053 -136.256407 
L 448.451209 -135.7662 
L 450.525366 -118.862747 
L 452.599523 -125.832347 
L 454.673679 -122.997604 
L 456.747836 -136.033858 
L 458.821993 -139.167553 
L 460.896149 -143.504666 
L 462.970306 -136.052967 
L 465.044463 -126.182096 
L 467.118619 -124.486476 
L 469.192776 -112.559048 
L 471.266933 -144.58669 
L 473.341089 -148.558841 
L 475.415246 -146.539745 
L 477.489403 -147.111651 
L 479.563559 -145.161197 
L 481.637716 -144.771524 
L 483.711873 -128.839662 
L 485.786029 -149.69469 
L 485.786029 -166.111857 
L 485.786029 -166.111857 
L 483.711873 -145.238061 
L 481.637716 -162.506952 
L 479.563559 -160.945259 
L 477.489403 -165.063642 
L 475.415246 -163.632295 
L 473.341089 -165.051107 
L 471.266933 -163.321396 
L 469.192776 -130.20257 
L 467.118619 -141.130644 
L 465.044463 -142.700779 
L 462.970306 -152.613552 
L 460.896149 -161.382548 
L 458.821993 -156.981703 
L 456.747836 -153.562204 
L 454.673679 -137.294142 
L 452.599523 -143.490383 
L 450.525366 -134.318651 
L 448.451209 -152.667938 
L 446.377053 -154.276659 
L 444.302896 -150.685559 
L 442.228739 -145.829008 
L 440.154583 -119.0264 
L 438.080426 -136.350683 
L 436.006269 -129.807576 
L 433.932112 -147.774337 
L 431.857956 -141.994221 
L 429.783799 -124.564848 
L 427.709642 -130.43907 
L 425.635486 -112.552976 
L 423.561329 -118.158551 
z
" style="stroke: #8d7a5a; stroke-opacity: 0.2"/>
    </defs>
    <g clip-path="url(#pf67c11336c)">
     <use xlink:href="#m6edd685ef8" x="0" y="209.8225" style="fill: #8d7a5a; fill-opacity: 0.2; stroke: #8d7a5a; stroke-opacity: 0.2"/>
    </g>
   </g>
   <g id="line2d_49">
    <path d="M 48.138971 129.528963 
L 50.213127 126.416149 
L 52.287284 113.380406 
L 54.361441 112.39955 
L 56.435597 111.528832 
L 58.509754 112.227031 
L 60.583911 112.993457 
L 62.658067 121.0999 
L 64.732224 113.551301 
L 66.806381 103.363908 
L 68.880537 109.566469 
L 70.954694 101.72644 
L 73.028851 106.345465 
L 75.103007 111.284187 
L 77.177164 142.570554 
L 79.251321 113.189368 
L 81.325477 103.607579 
L 83.399634 95.685351 
L 85.473791 101.231626 
L 87.547947 103.980883 
L 89.622104 102.86552 
L 91.696261 110.614254 
L 93.770417 98.419664 
L 95.844574 105.520233 
L 97.918731 99.972984 
L 99.992888 96.962512 
L 102.067044 100.026267 
L 104.141201 107.714896 
L 106.215358 123.404701 
L 108.289514 105.976385 
L 110.363671 105.43771 
" clip-path="url(#pf67c11336c)" style="fill: none; stroke: #5b5b5b; stroke-width: 1.2; stroke-linecap: square"/>
   </g>
   <g id="line2d_50">
    <path d="M 112.437828 107.129949 
L 114.511984 103.228072 
L 116.586141 112.043919 
L 118.660298 112.578352 
L 120.734454 131.108924 
L 122.808611 113.548356 
L 124.882768 112.229894 
L 126.956924 112.810004 
L 129.031081 112.213254 
L 131.105238 112.252081 
L 133.179394 109.605695 
L 135.253551 117.884174 
L 137.327708 99.612335 
L 139.401864 120.19189 
L 141.476021 110.634428 
L 143.550178 107.254911 
L 145.624334 104.996462 
L 147.698491 106.681979 
L 149.772648 117.318093 
L 151.846804 101.231292 
L 153.920961 102.819254 
L 155.995118 103.981758 
L 158.069274 97.610987 
L 160.143431 108.009576 
L 162.217588 112.831212 
L 164.291744 117.649585 
L 166.365901 107.299936 
L 168.440058 108.630144 
" clip-path="url(#pf67c11336c)" style="fill: none; stroke: #b45f58; stroke-width: 1.2; stroke-linecap: square"/>
   </g>
   <g id="line2d_51">
    <path d="M 170.514215 108.895569 
L 172.588371 110.073505 
L 174.662528 109.395578 
L 176.736685 110.025667 
L 178.810841 121.414131 
L 180.884998 102.38268 
L 182.959155 109.053501 
L 185.033311 97.41405 
L 187.107468 108.565616 
L 189.181625 110.535505 
L 191.255781 110.477182 
L 193.329938 121.841727 
L 195.404095 106.308697 
L 197.478251 109.408356 
L 199.552408 98.616561 
L 201.626565 97.688629 
L 203.700721 106.604901 
L 205.774878 109.211105 
L 207.849035 119.009437 
L 209.923191 108.981744 
L 211.997348 112.089267 
L 214.071505 106.727446 
L 216.145661 108.607556 
L 218.219818 113.426773 
L 220.293975 115.626024 
L 222.368131 121.265701 
L 224.442288 104.545888 
L 226.516445 111.262254 
L 228.590601 94.264586 
L 230.664758 101.915437 
L 232.738915 107.675693 
" clip-path="url(#pf67c11336c)" style="fill: none; stroke: #3d6b91; stroke-width: 1.2; stroke-linecap: square"/>
   </g>
   <g id="line2d_52">
    <path d="M 234.813072 99.072774 
L 236.887228 125.311457 
L 238.961385 104.802436 
L 241.035542 105.512593 
L 243.109698 104.929084 
L 245.183855 102.973666 
L 247.258012 105.408822 
L 249.332168 107.961674 
L 251.406325 119.895431 
L 253.480482 108.156619 
L 255.554638 106.074221 
L 257.628795 105.882923 
L 259.702952 105.360085 
L 261.777108 107.824085 
L 263.851265 109.57395 
L 265.925422 123.568223 
L 267.999578 101.603745 
L 270.073735 101.134949 
L 272.147892 100.841868 
L 274.222048 129.775302 
L 276.296205 98.224365 
L 278.370362 106.717407 
L 280.444518 122.452925 
L 282.518675 106.607336 
L 284.592832 103.610552 
L 286.666988 103.932477 
L 288.741145 104.862113 
L 290.815302 105.774509 
L 292.889458 107.007172 
L 294.963615 126.268279 
" clip-path="url(#pf67c11336c)" style="fill: none; stroke: #4e9a73; stroke-width: 1.2; stroke-linecap: square"/>
   </g>
   <g id="line2d_53">
    <path d="M 297.037772 122.589431 
L 299.111928 102.816841 
L 301.186085 113.440317 
L 303.260242 101.497322 
L 305.334399 103.91083 
L 307.408555 103.947858 
L 309.482712 121.567477 
L 311.556869 98.46916 
L 313.631025 100.926428 
L 315.705182 95.830795 
L 317.779339 96.502 
L 319.853495 99.495154 
L 321.927652 102.404155 
L 324.001809 116.690642 
L 326.075965 97.481541 
L 328.150122 96.919399 
L 330.224279 97.295731 
L 332.298435 96.771289 
L 334.372592 101.174848 
L 336.446749 101.614463 
L 338.520905 106.106887 
L 340.595062 92.386581 
L 342.669219 90.780942 
L 344.743375 93.305532 
L 346.817532 89.907097 
L 348.891689 87.869921 
L 350.965845 87.161016 
L 353.040002 98.148033 
L 355.114159 85.648282 
L 357.188315 87.472719 
L 359.262472 86.988671 
" clip-path="url(#pf67c11336c)" style="fill: none; stroke: #c3824d; stroke-width: 1.2; stroke-linecap: square"/>
   </g>
   <g id="line2d_54">
    <path d="M 361.336629 84.212001 
L 363.410785 79.935356 
L 365.484942 71.700945 
L 367.559099 100.504045 
L 369.633256 83.44574 
L 371.707412 84.75457 
L 373.781569 84.350703 
L 375.855726 80.095815 
L 377.929882 79.968672 
L 380.004039 74.946844 
L 382.078196 93.870826 
L 384.152352 75.159656 
L 386.226509 76.896151 
L 388.300666 78.387877 
L 390.374822 75.107303 
L 392.448979 76.20536 
L 394.523136 76.624186 
L 396.597292 87.874685 
L 398.671449 69.132239 
L 400.745606 63.566482 
L 402.819762 61.258861 
L 404.893919 66.589369 
L 406.968076 64.332062 
L 409.042232 66.542455 
L 411.116389 75.733502 
L 413.190546 107.765502 
L 415.264702 124.613034 
L 417.338859 101.676212 
L 419.413016 101.171038 
L 421.487172 101.036076 
" clip-path="url(#pf67c11336c)" style="fill: none; stroke: #71588b; stroke-width: 1.2; stroke-linecap: square"/>
   </g>
   <g id="line2d_55">
    <path d="M 423.561329 100.581607 
L 425.635486 105.361917 
L 427.709642 87.889483 
L 429.783799 93.96387 
L 431.857956 76.292242 
L 433.932112 71.165048 
L 436.006269 88.209762 
L 438.080426 81.806909 
L 440.154583 98.142847 
L 442.228739 72.629669 
L 444.302896 67.548862 
L 446.377053 64.375064 
L 448.451209 65.590351 
L 450.525366 82.996955 
L 452.599523 75.136986 
L 454.673679 79.501172 
L 456.747836 64.758444 
L 458.821993 61.951653 
L 460.896149 57.297203 
L 462.970306 65.915405 
L 465.044463 75.453855 
L 467.118619 77.136087 
L 469.192776 89.064862 
L 471.266933 55.777669 
L 473.341089 52.646847 
L 475.415246 54.805234 
L 477.489403 53.627467 
L 479.563559 56.782506 
L 481.637716 56.104769 
L 483.711873 72.943808 
L 485.786029 51.598351 
" clip-path="url(#pf67c11336c)" style="fill: none; stroke: #8d7a5a; stroke-width: 1.2; stroke-linecap: square"/>
   </g>
   <g id="line2d_56"/>
   <g id="line2d_57"/>
   <g id="line2d_58"/>
   <g id="line2d_59"/>
   <g id="line2d_60"/>
   <g id="line2d_61"/>
   <g id="line2d_62"/>
   <g id="patch_4">
    <path d="M 38.7625 163.91125 
L 38.7625 25.31125 
" style="fill: none; stroke: #aaaaaa; stroke-width: 0.75; stroke-linejoin: miter; stroke-linecap: square"/>
   </g>
   <g id="patch_5">
    <path d="M 48.138971 173.91125 
L 483.711873 173.91125 
" style="fill: none; stroke: #aaaaaa; stroke-width: 0.75; stroke-linejoin: miter; stroke-linecap: square"/>
   </g>
   <g id="legend_1">
    <g id="line2d_63">
     <defs>
      <path id="m1935855e1a" d="M 0 1.5 
C 0.397805 1.5 0.77937 1.341951 1.06066 1.06066 
C 1.341951 0.77937 1.5 0.397805 1.5 0 
C 1.5 -0.397805 1.341951 -0.77937 1.06066 -1.06066 
C 0.77937 -1.341951 0.397805 -1.5 0 -1.5 
C -0.397805 -1.5 -0.77937 -1.341951 -1.06066 -1.06066 
C -1.341951 -0.77937 -1.5 -0.397805 -1.5 0 
C -1.5 0.397805 -1.341951 0.77937 -1.06066 1.06066 
C -0.77937 1.341951 -0.397805 1.5 0 1.5 
z
" style="stroke: #5b5b5b"/>
     </defs>
     <g>
      <use xlink:href="#m1935855e1a" x="58.9625" y="13.8075" style="fill: #5b5b5b; stroke: #5b5b5b"/>
     </g>
    </g>
    <g id="text_49">
     <!-- January -->
     <g style="fill: #4b4b4b" transform="translate(66.9625 16.6075) scale(0.08 -0.08)">
      <use xlink:href="#Ubuntu-4a"/>
      <use xlink:href="#Ubuntu-61" x="49.999985"/>
      <use xlink:href="#Ubuntu-6e" x="102.199982"/>
      <use xlink:href="#Ubuntu-75" x="159.599976"/>
      <use xlink:href="#Ubuntu-61" x="216.999969"/>
      <use xlink:href="#Ubuntu-72" x="269.199966"/>
      <use xlink:href="#Ubuntu-79" x="309.924957"/>
     </g>
    </g>
    <g id="line2d_64">
     <defs>
      <path id="mdc2c62304b" d="M 0 1.5 
C 0.397805 1.5 0.77937 1.341951 1.06066 1.06066 
C 1.341951 0.77937 1.5 0.397805 1.5 0 
C 1.5 -0.397805 1.341951 -0.77937 1.06066 -1.06066 
C 0.77937 -1.341951 0.397805 -1.5 0 -1.5 
C -0.397805 -1.5 -0.77937 -1.341951 -1.06066 -1.06066 
C -1.341951 -0.77937 -1.5 -0.397805 -1.5 0 
C -1.5 0.397805 -1.341951 0.77937 -1.06066 1.06066 
C -0.77937 1.341951 -0.397805 1.5 0 1.5 
z
" style="stroke: #b45f58"/>
     </defs>
     <g>
      <use xlink:href="#mdc2c62304b" x="119.73375" y="13.8075" style="fill: #b45f58; stroke: #b45f58"/>
     </g>
    </g>
    <g id="text_50">
     <!-- February -->
     <g style="fill: #4b4b4b" transform="translate(127.73375 16.6075) scale(0.08 -0.08)">
      <use xlink:href="#Ubuntu-46"/>
      <use xlink:href="#Ubuntu-65" x="52.324997"/>
      <use xlink:href="#Ubuntu-62" x="108.224991"/>
      <use xlink:href="#Ubuntu-72" x="167.124985"/>
      <use xlink:href="#Ubuntu-75" x="205.724976"/>
      <use xlink:href="#Ubuntu-61" x="263.124969"/>
      <use xlink:href="#Ubuntu-72" x="315.324966"/>
      <use xlink:href="#Ubuntu-79" x="356.049957"/>
     </g>
    </g>
    <g id="line2d_65">
     <defs>
      <path id="m6bc682b049" d="M 0 1.5 
C 0.397805 1.5 0.77937 1.341951 1.06066 1.06066 
C 1.341951 0.77937 1.5 0.397805 1.5 0 
C 1.5 -0.397805 1.341951 -0.77937 1.06066 -1.06066 
C 0.77937 -1.341951 0.397805 -1.5 0 -1.5 
C -0.397805 -1.5 -0.77937 -1.341951 -1.06066 -1.06066 
C -1.341951 -0.77937 -1.5 -0.397805 -1.5 0 
C -1.5 0.397805 -1.341951 0.77937 -1.06066 1.06066 
C -0.77937 1.341951 -0.397805 1.5 0 1.5 
z
" style="stroke: #3d6b91"/>
     </defs>
     <g>
      <use xlink:href="#m6bc682b049" x="184.195" y="13.8075" style="fill: #3d6b91; stroke: #3d6b91"/>
     </g>
    </g>
    <g id="text_51">
     <!-- March -->
     <g style="fill: #4b4b4b" transform="translate(192.195 16.6075) scale(0.08 -0.08)">
      <use xlink:href="#Ubuntu-4d"/>
      <use xlink:href="#Ubuntu-61" x="87.099991"/>
      <use xlink:href="#Ubuntu-72" x="139.299988"/>
      <use xlink:href="#Ubuntu-63" x="177.899979"/>
      <use xlink:href="#Ubuntu-68" x="224.399963"/>
     </g>
    </g>
    <g id="line2d_66">
     <defs>
      <path id="m7e0b0ff51e" d="M 0 1.5 
C 0.397805 1.5 0.77937 1.341951 1.06066 1.06066 
C 1.341951 0.77937 1.5 0.397805 1.5 0 
C 1.5 -0.397805 1.341951 -0.77937 1.06066 -1.06066 
C 0.77937 -1.341951 0.397805 -1.5 0 -1.5 
C -0.397805 -1.5 -0.77937 -1.341951 -1.06066 -1.06066 
C -1.341951 -0.77937 -1.5 -0.397805 -1.5 0 
C -1.5 0.397805 -1.341951 0.77937 -1.06066 1.06066 
C -0.77937 1.341951 -0.397805 1.5 0 1.5 
z
" style="stroke: #4e9a73"/>
     </defs>
     <g>
      <use xlink:href="#m7e0b0ff51e" x="238.71375" y="13.8075" style="fill: #4e9a73; stroke: #4e9a73"/>
     </g>
    </g>
    <g id="text_52">
     <!-- April -->
     <g style="fill: #4b4b4b" transform="translate(246.71375 16.6075) scale(0.08 -0.08)">
      <use xlink:href="#Ubuntu-41"/>
      <use xlink:href="#Ubuntu-70" x="66.299988"/>
      <use xlink:href="#Ubuntu-72" x="125.199982"/>
      <use xlink:href="#Ubuntu-69" x="163.799973"/>
      <use xlink:href="#Ubuntu-6c" x="189.09996"/>
     </g>
    </g>
    <g id="line2d_67">
     <defs>
      <path id="mc9c8a26d41" d="M 0 1.5 
C 0.397805 1.5 0.77937 1.341951 1.06066 1.06066 
C 1.341951 0.77937 1.5 0.397805 1.5 0 
C 1.5 -0.397805 1.341951 -0.77937 1.06066 -1.06066 
C 0.77937 -1.341951 0.397805 -1.5 0 -1.5 
C -0.397805 -1.5 -0.77937 -1.341951 -1.06066 -1.06066 
C -1.341951 -0.77937 -1.5 -0.397805 -1.5 0 
C -1.5 0.397805 -1.341951 0.77937 -1.06066 1.06066 
C -0.77937 1.341951 -0.397805 1.5 0 1.5 
z
" style="stroke: #c3824d"/>
     </defs>
     <g>
      <use xlink:href="#mc9c8a26d41" x="288.025" y="13.8075" style="fill: #c3824d; stroke: #c3824d"/>
     </g>
    </g>
    <g id="text_53">
     <!-- May -->
     <g style="fill: #4b4b4b" transform="translate(296.025 16.6075) scale(0.08 -0.08)">
      <use xlink:href="#Ubuntu-4d"/>
      <use xlink:href="#Ubuntu-61" x="87.099991"/>
      <use xlink:href="#Ubuntu-79" x="137.799988"/>
     </g>
    </g>
    <g id="line2d_68">
     <defs>
      <path id="meaa1ca9441" d="M 0 1.5 
C 0.397805 1.5 0.77937 1.341951 1.06066 1.06066 
C 1.341951 0.77937 1.5 0.397805 1.5 0 
C 1.5 -0.397805 1.341951 -0.77937 1.06066 -1.06066 
C 0.77937 -1.341951 0.397805 -1.5 0 -1.5 
C -0.397805 -1.5 -0.77937 -1.341951 -1.06066 -1.06066 
C -1.341951 -0.77937 -1.5 -0.397805 -1.5 0 
C -1.5 0.397805 -1.341951 0.77937 -1.06066 1.06066 
C -0.77937 1.341951 -0.397805 1.5 0 1.5 
z
" style="stroke: #71588b"/>
     </defs>
     <g>
      <use xlink:href="#meaa1ca9441" x="335.025" y="13.8075" style="fill: #71588b; stroke: #71588b"/>
     </g>
    </g>
    <g id="text_54">
     <!-- June -->
     <g style="fill: #4b4b4b" transform="translate(343.025 16.6075) scale(0.08 -0.08)">
      <use xlink:href="#Ubuntu-4a"/>
      <use xlink:href="#Ubuntu-75" x="49.999985"/>
      <use xlink:href="#Ubuntu-6e" x="107.399979"/>
      <use xlink:href="#Ubuntu-65" x="164.799973"/>
     </g>
    </g>
    <g id="line2d_69">
     <defs>
      <path id="m5fb9dee8c1" d="M 0 1.5 
C 0.397805 1.5 0.77937 1.341951 1.06066 1.06066 
C 1.341951 0.77937 1.5 0.397805 1.5 0 
C 1.5 -0.397805 1.341951 -0.77937 1.06066 -1.06066 
C 0.77937 -1.341951 0.397805 -1.5 0 -1.5 
C -0.397805 -1.5 -0.77937 -1.341951 -1.06066 -1.06066 
C -1.341951 -0.77937 -1.5 -0.397805 -1.5 0 
C -1.5 0.397805 -1.341951 0.77937 -1.06066 1.06066 
C -0.77937 1.341951 -0.397805 1.5 0 1.5 
z
" style="stroke: #8d7a5a"/>
     </defs>
     <g>
      <use xlink:href="#m5fb9dee8c1" x="384.6825" y="13.8075" style="fill: #8d7a5a; stroke: #8d7a5a"/>
     </g>
    </g>
    <g id="text_55">
     <!-- July -->
     <g style="fill: #4b4b4b" transform="translate(392.6825 16.6075) scale(0.08 -0.08)">
      <use xlink:href="#Ubuntu-4a"/>
      <use xlink:href="#Ubuntu-75" x="49.999985"/>
      <use xlink:href="#Ubuntu-6c" x="107.399979"/>
      <use xlink:href="#Ubuntu-79" x="134.699966"/>
     </g>
    </g>
   </g>
  </g>
 </g>
 <defs>
  <clipPath id="p01e3609b29">
   <rect x="43.7625" y="163.91125" width="446.4" height="0"/>
  </clipPath>
  <clipPath id="pf67c11336c">
   <rect x="43.7625" y="25.31125" width="446.4" height="138.6"/>
  </clipPath>
 </defs>
</svg>
