<?xml version="1.0" encoding="utf-8" standalone="no"?>
<!DOCTYPE svg PUBLIC "-//W3C//DTD SVG 1.1//EN"
  "http://www.w3.org/Graphics/SVG/1.1/DTD/svg11.dtd">
<svg xmlns:xlink="http://www.w3.org/1999/xlink" width="497.429902pt" height="216.7525pt" viewBox="0 0 497.429902 216.7525" xmlns="http://www.w3.org/2000/svg" version="1.1">
 <metadata>
  <rdf:RDF xmlns:dc="http://purl.org/dc/elements/1.1/" xmlns:cc="http://creativecommons.org/ns#" xmlns:rdf="http://www.w3.org/1999/02/22-rdf-syntax-ns#">
   <cc:Work>
    <dc:type rdf:resource="http://purl.org/dc/dcmitype/StillImage"/>
    <dc:date>2024-05-16T16:41:41.347283</dc:date>
    <dc:format>image/svg+xml</dc:format>
    <dc:creator>
     <cc:Agent>
      <dc:title>Matplotlib v3.8.3, https://matplotlib.org/</dc:title>
     </cc:Agent>
    </dc:creator>
   </cc:Work>
  </rdf:RDF>
 </metadata>
 <defs>
  <style type="text/css">*{stroke-linejoin: round; stroke-linecap: butt}</style>
 </defs>
 <g id="figure_1">
  <g id="patch_1">
   <path d="M 0 216.7525 
L 497.429902 216.7525 
L 497.429902 0 
L 0 0 
L 0 216.7525 
z
" style="fill: none"/>
  </g>
  <g id="axes_1">
   <g id="patch_2">
    <path d="M 41.2625 170.84125 
L 487.6625 170.84125 
L 487.6625 32.24125 
L 41.2625 32.24125 
L 41.2625 170.84125 
z
" style="fill: none"/>
   </g>
   <g id="axes_2">
    <g id="patch_3">
     <path d="M 41.2625 170.84125 
L 487.6625 170.84125 
L 487.6625 170.84125 
L 41.2625 170.84125 
L 41.2625 170.84125 
z
" style="fill: none"/>
    </g>
    <g id="matplotlib.axis_1">
     <g id="xtick_1">
      <g id="line2d_1">
       <path d="M 79.678186 170.84125 
L 79.678186 170.84125 
" clip-path="url(#pb6a1f4fd14)" style="fill: none; stroke-dasharray: 0.5,0.825; stroke-dashoffset: 0; stroke: #d9d9d9; stroke-width: 0.5"/>
      </g>
      <g id="text_1">
       <!-- February -->
       <g style="fill: #808080" transform="translate(63.447561 208.04875) scale(0.08 -0.08)">
        <defs>
         <path id="Ubuntu-46" d="M 550 0 
L 550 4435 
L 3226 4435 
L 3226 3904 
L 1171 3904 
L 1171 2566 
L 2995 2566 
L 2995 2042 
L 1171 2042 
L 1171 0 
L 550 0 
z
" transform="scale(0.015625)"/>
         <path id="Ubuntu-65" d="M 326 1658 
Q 326 2099 454 2428 
Q 582 2758 793 2976 
Q 1005 3194 1280 3302 
Q 1555 3411 1843 3411 
Q 2515 3411 2873 2992 
Q 3232 2573 3232 1715 
Q 3232 1677 3232 1616 
Q 3232 1555 3226 1504 
L 947 1504 
Q 986 986 1248 717 
Q 1510 448 2067 448 
Q 2381 448 2595 502 
Q 2810 557 2918 608 
L 3002 109 
Q 2893 51 2621 -13 
Q 2349 -77 2003 -77 
Q 1568 -77 1251 54 
Q 934 186 729 416 
Q 525 646 425 963 
Q 326 1280 326 1658 
z
M 2611 1984 
Q 2618 2387 2410 2646 
Q 2202 2906 1837 2906 
Q 1632 2906 1475 2826 
Q 1318 2746 1209 2618 
Q 1101 2490 1040 2323 
Q 979 2157 960 1984 
L 2611 1984 
z
" transform="scale(0.015625)"/>
         <path id="Ubuntu-62" d="M 1107 3181 
Q 1216 3251 1437 3328 
Q 1658 3405 1946 3405 
Q 2304 3405 2582 3277 
Q 2861 3149 3053 2918 
Q 3245 2688 3344 2368 
Q 3443 2048 3443 1664 
Q 3443 1261 3324 937 
Q 3206 614 2988 390 
Q 2771 166 2464 44 
Q 2157 -77 1773 -77 
Q 1357 -77 1037 -19 
Q 717 38 512 96 
L 512 4864 
L 1107 4966 
L 1107 3181 
z
M 1107 518 
Q 1197 493 1360 470 
Q 1523 448 1766 448 
Q 2246 448 2534 765 
Q 2822 1082 2822 1664 
Q 2822 1920 2771 2144 
Q 2720 2368 2605 2531 
Q 2490 2694 2307 2787 
Q 2125 2880 1869 2880 
Q 1626 2880 1421 2797 
Q 1216 2714 1107 2624 
L 1107 518 
z
" transform="scale(0.015625)"/>
         <path id="Ubuntu-72" d="M 1741 3398 
Q 1818 3398 1917 3388 
Q 2016 3379 2112 3363 
Q 2208 3347 2288 3331 
Q 2368 3315 2406 3302 
L 2304 2784 
Q 2234 2810 2070 2845 
Q 1907 2880 1651 2880 
Q 1485 2880 1321 2845 
Q 1158 2810 1107 2797 
L 1107 0 
L 512 0 
L 512 3187 
Q 723 3264 1036 3331 
Q 1350 3398 1741 3398 
z
" transform="scale(0.015625)"/>
         <path id="Ubuntu-75" d="M 3162 96 
Q 2957 45 2621 -12 
Q 2285 -70 1843 -70 
Q 1459 -70 1196 42 
Q 934 154 774 358 
Q 614 563 544 841 
Q 474 1120 474 1459 
L 474 3328 
L 1069 3328 
L 1069 1587 
Q 1069 979 1261 716 
Q 1453 454 1907 454 
Q 2003 454 2105 460 
Q 2208 467 2297 476 
Q 2387 486 2460 496 
Q 2534 506 2566 518 
L 2566 3328 
L 3162 3328 
L 3162 96 
z
" transform="scale(0.015625)"/>
         <path id="Ubuntu-61" d="M 1638 429 
Q 1850 429 2013 438 
Q 2176 448 2285 474 
L 2285 1466 
Q 2221 1498 2077 1520 
Q 1933 1542 1728 1542 
Q 1594 1542 1443 1523 
Q 1293 1504 1168 1443 
Q 1043 1382 960 1276 
Q 877 1171 877 998 
Q 877 678 1081 553 
Q 1286 429 1638 429 
z
M 1587 3411 
Q 1946 3411 2192 3318 
Q 2438 3226 2588 3056 
Q 2739 2886 2803 2652 
Q 2867 2419 2867 2138 
L 2867 58 
Q 2790 45 2652 22 
Q 2515 0 2342 -19 
Q 2170 -38 1968 -54 
Q 1766 -70 1568 -70 
Q 1286 -70 1049 -12 
Q 813 45 640 169 
Q 467 294 371 499 
Q 275 704 275 992 
Q 275 1267 387 1465 
Q 499 1664 691 1785 
Q 883 1907 1139 1964 
Q 1395 2022 1677 2022 
Q 1766 2022 1862 2012 
Q 1958 2003 2044 1987 
Q 2131 1971 2195 1958 
Q 2259 1946 2285 1939 
L 2285 2106 
Q 2285 2253 2253 2397 
Q 2221 2541 2137 2653 
Q 2054 2765 1910 2832 
Q 1766 2899 1536 2899 
Q 1242 2899 1021 2857 
Q 800 2816 691 2771 
L 621 3264 
Q 736 3315 1005 3363 
Q 1274 3411 1587 3411 
z
" transform="scale(0.015625)"/>
         <path id="Ubuntu-79" d="M 122 -621 
Q 192 -653 304 -681 
Q 416 -710 525 -710 
Q 877 -710 1075 -553 
Q 1274 -397 1434 -45 
Q 1030 723 681 1584 
Q 333 2445 102 3328 
L 742 3328 
Q 813 3040 912 2707 
Q 1011 2374 1132 2022 
Q 1254 1670 1395 1318 
Q 1536 966 1690 640 
Q 1933 1312 2112 1971 
Q 2291 2630 2451 3328 
L 3066 3328 
Q 2835 2387 2553 1520 
Q 2272 653 1946 -102 
Q 1818 -390 1680 -598 
Q 1542 -806 1376 -940 
Q 1210 -1075 1002 -1139 
Q 794 -1203 531 -1203 
Q 461 -1203 384 -1193 
Q 307 -1184 233 -1168 
Q 160 -1152 99 -1133 
Q 38 -1114 13 -1101 
L 122 -621 
z
" transform="scale(0.015625)"/>
        </defs>
        <use xlink:href="#Ubuntu-46"/>
        <use xlink:href="#Ubuntu-65" x="52.324997"/>
        <use xlink:href="#Ubuntu-62" x="108.224991"/>
        <use xlink:href="#Ubuntu-72" x="167.124985"/>
        <use xlink:href="#Ubuntu-75" x="205.724976"/>
        <use xlink:href="#Ubuntu-61" x="263.124969"/>
        <use xlink:href="#Ubuntu-72" x="315.324966"/>
        <use xlink:href="#Ubuntu-79" x="356.049957"/>
       </g>
      </g>
     </g>
     <g id="xtick_2">
      <g id="line2d_2">
       <path d="M 147.756618 170.84125 
L 147.756618 170.84125 
" clip-path="url(#pb6a1f4fd14)" style="fill: none; stroke-dasharray: 0.5,0.825; stroke-dashoffset: 0; stroke: #d9d9d9; stroke-width: 0.5"/>
      </g>
      <g id="text_2">
       <!-- March -->
       <g style="fill: #808080" transform="translate(136.497243 208.04875) scale(0.08 -0.08)">
        <defs>
         <path id="Ubuntu-4d" d="M 2541 614 
Q 2477 768 2371 1005 
Q 2266 1242 2144 1517 
Q 2022 1792 1884 2083 
Q 1747 2374 1625 2633 
Q 1504 2893 1398 3097 
Q 1293 3302 1229 3411 
Q 1158 2656 1113 1776 
Q 1069 896 1037 0 
L 429 0 
Q 454 576 486 1161 
Q 518 1747 560 2313 
Q 602 2880 650 3417 
Q 698 3955 755 4435 
L 1299 4435 
Q 1472 4154 1670 3770 
Q 1869 3386 2067 2966 
Q 2266 2547 2451 2128 
Q 2637 1709 2790 1363 
Q 2944 1709 3129 2128 
Q 3315 2547 3513 2966 
Q 3712 3386 3910 3770 
Q 4109 4154 4282 4435 
L 4826 4435 
Q 5043 2291 5152 0 
L 4544 0 
Q 4512 896 4467 1776 
Q 4422 2656 4352 3411 
Q 4288 3302 4182 3097 
Q 4077 2893 3955 2633 
Q 3834 2374 3696 2083 
Q 3558 1792 3436 1517 
Q 3315 1242 3209 1005 
Q 3104 768 3040 614 
L 2541 614 
z
" transform="scale(0.015625)"/>
         <path id="Ubuntu-63" d="M 1958 -77 
Q 1555 -77 1251 51 
Q 947 179 739 409 
Q 531 640 428 957 
Q 326 1274 326 1658 
Q 326 2042 438 2362 
Q 550 2682 755 2915 
Q 960 3149 1257 3280 
Q 1555 3411 1920 3411 
Q 2144 3411 2368 3372 
Q 2592 3334 2797 3251 
L 2662 2746 
Q 2528 2810 2352 2848 
Q 2176 2886 1978 2886 
Q 1478 2886 1212 2572 
Q 947 2259 947 1658 
Q 947 1389 1008 1165 
Q 1069 941 1200 781 
Q 1331 621 1536 534 
Q 1741 448 2035 448 
Q 2272 448 2464 493 
Q 2656 538 2765 589 
L 2848 90 
Q 2797 58 2701 29 
Q 2605 0 2483 -22 
Q 2362 -45 2224 -61 
Q 2086 -77 1958 -77 
z
" transform="scale(0.015625)"/>
         <path id="Ubuntu-68" d="M 512 0 
L 512 4864 
L 1107 4966 
L 1107 3264 
Q 1274 3328 1462 3363 
Q 1651 3398 1837 3398 
Q 2234 3398 2496 3286 
Q 2758 3174 2915 2972 
Q 3072 2771 3136 2489 
Q 3200 2208 3200 1869 
L 3200 0 
L 2605 0 
L 2605 1741 
Q 2605 2048 2563 2265 
Q 2522 2483 2426 2617 
Q 2330 2752 2170 2813 
Q 2010 2874 1773 2874 
Q 1677 2874 1574 2861 
Q 1472 2848 1379 2832 
Q 1286 2816 1212 2797 
Q 1139 2778 1107 2765 
L 1107 0 
L 512 0 
z
" transform="scale(0.015625)"/>
        </defs>
        <use xlink:href="#Ubuntu-4d"/>
        <use xlink:href="#Ubuntu-61" x="87.099991"/>
        <use xlink:href="#Ubuntu-72" x="139.299988"/>
        <use xlink:href="#Ubuntu-63" x="177.899979"/>
        <use xlink:href="#Ubuntu-68" x="224.399963"/>
       </g>
      </g>
     </g>
     <g id="xtick_3">
      <g id="line2d_3">
       <path d="M 223.129167 170.84125 
L 223.129167 170.84125 
" clip-path="url(#pb6a1f4fd14)" style="fill: none; stroke-dasharray: 0.5,0.825; stroke-dashoffset: 0; stroke: #d9d9d9; stroke-width: 0.5"/>
      </g>
      <g id="text_3">
       <!-- April -->
       <g style="fill: #808080" transform="translate(214.473542 208.04875) scale(0.08 -0.08)">
        <defs>
         <path id="Ubuntu-41" d="M 3514 0 
Q 3405 288 3309 566 
Q 3213 845 3110 1133 
L 1101 1133 
L 698 0 
L 51 0 
Q 307 704 531 1302 
Q 755 1901 969 2438 
Q 1184 2976 1395 3465 
Q 1606 3955 1837 4435 
L 2406 4435 
Q 2637 3955 2848 3465 
Q 3059 2976 3273 2438 
Q 3488 1901 3712 1302 
Q 3936 704 4192 0 
L 3514 0 
z
M 2931 1645 
Q 2726 2202 2524 2723 
Q 2323 3245 2106 3725 
Q 1882 3245 1680 2723 
Q 1478 2202 1280 1645 
L 2931 1645 
z
" transform="scale(0.015625)"/>
         <path id="Ubuntu-70" d="M 2822 1658 
Q 2822 2240 2534 2553 
Q 2246 2867 1766 2867 
Q 1498 2867 1347 2848 
Q 1197 2829 1107 2803 
L 1107 704 
Q 1216 614 1421 531 
Q 1626 448 1869 448 
Q 2125 448 2307 541 
Q 2490 634 2605 797 
Q 2720 960 2771 1181 
Q 2822 1402 2822 1658 
z
M 3443 1658 
Q 3443 1280 3344 960 
Q 3245 640 3053 409 
Q 2861 179 2582 51 
Q 2304 -77 1946 -77 
Q 1658 -77 1437 0 
Q 1216 77 1107 147 
L 1107 -1184 
L 512 -1184 
L 512 3226 
Q 723 3277 1040 3337 
Q 1357 3398 1773 3398 
Q 2157 3398 2464 3276 
Q 2771 3155 2988 2931 
Q 3206 2707 3324 2384 
Q 3443 2061 3443 1658 
z
" transform="scale(0.015625)"/>
         <path id="Ubuntu-69" d="M 1107 0 
L 512 0 
L 512 3328 
L 1107 3328 
L 1107 0 
z
M 806 3930 
Q 646 3930 534 4035 
Q 422 4141 422 4320 
Q 422 4499 534 4604 
Q 646 4710 806 4710 
Q 966 4710 1078 4604 
Q 1190 4499 1190 4320 
Q 1190 4141 1078 4035 
Q 966 3930 806 3930 
z
" transform="scale(0.015625)"/>
         <path id="Ubuntu-6c" d="M 1510 -64 
Q 960 -51 729 173 
Q 499 397 499 870 
L 499 4864 
L 1094 4966 
L 1094 966 
Q 1094 819 1120 723 
Q 1146 627 1203 569 
Q 1261 512 1357 483 
Q 1453 454 1594 435 
L 1510 -64 
z
" transform="scale(0.015625)"/>
        </defs>
        <use xlink:href="#Ubuntu-41"/>
        <use xlink:href="#Ubuntu-70" x="66.299988"/>
        <use xlink:href="#Ubuntu-72" x="125.199982"/>
        <use xlink:href="#Ubuntu-69" x="163.799973"/>
        <use xlink:href="#Ubuntu-6c" x="189.09996"/>
       </g>
      </g>
     </g>
     <g id="xtick_4">
      <g id="line2d_4">
       <path d="M 296.070343 170.84125 
L 296.070343 170.84125 
" clip-path="url(#pb6a1f4fd14)" style="fill: none; stroke-dasharray: 0.5,0.825; stroke-dashoffset: 0; stroke: #d9d9d9; stroke-width: 0.5"/>
      </g>
      <g id="text_4">
       <!-- May -->
       <g style="fill: #808080" transform="translate(288.570343 208.025) scale(0.08 -0.08)">
        <use xlink:href="#Ubuntu-4d"/>
        <use xlink:href="#Ubuntu-61" x="87.099991"/>
        <use xlink:href="#Ubuntu-79" x="137.799988"/>
       </g>
      </g>
     </g>
     <g id="xtick_5">
      <g id="line2d_5">
       <path d="M 371.442892 170.84125 
L 371.442892 170.84125 
" clip-path="url(#pb6a1f4fd14)" style="fill: none; stroke-dasharray: 0.5,0.825; stroke-dashoffset: 0; stroke: #d9d9d9; stroke-width: 0.5"/>
      </g>
      <g id="text_5">
       <!-- June -->
       <g style="fill: #808080" transform="translate(362.614142 208.04875) scale(0.08 -0.08)">
        <defs>
         <path id="Ubuntu-4a" d="M 2682 1427 
Q 2682 1107 2614 832 
Q 2547 557 2377 349 
Q 2208 141 1923 22 
Q 1638 -96 1210 -96 
Q 992 -96 809 -61 
Q 627 -26 480 28 
Q 333 83 224 144 
Q 115 205 51 262 
L 294 755 
Q 429 659 643 553 
Q 858 448 1178 448 
Q 1638 448 1849 681 
Q 2061 915 2061 1485 
L 2061 4435 
L 2682 4435 
L 2682 1427 
z
" transform="scale(0.015625)"/>
         <path id="Ubuntu-6e" d="M 512 3232 
Q 717 3283 1056 3340 
Q 1395 3398 1837 3398 
Q 2234 3398 2496 3286 
Q 2758 3174 2915 2972 
Q 3072 2771 3136 2489 
Q 3200 2208 3200 1869 
L 3200 0 
L 2605 0 
L 2605 1741 
Q 2605 2048 2563 2265 
Q 2522 2483 2426 2617 
Q 2330 2752 2170 2813 
Q 2010 2874 1773 2874 
Q 1677 2874 1574 2867 
Q 1472 2861 1379 2851 
Q 1286 2842 1212 2829 
Q 1139 2816 1107 2810 
L 1107 0 
L 512 0 
L 512 3232 
z
" transform="scale(0.015625)"/>
        </defs>
        <use xlink:href="#Ubuntu-4a"/>
        <use xlink:href="#Ubuntu-75" x="49.999985"/>
        <use xlink:href="#Ubuntu-6e" x="107.399979"/>
        <use xlink:href="#Ubuntu-65" x="164.799973"/>
       </g>
      </g>
     </g>
     <g id="xtick_6">
      <g id="line2d_6">
       <path d="M 444.384069 170.84125 
L 444.384069 170.84125 
" clip-path="url(#pb6a1f4fd14)" style="fill: none; stroke-dasharray: 0.5,0.825; stroke-dashoffset: 0; stroke: #d9d9d9; stroke-width: 0.5"/>
      </g>
      <g id="text_6">
       <!-- July -->
       <g style="fill: #808080" transform="translate(437.007819 208.04875) scale(0.08 -0.08)">
        <use xlink:href="#Ubuntu-4a"/>
        <use xlink:href="#Ubuntu-75" x="49.999985"/>
        <use xlink:href="#Ubuntu-6c" x="107.399979"/>
        <use xlink:href="#Ubuntu-79" x="134.699966"/>
       </g>
      </g>
     </g>
    </g>
    <g id="matplotlib.axis_2"/>
   </g>
   <g id="matplotlib.axis_3">
    <g id="xtick_7">
     <g id="line2d_7">
      <defs>
       <path id="meb1b1b2221" d="M 0 0 
L 0 3 
" style="stroke: #cecece; stroke-width: 0.75"/>
      </defs>
      <g>
       <use xlink:href="#meb1b1b2221" x="45.638971" y="175.84125" style="fill: #cecece; stroke: #cecece; stroke-width: 0.75"/>
      </g>
     </g>
     <g id="text_7">
      <!-- 01 -->
      <g style="fill: #808080" transform="translate(41.126471 191.04875) scale(0.08 -0.08)">
       <defs>
        <path id="Ubuntu-30" d="M 320 2221 
Q 320 3334 713 3936 
Q 1107 4538 1805 4538 
Q 2502 4538 2896 3936 
Q 3290 3334 3290 2221 
Q 3290 1107 2896 505 
Q 2502 -96 1805 -96 
Q 1107 -96 713 505 
Q 320 1107 320 2221 
z
M 2662 2221 
Q 2662 2586 2620 2912 
Q 2579 3238 2480 3481 
Q 2381 3725 2214 3869 
Q 2048 4013 1805 4013 
Q 1562 4013 1395 3869 
Q 1229 3725 1129 3481 
Q 1030 3238 988 2912 
Q 947 2586 947 2221 
Q 947 1856 988 1529 
Q 1030 1203 1129 960 
Q 1229 717 1395 573 
Q 1562 429 1805 429 
Q 2048 429 2214 573 
Q 2381 717 2480 960 
Q 2579 1203 2620 1529 
Q 2662 1856 2662 2221 
z
" transform="scale(0.015625)"/>
        <path id="Ubuntu-31" d="M 595 3520 
Q 960 3661 1305 3881 
Q 1651 4102 1939 4435 
L 2362 4435 
L 2362 0 
L 1766 0 
L 1766 3610 
Q 1690 3539 1578 3462 
Q 1466 3386 1334 3315 
Q 1203 3245 1059 3181 
Q 915 3117 781 3072 
L 595 3520 
z
" transform="scale(0.015625)"/>
       </defs>
       <use xlink:href="#Ubuntu-30"/>
       <use xlink:href="#Ubuntu-31" x="56.399994"/>
      </g>
     </g>
    </g>
    <g id="xtick_8">
     <g id="line2d_8">
      <g>
       <use xlink:href="#meb1b1b2221" x="67.521324" y="175.84125" style="fill: #cecece; stroke: #cecece; stroke-width: 0.75"/>
      </g>
     </g>
     <g id="text_8">
      <!-- 10 -->
      <g style="fill: #808080" transform="translate(63.008824 191.04875) scale(0.08 -0.08)">
       <use xlink:href="#Ubuntu-31"/>
       <use xlink:href="#Ubuntu-30" x="56.399994"/>
      </g>
     </g>
    </g>
    <g id="xtick_9">
     <g id="line2d_9">
      <g>
       <use xlink:href="#meb1b1b2221" x="91.835049" y="175.84125" style="fill: #cecece; stroke: #cecece; stroke-width: 0.75"/>
      </g>
     </g>
     <g id="text_9">
      <!-- 20 -->
      <g style="fill: #808080" transform="translate(87.322549 191.04875) scale(0.08 -0.08)">
       <defs>
        <path id="Ubuntu-32" d="M 2989 3302 
Q 2989 3072 2896 2857 
Q 2803 2643 2649 2435 
Q 2496 2227 2304 2025 
Q 2112 1824 1920 1632 
Q 1811 1523 1667 1376 
Q 1523 1229 1395 1069 
Q 1267 909 1180 761 
Q 1094 614 1094 506 
L 3136 506 
L 3136 0 
L 448 0 
Q 442 38 442 76 
Q 442 115 442 147 
Q 442 448 541 707 
Q 640 966 800 1196 
Q 960 1427 1158 1632 
Q 1357 1837 1549 2029 
Q 1709 2182 1853 2332 
Q 1997 2483 2109 2633 
Q 2221 2784 2288 2944 
Q 2355 3104 2355 3283 
Q 2355 3475 2294 3609 
Q 2234 3744 2131 3833 
Q 2029 3923 1891 3964 
Q 1754 4006 1600 4006 
Q 1414 4006 1260 3955 
Q 1107 3904 985 3837 
Q 864 3770 781 3696 
Q 698 3622 653 3584 
L 358 4006 
Q 416 4070 531 4163 
Q 646 4256 806 4339 
Q 966 4422 1164 4480 
Q 1363 4538 1594 4538 
Q 2291 4538 2640 4214 
Q 2989 3891 2989 3302 
z
" transform="scale(0.015625)"/>
       </defs>
       <use xlink:href="#Ubuntu-32"/>
       <use xlink:href="#Ubuntu-30" x="56.399994"/>
      </g>
     </g>
    </g>
    <g id="xtick_10">
     <g id="line2d_10">
      <g>
       <use xlink:href="#meb1b1b2221" x="113.717402" y="175.84125" style="fill: #cecece; stroke: #cecece; stroke-width: 0.75"/>
      </g>
     </g>
     <g id="text_10">
      <!-- 01 -->
      <g style="fill: #808080" transform="translate(109.204902 191.04875) scale(0.08 -0.08)">
       <use xlink:href="#Ubuntu-30"/>
       <use xlink:href="#Ubuntu-31" x="56.399994"/>
      </g>
     </g>
    </g>
    <g id="xtick_11">
     <g id="line2d_11">
      <g>
       <use xlink:href="#meb1b1b2221" x="135.599755" y="175.84125" style="fill: #cecece; stroke: #cecece; stroke-width: 0.75"/>
      </g>
     </g>
     <g id="text_11">
      <!-- 10 -->
      <g style="fill: #808080" transform="translate(131.087255 191.04875) scale(0.08 -0.08)">
       <use xlink:href="#Ubuntu-31"/>
       <use xlink:href="#Ubuntu-30" x="56.399994"/>
      </g>
     </g>
    </g>
    <g id="xtick_12">
     <g id="line2d_12">
      <g>
       <use xlink:href="#meb1b1b2221" x="159.91348" y="175.84125" style="fill: #cecece; stroke: #cecece; stroke-width: 0.75"/>
      </g>
     </g>
     <g id="text_12">
      <!-- 20 -->
      <g style="fill: #808080" transform="translate(155.40098 191.04875) scale(0.08 -0.08)">
       <use xlink:href="#Ubuntu-32"/>
       <use xlink:href="#Ubuntu-30" x="56.399994"/>
      </g>
     </g>
    </g>
    <g id="xtick_13">
     <g id="line2d_13">
      <g>
       <use xlink:href="#meb1b1b2221" x="189.089951" y="175.84125" style="fill: #cecece; stroke: #cecece; stroke-width: 0.75"/>
      </g>
     </g>
     <g id="text_13">
      <!-- 01 -->
      <g style="fill: #808080" transform="translate(184.577451 191.04875) scale(0.08 -0.08)">
       <use xlink:href="#Ubuntu-30"/>
       <use xlink:href="#Ubuntu-31" x="56.399994"/>
      </g>
     </g>
    </g>
    <g id="xtick_14">
     <g id="line2d_14">
      <g>
       <use xlink:href="#meb1b1b2221" x="210.972304" y="175.84125" style="fill: #cecece; stroke: #cecece; stroke-width: 0.75"/>
      </g>
     </g>
     <g id="text_14">
      <!-- 10 -->
      <g style="fill: #808080" transform="translate(206.459804 191.04875) scale(0.08 -0.08)">
       <use xlink:href="#Ubuntu-31"/>
       <use xlink:href="#Ubuntu-30" x="56.399994"/>
      </g>
     </g>
    </g>
    <g id="xtick_15">
     <g id="line2d_15">
      <g>
       <use xlink:href="#meb1b1b2221" x="235.286029" y="175.84125" style="fill: #cecece; stroke: #cecece; stroke-width: 0.75"/>
      </g>
     </g>
     <g id="text_15">
      <!-- 20 -->
      <g style="fill: #808080" transform="translate(230.773529 191.04875) scale(0.08 -0.08)">
       <use xlink:href="#Ubuntu-32"/>
       <use xlink:href="#Ubuntu-30" x="56.399994"/>
      </g>
     </g>
    </g>
    <g id="xtick_16">
     <g id="line2d_16">
      <g>
       <use xlink:href="#meb1b1b2221" x="262.031127" y="175.84125" style="fill: #cecece; stroke: #cecece; stroke-width: 0.75"/>
      </g>
     </g>
     <g id="text_16">
      <!-- 01 -->
      <g style="fill: #808080" transform="translate(257.518627 191.04875) scale(0.08 -0.08)">
       <use xlink:href="#Ubuntu-30"/>
       <use xlink:href="#Ubuntu-31" x="56.399994"/>
      </g>
     </g>
    </g>
    <g id="xtick_17">
     <g id="line2d_17">
      <g>
       <use xlink:href="#meb1b1b2221" x="283.91348" y="175.84125" style="fill: #cecece; stroke: #cecece; stroke-width: 0.75"/>
      </g>
     </g>
     <g id="text_17">
      <!-- 10 -->
      <g style="fill: #808080" transform="translate(279.40098 191.04875) scale(0.08 -0.08)">
       <use xlink:href="#Ubuntu-31"/>
       <use xlink:href="#Ubuntu-30" x="56.399994"/>
      </g>
     </g>
    </g>
    <g id="xtick_18">
     <g id="line2d_18">
      <g>
       <use xlink:href="#meb1b1b2221" x="308.227206" y="175.84125" style="fill: #cecece; stroke: #cecece; stroke-width: 0.75"/>
      </g>
     </g>
     <g id="text_18">
      <!-- 20 -->
      <g style="fill: #808080" transform="translate(303.714706 191.04875) scale(0.08 -0.08)">
       <use xlink:href="#Ubuntu-32"/>
       <use xlink:href="#Ubuntu-30" x="56.399994"/>
      </g>
     </g>
    </g>
    <g id="xtick_19">
     <g id="line2d_19">
      <g>
       <use xlink:href="#meb1b1b2221" x="337.403676" y="175.84125" style="fill: #cecece; stroke: #cecece; stroke-width: 0.75"/>
      </g>
     </g>
     <g id="text_19">
      <!-- 01 -->
      <g style="fill: #808080" transform="translate(332.891176 191.04875) scale(0.08 -0.08)">
       <use xlink:href="#Ubuntu-30"/>
       <use xlink:href="#Ubuntu-31" x="56.399994"/>
      </g>
     </g>
    </g>
    <g id="xtick_20">
     <g id="line2d_20">
      <g>
       <use xlink:href="#meb1b1b2221" x="359.286029" y="175.84125" style="fill: #cecece; stroke: #cecece; stroke-width: 0.75"/>
      </g>
     </g>
     <g id="text_20">
      <!-- 10 -->
      <g style="fill: #808080" transform="translate(354.773529 191.04875) scale(0.08 -0.08)">
       <use xlink:href="#Ubuntu-31"/>
       <use xlink:href="#Ubuntu-30" x="56.399994"/>
      </g>
     </g>
    </g>
    <g id="xtick_21">
     <g id="line2d_21">
      <g>
       <use xlink:href="#meb1b1b2221" x="383.599755" y="175.84125" style="fill: #cecece; stroke: #cecece; stroke-width: 0.75"/>
      </g>
     </g>
     <g id="text_21">
      <!-- 20 -->
      <g style="fill: #808080" transform="translate(379.087255 191.04875) scale(0.08 -0.08)">
       <use xlink:href="#Ubuntu-32"/>
       <use xlink:href="#Ubuntu-30" x="56.399994"/>
      </g>
     </g>
    </g>
    <g id="xtick_22">
     <g id="line2d_22">
      <g>
       <use xlink:href="#meb1b1b2221" x="410.344853" y="175.84125" style="fill: #cecece; stroke: #cecece; stroke-width: 0.75"/>
      </g>
     </g>
     <g id="text_22">
      <!-- 01 -->
      <g style="fill: #808080" transform="translate(405.832353 191.04875) scale(0.08 -0.08)">
       <use xlink:href="#Ubuntu-30"/>
       <use xlink:href="#Ubuntu-31" x="56.399994"/>
      </g>
     </g>
    </g>
    <g id="xtick_23">
     <g id="line2d_23">
      <g>
       <use xlink:href="#meb1b1b2221" x="432.227206" y="175.84125" style="fill: #cecece; stroke: #cecece; stroke-width: 0.75"/>
      </g>
     </g>
     <g id="text_23">
      <!-- 10 -->
      <g style="fill: #808080" transform="translate(427.714706 191.04875) scale(0.08 -0.08)">
       <use xlink:href="#Ubuntu-31"/>
       <use xlink:href="#Ubuntu-30" x="56.399994"/>
      </g>
     </g>
    </g>
    <g id="xtick_24">
     <g id="line2d_24">
      <g>
       <use xlink:href="#meb1b1b2221" x="456.540931" y="175.84125" style="fill: #cecece; stroke: #cecece; stroke-width: 0.75"/>
      </g>
     </g>
     <g id="text_24">
      <!-- 20 -->
      <g style="fill: #808080" transform="translate(452.028431 191.04875) scale(0.08 -0.08)">
       <use xlink:href="#Ubuntu-32"/>
       <use xlink:href="#Ubuntu-30" x="56.399994"/>
      </g>
     </g>
    </g>
    <g id="xtick_25">
     <g id="line2d_25">
      <g>
       <use xlink:href="#meb1b1b2221" x="485.717402" y="175.84125" style="fill: #cecece; stroke: #cecece; stroke-width: 0.75"/>
      </g>
     </g>
     <g id="text_25">
      <!-- 31 -->
      <g style="fill: #808080" transform="translate(481.204902 191.04875) scale(0.08 -0.08)">
       <defs>
        <path id="Ubuntu-33" d="M 1446 435 
Q 2016 435 2262 659 
Q 2509 883 2509 1261 
Q 2509 1504 2406 1670 
Q 2304 1837 2137 1936 
Q 1971 2035 1750 2076 
Q 1530 2118 1299 2118 
L 1146 2118 
L 1146 2605 
L 1357 2605 
Q 1517 2605 1686 2637 
Q 1856 2669 1997 2752 
Q 2138 2835 2227 2979 
Q 2317 3123 2317 3341 
Q 2317 3520 2253 3648 
Q 2189 3776 2083 3859 
Q 1978 3942 1840 3977 
Q 1702 4013 1549 4013 
Q 1242 4013 1027 3923 
Q 813 3834 666 3738 
L 435 4192 
Q 512 4243 630 4304 
Q 749 4365 896 4416 
Q 1043 4467 1212 4502 
Q 1382 4538 1568 4538 
Q 1920 4538 2176 4451 
Q 2432 4365 2598 4208 
Q 2765 4051 2848 3836 
Q 2931 3622 2931 3373 
Q 2931 3027 2732 2780 
Q 2534 2534 2253 2406 
Q 2426 2355 2586 2259 
Q 2746 2163 2864 2016 
Q 2982 1869 3056 1677 
Q 3130 1485 3130 1248 
Q 3130 960 3030 713 
Q 2931 467 2723 288 
Q 2515 109 2201 6 
Q 1888 -96 1459 -96 
Q 1293 -96 1117 -70 
Q 941 -45 787 -6 
Q 634 32 518 70 
Q 403 109 352 134 
L 467 653 
Q 576 602 829 518 
Q 1082 435 1446 435 
z
" transform="scale(0.015625)"/>
       </defs>
       <use xlink:href="#Ubuntu-33"/>
       <use xlink:href="#Ubuntu-31" x="56.399994"/>
      </g>
     </g>
    </g>
   </g>
   <g id="matplotlib.axis_4">
    <g id="ytick_1">
     <g id="line2d_26">
      <defs>
       <path id="m5c24c8c271" d="M 0 0 
L -3 0 
" style="stroke: #cecece; stroke-width: 0.75"/>
      </defs>
      <g>
       <use xlink:href="#m5c24c8c271" x="38.7625" y="170.84125" style="fill: #cecece; stroke: #cecece; stroke-width: 0.75"/>
      </g>
     </g>
     <g id="text_26">
      <!-- 25000 -->
      <g style="fill: #808080" transform="translate(7.2 173.945) scale(0.08 -0.08)">
       <defs>
        <path id="Ubuntu-35" d="M 1274 2726 
Q 2240 2688 2691 2304 
Q 3142 1920 3142 1261 
Q 3142 966 3043 716 
Q 2944 467 2742 288 
Q 2541 109 2233 6 
Q 1926 -96 1504 -96 
Q 1338 -96 1165 -70 
Q 992 -45 845 -6 
Q 698 32 582 70 
Q 467 109 416 134 
L 531 653 
Q 640 602 886 518 
Q 1133 435 1491 435 
Q 1779 435 1974 499 
Q 2170 563 2291 672 
Q 2413 781 2467 925 
Q 2522 1069 2522 1229 
Q 2522 1472 2438 1661 
Q 2355 1850 2144 1978 
Q 1933 2106 1581 2173 
Q 1229 2240 691 2240 
Q 730 2554 752 2829 
Q 774 3104 793 3366 
Q 813 3629 825 3888 
Q 838 4147 851 4435 
L 2989 4435 
L 2989 3930 
L 1370 3930 
Q 1363 3834 1350 3670 
Q 1338 3507 1325 3331 
Q 1312 3155 1299 2988 
Q 1286 2822 1274 2726 
z
" transform="scale(0.015625)"/>
       </defs>
       <use xlink:href="#Ubuntu-32"/>
       <use xlink:href="#Ubuntu-35" x="56.399994"/>
       <use xlink:href="#Ubuntu-30" x="112.799988"/>
       <use xlink:href="#Ubuntu-30" x="169.199982"/>
       <use xlink:href="#Ubuntu-30" x="225.599976"/>
      </g>
     </g>
    </g>
    <g id="ytick_2">
     <g id="line2d_27">
      <g>
       <use xlink:href="#m5c24c8c271" x="38.7625" y="147.927343" style="fill: #cecece; stroke: #cecece; stroke-width: 0.75"/>
      </g>
     </g>
     <g id="text_27">
      <!-- 27500 -->
      <g style="fill: #808080" transform="translate(7.2 151.031093) scale(0.08 -0.08)">
       <defs>
        <path id="Ubuntu-37" d="M 1043 0 
Q 1082 512 1226 1078 
Q 1370 1645 1581 2179 
Q 1792 2714 2045 3171 
Q 2298 3629 2541 3917 
L 384 3917 
L 384 4435 
L 3206 4435 
L 3206 3942 
Q 2995 3699 2739 3273 
Q 2483 2848 2256 2320 
Q 2029 1792 1865 1193 
Q 1702 595 1664 0 
L 1043 0 
z
" transform="scale(0.015625)"/>
       </defs>
       <use xlink:href="#Ubuntu-32"/>
       <use xlink:href="#Ubuntu-37" x="56.399994"/>
       <use xlink:href="#Ubuntu-35" x="112.799988"/>
       <use xlink:href="#Ubuntu-30" x="169.199982"/>
       <use xlink:href="#Ubuntu-30" x="225.599976"/>
      </g>
     </g>
    </g>
    <g id="ytick_3">
     <g id="line2d_28">
      <g>
       <use xlink:href="#m5c24c8c271" x="38.7625" y="125.013436" style="fill: #cecece; stroke: #cecece; stroke-width: 0.75"/>
      </g>
     </g>
     <g id="text_28">
      <!-- 30000 -->
      <g style="fill: #808080" transform="translate(7.2 128.117186) scale(0.08 -0.08)">
       <use xlink:href="#Ubuntu-33"/>
       <use xlink:href="#Ubuntu-30" x="56.399994"/>
       <use xlink:href="#Ubuntu-30" x="112.799988"/>
       <use xlink:href="#Ubuntu-30" x="169.199982"/>
       <use xlink:href="#Ubuntu-30" x="225.599976"/>
      </g>
     </g>
    </g>
    <g id="ytick_4">
     <g id="line2d_29">
      <g>
       <use xlink:href="#m5c24c8c271" x="38.7625" y="102.099528" style="fill: #cecece; stroke: #cecece; stroke-width: 0.75"/>
      </g>
     </g>
     <g id="text_29">
      <!-- 32500 -->
      <g style="fill: #808080" transform="translate(7.2 105.203278) scale(0.08 -0.08)">
       <use xlink:href="#Ubuntu-33"/>
       <use xlink:href="#Ubuntu-32" x="56.399994"/>
       <use xlink:href="#Ubuntu-35" x="112.799988"/>
       <use xlink:href="#Ubuntu-30" x="169.199982"/>
       <use xlink:href="#Ubuntu-30" x="225.599976"/>
      </g>
     </g>
    </g>
    <g id="ytick_5">
     <g id="line2d_30">
      <g>
       <use xlink:href="#m5c24c8c271" x="38.7625" y="79.185621" style="fill: #cecece; stroke: #cecece; stroke-width: 0.75"/>
      </g>
     </g>
     <g id="text_30">
      <!-- 35000 -->
      <g style="fill: #808080" transform="translate(7.2 82.289371) scale(0.08 -0.08)">
       <use xlink:href="#Ubuntu-33"/>
       <use xlink:href="#Ubuntu-35" x="56.399994"/>
       <use xlink:href="#Ubuntu-30" x="112.799988"/>
       <use xlink:href="#Ubuntu-30" x="169.199982"/>
       <use xlink:href="#Ubuntu-30" x="225.599976"/>
      </g>
     </g>
    </g>
    <g id="ytick_6">
     <g id="line2d_31">
      <g>
       <use xlink:href="#m5c24c8c271" x="38.7625" y="56.271714" style="fill: #cecece; stroke: #cecece; stroke-width: 0.75"/>
      </g>
     </g>
     <g id="text_31">
      <!-- 37500 -->
      <g style="fill: #808080" transform="translate(7.2 59.375464) scale(0.08 -0.08)">
       <use xlink:href="#Ubuntu-33"/>
       <use xlink:href="#Ubuntu-37" x="56.399994"/>
       <use xlink:href="#Ubuntu-35" x="112.799988"/>
       <use xlink:href="#Ubuntu-30" x="169.199982"/>
       <use xlink:href="#Ubuntu-30" x="225.599976"/>
      </g>
     </g>
    </g>
    <g id="ytick_7">
     <g id="line2d_32">
      <g>
       <use xlink:href="#m5c24c8c271" x="38.7625" y="33.357807" style="fill: #cecece; stroke: #cecece; stroke-width: 0.75"/>
      </g>
     </g>
     <g id="text_32">
      <!-- 40000 -->
      <g style="fill: #808080" transform="translate(7.2 36.461557) scale(0.08 -0.08)">
       <defs>
        <path id="Ubuntu-34" d="M 256 1536 
Q 378 1818 589 2192 
Q 800 2566 1065 2963 
Q 1331 3360 1635 3744 
Q 1939 4128 2246 4435 
L 2816 4435 
L 2816 1619 
L 3341 1619 
L 3341 1133 
L 2816 1133 
L 2816 0 
L 2240 0 
L 2240 1133 
L 256 1133 
L 256 1536 
z
M 2240 3731 
Q 2048 3526 1853 3273 
Q 1658 3021 1472 2745 
Q 1286 2470 1123 2182 
Q 960 1894 832 1619 
L 2240 1619 
L 2240 3731 
z
" transform="scale(0.015625)"/>
       </defs>
       <use xlink:href="#Ubuntu-34"/>
       <use xlink:href="#Ubuntu-30" x="56.399994"/>
       <use xlink:href="#Ubuntu-30" x="112.799988"/>
       <use xlink:href="#Ubuntu-30" x="169.199982"/>
       <use xlink:href="#Ubuntu-30" x="225.599976"/>
      </g>
     </g>
    </g>
   </g>
   <g id="PolyCollection_1">
    <defs>
     <path id="md41e324377" d="M 45.638971 -115.131037 
L 45.638971 -93.210157 
L 48.070343 -98.015368 
L 50.501716 -89.53998 
L 52.933088 -87.31469 
L 55.364461 -66.461238 
L 57.795833 -86.322692 
L 60.227206 -87.297864 
L 62.658578 -87.792843 
L 65.089951 -88.484503 
L 67.521324 -88.145795 
L 69.952696 -90.57764 
L 72.384069 -81.222863 
L 74.815441 -102.06943 
L 77.246814 -80.90232 
L 79.678186 -90.172617 
L 82.109559 -94.455683 
L 84.540931 -97.048984 
L 86.972304 -95.015743 
L 89.403676 -81.567552 
L 91.835049 -99.891745 
L 94.266422 -97.517107 
L 96.697794 -99.374289 
L 99.129167 -105.005207 
L 101.560539 -93.122627 
L 103.991912 -86.789194 
L 106.423284 -82.178751 
L 108.854657 -93.669241 
L 111.286029 -92.967405 
L 111.286029 -114.462806 
L 111.286029 -114.462806 
L 108.854657 -114.132913 
L 106.423284 -102.411964 
L 103.991912 -107.697989 
L 101.560539 -113.14344 
L 99.129167 -126.434807 
L 96.697794 -116.993103 
L 94.266422 -120.223439 
L 91.835049 -122.310702 
L 89.403676 -103.410282 
L 86.972304 -114.771532 
L 84.540931 -116.82889 
L 82.109559 -113.944165 
L 79.678186 -110.168982 
L 77.246814 -96.207674 
L 74.815441 -123.405191 
L 72.384069 -101.735897 
L 69.952696 -110.752413 
L 67.521324 -109.011082 
L 65.089951 -108.652635 
L 62.658578 -107.235235 
L 60.227206 -108.891483 
L 57.795833 -106.783909 
L 55.364461 -85.282916 
L 52.933088 -107.881368 
L 50.501716 -107.81385 
L 48.070343 -119.648737 
L 45.638971 -115.131037 
z
" style="stroke: #5b5b5b; stroke-opacity: 0.2"/>
    </defs>
    <g clip-path="url(#p91fea03d63)">
     <use xlink:href="#md41e324377" x="0" y="216.7525" style="fill: #5b5b5b; fill-opacity: 0.2; stroke: #5b5b5b; stroke-opacity: 0.2"/>
    </g>
   </g>
   <g id="PolyCollection_2">
    <defs>
     <path id="m9bb8ebf48e" d="M 113.717402 -112.498148 
L 113.717402 -92.623678 
L 116.148775 -90.621012 
L 118.580147 -91.480303 
L 121.01152 -89.835582 
L 123.442892 -77.866907 
L 125.874265 -99.513782 
L 128.305637 -93.060407 
L 130.73701 -104.494798 
L 133.168382 -93.366927 
L 135.599755 -90.884229 
L 138.031127 -90.212316 
L 140.4625 -77.206031 
L 142.893873 -94.505738 
L 145.325245 -91.708467 
L 147.756618 -103.738658 
L 150.18799 -104.924936 
L 152.619363 -95.213983 
L 155.050735 -91.681126 
L 157.482108 -80.592414 
L 159.91348 -92.200151 
L 162.344853 -88.094076 
L 164.776225 -94.905006 
L 167.207598 -92.429933 
L 169.638971 -86.946957 
L 172.070343 -84.841393 
L 174.501716 -76.848749 
L 176.933088 -97.729696 
L 179.364461 -89.797135 
L 181.795833 -108.911536 
L 184.227206 -101.905799 
L 186.658578 -94.881273 
L 186.658578 -113.068012 
L 186.658578 -113.068012 
L 184.227206 -119.518813 
L 181.795833 -130.295165 
L 179.364461 -109.183685 
L 176.933088 -117.056046 
L 174.501716 -99.177894 
L 172.070343 -104.184417 
L 169.638971 -106.973283 
L 167.207598 -112.795755 
L 164.776225 -114.728168 
L 162.344853 -109.103145 
L 159.91348 -112.714221 
L 157.482108 -99.810201 
L 155.050735 -111.707218 
L 152.619363 -114.963528 
L 150.18799 -126.935118 
L 147.756618 -124.735266 
L 145.325245 -112.067522 
L 142.893873 -115.359851 
L 140.4625 -96.74042 
L 138.031127 -110.296092 
L 135.599755 -110.492372 
L 133.168382 -111.795422 
L 130.73701 -127.211645 
L 128.305637 -111.82796 
L 125.874265 -120.269307 
L 123.442892 -97.209345 
L 121.01152 -110.164147 
L 118.580147 -112.117933 
L 116.148775 -110.326572 
L 113.717402 -112.498148 
z
" style="stroke: #b45f58; stroke-opacity: 0.2"/>
    </defs>
    <g clip-path="url(#p91fea03d63)">
     <use xlink:href="#m9bb8ebf48e" x="0" y="216.7525" style="fill: #b45f58; fill-opacity: 0.2; stroke: #b45f58; stroke-opacity: 0.2"/>
    </g>
   </g>
   <g id="PolyCollection_3">
    <defs>
     <path id="m5a61a4030e" d="M 189.089951 -123.692723 
L 189.089951 -103.833148 
L 191.521324 -73.465537 
L 193.952696 -97.873736 
L 196.384069 -96.989403 
L 198.815441 -97.929341 
L 201.246814 -99.022559 
L 203.678186 -97.287584 
L 206.109559 -93.584391 
L 208.540931 -80.206606 
L 210.972304 -93.784494 
L 213.403676 -96.525501 
L 215.835049 -97.420085 
L 218.266422 -97.784488 
L 220.697794 -94.779071 
L 223.129167 -92.471264 
L 225.560539 -76.126569 
L 227.991912 -101.355605 
L 230.423284 -102.697664 
L 232.854657 -103.559365 
L 235.286029 -70.317348 
L 237.717402 -103.33806 
L 240.148775 -94.902091 
L 242.580147 -75.332845 
L 245.01152 -96.057584 
L 247.442892 -98.48705 
L 249.874265 -98.366921 
L 252.305637 -97.596796 
L 254.73701 -96.678622 
L 257.168382 -94.672439 
L 259.599755 -72.376245 
L 259.599755 -90.417073 
L 259.599755 -90.417073 
L 257.168382 -114.292505 
L 254.73701 -115.861543 
L 252.305637 -116.618052 
L 249.874265 -117.848211 
L 247.442892 -118.875287 
L 245.01152 -114.941277 
L 242.580147 -96.318511 
L 240.148775 -113.853101 
L 237.717402 -126.956255 
L 235.286029 -85.14866 
L 232.854657 -121.64676 
L 230.423284 -121.043451 
L 227.991912 -120.147968 
L 225.560539 -94.207452 
L 223.129167 -110.232408 
L 220.697794 -111.890349 
L 218.266422 -116.186403 
L 215.835049 -114.834181 
L 213.403676 -115.192763 
L 210.972304 -112.193621 
L 208.540931 -98.359876 
L 206.109559 -112.92364 
L 203.678186 -115.958073 
L 201.246814 -118.949835 
L 198.815441 -116.879207 
L 196.384069 -115.553604 
L 193.952696 -117.678318 
L 191.521324 -92.469133 
L 189.089951 -123.692723 
z
" style="stroke: #5980a1; stroke-opacity: 0.2"/>
    </defs>
    <g clip-path="url(#p91fea03d63)">
     <use xlink:href="#m5a61a4030e" x="0" y="216.7525" style="fill: #5980a1; fill-opacity: 0.2; stroke: #5980a1; stroke-opacity: 0.2"/>
    </g>
   </g>
   <g id="PolyCollection_4">
    <defs>
     <path id="m2e8d74988e" d="M 262.031127 -96.413041 
L 262.031127 -75.727617 
L 264.4625 -100.486898 
L 266.893873 -87.004145 
L 269.325245 -101.363627 
L 271.756618 -98.53857 
L 274.18799 -99.047494 
L 276.619363 -76.935689 
L 279.050735 -104.664011 
L 281.482108 -101.397244 
L 283.91348 -108.371826 
L 286.344853 -107.422554 
L 288.776225 -104.071805 
L 291.207598 -101.005759 
L 293.638971 -82.683608 
L 296.070343 -107.095219 
L 298.501716 -106.055553 
L 300.933088 -106.156324 
L 303.364461 -107.068453 
L 305.795833 -102.32538 
L 308.227206 -101.817016 
L 310.658578 -96.258318 
L 313.089951 -111.069687 
L 315.521324 -113.38574 
L 317.952696 -110.291286 
L 320.384069 -113.849868 
L 322.815441 -116.248961 
L 325.246814 -117.580863 
L 327.678186 -103.901175 
L 330.109559 -120.09948 
L 332.540931 -118.00921 
L 334.972304 -118.344179 
L 334.972304 -138.011594 
L 334.972304 -138.011594 
L 332.540931 -138.284437 
L 330.109559 -139.3462 
L 327.678186 -127.280974 
L 325.246814 -138.002839 
L 322.815441 -137.875863 
L 320.384069 -135.934627 
L 317.952696 -130.846608 
L 315.521324 -134.83484 
L 313.089951 -134.084846 
L 310.658578 -114.673226 
L 308.227206 -120.774065 
L 305.795833 -120.613633 
L 303.364461 -126.686003 
L 300.933088 -126.011698 
L 298.501716 -126.499406 
L 296.070343 -126.044875 
L 293.638971 -103.431057 
L 291.207598 -119.393461 
L 288.776225 -123.372758 
L 286.344853 -126.692805 
L 283.91348 -128.075443 
L 281.482108 -121.879021 
L 279.050735 -124.318183 
L 276.619363 -97.734424 
L 274.18799 -117.80885 
L 271.756618 -117.495779 
L 269.325245 -121.76639 
L 266.893873 -106.689309 
L 264.4625 -118.427661 
L 262.031127 -96.413041 
z
" style="stroke: #4e9a73; stroke-opacity: 0.2"/>
    </defs>
    <g clip-path="url(#p91fea03d63)">
     <use xlink:href="#m2e8d74988e" x="0" y="216.7525" style="fill: #4e9a73; fill-opacity: 0.2; stroke: #4e9a73; stroke-opacity: 0.2"/>
    </g>
   </g>
   <g id="PolyCollection_5">
    <defs>
     <path id="mb6b0ddd64f" d="M 337.403676 -141.00791 
L 337.403676 -121.401982 
L 339.835049 -126.048356 
L 342.266422 -136.505778 
L 344.697794 -101.259029 
L 347.129167 -121.408234 
L 349.560539 -120.470514 
L 351.991912 -120.586085 
L 354.423284 -126.146587 
L 356.854657 -125.737192 
L 359.286029 -132.095685 
L 361.717402 -109.326586 
L 364.148775 -131.06117 
L 366.580147 -130.223361 
L 369.01152 -127.83728 
L 371.442892 -130.909928 
L 373.874265 -130.731008 
L 376.305637 -130.06093 
L 378.73701 -115.93095 
L 381.168382 -139.237702 
L 383.599755 -145.409626 
L 386.031127 -148.994211 
L 388.4625 -141.723836 
L 390.893873 -144.130555 
L 393.325245 -140.834877 
L 395.756618 -130.105827 
L 398.18799 -96.223564 
L 400.619363 -74.486481 
L 403.050735 -102.124133 
L 405.482108 -101.281012 
L 407.91348 -101.92329 
L 407.91348 -120.476513 
L 407.91348 -120.476513 
L 405.482108 -121.618708 
L 403.050735 -120.212209 
L 400.619363 -92.334806 
L 398.18799 -111.123724 
L 395.756618 -153.554777 
L 393.325245 -164.174184 
L 390.893873 -166.554054 
L 388.4625 -162.624981 
L 386.031127 -169.607259 
L 383.599755 -166.881222 
L 381.168382 -160.374057 
L 378.73701 -138.228398 
L 376.305637 -151.370722 
L 373.874265 -151.92705 
L 371.442892 -153.590994 
L 369.01152 -149.031642 
L 366.580147 -150.657306 
L 364.148775 -153.068982 
L 361.717402 -131.125936 
L 359.286029 -153.096782 
L 356.854657 -147.838763 
L 354.423284 -147.028491 
L 351.991912 -142.107191 
L 349.560539 -141.300136 
L 347.129167 -143.040055 
L 344.697794 -122.866408 
L 342.266422 -156.598775 
L 339.835049 -146.67585 
L 337.403676 -141.00791 
z
" style="stroke: #746590; stroke-opacity: 0.2"/>
    </defs>
    <g clip-path="url(#p91fea03d63)">
     <use xlink:href="#mb6b0ddd64f" x="0" y="216.7525" style="fill: #746590; fill-opacity: 0.2; stroke: #746590; stroke-opacity: 0.2"/>
    </g>
   </g>
   <g id="PolyCollection_6">
    <defs>
     <path id="m2df9e16b00" d="M 410.344853 -122.448004 
L 410.344853 -101.840327 
L 412.776225 -96.947895 
L 415.207598 -116.854381 
L 417.638971 -109.46843 
L 420.070343 -130.94378 
L 422.501716 -136.544274 
L 424.933088 -116.441281 
L 427.364461 -125.252118 
L 429.795833 -105.489144 
L 432.227206 -135.019025 
L 434.658578 -141.256987 
L 437.089951 -145.139248 
L 439.521324 -143.846213 
L 441.952696 -123.525947 
L 444.384069 -132.616856 
L 446.815441 -128.227383 
L 449.246814 -144.151975 
L 451.678186 -148.478507 
L 454.109559 -153.280511 
L 456.540931 -142.976225 
L 458.972304 -133.145413 
L 461.403676 -130.356758 
L 463.835049 -115.361917 
L 466.266422 -154.928657 
L 468.697794 -158.94428 
L 471.129167 -156.664308 
L 473.560539 -157.896331 
L 475.991912 -154.145981 
L 478.423284 -154.102549 
L 480.854657 -135.304781 
L 483.286029 -160.561896 
L 483.286029 -180.827757 
L 483.286029 -180.827757 
L 480.854657 -154.409945 
L 478.423284 -175.233404 
L 475.991912 -174.804054 
L 473.560539 -178.390773 
L 471.129167 -177.576976 
L 468.697794 -179.727311 
L 466.266422 -175.616886 
L 463.835049 -136.034758 
L 461.403676 -150.95734 
L 458.972304 -151.178876 
L 456.540931 -163.127878 
L 454.109559 -174.65036 
L 451.678186 -168.293002 
L 449.246814 -165.213393 
L 446.815441 -146.703971 
L 444.384069 -152.740575 
L 441.952696 -142.129512 
L 439.521324 -162.681678 
L 437.089951 -164.641616 
L 434.658578 -161.358589 
L 432.227206 -154.911615 
L 429.795833 -124.513199 
L 427.364461 -144.310338 
L 424.933088 -136.509439 
L 422.501716 -157.058925 
L 420.070343 -151.963024 
L 417.638971 -130.76056 
L 415.207598 -138.008237 
L 412.776225 -116.188147 
L 410.344853 -122.448004 
z
" style="stroke: #d37f53; stroke-opacity: 0.2"/>
    </defs>
    <g clip-path="url(#p91fea03d63)">
     <use xlink:href="#m2df9e16b00" x="0" y="216.7525" style="fill: #d37f53; fill-opacity: 0.2; stroke: #d37f53; stroke-opacity: 0.2"/>
    </g>
   </g>
   <g id="line2d_33">
    <path d="M 45.638971 112.418166 
L 48.070343 107.773633 
L 50.501716 118.267426 
L 52.933088 118.903578 
L 55.364461 140.961127 
L 57.795833 120.058206 
L 60.227206 118.488798 
L 62.658578 119.179322 
L 65.089951 118.468991 
L 67.521324 118.515207 
L 69.952696 115.365127 
L 72.384069 125.219272 
L 74.815441 103.469702 
L 77.246814 127.966223 
L 79.678186 116.589662 
L 82.109559 112.566912 
L 84.540931 109.878606 
L 86.972304 111.884932 
L 89.403676 124.545448 
L 91.835049 105.396801 
L 94.266422 107.287004 
L 96.697794 108.670771 
L 99.129167 101.087433 
L 101.560539 113.465215 
L 103.991912 119.204566 
L 106.423284 124.940033 
L 108.854657 112.620507 
L 111.286029 114.203897 
" clip-path="url(#p91fea03d63)" style="fill: none; stroke: #5b5b5b; stroke-width: 1.2; stroke-linecap: square"/>
   </g>
   <g id="line2d_34">
    <path d="M 113.717402 114.519841 
L 116.148775 115.921977 
L 118.580147 115.115018 
L 121.01152 115.865034 
L 123.442892 129.421096 
L 125.874265 106.767335 
L 128.305637 114.707833 
L 130.73701 100.853012 
L 133.168382 114.127087 
L 135.599755 116.471911 
L 138.031127 116.402487 
L 140.4625 129.930078 
L 142.893873 111.440602 
L 145.325245 115.130229 
L 147.756618 102.2844 
L 150.18799 101.179852 
L 152.619363 111.793184 
L 155.050735 114.895434 
L 157.482108 126.558711 
L 159.91348 114.622418 
L 162.344853 118.321405 
L 164.776225 111.939053 
L 167.207598 114.17701 
L 169.638971 119.913482 
L 172.070343 122.531323 
L 174.501716 129.244415 
L 176.933088 109.342273 
L 179.364461 117.336984 
L 181.795833 97.104102 
L 184.227206 106.211161 
L 186.658578 113.067782 
" clip-path="url(#p91fea03d63)" style="fill: none; stroke: #b45f58; stroke-width: 1.2; stroke-linecap: square"/>
   </g>
   <g id="line2d_35">
    <path d="M 189.089951 102.827446 
L 191.521324 134.060211 
L 193.952696 109.647651 
L 196.384069 110.492974 
L 198.815441 109.798404 
L 201.246814 107.470805 
L 203.678186 110.369451 
L 206.109559 113.408195 
L 208.540931 127.613338 
L 210.972304 113.640245 
L 213.403676 111.161498 
L 215.835049 110.933789 
L 218.266422 110.311439 
L 220.697794 113.244419 
L 223.129167 115.32734 
L 225.560539 131.985183 
L 227.991912 105.840144 
L 230.423284 105.28212 
L 232.854657 104.933256 
L 235.286029 139.373673 
L 237.717402 101.817557 
L 240.148775 111.927103 
L 242.580147 130.657607 
L 245.01152 111.796082 
L 247.442892 108.228912 
L 249.874265 108.61211 
L 252.305637 109.718686 
L 254.73701 110.804741 
L 257.168382 112.272021 
L 259.599755 135.199148 
" clip-path="url(#p91fea03d63)" style="fill: none; stroke: #5980a1; stroke-width: 1.2; stroke-linecap: square"/>
   </g>
   <g id="line2d_36">
    <path d="M 262.031127 130.820095 
L 264.4625 107.284132 
L 266.893873 119.929603 
L 269.325245 105.713465 
L 271.756618 108.586343 
L 274.18799 108.630418 
L 276.619363 129.60363 
L 279.050735 102.108944 
L 281.482108 105.033911 
L 283.91348 98.968412 
L 286.344853 99.767369 
L 288.776225 103.330218 
L 291.207598 106.792898 
L 293.638971 123.798573 
L 296.070343 100.933348 
L 298.501716 100.264212 
L 300.933088 100.712173 
L 303.364461 100.087913 
L 305.795833 105.329613 
L 308.227206 105.852902 
L 310.658578 111.200381 
L 313.089951 94.868651 
L 315.521324 92.957405 
L 317.952696 95.962508 
L 320.384069 91.917239 
L 322.815441 89.492322 
L 325.246814 88.648489 
L 327.678186 101.726695 
L 330.109559 86.847831 
L 332.540931 89.019519 
L 334.972304 88.443341 
" clip-path="url(#p91fea03d63)" style="fill: none; stroke: #4e9a73; stroke-width: 1.2; stroke-linecap: square"/>
   </g>
   <g id="line2d_37">
    <path d="M 337.403676 85.138179 
L 339.835049 80.047548 
L 342.266422 70.245859 
L 344.697794 104.531134 
L 347.129167 84.226074 
L 349.560539 85.784017 
L 351.991912 85.30328 
L 354.423284 80.238548 
L 356.854657 80.087205 
L 359.286029 74.109559 
L 361.717402 96.635396 
L 364.148775 74.362876 
L 366.580147 76.429883 
L 369.01152 78.205533 
L 371.442892 74.300558 
L 373.874265 75.607612 
L 376.305637 76.106154 
L 378.73701 89.497992 
L 381.168382 67.188243 
L 383.599755 60.56314 
L 386.031127 57.816304 
L 388.4625 64.161382 
L 390.893873 61.474436 
L 393.325245 64.105539 
L 395.756618 75.045943 
L 398.18799 113.174685 
L 400.619363 133.228855 
L 403.050735 105.926404 
L 405.482108 105.325078 
L 407.91348 105.164428 
" clip-path="url(#p91fea03d63)" style="fill: none; stroke: #746590; stroke-width: 1.2; stroke-linecap: square"/>
   </g>
   <g id="line2d_38">
    <path d="M 410.344853 104.623459 
L 412.776225 110.313619 
L 415.207598 89.515606 
L 417.638971 96.74615 
L 420.070343 75.71103 
L 422.501716 69.607963 
L 424.933088 89.896845 
L 427.364461 82.275319 
L 429.795833 101.720523 
L 432.227206 71.351349 
L 434.658578 65.303498 
L 437.089951 61.525622 
L 439.521324 62.972218 
L 441.952696 83.691871 
L 444.384069 74.335892 
L 446.815441 79.530726 
L 449.246814 61.981971 
L 451.678186 58.640956 
L 454.109559 53.100612 
L 456.540931 63.35914 
L 458.972304 74.71307 
L 461.403676 76.715487 
L 463.835049 90.9147 
L 466.266422 51.29186 
L 468.697794 47.56514 
L 471.129167 50.13434 
L 473.560539 48.732404 
L 475.991912 52.48795 
L 478.423284 51.681219 
L 480.854657 71.725279 
L 483.286029 46.317081 
" clip-path="url(#p91fea03d63)" style="fill: none; stroke: #d37f53; stroke-width: 1.2; stroke-linecap: square"/>
   </g>
   <g id="line2d_39"/>
   <g id="line2d_40"/>
   <g id="line2d_41"/>
   <g id="line2d_42"/>
   <g id="line2d_43"/>
   <g id="line2d_44"/>
   <g id="patch_4">
    <path d="M 38.7625 170.84125 
L 38.7625 33.357807 
" style="fill: none; stroke: #cccccc; stroke-width: 0.75; stroke-linejoin: miter; stroke-linecap: square"/>
   </g>
   <g id="patch_5">
    <path d="M 45.638971 175.84125 
L 485.717402 175.84125 
" style="fill: none; stroke: #cccccc; stroke-width: 0.75; stroke-linejoin: miter; stroke-linecap: square"/>
   </g>
   <g id="legend_1">
    <g id="line2d_45">
     <defs>
      <path id="me31b9a387c" d="M 0 1.5 
C 0.397805 1.5 0.77937 1.341951 1.06066 1.06066 
C 1.341951 0.77937 1.5 0.397805 1.5 0 
C 1.5 -0.397805 1.341951 -0.77937 1.06066 -1.06066 
C 0.77937 -1.341951 0.397805 -1.5 0 -1.5 
C -0.397805 -1.5 -0.77937 -1.341951 -1.06066 -1.06066 
C -1.341951 -0.77937 -1.5 -0.397805 -1.5 0 
C -1.5 0.397805 -1.341951 0.77937 -1.06066 1.06066 
C -0.77937 1.341951 -0.397805 1.5 0 1.5 
z
" style="stroke: #5b5b5b"/>
     </defs>
     <g>
      <use xlink:href="#me31b9a387c" x="56.4625" y="13.8075" style="fill: #5b5b5b; stroke: #5b5b5b"/>
     </g>
    </g>
    <g id="text_33">
     <!-- February -->
     <g style="fill: #4b4b4b" transform="translate(64.4625 16.6075) scale(0.08 -0.08)">
      <use xlink:href="#Ubuntu-46"/>
      <use xlink:href="#Ubuntu-65" x="52.324997"/>
      <use xlink:href="#Ubuntu-62" x="108.224991"/>
      <use xlink:href="#Ubuntu-72" x="167.124985"/>
      <use xlink:href="#Ubuntu-75" x="205.724976"/>
      <use xlink:href="#Ubuntu-61" x="263.124969"/>
      <use xlink:href="#Ubuntu-72" x="315.324966"/>
      <use xlink:href="#Ubuntu-79" x="356.049957"/>
     </g>
    </g>
    <g id="line2d_46">
     <defs>
      <path id="mb5843c33e3" d="M 0 1.5 
C 0.397805 1.5 0.77937 1.341951 1.06066 1.06066 
C 1.341951 0.77937 1.5 0.397805 1.5 0 
C 1.5 -0.397805 1.341951 -0.77937 1.06066 -1.06066 
C 0.77937 -1.341951 0.397805 -1.5 0 -1.5 
C -0.397805 -1.5 -0.77937 -1.341951 -1.06066 -1.06066 
C -1.341951 -0.77937 -1.5 -0.397805 -1.5 0 
C -1.5 0.397805 -1.341951 0.77937 -1.06066 1.06066 
C -0.77937 1.341951 -0.397805 1.5 0 1.5 
z
" style="stroke: #b45f58"/>
     </defs>
     <g>
      <use xlink:href="#mb5843c33e3" x="120.92375" y="13.8075" style="fill: #b45f58; stroke: #b45f58"/>
     </g>
    </g>
    <g id="text_34">
     <!-- March -->
     <g style="fill: #4b4b4b" transform="translate(128.92375 16.6075) scale(0.08 -0.08)">
      <use xlink:href="#Ubuntu-4d"/>
      <use xlink:href="#Ubuntu-61" x="87.099991"/>
      <use xlink:href="#Ubuntu-72" x="139.299988"/>
      <use xlink:href="#Ubuntu-63" x="177.899979"/>
      <use xlink:href="#Ubuntu-68" x="224.399963"/>
     </g>
    </g>
    <g id="line2d_47">
     <defs>
      <path id="mb60249d0be" d="M 0 1.5 
C 0.397805 1.5 0.77937 1.341951 1.06066 1.06066 
C 1.341951 0.77937 1.5 0.397805 1.5 0 
C 1.5 -0.397805 1.341951 -0.77937 1.06066 -1.06066 
C 0.77937 -1.341951 0.397805 -1.5 0 -1.5 
C -0.397805 -1.5 -0.77937 -1.341951 -1.06066 -1.06066 
C -1.341951 -0.77937 -1.5 -0.397805 -1.5 0 
C -1.5 0.397805 -1.341951 0.77937 -1.06066 1.06066 
C -0.77937 1.341951 -0.397805 1.5 0 1.5 
z
" style="stroke: #5980a1"/>
     </defs>
     <g>
      <use xlink:href="#mb60249d0be" x="175.4425" y="13.8075" style="fill: #5980a1; stroke: #5980a1"/>
     </g>
    </g>
    <g id="text_35">
     <!-- April -->
     <g style="fill: #4b4b4b" transform="translate(183.4425 16.6075) scale(0.08 -0.08)">
      <use xlink:href="#Ubuntu-41"/>
      <use xlink:href="#Ubuntu-70" x="66.299988"/>
      <use xlink:href="#Ubuntu-72" x="125.199982"/>
      <use xlink:href="#Ubuntu-69" x="163.799973"/>
      <use xlink:href="#Ubuntu-6c" x="189.09996"/>
     </g>
    </g>
    <g id="line2d_48">
     <defs>
      <path id="mde85d074da" d="M 0 1.5 
C 0.397805 1.5 0.77937 1.341951 1.06066 1.06066 
C 1.341951 0.77937 1.5 0.397805 1.5 0 
C 1.5 -0.397805 1.341951 -0.77937 1.06066 -1.06066 
C 0.77937 -1.341951 0.397805 -1.5 0 -1.5 
C -0.397805 -1.5 -0.77937 -1.341951 -1.06066 -1.06066 
C -1.341951 -0.77937 -1.5 -0.397805 -1.5 0 
C -1.5 0.397805 -1.341951 0.77937 -1.06066 1.06066 
C -0.77937 1.341951 -0.397805 1.5 0 1.5 
z
" style="stroke: #4e9a73"/>
     </defs>
     <g>
      <use xlink:href="#mde85d074da" x="224.75375" y="13.8075" style="fill: #4e9a73; stroke: #4e9a73"/>
     </g>
    </g>
    <g id="text_36">
     <!-- May -->
     <g style="fill: #4b4b4b" transform="translate(232.75375 16.6075) scale(0.08 -0.08)">
      <use xlink:href="#Ubuntu-4d"/>
      <use xlink:href="#Ubuntu-61" x="87.099991"/>
      <use xlink:href="#Ubuntu-79" x="137.799988"/>
     </g>
    </g>
    <g id="line2d_49">
     <defs>
      <path id="m1785d1ca84" d="M 0 1.5 
C 0.397805 1.5 0.77937 1.341951 1.06066 1.06066 
C 1.341951 0.77937 1.5 0.397805 1.5 0 
C 1.5 -0.397805 1.341951 -0.77937 1.06066 -1.06066 
C 0.77937 -1.341951 0.397805 -1.5 0 -1.5 
C -0.397805 -1.5 -0.77937 -1.341951 -1.06066 -1.06066 
C -1.341951 -0.77937 -1.5 -0.397805 -1.5 0 
C -1.5 0.397805 -1.341951 0.77937 -1.06066 1.06066 
C -0.77937 1.341951 -0.397805 1.5 0 1.5 
z
" style="stroke: #746590"/>
     </defs>
     <g>
      <use xlink:href="#m1785d1ca84" x="271.75375" y="13.8075" style="fill: #746590; stroke: #746590"/>
     </g>
    </g>
    <g id="text_37">
     <!-- June -->
     <g style="fill: #4b4b4b" transform="translate(279.75375 16.6075) scale(0.08 -0.08)">
      <use xlink:href="#Ubuntu-4a"/>
      <use xlink:href="#Ubuntu-75" x="49.999985"/>
      <use xlink:href="#Ubuntu-6e" x="107.399979"/>
      <use xlink:href="#Ubuntu-65" x="164.799973"/>
     </g>
    </g>
    <g id="line2d_50">
     <defs>
      <path id="mdc4dee2493" d="M 0 1.5 
C 0.397805 1.5 0.77937 1.341951 1.06066 1.06066 
C 1.341951 0.77937 1.5 0.397805 1.5 0 
C 1.5 -0.397805 1.341951 -0.77937 1.06066 -1.06066 
C 0.77937 -1.341951 0.397805 -1.5 0 -1.5 
C -0.397805 -1.5 -0.77937 -1.341951 -1.06066 -1.06066 
C -1.341951 -0.77937 -1.5 -0.397805 -1.5 0 
C -1.5 0.397805 -1.341951 0.77937 -1.06066 1.06066 
C -0.77937 1.341951 -0.397805 1.5 0 1.5 
z
" style="stroke: #d37f53"/>
     </defs>
     <g>
      <use xlink:href="#mdc4dee2493" x="321.41125" y="13.8075" style="fill: #d37f53; stroke: #d37f53"/>
     </g>
    </g>
    <g id="text_38">
     <!-- July -->
     <g style="fill: #4b4b4b" transform="translate(329.41125 16.6075) scale(0.08 -0.08)">
      <use xlink:href="#Ubuntu-4a"/>
      <use xlink:href="#Ubuntu-75" x="49.999985"/>
      <use xlink:href="#Ubuntu-6c" x="107.399979"/>
      <use xlink:href="#Ubuntu-79" x="134.699966"/>
     </g>
    </g>
   </g>
  </g>
 </g>
 <defs>
  <clipPath id="pb6a1f4fd14">
   <rect x="41.2625" y="170.84125" width="446.4" height="0"/>
  </clipPath>
  <clipPath id="p91fea03d63">
   <rect x="41.2625" y="32.24125" width="446.4" height="138.6"/>
  </clipPath>
 </defs>
</svg>
