<?xml version="1.0" encoding="utf-8" standalone="no"?>
<!DOCTYPE svg PUBLIC "-//W3C//DTD SVG 1.1//EN"
  "http://www.w3.org/Graphics/SVG/1.1/DTD/svg11.dtd">
<svg xmlns:xlink="http://www.w3.org/1999/xlink" width="498.929902pt" height="216.7525pt" viewBox="0 0 498.929902 216.7525" xmlns="http://www.w3.org/2000/svg" version="1.1">
 <metadata>
  <rdf:RDF xmlns:dc="http://purl.org/dc/elements/1.1/" xmlns:cc="http://creativecommons.org/ns#" xmlns:rdf="http://www.w3.org/1999/02/22-rdf-syntax-ns#">
   <cc:Work>
    <dc:type rdf:resource="http://purl.org/dc/dcmitype/StillImage"/>
    <dc:date>2024-04-25T23:17:00.756191</dc:date>
    <dc:format>image/svg+xml</dc:format>
    <dc:creator>
     <cc:Agent>
      <dc:title>Matplotlib v3.8.3, https://matplotlib.org/</dc:title>
     </cc:Agent>
    </dc:creator>
   </cc:Work>
  </rdf:RDF>
 </metadata>
 <defs>
  <style type="text/css">*{stroke-linejoin: round; stroke-linecap: butt}</style>
 </defs>
 <g id="figure_1">
  <g id="patch_1">
   <path d="M 0 216.7525 
L 498.929902 216.7525 
L 498.929902 0 
L 0 0 
L 0 216.7525 
z
" style="fill: none"/>
  </g>
  <g id="axes_1">
   <g id="patch_2">
    <path d="M 42.7625 170.84125 
L 489.1625 170.84125 
L 489.1625 32.24125 
L 42.7625 32.24125 
L 42.7625 170.84125 
z
" style="fill: none"/>
   </g>
   <g id="axes_2">
    <g id="patch_3">
     <path d="M 42.7625 170.84125 
L 489.1625 170.84125 
L 489.1625 170.84125 
L 42.7625 170.84125 
L 42.7625 170.84125 
z
" style="fill: none"/>
    </g>
    <g id="matplotlib.axis_1">
     <g id="xtick_1">
      <g id="line2d_1">
       <path d="M 81.178186 170.84125 
L 81.178186 170.84125 
" clip-path="url(#p02ddacd36f)" style="fill: none; stroke-dasharray: 0.5,0.825; stroke-dashoffset: 0; stroke: #d9d9d9; stroke-width: 0.5"/>
      </g>
      <g id="text_1">
       <!-- February -->
       <g style="fill: #808080" transform="translate(64.947561 208.04875) scale(0.08 -0.08)">
        <defs>
         <path id="Ubuntu-46" d="M 550 0 
L 550 4435 
L 3226 4435 
L 3226 3904 
L 1171 3904 
L 1171 2566 
L 2995 2566 
L 2995 2042 
L 1171 2042 
L 1171 0 
L 550 0 
z
" transform="scale(0.015625)"/>
         <path id="Ubuntu-65" d="M 326 1658 
Q 326 2099 454 2428 
Q 582 2758 793 2976 
Q 1005 3194 1280 3302 
Q 1555 3411 1843 3411 
Q 2515 3411 2873 2992 
Q 3232 2573 3232 1715 
Q 3232 1677 3232 1616 
Q 3232 1555 3226 1504 
L 947 1504 
Q 986 986 1248 717 
Q 1510 448 2067 448 
Q 2381 448 2595 502 
Q 2810 557 2918 608 
L 3002 109 
Q 2893 51 2621 -13 
Q 2349 -77 2003 -77 
Q 1568 -77 1251 54 
Q 934 186 729 416 
Q 525 646 425 963 
Q 326 1280 326 1658 
z
M 2611 1984 
Q 2618 2387 2410 2646 
Q 2202 2906 1837 2906 
Q 1632 2906 1475 2826 
Q 1318 2746 1209 2618 
Q 1101 2490 1040 2323 
Q 979 2157 960 1984 
L 2611 1984 
z
" transform="scale(0.015625)"/>
         <path id="Ubuntu-62" d="M 1107 3181 
Q 1216 3251 1437 3328 
Q 1658 3405 1946 3405 
Q 2304 3405 2582 3277 
Q 2861 3149 3053 2918 
Q 3245 2688 3344 2368 
Q 3443 2048 3443 1664 
Q 3443 1261 3324 937 
Q 3206 614 2988 390 
Q 2771 166 2464 44 
Q 2157 -77 1773 -77 
Q 1357 -77 1037 -19 
Q 717 38 512 96 
L 512 4864 
L 1107 4966 
L 1107 3181 
z
M 1107 518 
Q 1197 493 1360 470 
Q 1523 448 1766 448 
Q 2246 448 2534 765 
Q 2822 1082 2822 1664 
Q 2822 1920 2771 2144 
Q 2720 2368 2605 2531 
Q 2490 2694 2307 2787 
Q 2125 2880 1869 2880 
Q 1626 2880 1421 2797 
Q 1216 2714 1107 2624 
L 1107 518 
z
" transform="scale(0.015625)"/>
         <path id="Ubuntu-72" d="M 1741 3398 
Q 1818 3398 1917 3388 
Q 2016 3379 2112 3363 
Q 2208 3347 2288 3331 
Q 2368 3315 2406 3302 
L 2304 2784 
Q 2234 2810 2070 2845 
Q 1907 2880 1651 2880 
Q 1485 2880 1321 2845 
Q 1158 2810 1107 2797 
L 1107 0 
L 512 0 
L 512 3187 
Q 723 3264 1036 3331 
Q 1350 3398 1741 3398 
z
" transform="scale(0.015625)"/>
         <path id="Ubuntu-75" d="M 3162 96 
Q 2957 45 2621 -12 
Q 2285 -70 1843 -70 
Q 1459 -70 1196 42 
Q 934 154 774 358 
Q 614 563 544 841 
Q 474 1120 474 1459 
L 474 3328 
L 1069 3328 
L 1069 1587 
Q 1069 979 1261 716 
Q 1453 454 1907 454 
Q 2003 454 2105 460 
Q 2208 467 2297 476 
Q 2387 486 2460 496 
Q 2534 506 2566 518 
L 2566 3328 
L 3162 3328 
L 3162 96 
z
" transform="scale(0.015625)"/>
         <path id="Ubuntu-61" d="M 1638 429 
Q 1850 429 2013 438 
Q 2176 448 2285 474 
L 2285 1466 
Q 2221 1498 2077 1520 
Q 1933 1542 1728 1542 
Q 1594 1542 1443 1523 
Q 1293 1504 1168 1443 
Q 1043 1382 960 1276 
Q 877 1171 877 998 
Q 877 678 1081 553 
Q 1286 429 1638 429 
z
M 1587 3411 
Q 1946 3411 2192 3318 
Q 2438 3226 2588 3056 
Q 2739 2886 2803 2652 
Q 2867 2419 2867 2138 
L 2867 58 
Q 2790 45 2652 22 
Q 2515 0 2342 -19 
Q 2170 -38 1968 -54 
Q 1766 -70 1568 -70 
Q 1286 -70 1049 -12 
Q 813 45 640 169 
Q 467 294 371 499 
Q 275 704 275 992 
Q 275 1267 387 1465 
Q 499 1664 691 1785 
Q 883 1907 1139 1964 
Q 1395 2022 1677 2022 
Q 1766 2022 1862 2012 
Q 1958 2003 2044 1987 
Q 2131 1971 2195 1958 
Q 2259 1946 2285 1939 
L 2285 2106 
Q 2285 2253 2253 2397 
Q 2221 2541 2137 2653 
Q 2054 2765 1910 2832 
Q 1766 2899 1536 2899 
Q 1242 2899 1021 2857 
Q 800 2816 691 2771 
L 621 3264 
Q 736 3315 1005 3363 
Q 1274 3411 1587 3411 
z
" transform="scale(0.015625)"/>
         <path id="Ubuntu-79" d="M 122 -621 
Q 192 -653 304 -681 
Q 416 -710 525 -710 
Q 877 -710 1075 -553 
Q 1274 -397 1434 -45 
Q 1030 723 681 1584 
Q 333 2445 102 3328 
L 742 3328 
Q 813 3040 912 2707 
Q 1011 2374 1132 2022 
Q 1254 1670 1395 1318 
Q 1536 966 1690 640 
Q 1933 1312 2112 1971 
Q 2291 2630 2451 3328 
L 3066 3328 
Q 2835 2387 2553 1520 
Q 2272 653 1946 -102 
Q 1818 -390 1680 -598 
Q 1542 -806 1376 -940 
Q 1210 -1075 1002 -1139 
Q 794 -1203 531 -1203 
Q 461 -1203 384 -1193 
Q 307 -1184 233 -1168 
Q 160 -1152 99 -1133 
Q 38 -1114 13 -1101 
L 122 -621 
z
" transform="scale(0.015625)"/>
        </defs>
        <use xlink:href="#Ubuntu-46"/>
        <use xlink:href="#Ubuntu-65" x="52.324997"/>
        <use xlink:href="#Ubuntu-62" x="108.224991"/>
        <use xlink:href="#Ubuntu-72" x="167.124985"/>
        <use xlink:href="#Ubuntu-75" x="205.724976"/>
        <use xlink:href="#Ubuntu-61" x="263.124969"/>
        <use xlink:href="#Ubuntu-72" x="315.324966"/>
        <use xlink:href="#Ubuntu-79" x="356.049957"/>
       </g>
      </g>
     </g>
     <g id="xtick_2">
      <g id="line2d_2">
       <path d="M 149.256618 170.84125 
L 149.256618 170.84125 
" clip-path="url(#p02ddacd36f)" style="fill: none; stroke-dasharray: 0.5,0.825; stroke-dashoffset: 0; stroke: #d9d9d9; stroke-width: 0.5"/>
      </g>
      <g id="text_2">
       <!-- March -->
       <g style="fill: #808080" transform="translate(137.997243 208.04875) scale(0.08 -0.08)">
        <defs>
         <path id="Ubuntu-4d" d="M 2541 614 
Q 2477 768 2371 1005 
Q 2266 1242 2144 1517 
Q 2022 1792 1884 2083 
Q 1747 2374 1625 2633 
Q 1504 2893 1398 3097 
Q 1293 3302 1229 3411 
Q 1158 2656 1113 1776 
Q 1069 896 1037 0 
L 429 0 
Q 454 576 486 1161 
Q 518 1747 560 2313 
Q 602 2880 650 3417 
Q 698 3955 755 4435 
L 1299 4435 
Q 1472 4154 1670 3770 
Q 1869 3386 2067 2966 
Q 2266 2547 2451 2128 
Q 2637 1709 2790 1363 
Q 2944 1709 3129 2128 
Q 3315 2547 3513 2966 
Q 3712 3386 3910 3770 
Q 4109 4154 4282 4435 
L 4826 4435 
Q 5043 2291 5152 0 
L 4544 0 
Q 4512 896 4467 1776 
Q 4422 2656 4352 3411 
Q 4288 3302 4182 3097 
Q 4077 2893 3955 2633 
Q 3834 2374 3696 2083 
Q 3558 1792 3436 1517 
Q 3315 1242 3209 1005 
Q 3104 768 3040 614 
L 2541 614 
z
" transform="scale(0.015625)"/>
         <path id="Ubuntu-63" d="M 1958 -77 
Q 1555 -77 1251 51 
Q 947 179 739 409 
Q 531 640 428 957 
Q 326 1274 326 1658 
Q 326 2042 438 2362 
Q 550 2682 755 2915 
Q 960 3149 1257 3280 
Q 1555 3411 1920 3411 
Q 2144 3411 2368 3372 
Q 2592 3334 2797 3251 
L 2662 2746 
Q 2528 2810 2352 2848 
Q 2176 2886 1978 2886 
Q 1478 2886 1212 2572 
Q 947 2259 947 1658 
Q 947 1389 1008 1165 
Q 1069 941 1200 781 
Q 1331 621 1536 534 
Q 1741 448 2035 448 
Q 2272 448 2464 493 
Q 2656 538 2765 589 
L 2848 90 
Q 2797 58 2701 29 
Q 2605 0 2483 -22 
Q 2362 -45 2224 -61 
Q 2086 -77 1958 -77 
z
" transform="scale(0.015625)"/>
         <path id="Ubuntu-68" d="M 512 0 
L 512 4864 
L 1107 4966 
L 1107 3264 
Q 1274 3328 1462 3363 
Q 1651 3398 1837 3398 
Q 2234 3398 2496 3286 
Q 2758 3174 2915 2972 
Q 3072 2771 3136 2489 
Q 3200 2208 3200 1869 
L 3200 0 
L 2605 0 
L 2605 1741 
Q 2605 2048 2563 2265 
Q 2522 2483 2426 2617 
Q 2330 2752 2170 2813 
Q 2010 2874 1773 2874 
Q 1677 2874 1574 2861 
Q 1472 2848 1379 2832 
Q 1286 2816 1212 2797 
Q 1139 2778 1107 2765 
L 1107 0 
L 512 0 
z
" transform="scale(0.015625)"/>
        </defs>
        <use xlink:href="#Ubuntu-4d"/>
        <use xlink:href="#Ubuntu-61" x="87.099991"/>
        <use xlink:href="#Ubuntu-72" x="139.299988"/>
        <use xlink:href="#Ubuntu-63" x="177.899979"/>
        <use xlink:href="#Ubuntu-68" x="224.399963"/>
       </g>
      </g>
     </g>
     <g id="xtick_3">
      <g id="line2d_3">
       <path d="M 224.629167 170.84125 
L 224.629167 170.84125 
" clip-path="url(#p02ddacd36f)" style="fill: none; stroke-dasharray: 0.5,0.825; stroke-dashoffset: 0; stroke: #d9d9d9; stroke-width: 0.5"/>
      </g>
      <g id="text_3">
       <!-- April -->
       <g style="fill: #808080" transform="translate(215.973542 208.04875) scale(0.08 -0.08)">
        <defs>
         <path id="Ubuntu-41" d="M 3514 0 
Q 3405 288 3309 566 
Q 3213 845 3110 1133 
L 1101 1133 
L 698 0 
L 51 0 
Q 307 704 531 1302 
Q 755 1901 969 2438 
Q 1184 2976 1395 3465 
Q 1606 3955 1837 4435 
L 2406 4435 
Q 2637 3955 2848 3465 
Q 3059 2976 3273 2438 
Q 3488 1901 3712 1302 
Q 3936 704 4192 0 
L 3514 0 
z
M 2931 1645 
Q 2726 2202 2524 2723 
Q 2323 3245 2106 3725 
Q 1882 3245 1680 2723 
Q 1478 2202 1280 1645 
L 2931 1645 
z
" transform="scale(0.015625)"/>
         <path id="Ubuntu-70" d="M 2822 1658 
Q 2822 2240 2534 2553 
Q 2246 2867 1766 2867 
Q 1498 2867 1347 2848 
Q 1197 2829 1107 2803 
L 1107 704 
Q 1216 614 1421 531 
Q 1626 448 1869 448 
Q 2125 448 2307 541 
Q 2490 634 2605 797 
Q 2720 960 2771 1181 
Q 2822 1402 2822 1658 
z
M 3443 1658 
Q 3443 1280 3344 960 
Q 3245 640 3053 409 
Q 2861 179 2582 51 
Q 2304 -77 1946 -77 
Q 1658 -77 1437 0 
Q 1216 77 1107 147 
L 1107 -1184 
L 512 -1184 
L 512 3226 
Q 723 3277 1040 3337 
Q 1357 3398 1773 3398 
Q 2157 3398 2464 3276 
Q 2771 3155 2988 2931 
Q 3206 2707 3324 2384 
Q 3443 2061 3443 1658 
z
" transform="scale(0.015625)"/>
         <path id="Ubuntu-69" d="M 1107 0 
L 512 0 
L 512 3328 
L 1107 3328 
L 1107 0 
z
M 806 3930 
Q 646 3930 534 4035 
Q 422 4141 422 4320 
Q 422 4499 534 4604 
Q 646 4710 806 4710 
Q 966 4710 1078 4604 
Q 1190 4499 1190 4320 
Q 1190 4141 1078 4035 
Q 966 3930 806 3930 
z
" transform="scale(0.015625)"/>
         <path id="Ubuntu-6c" d="M 1510 -64 
Q 960 -51 729 173 
Q 499 397 499 870 
L 499 4864 
L 1094 4966 
L 1094 966 
Q 1094 819 1120 723 
Q 1146 627 1203 569 
Q 1261 512 1357 483 
Q 1453 454 1594 435 
L 1510 -64 
z
" transform="scale(0.015625)"/>
        </defs>
        <use xlink:href="#Ubuntu-41"/>
        <use xlink:href="#Ubuntu-70" x="66.299988"/>
        <use xlink:href="#Ubuntu-72" x="125.199982"/>
        <use xlink:href="#Ubuntu-69" x="163.799973"/>
        <use xlink:href="#Ubuntu-6c" x="189.09996"/>
       </g>
      </g>
     </g>
     <g id="xtick_4">
      <g id="line2d_4">
       <path d="M 297.570343 170.84125 
L 297.570343 170.84125 
" clip-path="url(#p02ddacd36f)" style="fill: none; stroke-dasharray: 0.5,0.825; stroke-dashoffset: 0; stroke: #d9d9d9; stroke-width: 0.5"/>
      </g>
      <g id="text_4">
       <!-- May -->
       <g style="fill: #808080" transform="translate(290.070343 208.025) scale(0.08 -0.08)">
        <use xlink:href="#Ubuntu-4d"/>
        <use xlink:href="#Ubuntu-61" x="87.099991"/>
        <use xlink:href="#Ubuntu-79" x="137.799988"/>
       </g>
      </g>
     </g>
     <g id="xtick_5">
      <g id="line2d_5">
       <path d="M 372.942892 170.84125 
L 372.942892 170.84125 
" clip-path="url(#p02ddacd36f)" style="fill: none; stroke-dasharray: 0.5,0.825; stroke-dashoffset: 0; stroke: #d9d9d9; stroke-width: 0.5"/>
      </g>
      <g id="text_5">
       <!-- June -->
       <g style="fill: #808080" transform="translate(364.114142 208.04875) scale(0.08 -0.08)">
        <defs>
         <path id="Ubuntu-4a" d="M 2682 1427 
Q 2682 1107 2614 832 
Q 2547 557 2377 349 
Q 2208 141 1923 22 
Q 1638 -96 1210 -96 
Q 992 -96 809 -61 
Q 627 -26 480 28 
Q 333 83 224 144 
Q 115 205 51 262 
L 294 755 
Q 429 659 643 553 
Q 858 448 1178 448 
Q 1638 448 1849 681 
Q 2061 915 2061 1485 
L 2061 4435 
L 2682 4435 
L 2682 1427 
z
" transform="scale(0.015625)"/>
         <path id="Ubuntu-6e" d="M 512 3232 
Q 717 3283 1056 3340 
Q 1395 3398 1837 3398 
Q 2234 3398 2496 3286 
Q 2758 3174 2915 2972 
Q 3072 2771 3136 2489 
Q 3200 2208 3200 1869 
L 3200 0 
L 2605 0 
L 2605 1741 
Q 2605 2048 2563 2265 
Q 2522 2483 2426 2617 
Q 2330 2752 2170 2813 
Q 2010 2874 1773 2874 
Q 1677 2874 1574 2867 
Q 1472 2861 1379 2851 
Q 1286 2842 1212 2829 
Q 1139 2816 1107 2810 
L 1107 0 
L 512 0 
L 512 3232 
z
" transform="scale(0.015625)"/>
        </defs>
        <use xlink:href="#Ubuntu-4a"/>
        <use xlink:href="#Ubuntu-75" x="49.999985"/>
        <use xlink:href="#Ubuntu-6e" x="107.399979"/>
        <use xlink:href="#Ubuntu-65" x="164.799973"/>
       </g>
      </g>
     </g>
     <g id="xtick_6">
      <g id="line2d_6">
       <path d="M 445.884069 170.84125 
L 445.884069 170.84125 
" clip-path="url(#p02ddacd36f)" style="fill: none; stroke-dasharray: 0.5,0.825; stroke-dashoffset: 0; stroke: #d9d9d9; stroke-width: 0.5"/>
      </g>
      <g id="text_6">
       <!-- July -->
       <g style="fill: #808080" transform="translate(438.507819 208.04875) scale(0.08 -0.08)">
        <use xlink:href="#Ubuntu-4a"/>
        <use xlink:href="#Ubuntu-75" x="49.999985"/>
        <use xlink:href="#Ubuntu-6c" x="107.399979"/>
        <use xlink:href="#Ubuntu-79" x="134.699966"/>
       </g>
      </g>
     </g>
    </g>
    <g id="matplotlib.axis_2"/>
   </g>
   <g id="matplotlib.axis_3">
    <g id="xtick_7">
     <g id="line2d_7">
      <defs>
       <path id="m609a076f05" d="M 0 0 
L 0 4.5 
" style="stroke: #cccccc; stroke-width: 0.75"/>
      </defs>
      <g>
       <use xlink:href="#m609a076f05" x="47.138971" y="178.34125" style="fill: #cccccc; stroke: #cccccc; stroke-width: 0.75"/>
      </g>
     </g>
     <g id="text_7">
      <!-- 01 -->
      <g style="fill: #808080" transform="translate(42.626471 192.54875) scale(0.08 -0.08)">
       <defs>
        <path id="Ubuntu-30" d="M 320 2221 
Q 320 3334 713 3936 
Q 1107 4538 1805 4538 
Q 2502 4538 2896 3936 
Q 3290 3334 3290 2221 
Q 3290 1107 2896 505 
Q 2502 -96 1805 -96 
Q 1107 -96 713 505 
Q 320 1107 320 2221 
z
M 2662 2221 
Q 2662 2586 2620 2912 
Q 2579 3238 2480 3481 
Q 2381 3725 2214 3869 
Q 2048 4013 1805 4013 
Q 1562 4013 1395 3869 
Q 1229 3725 1129 3481 
Q 1030 3238 988 2912 
Q 947 2586 947 2221 
Q 947 1856 988 1529 
Q 1030 1203 1129 960 
Q 1229 717 1395 573 
Q 1562 429 1805 429 
Q 2048 429 2214 573 
Q 2381 717 2480 960 
Q 2579 1203 2620 1529 
Q 2662 1856 2662 2221 
z
" transform="scale(0.015625)"/>
        <path id="Ubuntu-31" d="M 595 3520 
Q 960 3661 1305 3881 
Q 1651 4102 1939 4435 
L 2362 4435 
L 2362 0 
L 1766 0 
L 1766 3610 
Q 1690 3539 1578 3462 
Q 1466 3386 1334 3315 
Q 1203 3245 1059 3181 
Q 915 3117 781 3072 
L 595 3520 
z
" transform="scale(0.015625)"/>
       </defs>
       <use xlink:href="#Ubuntu-30"/>
       <use xlink:href="#Ubuntu-31" x="56.399994"/>
      </g>
     </g>
    </g>
    <g id="xtick_8">
     <g id="line2d_8">
      <g>
       <use xlink:href="#m609a076f05" x="115.217402" y="178.34125" style="fill: #cccccc; stroke: #cccccc; stroke-width: 0.75"/>
      </g>
     </g>
     <g id="text_8">
      <!-- 01 -->
      <g style="fill: #808080" transform="translate(110.704902 192.54875) scale(0.08 -0.08)">
       <use xlink:href="#Ubuntu-30"/>
       <use xlink:href="#Ubuntu-31" x="56.399994"/>
      </g>
     </g>
    </g>
    <g id="xtick_9">
     <g id="line2d_9">
      <g>
       <use xlink:href="#m609a076f05" x="190.589951" y="178.34125" style="fill: #cccccc; stroke: #cccccc; stroke-width: 0.75"/>
      </g>
     </g>
     <g id="text_9">
      <!-- 01 -->
      <g style="fill: #808080" transform="translate(186.077451 192.54875) scale(0.08 -0.08)">
       <use xlink:href="#Ubuntu-30"/>
       <use xlink:href="#Ubuntu-31" x="56.399994"/>
      </g>
     </g>
    </g>
    <g id="xtick_10">
     <g id="line2d_10">
      <g>
       <use xlink:href="#m609a076f05" x="263.531127" y="178.34125" style="fill: #cccccc; stroke: #cccccc; stroke-width: 0.75"/>
      </g>
     </g>
     <g id="text_10">
      <!-- 01 -->
      <g style="fill: #808080" transform="translate(259.018627 192.54875) scale(0.08 -0.08)">
       <use xlink:href="#Ubuntu-30"/>
       <use xlink:href="#Ubuntu-31" x="56.399994"/>
      </g>
     </g>
    </g>
    <g id="xtick_11">
     <g id="line2d_11">
      <g>
       <use xlink:href="#m609a076f05" x="338.903676" y="178.34125" style="fill: #cccccc; stroke: #cccccc; stroke-width: 0.75"/>
      </g>
     </g>
     <g id="text_11">
      <!-- 01 -->
      <g style="fill: #808080" transform="translate(334.391176 192.54875) scale(0.08 -0.08)">
       <use xlink:href="#Ubuntu-30"/>
       <use xlink:href="#Ubuntu-31" x="56.399994"/>
      </g>
     </g>
    </g>
    <g id="xtick_12">
     <g id="line2d_12">
      <g>
       <use xlink:href="#m609a076f05" x="411.844853" y="178.34125" style="fill: #cccccc; stroke: #cccccc; stroke-width: 0.75"/>
      </g>
     </g>
     <g id="text_12">
      <!-- 01 -->
      <g style="fill: #808080" transform="translate(407.332353 192.54875) scale(0.08 -0.08)">
       <use xlink:href="#Ubuntu-30"/>
       <use xlink:href="#Ubuntu-31" x="56.399994"/>
      </g>
     </g>
    </g>
    <g id="xtick_13">
     <g id="line2d_13">
      <g>
       <use xlink:href="#m609a076f05" x="487.217402" y="178.34125" style="fill: #cccccc; stroke: #cccccc; stroke-width: 0.75"/>
      </g>
     </g>
     <g id="text_13">
      <!-- 31 -->
      <g style="fill: #808080" transform="translate(482.704902 192.54875) scale(0.08 -0.08)">
       <defs>
        <path id="Ubuntu-33" d="M 1446 435 
Q 2016 435 2262 659 
Q 2509 883 2509 1261 
Q 2509 1504 2406 1670 
Q 2304 1837 2137 1936 
Q 1971 2035 1750 2076 
Q 1530 2118 1299 2118 
L 1146 2118 
L 1146 2605 
L 1357 2605 
Q 1517 2605 1686 2637 
Q 1856 2669 1997 2752 
Q 2138 2835 2227 2979 
Q 2317 3123 2317 3341 
Q 2317 3520 2253 3648 
Q 2189 3776 2083 3859 
Q 1978 3942 1840 3977 
Q 1702 4013 1549 4013 
Q 1242 4013 1027 3923 
Q 813 3834 666 3738 
L 435 4192 
Q 512 4243 630 4304 
Q 749 4365 896 4416 
Q 1043 4467 1212 4502 
Q 1382 4538 1568 4538 
Q 1920 4538 2176 4451 
Q 2432 4365 2598 4208 
Q 2765 4051 2848 3836 
Q 2931 3622 2931 3373 
Q 2931 3027 2732 2780 
Q 2534 2534 2253 2406 
Q 2426 2355 2586 2259 
Q 2746 2163 2864 2016 
Q 2982 1869 3056 1677 
Q 3130 1485 3130 1248 
Q 3130 960 3030 713 
Q 2931 467 2723 288 
Q 2515 109 2201 6 
Q 1888 -96 1459 -96 
Q 1293 -96 1117 -70 
Q 941 -45 787 -6 
Q 634 32 518 70 
Q 403 109 352 134 
L 467 653 
Q 576 602 829 518 
Q 1082 435 1446 435 
z
" transform="scale(0.015625)"/>
       </defs>
       <use xlink:href="#Ubuntu-33"/>
       <use xlink:href="#Ubuntu-31" x="56.399994"/>
      </g>
     </g>
    </g>
    <g id="xtick_14">
     <g id="line2d_14">
      <defs>
       <path id="m5a91ea54a7" d="M 0 0 
L 0 3 
" style="stroke: #cccccc; stroke-width: 0.75"/>
      </defs>
      <g>
       <use xlink:href="#m5a91ea54a7" x="69.021324" y="178.34125" style="fill: #cccccc; stroke: #cccccc; stroke-width: 0.75"/>
      </g>
     </g>
     <g id="text_14">
      <!-- 10 -->
      <g style="fill: #808080" transform="translate(64.508824 192.54875) scale(0.08 -0.08)">
       <use xlink:href="#Ubuntu-31"/>
       <use xlink:href="#Ubuntu-30" x="56.399994"/>
      </g>
     </g>
    </g>
    <g id="xtick_15">
     <g id="line2d_15">
      <g>
       <use xlink:href="#m5a91ea54a7" x="93.335049" y="178.34125" style="fill: #cccccc; stroke: #cccccc; stroke-width: 0.75"/>
      </g>
     </g>
     <g id="text_15">
      <!-- 20 -->
      <g style="fill: #808080" transform="translate(88.822549 192.54875) scale(0.08 -0.08)">
       <defs>
        <path id="Ubuntu-32" d="M 2989 3302 
Q 2989 3072 2896 2857 
Q 2803 2643 2649 2435 
Q 2496 2227 2304 2025 
Q 2112 1824 1920 1632 
Q 1811 1523 1667 1376 
Q 1523 1229 1395 1069 
Q 1267 909 1180 761 
Q 1094 614 1094 506 
L 3136 506 
L 3136 0 
L 448 0 
Q 442 38 442 76 
Q 442 115 442 147 
Q 442 448 541 707 
Q 640 966 800 1196 
Q 960 1427 1158 1632 
Q 1357 1837 1549 2029 
Q 1709 2182 1853 2332 
Q 1997 2483 2109 2633 
Q 2221 2784 2288 2944 
Q 2355 3104 2355 3283 
Q 2355 3475 2294 3609 
Q 2234 3744 2131 3833 
Q 2029 3923 1891 3964 
Q 1754 4006 1600 4006 
Q 1414 4006 1260 3955 
Q 1107 3904 985 3837 
Q 864 3770 781 3696 
Q 698 3622 653 3584 
L 358 4006 
Q 416 4070 531 4163 
Q 646 4256 806 4339 
Q 966 4422 1164 4480 
Q 1363 4538 1594 4538 
Q 2291 4538 2640 4214 
Q 2989 3891 2989 3302 
z
" transform="scale(0.015625)"/>
       </defs>
       <use xlink:href="#Ubuntu-32"/>
       <use xlink:href="#Ubuntu-30" x="56.399994"/>
      </g>
     </g>
    </g>
    <g id="xtick_16">
     <g id="line2d_16">
      <g>
       <use xlink:href="#m5a91ea54a7" x="137.099755" y="178.34125" style="fill: #cccccc; stroke: #cccccc; stroke-width: 0.75"/>
      </g>
     </g>
     <g id="text_16">
      <!-- 10 -->
      <g style="fill: #808080" transform="translate(132.587255 192.54875) scale(0.08 -0.08)">
       <use xlink:href="#Ubuntu-31"/>
       <use xlink:href="#Ubuntu-30" x="56.399994"/>
      </g>
     </g>
    </g>
    <g id="xtick_17">
     <g id="line2d_17">
      <g>
       <use xlink:href="#m5a91ea54a7" x="161.41348" y="178.34125" style="fill: #cccccc; stroke: #cccccc; stroke-width: 0.75"/>
      </g>
     </g>
     <g id="text_17">
      <!-- 20 -->
      <g style="fill: #808080" transform="translate(156.90098 192.54875) scale(0.08 -0.08)">
       <use xlink:href="#Ubuntu-32"/>
       <use xlink:href="#Ubuntu-30" x="56.399994"/>
      </g>
     </g>
    </g>
    <g id="xtick_18">
     <g id="line2d_18">
      <g>
       <use xlink:href="#m5a91ea54a7" x="212.472304" y="178.34125" style="fill: #cccccc; stroke: #cccccc; stroke-width: 0.75"/>
      </g>
     </g>
     <g id="text_18">
      <!-- 10 -->
      <g style="fill: #808080" transform="translate(207.959804 192.54875) scale(0.08 -0.08)">
       <use xlink:href="#Ubuntu-31"/>
       <use xlink:href="#Ubuntu-30" x="56.399994"/>
      </g>
     </g>
    </g>
    <g id="xtick_19">
     <g id="line2d_19">
      <g>
       <use xlink:href="#m5a91ea54a7" x="236.786029" y="178.34125" style="fill: #cccccc; stroke: #cccccc; stroke-width: 0.75"/>
      </g>
     </g>
     <g id="text_19">
      <!-- 20 -->
      <g style="fill: #808080" transform="translate(232.273529 192.54875) scale(0.08 -0.08)">
       <use xlink:href="#Ubuntu-32"/>
       <use xlink:href="#Ubuntu-30" x="56.399994"/>
      </g>
     </g>
    </g>
    <g id="xtick_20">
     <g id="line2d_20">
      <g>
       <use xlink:href="#m5a91ea54a7" x="285.41348" y="178.34125" style="fill: #cccccc; stroke: #cccccc; stroke-width: 0.75"/>
      </g>
     </g>
     <g id="text_20">
      <!-- 10 -->
      <g style="fill: #808080" transform="translate(280.90098 192.54875) scale(0.08 -0.08)">
       <use xlink:href="#Ubuntu-31"/>
       <use xlink:href="#Ubuntu-30" x="56.399994"/>
      </g>
     </g>
    </g>
    <g id="xtick_21">
     <g id="line2d_21">
      <g>
       <use xlink:href="#m5a91ea54a7" x="309.727206" y="178.34125" style="fill: #cccccc; stroke: #cccccc; stroke-width: 0.75"/>
      </g>
     </g>
     <g id="text_21">
      <!-- 20 -->
      <g style="fill: #808080" transform="translate(305.214706 192.54875) scale(0.08 -0.08)">
       <use xlink:href="#Ubuntu-32"/>
       <use xlink:href="#Ubuntu-30" x="56.399994"/>
      </g>
     </g>
    </g>
    <g id="xtick_22">
     <g id="line2d_22">
      <g>
       <use xlink:href="#m5a91ea54a7" x="360.786029" y="178.34125" style="fill: #cccccc; stroke: #cccccc; stroke-width: 0.75"/>
      </g>
     </g>
     <g id="text_22">
      <!-- 10 -->
      <g style="fill: #808080" transform="translate(356.273529 192.54875) scale(0.08 -0.08)">
       <use xlink:href="#Ubuntu-31"/>
       <use xlink:href="#Ubuntu-30" x="56.399994"/>
      </g>
     </g>
    </g>
    <g id="xtick_23">
     <g id="line2d_23">
      <g>
       <use xlink:href="#m5a91ea54a7" x="385.099755" y="178.34125" style="fill: #cccccc; stroke: #cccccc; stroke-width: 0.75"/>
      </g>
     </g>
     <g id="text_23">
      <!-- 20 -->
      <g style="fill: #808080" transform="translate(380.587255 192.54875) scale(0.08 -0.08)">
       <use xlink:href="#Ubuntu-32"/>
       <use xlink:href="#Ubuntu-30" x="56.399994"/>
      </g>
     </g>
    </g>
    <g id="xtick_24">
     <g id="line2d_24">
      <g>
       <use xlink:href="#m5a91ea54a7" x="433.727206" y="178.34125" style="fill: #cccccc; stroke: #cccccc; stroke-width: 0.75"/>
      </g>
     </g>
     <g id="text_24">
      <!-- 10 -->
      <g style="fill: #808080" transform="translate(429.214706 192.54875) scale(0.08 -0.08)">
       <use xlink:href="#Ubuntu-31"/>
       <use xlink:href="#Ubuntu-30" x="56.399994"/>
      </g>
     </g>
    </g>
    <g id="xtick_25">
     <g id="line2d_25">
      <g>
       <use xlink:href="#m5a91ea54a7" x="458.040931" y="178.34125" style="fill: #cccccc; stroke: #cccccc; stroke-width: 0.75"/>
      </g>
     </g>
     <g id="text_25">
      <!-- 20 -->
      <g style="fill: #808080" transform="translate(453.528431 192.54875) scale(0.08 -0.08)">
       <use xlink:href="#Ubuntu-32"/>
       <use xlink:href="#Ubuntu-30" x="56.399994"/>
      </g>
     </g>
    </g>
   </g>
   <g id="matplotlib.axis_4">
    <g id="ytick_1">
     <g id="line2d_26">
      <defs>
       <path id="mdba7651113" d="M 0 0 
L -3 0 
" style="stroke: #cccccc; stroke-width: 0.75"/>
      </defs>
      <g>
       <use xlink:href="#mdba7651113" x="38.7625" y="170.84125" style="fill: #cccccc; stroke: #cccccc; stroke-width: 0.75"/>
      </g>
     </g>
     <g id="text_26">
      <!-- 25000 -->
      <g style="fill: #808080" transform="translate(7.2 173.945) scale(0.08 -0.08)">
       <defs>
        <path id="Ubuntu-35" d="M 1274 2726 
Q 2240 2688 2691 2304 
Q 3142 1920 3142 1261 
Q 3142 966 3043 716 
Q 2944 467 2742 288 
Q 2541 109 2233 6 
Q 1926 -96 1504 -96 
Q 1338 -96 1165 -70 
Q 992 -45 845 -6 
Q 698 32 582 70 
Q 467 109 416 134 
L 531 653 
Q 640 602 886 518 
Q 1133 435 1491 435 
Q 1779 435 1974 499 
Q 2170 563 2291 672 
Q 2413 781 2467 925 
Q 2522 1069 2522 1229 
Q 2522 1472 2438 1661 
Q 2355 1850 2144 1978 
Q 1933 2106 1581 2173 
Q 1229 2240 691 2240 
Q 730 2554 752 2829 
Q 774 3104 793 3366 
Q 813 3629 825 3888 
Q 838 4147 851 4435 
L 2989 4435 
L 2989 3930 
L 1370 3930 
Q 1363 3834 1350 3670 
Q 1338 3507 1325 3331 
Q 1312 3155 1299 2988 
Q 1286 2822 1274 2726 
z
" transform="scale(0.015625)"/>
       </defs>
       <use xlink:href="#Ubuntu-32"/>
       <use xlink:href="#Ubuntu-35" x="56.399994"/>
       <use xlink:href="#Ubuntu-30" x="112.799988"/>
       <use xlink:href="#Ubuntu-30" x="169.199982"/>
       <use xlink:href="#Ubuntu-30" x="225.599976"/>
      </g>
     </g>
    </g>
    <g id="ytick_2">
     <g id="line2d_27">
      <g>
       <use xlink:href="#mdba7651113" x="38.7625" y="147.932138" style="fill: #cccccc; stroke: #cccccc; stroke-width: 0.75"/>
      </g>
     </g>
     <g id="text_27">
      <!-- 27500 -->
      <g style="fill: #808080" transform="translate(7.2 151.035888) scale(0.08 -0.08)">
       <defs>
        <path id="Ubuntu-37" d="M 1043 0 
Q 1082 512 1226 1078 
Q 1370 1645 1581 2179 
Q 1792 2714 2045 3171 
Q 2298 3629 2541 3917 
L 384 3917 
L 384 4435 
L 3206 4435 
L 3206 3942 
Q 2995 3699 2739 3273 
Q 2483 2848 2256 2320 
Q 2029 1792 1865 1193 
Q 1702 595 1664 0 
L 1043 0 
z
" transform="scale(0.015625)"/>
       </defs>
       <use xlink:href="#Ubuntu-32"/>
       <use xlink:href="#Ubuntu-37" x="56.399994"/>
       <use xlink:href="#Ubuntu-35" x="112.799988"/>
       <use xlink:href="#Ubuntu-30" x="169.199982"/>
       <use xlink:href="#Ubuntu-30" x="225.599976"/>
      </g>
     </g>
    </g>
    <g id="ytick_3">
     <g id="line2d_28">
      <g>
       <use xlink:href="#mdba7651113" x="38.7625" y="125.023025" style="fill: #cccccc; stroke: #cccccc; stroke-width: 0.75"/>
      </g>
     </g>
     <g id="text_28">
      <!-- 30000 -->
      <g style="fill: #808080" transform="translate(7.2 128.126775) scale(0.08 -0.08)">
       <use xlink:href="#Ubuntu-33"/>
       <use xlink:href="#Ubuntu-30" x="56.399994"/>
       <use xlink:href="#Ubuntu-30" x="112.799988"/>
       <use xlink:href="#Ubuntu-30" x="169.199982"/>
       <use xlink:href="#Ubuntu-30" x="225.599976"/>
      </g>
     </g>
    </g>
    <g id="ytick_4">
     <g id="line2d_29">
      <g>
       <use xlink:href="#mdba7651113" x="38.7625" y="102.113913" style="fill: #cccccc; stroke: #cccccc; stroke-width: 0.75"/>
      </g>
     </g>
     <g id="text_29">
      <!-- 32500 -->
      <g style="fill: #808080" transform="translate(7.2 105.217663) scale(0.08 -0.08)">
       <use xlink:href="#Ubuntu-33"/>
       <use xlink:href="#Ubuntu-32" x="56.399994"/>
       <use xlink:href="#Ubuntu-35" x="112.799988"/>
       <use xlink:href="#Ubuntu-30" x="169.199982"/>
       <use xlink:href="#Ubuntu-30" x="225.599976"/>
      </g>
     </g>
    </g>
    <g id="ytick_5">
     <g id="line2d_30">
      <g>
       <use xlink:href="#mdba7651113" x="38.7625" y="79.2048" style="fill: #cccccc; stroke: #cccccc; stroke-width: 0.75"/>
      </g>
     </g>
     <g id="text_30">
      <!-- 35000 -->
      <g style="fill: #808080" transform="translate(7.2 82.30855) scale(0.08 -0.08)">
       <use xlink:href="#Ubuntu-33"/>
       <use xlink:href="#Ubuntu-35" x="56.399994"/>
       <use xlink:href="#Ubuntu-30" x="112.799988"/>
       <use xlink:href="#Ubuntu-30" x="169.199982"/>
       <use xlink:href="#Ubuntu-30" x="225.599976"/>
      </g>
     </g>
    </g>
    <g id="ytick_6">
     <g id="line2d_31">
      <g>
       <use xlink:href="#mdba7651113" x="38.7625" y="56.295688" style="fill: #cccccc; stroke: #cccccc; stroke-width: 0.75"/>
      </g>
     </g>
     <g id="text_31">
      <!-- 37500 -->
      <g style="fill: #808080" transform="translate(7.2 59.399438) scale(0.08 -0.08)">
       <use xlink:href="#Ubuntu-33"/>
       <use xlink:href="#Ubuntu-37" x="56.399994"/>
       <use xlink:href="#Ubuntu-35" x="112.799988"/>
       <use xlink:href="#Ubuntu-30" x="169.199982"/>
       <use xlink:href="#Ubuntu-30" x="225.599976"/>
      </g>
     </g>
    </g>
    <g id="ytick_7">
     <g id="line2d_32">
      <g>
       <use xlink:href="#mdba7651113" x="38.7625" y="33.386575" style="fill: #cccccc; stroke: #cccccc; stroke-width: 0.75"/>
      </g>
     </g>
     <g id="text_32">
      <!-- 40000 -->
      <g style="fill: #808080" transform="translate(7.2 36.490325) scale(0.08 -0.08)">
       <defs>
        <path id="Ubuntu-34" d="M 256 1536 
Q 378 1818 589 2192 
Q 800 2566 1065 2963 
Q 1331 3360 1635 3744 
Q 1939 4128 2246 4435 
L 2816 4435 
L 2816 1619 
L 3341 1619 
L 3341 1133 
L 2816 1133 
L 2816 0 
L 2240 0 
L 2240 1133 
L 256 1133 
L 256 1536 
z
M 2240 3731 
Q 2048 3526 1853 3273 
Q 1658 3021 1472 2745 
Q 1286 2470 1123 2182 
Q 960 1894 832 1619 
L 2240 1619 
L 2240 3731 
z
" transform="scale(0.015625)"/>
       </defs>
       <use xlink:href="#Ubuntu-34"/>
       <use xlink:href="#Ubuntu-30" x="56.399994"/>
       <use xlink:href="#Ubuntu-30" x="112.799988"/>
       <use xlink:href="#Ubuntu-30" x="169.199982"/>
       <use xlink:href="#Ubuntu-30" x="225.599976"/>
      </g>
     </g>
    </g>
   </g>
   <g id="PolyCollection_1">
    <defs>
     <path id="md205476e76" d="M 47.138971 -114.960324 
L 47.138971 -93.322823 
L 49.570343 -97.802855 
L 52.001716 -89.229188 
L 54.433088 -87.557085 
L 56.864461 -66.087567 
L 59.295833 -86.857095 
L 61.727206 -88.091042 
L 64.158578 -87.667058 
L 66.589951 -88.801923 
L 69.021324 -87.904702 
L 71.452696 -89.753729 
L 73.884069 -81.215998 
L 76.315441 -102.059174 
L 78.746814 -81.121401 
L 81.178186 -90.004652 
L 83.609559 -94.464891 
L 86.040931 -96.242628 
L 88.472304 -96.443122 
L 90.903676 -81.297335 
L 93.335049 -98.908589 
L 95.766422 -97.790712 
L 98.197794 -98.741051 
L 100.629167 -104.194041 
L 103.060539 -93.486109 
L 105.491912 -87.196062 
L 107.923284 -82.157397 
L 110.354657 -93.610769 
L 112.786029 -92.054949 
L 112.786029 -112.031928 
L 112.786029 -112.031928 
L 110.354657 -113.209962 
L 107.923284 -101.522645 
L 105.491912 -108.37809 
L 103.060539 -113.346038 
L 100.629167 -126.279863 
L 98.197794 -117.066662 
L 95.766422 -120.371855 
L 93.335049 -122.278242 
L 90.903676 -103.208406 
L 88.472304 -114.365309 
L 86.040931 -116.751118 
L 83.609559 -114.215943 
L 81.178186 -110.324481 
L 78.746814 -96.628161 
L 76.315441 -123.20644 
L 73.884069 -102.818349 
L 71.452696 -111.683341 
L 69.021324 -107.917258 
L 66.589951 -107.872818 
L 64.158578 -107.466569 
L 61.727206 -108.017669 
L 59.295833 -106.535887 
L 56.864461 -85.089075 
L 54.433088 -107.637436 
L 52.001716 -107.877603 
L 49.570343 -119.593751 
L 47.138971 -114.960324 
z
" style="stroke: #5b5b5b; stroke-opacity: 0.2"/>
    </defs>
    <g clip-path="url(#p5245a8dcf5)">
     <use xlink:href="#md205476e76" x="0" y="216.7525" style="fill: #5b5b5b; fill-opacity: 0.2; stroke: #5b5b5b; stroke-opacity: 0.2"/>
    </g>
   </g>
   <g id="PolyCollection_2">
    <defs>
     <path id="mf42eecf598" d="M 115.217402 -112.83371 
L 115.217402 -92.660998 
L 117.648775 -91.119361 
L 120.080147 -92.247435 
L 122.51152 -91.686874 
L 124.942892 -77.799214 
L 127.374265 -99.423603 
L 129.805637 -93.011108 
L 132.23701 -104.580902 
L 134.668382 -93.679421 
L 137.099755 -90.904318 
L 139.531127 -90.240753 
L 141.9625 -77.49966 
L 144.393873 -94.784829 
L 146.825245 -91.637936 
L 149.256618 -104.033384 
L 151.68799 -104.075654 
L 154.119363 -95.530672 
L 156.550735 -92.377657 
L 158.982108 -80.425241 
L 161.41348 -91.208765 
L 163.844853 -88.522745 
L 166.276225 -95.003821 
L 168.707598 -92.913983 
L 171.138971 -86.951199 
L 173.570343 -85.57057 
L 176.001716 -77.308003 
L 178.433088 -98.52617 
L 180.864461 -90.187467 
L 183.295833 -109.150588 
L 185.727206 -101.592033 
L 188.158578 -94.824837 
L 188.158578 -113.115219 
L 188.158578 -113.115219 
L 185.727206 -119.424155 
L 183.295833 -131.270856 
L 180.864461 -109.611958 
L 178.433088 -117.301114 
L 176.001716 -99.139101 
L 173.570343 -104.319465 
L 171.138971 -106.960291 
L 168.707598 -113.276772 
L 166.276225 -114.180932 
L 163.844853 -108.898695 
L 161.41348 -111.634628 
L 158.982108 -100.895888 
L 156.550735 -111.785711 
L 154.119363 -114.480778 
L 151.68799 -126.495233 
L 149.256618 -125.619851 
L 146.825245 -111.786803 
L 144.393873 -114.586881 
L 141.9625 -96.842984 
L 139.531127 -110.205294 
L 137.099755 -109.825198 
L 134.668382 -111.961009 
L 132.23701 -127.316334 
L 129.805637 -110.66021 
L 127.374265 -119.052569 
L 124.942892 -96.537142 
L 122.51152 -110.799517 
L 120.080147 -111.56011 
L 117.648775 -111.995412 
L 115.217402 -112.83371 
z
" style="stroke: #b45f58; stroke-opacity: 0.2"/>
    </defs>
    <g clip-path="url(#p5245a8dcf5)">
     <use xlink:href="#mf42eecf598" x="0" y="216.7525" style="fill: #b45f58; fill-opacity: 0.2; stroke: #b45f58; stroke-opacity: 0.2"/>
    </g>
   </g>
   <g id="PolyCollection_3">
    <defs>
     <path id="mfaa40b7601" d="M 190.589951 -123.31357 
L 190.589951 -103.791613 
L 193.021324 -73.180364 
L 195.452696 -97.342597 
L 197.884069 -96.766205 
L 200.315441 -97.461281 
L 202.746814 -99.657675 
L 205.178186 -97.353507 
L 207.609559 -94.208177 
L 210.040931 -81.121387 
L 212.472304 -93.450553 
L 214.903676 -96.400093 
L 217.335049 -96.812161 
L 219.766422 -97.501161 
L 222.197794 -94.263731 
L 224.629167 -91.9162 
L 227.060539 -74.919286 
L 229.491912 -101.04106 
L 231.923284 -101.330351 
L 234.354657 -102.249734 
L 236.786029 -69.990587 
L 239.217402 -103.178488 
L 241.648775 -94.887845 
L 244.080147 -76.021005 
L 246.51152 -94.891534 
L 248.942892 -98.468098 
L 251.374265 -98.943128 
L 253.805637 -96.813394 
L 256.23701 -96.446355 
L 258.668382 -94.938506 
L 261.099755 -72.088874 
L 261.099755 -90.547414 
L 261.099755 -90.547414 
L 258.668382 -113.901452 
L 256.23701 -115.175563 
L 253.805637 -116.122822 
L 251.374265 -117.58068 
L 248.942892 -117.763943 
L 246.51152 -115.072554 
L 244.080147 -97.055091 
L 241.648775 -115.252926 
L 239.217402 -126.626864 
L 236.786029 -85.454094 
L 234.354657 -122.624808 
L 231.923284 -121.070322 
L 229.491912 -120.267669 
L 227.060539 -93.476012 
L 224.629167 -110.839433 
L 222.197794 -112.196017 
L 219.766422 -116.307239 
L 217.335049 -114.774582 
L 214.903676 -114.687384 
L 212.472304 -112.588367 
L 210.040931 -97.645708 
L 207.609559 -112.321813 
L 205.178186 -115.659303 
L 202.746814 -118.502805 
L 200.315441 -115.927574 
L 197.884069 -116.183406 
L 195.452696 -116.492031 
L 193.021324 -91.970807 
L 190.589951 -123.31357 
z
" style="stroke: #6489a9; stroke-opacity: 0.2"/>
    </defs>
    <g clip-path="url(#p5245a8dcf5)">
     <use xlink:href="#mfaa40b7601" x="0" y="216.7525" style="fill: #6489a9; fill-opacity: 0.2; stroke: #6489a9; stroke-opacity: 0.2"/>
    </g>
   </g>
   <g id="PolyCollection_4">
    <defs>
     <path id="mc5b7b52b63" d="M 263.531127 -96.616452 
L 263.531127 -76.218819 
L 265.9625 -99.530271 
L 268.393873 -87.395321 
L 270.825245 -101.637328 
L 273.256618 -99.038739 
L 275.68799 -98.901054 
L 278.119363 -77.202303 
L 280.550735 -105.148076 
L 282.982108 -101.466814 
L 285.41348 -108.101313 
L 287.844853 -107.071089 
L 290.276225 -104.600801 
L 292.707598 -100.149052 
L 295.138971 -82.147968 
L 297.570343 -105.690724 
L 300.001716 -107.371086 
L 302.433088 -106.297247 
L 304.864461 -106.506198 
L 307.295833 -102.923884 
L 309.727206 -101.470179 
L 312.158578 -96.979733 
L 314.589951 -110.681155 
L 317.021324 -113.558359 
L 319.452696 -109.617992 
L 321.884069 -114.302928 
L 324.315441 -116.545347 
L 326.746814 -118.29407 
L 329.178186 -103.920067 
L 331.609559 -119.92578 
L 334.040931 -117.225439 
L 336.472304 -118.226089 
L 336.472304 -139.297105 
L 336.472304 -139.297105 
L 334.040931 -136.971061 
L 331.609559 -140.245757 
L 329.178186 -127.236366 
L 326.746814 -138.401451 
L 324.315441 -137.962277 
L 321.884069 -135.670485 
L 319.452696 -131.21479 
L 317.021324 -135.079605 
L 314.589951 -132.916163 
L 312.158578 -114.58691 
L 309.727206 -120.526595 
L 307.295833 -120.518463 
L 304.864461 -126.531897 
L 302.433088 -125.558668 
L 300.001716 -126.898022 
L 297.570343 -125.579559 
L 295.138971 -103.080878 
L 292.707598 -119.374099 
L 290.276225 -123.116672 
L 287.844853 -126.439379 
L 285.41348 -127.020905 
L 282.982108 -121.916665 
L 280.550735 -124.718677 
L 278.119363 -97.357495 
L 275.68799 -117.576222 
L 273.256618 -117.973733 
L 270.825245 -120.544802 
L 268.393873 -106.541691 
L 265.9625 -118.705844 
L 263.531127 -96.616452 
z
" style="stroke: #4e9a73; stroke-opacity: 0.2"/>
    </defs>
    <g clip-path="url(#p5245a8dcf5)">
     <use xlink:href="#mc5b7b52b63" x="0" y="216.7525" style="fill: #4e9a73; fill-opacity: 0.2; stroke: #4e9a73; stroke-opacity: 0.2"/>
    </g>
   </g>
   <g id="PolyCollection_5">
    <defs>
     <path id="m41a8e35409" d="M 338.903676 -142.661459 
L 338.903676 -121.824503 
L 341.335049 -125.700766 
L 343.766422 -136.40896 
L 346.197794 -100.55101 
L 348.629167 -121.428343 
L 351.060539 -119.837166 
L 353.491912 -120.945522 
L 355.923284 -126.726629 
L 358.354657 -126.026267 
L 360.786029 -131.62046 
L 363.217402 -108.109723 
L 365.648775 -130.90699 
L 368.080147 -130.551206 
L 370.51152 -126.985962 
L 372.942892 -131.96087 
L 375.374265 -130.21023 
L 377.805637 -129.180584 
L 380.23701 -115.675374 
L 382.668382 -139.719726 
L 385.099755 -145.286327 
L 387.531127 -148.621044 
L 389.9625 -142.291697 
L 392.393873 -143.998279 
L 394.825245 -140.603199 
L 397.256618 -130.461208 
L 399.68799 -95.775254 
L 402.119363 -73.918828 
L 404.550735 -101.504414 
L 406.982108 -101.821541 
L 409.41348 -102.323822 
L 409.41348 -121.360091 
L 409.41348 -121.360091 
L 406.982108 -121.653995 
L 404.550735 -119.441794 
L 402.119363 -92.625833 
L 399.68799 -111.507534 
L 397.256618 -153.748195 
L 394.825245 -164.838188 
L 392.393873 -166.453174 
L 389.9625 -163.533855 
L 387.531127 -168.696709 
L 385.099755 -167.169961 
L 382.668382 -160.182186 
L 380.23701 -138.475979 
L 377.805637 -151.22973 
L 375.374265 -151.093934 
L 372.942892 -153.065736 
L 370.51152 -149.546755 
L 368.080147 -150.264513 
L 365.648775 -153.66558 
L 363.217402 -131.387303 
L 360.786029 -152.737867 
L 358.354657 -147.140519 
L 355.923284 -146.993658 
L 353.491912 -142.268251 
L 351.060539 -142.469508 
L 348.629167 -142.743183 
L 346.197794 -123.357846 
L 343.766422 -156.95187 
L 341.335049 -147.215244 
L 338.903676 -142.661459 
z
" style="stroke: #746590; stroke-opacity: 0.2"/>
    </defs>
    <g clip-path="url(#p5245a8dcf5)">
     <use xlink:href="#m41a8e35409" x="0" y="216.7525" style="fill: #746590; fill-opacity: 0.2; stroke: #746590; stroke-opacity: 0.2"/>
    </g>
   </g>
   <g id="PolyCollection_6">
    <defs>
     <path id="me0eeb77bba" d="M 411.844853 -122.879322 
L 411.844853 -101.387561 
L 414.276225 -97.442718 
L 416.707598 -116.638261 
L 419.138971 -109.522188 
L 421.570343 -130.539927 
L 424.001716 -136.941763 
L 426.433088 -117.330487 
L 428.864461 -124.518296 
L 431.295833 -105.547775 
L 433.727206 -135.730812 
L 436.158578 -142.031442 
L 438.589951 -145.107676 
L 441.021324 -144.578651 
L 443.452696 -123.937383 
L 445.884069 -132.326604 
L 448.315441 -128.139803 
L 450.746814 -144.936388 
L 453.178186 -147.658651 
L 455.609559 -152.178357 
L 458.040931 -142.765893 
L 460.472304 -132.717566 
L 462.903676 -130.440243 
L 465.335049 -115.930864 
L 467.766422 -154.36583 
L 470.197794 -158.932034 
L 472.629167 -156.594595 
L 475.060539 -156.94741 
L 477.491912 -154.643784 
L 479.923284 -155.381797 
L 482.354657 -135.81362 
L 484.786029 -160.277071 
L 484.786029 -180.816097 
L 484.786029 -180.816097 
L 482.354657 -154.757543 
L 479.923284 -175.257804 
L 477.491912 -173.768402 
L 475.060539 -178.061757 
L 472.629167 -176.446744 
L 470.197794 -179.458833 
L 467.766422 -176.730908 
L 465.335049 -135.946792 
L 462.903676 -149.9179 
L 460.472304 -151.784615 
L 458.040931 -163.239333 
L 455.609559 -174.464271 
L 453.178186 -167.794801 
L 450.746814 -164.834975 
L 448.315441 -146.546024 
L 445.884069 -152.802348 
L 443.452696 -141.907555 
L 441.021324 -163.037652 
L 438.589951 -165.841687 
L 436.158578 -160.981373 
L 433.727206 -156.160768 
L 431.295833 -124.439963 
L 428.864461 -144.864398 
L 426.433088 -135.541349 
L 424.001716 -157.770515 
L 421.570343 -151.638392 
L 419.138971 -130.658405 
L 416.707598 -137.526003 
L 414.276225 -115.564937 
L 411.844853 -122.879322 
z
" style="stroke: #d37f53; stroke-opacity: 0.2"/>
    </defs>
    <g clip-path="url(#p5245a8dcf5)">
     <use xlink:href="#me0eeb77bba" x="0" y="216.7525" style="fill: #d37f53; fill-opacity: 0.2; stroke: #d37f53; stroke-opacity: 0.2"/>
    </g>
   </g>
   <g id="line2d_33">
    <path d="M 47.138971 112.430391 
L 49.570343 107.78683 
L 52.001716 118.278427 
L 54.433088 118.914446 
L 56.864461 140.967379 
L 59.295833 120.068832 
L 61.727206 118.499752 
L 64.158578 119.190132 
L 66.589951 118.47995 
L 69.021324 118.526156 
L 71.452696 115.376736 
L 73.884069 125.228819 
L 76.315441 103.4838 
L 78.746814 127.975194 
L 81.178186 116.601014 
L 83.609559 112.579106 
L 86.040931 109.891362 
L 88.472304 111.897269 
L 90.903676 124.555136 
L 93.335049 105.410495 
L 95.766422 107.300303 
L 98.197794 108.68378 
L 100.629167 101.102029 
L 103.060539 113.477221 
L 105.491912 119.215371 
L 107.923284 124.949638 
L 110.354657 112.63269 
L 112.786029 114.215748 
" clip-path="url(#p5245a8dcf5)" style="fill: none; stroke: #5b5b5b; stroke-width: 1.2; stroke-linecap: square"/>
   </g>
   <g id="line2d_34">
    <path d="M 115.217402 114.531626 
L 117.648775 115.933469 
L 120.080147 115.126678 
L 122.51152 115.876538 
L 124.942892 129.429763 
L 127.374265 106.780743 
L 129.805637 114.719579 
L 132.23701 100.867657 
L 134.668382 114.138955 
L 137.099755 116.483288 
L 139.531127 116.413878 
L 141.9625 129.938638 
L 144.393873 111.453032 
L 146.825245 115.141886 
L 149.256618 102.298745 
L 151.68799 101.194429 
L 154.119363 111.80554 
L 156.550735 114.907141 
L 158.982108 126.567977 
L 161.41348 114.634181 
L 163.844853 118.332394 
L 166.276225 111.951378 
L 168.707598 114.188867 
L 171.138971 119.924139 
L 173.570343 122.541432 
L 176.001716 129.25312 
L 178.433088 109.355142 
L 180.864461 117.34818 
L 183.295833 97.119531 
L 185.727206 106.224685 
L 188.158578 113.079871 
" clip-path="url(#p5245a8dcf5)" style="fill: none; stroke: #b45f58; stroke-width: 1.2; stroke-linecap: square"/>
   </g>
   <g id="line2d_35">
    <path d="M 190.589951 102.841678 
L 193.021324 134.067908 
L 195.452696 109.660455 
L 197.884069 110.505602 
L 200.315441 109.811177 
L 202.746814 107.484065 
L 205.178186 110.382105 
L 207.609559 113.420213 
L 210.040931 127.622383 
L 212.472304 113.652214 
L 214.903676 111.173986 
L 217.335049 110.946325 
L 219.766422 110.324105 
L 222.197794 113.256471 
L 224.629167 115.338956 
L 227.060539 131.993314 
L 229.491912 105.853745 
L 231.923284 105.295838 
L 234.354657 104.947047 
L 236.786029 139.380257 
L 239.217402 101.832 
L 241.648775 111.939431 
L 244.080147 130.666015 
L 246.51152 111.808437 
L 248.942892 108.242014 
L 251.374265 108.625131 
L 253.805637 109.731476 
L 256.23701 110.817304 
L 258.668382 112.284276 
L 261.099755 135.206606 
" clip-path="url(#p5245a8dcf5)" style="fill: none; stroke: #6489a9; stroke-width: 1.2; stroke-linecap: square"/>
   </g>
   <g id="line2d_36">
    <path d="M 263.531127 130.82847 
L 265.9625 107.297431 
L 268.393873 119.940257 
L 270.825245 105.727093 
L 273.256618 108.59937 
L 275.68799 108.643435 
L 278.119363 129.612259 
L 280.550735 102.123327 
L 282.982108 105.047681 
L 285.41348 98.983451 
L 287.844853 99.782241 
L 290.276225 103.344345 
L 292.707598 106.8063 
L 295.138971 123.808417 
L 297.570343 100.947977 
L 300.001716 100.27898 
L 302.433088 100.726847 
L 304.864461 100.102718 
L 307.295833 105.343321 
L 309.727206 105.8665 
L 312.158578 111.212861 
L 314.589951 94.884548 
L 317.021324 92.973703 
L 319.452696 95.978176 
L 321.884069 91.933754 
L 324.315441 89.509344 
L 326.746814 88.665688 
L 329.178186 101.741158 
L 331.609559 86.865407 
L 334.040931 89.03664 
L 336.472304 88.460582 
" clip-path="url(#p5245a8dcf5)" style="fill: none; stroke: #4e9a73; stroke-width: 1.2; stroke-linecap: square"/>
   </g>
   <g id="line2d_37">
    <path d="M 338.903676 85.156112 
L 341.335049 80.066547 
L 343.766422 70.266909 
L 346.197794 104.545009 
L 348.629167 84.244198 
L 351.060539 85.801815 
L 353.491912 85.321179 
L 355.923284 80.257507 
L 358.354657 80.106195 
L 360.786029 74.1298 
L 363.217402 96.650924 
L 365.648775 74.383064 
L 368.080147 76.449638 
L 370.51152 78.224917 
L 372.942892 74.320759 
L 375.374265 75.62754 
L 377.805637 76.125977 
L 380.23701 89.515013 
L 382.668382 67.209933 
L 385.099755 60.586216 
L 387.531127 57.839954 
L 389.9625 64.183705 
L 392.393873 61.497321 
L 394.825245 64.127873 
L 397.256618 75.065988 
L 399.68799 113.186751 
L 402.119363 133.236726 
L 404.550735 105.939987 
L 406.982108 105.338787 
L 409.41348 105.178171 
" clip-path="url(#p5245a8dcf5)" style="fill: none; stroke: #746590; stroke-width: 1.2; stroke-linecap: square"/>
   </g>
   <g id="line2d_38">
    <path d="M 411.844853 104.637315 
L 414.276225 110.326284 
L 416.707598 89.532624 
L 419.138971 96.761654 
L 421.570343 75.730936 
L 424.001716 69.629146 
L 426.433088 89.913783 
L 428.864461 82.293852 
L 431.295833 101.734986 
L 433.727206 71.372167 
L 436.158578 65.325582 
L 438.589951 61.548496 
L 441.021324 62.994789 
L 443.452696 83.710107 
L 445.884069 74.356085 
L 448.315441 79.549832 
L 450.746814 62.00475 
L 453.178186 58.664434 
L 455.609559 53.125249 
L 458.040931 63.381631 
L 460.472304 74.733185 
L 462.903676 76.735183 
L 465.335049 90.931424 
L 467.766422 51.316875 
L 470.197794 47.590935 
L 472.629167 50.159597 
L 475.060539 48.757956 
L 477.491912 52.512716 
L 479.923284 51.706153 
L 482.354657 71.746019 
L 484.786029 46.343137 
" clip-path="url(#p5245a8dcf5)" style="fill: none; stroke: #d37f53; stroke-width: 1.2; stroke-linecap: square"/>
   </g>
   <g id="line2d_39"/>
   <g id="line2d_40"/>
   <g id="line2d_41"/>
   <g id="line2d_42"/>
   <g id="line2d_43"/>
   <g id="line2d_44"/>
   <g id="patch_4">
    <path d="M 38.7625 170.84125 
L 38.7625 33.386575 
" style="fill: none; stroke: #cccccc; stroke-width: 0.75; stroke-linejoin: miter; stroke-linecap: square"/>
   </g>
   <g id="patch_5">
    <path d="M 47.138971 178.34125 
L 487.217402 178.34125 
" style="fill: none; stroke: #cccccc; stroke-width: 0.75; stroke-linejoin: miter; stroke-linecap: square"/>
   </g>
   <g id="legend_1">
    <g id="line2d_45">
     <defs>
      <path id="m900f69b7fc" d="M 0 1.5 
C 0.397805 1.5 0.77937 1.341951 1.06066 1.06066 
C 1.341951 0.77937 1.5 0.397805 1.5 0 
C 1.5 -0.397805 1.341951 -0.77937 1.06066 -1.06066 
C 0.77937 -1.341951 0.397805 -1.5 0 -1.5 
C -0.397805 -1.5 -0.77937 -1.341951 -1.06066 -1.06066 
C -1.341951 -0.77937 -1.5 -0.397805 -1.5 0 
C -1.5 0.397805 -1.341951 0.77937 -1.06066 1.06066 
C -0.77937 1.341951 -0.397805 1.5 0 1.5 
z
" style="stroke: #5b5b5b"/>
     </defs>
     <g>
      <use xlink:href="#m900f69b7fc" x="57.9625" y="13.8075" style="fill: #5b5b5b; stroke: #5b5b5b"/>
     </g>
    </g>
    <g id="text_33">
     <!-- February -->
     <g style="fill: #4b4b4b" transform="translate(65.9625 16.6075) scale(0.08 -0.08)">
      <use xlink:href="#Ubuntu-46"/>
      <use xlink:href="#Ubuntu-65" x="52.324997"/>
      <use xlink:href="#Ubuntu-62" x="108.224991"/>
      <use xlink:href="#Ubuntu-72" x="167.124985"/>
      <use xlink:href="#Ubuntu-75" x="205.724976"/>
      <use xlink:href="#Ubuntu-61" x="263.124969"/>
      <use xlink:href="#Ubuntu-72" x="315.324966"/>
      <use xlink:href="#Ubuntu-79" x="356.049957"/>
     </g>
    </g>
    <g id="line2d_46">
     <defs>
      <path id="m600d32eed9" d="M 0 1.5 
C 0.397805 1.5 0.77937 1.341951 1.06066 1.06066 
C 1.341951 0.77937 1.5 0.397805 1.5 0 
C 1.5 -0.397805 1.341951 -0.77937 1.06066 -1.06066 
C 0.77937 -1.341951 0.397805 -1.5 0 -1.5 
C -0.397805 -1.5 -0.77937 -1.341951 -1.06066 -1.06066 
C -1.341951 -0.77937 -1.5 -0.397805 -1.5 0 
C -1.5 0.397805 -1.341951 0.77937 -1.06066 1.06066 
C -0.77937 1.341951 -0.397805 1.5 0 1.5 
z
" style="stroke: #b45f58"/>
     </defs>
     <g>
      <use xlink:href="#m600d32eed9" x="122.42375" y="13.8075" style="fill: #b45f58; stroke: #b45f58"/>
     </g>
    </g>
    <g id="text_34">
     <!-- March -->
     <g style="fill: #4b4b4b" transform="translate(130.42375 16.6075) scale(0.08 -0.08)">
      <use xlink:href="#Ubuntu-4d"/>
      <use xlink:href="#Ubuntu-61" x="87.099991"/>
      <use xlink:href="#Ubuntu-72" x="139.299988"/>
      <use xlink:href="#Ubuntu-63" x="177.899979"/>
      <use xlink:href="#Ubuntu-68" x="224.399963"/>
     </g>
    </g>
    <g id="line2d_47">
     <defs>
      <path id="m82d05c86a1" d="M 0 1.5 
C 0.397805 1.5 0.77937 1.341951 1.06066 1.06066 
C 1.341951 0.77937 1.5 0.397805 1.5 0 
C 1.5 -0.397805 1.341951 -0.77937 1.06066 -1.06066 
C 0.77937 -1.341951 0.397805 -1.5 0 -1.5 
C -0.397805 -1.5 -0.77937 -1.341951 -1.06066 -1.06066 
C -1.341951 -0.77937 -1.5 -0.397805 -1.5 0 
C -1.5 0.397805 -1.341951 0.77937 -1.06066 1.06066 
C -0.77937 1.341951 -0.397805 1.5 0 1.5 
z
" style="stroke: #6489a9"/>
     </defs>
     <g>
      <use xlink:href="#m82d05c86a1" x="176.9425" y="13.8075" style="fill: #6489a9; stroke: #6489a9"/>
     </g>
    </g>
    <g id="text_35">
     <!-- April -->
     <g style="fill: #4b4b4b" transform="translate(184.9425 16.6075) scale(0.08 -0.08)">
      <use xlink:href="#Ubuntu-41"/>
      <use xlink:href="#Ubuntu-70" x="66.299988"/>
      <use xlink:href="#Ubuntu-72" x="125.199982"/>
      <use xlink:href="#Ubuntu-69" x="163.799973"/>
      <use xlink:href="#Ubuntu-6c" x="189.09996"/>
     </g>
    </g>
    <g id="line2d_48">
     <defs>
      <path id="mbf68aad4eb" d="M 0 1.5 
C 0.397805 1.5 0.77937 1.341951 1.06066 1.06066 
C 1.341951 0.77937 1.5 0.397805 1.5 0 
C 1.5 -0.397805 1.341951 -0.77937 1.06066 -1.06066 
C 0.77937 -1.341951 0.397805 -1.5 0 -1.5 
C -0.397805 -1.5 -0.77937 -1.341951 -1.06066 -1.06066 
C -1.341951 -0.77937 -1.5 -0.397805 -1.5 0 
C -1.5 0.397805 -1.341951 0.77937 -1.06066 1.06066 
C -0.77937 1.341951 -0.397805 1.5 0 1.5 
z
" style="stroke: #4e9a73"/>
     </defs>
     <g>
      <use xlink:href="#mbf68aad4eb" x="226.25375" y="13.8075" style="fill: #4e9a73; stroke: #4e9a73"/>
     </g>
    </g>
    <g id="text_36">
     <!-- May -->
     <g style="fill: #4b4b4b" transform="translate(234.25375 16.6075) scale(0.08 -0.08)">
      <use xlink:href="#Ubuntu-4d"/>
      <use xlink:href="#Ubuntu-61" x="87.099991"/>
      <use xlink:href="#Ubuntu-79" x="137.799988"/>
     </g>
    </g>
    <g id="line2d_49">
     <defs>
      <path id="m4fc9698664" d="M 0 1.5 
C 0.397805 1.5 0.77937 1.341951 1.06066 1.06066 
C 1.341951 0.77937 1.5 0.397805 1.5 0 
C 1.5 -0.397805 1.341951 -0.77937 1.06066 -1.06066 
C 0.77937 -1.341951 0.397805 -1.5 0 -1.5 
C -0.397805 -1.5 -0.77937 -1.341951 -1.06066 -1.06066 
C -1.341951 -0.77937 -1.5 -0.397805 -1.5 0 
C -1.5 0.397805 -1.341951 0.77937 -1.06066 1.06066 
C -0.77937 1.341951 -0.397805 1.5 0 1.5 
z
" style="stroke: #746590"/>
     </defs>
     <g>
      <use xlink:href="#m4fc9698664" x="273.25375" y="13.8075" style="fill: #746590; stroke: #746590"/>
     </g>
    </g>
    <g id="text_37">
     <!-- June -->
     <g style="fill: #4b4b4b" transform="translate(281.25375 16.6075) scale(0.08 -0.08)">
      <use xlink:href="#Ubuntu-4a"/>
      <use xlink:href="#Ubuntu-75" x="49.999985"/>
      <use xlink:href="#Ubuntu-6e" x="107.399979"/>
      <use xlink:href="#Ubuntu-65" x="164.799973"/>
     </g>
    </g>
    <g id="line2d_50">
     <defs>
      <path id="mfbde0ff022" d="M 0 1.5 
C 0.397805 1.5 0.77937 1.341951 1.06066 1.06066 
C 1.341951 0.77937 1.5 0.397805 1.5 0 
C 1.5 -0.397805 1.341951 -0.77937 1.06066 -1.06066 
C 0.77937 -1.341951 0.397805 -1.5 0 -1.5 
C -0.397805 -1.5 -0.77937 -1.341951 -1.06066 -1.06066 
C -1.341951 -0.77937 -1.5 -0.397805 -1.5 0 
C -1.5 0.397805 -1.341951 0.77937 -1.06066 1.06066 
C -0.77937 1.341951 -0.397805 1.5 0 1.5 
z
" style="stroke: #d37f53"/>
     </defs>
     <g>
      <use xlink:href="#mfbde0ff022" x="322.91125" y="13.8075" style="fill: #d37f53; stroke: #d37f53"/>
     </g>
    </g>
    <g id="text_38">
     <!-- July -->
     <g style="fill: #4b4b4b" transform="translate(330.91125 16.6075) scale(0.08 -0.08)">
      <use xlink:href="#Ubuntu-4a"/>
      <use xlink:href="#Ubuntu-75" x="49.999985"/>
      <use xlink:href="#Ubuntu-6c" x="107.399979"/>
      <use xlink:href="#Ubuntu-79" x="134.699966"/>
     </g>
    </g>
   </g>
  </g>
 </g>
 <defs>
  <clipPath id="p02ddacd36f">
   <rect x="42.7625" y="170.84125" width="446.4" height="0"/>
  </clipPath>
  <clipPath id="p5245a8dcf5">
   <rect x="42.7625" y="32.24125" width="446.4" height="138.6"/>
  </clipPath>
 </defs>
</svg>
