<?xml version="1.0" encoding="utf-8" standalone="no"?>
<!DOCTYPE svg PUBLIC "-//W3C//DTD SVG 1.1//EN"
  "http://www.w3.org/Graphics/SVG/1.1/DTD/svg11.dtd">
<svg xmlns:xlink="http://www.w3.org/1999/xlink" width="497.429902pt" height="216.7525pt" viewBox="0 0 497.429902 216.7525" xmlns="http://www.w3.org/2000/svg" version="1.1">
 <metadata>
  <rdf:RDF xmlns:dc="http://purl.org/dc/elements/1.1/" xmlns:cc="http://creativecommons.org/ns#" xmlns:rdf="http://www.w3.org/1999/02/22-rdf-syntax-ns#">
   <cc:Work>
    <dc:type rdf:resource="http://purl.org/dc/dcmitype/StillImage"/>
    <dc:date>2024-05-17T10:57:20.889079</dc:date>
    <dc:format>image/svg+xml</dc:format>
    <dc:creator>
     <cc:Agent>
      <dc:title>Matplotlib v3.8.3, https://matplotlib.org/</dc:title>
     </cc:Agent>
    </dc:creator>
   </cc:Work>
  </rdf:RDF>
 </metadata>
 <defs>
  <style type="text/css">*{stroke-linejoin: round; stroke-linecap: butt}</style>
 </defs>
 <g id="figure_1">
  <g id="patch_1">
   <path d="M 0 216.7525 
L 497.429902 216.7525 
L 497.429902 0 
L 0 0 
L 0 216.7525 
z
" style="fill: none"/>
  </g>
  <g id="axes_1">
   <g id="patch_2">
    <path d="M 41.2625 170.84125 
L 487.6625 170.84125 
L 487.6625 32.24125 
L 41.2625 32.24125 
L 41.2625 170.84125 
z
" style="fill: none"/>
   </g>
   <g id="axes_2">
    <g id="patch_3">
     <path d="M 41.2625 170.84125 
L 487.6625 170.84125 
L 487.6625 170.84125 
L 41.2625 170.84125 
L 41.2625 170.84125 
z
" style="fill: none"/>
    </g>
    <g id="matplotlib.axis_1">
     <g id="xtick_1">
      <g id="line2d_1">
       <path d="M 79.678186 170.84125 
L 79.678186 170.84125 
" clip-path="url(#p5f71bc72a4)" style="fill: none; stroke-dasharray: 0.5,0.825; stroke-dashoffset: 0; stroke: #d9d9d9; stroke-width: 0.5"/>
      </g>
      <g id="text_1">
       <!-- February -->
       <g style="fill: #808080" transform="translate(63.447561 208.04875) scale(0.08 -0.08)">
        <defs>
         <path id="Ubuntu-46" d="M 550 0 
L 550 4435 
L 3226 4435 
L 3226 3904 
L 1171 3904 
L 1171 2566 
L 2995 2566 
L 2995 2042 
L 1171 2042 
L 1171 0 
L 550 0 
z
" transform="scale(0.015625)"/>
         <path id="Ubuntu-65" d="M 326 1658 
Q 326 2099 454 2428 
Q 582 2758 793 2976 
Q 1005 3194 1280 3302 
Q 1555 3411 1843 3411 
Q 2515 3411 2873 2992 
Q 3232 2573 3232 1715 
Q 3232 1677 3232 1616 
Q 3232 1555 3226 1504 
L 947 1504 
Q 986 986 1248 717 
Q 1510 448 2067 448 
Q 2381 448 2595 502 
Q 2810 557 2918 608 
L 3002 109 
Q 2893 51 2621 -13 
Q 2349 -77 2003 -77 
Q 1568 -77 1251 54 
Q 934 186 729 416 
Q 525 646 425 963 
Q 326 1280 326 1658 
z
M 2611 1984 
Q 2618 2387 2410 2646 
Q 2202 2906 1837 2906 
Q 1632 2906 1475 2826 
Q 1318 2746 1209 2618 
Q 1101 2490 1040 2323 
Q 979 2157 960 1984 
L 2611 1984 
z
" transform="scale(0.015625)"/>
         <path id="Ubuntu-62" d="M 1107 3181 
Q 1216 3251 1437 3328 
Q 1658 3405 1946 3405 
Q 2304 3405 2582 3277 
Q 2861 3149 3053 2918 
Q 3245 2688 3344 2368 
Q 3443 2048 3443 1664 
Q 3443 1261 3324 937 
Q 3206 614 2988 390 
Q 2771 166 2464 44 
Q 2157 -77 1773 -77 
Q 1357 -77 1037 -19 
Q 717 38 512 96 
L 512 4864 
L 1107 4966 
L 1107 3181 
z
M 1107 518 
Q 1197 493 1360 470 
Q 1523 448 1766 448 
Q 2246 448 2534 765 
Q 2822 1082 2822 1664 
Q 2822 1920 2771 2144 
Q 2720 2368 2605 2531 
Q 2490 2694 2307 2787 
Q 2125 2880 1869 2880 
Q 1626 2880 1421 2797 
Q 1216 2714 1107 2624 
L 1107 518 
z
" transform="scale(0.015625)"/>
         <path id="Ubuntu-72" d="M 1741 3398 
Q 1818 3398 1917 3388 
Q 2016 3379 2112 3363 
Q 2208 3347 2288 3331 
Q 2368 3315 2406 3302 
L 2304 2784 
Q 2234 2810 2070 2845 
Q 1907 2880 1651 2880 
Q 1485 2880 1321 2845 
Q 1158 2810 1107 2797 
L 1107 0 
L 512 0 
L 512 3187 
Q 723 3264 1036 3331 
Q 1350 3398 1741 3398 
z
" transform="scale(0.015625)"/>
         <path id="Ubuntu-75" d="M 3162 96 
Q 2957 45 2621 -12 
Q 2285 -70 1843 -70 
Q 1459 -70 1196 42 
Q 934 154 774 358 
Q 614 563 544 841 
Q 474 1120 474 1459 
L 474 3328 
L 1069 3328 
L 1069 1587 
Q 1069 979 1261 716 
Q 1453 454 1907 454 
Q 2003 454 2105 460 
Q 2208 467 2297 476 
Q 2387 486 2460 496 
Q 2534 506 2566 518 
L 2566 3328 
L 3162 3328 
L 3162 96 
z
" transform="scale(0.015625)"/>
         <path id="Ubuntu-61" d="M 1638 429 
Q 1850 429 2013 438 
Q 2176 448 2285 474 
L 2285 1466 
Q 2221 1498 2077 1520 
Q 1933 1542 1728 1542 
Q 1594 1542 1443 1523 
Q 1293 1504 1168 1443 
Q 1043 1382 960 1276 
Q 877 1171 877 998 
Q 877 678 1081 553 
Q 1286 429 1638 429 
z
M 1587 3411 
Q 1946 3411 2192 3318 
Q 2438 3226 2588 3056 
Q 2739 2886 2803 2652 
Q 2867 2419 2867 2138 
L 2867 58 
Q 2790 45 2652 22 
Q 2515 0 2342 -19 
Q 2170 -38 1968 -54 
Q 1766 -70 1568 -70 
Q 1286 -70 1049 -12 
Q 813 45 640 169 
Q 467 294 371 499 
Q 275 704 275 992 
Q 275 1267 387 1465 
Q 499 1664 691 1785 
Q 883 1907 1139 1964 
Q 1395 2022 1677 2022 
Q 1766 2022 1862 2012 
Q 1958 2003 2044 1987 
Q 2131 1971 2195 1958 
Q 2259 1946 2285 1939 
L 2285 2106 
Q 2285 2253 2253 2397 
Q 2221 2541 2137 2653 
Q 2054 2765 1910 2832 
Q 1766 2899 1536 2899 
Q 1242 2899 1021 2857 
Q 800 2816 691 2771 
L 621 3264 
Q 736 3315 1005 3363 
Q 1274 3411 1587 3411 
z
" transform="scale(0.015625)"/>
         <path id="Ubuntu-79" d="M 122 -621 
Q 192 -653 304 -681 
Q 416 -710 525 -710 
Q 877 -710 1075 -553 
Q 1274 -397 1434 -45 
Q 1030 723 681 1584 
Q 333 2445 102 3328 
L 742 3328 
Q 813 3040 912 2707 
Q 1011 2374 1132 2022 
Q 1254 1670 1395 1318 
Q 1536 966 1690 640 
Q 1933 1312 2112 1971 
Q 2291 2630 2451 3328 
L 3066 3328 
Q 2835 2387 2553 1520 
Q 2272 653 1946 -102 
Q 1818 -390 1680 -598 
Q 1542 -806 1376 -940 
Q 1210 -1075 1002 -1139 
Q 794 -1203 531 -1203 
Q 461 -1203 384 -1193 
Q 307 -1184 233 -1168 
Q 160 -1152 99 -1133 
Q 38 -1114 13 -1101 
L 122 -621 
z
" transform="scale(0.015625)"/>
        </defs>
        <use xlink:href="#Ubuntu-46"/>
        <use xlink:href="#Ubuntu-65" x="52.324997"/>
        <use xlink:href="#Ubuntu-62" x="108.224991"/>
        <use xlink:href="#Ubuntu-72" x="167.124985"/>
        <use xlink:href="#Ubuntu-75" x="205.724976"/>
        <use xlink:href="#Ubuntu-61" x="263.124969"/>
        <use xlink:href="#Ubuntu-72" x="315.324966"/>
        <use xlink:href="#Ubuntu-79" x="356.049957"/>
       </g>
      </g>
     </g>
     <g id="xtick_2">
      <g id="line2d_2">
       <path d="M 147.756618 170.84125 
L 147.756618 170.84125 
" clip-path="url(#p5f71bc72a4)" style="fill: none; stroke-dasharray: 0.5,0.825; stroke-dashoffset: 0; stroke: #d9d9d9; stroke-width: 0.5"/>
      </g>
      <g id="text_2">
       <!-- March -->
       <g style="fill: #808080" transform="translate(136.497243 208.04875) scale(0.08 -0.08)">
        <defs>
         <path id="Ubuntu-4d" d="M 2541 614 
Q 2477 768 2371 1005 
Q 2266 1242 2144 1517 
Q 2022 1792 1884 2083 
Q 1747 2374 1625 2633 
Q 1504 2893 1398 3097 
Q 1293 3302 1229 3411 
Q 1158 2656 1113 1776 
Q 1069 896 1037 0 
L 429 0 
Q 454 576 486 1161 
Q 518 1747 560 2313 
Q 602 2880 650 3417 
Q 698 3955 755 4435 
L 1299 4435 
Q 1472 4154 1670 3770 
Q 1869 3386 2067 2966 
Q 2266 2547 2451 2128 
Q 2637 1709 2790 1363 
Q 2944 1709 3129 2128 
Q 3315 2547 3513 2966 
Q 3712 3386 3910 3770 
Q 4109 4154 4282 4435 
L 4826 4435 
Q 5043 2291 5152 0 
L 4544 0 
Q 4512 896 4467 1776 
Q 4422 2656 4352 3411 
Q 4288 3302 4182 3097 
Q 4077 2893 3955 2633 
Q 3834 2374 3696 2083 
Q 3558 1792 3436 1517 
Q 3315 1242 3209 1005 
Q 3104 768 3040 614 
L 2541 614 
z
" transform="scale(0.015625)"/>
         <path id="Ubuntu-63" d="M 1958 -77 
Q 1555 -77 1251 51 
Q 947 179 739 409 
Q 531 640 428 957 
Q 326 1274 326 1658 
Q 326 2042 438 2362 
Q 550 2682 755 2915 
Q 960 3149 1257 3280 
Q 1555 3411 1920 3411 
Q 2144 3411 2368 3372 
Q 2592 3334 2797 3251 
L 2662 2746 
Q 2528 2810 2352 2848 
Q 2176 2886 1978 2886 
Q 1478 2886 1212 2572 
Q 947 2259 947 1658 
Q 947 1389 1008 1165 
Q 1069 941 1200 781 
Q 1331 621 1536 534 
Q 1741 448 2035 448 
Q 2272 448 2464 493 
Q 2656 538 2765 589 
L 2848 90 
Q 2797 58 2701 29 
Q 2605 0 2483 -22 
Q 2362 -45 2224 -61 
Q 2086 -77 1958 -77 
z
" transform="scale(0.015625)"/>
         <path id="Ubuntu-68" d="M 512 0 
L 512 4864 
L 1107 4966 
L 1107 3264 
Q 1274 3328 1462 3363 
Q 1651 3398 1837 3398 
Q 2234 3398 2496 3286 
Q 2758 3174 2915 2972 
Q 3072 2771 3136 2489 
Q 3200 2208 3200 1869 
L 3200 0 
L 2605 0 
L 2605 1741 
Q 2605 2048 2563 2265 
Q 2522 2483 2426 2617 
Q 2330 2752 2170 2813 
Q 2010 2874 1773 2874 
Q 1677 2874 1574 2861 
Q 1472 2848 1379 2832 
Q 1286 2816 1212 2797 
Q 1139 2778 1107 2765 
L 1107 0 
L 512 0 
z
" transform="scale(0.015625)"/>
        </defs>
        <use xlink:href="#Ubuntu-4d"/>
        <use xlink:href="#Ubuntu-61" x="87.099991"/>
        <use xlink:href="#Ubuntu-72" x="139.299988"/>
        <use xlink:href="#Ubuntu-63" x="177.899979"/>
        <use xlink:href="#Ubuntu-68" x="224.399963"/>
       </g>
      </g>
     </g>
     <g id="xtick_3">
      <g id="line2d_3">
       <path d="M 223.129167 170.84125 
L 223.129167 170.84125 
" clip-path="url(#p5f71bc72a4)" style="fill: none; stroke-dasharray: 0.5,0.825; stroke-dashoffset: 0; stroke: #d9d9d9; stroke-width: 0.5"/>
      </g>
      <g id="text_3">
       <!-- April -->
       <g style="fill: #808080" transform="translate(214.473542 208.04875) scale(0.08 -0.08)">
        <defs>
         <path id="Ubuntu-41" d="M 3514 0 
Q 3405 288 3309 566 
Q 3213 845 3110 1133 
L 1101 1133 
L 698 0 
L 51 0 
Q 307 704 531 1302 
Q 755 1901 969 2438 
Q 1184 2976 1395 3465 
Q 1606 3955 1837 4435 
L 2406 4435 
Q 2637 3955 2848 3465 
Q 3059 2976 3273 2438 
Q 3488 1901 3712 1302 
Q 3936 704 4192 0 
L 3514 0 
z
M 2931 1645 
Q 2726 2202 2524 2723 
Q 2323 3245 2106 3725 
Q 1882 3245 1680 2723 
Q 1478 2202 1280 1645 
L 2931 1645 
z
" transform="scale(0.015625)"/>
         <path id="Ubuntu-70" d="M 2822 1658 
Q 2822 2240 2534 2553 
Q 2246 2867 1766 2867 
Q 1498 2867 1347 2848 
Q 1197 2829 1107 2803 
L 1107 704 
Q 1216 614 1421 531 
Q 1626 448 1869 448 
Q 2125 448 2307 541 
Q 2490 634 2605 797 
Q 2720 960 2771 1181 
Q 2822 1402 2822 1658 
z
M 3443 1658 
Q 3443 1280 3344 960 
Q 3245 640 3053 409 
Q 2861 179 2582 51 
Q 2304 -77 1946 -77 
Q 1658 -77 1437 0 
Q 1216 77 1107 147 
L 1107 -1184 
L 512 -1184 
L 512 3226 
Q 723 3277 1040 3337 
Q 1357 3398 1773 3398 
Q 2157 3398 2464 3276 
Q 2771 3155 2988 2931 
Q 3206 2707 3324 2384 
Q 3443 2061 3443 1658 
z
" transform="scale(0.015625)"/>
         <path id="Ubuntu-69" d="M 1107 0 
L 512 0 
L 512 3328 
L 1107 3328 
L 1107 0 
z
M 806 3930 
Q 646 3930 534 4035 
Q 422 4141 422 4320 
Q 422 4499 534 4604 
Q 646 4710 806 4710 
Q 966 4710 1078 4604 
Q 1190 4499 1190 4320 
Q 1190 4141 1078 4035 
Q 966 3930 806 3930 
z
" transform="scale(0.015625)"/>
         <path id="Ubuntu-6c" d="M 1510 -64 
Q 960 -51 729 173 
Q 499 397 499 870 
L 499 4864 
L 1094 4966 
L 1094 966 
Q 1094 819 1120 723 
Q 1146 627 1203 569 
Q 1261 512 1357 483 
Q 1453 454 1594 435 
L 1510 -64 
z
" transform="scale(0.015625)"/>
        </defs>
        <use xlink:href="#Ubuntu-41"/>
        <use xlink:href="#Ubuntu-70" x="66.299988"/>
        <use xlink:href="#Ubuntu-72" x="125.199982"/>
        <use xlink:href="#Ubuntu-69" x="163.799973"/>
        <use xlink:href="#Ubuntu-6c" x="189.09996"/>
       </g>
      </g>
     </g>
     <g id="xtick_4">
      <g id="line2d_4">
       <path d="M 296.070343 170.84125 
L 296.070343 170.84125 
" clip-path="url(#p5f71bc72a4)" style="fill: none; stroke-dasharray: 0.5,0.825; stroke-dashoffset: 0; stroke: #d9d9d9; stroke-width: 0.5"/>
      </g>
      <g id="text_4">
       <!-- May -->
       <g style="fill: #808080" transform="translate(288.570343 208.025) scale(0.08 -0.08)">
        <use xlink:href="#Ubuntu-4d"/>
        <use xlink:href="#Ubuntu-61" x="87.099991"/>
        <use xlink:href="#Ubuntu-79" x="137.799988"/>
       </g>
      </g>
     </g>
     <g id="xtick_5">
      <g id="line2d_5">
       <path d="M 371.442892 170.84125 
L 371.442892 170.84125 
" clip-path="url(#p5f71bc72a4)" style="fill: none; stroke-dasharray: 0.5,0.825; stroke-dashoffset: 0; stroke: #d9d9d9; stroke-width: 0.5"/>
      </g>
      <g id="text_5">
       <!-- June -->
       <g style="fill: #808080" transform="translate(362.614142 208.04875) scale(0.08 -0.08)">
        <defs>
         <path id="Ubuntu-4a" d="M 2682 1427 
Q 2682 1107 2614 832 
Q 2547 557 2377 349 
Q 2208 141 1923 22 
Q 1638 -96 1210 -96 
Q 992 -96 809 -61 
Q 627 -26 480 28 
Q 333 83 224 144 
Q 115 205 51 262 
L 294 755 
Q 429 659 643 553 
Q 858 448 1178 448 
Q 1638 448 1849 681 
Q 2061 915 2061 1485 
L 2061 4435 
L 2682 4435 
L 2682 1427 
z
" transform="scale(0.015625)"/>
         <path id="Ubuntu-6e" d="M 512 3232 
Q 717 3283 1056 3340 
Q 1395 3398 1837 3398 
Q 2234 3398 2496 3286 
Q 2758 3174 2915 2972 
Q 3072 2771 3136 2489 
Q 3200 2208 3200 1869 
L 3200 0 
L 2605 0 
L 2605 1741 
Q 2605 2048 2563 2265 
Q 2522 2483 2426 2617 
Q 2330 2752 2170 2813 
Q 2010 2874 1773 2874 
Q 1677 2874 1574 2867 
Q 1472 2861 1379 2851 
Q 1286 2842 1212 2829 
Q 1139 2816 1107 2810 
L 1107 0 
L 512 0 
L 512 3232 
z
" transform="scale(0.015625)"/>
        </defs>
        <use xlink:href="#Ubuntu-4a"/>
        <use xlink:href="#Ubuntu-75" x="49.999985"/>
        <use xlink:href="#Ubuntu-6e" x="107.399979"/>
        <use xlink:href="#Ubuntu-65" x="164.799973"/>
       </g>
      </g>
     </g>
     <g id="xtick_6">
      <g id="line2d_6">
       <path d="M 444.384069 170.84125 
L 444.384069 170.84125 
" clip-path="url(#p5f71bc72a4)" style="fill: none; stroke-dasharray: 0.5,0.825; stroke-dashoffset: 0; stroke: #d9d9d9; stroke-width: 0.5"/>
      </g>
      <g id="text_6">
       <!-- July -->
       <g style="fill: #808080" transform="translate(437.007819 208.04875) scale(0.08 -0.08)">
        <use xlink:href="#Ubuntu-4a"/>
        <use xlink:href="#Ubuntu-75" x="49.999985"/>
        <use xlink:href="#Ubuntu-6c" x="107.399979"/>
        <use xlink:href="#Ubuntu-79" x="134.699966"/>
       </g>
      </g>
     </g>
    </g>
    <g id="matplotlib.axis_2"/>
   </g>
   <g id="matplotlib.axis_3">
    <g id="xtick_7">
     <g id="line2d_7">
      <defs>
       <path id="m9b40aaa053" d="M 0 0 
L 0 3 
" style="stroke: #cecece; stroke-width: 0.75"/>
      </defs>
      <g>
       <use xlink:href="#m9b40aaa053" x="45.638971" y="175.84125" style="fill: #cecece; stroke: #cecece; stroke-width: 0.75"/>
      </g>
     </g>
     <g id="text_7">
      <!-- 01 -->
      <g style="fill: #808080" transform="translate(41.126471 191.04875) scale(0.08 -0.08)">
       <defs>
        <path id="Ubuntu-30" d="M 320 2221 
Q 320 3334 713 3936 
Q 1107 4538 1805 4538 
Q 2502 4538 2896 3936 
Q 3290 3334 3290 2221 
Q 3290 1107 2896 505 
Q 2502 -96 1805 -96 
Q 1107 -96 713 505 
Q 320 1107 320 2221 
z
M 2662 2221 
Q 2662 2586 2620 2912 
Q 2579 3238 2480 3481 
Q 2381 3725 2214 3869 
Q 2048 4013 1805 4013 
Q 1562 4013 1395 3869 
Q 1229 3725 1129 3481 
Q 1030 3238 988 2912 
Q 947 2586 947 2221 
Q 947 1856 988 1529 
Q 1030 1203 1129 960 
Q 1229 717 1395 573 
Q 1562 429 1805 429 
Q 2048 429 2214 573 
Q 2381 717 2480 960 
Q 2579 1203 2620 1529 
Q 2662 1856 2662 2221 
z
" transform="scale(0.015625)"/>
        <path id="Ubuntu-31" d="M 595 3520 
Q 960 3661 1305 3881 
Q 1651 4102 1939 4435 
L 2362 4435 
L 2362 0 
L 1766 0 
L 1766 3610 
Q 1690 3539 1578 3462 
Q 1466 3386 1334 3315 
Q 1203 3245 1059 3181 
Q 915 3117 781 3072 
L 595 3520 
z
" transform="scale(0.015625)"/>
       </defs>
       <use xlink:href="#Ubuntu-30"/>
       <use xlink:href="#Ubuntu-31" x="56.399994"/>
      </g>
     </g>
    </g>
    <g id="xtick_8">
     <g id="line2d_8">
      <g>
       <use xlink:href="#m9b40aaa053" x="67.521324" y="175.84125" style="fill: #cecece; stroke: #cecece; stroke-width: 0.75"/>
      </g>
     </g>
     <g id="text_8">
      <!-- 10 -->
      <g style="fill: #808080" transform="translate(63.008824 191.04875) scale(0.08 -0.08)">
       <use xlink:href="#Ubuntu-31"/>
       <use xlink:href="#Ubuntu-30" x="56.399994"/>
      </g>
     </g>
    </g>
    <g id="xtick_9">
     <g id="line2d_9">
      <g>
       <use xlink:href="#m9b40aaa053" x="91.835049" y="175.84125" style="fill: #cecece; stroke: #cecece; stroke-width: 0.75"/>
      </g>
     </g>
     <g id="text_9">
      <!-- 20 -->
      <g style="fill: #808080" transform="translate(87.322549 191.04875) scale(0.08 -0.08)">
       <defs>
        <path id="Ubuntu-32" d="M 2989 3302 
Q 2989 3072 2896 2857 
Q 2803 2643 2649 2435 
Q 2496 2227 2304 2025 
Q 2112 1824 1920 1632 
Q 1811 1523 1667 1376 
Q 1523 1229 1395 1069 
Q 1267 909 1180 761 
Q 1094 614 1094 506 
L 3136 506 
L 3136 0 
L 448 0 
Q 442 38 442 76 
Q 442 115 442 147 
Q 442 448 541 707 
Q 640 966 800 1196 
Q 960 1427 1158 1632 
Q 1357 1837 1549 2029 
Q 1709 2182 1853 2332 
Q 1997 2483 2109 2633 
Q 2221 2784 2288 2944 
Q 2355 3104 2355 3283 
Q 2355 3475 2294 3609 
Q 2234 3744 2131 3833 
Q 2029 3923 1891 3964 
Q 1754 4006 1600 4006 
Q 1414 4006 1260 3955 
Q 1107 3904 985 3837 
Q 864 3770 781 3696 
Q 698 3622 653 3584 
L 358 4006 
Q 416 4070 531 4163 
Q 646 4256 806 4339 
Q 966 4422 1164 4480 
Q 1363 4538 1594 4538 
Q 2291 4538 2640 4214 
Q 2989 3891 2989 3302 
z
" transform="scale(0.015625)"/>
       </defs>
       <use xlink:href="#Ubuntu-32"/>
       <use xlink:href="#Ubuntu-30" x="56.399994"/>
      </g>
     </g>
    </g>
    <g id="xtick_10">
     <g id="line2d_10">
      <g>
       <use xlink:href="#m9b40aaa053" x="113.717402" y="175.84125" style="fill: #cecece; stroke: #cecece; stroke-width: 0.75"/>
      </g>
     </g>
     <g id="text_10">
      <!-- 01 -->
      <g style="fill: #808080" transform="translate(109.204902 191.04875) scale(0.08 -0.08)">
       <use xlink:href="#Ubuntu-30"/>
       <use xlink:href="#Ubuntu-31" x="56.399994"/>
      </g>
     </g>
    </g>
    <g id="xtick_11">
     <g id="line2d_11">
      <g>
       <use xlink:href="#m9b40aaa053" x="135.599755" y="175.84125" style="fill: #cecece; stroke: #cecece; stroke-width: 0.75"/>
      </g>
     </g>
     <g id="text_11">
      <!-- 10 -->
      <g style="fill: #808080" transform="translate(131.087255 191.04875) scale(0.08 -0.08)">
       <use xlink:href="#Ubuntu-31"/>
       <use xlink:href="#Ubuntu-30" x="56.399994"/>
      </g>
     </g>
    </g>
    <g id="xtick_12">
     <g id="line2d_12">
      <g>
       <use xlink:href="#m9b40aaa053" x="159.91348" y="175.84125" style="fill: #cecece; stroke: #cecece; stroke-width: 0.75"/>
      </g>
     </g>
     <g id="text_12">
      <!-- 20 -->
      <g style="fill: #808080" transform="translate(155.40098 191.04875) scale(0.08 -0.08)">
       <use xlink:href="#Ubuntu-32"/>
       <use xlink:href="#Ubuntu-30" x="56.399994"/>
      </g>
     </g>
    </g>
    <g id="xtick_13">
     <g id="line2d_13">
      <g>
       <use xlink:href="#m9b40aaa053" x="189.089951" y="175.84125" style="fill: #cecece; stroke: #cecece; stroke-width: 0.75"/>
      </g>
     </g>
     <g id="text_13">
      <!-- 01 -->
      <g style="fill: #808080" transform="translate(184.577451 191.04875) scale(0.08 -0.08)">
       <use xlink:href="#Ubuntu-30"/>
       <use xlink:href="#Ubuntu-31" x="56.399994"/>
      </g>
     </g>
    </g>
    <g id="xtick_14">
     <g id="line2d_14">
      <g>
       <use xlink:href="#m9b40aaa053" x="210.972304" y="175.84125" style="fill: #cecece; stroke: #cecece; stroke-width: 0.75"/>
      </g>
     </g>
     <g id="text_14">
      <!-- 10 -->
      <g style="fill: #808080" transform="translate(206.459804 191.04875) scale(0.08 -0.08)">
       <use xlink:href="#Ubuntu-31"/>
       <use xlink:href="#Ubuntu-30" x="56.399994"/>
      </g>
     </g>
    </g>
    <g id="xtick_15">
     <g id="line2d_15">
      <g>
       <use xlink:href="#m9b40aaa053" x="235.286029" y="175.84125" style="fill: #cecece; stroke: #cecece; stroke-width: 0.75"/>
      </g>
     </g>
     <g id="text_15">
      <!-- 20 -->
      <g style="fill: #808080" transform="translate(230.773529 191.04875) scale(0.08 -0.08)">
       <use xlink:href="#Ubuntu-32"/>
       <use xlink:href="#Ubuntu-30" x="56.399994"/>
      </g>
     </g>
    </g>
    <g id="xtick_16">
     <g id="line2d_16">
      <g>
       <use xlink:href="#m9b40aaa053" x="262.031127" y="175.84125" style="fill: #cecece; stroke: #cecece; stroke-width: 0.75"/>
      </g>
     </g>
     <g id="text_16">
      <!-- 01 -->
      <g style="fill: #808080" transform="translate(257.518627 191.04875) scale(0.08 -0.08)">
       <use xlink:href="#Ubuntu-30"/>
       <use xlink:href="#Ubuntu-31" x="56.399994"/>
      </g>
     </g>
    </g>
    <g id="xtick_17">
     <g id="line2d_17">
      <g>
       <use xlink:href="#m9b40aaa053" x="283.91348" y="175.84125" style="fill: #cecece; stroke: #cecece; stroke-width: 0.75"/>
      </g>
     </g>
     <g id="text_17">
      <!-- 10 -->
      <g style="fill: #808080" transform="translate(279.40098 191.04875) scale(0.08 -0.08)">
       <use xlink:href="#Ubuntu-31"/>
       <use xlink:href="#Ubuntu-30" x="56.399994"/>
      </g>
     </g>
    </g>
    <g id="xtick_18">
     <g id="line2d_18">
      <g>
       <use xlink:href="#m9b40aaa053" x="308.227206" y="175.84125" style="fill: #cecece; stroke: #cecece; stroke-width: 0.75"/>
      </g>
     </g>
     <g id="text_18">
      <!-- 20 -->
      <g style="fill: #808080" transform="translate(303.714706 191.04875) scale(0.08 -0.08)">
       <use xlink:href="#Ubuntu-32"/>
       <use xlink:href="#Ubuntu-30" x="56.399994"/>
      </g>
     </g>
    </g>
    <g id="xtick_19">
     <g id="line2d_19">
      <g>
       <use xlink:href="#m9b40aaa053" x="337.403676" y="175.84125" style="fill: #cecece; stroke: #cecece; stroke-width: 0.75"/>
      </g>
     </g>
     <g id="text_19">
      <!-- 01 -->
      <g style="fill: #808080" transform="translate(332.891176 191.04875) scale(0.08 -0.08)">
       <use xlink:href="#Ubuntu-30"/>
       <use xlink:href="#Ubuntu-31" x="56.399994"/>
      </g>
     </g>
    </g>
    <g id="xtick_20">
     <g id="line2d_20">
      <g>
       <use xlink:href="#m9b40aaa053" x="359.286029" y="175.84125" style="fill: #cecece; stroke: #cecece; stroke-width: 0.75"/>
      </g>
     </g>
     <g id="text_20">
      <!-- 10 -->
      <g style="fill: #808080" transform="translate(354.773529 191.04875) scale(0.08 -0.08)">
       <use xlink:href="#Ubuntu-31"/>
       <use xlink:href="#Ubuntu-30" x="56.399994"/>
      </g>
     </g>
    </g>
    <g id="xtick_21">
     <g id="line2d_21">
      <g>
       <use xlink:href="#m9b40aaa053" x="383.599755" y="175.84125" style="fill: #cecece; stroke: #cecece; stroke-width: 0.75"/>
      </g>
     </g>
     <g id="text_21">
      <!-- 20 -->
      <g style="fill: #808080" transform="translate(379.087255 191.04875) scale(0.08 -0.08)">
       <use xlink:href="#Ubuntu-32"/>
       <use xlink:href="#Ubuntu-30" x="56.399994"/>
      </g>
     </g>
    </g>
    <g id="xtick_22">
     <g id="line2d_22">
      <g>
       <use xlink:href="#m9b40aaa053" x="410.344853" y="175.84125" style="fill: #cecece; stroke: #cecece; stroke-width: 0.75"/>
      </g>
     </g>
     <g id="text_22">
      <!-- 01 -->
      <g style="fill: #808080" transform="translate(405.832353 191.04875) scale(0.08 -0.08)">
       <use xlink:href="#Ubuntu-30"/>
       <use xlink:href="#Ubuntu-31" x="56.399994"/>
      </g>
     </g>
    </g>
    <g id="xtick_23">
     <g id="line2d_23">
      <g>
       <use xlink:href="#m9b40aaa053" x="432.227206" y="175.84125" style="fill: #cecece; stroke: #cecece; stroke-width: 0.75"/>
      </g>
     </g>
     <g id="text_23">
      <!-- 10 -->
      <g style="fill: #808080" transform="translate(427.714706 191.04875) scale(0.08 -0.08)">
       <use xlink:href="#Ubuntu-31"/>
       <use xlink:href="#Ubuntu-30" x="56.399994"/>
      </g>
     </g>
    </g>
    <g id="xtick_24">
     <g id="line2d_24">
      <g>
       <use xlink:href="#m9b40aaa053" x="456.540931" y="175.84125" style="fill: #cecece; stroke: #cecece; stroke-width: 0.75"/>
      </g>
     </g>
     <g id="text_24">
      <!-- 20 -->
      <g style="fill: #808080" transform="translate(452.028431 191.04875) scale(0.08 -0.08)">
       <use xlink:href="#Ubuntu-32"/>
       <use xlink:href="#Ubuntu-30" x="56.399994"/>
      </g>
     </g>
    </g>
    <g id="xtick_25">
     <g id="line2d_25">
      <g>
       <use xlink:href="#m9b40aaa053" x="485.717402" y="175.84125" style="fill: #cecece; stroke: #cecece; stroke-width: 0.75"/>
      </g>
     </g>
     <g id="text_25">
      <!-- 31 -->
      <g style="fill: #808080" transform="translate(481.204902 191.04875) scale(0.08 -0.08)">
       <defs>
        <path id="Ubuntu-33" d="M 1446 435 
Q 2016 435 2262 659 
Q 2509 883 2509 1261 
Q 2509 1504 2406 1670 
Q 2304 1837 2137 1936 
Q 1971 2035 1750 2076 
Q 1530 2118 1299 2118 
L 1146 2118 
L 1146 2605 
L 1357 2605 
Q 1517 2605 1686 2637 
Q 1856 2669 1997 2752 
Q 2138 2835 2227 2979 
Q 2317 3123 2317 3341 
Q 2317 3520 2253 3648 
Q 2189 3776 2083 3859 
Q 1978 3942 1840 3977 
Q 1702 4013 1549 4013 
Q 1242 4013 1027 3923 
Q 813 3834 666 3738 
L 435 4192 
Q 512 4243 630 4304 
Q 749 4365 896 4416 
Q 1043 4467 1212 4502 
Q 1382 4538 1568 4538 
Q 1920 4538 2176 4451 
Q 2432 4365 2598 4208 
Q 2765 4051 2848 3836 
Q 2931 3622 2931 3373 
Q 2931 3027 2732 2780 
Q 2534 2534 2253 2406 
Q 2426 2355 2586 2259 
Q 2746 2163 2864 2016 
Q 2982 1869 3056 1677 
Q 3130 1485 3130 1248 
Q 3130 960 3030 713 
Q 2931 467 2723 288 
Q 2515 109 2201 6 
Q 1888 -96 1459 -96 
Q 1293 -96 1117 -70 
Q 941 -45 787 -6 
Q 634 32 518 70 
Q 403 109 352 134 
L 467 653 
Q 576 602 829 518 
Q 1082 435 1446 435 
z
" transform="scale(0.015625)"/>
       </defs>
       <use xlink:href="#Ubuntu-33"/>
       <use xlink:href="#Ubuntu-31" x="56.399994"/>
      </g>
     </g>
    </g>
   </g>
   <g id="matplotlib.axis_4">
    <g id="ytick_1">
     <g id="line2d_26">
      <defs>
       <path id="m63d980b07e" d="M 0 0 
L -3 0 
" style="stroke: #cecece; stroke-width: 0.75"/>
      </defs>
      <g>
       <use xlink:href="#m63d980b07e" x="38.7625" y="170.84125" style="fill: #cecece; stroke: #cecece; stroke-width: 0.75"/>
      </g>
     </g>
     <g id="text_26">
      <!-- 25000 -->
      <g style="fill: #808080" transform="translate(7.2 173.945) scale(0.08 -0.08)">
       <defs>
        <path id="Ubuntu-35" d="M 1274 2726 
Q 2240 2688 2691 2304 
Q 3142 1920 3142 1261 
Q 3142 966 3043 716 
Q 2944 467 2742 288 
Q 2541 109 2233 6 
Q 1926 -96 1504 -96 
Q 1338 -96 1165 -70 
Q 992 -45 845 -6 
Q 698 32 582 70 
Q 467 109 416 134 
L 531 653 
Q 640 602 886 518 
Q 1133 435 1491 435 
Q 1779 435 1974 499 
Q 2170 563 2291 672 
Q 2413 781 2467 925 
Q 2522 1069 2522 1229 
Q 2522 1472 2438 1661 
Q 2355 1850 2144 1978 
Q 1933 2106 1581 2173 
Q 1229 2240 691 2240 
Q 730 2554 752 2829 
Q 774 3104 793 3366 
Q 813 3629 825 3888 
Q 838 4147 851 4435 
L 2989 4435 
L 2989 3930 
L 1370 3930 
Q 1363 3834 1350 3670 
Q 1338 3507 1325 3331 
Q 1312 3155 1299 2988 
Q 1286 2822 1274 2726 
z
" transform="scale(0.015625)"/>
       </defs>
       <use xlink:href="#Ubuntu-32"/>
       <use xlink:href="#Ubuntu-35" x="56.399994"/>
       <use xlink:href="#Ubuntu-30" x="112.799988"/>
       <use xlink:href="#Ubuntu-30" x="169.199982"/>
       <use xlink:href="#Ubuntu-30" x="225.599976"/>
      </g>
     </g>
    </g>
    <g id="ytick_2">
     <g id="line2d_27">
      <g>
       <use xlink:href="#m63d980b07e" x="38.7625" y="147.872652" style="fill: #cecece; stroke: #cecece; stroke-width: 0.75"/>
      </g>
     </g>
     <g id="text_27">
      <!-- 27500 -->
      <g style="fill: #808080" transform="translate(7.2 150.976402) scale(0.08 -0.08)">
       <defs>
        <path id="Ubuntu-37" d="M 1043 0 
Q 1082 512 1226 1078 
Q 1370 1645 1581 2179 
Q 1792 2714 2045 3171 
Q 2298 3629 2541 3917 
L 384 3917 
L 384 4435 
L 3206 4435 
L 3206 3942 
Q 2995 3699 2739 3273 
Q 2483 2848 2256 2320 
Q 2029 1792 1865 1193 
Q 1702 595 1664 0 
L 1043 0 
z
" transform="scale(0.015625)"/>
       </defs>
       <use xlink:href="#Ubuntu-32"/>
       <use xlink:href="#Ubuntu-37" x="56.399994"/>
       <use xlink:href="#Ubuntu-35" x="112.799988"/>
       <use xlink:href="#Ubuntu-30" x="169.199982"/>
       <use xlink:href="#Ubuntu-30" x="225.599976"/>
      </g>
     </g>
    </g>
    <g id="ytick_3">
     <g id="line2d_28">
      <g>
       <use xlink:href="#m63d980b07e" x="38.7625" y="124.904055" style="fill: #cecece; stroke: #cecece; stroke-width: 0.75"/>
      </g>
     </g>
     <g id="text_28">
      <!-- 30000 -->
      <g style="fill: #808080" transform="translate(7.2 128.007805) scale(0.08 -0.08)">
       <use xlink:href="#Ubuntu-33"/>
       <use xlink:href="#Ubuntu-30" x="56.399994"/>
       <use xlink:href="#Ubuntu-30" x="112.799988"/>
       <use xlink:href="#Ubuntu-30" x="169.199982"/>
       <use xlink:href="#Ubuntu-30" x="225.599976"/>
      </g>
     </g>
    </g>
    <g id="ytick_4">
     <g id="line2d_29">
      <g>
       <use xlink:href="#m63d980b07e" x="38.7625" y="101.935457" style="fill: #cecece; stroke: #cecece; stroke-width: 0.75"/>
      </g>
     </g>
     <g id="text_29">
      <!-- 32500 -->
      <g style="fill: #808080" transform="translate(7.2 105.039207) scale(0.08 -0.08)">
       <use xlink:href="#Ubuntu-33"/>
       <use xlink:href="#Ubuntu-32" x="56.399994"/>
       <use xlink:href="#Ubuntu-35" x="112.799988"/>
       <use xlink:href="#Ubuntu-30" x="169.199982"/>
       <use xlink:href="#Ubuntu-30" x="225.599976"/>
      </g>
     </g>
    </g>
    <g id="ytick_5">
     <g id="line2d_30">
      <g>
       <use xlink:href="#m63d980b07e" x="38.7625" y="78.966859" style="fill: #cecece; stroke: #cecece; stroke-width: 0.75"/>
      </g>
     </g>
     <g id="text_30">
      <!-- 35000 -->
      <g style="fill: #808080" transform="translate(7.2 82.070609) scale(0.08 -0.08)">
       <use xlink:href="#Ubuntu-33"/>
       <use xlink:href="#Ubuntu-35" x="56.399994"/>
       <use xlink:href="#Ubuntu-30" x="112.799988"/>
       <use xlink:href="#Ubuntu-30" x="169.199982"/>
       <use xlink:href="#Ubuntu-30" x="225.599976"/>
      </g>
     </g>
    </g>
    <g id="ytick_6">
     <g id="line2d_31">
      <g>
       <use xlink:href="#m63d980b07e" x="38.7625" y="55.998262" style="fill: #cecece; stroke: #cecece; stroke-width: 0.75"/>
      </g>
     </g>
     <g id="text_31">
      <!-- 37500 -->
      <g style="fill: #808080" transform="translate(7.2 59.102012) scale(0.08 -0.08)">
       <use xlink:href="#Ubuntu-33"/>
       <use xlink:href="#Ubuntu-37" x="56.399994"/>
       <use xlink:href="#Ubuntu-35" x="112.799988"/>
       <use xlink:href="#Ubuntu-30" x="169.199982"/>
       <use xlink:href="#Ubuntu-30" x="225.599976"/>
      </g>
     </g>
    </g>
    <g id="ytick_7">
     <g id="line2d_32">
      <g>
       <use xlink:href="#m63d980b07e" x="38.7625" y="33.029664" style="fill: #cecece; stroke: #cecece; stroke-width: 0.75"/>
      </g>
     </g>
     <g id="text_32">
      <!-- 40000 -->
      <g style="fill: #808080" transform="translate(7.2 36.133414) scale(0.08 -0.08)">
       <defs>
        <path id="Ubuntu-34" d="M 256 1536 
Q 378 1818 589 2192 
Q 800 2566 1065 2963 
Q 1331 3360 1635 3744 
Q 1939 4128 2246 4435 
L 2816 4435 
L 2816 1619 
L 3341 1619 
L 3341 1133 
L 2816 1133 
L 2816 0 
L 2240 0 
L 2240 1133 
L 256 1133 
L 256 1536 
z
M 2240 3731 
Q 2048 3526 1853 3273 
Q 1658 3021 1472 2745 
Q 1286 2470 1123 2182 
Q 960 1894 832 1619 
L 2240 1619 
L 2240 3731 
z
" transform="scale(0.015625)"/>
       </defs>
       <use xlink:href="#Ubuntu-34"/>
       <use xlink:href="#Ubuntu-30" x="56.399994"/>
       <use xlink:href="#Ubuntu-30" x="112.799988"/>
       <use xlink:href="#Ubuntu-30" x="169.199982"/>
       <use xlink:href="#Ubuntu-30" x="225.599976"/>
      </g>
     </g>
    </g>
   </g>
   <g id="PolyCollection_1">
    <defs>
     <path id="m3638a7fe54" d="M 45.638971 -114.460923 
L 45.638971 -93.474447 
L 48.070343 -97.884544 
L 50.501716 -89.720132 
L 52.933088 -88.357734 
L 55.364461 -65.986418 
L 57.795833 -86.139815 
L 60.227206 -88.220711 
L 62.658578 -88.803092 
L 65.089951 -87.925263 
L 67.521324 -87.654068 
L 69.952696 -91.645952 
L 72.384069 -80.852424 
L 74.815441 -102.959845 
L 77.246814 -81.155979 
L 79.678186 -90.362484 
L 82.109559 -95.076692 
L 84.540931 -97.69081 
L 86.972304 -95.019922 
L 89.403676 -81.227863 
L 91.835049 -100.335449 
L 94.266422 -97.586517 
L 96.697794 -99.101695 
L 99.129167 -104.3762 
L 101.560539 -93.815949 
L 103.991912 -87.411477 
L 106.423284 -82.102276 
L 108.854657 -94.545027 
L 111.286029 -92.528355 
L 111.286029 -112.186204 
L 111.286029 -112.186204 
L 108.854657 -114.591328 
L 106.423284 -101.415158 
L 103.991912 -108.118943 
L 101.560539 -113.469078 
L 99.129167 -127.133389 
L 96.697794 -117.524788 
L 94.266422 -120.857804 
L 91.835049 -122.945085 
L 89.403676 -103.630694 
L 86.972304 -115.365 
L 84.540931 -117.519591 
L 82.109559 -114.885579 
L 79.678186 -110.785441 
L 77.246814 -96.320704 
L 74.815441 -124.491154 
L 72.384069 -102.839036 
L 69.952696 -112.032383 
L 67.521324 -109.149415 
L 65.089951 -108.679094 
L 62.658578 -106.838959 
L 60.227206 -108.824273 
L 57.795833 -106.787533 
L 55.364461 -85.684676 
L 52.933088 -107.794531 
L 50.501716 -107.747786 
L 48.070343 -119.72187 
L 45.638971 -114.460923 
z
" style="stroke: #5b5b5b; stroke-opacity: 0.2"/>
    </defs>
    <g clip-path="url(#p47db1b1090)">
     <use xlink:href="#m3638a7fe54" x="0" y="216.7525" style="fill: #5b5b5b; fill-opacity: 0.2; stroke: #5b5b5b; stroke-opacity: 0.2"/>
    </g>
   </g>
   <g id="PolyCollection_2">
    <defs>
     <path id="ma021b7c53f" d="M 113.717402 -112.4836 
L 113.717402 -92.416601 
L 116.148775 -90.292992 
L 118.580147 -91.60533 
L 121.01152 -90.673206 
L 123.442892 -77.78967 
L 125.874265 -99.75364 
L 128.305637 -93.047142 
L 130.73701 -105.009452 
L 133.168382 -93.400927 
L 135.599755 -91.462397 
L 138.031127 -90.66309 
L 140.4625 -77.609889 
L 142.893873 -95.035998 
L 145.325245 -91.329316 
L 147.756618 -104.006653 
L 150.18799 -105.147596 
L 152.619363 -95.093468 
L 155.050735 -92.868173 
L 157.482108 -79.61105 
L 159.91348 -90.916663 
L 162.344853 -88.781796 
L 164.776225 -94.776482 
L 167.207598 -92.958542 
L 169.638971 -87.646365 
L 172.070343 -84.173239 
L 174.501716 -77.094063 
L 176.933088 -98.466275 
L 179.364461 -89.935132 
L 181.795833 -109.390463 
L 184.227206 -102.037569 
L 186.658578 -94.767783 
L 186.658578 -112.560667 
L 186.658578 -112.560667 
L 184.227206 -120.414344 
L 181.795833 -130.684278 
L 179.364461 -108.626175 
L 176.933088 -116.831946 
L 174.501716 -98.879592 
L 172.070343 -104.264175 
L 169.638971 -107.318158 
L 167.207598 -112.672734 
L 164.776225 -114.253403 
L 162.344853 -109.388557 
L 159.91348 -113.014565 
L 157.482108 -100.425174 
L 155.050735 -112.195554 
L 152.619363 -114.691234 
L 150.18799 -125.838451 
L 147.756618 -125.619653 
L 145.325245 -111.561816 
L 142.893873 -115.276943 
L 140.4625 -96.621242 
L 138.031127 -109.937008 
L 135.599755 -110.253466 
L 133.168382 -112.288621 
L 130.73701 -126.60009 
L 128.305637 -111.812966 
L 125.874265 -119.653917 
L 123.442892 -96.603971 
L 121.01152 -111.11039 
L 118.580147 -111.612748 
L 116.148775 -111.077061 
L 113.717402 -112.4836 
z
" style="stroke: #bb5951; stroke-opacity: 0.2"/>
    </defs>
    <g clip-path="url(#p47db1b1090)">
     <use xlink:href="#ma021b7c53f" x="0" y="216.7525" style="fill: #bb5951; fill-opacity: 0.2; stroke: #bb5951; stroke-opacity: 0.2"/>
    </g>
   </g>
   <g id="PolyCollection_3">
    <defs>
     <path id="m0e6ac3f0d0" d="M 189.089951 -123.779395 
L 189.089951 -104.605259 
L 191.521324 -73.859598 
L 193.952696 -97.34376 
L 196.384069 -97.330647 
L 198.815441 -98.182181 
L 201.246814 -99.656166 
L 203.678186 -97.446345 
L 206.109559 -93.603711 
L 208.540931 -80.233683 
L 210.972304 -94.467607 
L 213.403676 -96.389681 
L 215.835049 -96.813579 
L 218.266422 -97.769033 
L 220.697794 -94.496693 
L 223.129167 -91.807067 
L 225.560539 -76.013494 
L 227.991912 -101.105033 
L 230.423284 -102.769195 
L 232.854657 -102.019484 
L 235.286029 -69.71005 
L 237.717402 -102.707286 
L 240.148775 -96.414345 
L 242.580147 -75.533977 
L 245.01152 -95.440408 
L 247.442892 -98.495651 
L 249.874265 -98.179827 
L 252.305637 -98.199784 
L 254.73701 -97.151467 
L 257.168382 -94.106755 
L 259.599755 -71.881994 
L 259.599755 -90.470824 
L 259.599755 -90.470824 
L 257.168382 -114.314968 
L 254.73701 -116.331339 
L 252.305637 -116.579845 
L 249.874265 -118.221004 
L 247.442892 -118.702143 
L 245.01152 -115.128368 
L 242.580147 -97.113204 
L 240.148775 -113.78354 
L 237.717402 -127.278622 
L 235.286029 -85.222047 
L 232.854657 -121.197359 
L 230.423284 -120.93293 
L 227.991912 -120.803119 
L 225.560539 -94.87939 
L 223.129167 -111.561723 
L 220.697794 -113.635275 
L 218.266422 -115.873935 
L 215.835049 -115.220944 
L 213.403676 -115.03234 
L 210.972304 -112.626605 
L 208.540931 -98.374227 
L 206.109559 -112.851801 
L 203.678186 -115.521875 
L 201.246814 -119.675923 
L 198.815441 -116.016098 
L 196.384069 -116.142685 
L 193.952696 -116.557989 
L 191.521324 -92.186769 
L 189.089951 -123.779395 
z
" style="stroke: #5481a6; stroke-opacity: 0.2"/>
    </defs>
    <g clip-path="url(#p47db1b1090)">
     <use xlink:href="#m0e6ac3f0d0" x="0" y="216.7525" style="fill: #5481a6; fill-opacity: 0.2; stroke: #5481a6; stroke-opacity: 0.2"/>
    </g>
   </g>
   <g id="PolyCollection_4">
    <defs>
     <path id="m27745f7e9f" d="M 262.031127 -96.449957 
L 262.031127 -75.531795 
L 264.4625 -100.626978 
L 266.893873 -86.54407 
L 269.325245 -101.539938 
L 271.756618 -98.659219 
L 274.18799 -98.786819 
L 276.619363 -77.48415 
L 279.050735 -104.501025 
L 281.482108 -101.660369 
L 283.91348 -108.445921 
L 286.344853 -108.034293 
L 288.776225 -103.598286 
L 291.207598 -100.102421 
L 293.638971 -83.829689 
L 296.070343 -106.054054 
L 298.501716 -106.976392 
L 300.933088 -106.347791 
L 303.364461 -106.965588 
L 305.795833 -102.096346 
L 308.227206 -102.493123 
L 310.658578 -96.896858 
L 313.089951 -111.49352 
L 315.521324 -114.114641 
L 317.952696 -109.866971 
L 320.384069 -114.768204 
L 322.815441 -115.863086 
L 325.246814 -118.492983 
L 327.678186 -104.327779 
L 330.109559 -120.20269 
L 332.540931 -117.648722 
L 334.972304 -117.954167 
L 334.972304 -138.873534 
L 334.972304 -138.873534 
L 332.540931 -138.547525 
L 330.109559 -140.498717 
L 327.678186 -126.650244 
L 325.246814 -138.648537 
L 322.815441 -138.610241 
L 320.384069 -136.348243 
L 317.952696 -132.12654 
L 315.521324 -134.283871 
L 313.089951 -132.933468 
L 310.658578 -115.274467 
L 308.227206 -119.955804 
L 305.795833 -120.936279 
L 303.364461 -126.383577 
L 300.933088 -125.744392 
L 298.501716 -126.666309 
L 296.070343 -125.53763 
L 293.638971 -103.000731 
L 291.207598 -120.252754 
L 288.776225 -122.915203 
L 286.344853 -126.641106 
L 283.91348 -127.061299 
L 281.482108 -120.936159 
L 279.050735 -124.512392 
L 276.619363 -97.177542 
L 274.18799 -118.102491 
L 271.756618 -117.433244 
L 269.325245 -121.846026 
L 266.893873 -106.64701 
L 264.4625 -119.132448 
L 262.031127 -96.449957 
z
" style="stroke: #48a072; stroke-opacity: 0.2"/>
    </defs>
    <g clip-path="url(#p47db1b1090)">
     <use xlink:href="#m27745f7e9f" x="0" y="216.7525" style="fill: #48a072; fill-opacity: 0.2; stroke: #48a072; stroke-opacity: 0.2"/>
    </g>
   </g>
   <g id="PolyCollection_5">
    <defs>
     <path id="m51b450c8a7" d="M 337.403676 -143.19256 
L 337.403676 -122.319632 
L 339.835049 -125.619017 
L 342.266422 -136.392537 
L 344.697794 -100.981287 
L 347.129167 -122.763367 
L 349.560539 -120.485855 
L 351.991912 -121.293417 
L 354.423284 -126.357541 
L 356.854657 -125.939929 
L 359.286029 -132.445183 
L 361.717402 -109.983395 
L 364.148775 -132.154816 
L 366.580147 -130.49195 
L 369.01152 -127.953661 
L 371.442892 -131.686986 
L 373.874265 -131.098057 
L 376.305637 -130.510163 
L 378.73701 -116.782019 
L 381.168382 -139.816186 
L 383.599755 -145.602935 
L 386.031127 -149.431318 
L 388.4625 -141.482419 
L 390.893873 -143.963981 
L 393.325245 -141.302402 
L 395.756618 -129.252984 
L 398.18799 -95.91839 
L 400.619363 -74.643019 
L 403.050735 -100.896268 
L 405.482108 -101.576514 
L 407.91348 -102.334274 
L 407.91348 -121.042101 
L 407.91348 -121.042101 
L 405.482108 -121.838903 
L 403.050735 -120.866018 
L 400.619363 -93.282852 
L 398.18799 -110.826896 
L 395.756618 -155.296453 
L 393.325245 -164.824193 
L 390.893873 -167.464294 
L 388.4625 -163.868273 
L 386.031127 -169.233961 
L 383.599755 -166.935661 
L 381.168382 -160.148922 
L 378.73701 -139.156029 
L 376.305637 -151.562763 
L 373.874265 -151.42625 
L 371.442892 -152.622544 
L 369.01152 -149.97216 
L 366.580147 -149.216742 
L 364.148775 -153.649164 
L 361.717402 -131.761865 
L 359.286029 -153.897529 
L 356.854657 -147.685218 
L 354.423284 -147.037635 
L 351.991912 -142.262175 
L 349.560539 -142.683073 
L 347.129167 -142.770181 
L 344.697794 -123.401052 
L 342.266422 -157.13816 
L 339.835049 -148.556787 
L 337.403676 -143.19256 
z
" style="stroke: #736194; stroke-opacity: 0.2"/>
    </defs>
    <g clip-path="url(#p47db1b1090)">
     <use xlink:href="#m51b450c8a7" x="0" y="216.7525" style="fill: #736194; fill-opacity: 0.2; stroke: #736194; stroke-opacity: 0.2"/>
    </g>
   </g>
   <g id="PolyCollection_6">
    <defs>
     <path id="m10da2ff908" d="M 410.344853 -122.452497 
L 410.344853 -102.455766 
L 412.776225 -97.2635 
L 415.207598 -117.335337 
L 417.638971 -109.785145 
L 420.070343 -130.441998 
L 422.501716 -136.496978 
L 424.933088 -117.824134 
L 427.364461 -124.755777 
L 429.795833 -106.955841 
L 432.227206 -135.010139 
L 434.658578 -142.173513 
L 437.089951 -145.853443 
L 439.521324 -144.443655 
L 441.952696 -124.719373 
L 444.384069 -132.691597 
L 446.815441 -128.703537 
L 449.246814 -144.343173 
L 451.678186 -148.194155 
L 454.109559 -153.046181 
L 456.540931 -144.155415 
L 458.972304 -132.431643 
L 461.403676 -129.845526 
L 463.835049 -115.262578 
L 466.266422 -154.218276 
L 468.697794 -158.753259 
L 471.129167 -156.960253 
L 473.560539 -157.395838 
L 475.991912 -155.255053 
L 478.423284 -155.295475 
L 480.854657 -135.309082 
L 483.286029 -160.423236 
L 483.286029 -180.812941 
L 483.286029 -180.812941 
L 480.854657 -155.292057 
L 478.423284 -175.827214 
L 475.991912 -173.279424 
L 473.560539 -178.086246 
L 471.129167 -176.778567 
L 468.697794 -179.899376 
L 466.266422 -175.873294 
L 463.835049 -136.901439 
L 461.403676 -150.503997 
L 458.972304 -152.34177 
L 456.540931 -163.78416 
L 454.109559 -175.167926 
L 451.678186 -168.577368 
L 449.246814 -164.457143 
L 446.815441 -146.814523 
L 444.384069 -153.59875 
L 441.952696 -142.179801 
L 439.521324 -164.190575 
L 437.089951 -166.399243 
L 434.658578 -161.515158 
L 432.227206 -156.283415 
L 429.795833 -123.606004 
L 427.364461 -144.220989 
L 424.933088 -135.638537 
L 422.501716 -157.791355 
L 420.070343 -152.089201 
L 417.638971 -130.247047 
L 415.207598 -137.195895 
L 412.776225 -116.026193 
L 410.344853 -122.452497 
z
" style="stroke: #dd7c49; stroke-opacity: 0.2"/>
    </defs>
    <g clip-path="url(#p47db1b1090)">
     <use xlink:href="#m10da2ff908" x="0" y="216.7525" style="fill: #dd7c49; fill-opacity: 0.2; stroke: #dd7c49; stroke-opacity: 0.2"/>
    </g>
   </g>
   <g id="line2d_33">
    <path d="M 45.638971 112.278723 
L 48.070343 107.623105 
L 50.501716 118.141944 
L 52.933088 118.779614 
L 55.364461 140.889809 
L 57.795833 119.936998 
L 60.227206 118.363844 
L 62.658578 119.056016 
L 65.089951 118.34399 
L 67.521324 118.390316 
L 69.952696 115.232718 
L 72.384069 125.110383 
L 74.815441 103.308901 
L 77.246814 127.863889 
L 79.678186 116.460175 
L 82.109559 112.427824 
L 84.540931 109.733101 
L 86.972304 111.744216 
L 89.403676 124.43495 
L 91.835049 105.240599 
L 94.266422 107.135314 
L 96.697794 108.522384 
L 99.129167 100.920946 
L 101.560539 113.328271 
L 103.991912 119.08132 
L 106.423284 124.830477 
L 108.854657 112.481547 
L 111.286029 114.068716 
" clip-path="url(#p47db1b1090)" style="fill: none; stroke: #5b5b5b; stroke-width: 1.2; stroke-linecap: square"/>
   </g>
   <g id="line2d_34">
    <path d="M 113.717402 114.385414 
L 116.148775 115.790897 
L 118.580147 114.982011 
L 121.01152 115.733818 
L 123.442892 129.322235 
L 125.874265 106.614405 
L 128.305637 114.573855 
L 130.73701 100.685965 
L 133.168382 113.991723 
L 135.599755 116.342143 
L 138.031127 116.272553 
L 140.4625 129.832432 
L 142.893873 111.298826 
L 145.325245 114.997259 
L 147.756618 102.12077 
L 150.18799 101.013585 
L 152.619363 111.652249 
L 155.050735 114.761904 
L 157.482108 126.453018 
L 159.91348 114.488235 
L 162.344853 118.196051 
L 164.776225 111.798466 
L 167.207598 114.041765 
L 169.638971 119.791929 
L 172.070343 122.416018 
L 174.501716 129.145133 
L 176.933088 109.195489 
L 179.364461 117.209281 
L 181.795833 96.928107 
L 184.227206 106.056903 
L 186.658578 112.929889 
" clip-path="url(#p47db1b1090)" style="fill: none; stroke: #bb5951; stroke-width: 1.2; stroke-linecap: square"/>
   </g>
   <g id="line2d_35">
    <path d="M 189.089951 102.665112 
L 191.521324 133.972423 
L 193.952696 109.501595 
L 196.384069 110.348936 
L 198.815441 109.652708 
L 201.246814 107.319553 
L 203.678186 110.225118 
L 206.109559 113.271115 
L 208.540931 127.510162 
L 210.972304 113.503718 
L 213.403676 111.019055 
L 215.835049 110.790803 
L 218.266422 110.166967 
L 220.697794 113.106948 
L 223.129167 115.19484 
L 225.560539 131.892442 
L 227.991912 105.685 
L 230.423284 105.125644 
L 232.854657 104.775948 
L 235.286029 139.298566 
L 237.717402 101.652812 
L 240.148775 111.786488 
L 242.580147 130.561697 
L 245.01152 111.655154 
L 247.442892 108.07947 
L 249.874265 108.463582 
L 252.305637 109.5728 
L 254.73701 110.661447 
L 257.168382 112.132229 
L 259.599755 135.114078 
" clip-path="url(#p47db1b1090)" style="fill: none; stroke: #5481a6; stroke-width: 1.2; stroke-linecap: square"/>
   </g>
   <g id="line2d_36">
    <path d="M 262.031127 130.724573 
L 264.4625 107.132435 
L 266.893873 119.808088 
L 269.325245 105.558019 
L 271.756618 108.437754 
L 274.18799 108.481934 
L 276.619363 129.505204 
L 279.050735 101.944895 
L 281.482108 104.876843 
L 283.91348 98.796867 
L 286.344853 99.597731 
L 288.776225 103.169084 
L 291.207598 106.640028 
L 293.638971 123.686292 
L 296.070343 100.766493 
L 298.501716 100.09576 
L 300.933088 100.54479 
L 303.364461 99.91904 
L 305.795833 105.173251 
L 308.227206 105.697789 
L 310.658578 111.058032 
L 313.089951 94.687321 
L 315.521324 92.771514 
L 317.952696 95.783789 
L 320.384069 91.728865 
L 322.815441 89.29816 
L 325.246814 88.452313 
L 327.678186 101.561734 
L 330.109559 86.647357 
L 332.540931 88.824228 
L 334.972304 88.246675 
" clip-path="url(#p47db1b1090)" style="fill: none; stroke: #48a072; stroke-width: 1.2; stroke-linecap: square"/>
   </g>
   <g id="line2d_37">
    <path d="M 337.403676 84.933624 
L 339.835049 79.830844 
L 342.266422 70.00576 
L 344.697794 104.372866 
L 347.129167 84.019342 
L 349.560539 85.581004 
L 351.991912 85.09912 
L 354.423284 80.022299 
L 356.854657 79.870595 
L 359.286029 73.878681 
L 361.717402 96.458283 
L 364.148775 74.132603 
L 366.580147 76.204543 
L 369.01152 77.984432 
L 371.442892 74.070137 
L 373.874265 75.38031 
L 376.305637 75.880042 
L 378.73701 89.303844 
L 381.168382 66.940846 
L 383.599755 60.29993 
L 386.031127 57.546538 
L 388.4625 63.90676 
L 390.893873 61.213401 
L 393.325245 63.850784 
L 395.756618 74.817301 
L 398.18799 113.037047 
L 400.619363 133.139083 
L 403.050735 105.771466 
L 405.482108 105.168705 
L 407.91348 105.007672 
" clip-path="url(#p47db1b1090)" style="fill: none; stroke: #736194; stroke-width: 1.2; stroke-linecap: square"/>
   </g>
   <g id="line2d_38">
    <path d="M 410.344853 104.465411 
L 412.776225 110.169152 
L 415.207598 89.3215 
L 417.638971 96.569301 
L 420.070343 75.483975 
L 422.501716 69.366342 
L 424.933088 89.703649 
L 427.364461 82.063932 
L 429.795833 101.555547 
L 432.227206 71.113888 
L 434.658578 65.051603 
L 437.089951 61.264709 
L 439.521324 62.714758 
L 441.952696 83.483864 
L 444.384069 74.105554 
L 446.815441 79.312787 
L 449.246814 61.722148 
L 451.678186 58.373159 
L 454.109559 52.819591 
L 456.540931 63.102604 
L 458.972304 74.483633 
L 461.403676 76.490829 
L 463.835049 90.723932 
L 466.266422 51.006521 
L 468.697794 47.270907 
L 471.129167 49.846238 
L 473.560539 48.440957 
L 475.991912 52.205467 
L 478.423284 51.39681 
L 480.854657 71.488711 
L 483.286029 46.019868 
" clip-path="url(#p47db1b1090)" style="fill: none; stroke: #dd7c49; stroke-width: 1.2; stroke-linecap: square"/>
   </g>
   <g id="line2d_39"/>
   <g id="line2d_40"/>
   <g id="line2d_41"/>
   <g id="line2d_42"/>
   <g id="line2d_43"/>
   <g id="line2d_44"/>
   <g id="patch_4">
    <path d="M 38.7625 170.84125 
L 38.7625 33.029664 
" style="fill: none; stroke: #cccccc; stroke-width: 0.75; stroke-linejoin: miter; stroke-linecap: square"/>
   </g>
   <g id="patch_5">
    <path d="M 45.638971 175.84125 
L 485.717402 175.84125 
" style="fill: none; stroke: #cccccc; stroke-width: 0.75; stroke-linejoin: miter; stroke-linecap: square"/>
   </g>
   <g id="legend_1">
    <g id="line2d_45">
     <defs>
      <path id="mdfeeed1377" d="M 0 1.5 
C 0.397805 1.5 0.77937 1.341951 1.06066 1.06066 
C 1.341951 0.77937 1.5 0.397805 1.5 0 
C 1.5 -0.397805 1.341951 -0.77937 1.06066 -1.06066 
C 0.77937 -1.341951 0.397805 -1.5 0 -1.5 
C -0.397805 -1.5 -0.77937 -1.341951 -1.06066 -1.06066 
C -1.341951 -0.77937 -1.5 -0.397805 -1.5 0 
C -1.5 0.397805 -1.341951 0.77937 -1.06066 1.06066 
C -0.77937 1.341951 -0.397805 1.5 0 1.5 
z
" style="stroke: #5b5b5b"/>
     </defs>
     <g>
      <use xlink:href="#mdfeeed1377" x="56.4625" y="13.8075" style="fill: #5b5b5b; stroke: #5b5b5b"/>
     </g>
    </g>
    <g id="text_33">
     <!-- February -->
     <g style="fill: #4b4b4b" transform="translate(64.4625 16.6075) scale(0.08 -0.08)">
      <use xlink:href="#Ubuntu-46"/>
      <use xlink:href="#Ubuntu-65" x="52.324997"/>
      <use xlink:href="#Ubuntu-62" x="108.224991"/>
      <use xlink:href="#Ubuntu-72" x="167.124985"/>
      <use xlink:href="#Ubuntu-75" x="205.724976"/>
      <use xlink:href="#Ubuntu-61" x="263.124969"/>
      <use xlink:href="#Ubuntu-72" x="315.324966"/>
      <use xlink:href="#Ubuntu-79" x="356.049957"/>
     </g>
    </g>
    <g id="line2d_46">
     <defs>
      <path id="m980a94ca8c" d="M 0 1.5 
C 0.397805 1.5 0.77937 1.341951 1.06066 1.06066 
C 1.341951 0.77937 1.5 0.397805 1.5 0 
C 1.5 -0.397805 1.341951 -0.77937 1.06066 -1.06066 
C 0.77937 -1.341951 0.397805 -1.5 0 -1.5 
C -0.397805 -1.5 -0.77937 -1.341951 -1.06066 -1.06066 
C -1.341951 -0.77937 -1.5 -0.397805 -1.5 0 
C -1.5 0.397805 -1.341951 0.77937 -1.06066 1.06066 
C -0.77937 1.341951 -0.397805 1.5 0 1.5 
z
" style="stroke: #bb5951"/>
     </defs>
     <g>
      <use xlink:href="#m980a94ca8c" x="120.92375" y="13.8075" style="fill: #bb5951; stroke: #bb5951"/>
     </g>
    </g>
    <g id="text_34">
     <!-- March -->
     <g style="fill: #4b4b4b" transform="translate(128.92375 16.6075) scale(0.08 -0.08)">
      <use xlink:href="#Ubuntu-4d"/>
      <use xlink:href="#Ubuntu-61" x="87.099991"/>
      <use xlink:href="#Ubuntu-72" x="139.299988"/>
      <use xlink:href="#Ubuntu-63" x="177.899979"/>
      <use xlink:href="#Ubuntu-68" x="224.399963"/>
     </g>
    </g>
    <g id="line2d_47">
     <defs>
      <path id="m47740481df" d="M 0 1.5 
C 0.397805 1.5 0.77937 1.341951 1.06066 1.06066 
C 1.341951 0.77937 1.5 0.397805 1.5 0 
C 1.5 -0.397805 1.341951 -0.77937 1.06066 -1.06066 
C 0.77937 -1.341951 0.397805 -1.5 0 -1.5 
C -0.397805 -1.5 -0.77937 -1.341951 -1.06066 -1.06066 
C -1.341951 -0.77937 -1.5 -0.397805 -1.5 0 
C -1.5 0.397805 -1.341951 0.77937 -1.06066 1.06066 
C -0.77937 1.341951 -0.397805 1.5 0 1.5 
z
" style="stroke: #5481a6"/>
     </defs>
     <g>
      <use xlink:href="#m47740481df" x="175.4425" y="13.8075" style="fill: #5481a6; stroke: #5481a6"/>
     </g>
    </g>
    <g id="text_35">
     <!-- April -->
     <g style="fill: #4b4b4b" transform="translate(183.4425 16.6075) scale(0.08 -0.08)">
      <use xlink:href="#Ubuntu-41"/>
      <use xlink:href="#Ubuntu-70" x="66.299988"/>
      <use xlink:href="#Ubuntu-72" x="125.199982"/>
      <use xlink:href="#Ubuntu-69" x="163.799973"/>
      <use xlink:href="#Ubuntu-6c" x="189.09996"/>
     </g>
    </g>
    <g id="line2d_48">
     <defs>
      <path id="mec15a6001e" d="M 0 1.5 
C 0.397805 1.5 0.77937 1.341951 1.06066 1.06066 
C 1.341951 0.77937 1.5 0.397805 1.5 0 
C 1.5 -0.397805 1.341951 -0.77937 1.06066 -1.06066 
C 0.77937 -1.341951 0.397805 -1.5 0 -1.5 
C -0.397805 -1.5 -0.77937 -1.341951 -1.06066 -1.06066 
C -1.341951 -0.77937 -1.5 -0.397805 -1.5 0 
C -1.5 0.397805 -1.341951 0.77937 -1.06066 1.06066 
C -0.77937 1.341951 -0.397805 1.5 0 1.5 
z
" style="stroke: #48a072"/>
     </defs>
     <g>
      <use xlink:href="#mec15a6001e" x="224.75375" y="13.8075" style="fill: #48a072; stroke: #48a072"/>
     </g>
    </g>
    <g id="text_36">
     <!-- May -->
     <g style="fill: #4b4b4b" transform="translate(232.75375 16.6075) scale(0.08 -0.08)">
      <use xlink:href="#Ubuntu-4d"/>
      <use xlink:href="#Ubuntu-61" x="87.099991"/>
      <use xlink:href="#Ubuntu-79" x="137.799988"/>
     </g>
    </g>
    <g id="line2d_49">
     <defs>
      <path id="m06aefcd0e3" d="M 0 1.5 
C 0.397805 1.5 0.77937 1.341951 1.06066 1.06066 
C 1.341951 0.77937 1.5 0.397805 1.5 0 
C 1.5 -0.397805 1.341951 -0.77937 1.06066 -1.06066 
C 0.77937 -1.341951 0.397805 -1.5 0 -1.5 
C -0.397805 -1.5 -0.77937 -1.341951 -1.06066 -1.06066 
C -1.341951 -0.77937 -1.5 -0.397805 -1.5 0 
C -1.5 0.397805 -1.341951 0.77937 -1.06066 1.06066 
C -0.77937 1.341951 -0.397805 1.5 0 1.5 
z
" style="stroke: #736194"/>
     </defs>
     <g>
      <use xlink:href="#m06aefcd0e3" x="271.75375" y="13.8075" style="fill: #736194; stroke: #736194"/>
     </g>
    </g>
    <g id="text_37">
     <!-- June -->
     <g style="fill: #4b4b4b" transform="translate(279.75375 16.6075) scale(0.08 -0.08)">
      <use xlink:href="#Ubuntu-4a"/>
      <use xlink:href="#Ubuntu-75" x="49.999985"/>
      <use xlink:href="#Ubuntu-6e" x="107.399979"/>
      <use xlink:href="#Ubuntu-65" x="164.799973"/>
     </g>
    </g>
    <g id="line2d_50">
     <defs>
      <path id="m3363693533" d="M 0 1.5 
C 0.397805 1.5 0.77937 1.341951 1.06066 1.06066 
C 1.341951 0.77937 1.5 0.397805 1.5 0 
C 1.5 -0.397805 1.341951 -0.77937 1.06066 -1.06066 
C 0.77937 -1.341951 0.397805 -1.5 0 -1.5 
C -0.397805 -1.5 -0.77937 -1.341951 -1.06066 -1.06066 
C -1.341951 -0.77937 -1.5 -0.397805 -1.5 0 
C -1.5 0.397805 -1.341951 0.77937 -1.06066 1.06066 
C -0.77937 1.341951 -0.397805 1.5 0 1.5 
z
" style="stroke: #dd7c49"/>
     </defs>
     <g>
      <use xlink:href="#m3363693533" x="321.41125" y="13.8075" style="fill: #dd7c49; stroke: #dd7c49"/>
     </g>
    </g>
    <g id="text_38">
     <!-- July -->
     <g style="fill: #4b4b4b" transform="translate(329.41125 16.6075) scale(0.08 -0.08)">
      <use xlink:href="#Ubuntu-4a"/>
      <use xlink:href="#Ubuntu-75" x="49.999985"/>
      <use xlink:href="#Ubuntu-6c" x="107.399979"/>
      <use xlink:href="#Ubuntu-79" x="134.699966"/>
     </g>
    </g>
   </g>
  </g>
 </g>
 <defs>
  <clipPath id="p5f71bc72a4">
   <rect x="41.2625" y="170.84125" width="446.4" height="0"/>
  </clipPath>
  <clipPath id="p47db1b1090">
   <rect x="41.2625" y="32.24125" width="446.4" height="138.6"/>
  </clipPath>
 </defs>
</svg>
