<?xml version="1.0" encoding="utf-8" standalone="no"?>
<!DOCTYPE svg PUBLIC "-//W3C//DTD SVG 1.1//EN"
  "http://www.w3.org/Graphics/SVG/1.1/DTD/svg11.dtd">
<svg xmlns:xlink="http://www.w3.org/1999/xlink" width="494.998529pt" height="216.7525pt" viewBox="0 0 494.998529 216.7525" xmlns="http://www.w3.org/2000/svg" version="1.1">
 <metadata>
  <rdf:RDF xmlns:dc="http://purl.org/dc/elements/1.1/" xmlns:cc="http://creativecommons.org/ns#" xmlns:rdf="http://www.w3.org/1999/02/22-rdf-syntax-ns#">
   <cc:Work>
    <dc:type rdf:resource="http://purl.org/dc/dcmitype/StillImage"/>
    <dc:date>2024-05-23T13:23:37.986814</dc:date>
    <dc:format>image/svg+xml</dc:format>
    <dc:creator>
     <cc:Agent>
      <dc:title>Matplotlib v3.8.3, https://matplotlib.org/</dc:title>
     </cc:Agent>
    </dc:creator>
   </cc:Work>
  </rdf:RDF>
 </metadata>
 <defs>
  <style type="text/css">*{stroke-linejoin: round; stroke-linecap: butt}</style>
 </defs>
 <g id="figure_1">
  <g id="patch_1">
   <path d="M 0 216.7525 
L 494.998529 216.7525 
L 494.998529 0 
L 0 0 
L 0 216.7525 
z
" style="fill: none"/>
  </g>
  <g id="axes_1">
   <g id="patch_2">
    <path d="M 41.2625 170.84125 
L 487.6625 170.84125 
L 487.6625 32.24125 
L 41.2625 32.24125 
L 41.2625 170.84125 
z
" style="fill: none"/>
   </g>
   <g id="line2d_1">
    <path d="M 113.341278 166.647399 
L 113.341278 36.435101 
" clip-path="url(#pa8625535e3)" style="fill: none; stroke-dasharray: 0.5,0.825; stroke-dashoffset: 0; stroke: #d9d9d9; stroke-width: 0.5"/>
   </g>
   <g id="line2d_2">
    <path d="M 188.297404 166.647399 
L 188.297404 36.435101 
" clip-path="url(#pa8625535e3)" style="fill: none; stroke-dasharray: 0.5,0.825; stroke-dashoffset: 0; stroke: #d9d9d9; stroke-width: 0.5"/>
   </g>
   <g id="line2d_3">
    <path d="M 260.835591 166.647399 
L 260.835591 36.435101 
" clip-path="url(#pa8625535e3)" style="fill: none; stroke-dasharray: 0.5,0.825; stroke-dashoffset: 0; stroke: #d9d9d9; stroke-width: 0.5"/>
   </g>
   <g id="line2d_4">
    <path d="M 335.791717 166.647399 
L 335.791717 36.435101 
" clip-path="url(#pa8625535e3)" style="fill: none; stroke-dasharray: 0.5,0.825; stroke-dashoffset: 0; stroke: #d9d9d9; stroke-width: 0.5"/>
   </g>
   <g id="line2d_5">
    <path d="M 408.329903 166.647399 
L 408.329903 36.435101 
" clip-path="url(#pa8625535e3)" style="fill: none; stroke-dasharray: 0.5,0.825; stroke-dashoffset: 0; stroke: #d9d9d9; stroke-width: 0.5"/>
   </g>
   <g id="line2d_6">
    <path d="M 45.638971 144.94535 
L 483.286029 144.94535 
" clip-path="url(#pa8625535e3)" style="fill: none; stroke-dasharray: 0.5,0.825; stroke-dashoffset: 0; stroke: #d9d9d9; stroke-width: 0.5"/>
   </g>
   <g id="line2d_7">
    <path d="M 45.638971 123.2433 
L 483.286029 123.2433 
" clip-path="url(#pa8625535e3)" style="fill: none; stroke-dasharray: 0.5,0.825; stroke-dashoffset: 0; stroke: #d9d9d9; stroke-width: 0.5"/>
   </g>
   <g id="line2d_8">
    <path d="M 45.638971 101.54125 
L 483.286029 101.54125 
" clip-path="url(#pa8625535e3)" style="fill: none; stroke-dasharray: 0.5,0.825; stroke-dashoffset: 0; stroke: #d9d9d9; stroke-width: 0.5"/>
   </g>
   <g id="line2d_9">
    <path d="M 45.638971 79.8392 
L 483.286029 79.8392 
" clip-path="url(#pa8625535e3)" style="fill: none; stroke-dasharray: 0.5,0.825; stroke-dashoffset: 0; stroke: #d9d9d9; stroke-width: 0.5"/>
   </g>
   <g id="line2d_10">
    <path d="M 45.638971 58.13715 
L 483.286029 58.13715 
" clip-path="url(#pa8625535e3)" style="fill: none; stroke-dasharray: 0.5,0.825; stroke-dashoffset: 0; stroke: #d9d9d9; stroke-width: 0.5"/>
   </g>
   <g id="axes_2">
    <g id="patch_3">
     <path d="M 41.2625 170.84125 
L 487.6625 170.84125 
L 487.6625 170.84125 
L 41.2625 170.84125 
L 41.2625 170.84125 
z
" style="fill: none"/>
    </g>
    <g id="matplotlib.axis_1">
     <g id="xtick_1">
      <g id="line2d_11">
       <path d="M 79.490124 170.84125 
L 79.490124 170.84125 
" clip-path="url(#pb1aa126e32)" style="fill: none; stroke-dasharray: 0.5,0.825; stroke-dashoffset: 0; stroke: #d9d9d9; stroke-width: 0.5"/>
      </g>
      <g id="text_1">
       <!-- February -->
       <g style="fill: #808080" transform="translate(63.259499 208.04875) scale(0.08 -0.08)">
        <defs>
         <path id="Ubuntu-46" d="M 550 0 
L 550 4435 
L 3226 4435 
L 3226 3904 
L 1171 3904 
L 1171 2566 
L 2995 2566 
L 2995 2042 
L 1171 2042 
L 1171 0 
L 550 0 
z
" transform="scale(0.015625)"/>
         <path id="Ubuntu-65" d="M 326 1658 
Q 326 2099 454 2428 
Q 582 2758 793 2976 
Q 1005 3194 1280 3302 
Q 1555 3411 1843 3411 
Q 2515 3411 2873 2992 
Q 3232 2573 3232 1715 
Q 3232 1677 3232 1616 
Q 3232 1555 3226 1504 
L 947 1504 
Q 986 986 1248 717 
Q 1510 448 2067 448 
Q 2381 448 2595 502 
Q 2810 557 2918 608 
L 3002 109 
Q 2893 51 2621 -13 
Q 2349 -77 2003 -77 
Q 1568 -77 1251 54 
Q 934 186 729 416 
Q 525 646 425 963 
Q 326 1280 326 1658 
z
M 2611 1984 
Q 2618 2387 2410 2646 
Q 2202 2906 1837 2906 
Q 1632 2906 1475 2826 
Q 1318 2746 1209 2618 
Q 1101 2490 1040 2323 
Q 979 2157 960 1984 
L 2611 1984 
z
" transform="scale(0.015625)"/>
         <path id="Ubuntu-62" d="M 1107 3181 
Q 1216 3251 1437 3328 
Q 1658 3405 1946 3405 
Q 2304 3405 2582 3277 
Q 2861 3149 3053 2918 
Q 3245 2688 3344 2368 
Q 3443 2048 3443 1664 
Q 3443 1261 3324 937 
Q 3206 614 2988 390 
Q 2771 166 2464 44 
Q 2157 -77 1773 -77 
Q 1357 -77 1037 -19 
Q 717 38 512 96 
L 512 4864 
L 1107 4966 
L 1107 3181 
z
M 1107 518 
Q 1197 493 1360 470 
Q 1523 448 1766 448 
Q 2246 448 2534 765 
Q 2822 1082 2822 1664 
Q 2822 1920 2771 2144 
Q 2720 2368 2605 2531 
Q 2490 2694 2307 2787 
Q 2125 2880 1869 2880 
Q 1626 2880 1421 2797 
Q 1216 2714 1107 2624 
L 1107 518 
z
" transform="scale(0.015625)"/>
         <path id="Ubuntu-72" d="M 1741 3398 
Q 1818 3398 1917 3388 
Q 2016 3379 2112 3363 
Q 2208 3347 2288 3331 
Q 2368 3315 2406 3302 
L 2304 2784 
Q 2234 2810 2070 2845 
Q 1907 2880 1651 2880 
Q 1485 2880 1321 2845 
Q 1158 2810 1107 2797 
L 1107 0 
L 512 0 
L 512 3187 
Q 723 3264 1036 3331 
Q 1350 3398 1741 3398 
z
" transform="scale(0.015625)"/>
         <path id="Ubuntu-75" d="M 3162 96 
Q 2957 45 2621 -12 
Q 2285 -70 1843 -70 
Q 1459 -70 1196 42 
Q 934 154 774 358 
Q 614 563 544 841 
Q 474 1120 474 1459 
L 474 3328 
L 1069 3328 
L 1069 1587 
Q 1069 979 1261 716 
Q 1453 454 1907 454 
Q 2003 454 2105 460 
Q 2208 467 2297 476 
Q 2387 486 2460 496 
Q 2534 506 2566 518 
L 2566 3328 
L 3162 3328 
L 3162 96 
z
" transform="scale(0.015625)"/>
         <path id="Ubuntu-61" d="M 1638 429 
Q 1850 429 2013 438 
Q 2176 448 2285 474 
L 2285 1466 
Q 2221 1498 2077 1520 
Q 1933 1542 1728 1542 
Q 1594 1542 1443 1523 
Q 1293 1504 1168 1443 
Q 1043 1382 960 1276 
Q 877 1171 877 998 
Q 877 678 1081 553 
Q 1286 429 1638 429 
z
M 1587 3411 
Q 1946 3411 2192 3318 
Q 2438 3226 2588 3056 
Q 2739 2886 2803 2652 
Q 2867 2419 2867 2138 
L 2867 58 
Q 2790 45 2652 22 
Q 2515 0 2342 -19 
Q 2170 -38 1968 -54 
Q 1766 -70 1568 -70 
Q 1286 -70 1049 -12 
Q 813 45 640 169 
Q 467 294 371 499 
Q 275 704 275 992 
Q 275 1267 387 1465 
Q 499 1664 691 1785 
Q 883 1907 1139 1964 
Q 1395 2022 1677 2022 
Q 1766 2022 1862 2012 
Q 1958 2003 2044 1987 
Q 2131 1971 2195 1958 
Q 2259 1946 2285 1939 
L 2285 2106 
Q 2285 2253 2253 2397 
Q 2221 2541 2137 2653 
Q 2054 2765 1910 2832 
Q 1766 2899 1536 2899 
Q 1242 2899 1021 2857 
Q 800 2816 691 2771 
L 621 3264 
Q 736 3315 1005 3363 
Q 1274 3411 1587 3411 
z
" transform="scale(0.015625)"/>
         <path id="Ubuntu-79" d="M 122 -621 
Q 192 -653 304 -681 
Q 416 -710 525 -710 
Q 877 -710 1075 -553 
Q 1274 -397 1434 -45 
Q 1030 723 681 1584 
Q 333 2445 102 3328 
L 742 3328 
Q 813 3040 912 2707 
Q 1011 2374 1132 2022 
Q 1254 1670 1395 1318 
Q 1536 966 1690 640 
Q 1933 1312 2112 1971 
Q 2291 2630 2451 3328 
L 3066 3328 
Q 2835 2387 2553 1520 
Q 2272 653 1946 -102 
Q 1818 -390 1680 -598 
Q 1542 -806 1376 -940 
Q 1210 -1075 1002 -1139 
Q 794 -1203 531 -1203 
Q 461 -1203 384 -1193 
Q 307 -1184 233 -1168 
Q 160 -1152 99 -1133 
Q 38 -1114 13 -1101 
L 122 -621 
z
" transform="scale(0.015625)"/>
        </defs>
        <use xlink:href="#Ubuntu-46"/>
        <use xlink:href="#Ubuntu-65" x="52.324997"/>
        <use xlink:href="#Ubuntu-62" x="108.224991"/>
        <use xlink:href="#Ubuntu-72" x="167.124985"/>
        <use xlink:href="#Ubuntu-75" x="205.724976"/>
        <use xlink:href="#Ubuntu-61" x="263.124969"/>
        <use xlink:href="#Ubuntu-72" x="315.324966"/>
        <use xlink:href="#Ubuntu-79" x="356.049957"/>
       </g>
      </g>
     </g>
     <g id="xtick_2">
      <g id="line2d_12">
       <path d="M 147.192432 170.84125 
L 147.192432 170.84125 
" clip-path="url(#pb1aa126e32)" style="fill: none; stroke-dasharray: 0.5,0.825; stroke-dashoffset: 0; stroke: #d9d9d9; stroke-width: 0.5"/>
      </g>
      <g id="text_2">
       <!-- March -->
       <g style="fill: #808080" transform="translate(135.933057 208.04875) scale(0.08 -0.08)">
        <defs>
         <path id="Ubuntu-4d" d="M 2541 614 
Q 2477 768 2371 1005 
Q 2266 1242 2144 1517 
Q 2022 1792 1884 2083 
Q 1747 2374 1625 2633 
Q 1504 2893 1398 3097 
Q 1293 3302 1229 3411 
Q 1158 2656 1113 1776 
Q 1069 896 1037 0 
L 429 0 
Q 454 576 486 1161 
Q 518 1747 560 2313 
Q 602 2880 650 3417 
Q 698 3955 755 4435 
L 1299 4435 
Q 1472 4154 1670 3770 
Q 1869 3386 2067 2966 
Q 2266 2547 2451 2128 
Q 2637 1709 2790 1363 
Q 2944 1709 3129 2128 
Q 3315 2547 3513 2966 
Q 3712 3386 3910 3770 
Q 4109 4154 4282 4435 
L 4826 4435 
Q 5043 2291 5152 0 
L 4544 0 
Q 4512 896 4467 1776 
Q 4422 2656 4352 3411 
Q 4288 3302 4182 3097 
Q 4077 2893 3955 2633 
Q 3834 2374 3696 2083 
Q 3558 1792 3436 1517 
Q 3315 1242 3209 1005 
Q 3104 768 3040 614 
L 2541 614 
z
" transform="scale(0.015625)"/>
         <path id="Ubuntu-63" d="M 1958 -77 
Q 1555 -77 1251 51 
Q 947 179 739 409 
Q 531 640 428 957 
Q 326 1274 326 1658 
Q 326 2042 438 2362 
Q 550 2682 755 2915 
Q 960 3149 1257 3280 
Q 1555 3411 1920 3411 
Q 2144 3411 2368 3372 
Q 2592 3334 2797 3251 
L 2662 2746 
Q 2528 2810 2352 2848 
Q 2176 2886 1978 2886 
Q 1478 2886 1212 2572 
Q 947 2259 947 1658 
Q 947 1389 1008 1165 
Q 1069 941 1200 781 
Q 1331 621 1536 534 
Q 1741 448 2035 448 
Q 2272 448 2464 493 
Q 2656 538 2765 589 
L 2848 90 
Q 2797 58 2701 29 
Q 2605 0 2483 -22 
Q 2362 -45 2224 -61 
Q 2086 -77 1958 -77 
z
" transform="scale(0.015625)"/>
         <path id="Ubuntu-68" d="M 512 0 
L 512 4864 
L 1107 4966 
L 1107 3264 
Q 1274 3328 1462 3363 
Q 1651 3398 1837 3398 
Q 2234 3398 2496 3286 
Q 2758 3174 2915 2972 
Q 3072 2771 3136 2489 
Q 3200 2208 3200 1869 
L 3200 0 
L 2605 0 
L 2605 1741 
Q 2605 2048 2563 2265 
Q 2522 2483 2426 2617 
Q 2330 2752 2170 2813 
Q 2010 2874 1773 2874 
Q 1677 2874 1574 2861 
Q 1472 2848 1379 2832 
Q 1286 2816 1212 2797 
Q 1139 2778 1107 2765 
L 1107 0 
L 512 0 
z
" transform="scale(0.015625)"/>
        </defs>
        <use xlink:href="#Ubuntu-4d"/>
        <use xlink:href="#Ubuntu-61" x="87.099991"/>
        <use xlink:href="#Ubuntu-72" x="139.299988"/>
        <use xlink:href="#Ubuntu-63" x="177.899979"/>
        <use xlink:href="#Ubuntu-68" x="224.399963"/>
       </g>
      </g>
     </g>
     <g id="xtick_3">
      <g id="line2d_13">
       <path d="M 222.148558 170.84125 
L 222.148558 170.84125 
" clip-path="url(#pb1aa126e32)" style="fill: none; stroke-dasharray: 0.5,0.825; stroke-dashoffset: 0; stroke: #d9d9d9; stroke-width: 0.5"/>
      </g>
      <g id="text_3">
       <!-- April -->
       <g style="fill: #808080" transform="translate(213.492933 208.04875) scale(0.08 -0.08)">
        <defs>
         <path id="Ubuntu-41" d="M 3514 0 
Q 3405 288 3309 566 
Q 3213 845 3110 1133 
L 1101 1133 
L 698 0 
L 51 0 
Q 307 704 531 1302 
Q 755 1901 969 2438 
Q 1184 2976 1395 3465 
Q 1606 3955 1837 4435 
L 2406 4435 
Q 2637 3955 2848 3465 
Q 3059 2976 3273 2438 
Q 3488 1901 3712 1302 
Q 3936 704 4192 0 
L 3514 0 
z
M 2931 1645 
Q 2726 2202 2524 2723 
Q 2323 3245 2106 3725 
Q 1882 3245 1680 2723 
Q 1478 2202 1280 1645 
L 2931 1645 
z
" transform="scale(0.015625)"/>
         <path id="Ubuntu-70" d="M 2822 1658 
Q 2822 2240 2534 2553 
Q 2246 2867 1766 2867 
Q 1498 2867 1347 2848 
Q 1197 2829 1107 2803 
L 1107 704 
Q 1216 614 1421 531 
Q 1626 448 1869 448 
Q 2125 448 2307 541 
Q 2490 634 2605 797 
Q 2720 960 2771 1181 
Q 2822 1402 2822 1658 
z
M 3443 1658 
Q 3443 1280 3344 960 
Q 3245 640 3053 409 
Q 2861 179 2582 51 
Q 2304 -77 1946 -77 
Q 1658 -77 1437 0 
Q 1216 77 1107 147 
L 1107 -1184 
L 512 -1184 
L 512 3226 
Q 723 3277 1040 3337 
Q 1357 3398 1773 3398 
Q 2157 3398 2464 3276 
Q 2771 3155 2988 2931 
Q 3206 2707 3324 2384 
Q 3443 2061 3443 1658 
z
" transform="scale(0.015625)"/>
         <path id="Ubuntu-69" d="M 1107 0 
L 512 0 
L 512 3328 
L 1107 3328 
L 1107 0 
z
M 806 3930 
Q 646 3930 534 4035 
Q 422 4141 422 4320 
Q 422 4499 534 4604 
Q 646 4710 806 4710 
Q 966 4710 1078 4604 
Q 1190 4499 1190 4320 
Q 1190 4141 1078 4035 
Q 966 3930 806 3930 
z
" transform="scale(0.015625)"/>
         <path id="Ubuntu-6c" d="M 1510 -64 
Q 960 -51 729 173 
Q 499 397 499 870 
L 499 4864 
L 1094 4966 
L 1094 966 
Q 1094 819 1120 723 
Q 1146 627 1203 569 
Q 1261 512 1357 483 
Q 1453 454 1594 435 
L 1510 -64 
z
" transform="scale(0.015625)"/>
        </defs>
        <use xlink:href="#Ubuntu-41"/>
        <use xlink:href="#Ubuntu-70" x="66.299988"/>
        <use xlink:href="#Ubuntu-72" x="125.199982"/>
        <use xlink:href="#Ubuntu-69" x="163.799973"/>
        <use xlink:href="#Ubuntu-6c" x="189.09996"/>
       </g>
      </g>
     </g>
     <g id="xtick_4">
      <g id="line2d_14">
       <path d="M 294.686744 170.84125 
L 294.686744 170.84125 
" clip-path="url(#pb1aa126e32)" style="fill: none; stroke-dasharray: 0.5,0.825; stroke-dashoffset: 0; stroke: #d9d9d9; stroke-width: 0.5"/>
      </g>
      <g id="text_4">
       <!-- May -->
       <g style="fill: #808080" transform="translate(287.186744 208.025) scale(0.08 -0.08)">
        <use xlink:href="#Ubuntu-4d"/>
        <use xlink:href="#Ubuntu-61" x="87.099991"/>
        <use xlink:href="#Ubuntu-79" x="137.799988"/>
       </g>
      </g>
     </g>
     <g id="xtick_5">
      <g id="line2d_15">
       <path d="M 369.64287 170.84125 
L 369.64287 170.84125 
" clip-path="url(#pb1aa126e32)" style="fill: none; stroke-dasharray: 0.5,0.825; stroke-dashoffset: 0; stroke: #d9d9d9; stroke-width: 0.5"/>
      </g>
      <g id="text_5">
       <!-- June -->
       <g style="fill: #808080" transform="translate(360.81412 208.04875) scale(0.08 -0.08)">
        <defs>
         <path id="Ubuntu-4a" d="M 2682 1427 
Q 2682 1107 2614 832 
Q 2547 557 2377 349 
Q 2208 141 1923 22 
Q 1638 -96 1210 -96 
Q 992 -96 809 -61 
Q 627 -26 480 28 
Q 333 83 224 144 
Q 115 205 51 262 
L 294 755 
Q 429 659 643 553 
Q 858 448 1178 448 
Q 1638 448 1849 681 
Q 2061 915 2061 1485 
L 2061 4435 
L 2682 4435 
L 2682 1427 
z
" transform="scale(0.015625)"/>
         <path id="Ubuntu-6e" d="M 512 3232 
Q 717 3283 1056 3340 
Q 1395 3398 1837 3398 
Q 2234 3398 2496 3286 
Q 2758 3174 2915 2972 
Q 3072 2771 3136 2489 
Q 3200 2208 3200 1869 
L 3200 0 
L 2605 0 
L 2605 1741 
Q 2605 2048 2563 2265 
Q 2522 2483 2426 2617 
Q 2330 2752 2170 2813 
Q 2010 2874 1773 2874 
Q 1677 2874 1574 2867 
Q 1472 2861 1379 2851 
Q 1286 2842 1212 2829 
Q 1139 2816 1107 2810 
L 1107 0 
L 512 0 
L 512 3232 
z
" transform="scale(0.015625)"/>
        </defs>
        <use xlink:href="#Ubuntu-4a"/>
        <use xlink:href="#Ubuntu-75" x="49.999985"/>
        <use xlink:href="#Ubuntu-6e" x="107.399979"/>
        <use xlink:href="#Ubuntu-65" x="164.799973"/>
       </g>
      </g>
     </g>
     <g id="xtick_6">
      <g id="line2d_16">
       <path d="M 442.181057 170.84125 
L 442.181057 170.84125 
" clip-path="url(#pb1aa126e32)" style="fill: none; stroke-dasharray: 0.5,0.825; stroke-dashoffset: 0; stroke: #d9d9d9; stroke-width: 0.5"/>
      </g>
      <g id="text_6">
       <!-- July -->
       <g style="fill: #808080" transform="translate(434.804807 208.04875) scale(0.08 -0.08)">
        <use xlink:href="#Ubuntu-4a"/>
        <use xlink:href="#Ubuntu-75" x="49.999985"/>
        <use xlink:href="#Ubuntu-6c" x="107.399979"/>
        <use xlink:href="#Ubuntu-79" x="134.699966"/>
       </g>
      </g>
     </g>
    </g>
    <g id="matplotlib.axis_2"/>
   </g>
   <g id="matplotlib.axis_3">
    <g id="xtick_7">
     <g id="line2d_17">
      <defs>
       <path id="mbee72f5e89" d="M 0 0 
L 0 3 
" style="stroke: #cecece; stroke-width: 0.75"/>
      </defs>
      <g>
       <use xlink:href="#mbee72f5e89" x="45.638971" y="175.84125" style="fill: #cecece; stroke: #cecece; stroke-width: 0.75"/>
      </g>
     </g>
     <g id="text_7">
      <!-- 01 -->
      <g style="fill: #808080" transform="translate(41.126471 191.04875) scale(0.08 -0.08)">
       <defs>
        <path id="Ubuntu-30" d="M 320 2221 
Q 320 3334 713 3936 
Q 1107 4538 1805 4538 
Q 2502 4538 2896 3936 
Q 3290 3334 3290 2221 
Q 3290 1107 2896 505 
Q 2502 -96 1805 -96 
Q 1107 -96 713 505 
Q 320 1107 320 2221 
z
M 2662 2221 
Q 2662 2586 2620 2912 
Q 2579 3238 2480 3481 
Q 2381 3725 2214 3869 
Q 2048 4013 1805 4013 
Q 1562 4013 1395 3869 
Q 1229 3725 1129 3481 
Q 1030 3238 988 2912 
Q 947 2586 947 2221 
Q 947 1856 988 1529 
Q 1030 1203 1129 960 
Q 1229 717 1395 573 
Q 1562 429 1805 429 
Q 2048 429 2214 573 
Q 2381 717 2480 960 
Q 2579 1203 2620 1529 
Q 2662 1856 2662 2221 
z
" transform="scale(0.015625)"/>
        <path id="Ubuntu-31" d="M 595 3520 
Q 960 3661 1305 3881 
Q 1651 4102 1939 4435 
L 2362 4435 
L 2362 0 
L 1766 0 
L 1766 3610 
Q 1690 3539 1578 3462 
Q 1466 3386 1334 3315 
Q 1203 3245 1059 3181 
Q 915 3117 781 3072 
L 595 3520 
z
" transform="scale(0.015625)"/>
       </defs>
       <use xlink:href="#Ubuntu-30"/>
       <use xlink:href="#Ubuntu-31" x="56.399994"/>
      </g>
     </g>
    </g>
    <g id="xtick_8">
     <g id="line2d_18">
      <g>
       <use xlink:href="#mbee72f5e89" x="67.400427" y="175.84125" style="fill: #cecece; stroke: #cecece; stroke-width: 0.75"/>
      </g>
     </g>
     <g id="text_8">
      <!-- 10 -->
      <g style="fill: #808080" transform="translate(62.887927 191.04875) scale(0.08 -0.08)">
       <use xlink:href="#Ubuntu-31"/>
       <use xlink:href="#Ubuntu-30" x="56.399994"/>
      </g>
     </g>
    </g>
    <g id="xtick_9">
     <g id="line2d_19">
      <g>
       <use xlink:href="#mbee72f5e89" x="91.579822" y="175.84125" style="fill: #cecece; stroke: #cecece; stroke-width: 0.75"/>
      </g>
     </g>
     <g id="text_9">
      <!-- 20 -->
      <g style="fill: #808080" transform="translate(87.067322 191.04875) scale(0.08 -0.08)">
       <defs>
        <path id="Ubuntu-32" d="M 2989 3302 
Q 2989 3072 2896 2857 
Q 2803 2643 2649 2435 
Q 2496 2227 2304 2025 
Q 2112 1824 1920 1632 
Q 1811 1523 1667 1376 
Q 1523 1229 1395 1069 
Q 1267 909 1180 761 
Q 1094 614 1094 506 
L 3136 506 
L 3136 0 
L 448 0 
Q 442 38 442 76 
Q 442 115 442 147 
Q 442 448 541 707 
Q 640 966 800 1196 
Q 960 1427 1158 1632 
Q 1357 1837 1549 2029 
Q 1709 2182 1853 2332 
Q 1997 2483 2109 2633 
Q 2221 2784 2288 2944 
Q 2355 3104 2355 3283 
Q 2355 3475 2294 3609 
Q 2234 3744 2131 3833 
Q 2029 3923 1891 3964 
Q 1754 4006 1600 4006 
Q 1414 4006 1260 3955 
Q 1107 3904 985 3837 
Q 864 3770 781 3696 
Q 698 3622 653 3584 
L 358 4006 
Q 416 4070 531 4163 
Q 646 4256 806 4339 
Q 966 4422 1164 4480 
Q 1363 4538 1594 4538 
Q 2291 4538 2640 4214 
Q 2989 3891 2989 3302 
z
" transform="scale(0.015625)"/>
       </defs>
       <use xlink:href="#Ubuntu-32"/>
       <use xlink:href="#Ubuntu-30" x="56.399994"/>
      </g>
     </g>
    </g>
    <g id="xtick_10">
     <g id="line2d_20">
      <g>
       <use xlink:href="#mbee72f5e89" x="113.341278" y="175.84125" style="fill: #cecece; stroke: #cecece; stroke-width: 0.75"/>
      </g>
     </g>
     <g id="text_10">
      <!-- 01 -->
      <g style="fill: #808080" transform="translate(108.828778 191.04875) scale(0.08 -0.08)">
       <use xlink:href="#Ubuntu-30"/>
       <use xlink:href="#Ubuntu-31" x="56.399994"/>
      </g>
     </g>
    </g>
    <g id="xtick_11">
     <g id="line2d_21">
      <g>
       <use xlink:href="#mbee72f5e89" x="135.102734" y="175.84125" style="fill: #cecece; stroke: #cecece; stroke-width: 0.75"/>
      </g>
     </g>
     <g id="text_11">
      <!-- 10 -->
      <g style="fill: #808080" transform="translate(130.590234 191.04875) scale(0.08 -0.08)">
       <use xlink:href="#Ubuntu-31"/>
       <use xlink:href="#Ubuntu-30" x="56.399994"/>
      </g>
     </g>
    </g>
    <g id="xtick_12">
     <g id="line2d_22">
      <g>
       <use xlink:href="#mbee72f5e89" x="159.28213" y="175.84125" style="fill: #cecece; stroke: #cecece; stroke-width: 0.75"/>
      </g>
     </g>
     <g id="text_12">
      <!-- 20 -->
      <g style="fill: #808080" transform="translate(154.76963 191.04875) scale(0.08 -0.08)">
       <use xlink:href="#Ubuntu-32"/>
       <use xlink:href="#Ubuntu-30" x="56.399994"/>
      </g>
     </g>
    </g>
    <g id="xtick_13">
     <g id="line2d_23">
      <g>
       <use xlink:href="#mbee72f5e89" x="188.297404" y="175.84125" style="fill: #cecece; stroke: #cecece; stroke-width: 0.75"/>
      </g>
     </g>
     <g id="text_13">
      <!-- 01 -->
      <g style="fill: #808080" transform="translate(183.784904 191.04875) scale(0.08 -0.08)">
       <use xlink:href="#Ubuntu-30"/>
       <use xlink:href="#Ubuntu-31" x="56.399994"/>
      </g>
     </g>
    </g>
    <g id="xtick_14">
     <g id="line2d_24">
      <g>
       <use xlink:href="#mbee72f5e89" x="210.05886" y="175.84125" style="fill: #cecece; stroke: #cecece; stroke-width: 0.75"/>
      </g>
     </g>
     <g id="text_14">
      <!-- 10 -->
      <g style="fill: #808080" transform="translate(205.54636 191.04875) scale(0.08 -0.08)">
       <use xlink:href="#Ubuntu-31"/>
       <use xlink:href="#Ubuntu-30" x="56.399994"/>
      </g>
     </g>
    </g>
    <g id="xtick_15">
     <g id="line2d_25">
      <g>
       <use xlink:href="#mbee72f5e89" x="234.238256" y="175.84125" style="fill: #cecece; stroke: #cecece; stroke-width: 0.75"/>
      </g>
     </g>
     <g id="text_15">
      <!-- 20 -->
      <g style="fill: #808080" transform="translate(229.725756 191.04875) scale(0.08 -0.08)">
       <use xlink:href="#Ubuntu-32"/>
       <use xlink:href="#Ubuntu-30" x="56.399994"/>
      </g>
     </g>
    </g>
    <g id="xtick_16">
     <g id="line2d_26">
      <g>
       <use xlink:href="#mbee72f5e89" x="260.835591" y="175.84125" style="fill: #cecece; stroke: #cecece; stroke-width: 0.75"/>
      </g>
     </g>
     <g id="text_16">
      <!-- 01 -->
      <g style="fill: #808080" transform="translate(256.323091 191.04875) scale(0.08 -0.08)">
       <use xlink:href="#Ubuntu-30"/>
       <use xlink:href="#Ubuntu-31" x="56.399994"/>
      </g>
     </g>
    </g>
    <g id="xtick_17">
     <g id="line2d_27">
      <g>
       <use xlink:href="#mbee72f5e89" x="282.597047" y="175.84125" style="fill: #cecece; stroke: #cecece; stroke-width: 0.75"/>
      </g>
     </g>
     <g id="text_17">
      <!-- 10 -->
      <g style="fill: #808080" transform="translate(278.084547 191.04875) scale(0.08 -0.08)">
       <use xlink:href="#Ubuntu-31"/>
       <use xlink:href="#Ubuntu-30" x="56.399994"/>
      </g>
     </g>
    </g>
    <g id="xtick_18">
     <g id="line2d_28">
      <g>
       <use xlink:href="#mbee72f5e89" x="306.776442" y="175.84125" style="fill: #cecece; stroke: #cecece; stroke-width: 0.75"/>
      </g>
     </g>
     <g id="text_18">
      <!-- 20 -->
      <g style="fill: #808080" transform="translate(302.263942 191.04875) scale(0.08 -0.08)">
       <use xlink:href="#Ubuntu-32"/>
       <use xlink:href="#Ubuntu-30" x="56.399994"/>
      </g>
     </g>
    </g>
    <g id="xtick_19">
     <g id="line2d_29">
      <g>
       <use xlink:href="#mbee72f5e89" x="335.791717" y="175.84125" style="fill: #cecece; stroke: #cecece; stroke-width: 0.75"/>
      </g>
     </g>
     <g id="text_19">
      <!-- 01 -->
      <g style="fill: #808080" transform="translate(331.279217 191.04875) scale(0.08 -0.08)">
       <use xlink:href="#Ubuntu-30"/>
       <use xlink:href="#Ubuntu-31" x="56.399994"/>
      </g>
     </g>
    </g>
    <g id="xtick_20">
     <g id="line2d_30">
      <g>
       <use xlink:href="#mbee72f5e89" x="357.553173" y="175.84125" style="fill: #cecece; stroke: #cecece; stroke-width: 0.75"/>
      </g>
     </g>
     <g id="text_20">
      <!-- 10 -->
      <g style="fill: #808080" transform="translate(353.040673 191.04875) scale(0.08 -0.08)">
       <use xlink:href="#Ubuntu-31"/>
       <use xlink:href="#Ubuntu-30" x="56.399994"/>
      </g>
     </g>
    </g>
    <g id="xtick_21">
     <g id="line2d_31">
      <g>
       <use xlink:href="#mbee72f5e89" x="381.732568" y="175.84125" style="fill: #cecece; stroke: #cecece; stroke-width: 0.75"/>
      </g>
     </g>
     <g id="text_21">
      <!-- 20 -->
      <g style="fill: #808080" transform="translate(377.220068 191.04875) scale(0.08 -0.08)">
       <use xlink:href="#Ubuntu-32"/>
       <use xlink:href="#Ubuntu-30" x="56.399994"/>
      </g>
     </g>
    </g>
    <g id="xtick_22">
     <g id="line2d_32">
      <g>
       <use xlink:href="#mbee72f5e89" x="408.329903" y="175.84125" style="fill: #cecece; stroke: #cecece; stroke-width: 0.75"/>
      </g>
     </g>
     <g id="text_22">
      <!-- 01 -->
      <g style="fill: #808080" transform="translate(403.817403 191.04875) scale(0.08 -0.08)">
       <use xlink:href="#Ubuntu-30"/>
       <use xlink:href="#Ubuntu-31" x="56.399994"/>
      </g>
     </g>
    </g>
    <g id="xtick_23">
     <g id="line2d_33">
      <g>
       <use xlink:href="#mbee72f5e89" x="430.091359" y="175.84125" style="fill: #cecece; stroke: #cecece; stroke-width: 0.75"/>
      </g>
     </g>
     <g id="text_23">
      <!-- 10 -->
      <g style="fill: #808080" transform="translate(425.578859 191.04875) scale(0.08 -0.08)">
       <use xlink:href="#Ubuntu-31"/>
       <use xlink:href="#Ubuntu-30" x="56.399994"/>
      </g>
     </g>
    </g>
    <g id="xtick_24">
     <g id="line2d_34">
      <g>
       <use xlink:href="#mbee72f5e89" x="454.270755" y="175.84125" style="fill: #cecece; stroke: #cecece; stroke-width: 0.75"/>
      </g>
     </g>
     <g id="text_24">
      <!-- 20 -->
      <g style="fill: #808080" transform="translate(449.758255 191.04875) scale(0.08 -0.08)">
       <use xlink:href="#Ubuntu-32"/>
       <use xlink:href="#Ubuntu-30" x="56.399994"/>
      </g>
     </g>
    </g>
    <g id="xtick_25">
     <g id="line2d_35">
      <g>
       <use xlink:href="#mbee72f5e89" x="483.286029" y="175.84125" style="fill: #cecece; stroke: #cecece; stroke-width: 0.75"/>
      </g>
     </g>
     <g id="text_25">
      <!-- 31 -->
      <g style="fill: #808080" transform="translate(478.773529 191.04875) scale(0.08 -0.08)">
       <defs>
        <path id="Ubuntu-33" d="M 1446 435 
Q 2016 435 2262 659 
Q 2509 883 2509 1261 
Q 2509 1504 2406 1670 
Q 2304 1837 2137 1936 
Q 1971 2035 1750 2076 
Q 1530 2118 1299 2118 
L 1146 2118 
L 1146 2605 
L 1357 2605 
Q 1517 2605 1686 2637 
Q 1856 2669 1997 2752 
Q 2138 2835 2227 2979 
Q 2317 3123 2317 3341 
Q 2317 3520 2253 3648 
Q 2189 3776 2083 3859 
Q 1978 3942 1840 3977 
Q 1702 4013 1549 4013 
Q 1242 4013 1027 3923 
Q 813 3834 666 3738 
L 435 4192 
Q 512 4243 630 4304 
Q 749 4365 896 4416 
Q 1043 4467 1212 4502 
Q 1382 4538 1568 4538 
Q 1920 4538 2176 4451 
Q 2432 4365 2598 4208 
Q 2765 4051 2848 3836 
Q 2931 3622 2931 3373 
Q 2931 3027 2732 2780 
Q 2534 2534 2253 2406 
Q 2426 2355 2586 2259 
Q 2746 2163 2864 2016 
Q 2982 1869 3056 1677 
Q 3130 1485 3130 1248 
Q 3130 960 3030 713 
Q 2931 467 2723 288 
Q 2515 109 2201 6 
Q 1888 -96 1459 -96 
Q 1293 -96 1117 -70 
Q 941 -45 787 -6 
Q 634 32 518 70 
Q 403 109 352 134 
L 467 653 
Q 576 602 829 518 
Q 1082 435 1446 435 
z
" transform="scale(0.015625)"/>
       </defs>
       <use xlink:href="#Ubuntu-33"/>
       <use xlink:href="#Ubuntu-31" x="56.399994"/>
      </g>
     </g>
    </g>
   </g>
   <g id="matplotlib.axis_4">
    <g id="ytick_1">
     <g id="line2d_36">
      <defs>
       <path id="me7cfa7dcbb" d="M 0 0 
L -3 0 
" style="stroke: #cecece; stroke-width: 0.75"/>
      </defs>
      <g>
       <use xlink:href="#me7cfa7dcbb" x="38.7625" y="166.647399" style="fill: #cecece; stroke: #cecece; stroke-width: 0.75"/>
      </g>
     </g>
     <g id="text_26">
      <!-- 25000 -->
      <g style="fill: #808080" transform="translate(7.2 169.751149) scale(0.08 -0.08)">
       <defs>
        <path id="Ubuntu-35" d="M 1274 2726 
Q 2240 2688 2691 2304 
Q 3142 1920 3142 1261 
Q 3142 966 3043 716 
Q 2944 467 2742 288 
Q 2541 109 2233 6 
Q 1926 -96 1504 -96 
Q 1338 -96 1165 -70 
Q 992 -45 845 -6 
Q 698 32 582 70 
Q 467 109 416 134 
L 531 653 
Q 640 602 886 518 
Q 1133 435 1491 435 
Q 1779 435 1974 499 
Q 2170 563 2291 672 
Q 2413 781 2467 925 
Q 2522 1069 2522 1229 
Q 2522 1472 2438 1661 
Q 2355 1850 2144 1978 
Q 1933 2106 1581 2173 
Q 1229 2240 691 2240 
Q 730 2554 752 2829 
Q 774 3104 793 3366 
Q 813 3629 825 3888 
Q 838 4147 851 4435 
L 2989 4435 
L 2989 3930 
L 1370 3930 
Q 1363 3834 1350 3670 
Q 1338 3507 1325 3331 
Q 1312 3155 1299 2988 
Q 1286 2822 1274 2726 
z
" transform="scale(0.015625)"/>
       </defs>
       <use xlink:href="#Ubuntu-32"/>
       <use xlink:href="#Ubuntu-35" x="56.399994"/>
       <use xlink:href="#Ubuntu-30" x="112.799988"/>
       <use xlink:href="#Ubuntu-30" x="169.199982"/>
       <use xlink:href="#Ubuntu-30" x="225.599976"/>
      </g>
     </g>
    </g>
    <g id="ytick_2">
     <g id="line2d_37">
      <g>
       <use xlink:href="#me7cfa7dcbb" x="38.7625" y="144.94535" style="fill: #cecece; stroke: #cecece; stroke-width: 0.75"/>
      </g>
     </g>
     <g id="text_27">
      <!-- 27500 -->
      <g style="fill: #808080" transform="translate(7.2 148.0491) scale(0.08 -0.08)">
       <defs>
        <path id="Ubuntu-37" d="M 1043 0 
Q 1082 512 1226 1078 
Q 1370 1645 1581 2179 
Q 1792 2714 2045 3171 
Q 2298 3629 2541 3917 
L 384 3917 
L 384 4435 
L 3206 4435 
L 3206 3942 
Q 2995 3699 2739 3273 
Q 2483 2848 2256 2320 
Q 2029 1792 1865 1193 
Q 1702 595 1664 0 
L 1043 0 
z
" transform="scale(0.015625)"/>
       </defs>
       <use xlink:href="#Ubuntu-32"/>
       <use xlink:href="#Ubuntu-37" x="56.399994"/>
       <use xlink:href="#Ubuntu-35" x="112.799988"/>
       <use xlink:href="#Ubuntu-30" x="169.199982"/>
       <use xlink:href="#Ubuntu-30" x="225.599976"/>
      </g>
     </g>
    </g>
    <g id="ytick_3">
     <g id="line2d_38">
      <g>
       <use xlink:href="#me7cfa7dcbb" x="38.7625" y="123.2433" style="fill: #cecece; stroke: #cecece; stroke-width: 0.75"/>
      </g>
     </g>
     <g id="text_28">
      <!-- 30000 -->
      <g style="fill: #808080" transform="translate(7.2 126.34705) scale(0.08 -0.08)">
       <use xlink:href="#Ubuntu-33"/>
       <use xlink:href="#Ubuntu-30" x="56.399994"/>
       <use xlink:href="#Ubuntu-30" x="112.799988"/>
       <use xlink:href="#Ubuntu-30" x="169.199982"/>
       <use xlink:href="#Ubuntu-30" x="225.599976"/>
      </g>
     </g>
    </g>
    <g id="ytick_4">
     <g id="line2d_39">
      <g>
       <use xlink:href="#me7cfa7dcbb" x="38.7625" y="101.54125" style="fill: #cecece; stroke: #cecece; stroke-width: 0.75"/>
      </g>
     </g>
     <g id="text_29">
      <!-- 32500 -->
      <g style="fill: #808080" transform="translate(7.2 104.645) scale(0.08 -0.08)">
       <use xlink:href="#Ubuntu-33"/>
       <use xlink:href="#Ubuntu-32" x="56.399994"/>
       <use xlink:href="#Ubuntu-35" x="112.799988"/>
       <use xlink:href="#Ubuntu-30" x="169.199982"/>
       <use xlink:href="#Ubuntu-30" x="225.599976"/>
      </g>
     </g>
    </g>
    <g id="ytick_5">
     <g id="line2d_40">
      <g>
       <use xlink:href="#me7cfa7dcbb" x="38.7625" y="79.8392" style="fill: #cecece; stroke: #cecece; stroke-width: 0.75"/>
      </g>
     </g>
     <g id="text_30">
      <!-- 35000 -->
      <g style="fill: #808080" transform="translate(7.2 82.94295) scale(0.08 -0.08)">
       <use xlink:href="#Ubuntu-33"/>
       <use xlink:href="#Ubuntu-35" x="56.399994"/>
       <use xlink:href="#Ubuntu-30" x="112.799988"/>
       <use xlink:href="#Ubuntu-30" x="169.199982"/>
       <use xlink:href="#Ubuntu-30" x="225.599976"/>
      </g>
     </g>
    </g>
    <g id="ytick_6">
     <g id="line2d_41">
      <g>
       <use xlink:href="#me7cfa7dcbb" x="38.7625" y="58.13715" style="fill: #cecece; stroke: #cecece; stroke-width: 0.75"/>
      </g>
     </g>
     <g id="text_31">
      <!-- 37500 -->
      <g style="fill: #808080" transform="translate(7.2 61.2409) scale(0.08 -0.08)">
       <use xlink:href="#Ubuntu-33"/>
       <use xlink:href="#Ubuntu-37" x="56.399994"/>
       <use xlink:href="#Ubuntu-35" x="112.799988"/>
       <use xlink:href="#Ubuntu-30" x="169.199982"/>
       <use xlink:href="#Ubuntu-30" x="225.599976"/>
      </g>
     </g>
    </g>
    <g id="ytick_7">
     <g id="line2d_42">
      <g>
       <use xlink:href="#me7cfa7dcbb" x="38.7625" y="36.435101" style="fill: #cecece; stroke: #cecece; stroke-width: 0.75"/>
      </g>
     </g>
     <g id="text_32">
      <!-- 40000 -->
      <g style="fill: #808080" transform="translate(7.2 39.538851) scale(0.08 -0.08)">
       <defs>
        <path id="Ubuntu-34" d="M 256 1536 
Q 378 1818 589 2192 
Q 800 2566 1065 2963 
Q 1331 3360 1635 3744 
Q 1939 4128 2246 4435 
L 2816 4435 
L 2816 1619 
L 3341 1619 
L 3341 1133 
L 2816 1133 
L 2816 0 
L 2240 0 
L 2240 1133 
L 256 1133 
L 256 1536 
z
M 2240 3731 
Q 2048 3526 1853 3273 
Q 1658 3021 1472 2745 
Q 1286 2470 1123 2182 
Q 960 1894 832 1619 
L 2240 1619 
L 2240 3731 
z
" transform="scale(0.015625)"/>
       </defs>
       <use xlink:href="#Ubuntu-34"/>
       <use xlink:href="#Ubuntu-30" x="56.399994"/>
       <use xlink:href="#Ubuntu-30" x="112.799988"/>
       <use xlink:href="#Ubuntu-30" x="169.199982"/>
       <use xlink:href="#Ubuntu-30" x="225.599976"/>
      </g>
     </g>
    </g>
   </g>
   <g id="PolyCollection_1">
    <defs>
     <path id="m7008be8a04" d="M 45.638971 -115.264475 
L 45.638971 -94.756084 
L 48.05691 -100.242307 
L 50.47485 -91.373323 
L 52.892789 -90.052615 
L 55.310729 -70.01194 
L 57.728668 -88.581189 
L 60.146608 -90.499255 
L 62.564547 -89.664995 
L 64.982487 -90.123782 
L 67.400427 -88.899363 
L 69.818366 -92.187895 
L 72.236306 -82.938628 
L 74.654245 -103.596046 
L 77.072185 -83.597552 
L 79.490124 -92.859849 
L 81.908064 -95.426769 
L 84.326003 -98.463935 
L 86.743943 -96.470307 
L 89.161883 -84.07714 
L 91.579822 -101.857914 
L 93.997762 -99.412296 
L 96.415701 -100.340187 
L 98.833641 -106.155527 
L 101.25158 -94.951384 
L 103.66952 -89.231542 
L 106.087459 -84.634248 
L 108.505399 -96.388639 
L 110.923338 -94.401274 
L 110.923338 -112.922806 
L 110.923338 -112.922806 
L 108.505399 -115.006322 
L 106.087459 -102.946061 
L 103.66952 -108.942843 
L 101.25158 -114.443733 
L 98.833641 -127.234719 
L 96.415701 -117.793987 
L 93.997762 -121.127367 
L 91.579822 -122.370002 
L 89.161883 -103.749726 
L 86.743943 -116.197875 
L 84.326003 -117.186164 
L 81.908064 -114.589514 
L 79.490124 -110.907108 
L 77.072185 -98.054575 
L 74.654245 -124.497879 
L 72.236306 -103.278028 
L 69.818366 -112.689922 
L 67.400427 -109.519133 
L 64.982487 -108.781981 
L 62.564547 -108.112601 
L 60.146608 -109.356248 
L 57.728668 -107.297202 
L 55.310729 -87.812265 
L 52.892789 -107.858862 
L 50.47485 -108.549815 
L 48.05691 -120.132456 
L 45.638971 -115.264475 
z
" style="stroke: #5b5b5b; stroke-opacity: 0.2"/>
    </defs>
    <g clip-path="url(#pa8625535e3)">
     <use xlink:href="#m7008be8a04" x="0" y="216.7525" style="fill: #5b5b5b; fill-opacity: 0.2; stroke: #5b5b5b; stroke-opacity: 0.2"/>
    </g>
   </g>
   <g id="PolyCollection_2">
    <defs>
     <path id="m6c3ce0609e" d="M 113.341278 -113.134724 
L 113.341278 -94.417223 
L 115.759218 -93.478836 
L 118.177157 -93.614035 
L 120.595097 -92.708404 
L 123.013036 -80.13878 
L 125.430976 -101.725245 
L 127.848915 -94.885009 
L 130.266855 -105.854564 
L 132.684794 -93.938845 
L 135.102734 -93.063302 
L 137.520674 -92.74551 
L 139.938613 -80.263599 
L 142.356553 -96.771877 
L 144.774492 -93.417479 
L 147.192432 -104.616476 
L 149.610371 -105.793983 
L 152.028311 -97.525003 
L 154.44625 -92.580519 
L 156.86419 -82.287283 
L 159.28213 -93.281947 
L 161.700069 -89.795176 
L 164.118009 -96.602139 
L 166.535948 -93.912729 
L 168.953888 -88.967783 
L 171.371827 -85.865535 
L 173.789767 -80.018837 
L 176.207706 -99.117915 
L 178.625646 -91.583074 
L 181.043585 -110.048268 
L 183.461525 -102.517195 
L 185.879465 -96.996045 
L 185.879465 -113.712774 
L 185.879465 -113.712774 
L 183.461525 -119.132339 
L 181.043585 -129.568726 
L 178.625646 -109.840002 
L 176.207706 -117.103336 
L 173.789767 -99.17748 
L 171.371827 -104.864415 
L 168.953888 -107.755626 
L 166.535948 -113.331225 
L 164.118009 -116.293804 
L 161.700069 -109.289047 
L 159.28213 -113.793524 
L 156.86419 -101.795597 
L 154.44625 -113.247519 
L 152.028311 -115.379418 
L 149.610371 -126.527844 
L 147.192432 -125.36068 
L 144.774492 -112.467797 
L 142.356553 -116.185718 
L 139.938613 -98.351066 
L 137.520674 -110.405031 
L 135.102734 -110.847845 
L 132.684794 -111.932246 
L 130.266855 -126.835514 
L 127.848915 -111.783721 
L 125.430976 -120.481791 
L 123.013036 -98.564827 
L 120.595097 -111.813946 
L 118.177157 -112.631495 
L 115.759218 -111.942727 
L 113.341278 -113.134724 
z
" style="stroke: #bb5951; stroke-opacity: 0.2"/>
    </defs>
    <g clip-path="url(#pa8625535e3)">
     <use xlink:href="#m6c3ce0609e" x="0" y="216.7525" style="fill: #bb5951; fill-opacity: 0.2; stroke: #bb5951; stroke-opacity: 0.2"/>
    </g>
   </g>
   <g id="PolyCollection_3">
    <defs>
     <path id="m449b699ee2" d="M 188.297404 -124.03984 
L 188.297404 -105.518745 
L 190.715344 -75.961703 
L 193.133283 -99.255735 
L 195.551223 -98.839766 
L 197.969162 -98.652675 
L 200.387102 -101.13552 
L 202.805041 -98.565325 
L 205.222981 -95.837996 
L 207.640921 -82.501126 
L 210.05886 -95.545838 
L 212.4768 -97.988148 
L 214.894739 -98.50867 
L 217.312679 -98.270139 
L 219.730618 -95.374941 
L 222.148558 -94.244033 
L 224.566497 -77.984586 
L 226.984437 -102.490476 
L 229.402377 -103.510103 
L 231.820316 -103.237774 
L 234.238256 -72.167185 
L 236.656195 -104.247552 
L 239.074135 -96.652825 
L 241.492074 -78.312299 
L 243.910014 -96.705545 
L 246.327953 -100.630977 
L 248.745893 -100.106399 
L 251.163832 -99.38975 
L 253.581772 -97.926327 
L 255.999712 -96.559541 
L 258.417651 -74.622708 
L 258.417651 -92.460568 
L 258.417651 -92.460568 
L 255.999712 -114.400523 
L 253.581772 -116.175204 
L 251.163832 -117.237778 
L 248.745893 -117.949287 
L 246.327953 -118.68554 
L 243.910014 -115.55054 
L 241.492074 -98.463453 
L 239.074135 -116.0044 
L 236.656195 -126.232107 
L 234.238256 -87.369197 
L 231.820316 -121.278536 
L 229.402377 -120.558317 
L 226.984437 -121.841845 
L 224.566497 -96.072537 
L 222.148558 -111.758452 
L 219.730618 -113.159166 
L 217.312679 -115.896184 
L 214.894739 -115.527759 
L 212.4768 -115.894811 
L 210.05886 -113.391735 
L 207.640921 -99.269022 
L 205.222981 -113.296265 
L 202.805041 -116.605012 
L 200.387102 -119.775063 
L 197.969162 -116.458728 
L 195.551223 -116.621692 
L 193.133283 -117.247477 
L 190.715344 -94.006969 
L 188.297404 -124.03984 
z
" style="stroke: #5481a6; stroke-opacity: 0.2"/>
    </defs>
    <g clip-path="url(#pa8625535e3)">
     <use xlink:href="#m449b699ee2" x="0" y="216.7525" style="fill: #5481a6; fill-opacity: 0.2; stroke: #5481a6; stroke-opacity: 0.2"/>
    </g>
   </g>
   <g id="PolyCollection_4">
    <defs>
     <path id="ma06c6dcd8d" d="M 260.835591 -97.688024 
L 260.835591 -78.090167 
L 263.25353 -100.954611 
L 265.67147 -88.788713 
L 268.089409 -102.49308 
L 270.507349 -100.299746 
L 272.925288 -100.318872 
L 275.343228 -80.072088 
L 277.761168 -105.532923 
L 280.179107 -103.655893 
L 282.597047 -109.064793 
L 285.014986 -107.830096 
L 287.432926 -104.754799 
L 289.850865 -102.088905 
L 292.268805 -84.617213 
L 294.686744 -106.973085 
L 297.104684 -107.659791 
L 299.522623 -107.03536 
L 301.940563 -107.324436 
L 304.358503 -103.982007 
L 306.776442 -103.708262 
L 309.194382 -98.293006 
L 311.612321 -111.220521 
L 314.030261 -113.535026 
L 316.4482 -110.977571 
L 318.86614 -115.347752 
L 321.284079 -117.483424 
L 323.702019 -116.957015 
L 326.119959 -105.02103 
L 328.537898 -120.670603 
L 330.955838 -118.001237 
L 333.373777 -118.251719 
L 333.373777 -137.210212 
L 333.373777 -137.210212 
L 330.955838 -137.374569 
L 328.537898 -139.062538 
L 326.119959 -125.75967 
L 323.702019 -137.576495 
L 321.284079 -138.018847 
L 318.86614 -135.957404 
L 316.4482 -130.873764 
L 314.030261 -133.89541 
L 311.612321 -132.919933 
L 309.194382 -115.264379 
L 306.776442 -120.167894 
L 304.358503 -121.322054 
L 301.940563 -127.321971 
L 299.522623 -126.235664 
L 297.104684 -126.646594 
L 294.686744 -125.620663 
L 292.268805 -103.82505 
L 289.850865 -119.909063 
L 287.432926 -122.915245 
L 285.014986 -126.26756 
L 282.597047 -126.978097 
L 280.179107 -121.516333 
L 277.761168 -124.088114 
L 275.343228 -99.702524 
L 272.925288 -117.888339 
L 270.507349 -118.504801 
L 268.089409 -121.298734 
L 265.67147 -107.438548 
L 263.25353 -119.608944 
L 260.835591 -97.688024 
z
" style="stroke: #48a072; stroke-opacity: 0.2"/>
    </defs>
    <g clip-path="url(#pa8625535e3)">
     <use xlink:href="#ma06c6dcd8d" x="0" y="216.7525" style="fill: #48a072; fill-opacity: 0.2; stroke: #48a072; stroke-opacity: 0.2"/>
    </g>
   </g>
   <g id="PolyCollection_5">
    <defs>
     <path id="m2f4bc0d3f5" d="M 335.791717 -140.935106 
L 335.791717 -121.646401 
L 338.209656 -125.863517 
L 340.627596 -135.770747 
L 343.045535 -101.503833 
L 345.463475 -121.436548 
L 347.881415 -120.270577 
L 350.299354 -121.194711 
L 352.717294 -125.485317 
L 355.135233 -126.01042 
L 357.553173 -132.496583 
L 359.971112 -110.367793 
L 362.389052 -130.928612 
L 364.806991 -129.662554 
L 367.224931 -127.264597 
L 369.64287 -132.697257 
L 372.06081 -130.785465 
L 374.47875 -130.33044 
L 376.896689 -116.076036 
L 379.314629 -138.277894 
L 381.732568 -144.250317 
L 384.150508 -148.453961 
L 386.568447 -140.809206 
L 388.986387 -142.088276 
L 391.404326 -140.29813 
L 393.822266 -129.398278 
L 396.240206 -96.621878 
L 398.658145 -77.7183 
L 401.076085 -102.799584 
L 403.494024 -103.482562 
L 405.911964 -104.082966 
L 405.911964 -120.550558 
L 405.911964 -120.550558 
L 403.494024 -121.841049 
L 401.076085 -120.401872 
L 398.658145 -94.776265 
L 396.240206 -112.643739 
L 393.822266 -152.24861 
L 391.404326 -162.260355 
L 388.986387 -164.720706 
L 386.568447 -161.153905 
L 384.150508 -166.544924 
L 381.732568 -165.305694 
L 379.314629 -158.160881 
L 376.896689 -138.491293 
L 374.47875 -150.041612 
L 372.06081 -149.940355 
L 369.64287 -151.277527 
L 367.224931 -147.481575 
L 364.806991 -149.094905 
L 362.389052 -151.55058 
L 359.971112 -130.445878 
L 357.553173 -151.877596 
L 355.135233 -145.501179 
L 352.717294 -145.038758 
L 350.299354 -140.475176 
L 347.881415 -141.10855 
L 345.463475 -142.082968 
L 343.045535 -123.179725 
L 340.627596 -154.772697 
L 338.209656 -146.475482 
L 335.791717 -140.935106 
z
" style="stroke: #736194; stroke-opacity: 0.2"/>
    </defs>
    <g clip-path="url(#pa8625535e3)">
     <use xlink:href="#m2f4bc0d3f5" x="0" y="216.7525" style="fill: #736194; fill-opacity: 0.2; stroke: #736194; stroke-opacity: 0.2"/>
    </g>
   </g>
   <g id="PolyCollection_6">
    <defs>
     <path id="m055ff63e93" d="M 408.329903 -122.29777 
L 408.329903 -103.330063 
L 410.747843 -98.062362 
L 413.165782 -117.449623 
L 415.583722 -111.161979 
L 418.001662 -130.522255 
L 420.419601 -136.657153 
L 422.837541 -117.818726 
L 425.25548 -124.837981 
L 427.67342 -106.934401 
L 430.091359 -135.38163 
L 432.509299 -140.516032 
L 434.927238 -143.490631 
L 437.345178 -143.671419 
L 439.763117 -124.518377 
L 442.181057 -131.122616 
L 444.598997 -127.622458 
L 447.016936 -143.468472 
L 449.434876 -146.648604 
L 451.852815 -152.042287 
L 454.270755 -143.45635 
L 456.688694 -132.263322 
L 459.106634 -129.958982 
L 461.524573 -116.541867 
L 463.942513 -153.049435 
L 466.360453 -157.404063 
L 468.778392 -154.476262 
L 471.196332 -155.866616 
L 473.614271 -152.628804 
L 476.032211 -153.437861 
L 478.45015 -135.121907 
L 480.86809 -158.968706 
L 480.86809 -177.701271 
L 480.86809 -177.701271 
L 478.45015 -152.720852 
L 476.032211 -173.457062 
L 473.614271 -171.363648 
L 471.196332 -175.447008 
L 468.778392 -173.654298 
L 466.360453 -176.267955 
L 463.942513 -173.435624 
L 461.524573 -135.080118 
L 459.106634 -148.881488 
L 456.688694 -151.103806 
L 454.270755 -160.964651 
L 451.852815 -171.611902 
L 449.434876 -165.630471 
L 447.016936 -163.105573 
L 444.598997 -145.346827 
L 442.181057 -151.129003 
L 439.763117 -140.255723 
L 437.345178 -161.622874 
L 434.927238 -162.994972 
L 432.509299 -160.170735 
L 430.091359 -154.207723 
L 427.67342 -124.002988 
L 425.25548 -143.108512 
L 422.837541 -135.950344 
L 420.419601 -156.031215 
L 418.001662 -150.019213 
L 415.583722 -130.273165 
L 413.165782 -136.232187 
L 410.747843 -116.390063 
L 408.329903 -122.29777 
z
" style="stroke: #dd7c49; stroke-opacity: 0.2"/>
    </defs>
    <g clip-path="url(#pa8625535e3)">
     <use xlink:href="#m055ff63e93" x="0" y="216.7525" style="fill: #dd7c49; fill-opacity: 0.2; stroke: #dd7c49; stroke-opacity: 0.2"/>
    </g>
   </g>
   <g id="line2d_43">
    <path d="M 45.638971 111.314161 
L 48.05691 106.915266 
L 50.47485 116.854069 
L 52.892789 117.456577 
L 55.310729 138.347559 
L 57.728668 118.55014 
L 60.146608 117.063733 
L 62.564547 117.717737 
L 64.982487 117.044974 
L 67.400427 117.088746 
L 69.818366 114.105265 
L 72.236306 123.43825 
L 74.654245 102.838959 
L 77.072185 126.039922 
L 79.490124 115.265038 
L 81.908064 111.455041 
L 84.326003 108.908912 
L 86.743943 110.809129 
L 89.161883 122.800063 
L 91.579822 104.664138 
L 93.997762 106.454373 
L 96.415701 107.764956 
L 98.833641 100.582681 
L 101.25158 112.305835 
L 103.66952 117.741646 
L 106.087459 123.17378 
L 108.505399 111.505801 
L 110.923338 113.00545 
" clip-path="url(#pa8625535e3)" style="fill: none; stroke: #5b5b5b; stroke-width: 1.2; stroke-linecap: square"/>
   </g>
   <g id="line2d_44">
    <path d="M 113.341278 113.304684 
L 115.759218 114.632665 
L 118.177157 113.868384 
L 120.595097 114.578733 
L 123.013036 127.417851 
L 125.430976 105.962188 
L 127.848915 113.482734 
L 130.266855 100.360658 
L 132.684794 112.932702 
L 135.102734 115.153514 
L 137.520674 115.087762 
L 139.938613 127.899913 
L 142.356553 110.388298 
L 144.774492 113.88279 
L 147.192432 101.716344 
L 149.610371 100.670213 
L 152.028311 110.722233 
L 154.44625 113.660413 
L 156.86419 124.706849 
L 159.28213 113.401836 
L 161.700069 116.905193 
L 164.118009 110.860387 
L 166.535948 112.979985 
L 168.953888 118.41307 
L 171.371827 120.89246 
L 173.789767 127.250514 
L 176.207706 108.400945 
L 178.625646 115.972836 
L 181.043585 96.810018 
L 183.461525 105.435429 
L 185.879465 111.929421 
" clip-path="url(#pa8625535e3)" style="fill: none; stroke: #bb5951; stroke-width: 1.2; stroke-linecap: square"/>
   </g>
   <g id="line2d_45">
    <path d="M 188.297404 102.23067 
L 190.715344 131.811615 
L 193.133283 108.690172 
L 195.551223 109.490788 
L 197.969162 108.832952 
L 200.387102 106.628453 
L 202.805041 109.373798 
L 205.222981 112.251831 
L 207.640921 125.7057 
L 210.05886 112.471608 
L 212.4768 110.123955 
L 214.894739 109.90829 
L 217.312679 109.318853 
L 219.730618 112.096716 
L 222.148558 114.069477 
L 224.566497 129.846329 
L 226.984437 105.084034 
L 229.402377 104.555522 
L 231.820316 104.225109 
L 234.238256 136.844061 
L 236.656195 101.274191 
L 239.074135 110.84907 
L 241.492074 128.588966 
L 243.910014 110.724978 
L 246.327953 107.346467 
L 248.745893 107.709398 
L 251.163832 108.75745 
L 253.581772 109.786067 
L 255.999712 111.175745 
L 258.417651 132.890316 
" clip-path="url(#pa8625535e3)" style="fill: none; stroke: #5481a6; stroke-width: 1.2; stroke-linecap: square"/>
   </g>
   <g id="line2d_46">
    <path d="M 260.835591 128.74286 
L 263.25353 106.451653 
L 265.67147 118.428338 
L 268.089409 104.964055 
L 270.507349 107.684994 
L 272.925288 107.726737 
L 275.343228 127.59073 
L 277.761168 101.550168 
L 280.179107 104.320441 
L 282.597047 98.57573 
L 285.014986 99.332432 
L 287.432926 102.706852 
L 289.850865 105.986399 
L 292.268805 122.092688 
L 294.686744 100.436746 
L 297.104684 99.802999 
L 299.522623 100.227268 
L 301.940563 99.636023 
L 304.358503 104.600504 
L 306.776442 105.096117 
L 309.194382 110.160782 
L 311.612321 94.692795 
L 314.030261 92.88263 
L 316.4482 95.728801 
L 318.86614 91.897476 
L 321.284079 89.600806 
L 323.702019 88.801601 
L 326.119959 101.188135 
L 328.537898 87.096176 
L 330.955838 89.153008 
L 333.373777 88.607303 
" clip-path="url(#pa8625535e3)" style="fill: none; stroke: #48a072; stroke-width: 1.2; stroke-linecap: square"/>
   </g>
   <g id="line2d_47">
    <path d="M 335.791717 85.476942 
L 338.209656 80.655542 
L 340.627596 71.372239 
L 343.045535 103.844254 
L 345.463475 84.613076 
L 347.881415 86.088624 
L 350.299354 85.633312 
L 352.717294 80.836441 
L 355.135233 80.693102 
L 357.553173 75.031597 
L 359.971112 96.366102 
L 362.389052 75.271518 
L 364.806991 77.229205 
L 367.224931 78.910947 
L 369.64287 75.212496 
L 372.06081 76.450423 
L 374.47875 76.922598 
L 376.896689 89.606177 
L 379.314629 68.476333 
L 381.732568 62.201614 
L 384.150508 59.600051 
L 386.568447 65.609554 
L 388.986387 63.064713 
L 391.404326 65.556664 
L 393.822266 75.918459 
L 396.240206 112.03067 
L 398.658145 131.024227 
L 401.076085 105.165732 
L 403.494024 104.596209 
L 405.911964 104.444055 
" clip-path="url(#pa8625535e3)" style="fill: none; stroke: #736194; stroke-width: 1.2; stroke-linecap: square"/>
   </g>
   <g id="line2d_48">
    <path d="M 408.329903 103.931696 
L 410.747843 109.320918 
L 413.165782 89.622859 
L 415.583722 96.470997 
L 418.001662 76.548372 
L 420.419601 70.76808 
L 422.837541 89.983935 
L 425.25548 82.765492 
L 427.67342 101.182289 
L 430.091359 72.419262 
L 432.509299 66.691267 
L 434.927238 63.113193 
L 437.345178 64.483282 
L 439.763117 84.107126 
L 442.181057 75.24596 
L 444.598997 80.166053 
L 447.016936 63.545407 
L 449.434876 60.38109 
L 451.852815 55.13376 
L 454.270755 64.849741 
L 456.688694 75.603191 
L 459.106634 77.499705 
L 461.524573 90.947958 
L 463.942513 53.420668 
L 466.360453 49.891044 
L 468.778392 52.324366 
L 471.196332 50.996575 
L 473.614271 54.5535 
L 476.032211 53.789434 
L 478.45015 72.773417 
L 480.86809 48.708992 
" clip-path="url(#pa8625535e3)" style="fill: none; stroke: #dd7c49; stroke-width: 1.2; stroke-linecap: square"/>
   </g>
   <g id="line2d_49"/>
   <g id="line2d_50"/>
   <g id="line2d_51"/>
   <g id="line2d_52"/>
   <g id="line2d_53"/>
   <g id="line2d_54"/>
   <g id="patch_4">
    <path d="M 38.7625 166.647399 
L 38.7625 36.435101 
" style="fill: none; stroke: #cccccc; stroke-width: 0.75; stroke-linejoin: miter; stroke-linecap: square"/>
   </g>
   <g id="patch_5">
    <path d="M 45.638971 175.84125 
L 483.286029 175.84125 
" style="fill: none; stroke: #cccccc; stroke-width: 0.75; stroke-linejoin: miter; stroke-linecap: square"/>
   </g>
   <g id="legend_1">
    <g id="line2d_55">
     <defs>
      <path id="m7317116e06" d="M 0 1.5 
C 0.397805 1.5 0.77937 1.341951 1.06066 1.06066 
C 1.341951 0.77937 1.5 0.397805 1.5 0 
C 1.5 -0.397805 1.341951 -0.77937 1.06066 -1.06066 
C 0.77937 -1.341951 0.397805 -1.5 0 -1.5 
C -0.397805 -1.5 -0.77937 -1.341951 -1.06066 -1.06066 
C -1.341951 -0.77937 -1.5 -0.397805 -1.5 0 
C -1.5 0.397805 -1.341951 0.77937 -1.06066 1.06066 
C -0.77937 1.341951 -0.397805 1.5 0 1.5 
z
" style="stroke: #5b5b5b"/>
     </defs>
     <g>
      <use xlink:href="#m7317116e06" x="56.4625" y="13.8075" style="fill: #5b5b5b; stroke: #5b5b5b"/>
     </g>
    </g>
    <g id="text_33">
     <!-- February -->
     <g style="fill: #4b4b4b" transform="translate(64.4625 16.6075) scale(0.08 -0.08)">
      <use xlink:href="#Ubuntu-46"/>
      <use xlink:href="#Ubuntu-65" x="52.324997"/>
      <use xlink:href="#Ubuntu-62" x="108.224991"/>
      <use xlink:href="#Ubuntu-72" x="167.124985"/>
      <use xlink:href="#Ubuntu-75" x="205.724976"/>
      <use xlink:href="#Ubuntu-61" x="263.124969"/>
      <use xlink:href="#Ubuntu-72" x="315.324966"/>
      <use xlink:href="#Ubuntu-79" x="356.049957"/>
     </g>
    </g>
    <g id="line2d_56">
     <defs>
      <path id="m8b97acb23b" d="M 0 1.5 
C 0.397805 1.5 0.77937 1.341951 1.06066 1.06066 
C 1.341951 0.77937 1.5 0.397805 1.5 0 
C 1.5 -0.397805 1.341951 -0.77937 1.06066 -1.06066 
C 0.77937 -1.341951 0.397805 -1.5 0 -1.5 
C -0.397805 -1.5 -0.77937 -1.341951 -1.06066 -1.06066 
C -1.341951 -0.77937 -1.5 -0.397805 -1.5 0 
C -1.5 0.397805 -1.341951 0.77937 -1.06066 1.06066 
C -0.77937 1.341951 -0.397805 1.5 0 1.5 
z
" style="stroke: #bb5951"/>
     </defs>
     <g>
      <use xlink:href="#m8b97acb23b" x="120.92375" y="13.8075" style="fill: #bb5951; stroke: #bb5951"/>
     </g>
    </g>
    <g id="text_34">
     <!-- March -->
     <g style="fill: #4b4b4b" transform="translate(128.92375 16.6075) scale(0.08 -0.08)">
      <use xlink:href="#Ubuntu-4d"/>
      <use xlink:href="#Ubuntu-61" x="87.099991"/>
      <use xlink:href="#Ubuntu-72" x="139.299988"/>
      <use xlink:href="#Ubuntu-63" x="177.899979"/>
      <use xlink:href="#Ubuntu-68" x="224.399963"/>
     </g>
    </g>
    <g id="line2d_57">
     <defs>
      <path id="m6e03694234" d="M 0 1.5 
C 0.397805 1.5 0.77937 1.341951 1.06066 1.06066 
C 1.341951 0.77937 1.5 0.397805 1.5 0 
C 1.5 -0.397805 1.341951 -0.77937 1.06066 -1.06066 
C 0.77937 -1.341951 0.397805 -1.5 0 -1.5 
C -0.397805 -1.5 -0.77937 -1.341951 -1.06066 -1.06066 
C -1.341951 -0.77937 -1.5 -0.397805 -1.5 0 
C -1.5 0.397805 -1.341951 0.77937 -1.06066 1.06066 
C -0.77937 1.341951 -0.397805 1.5 0 1.5 
z
" style="stroke: #5481a6"/>
     </defs>
     <g>
      <use xlink:href="#m6e03694234" x="175.4425" y="13.8075" style="fill: #5481a6; stroke: #5481a6"/>
     </g>
    </g>
    <g id="text_35">
     <!-- April -->
     <g style="fill: #4b4b4b" transform="translate(183.4425 16.6075) scale(0.08 -0.08)">
      <use xlink:href="#Ubuntu-41"/>
      <use xlink:href="#Ubuntu-70" x="66.299988"/>
      <use xlink:href="#Ubuntu-72" x="125.199982"/>
      <use xlink:href="#Ubuntu-69" x="163.799973"/>
      <use xlink:href="#Ubuntu-6c" x="189.09996"/>
     </g>
    </g>
    <g id="line2d_58">
     <defs>
      <path id="m8decc4a963" d="M 0 1.5 
C 0.397805 1.5 0.77937 1.341951 1.06066 1.06066 
C 1.341951 0.77937 1.5 0.397805 1.5 0 
C 1.5 -0.397805 1.341951 -0.77937 1.06066 -1.06066 
C 0.77937 -1.341951 0.397805 -1.5 0 -1.5 
C -0.397805 -1.5 -0.77937 -1.341951 -1.06066 -1.06066 
C -1.341951 -0.77937 -1.5 -0.397805 -1.5 0 
C -1.5 0.397805 -1.341951 0.77937 -1.06066 1.06066 
C -0.77937 1.341951 -0.397805 1.5 0 1.5 
z
" style="stroke: #48a072"/>
     </defs>
     <g>
      <use xlink:href="#m8decc4a963" x="224.75375" y="13.8075" style="fill: #48a072; stroke: #48a072"/>
     </g>
    </g>
    <g id="text_36">
     <!-- May -->
     <g style="fill: #4b4b4b" transform="translate(232.75375 16.6075) scale(0.08 -0.08)">
      <use xlink:href="#Ubuntu-4d"/>
      <use xlink:href="#Ubuntu-61" x="87.099991"/>
      <use xlink:href="#Ubuntu-79" x="137.799988"/>
     </g>
    </g>
    <g id="line2d_59">
     <defs>
      <path id="m40b09f7e6c" d="M 0 1.5 
C 0.397805 1.5 0.77937 1.341951 1.06066 1.06066 
C 1.341951 0.77937 1.5 0.397805 1.5 0 
C 1.5 -0.397805 1.341951 -0.77937 1.06066 -1.06066 
C 0.77937 -1.341951 0.397805 -1.5 0 -1.5 
C -0.397805 -1.5 -0.77937 -1.341951 -1.06066 -1.06066 
C -1.341951 -0.77937 -1.5 -0.397805 -1.5 0 
C -1.5 0.397805 -1.341951 0.77937 -1.06066 1.06066 
C -0.77937 1.341951 -0.397805 1.5 0 1.5 
z
" style="stroke: #736194"/>
     </defs>
     <g>
      <use xlink:href="#m40b09f7e6c" x="271.75375" y="13.8075" style="fill: #736194; stroke: #736194"/>
     </g>
    </g>
    <g id="text_37">
     <!-- June -->
     <g style="fill: #4b4b4b" transform="translate(279.75375 16.6075) scale(0.08 -0.08)">
      <use xlink:href="#Ubuntu-4a"/>
      <use xlink:href="#Ubuntu-75" x="49.999985"/>
      <use xlink:href="#Ubuntu-6e" x="107.399979"/>
      <use xlink:href="#Ubuntu-65" x="164.799973"/>
     </g>
    </g>
    <g id="line2d_60">
     <defs>
      <path id="m1503037e8f" d="M 0 1.5 
C 0.397805 1.5 0.77937 1.341951 1.06066 1.06066 
C 1.341951 0.77937 1.5 0.397805 1.5 0 
C 1.5 -0.397805 1.341951 -0.77937 1.06066 -1.06066 
C 0.77937 -1.341951 0.397805 -1.5 0 -1.5 
C -0.397805 -1.5 -0.77937 -1.341951 -1.06066 -1.06066 
C -1.341951 -0.77937 -1.5 -0.397805 -1.5 0 
C -1.5 0.397805 -1.341951 0.77937 -1.06066 1.06066 
C -0.77937 1.341951 -0.397805 1.5 0 1.5 
z
" style="stroke: #dd7c49"/>
     </defs>
     <g>
      <use xlink:href="#m1503037e8f" x="321.41125" y="13.8075" style="fill: #dd7c49; stroke: #dd7c49"/>
     </g>
    </g>
    <g id="text_38">
     <!-- July -->
     <g style="fill: #4b4b4b" transform="translate(329.41125 16.6075) scale(0.08 -0.08)">
      <use xlink:href="#Ubuntu-4a"/>
      <use xlink:href="#Ubuntu-75" x="49.999985"/>
      <use xlink:href="#Ubuntu-6c" x="107.399979"/>
      <use xlink:href="#Ubuntu-79" x="134.699966"/>
     </g>
    </g>
   </g>
  </g>
 </g>
 <defs>
  <clipPath id="pa8625535e3">
   <rect x="41.2625" y="32.24125" width="446.4" height="138.6"/>
  </clipPath>
  <clipPath id="pb1aa126e32">
   <rect x="41.2625" y="170.84125" width="446.4" height="0"/>
  </clipPath>
 </defs>
</svg>
