<?xml version="1.0" encoding="utf-8" standalone="no"?>
<!DOCTYPE svg PUBLIC "-//W3C//DTD SVG 1.1//EN"
  "http://www.w3.org/Graphics/SVG/1.1/DTD/svg11.dtd">
<svg xmlns:xlink="http://www.w3.org/1999/xlink" width="497.429902pt" height="216.7525pt" viewBox="0 0 497.429902 216.7525" xmlns="http://www.w3.org/2000/svg" version="1.1">
 <metadata>
  <rdf:RDF xmlns:dc="http://purl.org/dc/elements/1.1/" xmlns:cc="http://creativecommons.org/ns#" xmlns:rdf="http://www.w3.org/1999/02/22-rdf-syntax-ns#">
   <cc:Work>
    <dc:type rdf:resource="http://purl.org/dc/dcmitype/StillImage"/>
    <dc:date>2024-05-07T16:26:46.891551</dc:date>
    <dc:format>image/svg+xml</dc:format>
    <dc:creator>
     <cc:Agent>
      <dc:title>Matplotlib v3.8.3, https://matplotlib.org/</dc:title>
     </cc:Agent>
    </dc:creator>
   </cc:Work>
  </rdf:RDF>
 </metadata>
 <defs>
  <style type="text/css">*{stroke-linejoin: round; stroke-linecap: butt}</style>
 </defs>
 <g id="figure_1">
  <g id="patch_1">
   <path d="M 0 216.7525 
L 497.429902 216.7525 
L 497.429902 0 
L 0 0 
L 0 216.7525 
z
" style="fill: none"/>
  </g>
  <g id="axes_1">
   <g id="patch_2">
    <path d="M 41.2625 170.84125 
L 487.6625 170.84125 
L 487.6625 32.24125 
L 41.2625 32.24125 
L 41.2625 170.84125 
z
" style="fill: none"/>
   </g>
   <g id="axes_2">
    <g id="patch_3">
     <path d="M 41.2625 170.84125 
L 487.6625 170.84125 
L 487.6625 170.84125 
L 41.2625 170.84125 
L 41.2625 170.84125 
z
" style="fill: none"/>
    </g>
    <g id="matplotlib.axis_1">
     <g id="xtick_1">
      <g id="line2d_1">
       <path d="M 79.678186 170.84125 
L 79.678186 170.84125 
" clip-path="url(#pe5e09f3dfd)" style="fill: none; stroke-dasharray: 0.5,0.825; stroke-dashoffset: 0; stroke: #d9d9d9; stroke-width: 0.5"/>
      </g>
      <g id="text_1">
       <!-- February -->
       <g style="fill: #808080" transform="translate(63.447561 208.04875) scale(0.08 -0.08)">
        <defs>
         <path id="Ubuntu-46" d="M 550 0 
L 550 4435 
L 3226 4435 
L 3226 3904 
L 1171 3904 
L 1171 2566 
L 2995 2566 
L 2995 2042 
L 1171 2042 
L 1171 0 
L 550 0 
z
" transform="scale(0.015625)"/>
         <path id="Ubuntu-65" d="M 326 1658 
Q 326 2099 454 2428 
Q 582 2758 793 2976 
Q 1005 3194 1280 3302 
Q 1555 3411 1843 3411 
Q 2515 3411 2873 2992 
Q 3232 2573 3232 1715 
Q 3232 1677 3232 1616 
Q 3232 1555 3226 1504 
L 947 1504 
Q 986 986 1248 717 
Q 1510 448 2067 448 
Q 2381 448 2595 502 
Q 2810 557 2918 608 
L 3002 109 
Q 2893 51 2621 -13 
Q 2349 -77 2003 -77 
Q 1568 -77 1251 54 
Q 934 186 729 416 
Q 525 646 425 963 
Q 326 1280 326 1658 
z
M 2611 1984 
Q 2618 2387 2410 2646 
Q 2202 2906 1837 2906 
Q 1632 2906 1475 2826 
Q 1318 2746 1209 2618 
Q 1101 2490 1040 2323 
Q 979 2157 960 1984 
L 2611 1984 
z
" transform="scale(0.015625)"/>
         <path id="Ubuntu-62" d="M 1107 3181 
Q 1216 3251 1437 3328 
Q 1658 3405 1946 3405 
Q 2304 3405 2582 3277 
Q 2861 3149 3053 2918 
Q 3245 2688 3344 2368 
Q 3443 2048 3443 1664 
Q 3443 1261 3324 937 
Q 3206 614 2988 390 
Q 2771 166 2464 44 
Q 2157 -77 1773 -77 
Q 1357 -77 1037 -19 
Q 717 38 512 96 
L 512 4864 
L 1107 4966 
L 1107 3181 
z
M 1107 518 
Q 1197 493 1360 470 
Q 1523 448 1766 448 
Q 2246 448 2534 765 
Q 2822 1082 2822 1664 
Q 2822 1920 2771 2144 
Q 2720 2368 2605 2531 
Q 2490 2694 2307 2787 
Q 2125 2880 1869 2880 
Q 1626 2880 1421 2797 
Q 1216 2714 1107 2624 
L 1107 518 
z
" transform="scale(0.015625)"/>
         <path id="Ubuntu-72" d="M 1741 3398 
Q 1818 3398 1917 3388 
Q 2016 3379 2112 3363 
Q 2208 3347 2288 3331 
Q 2368 3315 2406 3302 
L 2304 2784 
Q 2234 2810 2070 2845 
Q 1907 2880 1651 2880 
Q 1485 2880 1321 2845 
Q 1158 2810 1107 2797 
L 1107 0 
L 512 0 
L 512 3187 
Q 723 3264 1036 3331 
Q 1350 3398 1741 3398 
z
" transform="scale(0.015625)"/>
         <path id="Ubuntu-75" d="M 3162 96 
Q 2957 45 2621 -12 
Q 2285 -70 1843 -70 
Q 1459 -70 1196 42 
Q 934 154 774 358 
Q 614 563 544 841 
Q 474 1120 474 1459 
L 474 3328 
L 1069 3328 
L 1069 1587 
Q 1069 979 1261 716 
Q 1453 454 1907 454 
Q 2003 454 2105 460 
Q 2208 467 2297 476 
Q 2387 486 2460 496 
Q 2534 506 2566 518 
L 2566 3328 
L 3162 3328 
L 3162 96 
z
" transform="scale(0.015625)"/>
         <path id="Ubuntu-61" d="M 1638 429 
Q 1850 429 2013 438 
Q 2176 448 2285 474 
L 2285 1466 
Q 2221 1498 2077 1520 
Q 1933 1542 1728 1542 
Q 1594 1542 1443 1523 
Q 1293 1504 1168 1443 
Q 1043 1382 960 1276 
Q 877 1171 877 998 
Q 877 678 1081 553 
Q 1286 429 1638 429 
z
M 1587 3411 
Q 1946 3411 2192 3318 
Q 2438 3226 2588 3056 
Q 2739 2886 2803 2652 
Q 2867 2419 2867 2138 
L 2867 58 
Q 2790 45 2652 22 
Q 2515 0 2342 -19 
Q 2170 -38 1968 -54 
Q 1766 -70 1568 -70 
Q 1286 -70 1049 -12 
Q 813 45 640 169 
Q 467 294 371 499 
Q 275 704 275 992 
Q 275 1267 387 1465 
Q 499 1664 691 1785 
Q 883 1907 1139 1964 
Q 1395 2022 1677 2022 
Q 1766 2022 1862 2012 
Q 1958 2003 2044 1987 
Q 2131 1971 2195 1958 
Q 2259 1946 2285 1939 
L 2285 2106 
Q 2285 2253 2253 2397 
Q 2221 2541 2137 2653 
Q 2054 2765 1910 2832 
Q 1766 2899 1536 2899 
Q 1242 2899 1021 2857 
Q 800 2816 691 2771 
L 621 3264 
Q 736 3315 1005 3363 
Q 1274 3411 1587 3411 
z
" transform="scale(0.015625)"/>
         <path id="Ubuntu-79" d="M 122 -621 
Q 192 -653 304 -681 
Q 416 -710 525 -710 
Q 877 -710 1075 -553 
Q 1274 -397 1434 -45 
Q 1030 723 681 1584 
Q 333 2445 102 3328 
L 742 3328 
Q 813 3040 912 2707 
Q 1011 2374 1132 2022 
Q 1254 1670 1395 1318 
Q 1536 966 1690 640 
Q 1933 1312 2112 1971 
Q 2291 2630 2451 3328 
L 3066 3328 
Q 2835 2387 2553 1520 
Q 2272 653 1946 -102 
Q 1818 -390 1680 -598 
Q 1542 -806 1376 -940 
Q 1210 -1075 1002 -1139 
Q 794 -1203 531 -1203 
Q 461 -1203 384 -1193 
Q 307 -1184 233 -1168 
Q 160 -1152 99 -1133 
Q 38 -1114 13 -1101 
L 122 -621 
z
" transform="scale(0.015625)"/>
        </defs>
        <use xlink:href="#Ubuntu-46"/>
        <use xlink:href="#Ubuntu-65" x="52.324997"/>
        <use xlink:href="#Ubuntu-62" x="108.224991"/>
        <use xlink:href="#Ubuntu-72" x="167.124985"/>
        <use xlink:href="#Ubuntu-75" x="205.724976"/>
        <use xlink:href="#Ubuntu-61" x="263.124969"/>
        <use xlink:href="#Ubuntu-72" x="315.324966"/>
        <use xlink:href="#Ubuntu-79" x="356.049957"/>
       </g>
      </g>
     </g>
     <g id="xtick_2">
      <g id="line2d_2">
       <path d="M 147.756618 170.84125 
L 147.756618 170.84125 
" clip-path="url(#pe5e09f3dfd)" style="fill: none; stroke-dasharray: 0.5,0.825; stroke-dashoffset: 0; stroke: #d9d9d9; stroke-width: 0.5"/>
      </g>
      <g id="text_2">
       <!-- March -->
       <g style="fill: #808080" transform="translate(136.497243 208.04875) scale(0.08 -0.08)">
        <defs>
         <path id="Ubuntu-4d" d="M 2541 614 
Q 2477 768 2371 1005 
Q 2266 1242 2144 1517 
Q 2022 1792 1884 2083 
Q 1747 2374 1625 2633 
Q 1504 2893 1398 3097 
Q 1293 3302 1229 3411 
Q 1158 2656 1113 1776 
Q 1069 896 1037 0 
L 429 0 
Q 454 576 486 1161 
Q 518 1747 560 2313 
Q 602 2880 650 3417 
Q 698 3955 755 4435 
L 1299 4435 
Q 1472 4154 1670 3770 
Q 1869 3386 2067 2966 
Q 2266 2547 2451 2128 
Q 2637 1709 2790 1363 
Q 2944 1709 3129 2128 
Q 3315 2547 3513 2966 
Q 3712 3386 3910 3770 
Q 4109 4154 4282 4435 
L 4826 4435 
Q 5043 2291 5152 0 
L 4544 0 
Q 4512 896 4467 1776 
Q 4422 2656 4352 3411 
Q 4288 3302 4182 3097 
Q 4077 2893 3955 2633 
Q 3834 2374 3696 2083 
Q 3558 1792 3436 1517 
Q 3315 1242 3209 1005 
Q 3104 768 3040 614 
L 2541 614 
z
" transform="scale(0.015625)"/>
         <path id="Ubuntu-63" d="M 1958 -77 
Q 1555 -77 1251 51 
Q 947 179 739 409 
Q 531 640 428 957 
Q 326 1274 326 1658 
Q 326 2042 438 2362 
Q 550 2682 755 2915 
Q 960 3149 1257 3280 
Q 1555 3411 1920 3411 
Q 2144 3411 2368 3372 
Q 2592 3334 2797 3251 
L 2662 2746 
Q 2528 2810 2352 2848 
Q 2176 2886 1978 2886 
Q 1478 2886 1212 2572 
Q 947 2259 947 1658 
Q 947 1389 1008 1165 
Q 1069 941 1200 781 
Q 1331 621 1536 534 
Q 1741 448 2035 448 
Q 2272 448 2464 493 
Q 2656 538 2765 589 
L 2848 90 
Q 2797 58 2701 29 
Q 2605 0 2483 -22 
Q 2362 -45 2224 -61 
Q 2086 -77 1958 -77 
z
" transform="scale(0.015625)"/>
         <path id="Ubuntu-68" d="M 512 0 
L 512 4864 
L 1107 4966 
L 1107 3264 
Q 1274 3328 1462 3363 
Q 1651 3398 1837 3398 
Q 2234 3398 2496 3286 
Q 2758 3174 2915 2972 
Q 3072 2771 3136 2489 
Q 3200 2208 3200 1869 
L 3200 0 
L 2605 0 
L 2605 1741 
Q 2605 2048 2563 2265 
Q 2522 2483 2426 2617 
Q 2330 2752 2170 2813 
Q 2010 2874 1773 2874 
Q 1677 2874 1574 2861 
Q 1472 2848 1379 2832 
Q 1286 2816 1212 2797 
Q 1139 2778 1107 2765 
L 1107 0 
L 512 0 
z
" transform="scale(0.015625)"/>
        </defs>
        <use xlink:href="#Ubuntu-4d"/>
        <use xlink:href="#Ubuntu-61" x="87.099991"/>
        <use xlink:href="#Ubuntu-72" x="139.299988"/>
        <use xlink:href="#Ubuntu-63" x="177.899979"/>
        <use xlink:href="#Ubuntu-68" x="224.399963"/>
       </g>
      </g>
     </g>
     <g id="xtick_3">
      <g id="line2d_3">
       <path d="M 223.129167 170.84125 
L 223.129167 170.84125 
" clip-path="url(#pe5e09f3dfd)" style="fill: none; stroke-dasharray: 0.5,0.825; stroke-dashoffset: 0; stroke: #d9d9d9; stroke-width: 0.5"/>
      </g>
      <g id="text_3">
       <!-- April -->
       <g style="fill: #808080" transform="translate(214.473542 208.04875) scale(0.08 -0.08)">
        <defs>
         <path id="Ubuntu-41" d="M 3514 0 
Q 3405 288 3309 566 
Q 3213 845 3110 1133 
L 1101 1133 
L 698 0 
L 51 0 
Q 307 704 531 1302 
Q 755 1901 969 2438 
Q 1184 2976 1395 3465 
Q 1606 3955 1837 4435 
L 2406 4435 
Q 2637 3955 2848 3465 
Q 3059 2976 3273 2438 
Q 3488 1901 3712 1302 
Q 3936 704 4192 0 
L 3514 0 
z
M 2931 1645 
Q 2726 2202 2524 2723 
Q 2323 3245 2106 3725 
Q 1882 3245 1680 2723 
Q 1478 2202 1280 1645 
L 2931 1645 
z
" transform="scale(0.015625)"/>
         <path id="Ubuntu-70" d="M 2822 1658 
Q 2822 2240 2534 2553 
Q 2246 2867 1766 2867 
Q 1498 2867 1347 2848 
Q 1197 2829 1107 2803 
L 1107 704 
Q 1216 614 1421 531 
Q 1626 448 1869 448 
Q 2125 448 2307 541 
Q 2490 634 2605 797 
Q 2720 960 2771 1181 
Q 2822 1402 2822 1658 
z
M 3443 1658 
Q 3443 1280 3344 960 
Q 3245 640 3053 409 
Q 2861 179 2582 51 
Q 2304 -77 1946 -77 
Q 1658 -77 1437 0 
Q 1216 77 1107 147 
L 1107 -1184 
L 512 -1184 
L 512 3226 
Q 723 3277 1040 3337 
Q 1357 3398 1773 3398 
Q 2157 3398 2464 3276 
Q 2771 3155 2988 2931 
Q 3206 2707 3324 2384 
Q 3443 2061 3443 1658 
z
" transform="scale(0.015625)"/>
         <path id="Ubuntu-69" d="M 1107 0 
L 512 0 
L 512 3328 
L 1107 3328 
L 1107 0 
z
M 806 3930 
Q 646 3930 534 4035 
Q 422 4141 422 4320 
Q 422 4499 534 4604 
Q 646 4710 806 4710 
Q 966 4710 1078 4604 
Q 1190 4499 1190 4320 
Q 1190 4141 1078 4035 
Q 966 3930 806 3930 
z
" transform="scale(0.015625)"/>
         <path id="Ubuntu-6c" d="M 1510 -64 
Q 960 -51 729 173 
Q 499 397 499 870 
L 499 4864 
L 1094 4966 
L 1094 966 
Q 1094 819 1120 723 
Q 1146 627 1203 569 
Q 1261 512 1357 483 
Q 1453 454 1594 435 
L 1510 -64 
z
" transform="scale(0.015625)"/>
        </defs>
        <use xlink:href="#Ubuntu-41"/>
        <use xlink:href="#Ubuntu-70" x="66.299988"/>
        <use xlink:href="#Ubuntu-72" x="125.199982"/>
        <use xlink:href="#Ubuntu-69" x="163.799973"/>
        <use xlink:href="#Ubuntu-6c" x="189.09996"/>
       </g>
      </g>
     </g>
     <g id="xtick_4">
      <g id="line2d_4">
       <path d="M 296.070343 170.84125 
L 296.070343 170.84125 
" clip-path="url(#pe5e09f3dfd)" style="fill: none; stroke-dasharray: 0.5,0.825; stroke-dashoffset: 0; stroke: #d9d9d9; stroke-width: 0.5"/>
      </g>
      <g id="text_4">
       <!-- May -->
       <g style="fill: #808080" transform="translate(288.570343 208.025) scale(0.08 -0.08)">
        <use xlink:href="#Ubuntu-4d"/>
        <use xlink:href="#Ubuntu-61" x="87.099991"/>
        <use xlink:href="#Ubuntu-79" x="137.799988"/>
       </g>
      </g>
     </g>
     <g id="xtick_5">
      <g id="line2d_5">
       <path d="M 371.442892 170.84125 
L 371.442892 170.84125 
" clip-path="url(#pe5e09f3dfd)" style="fill: none; stroke-dasharray: 0.5,0.825; stroke-dashoffset: 0; stroke: #d9d9d9; stroke-width: 0.5"/>
      </g>
      <g id="text_5">
       <!-- June -->
       <g style="fill: #808080" transform="translate(362.614142 208.04875) scale(0.08 -0.08)">
        <defs>
         <path id="Ubuntu-4a" d="M 2682 1427 
Q 2682 1107 2614 832 
Q 2547 557 2377 349 
Q 2208 141 1923 22 
Q 1638 -96 1210 -96 
Q 992 -96 809 -61 
Q 627 -26 480 28 
Q 333 83 224 144 
Q 115 205 51 262 
L 294 755 
Q 429 659 643 553 
Q 858 448 1178 448 
Q 1638 448 1849 681 
Q 2061 915 2061 1485 
L 2061 4435 
L 2682 4435 
L 2682 1427 
z
" transform="scale(0.015625)"/>
         <path id="Ubuntu-6e" d="M 512 3232 
Q 717 3283 1056 3340 
Q 1395 3398 1837 3398 
Q 2234 3398 2496 3286 
Q 2758 3174 2915 2972 
Q 3072 2771 3136 2489 
Q 3200 2208 3200 1869 
L 3200 0 
L 2605 0 
L 2605 1741 
Q 2605 2048 2563 2265 
Q 2522 2483 2426 2617 
Q 2330 2752 2170 2813 
Q 2010 2874 1773 2874 
Q 1677 2874 1574 2867 
Q 1472 2861 1379 2851 
Q 1286 2842 1212 2829 
Q 1139 2816 1107 2810 
L 1107 0 
L 512 0 
L 512 3232 
z
" transform="scale(0.015625)"/>
        </defs>
        <use xlink:href="#Ubuntu-4a"/>
        <use xlink:href="#Ubuntu-75" x="49.999985"/>
        <use xlink:href="#Ubuntu-6e" x="107.399979"/>
        <use xlink:href="#Ubuntu-65" x="164.799973"/>
       </g>
      </g>
     </g>
     <g id="xtick_6">
      <g id="line2d_6">
       <path d="M 444.384069 170.84125 
L 444.384069 170.84125 
" clip-path="url(#pe5e09f3dfd)" style="fill: none; stroke-dasharray: 0.5,0.825; stroke-dashoffset: 0; stroke: #d9d9d9; stroke-width: 0.5"/>
      </g>
      <g id="text_6">
       <!-- July -->
       <g style="fill: #808080" transform="translate(437.007819 208.04875) scale(0.08 -0.08)">
        <use xlink:href="#Ubuntu-4a"/>
        <use xlink:href="#Ubuntu-75" x="49.999985"/>
        <use xlink:href="#Ubuntu-6c" x="107.399979"/>
        <use xlink:href="#Ubuntu-79" x="134.699966"/>
       </g>
      </g>
     </g>
    </g>
    <g id="matplotlib.axis_2"/>
   </g>
   <g id="matplotlib.axis_3">
    <g id="xtick_7">
     <g id="line2d_7">
      <defs>
       <path id="m46fa514fea" d="M 0 0 
L 0 3 
" style="stroke: #cecece; stroke-width: 0.75"/>
      </defs>
      <g>
       <use xlink:href="#m46fa514fea" x="45.638971" y="175.84125" style="fill: #cecece; stroke: #cecece; stroke-width: 0.75"/>
      </g>
     </g>
     <g id="text_7">
      <!-- 01 -->
      <g style="fill: #808080" transform="translate(41.126471 191.04875) scale(0.08 -0.08)">
       <defs>
        <path id="Ubuntu-30" d="M 320 2221 
Q 320 3334 713 3936 
Q 1107 4538 1805 4538 
Q 2502 4538 2896 3936 
Q 3290 3334 3290 2221 
Q 3290 1107 2896 505 
Q 2502 -96 1805 -96 
Q 1107 -96 713 505 
Q 320 1107 320 2221 
z
M 2662 2221 
Q 2662 2586 2620 2912 
Q 2579 3238 2480 3481 
Q 2381 3725 2214 3869 
Q 2048 4013 1805 4013 
Q 1562 4013 1395 3869 
Q 1229 3725 1129 3481 
Q 1030 3238 988 2912 
Q 947 2586 947 2221 
Q 947 1856 988 1529 
Q 1030 1203 1129 960 
Q 1229 717 1395 573 
Q 1562 429 1805 429 
Q 2048 429 2214 573 
Q 2381 717 2480 960 
Q 2579 1203 2620 1529 
Q 2662 1856 2662 2221 
z
" transform="scale(0.015625)"/>
        <path id="Ubuntu-31" d="M 595 3520 
Q 960 3661 1305 3881 
Q 1651 4102 1939 4435 
L 2362 4435 
L 2362 0 
L 1766 0 
L 1766 3610 
Q 1690 3539 1578 3462 
Q 1466 3386 1334 3315 
Q 1203 3245 1059 3181 
Q 915 3117 781 3072 
L 595 3520 
z
" transform="scale(0.015625)"/>
       </defs>
       <use xlink:href="#Ubuntu-30"/>
       <use xlink:href="#Ubuntu-31" x="56.399994"/>
      </g>
     </g>
    </g>
    <g id="xtick_8">
     <g id="line2d_8">
      <g>
       <use xlink:href="#m46fa514fea" x="67.521324" y="175.84125" style="fill: #cecece; stroke: #cecece; stroke-width: 0.75"/>
      </g>
     </g>
     <g id="text_8">
      <!-- 10 -->
      <g style="fill: #808080" transform="translate(63.008824 191.04875) scale(0.08 -0.08)">
       <use xlink:href="#Ubuntu-31"/>
       <use xlink:href="#Ubuntu-30" x="56.399994"/>
      </g>
     </g>
    </g>
    <g id="xtick_9">
     <g id="line2d_9">
      <g>
       <use xlink:href="#m46fa514fea" x="91.835049" y="175.84125" style="fill: #cecece; stroke: #cecece; stroke-width: 0.75"/>
      </g>
     </g>
     <g id="text_9">
      <!-- 20 -->
      <g style="fill: #808080" transform="translate(87.322549 191.04875) scale(0.08 -0.08)">
       <defs>
        <path id="Ubuntu-32" d="M 2989 3302 
Q 2989 3072 2896 2857 
Q 2803 2643 2649 2435 
Q 2496 2227 2304 2025 
Q 2112 1824 1920 1632 
Q 1811 1523 1667 1376 
Q 1523 1229 1395 1069 
Q 1267 909 1180 761 
Q 1094 614 1094 506 
L 3136 506 
L 3136 0 
L 448 0 
Q 442 38 442 76 
Q 442 115 442 147 
Q 442 448 541 707 
Q 640 966 800 1196 
Q 960 1427 1158 1632 
Q 1357 1837 1549 2029 
Q 1709 2182 1853 2332 
Q 1997 2483 2109 2633 
Q 2221 2784 2288 2944 
Q 2355 3104 2355 3283 
Q 2355 3475 2294 3609 
Q 2234 3744 2131 3833 
Q 2029 3923 1891 3964 
Q 1754 4006 1600 4006 
Q 1414 4006 1260 3955 
Q 1107 3904 985 3837 
Q 864 3770 781 3696 
Q 698 3622 653 3584 
L 358 4006 
Q 416 4070 531 4163 
Q 646 4256 806 4339 
Q 966 4422 1164 4480 
Q 1363 4538 1594 4538 
Q 2291 4538 2640 4214 
Q 2989 3891 2989 3302 
z
" transform="scale(0.015625)"/>
       </defs>
       <use xlink:href="#Ubuntu-32"/>
       <use xlink:href="#Ubuntu-30" x="56.399994"/>
      </g>
     </g>
    </g>
    <g id="xtick_10">
     <g id="line2d_10">
      <g>
       <use xlink:href="#m46fa514fea" x="113.717402" y="175.84125" style="fill: #cecece; stroke: #cecece; stroke-width: 0.75"/>
      </g>
     </g>
     <g id="text_10">
      <!-- 01 -->
      <g style="fill: #808080" transform="translate(109.204902 191.04875) scale(0.08 -0.08)">
       <use xlink:href="#Ubuntu-30"/>
       <use xlink:href="#Ubuntu-31" x="56.399994"/>
      </g>
     </g>
    </g>
    <g id="xtick_11">
     <g id="line2d_11">
      <g>
       <use xlink:href="#m46fa514fea" x="135.599755" y="175.84125" style="fill: #cecece; stroke: #cecece; stroke-width: 0.75"/>
      </g>
     </g>
     <g id="text_11">
      <!-- 10 -->
      <g style="fill: #808080" transform="translate(131.087255 191.04875) scale(0.08 -0.08)">
       <use xlink:href="#Ubuntu-31"/>
       <use xlink:href="#Ubuntu-30" x="56.399994"/>
      </g>
     </g>
    </g>
    <g id="xtick_12">
     <g id="line2d_12">
      <g>
       <use xlink:href="#m46fa514fea" x="159.91348" y="175.84125" style="fill: #cecece; stroke: #cecece; stroke-width: 0.75"/>
      </g>
     </g>
     <g id="text_12">
      <!-- 20 -->
      <g style="fill: #808080" transform="translate(155.40098 191.04875) scale(0.08 -0.08)">
       <use xlink:href="#Ubuntu-32"/>
       <use xlink:href="#Ubuntu-30" x="56.399994"/>
      </g>
     </g>
    </g>
    <g id="xtick_13">
     <g id="line2d_13">
      <g>
       <use xlink:href="#m46fa514fea" x="189.089951" y="175.84125" style="fill: #cecece; stroke: #cecece; stroke-width: 0.75"/>
      </g>
     </g>
     <g id="text_13">
      <!-- 01 -->
      <g style="fill: #808080" transform="translate(184.577451 191.04875) scale(0.08 -0.08)">
       <use xlink:href="#Ubuntu-30"/>
       <use xlink:href="#Ubuntu-31" x="56.399994"/>
      </g>
     </g>
    </g>
    <g id="xtick_14">
     <g id="line2d_14">
      <g>
       <use xlink:href="#m46fa514fea" x="210.972304" y="175.84125" style="fill: #cecece; stroke: #cecece; stroke-width: 0.75"/>
      </g>
     </g>
     <g id="text_14">
      <!-- 10 -->
      <g style="fill: #808080" transform="translate(206.459804 191.04875) scale(0.08 -0.08)">
       <use xlink:href="#Ubuntu-31"/>
       <use xlink:href="#Ubuntu-30" x="56.399994"/>
      </g>
     </g>
    </g>
    <g id="xtick_15">
     <g id="line2d_15">
      <g>
       <use xlink:href="#m46fa514fea" x="235.286029" y="175.84125" style="fill: #cecece; stroke: #cecece; stroke-width: 0.75"/>
      </g>
     </g>
     <g id="text_15">
      <!-- 20 -->
      <g style="fill: #808080" transform="translate(230.773529 191.04875) scale(0.08 -0.08)">
       <use xlink:href="#Ubuntu-32"/>
       <use xlink:href="#Ubuntu-30" x="56.399994"/>
      </g>
     </g>
    </g>
    <g id="xtick_16">
     <g id="line2d_16">
      <g>
       <use xlink:href="#m46fa514fea" x="262.031127" y="175.84125" style="fill: #cecece; stroke: #cecece; stroke-width: 0.75"/>
      </g>
     </g>
     <g id="text_16">
      <!-- 01 -->
      <g style="fill: #808080" transform="translate(257.518627 191.04875) scale(0.08 -0.08)">
       <use xlink:href="#Ubuntu-30"/>
       <use xlink:href="#Ubuntu-31" x="56.399994"/>
      </g>
     </g>
    </g>
    <g id="xtick_17">
     <g id="line2d_17">
      <g>
       <use xlink:href="#m46fa514fea" x="283.91348" y="175.84125" style="fill: #cecece; stroke: #cecece; stroke-width: 0.75"/>
      </g>
     </g>
     <g id="text_17">
      <!-- 10 -->
      <g style="fill: #808080" transform="translate(279.40098 191.04875) scale(0.08 -0.08)">
       <use xlink:href="#Ubuntu-31"/>
       <use xlink:href="#Ubuntu-30" x="56.399994"/>
      </g>
     </g>
    </g>
    <g id="xtick_18">
     <g id="line2d_18">
      <g>
       <use xlink:href="#m46fa514fea" x="308.227206" y="175.84125" style="fill: #cecece; stroke: #cecece; stroke-width: 0.75"/>
      </g>
     </g>
     <g id="text_18">
      <!-- 20 -->
      <g style="fill: #808080" transform="translate(303.714706 191.04875) scale(0.08 -0.08)">
       <use xlink:href="#Ubuntu-32"/>
       <use xlink:href="#Ubuntu-30" x="56.399994"/>
      </g>
     </g>
    </g>
    <g id="xtick_19">
     <g id="line2d_19">
      <g>
       <use xlink:href="#m46fa514fea" x="337.403676" y="175.84125" style="fill: #cecece; stroke: #cecece; stroke-width: 0.75"/>
      </g>
     </g>
     <g id="text_19">
      <!-- 01 -->
      <g style="fill: #808080" transform="translate(332.891176 191.04875) scale(0.08 -0.08)">
       <use xlink:href="#Ubuntu-30"/>
       <use xlink:href="#Ubuntu-31" x="56.399994"/>
      </g>
     </g>
    </g>
    <g id="xtick_20">
     <g id="line2d_20">
      <g>
       <use xlink:href="#m46fa514fea" x="359.286029" y="175.84125" style="fill: #cecece; stroke: #cecece; stroke-width: 0.75"/>
      </g>
     </g>
     <g id="text_20">
      <!-- 10 -->
      <g style="fill: #808080" transform="translate(354.773529 191.04875) scale(0.08 -0.08)">
       <use xlink:href="#Ubuntu-31"/>
       <use xlink:href="#Ubuntu-30" x="56.399994"/>
      </g>
     </g>
    </g>
    <g id="xtick_21">
     <g id="line2d_21">
      <g>
       <use xlink:href="#m46fa514fea" x="383.599755" y="175.84125" style="fill: #cecece; stroke: #cecece; stroke-width: 0.75"/>
      </g>
     </g>
     <g id="text_21">
      <!-- 20 -->
      <g style="fill: #808080" transform="translate(379.087255 191.04875) scale(0.08 -0.08)">
       <use xlink:href="#Ubuntu-32"/>
       <use xlink:href="#Ubuntu-30" x="56.399994"/>
      </g>
     </g>
    </g>
    <g id="xtick_22">
     <g id="line2d_22">
      <g>
       <use xlink:href="#m46fa514fea" x="410.344853" y="175.84125" style="fill: #cecece; stroke: #cecece; stroke-width: 0.75"/>
      </g>
     </g>
     <g id="text_22">
      <!-- 01 -->
      <g style="fill: #808080" transform="translate(405.832353 191.04875) scale(0.08 -0.08)">
       <use xlink:href="#Ubuntu-30"/>
       <use xlink:href="#Ubuntu-31" x="56.399994"/>
      </g>
     </g>
    </g>
    <g id="xtick_23">
     <g id="line2d_23">
      <g>
       <use xlink:href="#m46fa514fea" x="432.227206" y="175.84125" style="fill: #cecece; stroke: #cecece; stroke-width: 0.75"/>
      </g>
     </g>
     <g id="text_23">
      <!-- 10 -->
      <g style="fill: #808080" transform="translate(427.714706 191.04875) scale(0.08 -0.08)">
       <use xlink:href="#Ubuntu-31"/>
       <use xlink:href="#Ubuntu-30" x="56.399994"/>
      </g>
     </g>
    </g>
    <g id="xtick_24">
     <g id="line2d_24">
      <g>
       <use xlink:href="#m46fa514fea" x="456.540931" y="175.84125" style="fill: #cecece; stroke: #cecece; stroke-width: 0.75"/>
      </g>
     </g>
     <g id="text_24">
      <!-- 20 -->
      <g style="fill: #808080" transform="translate(452.028431 191.04875) scale(0.08 -0.08)">
       <use xlink:href="#Ubuntu-32"/>
       <use xlink:href="#Ubuntu-30" x="56.399994"/>
      </g>
     </g>
    </g>
    <g id="xtick_25">
     <g id="line2d_25">
      <g>
       <use xlink:href="#m46fa514fea" x="485.717402" y="175.84125" style="fill: #cecece; stroke: #cecece; stroke-width: 0.75"/>
      </g>
     </g>
     <g id="text_25">
      <!-- 31 -->
      <g style="fill: #808080" transform="translate(481.204902 191.04875) scale(0.08 -0.08)">
       <defs>
        <path id="Ubuntu-33" d="M 1446 435 
Q 2016 435 2262 659 
Q 2509 883 2509 1261 
Q 2509 1504 2406 1670 
Q 2304 1837 2137 1936 
Q 1971 2035 1750 2076 
Q 1530 2118 1299 2118 
L 1146 2118 
L 1146 2605 
L 1357 2605 
Q 1517 2605 1686 2637 
Q 1856 2669 1997 2752 
Q 2138 2835 2227 2979 
Q 2317 3123 2317 3341 
Q 2317 3520 2253 3648 
Q 2189 3776 2083 3859 
Q 1978 3942 1840 3977 
Q 1702 4013 1549 4013 
Q 1242 4013 1027 3923 
Q 813 3834 666 3738 
L 435 4192 
Q 512 4243 630 4304 
Q 749 4365 896 4416 
Q 1043 4467 1212 4502 
Q 1382 4538 1568 4538 
Q 1920 4538 2176 4451 
Q 2432 4365 2598 4208 
Q 2765 4051 2848 3836 
Q 2931 3622 2931 3373 
Q 2931 3027 2732 2780 
Q 2534 2534 2253 2406 
Q 2426 2355 2586 2259 
Q 2746 2163 2864 2016 
Q 2982 1869 3056 1677 
Q 3130 1485 3130 1248 
Q 3130 960 3030 713 
Q 2931 467 2723 288 
Q 2515 109 2201 6 
Q 1888 -96 1459 -96 
Q 1293 -96 1117 -70 
Q 941 -45 787 -6 
Q 634 32 518 70 
Q 403 109 352 134 
L 467 653 
Q 576 602 829 518 
Q 1082 435 1446 435 
z
" transform="scale(0.015625)"/>
       </defs>
       <use xlink:href="#Ubuntu-33"/>
       <use xlink:href="#Ubuntu-31" x="56.399994"/>
      </g>
     </g>
    </g>
   </g>
   <g id="matplotlib.axis_4">
    <g id="ytick_1">
     <g id="line2d_26">
      <defs>
       <path id="m3461d8869a" d="M 0 0 
L -3 0 
" style="stroke: #cecece; stroke-width: 0.75"/>
      </defs>
      <g>
       <use xlink:href="#m3461d8869a" x="38.7625" y="170.84125" style="fill: #cecece; stroke: #cecece; stroke-width: 0.75"/>
      </g>
     </g>
     <g id="text_26">
      <!-- 25000 -->
      <g style="fill: #808080" transform="translate(7.2 173.945) scale(0.08 -0.08)">
       <defs>
        <path id="Ubuntu-35" d="M 1274 2726 
Q 2240 2688 2691 2304 
Q 3142 1920 3142 1261 
Q 3142 966 3043 716 
Q 2944 467 2742 288 
Q 2541 109 2233 6 
Q 1926 -96 1504 -96 
Q 1338 -96 1165 -70 
Q 992 -45 845 -6 
Q 698 32 582 70 
Q 467 109 416 134 
L 531 653 
Q 640 602 886 518 
Q 1133 435 1491 435 
Q 1779 435 1974 499 
Q 2170 563 2291 672 
Q 2413 781 2467 925 
Q 2522 1069 2522 1229 
Q 2522 1472 2438 1661 
Q 2355 1850 2144 1978 
Q 1933 2106 1581 2173 
Q 1229 2240 691 2240 
Q 730 2554 752 2829 
Q 774 3104 793 3366 
Q 813 3629 825 3888 
Q 838 4147 851 4435 
L 2989 4435 
L 2989 3930 
L 1370 3930 
Q 1363 3834 1350 3670 
Q 1338 3507 1325 3331 
Q 1312 3155 1299 2988 
Q 1286 2822 1274 2726 
z
" transform="scale(0.015625)"/>
       </defs>
       <use xlink:href="#Ubuntu-32"/>
       <use xlink:href="#Ubuntu-35" x="56.399994"/>
       <use xlink:href="#Ubuntu-30" x="112.799988"/>
       <use xlink:href="#Ubuntu-30" x="169.199982"/>
       <use xlink:href="#Ubuntu-30" x="225.599976"/>
      </g>
     </g>
    </g>
    <g id="ytick_2">
     <g id="line2d_27">
      <g>
       <use xlink:href="#m3461d8869a" x="38.7625" y="147.952326" style="fill: #cecece; stroke: #cecece; stroke-width: 0.75"/>
      </g>
     </g>
     <g id="text_27">
      <!-- 27500 -->
      <g style="fill: #808080" transform="translate(7.2 151.056076) scale(0.08 -0.08)">
       <defs>
        <path id="Ubuntu-37" d="M 1043 0 
Q 1082 512 1226 1078 
Q 1370 1645 1581 2179 
Q 1792 2714 2045 3171 
Q 2298 3629 2541 3917 
L 384 3917 
L 384 4435 
L 3206 4435 
L 3206 3942 
Q 2995 3699 2739 3273 
Q 2483 2848 2256 2320 
Q 2029 1792 1865 1193 
Q 1702 595 1664 0 
L 1043 0 
z
" transform="scale(0.015625)"/>
       </defs>
       <use xlink:href="#Ubuntu-32"/>
       <use xlink:href="#Ubuntu-37" x="56.399994"/>
       <use xlink:href="#Ubuntu-35" x="112.799988"/>
       <use xlink:href="#Ubuntu-30" x="169.199982"/>
       <use xlink:href="#Ubuntu-30" x="225.599976"/>
      </g>
     </g>
    </g>
    <g id="ytick_3">
     <g id="line2d_28">
      <g>
       <use xlink:href="#m3461d8869a" x="38.7625" y="125.063402" style="fill: #cecece; stroke: #cecece; stroke-width: 0.75"/>
      </g>
     </g>
     <g id="text_28">
      <!-- 30000 -->
      <g style="fill: #808080" transform="translate(7.2 128.167152) scale(0.08 -0.08)">
       <use xlink:href="#Ubuntu-33"/>
       <use xlink:href="#Ubuntu-30" x="56.399994"/>
       <use xlink:href="#Ubuntu-30" x="112.799988"/>
       <use xlink:href="#Ubuntu-30" x="169.199982"/>
       <use xlink:href="#Ubuntu-30" x="225.599976"/>
      </g>
     </g>
    </g>
    <g id="ytick_4">
     <g id="line2d_29">
      <g>
       <use xlink:href="#m3461d8869a" x="38.7625" y="102.174478" style="fill: #cecece; stroke: #cecece; stroke-width: 0.75"/>
      </g>
     </g>
     <g id="text_29">
      <!-- 32500 -->
      <g style="fill: #808080" transform="translate(7.2 105.278228) scale(0.08 -0.08)">
       <use xlink:href="#Ubuntu-33"/>
       <use xlink:href="#Ubuntu-32" x="56.399994"/>
       <use xlink:href="#Ubuntu-35" x="112.799988"/>
       <use xlink:href="#Ubuntu-30" x="169.199982"/>
       <use xlink:href="#Ubuntu-30" x="225.599976"/>
      </g>
     </g>
    </g>
    <g id="ytick_5">
     <g id="line2d_30">
      <g>
       <use xlink:href="#m3461d8869a" x="38.7625" y="79.285554" style="fill: #cecece; stroke: #cecece; stroke-width: 0.75"/>
      </g>
     </g>
     <g id="text_30">
      <!-- 35000 -->
      <g style="fill: #808080" transform="translate(7.2 82.389304) scale(0.08 -0.08)">
       <use xlink:href="#Ubuntu-33"/>
       <use xlink:href="#Ubuntu-35" x="56.399994"/>
       <use xlink:href="#Ubuntu-30" x="112.799988"/>
       <use xlink:href="#Ubuntu-30" x="169.199982"/>
       <use xlink:href="#Ubuntu-30" x="225.599976"/>
      </g>
     </g>
    </g>
    <g id="ytick_6">
     <g id="line2d_31">
      <g>
       <use xlink:href="#m3461d8869a" x="38.7625" y="56.39663" style="fill: #cecece; stroke: #cecece; stroke-width: 0.75"/>
      </g>
     </g>
     <g id="text_31">
      <!-- 37500 -->
      <g style="fill: #808080" transform="translate(7.2 59.50038) scale(0.08 -0.08)">
       <use xlink:href="#Ubuntu-33"/>
       <use xlink:href="#Ubuntu-37" x="56.399994"/>
       <use xlink:href="#Ubuntu-35" x="112.799988"/>
       <use xlink:href="#Ubuntu-30" x="169.199982"/>
       <use xlink:href="#Ubuntu-30" x="225.599976"/>
      </g>
     </g>
    </g>
    <g id="ytick_7">
     <g id="line2d_32">
      <g>
       <use xlink:href="#m3461d8869a" x="38.7625" y="33.507706" style="fill: #cecece; stroke: #cecece; stroke-width: 0.75"/>
      </g>
     </g>
     <g id="text_32">
      <!-- 40000 -->
      <g style="fill: #808080" transform="translate(7.2 36.611456) scale(0.08 -0.08)">
       <defs>
        <path id="Ubuntu-34" d="M 256 1536 
Q 378 1818 589 2192 
Q 800 2566 1065 2963 
Q 1331 3360 1635 3744 
Q 1939 4128 2246 4435 
L 2816 4435 
L 2816 1619 
L 3341 1619 
L 3341 1133 
L 2816 1133 
L 2816 0 
L 2240 0 
L 2240 1133 
L 256 1133 
L 256 1536 
z
M 2240 3731 
Q 2048 3526 1853 3273 
Q 1658 3021 1472 2745 
Q 1286 2470 1123 2182 
Q 960 1894 832 1619 
L 2240 1619 
L 2240 3731 
z
" transform="scale(0.015625)"/>
       </defs>
       <use xlink:href="#Ubuntu-34"/>
       <use xlink:href="#Ubuntu-30" x="56.399994"/>
       <use xlink:href="#Ubuntu-30" x="112.799988"/>
       <use xlink:href="#Ubuntu-30" x="169.199982"/>
       <use xlink:href="#Ubuntu-30" x="225.599976"/>
      </g>
     </g>
    </g>
   </g>
   <g id="PolyCollection_1">
    <defs>
     <path id="m245d6d67f8" d="M 45.638971 -114.995861 
L 45.638971 -93.83284 
L 48.070343 -97.982097 
L 50.501716 -89.775497 
L 52.933088 -88.100347 
L 55.364461 -66.155048 
L 57.795833 -86.432841 
L 60.227206 -88.030624 
L 62.658578 -88.454903 
L 65.089951 -87.823285 
L 67.521324 -88.609461 
L 69.952696 -90.848114 
L 72.384069 -80.831252 
L 74.815441 -102.159675 
L 77.246814 -80.50877 
L 79.678186 -90.549763 
L 82.109559 -94.203359 
L 84.540931 -96.422644 
L 86.972304 -94.558748 
L 89.403676 -81.52435 
L 91.835049 -100.12549 
L 94.266422 -97.740095 
L 96.697794 -98.384874 
L 99.129167 -104.285047 
L 101.560539 -93.267755 
L 103.991912 -87.526175 
L 106.423284 -81.687618 
L 108.854657 -94.487065 
L 111.286029 -92.441533 
L 111.286029 -112.836902 
L 111.286029 -112.836902 
L 108.854657 -115.119597 
L 106.423284 -101.70759 
L 103.991912 -108.609667 
L 101.560539 -112.267123 
L 99.129167 -127.638539 
L 96.697794 -117.287392 
L 94.266422 -121.006716 
L 91.835049 -122.966619 
L 89.403676 -103.5224 
L 86.972304 -114.549178 
L 84.540931 -116.802816 
L 82.109559 -114.083699 
L 79.678186 -110.51549 
L 77.246814 -96.301856 
L 74.815441 -124.649488 
L 72.384069 -102.419484 
L 69.952696 -111.90638 
L 67.521324 -108.833833 
L 65.089951 -107.871237 
L 62.658578 -107.555283 
L 60.227206 -107.754533 
L 57.795833 -107.178227 
L 55.364461 -85.139006 
L 52.933088 -107.532918 
L 50.501716 -107.300838 
L 48.070343 -119.910065 
L 45.638971 -114.995861 
z
" style="stroke: #5b5b5b; stroke-opacity: 0.2"/>
    </defs>
    <g clip-path="url(#pd67ee85d81)">
     <use xlink:href="#m245d6d67f8" x="0" y="216.7525" style="fill: #5b5b5b; fill-opacity: 0.2; stroke: #5b5b5b; stroke-opacity: 0.2"/>
    </g>
   </g>
   <g id="PolyCollection_2">
    <defs>
     <path id="m1220af0764" d="M 113.717402 -113.318108 
L 113.717402 -92.172434 
L 116.148775 -90.704017 
L 118.580147 -91.651589 
L 121.01152 -91.336326 
L 123.442892 -77.629425 
L 125.874265 -99.689322 
L 128.305637 -93.614397 
L 130.73701 -105.070021 
L 133.168382 -93.762854 
L 135.599755 -90.906569 
L 138.031127 -90.055764 
L 140.4625 -77.015194 
L 142.893873 -95.085464 
L 145.325245 -91.697922 
L 147.756618 -103.579865 
L 150.18799 -104.6513 
L 152.619363 -95.200259 
L 155.050735 -92.161038 
L 157.482108 -79.727424 
L 159.91348 -90.690673 
L 162.344853 -88.515037 
L 164.776225 -94.592991 
L 167.207598 -92.830836 
L 169.638971 -86.323778 
L 172.070343 -84.260366 
L 174.501716 -76.978007 
L 176.933088 -98.559749 
L 179.364461 -89.444406 
L 181.795833 -108.842525 
L 184.227206 -101.367509 
L 186.658578 -94.625094 
L 186.658578 -112.594497 
L 186.658578 -112.594497 
L 184.227206 -118.835635 
L 181.795833 -130.112764 
L 179.364461 -108.86068 
L 176.933088 -116.745437 
L 174.501716 -99.158738 
L 172.070343 -104.258624 
L 169.638971 -106.963062 
L 167.207598 -112.006515 
L 164.776225 -114.330919 
L 162.344853 -108.634421 
L 159.91348 -112.033319 
L 157.482108 -99.368283 
L 155.050735 -111.736854 
L 152.619363 -114.799139 
L 150.18799 -125.842197 
L 147.756618 -125.991745 
L 145.325245 -112.950805 
L 142.893873 -115.120655 
L 140.4625 -95.991144 
L 138.031127 -110.464522 
L 135.599755 -109.493019 
L 133.168382 -112.005268 
L 130.73701 -126.99087 
L 128.305637 -110.111731 
L 125.874265 -120.651135 
L 123.442892 -97.265551 
L 121.01152 -111.217597 
L 118.580147 -111.1111 
L 116.148775 -111.928897 
L 113.717402 -113.318108 
z
" style="stroke: #b45f58; stroke-opacity: 0.2"/>
    </defs>
    <g clip-path="url(#pd67ee85d81)">
     <use xlink:href="#m1220af0764" x="0" y="216.7525" style="fill: #b45f58; fill-opacity: 0.2; stroke: #b45f58; stroke-opacity: 0.2"/>
    </g>
   </g>
   <g id="PolyCollection_3">
    <defs>
     <path id="mf23e42d9fb" d="M 189.089951 -123.656819 
L 189.089951 -104.82735 
L 191.521324 -73.439476 
L 193.952696 -97.86618 
L 196.384069 -96.434679 
L 198.815441 -97.828809 
L 201.246814 -99.59137 
L 203.678186 -97.405258 
L 206.109559 -94.353181 
L 208.540931 -80.324237 
L 210.972304 -92.964846 
L 213.403676 -95.880585 
L 215.835049 -96.369319 
L 218.266422 -97.142792 
L 220.697794 -93.841209 
L 223.129167 -91.668658 
L 225.560539 -75.693204 
L 227.991912 -100.788611 
L 230.423284 -102.99665 
L 232.854657 -102.560908 
L 235.286029 -69.987836 
L 237.717402 -103.52038 
L 240.148775 -94.63187 
L 242.580147 -75.428728 
L 245.01152 -95.629166 
L 247.442892 -98.010097 
L 249.874265 -97.734691 
L 252.305637 -97.412305 
L 254.73701 -96.426223 
L 257.168382 -95.737752 
L 259.599755 -71.733662 
L 259.599755 -90.583767 
L 259.599755 -90.583767 
L 257.168382 -114.196188 
L 254.73701 -116.014471 
L 252.305637 -116.91081 
L 249.874265 -118.557925 
L 247.442892 -119.148701 
L 245.01152 -114.161882 
L 242.580147 -96.227787 
L 240.148775 -114.028333 
L 237.717402 -127.546803 
L 235.286029 -85.676776 
L 232.854657 -121.034679 
L 230.423284 -120.930509 
L 227.991912 -120.785735 
L 225.560539 -95.129187 
L 223.129167 -110.218591 
L 220.697794 -112.652682 
L 218.266422 -116.361554 
L 215.835049 -114.313969 
L 213.403676 -114.294061 
L 210.972304 -112.563166 
L 208.540931 -97.87167 
L 206.109559 -112.398937 
L 203.678186 -116.168263 
L 201.246814 -118.621729 
L 198.815441 -116.161512 
L 196.384069 -116.01315 
L 193.952696 -116.400877 
L 191.521324 -91.751502 
L 189.089951 -123.656819 
z
" style="stroke: #5980a1; stroke-opacity: 0.2"/>
    </defs>
    <g clip-path="url(#pd67ee85d81)">
     <use xlink:href="#mf23e42d9fb" x="0" y="216.7525" style="fill: #5980a1; fill-opacity: 0.2; stroke: #5980a1; stroke-opacity: 0.2"/>
    </g>
   </g>
   <g id="PolyCollection_4">
    <defs>
     <path id="m56c03b8a66" d="M 262.031127 -96.126117 
L 262.031127 -75.718483 
L 264.4625 -100.049224 
L 266.893873 -87.441054 
L 269.325245 -100.60242 
L 271.756618 -99.184758 
L 274.18799 -97.783485 
L 276.619363 -77.987883 
L 279.050735 -105.079103 
L 281.482108 -101.134304 
L 283.91348 -108.330922 
L 286.344853 -108.151923 
L 288.776225 -103.414331 
L 291.207598 -100.718951 
L 293.638971 -82.034125 
L 296.070343 -106.104988 
L 298.501716 -106.943938 
L 300.933088 -106.293462 
L 303.364461 -107.463114 
L 305.795833 -102.236894 
L 308.227206 -101.037765 
L 310.658578 -96.033861 
L 313.089951 -111.725227 
L 315.521324 -113.049792 
L 317.952696 -109.917787 
L 320.384069 -113.445473 
L 322.815441 -116.322323 
L 325.246814 -116.689326 
L 327.678186 -104.163907 
L 330.109559 -119.512644 
L 332.540931 -117.223551 
L 334.972304 -118.113993 
L 334.972304 -138.891673 
L 334.972304 -138.891673 
L 332.540931 -137.665447 
L 330.109559 -139.95662 
L 327.678186 -126.540979 
L 325.246814 -138.610742 
L 322.815441 -138.019962 
L 320.384069 -135.51764 
L 317.952696 -132.178589 
L 315.521324 -133.848004 
L 313.089951 -132.898607 
L 310.658578 -114.300073 
L 308.227206 -119.484327 
L 305.795833 -120.08181 
L 303.364461 -126.580724 
L 300.933088 -125.22734 
L 298.501716 -126.111418 
L 296.070343 -124.828237 
L 293.638971 -102.928495 
L 291.207598 -119.096851 
L 288.776225 -122.519553 
L 286.344853 -126.181391 
L 283.91348 -127.672428 
L 281.482108 -121.799535 
L 279.050735 -124.179683 
L 276.619363 -96.959644 
L 274.18799 -116.913423 
L 271.756618 -117.71445 
L 269.325245 -120.768968 
L 266.893873 -106.670351 
L 264.4625 -118.653041 
L 262.031127 -96.126117 
z
" style="stroke: #4e9a73; stroke-opacity: 0.2"/>
    </defs>
    <g clip-path="url(#pd67ee85d81)">
     <use xlink:href="#m56c03b8a66" x="0" y="216.7525" style="fill: #4e9a73; fill-opacity: 0.2; stroke: #4e9a73; stroke-opacity: 0.2"/>
    </g>
   </g>
   <g id="PolyCollection_5">
    <defs>
     <path id="m6ca9430aa8" d="M 337.403676 -142.383285 
L 337.403676 -120.182079 
L 339.835049 -125.50858 
L 342.266422 -136.189431 
L 344.697794 -101.104702 
L 347.129167 -122.919777 
L 349.560539 -119.86309 
L 351.991912 -120.645517 
L 354.423284 -126.0279 
L 356.854657 -126.312592 
L 359.286029 -132.102308 
L 361.717402 -109.635712 
L 364.148775 -131.747181 
L 366.580147 -130.263352 
L 369.01152 -127.166748 
L 371.442892 -131.329683 
L 373.874265 -130.762947 
L 376.305637 -129.863276 
L 378.73701 -115.489638 
L 381.168382 -138.512884 
L 383.599755 -145.58636 
L 386.031127 -148.653112 
L 388.4625 -141.178387 
L 390.893873 -143.187904 
L 393.325245 -140.919647 
L 395.756618 -130.629575 
L 398.18799 -95.840361 
L 400.619363 -75.062654 
L 403.050735 -100.775799 
L 405.482108 -101.209951 
L 407.91348 -101.147054 
L 407.91348 -120.813632 
L 407.91348 -120.813632 
L 405.482108 -121.63355 
L 403.050735 -120.769794 
L 400.619363 -92.235067 
L 398.18799 -110.885791 
L 395.756618 -152.752159 
L 393.325245 -163.453747 
L 390.893873 -168.093175 
L 388.4625 -163.965468 
L 386.031127 -168.274488 
L 383.599755 -165.820613 
L 381.168382 -159.858155 
L 378.73701 -137.734741 
L 376.305637 -150.607917 
L 373.874265 -151.327528 
L 371.442892 -152.993802 
L 369.01152 -149.365286 
L 366.580147 -150.577903 
L 364.148775 -153.097524 
L 361.717402 -131.005721 
L 359.286029 -152.805637 
L 356.854657 -146.57601 
L 354.423284 -147.031383 
L 351.991912 -141.66531 
L 349.560539 -141.550249 
L 347.129167 -142.087032 
L 344.697794 -123.007593 
L 342.266422 -157.195096 
L 339.835049 -147.43057 
L 337.403676 -142.383285 
z
" style="stroke: #746590; stroke-opacity: 0.2"/>
    </defs>
    <g clip-path="url(#pd67ee85d81)">
     <use xlink:href="#m6ca9430aa8" x="0" y="216.7525" style="fill: #746590; fill-opacity: 0.2; stroke: #746590; stroke-opacity: 0.2"/>
    </g>
   </g>
   <g id="PolyCollection_6">
    <defs>
     <path id="m31ba26b8aa" d="M 410.344853 -121.794892 
L 410.344853 -102.077486 
L 412.776225 -97.101256 
L 415.207598 -116.594437 
L 417.638971 -109.689952 
L 420.070343 -130.483812 
L 422.501716 -136.36479 
L 424.933088 -117.701846 
L 427.364461 -124.896359 
L 429.795833 -105.440186 
L 432.227206 -135.202823 
L 434.658578 -141.227178 
L 437.089951 -145.182394 
L 439.521324 -144.532551 
L 441.952696 -124.106719 
L 444.384069 -131.723889 
L 446.815441 -128.543885 
L 449.246814 -143.12306 
L 451.678186 -147.464706 
L 454.109559 -152.601011 
L 456.540931 -143.050434 
L 458.972304 -132.215765 
L 461.403676 -130.044344 
L 463.835049 -116.360296 
L 466.266422 -155.121054 
L 468.697794 -158.977424 
L 471.129167 -154.995715 
L 473.560539 -157.193052 
L 475.991912 -153.741371 
L 478.423284 -154.193148 
L 480.854657 -135.102487 
L 483.286029 -160.081477 
L 483.286029 -180.818203 
L 483.286029 -180.818203 
L 480.854657 -155.532466 
L 478.423284 -175.581065 
L 475.991912 -173.888136 
L 473.560539 -178.642057 
L 471.129167 -176.865704 
L 468.697794 -180.211654 
L 466.266422 -175.91464 
L 463.835049 -136.634631 
L 461.403676 -150.501314 
L 458.972304 -152.075656 
L 456.540931 -163.148663 
L 454.109559 -174.088829 
L 451.678186 -168.303553 
L 449.246814 -164.649224 
L 446.815441 -146.337273 
L 444.384069 -152.73872 
L 441.952696 -141.681164 
L 439.521324 -163.430671 
L 437.089951 -165.185833 
L 434.658578 -161.467182 
L 432.227206 -155.205127 
L 429.795833 -123.504966 
L 427.364461 -144.163926 
L 424.933088 -135.726506 
L 422.501716 -157.204478 
L 420.070343 -150.959021 
L 417.638971 -129.931202 
L 415.207598 -137.259207 
L 412.776225 -115.651779 
L 410.344853 -121.794892 
z
" style="stroke: #d37f53; stroke-opacity: 0.2"/>
    </defs>
    <g clip-path="url(#pd67ee85d81)">
     <use xlink:href="#m31ba26b8aa" x="0" y="216.7525" style="fill: #d37f53; fill-opacity: 0.2; stroke: #d37f53; stroke-opacity: 0.2"/>
    </g>
   </g>
   <g id="line2d_33">
    <path d="M 45.638971 112.481865 
L 48.070343 107.842396 
L 50.501716 118.324748 
L 52.933088 118.960206 
L 55.364461 140.993705 
L 57.795833 120.113575 
L 60.227206 118.545878 
L 62.658578 119.235649 
L 65.089951 118.526093 
L 67.521324 118.572258 
L 69.952696 115.425613 
L 72.384069 125.269014 
L 74.815441 103.543158 
L 77.246814 128.01297 
L 79.678186 116.648813 
L 82.109559 112.630449 
L 84.540931 109.945074 
L 86.972304 111.949212 
L 89.403676 124.595925 
L 91.835049 105.468155 
L 94.266422 107.356298 
L 96.697794 108.738556 
L 99.129167 101.163486 
L 101.560539 113.527772 
L 103.991912 119.260866 
L 106.423284 124.99008 
L 108.854657 112.683986 
L 111.286029 114.265649 
" clip-path="url(#pd67ee85d81)" style="fill: none; stroke: #5b5b5b; stroke-width: 1.2; stroke-linecap: square"/>
   </g>
   <g id="line2d_34">
    <path d="M 113.717402 114.581249 
L 116.148775 115.981856 
L 118.580147 115.175776 
L 121.01152 115.924975 
L 123.442892 129.466257 
L 125.874265 106.837195 
L 128.305637 114.769035 
L 130.73701 100.929321 
L 133.168382 114.188923 
L 135.599755 116.53119 
L 138.031127 116.461842 
L 140.4625 129.974683 
L 142.893873 111.505367 
L 145.325245 115.190971 
L 147.756618 102.359148 
L 150.18799 101.255804 
L 152.619363 111.857564 
L 155.050735 114.956432 
L 157.482108 126.606992 
L 159.91348 114.683713 
L 162.344853 118.378667 
L 164.776225 112.003274 
L 167.207598 114.238792 
L 169.638971 119.969009 
L 172.070343 122.583996 
L 174.501716 129.289769 
L 176.933088 109.409326 
L 179.364461 117.39532 
L 181.795833 97.184498 
L 184.227206 106.281628 
L 186.658578 113.130773 
" clip-path="url(#pd67ee85d81)" style="fill: none; stroke: #b45f58; stroke-width: 1.2; stroke-linecap: square"/>
   </g>
   <g id="line2d_35">
    <path d="M 189.089951 102.901602 
L 191.521324 134.100314 
L 193.952696 109.71437 
L 196.384069 110.558772 
L 198.815441 109.864959 
L 201.246814 107.539898 
L 203.678186 110.435384 
L 206.109559 113.470815 
L 208.540931 127.66047 
L 210.972304 113.702612 
L 213.403676 111.226567 
L 215.835049 110.999107 
L 218.266422 110.377435 
L 220.697794 113.307217 
L 223.129167 115.387867 
L 225.560539 132.027548 
L 227.991912 105.911015 
L 230.423284 105.353599 
L 232.854657 105.005116 
L 235.286029 139.407982 
L 237.717402 101.892814 
L 240.148775 111.991338 
L 242.580147 130.70142 
L 245.01152 111.86046 
L 247.442892 108.297179 
L 249.874265 108.679959 
L 252.305637 109.785329 
L 254.73701 110.8702 
L 257.168382 112.335879 
L 259.599755 135.238009 
" clip-path="url(#pd67ee85d81)" style="fill: none; stroke: #5980a1; stroke-width: 1.2; stroke-linecap: square"/>
   </g>
   <g id="line2d_36">
    <path d="M 262.031127 130.863731 
L 264.4625 107.353429 
L 266.893873 119.985113 
L 269.325245 105.784474 
L 271.756618 108.65422 
L 274.18799 108.698247 
L 276.619363 129.648591 
L 279.050735 102.183884 
L 281.482108 105.105661 
L 283.91348 99.046775 
L 286.344853 99.844861 
L 288.776225 103.403826 
L 291.207598 106.86273 
L 293.638971 123.849864 
L 296.070343 101.009569 
L 298.501716 100.341163 
L 300.933088 100.788635 
L 303.364461 100.165056 
L 305.795833 105.401041 
L 308.227206 105.923759 
L 310.658578 111.265408 
L 313.089951 94.951484 
L 315.521324 93.042323 
L 317.952696 96.044149 
L 320.384069 92.003291 
L 322.815441 89.581017 
L 325.246814 88.738104 
L 327.678186 101.802051 
L 330.109559 86.93941 
L 332.540931 89.10873 
L 334.972304 88.53318 
" clip-path="url(#pd67ee85d81)" style="fill: none; stroke: #4e9a73; stroke-width: 1.2; stroke-linecap: square"/>
   </g>
   <g id="line2d_37">
    <path d="M 337.403676 85.231622 
L 339.835049 80.146541 
L 342.266422 70.355539 
L 344.697794 104.603432 
L 347.129167 84.320511 
L 349.560539 85.876756 
L 351.991912 85.396543 
L 354.423284 80.337333 
L 356.854657 80.186155 
L 359.286029 74.215026 
L 361.717402 96.716303 
L 364.148775 74.468067 
L 366.580147 76.53282 
L 369.01152 78.306535 
L 371.442892 74.405817 
L 373.874265 75.711446 
L 376.305637 76.209444 
L 378.73701 89.586681 
L 381.168382 67.301257 
L 383.599755 60.683377 
L 386.031127 57.939536 
L 388.4625 64.277696 
L 390.893873 61.593679 
L 393.325245 64.221914 
L 395.756618 75.15039 
L 398.18799 113.237559 
L 400.619363 133.269864 
L 403.050735 105.997181 
L 405.482108 105.396511 
L 407.91348 105.236036 
" clip-path="url(#pd67ee85d81)" style="fill: none; stroke: #746590; stroke-width: 1.2; stroke-linecap: square"/>
   </g>
   <g id="line2d_38">
    <path d="M 410.344853 104.695656 
L 412.776225 110.379612 
L 415.207598 89.604276 
L 417.638971 96.826936 
L 420.070343 75.814752 
L 422.501716 69.718339 
L 424.933088 89.985099 
L 427.364461 82.371883 
L 429.795833 101.795886 
L 432.227206 71.459823 
L 434.658578 65.418567 
L 437.089951 61.644809 
L 439.521324 63.089828 
L 441.952696 83.78689 
L 444.384069 74.441112 
L 446.815441 79.630282 
L 449.246814 62.100661 
L 451.678186 58.763289 
L 454.109559 53.228986 
L 456.540931 63.476329 
L 458.972304 74.817879 
L 461.403676 76.818113 
L 463.835049 91.001844 
L 466.266422 51.422205 
L 468.697794 47.699549 
L 471.129167 50.265947 
L 473.560539 48.86554 
L 475.991912 52.616992 
L 478.423284 51.81114 
L 480.854657 71.833346 
L 483.286029 46.45285 
" clip-path="url(#pd67ee85d81)" style="fill: none; stroke: #d37f53; stroke-width: 1.2; stroke-linecap: square"/>
   </g>
   <g id="line2d_39"/>
   <g id="line2d_40"/>
   <g id="line2d_41"/>
   <g id="line2d_42"/>
   <g id="line2d_43"/>
   <g id="line2d_44"/>
   <g id="patch_4">
    <path d="M 38.7625 170.84125 
L 38.7625 33.507706 
" style="fill: none; stroke: #cccccc; stroke-width: 0.75; stroke-linejoin: miter; stroke-linecap: square"/>
   </g>
   <g id="patch_5">
    <path d="M 45.638971 175.84125 
L 485.717402 175.84125 
" style="fill: none; stroke: #cccccc; stroke-width: 0.75; stroke-linejoin: miter; stroke-linecap: square"/>
   </g>
   <g id="legend_1">
    <g id="line2d_45">
     <defs>
      <path id="m2a65a0cc17" d="M 0 1.5 
C 0.397805 1.5 0.77937 1.341951 1.06066 1.06066 
C 1.341951 0.77937 1.5 0.397805 1.5 0 
C 1.5 -0.397805 1.341951 -0.77937 1.06066 -1.06066 
C 0.77937 -1.341951 0.397805 -1.5 0 -1.5 
C -0.397805 -1.5 -0.77937 -1.341951 -1.06066 -1.06066 
C -1.341951 -0.77937 -1.5 -0.397805 -1.5 0 
C -1.5 0.397805 -1.341951 0.77937 -1.06066 1.06066 
C -0.77937 1.341951 -0.397805 1.5 0 1.5 
z
" style="stroke: #5b5b5b"/>
     </defs>
     <g>
      <use xlink:href="#m2a65a0cc17" x="56.4625" y="13.8075" style="fill: #5b5b5b; stroke: #5b5b5b"/>
     </g>
    </g>
    <g id="text_33">
     <!-- February -->
     <g style="fill: #4b4b4b" transform="translate(64.4625 16.6075) scale(0.08 -0.08)">
      <use xlink:href="#Ubuntu-46"/>
      <use xlink:href="#Ubuntu-65" x="52.324997"/>
      <use xlink:href="#Ubuntu-62" x="108.224991"/>
      <use xlink:href="#Ubuntu-72" x="167.124985"/>
      <use xlink:href="#Ubuntu-75" x="205.724976"/>
      <use xlink:href="#Ubuntu-61" x="263.124969"/>
      <use xlink:href="#Ubuntu-72" x="315.324966"/>
      <use xlink:href="#Ubuntu-79" x="356.049957"/>
     </g>
    </g>
    <g id="line2d_46">
     <defs>
      <path id="m87a04277d0" d="M 0 1.5 
C 0.397805 1.5 0.77937 1.341951 1.06066 1.06066 
C 1.341951 0.77937 1.5 0.397805 1.5 0 
C 1.5 -0.397805 1.341951 -0.77937 1.06066 -1.06066 
C 0.77937 -1.341951 0.397805 -1.5 0 -1.5 
C -0.397805 -1.5 -0.77937 -1.341951 -1.06066 -1.06066 
C -1.341951 -0.77937 -1.5 -0.397805 -1.5 0 
C -1.5 0.397805 -1.341951 0.77937 -1.06066 1.06066 
C -0.77937 1.341951 -0.397805 1.5 0 1.5 
z
" style="stroke: #b45f58"/>
     </defs>
     <g>
      <use xlink:href="#m87a04277d0" x="120.92375" y="13.8075" style="fill: #b45f58; stroke: #b45f58"/>
     </g>
    </g>
    <g id="text_34">
     <!-- March -->
     <g style="fill: #4b4b4b" transform="translate(128.92375 16.6075) scale(0.08 -0.08)">
      <use xlink:href="#Ubuntu-4d"/>
      <use xlink:href="#Ubuntu-61" x="87.099991"/>
      <use xlink:href="#Ubuntu-72" x="139.299988"/>
      <use xlink:href="#Ubuntu-63" x="177.899979"/>
      <use xlink:href="#Ubuntu-68" x="224.399963"/>
     </g>
    </g>
    <g id="line2d_47">
     <defs>
      <path id="mf80273c461" d="M 0 1.5 
C 0.397805 1.5 0.77937 1.341951 1.06066 1.06066 
C 1.341951 0.77937 1.5 0.397805 1.5 0 
C 1.5 -0.397805 1.341951 -0.77937 1.06066 -1.06066 
C 0.77937 -1.341951 0.397805 -1.5 0 -1.5 
C -0.397805 -1.5 -0.77937 -1.341951 -1.06066 -1.06066 
C -1.341951 -0.77937 -1.5 -0.397805 -1.5 0 
C -1.5 0.397805 -1.341951 0.77937 -1.06066 1.06066 
C -0.77937 1.341951 -0.397805 1.5 0 1.5 
z
" style="stroke: #5980a1"/>
     </defs>
     <g>
      <use xlink:href="#mf80273c461" x="175.4425" y="13.8075" style="fill: #5980a1; stroke: #5980a1"/>
     </g>
    </g>
    <g id="text_35">
     <!-- April -->
     <g style="fill: #4b4b4b" transform="translate(183.4425 16.6075) scale(0.08 -0.08)">
      <use xlink:href="#Ubuntu-41"/>
      <use xlink:href="#Ubuntu-70" x="66.299988"/>
      <use xlink:href="#Ubuntu-72" x="125.199982"/>
      <use xlink:href="#Ubuntu-69" x="163.799973"/>
      <use xlink:href="#Ubuntu-6c" x="189.09996"/>
     </g>
    </g>
    <g id="line2d_48">
     <defs>
      <path id="m884e8f01b7" d="M 0 1.5 
C 0.397805 1.5 0.77937 1.341951 1.06066 1.06066 
C 1.341951 0.77937 1.5 0.397805 1.5 0 
C 1.5 -0.397805 1.341951 -0.77937 1.06066 -1.06066 
C 0.77937 -1.341951 0.397805 -1.5 0 -1.5 
C -0.397805 -1.5 -0.77937 -1.341951 -1.06066 -1.06066 
C -1.341951 -0.77937 -1.5 -0.397805 -1.5 0 
C -1.5 0.397805 -1.341951 0.77937 -1.06066 1.06066 
C -0.77937 1.341951 -0.397805 1.5 0 1.5 
z
" style="stroke: #4e9a73"/>
     </defs>
     <g>
      <use xlink:href="#m884e8f01b7" x="224.75375" y="13.8075" style="fill: #4e9a73; stroke: #4e9a73"/>
     </g>
    </g>
    <g id="text_36">
     <!-- May -->
     <g style="fill: #4b4b4b" transform="translate(232.75375 16.6075) scale(0.08 -0.08)">
      <use xlink:href="#Ubuntu-4d"/>
      <use xlink:href="#Ubuntu-61" x="87.099991"/>
      <use xlink:href="#Ubuntu-79" x="137.799988"/>
     </g>
    </g>
    <g id="line2d_49">
     <defs>
      <path id="m3a3159b436" d="M 0 1.5 
C 0.397805 1.5 0.77937 1.341951 1.06066 1.06066 
C 1.341951 0.77937 1.5 0.397805 1.5 0 
C 1.5 -0.397805 1.341951 -0.77937 1.06066 -1.06066 
C 0.77937 -1.341951 0.397805 -1.5 0 -1.5 
C -0.397805 -1.5 -0.77937 -1.341951 -1.06066 -1.06066 
C -1.341951 -0.77937 -1.5 -0.397805 -1.5 0 
C -1.5 0.397805 -1.341951 0.77937 -1.06066 1.06066 
C -0.77937 1.341951 -0.397805 1.5 0 1.5 
z
" style="stroke: #746590"/>
     </defs>
     <g>
      <use xlink:href="#m3a3159b436" x="271.75375" y="13.8075" style="fill: #746590; stroke: #746590"/>
     </g>
    </g>
    <g id="text_37">
     <!-- June -->
     <g style="fill: #4b4b4b" transform="translate(279.75375 16.6075) scale(0.08 -0.08)">
      <use xlink:href="#Ubuntu-4a"/>
      <use xlink:href="#Ubuntu-75" x="49.999985"/>
      <use xlink:href="#Ubuntu-6e" x="107.399979"/>
      <use xlink:href="#Ubuntu-65" x="164.799973"/>
     </g>
    </g>
    <g id="line2d_50">
     <defs>
      <path id="macdf73f680" d="M 0 1.5 
C 0.397805 1.5 0.77937 1.341951 1.06066 1.06066 
C 1.341951 0.77937 1.5 0.397805 1.5 0 
C 1.5 -0.397805 1.341951 -0.77937 1.06066 -1.06066 
C 0.77937 -1.341951 0.397805 -1.5 0 -1.5 
C -0.397805 -1.5 -0.77937 -1.341951 -1.06066 -1.06066 
C -1.341951 -0.77937 -1.5 -0.397805 -1.5 0 
C -1.5 0.397805 -1.341951 0.77937 -1.06066 1.06066 
C -0.77937 1.341951 -0.397805 1.5 0 1.5 
z
" style="stroke: #d37f53"/>
     </defs>
     <g>
      <use xlink:href="#macdf73f680" x="321.41125" y="13.8075" style="fill: #d37f53; stroke: #d37f53"/>
     </g>
    </g>
    <g id="text_38">
     <!-- July -->
     <g style="fill: #4b4b4b" transform="translate(329.41125 16.6075) scale(0.08 -0.08)">
      <use xlink:href="#Ubuntu-4a"/>
      <use xlink:href="#Ubuntu-75" x="49.999985"/>
      <use xlink:href="#Ubuntu-6c" x="107.399979"/>
      <use xlink:href="#Ubuntu-79" x="134.699966"/>
     </g>
    </g>
   </g>
  </g>
 </g>
 <defs>
  <clipPath id="pe5e09f3dfd">
   <rect x="41.2625" y="170.84125" width="446.4" height="0"/>
  </clipPath>
  <clipPath id="pd67ee85d81">
   <rect x="41.2625" y="32.24125" width="446.4" height="138.6"/>
  </clipPath>
 </defs>
</svg>
