<?xml version="1.0" encoding="utf-8" standalone="no"?>
<!DOCTYPE svg PUBLIC "-//W3C//DTD SVG 1.1//EN"
  "http://www.w3.org/Graphics/SVG/1.1/DTD/svg11.dtd">
<svg xmlns:xlink="http://www.w3.org/1999/xlink" width="517.026224pt" height="210.786406pt" viewBox="0 0 517.026224 210.786406" xmlns="http://www.w3.org/2000/svg" version="1.1">
 <metadata>
  <rdf:RDF xmlns:dc="http://purl.org/dc/elements/1.1/" xmlns:cc="http://creativecommons.org/ns#" xmlns:rdf="http://www.w3.org/1999/02/22-rdf-syntax-ns#">
   <cc:Work>
    <dc:type rdf:resource="http://purl.org/dc/dcmitype/StillImage"/>
    <dc:date>2024-04-18T00:17:08.293512</dc:date>
    <dc:format>image/svg+xml</dc:format>
    <dc:creator>
     <cc:Agent>
      <dc:title>Matplotlib v3.8.3, https://matplotlib.org/</dc:title>
     </cc:Agent>
    </dc:creator>
   </cc:Work>
  </rdf:RDF>
 </metadata>
 <defs>
  <style type="text/css">*{stroke-linejoin: round; stroke-linecap: butt}</style>
 </defs>
 <g id="figure_1">
  <g id="patch_1">
   <path d="M 0 210.786406 
L 517.026224 210.786406 
L 517.026224 0 
L 0 0 
L 0 210.786406 
z
" style="fill: none"/>
  </g>
  <g id="axes_1">
   <g id="patch_2">
    <path d="M 60.410938 163.91125 
L 506.810937 163.91125 
L 506.810937 25.31125 
L 60.410938 25.31125 
L 60.410938 163.91125 
z
" style="fill: none"/>
   </g>
   <g id="axes_2">
    <g id="patch_3">
     <path d="M 60.410938 163.91125 
L 506.810937 163.91125 
L 506.810937 163.91125 
L 60.410938 163.91125 
L 60.410938 163.91125 
z
" style="fill: none"/>
    </g>
    <g id="matplotlib.axis_1">
     <g id="xtick_1">
      <g id="line2d_1">
       <path d="M 105.097006 163.91125 
L 105.097006 163.91125 
" clip-path="url(#pceebe5ecc0)" style="fill: none; stroke-dasharray: 0.5,0.825; stroke-dashoffset: 0; stroke: #d9d9d9; stroke-width: 0.5"/>
      </g>
      <g id="text_1">
       <!-- March -->
       <g style="fill: #6c7984" transform="translate(92.430209 201.894688) scale(0.09 -0.09)">
        <defs>
         <path id="Ubuntu-4d" d="M 2541 614 
Q 2477 768 2371 1005 
Q 2266 1242 2144 1517 
Q 2022 1792 1884 2083 
Q 1747 2374 1625 2633 
Q 1504 2893 1398 3097 
Q 1293 3302 1229 3411 
Q 1158 2656 1113 1776 
Q 1069 896 1037 0 
L 429 0 
Q 454 576 486 1161 
Q 518 1747 560 2313 
Q 602 2880 650 3417 
Q 698 3955 755 4435 
L 1299 4435 
Q 1472 4154 1670 3770 
Q 1869 3386 2067 2966 
Q 2266 2547 2451 2128 
Q 2637 1709 2790 1363 
Q 2944 1709 3129 2128 
Q 3315 2547 3513 2966 
Q 3712 3386 3910 3770 
Q 4109 4154 4282 4435 
L 4826 4435 
Q 5043 2291 5152 0 
L 4544 0 
Q 4512 896 4467 1776 
Q 4422 2656 4352 3411 
Q 4288 3302 4182 3097 
Q 4077 2893 3955 2633 
Q 3834 2374 3696 2083 
Q 3558 1792 3436 1517 
Q 3315 1242 3209 1005 
Q 3104 768 3040 614 
L 2541 614 
z
" transform="scale(0.015625)"/>
         <path id="Ubuntu-61" d="M 1638 429 
Q 1850 429 2013 438 
Q 2176 448 2285 474 
L 2285 1466 
Q 2221 1498 2077 1520 
Q 1933 1542 1728 1542 
Q 1594 1542 1443 1523 
Q 1293 1504 1168 1443 
Q 1043 1382 960 1276 
Q 877 1171 877 998 
Q 877 678 1081 553 
Q 1286 429 1638 429 
z
M 1587 3411 
Q 1946 3411 2192 3318 
Q 2438 3226 2588 3056 
Q 2739 2886 2803 2652 
Q 2867 2419 2867 2138 
L 2867 58 
Q 2790 45 2652 22 
Q 2515 0 2342 -19 
Q 2170 -38 1968 -54 
Q 1766 -70 1568 -70 
Q 1286 -70 1049 -12 
Q 813 45 640 169 
Q 467 294 371 499 
Q 275 704 275 992 
Q 275 1267 387 1465 
Q 499 1664 691 1785 
Q 883 1907 1139 1964 
Q 1395 2022 1677 2022 
Q 1766 2022 1862 2012 
Q 1958 2003 2044 1987 
Q 2131 1971 2195 1958 
Q 2259 1946 2285 1939 
L 2285 2106 
Q 2285 2253 2253 2397 
Q 2221 2541 2137 2653 
Q 2054 2765 1910 2832 
Q 1766 2899 1536 2899 
Q 1242 2899 1021 2857 
Q 800 2816 691 2771 
L 621 3264 
Q 736 3315 1005 3363 
Q 1274 3411 1587 3411 
z
" transform="scale(0.015625)"/>
         <path id="Ubuntu-72" d="M 1741 3398 
Q 1818 3398 1917 3388 
Q 2016 3379 2112 3363 
Q 2208 3347 2288 3331 
Q 2368 3315 2406 3302 
L 2304 2784 
Q 2234 2810 2070 2845 
Q 1907 2880 1651 2880 
Q 1485 2880 1321 2845 
Q 1158 2810 1107 2797 
L 1107 0 
L 512 0 
L 512 3187 
Q 723 3264 1036 3331 
Q 1350 3398 1741 3398 
z
" transform="scale(0.015625)"/>
         <path id="Ubuntu-63" d="M 1958 -77 
Q 1555 -77 1251 51 
Q 947 179 739 409 
Q 531 640 428 957 
Q 326 1274 326 1658 
Q 326 2042 438 2362 
Q 550 2682 755 2915 
Q 960 3149 1257 3280 
Q 1555 3411 1920 3411 
Q 2144 3411 2368 3372 
Q 2592 3334 2797 3251 
L 2662 2746 
Q 2528 2810 2352 2848 
Q 2176 2886 1978 2886 
Q 1478 2886 1212 2572 
Q 947 2259 947 1658 
Q 947 1389 1008 1165 
Q 1069 941 1200 781 
Q 1331 621 1536 534 
Q 1741 448 2035 448 
Q 2272 448 2464 493 
Q 2656 538 2765 589 
L 2848 90 
Q 2797 58 2701 29 
Q 2605 0 2483 -22 
Q 2362 -45 2224 -61 
Q 2086 -77 1958 -77 
z
" transform="scale(0.015625)"/>
         <path id="Ubuntu-68" d="M 512 0 
L 512 4864 
L 1107 4966 
L 1107 3264 
Q 1274 3328 1462 3363 
Q 1651 3398 1837 3398 
Q 2234 3398 2496 3286 
Q 2758 3174 2915 2972 
Q 3072 2771 3136 2489 
Q 3200 2208 3200 1869 
L 3200 0 
L 2605 0 
L 2605 1741 
Q 2605 2048 2563 2265 
Q 2522 2483 2426 2617 
Q 2330 2752 2170 2813 
Q 2010 2874 1773 2874 
Q 1677 2874 1574 2861 
Q 1472 2848 1379 2832 
Q 1286 2816 1212 2797 
Q 1139 2778 1107 2765 
L 1107 0 
L 512 0 
z
" transform="scale(0.015625)"/>
        </defs>
        <use xlink:href="#Ubuntu-4d"/>
        <use xlink:href="#Ubuntu-61" x="87.099991"/>
        <use xlink:href="#Ubuntu-72" x="139.299988"/>
        <use xlink:href="#Ubuntu-63" x="177.899979"/>
        <use xlink:href="#Ubuntu-68" x="224.399963"/>
       </g>
      </g>
     </g>
     <g id="xtick_2">
      <g id="line2d_2">
       <path d="M 194.353972 163.91125 
L 194.353972 163.91125 
" clip-path="url(#pceebe5ecc0)" style="fill: none; stroke-dasharray: 0.5,0.825; stroke-dashoffset: 0; stroke: #d9d9d9; stroke-width: 0.5"/>
      </g>
      <g id="text_2">
       <!-- April -->
       <g style="fill: #6c7984" transform="translate(184.616393 201.894688) scale(0.09 -0.09)">
        <defs>
         <path id="Ubuntu-41" d="M 3514 0 
Q 3405 288 3309 566 
Q 3213 845 3110 1133 
L 1101 1133 
L 698 0 
L 51 0 
Q 307 704 531 1302 
Q 755 1901 969 2438 
Q 1184 2976 1395 3465 
Q 1606 3955 1837 4435 
L 2406 4435 
Q 2637 3955 2848 3465 
Q 3059 2976 3273 2438 
Q 3488 1901 3712 1302 
Q 3936 704 4192 0 
L 3514 0 
z
M 2931 1645 
Q 2726 2202 2524 2723 
Q 2323 3245 2106 3725 
Q 1882 3245 1680 2723 
Q 1478 2202 1280 1645 
L 2931 1645 
z
" transform="scale(0.015625)"/>
         <path id="Ubuntu-70" d="M 2822 1658 
Q 2822 2240 2534 2553 
Q 2246 2867 1766 2867 
Q 1498 2867 1347 2848 
Q 1197 2829 1107 2803 
L 1107 704 
Q 1216 614 1421 531 
Q 1626 448 1869 448 
Q 2125 448 2307 541 
Q 2490 634 2605 797 
Q 2720 960 2771 1181 
Q 2822 1402 2822 1658 
z
M 3443 1658 
Q 3443 1280 3344 960 
Q 3245 640 3053 409 
Q 2861 179 2582 51 
Q 2304 -77 1946 -77 
Q 1658 -77 1437 0 
Q 1216 77 1107 147 
L 1107 -1184 
L 512 -1184 
L 512 3226 
Q 723 3277 1040 3337 
Q 1357 3398 1773 3398 
Q 2157 3398 2464 3276 
Q 2771 3155 2988 2931 
Q 3206 2707 3324 2384 
Q 3443 2061 3443 1658 
z
" transform="scale(0.015625)"/>
         <path id="Ubuntu-69" d="M 1107 0 
L 512 0 
L 512 3328 
L 1107 3328 
L 1107 0 
z
M 806 3930 
Q 646 3930 534 4035 
Q 422 4141 422 4320 
Q 422 4499 534 4604 
Q 646 4710 806 4710 
Q 966 4710 1078 4604 
Q 1190 4499 1190 4320 
Q 1190 4141 1078 4035 
Q 966 3930 806 3930 
z
" transform="scale(0.015625)"/>
         <path id="Ubuntu-6c" d="M 1510 -64 
Q 960 -51 729 173 
Q 499 397 499 870 
L 499 4864 
L 1094 4966 
L 1094 966 
Q 1094 819 1120 723 
Q 1146 627 1203 569 
Q 1261 512 1357 483 
Q 1453 454 1594 435 
L 1510 -64 
z
" transform="scale(0.015625)"/>
        </defs>
        <use xlink:href="#Ubuntu-41"/>
        <use xlink:href="#Ubuntu-70" x="66.299988"/>
        <use xlink:href="#Ubuntu-72" x="125.199982"/>
        <use xlink:href="#Ubuntu-69" x="163.799973"/>
        <use xlink:href="#Ubuntu-6c" x="189.09996"/>
       </g>
      </g>
     </g>
     <g id="xtick_3">
      <g id="line2d_3">
       <path d="M 280.731681 163.91125 
L 280.731681 163.91125 
" clip-path="url(#pceebe5ecc0)" style="fill: none; stroke-dasharray: 0.5,0.825; stroke-dashoffset: 0; stroke: #d9d9d9; stroke-width: 0.5"/>
      </g>
      <g id="text_3">
       <!-- May -->
       <g style="fill: #6c7984" transform="translate(272.294181 201.867969) scale(0.09 -0.09)">
        <defs>
         <path id="Ubuntu-79" d="M 122 -621 
Q 192 -653 304 -681 
Q 416 -710 525 -710 
Q 877 -710 1075 -553 
Q 1274 -397 1434 -45 
Q 1030 723 681 1584 
Q 333 2445 102 3328 
L 742 3328 
Q 813 3040 912 2707 
Q 1011 2374 1132 2022 
Q 1254 1670 1395 1318 
Q 1536 966 1690 640 
Q 1933 1312 2112 1971 
Q 2291 2630 2451 3328 
L 3066 3328 
Q 2835 2387 2553 1520 
Q 2272 653 1946 -102 
Q 1818 -390 1680 -598 
Q 1542 -806 1376 -940 
Q 1210 -1075 1002 -1139 
Q 794 -1203 531 -1203 
Q 461 -1203 384 -1193 
Q 307 -1184 233 -1168 
Q 160 -1152 99 -1133 
Q 38 -1114 13 -1101 
L 122 -621 
z
" transform="scale(0.015625)"/>
        </defs>
        <use xlink:href="#Ubuntu-4d"/>
        <use xlink:href="#Ubuntu-61" x="87.099991"/>
        <use xlink:href="#Ubuntu-79" x="137.799988"/>
       </g>
      </g>
     </g>
     <g id="xtick_4">
      <g id="line2d_4">
       <path d="M 369.988646 163.91125 
L 369.988646 163.91125 
" clip-path="url(#pceebe5ecc0)" style="fill: none; stroke-dasharray: 0.5,0.825; stroke-dashoffset: 0; stroke: #d9d9d9; stroke-width: 0.5"/>
      </g>
      <g id="text_4">
       <!-- June -->
       <g style="fill: #6c7984" transform="translate(360.056303 201.894688) scale(0.09 -0.09)">
        <defs>
         <path id="Ubuntu-4a" d="M 2682 1427 
Q 2682 1107 2614 832 
Q 2547 557 2377 349 
Q 2208 141 1923 22 
Q 1638 -96 1210 -96 
Q 992 -96 809 -61 
Q 627 -26 480 28 
Q 333 83 224 144 
Q 115 205 51 262 
L 294 755 
Q 429 659 643 553 
Q 858 448 1178 448 
Q 1638 448 1849 681 
Q 2061 915 2061 1485 
L 2061 4435 
L 2682 4435 
L 2682 1427 
z
" transform="scale(0.015625)"/>
         <path id="Ubuntu-75" d="M 3162 96 
Q 2957 45 2621 -12 
Q 2285 -70 1843 -70 
Q 1459 -70 1196 42 
Q 934 154 774 358 
Q 614 563 544 841 
Q 474 1120 474 1459 
L 474 3328 
L 1069 3328 
L 1069 1587 
Q 1069 979 1261 716 
Q 1453 454 1907 454 
Q 2003 454 2105 460 
Q 2208 467 2297 476 
Q 2387 486 2460 496 
Q 2534 506 2566 518 
L 2566 3328 
L 3162 3328 
L 3162 96 
z
" transform="scale(0.015625)"/>
         <path id="Ubuntu-6e" d="M 512 3232 
Q 717 3283 1056 3340 
Q 1395 3398 1837 3398 
Q 2234 3398 2496 3286 
Q 2758 3174 2915 2972 
Q 3072 2771 3136 2489 
Q 3200 2208 3200 1869 
L 3200 0 
L 2605 0 
L 2605 1741 
Q 2605 2048 2563 2265 
Q 2522 2483 2426 2617 
Q 2330 2752 2170 2813 
Q 2010 2874 1773 2874 
Q 1677 2874 1574 2867 
Q 1472 2861 1379 2851 
Q 1286 2842 1212 2829 
Q 1139 2816 1107 2810 
L 1107 0 
L 512 0 
L 512 3232 
z
" transform="scale(0.015625)"/>
         <path id="Ubuntu-65" d="M 326 1658 
Q 326 2099 454 2428 
Q 582 2758 793 2976 
Q 1005 3194 1280 3302 
Q 1555 3411 1843 3411 
Q 2515 3411 2873 2992 
Q 3232 2573 3232 1715 
Q 3232 1677 3232 1616 
Q 3232 1555 3226 1504 
L 947 1504 
Q 986 986 1248 717 
Q 1510 448 2067 448 
Q 2381 448 2595 502 
Q 2810 557 2918 608 
L 3002 109 
Q 2893 51 2621 -13 
Q 2349 -77 2003 -77 
Q 1568 -77 1251 54 
Q 934 186 729 416 
Q 525 646 425 963 
Q 326 1280 326 1658 
z
M 2611 1984 
Q 2618 2387 2410 2646 
Q 2202 2906 1837 2906 
Q 1632 2906 1475 2826 
Q 1318 2746 1209 2618 
Q 1101 2490 1040 2323 
Q 979 2157 960 1984 
L 2611 1984 
z
" transform="scale(0.015625)"/>
        </defs>
        <use xlink:href="#Ubuntu-4a"/>
        <use xlink:href="#Ubuntu-75" x="49.999985"/>
        <use xlink:href="#Ubuntu-6e" x="107.399979"/>
        <use xlink:href="#Ubuntu-65" x="164.799973"/>
       </g>
      </g>
     </g>
     <g id="xtick_5">
      <g id="line2d_5">
       <path d="M 456.366355 163.91125 
L 456.366355 163.91125 
" clip-path="url(#pceebe5ecc0)" style="fill: none; stroke-dasharray: 0.5,0.825; stroke-dashoffset: 0; stroke: #d9d9d9; stroke-width: 0.5"/>
      </g>
      <g id="text_5">
       <!-- July -->
       <g style="fill: #6c7984" transform="translate(448.068074 201.894688) scale(0.09 -0.09)">
        <use xlink:href="#Ubuntu-4a"/>
        <use xlink:href="#Ubuntu-75" x="49.999985"/>
        <use xlink:href="#Ubuntu-6c" x="107.399979"/>
        <use xlink:href="#Ubuntu-79" x="134.699966"/>
       </g>
      </g>
     </g>
    </g>
    <g id="matplotlib.axis_2"/>
   </g>
   <g id="matplotlib.axis_3">
    <g id="xtick_6">
     <g id="line2d_6">
      <defs>
       <path id="m7e6b3caccf" d="M 0 0 
L 0 4.5 
" style="stroke: #aeb9c2; stroke-width: 0.75"/>
      </defs>
      <g>
       <use xlink:href="#m7e6b3caccf" x="64.787408" y="173.91125" style="fill: #aeb9c2; stroke: #aeb9c2; stroke-width: 0.75"/>
      </g>
     </g>
     <g id="text_6">
      <!-- 01 -->
      <g style="fill: #6c7984" transform="translate(60.274908 188.11875) scale(0.08 -0.08)">
       <defs>
        <path id="Ubuntu-30" d="M 320 2221 
Q 320 3334 713 3936 
Q 1107 4538 1805 4538 
Q 2502 4538 2896 3936 
Q 3290 3334 3290 2221 
Q 3290 1107 2896 505 
Q 2502 -96 1805 -96 
Q 1107 -96 713 505 
Q 320 1107 320 2221 
z
M 2662 2221 
Q 2662 2586 2620 2912 
Q 2579 3238 2480 3481 
Q 2381 3725 2214 3869 
Q 2048 4013 1805 4013 
Q 1562 4013 1395 3869 
Q 1229 3725 1129 3481 
Q 1030 3238 988 2912 
Q 947 2586 947 2221 
Q 947 1856 988 1529 
Q 1030 1203 1129 960 
Q 1229 717 1395 573 
Q 1562 429 1805 429 
Q 2048 429 2214 573 
Q 2381 717 2480 960 
Q 2579 1203 2620 1529 
Q 2662 1856 2662 2221 
z
" transform="scale(0.015625)"/>
        <path id="Ubuntu-31" d="M 595 3520 
Q 960 3661 1305 3881 
Q 1651 4102 1939 4435 
L 2362 4435 
L 2362 0 
L 1766 0 
L 1766 3610 
Q 1690 3539 1578 3462 
Q 1466 3386 1334 3315 
Q 1203 3245 1059 3181 
Q 915 3117 781 3072 
L 595 3520 
z
" transform="scale(0.015625)"/>
       </defs>
       <use xlink:href="#Ubuntu-30"/>
       <use xlink:href="#Ubuntu-31" x="56.399994"/>
      </g>
     </g>
    </g>
    <g id="xtick_7">
     <g id="line2d_7">
      <g>
       <use xlink:href="#m7e6b3caccf" x="154.044374" y="173.91125" style="fill: #aeb9c2; stroke: #aeb9c2; stroke-width: 0.75"/>
      </g>
     </g>
     <g id="text_7">
      <!-- 01 -->
      <g style="fill: #6c7984" transform="translate(149.531874 188.11875) scale(0.08 -0.08)">
       <use xlink:href="#Ubuntu-30"/>
       <use xlink:href="#Ubuntu-31" x="56.399994"/>
      </g>
     </g>
    </g>
    <g id="xtick_8">
     <g id="line2d_8">
      <g>
       <use xlink:href="#m7e6b3caccf" x="240.422083" y="173.91125" style="fill: #aeb9c2; stroke: #aeb9c2; stroke-width: 0.75"/>
      </g>
     </g>
     <g id="text_8">
      <!-- 01 -->
      <g style="fill: #6c7984" transform="translate(235.909583 188.11875) scale(0.08 -0.08)">
       <use xlink:href="#Ubuntu-30"/>
       <use xlink:href="#Ubuntu-31" x="56.399994"/>
      </g>
     </g>
    </g>
    <g id="xtick_9">
     <g id="line2d_9">
      <g>
       <use xlink:href="#m7e6b3caccf" x="329.679049" y="173.91125" style="fill: #aeb9c2; stroke: #aeb9c2; stroke-width: 0.75"/>
      </g>
     </g>
     <g id="text_9">
      <!-- 01 -->
      <g style="fill: #6c7984" transform="translate(325.166549 188.11875) scale(0.08 -0.08)">
       <use xlink:href="#Ubuntu-30"/>
       <use xlink:href="#Ubuntu-31" x="56.399994"/>
      </g>
     </g>
    </g>
    <g id="xtick_10">
     <g id="line2d_10">
      <g>
       <use xlink:href="#m7e6b3caccf" x="416.056758" y="173.91125" style="fill: #aeb9c2; stroke: #aeb9c2; stroke-width: 0.75"/>
      </g>
     </g>
     <g id="text_10">
      <!-- 01 -->
      <g style="fill: #6c7984" transform="translate(411.544258 188.11875) scale(0.08 -0.08)">
       <use xlink:href="#Ubuntu-30"/>
       <use xlink:href="#Ubuntu-31" x="56.399994"/>
      </g>
     </g>
    </g>
    <g id="xtick_11">
     <g id="line2d_11">
      <g>
       <use xlink:href="#m7e6b3caccf" x="505.313724" y="173.91125" style="fill: #aeb9c2; stroke: #aeb9c2; stroke-width: 0.75"/>
      </g>
     </g>
     <g id="text_11">
      <!-- 01 -->
      <g style="fill: #6c7984" transform="translate(500.801224 188.11875) scale(0.08 -0.08)">
       <use xlink:href="#Ubuntu-30"/>
       <use xlink:href="#Ubuntu-31" x="56.399994"/>
      </g>
     </g>
    </g>
    <g id="xtick_12">
     <g id="line2d_12">
      <defs>
       <path id="maa9042f32e" d="M 0 0 
L 0 3 
" style="stroke: #aeb9c2; stroke-width: 0.75"/>
      </defs>
      <g>
       <use xlink:href="#maa9042f32e" x="90.700721" y="173.91125" style="fill: #aeb9c2; stroke: #aeb9c2; stroke-width: 0.75"/>
      </g>
     </g>
     <g id="text_12">
      <!-- 10 -->
      <g style="fill: #6c7984" transform="translate(86.188221 188.11875) scale(0.08 -0.08)">
       <use xlink:href="#Ubuntu-31"/>
       <use xlink:href="#Ubuntu-30" x="56.399994"/>
      </g>
     </g>
    </g>
    <g id="xtick_13">
     <g id="line2d_13">
      <g>
       <use xlink:href="#maa9042f32e" x="119.49329" y="173.91125" style="fill: #aeb9c2; stroke: #aeb9c2; stroke-width: 0.75"/>
      </g>
     </g>
     <g id="text_13">
      <!-- 20 -->
      <g style="fill: #6c7984" transform="translate(114.98079 188.11875) scale(0.08 -0.08)">
       <defs>
        <path id="Ubuntu-32" d="M 2989 3302 
Q 2989 3072 2896 2857 
Q 2803 2643 2649 2435 
Q 2496 2227 2304 2025 
Q 2112 1824 1920 1632 
Q 1811 1523 1667 1376 
Q 1523 1229 1395 1069 
Q 1267 909 1180 761 
Q 1094 614 1094 506 
L 3136 506 
L 3136 0 
L 448 0 
Q 442 38 442 76 
Q 442 115 442 147 
Q 442 448 541 707 
Q 640 966 800 1196 
Q 960 1427 1158 1632 
Q 1357 1837 1549 2029 
Q 1709 2182 1853 2332 
Q 1997 2483 2109 2633 
Q 2221 2784 2288 2944 
Q 2355 3104 2355 3283 
Q 2355 3475 2294 3609 
Q 2234 3744 2131 3833 
Q 2029 3923 1891 3964 
Q 1754 4006 1600 4006 
Q 1414 4006 1260 3955 
Q 1107 3904 985 3837 
Q 864 3770 781 3696 
Q 698 3622 653 3584 
L 358 4006 
Q 416 4070 531 4163 
Q 646 4256 806 4339 
Q 966 4422 1164 4480 
Q 1363 4538 1594 4538 
Q 2291 4538 2640 4214 
Q 2989 3891 2989 3302 
z
" transform="scale(0.015625)"/>
       </defs>
       <use xlink:href="#Ubuntu-32"/>
       <use xlink:href="#Ubuntu-30" x="56.399994"/>
      </g>
     </g>
    </g>
    <g id="xtick_14">
     <g id="line2d_14">
      <g>
       <use xlink:href="#maa9042f32e" x="179.957687" y="173.91125" style="fill: #aeb9c2; stroke: #aeb9c2; stroke-width: 0.75"/>
      </g>
     </g>
     <g id="text_14">
      <!-- 10 -->
      <g style="fill: #6c7984" transform="translate(175.445187 188.11875) scale(0.08 -0.08)">
       <use xlink:href="#Ubuntu-31"/>
       <use xlink:href="#Ubuntu-30" x="56.399994"/>
      </g>
     </g>
    </g>
    <g id="xtick_15">
     <g id="line2d_15">
      <g>
       <use xlink:href="#maa9042f32e" x="208.750256" y="173.91125" style="fill: #aeb9c2; stroke: #aeb9c2; stroke-width: 0.75"/>
      </g>
     </g>
     <g id="text_15">
      <!-- 20 -->
      <g style="fill: #6c7984" transform="translate(204.237756 188.11875) scale(0.08 -0.08)">
       <use xlink:href="#Ubuntu-32"/>
       <use xlink:href="#Ubuntu-30" x="56.399994"/>
      </g>
     </g>
    </g>
    <g id="xtick_16">
     <g id="line2d_16">
      <g>
       <use xlink:href="#maa9042f32e" x="266.335396" y="173.91125" style="fill: #aeb9c2; stroke: #aeb9c2; stroke-width: 0.75"/>
      </g>
     </g>
     <g id="text_16">
      <!-- 10 -->
      <g style="fill: #6c7984" transform="translate(261.822896 188.11875) scale(0.08 -0.08)">
       <use xlink:href="#Ubuntu-31"/>
       <use xlink:href="#Ubuntu-30" x="56.399994"/>
      </g>
     </g>
    </g>
    <g id="xtick_17">
     <g id="line2d_17">
      <g>
       <use xlink:href="#maa9042f32e" x="295.127965" y="173.91125" style="fill: #aeb9c2; stroke: #aeb9c2; stroke-width: 0.75"/>
      </g>
     </g>
     <g id="text_17">
      <!-- 20 -->
      <g style="fill: #6c7984" transform="translate(290.615465 188.11875) scale(0.08 -0.08)">
       <use xlink:href="#Ubuntu-32"/>
       <use xlink:href="#Ubuntu-30" x="56.399994"/>
      </g>
     </g>
    </g>
    <g id="xtick_18">
     <g id="line2d_18">
      <g>
       <use xlink:href="#maa9042f32e" x="355.592362" y="173.91125" style="fill: #aeb9c2; stroke: #aeb9c2; stroke-width: 0.75"/>
      </g>
     </g>
     <g id="text_18">
      <!-- 10 -->
      <g style="fill: #6c7984" transform="translate(351.079862 188.11875) scale(0.08 -0.08)">
       <use xlink:href="#Ubuntu-31"/>
       <use xlink:href="#Ubuntu-30" x="56.399994"/>
      </g>
     </g>
    </g>
    <g id="xtick_19">
     <g id="line2d_19">
      <g>
       <use xlink:href="#maa9042f32e" x="384.384931" y="173.91125" style="fill: #aeb9c2; stroke: #aeb9c2; stroke-width: 0.75"/>
      </g>
     </g>
     <g id="text_19">
      <!-- 20 -->
      <g style="fill: #6c7984" transform="translate(379.872431 188.11875) scale(0.08 -0.08)">
       <use xlink:href="#Ubuntu-32"/>
       <use xlink:href="#Ubuntu-30" x="56.399994"/>
      </g>
     </g>
    </g>
    <g id="xtick_20">
     <g id="line2d_20">
      <g>
       <use xlink:href="#maa9042f32e" x="441.970071" y="173.91125" style="fill: #aeb9c2; stroke: #aeb9c2; stroke-width: 0.75"/>
      </g>
     </g>
     <g id="text_20">
      <!-- 10 -->
      <g style="fill: #6c7984" transform="translate(437.457571 188.11875) scale(0.08 -0.08)">
       <use xlink:href="#Ubuntu-31"/>
       <use xlink:href="#Ubuntu-30" x="56.399994"/>
      </g>
     </g>
    </g>
    <g id="xtick_21">
     <g id="line2d_21">
      <g>
       <use xlink:href="#maa9042f32e" x="470.76264" y="173.91125" style="fill: #aeb9c2; stroke: #aeb9c2; stroke-width: 0.75"/>
      </g>
     </g>
     <g id="text_21">
      <!-- 20 -->
      <g style="fill: #6c7984" transform="translate(466.25014 188.11875) scale(0.08 -0.08)">
       <use xlink:href="#Ubuntu-32"/>
       <use xlink:href="#Ubuntu-30" x="56.399994"/>
      </g>
     </g>
    </g>
   </g>
   <g id="matplotlib.axis_4">
    <g id="ytick_1">
     <g id="line2d_22">
      <defs>
       <path id="m649d35e377" d="M 0 0 
L -3 0 
" style="stroke: #aeb9c2; stroke-width: 0.75"/>
      </defs>
      <g>
       <use xlink:href="#m649d35e377" x="55.410938" y="163.91125" style="fill: #aeb9c2; stroke: #aeb9c2; stroke-width: 0.75"/>
      </g>
     </g>
     <g id="text_22">
      <!-- 25000 -->
      <g style="fill: #6c7984" transform="translate(23.848438 167.015) scale(0.08 -0.08)">
       <defs>
        <path id="Ubuntu-35" d="M 1274 2726 
Q 2240 2688 2691 2304 
Q 3142 1920 3142 1261 
Q 3142 966 3043 716 
Q 2944 467 2742 288 
Q 2541 109 2233 6 
Q 1926 -96 1504 -96 
Q 1338 -96 1165 -70 
Q 992 -45 845 -6 
Q 698 32 582 70 
Q 467 109 416 134 
L 531 653 
Q 640 602 886 518 
Q 1133 435 1491 435 
Q 1779 435 1974 499 
Q 2170 563 2291 672 
Q 2413 781 2467 925 
Q 2522 1069 2522 1229 
Q 2522 1472 2438 1661 
Q 2355 1850 2144 1978 
Q 1933 2106 1581 2173 
Q 1229 2240 691 2240 
Q 730 2554 752 2829 
Q 774 3104 793 3366 
Q 813 3629 825 3888 
Q 838 4147 851 4435 
L 2989 4435 
L 2989 3930 
L 1370 3930 
Q 1363 3834 1350 3670 
Q 1338 3507 1325 3331 
Q 1312 3155 1299 2988 
Q 1286 2822 1274 2726 
z
" transform="scale(0.015625)"/>
       </defs>
       <use xlink:href="#Ubuntu-32"/>
       <use xlink:href="#Ubuntu-35" x="56.399994"/>
       <use xlink:href="#Ubuntu-30" x="112.799988"/>
       <use xlink:href="#Ubuntu-30" x="169.199982"/>
       <use xlink:href="#Ubuntu-30" x="225.599976"/>
      </g>
     </g>
    </g>
    <g id="ytick_2">
     <g id="line2d_23">
      <g>
       <use xlink:href="#m649d35e377" x="55.410938" y="140.989501" style="fill: #aeb9c2; stroke: #aeb9c2; stroke-width: 0.75"/>
      </g>
     </g>
     <g id="text_23">
      <!-- 27500 -->
      <g style="fill: #6c7984" transform="translate(23.848438 144.093251) scale(0.08 -0.08)">
       <defs>
        <path id="Ubuntu-37" d="M 1043 0 
Q 1082 512 1226 1078 
Q 1370 1645 1581 2179 
Q 1792 2714 2045 3171 
Q 2298 3629 2541 3917 
L 384 3917 
L 384 4435 
L 3206 4435 
L 3206 3942 
Q 2995 3699 2739 3273 
Q 2483 2848 2256 2320 
Q 2029 1792 1865 1193 
Q 1702 595 1664 0 
L 1043 0 
z
" transform="scale(0.015625)"/>
       </defs>
       <use xlink:href="#Ubuntu-32"/>
       <use xlink:href="#Ubuntu-37" x="56.399994"/>
       <use xlink:href="#Ubuntu-35" x="112.799988"/>
       <use xlink:href="#Ubuntu-30" x="169.199982"/>
       <use xlink:href="#Ubuntu-30" x="225.599976"/>
      </g>
     </g>
    </g>
    <g id="ytick_3">
     <g id="line2d_24">
      <g>
       <use xlink:href="#m649d35e377" x="55.410938" y="118.067751" style="fill: #aeb9c2; stroke: #aeb9c2; stroke-width: 0.75"/>
      </g>
     </g>
     <g id="text_24">
      <!-- 30000 -->
      <g style="fill: #6c7984" transform="translate(23.848438 121.171501) scale(0.08 -0.08)">
       <defs>
        <path id="Ubuntu-33" d="M 1446 435 
Q 2016 435 2262 659 
Q 2509 883 2509 1261 
Q 2509 1504 2406 1670 
Q 2304 1837 2137 1936 
Q 1971 2035 1750 2076 
Q 1530 2118 1299 2118 
L 1146 2118 
L 1146 2605 
L 1357 2605 
Q 1517 2605 1686 2637 
Q 1856 2669 1997 2752 
Q 2138 2835 2227 2979 
Q 2317 3123 2317 3341 
Q 2317 3520 2253 3648 
Q 2189 3776 2083 3859 
Q 1978 3942 1840 3977 
Q 1702 4013 1549 4013 
Q 1242 4013 1027 3923 
Q 813 3834 666 3738 
L 435 4192 
Q 512 4243 630 4304 
Q 749 4365 896 4416 
Q 1043 4467 1212 4502 
Q 1382 4538 1568 4538 
Q 1920 4538 2176 4451 
Q 2432 4365 2598 4208 
Q 2765 4051 2848 3836 
Q 2931 3622 2931 3373 
Q 2931 3027 2732 2780 
Q 2534 2534 2253 2406 
Q 2426 2355 2586 2259 
Q 2746 2163 2864 2016 
Q 2982 1869 3056 1677 
Q 3130 1485 3130 1248 
Q 3130 960 3030 713 
Q 2931 467 2723 288 
Q 2515 109 2201 6 
Q 1888 -96 1459 -96 
Q 1293 -96 1117 -70 
Q 941 -45 787 -6 
Q 634 32 518 70 
Q 403 109 352 134 
L 467 653 
Q 576 602 829 518 
Q 1082 435 1446 435 
z
" transform="scale(0.015625)"/>
       </defs>
       <use xlink:href="#Ubuntu-33"/>
       <use xlink:href="#Ubuntu-30" x="56.399994"/>
       <use xlink:href="#Ubuntu-30" x="112.799988"/>
       <use xlink:href="#Ubuntu-30" x="169.199982"/>
       <use xlink:href="#Ubuntu-30" x="225.599976"/>
      </g>
     </g>
    </g>
    <g id="ytick_4">
     <g id="line2d_25">
      <g>
       <use xlink:href="#m649d35e377" x="55.410938" y="95.146002" style="fill: #aeb9c2; stroke: #aeb9c2; stroke-width: 0.75"/>
      </g>
     </g>
     <g id="text_25">
      <!-- 32500 -->
      <g style="fill: #6c7984" transform="translate(23.848438 98.249752) scale(0.08 -0.08)">
       <use xlink:href="#Ubuntu-33"/>
       <use xlink:href="#Ubuntu-32" x="56.399994"/>
       <use xlink:href="#Ubuntu-35" x="112.799988"/>
       <use xlink:href="#Ubuntu-30" x="169.199982"/>
       <use xlink:href="#Ubuntu-30" x="225.599976"/>
      </g>
     </g>
    </g>
    <g id="ytick_5">
     <g id="line2d_26">
      <g>
       <use xlink:href="#m649d35e377" x="55.410938" y="72.224252" style="fill: #aeb9c2; stroke: #aeb9c2; stroke-width: 0.75"/>
      </g>
     </g>
     <g id="text_26">
      <!-- 35000 -->
      <g style="fill: #6c7984" transform="translate(23.848438 75.328002) scale(0.08 -0.08)">
       <use xlink:href="#Ubuntu-33"/>
       <use xlink:href="#Ubuntu-35" x="56.399994"/>
       <use xlink:href="#Ubuntu-30" x="112.799988"/>
       <use xlink:href="#Ubuntu-30" x="169.199982"/>
       <use xlink:href="#Ubuntu-30" x="225.599976"/>
      </g>
     </g>
    </g>
    <g id="ytick_6">
     <g id="line2d_27">
      <g>
       <use xlink:href="#m649d35e377" x="55.410938" y="49.302503" style="fill: #aeb9c2; stroke: #aeb9c2; stroke-width: 0.75"/>
      </g>
     </g>
     <g id="text_27">
      <!-- 37500 -->
      <g style="fill: #6c7984" transform="translate(23.848438 52.406253) scale(0.08 -0.08)">
       <use xlink:href="#Ubuntu-33"/>
       <use xlink:href="#Ubuntu-37" x="56.399994"/>
       <use xlink:href="#Ubuntu-35" x="112.799988"/>
       <use xlink:href="#Ubuntu-30" x="169.199982"/>
       <use xlink:href="#Ubuntu-30" x="225.599976"/>
      </g>
     </g>
    </g>
    <g id="ytick_7">
     <g id="line2d_28">
      <g>
       <use xlink:href="#m649d35e377" x="55.410938" y="26.380753" style="fill: #aeb9c2; stroke: #aeb9c2; stroke-width: 0.75"/>
      </g>
     </g>
     <g id="text_28">
      <!-- 40000 -->
      <g style="fill: #6c7984" transform="translate(23.848438 29.484503) scale(0.08 -0.08)">
       <defs>
        <path id="Ubuntu-34" d="M 256 1536 
Q 378 1818 589 2192 
Q 800 2566 1065 2963 
Q 1331 3360 1635 3744 
Q 1939 4128 2246 4435 
L 2816 4435 
L 2816 1619 
L 3341 1619 
L 3341 1133 
L 2816 1133 
L 2816 0 
L 2240 0 
L 2240 1133 
L 256 1133 
L 256 1536 
z
M 2240 3731 
Q 2048 3526 1853 3273 
Q 1658 3021 1472 2745 
Q 1286 2470 1123 2182 
Q 960 1894 832 1619 
L 2240 1619 
L 2240 3731 
z
" transform="scale(0.015625)"/>
       </defs>
       <use xlink:href="#Ubuntu-34"/>
       <use xlink:href="#Ubuntu-30" x="56.399994"/>
       <use xlink:href="#Ubuntu-30" x="112.799988"/>
       <use xlink:href="#Ubuntu-30" x="169.199982"/>
       <use xlink:href="#Ubuntu-30" x="225.599976"/>
      </g>
     </g>
    </g>
    <g id="text_29">
     <!-- target1 -->
     <g style="fill: #3f4f5c" transform="translate(14.156719 57.524219) rotate(-90) scale(0.09 -0.09)">
      <defs>
       <path id="Ubuntu-Bold-74" d="M 416 4205 
L 1370 4358 
L 1370 3366 
L 2515 3366 
L 2515 2573 
L 1370 2573 
L 1370 1389 
Q 1370 1088 1475 909 
Q 1581 730 1901 730 
Q 2054 730 2217 758 
Q 2381 787 2515 838 
L 2650 96 
Q 2477 26 2265 -25 
Q 2054 -77 1747 -77 
Q 1357 -77 1101 28 
Q 845 134 691 323 
Q 538 512 477 781 
Q 416 1050 416 1376 
L 416 4205 
z
" transform="scale(0.015625)"/>
       <path id="Ubuntu-Bold-61" d="M 1734 666 
Q 1875 666 2003 672 
Q 2131 678 2208 691 
L 2208 1414 
Q 2150 1427 2035 1440 
Q 1920 1453 1824 1453 
Q 1690 1453 1571 1437 
Q 1453 1421 1363 1376 
Q 1274 1331 1222 1254 
Q 1171 1178 1171 1062 
Q 1171 838 1321 752 
Q 1472 666 1734 666 
z
M 1658 3456 
Q 2080 3456 2361 3360 
Q 2643 3264 2812 3085 
Q 2982 2906 3052 2650 
Q 3123 2394 3123 2080 
L 3123 96 
Q 2918 51 2553 -9 
Q 2189 -70 1670 -70 
Q 1344 -70 1078 -12 
Q 813 45 621 176 
Q 429 307 326 518 
Q 224 730 224 1037 
Q 224 1331 342 1536 
Q 461 1741 659 1862 
Q 858 1984 1114 2038 
Q 1370 2093 1645 2093 
Q 1830 2093 1974 2077 
Q 2118 2061 2208 2035 
L 2208 2125 
Q 2208 2368 2061 2515 
Q 1914 2662 1549 2662 
Q 1306 2662 1069 2627 
Q 832 2592 659 2528 
L 538 3296 
Q 621 3322 745 3350 
Q 870 3379 1017 3401 
Q 1165 3424 1328 3440 
Q 1491 3456 1658 3456 
z
" transform="scale(0.015625)"/>
       <path id="Ubuntu-Bold-72" d="M 2477 2522 
Q 2349 2554 2176 2589 
Q 2003 2624 1805 2624 
Q 1715 2624 1590 2608 
Q 1466 2592 1402 2573 
L 1402 0 
L 448 0 
L 448 3187 
Q 704 3277 1053 3357 
Q 1402 3437 1830 3437 
Q 1907 3437 2016 3427 
Q 2125 3418 2233 3402 
Q 2342 3386 2451 3363 
Q 2560 3341 2637 3309 
L 2477 2522 
z
" transform="scale(0.015625)"/>
       <path id="Ubuntu-Bold-67" d="M 1261 1792 
Q 1261 992 1907 992 
Q 2054 992 2182 1030 
Q 2310 1069 2400 1120 
L 2400 2643 
Q 2330 2656 2234 2665 
Q 2138 2675 2010 2675 
Q 1632 2675 1446 2425 
Q 1261 2176 1261 1792 
z
M 3354 422 
Q 3354 -403 2934 -803 
Q 2515 -1203 1638 -1203 
Q 1331 -1203 1024 -1148 
Q 717 -1094 454 -1005 
L 621 -205 
Q 845 -294 1091 -345 
Q 1338 -397 1651 -397 
Q 2061 -397 2230 -217 
Q 2400 -38 2400 243 
L 2400 365 
Q 2246 294 2083 259 
Q 1920 224 1728 224 
Q 1030 224 659 637 
Q 288 1050 288 1792 
Q 288 2163 403 2467 
Q 518 2771 739 2988 
Q 960 3206 1280 3324 
Q 1600 3443 2003 3443 
Q 2176 3443 2358 3427 
Q 2541 3411 2720 3385 
Q 2899 3360 3062 3325 
Q 3226 3290 3354 3251 
L 3354 422 
z
" transform="scale(0.015625)"/>
       <path id="Ubuntu-Bold-65" d="M 288 1658 
Q 288 2106 425 2442 
Q 563 2778 787 3002 
Q 1011 3226 1302 3341 
Q 1594 3456 1901 3456 
Q 2618 3456 3034 3017 
Q 3450 2579 3450 1728 
Q 3450 1645 3443 1545 
Q 3437 1446 3430 1370 
L 1267 1370 
Q 1299 1075 1542 902 
Q 1786 730 2195 730 
Q 2458 730 2710 778 
Q 2963 826 3123 896 
L 3251 122 
Q 3174 83 3046 44 
Q 2918 6 2761 -22 
Q 2605 -51 2425 -70 
Q 2246 -90 2067 -90 
Q 1613 -90 1277 44 
Q 941 179 720 412 
Q 499 646 393 966 
Q 288 1286 288 1658 
z
M 2528 2022 
Q 2522 2144 2486 2259 
Q 2451 2374 2377 2464 
Q 2304 2554 2192 2611 
Q 2080 2669 1914 2669 
Q 1754 2669 1638 2614 
Q 1523 2560 1446 2470 
Q 1370 2381 1328 2262 
Q 1286 2144 1267 2022 
L 2528 2022 
z
" transform="scale(0.015625)"/>
       <path id="Ubuntu-Bold-31" d="M 448 3514 
Q 634 3590 835 3689 
Q 1037 3789 1229 3907 
Q 1421 4026 1597 4157 
Q 1773 4288 1914 4435 
L 2579 4435 
L 2579 0 
L 1626 0 
L 1626 3194 
Q 1434 3066 1197 2960 
Q 960 2854 736 2778 
L 448 3514 
z
" transform="scale(0.015625)"/>
      </defs>
      <use xlink:href="#Ubuntu-Bold-74"/>
      <use xlink:href="#Ubuntu-Bold-61" x="42.399994"/>
      <use xlink:href="#Ubuntu-Bold-72" x="97.699982"/>
      <use xlink:href="#Ubuntu-Bold-67" x="138.899979"/>
      <use xlink:href="#Ubuntu-Bold-65" x="198.299973"/>
      <use xlink:href="#Ubuntu-Bold-74" x="256.699966"/>
      <use xlink:href="#Ubuntu-Bold-31" x="301.09996"/>
     </g>
    </g>
   </g>
   <g id="PolyCollection_1">
    <defs>
     <path id="m6f1b1ff8e5" d="M 64.787408 -113.388582 
L 64.787408 -92.692417 
L 67.666665 -91.592875 
L 70.545922 -92.983582 
L 73.425179 -92.09058 
L 76.304436 -78.124504 
L 79.183693 -100.845625 
L 82.06295 -94.270867 
L 84.942207 -106.255831 
L 87.821464 -93.764628 
L 90.700721 -92.235289 
L 93.579978 -91.299692 
L 96.459235 -79.027543 
L 99.338492 -96.600644 
L 102.217749 -91.968012 
L 105.097006 -103.502665 
L 107.976263 -105.64264 
L 110.85552 -96.473179 
L 113.734777 -93.2409 
L 116.614033 -80.721665 
L 119.49329 -92.810908 
L 122.372547 -89.744036 
L 125.251804 -96.104129 
L 128.131061 -92.920991 
L 131.010318 -88.271641 
L 133.889575 -85.646291 
L 136.768832 -77.319921 
L 139.648089 -99.262551 
L 142.527346 -90.458649 
L 145.406603 -109.655565 
L 148.28586 -102.884305 
L 151.165117 -95.748364 
L 151.165117 -113.362119 
L 151.165117 -113.362119 
L 148.28586 -120.296134 
L 145.406603 -131.256612 
L 142.527346 -110.237524 
L 139.648089 -118.314914 
L 136.768832 -100.060657 
L 133.889575 -104.962322 
L 131.010318 -106.94044 
L 128.131061 -113.992223 
L 125.251804 -115.646335 
L 122.372547 -109.693605 
L 119.49329 -114.243621 
L 116.614033 -100.991612 
L 113.734777 -112.048401 
L 110.85552 -116.684446 
L 107.976263 -126.662547 
L 105.097006 -126.402156 
L 102.217749 -113.750716 
L 99.338492 -117.363476 
L 96.459235 -97.626992 
L 93.579978 -111.630698 
L 90.700721 -110.939885 
L 87.821464 -112.807276 
L 84.942207 -127.620423 
L 82.06295 -112.32946 
L 79.183693 -121.179382 
L 76.304436 -97.812287 
L 73.425179 -111.625684 
L 70.545922 -111.984941 
L 67.666665 -112.17486 
L 64.787408 -113.388582 
z
" style="stroke: #5b5b5b; stroke-opacity: 0.2"/>
    </defs>
    <g clip-path="url(#pd3cc6173e6)">
     <use xlink:href="#m6f1b1ff8e5" x="0" y="210.786406" style="fill: #5b5b5b; fill-opacity: 0.2; stroke: #5b5b5b; stroke-opacity: 0.2"/>
    </g>
   </g>
   <g id="PolyCollection_2">
    <defs>
     <path id="m12fc8887de" d="M 154.044374 -124.832238 
L 154.044374 -105.401405 
L 156.923631 -74.534251 
L 159.802888 -98.943265 
L 162.682145 -97.926003 
L 165.561402 -98.993342 
L 168.440659 -100.875896 
L 171.319916 -98.100149 
L 174.199173 -95.184414 
L 177.07843 -81.404164 
L 179.957687 -95.428307 
L 182.836944 -96.747731 
L 185.716201 -97.387191 
L 188.595458 -97.667996 
L 191.474715 -96.454224 
L 194.353972 -91.874997 
L 197.233229 -76.446592 
L 200.112485 -102.329722 
L 202.991742 -102.981085 
L 205.870999 -103.934156 
L 208.750256 -71.353334 
L 211.629513 -103.472336 
L 214.50877 -96.008304 
L 217.388027 -77.384928 
L 220.267284 -96.797878 
L 223.146541 -100.100524 
L 226.025798 -99.628716 
L 228.905055 -98.33517 
L 231.784312 -97.748195 
L 234.663569 -95.82492 
L 237.542826 -72.861738 
L 237.542826 -91.67518 
L 237.542826 -91.67518 
L 234.663569 -115.978176 
L 231.784312 -115.928394 
L 228.905055 -117.1313 
L 226.025798 -119.178674 
L 223.146541 -120.185701 
L 220.267284 -116.493557 
L 217.388027 -97.890335 
L 214.50877 -115.515398 
L 211.629513 -127.610946 
L 208.750256 -85.676077 
L 205.870999 -122.113882 
L 202.991742 -121.950069 
L 200.112485 -121.352514 
L 197.233229 -95.426254 
L 194.353972 -112.081804 
L 191.474715 -113.086473 
L 188.595458 -117.41022 
L 185.716201 -115.298152 
L 182.836944 -116.041715 
L 179.957687 -113.169623 
L 177.07843 -98.966576 
L 174.199173 -113.804858 
L 171.319916 -116.757969 
L 168.440659 -120.196074 
L 165.561402 -117.595519 
L 162.682145 -117.403144 
L 159.802888 -117.751416 
L 156.923631 -92.970681 
L 154.044374 -124.832238 
z
" style="stroke: #b45f58; stroke-opacity: 0.2"/>
    </defs>
    <g clip-path="url(#pd3cc6173e6)">
     <use xlink:href="#m12fc8887de" x="0" y="210.786406" style="fill: #b45f58; fill-opacity: 0.2; stroke: #b45f58; stroke-opacity: 0.2"/>
    </g>
   </g>
   <g id="PolyCollection_3">
    <defs>
     <path id="mdf486b23e6" d="M 240.422083 -96.958803 
L 240.422083 -76.689163 
L 243.30134 -101.175283 
L 246.180597 -88.461172 
L 249.059854 -102.331902 
L 251.939111 -99.630993 
L 254.818368 -99.974313 
L 257.697625 -78.366924 
L 260.576882 -105.249432 
L 263.456139 -102.522971 
L 266.335396 -109.180509 
L 269.214653 -108.617321 
L 272.09391 -105.255444 
L 274.973167 -100.994694 
L 277.852424 -82.596972 
L 280.731681 -107.389036 
L 283.610937 -107.522348 
L 286.490194 -107.062911 
L 289.369451 -107.606359 
L 292.248708 -103.231456 
L 295.127965 -103.20871 
L 298.007222 -96.896155 
L 300.886479 -111.304121 
L 303.765736 -115.433342 
L 306.644993 -111.006173 
L 309.52425 -115.020901 
L 312.403507 -116.137779 
L 315.282764 -118.577675 
L 318.162021 -104.835848 
L 321.041278 -121.00202 
L 323.920535 -118.051843 
L 326.799792 -119.014847 
L 326.799792 -139.019908 
L 326.799792 -139.019908 
L 323.920535 -139.62442 
L 321.041278 -141.114359 
L 318.162021 -126.612262 
L 315.282764 -139.019847 
L 312.403507 -139.513334 
L 309.52425 -136.833929 
L 306.644993 -132.363031 
L 303.765736 -134.473315 
L 300.886479 -133.193605 
L 298.007222 -115.565512 
L 295.127965 -120.620762 
L 292.248708 -121.674611 
L 289.369451 -127.012117 
L 286.490194 -126.998149 
L 283.610937 -127.179539 
L 280.731681 -126.771627 
L 277.852424 -103.523352 
L 274.973167 -119.84524 
L 272.09391 -124.00795 
L 269.214653 -127.211153 
L 266.335396 -128.014822 
L 263.456139 -122.750726 
L 260.576882 -126.446323 
L 257.697625 -98.679372 
L 254.818368 -118.866043 
L 251.939111 -118.891836 
L 249.059854 -121.954562 
L 246.180597 -108.07754 
L 243.30134 -120.822433 
L 240.422083 -96.958803 
z
" style="stroke: #6489a9; stroke-opacity: 0.2"/>
    </defs>
    <g clip-path="url(#pd3cc6173e6)">
     <use xlink:href="#mdf486b23e6" x="0" y="210.786406" style="fill: #6489a9; fill-opacity: 0.2; stroke: #6489a9; stroke-opacity: 0.2"/>
    </g>
   </g>
   <g id="PolyCollection_4">
    <defs>
     <path id="mc957c3c047" d="M 329.679049 -142.579603 
L 329.679049 -122.724409 
L 332.558306 -127.121843 
L 335.437563 -137.24344 
L 338.31682 -102.772185 
L 341.196077 -123.217171 
L 344.075334 -121.404177 
L 346.954591 -121.46174 
L 349.833848 -127.46238 
L 352.713105 -127.610921 
L 355.592362 -132.929374 
L 358.471619 -110.536576 
L 361.350876 -132.312359 
L 364.230133 -131.244661 
L 367.10939 -128.324785 
L 369.988646 -133.405357 
L 372.867903 -131.801665 
L 375.74716 -130.789505 
L 378.626417 -116.820394 
L 381.505674 -141.246093 
L 384.384931 -146.157298 
L 387.264188 -148.781267 
L 390.143445 -142.483726 
L 393.022702 -143.835189 
L 395.901959 -141.5537 
L 398.781216 -130.865931 
L 401.660473 -96.299063 
L 404.53973 -75.972329 
L 407.418987 -102.185196 
L 410.298244 -103.016178 
L 413.177501 -103.799788 
L 413.177501 -122.127209 
L 413.177501 -122.127209 
L 410.298244 -122.700728 
L 407.418987 -120.939792 
L 404.53973 -92.921834 
L 401.660473 -112.831463 
L 398.781216 -154.77195 
L 395.901959 -165.128978 
L 393.022702 -168.717299 
L 390.143445 -164.242366 
L 387.264188 -170.017514 
L 384.384931 -168.175091 
L 381.505674 -160.943011 
L 378.626417 -140.123626 
L 375.74716 -152.665456 
L 372.867903 -152.3065 
L 369.988646 -154.712626 
L 367.10939 -150.033675 
L 364.230133 -151.38957 
L 361.350876 -154.493853 
L 358.471619 -131.559473 
L 355.592362 -154.244496 
L 352.713105 -148.049127 
L 349.833848 -147.508518 
L 346.954591 -143.855509 
L 344.075334 -143.132498 
L 341.196077 -144.396949 
L 338.31682 -124.343747 
L 335.437563 -157.6441 
L 332.558306 -148.871355 
L 329.679049 -142.579603 
z
" style="stroke: #4e9a73; stroke-opacity: 0.2"/>
    </defs>
    <g clip-path="url(#pd3cc6173e6)">
     <use xlink:href="#mc957c3c047" x="0" y="210.786406" style="fill: #4e9a73; fill-opacity: 0.2; stroke: #4e9a73; stroke-opacity: 0.2"/>
    </g>
   </g>
   <g id="PolyCollection_5">
    <defs>
     <path id="me2a6acfbf0" d="M 416.056758 -123.13239 
L 416.056758 -103.623803 
L 418.936015 -97.11827 
L 421.815272 -117.665591 
L 424.694529 -111.062279 
L 427.573786 -131.865216 
L 430.453043 -137.745114 
L 433.3323 -118.030734 
L 436.211557 -125.903469 
L 439.090814 -107.29506 
L 441.970071 -137.001881 
L 444.849328 -142.95386 
L 447.728585 -146.302415 
L 450.607842 -144.511066 
L 453.487098 -125.788084 
L 456.366355 -133.276739 
L 459.245612 -129.839969 
L 462.124869 -145.160785 
L 465.004126 -149.468683 
L 467.883383 -153.905633 
L 470.76264 -144.682936 
L 473.641897 -133.326055 
L 476.521154 -130.934161 
L 479.400411 -116.043553 
L 482.279668 -156.110852 
L 485.158925 -159.469308 
L 488.038182 -157.569457 
L 490.917439 -157.773189 
L 493.796696 -156.003001 
L 496.675953 -156.376988 
L 499.55521 -136.331571 
L 502.434467 -161.074947 
L 502.434467 -181.914234 
L 502.434467 -181.914234 
L 499.55521 -156.274275 
L 496.675953 -175.563716 
L 493.796696 -174.605287 
L 490.917439 -179.686727 
L 488.038182 -177.893815 
L 485.158925 -180.885065 
L 482.279668 -176.647968 
L 479.400411 -136.570922 
L 476.521154 -150.641078 
L 473.641897 -152.939274 
L 470.76264 -163.885859 
L 467.883383 -176.509554 
L 465.004126 -169.504901 
L 462.124869 -166.390214 
L 459.245612 -147.53623 
L 456.366355 -154.496166 
L 453.487098 -142.988636 
L 450.607842 -164.015226 
L 447.728585 -165.884818 
L 444.849328 -161.830161 
L 441.970071 -156.438671 
L 439.090814 -125.14994 
L 436.211557 -145.731224 
L 433.3323 -136.662405 
L 430.453043 -157.891205 
L 427.573786 -152.328353 
L 424.694529 -130.757966 
L 421.815272 -138.816167 
L 418.936015 -116.69251 
L 416.056758 -123.13239 
z
" style="stroke: #c3824d; stroke-opacity: 0.2"/>
    </defs>
    <g clip-path="url(#pd3cc6173e6)">
     <use xlink:href="#me2a6acfbf0" x="0" y="210.786406" style="fill: #c3824d; fill-opacity: 0.2; stroke: #c3824d; stroke-opacity: 0.2"/>
    </g>
   </g>
   <g id="line2d_29">
    <path d="M 64.787408 107.570565 
L 67.666665 108.973181 
L 70.545922 108.165946 
L 73.425179 108.916218 
L 76.304436 122.47692 
L 79.183693 99.815406 
L 82.06295 107.758621 
L 84.942207 93.899059 
L 87.821464 107.177677 
L 90.700721 109.523303 
L 93.579978 109.453855 
L 96.459235 122.986076 
L 99.338492 104.490272 
L 102.217749 108.181162 
L 105.097006 95.330936 
L 107.976263 94.22601 
L 110.85552 104.842975 
L 113.734777 107.946287 
L 116.614033 119.613555 
L 119.49329 107.673177 
L 122.372547 111.37343 
L 125.251804 104.988894 
L 128.131061 107.227617 
L 131.010318 112.966053 
L 133.889575 115.584789 
L 136.768832 122.300179 
L 139.648089 102.391225 
L 142.527346 110.388672 
L 145.406603 90.148865 
L 148.28586 99.259041 
L 151.165117 106.118009 
" clip-path="url(#pd3cc6173e6)" style="fill: none; stroke: #5b5b5b; stroke-width: 1.2; stroke-linecap: square"/>
   </g>
   <g id="line2d_30">
    <path d="M 154.044374 95.874168 
L 156.923631 127.117623 
L 159.802888 102.696707 
L 162.682145 103.54232 
L 165.561402 102.847512 
L 168.440659 100.519116 
L 171.319916 103.418755 
L 174.199173 106.458539 
L 177.07843 120.668543 
L 179.957687 106.690668 
L 182.836944 104.211072 
L 185.716201 103.983286 
L 188.595458 103.360722 
L 191.474715 106.294706 
L 194.353972 108.37834 
L 197.233229 125.041885 
L 200.112485 98.887897 
L 202.991742 98.329682 
L 205.870999 97.980699 
L 208.750256 132.432903 
L 211.629513 94.863933 
L 214.50877 104.97694 
L 217.388027 123.713854 
L 220.267284 104.845874 
L 223.146541 101.277483 
L 226.025798 101.660812 
L 228.905055 102.767767 
L 231.784312 103.854194 
L 234.663569 105.321975 
L 237.542826 128.25695 
" clip-path="url(#pd3cc6173e6)" style="fill: none; stroke: #b45f58; stroke-width: 1.2; stroke-linecap: square"/>
   </g>
   <g id="line2d_31">
    <path d="M 240.422083 123.876398 
L 243.30134 100.332379 
L 246.180597 112.982179 
L 249.059854 98.761175 
L 251.939111 101.635036 
L 254.818368 101.679126 
L 257.697625 122.659516 
L 260.576882 95.155421 
L 263.456139 98.081389 
L 266.335396 92.013814 
L 269.214653 92.813044 
L 272.09391 96.377113 
L 274.973167 99.840977 
L 277.852424 116.852473 
L 280.731681 93.979422 
L 283.610937 93.310057 
L 286.490194 93.758171 
L 289.369451 93.133698 
L 292.248708 98.377192 
L 295.127965 98.900659 
L 298.007222 104.249969 
L 300.886479 87.912649 
L 303.765736 86.00075 
L 306.644993 89.006881 
L 309.52425 84.960228 
L 312.403507 82.53448 
L 315.282764 81.690359 
L 318.162021 94.773041 
L 321.041278 79.889085 
L 323.920535 82.061516 
L 326.799792 81.48514 
" clip-path="url(#pd3cc6173e6)" style="fill: none; stroke: #6489a9; stroke-width: 1.2; stroke-linecap: square"/>
   </g>
   <g id="line2d_32">
    <path d="M 329.679049 78.178847 
L 332.558306 73.086474 
L 335.437563 63.28143 
L 338.31682 97.57844 
L 341.196077 77.26643 
L 344.075334 78.824907 
L 346.954591 78.344005 
L 349.833848 73.27754 
L 352.713105 73.126145 
L 355.592362 67.146452 
L 358.471619 89.679999 
L 361.350876 67.399857 
L 364.230133 69.46757 
L 367.10939 71.243829 
L 369.988646 67.337517 
L 372.867903 68.645019 
L 375.74716 69.143731 
L 378.626417 82.540153 
L 381.505674 60.222768 
L 384.384931 53.595397 
L 387.264188 50.847621 
L 390.143445 57.194871 
L 393.022702 54.507005 
L 395.901959 57.139009 
L 398.781216 68.083157 
L 401.660473 106.224948 
L 404.53973 126.285983 
L 407.418987 98.974187 
L 410.298244 98.372655 
L 413.177501 98.21195 
" clip-path="url(#pd3cc6173e6)" style="fill: none; stroke: #4e9a73; stroke-width: 1.2; stroke-linecap: square"/>
   </g>
   <g id="line2d_33">
    <path d="M 416.056758 97.670796 
L 418.936015 103.362903 
L 421.815272 82.557773 
L 424.694529 89.790791 
L 427.573786 68.748472 
L 430.453043 62.643316 
L 433.3323 82.939142 
L 436.211557 75.315008 
L 439.090814 94.766866 
L 441.970071 64.387299 
L 444.849328 58.337378 
L 447.728585 54.558209 
L 450.607842 56.0053 
L 453.487098 76.732044 
L 456.366355 67.372863 
L 459.245612 72.569475 
L 462.124869 55.014715 
L 465.004126 51.672556 
L 467.883383 46.130316 
L 470.76264 56.392355 
L 473.641897 67.750171 
L 476.521154 69.753272 
L 479.400411 83.957345 
L 482.279668 44.320944 
L 485.158925 40.592949 
L 488.038182 43.163028 
L 490.917439 41.760613 
L 493.796696 45.517444 
L 496.675953 44.710436 
L 499.55521 64.761357 
L 502.434467 39.344462 
" clip-path="url(#pd3cc6173e6)" style="fill: none; stroke: #c3824d; stroke-width: 1.2; stroke-linecap: square"/>
   </g>
   <g id="line2d_34"/>
   <g id="line2d_35"/>
   <g id="line2d_36"/>
   <g id="line2d_37"/>
   <g id="line2d_38"/>
   <g id="patch_4">
    <path d="M 55.410938 163.91125 
L 55.410938 26.380753 
" style="fill: none; stroke: #aeb9c2; stroke-width: 0.75; stroke-linejoin: miter; stroke-linecap: square"/>
   </g>
   <g id="patch_5">
    <path d="M 64.787408 173.91125 
L 505.313724 173.91125 
" style="fill: none; stroke: #aeb9c2; stroke-width: 0.75; stroke-linejoin: miter; stroke-linecap: square"/>
   </g>
   <g id="legend_1">
    <g id="line2d_39">
     <defs>
      <path id="m98ca99e6d8" d="M 0 1.5 
C 0.397805 1.5 0.77937 1.341951 1.06066 1.06066 
C 1.341951 0.77937 1.5 0.397805 1.5 0 
C 1.5 -0.397805 1.341951 -0.77937 1.06066 -1.06066 
C 0.77937 -1.341951 0.397805 -1.5 0 -1.5 
C -0.397805 -1.5 -0.77937 -1.341951 -1.06066 -1.06066 
C -1.341951 -0.77937 -1.5 -0.397805 -1.5 0 
C -1.5 0.397805 -1.341951 0.77937 -1.06066 1.06066 
C -0.77937 1.341951 -0.397805 1.5 0 1.5 
z
" style="stroke: #5b5b5b"/>
     </defs>
     <g>
      <use xlink:href="#m98ca99e6d8" x="75.610938" y="13.8075" style="fill: #5b5b5b; stroke: #5b5b5b"/>
     </g>
    </g>
    <g id="text_30">
     <!-- March -->
     <g style="fill: #4b4b4b" transform="translate(83.610938 16.6075) scale(0.08 -0.08)">
      <use xlink:href="#Ubuntu-4d"/>
      <use xlink:href="#Ubuntu-61" x="87.099991"/>
      <use xlink:href="#Ubuntu-72" x="139.299988"/>
      <use xlink:href="#Ubuntu-63" x="177.899979"/>
      <use xlink:href="#Ubuntu-68" x="224.399963"/>
     </g>
    </g>
    <g id="line2d_40">
     <defs>
      <path id="mc228fcfae6" d="M 0 1.5 
C 0.397805 1.5 0.77937 1.341951 1.06066 1.06066 
C 1.341951 0.77937 1.5 0.397805 1.5 0 
C 1.5 -0.397805 1.341951 -0.77937 1.06066 -1.06066 
C 0.77937 -1.341951 0.397805 -1.5 0 -1.5 
C -0.397805 -1.5 -0.77937 -1.341951 -1.06066 -1.06066 
C -1.341951 -0.77937 -1.5 -0.397805 -1.5 0 
C -1.5 0.397805 -1.341951 0.77937 -1.06066 1.06066 
C -0.77937 1.341951 -0.397805 1.5 0 1.5 
z
" style="stroke: #b45f58"/>
     </defs>
     <g>
      <use xlink:href="#mc228fcfae6" x="130.129687" y="13.8075" style="fill: #b45f58; stroke: #b45f58"/>
     </g>
    </g>
    <g id="text_31">
     <!-- April -->
     <g style="fill: #4b4b4b" transform="translate(138.129687 16.6075) scale(0.08 -0.08)">
      <use xlink:href="#Ubuntu-41"/>
      <use xlink:href="#Ubuntu-70" x="66.299988"/>
      <use xlink:href="#Ubuntu-72" x="125.199982"/>
      <use xlink:href="#Ubuntu-69" x="163.799973"/>
      <use xlink:href="#Ubuntu-6c" x="189.09996"/>
     </g>
    </g>
    <g id="line2d_41">
     <defs>
      <path id="mac642da7b5" d="M 0 1.5 
C 0.397805 1.5 0.77937 1.341951 1.06066 1.06066 
C 1.341951 0.77937 1.5 0.397805 1.5 0 
C 1.5 -0.397805 1.341951 -0.77937 1.06066 -1.06066 
C 0.77937 -1.341951 0.397805 -1.5 0 -1.5 
C -0.397805 -1.5 -0.77937 -1.341951 -1.06066 -1.06066 
C -1.341951 -0.77937 -1.5 -0.397805 -1.5 0 
C -1.5 0.397805 -1.341951 0.77937 -1.06066 1.06066 
C -0.77937 1.341951 -0.397805 1.5 0 1.5 
z
" style="stroke: #6489a9"/>
     </defs>
     <g>
      <use xlink:href="#mac642da7b5" x="179.440938" y="13.8075" style="fill: #6489a9; stroke: #6489a9"/>
     </g>
    </g>
    <g id="text_32">
     <!-- May -->
     <g style="fill: #4b4b4b" transform="translate(187.440938 16.6075) scale(0.08 -0.08)">
      <use xlink:href="#Ubuntu-4d"/>
      <use xlink:href="#Ubuntu-61" x="87.099991"/>
      <use xlink:href="#Ubuntu-79" x="137.799988"/>
     </g>
    </g>
    <g id="line2d_42">
     <defs>
      <path id="m78e4863b45" d="M 0 1.5 
C 0.397805 1.5 0.77937 1.341951 1.06066 1.06066 
C 1.341951 0.77937 1.5 0.397805 1.5 0 
C 1.5 -0.397805 1.341951 -0.77937 1.06066 -1.06066 
C 0.77937 -1.341951 0.397805 -1.5 0 -1.5 
C -0.397805 -1.5 -0.77937 -1.341951 -1.06066 -1.06066 
C -1.341951 -0.77937 -1.5 -0.397805 -1.5 0 
C -1.5 0.397805 -1.341951 0.77937 -1.06066 1.06066 
C -0.77937 1.341951 -0.397805 1.5 0 1.5 
z
" style="stroke: #4e9a73"/>
     </defs>
     <g>
      <use xlink:href="#m78e4863b45" x="226.440937" y="13.8075" style="fill: #4e9a73; stroke: #4e9a73"/>
     </g>
    </g>
    <g id="text_33">
     <!-- June -->
     <g style="fill: #4b4b4b" transform="translate(234.440937 16.6075) scale(0.08 -0.08)">
      <use xlink:href="#Ubuntu-4a"/>
      <use xlink:href="#Ubuntu-75" x="49.999985"/>
      <use xlink:href="#Ubuntu-6e" x="107.399979"/>
      <use xlink:href="#Ubuntu-65" x="164.799973"/>
     </g>
    </g>
    <g id="line2d_43">
     <defs>
      <path id="m2cfe81ffd3" d="M 0 1.5 
C 0.397805 1.5 0.77937 1.341951 1.06066 1.06066 
C 1.341951 0.77937 1.5 0.397805 1.5 0 
C 1.5 -0.397805 1.341951 -0.77937 1.06066 -1.06066 
C 0.77937 -1.341951 0.397805 -1.5 0 -1.5 
C -0.397805 -1.5 -0.77937 -1.341951 -1.06066 -1.06066 
C -1.341951 -0.77937 -1.5 -0.397805 -1.5 0 
C -1.5 0.397805 -1.341951 0.77937 -1.06066 1.06066 
C -0.77937 1.341951 -0.397805 1.5 0 1.5 
z
" style="stroke: #c3824d"/>
     </defs>
     <g>
      <use xlink:href="#m2cfe81ffd3" x="276.098437" y="13.8075" style="fill: #c3824d; stroke: #c3824d"/>
     </g>
    </g>
    <g id="text_34">
     <!-- July -->
     <g style="fill: #4b4b4b" transform="translate(284.098437 16.6075) scale(0.08 -0.08)">
      <use xlink:href="#Ubuntu-4a"/>
      <use xlink:href="#Ubuntu-75" x="49.999985"/>
      <use xlink:href="#Ubuntu-6c" x="107.399979"/>
      <use xlink:href="#Ubuntu-79" x="134.699966"/>
     </g>
    </g>
   </g>
  </g>
 </g>
 <defs>
  <clipPath id="pceebe5ecc0">
   <rect x="60.410938" y="163.91125" width="446.4" height="0"/>
  </clipPath>
  <clipPath id="pd3cc6173e6">
   <rect x="60.410938" y="25.31125" width="446.4" height="138.6"/>
  </clipPath>
 </defs>
</svg>
