<?xml version="1.0" encoding="utf-8" standalone="no"?>
<!DOCTYPE svg PUBLIC "-//W3C//DTD SVG 1.1//EN"
  "http://www.w3.org/Graphics/SVG/1.1/DTD/svg11.dtd">
<svg xmlns:xlink="http://www.w3.org/1999/xlink" width="514.010937pt" height="209.8225pt" viewBox="0 0 514.010937 209.8225" xmlns="http://www.w3.org/2000/svg" version="1.1">
 <metadata>
  <rdf:RDF xmlns:dc="http://purl.org/dc/elements/1.1/" xmlns:cc="http://creativecommons.org/ns#" xmlns:rdf="http://www.w3.org/1999/02/22-rdf-syntax-ns#">
   <cc:Work>
    <dc:type rdf:resource="http://purl.org/dc/dcmitype/StillImage"/>
    <dc:date>2024-04-15T13:12:14.063648</dc:date>
    <dc:format>image/svg+xml</dc:format>
    <dc:creator>
     <cc:Agent>
      <dc:title>Matplotlib v3.8.3, https://matplotlib.org/</dc:title>
     </cc:Agent>
    </dc:creator>
   </cc:Work>
  </rdf:RDF>
 </metadata>
 <defs>
  <style type="text/css">*{stroke-linejoin: round; stroke-linecap: butt}</style>
 </defs>
 <g id="figure_1">
  <g id="patch_1">
   <path d="M 0 209.8225 
L 514.010937 209.8225 
L 514.010937 0 
L 0 0 
L 0 209.8225 
z
" style="fill: none"/>
  </g>
  <g id="axes_1">
   <g id="patch_2">
    <path d="M 60.410938 163.91125 
L 506.810937 163.91125 
L 506.810937 25.31125 
L 60.410938 25.31125 
L 60.410938 163.91125 
z
" style="fill: none"/>
   </g>
   <g id="axes_2">
    <g id="patch_3">
     <path d="M 60.410938 163.91125 
L 506.810937 163.91125 
L 506.810937 163.91125 
L 60.410938 163.91125 
L 60.410938 163.91125 
z
" style="fill: none"/>
    </g>
    <g id="matplotlib.axis_1">
     <g id="xtick_1">
      <g id="line2d_1">
       <path d="M 93.825602 163.91125 
L 93.825602 163.91125 
" clip-path="url(#pdd2c8cc85e)" style="fill: none; stroke-dasharray: 0.5,0.825; stroke-dashoffset: 0; stroke: #d9d9d9; stroke-width: 0.5"/>
      </g>
      <g id="text_1">
       <!-- January -->
       <g style="fill: #808080" transform="translate(79.439977 201.095) scale(0.08 -0.08)">
        <defs>
         <path id="Ubuntu-4a" d="M 2682 1427 
Q 2682 1107 2614 832 
Q 2547 557 2377 349 
Q 2208 141 1923 22 
Q 1638 -96 1210 -96 
Q 992 -96 809 -61 
Q 627 -26 480 28 
Q 333 83 224 144 
Q 115 205 51 262 
L 294 755 
Q 429 659 643 553 
Q 858 448 1178 448 
Q 1638 448 1849 681 
Q 2061 915 2061 1485 
L 2061 4435 
L 2682 4435 
L 2682 1427 
z
" transform="scale(0.015625)"/>
         <path id="Ubuntu-61" d="M 1638 429 
Q 1850 429 2013 438 
Q 2176 448 2285 474 
L 2285 1466 
Q 2221 1498 2077 1520 
Q 1933 1542 1728 1542 
Q 1594 1542 1443 1523 
Q 1293 1504 1168 1443 
Q 1043 1382 960 1276 
Q 877 1171 877 998 
Q 877 678 1081 553 
Q 1286 429 1638 429 
z
M 1587 3411 
Q 1946 3411 2192 3318 
Q 2438 3226 2588 3056 
Q 2739 2886 2803 2652 
Q 2867 2419 2867 2138 
L 2867 58 
Q 2790 45 2652 22 
Q 2515 0 2342 -19 
Q 2170 -38 1968 -54 
Q 1766 -70 1568 -70 
Q 1286 -70 1049 -12 
Q 813 45 640 169 
Q 467 294 371 499 
Q 275 704 275 992 
Q 275 1267 387 1465 
Q 499 1664 691 1785 
Q 883 1907 1139 1964 
Q 1395 2022 1677 2022 
Q 1766 2022 1862 2012 
Q 1958 2003 2044 1987 
Q 2131 1971 2195 1958 
Q 2259 1946 2285 1939 
L 2285 2106 
Q 2285 2253 2253 2397 
Q 2221 2541 2137 2653 
Q 2054 2765 1910 2832 
Q 1766 2899 1536 2899 
Q 1242 2899 1021 2857 
Q 800 2816 691 2771 
L 621 3264 
Q 736 3315 1005 3363 
Q 1274 3411 1587 3411 
z
" transform="scale(0.015625)"/>
         <path id="Ubuntu-6e" d="M 512 3232 
Q 717 3283 1056 3340 
Q 1395 3398 1837 3398 
Q 2234 3398 2496 3286 
Q 2758 3174 2915 2972 
Q 3072 2771 3136 2489 
Q 3200 2208 3200 1869 
L 3200 0 
L 2605 0 
L 2605 1741 
Q 2605 2048 2563 2265 
Q 2522 2483 2426 2617 
Q 2330 2752 2170 2813 
Q 2010 2874 1773 2874 
Q 1677 2874 1574 2867 
Q 1472 2861 1379 2851 
Q 1286 2842 1212 2829 
Q 1139 2816 1107 2810 
L 1107 0 
L 512 0 
L 512 3232 
z
" transform="scale(0.015625)"/>
         <path id="Ubuntu-75" d="M 3162 96 
Q 2957 45 2621 -12 
Q 2285 -70 1843 -70 
Q 1459 -70 1196 42 
Q 934 154 774 358 
Q 614 563 544 841 
Q 474 1120 474 1459 
L 474 3328 
L 1069 3328 
L 1069 1587 
Q 1069 979 1261 716 
Q 1453 454 1907 454 
Q 2003 454 2105 460 
Q 2208 467 2297 476 
Q 2387 486 2460 496 
Q 2534 506 2566 518 
L 2566 3328 
L 3162 3328 
L 3162 96 
z
" transform="scale(0.015625)"/>
         <path id="Ubuntu-72" d="M 1741 3398 
Q 1818 3398 1917 3388 
Q 2016 3379 2112 3363 
Q 2208 3347 2288 3331 
Q 2368 3315 2406 3302 
L 2304 2784 
Q 2234 2810 2070 2845 
Q 1907 2880 1651 2880 
Q 1485 2880 1321 2845 
Q 1158 2810 1107 2797 
L 1107 0 
L 512 0 
L 512 3187 
Q 723 3264 1036 3331 
Q 1350 3398 1741 3398 
z
" transform="scale(0.015625)"/>
         <path id="Ubuntu-79" d="M 122 -621 
Q 192 -653 304 -681 
Q 416 -710 525 -710 
Q 877 -710 1075 -553 
Q 1274 -397 1434 -45 
Q 1030 723 681 1584 
Q 333 2445 102 3328 
L 742 3328 
Q 813 3040 912 2707 
Q 1011 2374 1132 2022 
Q 1254 1670 1395 1318 
Q 1536 966 1690 640 
Q 1933 1312 2112 1971 
Q 2291 2630 2451 3328 
L 3066 3328 
Q 2835 2387 2553 1520 
Q 2272 653 1946 -102 
Q 1818 -390 1680 -598 
Q 1542 -806 1376 -940 
Q 1210 -1075 1002 -1139 
Q 794 -1203 531 -1203 
Q 461 -1203 384 -1193 
Q 307 -1184 233 -1168 
Q 160 -1152 99 -1133 
Q 38 -1114 13 -1101 
L 122 -621 
z
" transform="scale(0.015625)"/>
        </defs>
        <use xlink:href="#Ubuntu-4a"/>
        <use xlink:href="#Ubuntu-61" x="49.999985"/>
        <use xlink:href="#Ubuntu-6e" x="102.199982"/>
        <use xlink:href="#Ubuntu-75" x="159.599976"/>
        <use xlink:href="#Ubuntu-61" x="216.999969"/>
        <use xlink:href="#Ubuntu-72" x="269.199966"/>
        <use xlink:href="#Ubuntu-79" x="309.924957"/>
       </g>
      </g>
     </g>
     <g id="xtick_2">
      <g id="line2d_2">
       <path d="M 158.124459 163.91125 
L 158.124459 163.91125 
" clip-path="url(#pdd2c8cc85e)" style="fill: none; stroke-dasharray: 0.5,0.825; stroke-dashoffset: 0; stroke: #d9d9d9; stroke-width: 0.5"/>
      </g>
      <g id="text_2">
       <!-- February -->
       <g style="fill: #808080" transform="translate(141.893834 201.11875) scale(0.08 -0.08)">
        <defs>
         <path id="Ubuntu-46" d="M 550 0 
L 550 4435 
L 3226 4435 
L 3226 3904 
L 1171 3904 
L 1171 2566 
L 2995 2566 
L 2995 2042 
L 1171 2042 
L 1171 0 
L 550 0 
z
" transform="scale(0.015625)"/>
         <path id="Ubuntu-65" d="M 326 1658 
Q 326 2099 454 2428 
Q 582 2758 793 2976 
Q 1005 3194 1280 3302 
Q 1555 3411 1843 3411 
Q 2515 3411 2873 2992 
Q 3232 2573 3232 1715 
Q 3232 1677 3232 1616 
Q 3232 1555 3226 1504 
L 947 1504 
Q 986 986 1248 717 
Q 1510 448 2067 448 
Q 2381 448 2595 502 
Q 2810 557 2918 608 
L 3002 109 
Q 2893 51 2621 -13 
Q 2349 -77 2003 -77 
Q 1568 -77 1251 54 
Q 934 186 729 416 
Q 525 646 425 963 
Q 326 1280 326 1658 
z
M 2611 1984 
Q 2618 2387 2410 2646 
Q 2202 2906 1837 2906 
Q 1632 2906 1475 2826 
Q 1318 2746 1209 2618 
Q 1101 2490 1040 2323 
Q 979 2157 960 1984 
L 2611 1984 
z
" transform="scale(0.015625)"/>
         <path id="Ubuntu-62" d="M 1107 3181 
Q 1216 3251 1437 3328 
Q 1658 3405 1946 3405 
Q 2304 3405 2582 3277 
Q 2861 3149 3053 2918 
Q 3245 2688 3344 2368 
Q 3443 2048 3443 1664 
Q 3443 1261 3324 937 
Q 3206 614 2988 390 
Q 2771 166 2464 44 
Q 2157 -77 1773 -77 
Q 1357 -77 1037 -19 
Q 717 38 512 96 
L 512 4864 
L 1107 4966 
L 1107 3181 
z
M 1107 518 
Q 1197 493 1360 470 
Q 1523 448 1766 448 
Q 2246 448 2534 765 
Q 2822 1082 2822 1664 
Q 2822 1920 2771 2144 
Q 2720 2368 2605 2531 
Q 2490 2694 2307 2787 
Q 2125 2880 1869 2880 
Q 1626 2880 1421 2797 
Q 1216 2714 1107 2624 
L 1107 518 
z
" transform="scale(0.015625)"/>
        </defs>
        <use xlink:href="#Ubuntu-46"/>
        <use xlink:href="#Ubuntu-65" x="52.324997"/>
        <use xlink:href="#Ubuntu-62" x="108.224991"/>
        <use xlink:href="#Ubuntu-72" x="167.124985"/>
        <use xlink:href="#Ubuntu-75" x="205.724976"/>
        <use xlink:href="#Ubuntu-61" x="263.124969"/>
        <use xlink:href="#Ubuntu-72" x="315.324966"/>
        <use xlink:href="#Ubuntu-79" x="356.049957"/>
       </g>
      </g>
     </g>
     <g id="xtick_3">
      <g id="line2d_3">
       <path d="M 216.200846 163.91125 
L 216.200846 163.91125 
" clip-path="url(#pdd2c8cc85e)" style="fill: none; stroke-dasharray: 0.5,0.825; stroke-dashoffset: 0; stroke: #d9d9d9; stroke-width: 0.5"/>
      </g>
      <g id="text_3">
       <!-- March -->
       <g style="fill: #808080" transform="translate(204.941471 201.11875) scale(0.08 -0.08)">
        <defs>
         <path id="Ubuntu-4d" d="M 2541 614 
Q 2477 768 2371 1005 
Q 2266 1242 2144 1517 
Q 2022 1792 1884 2083 
Q 1747 2374 1625 2633 
Q 1504 2893 1398 3097 
Q 1293 3302 1229 3411 
Q 1158 2656 1113 1776 
Q 1069 896 1037 0 
L 429 0 
Q 454 576 486 1161 
Q 518 1747 560 2313 
Q 602 2880 650 3417 
Q 698 3955 755 4435 
L 1299 4435 
Q 1472 4154 1670 3770 
Q 1869 3386 2067 2966 
Q 2266 2547 2451 2128 
Q 2637 1709 2790 1363 
Q 2944 1709 3129 2128 
Q 3315 2547 3513 2966 
Q 3712 3386 3910 3770 
Q 4109 4154 4282 4435 
L 4826 4435 
Q 5043 2291 5152 0 
L 4544 0 
Q 4512 896 4467 1776 
Q 4422 2656 4352 3411 
Q 4288 3302 4182 3097 
Q 4077 2893 3955 2633 
Q 3834 2374 3696 2083 
Q 3558 1792 3436 1517 
Q 3315 1242 3209 1005 
Q 3104 768 3040 614 
L 2541 614 
z
" transform="scale(0.015625)"/>
         <path id="Ubuntu-63" d="M 1958 -77 
Q 1555 -77 1251 51 
Q 947 179 739 409 
Q 531 640 428 957 
Q 326 1274 326 1658 
Q 326 2042 438 2362 
Q 550 2682 755 2915 
Q 960 3149 1257 3280 
Q 1555 3411 1920 3411 
Q 2144 3411 2368 3372 
Q 2592 3334 2797 3251 
L 2662 2746 
Q 2528 2810 2352 2848 
Q 2176 2886 1978 2886 
Q 1478 2886 1212 2572 
Q 947 2259 947 1658 
Q 947 1389 1008 1165 
Q 1069 941 1200 781 
Q 1331 621 1536 534 
Q 1741 448 2035 448 
Q 2272 448 2464 493 
Q 2656 538 2765 589 
L 2848 90 
Q 2797 58 2701 29 
Q 2605 0 2483 -22 
Q 2362 -45 2224 -61 
Q 2086 -77 1958 -77 
z
" transform="scale(0.015625)"/>
         <path id="Ubuntu-68" d="M 512 0 
L 512 4864 
L 1107 4966 
L 1107 3264 
Q 1274 3328 1462 3363 
Q 1651 3398 1837 3398 
Q 2234 3398 2496 3286 
Q 2758 3174 2915 2972 
Q 3072 2771 3136 2489 
Q 3200 2208 3200 1869 
L 3200 0 
L 2605 0 
L 2605 1741 
Q 2605 2048 2563 2265 
Q 2522 2483 2426 2617 
Q 2330 2752 2170 2813 
Q 2010 2874 1773 2874 
Q 1677 2874 1574 2861 
Q 1472 2848 1379 2832 
Q 1286 2816 1212 2797 
Q 1139 2778 1107 2765 
L 1107 0 
L 512 0 
z
" transform="scale(0.015625)"/>
        </defs>
        <use xlink:href="#Ubuntu-4d"/>
        <use xlink:href="#Ubuntu-61" x="87.099991"/>
        <use xlink:href="#Ubuntu-72" x="139.299988"/>
        <use xlink:href="#Ubuntu-63" x="177.899979"/>
        <use xlink:href="#Ubuntu-68" x="224.399963"/>
       </g>
      </g>
     </g>
     <g id="xtick_4">
      <g id="line2d_4">
       <path d="M 280.499702 163.91125 
L 280.499702 163.91125 
" clip-path="url(#pdd2c8cc85e)" style="fill: none; stroke-dasharray: 0.5,0.825; stroke-dashoffset: 0; stroke: #d9d9d9; stroke-width: 0.5"/>
      </g>
      <g id="text_4">
       <!-- April -->
       <g style="fill: #808080" transform="translate(271.844077 201.11875) scale(0.08 -0.08)">
        <defs>
         <path id="Ubuntu-41" d="M 3514 0 
Q 3405 288 3309 566 
Q 3213 845 3110 1133 
L 1101 1133 
L 698 0 
L 51 0 
Q 307 704 531 1302 
Q 755 1901 969 2438 
Q 1184 2976 1395 3465 
Q 1606 3955 1837 4435 
L 2406 4435 
Q 2637 3955 2848 3465 
Q 3059 2976 3273 2438 
Q 3488 1901 3712 1302 
Q 3936 704 4192 0 
L 3514 0 
z
M 2931 1645 
Q 2726 2202 2524 2723 
Q 2323 3245 2106 3725 
Q 1882 3245 1680 2723 
Q 1478 2202 1280 1645 
L 2931 1645 
z
" transform="scale(0.015625)"/>
         <path id="Ubuntu-70" d="M 2822 1658 
Q 2822 2240 2534 2553 
Q 2246 2867 1766 2867 
Q 1498 2867 1347 2848 
Q 1197 2829 1107 2803 
L 1107 704 
Q 1216 614 1421 531 
Q 1626 448 1869 448 
Q 2125 448 2307 541 
Q 2490 634 2605 797 
Q 2720 960 2771 1181 
Q 2822 1402 2822 1658 
z
M 3443 1658 
Q 3443 1280 3344 960 
Q 3245 640 3053 409 
Q 2861 179 2582 51 
Q 2304 -77 1946 -77 
Q 1658 -77 1437 0 
Q 1216 77 1107 147 
L 1107 -1184 
L 512 -1184 
L 512 3226 
Q 723 3277 1040 3337 
Q 1357 3398 1773 3398 
Q 2157 3398 2464 3276 
Q 2771 3155 2988 2931 
Q 3206 2707 3324 2384 
Q 3443 2061 3443 1658 
z
" transform="scale(0.015625)"/>
         <path id="Ubuntu-69" d="M 1107 0 
L 512 0 
L 512 3328 
L 1107 3328 
L 1107 0 
z
M 806 3930 
Q 646 3930 534 4035 
Q 422 4141 422 4320 
Q 422 4499 534 4604 
Q 646 4710 806 4710 
Q 966 4710 1078 4604 
Q 1190 4499 1190 4320 
Q 1190 4141 1078 4035 
Q 966 3930 806 3930 
z
" transform="scale(0.015625)"/>
         <path id="Ubuntu-6c" d="M 1510 -64 
Q 960 -51 729 173 
Q 499 397 499 870 
L 499 4864 
L 1094 4966 
L 1094 966 
Q 1094 819 1120 723 
Q 1146 627 1203 569 
Q 1261 512 1357 483 
Q 1453 454 1594 435 
L 1510 -64 
z
" transform="scale(0.015625)"/>
        </defs>
        <use xlink:href="#Ubuntu-41"/>
        <use xlink:href="#Ubuntu-70" x="66.299988"/>
        <use xlink:href="#Ubuntu-72" x="125.199982"/>
        <use xlink:href="#Ubuntu-69" x="163.799973"/>
        <use xlink:href="#Ubuntu-6c" x="189.09996"/>
       </g>
      </g>
     </g>
     <g id="xtick_5">
      <g id="line2d_5">
       <path d="M 342.724403 163.91125 
L 342.724403 163.91125 
" clip-path="url(#pdd2c8cc85e)" style="fill: none; stroke-dasharray: 0.5,0.825; stroke-dashoffset: 0; stroke: #d9d9d9; stroke-width: 0.5"/>
      </g>
      <g id="text_5">
       <!-- May -->
       <g style="fill: #808080" transform="translate(335.224403 201.095) scale(0.08 -0.08)">
        <use xlink:href="#Ubuntu-4d"/>
        <use xlink:href="#Ubuntu-61" x="87.099991"/>
        <use xlink:href="#Ubuntu-79" x="137.799988"/>
       </g>
      </g>
     </g>
     <g id="xtick_6">
      <g id="line2d_6">
       <path d="M 407.02326 163.91125 
L 407.02326 163.91125 
" clip-path="url(#pdd2c8cc85e)" style="fill: none; stroke-dasharray: 0.5,0.825; stroke-dashoffset: 0; stroke: #d9d9d9; stroke-width: 0.5"/>
      </g>
      <g id="text_6">
       <!-- June -->
       <g style="fill: #808080" transform="translate(398.19451 201.11875) scale(0.08 -0.08)">
        <use xlink:href="#Ubuntu-4a"/>
        <use xlink:href="#Ubuntu-75" x="49.999985"/>
        <use xlink:href="#Ubuntu-6e" x="107.399979"/>
        <use xlink:href="#Ubuntu-65" x="164.799973"/>
       </g>
      </g>
     </g>
     <g id="xtick_7">
      <g id="line2d_7">
       <path d="M 469.24796 163.91125 
L 469.24796 163.91125 
" clip-path="url(#pdd2c8cc85e)" style="fill: none; stroke-dasharray: 0.5,0.825; stroke-dashoffset: 0; stroke: #d9d9d9; stroke-width: 0.5"/>
      </g>
      <g id="text_7">
       <!-- July -->
       <g style="fill: #808080" transform="translate(461.87171 201.11875) scale(0.08 -0.08)">
        <use xlink:href="#Ubuntu-4a"/>
        <use xlink:href="#Ubuntu-75" x="49.999985"/>
        <use xlink:href="#Ubuntu-6c" x="107.399979"/>
        <use xlink:href="#Ubuntu-79" x="134.699966"/>
       </g>
      </g>
     </g>
    </g>
    <g id="matplotlib.axis_2"/>
   </g>
   <g id="matplotlib.axis_3">
    <g id="xtick_8">
     <g id="line2d_8">
      <defs>
       <path id="m6ad616ced8" d="M 0 0 
L 0 3 
" style="stroke: #acb3ba; stroke-width: 0.75"/>
      </defs>
      <g>
       <use xlink:href="#m6ad616ced8" x="64.787408" y="173.91125" style="fill: #acb3ba; stroke: #acb3ba; stroke-width: 0.75"/>
      </g>
     </g>
     <g id="text_8">
      <!-- 01 -->
      <g style="fill: #899199" transform="translate(60.274908 189.11875) scale(0.08 -0.08)">
       <defs>
        <path id="Ubuntu-30" d="M 320 2221 
Q 320 3334 713 3936 
Q 1107 4538 1805 4538 
Q 2502 4538 2896 3936 
Q 3290 3334 3290 2221 
Q 3290 1107 2896 505 
Q 2502 -96 1805 -96 
Q 1107 -96 713 505 
Q 320 1107 320 2221 
z
M 2662 2221 
Q 2662 2586 2620 2912 
Q 2579 3238 2480 3481 
Q 2381 3725 2214 3869 
Q 2048 4013 1805 4013 
Q 1562 4013 1395 3869 
Q 1229 3725 1129 3481 
Q 1030 3238 988 2912 
Q 947 2586 947 2221 
Q 947 1856 988 1529 
Q 1030 1203 1129 960 
Q 1229 717 1395 573 
Q 1562 429 1805 429 
Q 2048 429 2214 573 
Q 2381 717 2480 960 
Q 2579 1203 2620 1529 
Q 2662 1856 2662 2221 
z
" transform="scale(0.015625)"/>
        <path id="Ubuntu-31" d="M 595 3520 
Q 960 3661 1305 3881 
Q 1651 4102 1939 4435 
L 2362 4435 
L 2362 0 
L 1766 0 
L 1766 3610 
Q 1690 3539 1578 3462 
Q 1466 3386 1334 3315 
Q 1203 3245 1059 3181 
Q 915 3117 781 3072 
L 595 3520 
z
" transform="scale(0.015625)"/>
       </defs>
       <use xlink:href="#Ubuntu-30"/>
       <use xlink:href="#Ubuntu-31" x="56.399994"/>
      </g>
     </g>
    </g>
    <g id="xtick_9">
     <g id="line2d_9">
      <g>
       <use xlink:href="#m6ad616ced8" x="79.306505" y="173.91125" style="fill: #acb3ba; stroke: #acb3ba; stroke-width: 0.75"/>
      </g>
     </g>
     <g id="text_9">
      <!-- 08 -->
      <g style="fill: #899199" transform="translate(74.794005 189.11875) scale(0.08 -0.08)">
       <defs>
        <path id="Ubuntu-38" d="M 3258 1152 
Q 3258 883 3165 656 
Q 3072 429 2889 259 
Q 2707 90 2432 -3 
Q 2157 -96 1798 -96 
Q 1382 -96 1104 22 
Q 826 141 659 320 
Q 493 499 422 713 
Q 352 928 352 1120 
Q 352 1306 413 1475 
Q 474 1645 573 1792 
Q 672 1939 803 2057 
Q 934 2176 1082 2266 
Q 454 2624 454 3322 
Q 454 3565 550 3785 
Q 646 4006 822 4172 
Q 998 4339 1248 4438 
Q 1498 4538 1805 4538 
Q 2163 4538 2419 4429 
Q 2675 4320 2838 4150 
Q 3002 3981 3075 3776 
Q 3149 3571 3149 3379 
Q 3149 3194 3094 3030 
Q 3040 2867 2947 2726 
Q 2854 2586 2736 2477 
Q 2618 2368 2490 2285 
Q 3245 1926 3258 1152 
z
M 954 1114 
Q 954 998 995 873 
Q 1037 749 1139 643 
Q 1242 538 1402 467 
Q 1562 397 1805 397 
Q 2022 397 2185 461 
Q 2349 525 2451 624 
Q 2554 723 2605 851 
Q 2656 979 2656 1114 
Q 2656 1318 2579 1472 
Q 2502 1626 2358 1741 
Q 2214 1856 2012 1936 
Q 1811 2016 1555 2074 
Q 1267 1914 1110 1677 
Q 954 1440 954 1114 
z
M 2554 3386 
Q 2554 3482 2512 3597 
Q 2470 3712 2380 3811 
Q 2291 3910 2150 3977 
Q 2010 4045 1805 4045 
Q 1600 4045 1456 3981 
Q 1312 3917 1222 3817 
Q 1133 3718 1091 3600 
Q 1050 3482 1050 3366 
Q 1050 3226 1101 3085 
Q 1152 2944 1261 2822 
Q 1370 2701 1546 2605 
Q 1722 2509 1965 2451 
Q 2234 2611 2394 2825 
Q 2554 3040 2554 3386 
z
" transform="scale(0.015625)"/>
       </defs>
       <use xlink:href="#Ubuntu-30"/>
       <use xlink:href="#Ubuntu-38" x="56.399994"/>
      </g>
     </g>
    </g>
    <g id="xtick_10">
     <g id="line2d_10">
      <g>
       <use xlink:href="#m6ad616ced8" x="93.825602" y="173.91125" style="fill: #acb3ba; stroke: #acb3ba; stroke-width: 0.75"/>
      </g>
     </g>
     <g id="text_10">
      <!-- 15 -->
      <g style="fill: #899199" transform="translate(89.313102 189.11875) scale(0.08 -0.08)">
       <defs>
        <path id="Ubuntu-35" d="M 1274 2726 
Q 2240 2688 2691 2304 
Q 3142 1920 3142 1261 
Q 3142 966 3043 716 
Q 2944 467 2742 288 
Q 2541 109 2233 6 
Q 1926 -96 1504 -96 
Q 1338 -96 1165 -70 
Q 992 -45 845 -6 
Q 698 32 582 70 
Q 467 109 416 134 
L 531 653 
Q 640 602 886 518 
Q 1133 435 1491 435 
Q 1779 435 1974 499 
Q 2170 563 2291 672 
Q 2413 781 2467 925 
Q 2522 1069 2522 1229 
Q 2522 1472 2438 1661 
Q 2355 1850 2144 1978 
Q 1933 2106 1581 2173 
Q 1229 2240 691 2240 
Q 730 2554 752 2829 
Q 774 3104 793 3366 
Q 813 3629 825 3888 
Q 838 4147 851 4435 
L 2989 4435 
L 2989 3930 
L 1370 3930 
Q 1363 3834 1350 3670 
Q 1338 3507 1325 3331 
Q 1312 3155 1299 2988 
Q 1286 2822 1274 2726 
z
" transform="scale(0.015625)"/>
       </defs>
       <use xlink:href="#Ubuntu-31"/>
       <use xlink:href="#Ubuntu-35" x="56.399994"/>
      </g>
     </g>
    </g>
    <g id="xtick_11">
     <g id="line2d_11">
      <g>
       <use xlink:href="#m6ad616ced8" x="108.344698" y="173.91125" style="fill: #acb3ba; stroke: #acb3ba; stroke-width: 0.75"/>
      </g>
     </g>
     <g id="text_11">
      <!-- 22 -->
      <g style="fill: #899199" transform="translate(103.832198 189.11875) scale(0.08 -0.08)">
       <defs>
        <path id="Ubuntu-32" d="M 2989 3302 
Q 2989 3072 2896 2857 
Q 2803 2643 2649 2435 
Q 2496 2227 2304 2025 
Q 2112 1824 1920 1632 
Q 1811 1523 1667 1376 
Q 1523 1229 1395 1069 
Q 1267 909 1180 761 
Q 1094 614 1094 506 
L 3136 506 
L 3136 0 
L 448 0 
Q 442 38 442 76 
Q 442 115 442 147 
Q 442 448 541 707 
Q 640 966 800 1196 
Q 960 1427 1158 1632 
Q 1357 1837 1549 2029 
Q 1709 2182 1853 2332 
Q 1997 2483 2109 2633 
Q 2221 2784 2288 2944 
Q 2355 3104 2355 3283 
Q 2355 3475 2294 3609 
Q 2234 3744 2131 3833 
Q 2029 3923 1891 3964 
Q 1754 4006 1600 4006 
Q 1414 4006 1260 3955 
Q 1107 3904 985 3837 
Q 864 3770 781 3696 
Q 698 3622 653 3584 
L 358 4006 
Q 416 4070 531 4163 
Q 646 4256 806 4339 
Q 966 4422 1164 4480 
Q 1363 4538 1594 4538 
Q 2291 4538 2640 4214 
Q 2989 3891 2989 3302 
z
" transform="scale(0.015625)"/>
       </defs>
       <use xlink:href="#Ubuntu-32"/>
       <use xlink:href="#Ubuntu-32" x="56.399994"/>
      </g>
     </g>
    </g>
    <g id="xtick_12">
     <g id="line2d_12">
      <g>
       <use xlink:href="#m6ad616ced8" x="122.863795" y="173.91125" style="fill: #acb3ba; stroke: #acb3ba; stroke-width: 0.75"/>
      </g>
     </g>
     <g id="text_12">
      <!-- 29 -->
      <g style="fill: #899199" transform="translate(118.351295 189.11875) scale(0.08 -0.08)">
       <defs>
        <path id="Ubuntu-39" d="M 3206 2662 
Q 3206 1344 2550 669 
Q 1894 -6 602 -13 
L 582 486 
Q 986 486 1309 563 
Q 1632 640 1875 809 
Q 2118 979 2281 1248 
Q 2445 1517 2522 1907 
Q 2355 1830 2144 1782 
Q 1933 1734 1709 1734 
Q 1331 1734 1068 1846 
Q 806 1958 640 2147 
Q 474 2336 400 2582 
Q 326 2829 326 3098 
Q 326 3334 409 3590 
Q 493 3846 662 4057 
Q 832 4269 1094 4403 
Q 1357 4538 1715 4538 
Q 2080 4538 2358 4410 
Q 2637 4282 2825 4038 
Q 3014 3795 3110 3446 
Q 3206 3098 3206 2662 
z
M 1773 2221 
Q 1997 2221 2195 2262 
Q 2394 2304 2579 2387 
Q 2586 2458 2586 2525 
Q 2586 2592 2586 2662 
Q 2586 2938 2547 3190 
Q 2509 3443 2409 3632 
Q 2310 3821 2144 3933 
Q 1978 4045 1722 4045 
Q 1510 4045 1363 3955 
Q 1216 3866 1120 3728 
Q 1024 3590 982 3427 
Q 941 3264 941 3110 
Q 941 2675 1149 2448 
Q 1357 2221 1773 2221 
z
" transform="scale(0.015625)"/>
       </defs>
       <use xlink:href="#Ubuntu-32"/>
       <use xlink:href="#Ubuntu-39" x="56.399994"/>
      </g>
     </g>
    </g>
    <g id="xtick_13">
     <g id="line2d_13">
      <g>
       <use xlink:href="#m6ad616ced8" x="137.382892" y="173.91125" style="fill: #acb3ba; stroke: #acb3ba; stroke-width: 0.75"/>
      </g>
     </g>
     <g id="text_13">
      <!-- 05 -->
      <g style="fill: #899199" transform="translate(132.870392 189.11875) scale(0.08 -0.08)">
       <use xlink:href="#Ubuntu-30"/>
       <use xlink:href="#Ubuntu-35" x="56.399994"/>
      </g>
     </g>
    </g>
    <g id="xtick_14">
     <g id="line2d_14">
      <g>
       <use xlink:href="#m6ad616ced8" x="151.901989" y="173.91125" style="fill: #acb3ba; stroke: #acb3ba; stroke-width: 0.75"/>
      </g>
     </g>
     <g id="text_14">
      <!-- 12 -->
      <g style="fill: #899199" transform="translate(147.389489 189.11875) scale(0.08 -0.08)">
       <use xlink:href="#Ubuntu-31"/>
       <use xlink:href="#Ubuntu-32" x="56.399994"/>
      </g>
     </g>
    </g>
    <g id="xtick_15">
     <g id="line2d_15">
      <g>
       <use xlink:href="#m6ad616ced8" x="166.421085" y="173.91125" style="fill: #acb3ba; stroke: #acb3ba; stroke-width: 0.75"/>
      </g>
     </g>
     <g id="text_15">
      <!-- 19 -->
      <g style="fill: #899199" transform="translate(161.908585 189.11875) scale(0.08 -0.08)">
       <use xlink:href="#Ubuntu-31"/>
       <use xlink:href="#Ubuntu-39" x="56.399994"/>
      </g>
     </g>
    </g>
    <g id="xtick_16">
     <g id="line2d_16">
      <g>
       <use xlink:href="#m6ad616ced8" x="180.940182" y="173.91125" style="fill: #acb3ba; stroke: #acb3ba; stroke-width: 0.75"/>
      </g>
     </g>
     <g id="text_16">
      <!-- 26 -->
      <g style="fill: #899199" transform="translate(176.427682 189.11875) scale(0.08 -0.08)">
       <defs>
        <path id="Ubuntu-36" d="M 403 1779 
Q 403 2426 582 2922 
Q 762 3418 1091 3757 
Q 1421 4096 1891 4272 
Q 2362 4448 2950 4454 
L 2995 3955 
Q 2618 3949 2307 3872 
Q 1997 3795 1753 3628 
Q 1510 3462 1344 3196 
Q 1178 2931 1094 2541 
Q 1261 2618 1469 2669 
Q 1677 2720 1901 2720 
Q 2278 2720 2540 2605 
Q 2803 2490 2969 2301 
Q 3136 2112 3209 1865 
Q 3283 1619 3283 1350 
Q 3283 1107 3200 851 
Q 3117 595 2947 384 
Q 2778 173 2515 38 
Q 2253 -96 1894 -96 
Q 1165 -96 784 403 
Q 403 902 403 1779 
z
M 1837 2234 
Q 1613 2234 1421 2192 
Q 1229 2150 1037 2067 
Q 1030 1997 1027 1923 
Q 1024 1850 1024 1779 
Q 1024 1498 1062 1248 
Q 1101 998 1200 809 
Q 1299 621 1465 509 
Q 1632 397 1888 397 
Q 2099 397 2246 486 
Q 2394 576 2490 717 
Q 2586 858 2627 1021 
Q 2669 1184 2669 1338 
Q 2669 1773 2461 2003 
Q 2253 2234 1837 2234 
z
" transform="scale(0.015625)"/>
       </defs>
       <use xlink:href="#Ubuntu-32"/>
       <use xlink:href="#Ubuntu-36" x="56.399994"/>
      </g>
     </g>
    </g>
    <g id="xtick_17">
     <g id="line2d_17">
      <g>
       <use xlink:href="#m6ad616ced8" x="195.459279" y="173.91125" style="fill: #acb3ba; stroke: #acb3ba; stroke-width: 0.75"/>
      </g>
     </g>
     <g id="text_17">
      <!-- 05 -->
      <g style="fill: #899199" transform="translate(190.946779 189.11875) scale(0.08 -0.08)">
       <use xlink:href="#Ubuntu-30"/>
       <use xlink:href="#Ubuntu-35" x="56.399994"/>
      </g>
     </g>
    </g>
    <g id="xtick_18">
     <g id="line2d_18">
      <g>
       <use xlink:href="#m6ad616ced8" x="209.978375" y="173.91125" style="fill: #acb3ba; stroke: #acb3ba; stroke-width: 0.75"/>
      </g>
     </g>
     <g id="text_18">
      <!-- 12 -->
      <g style="fill: #899199" transform="translate(205.465875 189.11875) scale(0.08 -0.08)">
       <use xlink:href="#Ubuntu-31"/>
       <use xlink:href="#Ubuntu-32" x="56.399994"/>
      </g>
     </g>
    </g>
    <g id="xtick_19">
     <g id="line2d_19">
      <g>
       <use xlink:href="#m6ad616ced8" x="224.497472" y="173.91125" style="fill: #acb3ba; stroke: #acb3ba; stroke-width: 0.75"/>
      </g>
     </g>
     <g id="text_19">
      <!-- 19 -->
      <g style="fill: #899199" transform="translate(219.984972 189.11875) scale(0.08 -0.08)">
       <use xlink:href="#Ubuntu-31"/>
       <use xlink:href="#Ubuntu-39" x="56.399994"/>
      </g>
     </g>
    </g>
    <g id="xtick_20">
     <g id="line2d_20">
      <g>
       <use xlink:href="#m6ad616ced8" x="239.016569" y="173.91125" style="fill: #acb3ba; stroke: #acb3ba; stroke-width: 0.75"/>
      </g>
     </g>
     <g id="text_20">
      <!-- 26 -->
      <g style="fill: #899199" transform="translate(234.504069 189.11875) scale(0.08 -0.08)">
       <use xlink:href="#Ubuntu-32"/>
       <use xlink:href="#Ubuntu-36" x="56.399994"/>
      </g>
     </g>
    </g>
    <g id="xtick_21">
     <g id="line2d_21">
      <g>
       <use xlink:href="#m6ad616ced8" x="253.535666" y="173.91125" style="fill: #acb3ba; stroke: #acb3ba; stroke-width: 0.75"/>
      </g>
     </g>
     <g id="text_21">
      <!-- 02 -->
      <g style="fill: #899199" transform="translate(249.023166 189.11875) scale(0.08 -0.08)">
       <use xlink:href="#Ubuntu-30"/>
       <use xlink:href="#Ubuntu-32" x="56.399994"/>
      </g>
     </g>
    </g>
    <g id="xtick_22">
     <g id="line2d_22">
      <g>
       <use xlink:href="#m6ad616ced8" x="268.054762" y="173.91125" style="fill: #acb3ba; stroke: #acb3ba; stroke-width: 0.75"/>
      </g>
     </g>
     <g id="text_22">
      <!-- 09 -->
      <g style="fill: #899199" transform="translate(263.542262 189.11875) scale(0.08 -0.08)">
       <use xlink:href="#Ubuntu-30"/>
       <use xlink:href="#Ubuntu-39" x="56.399994"/>
      </g>
     </g>
    </g>
    <g id="xtick_23">
     <g id="line2d_23">
      <g>
       <use xlink:href="#m6ad616ced8" x="282.573859" y="173.91125" style="fill: #acb3ba; stroke: #acb3ba; stroke-width: 0.75"/>
      </g>
     </g>
     <g id="text_23">
      <!-- 16 -->
      <g style="fill: #899199" transform="translate(278.061359 189.11875) scale(0.08 -0.08)">
       <use xlink:href="#Ubuntu-31"/>
       <use xlink:href="#Ubuntu-36" x="56.399994"/>
      </g>
     </g>
    </g>
    <g id="xtick_24">
     <g id="line2d_24">
      <g>
       <use xlink:href="#m6ad616ced8" x="297.092956" y="173.91125" style="fill: #acb3ba; stroke: #acb3ba; stroke-width: 0.75"/>
      </g>
     </g>
     <g id="text_24">
      <!-- 23 -->
      <g style="fill: #899199" transform="translate(292.580456 189.11875) scale(0.08 -0.08)">
       <defs>
        <path id="Ubuntu-33" d="M 1446 435 
Q 2016 435 2262 659 
Q 2509 883 2509 1261 
Q 2509 1504 2406 1670 
Q 2304 1837 2137 1936 
Q 1971 2035 1750 2076 
Q 1530 2118 1299 2118 
L 1146 2118 
L 1146 2605 
L 1357 2605 
Q 1517 2605 1686 2637 
Q 1856 2669 1997 2752 
Q 2138 2835 2227 2979 
Q 2317 3123 2317 3341 
Q 2317 3520 2253 3648 
Q 2189 3776 2083 3859 
Q 1978 3942 1840 3977 
Q 1702 4013 1549 4013 
Q 1242 4013 1027 3923 
Q 813 3834 666 3738 
L 435 4192 
Q 512 4243 630 4304 
Q 749 4365 896 4416 
Q 1043 4467 1212 4502 
Q 1382 4538 1568 4538 
Q 1920 4538 2176 4451 
Q 2432 4365 2598 4208 
Q 2765 4051 2848 3836 
Q 2931 3622 2931 3373 
Q 2931 3027 2732 2780 
Q 2534 2534 2253 2406 
Q 2426 2355 2586 2259 
Q 2746 2163 2864 2016 
Q 2982 1869 3056 1677 
Q 3130 1485 3130 1248 
Q 3130 960 3030 713 
Q 2931 467 2723 288 
Q 2515 109 2201 6 
Q 1888 -96 1459 -96 
Q 1293 -96 1117 -70 
Q 941 -45 787 -6 
Q 634 32 518 70 
Q 403 109 352 134 
L 467 653 
Q 576 602 829 518 
Q 1082 435 1446 435 
z
" transform="scale(0.015625)"/>
       </defs>
       <use xlink:href="#Ubuntu-32"/>
       <use xlink:href="#Ubuntu-33" x="56.399994"/>
      </g>
     </g>
    </g>
    <g id="xtick_25">
     <g id="line2d_25">
      <g>
       <use xlink:href="#m6ad616ced8" x="311.612053" y="173.91125" style="fill: #acb3ba; stroke: #acb3ba; stroke-width: 0.75"/>
      </g>
     </g>
     <g id="text_25">
      <!-- 30 -->
      <g style="fill: #899199" transform="translate(307.099553 189.11875) scale(0.08 -0.08)">
       <use xlink:href="#Ubuntu-33"/>
       <use xlink:href="#Ubuntu-30" x="56.399994"/>
      </g>
     </g>
    </g>
    <g id="xtick_26">
     <g id="line2d_26">
      <g>
       <use xlink:href="#m6ad616ced8" x="326.131149" y="173.91125" style="fill: #acb3ba; stroke: #acb3ba; stroke-width: 0.75"/>
      </g>
     </g>
     <g id="text_26">
      <!-- 07 -->
      <g style="fill: #899199" transform="translate(321.618649 189.11875) scale(0.08 -0.08)">
       <defs>
        <path id="Ubuntu-37" d="M 1043 0 
Q 1082 512 1226 1078 
Q 1370 1645 1581 2179 
Q 1792 2714 2045 3171 
Q 2298 3629 2541 3917 
L 384 3917 
L 384 4435 
L 3206 4435 
L 3206 3942 
Q 2995 3699 2739 3273 
Q 2483 2848 2256 2320 
Q 2029 1792 1865 1193 
Q 1702 595 1664 0 
L 1043 0 
z
" transform="scale(0.015625)"/>
       </defs>
       <use xlink:href="#Ubuntu-30"/>
       <use xlink:href="#Ubuntu-37" x="56.399994"/>
      </g>
     </g>
    </g>
    <g id="xtick_27">
     <g id="line2d_27">
      <g>
       <use xlink:href="#m6ad616ced8" x="340.650246" y="173.91125" style="fill: #acb3ba; stroke: #acb3ba; stroke-width: 0.75"/>
      </g>
     </g>
     <g id="text_27">
      <!-- 14 -->
      <g style="fill: #899199" transform="translate(336.137746 189.11875) scale(0.08 -0.08)">
       <defs>
        <path id="Ubuntu-34" d="M 256 1536 
Q 378 1818 589 2192 
Q 800 2566 1065 2963 
Q 1331 3360 1635 3744 
Q 1939 4128 2246 4435 
L 2816 4435 
L 2816 1619 
L 3341 1619 
L 3341 1133 
L 2816 1133 
L 2816 0 
L 2240 0 
L 2240 1133 
L 256 1133 
L 256 1536 
z
M 2240 3731 
Q 2048 3526 1853 3273 
Q 1658 3021 1472 2745 
Q 1286 2470 1123 2182 
Q 960 1894 832 1619 
L 2240 1619 
L 2240 3731 
z
" transform="scale(0.015625)"/>
       </defs>
       <use xlink:href="#Ubuntu-31"/>
       <use xlink:href="#Ubuntu-34" x="56.399994"/>
      </g>
     </g>
    </g>
    <g id="xtick_28">
     <g id="line2d_28">
      <g>
       <use xlink:href="#m6ad616ced8" x="355.169343" y="173.91125" style="fill: #acb3ba; stroke: #acb3ba; stroke-width: 0.75"/>
      </g>
     </g>
     <g id="text_28">
      <!-- 21 -->
      <g style="fill: #899199" transform="translate(350.656843 189.11875) scale(0.08 -0.08)">
       <use xlink:href="#Ubuntu-32"/>
       <use xlink:href="#Ubuntu-31" x="56.399994"/>
      </g>
     </g>
    </g>
    <g id="xtick_29">
     <g id="line2d_29">
      <g>
       <use xlink:href="#m6ad616ced8" x="369.68844" y="173.91125" style="fill: #acb3ba; stroke: #acb3ba; stroke-width: 0.75"/>
      </g>
     </g>
     <g id="text_29">
      <!-- 28 -->
      <g style="fill: #899199" transform="translate(365.17594 189.11875) scale(0.08 -0.08)">
       <use xlink:href="#Ubuntu-32"/>
       <use xlink:href="#Ubuntu-38" x="56.399994"/>
      </g>
     </g>
    </g>
    <g id="xtick_30">
     <g id="line2d_30">
      <g>
       <use xlink:href="#m6ad616ced8" x="384.207536" y="173.91125" style="fill: #acb3ba; stroke: #acb3ba; stroke-width: 0.75"/>
      </g>
     </g>
     <g id="text_30">
      <!-- 04 -->
      <g style="fill: #899199" transform="translate(379.695036 189.11875) scale(0.08 -0.08)">
       <use xlink:href="#Ubuntu-30"/>
       <use xlink:href="#Ubuntu-34" x="56.399994"/>
      </g>
     </g>
    </g>
    <g id="xtick_31">
     <g id="line2d_31">
      <g>
       <use xlink:href="#m6ad616ced8" x="398.726633" y="173.91125" style="fill: #acb3ba; stroke: #acb3ba; stroke-width: 0.75"/>
      </g>
     </g>
     <g id="text_31">
      <!-- 11 -->
      <g style="fill: #899199" transform="translate(394.214133 189.11875) scale(0.08 -0.08)">
       <use xlink:href="#Ubuntu-31"/>
       <use xlink:href="#Ubuntu-31" x="56.399994"/>
      </g>
     </g>
    </g>
    <g id="xtick_32">
     <g id="line2d_32">
      <g>
       <use xlink:href="#m6ad616ced8" x="413.24573" y="173.91125" style="fill: #acb3ba; stroke: #acb3ba; stroke-width: 0.75"/>
      </g>
     </g>
     <g id="text_32">
      <!-- 18 -->
      <g style="fill: #899199" transform="translate(408.73323 189.11875) scale(0.08 -0.08)">
       <use xlink:href="#Ubuntu-31"/>
       <use xlink:href="#Ubuntu-38" x="56.399994"/>
      </g>
     </g>
    </g>
    <g id="xtick_33">
     <g id="line2d_33">
      <g>
       <use xlink:href="#m6ad616ced8" x="427.764827" y="173.91125" style="fill: #acb3ba; stroke: #acb3ba; stroke-width: 0.75"/>
      </g>
     </g>
     <g id="text_33">
      <!-- 25 -->
      <g style="fill: #899199" transform="translate(423.252327 189.11875) scale(0.08 -0.08)">
       <use xlink:href="#Ubuntu-32"/>
       <use xlink:href="#Ubuntu-35" x="56.399994"/>
      </g>
     </g>
    </g>
    <g id="xtick_34">
     <g id="line2d_34">
      <g>
       <use xlink:href="#m6ad616ced8" x="442.283923" y="173.91125" style="fill: #acb3ba; stroke: #acb3ba; stroke-width: 0.75"/>
      </g>
     </g>
     <g id="text_34">
      <!-- 02 -->
      <g style="fill: #899199" transform="translate(437.771423 189.11875) scale(0.08 -0.08)">
       <use xlink:href="#Ubuntu-30"/>
       <use xlink:href="#Ubuntu-32" x="56.399994"/>
      </g>
     </g>
    </g>
    <g id="xtick_35">
     <g id="line2d_35">
      <g>
       <use xlink:href="#m6ad616ced8" x="456.80302" y="173.91125" style="fill: #acb3ba; stroke: #acb3ba; stroke-width: 0.75"/>
      </g>
     </g>
     <g id="text_35">
      <!-- 09 -->
      <g style="fill: #899199" transform="translate(452.29052 189.11875) scale(0.08 -0.08)">
       <use xlink:href="#Ubuntu-30"/>
       <use xlink:href="#Ubuntu-39" x="56.399994"/>
      </g>
     </g>
    </g>
    <g id="xtick_36">
     <g id="line2d_36">
      <g>
       <use xlink:href="#m6ad616ced8" x="471.322117" y="173.91125" style="fill: #acb3ba; stroke: #acb3ba; stroke-width: 0.75"/>
      </g>
     </g>
     <g id="text_36">
      <!-- 16 -->
      <g style="fill: #899199" transform="translate(466.809617 189.11875) scale(0.08 -0.08)">
       <use xlink:href="#Ubuntu-31"/>
       <use xlink:href="#Ubuntu-36" x="56.399994"/>
      </g>
     </g>
    </g>
    <g id="xtick_37">
     <g id="line2d_37">
      <g>
       <use xlink:href="#m6ad616ced8" x="485.841213" y="173.91125" style="fill: #acb3ba; stroke: #acb3ba; stroke-width: 0.75"/>
      </g>
     </g>
     <g id="text_37">
      <!-- 23 -->
      <g style="fill: #899199" transform="translate(481.328713 189.11875) scale(0.08 -0.08)">
       <use xlink:href="#Ubuntu-32"/>
       <use xlink:href="#Ubuntu-33" x="56.399994"/>
      </g>
     </g>
    </g>
    <g id="xtick_38">
     <g id="line2d_38">
      <g>
       <use xlink:href="#m6ad616ced8" x="500.36031" y="173.91125" style="fill: #acb3ba; stroke: #acb3ba; stroke-width: 0.75"/>
      </g>
     </g>
     <g id="text_38">
      <!-- 30 -->
      <g style="fill: #899199" transform="translate(495.84781 189.11875) scale(0.08 -0.08)">
       <use xlink:href="#Ubuntu-33"/>
       <use xlink:href="#Ubuntu-30" x="56.399994"/>
      </g>
     </g>
    </g>
   </g>
   <g id="matplotlib.axis_4">
    <g id="ytick_1">
     <g id="line2d_39">
      <defs>
       <path id="m97bfa59355" d="M 0 0 
L -3 0 
" style="stroke: #acb3ba; stroke-width: 0.75"/>
      </defs>
      <g>
       <use xlink:href="#m97bfa59355" x="55.410938" y="163.91125" style="fill: #acb3ba; stroke: #acb3ba; stroke-width: 0.75"/>
      </g>
     </g>
     <g id="text_39">
      <!-- 24000 -->
      <g style="fill: #899199" transform="translate(23.848438 167.015) scale(0.08 -0.08)">
       <use xlink:href="#Ubuntu-32"/>
       <use xlink:href="#Ubuntu-34" x="56.399994"/>
       <use xlink:href="#Ubuntu-30" x="112.799988"/>
       <use xlink:href="#Ubuntu-30" x="169.199982"/>
       <use xlink:href="#Ubuntu-30" x="225.599976"/>
      </g>
     </g>
    </g>
    <g id="ytick_2">
     <g id="line2d_40">
      <g>
       <use xlink:href="#m97bfa59355" x="55.410938" y="148.51125" style="fill: #acb3ba; stroke: #acb3ba; stroke-width: 0.75"/>
      </g>
     </g>
     <g id="text_40">
      <!-- 26000 -->
      <g style="fill: #899199" transform="translate(23.848438 151.615) scale(0.08 -0.08)">
       <use xlink:href="#Ubuntu-32"/>
       <use xlink:href="#Ubuntu-36" x="56.399994"/>
       <use xlink:href="#Ubuntu-30" x="112.799988"/>
       <use xlink:href="#Ubuntu-30" x="169.199982"/>
       <use xlink:href="#Ubuntu-30" x="225.599976"/>
      </g>
     </g>
    </g>
    <g id="ytick_3">
     <g id="line2d_41">
      <g>
       <use xlink:href="#m97bfa59355" x="55.410938" y="133.11125" style="fill: #acb3ba; stroke: #acb3ba; stroke-width: 0.75"/>
      </g>
     </g>
     <g id="text_41">
      <!-- 28000 -->
      <g style="fill: #899199" transform="translate(23.848438 136.215) scale(0.08 -0.08)">
       <use xlink:href="#Ubuntu-32"/>
       <use xlink:href="#Ubuntu-38" x="56.399994"/>
       <use xlink:href="#Ubuntu-30" x="112.799988"/>
       <use xlink:href="#Ubuntu-30" x="169.199982"/>
       <use xlink:href="#Ubuntu-30" x="225.599976"/>
      </g>
     </g>
    </g>
    <g id="ytick_4">
     <g id="line2d_42">
      <g>
       <use xlink:href="#m97bfa59355" x="55.410938" y="117.71125" style="fill: #acb3ba; stroke: #acb3ba; stroke-width: 0.75"/>
      </g>
     </g>
     <g id="text_42">
      <!-- 30000 -->
      <g style="fill: #899199" transform="translate(23.848438 120.815) scale(0.08 -0.08)">
       <use xlink:href="#Ubuntu-33"/>
       <use xlink:href="#Ubuntu-30" x="56.399994"/>
       <use xlink:href="#Ubuntu-30" x="112.799988"/>
       <use xlink:href="#Ubuntu-30" x="169.199982"/>
       <use xlink:href="#Ubuntu-30" x="225.599976"/>
      </g>
     </g>
    </g>
    <g id="ytick_5">
     <g id="line2d_43">
      <g>
       <use xlink:href="#m97bfa59355" x="55.410938" y="102.31125" style="fill: #acb3ba; stroke: #acb3ba; stroke-width: 0.75"/>
      </g>
     </g>
     <g id="text_43">
      <!-- 32000 -->
      <g style="fill: #899199" transform="translate(23.848438 105.415) scale(0.08 -0.08)">
       <use xlink:href="#Ubuntu-33"/>
       <use xlink:href="#Ubuntu-32" x="56.399994"/>
       <use xlink:href="#Ubuntu-30" x="112.799988"/>
       <use xlink:href="#Ubuntu-30" x="169.199982"/>
       <use xlink:href="#Ubuntu-30" x="225.599976"/>
      </g>
     </g>
    </g>
    <g id="ytick_6">
     <g id="line2d_44">
      <g>
       <use xlink:href="#m97bfa59355" x="55.410938" y="86.91125" style="fill: #acb3ba; stroke: #acb3ba; stroke-width: 0.75"/>
      </g>
     </g>
     <g id="text_44">
      <!-- 34000 -->
      <g style="fill: #899199" transform="translate(23.848438 90.015) scale(0.08 -0.08)">
       <use xlink:href="#Ubuntu-33"/>
       <use xlink:href="#Ubuntu-34" x="56.399994"/>
       <use xlink:href="#Ubuntu-30" x="112.799988"/>
       <use xlink:href="#Ubuntu-30" x="169.199982"/>
       <use xlink:href="#Ubuntu-30" x="225.599976"/>
      </g>
     </g>
    </g>
    <g id="ytick_7">
     <g id="line2d_45">
      <g>
       <use xlink:href="#m97bfa59355" x="55.410938" y="71.51125" style="fill: #acb3ba; stroke: #acb3ba; stroke-width: 0.75"/>
      </g>
     </g>
     <g id="text_45">
      <!-- 36000 -->
      <g style="fill: #899199" transform="translate(23.848438 74.615) scale(0.08 -0.08)">
       <use xlink:href="#Ubuntu-33"/>
       <use xlink:href="#Ubuntu-36" x="56.399994"/>
       <use xlink:href="#Ubuntu-30" x="112.799988"/>
       <use xlink:href="#Ubuntu-30" x="169.199982"/>
       <use xlink:href="#Ubuntu-30" x="225.599976"/>
      </g>
     </g>
    </g>
    <g id="ytick_8">
     <g id="line2d_46">
      <g>
       <use xlink:href="#m97bfa59355" x="55.410938" y="56.11125" style="fill: #acb3ba; stroke: #acb3ba; stroke-width: 0.75"/>
      </g>
     </g>
     <g id="text_46">
      <!-- 38000 -->
      <g style="fill: #899199" transform="translate(23.848438 59.215) scale(0.08 -0.08)">
       <use xlink:href="#Ubuntu-33"/>
       <use xlink:href="#Ubuntu-38" x="56.399994"/>
       <use xlink:href="#Ubuntu-30" x="112.799988"/>
       <use xlink:href="#Ubuntu-30" x="169.199982"/>
       <use xlink:href="#Ubuntu-30" x="225.599976"/>
      </g>
     </g>
    </g>
    <g id="ytick_9">
     <g id="line2d_47">
      <g>
       <use xlink:href="#m97bfa59355" x="55.410938" y="40.71125" style="fill: #acb3ba; stroke: #acb3ba; stroke-width: 0.75"/>
      </g>
     </g>
     <g id="text_47">
      <!-- 40000 -->
      <g style="fill: #899199" transform="translate(23.848438 43.815) scale(0.08 -0.08)">
       <use xlink:href="#Ubuntu-34"/>
       <use xlink:href="#Ubuntu-30" x="56.399994"/>
       <use xlink:href="#Ubuntu-30" x="112.799988"/>
       <use xlink:href="#Ubuntu-30" x="169.199982"/>
       <use xlink:href="#Ubuntu-30" x="225.599976"/>
      </g>
     </g>
    </g>
    <g id="ytick_10">
     <g id="line2d_48">
      <g>
       <use xlink:href="#m97bfa59355" x="55.410938" y="25.31125" style="fill: #acb3ba; stroke: #acb3ba; stroke-width: 0.75"/>
      </g>
     </g>
     <g id="text_48">
      <!-- 42000 -->
      <g style="fill: #899199" transform="translate(23.848438 28.415) scale(0.08 -0.08)">
       <use xlink:href="#Ubuntu-34"/>
       <use xlink:href="#Ubuntu-32" x="56.399994"/>
       <use xlink:href="#Ubuntu-30" x="112.799988"/>
       <use xlink:href="#Ubuntu-30" x="169.199982"/>
       <use xlink:href="#Ubuntu-30" x="225.599976"/>
      </g>
     </g>
    </g>
    <g id="text_49">
     <!-- target1 -->
     <g style="fill: #505050" transform="translate(14.156719 57.524219) rotate(-90) scale(0.09 -0.09)">
      <defs>
       <path id="Ubuntu-Bold-74" d="M 416 4205 
L 1370 4358 
L 1370 3366 
L 2515 3366 
L 2515 2573 
L 1370 2573 
L 1370 1389 
Q 1370 1088 1475 909 
Q 1581 730 1901 730 
Q 2054 730 2217 758 
Q 2381 787 2515 838 
L 2650 96 
Q 2477 26 2265 -25 
Q 2054 -77 1747 -77 
Q 1357 -77 1101 28 
Q 845 134 691 323 
Q 538 512 477 781 
Q 416 1050 416 1376 
L 416 4205 
z
" transform="scale(0.015625)"/>
       <path id="Ubuntu-Bold-61" d="M 1734 666 
Q 1875 666 2003 672 
Q 2131 678 2208 691 
L 2208 1414 
Q 2150 1427 2035 1440 
Q 1920 1453 1824 1453 
Q 1690 1453 1571 1437 
Q 1453 1421 1363 1376 
Q 1274 1331 1222 1254 
Q 1171 1178 1171 1062 
Q 1171 838 1321 752 
Q 1472 666 1734 666 
z
M 1658 3456 
Q 2080 3456 2361 3360 
Q 2643 3264 2812 3085 
Q 2982 2906 3052 2650 
Q 3123 2394 3123 2080 
L 3123 96 
Q 2918 51 2553 -9 
Q 2189 -70 1670 -70 
Q 1344 -70 1078 -12 
Q 813 45 621 176 
Q 429 307 326 518 
Q 224 730 224 1037 
Q 224 1331 342 1536 
Q 461 1741 659 1862 
Q 858 1984 1114 2038 
Q 1370 2093 1645 2093 
Q 1830 2093 1974 2077 
Q 2118 2061 2208 2035 
L 2208 2125 
Q 2208 2368 2061 2515 
Q 1914 2662 1549 2662 
Q 1306 2662 1069 2627 
Q 832 2592 659 2528 
L 538 3296 
Q 621 3322 745 3350 
Q 870 3379 1017 3401 
Q 1165 3424 1328 3440 
Q 1491 3456 1658 3456 
z
" transform="scale(0.015625)"/>
       <path id="Ubuntu-Bold-72" d="M 2477 2522 
Q 2349 2554 2176 2589 
Q 2003 2624 1805 2624 
Q 1715 2624 1590 2608 
Q 1466 2592 1402 2573 
L 1402 0 
L 448 0 
L 448 3187 
Q 704 3277 1053 3357 
Q 1402 3437 1830 3437 
Q 1907 3437 2016 3427 
Q 2125 3418 2233 3402 
Q 2342 3386 2451 3363 
Q 2560 3341 2637 3309 
L 2477 2522 
z
" transform="scale(0.015625)"/>
       <path id="Ubuntu-Bold-67" d="M 1261 1792 
Q 1261 992 1907 992 
Q 2054 992 2182 1030 
Q 2310 1069 2400 1120 
L 2400 2643 
Q 2330 2656 2234 2665 
Q 2138 2675 2010 2675 
Q 1632 2675 1446 2425 
Q 1261 2176 1261 1792 
z
M 3354 422 
Q 3354 -403 2934 -803 
Q 2515 -1203 1638 -1203 
Q 1331 -1203 1024 -1148 
Q 717 -1094 454 -1005 
L 621 -205 
Q 845 -294 1091 -345 
Q 1338 -397 1651 -397 
Q 2061 -397 2230 -217 
Q 2400 -38 2400 243 
L 2400 365 
Q 2246 294 2083 259 
Q 1920 224 1728 224 
Q 1030 224 659 637 
Q 288 1050 288 1792 
Q 288 2163 403 2467 
Q 518 2771 739 2988 
Q 960 3206 1280 3324 
Q 1600 3443 2003 3443 
Q 2176 3443 2358 3427 
Q 2541 3411 2720 3385 
Q 2899 3360 3062 3325 
Q 3226 3290 3354 3251 
L 3354 422 
z
" transform="scale(0.015625)"/>
       <path id="Ubuntu-Bold-65" d="M 288 1658 
Q 288 2106 425 2442 
Q 563 2778 787 3002 
Q 1011 3226 1302 3341 
Q 1594 3456 1901 3456 
Q 2618 3456 3034 3017 
Q 3450 2579 3450 1728 
Q 3450 1645 3443 1545 
Q 3437 1446 3430 1370 
L 1267 1370 
Q 1299 1075 1542 902 
Q 1786 730 2195 730 
Q 2458 730 2710 778 
Q 2963 826 3123 896 
L 3251 122 
Q 3174 83 3046 44 
Q 2918 6 2761 -22 
Q 2605 -51 2425 -70 
Q 2246 -90 2067 -90 
Q 1613 -90 1277 44 
Q 941 179 720 412 
Q 499 646 393 966 
Q 288 1286 288 1658 
z
M 2528 2022 
Q 2522 2144 2486 2259 
Q 2451 2374 2377 2464 
Q 2304 2554 2192 2611 
Q 2080 2669 1914 2669 
Q 1754 2669 1638 2614 
Q 1523 2560 1446 2470 
Q 1370 2381 1328 2262 
Q 1286 2144 1267 2022 
L 2528 2022 
z
" transform="scale(0.015625)"/>
       <path id="Ubuntu-Bold-31" d="M 448 3514 
Q 634 3590 835 3689 
Q 1037 3789 1229 3907 
Q 1421 4026 1597 4157 
Q 1773 4288 1914 4435 
L 2579 4435 
L 2579 0 
L 1626 0 
L 1626 3194 
Q 1434 3066 1197 2960 
Q 960 2854 736 2778 
L 448 3514 
z
" transform="scale(0.015625)"/>
      </defs>
      <use xlink:href="#Ubuntu-Bold-74"/>
      <use xlink:href="#Ubuntu-Bold-61" x="42.399994"/>
      <use xlink:href="#Ubuntu-Bold-72" x="97.699982"/>
      <use xlink:href="#Ubuntu-Bold-67" x="138.899979"/>
      <use xlink:href="#Ubuntu-Bold-65" x="198.299973"/>
      <use xlink:href="#Ubuntu-Bold-74" x="256.699966"/>
      <use xlink:href="#Ubuntu-Bold-31" x="301.09996"/>
     </g>
    </g>
   </g>
   <g id="PolyCollection_1">
    <defs>
     <path id="mc210a25a22" d="M 64.787408 -88.607661 
L 64.787408 -71.270802 
L 66.861565 -75.02971 
L 68.935721 -87.2285 
L 71.009878 -88.93569 
L 73.084035 -89.092891 
L 75.158191 -88.067052 
L 77.232348 -88.250317 
L 79.306505 -79.801858 
L 81.380662 -86.54493 
L 83.454818 -97.548441 
L 85.528975 -91.747271 
L 87.603132 -98.50463 
L 89.677288 -95.258755 
L 91.751445 -90.078426 
L 93.825602 -55.676239 
L 95.899758 -87.721763 
L 97.973915 -96.200559 
L 100.048072 -104.463561 
L 102.122228 -97.996674 
L 104.196385 -97.534885 
L 106.270542 -96.83278 
L 108.344698 -90.059038 
L 110.418855 -101.858297 
L 112.493012 -95.598903 
L 114.567168 -100.525969 
L 116.641325 -102.892899 
L 118.715482 -99.805134 
L 120.789638 -92.978661 
L 122.863795 -78.020477 
L 124.937952 -94.716709 
L 127.012108 -96.485199 
L 127.012108 -113.242349 
L 127.012108 -113.242349 
L 124.937952 -112.854717 
L 122.863795 -94.941024 
L 120.789638 -110.884094 
L 118.715482 -119.344729 
L 116.641325 -121.899057 
L 114.567168 -119.589033 
L 112.493012 -113.778644 
L 110.418855 -121.08315 
L 108.344698 -108.5931 
L 106.270542 -116.808862 
L 104.196385 -114.562127 
L 102.122228 -119.066205 
L 100.048072 -123.214905 
L 97.973915 -114.362244 
L 95.899758 -106.471279 
L 93.825602 -78.461635 
L 91.751445 -106.99799 
L 89.677288 -112.083864 
L 87.603132 -117.035289 
L 85.528975 -109.787095 
L 83.454818 -115.423828 
L 81.380662 -105.833885 
L 79.306505 -97.814343 
L 77.232348 -104.70806 
L 75.158191 -106.294788 
L 73.084035 -107.718192 
L 71.009878 -106.852559 
L 68.935721 -106.329495 
L 66.861565 -91.675623 
L 64.787408 -88.607661 
z
" style="stroke: #5b5b5b; stroke-opacity: 0.2"/>
    </defs>
    <g clip-path="url(#p60dd0b1470)">
     <use xlink:href="#mc210a25a22" x="0" y="209.8225" style="fill: #5b5b5b; fill-opacity: 0.2; stroke: #5b5b5b; stroke-opacity: 0.2"/>
    </g>
   </g>
   <g id="PolyCollection_2">
    <defs>
     <path id="m22704657f0" d="M 129.086265 -111.51618 
L 129.086265 -93.483 
L 131.160422 -97.369428 
L 133.234578 -89.602518 
L 135.308735 -89.677585 
L 137.382892 -71.816701 
L 139.457048 -87.643602 
L 141.531205 -89.067874 
L 143.605362 -88.442412 
L 145.679518 -89.088364 
L 147.753675 -88.455879 
L 149.827832 -91.147714 
L 151.901989 -83.170025 
L 153.976145 -100.67905 
L 156.050302 -83.533246 
L 158.124459 -90.379884 
L 160.198615 -93.747932 
L 162.272772 -96.152004 
L 164.346929 -95.430798 
L 166.421085 -83.695509 
L 168.495242 -99.137476 
L 170.569399 -97.908102 
L 172.643555 -98.477111 
L 174.717712 -103.057722 
L 176.791869 -93.323119 
L 178.866025 -88.503857 
L 180.940182 -84.094596 
L 183.014339 -94.396339 
L 185.088495 -93.388055 
L 185.088495 -109.786347 
L 185.088495 -109.786347 
L 183.014339 -110.95439 
L 180.940182 -99.930143 
L 178.866025 -105.269979 
L 176.791869 -110.458996 
L 174.717712 -121.148154 
L 172.643555 -113.169796 
L 170.569399 -116.793486 
L 168.495242 -117.459683 
L 166.421085 -101.237145 
L 164.346929 -112.026868 
L 162.272772 -113.076237 
L 160.198615 -110.589048 
L 158.124459 -107.234776 
L 156.050302 -96.306347 
L 153.976145 -119.101773 
L 151.901989 -101.56725 
L 149.827832 -108.537764 
L 147.753675 -106.600391 
L 145.679518 -106.062712 
L 143.605362 -105.536314 
L 141.531205 -105.884535 
L 139.457048 -105.193313 
L 137.382892 -87.371174 
L 135.308735 -105.592653 
L 133.234578 -105.388513 
L 131.160422 -115.508573 
L 129.086265 -111.51618 
z
" style="stroke: #b45f58; stroke-opacity: 0.2"/>
    </defs>
    <g clip-path="url(#p60dd0b1470)">
     <use xlink:href="#m22704657f0" x="0" y="209.8225" style="fill: #b45f58; fill-opacity: 0.2; stroke: #b45f58; stroke-opacity: 0.2"/>
    </g>
   </g>
   <g id="PolyCollection_3">
    <defs>
     <path id="m75ff4b8adc" d="M 187.162652 -109.663113 
L 187.162652 -92.538641 
L 189.236809 -90.905397 
L 191.310965 -92.14155 
L 193.385122 -91.191542 
L 195.459279 -80.428605 
L 197.533435 -98.939405 
L 199.607592 -93.710343 
L 201.681749 -102.779567 
L 203.755905 -93.550249 
L 205.830062 -91.212005 
L 207.904219 -91.385877 
L 209.978375 -79.21416 
L 212.052532 -95.09002 
L 214.126689 -92.00001 
L 216.200846 -102.645063 
L 218.275002 -102.717033 
L 220.349159 -94.841916 
L 222.423316 -92.771009 
L 224.497472 -82.300614 
L 226.571629 -91.754478 
L 228.645786 -89.204385 
L 230.719942 -94.488355 
L 232.794099 -92.484159 
L 234.868256 -88.379699 
L 236.942412 -85.531043 
L 239.016569 -79.255019 
L 241.090726 -97.529363 
L 243.164882 -90.785392 
L 245.239039 -106.274032 
L 247.313196 -100.408557 
L 249.387352 -94.73985 
L 249.387352 -109.66707 
L 249.387352 -109.66707 
L 247.313196 -115.80415 
L 245.239039 -125.392714 
L 243.164882 -106.782846 
L 241.090726 -113.151451 
L 239.016569 -98.428166 
L 236.942412 -102.308835 
L 234.868256 -105.302775 
L 232.794099 -109.935947 
L 230.719942 -111.798561 
L 228.645786 -106.32971 
L 226.571629 -109.388723 
L 224.497472 -99.648239 
L 222.423316 -108.639464 
L 220.349159 -111.406959 
L 218.275002 -121.263335 
L 216.200846 -119.900042 
L 214.126689 -109.56751 
L 212.052532 -111.435055 
L 209.978375 -96.310404 
L 207.904219 -108.313443 
L 205.830062 -106.982686 
L 203.755905 -109.233576 
L 201.681749 -122.255849 
L 199.607592 -108.127946 
L 197.533435 -115.404201 
L 195.459279 -96.507991 
L 193.385122 -108.173835 
L 191.310965 -109.118437 
L 189.236809 -108.718217 
L 187.162652 -109.663113 
z
" style="stroke: #3d6b91; stroke-opacity: 0.2"/>
    </defs>
    <g clip-path="url(#p60dd0b1470)">
     <use xlink:href="#m75ff4b8adc" x="0" y="209.8225" style="fill: #3d6b91; fill-opacity: 0.2; stroke: #3d6b91; stroke-opacity: 0.2"/>
    </g>
   </g>
   <g id="PolyCollection_4">
    <defs>
     <path id="m9cee4c7968" d="M 251.461509 -120.016514 
L 251.461509 -103.060285 
L 253.535666 -76.72171 
L 255.609822 -96.94123 
L 257.683979 -96.463698 
L 259.758136 -97.017484 
L 261.832292 -99.060827 
L 263.906449 -96.796439 
L 265.980606 -94.23277 
L 268.054762 -82.386805 
L 270.128919 -93.808814 
L 272.203076 -95.581944 
L 274.277232 -96.097662 
L 276.351389 -96.561693 
L 278.425546 -94.284382 
L 280.499702 -92.842244 
L 282.573859 -78.667232 
L 284.648016 -100.558291 
L 286.722173 -101.119305 
L 288.796329 -101.459464 
L 290.870486 -73.710919 
L 292.944643 -101.031696 
L 295.018799 -95.791974 
L 297.092956 -79.056948 
L 299.167113 -95.156281 
L 301.241269 -97.42241 
L 303.315426 -97.6399 
L 305.389583 -97.525867 
L 307.463739 -95.928278 
L 309.537896 -95.309245 
L 311.612053 -75.741149 
L 311.612053 -91.713005 
L 311.612053 -91.713005 
L 309.537896 -111.102318 
L 307.463739 -112.253605 
L 305.389583 -112.450423 
L 303.315426 -113.887596 
L 301.241269 -114.441192 
L 299.167113 -111.442237 
L 297.092956 -96.117828 
L 295.018799 -111.430923 
L 292.944643 -121.660046 
L 290.870486 -86.268972 
L 288.796329 -116.590487 
L 286.722173 -116.611954 
L 284.648016 -116.697574 
L 282.573859 -94.026519 
L 280.499702 -107.741985 
L 278.425546 -109.332569 
L 276.351389 -112.226584 
L 274.277232 -111.394669 
L 272.203076 -111.342535 
L 270.128919 -109.51078 
L 268.054762 -97.299691 
L 265.980606 -110.203042 
L 263.906449 -111.718169 
L 261.832292 -114.585702 
L 259.758136 -113.21845 
L 257.683979 -111.910428 
L 255.609822 -112.513349 
L 253.535666 -92.687034 
L 251.461509 -120.016514 
z
" style="stroke: #4e9a73; stroke-opacity: 0.2"/>
    </defs>
    <g clip-path="url(#p60dd0b1470)">
     <use xlink:href="#m9cee4c7968" x="0" y="209.8225" style="fill: #4e9a73; fill-opacity: 0.2; stroke: #4e9a73; stroke-opacity: 0.2"/>
    </g>
   </g>
   <g id="PolyCollection_5">
    <defs>
     <path id="m15f08fbedb" d="M 313.686209 -96.049947 
L 313.686209 -78.932132 
L 315.760366 -98.571457 
L 317.834523 -87.927752 
L 319.908679 -100.265777 
L 321.982836 -98.611565 
L 324.056993 -99.042731 
L 326.131149 -79.718525 
L 328.205306 -103.637233 
L 330.279463 -100.346312 
L 332.353619 -105.12526 
L 334.427776 -105.462183 
L 336.501933 -101.900988 
L 338.576089 -99.625373 
L 340.650246 -84.754073 
L 342.724403 -104.342755 
L 344.798559 -104.610883 
L 346.872716 -104.811167 
L 348.946873 -104.363086 
L 351.021029 -100.775677 
L 353.095186 -100.61614 
L 355.169343 -96.136019 
L 357.2435 -108.045975 
L 359.317656 -109.872381 
L 361.391813 -107.990687 
L 363.46597 -110.574116 
L 365.540126 -112.777545 
L 367.614283 -113.930896 
L 369.68844 -103.162711 
L 371.762596 -114.970185 
L 373.836753 -114.496017 
L 375.91091 -114.083415 
L 375.91091 -131.198436 
L 375.91091 -131.198436 
L 373.836753 -131.163075 
L 371.762596 -132.696814 
L 369.68844 -120.8938 
L 367.614283 -131.067713 
L 365.540126 -130.929163 
L 363.46597 -129.322666 
L 361.391813 -124.870786 
L 359.317656 -127.66879 
L 357.2435 -126.657708 
L 355.169343 -111.500321 
L 353.095186 -115.829051 
L 351.021029 -116.725466 
L 348.946873 -121.395755 
L 346.872716 -120.946042 
L 344.798559 -121.154657 
L 342.724403 -120.619057 
L 340.650246 -101.704154 
L 338.576089 -115.313159 
L 336.501933 -118.402298 
L 334.427776 -121.165572 
L 332.353619 -122.306611 
L 330.279463 -117.184571 
L 328.205306 -119.609978 
L 326.131149 -96.806466 
L 324.056993 -114.3882 
L 321.982836 -114.03947 
L 319.908679 -116.817377 
L 317.834523 -105.550704 
L 315.760366 -115.015392 
L 313.686209 -96.049947 
z
" style="stroke: #c3824d; stroke-opacity: 0.2"/>
    </defs>
    <g clip-path="url(#p60dd0b1470)">
     <use xlink:href="#m15f08fbedb" x="0" y="209.8225" style="fill: #c3824d; fill-opacity: 0.2; stroke: #c3824d; stroke-opacity: 0.2"/>
    </g>
   </g>
   <g id="PolyCollection_6">
    <defs>
     <path id="m7450455e44" d="M 377.985066 -133.830768 
L 377.985066 -117.367199 
L 380.059223 -120.323523 
L 382.13338 -128.812935 
L 384.207536 -99.803278 
L 386.281693 -117.534814 
L 388.35585 -115.956144 
L 390.430006 -116.834828 
L 392.504163 -121.475803 
L 394.57832 -121.080265 
L 396.652476 -126.495914 
L 398.726633 -106.895913 
L 400.80079 -125.694435 
L 402.874946 -124.630509 
L 404.949103 -122.069672 
L 407.02326 -124.653932 
L 409.097416 -125.410231 
L 411.171573 -124.120558 
L 413.24573 -112.686381 
L 415.319886 -132.18222 
L 417.394043 -138.462309 
L 419.4682 -140.034163 
L 421.542357 -133.398752 
L 423.616513 -135.658609 
L 425.69067 -133.720945 
L 427.764827 -123.629832 
L 429.838983 -95.137588 
L 431.91314 -78.686886 
L 433.987297 -100.117321 
L 436.061453 -100.058933 
L 438.13561 -100.196335 
L 438.13561 -116.600896 
L 438.13561 -116.600896 
L 436.061453 -116.161087 
L 433.987297 -116.163721 
L 431.91314 -93.051109 
L 429.838983 -108.528976 
L 427.764827 -143.499112 
L 425.69067 -153.382581 
L 423.616513 -155.666455 
L 421.542357 -152.168224 
L 419.4682 -156.460048 
L 417.394043 -155.043231 
L 415.319886 -149.813503 
L 413.24573 -131.068151 
L 411.171573 -142.82928 
L 409.097416 -142.457607 
L 407.02326 -143.356263 
L 404.949103 -140.402607 
L 402.874946 -141.194841 
L 400.80079 -143.719727 
L 398.726633 -124.859503 
L 396.652476 -143.929139 
L 394.57832 -138.095633 
L 392.504163 -138.631811 
L 390.430006 -134.030832 
L 388.35585 -134.344169 
L 386.281693 -134.948305 
L 384.207536 -119.466528 
L 382.13338 -146.838244 
L 380.059223 -139.007395 
L 377.985066 -133.830768 
z
" style="stroke: #71588b; stroke-opacity: 0.2"/>
    </defs>
    <g clip-path="url(#p60dd0b1470)">
     <use xlink:href="#m7450455e44" x="0" y="209.8225" style="fill: #71588b; fill-opacity: 0.2; stroke: #71588b; stroke-opacity: 0.2"/>
    </g>
   </g>
   <g id="PolyCollection_7">
    <defs>
     <path id="ma5d99a5a62" d="M 440.209767 -116.966534 
L 440.209767 -100.766707 
L 442.283923 -96.620372 
L 444.35808 -113.459172 
L 446.432237 -106.834034 
L 448.506393 -125.316745 
L 450.58055 -129.963759 
L 452.654707 -113.601157 
L 454.728863 -119.532724 
L 456.80302 -104.355401 
L 458.877177 -128.576207 
L 460.951333 -134.574141 
L 463.02549 -136.884047 
L 465.099647 -136.328845 
L 467.173803 -119.507031 
L 469.24796 -126.143161 
L 471.322117 -123.457183 
L 473.396273 -136.268141 
L 475.47043 -138.576367 
L 477.544587 -142.473062 
L 479.618743 -135.697735 
L 481.6929 -126.61217 
L 483.767057 -123.755854 
L 485.841213 -111.735958 
L 487.91537 -144.111883 
L 489.989527 -148.414614 
L 492.063684 -146.801169 
L 494.13784 -147.960476 
L 496.211997 -144.867114 
L 498.286154 -145.053397 
L 500.36031 -128.966639 
L 502.434467 -150.03551 
L 502.434467 -166.582904 
L 502.434467 -166.582904 
L 500.36031 -145.618772 
L 498.286154 -162.243805 
L 496.211997 -160.620546 
L 494.13784 -164.792778 
L 492.063684 -163.749603 
L 489.989527 -165.816298 
L 487.91537 -162.543517 
L 485.841213 -129.077441 
L 483.767057 -141.005866 
L 481.6929 -142.827697 
L 479.618743 -152.458896 
L 477.544587 -161.635428 
L 475.47043 -156.559721 
L 473.396273 -154.171297 
L 471.322117 -138.558648 
L 469.24796 -143.081319 
L 467.173803 -134.381189 
L 465.099647 -151.8955 
L 463.02549 -154.319465 
L 460.951333 -150.306085 
L 458.877177 -146.158062 
L 456.80302 -118.951583 
L 454.728863 -136.011414 
L 452.654707 -129.372531 
L 450.58055 -146.584248 
L 448.506393 -141.723356 
L 446.432237 -124.563126 
L 444.35808 -130.711094 
L 442.283923 -112.143376 
L 440.209767 -116.966534 
z
" style="stroke: #8d7a5a; stroke-opacity: 0.2"/>
    </defs>
    <g clip-path="url(#p60dd0b1470)">
     <use xlink:href="#ma5d99a5a62" x="0" y="209.8225" style="fill: #8d7a5a; fill-opacity: 0.2; stroke: #8d7a5a; stroke-opacity: 0.2"/>
    </g>
   </g>
   <g id="line2d_49">
    <path d="M 64.787408 129.528963 
L 66.861565 126.416149 
L 68.935721 113.380406 
L 71.009878 112.39955 
L 73.084035 111.528832 
L 75.158191 112.227031 
L 77.232348 112.993457 
L 79.306505 121.0999 
L 81.380662 113.551301 
L 83.454818 103.363908 
L 85.528975 109.566469 
L 87.603132 101.72644 
L 89.677288 106.345465 
L 91.751445 111.284187 
L 93.825602 142.570554 
L 95.899758 113.189368 
L 97.973915 103.607579 
L 100.048072 95.685351 
L 102.122228 101.231626 
L 104.196385 103.980883 
L 106.270542 102.86552 
L 108.344698 110.614254 
L 110.418855 98.419664 
L 112.493012 105.520233 
L 114.567168 99.972984 
L 116.641325 96.962512 
L 118.715482 100.026267 
L 120.789638 107.714896 
L 122.863795 123.404701 
L 124.937952 105.976385 
L 127.012108 105.43771 
" clip-path="url(#p60dd0b1470)" style="fill: none; stroke: #5b5b5b; stroke-width: 1.2; stroke-linecap: square"/>
   </g>
   <g id="line2d_50">
    <path d="M 129.086265 107.129949 
L 131.160422 103.228072 
L 133.234578 112.043919 
L 135.308735 112.578352 
L 137.382892 131.108924 
L 139.457048 113.548356 
L 141.531205 112.229894 
L 143.605362 112.810004 
L 145.679518 112.213254 
L 147.753675 112.252081 
L 149.827832 109.605695 
L 151.901989 117.884174 
L 153.976145 99.612335 
L 156.050302 120.19189 
L 158.124459 110.634428 
L 160.198615 107.254911 
L 162.272772 104.996462 
L 164.346929 106.681979 
L 166.421085 117.318093 
L 168.495242 101.231292 
L 170.569399 102.819254 
L 172.643555 103.981758 
L 174.717712 97.610987 
L 176.791869 108.009576 
L 178.866025 112.831212 
L 180.940182 117.649585 
L 183.014339 107.299936 
L 185.088495 108.630144 
" clip-path="url(#p60dd0b1470)" style="fill: none; stroke: #b45f58; stroke-width: 1.2; stroke-linecap: square"/>
   </g>
   <g id="line2d_51">
    <path d="M 187.162652 108.895569 
L 189.236809 110.073505 
L 191.310965 109.395578 
L 193.385122 110.025667 
L 195.459279 121.414131 
L 197.533435 102.38268 
L 199.607592 109.053501 
L 201.681749 97.41405 
L 203.755905 108.565616 
L 205.830062 110.535505 
L 207.904219 110.477182 
L 209.978375 121.841727 
L 212.052532 106.308697 
L 214.126689 109.408356 
L 216.200846 98.616561 
L 218.275002 97.688629 
L 220.349159 106.604901 
L 222.423316 109.211105 
L 224.497472 119.009437 
L 226.571629 108.981744 
L 228.645786 112.089267 
L 230.719942 106.727446 
L 232.794099 108.607556 
L 234.868256 113.426773 
L 236.942412 115.626024 
L 239.016569 121.265701 
L 241.090726 104.545888 
L 243.164882 111.262254 
L 245.239039 94.264586 
L 247.313196 101.915437 
L 249.387352 107.675693 
" clip-path="url(#p60dd0b1470)" style="fill: none; stroke: #3d6b91; stroke-width: 1.2; stroke-linecap: square"/>
   </g>
   <g id="line2d_52">
    <path d="M 251.461509 99.072774 
L 253.535666 125.311457 
L 255.609822 104.802436 
L 257.683979 105.512593 
L 259.758136 104.929084 
L 261.832292 102.973666 
L 263.906449 105.408822 
L 265.980606 107.961674 
L 268.054762 119.895431 
L 270.128919 108.156619 
L 272.203076 106.074221 
L 274.277232 105.882923 
L 276.351389 105.360085 
L 278.425546 107.824085 
L 280.499702 109.57395 
L 282.573859 123.568223 
L 284.648016 101.603745 
L 286.722173 101.134949 
L 288.796329 100.841868 
L 290.870486 129.775302 
L 292.944643 98.224365 
L 295.018799 106.717407 
L 297.092956 122.452925 
L 299.167113 106.607336 
L 301.241269 103.610552 
L 303.315426 103.932477 
L 305.389583 104.862113 
L 307.463739 105.774509 
L 309.537896 107.007172 
L 311.612053 126.268279 
" clip-path="url(#p60dd0b1470)" style="fill: none; stroke: #4e9a73; stroke-width: 1.2; stroke-linecap: square"/>
   </g>
   <g id="line2d_53">
    <path d="M 313.686209 122.589431 
L 315.760366 102.816841 
L 317.834523 113.440317 
L 319.908679 101.497322 
L 321.982836 103.91083 
L 324.056993 103.947858 
L 326.131149 121.567477 
L 328.205306 98.46916 
L 330.279463 100.926428 
L 332.353619 95.830795 
L 334.427776 96.502 
L 336.501933 99.495154 
L 338.576089 102.404155 
L 340.650246 116.690642 
L 342.724403 97.481541 
L 344.798559 96.919399 
L 346.872716 97.295731 
L 348.946873 96.771289 
L 351.021029 101.174848 
L 353.095186 101.614463 
L 355.169343 106.106887 
L 357.2435 92.386581 
L 359.317656 90.780942 
L 361.391813 93.305532 
L 363.46597 89.907097 
L 365.540126 87.869921 
L 367.614283 87.161016 
L 369.68844 98.148033 
L 371.762596 85.648282 
L 373.836753 87.472719 
L 375.91091 86.988671 
" clip-path="url(#p60dd0b1470)" style="fill: none; stroke: #c3824d; stroke-width: 1.2; stroke-linecap: square"/>
   </g>
   <g id="line2d_54">
    <path d="M 377.985066 84.212001 
L 380.059223 79.935356 
L 382.13338 71.700945 
L 384.207536 100.504045 
L 386.281693 83.44574 
L 388.35585 84.75457 
L 390.430006 84.350703 
L 392.504163 80.095815 
L 394.57832 79.968672 
L 396.652476 74.946844 
L 398.726633 93.870826 
L 400.80079 75.159656 
L 402.874946 76.896151 
L 404.949103 78.387877 
L 407.02326 75.107303 
L 409.097416 76.20536 
L 411.171573 76.624186 
L 413.24573 87.874685 
L 415.319886 69.132239 
L 417.394043 63.566482 
L 419.4682 61.258861 
L 421.542357 66.589369 
L 423.616513 64.332062 
L 425.69067 66.542455 
L 427.764827 75.733502 
L 429.838983 107.765502 
L 431.91314 124.613034 
L 433.987297 101.676212 
L 436.061453 101.171038 
L 438.13561 101.036076 
" clip-path="url(#p60dd0b1470)" style="fill: none; stroke: #71588b; stroke-width: 1.2; stroke-linecap: square"/>
   </g>
   <g id="line2d_55">
    <path d="M 440.209767 100.581607 
L 442.283923 105.361917 
L 444.35808 87.889483 
L 446.432237 93.96387 
L 448.506393 76.292242 
L 450.58055 71.165048 
L 452.654707 88.209762 
L 454.728863 81.806909 
L 456.80302 98.142847 
L 458.877177 72.629669 
L 460.951333 67.548862 
L 463.02549 64.375064 
L 465.099647 65.590351 
L 467.173803 82.996955 
L 469.24796 75.136986 
L 471.322117 79.501172 
L 473.396273 64.758444 
L 475.47043 61.951653 
L 477.544587 57.297203 
L 479.618743 65.915405 
L 481.6929 75.453855 
L 483.767057 77.136087 
L 485.841213 89.064862 
L 487.91537 55.777669 
L 489.989527 52.646847 
L 492.063684 54.805234 
L 494.13784 53.627467 
L 496.211997 56.782506 
L 498.286154 56.104769 
L 500.36031 72.943808 
L 502.434467 51.598351 
" clip-path="url(#p60dd0b1470)" style="fill: none; stroke: #8d7a5a; stroke-width: 1.2; stroke-linecap: square"/>
   </g>
   <g id="line2d_56"/>
   <g id="line2d_57"/>
   <g id="line2d_58"/>
   <g id="line2d_59"/>
   <g id="line2d_60"/>
   <g id="line2d_61"/>
   <g id="line2d_62"/>
   <g id="patch_4">
    <path d="M 55.410938 163.91125 
L 55.410938 25.31125 
" style="fill: none; stroke: #acb3ba; stroke-width: 0.75; stroke-linejoin: miter; stroke-linecap: square"/>
   </g>
   <g id="patch_5">
    <path d="M 64.787408 173.91125 
L 500.36031 173.91125 
" style="fill: none; stroke: #acb3ba; stroke-width: 0.75; stroke-linejoin: miter; stroke-linecap: square"/>
   </g>
   <g id="legend_1">
    <g id="line2d_63">
     <defs>
      <path id="m13543f552a" d="M 0 1.5 
C 0.397805 1.5 0.77937 1.341951 1.06066 1.06066 
C 1.341951 0.77937 1.5 0.397805 1.5 0 
C 1.5 -0.397805 1.341951 -0.77937 1.06066 -1.06066 
C 0.77937 -1.341951 0.397805 -1.5 0 -1.5 
C -0.397805 -1.5 -0.77937 -1.341951 -1.06066 -1.06066 
C -1.341951 -0.77937 -1.5 -0.397805 -1.5 0 
C -1.5 0.397805 -1.341951 0.77937 -1.06066 1.06066 
C -0.77937 1.341951 -0.397805 1.5 0 1.5 
z
" style="stroke: #5b5b5b"/>
     </defs>
     <g>
      <use xlink:href="#m13543f552a" x="75.610938" y="13.8075" style="fill: #5b5b5b; stroke: #5b5b5b"/>
     </g>
    </g>
    <g id="text_50">
     <!-- January -->
     <g style="fill: #4b4b4b" transform="translate(83.610938 16.6075) scale(0.08 -0.08)">
      <use xlink:href="#Ubuntu-4a"/>
      <use xlink:href="#Ubuntu-61" x="49.999985"/>
      <use xlink:href="#Ubuntu-6e" x="102.199982"/>
      <use xlink:href="#Ubuntu-75" x="159.599976"/>
      <use xlink:href="#Ubuntu-61" x="216.999969"/>
      <use xlink:href="#Ubuntu-72" x="269.199966"/>
      <use xlink:href="#Ubuntu-79" x="309.924957"/>
     </g>
    </g>
    <g id="line2d_64">
     <defs>
      <path id="m103c1f13b1" d="M 0 1.5 
C 0.397805 1.5 0.77937 1.341951 1.06066 1.06066 
C 1.341951 0.77937 1.5 0.397805 1.5 0 
C 1.5 -0.397805 1.341951 -0.77937 1.06066 -1.06066 
C 0.77937 -1.341951 0.397805 -1.5 0 -1.5 
C -0.397805 -1.5 -0.77937 -1.341951 -1.06066 -1.06066 
C -1.341951 -0.77937 -1.5 -0.397805 -1.5 0 
C -1.5 0.397805 -1.341951 0.77937 -1.06066 1.06066 
C -0.77937 1.341951 -0.397805 1.5 0 1.5 
z
" style="stroke: #b45f58"/>
     </defs>
     <g>
      <use xlink:href="#m103c1f13b1" x="136.382188" y="13.8075" style="fill: #b45f58; stroke: #b45f58"/>
     </g>
    </g>
    <g id="text_51">
     <!-- February -->
     <g style="fill: #4b4b4b" transform="translate(144.382188 16.6075) scale(0.08 -0.08)">
      <use xlink:href="#Ubuntu-46"/>
      <use xlink:href="#Ubuntu-65" x="52.324997"/>
      <use xlink:href="#Ubuntu-62" x="108.224991"/>
      <use xlink:href="#Ubuntu-72" x="167.124985"/>
      <use xlink:href="#Ubuntu-75" x="205.724976"/>
      <use xlink:href="#Ubuntu-61" x="263.124969"/>
      <use xlink:href="#Ubuntu-72" x="315.324966"/>
      <use xlink:href="#Ubuntu-79" x="356.049957"/>
     </g>
    </g>
    <g id="line2d_65">
     <defs>
      <path id="m0d9d7f61f2" d="M 0 1.5 
C 0.397805 1.5 0.77937 1.341951 1.06066 1.06066 
C 1.341951 0.77937 1.5 0.397805 1.5 0 
C 1.5 -0.397805 1.341951 -0.77937 1.06066 -1.06066 
C 0.77937 -1.341951 0.397805 -1.5 0 -1.5 
C -0.397805 -1.5 -0.77937 -1.341951 -1.06066 -1.06066 
C -1.341951 -0.77937 -1.5 -0.397805 -1.5 0 
C -1.5 0.397805 -1.341951 0.77937 -1.06066 1.06066 
C -0.77937 1.341951 -0.397805 1.5 0 1.5 
z
" style="stroke: #3d6b91"/>
     </defs>
     <g>
      <use xlink:href="#m0d9d7f61f2" x="200.843438" y="13.8075" style="fill: #3d6b91; stroke: #3d6b91"/>
     </g>
    </g>
    <g id="text_52">
     <!-- March -->
     <g style="fill: #4b4b4b" transform="translate(208.843438 16.6075) scale(0.08 -0.08)">
      <use xlink:href="#Ubuntu-4d"/>
      <use xlink:href="#Ubuntu-61" x="87.099991"/>
      <use xlink:href="#Ubuntu-72" x="139.299988"/>
      <use xlink:href="#Ubuntu-63" x="177.899979"/>
      <use xlink:href="#Ubuntu-68" x="224.399963"/>
     </g>
    </g>
    <g id="line2d_66">
     <defs>
      <path id="m31ffc2a71a" d="M 0 1.5 
C 0.397805 1.5 0.77937 1.341951 1.06066 1.06066 
C 1.341951 0.77937 1.5 0.397805 1.5 0 
C 1.5 -0.397805 1.341951 -0.77937 1.06066 -1.06066 
C 0.77937 -1.341951 0.397805 -1.5 0 -1.5 
C -0.397805 -1.5 -0.77937 -1.341951 -1.06066 -1.06066 
C -1.341951 -0.77937 -1.5 -0.397805 -1.5 0 
C -1.5 0.397805 -1.341951 0.77937 -1.06066 1.06066 
C -0.77937 1.341951 -0.397805 1.5 0 1.5 
z
" style="stroke: #4e9a73"/>
     </defs>
     <g>
      <use xlink:href="#m31ffc2a71a" x="255.362188" y="13.8075" style="fill: #4e9a73; stroke: #4e9a73"/>
     </g>
    </g>
    <g id="text_53">
     <!-- April -->
     <g style="fill: #4b4b4b" transform="translate(263.362188 16.6075) scale(0.08 -0.08)">
      <use xlink:href="#Ubuntu-41"/>
      <use xlink:href="#Ubuntu-70" x="66.299988"/>
      <use xlink:href="#Ubuntu-72" x="125.199982"/>
      <use xlink:href="#Ubuntu-69" x="163.799973"/>
      <use xlink:href="#Ubuntu-6c" x="189.09996"/>
     </g>
    </g>
    <g id="line2d_67">
     <defs>
      <path id="mc8d8374515" d="M 0 1.5 
C 0.397805 1.5 0.77937 1.341951 1.06066 1.06066 
C 1.341951 0.77937 1.5 0.397805 1.5 0 
C 1.5 -0.397805 1.341951 -0.77937 1.06066 -1.06066 
C 0.77937 -1.341951 0.397805 -1.5 0 -1.5 
C -0.397805 -1.5 -0.77937 -1.341951 -1.06066 -1.06066 
C -1.341951 -0.77937 -1.5 -0.397805 -1.5 0 
C -1.5 0.397805 -1.341951 0.77937 -1.06066 1.06066 
C -0.77937 1.341951 -0.397805 1.5 0 1.5 
z
" style="stroke: #c3824d"/>
     </defs>
     <g>
      <use xlink:href="#mc8d8374515" x="304.673438" y="13.8075" style="fill: #c3824d; stroke: #c3824d"/>
     </g>
    </g>
    <g id="text_54">
     <!-- May -->
     <g style="fill: #4b4b4b" transform="translate(312.673438 16.6075) scale(0.08 -0.08)">
      <use xlink:href="#Ubuntu-4d"/>
      <use xlink:href="#Ubuntu-61" x="87.099991"/>
      <use xlink:href="#Ubuntu-79" x="137.799988"/>
     </g>
    </g>
    <g id="line2d_68">
     <defs>
      <path id="mcb67b0982e" d="M 0 1.5 
C 0.397805 1.5 0.77937 1.341951 1.06066 1.06066 
C 1.341951 0.77937 1.5 0.397805 1.5 0 
C 1.5 -0.397805 1.341951 -0.77937 1.06066 -1.06066 
C 0.77937 -1.341951 0.397805 -1.5 0 -1.5 
C -0.397805 -1.5 -0.77937 -1.341951 -1.06066 -1.06066 
C -1.341951 -0.77937 -1.5 -0.397805 -1.5 0 
C -1.5 0.397805 -1.341951 0.77937 -1.06066 1.06066 
C -0.77937 1.341951 -0.397805 1.5 0 1.5 
z
" style="stroke: #71588b"/>
     </defs>
     <g>
      <use xlink:href="#mcb67b0982e" x="351.673437" y="13.8075" style="fill: #71588b; stroke: #71588b"/>
     </g>
    </g>
    <g id="text_55">
     <!-- June -->
     <g style="fill: #4b4b4b" transform="translate(359.673437 16.6075) scale(0.08 -0.08)">
      <use xlink:href="#Ubuntu-4a"/>
      <use xlink:href="#Ubuntu-75" x="49.999985"/>
      <use xlink:href="#Ubuntu-6e" x="107.399979"/>
      <use xlink:href="#Ubuntu-65" x="164.799973"/>
     </g>
    </g>
    <g id="line2d_69">
     <defs>
      <path id="m8fb18eceee" d="M 0 1.5 
C 0.397805 1.5 0.77937 1.341951 1.06066 1.06066 
C 1.341951 0.77937 1.5 0.397805 1.5 0 
C 1.5 -0.397805 1.341951 -0.77937 1.06066 -1.06066 
C 0.77937 -1.341951 0.397805 -1.5 0 -1.5 
C -0.397805 -1.5 -0.77937 -1.341951 -1.06066 -1.06066 
C -1.341951 -0.77937 -1.5 -0.397805 -1.5 0 
C -1.5 0.397805 -1.341951 0.77937 -1.06066 1.06066 
C -0.77937 1.341951 -0.397805 1.5 0 1.5 
z
" style="stroke: #8d7a5a"/>
     </defs>
     <g>
      <use xlink:href="#m8fb18eceee" x="401.330938" y="13.8075" style="fill: #8d7a5a; stroke: #8d7a5a"/>
     </g>
    </g>
    <g id="text_56">
     <!-- July -->
     <g style="fill: #4b4b4b" transform="translate(409.330938 16.6075) scale(0.08 -0.08)">
      <use xlink:href="#Ubuntu-4a"/>
      <use xlink:href="#Ubuntu-75" x="49.999985"/>
      <use xlink:href="#Ubuntu-6c" x="107.399979"/>
      <use xlink:href="#Ubuntu-79" x="134.699966"/>
     </g>
    </g>
   </g>
  </g>
 </g>
 <defs>
  <clipPath id="pdd2c8cc85e">
   <rect x="60.410938" y="163.91125" width="446.4" height="0"/>
  </clipPath>
  <clipPath id="p60dd0b1470">
   <rect x="60.410938" y="25.31125" width="446.4" height="138.6"/>
  </clipPath>
 </defs>
</svg>
