<?xml version="1.0" encoding="utf-8" standalone="no"?>
<!DOCTYPE svg PUBLIC "-//W3C//DTD SVG 1.1//EN"
  "http://www.w3.org/Graphics/SVG/1.1/DTD/svg11.dtd">
<svg xmlns:xlink="http://www.w3.org/1999/xlink" width="517.026224pt" height="209.8225pt" viewBox="0 0 517.026224 209.8225" xmlns="http://www.w3.org/2000/svg" version="1.1">
 <metadata>
  <rdf:RDF xmlns:dc="http://purl.org/dc/elements/1.1/" xmlns:cc="http://creativecommons.org/ns#" xmlns:rdf="http://www.w3.org/1999/02/22-rdf-syntax-ns#">
   <cc:Work>
    <dc:type rdf:resource="http://purl.org/dc/dcmitype/StillImage"/>
    <dc:date>2024-04-16T18:07:45.138779</dc:date>
    <dc:format>image/svg+xml</dc:format>
    <dc:creator>
     <cc:Agent>
      <dc:title>Matplotlib v3.8.3, https://matplotlib.org/</dc:title>
     </cc:Agent>
    </dc:creator>
   </cc:Work>
  </rdf:RDF>
 </metadata>
 <defs>
  <style type="text/css">*{stroke-linejoin: round; stroke-linecap: butt}</style>
 </defs>
 <g id="figure_1">
  <g id="patch_1">
   <path d="M 0 209.8225 
L 517.026224 209.8225 
L 517.026224 0 
L 0 0 
L 0 209.8225 
z
" style="fill: none"/>
  </g>
  <g id="axes_1">
   <g id="patch_2">
    <path d="M 60.410938 163.91125 
L 506.810937 163.91125 
L 506.810937 25.31125 
L 60.410938 25.31125 
L 60.410938 163.91125 
z
" style="fill: none"/>
   </g>
   <g id="axes_2">
    <g id="patch_3">
     <path d="M 60.410938 163.91125 
L 506.810937 163.91125 
L 506.810937 163.91125 
L 60.410938 163.91125 
L 60.410938 163.91125 
z
" style="fill: none"/>
    </g>
    <g id="matplotlib.axis_1">
     <g id="xtick_1">
      <g id="line2d_1">
       <path d="M 105.097006 163.91125 
L 105.097006 163.91125 
" clip-path="url(#p0af1ab50b2)" style="fill: none; stroke-dasharray: 0.5,0.825; stroke-dashoffset: 0; stroke: #d9d9d9; stroke-width: 0.5"/>
      </g>
      <g id="text_1">
       <!-- March -->
       <g style="fill: #858d95" transform="translate(93.837631 201.11875) scale(0.08 -0.08)">
        <defs>
         <path id="Ubuntu-4d" d="M 2541 614 
Q 2477 768 2371 1005 
Q 2266 1242 2144 1517 
Q 2022 1792 1884 2083 
Q 1747 2374 1625 2633 
Q 1504 2893 1398 3097 
Q 1293 3302 1229 3411 
Q 1158 2656 1113 1776 
Q 1069 896 1037 0 
L 429 0 
Q 454 576 486 1161 
Q 518 1747 560 2313 
Q 602 2880 650 3417 
Q 698 3955 755 4435 
L 1299 4435 
Q 1472 4154 1670 3770 
Q 1869 3386 2067 2966 
Q 2266 2547 2451 2128 
Q 2637 1709 2790 1363 
Q 2944 1709 3129 2128 
Q 3315 2547 3513 2966 
Q 3712 3386 3910 3770 
Q 4109 4154 4282 4435 
L 4826 4435 
Q 5043 2291 5152 0 
L 4544 0 
Q 4512 896 4467 1776 
Q 4422 2656 4352 3411 
Q 4288 3302 4182 3097 
Q 4077 2893 3955 2633 
Q 3834 2374 3696 2083 
Q 3558 1792 3436 1517 
Q 3315 1242 3209 1005 
Q 3104 768 3040 614 
L 2541 614 
z
" transform="scale(0.015625)"/>
         <path id="Ubuntu-61" d="M 1638 429 
Q 1850 429 2013 438 
Q 2176 448 2285 474 
L 2285 1466 
Q 2221 1498 2077 1520 
Q 1933 1542 1728 1542 
Q 1594 1542 1443 1523 
Q 1293 1504 1168 1443 
Q 1043 1382 960 1276 
Q 877 1171 877 998 
Q 877 678 1081 553 
Q 1286 429 1638 429 
z
M 1587 3411 
Q 1946 3411 2192 3318 
Q 2438 3226 2588 3056 
Q 2739 2886 2803 2652 
Q 2867 2419 2867 2138 
L 2867 58 
Q 2790 45 2652 22 
Q 2515 0 2342 -19 
Q 2170 -38 1968 -54 
Q 1766 -70 1568 -70 
Q 1286 -70 1049 -12 
Q 813 45 640 169 
Q 467 294 371 499 
Q 275 704 275 992 
Q 275 1267 387 1465 
Q 499 1664 691 1785 
Q 883 1907 1139 1964 
Q 1395 2022 1677 2022 
Q 1766 2022 1862 2012 
Q 1958 2003 2044 1987 
Q 2131 1971 2195 1958 
Q 2259 1946 2285 1939 
L 2285 2106 
Q 2285 2253 2253 2397 
Q 2221 2541 2137 2653 
Q 2054 2765 1910 2832 
Q 1766 2899 1536 2899 
Q 1242 2899 1021 2857 
Q 800 2816 691 2771 
L 621 3264 
Q 736 3315 1005 3363 
Q 1274 3411 1587 3411 
z
" transform="scale(0.015625)"/>
         <path id="Ubuntu-72" d="M 1741 3398 
Q 1818 3398 1917 3388 
Q 2016 3379 2112 3363 
Q 2208 3347 2288 3331 
Q 2368 3315 2406 3302 
L 2304 2784 
Q 2234 2810 2070 2845 
Q 1907 2880 1651 2880 
Q 1485 2880 1321 2845 
Q 1158 2810 1107 2797 
L 1107 0 
L 512 0 
L 512 3187 
Q 723 3264 1036 3331 
Q 1350 3398 1741 3398 
z
" transform="scale(0.015625)"/>
         <path id="Ubuntu-63" d="M 1958 -77 
Q 1555 -77 1251 51 
Q 947 179 739 409 
Q 531 640 428 957 
Q 326 1274 326 1658 
Q 326 2042 438 2362 
Q 550 2682 755 2915 
Q 960 3149 1257 3280 
Q 1555 3411 1920 3411 
Q 2144 3411 2368 3372 
Q 2592 3334 2797 3251 
L 2662 2746 
Q 2528 2810 2352 2848 
Q 2176 2886 1978 2886 
Q 1478 2886 1212 2572 
Q 947 2259 947 1658 
Q 947 1389 1008 1165 
Q 1069 941 1200 781 
Q 1331 621 1536 534 
Q 1741 448 2035 448 
Q 2272 448 2464 493 
Q 2656 538 2765 589 
L 2848 90 
Q 2797 58 2701 29 
Q 2605 0 2483 -22 
Q 2362 -45 2224 -61 
Q 2086 -77 1958 -77 
z
" transform="scale(0.015625)"/>
         <path id="Ubuntu-68" d="M 512 0 
L 512 4864 
L 1107 4966 
L 1107 3264 
Q 1274 3328 1462 3363 
Q 1651 3398 1837 3398 
Q 2234 3398 2496 3286 
Q 2758 3174 2915 2972 
Q 3072 2771 3136 2489 
Q 3200 2208 3200 1869 
L 3200 0 
L 2605 0 
L 2605 1741 
Q 2605 2048 2563 2265 
Q 2522 2483 2426 2617 
Q 2330 2752 2170 2813 
Q 2010 2874 1773 2874 
Q 1677 2874 1574 2861 
Q 1472 2848 1379 2832 
Q 1286 2816 1212 2797 
Q 1139 2778 1107 2765 
L 1107 0 
L 512 0 
z
" transform="scale(0.015625)"/>
        </defs>
        <use xlink:href="#Ubuntu-4d"/>
        <use xlink:href="#Ubuntu-61" x="87.099991"/>
        <use xlink:href="#Ubuntu-72" x="139.299988"/>
        <use xlink:href="#Ubuntu-63" x="177.899979"/>
        <use xlink:href="#Ubuntu-68" x="224.399963"/>
       </g>
      </g>
     </g>
     <g id="xtick_2">
      <g id="line2d_2">
       <path d="M 194.353972 163.91125 
L 194.353972 163.91125 
" clip-path="url(#p0af1ab50b2)" style="fill: none; stroke-dasharray: 0.5,0.825; stroke-dashoffset: 0; stroke: #d9d9d9; stroke-width: 0.5"/>
      </g>
      <g id="text_2">
       <!-- April -->
       <g style="fill: #858d95" transform="translate(185.698347 201.11875) scale(0.08 -0.08)">
        <defs>
         <path id="Ubuntu-41" d="M 3514 0 
Q 3405 288 3309 566 
Q 3213 845 3110 1133 
L 1101 1133 
L 698 0 
L 51 0 
Q 307 704 531 1302 
Q 755 1901 969 2438 
Q 1184 2976 1395 3465 
Q 1606 3955 1837 4435 
L 2406 4435 
Q 2637 3955 2848 3465 
Q 3059 2976 3273 2438 
Q 3488 1901 3712 1302 
Q 3936 704 4192 0 
L 3514 0 
z
M 2931 1645 
Q 2726 2202 2524 2723 
Q 2323 3245 2106 3725 
Q 1882 3245 1680 2723 
Q 1478 2202 1280 1645 
L 2931 1645 
z
" transform="scale(0.015625)"/>
         <path id="Ubuntu-70" d="M 2822 1658 
Q 2822 2240 2534 2553 
Q 2246 2867 1766 2867 
Q 1498 2867 1347 2848 
Q 1197 2829 1107 2803 
L 1107 704 
Q 1216 614 1421 531 
Q 1626 448 1869 448 
Q 2125 448 2307 541 
Q 2490 634 2605 797 
Q 2720 960 2771 1181 
Q 2822 1402 2822 1658 
z
M 3443 1658 
Q 3443 1280 3344 960 
Q 3245 640 3053 409 
Q 2861 179 2582 51 
Q 2304 -77 1946 -77 
Q 1658 -77 1437 0 
Q 1216 77 1107 147 
L 1107 -1184 
L 512 -1184 
L 512 3226 
Q 723 3277 1040 3337 
Q 1357 3398 1773 3398 
Q 2157 3398 2464 3276 
Q 2771 3155 2988 2931 
Q 3206 2707 3324 2384 
Q 3443 2061 3443 1658 
z
" transform="scale(0.015625)"/>
         <path id="Ubuntu-69" d="M 1107 0 
L 512 0 
L 512 3328 
L 1107 3328 
L 1107 0 
z
M 806 3930 
Q 646 3930 534 4035 
Q 422 4141 422 4320 
Q 422 4499 534 4604 
Q 646 4710 806 4710 
Q 966 4710 1078 4604 
Q 1190 4499 1190 4320 
Q 1190 4141 1078 4035 
Q 966 3930 806 3930 
z
" transform="scale(0.015625)"/>
         <path id="Ubuntu-6c" d="M 1510 -64 
Q 960 -51 729 173 
Q 499 397 499 870 
L 499 4864 
L 1094 4966 
L 1094 966 
Q 1094 819 1120 723 
Q 1146 627 1203 569 
Q 1261 512 1357 483 
Q 1453 454 1594 435 
L 1510 -64 
z
" transform="scale(0.015625)"/>
        </defs>
        <use xlink:href="#Ubuntu-41"/>
        <use xlink:href="#Ubuntu-70" x="66.299988"/>
        <use xlink:href="#Ubuntu-72" x="125.199982"/>
        <use xlink:href="#Ubuntu-69" x="163.799973"/>
        <use xlink:href="#Ubuntu-6c" x="189.09996"/>
       </g>
      </g>
     </g>
     <g id="xtick_3">
      <g id="line2d_3">
       <path d="M 280.731681 163.91125 
L 280.731681 163.91125 
" clip-path="url(#p0af1ab50b2)" style="fill: none; stroke-dasharray: 0.5,0.825; stroke-dashoffset: 0; stroke: #d9d9d9; stroke-width: 0.5"/>
      </g>
      <g id="text_3">
       <!-- May -->
       <g style="fill: #858d95" transform="translate(273.231681 201.095) scale(0.08 -0.08)">
        <defs>
         <path id="Ubuntu-79" d="M 122 -621 
Q 192 -653 304 -681 
Q 416 -710 525 -710 
Q 877 -710 1075 -553 
Q 1274 -397 1434 -45 
Q 1030 723 681 1584 
Q 333 2445 102 3328 
L 742 3328 
Q 813 3040 912 2707 
Q 1011 2374 1132 2022 
Q 1254 1670 1395 1318 
Q 1536 966 1690 640 
Q 1933 1312 2112 1971 
Q 2291 2630 2451 3328 
L 3066 3328 
Q 2835 2387 2553 1520 
Q 2272 653 1946 -102 
Q 1818 -390 1680 -598 
Q 1542 -806 1376 -940 
Q 1210 -1075 1002 -1139 
Q 794 -1203 531 -1203 
Q 461 -1203 384 -1193 
Q 307 -1184 233 -1168 
Q 160 -1152 99 -1133 
Q 38 -1114 13 -1101 
L 122 -621 
z
" transform="scale(0.015625)"/>
        </defs>
        <use xlink:href="#Ubuntu-4d"/>
        <use xlink:href="#Ubuntu-61" x="87.099991"/>
        <use xlink:href="#Ubuntu-79" x="137.799988"/>
       </g>
      </g>
     </g>
     <g id="xtick_4">
      <g id="line2d_4">
       <path d="M 369.988646 163.91125 
L 369.988646 163.91125 
" clip-path="url(#p0af1ab50b2)" style="fill: none; stroke-dasharray: 0.5,0.825; stroke-dashoffset: 0; stroke: #d9d9d9; stroke-width: 0.5"/>
      </g>
      <g id="text_4">
       <!-- June -->
       <g style="fill: #858d95" transform="translate(361.159896 201.11875) scale(0.08 -0.08)">
        <defs>
         <path id="Ubuntu-4a" d="M 2682 1427 
Q 2682 1107 2614 832 
Q 2547 557 2377 349 
Q 2208 141 1923 22 
Q 1638 -96 1210 -96 
Q 992 -96 809 -61 
Q 627 -26 480 28 
Q 333 83 224 144 
Q 115 205 51 262 
L 294 755 
Q 429 659 643 553 
Q 858 448 1178 448 
Q 1638 448 1849 681 
Q 2061 915 2061 1485 
L 2061 4435 
L 2682 4435 
L 2682 1427 
z
" transform="scale(0.015625)"/>
         <path id="Ubuntu-75" d="M 3162 96 
Q 2957 45 2621 -12 
Q 2285 -70 1843 -70 
Q 1459 -70 1196 42 
Q 934 154 774 358 
Q 614 563 544 841 
Q 474 1120 474 1459 
L 474 3328 
L 1069 3328 
L 1069 1587 
Q 1069 979 1261 716 
Q 1453 454 1907 454 
Q 2003 454 2105 460 
Q 2208 467 2297 476 
Q 2387 486 2460 496 
Q 2534 506 2566 518 
L 2566 3328 
L 3162 3328 
L 3162 96 
z
" transform="scale(0.015625)"/>
         <path id="Ubuntu-6e" d="M 512 3232 
Q 717 3283 1056 3340 
Q 1395 3398 1837 3398 
Q 2234 3398 2496 3286 
Q 2758 3174 2915 2972 
Q 3072 2771 3136 2489 
Q 3200 2208 3200 1869 
L 3200 0 
L 2605 0 
L 2605 1741 
Q 2605 2048 2563 2265 
Q 2522 2483 2426 2617 
Q 2330 2752 2170 2813 
Q 2010 2874 1773 2874 
Q 1677 2874 1574 2867 
Q 1472 2861 1379 2851 
Q 1286 2842 1212 2829 
Q 1139 2816 1107 2810 
L 1107 0 
L 512 0 
L 512 3232 
z
" transform="scale(0.015625)"/>
         <path id="Ubuntu-65" d="M 326 1658 
Q 326 2099 454 2428 
Q 582 2758 793 2976 
Q 1005 3194 1280 3302 
Q 1555 3411 1843 3411 
Q 2515 3411 2873 2992 
Q 3232 2573 3232 1715 
Q 3232 1677 3232 1616 
Q 3232 1555 3226 1504 
L 947 1504 
Q 986 986 1248 717 
Q 1510 448 2067 448 
Q 2381 448 2595 502 
Q 2810 557 2918 608 
L 3002 109 
Q 2893 51 2621 -13 
Q 2349 -77 2003 -77 
Q 1568 -77 1251 54 
Q 934 186 729 416 
Q 525 646 425 963 
Q 326 1280 326 1658 
z
M 2611 1984 
Q 2618 2387 2410 2646 
Q 2202 2906 1837 2906 
Q 1632 2906 1475 2826 
Q 1318 2746 1209 2618 
Q 1101 2490 1040 2323 
Q 979 2157 960 1984 
L 2611 1984 
z
" transform="scale(0.015625)"/>
        </defs>
        <use xlink:href="#Ubuntu-4a"/>
        <use xlink:href="#Ubuntu-75" x="49.999985"/>
        <use xlink:href="#Ubuntu-6e" x="107.399979"/>
        <use xlink:href="#Ubuntu-65" x="164.799973"/>
       </g>
      </g>
     </g>
     <g id="xtick_5">
      <g id="line2d_5">
       <path d="M 456.366355 163.91125 
L 456.366355 163.91125 
" clip-path="url(#p0af1ab50b2)" style="fill: none; stroke-dasharray: 0.5,0.825; stroke-dashoffset: 0; stroke: #d9d9d9; stroke-width: 0.5"/>
      </g>
      <g id="text_5">
       <!-- July -->
       <g style="fill: #858d95" transform="translate(448.990105 201.11875) scale(0.08 -0.08)">
        <use xlink:href="#Ubuntu-4a"/>
        <use xlink:href="#Ubuntu-75" x="49.999985"/>
        <use xlink:href="#Ubuntu-6c" x="107.399979"/>
        <use xlink:href="#Ubuntu-79" x="134.699966"/>
       </g>
      </g>
     </g>
    </g>
    <g id="matplotlib.axis_2"/>
   </g>
   <g id="matplotlib.axis_3">
    <g id="xtick_6">
     <g id="line2d_6">
      <defs>
       <path id="m797337712b" d="M 0 0 
L 0 3 
" style="stroke: #aaaaaa; stroke-width: 0.75"/>
      </defs>
      <g>
       <use xlink:href="#m797337712b" x="64.787408" y="173.91125" style="fill: #aaaaaa; stroke: #aaaaaa; stroke-width: 0.75"/>
      </g>
     </g>
     <g id="text_6">
      <!-- 01 -->
      <g style="fill: #808080" transform="translate(60.274908 189.11875) scale(0.08 -0.08)">
       <defs>
        <path id="Ubuntu-30" d="M 320 2221 
Q 320 3334 713 3936 
Q 1107 4538 1805 4538 
Q 2502 4538 2896 3936 
Q 3290 3334 3290 2221 
Q 3290 1107 2896 505 
Q 2502 -96 1805 -96 
Q 1107 -96 713 505 
Q 320 1107 320 2221 
z
M 2662 2221 
Q 2662 2586 2620 2912 
Q 2579 3238 2480 3481 
Q 2381 3725 2214 3869 
Q 2048 4013 1805 4013 
Q 1562 4013 1395 3869 
Q 1229 3725 1129 3481 
Q 1030 3238 988 2912 
Q 947 2586 947 2221 
Q 947 1856 988 1529 
Q 1030 1203 1129 960 
Q 1229 717 1395 573 
Q 1562 429 1805 429 
Q 2048 429 2214 573 
Q 2381 717 2480 960 
Q 2579 1203 2620 1529 
Q 2662 1856 2662 2221 
z
" transform="scale(0.015625)"/>
        <path id="Ubuntu-31" d="M 595 3520 
Q 960 3661 1305 3881 
Q 1651 4102 1939 4435 
L 2362 4435 
L 2362 0 
L 1766 0 
L 1766 3610 
Q 1690 3539 1578 3462 
Q 1466 3386 1334 3315 
Q 1203 3245 1059 3181 
Q 915 3117 781 3072 
L 595 3520 
z
" transform="scale(0.015625)"/>
       </defs>
       <use xlink:href="#Ubuntu-30"/>
       <use xlink:href="#Ubuntu-31" x="56.399994"/>
      </g>
     </g>
    </g>
    <g id="xtick_7">
     <g id="line2d_7">
      <g>
       <use xlink:href="#m797337712b" x="90.700721" y="173.91125" style="fill: #aaaaaa; stroke: #aaaaaa; stroke-width: 0.75"/>
      </g>
     </g>
     <g id="text_7">
      <!-- 10 -->
      <g style="fill: #808080" transform="translate(86.188221 189.11875) scale(0.08 -0.08)">
       <use xlink:href="#Ubuntu-31"/>
       <use xlink:href="#Ubuntu-30" x="56.399994"/>
      </g>
     </g>
    </g>
    <g id="xtick_8">
     <g id="line2d_8">
      <g>
       <use xlink:href="#m797337712b" x="119.49329" y="173.91125" style="fill: #aaaaaa; stroke: #aaaaaa; stroke-width: 0.75"/>
      </g>
     </g>
     <g id="text_8">
      <!-- 20 -->
      <g style="fill: #808080" transform="translate(114.98079 189.11875) scale(0.08 -0.08)">
       <defs>
        <path id="Ubuntu-32" d="M 2989 3302 
Q 2989 3072 2896 2857 
Q 2803 2643 2649 2435 
Q 2496 2227 2304 2025 
Q 2112 1824 1920 1632 
Q 1811 1523 1667 1376 
Q 1523 1229 1395 1069 
Q 1267 909 1180 761 
Q 1094 614 1094 506 
L 3136 506 
L 3136 0 
L 448 0 
Q 442 38 442 76 
Q 442 115 442 147 
Q 442 448 541 707 
Q 640 966 800 1196 
Q 960 1427 1158 1632 
Q 1357 1837 1549 2029 
Q 1709 2182 1853 2332 
Q 1997 2483 2109 2633 
Q 2221 2784 2288 2944 
Q 2355 3104 2355 3283 
Q 2355 3475 2294 3609 
Q 2234 3744 2131 3833 
Q 2029 3923 1891 3964 
Q 1754 4006 1600 4006 
Q 1414 4006 1260 3955 
Q 1107 3904 985 3837 
Q 864 3770 781 3696 
Q 698 3622 653 3584 
L 358 4006 
Q 416 4070 531 4163 
Q 646 4256 806 4339 
Q 966 4422 1164 4480 
Q 1363 4538 1594 4538 
Q 2291 4538 2640 4214 
Q 2989 3891 2989 3302 
z
" transform="scale(0.015625)"/>
       </defs>
       <use xlink:href="#Ubuntu-32"/>
       <use xlink:href="#Ubuntu-30" x="56.399994"/>
      </g>
     </g>
    </g>
    <g id="xtick_9">
     <g id="line2d_9">
      <g>
       <use xlink:href="#m797337712b" x="154.044374" y="173.91125" style="fill: #aaaaaa; stroke: #aaaaaa; stroke-width: 0.75"/>
      </g>
     </g>
     <g id="text_9">
      <!-- 01 -->
      <g style="fill: #808080" transform="translate(149.531874 189.11875) scale(0.08 -0.08)">
       <use xlink:href="#Ubuntu-30"/>
       <use xlink:href="#Ubuntu-31" x="56.399994"/>
      </g>
     </g>
    </g>
    <g id="xtick_10">
     <g id="line2d_10">
      <g>
       <use xlink:href="#m797337712b" x="179.957687" y="173.91125" style="fill: #aaaaaa; stroke: #aaaaaa; stroke-width: 0.75"/>
      </g>
     </g>
     <g id="text_10">
      <!-- 10 -->
      <g style="fill: #808080" transform="translate(175.445187 189.11875) scale(0.08 -0.08)">
       <use xlink:href="#Ubuntu-31"/>
       <use xlink:href="#Ubuntu-30" x="56.399994"/>
      </g>
     </g>
    </g>
    <g id="xtick_11">
     <g id="line2d_11">
      <g>
       <use xlink:href="#m797337712b" x="208.750256" y="173.91125" style="fill: #aaaaaa; stroke: #aaaaaa; stroke-width: 0.75"/>
      </g>
     </g>
     <g id="text_11">
      <!-- 20 -->
      <g style="fill: #808080" transform="translate(204.237756 189.11875) scale(0.08 -0.08)">
       <use xlink:href="#Ubuntu-32"/>
       <use xlink:href="#Ubuntu-30" x="56.399994"/>
      </g>
     </g>
    </g>
    <g id="xtick_12">
     <g id="line2d_12">
      <g>
       <use xlink:href="#m797337712b" x="240.422083" y="173.91125" style="fill: #aaaaaa; stroke: #aaaaaa; stroke-width: 0.75"/>
      </g>
     </g>
     <g id="text_12">
      <!-- 01 -->
      <g style="fill: #808080" transform="translate(235.909583 189.11875) scale(0.08 -0.08)">
       <use xlink:href="#Ubuntu-30"/>
       <use xlink:href="#Ubuntu-31" x="56.399994"/>
      </g>
     </g>
    </g>
    <g id="xtick_13">
     <g id="line2d_13">
      <g>
       <use xlink:href="#m797337712b" x="266.335396" y="173.91125" style="fill: #aaaaaa; stroke: #aaaaaa; stroke-width: 0.75"/>
      </g>
     </g>
     <g id="text_13">
      <!-- 10 -->
      <g style="fill: #808080" transform="translate(261.822896 189.11875) scale(0.08 -0.08)">
       <use xlink:href="#Ubuntu-31"/>
       <use xlink:href="#Ubuntu-30" x="56.399994"/>
      </g>
     </g>
    </g>
    <g id="xtick_14">
     <g id="line2d_14">
      <g>
       <use xlink:href="#m797337712b" x="295.127965" y="173.91125" style="fill: #aaaaaa; stroke: #aaaaaa; stroke-width: 0.75"/>
      </g>
     </g>
     <g id="text_14">
      <!-- 20 -->
      <g style="fill: #808080" transform="translate(290.615465 189.11875) scale(0.08 -0.08)">
       <use xlink:href="#Ubuntu-32"/>
       <use xlink:href="#Ubuntu-30" x="56.399994"/>
      </g>
     </g>
    </g>
    <g id="xtick_15">
     <g id="line2d_15">
      <g>
       <use xlink:href="#m797337712b" x="329.679049" y="173.91125" style="fill: #aaaaaa; stroke: #aaaaaa; stroke-width: 0.75"/>
      </g>
     </g>
     <g id="text_15">
      <!-- 01 -->
      <g style="fill: #808080" transform="translate(325.166549 189.11875) scale(0.08 -0.08)">
       <use xlink:href="#Ubuntu-30"/>
       <use xlink:href="#Ubuntu-31" x="56.399994"/>
      </g>
     </g>
    </g>
    <g id="xtick_16">
     <g id="line2d_16">
      <g>
       <use xlink:href="#m797337712b" x="355.592362" y="173.91125" style="fill: #aaaaaa; stroke: #aaaaaa; stroke-width: 0.75"/>
      </g>
     </g>
     <g id="text_16">
      <!-- 10 -->
      <g style="fill: #808080" transform="translate(351.079862 189.11875) scale(0.08 -0.08)">
       <use xlink:href="#Ubuntu-31"/>
       <use xlink:href="#Ubuntu-30" x="56.399994"/>
      </g>
     </g>
    </g>
    <g id="xtick_17">
     <g id="line2d_17">
      <g>
       <use xlink:href="#m797337712b" x="384.384931" y="173.91125" style="fill: #aaaaaa; stroke: #aaaaaa; stroke-width: 0.75"/>
      </g>
     </g>
     <g id="text_17">
      <!-- 20 -->
      <g style="fill: #808080" transform="translate(379.872431 189.11875) scale(0.08 -0.08)">
       <use xlink:href="#Ubuntu-32"/>
       <use xlink:href="#Ubuntu-30" x="56.399994"/>
      </g>
     </g>
    </g>
    <g id="xtick_18">
     <g id="line2d_18">
      <g>
       <use xlink:href="#m797337712b" x="416.056758" y="173.91125" style="fill: #aaaaaa; stroke: #aaaaaa; stroke-width: 0.75"/>
      </g>
     </g>
     <g id="text_18">
      <!-- 01 -->
      <g style="fill: #808080" transform="translate(411.544258 189.11875) scale(0.08 -0.08)">
       <use xlink:href="#Ubuntu-30"/>
       <use xlink:href="#Ubuntu-31" x="56.399994"/>
      </g>
     </g>
    </g>
    <g id="xtick_19">
     <g id="line2d_19">
      <g>
       <use xlink:href="#m797337712b" x="441.970071" y="173.91125" style="fill: #aaaaaa; stroke: #aaaaaa; stroke-width: 0.75"/>
      </g>
     </g>
     <g id="text_19">
      <!-- 10 -->
      <g style="fill: #808080" transform="translate(437.457571 189.11875) scale(0.08 -0.08)">
       <use xlink:href="#Ubuntu-31"/>
       <use xlink:href="#Ubuntu-30" x="56.399994"/>
      </g>
     </g>
    </g>
    <g id="xtick_20">
     <g id="line2d_20">
      <g>
       <use xlink:href="#m797337712b" x="470.76264" y="173.91125" style="fill: #aaaaaa; stroke: #aaaaaa; stroke-width: 0.75"/>
      </g>
     </g>
     <g id="text_20">
      <!-- 20 -->
      <g style="fill: #808080" transform="translate(466.25014 189.11875) scale(0.08 -0.08)">
       <use xlink:href="#Ubuntu-32"/>
       <use xlink:href="#Ubuntu-30" x="56.399994"/>
      </g>
     </g>
    </g>
    <g id="xtick_21">
     <g id="line2d_21">
      <g>
       <use xlink:href="#m797337712b" x="505.313724" y="173.91125" style="fill: #aaaaaa; stroke: #aaaaaa; stroke-width: 0.75"/>
      </g>
     </g>
     <g id="text_21">
      <!-- 01 -->
      <g style="fill: #808080" transform="translate(500.801224 189.11875) scale(0.08 -0.08)">
       <use xlink:href="#Ubuntu-30"/>
       <use xlink:href="#Ubuntu-31" x="56.399994"/>
      </g>
     </g>
    </g>
   </g>
   <g id="matplotlib.axis_4">
    <g id="ytick_1">
     <g id="line2d_22">
      <defs>
       <path id="m690f4a788c" d="M 0 0 
L -3 0 
" style="stroke: #aaaaaa; stroke-width: 0.75"/>
      </defs>
      <g>
       <use xlink:href="#m690f4a788c" x="55.410938" y="163.91125" style="fill: #aaaaaa; stroke: #aaaaaa; stroke-width: 0.75"/>
      </g>
     </g>
     <g id="text_22">
      <!-- 25000 -->
      <g style="fill: #808080" transform="translate(23.848438 167.015) scale(0.08 -0.08)">
       <defs>
        <path id="Ubuntu-35" d="M 1274 2726 
Q 2240 2688 2691 2304 
Q 3142 1920 3142 1261 
Q 3142 966 3043 716 
Q 2944 467 2742 288 
Q 2541 109 2233 6 
Q 1926 -96 1504 -96 
Q 1338 -96 1165 -70 
Q 992 -45 845 -6 
Q 698 32 582 70 
Q 467 109 416 134 
L 531 653 
Q 640 602 886 518 
Q 1133 435 1491 435 
Q 1779 435 1974 499 
Q 2170 563 2291 672 
Q 2413 781 2467 925 
Q 2522 1069 2522 1229 
Q 2522 1472 2438 1661 
Q 2355 1850 2144 1978 
Q 1933 2106 1581 2173 
Q 1229 2240 691 2240 
Q 730 2554 752 2829 
Q 774 3104 793 3366 
Q 813 3629 825 3888 
Q 838 4147 851 4435 
L 2989 4435 
L 2989 3930 
L 1370 3930 
Q 1363 3834 1350 3670 
Q 1338 3507 1325 3331 
Q 1312 3155 1299 2988 
Q 1286 2822 1274 2726 
z
" transform="scale(0.015625)"/>
       </defs>
       <use xlink:href="#Ubuntu-32"/>
       <use xlink:href="#Ubuntu-35" x="56.399994"/>
       <use xlink:href="#Ubuntu-30" x="112.799988"/>
       <use xlink:href="#Ubuntu-30" x="169.199982"/>
       <use xlink:href="#Ubuntu-30" x="225.599976"/>
      </g>
     </g>
    </g>
    <g id="ytick_2">
     <g id="line2d_23">
      <g>
       <use xlink:href="#m690f4a788c" x="55.410938" y="140.816685" style="fill: #aaaaaa; stroke: #aaaaaa; stroke-width: 0.75"/>
      </g>
     </g>
     <g id="text_23">
      <!-- 27500 -->
      <g style="fill: #808080" transform="translate(23.848438 143.920435) scale(0.08 -0.08)">
       <defs>
        <path id="Ubuntu-37" d="M 1043 0 
Q 1082 512 1226 1078 
Q 1370 1645 1581 2179 
Q 1792 2714 2045 3171 
Q 2298 3629 2541 3917 
L 384 3917 
L 384 4435 
L 3206 4435 
L 3206 3942 
Q 2995 3699 2739 3273 
Q 2483 2848 2256 2320 
Q 2029 1792 1865 1193 
Q 1702 595 1664 0 
L 1043 0 
z
" transform="scale(0.015625)"/>
       </defs>
       <use xlink:href="#Ubuntu-32"/>
       <use xlink:href="#Ubuntu-37" x="56.399994"/>
       <use xlink:href="#Ubuntu-35" x="112.799988"/>
       <use xlink:href="#Ubuntu-30" x="169.199982"/>
       <use xlink:href="#Ubuntu-30" x="225.599976"/>
      </g>
     </g>
    </g>
    <g id="ytick_3">
     <g id="line2d_24">
      <g>
       <use xlink:href="#m690f4a788c" x="55.410938" y="117.722121" style="fill: #aaaaaa; stroke: #aaaaaa; stroke-width: 0.75"/>
      </g>
     </g>
     <g id="text_24">
      <!-- 30000 -->
      <g style="fill: #808080" transform="translate(23.848438 120.825871) scale(0.08 -0.08)">
       <defs>
        <path id="Ubuntu-33" d="M 1446 435 
Q 2016 435 2262 659 
Q 2509 883 2509 1261 
Q 2509 1504 2406 1670 
Q 2304 1837 2137 1936 
Q 1971 2035 1750 2076 
Q 1530 2118 1299 2118 
L 1146 2118 
L 1146 2605 
L 1357 2605 
Q 1517 2605 1686 2637 
Q 1856 2669 1997 2752 
Q 2138 2835 2227 2979 
Q 2317 3123 2317 3341 
Q 2317 3520 2253 3648 
Q 2189 3776 2083 3859 
Q 1978 3942 1840 3977 
Q 1702 4013 1549 4013 
Q 1242 4013 1027 3923 
Q 813 3834 666 3738 
L 435 4192 
Q 512 4243 630 4304 
Q 749 4365 896 4416 
Q 1043 4467 1212 4502 
Q 1382 4538 1568 4538 
Q 1920 4538 2176 4451 
Q 2432 4365 2598 4208 
Q 2765 4051 2848 3836 
Q 2931 3622 2931 3373 
Q 2931 3027 2732 2780 
Q 2534 2534 2253 2406 
Q 2426 2355 2586 2259 
Q 2746 2163 2864 2016 
Q 2982 1869 3056 1677 
Q 3130 1485 3130 1248 
Q 3130 960 3030 713 
Q 2931 467 2723 288 
Q 2515 109 2201 6 
Q 1888 -96 1459 -96 
Q 1293 -96 1117 -70 
Q 941 -45 787 -6 
Q 634 32 518 70 
Q 403 109 352 134 
L 467 653 
Q 576 602 829 518 
Q 1082 435 1446 435 
z
" transform="scale(0.015625)"/>
       </defs>
       <use xlink:href="#Ubuntu-33"/>
       <use xlink:href="#Ubuntu-30" x="56.399994"/>
       <use xlink:href="#Ubuntu-30" x="112.799988"/>
       <use xlink:href="#Ubuntu-30" x="169.199982"/>
       <use xlink:href="#Ubuntu-30" x="225.599976"/>
      </g>
     </g>
    </g>
    <g id="ytick_4">
     <g id="line2d_25">
      <g>
       <use xlink:href="#m690f4a788c" x="55.410938" y="94.627556" style="fill: #aaaaaa; stroke: #aaaaaa; stroke-width: 0.75"/>
      </g>
     </g>
     <g id="text_25">
      <!-- 32500 -->
      <g style="fill: #808080" transform="translate(23.848438 97.731306) scale(0.08 -0.08)">
       <use xlink:href="#Ubuntu-33"/>
       <use xlink:href="#Ubuntu-32" x="56.399994"/>
       <use xlink:href="#Ubuntu-35" x="112.799988"/>
       <use xlink:href="#Ubuntu-30" x="169.199982"/>
       <use xlink:href="#Ubuntu-30" x="225.599976"/>
      </g>
     </g>
    </g>
    <g id="ytick_5">
     <g id="line2d_26">
      <g>
       <use xlink:href="#m690f4a788c" x="55.410938" y="71.532992" style="fill: #aaaaaa; stroke: #aaaaaa; stroke-width: 0.75"/>
      </g>
     </g>
     <g id="text_26">
      <!-- 35000 -->
      <g style="fill: #808080" transform="translate(23.848438 74.636742) scale(0.08 -0.08)">
       <use xlink:href="#Ubuntu-33"/>
       <use xlink:href="#Ubuntu-35" x="56.399994"/>
       <use xlink:href="#Ubuntu-30" x="112.799988"/>
       <use xlink:href="#Ubuntu-30" x="169.199982"/>
       <use xlink:href="#Ubuntu-30" x="225.599976"/>
      </g>
     </g>
    </g>
    <g id="ytick_6">
     <g id="line2d_27">
      <g>
       <use xlink:href="#m690f4a788c" x="55.410938" y="48.438427" style="fill: #aaaaaa; stroke: #aaaaaa; stroke-width: 0.75"/>
      </g>
     </g>
     <g id="text_27">
      <!-- 37500 -->
      <g style="fill: #808080" transform="translate(23.848438 51.542177) scale(0.08 -0.08)">
       <use xlink:href="#Ubuntu-33"/>
       <use xlink:href="#Ubuntu-37" x="56.399994"/>
       <use xlink:href="#Ubuntu-35" x="112.799988"/>
       <use xlink:href="#Ubuntu-30" x="169.199982"/>
       <use xlink:href="#Ubuntu-30" x="225.599976"/>
      </g>
     </g>
    </g>
    <g id="ytick_7">
     <g id="line2d_28">
      <g>
       <use xlink:href="#m690f4a788c" x="55.410938" y="25.343863" style="fill: #aaaaaa; stroke: #aaaaaa; stroke-width: 0.75"/>
      </g>
     </g>
     <g id="text_28">
      <!-- 40000 -->
      <g style="fill: #808080" transform="translate(23.848438 28.447613) scale(0.08 -0.08)">
       <defs>
        <path id="Ubuntu-34" d="M 256 1536 
Q 378 1818 589 2192 
Q 800 2566 1065 2963 
Q 1331 3360 1635 3744 
Q 1939 4128 2246 4435 
L 2816 4435 
L 2816 1619 
L 3341 1619 
L 3341 1133 
L 2816 1133 
L 2816 0 
L 2240 0 
L 2240 1133 
L 256 1133 
L 256 1536 
z
M 2240 3731 
Q 2048 3526 1853 3273 
Q 1658 3021 1472 2745 
Q 1286 2470 1123 2182 
Q 960 1894 832 1619 
L 2240 1619 
L 2240 3731 
z
" transform="scale(0.015625)"/>
       </defs>
       <use xlink:href="#Ubuntu-34"/>
       <use xlink:href="#Ubuntu-30" x="56.399994"/>
       <use xlink:href="#Ubuntu-30" x="112.799988"/>
       <use xlink:href="#Ubuntu-30" x="169.199982"/>
       <use xlink:href="#Ubuntu-30" x="225.599976"/>
      </g>
     </g>
    </g>
    <g id="text_29">
     <!-- target1 -->
     <g style="fill: #505050" transform="translate(14.156719 57.524219) rotate(-90) scale(0.09 -0.09)">
      <defs>
       <path id="Ubuntu-Bold-74" d="M 416 4205 
L 1370 4358 
L 1370 3366 
L 2515 3366 
L 2515 2573 
L 1370 2573 
L 1370 1389 
Q 1370 1088 1475 909 
Q 1581 730 1901 730 
Q 2054 730 2217 758 
Q 2381 787 2515 838 
L 2650 96 
Q 2477 26 2265 -25 
Q 2054 -77 1747 -77 
Q 1357 -77 1101 28 
Q 845 134 691 323 
Q 538 512 477 781 
Q 416 1050 416 1376 
L 416 4205 
z
" transform="scale(0.015625)"/>
       <path id="Ubuntu-Bold-61" d="M 1734 666 
Q 1875 666 2003 672 
Q 2131 678 2208 691 
L 2208 1414 
Q 2150 1427 2035 1440 
Q 1920 1453 1824 1453 
Q 1690 1453 1571 1437 
Q 1453 1421 1363 1376 
Q 1274 1331 1222 1254 
Q 1171 1178 1171 1062 
Q 1171 838 1321 752 
Q 1472 666 1734 666 
z
M 1658 3456 
Q 2080 3456 2361 3360 
Q 2643 3264 2812 3085 
Q 2982 2906 3052 2650 
Q 3123 2394 3123 2080 
L 3123 96 
Q 2918 51 2553 -9 
Q 2189 -70 1670 -70 
Q 1344 -70 1078 -12 
Q 813 45 621 176 
Q 429 307 326 518 
Q 224 730 224 1037 
Q 224 1331 342 1536 
Q 461 1741 659 1862 
Q 858 1984 1114 2038 
Q 1370 2093 1645 2093 
Q 1830 2093 1974 2077 
Q 2118 2061 2208 2035 
L 2208 2125 
Q 2208 2368 2061 2515 
Q 1914 2662 1549 2662 
Q 1306 2662 1069 2627 
Q 832 2592 659 2528 
L 538 3296 
Q 621 3322 745 3350 
Q 870 3379 1017 3401 
Q 1165 3424 1328 3440 
Q 1491 3456 1658 3456 
z
" transform="scale(0.015625)"/>
       <path id="Ubuntu-Bold-72" d="M 2477 2522 
Q 2349 2554 2176 2589 
Q 2003 2624 1805 2624 
Q 1715 2624 1590 2608 
Q 1466 2592 1402 2573 
L 1402 0 
L 448 0 
L 448 3187 
Q 704 3277 1053 3357 
Q 1402 3437 1830 3437 
Q 1907 3437 2016 3427 
Q 2125 3418 2233 3402 
Q 2342 3386 2451 3363 
Q 2560 3341 2637 3309 
L 2477 2522 
z
" transform="scale(0.015625)"/>
       <path id="Ubuntu-Bold-67" d="M 1261 1792 
Q 1261 992 1907 992 
Q 2054 992 2182 1030 
Q 2310 1069 2400 1120 
L 2400 2643 
Q 2330 2656 2234 2665 
Q 2138 2675 2010 2675 
Q 1632 2675 1446 2425 
Q 1261 2176 1261 1792 
z
M 3354 422 
Q 3354 -403 2934 -803 
Q 2515 -1203 1638 -1203 
Q 1331 -1203 1024 -1148 
Q 717 -1094 454 -1005 
L 621 -205 
Q 845 -294 1091 -345 
Q 1338 -397 1651 -397 
Q 2061 -397 2230 -217 
Q 2400 -38 2400 243 
L 2400 365 
Q 2246 294 2083 259 
Q 1920 224 1728 224 
Q 1030 224 659 637 
Q 288 1050 288 1792 
Q 288 2163 403 2467 
Q 518 2771 739 2988 
Q 960 3206 1280 3324 
Q 1600 3443 2003 3443 
Q 2176 3443 2358 3427 
Q 2541 3411 2720 3385 
Q 2899 3360 3062 3325 
Q 3226 3290 3354 3251 
L 3354 422 
z
" transform="scale(0.015625)"/>
       <path id="Ubuntu-Bold-65" d="M 288 1658 
Q 288 2106 425 2442 
Q 563 2778 787 3002 
Q 1011 3226 1302 3341 
Q 1594 3456 1901 3456 
Q 2618 3456 3034 3017 
Q 3450 2579 3450 1728 
Q 3450 1645 3443 1545 
Q 3437 1446 3430 1370 
L 1267 1370 
Q 1299 1075 1542 902 
Q 1786 730 2195 730 
Q 2458 730 2710 778 
Q 2963 826 3123 896 
L 3251 122 
Q 3174 83 3046 44 
Q 2918 6 2761 -22 
Q 2605 -51 2425 -70 
Q 2246 -90 2067 -90 
Q 1613 -90 1277 44 
Q 941 179 720 412 
Q 499 646 393 966 
Q 288 1286 288 1658 
z
M 2528 2022 
Q 2522 2144 2486 2259 
Q 2451 2374 2377 2464 
Q 2304 2554 2192 2611 
Q 2080 2669 1914 2669 
Q 1754 2669 1638 2614 
Q 1523 2560 1446 2470 
Q 1370 2381 1328 2262 
Q 1286 2144 1267 2022 
L 2528 2022 
z
" transform="scale(0.015625)"/>
       <path id="Ubuntu-Bold-31" d="M 448 3514 
Q 634 3590 835 3689 
Q 1037 3789 1229 3907 
Q 1421 4026 1597 4157 
Q 1773 4288 1914 4435 
L 2579 4435 
L 2579 0 
L 1626 0 
L 1626 3194 
Q 1434 3066 1197 2960 
Q 960 2854 736 2778 
L 448 3514 
z
" transform="scale(0.015625)"/>
      </defs>
      <use xlink:href="#Ubuntu-Bold-74"/>
      <use xlink:href="#Ubuntu-Bold-61" x="42.399994"/>
      <use xlink:href="#Ubuntu-Bold-72" x="97.699982"/>
      <use xlink:href="#Ubuntu-Bold-67" x="138.899979"/>
      <use xlink:href="#Ubuntu-Bold-65" x="198.299973"/>
      <use xlink:href="#Ubuntu-Bold-74" x="256.699966"/>
      <use xlink:href="#Ubuntu-Bold-31" x="301.09996"/>
     </g>
    </g>
   </g>
   <g id="PolyCollection_1">
    <defs>
     <path id="m47cc58bb8f" d="M 64.787408 -112.839986 
L 64.787408 -92.481341 
L 67.666665 -91.790126 
L 70.545922 -92.977019 
L 73.425179 -91.415886 
L 76.304436 -78.286773 
L 79.183693 -100.561648 
L 82.06295 -93.918108 
L 84.942207 -105.139197 
L 87.821464 -93.875044 
L 90.700721 -90.959075 
L 93.579978 -91.283559 
L 96.459235 -77.812627 
L 99.338492 -95.168084 
L 102.217749 -92.090414 
L 105.097006 -103.956971 
L 107.976263 -105.357131 
L 110.85552 -95.094241 
L 113.734777 -92.609541 
L 116.614033 -81.472477 
L 119.49329 -91.505149 
L 122.372547 -88.826494 
L 125.251804 -95.064621 
L 128.131061 -92.660801 
L 131.010318 -86.706491 
L 133.889575 -84.906452 
L 136.768832 -77.410487 
L 139.648089 -97.976147 
L 142.527346 -89.857632 
L 145.406603 -109.760537 
L 148.28586 -101.667858 
L 151.165117 -94.982797 
L 151.165117 -112.86882 
L 151.165117 -112.86882 
L 148.28586 -120.170987 
L 145.406603 -130.0418 
L 142.527346 -109.214179 
L 139.648089 -117.722767 
L 136.768832 -98.682487 
L 133.889575 -104.106231 
L 131.010318 -107.81113 
L 128.131061 -114.36523 
L 125.251804 -116.310755 
L 122.372547 -109.308424 
L 119.49329 -113.411513 
L 116.614033 -100.62416 
L 113.734777 -112.154952 
L 110.85552 -115.97157 
L 107.976263 -126.853591 
L 105.097006 -127.291523 
L 102.217749 -112.567509 
L 99.338492 -116.717455 
L 96.459235 -97.371345 
L 93.579978 -109.224773 
L 90.700721 -110.662002 
L 87.821464 -112.182862 
L 84.942207 -127.380245 
L 82.06295 -111.487814 
L 79.183693 -120.895233 
L 76.304436 -98.155577 
L 73.425179 -111.225656 
L 70.545922 -112.195107 
L 67.666665 -111.331724 
L 64.787408 -112.839986 
z
" style="stroke: #5b5b5b; stroke-opacity: 0.2"/>
    </defs>
    <g clip-path="url(#pa844003292)">
     <use xlink:href="#m47cc58bb8f" x="0" y="209.8225" style="fill: #5b5b5b; fill-opacity: 0.2; stroke: #5b5b5b; stroke-opacity: 0.2"/>
    </g>
   </g>
   <g id="PolyCollection_2">
    <defs>
     <path id="md57396545b" d="M 154.044374 -124.572083 
L 154.044374 -104.322928 
L 156.923631 -74.032942 
L 159.802888 -98.79123 
L 162.682145 -97.332946 
L 165.561402 -98.194779 
L 168.440659 -100.515213 
L 171.319916 -97.60497 
L 174.199173 -94.513033 
L 177.07843 -80.934423 
L 179.957687 -94.318541 
L 182.836944 -96.484627 
L 185.716201 -96.704605 
L 188.595458 -96.781192 
L 191.474715 -94.690083 
L 194.353972 -92.541667 
L 197.233229 -76.174228 
L 200.112485 -102.13047 
L 202.991742 -102.775646 
L 205.870999 -103.121135 
L 208.750256 -70.560653 
L 211.629513 -103.385343 
L 214.50877 -95.325335 
L 217.388027 -75.692738 
L 220.267284 -95.78836 
L 223.146541 -99.031364 
L 226.025798 -98.193804 
L 228.905055 -97.859572 
L 231.784312 -97.78024 
L 234.663569 -94.190435 
L 237.542826 -72.889838 
L 237.542826 -91.065623 
L 237.542826 -91.065623 
L 234.663569 -115.27527 
L 231.784312 -115.453742 
L 228.905055 -116.845024 
L 226.025798 -117.918402 
L 223.146541 -119.325187 
L 220.267284 -115.502437 
L 217.388027 -97.196875 
L 214.50877 -114.445168 
L 211.629513 -126.990772 
L 208.750256 -84.806007 
L 205.870999 -122.148769 
L 202.991742 -121.604861 
L 200.112485 -120.882779 
L 197.233229 -94.894797 
L 194.353972 -110.713952 
L 191.474715 -113.223001 
L 188.595458 -116.513009 
L 185.716201 -115.134813 
L 182.836944 -117.148401 
L 179.957687 -113.074748 
L 177.07843 -97.782259 
L 174.199173 -113.227893 
L 171.319916 -115.491767 
L 168.440659 -119.805623 
L 165.561402 -117.183234 
L 162.682145 -115.559127 
L 159.802888 -117.524228 
L 156.923631 -92.25254 
L 154.044374 -124.572083 
z
" style="stroke: #b45f58; stroke-opacity: 0.2"/>
    </defs>
    <g clip-path="url(#pa844003292)">
     <use xlink:href="#md57396545b" x="0" y="209.8225" style="fill: #b45f58; fill-opacity: 0.2; stroke: #b45f58; stroke-opacity: 0.2"/>
    </g>
   </g>
   <g id="PolyCollection_3">
    <defs>
     <path id="me95cc7107b" d="M 240.422083 -97.180941 
L 240.422083 -75.788196 
L 243.30134 -100.984987 
L 246.180597 -87.758843 
L 249.059854 -102.279595 
L 251.939111 -99.007648 
L 254.818368 -98.336649 
L 257.697625 -78.024093 
L 260.576882 -105.559639 
L 263.456139 -102.992553 
L 266.335396 -108.329715 
L 269.214653 -107.853315 
L 272.09391 -105.292439 
L 274.973167 -100.701027 
L 277.852424 -83.669021 
L 280.731681 -106.771884 
L 283.610937 -107.42463 
L 286.490194 -106.843909 
L 289.369451 -107.727853 
L 292.248708 -103.077016 
L 295.127965 -102.440424 
L 298.007222 -96.931732 
L 300.886479 -111.068735 
L 303.765736 -113.83774 
L 306.644993 -109.869271 
L 309.52425 -115.155852 
L 312.403507 -117.479241 
L 315.282764 -117.537495 
L 318.162021 -103.955104 
L 321.041278 -120.594135 
L 323.920535 -118.271311 
L 326.799792 -118.374694 
L 326.799792 -139.361379 
L 326.799792 -139.361379 
L 323.920535 -139.415493 
L 321.041278 -140.680843 
L 318.162021 -126.488554 
L 315.282764 -139.13957 
L 312.403507 -138.812702 
L 309.52425 -136.176338 
L 306.644993 -131.294384 
L 303.765736 -134.44316 
L 300.886479 -132.534979 
L 298.007222 -115.471695 
L 295.127965 -120.060865 
L 292.248708 -121.331808 
L 289.369451 -126.924761 
L 286.490194 -126.551048 
L 283.610937 -127.650158 
L 280.731681 -126.640519 
L 277.852424 -104.764944 
L 274.973167 -120.824121 
L 272.09391 -123.619417 
L 269.214653 -126.124614 
L 266.335396 -128.546399 
L 263.456139 -122.747952 
L 260.576882 -124.765695 
L 257.697625 -98.009357 
L 254.818368 -118.872002 
L 251.939111 -117.731156 
L 249.059854 -121.689933 
L 246.180597 -107.178207 
L 243.30134 -120.121158 
L 240.422083 -97.180941 
z
" style="stroke: #6489a9; stroke-opacity: 0.2"/>
    </defs>
    <g clip-path="url(#pa844003292)">
     <use xlink:href="#me95cc7107b" x="0" y="209.8225" style="fill: #6489a9; fill-opacity: 0.2; stroke: #6489a9; stroke-opacity: 0.2"/>
    </g>
   </g>
   <g id="PolyCollection_4">
    <defs>
     <path id="m34c9aeb7ba" d="M 329.679049 -142.672581 
L 329.679049 -121.621901 
L 332.558306 -125.466713 
L 335.437563 -136.461683 
L 338.31682 -100.570446 
L 341.196077 -123.408187 
L 344.075334 -120.791455 
L 346.954591 -121.340402 
L 349.833848 -126.904877 
L 352.713105 -125.937475 
L 355.592362 -132.825018 
L 358.471619 -110.381037 
L 361.350876 -132.523474 
L 364.230133 -130.545967 
L 367.10939 -127.848053 
L 369.988646 -132.533038 
L 372.867903 -131.661603 
L 375.74716 -130.381583 
L 378.626417 -116.465135 
L 381.505674 -139.788524 
L 384.384931 -146.129996 
L 387.264188 -150.060272 
L 390.143445 -142.298276 
L 393.022702 -144.398097 
L 395.901959 -141.745903 
L 398.781216 -130.789413 
L 401.660473 -96.203248 
L 404.53973 -75.129626 
L 407.418987 -101.771098 
L 410.298244 -101.798169 
L 413.177501 -102.898949 
L 413.177501 -121.360101 
L 413.177501 -121.360101 
L 410.298244 -121.46395 
L 407.418987 -120.792281 
L 404.53973 -92.802036 
L 401.660473 -112.187287 
L 398.781216 -153.406466 
L 395.901959 -165.944969 
L 393.022702 -167.930571 
L 390.143445 -164.617169 
L 387.264188 -170.286584 
L 384.384931 -167.177678 
L 381.505674 -160.718256 
L 378.626417 -139.07197 
L 375.74716 -152.510009 
L 372.867903 -151.676076 
L 369.988646 -154.133481 
L 367.10939 -150.46274 
L 364.230133 -150.408353 
L 361.350876 -153.990631 
L 358.471619 -131.503499 
L 355.592362 -153.639043 
L 352.713105 -148.6757 
L 349.833848 -148.273232 
L 346.954591 -142.502365 
L 344.075334 -141.920973 
L 341.196077 -143.945301 
L 338.31682 -123.589252 
L 335.437563 -157.835422 
L 332.558306 -147.889037 
L 329.679049 -142.672581 
z
" style="stroke: #4e9a73; stroke-opacity: 0.2"/>
    </defs>
    <g clip-path="url(#pa844003292)">
     <use xlink:href="#m34c9aeb7ba" x="0" y="209.8225" style="fill: #4e9a73; fill-opacity: 0.2; stroke: #4e9a73; stroke-opacity: 0.2"/>
    </g>
   </g>
   <g id="PolyCollection_5">
    <defs>
     <path id="ma45c32af60" d="M 416.056758 -122.611404 
L 416.056758 -102.242069 
L 418.936015 -97.67352 
L 421.815272 -117.79778 
L 424.694529 -110.787877 
L 427.573786 -131.890171 
L 430.453043 -136.465718 
L 433.3323 -117.348513 
L 436.211557 -125.588152 
L 439.090814 -106.858384 
L 441.970071 -135.66528 
L 444.849328 -142.302633 
L 447.728585 -145.81807 
L 450.607842 -144.470299 
L 453.487098 -125.617605 
L 456.366355 -132.879416 
L 459.245612 -129.161329 
L 462.124869 -145.627339 
L 465.004126 -148.411301 
L 467.883383 -153.700289 
L 470.76264 -143.973953 
L 473.641897 -132.518118 
L 476.521154 -130.02948 
L 479.400411 -116.633968 
L 482.279668 -155.447353 
L 485.158925 -160.109529 
L 488.038182 -157.414181 
L 490.917439 -158.044307 
L 493.796696 -155.124643 
L 496.675953 -155.576734 
L 499.55521 -136.092031 
L 502.434467 -161.154457 
L 502.434467 -180.908397 
L 502.434467 -180.908397 
L 499.55521 -156.087914 
L 496.675953 -175.705588 
L 493.796696 -175.405732 
L 490.917439 -179.098929 
L 488.038182 -177.306627 
L 485.158925 -180.95567 
L 482.279668 -178.119637 
L 479.400411 -136.436531 
L 476.521154 -150.18881 
L 473.641897 -151.806135 
L 470.76264 -163.801028 
L 467.883383 -175.159942 
L 465.004126 -168.636339 
L 462.124869 -165.795334 
L 459.245612 -147.155335 
L 456.366355 -153.456514 
L 453.487098 -142.523358 
L 450.607842 -164.210418 
L 447.728585 -166.127435 
L 444.849328 -162.115416 
L 441.970071 -155.493337 
L 439.090814 -124.37146 
L 436.211557 -145.424516 
L 433.3323 -137.437183 
L 430.453043 -158.303642 
L 427.573786 -151.957572 
L 424.694529 -130.724803 
L 421.815272 -138.134317 
L 418.936015 -116.633415 
L 416.056758 -122.611404 
z
" style="stroke: #c3824d; stroke-opacity: 0.2"/>
    </defs>
    <g clip-path="url(#pa844003292)">
     <use xlink:href="#ma45c32af60" x="0" y="209.8225" style="fill: #c3824d; fill-opacity: 0.2; stroke: #c3824d; stroke-opacity: 0.2"/>
    </g>
   </g>
   <g id="line2d_29">
    <path d="M 64.787408 107.145793 
L 67.666665 108.558984 
L 70.545922 107.745662 
L 73.425179 108.501591 
L 76.304436 122.164532 
L 79.183693 99.332165 
L 82.06295 107.335267 
L 84.942207 93.371212 
L 87.821464 106.749942 
L 90.700721 109.113253 
L 93.579978 109.043282 
L 96.459235 122.677527 
L 99.338492 104.042277 
L 102.217749 107.760993 
L 105.097006 94.813885 
L 107.976263 93.700629 
L 110.85552 104.397638 
L 113.734777 107.524347 
L 116.614033 119.279579 
L 119.49329 107.249178 
L 122.372547 110.977329 
L 125.251804 104.544657 
L 128.131061 106.800259 
L 131.010318 112.581959 
L 133.889575 115.220439 
L 136.768832 121.986459 
L 139.648089 101.927404 
L 142.527346 109.985147 
L 145.406603 89.592745 
L 148.28586 98.771606 
L 151.165117 105.682286 
" clip-path="url(#pa844003292)" style="fill: none; stroke: #5b5b5b; stroke-width: 1.2; stroke-linecap: square"/>
   </g>
   <g id="line2d_30">
    <path d="M 154.044374 95.361213 
L 156.923631 126.840223 
L 159.802888 102.235189 
L 162.682145 103.087177 
L 165.561402 102.387131 
L 168.440659 100.041181 
L 171.319916 102.962681 
L 174.199173 106.025383 
L 177.07843 120.342521 
L 179.957687 106.259262 
L 182.836944 103.760972 
L 185.716201 103.531468 
L 188.595458 102.904211 
L 191.474715 105.860315 
L 194.353972 107.959658 
L 197.233229 124.748835 
L 200.112485 98.397663 
L 202.991742 97.83524 
L 205.870999 97.483626 
L 208.750256 132.195576 
L 211.629513 94.343361 
L 214.50877 104.532614 
L 217.388027 123.410792 
L 220.267284 104.40056 
L 223.146541 100.805265 
L 226.025798 101.191484 
L 228.905055 102.306785 
L 231.784312 103.401403 
L 234.663569 104.88025 
L 237.542826 127.98814 
" clip-path="url(#pa844003292)" style="fill: none; stroke: #b45f58; stroke-width: 1.2; stroke-linecap: square"/>
   </g>
   <g id="line2d_31">
    <path d="M 240.422083 123.574561 
L 243.30134 99.853036 
L 246.180597 112.598207 
L 249.059854 98.269986 
L 251.939111 101.165514 
L 254.818368 101.209936 
L 257.697625 122.348505 
L 260.576882 94.637047 
L 263.456139 97.585074 
L 266.335396 91.471753 
L 269.214653 92.277009 
L 272.09391 95.867949 
L 274.973167 99.357929 
L 277.852424 116.49768 
L 280.731681 93.452182 
L 283.610937 92.77777 
L 286.490194 93.229262 
L 289.369451 92.600081 
L 292.248708 97.883107 
L 295.127965 98.410522 
L 298.007222 103.800162 
L 300.886479 87.339669 
L 303.765736 85.413355 
L 306.644993 88.44215 
L 309.52425 84.364988 
L 312.403507 81.920952 
L 315.282764 81.070466 
L 318.162021 94.251784 
L 321.041278 79.255612 
L 323.920535 81.444422 
L 326.799792 80.863701 
" clip-path="url(#pa844003292)" style="fill: none; stroke: #6489a9; stroke-width: 1.2; stroke-linecap: square"/>
   </g>
   <g id="line2d_32">
    <path d="M 329.679049 77.53248 
L 332.558306 72.401714 
L 335.437563 62.522747 
L 338.31682 97.078333 
L 341.196077 76.613184 
L 344.075334 78.183411 
L 346.954591 77.698884 
L 349.833848 72.59422 
L 352.713105 72.441684 
L 355.592362 66.416908 
L 358.471619 89.120344 
L 361.350876 66.672223 
L 364.230133 68.755526 
L 367.10939 70.545177 
L 369.988646 66.609414 
L 372.867903 67.926773 
L 375.74716 68.429245 
L 378.626417 81.926667 
L 381.505674 59.441024 
L 384.384931 52.763687 
L 387.264188 49.995195 
L 390.143445 56.390299 
L 393.022702 53.682168 
L 395.901959 56.334015 
L 398.781216 67.360676 
L 401.660473 105.790031 
L 404.53973 126.002312 
L 407.418987 98.484604 
L 410.298244 97.878537 
L 413.177501 97.71662 
" clip-path="url(#pa844003292)" style="fill: none; stroke: #4e9a73; stroke-width: 1.2; stroke-linecap: square"/>
   </g>
   <g id="line2d_33">
    <path d="M 416.056758 97.171386 
L 418.936015 102.906408 
L 421.815272 81.94442 
L 424.694529 89.23197 
L 427.573786 68.031007 
L 430.453043 61.879822 
L 433.3323 82.328665 
L 436.211557 74.64705 
L 439.090814 94.245563 
L 441.970071 63.636952 
L 444.849328 57.54142 
L 447.728585 53.733758 
L 450.607842 55.191759 
L 453.487098 76.074769 
L 456.366355 66.645026 
L 459.245612 71.880817 
L 462.124869 54.193705 
L 465.004126 50.826349 
L 467.883383 45.242324 
L 470.76264 55.581732 
L 473.641897 67.025178 
L 476.521154 69.043382 
L 479.400411 83.354544 
L 482.279668 43.419311 
L 485.158925 39.663209 
L 488.038182 42.252664 
L 490.917439 40.839676 
L 493.796696 44.624832 
L 496.675953 43.811739 
L 499.55521 64.013831 
L 502.434467 38.405309 
" clip-path="url(#pa844003292)" style="fill: none; stroke: #c3824d; stroke-width: 1.2; stroke-linecap: square"/>
   </g>
   <g id="line2d_34"/>
   <g id="line2d_35"/>
   <g id="line2d_36"/>
   <g id="line2d_37"/>
   <g id="line2d_38"/>
   <g id="patch_4">
    <path d="M 55.410938 163.91125 
L 55.410938 25.343863 
" style="fill: none; stroke: #aaaaaa; stroke-width: 0.75; stroke-linejoin: miter; stroke-linecap: square"/>
   </g>
   <g id="patch_5">
    <path d="M 64.787408 173.91125 
L 505.313724 173.91125 
" style="fill: none; stroke: #aaaaaa; stroke-width: 0.75; stroke-linejoin: miter; stroke-linecap: square"/>
   </g>
   <g id="legend_1">
    <g id="line2d_39">
     <defs>
      <path id="m3bb0a8a438" d="M 0 1.5 
C 0.397805 1.5 0.77937 1.341951 1.06066 1.06066 
C 1.341951 0.77937 1.5 0.397805 1.5 0 
C 1.5 -0.397805 1.341951 -0.77937 1.06066 -1.06066 
C 0.77937 -1.341951 0.397805 -1.5 0 -1.5 
C -0.397805 -1.5 -0.77937 -1.341951 -1.06066 -1.06066 
C -1.341951 -0.77937 -1.5 -0.397805 -1.5 0 
C -1.5 0.397805 -1.341951 0.77937 -1.06066 1.06066 
C -0.77937 1.341951 -0.397805 1.5 0 1.5 
z
" style="stroke: #5b5b5b"/>
     </defs>
     <g>
      <use xlink:href="#m3bb0a8a438" x="75.610938" y="13.8075" style="fill: #5b5b5b; stroke: #5b5b5b"/>
     </g>
    </g>
    <g id="text_30">
     <!-- March -->
     <g style="fill: #4b4b4b" transform="translate(83.610938 16.6075) scale(0.08 -0.08)">
      <use xlink:href="#Ubuntu-4d"/>
      <use xlink:href="#Ubuntu-61" x="87.099991"/>
      <use xlink:href="#Ubuntu-72" x="139.299988"/>
      <use xlink:href="#Ubuntu-63" x="177.899979"/>
      <use xlink:href="#Ubuntu-68" x="224.399963"/>
     </g>
    </g>
    <g id="line2d_40">
     <defs>
      <path id="m6839c880d9" d="M 0 1.5 
C 0.397805 1.5 0.77937 1.341951 1.06066 1.06066 
C 1.341951 0.77937 1.5 0.397805 1.5 0 
C 1.5 -0.397805 1.341951 -0.77937 1.06066 -1.06066 
C 0.77937 -1.341951 0.397805 -1.5 0 -1.5 
C -0.397805 -1.5 -0.77937 -1.341951 -1.06066 -1.06066 
C -1.341951 -0.77937 -1.5 -0.397805 -1.5 0 
C -1.5 0.397805 -1.341951 0.77937 -1.06066 1.06066 
C -0.77937 1.341951 -0.397805 1.5 0 1.5 
z
" style="stroke: #b45f58"/>
     </defs>
     <g>
      <use xlink:href="#m6839c880d9" x="130.129687" y="13.8075" style="fill: #b45f58; stroke: #b45f58"/>
     </g>
    </g>
    <g id="text_31">
     <!-- April -->
     <g style="fill: #4b4b4b" transform="translate(138.129687 16.6075) scale(0.08 -0.08)">
      <use xlink:href="#Ubuntu-41"/>
      <use xlink:href="#Ubuntu-70" x="66.299988"/>
      <use xlink:href="#Ubuntu-72" x="125.199982"/>
      <use xlink:href="#Ubuntu-69" x="163.799973"/>
      <use xlink:href="#Ubuntu-6c" x="189.09996"/>
     </g>
    </g>
    <g id="line2d_41">
     <defs>
      <path id="m6de01867a7" d="M 0 1.5 
C 0.397805 1.5 0.77937 1.341951 1.06066 1.06066 
C 1.341951 0.77937 1.5 0.397805 1.5 0 
C 1.5 -0.397805 1.341951 -0.77937 1.06066 -1.06066 
C 0.77937 -1.341951 0.397805 -1.5 0 -1.5 
C -0.397805 -1.5 -0.77937 -1.341951 -1.06066 -1.06066 
C -1.341951 -0.77937 -1.5 -0.397805 -1.5 0 
C -1.5 0.397805 -1.341951 0.77937 -1.06066 1.06066 
C -0.77937 1.341951 -0.397805 1.5 0 1.5 
z
" style="stroke: #6489a9"/>
     </defs>
     <g>
      <use xlink:href="#m6de01867a7" x="179.440938" y="13.8075" style="fill: #6489a9; stroke: #6489a9"/>
     </g>
    </g>
    <g id="text_32">
     <!-- May -->
     <g style="fill: #4b4b4b" transform="translate(187.440938 16.6075) scale(0.08 -0.08)">
      <use xlink:href="#Ubuntu-4d"/>
      <use xlink:href="#Ubuntu-61" x="87.099991"/>
      <use xlink:href="#Ubuntu-79" x="137.799988"/>
     </g>
    </g>
    <g id="line2d_42">
     <defs>
      <path id="m60137110ce" d="M 0 1.5 
C 0.397805 1.5 0.77937 1.341951 1.06066 1.06066 
C 1.341951 0.77937 1.5 0.397805 1.5 0 
C 1.5 -0.397805 1.341951 -0.77937 1.06066 -1.06066 
C 0.77937 -1.341951 0.397805 -1.5 0 -1.5 
C -0.397805 -1.5 -0.77937 -1.341951 -1.06066 -1.06066 
C -1.341951 -0.77937 -1.5 -0.397805 -1.5 0 
C -1.5 0.397805 -1.341951 0.77937 -1.06066 1.06066 
C -0.77937 1.341951 -0.397805 1.5 0 1.5 
z
" style="stroke: #4e9a73"/>
     </defs>
     <g>
      <use xlink:href="#m60137110ce" x="226.440937" y="13.8075" style="fill: #4e9a73; stroke: #4e9a73"/>
     </g>
    </g>
    <g id="text_33">
     <!-- June -->
     <g style="fill: #4b4b4b" transform="translate(234.440937 16.6075) scale(0.08 -0.08)">
      <use xlink:href="#Ubuntu-4a"/>
      <use xlink:href="#Ubuntu-75" x="49.999985"/>
      <use xlink:href="#Ubuntu-6e" x="107.399979"/>
      <use xlink:href="#Ubuntu-65" x="164.799973"/>
     </g>
    </g>
    <g id="line2d_43">
     <defs>
      <path id="m155e65a78d" d="M 0 1.5 
C 0.397805 1.5 0.77937 1.341951 1.06066 1.06066 
C 1.341951 0.77937 1.5 0.397805 1.5 0 
C 1.5 -0.397805 1.341951 -0.77937 1.06066 -1.06066 
C 0.77937 -1.341951 0.397805 -1.5 0 -1.5 
C -0.397805 -1.5 -0.77937 -1.341951 -1.06066 -1.06066 
C -1.341951 -0.77937 -1.5 -0.397805 -1.5 0 
C -1.5 0.397805 -1.341951 0.77937 -1.06066 1.06066 
C -0.77937 1.341951 -0.397805 1.5 0 1.5 
z
" style="stroke: #c3824d"/>
     </defs>
     <g>
      <use xlink:href="#m155e65a78d" x="276.098437" y="13.8075" style="fill: #c3824d; stroke: #c3824d"/>
     </g>
    </g>
    <g id="text_34">
     <!-- July -->
     <g style="fill: #4b4b4b" transform="translate(284.098437 16.6075) scale(0.08 -0.08)">
      <use xlink:href="#Ubuntu-4a"/>
      <use xlink:href="#Ubuntu-75" x="49.999985"/>
      <use xlink:href="#Ubuntu-6c" x="107.399979"/>
      <use xlink:href="#Ubuntu-79" x="134.699966"/>
     </g>
    </g>
   </g>
  </g>
 </g>
 <defs>
  <clipPath id="p0af1ab50b2">
   <rect x="60.410938" y="163.91125" width="446.4" height="0"/>
  </clipPath>
  <clipPath id="pa844003292">
   <rect x="60.410938" y="25.31125" width="446.4" height="138.6"/>
  </clipPath>
 </defs>
</svg>
