<?xml version="1.0" encoding="utf-8" standalone="no"?>
<!DOCTYPE svg PUBLIC "-//W3C//DTD SVG 1.1//EN"
  "http://www.w3.org/Graphics/SVG/1.1/DTD/svg11.dtd">
<svg xmlns:xlink="http://www.w3.org/1999/xlink" width="563.574218pt" height="215.535pt" viewBox="0 0 563.574218 215.535" xmlns="http://www.w3.org/2000/svg" version="1.1">
 <metadata>
  <rdf:RDF xmlns:dc="http://purl.org/dc/elements/1.1/" xmlns:cc="http://creativecommons.org/ns#" xmlns:rdf="http://www.w3.org/1999/02/22-rdf-syntax-ns#">
   <cc:Work>
    <dc:type rdf:resource="http://purl.org/dc/dcmitype/StillImage"/>
    <dc:date>2024-04-15T11:37:39.891301</dc:date>
    <dc:format>image/svg+xml</dc:format>
    <dc:creator>
     <cc:Agent>
      <dc:title>Matplotlib v3.8.3, https://matplotlib.org/</dc:title>
     </cc:Agent>
    </dc:creator>
   </cc:Work>
  </rdf:RDF>
 </metadata>
 <defs>
  <style type="text/css">*{stroke-linejoin: round; stroke-linecap: butt}</style>
 </defs>
 <g id="figure_1">
  <g id="patch_1">
   <path d="M 0 215.535 
L 563.574218 215.535 
L 563.574218 0 
L 0 0 
L 0 215.535 
z
" style="fill: none"/>
  </g>
  <g id="axes_1">
   <g id="patch_2">
    <path d="M 48.7625 70.78375 
L 550.9625 70.78375 
L 550.9625 10.30375 
L 48.7625 10.30375 
L 48.7625 70.78375 
z
" style="fill: none"/>
   </g>
   <g id="matplotlib.axis_1">
    <g id="xtick_1">
     <g id="line2d_1">
      <defs>
       <path id="ma6c5ffee3d" d="M 0 0 
L 0 3 
" style="stroke: #aaaaaa; stroke-width: 0.75"/>
      </defs>
      <g>
       <use xlink:href="#ma6c5ffee3d" x="53.686029" y="85.78375" style="fill: #aaaaaa; stroke: #aaaaaa; stroke-width: 0.75"/>
      </g>
     </g>
     <g id="text_1">
      <!-- 06-01 -->
      <g style="fill: #808080" transform="translate(43.464779 100.99125) scale(0.08 -0.08)">
       <defs>
        <path id="Ubuntu-30" d="M 320 2221 
Q 320 3334 713 3936 
Q 1107 4538 1805 4538 
Q 2502 4538 2896 3936 
Q 3290 3334 3290 2221 
Q 3290 1107 2896 505 
Q 2502 -96 1805 -96 
Q 1107 -96 713 505 
Q 320 1107 320 2221 
z
M 2662 2221 
Q 2662 2586 2620 2912 
Q 2579 3238 2480 3481 
Q 2381 3725 2214 3869 
Q 2048 4013 1805 4013 
Q 1562 4013 1395 3869 
Q 1229 3725 1129 3481 
Q 1030 3238 988 2912 
Q 947 2586 947 2221 
Q 947 1856 988 1529 
Q 1030 1203 1129 960 
Q 1229 717 1395 573 
Q 1562 429 1805 429 
Q 2048 429 2214 573 
Q 2381 717 2480 960 
Q 2579 1203 2620 1529 
Q 2662 1856 2662 2221 
z
" transform="scale(0.015625)"/>
        <path id="Ubuntu-36" d="M 403 1779 
Q 403 2426 582 2922 
Q 762 3418 1091 3757 
Q 1421 4096 1891 4272 
Q 2362 4448 2950 4454 
L 2995 3955 
Q 2618 3949 2307 3872 
Q 1997 3795 1753 3628 
Q 1510 3462 1344 3196 
Q 1178 2931 1094 2541 
Q 1261 2618 1469 2669 
Q 1677 2720 1901 2720 
Q 2278 2720 2540 2605 
Q 2803 2490 2969 2301 
Q 3136 2112 3209 1865 
Q 3283 1619 3283 1350 
Q 3283 1107 3200 851 
Q 3117 595 2947 384 
Q 2778 173 2515 38 
Q 2253 -96 1894 -96 
Q 1165 -96 784 403 
Q 403 902 403 1779 
z
M 1837 2234 
Q 1613 2234 1421 2192 
Q 1229 2150 1037 2067 
Q 1030 1997 1027 1923 
Q 1024 1850 1024 1779 
Q 1024 1498 1062 1248 
Q 1101 998 1200 809 
Q 1299 621 1465 509 
Q 1632 397 1888 397 
Q 2099 397 2246 486 
Q 2394 576 2490 717 
Q 2586 858 2627 1021 
Q 2669 1184 2669 1338 
Q 2669 1773 2461 2003 
Q 2253 2234 1837 2234 
z
" transform="scale(0.015625)"/>
        <path id="Ubuntu-2d" d="M 166 2195 
L 1747 2195 
L 1747 1638 
L 166 1638 
L 166 2195 
z
" transform="scale(0.015625)"/>
        <path id="Ubuntu-31" d="M 595 3520 
Q 960 3661 1305 3881 
Q 1651 4102 1939 4435 
L 2362 4435 
L 2362 0 
L 1766 0 
L 1766 3610 
Q 1690 3539 1578 3462 
Q 1466 3386 1334 3315 
Q 1203 3245 1059 3181 
Q 915 3117 781 3072 
L 595 3520 
z
" transform="scale(0.015625)"/>
       </defs>
       <use xlink:href="#Ubuntu-30"/>
       <use xlink:href="#Ubuntu-36" x="56.399994"/>
       <use xlink:href="#Ubuntu-2d" x="112.799988"/>
       <use xlink:href="#Ubuntu-30" x="142.699982"/>
       <use xlink:href="#Ubuntu-31" x="199.099976"/>
      </g>
     </g>
    </g>
    <g id="xtick_2">
     <g id="line2d_2">
      <g>
       <use xlink:href="#ma6c5ffee3d" x="119.348288" y="85.78375" style="fill: #aaaaaa; stroke: #aaaaaa; stroke-width: 0.75"/>
      </g>
     </g>
     <g id="text_2">
      <!-- 06-05 -->
      <g style="fill: #808080" transform="translate(109.127038 100.99125) scale(0.08 -0.08)">
       <defs>
        <path id="Ubuntu-35" d="M 1274 2726 
Q 2240 2688 2691 2304 
Q 3142 1920 3142 1261 
Q 3142 966 3043 716 
Q 2944 467 2742 288 
Q 2541 109 2233 6 
Q 1926 -96 1504 -96 
Q 1338 -96 1165 -70 
Q 992 -45 845 -6 
Q 698 32 582 70 
Q 467 109 416 134 
L 531 653 
Q 640 602 886 518 
Q 1133 435 1491 435 
Q 1779 435 1974 499 
Q 2170 563 2291 672 
Q 2413 781 2467 925 
Q 2522 1069 2522 1229 
Q 2522 1472 2438 1661 
Q 2355 1850 2144 1978 
Q 1933 2106 1581 2173 
Q 1229 2240 691 2240 
Q 730 2554 752 2829 
Q 774 3104 793 3366 
Q 813 3629 825 3888 
Q 838 4147 851 4435 
L 2989 4435 
L 2989 3930 
L 1370 3930 
Q 1363 3834 1350 3670 
Q 1338 3507 1325 3331 
Q 1312 3155 1299 2988 
Q 1286 2822 1274 2726 
z
" transform="scale(0.015625)"/>
       </defs>
       <use xlink:href="#Ubuntu-30"/>
       <use xlink:href="#Ubuntu-36" x="56.399994"/>
       <use xlink:href="#Ubuntu-2d" x="112.799988"/>
       <use xlink:href="#Ubuntu-30" x="142.699982"/>
       <use xlink:href="#Ubuntu-35" x="199.099976"/>
      </g>
     </g>
    </g>
    <g id="xtick_3">
     <g id="line2d_3">
      <g>
       <use xlink:href="#ma6c5ffee3d" x="185.010546" y="85.78375" style="fill: #aaaaaa; stroke: #aaaaaa; stroke-width: 0.75"/>
      </g>
     </g>
     <g id="text_3">
      <!-- 06-09 -->
      <g style="fill: #808080" transform="translate(174.789296 100.99125) scale(0.08 -0.08)">
       <defs>
        <path id="Ubuntu-39" d="M 3206 2662 
Q 3206 1344 2550 669 
Q 1894 -6 602 -13 
L 582 486 
Q 986 486 1309 563 
Q 1632 640 1875 809 
Q 2118 979 2281 1248 
Q 2445 1517 2522 1907 
Q 2355 1830 2144 1782 
Q 1933 1734 1709 1734 
Q 1331 1734 1068 1846 
Q 806 1958 640 2147 
Q 474 2336 400 2582 
Q 326 2829 326 3098 
Q 326 3334 409 3590 
Q 493 3846 662 4057 
Q 832 4269 1094 4403 
Q 1357 4538 1715 4538 
Q 2080 4538 2358 4410 
Q 2637 4282 2825 4038 
Q 3014 3795 3110 3446 
Q 3206 3098 3206 2662 
z
M 1773 2221 
Q 1997 2221 2195 2262 
Q 2394 2304 2579 2387 
Q 2586 2458 2586 2525 
Q 2586 2592 2586 2662 
Q 2586 2938 2547 3190 
Q 2509 3443 2409 3632 
Q 2310 3821 2144 3933 
Q 1978 4045 1722 4045 
Q 1510 4045 1363 3955 
Q 1216 3866 1120 3728 
Q 1024 3590 982 3427 
Q 941 3264 941 3110 
Q 941 2675 1149 2448 
Q 1357 2221 1773 2221 
z
" transform="scale(0.015625)"/>
       </defs>
       <use xlink:href="#Ubuntu-30"/>
       <use xlink:href="#Ubuntu-36" x="56.399994"/>
       <use xlink:href="#Ubuntu-2d" x="112.799988"/>
       <use xlink:href="#Ubuntu-30" x="142.699982"/>
       <use xlink:href="#Ubuntu-39" x="199.099976"/>
      </g>
     </g>
    </g>
    <g id="xtick_4">
     <g id="line2d_4">
      <g>
       <use xlink:href="#ma6c5ffee3d" x="250.672805" y="85.78375" style="fill: #aaaaaa; stroke: #aaaaaa; stroke-width: 0.75"/>
      </g>
     </g>
     <g id="text_4">
      <!-- 06-13 -->
      <g style="fill: #808080" transform="translate(240.451555 100.99125) scale(0.08 -0.08)">
       <defs>
        <path id="Ubuntu-33" d="M 1446 435 
Q 2016 435 2262 659 
Q 2509 883 2509 1261 
Q 2509 1504 2406 1670 
Q 2304 1837 2137 1936 
Q 1971 2035 1750 2076 
Q 1530 2118 1299 2118 
L 1146 2118 
L 1146 2605 
L 1357 2605 
Q 1517 2605 1686 2637 
Q 1856 2669 1997 2752 
Q 2138 2835 2227 2979 
Q 2317 3123 2317 3341 
Q 2317 3520 2253 3648 
Q 2189 3776 2083 3859 
Q 1978 3942 1840 3977 
Q 1702 4013 1549 4013 
Q 1242 4013 1027 3923 
Q 813 3834 666 3738 
L 435 4192 
Q 512 4243 630 4304 
Q 749 4365 896 4416 
Q 1043 4467 1212 4502 
Q 1382 4538 1568 4538 
Q 1920 4538 2176 4451 
Q 2432 4365 2598 4208 
Q 2765 4051 2848 3836 
Q 2931 3622 2931 3373 
Q 2931 3027 2732 2780 
Q 2534 2534 2253 2406 
Q 2426 2355 2586 2259 
Q 2746 2163 2864 2016 
Q 2982 1869 3056 1677 
Q 3130 1485 3130 1248 
Q 3130 960 3030 713 
Q 2931 467 2723 288 
Q 2515 109 2201 6 
Q 1888 -96 1459 -96 
Q 1293 -96 1117 -70 
Q 941 -45 787 -6 
Q 634 32 518 70 
Q 403 109 352 134 
L 467 653 
Q 576 602 829 518 
Q 1082 435 1446 435 
z
" transform="scale(0.015625)"/>
       </defs>
       <use xlink:href="#Ubuntu-30"/>
       <use xlink:href="#Ubuntu-36" x="56.399994"/>
       <use xlink:href="#Ubuntu-2d" x="112.799988"/>
       <use xlink:href="#Ubuntu-31" x="142.699982"/>
       <use xlink:href="#Ubuntu-33" x="199.099976"/>
      </g>
     </g>
    </g>
    <g id="xtick_5">
     <g id="line2d_5">
      <g>
       <use xlink:href="#ma6c5ffee3d" x="316.335063" y="85.78375" style="fill: #aaaaaa; stroke: #aaaaaa; stroke-width: 0.75"/>
      </g>
     </g>
     <g id="text_5">
      <!-- 06-17 -->
      <g style="fill: #808080" transform="translate(306.113813 100.99125) scale(0.08 -0.08)">
       <defs>
        <path id="Ubuntu-37" d="M 1043 0 
Q 1082 512 1226 1078 
Q 1370 1645 1581 2179 
Q 1792 2714 2045 3171 
Q 2298 3629 2541 3917 
L 384 3917 
L 384 4435 
L 3206 4435 
L 3206 3942 
Q 2995 3699 2739 3273 
Q 2483 2848 2256 2320 
Q 2029 1792 1865 1193 
Q 1702 595 1664 0 
L 1043 0 
z
" transform="scale(0.015625)"/>
       </defs>
       <use xlink:href="#Ubuntu-30"/>
       <use xlink:href="#Ubuntu-36" x="56.399994"/>
       <use xlink:href="#Ubuntu-2d" x="112.799988"/>
       <use xlink:href="#Ubuntu-31" x="142.699982"/>
       <use xlink:href="#Ubuntu-37" x="199.099976"/>
      </g>
     </g>
    </g>
    <g id="xtick_6">
     <g id="line2d_6">
      <g>
       <use xlink:href="#ma6c5ffee3d" x="381.997322" y="85.78375" style="fill: #aaaaaa; stroke: #aaaaaa; stroke-width: 0.75"/>
      </g>
     </g>
     <g id="text_6">
      <!-- 06-21 -->
      <g style="fill: #808080" transform="translate(371.776072 100.99125) scale(0.08 -0.08)">
       <defs>
        <path id="Ubuntu-32" d="M 2989 3302 
Q 2989 3072 2896 2857 
Q 2803 2643 2649 2435 
Q 2496 2227 2304 2025 
Q 2112 1824 1920 1632 
Q 1811 1523 1667 1376 
Q 1523 1229 1395 1069 
Q 1267 909 1180 761 
Q 1094 614 1094 506 
L 3136 506 
L 3136 0 
L 448 0 
Q 442 38 442 76 
Q 442 115 442 147 
Q 442 448 541 707 
Q 640 966 800 1196 
Q 960 1427 1158 1632 
Q 1357 1837 1549 2029 
Q 1709 2182 1853 2332 
Q 1997 2483 2109 2633 
Q 2221 2784 2288 2944 
Q 2355 3104 2355 3283 
Q 2355 3475 2294 3609 
Q 2234 3744 2131 3833 
Q 2029 3923 1891 3964 
Q 1754 4006 1600 4006 
Q 1414 4006 1260 3955 
Q 1107 3904 985 3837 
Q 864 3770 781 3696 
Q 698 3622 653 3584 
L 358 4006 
Q 416 4070 531 4163 
Q 646 4256 806 4339 
Q 966 4422 1164 4480 
Q 1363 4538 1594 4538 
Q 2291 4538 2640 4214 
Q 2989 3891 2989 3302 
z
" transform="scale(0.015625)"/>
       </defs>
       <use xlink:href="#Ubuntu-30"/>
       <use xlink:href="#Ubuntu-36" x="56.399994"/>
       <use xlink:href="#Ubuntu-2d" x="112.799988"/>
       <use xlink:href="#Ubuntu-32" x="142.699982"/>
       <use xlink:href="#Ubuntu-31" x="199.099976"/>
      </g>
     </g>
    </g>
    <g id="xtick_7">
     <g id="line2d_7">
      <g>
       <use xlink:href="#ma6c5ffee3d" x="447.65958" y="85.78375" style="fill: #aaaaaa; stroke: #aaaaaa; stroke-width: 0.75"/>
      </g>
     </g>
     <g id="text_7">
      <!-- 06-25 -->
      <g style="fill: #808080" transform="translate(437.43833 100.99125) scale(0.08 -0.08)">
       <use xlink:href="#Ubuntu-30"/>
       <use xlink:href="#Ubuntu-36" x="56.399994"/>
       <use xlink:href="#Ubuntu-2d" x="112.799988"/>
       <use xlink:href="#Ubuntu-32" x="142.699982"/>
       <use xlink:href="#Ubuntu-35" x="199.099976"/>
      </g>
     </g>
    </g>
    <g id="xtick_8">
     <g id="line2d_8">
      <g>
       <use xlink:href="#ma6c5ffee3d" x="513.321838" y="85.78375" style="fill: #aaaaaa; stroke: #aaaaaa; stroke-width: 0.75"/>
      </g>
     </g>
     <g id="text_8">
      <!-- 06-29 -->
      <g style="fill: #808080" transform="translate(503.100588 100.99125) scale(0.08 -0.08)">
       <use xlink:href="#Ubuntu-30"/>
       <use xlink:href="#Ubuntu-36" x="56.399994"/>
       <use xlink:href="#Ubuntu-2d" x="112.799988"/>
       <use xlink:href="#Ubuntu-32" x="142.699982"/>
       <use xlink:href="#Ubuntu-39" x="199.099976"/>
      </g>
     </g>
    </g>
    <g id="xtick_9">
     <g id="line2d_9">
      <g>
       <use xlink:href="#ma6c5ffee3d" x="546.152968" y="85.78375" style="fill: #aaaaaa; stroke: #aaaaaa; stroke-width: 0.75"/>
      </g>
     </g>
     <g id="text_9">
      <!-- 07-01 -->
      <g style="fill: #808080" transform="translate(535.931718 100.99125) scale(0.08 -0.08)">
       <use xlink:href="#Ubuntu-30"/>
       <use xlink:href="#Ubuntu-37" x="56.399994"/>
       <use xlink:href="#Ubuntu-2d" x="112.799988"/>
       <use xlink:href="#Ubuntu-30" x="142.699982"/>
       <use xlink:href="#Ubuntu-31" x="199.099976"/>
      </g>
     </g>
    </g>
   </g>
   <g id="matplotlib.axis_2">
    <g id="ytick_1">
     <g id="line2d_10">
      <defs>
       <path id="mc5a30908a2" d="M 0 0 
L -3 0 
" style="stroke: #aaaaaa; stroke-width: 0.75"/>
      </defs>
      <g>
       <use xlink:href="#mc5a30908a2" x="38.7625" y="70.78375" style="fill: #aaaaaa; stroke: #aaaaaa; stroke-width: 0.75"/>
      </g>
     </g>
     <g id="text_10">
      <!-- 20000 -->
      <g style="fill: #808080" transform="translate(7.2 73.8875) scale(0.08 -0.08)">
       <use xlink:href="#Ubuntu-32"/>
       <use xlink:href="#Ubuntu-30" x="56.399994"/>
       <use xlink:href="#Ubuntu-30" x="112.799988"/>
       <use xlink:href="#Ubuntu-30" x="169.199982"/>
       <use xlink:href="#Ubuntu-30" x="225.599976"/>
      </g>
     </g>
    </g>
    <g id="ytick_2">
     <g id="line2d_11">
      <g>
       <use xlink:href="#mc5a30908a2" x="38.7625" y="50.62375" style="fill: #aaaaaa; stroke: #aaaaaa; stroke-width: 0.75"/>
      </g>
     </g>
     <g id="text_11">
      <!-- 30000 -->
      <g style="fill: #808080" transform="translate(7.2 53.7275) scale(0.08 -0.08)">
       <use xlink:href="#Ubuntu-33"/>
       <use xlink:href="#Ubuntu-30" x="56.399994"/>
       <use xlink:href="#Ubuntu-30" x="112.799988"/>
       <use xlink:href="#Ubuntu-30" x="169.199982"/>
       <use xlink:href="#Ubuntu-30" x="225.599976"/>
      </g>
     </g>
    </g>
    <g id="ytick_3">
     <g id="line2d_12">
      <g>
       <use xlink:href="#mc5a30908a2" x="38.7625" y="30.46375" style="fill: #aaaaaa; stroke: #aaaaaa; stroke-width: 0.75"/>
      </g>
     </g>
     <g id="text_12">
      <!-- 40000 -->
      <g style="fill: #808080" transform="translate(7.2 33.5675) scale(0.08 -0.08)">
       <defs>
        <path id="Ubuntu-34" d="M 256 1536 
Q 378 1818 589 2192 
Q 800 2566 1065 2963 
Q 1331 3360 1635 3744 
Q 1939 4128 2246 4435 
L 2816 4435 
L 2816 1619 
L 3341 1619 
L 3341 1133 
L 2816 1133 
L 2816 0 
L 2240 0 
L 2240 1133 
L 256 1133 
L 256 1536 
z
M 2240 3731 
Q 2048 3526 1853 3273 
Q 1658 3021 1472 2745 
Q 1286 2470 1123 2182 
Q 960 1894 832 1619 
L 2240 1619 
L 2240 3731 
z
" transform="scale(0.015625)"/>
       </defs>
       <use xlink:href="#Ubuntu-34"/>
       <use xlink:href="#Ubuntu-30" x="56.399994"/>
       <use xlink:href="#Ubuntu-30" x="112.799988"/>
       <use xlink:href="#Ubuntu-30" x="169.199982"/>
       <use xlink:href="#Ubuntu-30" x="225.599976"/>
      </g>
     </g>
    </g>
    <g id="ytick_4">
     <g id="line2d_13">
      <g>
       <use xlink:href="#mc5a30908a2" x="38.7625" y="10.30375" style="fill: #aaaaaa; stroke: #aaaaaa; stroke-width: 0.75"/>
      </g>
     </g>
     <g id="text_13">
      <!-- 50000 -->
      <g style="fill: #808080" transform="translate(7.2 13.4075) scale(0.08 -0.08)">
       <use xlink:href="#Ubuntu-35"/>
       <use xlink:href="#Ubuntu-30" x="56.399994"/>
       <use xlink:href="#Ubuntu-30" x="112.799988"/>
       <use xlink:href="#Ubuntu-30" x="169.199982"/>
       <use xlink:href="#Ubuntu-30" x="225.599976"/>
      </g>
     </g>
    </g>
   </g>
   <g id="line2d_14">
    <path d="M 53.686029 34.202028 
L 53.800026 34.842876 
L 54.02802 40.610505 
L 54.484008 42.48178 
L 54.598005 42.302343 
L 54.825999 36.791053 
L 55.16799 31.971878 
L 55.281987 32.074414 
L 55.851972 38.457257 
L 56.421957 52.273933 
L 57.219936 64.552574 
L 57.44793 66.833992 
L 57.561927 66.628921 
L 57.675924 66.270046 
L 57.789921 66.859626 
L 57.903918 66.833992 
L 58.017915 66.372582 
L 58.131911 66.552019 
L 58.92989 64.603842 
L 59.157884 62.476228 
L 59.385878 60.32298 
L 59.613872 58.990016 
L 59.727869 58.708044 
L 60.06986 54.401547 
L 60.297854 53.017316 
L 60.411851 53.376191 
L 60.639845 51.453648 
L 61.779815 41.994736 
L 62.007809 41.661495 
L 62.235803 40.405434 
L 62.3498 40.584871 
L 62.463797 39.944023 
L 62.691791 40.84121 
L 62.805788 40.789942 
L 63.033781 39.944023 
L 63.147778 40.020925 
L 63.261775 40.302898 
L 63.603766 39.405711 
L 63.717763 39.841488 
L 63.83176 39.764586 
L 63.945757 40.123461 
L 64.059754 40.097827 
L 64.287748 39.636416 
L 64.629739 41.071915 
L 64.97173 40.200362 
L 65.085727 40.302898 
L 65.199724 39.764586 
L 65.313721 42.225441 
L 65.541715 39.123738 
L 65.769709 37.047392 
L 65.883706 36.919222 
L 66.1117 35.304286 
L 66.453691 28.742006 
L 66.909679 16.5659 
L 67.25167 23.666492 
L 67.365667 22.794939 
L 67.593661 18.898586 
L 67.707658 19.231826 
L 67.821654 20.103379 
L 67.935651 19.411264 
L 68.391639 23.615224 
L 68.505636 23.589591 
L 68.619633 23.153814 
L 68.847627 23.640858 
L 68.961624 22.718038 
L 69.075621 23.025645 
L 69.303615 24.640581 
L 69.531609 27.357775 
L 69.759603 28.485667 
L 70.557582 37.252463 
L 70.671579 37.278097 
L 71.01357 38.893033 
L 71.127567 38.098382 
L 71.583555 31.536102 
L 71.697552 31.818075 
L 72.15354 36.944856 
L 72.381534 42.097272 
L 72.723524 51.299844 
L 73.065515 54.888591 
L 73.293509 59.887203 
L 73.521503 63.860459 
L 73.863494 66.833992 
L 73.977491 66.705823 
L 74.205485 67.782447 
L 74.77547 66.167511 
L 75.003464 64.706378 
L 75.117461 64.834547 
L 76.371428 56.119019 
L 76.599422 53.991405 
L 76.713419 54.119574 
L 77.05541 49.76181 
L 77.169407 49.889979 
L 77.397401 47.685463 
L 78.195379 43.276431 
L 78.309376 44.481225 
L 78.53737 44.327422 
L 78.651367 45.250242 
L 78.765364 45.17334 
L 78.993358 44.019815 
L 79.449346 38.61106 
L 79.67734 39.585149 
L 79.791337 39.046837 
L 79.905334 37.278097 
L 80.019331 38.482891 
L 80.133328 42.994458 
L 80.361322 40.25163 
L 80.589316 37.995846 
L 80.703313 36.124571 
L 81.045304 38.969935 
L 81.273298 38.405989 
L 81.387295 38.431623 
L 82.29927 31.818075 
L 83.325243 14.694625 
L 83.43924 16.5659 
L 83.553237 21.48761 
L 83.667234 21.385074 
L 84.009225 17.514354 
L 84.123222 17.386185 
L 84.57921 19.693237 
L 84.807204 21.48761 
L 85.149195 20.692959 
L 85.377189 20.974932 
L 85.491186 20.692959 
L 85.833177 22.820573 
L 85.947174 23.076912 
L 86.289165 27.71665 
L 86.517159 29.280318 
L 86.745153 31.561736 
L 86.85915 31.869343 
L 87.315137 34.535269 
L 87.429134 34.458367 
L 87.543131 33.996957 
L 87.999119 27.691016 
L 88.113116 27.947355 
L 88.683101 35.32992 
L 89.139089 48.557016 
L 89.595077 54.119574 
L 89.937068 60.963827 
L 90.165062 62.937638 
L 90.393056 63.117076 
L 90.62105 64.501307 
L 90.849044 63.270879 
L 91.077038 64.168066 
L 91.191035 64.116798 
L 91.419029 63.527218 
L 91.533026 63.296513 
L 91.76102 61.732845 
L 91.875017 61.579041 
L 92.331004 57.118741 
L 92.445001 57.144375 
L 92.672995 54.786056 
L 92.900989 52.91478 
L 93.014986 52.684075 
L 93.698968 45.506581 
L 94.040959 43.148262 
L 94.154956 43.378967 
L 94.38295 40.3798 
L 94.838938 39.226274 
L 94.952935 39.20064 
L 95.066932 38.047114 
L 95.180929 38.816131 
L 95.52292 36.996124 
L 95.636917 37.636972 
L 95.750914 37.354999 
L 95.864911 36.406544 
L 96.092905 37.252463 
L 96.320899 36.791053 
L 96.434896 36.688517 
L 96.548893 36.765419 
L 96.776887 38.200918 
L 97.00488 37.329365 
L 97.118877 37.329365 
L 97.460868 36.611615 
L 97.574865 36.765419 
L 97.688862 37.380633 
L 97.802859 37.380633 
L 98.258847 35.227384 
L 98.372844 35.124849 
L 98.486841 34.791608 
L 99.28482 26.53749 
L 99.740808 12.848983 
L 99.854805 14.720259 
L 100.082799 19.411264 
L 100.196796 18.847318 
L 100.42479 16.335195 
L 100.652784 16.847873 
L 100.766781 16.43773 
L 101.222769 20.000844 
L 101.336766 20.052111 
L 101.56476 19.667603 
L 101.792753 19.129291 
L 101.90675 19.334362 
L 102.476735 24.691849 
L 103.04672 29.972433 
L 103.388711 32.151316 
L 103.616705 37.09866 
L 103.844699 34.15076 
L 103.958696 33.509913 
L 104.300687 28.665104 
L 104.414684 28.101158 
L 104.528681 28.613836 
L 104.870672 33.458645 
L 105.098666 37.047392 
L 105.554654 50.325756 
L 106.010642 56.144653 
L 106.352633 63.783557 
L 106.80862 66.782724 
L 107.036614 68.06442 
L 107.378605 68.166955 
L 107.492602 67.679911 
L 107.606599 67.93625 
L 107.720596 67.859348 
L 107.94859 68.218223 
L 108.062587 68.602732 
L 108.176584 68.448928 
L 108.404578 68.551464 
L 108.746569 66.731456 
L 108.974563 64.142432 
L 109.544548 61.194533 
L 109.772542 60.117908 
L 109.886539 59.220722 
L 110.22853 55.119296 
L 110.456524 52.889147 
L 110.570521 53.735066 
L 111.71049 48.736454 
L 111.824487 48.531382 
L 112.052481 55.888314 
L 112.166478 56.016483 
L 112.394472 54.401547 
L 112.508469 54.555351 
L 112.85046 53.401825 
L 112.964457 53.581262 
L 113.078454 53.478726 
L 113.192451 53.606896 
L 113.306448 53.555628 
L 113.534442 52.607174 
L 113.648439 52.786611 
L 113.876433 52.58154 
L 113.99043 52.530272 
L 114.104427 52.760977 
L 114.560415 51.222943 
L 114.788409 50.069417 
L 114.902406 47.377856 
L 115.1304 39.79022 
L 115.358394 38.380355 
L 115.700385 33.458645 
L 116.270369 20.43662 
L 116.498363 25.383964 
L 116.840354 23.794662 
L 117.068348 23.179448 
L 117.182345 23.307618 
L 117.524336 25.896642 
L 117.638333 26.434954 
L 117.866327 24.871286 
L 117.980324 25.153259 
L 118.094321 24.89692 
L 118.208318 24.204804 
L 118.322315 24.281706 
L 118.550309 25.999178 
L 118.778303 27.767917 
L 118.8923 28.101158 
L 119.120294 30.331308 
L 119.690279 35.099215 
L 119.918273 37.201195 
L 120.146267 37.816409 
L 120.260264 37.790775 
L 120.716252 30.99779 
L 120.830249 31.254129 
L 121.058242 33.56118 
L 121.51423 38.790498 
L 121.970218 51.889424 
L 122.198212 54.786056 
L 122.426206 57.785223 
L 122.768197 64.475673 
L 122.996191 66.654555 
L 123.110188 66.42385 
L 123.338182 67.397938 
L 123.566176 67.47484 
L 123.680173 67.397938 
L 123.908167 66.244412 
L 124.478152 64.168066 
L 124.820143 61.553407 
L 125.162134 58.169731 
L 125.276131 59.912837 
L 125.960112 51.120407 
L 126.074109 51.197309 
L 126.302103 49.710542 
L 126.644094 45.967992 
L 126.872088 43.148262 
L 127.100082 41.789665 
L 127.214079 42.02037 
L 127.442073 40.25163 
L 127.55607 40.559237 
L 127.784064 39.32881 
L 127.898061 39.20064 
L 128.240052 37.4319 
L 128.354049 50.582095 
L 128.468046 50.428291 
L 128.69604 47.326589 
L 129.380022 39.508247 
L 129.494019 39.738952 
L 129.83601 39.021203 
L 129.950007 39.046837 
L 130.291998 41.200085 
L 130.747985 41.174451 
L 131.431967 37.56007 
L 131.545964 37.508802 
L 131.659961 37.201195 
L 132.001952 32.484556 
L 132.343943 25.845374 
L 132.571937 17.591256 
L 132.685934 18.232104 
L 132.913928 22.897475 
L 133.255919 19.154925 
L 133.483913 18.872952 
L 133.59791 19.026755 
L 134.053898 22.794939 
L 134.167895 22.718038 
L 134.281892 22.128458 
L 134.395889 23.025645 
L 134.509886 22.615502 
L 134.623883 21.718315 
L 134.965874 23.974099 
L 135.421862 28.460033 
L 136.21984 35.893866 
L 136.333837 36.150205 
L 136.561831 37.175561 
L 136.675828 37.278097 
L 136.903822 34.791608 
L 137.245813 31.202861 
L 137.473807 33.253574 
L 137.929795 39.32881 
L 138.385783 51.786889 
L 138.955768 59.989739 
L 139.297759 65.065253 
L 139.525753 66.398216 
L 139.753747 67.090331 
L 139.867744 66.962162 
L 140.095738 65.783002 
L 140.209735 65.7061 
L 140.551725 64.988351 
L 140.665722 65.013985 
L 140.779719 65.193422 
L 141.12171 62.527496 
L 141.463701 60.066641 
L 141.577698 59.759034 
L 141.919689 56.990572 
L 142.147683 55.093663 
L 142.375677 57.887758 
L 143.059659 53.709432 
L 143.173656 51.786889 
L 143.287653 52.58154 
L 143.743641 49.377301 
L 143.857638 50.018149 
L 143.971635 49.274766 
L 144.085632 49.402935 
L 144.313626 48.403213 
L 144.427623 49.197864 
L 144.655617 40.687407 
L 144.769614 40.431068 
L 144.997608 40.687407 
L 145.225601 40.482335 
L 145.453595 38.354721 
L 145.567592 38.867399 
L 145.681589 38.73923 
L 145.795586 38.995569 
L 145.909583 38.918667 
L 146.137577 39.277542 
L 146.593565 38.636694 
L 146.821559 39.533881 
L 146.935556 40.25163 
L 147.049553 40.225996 
L 147.16355 39.405711 
L 147.277547 39.508247 
L 147.847532 36.739785 
L 148.189523 34.714706 
L 148.759508 25.589035 
L 148.987502 18.155202 
L 149.101499 18.949853 
L 149.329493 22.102824 
L 149.671484 19.078023 
L 149.899478 18.232104 
L 150.013474 18.539711 
L 150.241468 20.180281 
L 150.469462 21.231271 
L 150.583459 21.359441 
L 150.697456 21.205637 
L 150.811453 21.48761 
L 151.039447 21.154369 
L 151.153444 21.333807 
L 151.951423 27.562846 
L 152.749402 34.432733 
L 153.091393 35.073581 
L 153.20539 34.560903 
L 153.661378 29.664827 
L 154.003369 32.971601 
L 154.34536 37.354999 
L 154.801348 50.248854 
L 155.257335 55.811412 
L 155.599326 63.373415 
L 155.941317 65.039619 
L 156.055314 65.295958 
L 156.283308 66.064975 
L 156.397305 65.911171 
L 156.511302 66.193144 
L 156.739296 65.83427 
L 157.081287 65.039619 
L 157.765269 59.477061 
L 157.879266 58.426071 
L 157.993263 58.913115 
L 158.449251 54.119574 
L 159.019236 50.018149 
L 159.24723 48.018704 
L 159.703217 45.250242 
L 159.931211 44.173618 
L 160.045208 43.814743 
L 160.273202 41.969102 
L 160.387199 41.789665 
L 160.501196 41.917834 
L 160.615193 41.405156 
L 160.72919 53.145486 
L 160.843187 53.324923 
L 161.071181 51.966326 
L 161.185178 52.017594 
L 161.413172 51.120407 
L 161.527169 51.043505 
L 161.641166 50.633363 
L 161.86916 49.120962 
L 161.983157 48.762087 
L 162.667139 42.276709 
L 162.781136 42.225441 
L 162.895133 40.072193 
L 163.00913 40.072193 
L 163.237124 41.610227 
L 163.351121 41.55896 
L 164.1491 37.918945 
L 164.605087 35.227384 
L 165.175072 24.973822 
L 165.517063 18.309006 
L 165.745057 22.718038 
L 165.859054 22.154092 
L 166.087048 18.103934 
L 166.201045 18.385907 
L 166.315042 17.873229 
L 166.429039 18.155202 
L 166.77103 21.128735 
L 166.999024 22.025922 
L 167.455012 21.974654 
L 167.569009 21.61578 
L 167.797003 22.846207 
L 168.594982 31.664271 
L 169.278964 36.304009 
L 169.39296 36.534714 
L 169.506957 37.021758 
L 169.848948 32.253851 
L 170.076942 29.81863 
L 170.304936 32.074414 
L 170.646927 36.124571 
L 170.760924 37.252463 
L 171.102915 48.787721 
L 171.444906 53.991405 
L 171.558903 55.016761 
L 172.128888 64.706378 
L 172.698873 66.603287 
L 172.81287 65.526663 
L 172.926867 65.629198 
L 173.040864 65.885538 
L 173.610849 62.912004 
L 173.724846 63.142709 
L 173.95284 62.040451 
L 174.180833 60.220444 
L 174.750818 56.45226 
L 175.092809 52.735343 
L 175.662794 48.890257 
L 175.890788 47.07025 
L 176.916761 42.097272 
L 177.372749 40.764308 
L 177.486746 40.661773 
L 177.600743 41.328254 
L 177.828737 39.277542 
L 177.942734 38.816131 
L 178.056731 39.149372 
L 178.170728 39.072471 
L 178.284725 38.816131 
L 178.626716 38.790498 
L 178.85471 39.431345 
L 179.082703 39.559515 
L 179.1967 39.431345 
L 179.310697 39.610783 
L 179.424694 39.533881 
L 179.538691 39.764586 
L 179.652688 39.431345 
L 179.880682 40.507969 
L 180.108676 41.866566 
L 180.33667 39.149372 
L 180.450667 38.816131 
L 181.020652 33.433011 
L 181.590637 22.871841 
L 181.818631 15.207303 
L 181.932628 16.924775 
L 182.160622 22.128458 
L 182.274619 21.923387 
L 182.502613 18.821684 
L 182.61661 19.513799 
L 182.730607 19.488165 
L 182.844604 19.154925 
L 183.414589 22.512966 
L 183.528586 22.102824 
L 183.75658 22.307895 
L 183.870576 21.667047 
L 184.09857 22.256627 
L 184.212567 22.589868 
L 184.668555 26.152981 
L 185.124543 30.946522 
L 185.466534 33.740618 
L 185.580531 33.996957 
L 185.808525 35.740063 
L 186.036519 34.791608 
L 186.492507 28.895809 
L 186.606504 29.716094 
L 186.948495 34.330198 
L 187.176489 36.560348 
L 187.51848 47.99307 
L 188.202462 59.502695 
L 188.430456 63.424682 
L 188.772446 65.398493 
L 189.114437 66.680189 
L 189.342431 65.808636 
L 189.456428 65.911171 
L 189.798419 65.629198 
L 189.912416 65.603565 
L 191.394377 54.350279 
L 191.508374 54.478449 
L 191.736368 52.684075 
L 191.964362 51.222943 
L 192.078359 51.120407 
L 192.876338 44.199252 
L 192.990335 44.147984 
L 193.674316 46.94208 
L 193.90231 46.121795 
L 194.244301 41.30262 
L 194.358298 41.353888 
L 194.586292 40.789942 
L 194.700289 41.071915 
L 194.814286 40.225996 
L 194.928283 37.662606 
L 195.156277 37.585704 
L 195.384271 38.713596 
L 195.498268 38.175284 
L 195.612265 38.200918 
L 195.726262 38.02148 
L 195.840259 37.483168 
L 195.954256 37.713873 
L 196.296247 38.969935 
L 196.410244 38.944301 
L 196.524241 38.790498 
L 196.638238 38.867399 
L 197.436217 34.432733 
L 197.664211 30.920888 
L 198.006202 24.614947 
L 198.234196 16.770971 
L 198.348192 15.719981 
L 198.576186 21.590146 
L 198.80418 18.79605 
L 198.918177 19.283094 
L 199.032174 19.488165 
L 199.260168 17.975765 
L 199.488162 20.30845 
L 199.602159 19.770138 
L 199.830153 22.307895 
L 199.94415 22.307895 
L 200.172144 20.487888 
L 200.286141 20.462254 
L 200.514135 20.692959 
L 200.628132 20.667325 
L 201.08412 24.666215 
L 201.882099 30.510746 
L 202.338087 31.869343 
L 202.452084 31.074691 
L 202.794075 26.819463 
L 202.908072 26.845097 
L 203.022069 27.614114 
L 203.70605 39.687684 
L 203.934044 45.583483 
L 204.504029 52.684075 
L 204.84602 60.32298 
L 205.074014 62.912004 
L 205.188011 62.732567 
L 205.530002 64.911449 
L 205.643999 64.270601 
L 205.757996 64.603842 
L 205.871993 64.450039 
L 206.099987 63.399049 
L 206.327981 63.091442 
L 206.441978 62.912004 
L 206.555975 63.193977 
L 206.669972 62.681299 
L 207.011963 58.887481 
L 207.12596 59.041284 
L 208.037935 52.709709 
L 208.151932 52.094495 
L 208.379926 49.3004 
L 208.60792 48.531382 
L 209.063908 45.532215 
L 209.291902 43.66094 
L 209.633893 41.020647 
L 210.203878 39.867122 
L 210.317875 39.277542 
L 210.431872 39.354444 
L 210.659866 38.636694 
L 211.115854 40.789942 
L 211.571842 39.123738 
L 211.685839 39.303176 
L 211.799836 39.123738 
L 212.02783 39.815854 
L 212.141827 38.662328 
L 212.255824 38.713596 
L 212.369821 38.431623 
L 212.597815 38.585426 
L 212.711812 38.687962 
L 213.167799 36.047669 
L 213.623787 34.15076 
L 213.737784 33.586814 
L 214.421766 24.409876 
L 214.64976 16.899141 
L 214.763757 16.924775 
L 214.991751 21.385074 
L 215.561736 17.61689 
L 216.131721 20.334084 
L 216.359715 21.590146 
L 216.473712 21.436342 
L 216.587709 20.616057 
L 216.701706 20.744227 
L 216.9297 21.590146 
L 217.385688 26.870731 
L 217.955672 29.9468 
L 218.297663 33.176672 
L 218.41166 33.920055 
L 218.525657 33.740618 
L 218.639654 34.842876 
L 218.753651 34.432733 
L 219.323636 27.998623 
L 219.437633 28.383131 
L 220.235612 45.480947 
L 220.577603 52.684075 
L 220.6916 53.17112 
L 220.919594 57.016206 
L 221.261585 64.039896 
L 221.717573 66.910894 
L 221.83157 67.141599 
L 222.059564 68.090054 
L 222.287558 67.731179 
L 222.401555 67.628643 
L 222.629548 66.782724 
L 222.857542 67.244135 
L 222.971539 67.141599 
L 223.085536 66.808358 
L 223.199533 67.064697 
L 223.31353 66.910894 
L 223.655521 65.065253 
L 223.769518 65.065253 
L 224.4535 60.19481 
L 224.681494 58.656776 
L 225.251479 54.760422 
L 225.479473 53.837601 
L 226.049458 49.556739 
L 226.163455 49.531105 
L 226.619443 46.608839 
L 226.73344 46.788277 
L 226.847437 46.531938 
L 226.961434 46.711375 
L 227.189428 45.942358 
L 227.987406 44.353055 
L 228.101403 44.558127 
L 228.2154 44.327422 
L 228.329397 44.865734 
L 228.443394 46.839544 
L 228.671388 46.044893 
L 228.899382 45.557849 
L 229.013379 45.865456 
L 229.127376 45.814188 
L 229.469367 44.378689 
L 229.583364 45.147707 
L 229.811358 43.455869 
L 230.267346 39.610783 
L 230.49534 37.303731 
L 230.837331 29.100881 
L 231.179322 20.513522 
L 231.407316 25.050723 
L 231.521313 24.666215 
L 231.749307 22.256627 
L 231.863304 22.102824 
L 231.977301 21.436342 
L 232.091298 21.461976 
L 232.319291 23.871564 
L 232.433288 23.384519 
L 232.661282 24.666215 
L 232.775279 24.691849 
L 232.889276 25.409598 
L 233.003273 24.30734 
L 233.231267 24.691849 
L 233.345264 24.691849 
L 233.573258 24.999455 
L 233.687255 25.589035 
L 234.25724 31.177227 
L 234.371237 31.151593 
L 234.599231 33.868787 
L 234.827225 34.355832 
L 235.055219 35.253018 
L 235.283213 34.765974 
L 235.739201 29.177782 
L 236.081192 33.894421 
L 236.309186 36.252741 
L 236.423183 38.277819 
L 236.765174 49.941247 
L 236.993168 52.940414 
L 237.221161 54.786056 
L 237.677149 64.014262 
L 237.905143 65.398493 
L 238.01914 65.654832 
L 238.361131 67.064697 
L 238.703122 65.603565 
L 238.817119 65.321592 
L 238.931116 65.859904 
L 239.045113 65.629198 
L 239.387104 64.373137 
L 239.501101 64.475673 
L 239.615098 63.629754 
L 239.843092 61.091997 
L 240.29908 57.554518 
L 240.641071 51.428014 
L 240.755068 50.94097 
L 241.325053 45.993626 
L 241.553047 44.942635 
L 241.667044 45.352778 
L 242.009034 43.045726 
L 242.807013 39.20064 
L 242.92101 38.867399 
L 243.035007 37.867677 
L 243.149004 37.970213 
L 243.263001 37.56007 
L 243.490995 36.432178 
L 243.604992 36.457812 
L 243.718989 36.611615 
L 243.946983 36.047669 
L 244.288974 35.611893 
L 244.630965 37.073026 
L 244.744962 36.714151 
L 244.858959 36.791053 
L 245.086953 36.38091 
L 245.20095 36.688517 
L 245.314947 36.227107 
L 245.542941 36.483446 
L 245.656938 36.534714 
L 245.770935 36.098937 
L 245.884932 36.124571 
L 246.226923 35.099215 
L 246.34092 33.68935 
L 246.454917 34.27893 
L 247.024901 28.665104 
L 247.252895 24.691849 
L 247.594886 15.207303 
L 247.82288 21.128735 
L 247.936877 20.872396 
L 248.164871 17.411819 
L 248.278868 17.668158 
L 248.506862 17.078578 
L 248.96285 19.770138 
L 249.076847 19.872674 
L 249.304841 20.539156 
L 249.646832 18.898586 
L 249.760829 19.180558 
L 249.988823 21.128735 
L 250.216817 22.718038 
L 250.558808 26.460588 
L 251.356787 32.894699 
L 251.470784 32.587092 
L 251.698777 32.843431 
L 252.040768 26.768195 
L 252.154765 26.870731 
L 252.382759 29.459755 
L 252.952744 39.687684 
L 253.294735 48.172508 
L 253.522729 52.120129 
L 253.636726 51.658719 
L 253.86472 56.554795 
L 254.092714 61.450872 
L 254.434705 62.88637 
L 254.548702 63.040174 
L 254.662699 62.963272 
L 254.890693 69.371749 
L 255.118687 62.912004 
L 255.460678 62.066085 
L 255.688672 61.83538 
L 255.802669 61.450872 
L 256.258657 57.939026 
L 256.48665 56.042117 
L 256.714644 54.760422 
L 256.828641 54.914225 
L 256.942638 55.196198 
L 258.424599 44.378689 
L 258.880587 42.584316 
L 258.994584 42.738119 
L 259.222578 40.431068 
L 259.336575 40.225996 
L 259.450572 41.046281 
L 259.792563 39.636416 
L 259.90656 39.79022 
L 260.020557 39.636416 
L 260.134554 41.30262 
L 260.362548 39.636416 
L 260.590542 38.73923 
L 260.932533 39.969657 
L 261.04653 39.79022 
L 261.274523 39.149372 
L 261.38852 39.482613 
L 261.502517 38.457257 
L 261.844508 40.328532 
L 262.072502 40.046559 
L 262.186499 39.764586 
L 262.300496 40.943746 
L 262.52849 37.867677 
L 262.642487 40.200362 
L 262.870481 39.995291 
L 263.098475 35.714429 
L 263.554463 28.357497 
L 263.782457 21.48761 
L 264.010451 16.719703 
L 264.352442 22.333529 
L 264.580436 19.180558 
L 264.694433 19.436898 
L 264.922427 18.949853 
L 265.036424 20.257183 
L 265.150421 19.84704 
L 265.264418 20.077745 
L 265.378415 22.128458 
L 265.492412 21.308173 
L 265.606409 21.385074 
L 265.834403 22.20536 
L 266.176393 21.743949 
L 266.29039 22.07719 
L 266.974372 28.665104 
L 267.202366 30.151871 
L 267.316363 30.818352 
L 267.544357 33.09977 
L 267.886348 35.406822 
L 268.000345 34.945411 
L 268.228339 31.58737 
L 268.456333 29.305952 
L 268.57033 28.870175 
L 268.684327 28.895809 
L 268.912321 32.869065 
L 269.026318 32.920333 
L 269.254312 36.50908 
L 269.596303 47.659829 
L 269.824297 51.530549 
L 270.052291 53.222387 
L 270.736273 64.757646 
L 270.85027 65.321592 
L 270.964266 65.295958 
L 271.19226 65.757368 
L 271.306257 65.193422 
L 271.420254 65.372859 
L 271.648248 63.962994 
L 271.762245 64.706378 
L 271.876242 64.475673 
L 272.104236 63.501584 
L 272.218233 63.886093 
L 272.446227 62.373692 
L 272.560224 63.040174 
L 273.016212 60.374247 
L 273.244206 58.68241 
L 273.4722 56.272822 
L 273.586197 56.170287 
L 273.814191 54.247744 
L 274.156182 50.735898 
L 274.270179 51.222943 
L 274.384176 50.94097 
L 274.61217 47.941802 
L 275.296152 40.636139 
L 275.410149 40.610505 
L 275.524146 40.405434 
L 275.638143 40.507969 
L 275.752139 40.328532 
L 275.866136 38.508525 
L 275.980133 38.816131 
L 276.09413 39.585149 
L 276.322124 38.200918 
L 276.436121 38.02148 
L 276.664115 38.329087 
L 276.778112 37.765141 
L 277.006106 38.226552 
L 277.120103 37.636972 
L 277.348097 38.73923 
L 277.462094 38.867399 
L 277.576091 38.303453 
L 277.804085 38.841765 
L 277.918082 38.713596 
L 278.032079 37.995846 
L 278.260073 38.534158 
L 278.37407 38.405989 
L 278.602064 39.123738 
L 278.716061 39.021203 
L 278.944055 37.149927 
L 279.058052 36.791053 
L 279.400043 34.432733 
L 279.628037 33.22794 
L 279.742034 32.433289 
L 280.426016 17.15548 
L 280.540012 18.155202 
L 280.654009 20.641691 
L 280.768006 20.052111 
L 280.996 18.001399 
L 281.109997 17.821961 
L 281.337991 17.181114 
L 281.565985 18.616613 
L 281.679982 18.821684 
L 281.907976 20.564789 
L 282.021973 20.513522 
L 282.249967 20.795495 
L 282.477961 20.180281 
L 282.591958 20.616057 
L 282.819952 22.871841 
L 282.933949 22.384797 
L 283.27594 27.972989 
L 283.959922 32.305119 
L 284.301913 33.663716 
L 284.41591 33.894421 
L 284.643904 31.279763 
L 284.985895 28.04989 
L 285.327886 32.689628 
L 285.555879 34.894144 
L 286.353858 51.120407 
L 286.695849 57.298179 
L 286.923843 61.861014 
L 287.265834 63.860459 
L 287.493828 64.52694 
L 287.607825 64.475673 
L 287.721822 64.168066 
L 287.949816 63.296513 
L 288.063813 63.501584 
L 288.291807 62.630031 
L 288.405804 63.245245 
L 288.519801 66.705823 
L 288.633798 66.75709 
L 289.773768 59.01565 
L 290.115759 54.914225 
L 290.229755 54.862957 
L 290.571746 52.120129 
L 290.79974 44.532493 
L 291.141731 42.148539 
L 291.255728 42.302343 
L 291.597719 39.380077 
L 291.825713 37.483168 
L 291.93971 37.483168 
L 292.053707 38.354721 
L 292.281701 37.662606 
L 292.623692 35.278652 
L 292.737689 35.176117 
L 292.965683 31.433566 
L 293.07968 31.125959 
L 293.193677 31.279763 
L 293.307674 31.971878 
L 293.421671 37.354999 
L 293.535668 37.09866 
L 293.763662 37.508802 
L 293.877659 37.303731 
L 293.991656 37.329365 
L 294.105653 37.508802 
L 294.333647 36.688517 
L 294.789635 37.944579 
L 295.017629 36.765419 
L 295.131625 37.021758 
L 295.245622 36.944856 
L 295.359619 36.457812 
L 295.587613 34.509635 
L 295.70161 34.637805 
L 295.929604 33.612448 
L 296.043601 33.022868 
L 296.499589 26.383686 
L 296.84158 17.15548 
L 296.955577 18.155202 
L 297.069574 20.385352 
L 297.411565 18.052667 
L 297.525562 18.232104 
L 297.753556 17.15548 
L 297.98155 18.20647 
L 298.095547 19.565067 
L 298.323541 23.435787 
L 298.437538 22.20536 
L 298.551535 22.179726 
L 298.893526 19.744504 
L 299.12152 20.744227 
L 299.349514 22.20536 
L 299.577508 25.204527 
L 299.691505 24.89692 
L 300.489483 31.638637 
L 300.60348 31.792441 
L 300.831474 32.740895 
L 301.059468 29.81863 
L 301.287462 27.255239 
L 301.401459 27.409043 
L 301.629453 30.023701 
L 302.085441 37.175561 
L 302.427432 46.865178 
L 303.339408 61.220166 
L 303.795396 64.373137 
L 304.02339 64.578208 
L 304.137387 64.424405 
L 304.251384 64.475673 
L 304.479378 64.091164 
L 304.593375 63.911727 
L 304.821368 62.501862 
L 304.935365 62.783835 
L 305.049362 62.091719 
L 305.163359 62.578764 
L 305.391353 61.143265 
L 305.733344 58.144098 
L 305.847341 57.759589 
L 307.443299 44.635028 
L 307.557296 44.199252 
L 307.671293 43.302065 
L 307.78529 43.327699 
L 308.013284 41.943468 
L 308.355275 42.815021 
L 308.583269 44.019815 
L 308.811263 43.430235 
L 309.153254 38.559792 
L 309.381248 37.944579 
L 309.495245 38.405989 
L 309.837235 37.406267 
L 309.951232 37.09866 
L 310.521217 38.354721 
L 310.635214 37.867677 
L 310.749211 38.047114 
L 310.977205 38.662328 
L 311.091202 38.713596 
L 311.205199 39.32881 
L 312.231172 34.842876 
L 312.345169 34.637805 
L 312.68716 30.690183 
L 312.915154 26.768195 
L 313.257145 17.770694 
L 313.371142 18.949853 
L 313.485139 21.513244 
L 313.82713 19.539433 
L 314.055124 20.052111 
L 314.283118 19.539433 
L 314.511111 19.616335 
L 314.739105 22.128458 
L 314.967099 21.461976 
L 315.081096 21.205637 
L 315.195093 21.256905 
L 315.423087 21.077468 
L 315.537084 21.308173 
L 315.879075 23.948465 
L 316.335063 27.460311 
L 316.677054 30.562013 
L 316.791051 30.767085 
L 317.133042 32.228217 
L 317.247039 32.074414 
L 317.361036 31.331031 
L 317.703027 26.53749 
L 317.817024 26.973266 
L 318.045018 29.69046 
L 318.501006 35.816964 
L 318.842997 46.557571 
L 319.070991 50.095051 
L 319.412981 53.888869 
L 319.868969 64.168066 
L 320.21096 65.398493 
L 320.438954 66.193144 
L 320.552951 66.141877 
L 320.780945 65.526663 
L 321.008939 65.090886 
L 321.122936 64.1937 
L 321.236933 64.911449 
L 321.578924 63.373415 
L 321.692921 63.065808 
L 322.034912 59.092552 
L 322.262906 58.528606 
L 322.376903 58.68241 
L 324.314851 42.404878 
L 324.770839 40.354166 
L 324.884836 39.251908 
L 324.998833 39.431345 
L 325.11283 38.841765 
L 325.340824 39.508247 
L 325.454821 39.380077 
L 325.568818 38.713596 
L 325.796812 39.738952 
L 325.910809 39.841488 
L 326.138803 39.251908 
L 326.2528 39.277542 
L 326.366797 39.021203 
L 326.480794 39.123738 
L 326.594791 38.790498 
L 326.708788 38.969935 
L 326.822785 38.918667 
L 327.164776 37.995846 
L 327.278773 38.329087 
L 327.39277 38.098382 
L 327.506767 38.534158 
L 327.848758 37.406267 
L 327.962755 37.739507 
L 328.304746 35.970768 
L 328.53274 35.534991 
L 328.646737 35.765696 
L 329.102724 31.202861 
L 329.330718 28.742006 
L 329.444715 30.818352 
L 329.672709 17.847595 
L 329.786706 17.539988 
L 330.0147 20.539156 
L 330.242694 18.0783 
L 330.356691 18.052667 
L 330.584685 17.411819 
L 330.926676 18.975487 
L 331.15467 20.462254 
L 331.268667 20.667325 
L 331.382664 21.154369 
L 331.496661 20.590423 
L 331.610658 20.616057 
L 331.724655 20.30845 
L 331.952649 21.461976 
L 332.180643 22.871841 
L 332.636631 26.281151 
L 333.43461 31.766807 
L 333.548607 31.664271 
L 333.662604 31.305397 
L 334.004594 27.306507 
L 334.118591 26.024812 
L 334.346585 27.203971 
L 334.91657 35.381188 
L 335.372558 48.659552 
L 335.828546 54.22211 
L 336.170537 62.219889 
L 336.398531 63.783557 
L 336.854519 66.29568 
L 336.968516 66.218778 
L 337.082513 65.962439 
L 337.19651 66.141877 
L 337.310507 65.808636 
L 337.538501 65.962439 
L 337.652498 65.911171 
L 337.766495 66.141877 
L 337.880492 66.116243 
L 337.994489 65.962439 
L 338.108486 65.167788 
L 338.222483 65.295958 
L 338.450477 64.398771 
L 338.564473 64.244967 
L 340.046434 56.170287 
L 340.844413 48.71082 
L 340.95841 49.095328 
L 341.414398 46.455036 
L 341.642392 46.121795 
L 341.756389 45.967992 
L 342.09838 45.147707 
L 342.668365 44.276154 
L 342.896359 45.557849 
L 343.124353 44.660662 
L 343.352347 43.968547 
L 343.466343 44.071082 
L 343.58034 43.686574 
L 343.694337 43.814743 
L 343.808334 43.558404 
L 343.922331 43.840377 
L 344.036328 43.609672 
L 344.264322 42.60995 
L 344.492316 41.764031 
L 344.606313 41.276987 
L 344.834307 39.610783 
L 345.404292 34.355832 
L 345.86028 26.434954 
L 346.088274 19.770138 
L 346.202271 19.821406 
L 346.316268 22.718038 
L 346.430265 22.692404 
L 346.658259 21.48761 
L 346.772256 21.564512 
L 347.00025 20.334084 
L 347.114247 21.48761 
L 347.228244 21.461976 
L 347.342241 21.128735 
L 347.456238 21.667047 
L 347.684232 23.384519 
L 348.026223 22.692404 
L 348.14022 22.307895 
L 348.254216 21.513244 
L 348.48221 22.974377 
L 349.052195 26.383686 
L 349.508183 29.921166 
L 349.62218 30.305674 
L 349.850174 32.663994 
L 349.964171 32.382021 
L 350.192165 30.613281 
L 350.534156 26.614392 
L 350.648153 26.486222 
L 351.104141 31.92061 
L 352.472105 59.835935 
L 352.814096 63.399049 
L 352.928093 63.245245 
L 353.156086 64.168066 
L 353.270083 64.06553 
L 353.38408 64.116798 
L 353.726071 62.55313 
L 353.840068 62.988906 
L 354.068062 62.758201 
L 354.296056 61.937916 
L 354.410053 62.168621 
L 354.638047 60.425515 
L 355.094035 56.119019 
L 355.208032 57.37508 
L 355.436026 52.530272 
L 355.778017 49.992515 
L 355.892014 50.095051 
L 356.006011 48.685186 
L 356.120008 48.71082 
L 356.689993 42.738119 
L 356.917987 38.508525 
L 357.031984 37.918945 
L 357.259978 36.38091 
L 357.373975 36.073303 
L 357.601969 34.125126 
L 357.715966 33.663716 
L 357.829963 34.74034 
L 358.057956 33.176672 
L 358.28595 33.894421 
L 358.627941 32.305119 
L 358.741938 32.458922 
L 358.855935 33.048502 
L 359.083929 32.023146 
L 359.42592 36.739785 
L 359.539917 36.739785 
L 359.767911 35.740063 
L 359.881908 36.073303 
L 359.995905 35.816964 
L 360.451893 37.252463 
L 360.56589 37.09866 
L 360.679887 37.226829 
L 360.793884 37.124294 
L 361.021878 35.586259 
L 361.135875 35.996402 
L 361.70586 32.382021 
L 362.161848 25.230161 
L 362.503839 16.155757 
L 362.617836 17.360551 
L 362.731832 20.077745 
L 362.845829 19.84704 
L 363.073823 17.693792 
L 363.18782 17.386185 
L 363.301817 17.950131 
L 363.415814 17.539988 
L 363.529811 17.719426 
L 363.643808 19.206192 
L 363.757805 19.231826 
L 363.985799 20.43662 
L 364.099796 19.667603 
L 364.213793 20.564789 
L 364.32779 20.000844 
L 364.441787 20.052111 
L 364.669781 19.565067 
L 364.783778 19.667603 
L 365.011772 21.231271 
L 365.239766 22.615502 
L 365.809751 27.485944 
L 366.037745 29.305952 
L 366.379736 31.279763 
L 366.493733 31.151593 
L 366.721727 28.536935 
L 366.949721 25.691571 
L 367.063718 25.999178 
L 367.177715 27.101436 
L 367.519706 32.279485 
L 367.747699 35.560625 
L 368.08969 46.147429 
L 368.887669 59.989739 
L 369.343657 64.860181 
L 369.457654 64.885815 
L 370.027639 64.398771 
L 370.141636 64.398771 
L 370.255633 64.244967 
L 370.597624 56.836768 
L 370.939615 55.86268 
L 372.307579 43.712208 
L 372.421575 43.558404 
L 372.649569 41.943468 
L 372.877563 45.17334 
L 372.99156 44.686296 
L 373.333551 41.328254 
L 373.447548 42.071638 
L 373.561545 40.020925 
L 373.675542 40.072193 
L 374.473521 37.201195 
L 374.587518 36.406544 
L 374.701515 36.483446 
L 374.815512 36.227107 
L 374.929509 35.355554 
L 375.043506 32.330753 
L 375.157503 32.920333 
L 375.385497 31.4592 
L 375.499494 31.613004 
L 375.613491 31.536102 
L 376.183476 32.484556 
L 376.525467 34.791608 
L 376.639464 34.971045 
L 376.867458 35.509357 
L 376.981455 35.483724 
L 377.209449 33.868787 
L 377.323445 34.099493 
L 377.437442 34.048225 
L 377.665436 31.92061 
L 377.779433 32.484556 
L 378.349418 28.485667 
L 378.691409 21.333807 
L 378.919403 15.207303 
L 379.0334 14.745893 
L 379.147397 17.950131 
L 379.261394 17.950131 
L 379.603385 14.489553 
L 379.831379 15.540544 
L 379.945376 15.181669 
L 380.17337 15.97632 
L 380.401364 17.74506 
L 380.629358 16.899141 
L 380.743355 16.899141 
L 380.857352 16.668436 
L 381.085346 15.540544 
L 381.199343 15.745615 
L 381.769328 20.334084 
L 382.225315 22.897475 
L 382.567306 25.742839 
L 382.7953 26.768195 
L 382.909297 26.53749 
L 383.023294 25.896642 
L 383.365285 22.128458 
L 383.479282 22.230993 
L 384.049267 30.28004 
L 385.303234 55.657609 
L 385.645225 60.579319 
L 385.873219 61.784112 
L 385.987216 62.219889 
L 386.21521 61.579041 
L 386.329207 61.527773 
L 386.785195 60.246078 
L 386.899191 60.32298 
L 387.013188 59.579596 
L 387.127185 59.60523 
L 387.355179 58.964383 
L 387.69717 55.14493 
L 387.811167 54.965493 
L 388.039161 53.555628 
L 388.381152 48.915891 
L 388.495149 48.172508 
L 388.83714 44.506859 
L 389.293128 40.84121 
L 389.635119 37.124294 
L 389.863113 36.919222 
L 390.091107 35.714429 
L 390.319101 33.663716 
L 390.433098 33.509913 
L 390.547095 32.817797 
L 390.775089 33.458645 
L 391.459071 31.228495 
L 391.687065 31.407932 
L 391.801061 31.510468 
L 392.143052 34.355832 
L 392.257049 34.304564 
L 392.485043 34.535269 
L 392.713037 34.227662 
L 392.941031 34.791608 
L 393.055028 34.689072 
L 393.283022 35.099215 
L 393.397019 34.894144 
L 393.625013 35.150483 
L 393.853007 34.74034 
L 394.308995 33.253574 
L 394.87898 28.972711 
L 395.106974 24.025367 
L 395.448965 16.694069 
L 395.676959 20.154647 
L 395.904953 16.770971 
L 396.01895 16.488998 
L 396.246944 16.796605 
L 396.474938 18.565345 
L 396.816928 21.359441 
L 396.930925 21.128735 
L 397.158919 21.513244 
L 397.272916 20.359718 
L 397.386913 20.667325 
L 397.614907 20.231549 
L 397.728904 20.718593 
L 397.956898 20.641691 
L 398.412886 23.205082 
L 398.526883 23.307618 
L 398.64088 23.589591 
L 398.982871 26.973266 
L 399.096868 28.17806 
L 399.324862 27.947355 
L 399.438859 27.691016 
L 399.666853 25.640303 
L 399.78085 24.717482 
L 399.894847 24.948188 
L 400.008844 25.794107 
L 400.578829 34.022591 
L 401.034817 47.711097 
L 401.604801 55.837046 
L 401.946792 61.2458 
L 402.174786 63.065808 
L 402.40278 63.47595 
L 402.516777 64.116798 
L 402.630774 64.039896 
L 402.858768 63.757923 
L 403.086762 63.886093 
L 403.200759 63.834825 
L 403.428753 62.937638 
L 403.54275 62.809469 
L 403.656747 61.784112 
L 403.770744 61.83538 
L 404.226732 58.349169 
L 404.340729 57.862125 
L 404.910714 51.171675 
L 405.024711 50.658997 
L 405.594696 45.198974 
L 406.392674 40.020925 
L 406.506671 38.893033 
L 406.620668 38.944301 
L 406.848662 37.790775 
L 407.076656 36.560348 
L 407.30465 36.124571 
L 407.418647 36.150205 
L 407.532644 35.996402 
L 407.646641 36.047669 
L 407.760638 35.047947 
L 407.988632 35.278652 
L 408.216626 34.765974 
L 408.44462 33.996957 
L 408.672614 34.586537 
L 408.786611 34.637805 
L 408.900608 34.509635 
L 409.014605 35.124849 
L 409.128602 34.612171 
L 409.356596 34.637805 
L 409.698587 36.150205 
L 409.812584 36.457812 
L 409.926581 35.868232 
L 410.040578 36.201473 
L 410.154575 35.176117 
L 410.268572 35.509357 
L 410.496566 33.714984 
L 410.72456 33.330475 
L 410.952554 32.407655 
L 411.294544 28.844542 
L 411.864529 15.97632 
L 411.978526 19.078023 
L 412.092523 19.103657 
L 412.320517 16.642802 
L 412.434514 16.181391 
L 412.548511 14.822794 
L 412.776505 15.591811 
L 413.232493 17.975765 
L 413.34649 17.565622 
L 413.460487 17.950131 
L 413.574484 17.309283 
L 413.688481 17.309283 
L 413.802478 17.001676 
L 414.030472 17.488721 
L 414.258466 18.898586 
L 414.372463 18.79605 
L 414.714454 22.07719 
L 414.828451 22.5386 
L 415.170442 26.07608 
L 415.284439 26.332419 
L 415.512433 27.972989 
L 415.62643 27.972989 
L 415.740427 28.972711 
L 415.854424 28.203694 
L 416.082417 25.332696 
L 416.196414 24.486777 
L 416.310411 24.76875 
L 416.538405 26.768195 
L 416.994393 34.714706 
L 417.336384 44.045449 
L 417.564378 49.095328 
L 417.792372 51.786889 
L 418.476354 62.706933 
L 418.704348 63.347781 
L 418.932342 64.706378 
L 419.160336 63.168343 
L 419.38833 62.835103 
L 419.502327 63.040174 
L 419.730321 63.091442 
L 420.072312 62.42496 
L 420.186309 62.271157 
L 420.756293 58.067196 
L 420.87029 57.733955 
L 421.098284 54.760422 
L 421.212281 54.965493 
L 421.326278 55.837046 
L 422.580245 40.3798 
L 422.694242 41.020647 
L 422.922236 38.713596 
L 423.15023 39.482613 
L 423.264227 39.610783 
L 423.492221 40.507969 
L 423.606218 40.687407 
L 423.720215 40.225996 
L 424.062206 35.842598 
L 424.2902 35.227384 
L 424.404197 34.919778 
L 424.632191 33.433011 
L 424.746188 33.714984 
L 424.860185 33.433011 
L 425.088179 33.612448 
L 425.202176 33.945689 
L 425.316173 33.68935 
L 425.77216 34.996679 
L 426.000154 34.689072 
L 426.114151 34.842876 
L 426.228148 35.432456 
L 426.798133 34.27893 
L 427.140124 30.049335 
L 427.368118 29.177782 
L 427.710109 25.794107 
L 427.938103 20.462254 
L 428.166097 12.69518 
L 428.280094 11.926163 
L 428.508088 15.104767 
L 428.736082 12.925885 
L 429.078073 11.592922 
L 429.648058 13.592367 
L 429.762055 13.515465 
L 429.876052 13.771804 
L 430.104046 13.541099 
L 430.33204 13.669268 
L 430.446036 13.489831 
L 430.67403 13.899974 
L 431.016021 18.001399 
L 431.472009 20.590423 
L 432.269988 23.897197 
L 432.611979 20.667325 
L 432.725976 21.077468 
L 432.95397 24.30734 
L 433.295961 29.639193 
L 433.523955 35.509357 
L 433.865946 44.558127 
L 434.549928 57.272545 
L 434.777922 60.374247 
L 435.005916 61.579041 
L 435.347906 62.912004 
L 435.461903 62.860736 
L 435.5759 62.630031 
L 435.689897 63.065808 
L 435.917891 64.706378 
L 436.031888 64.911449 
L 436.145885 64.732012 
L 437.399852 57.04184 
L 437.741843 53.273655 
L 437.969837 52.376468 
L 438.311828 48.505748 
L 438.425825 49.787444 
L 438.653819 47.377856 
L 438.767816 47.07025 
L 439.109807 43.635306 
L 439.337801 42.456146 
L 439.793789 40.584871 
L 439.907786 40.149095 
L 440.021783 40.738674 
L 440.249776 39.559515 
L 440.47777 38.944301 
L 440.591767 38.867399 
L 440.705764 39.123738 
L 440.819761 38.995569 
L 440.933758 38.482891 
L 441.047755 38.508525 
L 441.275749 36.688517 
L 441.389746 36.842321 
L 441.61774 36.304009 
L 441.731737 36.406544 
L 441.845734 36.201473 
L 441.959731 36.842321 
L 442.187725 36.098937 
L 442.301722 35.816964 
L 442.415719 36.227107 
L 442.643713 36.124571 
L 442.985704 34.996679 
L 443.327695 33.176672 
L 443.555689 32.689628 
L 443.89768 30.562013 
L 444.125674 27.639748 
L 444.581662 15.130401 
L 444.695659 15.617445 
L 444.809656 17.821961 
L 444.923652 17.642524 
L 445.037649 16.642802 
L 445.151646 16.642802 
L 445.493637 15.309838 
L 445.721631 16.232659 
L 445.835628 15.925052 
L 446.063622 17.514354 
L 446.291616 15.97632 
L 446.405613 16.10449 
L 446.51961 16.130124 
L 446.747604 16.412096 
L 446.861601 16.591534 
L 447.203592 18.20647 
L 447.545583 21.180003 
L 447.773577 22.564234 
L 448.229565 25.922276 
L 448.571556 27.178338 
L 448.79955 26.050446 
L 448.913547 28.742006 
L 449.141541 27.434677 
L 449.597529 31.843709 
L 449.825522 35.688795 
L 450.167513 44.25052 
L 450.395507 48.890257 
L 450.623501 51.479282 
L 451.193486 62.42496 
L 451.535477 64.808913 
L 451.649474 64.757646 
L 451.763471 65.936805 
L 452.105462 65.219056 
L 452.447453 64.424405 
L 452.789444 64.78328 
L 452.903441 64.52694 
L 453.017438 64.732012 
L 453.929414 60.502417 
L 454.271405 57.272545 
L 454.613395 54.529717 
L 455.753365 44.429957 
L 456.095356 43.763476 
L 456.209353 42.738119 
L 456.32335 42.866289 
L 457.007332 39.303176 
L 457.121329 39.66205 
L 457.349323 38.790498 
L 457.577317 41.276987 
L 457.805311 40.482335 
L 458.033305 38.329087 
L 458.261299 38.867399 
L 458.375296 37.970213 
L 458.489293 38.508525 
L 458.717287 38.14965 
L 458.831284 38.431623 
L 459.059278 38.277819 
L 459.173275 38.431623 
L 459.515265 36.662883 
L 459.629262 36.688517 
L 459.743259 36.124571 
L 459.857256 36.150205 
L 460.313244 33.81752 
L 460.769232 25.35833 
L 461.111223 19.001121 
L 461.22522 22.512966 
L 461.681208 17.796327 
L 461.909202 16.001954 
L 462.023199 16.335195 
L 462.251193 15.694347 
L 462.479187 16.10449 
L 462.593184 15.719981 
L 462.707181 15.97632 
L 462.935175 14.156313 
L 463.163169 15.053499 
L 463.50516 17.181114 
L 463.847151 20.205915 
L 464.075145 21.333807 
L 464.189142 22.000288 
L 464.645129 26.716927 
L 465.101117 31.100325 
L 465.443108 34.432733 
L 465.671102 35.765696 
L 466.697075 45.993626 
L 467.153063 52.171397 
L 467.495054 60.425515 
L 468.065039 64.732012 
L 468.293033 64.629476 
L 468.521027 62.937638 
L 468.749021 60.630587 
L 469.091012 59.348891 
L 469.205008 59.759034 
L 469.319005 59.14382 
L 469.546999 56.144653 
L 469.660996 55.708876 
L 469.774993 55.86268 
L 469.88899 55.708876 
L 470.116984 57.50325 
L 470.344978 55.170564 
L 470.458975 57.426348 
L 470.686969 55.247466 
L 470.800966 54.657886 
L 470.914963 54.734788 
L 471.142957 54.145208 
L 471.826939 52.120129 
L 471.940936 52.171397 
L 472.510921 50.120685 
L 472.966909 48.377579 
L 473.080906 48.403213 
L 473.194903 48.275043 
L 473.3089 48.326311 
L 473.422897 48.633918 
L 473.650891 49.531105 
L 473.764888 49.915613 
L 473.878885 48.454481 
L 474.106878 51.376746 
L 474.562866 53.273655 
L 474.676863 53.811967 
L 474.79086 53.722249 
L 474.904857 53.837601 
L 475.018854 54.273378 
L 475.132851 54.042672 
L 475.246848 57.951843 
L 475.474842 56.7855 
L 475.588839 56.836768 
L 475.702836 57.04184 
L 475.816833 56.926487 
L 475.93083 58.361986 
L 476.272821 55.2731 
L 476.500815 55.901131 
L 476.728809 55.708876 
L 476.956803 56.234371 
L 477.0708 55.888314 
L 477.412791 51.043505 
L 477.754782 37.765141 
L 477.982776 36.316826 
L 478.21077 36.21429 
L 478.324767 35.957951 
L 478.438764 36.009219 
L 478.666758 35.394005 
L 478.894751 34.714706 
L 479.122745 33.779069 
L 479.236742 33.676533 
L 479.350739 33.407377 
L 479.578733 32.484556 
L 479.806727 34.855693 
L 480.148718 37.470351 
L 480.376712 39.521064 
L 480.604706 41.956285 
L 480.946697 46.544754 
L 481.630679 53.863235 
L 482.428658 58.25945 
L 482.542655 58.797762 
L 482.656652 58.349169 
L 482.770649 58.656776 
L 483.11264 60.681854 
L 483.568628 63.206794 
L 483.910618 69.333298 
L 484.138612 71.64035 
L 484.252609 71.858238 
L 484.480603 71.589082 
L 484.708597 71.460912 
L 484.936591 71.499363 
L 485.050588 71.34556 
L 485.164585 70.666261 
L 485.278582 70.948234 
L 485.620573 69.102593 
L 485.73457 69.230762 
L 486.076561 68.500196 
L 486.532549 65.295958 
L 486.646546 63.950178 
L 486.760543 64.219334 
L 487.102534 61.732845 
L 487.444525 58.695227 
L 487.558522 57.990294 
L 487.786516 56.080568 
L 488.242504 53.196753 
L 488.812488 51.056322 
L 488.926485 50.915336 
L 489.154479 50.005332 
L 489.610467 48.685186 
L 489.724464 49.197864 
L 489.838461 49.069694 
L 489.952458 48.736454 
L 490.066455 48.774904 
L 490.294449 47.928986 
L 490.522443 48.326311 
L 490.63644 48.339128 
L 490.864434 49.120962 
L 490.978431 49.197864 
L 491.092428 49.902796 
L 491.206425 49.889979 
L 491.77641 51.479282 
L 491.890407 51.889424 
L 492.004404 51.428014 
L 492.232398 52.568723 
L 492.346395 52.825062 
L 492.460392 52.74816 
L 492.688386 53.465909 
L 492.802383 53.529994 
L 492.91638 53.786333 
L 493.144374 53.517177 
L 493.372367 53.183936 
L 493.486364 53.324923 
L 493.600361 52.068862 
L 493.942352 42.90474 
L 494.170346 34.061042 
L 494.284343 32.997234 
L 494.39834 33.010051 
L 494.740331 32.035963 
L 495.082322 31.420749 
L 495.196319 31.523285 
L 495.310316 31.318214 
L 495.53831 30.049335 
L 495.766304 28.652287 
L 495.880301 28.754823 
L 496.222292 31.613004 
L 497.248265 42.802204 
L 497.704253 48.236592 
L 497.81825 48.41603 
L 498.046244 50.312939 
L 498.730225 54.311828 
L 498.844222 54.478449 
L 498.958219 54.939859 
L 499.072216 54.106757 
L 499.414207 56.170287 
L 499.642201 57.221277 
L 499.870195 58.349169 
L 500.668174 69.346115 
L 500.896168 70.512458 
L 501.010165 70.794431 
L 501.124162 70.730346 
L 501.58015 68.333576 
L 501.694147 67.526108 
L 501.808144 67.731179 
L 502.036138 66.513568 
L 502.378129 62.745384 
L 503.632095 50.633363 
L 504.088083 47.326589 
L 504.430074 44.481225 
L 505.000059 41.212902 
L 505.114056 41.238536 
L 505.228053 41.123183 
L 505.34205 41.315437 
L 505.570044 40.930929 
L 505.798038 40.110644 
L 505.912035 39.982474 
L 506.026032 39.649233 
L 506.140029 39.66205 
L 506.254026 39.803037 
L 506.368023 39.380077 
L 506.710014 40.328532 
L 507.393996 42.430512 
L 507.735987 42.943191 
L 507.849983 42.968824 
L 508.191974 44.340238 
L 508.305971 44.071082 
L 508.419968 44.276154 
L 508.647962 45.30151 
L 508.761959 45.737286 
L 508.989953 45.711653 
L 509.217947 47.031799 
L 509.673935 44.519676 
L 509.787932 44.429957 
L 509.901929 43.942913 
L 510.129923 41.059098 
L 510.24392 38.726413 
L 510.585911 25.806924 
L 510.699908 24.038184 
L 510.813905 24.30734 
L 510.927902 24.17917 
L 511.041899 23.820296 
L 511.155896 24.30734 
L 511.497887 24.01255 
L 511.725881 25.166076 
L 511.839878 25.037906 
L 512.181869 26.909182 
L 512.295866 27.037351 
L 512.52386 28.319046 
L 512.86585 31.279763 
L 513.435835 38.418806 
L 513.663829 41.443607 
L 514.233814 48.41603 
L 515.14579 53.17112 
L 515.259787 53.517177 
L 515.373784 53.440276 
L 515.487781 52.863513 
L 515.829772 54.901408 
L 516.057766 56.375358 
L 516.171763 56.298456 
L 516.399757 59.079735 
L 516.741748 65.475395 
L 517.197736 67.756813 
L 517.311733 67.705545 
L 517.42573 67.833714 
L 517.539726 68.256674 
L 517.653723 67.884982 
L 517.76772 68.06442 
L 517.995714 67.103148 
L 518.337705 65.001168 
L 518.451702 65.167788 
L 518.565699 65.065253 
L 518.679696 64.155249 
L 518.793693 62.194255 
L 518.90769 66.244412 
L 519.021687 65.936805 
L 519.249681 64.321869 
L 519.363678 63.732289 
L 519.705669 60.604953 
L 519.819666 63.552852 
L 520.161657 58.144098 
L 521.18763 49.428569 
L 521.415624 42.712485 
L 521.529621 43.225164 
L 521.643618 42.994458 
L 521.871612 41.840933 
L 522.099606 40.187546 
L 522.327599 39.482613 
L 522.555593 40.008108 
L 522.783587 39.764586 
L 522.897584 40.008108 
L 523.125578 39.431345 
L 523.239575 39.354444 
L 523.353572 39.469796 
L 523.581566 38.02148 
L 523.80956 39.264725 
L 524.151551 39.867122 
L 524.379545 40.764308 
L 524.493542 40.905295 
L 524.607539 40.161912 
L 524.94953 41.123183 
L 525.177524 41.187268 
L 525.405518 40.456702 
L 525.519515 40.982197 
L 525.633512 45.545032 
L 525.861506 44.558127 
L 525.975503 44.391506 
L 526.317494 43.161079 
L 526.659485 37.111477 
L 526.887479 26.447771 
L 527.229469 23.166631 
L 527.457463 22.256627 
L 527.799454 22.218176 
L 527.913451 22.346346 
L 528.255442 23.820296 
L 528.483436 24.512411 
L 528.71143 25.550584 
L 529.395412 33.048502 
L 530.193391 44.596578 
L 530.649379 48.454481 
L 530.99137 51.23576 
L 531.561355 54.158025 
L 531.789349 55.119296 
L 531.903346 54.286194 
L 532.017342 54.478449 
L 532.245336 57.170009 
L 532.359333 57.195643 
L 532.587327 58.09283 
L 532.701324 58.310718 
L 533.043315 64.52694 
L 533.271309 67.897799 
L 533.385306 68.372027 
L 533.499303 68.256674 
L 533.841294 69.192312 
L 534.069288 69.141044 
L 534.183285 68.730901 
L 534.639273 65.552297 
L 535.095261 63.373415 
L 535.665246 58.054379 
L 535.89324 56.734233 
L 536.691219 49.46702 
L 537.489197 43.763476 
L 537.603194 44.12235 
L 537.717191 42.866289 
L 538.059182 43.481503 
L 538.401173 43.007275 
L 538.51517 43.096994 
L 538.629167 43.750659 
L 538.971158 41.123183 
L 539.085155 40.918112 
L 539.313149 41.123183 
L 539.427146 41.071915 
L 539.65514 42.097272 
L 539.769137 42.007553 
L 539.883134 41.571776 
L 540.111128 42.533048 
L 540.225125 42.404878 
L 540.339122 42.90474 
L 540.453119 42.815021 
L 540.681113 43.084177 
L 540.79511 43.058543 
L 541.023104 43.981364 
L 541.251098 43.737842 
L 541.365095 43.776293 
L 541.593089 44.942635 
L 541.821082 44.494042 
L 542.049076 45.13489 
L 542.27707 45.032354 
L 542.505064 44.314605 
L 542.619061 44.506859 
L 542.847055 42.584316 
L 543.075049 37.419084 
L 543.41704 25.140442 
L 543.645034 22.564234 
L 543.759031 22.859024 
L 543.987025 21.602963 
L 544.329016 22.564234 
L 544.55701 22.718038 
L 544.671007 22.743672 
L 544.785004 24.397059 
L 544.899001 24.409876 
L 545.012998 24.730299 
L 546.038971 35.881049 
L 546.038971 35.881049 
" clip-path="url(#p9698b51d76)" style="fill: none; stroke: #71588b; stroke-width: 1.2; stroke-linecap: square"/>
   </g>
   <g id="patch_3">
    <path d="M 38.7625 70.78375 
L 38.7625 10.30375 
" style="fill: none; stroke: #aaaaaa; stroke-width: 0.75; stroke-linejoin: miter; stroke-linecap: square"/>
   </g>
   <g id="patch_4">
    <path d="M 53.686029 85.78375 
L 546.152968 85.78375 
" style="fill: none; stroke: #aaaaaa; stroke-width: 0.75; stroke-linejoin: miter; stroke-linecap: square"/>
   </g>
  </g>
  <g id="axes_2">
   <g id="patch_5">
    <path d="M 48.7625 176.62375 
L 550.9625 176.62375 
L 550.9625 116.14375 
L 48.7625 116.14375 
L 48.7625 176.62375 
z
" style="fill: none"/>
   </g>
   <g id="matplotlib.axis_3">
    <g id="xtick_10">
     <g id="text_14">
      <!-- Sunday -->
      <g style="fill: #808080" transform="translate(91.525967 206.83125) scale(0.08 -0.08)">
       <defs>
        <path id="Ubuntu-53" d="M 1581 442 
Q 2554 442 2554 1107 
Q 2554 1312 2467 1456 
Q 2381 1600 2233 1705 
Q 2086 1811 1897 1888 
Q 1709 1965 1498 2042 
Q 1254 2125 1036 2230 
Q 819 2336 659 2480 
Q 499 2624 406 2822 
Q 314 3021 314 3302 
Q 314 3885 710 4211 
Q 1107 4538 1805 4538 
Q 2208 4538 2537 4451 
Q 2867 4365 3021 4262 
L 2822 3757 
Q 2688 3840 2422 3920 
Q 2157 4000 1805 4000 
Q 1626 4000 1472 3961 
Q 1318 3923 1203 3846 
Q 1088 3770 1021 3651 
Q 954 3533 954 3373 
Q 954 3194 1024 3072 
Q 1094 2950 1222 2857 
Q 1350 2765 1520 2688 
Q 1690 2611 1894 2534 
Q 2182 2419 2422 2304 
Q 2662 2189 2838 2029 
Q 3014 1869 3110 1648 
Q 3206 1427 3206 1114 
Q 3206 531 2780 217 
Q 2355 -96 1581 -96 
Q 1318 -96 1097 -61 
Q 877 -26 704 22 
Q 531 70 406 124 
Q 282 179 211 218 
L 397 730 
Q 544 646 845 544 
Q 1146 442 1581 442 
z
" transform="scale(0.015625)"/>
        <path id="Ubuntu-75" d="M 3162 96 
Q 2957 45 2621 -12 
Q 2285 -70 1843 -70 
Q 1459 -70 1196 42 
Q 934 154 774 358 
Q 614 563 544 841 
Q 474 1120 474 1459 
L 474 3328 
L 1069 3328 
L 1069 1587 
Q 1069 979 1261 716 
Q 1453 454 1907 454 
Q 2003 454 2105 460 
Q 2208 467 2297 476 
Q 2387 486 2460 496 
Q 2534 506 2566 518 
L 2566 3328 
L 3162 3328 
L 3162 96 
z
" transform="scale(0.015625)"/>
        <path id="Ubuntu-6e" d="M 512 3232 
Q 717 3283 1056 3340 
Q 1395 3398 1837 3398 
Q 2234 3398 2496 3286 
Q 2758 3174 2915 2972 
Q 3072 2771 3136 2489 
Q 3200 2208 3200 1869 
L 3200 0 
L 2605 0 
L 2605 1741 
Q 2605 2048 2563 2265 
Q 2522 2483 2426 2617 
Q 2330 2752 2170 2813 
Q 2010 2874 1773 2874 
Q 1677 2874 1574 2867 
Q 1472 2861 1379 2851 
Q 1286 2842 1212 2829 
Q 1139 2816 1107 2810 
L 1107 0 
L 512 0 
L 512 3232 
z
" transform="scale(0.015625)"/>
        <path id="Ubuntu-64" d="M 2662 2624 
Q 2554 2714 2349 2797 
Q 2144 2880 1901 2880 
Q 1645 2880 1462 2787 
Q 1280 2694 1165 2531 
Q 1050 2368 998 2144 
Q 947 1920 947 1664 
Q 947 1082 1235 765 
Q 1523 448 2003 448 
Q 2246 448 2409 470 
Q 2573 493 2662 518 
L 2662 2624 
z
M 2662 4864 
L 3258 4966 
L 3258 96 
Q 3053 38 2733 -19 
Q 2413 -77 1997 -77 
Q 1613 -77 1305 44 
Q 998 166 780 390 
Q 563 614 444 937 
Q 326 1261 326 1664 
Q 326 2048 425 2368 
Q 525 2688 717 2918 
Q 909 3149 1187 3277 
Q 1466 3405 1824 3405 
Q 2112 3405 2333 3328 
Q 2554 3251 2662 3181 
L 2662 4864 
z
" transform="scale(0.015625)"/>
        <path id="Ubuntu-61" d="M 1638 429 
Q 1850 429 2013 438 
Q 2176 448 2285 474 
L 2285 1466 
Q 2221 1498 2077 1520 
Q 1933 1542 1728 1542 
Q 1594 1542 1443 1523 
Q 1293 1504 1168 1443 
Q 1043 1382 960 1276 
Q 877 1171 877 998 
Q 877 678 1081 553 
Q 1286 429 1638 429 
z
M 1587 3411 
Q 1946 3411 2192 3318 
Q 2438 3226 2588 3056 
Q 2739 2886 2803 2652 
Q 2867 2419 2867 2138 
L 2867 58 
Q 2790 45 2652 22 
Q 2515 0 2342 -19 
Q 2170 -38 1968 -54 
Q 1766 -70 1568 -70 
Q 1286 -70 1049 -12 
Q 813 45 640 169 
Q 467 294 371 499 
Q 275 704 275 992 
Q 275 1267 387 1465 
Q 499 1664 691 1785 
Q 883 1907 1139 1964 
Q 1395 2022 1677 2022 
Q 1766 2022 1862 2012 
Q 1958 2003 2044 1987 
Q 2131 1971 2195 1958 
Q 2259 1946 2285 1939 
L 2285 2106 
Q 2285 2253 2253 2397 
Q 2221 2541 2137 2653 
Q 2054 2765 1910 2832 
Q 1766 2899 1536 2899 
Q 1242 2899 1021 2857 
Q 800 2816 691 2771 
L 621 3264 
Q 736 3315 1005 3363 
Q 1274 3411 1587 3411 
z
" transform="scale(0.015625)"/>
        <path id="Ubuntu-79" d="M 122 -621 
Q 192 -653 304 -681 
Q 416 -710 525 -710 
Q 877 -710 1075 -553 
Q 1274 -397 1434 -45 
Q 1030 723 681 1584 
Q 333 2445 102 3328 
L 742 3328 
Q 813 3040 912 2707 
Q 1011 2374 1132 2022 
Q 1254 1670 1395 1318 
Q 1536 966 1690 640 
Q 1933 1312 2112 1971 
Q 2291 2630 2451 3328 
L 3066 3328 
Q 2835 2387 2553 1520 
Q 2272 653 1946 -102 
Q 1818 -390 1680 -598 
Q 1542 -806 1376 -940 
Q 1210 -1075 1002 -1139 
Q 794 -1203 531 -1203 
Q 461 -1203 384 -1193 
Q 307 -1184 233 -1168 
Q 160 -1152 99 -1133 
Q 38 -1114 13 -1101 
L 122 -621 
z
" transform="scale(0.015625)"/>
       </defs>
       <use xlink:href="#Ubuntu-53"/>
       <use xlink:href="#Ubuntu-75" x="53.199997"/>
       <use xlink:href="#Ubuntu-6e" x="110.599991"/>
       <use xlink:href="#Ubuntu-64" x="167.999985"/>
       <use xlink:href="#Ubuntu-61" x="226.899979"/>
       <use xlink:href="#Ubuntu-79" x="277.599976"/>
      </g>
     </g>
    </g>
    <g id="xtick_11">
     <g id="text_15">
      <!-- Sunday -->
      <g style="fill: #808080" transform="translate(210.369781 206.83125) scale(0.08 -0.08)">
       <use xlink:href="#Ubuntu-53"/>
       <use xlink:href="#Ubuntu-75" x="53.199997"/>
       <use xlink:href="#Ubuntu-6e" x="110.599991"/>
       <use xlink:href="#Ubuntu-64" x="167.999985"/>
       <use xlink:href="#Ubuntu-61" x="226.899979"/>
       <use xlink:href="#Ubuntu-79" x="277.599976"/>
      </g>
     </g>
    </g>
    <g id="xtick_12">
     <g id="text_16">
      <!-- Sunday -->
      <g style="fill: #808080" transform="translate(329.213594 206.83125) scale(0.08 -0.08)">
       <use xlink:href="#Ubuntu-53"/>
       <use xlink:href="#Ubuntu-75" x="53.199997"/>
       <use xlink:href="#Ubuntu-6e" x="110.599991"/>
       <use xlink:href="#Ubuntu-64" x="167.999985"/>
       <use xlink:href="#Ubuntu-61" x="226.899979"/>
       <use xlink:href="#Ubuntu-79" x="277.599976"/>
      </g>
     </g>
    </g>
    <g id="xtick_13">
     <g id="text_17">
      <!-- Sunday -->
      <g style="fill: #808080" transform="translate(448.057407 206.83125) scale(0.08 -0.08)">
       <use xlink:href="#Ubuntu-53"/>
       <use xlink:href="#Ubuntu-75" x="53.199997"/>
       <use xlink:href="#Ubuntu-6e" x="110.599991"/>
       <use xlink:href="#Ubuntu-64" x="167.999985"/>
       <use xlink:href="#Ubuntu-61" x="226.899979"/>
       <use xlink:href="#Ubuntu-79" x="277.599976"/>
      </g>
     </g>
    </g>
   </g>
   <g id="matplotlib.axis_4">
    <g id="ytick_5">
     <g id="line2d_15">
      <g>
       <use xlink:href="#mc5a30908a2" x="38.7625" y="176.62375" style="fill: #aaaaaa; stroke: #aaaaaa; stroke-width: 0.75"/>
      </g>
     </g>
     <g id="text_18">
      <!-- 28000 -->
      <g style="fill: #808080" transform="translate(7.2 179.7275) scale(0.08 -0.08)">
       <defs>
        <path id="Ubuntu-38" d="M 3258 1152 
Q 3258 883 3165 656 
Q 3072 429 2889 259 
Q 2707 90 2432 -3 
Q 2157 -96 1798 -96 
Q 1382 -96 1104 22 
Q 826 141 659 320 
Q 493 499 422 713 
Q 352 928 352 1120 
Q 352 1306 413 1475 
Q 474 1645 573 1792 
Q 672 1939 803 2057 
Q 934 2176 1082 2266 
Q 454 2624 454 3322 
Q 454 3565 550 3785 
Q 646 4006 822 4172 
Q 998 4339 1248 4438 
Q 1498 4538 1805 4538 
Q 2163 4538 2419 4429 
Q 2675 4320 2838 4150 
Q 3002 3981 3075 3776 
Q 3149 3571 3149 3379 
Q 3149 3194 3094 3030 
Q 3040 2867 2947 2726 
Q 2854 2586 2736 2477 
Q 2618 2368 2490 2285 
Q 3245 1926 3258 1152 
z
M 954 1114 
Q 954 998 995 873 
Q 1037 749 1139 643 
Q 1242 538 1402 467 
Q 1562 397 1805 397 
Q 2022 397 2185 461 
Q 2349 525 2451 624 
Q 2554 723 2605 851 
Q 2656 979 2656 1114 
Q 2656 1318 2579 1472 
Q 2502 1626 2358 1741 
Q 2214 1856 2012 1936 
Q 1811 2016 1555 2074 
Q 1267 1914 1110 1677 
Q 954 1440 954 1114 
z
M 2554 3386 
Q 2554 3482 2512 3597 
Q 2470 3712 2380 3811 
Q 2291 3910 2150 3977 
Q 2010 4045 1805 4045 
Q 1600 4045 1456 3981 
Q 1312 3917 1222 3817 
Q 1133 3718 1091 3600 
Q 1050 3482 1050 3366 
Q 1050 3226 1101 3085 
Q 1152 2944 1261 2822 
Q 1370 2701 1546 2605 
Q 1722 2509 1965 2451 
Q 2234 2611 2394 2825 
Q 2554 3040 2554 3386 
z
" transform="scale(0.015625)"/>
       </defs>
       <use xlink:href="#Ubuntu-32"/>
       <use xlink:href="#Ubuntu-38" x="56.399994"/>
       <use xlink:href="#Ubuntu-30" x="112.799988"/>
       <use xlink:href="#Ubuntu-30" x="169.199982"/>
       <use xlink:href="#Ubuntu-30" x="225.599976"/>
      </g>
     </g>
    </g>
    <g id="ytick_6">
     <g id="line2d_16">
      <g>
       <use xlink:href="#mc5a30908a2" x="38.7625" y="156.46375" style="fill: #aaaaaa; stroke: #aaaaaa; stroke-width: 0.75"/>
      </g>
     </g>
     <g id="text_19">
      <!-- 32000 -->
      <g style="fill: #808080" transform="translate(7.2 159.5675) scale(0.08 -0.08)">
       <use xlink:href="#Ubuntu-33"/>
       <use xlink:href="#Ubuntu-32" x="56.399994"/>
       <use xlink:href="#Ubuntu-30" x="112.799988"/>
       <use xlink:href="#Ubuntu-30" x="169.199982"/>
       <use xlink:href="#Ubuntu-30" x="225.599976"/>
      </g>
     </g>
    </g>
    <g id="ytick_7">
     <g id="line2d_17">
      <g>
       <use xlink:href="#mc5a30908a2" x="38.7625" y="136.30375" style="fill: #aaaaaa; stroke: #aaaaaa; stroke-width: 0.75"/>
      </g>
     </g>
     <g id="text_20">
      <!-- 36000 -->
      <g style="fill: #808080" transform="translate(7.2 139.4075) scale(0.08 -0.08)">
       <use xlink:href="#Ubuntu-33"/>
       <use xlink:href="#Ubuntu-36" x="56.399994"/>
       <use xlink:href="#Ubuntu-30" x="112.799988"/>
       <use xlink:href="#Ubuntu-30" x="169.199982"/>
       <use xlink:href="#Ubuntu-30" x="225.599976"/>
      </g>
     </g>
    </g>
    <g id="ytick_8">
     <g id="line2d_18">
      <g>
       <use xlink:href="#mc5a30908a2" x="38.7625" y="116.14375" style="fill: #aaaaaa; stroke: #aaaaaa; stroke-width: 0.75"/>
      </g>
     </g>
     <g id="text_21">
      <!-- 40000 -->
      <g style="fill: #808080" transform="translate(7.2 119.2475) scale(0.08 -0.08)">
       <use xlink:href="#Ubuntu-34"/>
       <use xlink:href="#Ubuntu-30" x="56.399994"/>
       <use xlink:href="#Ubuntu-30" x="112.799988"/>
       <use xlink:href="#Ubuntu-30" x="169.199982"/>
       <use xlink:href="#Ubuntu-30" x="225.599976"/>
      </g>
     </g>
    </g>
   </g>
   <g id="PolyCollection_1">
    <defs>
     <path id="mb5a56f2741" d="M 53.686029 -76.625948 
L 53.686029 -65.097354 
L 70.663717 -67.836678 
L 87.641405 -73.169376 
L 104.619092 -54.178723 
L 121.59678 -65.898169 
L 138.574468 -64.668476 
L 155.552155 -65.538772 
L 172.529843 -67.946545 
L 189.50753 -67.520905 
L 206.485218 -71.401671 
L 223.462906 -58.702941 
L 240.440593 -70.658488 
L 257.418281 -70.17605 
L 274.395969 -68.052063 
L 291.373656 -70.563451 
L 308.351344 -70.493715 
L 325.329031 -69.932116 
L 342.306719 -62.520056 
L 359.284407 -75.00358 
L 376.262094 -78.876681 
L 393.239782 -80.370501 
L 410.21747 -76.188859 
L 427.195157 -77.279045 
L 444.172845 -76.150798 
L 461.150532 -69.389621 
L 478.12822 -51.011339 
L 495.105908 -39.917876 
L 512.083595 -54.197309 
L 529.061283 -54.243959 
L 546.038971 -54.534338 
L 546.038971 -64.916482 
L 546.038971 -64.916482 
L 529.061283 -64.935524 
L 512.083595 -64.744604 
L 495.105908 -49.406655 
L 478.12822 -60.073815 
L 461.150532 -83.145984 
L 444.172845 -88.997379 
L 427.195157 -90.628704 
L 410.21747 -88.184549 
L 393.239782 -91.41817 
L 376.262094 -90.32488 
L 359.284407 -86.942394 
L 342.306719 -74.7496 
L 325.329031 -82.099833 
L 308.351344 -81.806835 
L 291.373656 -82.71557 
L 274.395969 -80.639012 
L 257.418281 -81.270214 
L 240.440593 -82.754633 
L 223.462906 -70.222378 
L 206.485218 -82.261403 
L 189.50753 -80.127091 
L 172.529843 -79.583883 
L 155.552155 -76.716924 
L 138.574468 -76.537576 
L 121.59678 -76.845272 
L 104.619092 -66.14079 
L 87.641405 -85.333422 
L 70.663717 -79.856243 
L 53.686029 -76.625948 
z
" style="stroke: #71588b; stroke-opacity: 0.2"/>
    </defs>
    <g clip-path="url(#p51318bbdc2)">
     <use xlink:href="#mb5a56f2741" x="0" y="215.535" style="fill: #71588b; fill-opacity: 0.2; stroke: #71588b; stroke-opacity: 0.2"/>
    </g>
   </g>
   <g id="line2d_19">
    <path d="M 53.686029 144.616969 
L 70.663717 141.81771 
L 87.641405 136.427914 
L 104.619092 155.280852 
L 121.59678 144.115416 
L 138.574468 144.972105 
L 155.552155 144.707755 
L 172.529843 141.922738 
L 189.50753 141.839517 
L 206.485218 138.552502 
L 223.462906 150.939109 
L 240.440593 138.691798 
L 257.418281 139.828412 
L 274.395969 140.804815 
L 291.373656 138.65753 
L 308.351344 139.376259 
L 325.329031 139.650399 
L 342.306719 147.014362 
L 359.284407 134.746579 
L 376.262094 131.103538 
L 393.239782 129.593096 
L 410.21747 133.082155 
L 427.195157 131.604645 
L 444.172845 133.051448 
L 461.150532 139.067406 
L 478.12822 160.033806 
L 495.105908 171.061281 
L 512.083595 156.048089 
L 529.061283 155.717429 
L 546.038971 155.62909 
" clip-path="url(#p51318bbdc2)" style="fill: none; stroke: #71588b; stroke-width: 1.2; stroke-linecap: square"/>
   </g>
   <g id="patch_6">
    <path d="M 38.7625 176.62375 
L 38.7625 116.14375 
" style="fill: none; stroke: #aaaaaa; stroke-width: 0.75; stroke-linejoin: miter; stroke-linecap: square"/>
   </g>
  </g>
 </g>
 <defs>
  <clipPath id="p9698b51d76">
   <rect x="48.7625" y="10.30375" width="502.2" height="60.48"/>
  </clipPath>
  <clipPath id="p51318bbdc2">
   <rect x="48.7625" y="116.14375" width="502.2" height="60.48"/>
  </clipPath>
 </defs>
</svg>
