<?xml version="1.0" encoding="utf-8" standalone="no"?>
<!DOCTYPE svg PUBLIC "-//W3C//DTD SVG 1.1//EN"
  "http://www.w3.org/Graphics/SVG/1.1/DTD/svg11.dtd">
<svg xmlns:xlink="http://www.w3.org/1999/xlink" width="558.1625pt" height="235.190625pt" viewBox="0 0 558.1625 235.190625" xmlns="http://www.w3.org/2000/svg" version="1.1">
 <metadata>
  <rdf:RDF xmlns:dc="http://purl.org/dc/elements/1.1/" xmlns:cc="http://creativecommons.org/ns#" xmlns:rdf="http://www.w3.org/1999/02/22-rdf-syntax-ns#">
   <cc:Work>
    <dc:type rdf:resource="http://purl.org/dc/dcmitype/StillImage"/>
    <dc:date>2024-04-15T11:44:18.359073</dc:date>
    <dc:format>image/svg+xml</dc:format>
    <dc:creator>
     <cc:Agent>
      <dc:title>Matplotlib v3.8.3, https://matplotlib.org/</dc:title>
     </cc:Agent>
    </dc:creator>
   </cc:Work>
  </rdf:RDF>
 </metadata>
 <defs>
  <style type="text/css">*{stroke-linejoin: round; stroke-linecap: butt}</style>
 </defs>
 <g id="figure_1">
  <g id="patch_1">
   <path d="M 0 235.190625 
L 558.1625 235.190625 
L 558.1625 0 
L 0 0 
L 0 235.190625 
z
" style="fill: none"/>
  </g>
  <g id="axes_1">
   <g id="patch_2">
    <path d="M 48.7625 90.439375 
L 550.9625 90.439375 
L 550.9625 29.959375 
L 48.7625 29.959375 
L 48.7625 90.439375 
z
" style="fill: none"/>
   </g>
   <g id="matplotlib.axis_1">
    <g id="xtick_1">
     <g id="line2d_1">
      <defs>
       <path id="m392330e662" d="M 0 0 
L 0 3 
" style="stroke: #aaaaaa; stroke-width: 0.75"/>
      </defs>
      <g>
       <use xlink:href="#m392330e662" x="53.686029" y="105.439375" style="fill: #aaaaaa; stroke: #aaaaaa; stroke-width: 0.75"/>
      </g>
     </g>
     <g id="text_1">
      <!-- 01 -->
      <g style="fill: #808080" transform="translate(49.173529 120.646875) scale(0.08 -0.08)">
       <defs>
        <path id="Ubuntu-30" d="M 320 2221 
Q 320 3334 713 3936 
Q 1107 4538 1805 4538 
Q 2502 4538 2896 3936 
Q 3290 3334 3290 2221 
Q 3290 1107 2896 505 
Q 2502 -96 1805 -96 
Q 1107 -96 713 505 
Q 320 1107 320 2221 
z
M 2662 2221 
Q 2662 2586 2620 2912 
Q 2579 3238 2480 3481 
Q 2381 3725 2214 3869 
Q 2048 4013 1805 4013 
Q 1562 4013 1395 3869 
Q 1229 3725 1129 3481 
Q 1030 3238 988 2912 
Q 947 2586 947 2221 
Q 947 1856 988 1529 
Q 1030 1203 1129 960 
Q 1229 717 1395 573 
Q 1562 429 1805 429 
Q 2048 429 2214 573 
Q 2381 717 2480 960 
Q 2579 1203 2620 1529 
Q 2662 1856 2662 2221 
z
" transform="scale(0.015625)"/>
        <path id="Ubuntu-31" d="M 595 3520 
Q 960 3661 1305 3881 
Q 1651 4102 1939 4435 
L 2362 4435 
L 2362 0 
L 1766 0 
L 1766 3610 
Q 1690 3539 1578 3462 
Q 1466 3386 1334 3315 
Q 1203 3245 1059 3181 
Q 915 3117 781 3072 
L 595 3520 
z
" transform="scale(0.015625)"/>
       </defs>
       <use xlink:href="#Ubuntu-30"/>
       <use xlink:href="#Ubuntu-31" x="56.399994"/>
      </g>
     </g>
    </g>
    <g id="xtick_2">
     <g id="line2d_2">
      <g>
       <use xlink:href="#m392330e662" x="119.348288" y="105.439375" style="fill: #aaaaaa; stroke: #aaaaaa; stroke-width: 0.75"/>
      </g>
     </g>
     <g id="text_2">
      <!-- 05 -->
      <g style="fill: #808080" transform="translate(114.835788 120.646875) scale(0.08 -0.08)">
       <defs>
        <path id="Ubuntu-35" d="M 1274 2726 
Q 2240 2688 2691 2304 
Q 3142 1920 3142 1261 
Q 3142 966 3043 716 
Q 2944 467 2742 288 
Q 2541 109 2233 6 
Q 1926 -96 1504 -96 
Q 1338 -96 1165 -70 
Q 992 -45 845 -6 
Q 698 32 582 70 
Q 467 109 416 134 
L 531 653 
Q 640 602 886 518 
Q 1133 435 1491 435 
Q 1779 435 1974 499 
Q 2170 563 2291 672 
Q 2413 781 2467 925 
Q 2522 1069 2522 1229 
Q 2522 1472 2438 1661 
Q 2355 1850 2144 1978 
Q 1933 2106 1581 2173 
Q 1229 2240 691 2240 
Q 730 2554 752 2829 
Q 774 3104 793 3366 
Q 813 3629 825 3888 
Q 838 4147 851 4435 
L 2989 4435 
L 2989 3930 
L 1370 3930 
Q 1363 3834 1350 3670 
Q 1338 3507 1325 3331 
Q 1312 3155 1299 2988 
Q 1286 2822 1274 2726 
z
" transform="scale(0.015625)"/>
       </defs>
       <use xlink:href="#Ubuntu-30"/>
       <use xlink:href="#Ubuntu-35" x="56.399994"/>
      </g>
     </g>
    </g>
    <g id="xtick_3">
     <g id="line2d_3">
      <g>
       <use xlink:href="#m392330e662" x="185.010546" y="105.439375" style="fill: #aaaaaa; stroke: #aaaaaa; stroke-width: 0.75"/>
      </g>
     </g>
     <g id="text_3">
      <!-- 09 -->
      <g style="fill: #808080" transform="translate(180.498046 120.646875) scale(0.08 -0.08)">
       <defs>
        <path id="Ubuntu-39" d="M 3206 2662 
Q 3206 1344 2550 669 
Q 1894 -6 602 -13 
L 582 486 
Q 986 486 1309 563 
Q 1632 640 1875 809 
Q 2118 979 2281 1248 
Q 2445 1517 2522 1907 
Q 2355 1830 2144 1782 
Q 1933 1734 1709 1734 
Q 1331 1734 1068 1846 
Q 806 1958 640 2147 
Q 474 2336 400 2582 
Q 326 2829 326 3098 
Q 326 3334 409 3590 
Q 493 3846 662 4057 
Q 832 4269 1094 4403 
Q 1357 4538 1715 4538 
Q 2080 4538 2358 4410 
Q 2637 4282 2825 4038 
Q 3014 3795 3110 3446 
Q 3206 3098 3206 2662 
z
M 1773 2221 
Q 1997 2221 2195 2262 
Q 2394 2304 2579 2387 
Q 2586 2458 2586 2525 
Q 2586 2592 2586 2662 
Q 2586 2938 2547 3190 
Q 2509 3443 2409 3632 
Q 2310 3821 2144 3933 
Q 1978 4045 1722 4045 
Q 1510 4045 1363 3955 
Q 1216 3866 1120 3728 
Q 1024 3590 982 3427 
Q 941 3264 941 3110 
Q 941 2675 1149 2448 
Q 1357 2221 1773 2221 
z
" transform="scale(0.015625)"/>
       </defs>
       <use xlink:href="#Ubuntu-30"/>
       <use xlink:href="#Ubuntu-39" x="56.399994"/>
      </g>
     </g>
    </g>
    <g id="xtick_4">
     <g id="line2d_4">
      <g>
       <use xlink:href="#m392330e662" x="250.672805" y="105.439375" style="fill: #aaaaaa; stroke: #aaaaaa; stroke-width: 0.75"/>
      </g>
     </g>
     <g id="text_4">
      <!-- 13 -->
      <g style="fill: #808080" transform="translate(246.160305 120.646875) scale(0.08 -0.08)">
       <defs>
        <path id="Ubuntu-33" d="M 1446 435 
Q 2016 435 2262 659 
Q 2509 883 2509 1261 
Q 2509 1504 2406 1670 
Q 2304 1837 2137 1936 
Q 1971 2035 1750 2076 
Q 1530 2118 1299 2118 
L 1146 2118 
L 1146 2605 
L 1357 2605 
Q 1517 2605 1686 2637 
Q 1856 2669 1997 2752 
Q 2138 2835 2227 2979 
Q 2317 3123 2317 3341 
Q 2317 3520 2253 3648 
Q 2189 3776 2083 3859 
Q 1978 3942 1840 3977 
Q 1702 4013 1549 4013 
Q 1242 4013 1027 3923 
Q 813 3834 666 3738 
L 435 4192 
Q 512 4243 630 4304 
Q 749 4365 896 4416 
Q 1043 4467 1212 4502 
Q 1382 4538 1568 4538 
Q 1920 4538 2176 4451 
Q 2432 4365 2598 4208 
Q 2765 4051 2848 3836 
Q 2931 3622 2931 3373 
Q 2931 3027 2732 2780 
Q 2534 2534 2253 2406 
Q 2426 2355 2586 2259 
Q 2746 2163 2864 2016 
Q 2982 1869 3056 1677 
Q 3130 1485 3130 1248 
Q 3130 960 3030 713 
Q 2931 467 2723 288 
Q 2515 109 2201 6 
Q 1888 -96 1459 -96 
Q 1293 -96 1117 -70 
Q 941 -45 787 -6 
Q 634 32 518 70 
Q 403 109 352 134 
L 467 653 
Q 576 602 829 518 
Q 1082 435 1446 435 
z
" transform="scale(0.015625)"/>
       </defs>
       <use xlink:href="#Ubuntu-31"/>
       <use xlink:href="#Ubuntu-33" x="56.399994"/>
      </g>
     </g>
    </g>
    <g id="xtick_5">
     <g id="line2d_5">
      <g>
       <use xlink:href="#m392330e662" x="316.335063" y="105.439375" style="fill: #aaaaaa; stroke: #aaaaaa; stroke-width: 0.75"/>
      </g>
     </g>
     <g id="text_5">
      <!-- 17 -->
      <g style="fill: #808080" transform="translate(311.822563 120.646875) scale(0.08 -0.08)">
       <defs>
        <path id="Ubuntu-37" d="M 1043 0 
Q 1082 512 1226 1078 
Q 1370 1645 1581 2179 
Q 1792 2714 2045 3171 
Q 2298 3629 2541 3917 
L 384 3917 
L 384 4435 
L 3206 4435 
L 3206 3942 
Q 2995 3699 2739 3273 
Q 2483 2848 2256 2320 
Q 2029 1792 1865 1193 
Q 1702 595 1664 0 
L 1043 0 
z
" transform="scale(0.015625)"/>
       </defs>
       <use xlink:href="#Ubuntu-31"/>
       <use xlink:href="#Ubuntu-37" x="56.399994"/>
      </g>
     </g>
    </g>
    <g id="xtick_6">
     <g id="line2d_6">
      <g>
       <use xlink:href="#m392330e662" x="381.997322" y="105.439375" style="fill: #aaaaaa; stroke: #aaaaaa; stroke-width: 0.75"/>
      </g>
     </g>
     <g id="text_6">
      <!-- 21 -->
      <g style="fill: #808080" transform="translate(377.484822 120.646875) scale(0.08 -0.08)">
       <defs>
        <path id="Ubuntu-32" d="M 2989 3302 
Q 2989 3072 2896 2857 
Q 2803 2643 2649 2435 
Q 2496 2227 2304 2025 
Q 2112 1824 1920 1632 
Q 1811 1523 1667 1376 
Q 1523 1229 1395 1069 
Q 1267 909 1180 761 
Q 1094 614 1094 506 
L 3136 506 
L 3136 0 
L 448 0 
Q 442 38 442 76 
Q 442 115 442 147 
Q 442 448 541 707 
Q 640 966 800 1196 
Q 960 1427 1158 1632 
Q 1357 1837 1549 2029 
Q 1709 2182 1853 2332 
Q 1997 2483 2109 2633 
Q 2221 2784 2288 2944 
Q 2355 3104 2355 3283 
Q 2355 3475 2294 3609 
Q 2234 3744 2131 3833 
Q 2029 3923 1891 3964 
Q 1754 4006 1600 4006 
Q 1414 4006 1260 3955 
Q 1107 3904 985 3837 
Q 864 3770 781 3696 
Q 698 3622 653 3584 
L 358 4006 
Q 416 4070 531 4163 
Q 646 4256 806 4339 
Q 966 4422 1164 4480 
Q 1363 4538 1594 4538 
Q 2291 4538 2640 4214 
Q 2989 3891 2989 3302 
z
" transform="scale(0.015625)"/>
       </defs>
       <use xlink:href="#Ubuntu-32"/>
       <use xlink:href="#Ubuntu-31" x="56.399994"/>
      </g>
     </g>
    </g>
    <g id="xtick_7">
     <g id="line2d_7">
      <g>
       <use xlink:href="#m392330e662" x="447.65958" y="105.439375" style="fill: #aaaaaa; stroke: #aaaaaa; stroke-width: 0.75"/>
      </g>
     </g>
     <g id="text_7">
      <!-- 25 -->
      <g style="fill: #808080" transform="translate(443.14708 120.646875) scale(0.08 -0.08)">
       <use xlink:href="#Ubuntu-32"/>
       <use xlink:href="#Ubuntu-35" x="56.399994"/>
      </g>
     </g>
    </g>
    <g id="xtick_8">
     <g id="line2d_8">
      <g>
       <use xlink:href="#m392330e662" x="513.321838" y="105.439375" style="fill: #aaaaaa; stroke: #aaaaaa; stroke-width: 0.75"/>
      </g>
     </g>
     <g id="text_8">
      <!-- 29 -->
      <g style="fill: #808080" transform="translate(508.809338 120.646875) scale(0.08 -0.08)">
       <use xlink:href="#Ubuntu-32"/>
       <use xlink:href="#Ubuntu-39" x="56.399994"/>
      </g>
     </g>
    </g>
    <g id="xtick_9">
     <g id="line2d_9">
      <g>
       <use xlink:href="#m392330e662" x="546.152968" y="105.439375" style="fill: #aaaaaa; stroke: #aaaaaa; stroke-width: 0.75"/>
      </g>
     </g>
    </g>
   </g>
   <g id="matplotlib.axis_2">
    <g id="ytick_1">
     <g id="line2d_10">
      <defs>
       <path id="m6dc6bd18ab" d="M 0 0 
L -3 0 
" style="stroke: #aaaaaa; stroke-width: 0.75"/>
      </defs>
      <g>
       <use xlink:href="#m6dc6bd18ab" x="38.7625" y="90.439375" style="fill: #aaaaaa; stroke: #aaaaaa; stroke-width: 0.75"/>
      </g>
     </g>
     <g id="text_9">
      <!-- 20000 -->
      <g style="fill: #808080" transform="translate(7.2 93.543125) scale(0.08 -0.08)">
       <use xlink:href="#Ubuntu-32"/>
       <use xlink:href="#Ubuntu-30" x="56.399994"/>
       <use xlink:href="#Ubuntu-30" x="112.799988"/>
       <use xlink:href="#Ubuntu-30" x="169.199982"/>
       <use xlink:href="#Ubuntu-30" x="225.599976"/>
      </g>
     </g>
    </g>
    <g id="ytick_2">
     <g id="line2d_11">
      <g>
       <use xlink:href="#m6dc6bd18ab" x="38.7625" y="70.279375" style="fill: #aaaaaa; stroke: #aaaaaa; stroke-width: 0.75"/>
      </g>
     </g>
     <g id="text_10">
      <!-- 30000 -->
      <g style="fill: #808080" transform="translate(7.2 73.383125) scale(0.08 -0.08)">
       <use xlink:href="#Ubuntu-33"/>
       <use xlink:href="#Ubuntu-30" x="56.399994"/>
       <use xlink:href="#Ubuntu-30" x="112.799988"/>
       <use xlink:href="#Ubuntu-30" x="169.199982"/>
       <use xlink:href="#Ubuntu-30" x="225.599976"/>
      </g>
     </g>
    </g>
    <g id="ytick_3">
     <g id="line2d_12">
      <g>
       <use xlink:href="#m6dc6bd18ab" x="38.7625" y="50.119375" style="fill: #aaaaaa; stroke: #aaaaaa; stroke-width: 0.75"/>
      </g>
     </g>
     <g id="text_11">
      <!-- 40000 -->
      <g style="fill: #808080" transform="translate(7.2 53.223125) scale(0.08 -0.08)">
       <defs>
        <path id="Ubuntu-34" d="M 256 1536 
Q 378 1818 589 2192 
Q 800 2566 1065 2963 
Q 1331 3360 1635 3744 
Q 1939 4128 2246 4435 
L 2816 4435 
L 2816 1619 
L 3341 1619 
L 3341 1133 
L 2816 1133 
L 2816 0 
L 2240 0 
L 2240 1133 
L 256 1133 
L 256 1536 
z
M 2240 3731 
Q 2048 3526 1853 3273 
Q 1658 3021 1472 2745 
Q 1286 2470 1123 2182 
Q 960 1894 832 1619 
L 2240 1619 
L 2240 3731 
z
" transform="scale(0.015625)"/>
       </defs>
       <use xlink:href="#Ubuntu-34"/>
       <use xlink:href="#Ubuntu-30" x="56.399994"/>
       <use xlink:href="#Ubuntu-30" x="112.799988"/>
       <use xlink:href="#Ubuntu-30" x="169.199982"/>
       <use xlink:href="#Ubuntu-30" x="225.599976"/>
      </g>
     </g>
    </g>
    <g id="ytick_4">
     <g id="line2d_13">
      <g>
       <use xlink:href="#m6dc6bd18ab" x="38.7625" y="29.959375" style="fill: #aaaaaa; stroke: #aaaaaa; stroke-width: 0.75"/>
      </g>
     </g>
     <g id="text_12">
      <!-- 50000 -->
      <g style="fill: #808080" transform="translate(7.2 33.063125) scale(0.08 -0.08)">
       <use xlink:href="#Ubuntu-35"/>
       <use xlink:href="#Ubuntu-30" x="56.399994"/>
       <use xlink:href="#Ubuntu-30" x="112.799988"/>
       <use xlink:href="#Ubuntu-30" x="169.199982"/>
       <use xlink:href="#Ubuntu-30" x="225.599976"/>
      </g>
     </g>
    </g>
   </g>
   <g id="line2d_14">
    <path d="M 53.686029 53.857653 
L 53.800026 54.498501 
L 54.02802 60.26613 
L 54.484008 62.137405 
L 54.598005 61.957968 
L 54.825999 56.446678 
L 55.16799 51.627503 
L 55.281987 51.730039 
L 55.851972 58.112882 
L 56.421957 71.929558 
L 57.219936 84.208199 
L 57.44793 86.489617 
L 57.561927 86.284546 
L 57.675924 85.925671 
L 57.789921 86.515251 
L 57.903918 86.489617 
L 58.017915 86.028207 
L 58.131911 86.207644 
L 58.92989 84.259467 
L 59.157884 82.131853 
L 59.385878 79.978605 
L 59.613872 78.645641 
L 59.727869 78.363669 
L 60.06986 74.057172 
L 60.297854 72.672941 
L 60.411851 73.031816 
L 60.639845 71.109273 
L 61.779815 61.650361 
L 62.007809 61.31712 
L 62.235803 60.061059 
L 62.3498 60.240496 
L 62.463797 59.599648 
L 62.691791 60.496835 
L 62.805788 60.445567 
L 63.033781 59.599648 
L 63.147778 59.67655 
L 63.261775 59.958523 
L 63.603766 59.061336 
L 63.717763 59.497113 
L 63.83176 59.420211 
L 63.945757 59.779086 
L 64.059754 59.753452 
L 64.287748 59.292041 
L 64.629739 60.72754 
L 64.97173 59.855987 
L 65.085727 59.958523 
L 65.199724 59.420211 
L 65.313721 61.881066 
L 65.541715 58.779363 
L 65.769709 56.703017 
L 65.883706 56.574847 
L 66.1117 54.959911 
L 66.453691 48.397631 
L 66.909679 36.221525 
L 67.25167 43.322117 
L 67.365667 42.450564 
L 67.593661 38.554211 
L 67.707658 38.887451 
L 67.821654 39.759004 
L 67.935651 39.066889 
L 68.391639 43.270849 
L 68.505636 43.245216 
L 68.619633 42.809439 
L 68.847627 43.296483 
L 68.961624 42.373663 
L 69.075621 42.68127 
L 69.303615 44.296206 
L 69.531609 47.0134 
L 69.759603 48.141292 
L 70.557582 56.908088 
L 70.671579 56.933722 
L 71.01357 58.548658 
L 71.127567 57.754007 
L 71.583555 51.191727 
L 71.697552 51.4737 
L 72.15354 56.600481 
L 72.381534 61.752897 
L 72.723524 70.955469 
L 73.065515 74.544216 
L 73.293509 79.542828 
L 73.521503 83.516084 
L 73.863494 86.489617 
L 73.977491 86.361448 
L 74.205485 87.438072 
L 74.77547 85.823136 
L 75.003464 84.362003 
L 75.117461 84.490172 
L 76.371428 75.774644 
L 76.599422 73.64703 
L 76.713419 73.775199 
L 77.05541 69.417435 
L 77.169407 69.545604 
L 77.397401 67.341088 
L 78.195379 62.932056 
L 78.309376 64.13685 
L 78.53737 63.983047 
L 78.651367 64.905867 
L 78.765364 64.828965 
L 78.993358 63.67544 
L 79.449346 58.266685 
L 79.67734 59.240774 
L 79.791337 58.702462 
L 79.905334 56.933722 
L 80.019331 58.138516 
L 80.133328 62.650083 
L 80.361322 59.907255 
L 80.589316 57.651471 
L 80.703313 55.780196 
L 81.045304 58.62556 
L 81.273298 58.061614 
L 81.387295 58.087248 
L 82.29927 51.4737 
L 83.325243 34.35025 
L 83.43924 36.221525 
L 83.553237 41.143235 
L 83.667234 41.040699 
L 84.009225 37.169979 
L 84.123222 37.04181 
L 84.57921 39.348862 
L 84.807204 41.143235 
L 85.149195 40.348584 
L 85.377189 40.630557 
L 85.491186 40.348584 
L 85.833177 42.476198 
L 85.947174 42.732537 
L 86.289165 47.372275 
L 86.517159 48.935943 
L 86.745153 51.217361 
L 86.85915 51.524968 
L 87.315137 54.190894 
L 87.429134 54.113992 
L 87.543131 53.652582 
L 87.999119 47.346641 
L 88.113116 47.60298 
L 88.683101 54.985545 
L 89.139089 68.212641 
L 89.595077 73.775199 
L 89.937068 80.619452 
L 90.165062 82.593263 
L 90.393056 82.772701 
L 90.62105 84.156932 
L 90.849044 82.926504 
L 91.077038 83.823691 
L 91.191035 83.772423 
L 91.419029 83.182843 
L 91.533026 82.952138 
L 91.76102 81.38847 
L 91.875017 81.234666 
L 92.331004 76.774366 
L 92.445001 76.8 
L 92.672995 74.441681 
L 92.900989 72.570405 
L 93.014986 72.3397 
L 93.698968 65.162206 
L 94.040959 62.803887 
L 94.154956 63.034592 
L 94.38295 60.035425 
L 94.838938 58.881899 
L 94.952935 58.856265 
L 95.066932 57.702739 
L 95.180929 58.471756 
L 95.52292 56.651749 
L 95.636917 57.292597 
L 95.750914 57.010624 
L 95.864911 56.062169 
L 96.092905 56.908088 
L 96.320899 56.446678 
L 96.434896 56.344142 
L 96.548893 56.421044 
L 96.776887 57.856543 
L 97.00488 56.98499 
L 97.118877 56.98499 
L 97.460868 56.26724 
L 97.574865 56.421044 
L 97.688862 57.036258 
L 97.802859 57.036258 
L 98.258847 54.883009 
L 98.372844 54.780474 
L 98.486841 54.447233 
L 99.28482 46.193115 
L 99.740808 32.504608 
L 99.854805 34.375884 
L 100.082799 39.066889 
L 100.196796 38.502943 
L 100.42479 35.99082 
L 100.652784 36.503498 
L 100.766781 36.093355 
L 101.222769 39.656469 
L 101.336766 39.707736 
L 101.56476 39.323228 
L 101.792753 38.784916 
L 101.90675 38.989987 
L 102.476735 44.347474 
L 103.04672 49.628058 
L 103.388711 51.806941 
L 103.616705 56.754285 
L 103.844699 53.806385 
L 103.958696 53.165538 
L 104.300687 48.320729 
L 104.414684 47.756783 
L 104.528681 48.269461 
L 104.870672 53.11427 
L 105.098666 56.703017 
L 105.554654 69.981381 
L 106.010642 75.800278 
L 106.352633 83.439182 
L 106.80862 86.438349 
L 107.036614 87.720045 
L 107.378605 87.82258 
L 107.492602 87.335536 
L 107.606599 87.591875 
L 107.720596 87.514973 
L 107.94859 87.873848 
L 108.062587 88.258357 
L 108.176584 88.104553 
L 108.404578 88.207089 
L 108.746569 86.387081 
L 108.974563 83.798057 
L 109.544548 80.850158 
L 109.772542 79.773533 
L 109.886539 78.876347 
L 110.22853 74.774921 
L 110.456524 72.544772 
L 110.570521 73.390691 
L 111.71049 68.392079 
L 111.824487 68.187007 
L 112.052481 75.543939 
L 112.166478 75.672108 
L 112.394472 74.057172 
L 112.508469 74.210976 
L 112.85046 73.05745 
L 112.964457 73.236887 
L 113.078454 73.134351 
L 113.192451 73.262521 
L 113.306448 73.211253 
L 113.534442 72.262799 
L 113.648439 72.442236 
L 113.876433 72.237165 
L 113.99043 72.185897 
L 114.104427 72.416602 
L 114.560415 70.878568 
L 114.788409 69.725042 
L 114.902406 67.033481 
L 115.1304 59.445845 
L 115.358394 58.03598 
L 115.700385 53.11427 
L 116.270369 40.092245 
L 116.498363 45.039589 
L 116.840354 43.450287 
L 117.068348 42.835073 
L 117.182345 42.963243 
L 117.524336 45.552267 
L 117.638333 46.090579 
L 117.866327 44.526911 
L 117.980324 44.808884 
L 118.094321 44.552545 
L 118.208318 43.860429 
L 118.322315 43.937331 
L 118.550309 45.654803 
L 118.778303 47.423542 
L 118.8923 47.756783 
L 119.120294 49.986933 
L 119.690279 54.75484 
L 119.918273 56.85682 
L 120.146267 57.472034 
L 120.260264 57.4464 
L 120.716252 50.653415 
L 120.830249 50.909754 
L 121.058242 53.216805 
L 121.51423 58.446123 
L 121.970218 71.545049 
L 122.198212 74.441681 
L 122.426206 77.440848 
L 122.768197 84.131298 
L 122.996191 86.31018 
L 123.110188 86.079475 
L 123.338182 87.053563 
L 123.566176 87.130465 
L 123.680173 87.053563 
L 123.908167 85.900037 
L 124.478152 83.823691 
L 124.820143 81.209032 
L 125.162134 77.825356 
L 125.276131 79.568462 
L 125.960112 70.776032 
L 126.074109 70.852934 
L 126.302103 69.366167 
L 126.644094 65.623617 
L 126.872088 62.803887 
L 127.100082 61.44529 
L 127.214079 61.675995 
L 127.442073 59.907255 
L 127.55607 60.214862 
L 127.784064 58.984435 
L 127.898061 58.856265 
L 128.240052 57.087525 
L 128.354049 70.23772 
L 128.468046 70.083916 
L 128.69604 66.982214 
L 129.380022 59.163872 
L 129.494019 59.394577 
L 129.83601 58.676828 
L 129.950007 58.702462 
L 130.291998 60.85571 
L 130.747985 60.830076 
L 131.431967 57.215695 
L 131.545964 57.164427 
L 131.659961 56.85682 
L 132.001952 52.140181 
L 132.343943 45.500999 
L 132.571937 37.246881 
L 132.685934 37.887729 
L 132.913928 42.5531 
L 133.255919 38.81055 
L 133.483913 38.528577 
L 133.59791 38.68238 
L 134.053898 42.450564 
L 134.167895 42.373663 
L 134.281892 41.784083 
L 134.395889 42.68127 
L 134.509886 42.271127 
L 134.623883 41.37394 
L 134.965874 43.629724 
L 135.421862 48.115658 
L 136.21984 55.549491 
L 136.333837 55.80583 
L 136.561831 56.831186 
L 136.675828 56.933722 
L 136.903822 54.447233 
L 137.245813 50.858486 
L 137.473807 52.909199 
L 137.929795 58.984435 
L 138.385783 71.442514 
L 138.955768 79.645364 
L 139.297759 84.720878 
L 139.525753 86.053841 
L 139.753747 86.745956 
L 139.867744 86.617787 
L 140.095738 85.438627 
L 140.209735 85.361725 
L 140.551725 84.643976 
L 140.665722 84.66961 
L 140.779719 84.849047 
L 141.12171 82.183121 
L 141.463701 79.722266 
L 141.577698 79.414659 
L 141.919689 76.646197 
L 142.147683 74.749288 
L 142.375677 77.543383 
L 143.059659 73.365057 
L 143.173656 71.442514 
L 143.287653 72.237165 
L 143.743641 69.032926 
L 143.857638 69.673774 
L 143.971635 68.930391 
L 144.085632 69.05856 
L 144.313626 68.058838 
L 144.427623 68.853489 
L 144.655617 60.343032 
L 144.769614 60.086693 
L 144.997608 60.343032 
L 145.225601 60.13796 
L 145.453595 58.010346 
L 145.567592 58.523024 
L 145.681589 58.394855 
L 145.795586 58.651194 
L 145.909583 58.574292 
L 146.137577 58.933167 
L 146.593565 58.292319 
L 146.821559 59.189506 
L 146.935556 59.907255 
L 147.049553 59.881621 
L 147.16355 59.061336 
L 147.277547 59.163872 
L 147.847532 56.39541 
L 148.189523 54.370331 
L 148.759508 45.24466 
L 148.987502 37.810827 
L 149.101499 38.605478 
L 149.329493 41.758449 
L 149.671484 38.733648 
L 149.899478 37.887729 
L 150.013474 38.195336 
L 150.241468 39.835906 
L 150.469462 40.886896 
L 150.583459 41.015066 
L 150.697456 40.861262 
L 150.811453 41.143235 
L 151.039447 40.809994 
L 151.153444 40.989432 
L 151.951423 47.218471 
L 152.749402 54.088358 
L 153.091393 54.729206 
L 153.20539 54.216528 
L 153.661378 49.320452 
L 154.003369 52.627226 
L 154.34536 57.010624 
L 154.801348 69.904479 
L 155.257335 75.467037 
L 155.599326 83.02904 
L 155.941317 84.695244 
L 156.055314 84.951583 
L 156.283308 85.7206 
L 156.397305 85.566796 
L 156.511302 85.848769 
L 156.739296 85.489895 
L 157.081287 84.695244 
L 157.765269 79.132686 
L 157.879266 78.081696 
L 157.993263 78.56874 
L 158.449251 73.775199 
L 159.019236 69.673774 
L 159.24723 67.674329 
L 159.703217 64.905867 
L 159.931211 63.829243 
L 160.045208 63.470368 
L 160.273202 61.624727 
L 160.387199 61.44529 
L 160.501196 61.573459 
L 160.615193 61.060781 
L 160.72919 72.801111 
L 160.843187 72.980548 
L 161.071181 71.621951 
L 161.185178 71.673219 
L 161.413172 70.776032 
L 161.527169 70.69913 
L 161.641166 70.288988 
L 161.86916 68.776587 
L 161.983157 68.417712 
L 162.667139 61.932334 
L 162.781136 61.881066 
L 162.895133 59.727818 
L 163.00913 59.727818 
L 163.237124 61.265852 
L 163.351121 61.214585 
L 164.1491 57.57457 
L 164.605087 54.883009 
L 165.175072 44.629447 
L 165.517063 37.964631 
L 165.745057 42.373663 
L 165.859054 41.809717 
L 166.087048 37.759559 
L 166.201045 38.041532 
L 166.315042 37.528854 
L 166.429039 37.810827 
L 166.77103 40.78436 
L 166.999024 41.681547 
L 167.455012 41.630279 
L 167.569009 41.271405 
L 167.797003 42.501832 
L 168.594982 51.319896 
L 169.278964 55.959634 
L 169.39296 56.190339 
L 169.506957 56.677383 
L 169.848948 51.909476 
L 170.076942 49.474255 
L 170.304936 51.730039 
L 170.646927 55.780196 
L 170.760924 56.908088 
L 171.102915 68.443346 
L 171.444906 73.64703 
L 171.558903 74.672386 
L 172.128888 84.362003 
L 172.698873 86.258912 
L 172.81287 85.182288 
L 172.926867 85.284823 
L 173.040864 85.541163 
L 173.610849 82.567629 
L 173.724846 82.798334 
L 173.95284 81.696076 
L 174.180833 79.876069 
L 174.750818 76.107885 
L 175.092809 72.390968 
L 175.662794 68.545882 
L 175.890788 66.725875 
L 176.916761 61.752897 
L 177.372749 60.419933 
L 177.486746 60.317398 
L 177.600743 60.983879 
L 177.828737 58.933167 
L 177.942734 58.471756 
L 178.056731 58.804997 
L 178.170728 58.728096 
L 178.284725 58.471756 
L 178.626716 58.446123 
L 178.85471 59.08697 
L 179.082703 59.21514 
L 179.1967 59.08697 
L 179.310697 59.266408 
L 179.424694 59.189506 
L 179.538691 59.420211 
L 179.652688 59.08697 
L 179.880682 60.163594 
L 180.108676 61.522191 
L 180.33667 58.804997 
L 180.450667 58.471756 
L 181.020652 53.088636 
L 181.590637 42.527466 
L 181.818631 34.862928 
L 181.932628 36.5804 
L 182.160622 41.784083 
L 182.274619 41.579012 
L 182.502613 38.477309 
L 182.61661 39.169424 
L 182.730607 39.14379 
L 182.844604 38.81055 
L 183.414589 42.168591 
L 183.528586 41.758449 
L 183.75658 41.96352 
L 183.870576 41.322672 
L 184.09857 41.912252 
L 184.212567 42.245493 
L 184.668555 45.808606 
L 185.124543 50.602147 
L 185.466534 53.396243 
L 185.580531 53.652582 
L 185.808525 55.395688 
L 186.036519 54.447233 
L 186.492507 48.551434 
L 186.606504 49.371719 
L 186.948495 53.985823 
L 187.176489 56.215973 
L 187.51848 67.648695 
L 188.202462 79.15832 
L 188.430456 83.080307 
L 188.772446 85.054118 
L 189.114437 86.335814 
L 189.342431 85.464261 
L 189.456428 85.566796 
L 189.798419 85.284823 
L 189.912416 85.25919 
L 191.394377 74.005904 
L 191.508374 74.134074 
L 191.736368 72.3397 
L 191.964362 70.878568 
L 192.078359 70.776032 
L 192.876338 63.854877 
L 192.990335 63.803609 
L 193.674316 66.597705 
L 193.90231 65.77742 
L 194.244301 60.958245 
L 194.358298 61.009513 
L 194.586292 60.445567 
L 194.700289 60.72754 
L 194.814286 59.881621 
L 194.928283 57.318231 
L 195.156277 57.241329 
L 195.384271 58.369221 
L 195.498268 57.830909 
L 195.612265 57.856543 
L 195.726262 57.677105 
L 195.840259 57.138793 
L 195.954256 57.369498 
L 196.296247 58.62556 
L 196.410244 58.599926 
L 196.524241 58.446123 
L 196.638238 58.523024 
L 197.436217 54.088358 
L 197.664211 50.576513 
L 198.006202 44.270572 
L 198.234196 36.426596 
L 198.348192 35.375606 
L 198.576186 41.245771 
L 198.80418 38.451675 
L 198.918177 38.938719 
L 199.032174 39.14379 
L 199.260168 37.63139 
L 199.488162 39.964075 
L 199.602159 39.425763 
L 199.830153 41.96352 
L 199.94415 41.96352 
L 200.172144 40.143513 
L 200.286141 40.117879 
L 200.514135 40.348584 
L 200.628132 40.32295 
L 201.08412 44.32184 
L 201.882099 50.166371 
L 202.338087 51.524968 
L 202.452084 50.730316 
L 202.794075 46.475088 
L 202.908072 46.500722 
L 203.022069 47.269739 
L 203.70605 59.343309 
L 203.934044 65.239108 
L 204.504029 72.3397 
L 204.84602 79.978605 
L 205.074014 82.567629 
L 205.188011 82.388192 
L 205.530002 84.567074 
L 205.643999 83.926226 
L 205.757996 84.259467 
L 205.871993 84.105664 
L 206.099987 83.054674 
L 206.327981 82.747067 
L 206.441978 82.567629 
L 206.555975 82.849602 
L 206.669972 82.336924 
L 207.011963 78.543106 
L 207.12596 78.696909 
L 208.037935 72.365334 
L 208.151932 71.75012 
L 208.379926 68.956025 
L 208.60792 68.187007 
L 209.063908 65.18784 
L 209.291902 63.316565 
L 209.633893 60.676272 
L 210.203878 59.522747 
L 210.317875 58.933167 
L 210.431872 59.010069 
L 210.659866 58.292319 
L 211.115854 60.445567 
L 211.571842 58.779363 
L 211.685839 58.958801 
L 211.799836 58.779363 
L 212.02783 59.471479 
L 212.141827 58.317953 
L 212.255824 58.369221 
L 212.369821 58.087248 
L 212.597815 58.241051 
L 212.711812 58.343587 
L 213.167799 55.703294 
L 213.623787 53.806385 
L 213.737784 53.242439 
L 214.421766 44.065501 
L 214.64976 36.554766 
L 214.763757 36.5804 
L 214.991751 41.040699 
L 215.561736 37.272515 
L 216.131721 39.989709 
L 216.359715 41.245771 
L 216.473712 41.091967 
L 216.587709 40.271682 
L 216.701706 40.399852 
L 216.9297 41.245771 
L 217.385688 46.526356 
L 217.955672 49.602425 
L 218.297663 52.832297 
L 218.41166 53.57568 
L 218.525657 53.396243 
L 218.639654 54.498501 
L 218.753651 54.088358 
L 219.323636 47.654248 
L 219.437633 48.038756 
L 220.235612 65.136572 
L 220.577603 72.3397 
L 220.6916 72.826745 
L 220.919594 76.671831 
L 221.261585 83.695521 
L 221.717573 86.566519 
L 221.83157 86.797224 
L 222.059564 87.745679 
L 222.287558 87.386804 
L 222.401555 87.284268 
L 222.629548 86.438349 
L 222.857542 86.89976 
L 222.971539 86.797224 
L 223.085536 86.463983 
L 223.199533 86.720322 
L 223.31353 86.566519 
L 223.655521 84.720878 
L 223.769518 84.720878 
L 224.4535 79.850435 
L 224.681494 78.312401 
L 225.251479 74.416047 
L 225.479473 73.493226 
L 226.049458 69.212364 
L 226.163455 69.18673 
L 226.619443 66.264464 
L 226.73344 66.443902 
L 226.847437 66.187563 
L 226.961434 66.367 
L 227.189428 65.597983 
L 227.987406 64.00868 
L 228.101403 64.213752 
L 228.2154 63.983047 
L 228.329397 64.521359 
L 228.443394 66.495169 
L 228.671388 65.700518 
L 228.899382 65.213474 
L 229.013379 65.521081 
L 229.127376 65.469813 
L 229.469367 64.034314 
L 229.583364 64.803332 
L 229.811358 63.111494 
L 230.267346 59.266408 
L 230.49534 56.959356 
L 230.837331 48.756506 
L 231.179322 40.169147 
L 231.407316 44.706348 
L 231.521313 44.32184 
L 231.749307 41.912252 
L 231.863304 41.758449 
L 231.977301 41.091967 
L 232.091298 41.117601 
L 232.319291 43.527189 
L 232.433288 43.040144 
L 232.661282 44.32184 
L 232.775279 44.347474 
L 232.889276 45.065223 
L 233.003273 43.962965 
L 233.231267 44.347474 
L 233.345264 44.347474 
L 233.573258 44.65508 
L 233.687255 45.24466 
L 234.25724 50.832852 
L 234.371237 50.807218 
L 234.599231 53.524412 
L 234.827225 54.011457 
L 235.055219 54.908643 
L 235.283213 54.421599 
L 235.739201 48.833407 
L 236.081192 53.550046 
L 236.309186 55.908366 
L 236.423183 57.933444 
L 236.765174 69.596872 
L 236.993168 72.596039 
L 237.221161 74.441681 
L 237.677149 83.669887 
L 237.905143 85.054118 
L 238.01914 85.310457 
L 238.361131 86.720322 
L 238.703122 85.25919 
L 238.817119 84.977217 
L 238.931116 85.515529 
L 239.045113 85.284823 
L 239.387104 84.028762 
L 239.501101 84.131298 
L 239.615098 83.285379 
L 239.843092 80.747622 
L 240.29908 77.210143 
L 240.641071 71.083639 
L 240.755068 70.596595 
L 241.325053 65.649251 
L 241.553047 64.59826 
L 241.667044 65.008403 
L 242.009034 62.701351 
L 242.807013 58.856265 
L 242.92101 58.523024 
L 243.035007 57.523302 
L 243.149004 57.625838 
L 243.263001 57.215695 
L 243.490995 56.087803 
L 243.604992 56.113437 
L 243.718989 56.26724 
L 243.946983 55.703294 
L 244.288974 55.267518 
L 244.630965 56.728651 
L 244.744962 56.369776 
L 244.858959 56.446678 
L 245.086953 56.036535 
L 245.20095 56.344142 
L 245.314947 55.882732 
L 245.542941 56.139071 
L 245.656938 56.190339 
L 245.770935 55.754562 
L 245.884932 55.780196 
L 246.226923 54.75484 
L 246.34092 53.344975 
L 246.454917 53.934555 
L 247.024901 48.320729 
L 247.252895 44.347474 
L 247.594886 34.862928 
L 247.82288 40.78436 
L 247.936877 40.528021 
L 248.164871 37.067444 
L 248.278868 37.323783 
L 248.506862 36.734203 
L 248.96285 39.425763 
L 249.076847 39.528299 
L 249.304841 40.194781 
L 249.646832 38.554211 
L 249.760829 38.836183 
L 249.988823 40.78436 
L 250.216817 42.373663 
L 250.558808 46.116213 
L 251.356787 52.550324 
L 251.470784 52.242717 
L 251.698777 52.499056 
L 252.040768 46.42382 
L 252.154765 46.526356 
L 252.382759 49.11538 
L 252.952744 59.343309 
L 253.294735 67.828133 
L 253.522729 71.775754 
L 253.636726 71.314344 
L 253.86472 76.21042 
L 254.092714 81.106497 
L 254.434705 82.541995 
L 254.548702 82.695799 
L 254.662699 82.618897 
L 254.890693 89.027374 
L 255.118687 82.567629 
L 255.460678 81.72171 
L 255.688672 81.491005 
L 255.802669 81.106497 
L 256.258657 77.594651 
L 256.48665 75.697742 
L 256.714644 74.416047 
L 256.828641 74.56985 
L 256.942638 74.851823 
L 258.424599 64.034314 
L 258.880587 62.239941 
L 258.994584 62.393744 
L 259.222578 60.086693 
L 259.336575 59.881621 
L 259.450572 60.701906 
L 259.792563 59.292041 
L 259.90656 59.445845 
L 260.020557 59.292041 
L 260.134554 60.958245 
L 260.362548 59.292041 
L 260.590542 58.394855 
L 260.932533 59.625282 
L 261.04653 59.445845 
L 261.274523 58.804997 
L 261.38852 59.138238 
L 261.502517 58.112882 
L 261.844508 59.984157 
L 262.072502 59.702184 
L 262.186499 59.420211 
L 262.300496 60.599371 
L 262.52849 57.523302 
L 262.642487 59.855987 
L 262.870481 59.650916 
L 263.098475 55.370054 
L 263.554463 48.013122 
L 263.782457 41.143235 
L 264.010451 36.375328 
L 264.352442 41.989154 
L 264.580436 38.836183 
L 264.694433 39.092523 
L 264.922427 38.605478 
L 265.036424 39.912808 
L 265.150421 39.502665 
L 265.264418 39.73337 
L 265.378415 41.784083 
L 265.492412 40.963798 
L 265.606409 41.040699 
L 265.834403 41.860985 
L 266.176393 41.399574 
L 266.29039 41.732815 
L 266.974372 48.320729 
L 267.202366 49.807496 
L 267.316363 50.473977 
L 267.544357 52.755395 
L 267.886348 55.062447 
L 268.000345 54.601036 
L 268.228339 51.242995 
L 268.456333 48.961577 
L 268.57033 48.5258 
L 268.684327 48.551434 
L 268.912321 52.52469 
L 269.026318 52.575958 
L 269.254312 56.164705 
L 269.596303 67.315454 
L 269.824297 71.186174 
L 270.052291 72.878012 
L 270.736273 84.413271 
L 270.85027 84.977217 
L 270.964266 84.951583 
L 271.19226 85.412993 
L 271.306257 84.849047 
L 271.420254 85.028484 
L 271.648248 83.618619 
L 271.762245 84.362003 
L 271.876242 84.131298 
L 272.104236 83.157209 
L 272.218233 83.541718 
L 272.446227 82.029317 
L 272.560224 82.695799 
L 273.016212 80.029872 
L 273.244206 78.338035 
L 273.4722 75.928447 
L 273.586197 75.825912 
L 273.814191 73.903369 
L 274.156182 70.391523 
L 274.270179 70.878568 
L 274.384176 70.596595 
L 274.61217 67.597427 
L 275.296152 60.291764 
L 275.410149 60.26613 
L 275.524146 60.061059 
L 275.638143 60.163594 
L 275.752139 59.984157 
L 275.866136 58.16415 
L 275.980133 58.471756 
L 276.09413 59.240774 
L 276.322124 57.856543 
L 276.436121 57.677105 
L 276.664115 57.984712 
L 276.778112 57.420766 
L 277.006106 57.882177 
L 277.120103 57.292597 
L 277.348097 58.394855 
L 277.462094 58.523024 
L 277.576091 57.959078 
L 277.804085 58.49739 
L 277.918082 58.369221 
L 278.032079 57.651471 
L 278.260073 58.189783 
L 278.37407 58.061614 
L 278.602064 58.779363 
L 278.716061 58.676828 
L 278.944055 56.805552 
L 279.058052 56.446678 
L 279.400043 54.088358 
L 279.628037 52.883565 
L 279.742034 52.088914 
L 280.426016 36.811105 
L 280.540012 37.810827 
L 280.654009 40.297316 
L 280.768006 39.707736 
L 280.996 37.657024 
L 281.109997 37.477586 
L 281.337991 36.836739 
L 281.565985 38.272238 
L 281.679982 38.477309 
L 281.907976 40.220414 
L 282.021973 40.169147 
L 282.249967 40.45112 
L 282.477961 39.835906 
L 282.591958 40.271682 
L 282.819952 42.527466 
L 282.933949 42.040422 
L 283.27594 47.628614 
L 283.959922 51.960744 
L 284.301913 53.319341 
L 284.41591 53.550046 
L 284.643904 50.935388 
L 284.985895 47.705515 
L 285.327886 52.345253 
L 285.555879 54.549769 
L 286.353858 70.776032 
L 286.695849 76.953804 
L 286.923843 81.516639 
L 287.265834 83.516084 
L 287.493828 84.182565 
L 287.607825 84.131298 
L 287.721822 83.823691 
L 287.949816 82.952138 
L 288.063813 83.157209 
L 288.291807 82.285656 
L 288.405804 82.90087 
L 288.519801 86.361448 
L 288.633798 86.412715 
L 289.773768 78.671275 
L 290.115759 74.56985 
L 290.229755 74.518582 
L 290.571746 71.775754 
L 290.79974 64.188118 
L 291.141731 61.804164 
L 291.255728 61.957968 
L 291.597719 59.035702 
L 291.825713 57.138793 
L 291.93971 57.138793 
L 292.053707 58.010346 
L 292.281701 57.318231 
L 292.623692 54.934277 
L 292.737689 54.831742 
L 292.965683 51.089191 
L 293.07968 50.781584 
L 293.193677 50.935388 
L 293.307674 51.627503 
L 293.421671 57.010624 
L 293.535668 56.754285 
L 293.763662 57.164427 
L 293.877659 56.959356 
L 293.991656 56.98499 
L 294.105653 57.164427 
L 294.333647 56.344142 
L 294.789635 57.600204 
L 295.017629 56.421044 
L 295.131625 56.677383 
L 295.245622 56.600481 
L 295.359619 56.113437 
L 295.587613 54.16526 
L 295.70161 54.29343 
L 295.929604 53.268073 
L 296.043601 52.678493 
L 296.499589 46.039311 
L 296.84158 36.811105 
L 296.955577 37.810827 
L 297.069574 40.040977 
L 297.411565 37.708292 
L 297.525562 37.887729 
L 297.753556 36.811105 
L 297.98155 37.862095 
L 298.095547 39.220692 
L 298.323541 43.091412 
L 298.437538 41.860985 
L 298.551535 41.835351 
L 298.893526 39.400129 
L 299.12152 40.399852 
L 299.349514 41.860985 
L 299.577508 44.860152 
L 299.691505 44.552545 
L 300.489483 51.294262 
L 300.60348 51.448066 
L 300.831474 52.39652 
L 301.059468 49.474255 
L 301.287462 46.910864 
L 301.401459 47.064668 
L 301.629453 49.679326 
L 302.085441 56.831186 
L 302.427432 66.520803 
L 303.339408 80.875791 
L 303.795396 84.028762 
L 304.02339 84.233833 
L 304.137387 84.08003 
L 304.251384 84.131298 
L 304.479378 83.746789 
L 304.593375 83.567352 
L 304.821368 82.157487 
L 304.935365 82.43946 
L 305.049362 81.747344 
L 305.163359 82.234389 
L 305.391353 80.79889 
L 305.733344 77.799723 
L 305.847341 77.415214 
L 307.443299 64.290653 
L 307.557296 63.854877 
L 307.671293 62.95769 
L 307.78529 62.983324 
L 308.013284 61.599093 
L 308.355275 62.470646 
L 308.583269 63.67544 
L 308.811263 63.08586 
L 309.153254 58.215417 
L 309.381248 57.600204 
L 309.495245 58.061614 
L 309.837235 57.061892 
L 309.951232 56.754285 
L 310.521217 58.010346 
L 310.635214 57.523302 
L 310.749211 57.702739 
L 310.977205 58.317953 
L 311.091202 58.369221 
L 311.205199 58.984435 
L 312.231172 54.498501 
L 312.345169 54.29343 
L 312.68716 50.345808 
L 312.915154 46.42382 
L 313.257145 37.426319 
L 313.371142 38.605478 
L 313.485139 41.168869 
L 313.82713 39.195058 
L 314.055124 39.707736 
L 314.283118 39.195058 
L 314.511111 39.27196 
L 314.739105 41.784083 
L 314.967099 41.117601 
L 315.081096 40.861262 
L 315.195093 40.91253 
L 315.423087 40.733093 
L 315.537084 40.963798 
L 315.879075 43.60409 
L 316.335063 47.115936 
L 316.677054 50.217638 
L 316.791051 50.42271 
L 317.133042 51.883842 
L 317.247039 51.730039 
L 317.361036 50.986656 
L 317.703027 46.193115 
L 317.817024 46.628891 
L 318.045018 49.346085 
L 318.501006 55.472589 
L 318.842997 66.213196 
L 319.070991 69.750676 
L 319.412981 73.544494 
L 319.868969 83.823691 
L 320.21096 85.054118 
L 320.438954 85.848769 
L 320.552951 85.797502 
L 320.780945 85.182288 
L 321.008939 84.746511 
L 321.122936 83.849325 
L 321.236933 84.567074 
L 321.578924 83.02904 
L 321.692921 82.721433 
L 322.034912 78.748177 
L 322.262906 78.184231 
L 322.376903 78.338035 
L 324.314851 62.060503 
L 324.770839 60.009791 
L 324.884836 58.907533 
L 324.998833 59.08697 
L 325.11283 58.49739 
L 325.340824 59.163872 
L 325.454821 59.035702 
L 325.568818 58.369221 
L 325.796812 59.394577 
L 325.910809 59.497113 
L 326.138803 58.907533 
L 326.2528 58.933167 
L 326.366797 58.676828 
L 326.480794 58.779363 
L 326.594791 58.446123 
L 326.708788 58.62556 
L 326.822785 58.574292 
L 327.164776 57.651471 
L 327.278773 57.984712 
L 327.39277 57.754007 
L 327.506767 58.189783 
L 327.848758 57.061892 
L 327.962755 57.395132 
L 328.304746 55.626393 
L 328.53274 55.190616 
L 328.646737 55.421321 
L 329.102724 50.858486 
L 329.330718 48.397631 
L 329.444715 50.473977 
L 329.672709 37.50322 
L 329.786706 37.195613 
L 330.0147 40.194781 
L 330.242694 37.733925 
L 330.356691 37.708292 
L 330.584685 37.067444 
L 330.926676 38.631112 
L 331.15467 40.117879 
L 331.268667 40.32295 
L 331.382664 40.809994 
L 331.496661 40.246048 
L 331.610658 40.271682 
L 331.724655 39.964075 
L 331.952649 41.117601 
L 332.180643 42.527466 
L 332.636631 45.936776 
L 333.43461 51.422432 
L 333.548607 51.319896 
L 333.662604 50.961022 
L 334.004594 46.962132 
L 334.118591 45.680437 
L 334.346585 46.859596 
L 334.91657 55.036813 
L 335.372558 68.315177 
L 335.828546 73.877735 
L 336.170537 81.875514 
L 336.398531 83.439182 
L 336.854519 85.951305 
L 336.968516 85.874403 
L 337.082513 85.618064 
L 337.19651 85.797502 
L 337.310507 85.464261 
L 337.538501 85.618064 
L 337.652498 85.566796 
L 337.766495 85.797502 
L 337.880492 85.771868 
L 337.994489 85.618064 
L 338.108486 84.823413 
L 338.222483 84.951583 
L 338.450477 84.054396 
L 338.564473 83.900592 
L 340.046434 75.825912 
L 340.844413 68.366445 
L 340.95841 68.750953 
L 341.414398 66.110661 
L 341.642392 65.77742 
L 341.756389 65.623617 
L 342.09838 64.803332 
L 342.668365 63.931779 
L 342.896359 65.213474 
L 343.124353 64.316287 
L 343.352347 63.624172 
L 343.466343 63.726707 
L 343.58034 63.342199 
L 343.694337 63.470368 
L 343.808334 63.214029 
L 343.922331 63.496002 
L 344.036328 63.265297 
L 344.264322 62.265575 
L 344.492316 61.419656 
L 344.606313 60.932612 
L 344.834307 59.266408 
L 345.404292 54.011457 
L 345.86028 46.090579 
L 346.088274 39.425763 
L 346.202271 39.477031 
L 346.316268 42.373663 
L 346.430265 42.348029 
L 346.658259 41.143235 
L 346.772256 41.220137 
L 347.00025 39.989709 
L 347.114247 41.143235 
L 347.228244 41.117601 
L 347.342241 40.78436 
L 347.456238 41.322672 
L 347.684232 43.040144 
L 348.026223 42.348029 
L 348.14022 41.96352 
L 348.254216 41.168869 
L 348.48221 42.630002 
L 349.052195 46.039311 
L 349.508183 49.576791 
L 349.62218 49.961299 
L 349.850174 52.319619 
L 349.964171 52.037646 
L 350.192165 50.268906 
L 350.534156 46.270017 
L 350.648153 46.141847 
L 351.104141 51.576235 
L 352.472105 79.49156 
L 352.814096 83.054674 
L 352.928093 82.90087 
L 353.156086 83.823691 
L 353.270083 83.721155 
L 353.38408 83.772423 
L 353.726071 82.208755 
L 353.840068 82.644531 
L 354.068062 82.413826 
L 354.296056 81.593541 
L 354.410053 81.824246 
L 354.638047 80.08114 
L 355.094035 75.774644 
L 355.208032 77.030705 
L 355.436026 72.185897 
L 355.778017 69.64814 
L 355.892014 69.750676 
L 356.006011 68.340811 
L 356.120008 68.366445 
L 356.689993 62.393744 
L 356.917987 58.16415 
L 357.031984 57.57457 
L 357.259978 56.036535 
L 357.373975 55.728928 
L 357.601969 53.780751 
L 357.715966 53.319341 
L 357.829963 54.395965 
L 358.057956 52.832297 
L 358.28595 53.550046 
L 358.627941 51.960744 
L 358.741938 52.114547 
L 358.855935 52.704127 
L 359.083929 51.678771 
L 359.42592 56.39541 
L 359.539917 56.39541 
L 359.767911 55.395688 
L 359.881908 55.728928 
L 359.995905 55.472589 
L 360.451893 56.908088 
L 360.56589 56.754285 
L 360.679887 56.882454 
L 360.793884 56.779919 
L 361.021878 55.241884 
L 361.135875 55.652027 
L 361.70586 52.037646 
L 362.161848 44.885786 
L 362.503839 35.811382 
L 362.617836 37.016176 
L 362.731832 39.73337 
L 362.845829 39.502665 
L 363.073823 37.349417 
L 363.18782 37.04181 
L 363.301817 37.605756 
L 363.415814 37.195613 
L 363.529811 37.375051 
L 363.643808 38.861817 
L 363.757805 38.887451 
L 363.985799 40.092245 
L 364.099796 39.323228 
L 364.213793 40.220414 
L 364.32779 39.656469 
L 364.441787 39.707736 
L 364.669781 39.220692 
L 364.783778 39.323228 
L 365.011772 40.886896 
L 365.239766 42.271127 
L 365.809751 47.141569 
L 366.037745 48.961577 
L 366.379736 50.935388 
L 366.493733 50.807218 
L 366.721727 48.19256 
L 366.949721 45.347196 
L 367.063718 45.654803 
L 367.177715 46.757061 
L 367.519706 51.93511 
L 367.747699 55.21625 
L 368.08969 65.803054 
L 368.887669 79.645364 
L 369.343657 84.515806 
L 369.457654 84.54144 
L 370.027639 84.054396 
L 370.141636 84.054396 
L 370.255633 83.900592 
L 370.597624 76.492393 
L 370.939615 75.518305 
L 372.307579 63.367833 
L 372.421575 63.214029 
L 372.649569 61.599093 
L 372.877563 64.828965 
L 372.99156 64.341921 
L 373.333551 60.983879 
L 373.447548 61.727263 
L 373.561545 59.67655 
L 373.675542 59.727818 
L 374.473521 56.85682 
L 374.587518 56.062169 
L 374.701515 56.139071 
L 374.815512 55.882732 
L 374.929509 55.011179 
L 375.043506 51.986378 
L 375.157503 52.575958 
L 375.385497 51.114825 
L 375.499494 51.268629 
L 375.613491 51.191727 
L 376.183476 52.140181 
L 376.525467 54.447233 
L 376.639464 54.62667 
L 376.867458 55.164982 
L 376.981455 55.139349 
L 377.209449 53.524412 
L 377.323445 53.755118 
L 377.437442 53.70385 
L 377.665436 51.576235 
L 377.779433 52.140181 
L 378.349418 48.141292 
L 378.691409 40.989432 
L 378.919403 34.862928 
L 379.0334 34.401518 
L 379.147397 37.605756 
L 379.261394 37.605756 
L 379.603385 34.145178 
L 379.831379 35.196169 
L 379.945376 34.837294 
L 380.17337 35.631945 
L 380.401364 37.400685 
L 380.629358 36.554766 
L 380.743355 36.554766 
L 380.857352 36.324061 
L 381.085346 35.196169 
L 381.199343 35.40124 
L 381.769328 39.989709 
L 382.225315 42.5531 
L 382.567306 45.398464 
L 382.7953 46.42382 
L 382.909297 46.193115 
L 383.023294 45.552267 
L 383.365285 41.784083 
L 383.479282 41.886618 
L 384.049267 49.935665 
L 385.303234 75.313234 
L 385.645225 80.234944 
L 385.873219 81.439737 
L 385.987216 81.875514 
L 386.21521 81.234666 
L 386.329207 81.183398 
L 386.785195 79.901703 
L 386.899191 79.978605 
L 387.013188 79.235221 
L 387.127185 79.260855 
L 387.355179 78.620008 
L 387.69717 74.800555 
L 387.811167 74.621118 
L 388.039161 73.211253 
L 388.381152 68.571516 
L 388.495149 67.828133 
L 388.83714 64.162484 
L 389.293128 60.496835 
L 389.635119 56.779919 
L 389.863113 56.574847 
L 390.091107 55.370054 
L 390.319101 53.319341 
L 390.433098 53.165538 
L 390.547095 52.473422 
L 390.775089 53.11427 
L 391.459071 50.88412 
L 391.687065 51.063557 
L 391.801061 51.166093 
L 392.143052 54.011457 
L 392.257049 53.960189 
L 392.485043 54.190894 
L 392.713037 53.883287 
L 392.941031 54.447233 
L 393.055028 54.344697 
L 393.283022 54.75484 
L 393.397019 54.549769 
L 393.625013 54.806108 
L 393.853007 54.395965 
L 394.308995 52.909199 
L 394.87898 48.628336 
L 395.106974 43.680992 
L 395.448965 36.349694 
L 395.676959 39.810272 
L 395.904953 36.426596 
L 396.01895 36.144623 
L 396.246944 36.45223 
L 396.474938 38.22097 
L 396.816928 41.015066 
L 396.930925 40.78436 
L 397.158919 41.168869 
L 397.272916 40.015343 
L 397.386913 40.32295 
L 397.614907 39.887174 
L 397.728904 40.374218 
L 397.956898 40.297316 
L 398.412886 42.860707 
L 398.526883 42.963243 
L 398.64088 43.245216 
L 398.982871 46.628891 
L 399.096868 47.833685 
L 399.324862 47.60298 
L 399.438859 47.346641 
L 399.666853 45.295928 
L 399.78085 44.373107 
L 399.894847 44.603813 
L 400.008844 45.449732 
L 400.578829 53.678216 
L 401.034817 67.366722 
L 401.604801 75.492671 
L 401.946792 80.901425 
L 402.174786 82.721433 
L 402.40278 83.131575 
L 402.516777 83.772423 
L 402.630774 83.695521 
L 402.858768 83.413548 
L 403.086762 83.541718 
L 403.200759 83.49045 
L 403.428753 82.593263 
L 403.54275 82.465094 
L 403.656747 81.439737 
L 403.770744 81.491005 
L 404.226732 78.004794 
L 404.340729 77.51775 
L 404.910714 70.8273 
L 405.024711 70.314622 
L 405.594696 64.854599 
L 406.392674 59.67655 
L 406.506671 58.548658 
L 406.620668 58.599926 
L 406.848662 57.4464 
L 407.076656 56.215973 
L 407.30465 55.780196 
L 407.418647 55.80583 
L 407.532644 55.652027 
L 407.646641 55.703294 
L 407.760638 54.703572 
L 407.988632 54.934277 
L 408.216626 54.421599 
L 408.44462 53.652582 
L 408.672614 54.242162 
L 408.786611 54.29343 
L 408.900608 54.16526 
L 409.014605 54.780474 
L 409.128602 54.267796 
L 409.356596 54.29343 
L 409.698587 55.80583 
L 409.812584 56.113437 
L 409.926581 55.523857 
L 410.040578 55.857098 
L 410.154575 54.831742 
L 410.268572 55.164982 
L 410.496566 53.370609 
L 410.72456 52.9861 
L 410.952554 52.06328 
L 411.294544 48.500167 
L 411.864529 35.631945 
L 411.978526 38.733648 
L 412.092523 38.759282 
L 412.320517 36.298427 
L 412.434514 35.837016 
L 412.548511 34.478419 
L 412.776505 35.247436 
L 413.232493 37.63139 
L 413.34649 37.221247 
L 413.460487 37.605756 
L 413.574484 36.964908 
L 413.688481 36.964908 
L 413.802478 36.657301 
L 414.030472 37.144346 
L 414.258466 38.554211 
L 414.372463 38.451675 
L 414.714454 41.732815 
L 414.828451 42.194225 
L 415.170442 45.731705 
L 415.284439 45.988044 
L 415.512433 47.628614 
L 415.62643 47.628614 
L 415.740427 48.628336 
L 415.854424 47.859319 
L 416.082417 44.988321 
L 416.196414 44.142402 
L 416.310411 44.424375 
L 416.538405 46.42382 
L 416.994393 54.370331 
L 417.336384 63.701074 
L 417.564378 68.750953 
L 417.792372 71.442514 
L 418.476354 82.362558 
L 418.704348 83.003406 
L 418.932342 84.362003 
L 419.160336 82.823968 
L 419.38833 82.490728 
L 419.502327 82.695799 
L 419.730321 82.747067 
L 420.072312 82.080585 
L 420.186309 81.926782 
L 420.756293 77.722821 
L 420.87029 77.38958 
L 421.098284 74.416047 
L 421.212281 74.621118 
L 421.326278 75.492671 
L 422.580245 60.035425 
L 422.694242 60.676272 
L 422.922236 58.369221 
L 423.15023 59.138238 
L 423.264227 59.266408 
L 423.492221 60.163594 
L 423.606218 60.343032 
L 423.720215 59.881621 
L 424.062206 55.498223 
L 424.2902 54.883009 
L 424.404197 54.575403 
L 424.632191 53.088636 
L 424.746188 53.370609 
L 424.860185 53.088636 
L 425.088179 53.268073 
L 425.202176 53.601314 
L 425.316173 53.344975 
L 425.77216 54.652304 
L 426.000154 54.344697 
L 426.114151 54.498501 
L 426.228148 55.088081 
L 426.798133 53.934555 
L 427.140124 49.70496 
L 427.368118 48.833407 
L 427.710109 45.449732 
L 427.938103 40.117879 
L 428.166097 32.350805 
L 428.280094 31.581788 
L 428.508088 34.760392 
L 428.736082 32.58151 
L 429.078073 31.248547 
L 429.648058 33.247992 
L 429.762055 33.17109 
L 429.876052 33.427429 
L 430.104046 33.196724 
L 430.33204 33.324893 
L 430.446036 33.145456 
L 430.67403 33.555599 
L 431.016021 37.657024 
L 431.472009 40.246048 
L 432.269988 43.552822 
L 432.611979 40.32295 
L 432.725976 40.733093 
L 432.95397 43.962965 
L 433.295961 49.294818 
L 433.523955 55.164982 
L 433.865946 64.213752 
L 434.549928 76.92817 
L 434.777922 80.029872 
L 435.005916 81.234666 
L 435.347906 82.567629 
L 435.461903 82.516361 
L 435.5759 82.285656 
L 435.689897 82.721433 
L 435.917891 84.362003 
L 436.031888 84.567074 
L 436.145885 84.387637 
L 437.399852 76.697465 
L 437.741843 72.92928 
L 437.969837 72.032093 
L 438.311828 68.161373 
L 438.425825 69.443069 
L 438.653819 67.033481 
L 438.767816 66.725875 
L 439.109807 63.290931 
L 439.337801 62.111771 
L 439.793789 60.240496 
L 439.907786 59.80472 
L 440.021783 60.394299 
L 440.249776 59.21514 
L 440.47777 58.599926 
L 440.591767 58.523024 
L 440.705764 58.779363 
L 440.819761 58.651194 
L 440.933758 58.138516 
L 441.047755 58.16415 
L 441.275749 56.344142 
L 441.389746 56.497946 
L 441.61774 55.959634 
L 441.731737 56.062169 
L 441.845734 55.857098 
L 441.959731 56.497946 
L 442.187725 55.754562 
L 442.301722 55.472589 
L 442.415719 55.882732 
L 442.643713 55.780196 
L 442.985704 54.652304 
L 443.327695 52.832297 
L 443.555689 52.345253 
L 443.89768 50.217638 
L 444.125674 47.295373 
L 444.581662 34.786026 
L 444.695659 35.27307 
L 444.809656 37.477586 
L 444.923652 37.298149 
L 445.037649 36.298427 
L 445.151646 36.298427 
L 445.493637 34.965463 
L 445.721631 35.888284 
L 445.835628 35.580677 
L 446.063622 37.169979 
L 446.291616 35.631945 
L 446.405613 35.760115 
L 446.51961 35.785749 
L 446.747604 36.067721 
L 446.861601 36.247159 
L 447.203592 37.862095 
L 447.545583 40.835628 
L 447.773577 42.219859 
L 448.229565 45.577901 
L 448.571556 46.833963 
L 448.79955 45.706071 
L 448.913547 48.397631 
L 449.141541 47.090302 
L 449.597529 51.499334 
L 449.825522 55.34442 
L 450.167513 63.906145 
L 450.395507 68.545882 
L 450.623501 71.134907 
L 451.193486 82.080585 
L 451.535477 84.464538 
L 451.649474 84.413271 
L 451.763471 85.59243 
L 452.105462 84.874681 
L 452.447453 84.08003 
L 452.789444 84.438905 
L 452.903441 84.182565 
L 453.017438 84.387637 
L 453.929414 80.158042 
L 454.271405 76.92817 
L 454.613395 74.185342 
L 455.753365 64.085582 
L 456.095356 63.419101 
L 456.209353 62.393744 
L 456.32335 62.521914 
L 457.007332 58.958801 
L 457.121329 59.317675 
L 457.349323 58.446123 
L 457.577317 60.932612 
L 457.805311 60.13796 
L 458.033305 57.984712 
L 458.261299 58.523024 
L 458.375296 57.625838 
L 458.489293 58.16415 
L 458.717287 57.805275 
L 458.831284 58.087248 
L 459.059278 57.933444 
L 459.173275 58.087248 
L 459.515265 56.318508 
L 459.629262 56.344142 
L 459.743259 55.780196 
L 459.857256 55.80583 
L 460.313244 53.473145 
L 460.769232 45.013955 
L 461.111223 38.656746 
L 461.22522 42.168591 
L 461.681208 37.451952 
L 461.909202 35.657579 
L 462.023199 35.99082 
L 462.251193 35.349972 
L 462.479187 35.760115 
L 462.593184 35.375606 
L 462.707181 35.631945 
L 462.935175 33.811938 
L 463.163169 34.709124 
L 463.50516 36.836739 
L 463.847151 39.86154 
L 464.075145 40.989432 
L 464.189142 41.655913 
L 464.645129 46.372552 
L 465.101117 50.75595 
L 465.443108 54.088358 
L 465.671102 55.421321 
L 466.697075 65.649251 
L 467.153063 71.827022 
L 467.495054 80.08114 
L 468.065039 84.387637 
L 468.293033 84.285101 
L 468.521027 82.593263 
L 468.749021 80.286212 
L 469.091012 79.004516 
L 469.205008 79.414659 
L 469.319005 78.799445 
L 469.546999 75.800278 
L 469.660996 75.364501 
L 469.774993 75.518305 
L 469.88899 75.364501 
L 470.116984 77.158875 
L 470.344978 74.826189 
L 470.458975 77.081973 
L 470.686969 74.903091 
L 470.800966 74.313511 
L 470.914963 74.390413 
L 471.142957 73.800833 
L 471.826939 71.775754 
L 471.940936 71.827022 
L 472.510921 69.77631 
L 472.966909 68.033204 
L 473.080906 68.058838 
L 473.194903 67.930668 
L 473.3089 67.981936 
L 473.422897 68.289543 
L 473.650891 69.18673 
L 473.764888 69.571238 
L 473.878885 68.110106 
L 474.106878 71.032371 
L 474.562866 72.92928 
L 474.676863 73.467592 
L 474.79086 73.377874 
L 474.904857 73.493226 
L 475.018854 73.929003 
L 475.132851 73.698297 
L 475.246848 77.607468 
L 475.474842 76.441125 
L 475.588839 76.492393 
L 475.702836 76.697465 
L 475.816833 76.582112 
L 475.93083 78.017611 
L 476.272821 74.928725 
L 476.500815 75.556756 
L 476.728809 75.364501 
L 476.956803 75.889996 
L 477.0708 75.543939 
L 477.412791 70.69913 
L 477.754782 57.420766 
L 477.982776 55.972451 
L 478.21077 55.869915 
L 478.324767 55.613576 
L 478.438764 55.664844 
L 478.666758 55.04963 
L 478.894751 54.370331 
L 479.122745 53.434694 
L 479.236742 53.332158 
L 479.350739 53.063002 
L 479.578733 52.140181 
L 479.806727 54.511318 
L 480.148718 57.125976 
L 480.376712 59.176689 
L 480.604706 61.61191 
L 480.946697 66.200379 
L 481.630679 73.51886 
L 482.428658 77.915075 
L 482.542655 78.453387 
L 482.656652 78.004794 
L 482.770649 78.312401 
L 483.11264 80.337479 
L 483.568628 82.862419 
L 483.910618 88.988923 
L 484.138612 91.295975 
L 484.252609 91.513863 
L 484.480603 91.244707 
L 484.708597 91.116537 
L 484.936591 91.154988 
L 485.050588 91.001185 
L 485.164585 90.321886 
L 485.278582 90.603859 
L 485.620573 88.758218 
L 485.73457 88.886387 
L 486.076561 88.155821 
L 486.532549 84.951583 
L 486.646546 83.605803 
L 486.760543 83.874959 
L 487.102534 81.38847 
L 487.444525 78.350852 
L 487.558522 77.645919 
L 487.786516 75.736193 
L 488.242504 72.852378 
L 488.812488 70.711947 
L 488.926485 70.570961 
L 489.154479 69.660957 
L 489.610467 68.340811 
L 489.724464 68.853489 
L 489.838461 68.725319 
L 489.952458 68.392079 
L 490.066455 68.430529 
L 490.294449 67.584611 
L 490.522443 67.981936 
L 490.63644 67.994753 
L 490.864434 68.776587 
L 490.978431 68.853489 
L 491.092428 69.558421 
L 491.206425 69.545604 
L 491.77641 71.134907 
L 491.890407 71.545049 
L 492.004404 71.083639 
L 492.232398 72.224348 
L 492.346395 72.480687 
L 492.460392 72.403785 
L 492.688386 73.121534 
L 492.802383 73.185619 
L 492.91638 73.441958 
L 493.144374 73.172802 
L 493.372367 72.839561 
L 493.486364 72.980548 
L 493.600361 71.724487 
L 493.942352 62.560365 
L 494.170346 53.716667 
L 494.284343 52.652859 
L 494.39834 52.665676 
L 494.740331 51.691588 
L 495.082322 51.076374 
L 495.196319 51.17891 
L 495.310316 50.973839 
L 495.53831 49.70496 
L 495.766304 48.307912 
L 495.880301 48.410448 
L 496.222292 51.268629 
L 497.248265 62.457829 
L 497.704253 67.892217 
L 497.81825 68.071655 
L 498.046244 69.968564 
L 498.730225 73.967453 
L 498.844222 74.134074 
L 498.958219 74.595484 
L 499.072216 73.762382 
L 499.414207 75.825912 
L 499.642201 76.876902 
L 499.870195 78.004794 
L 500.668174 89.00174 
L 500.896168 90.168083 
L 501.010165 90.450056 
L 501.124162 90.385971 
L 501.58015 87.989201 
L 501.694147 87.181733 
L 501.808144 87.386804 
L 502.036138 86.169193 
L 502.378129 82.401009 
L 503.632095 70.288988 
L 504.088083 66.982214 
L 504.430074 64.13685 
L 505.000059 60.868527 
L 505.114056 60.894161 
L 505.228053 60.778808 
L 505.34205 60.971062 
L 505.570044 60.586554 
L 505.798038 59.766269 
L 505.912035 59.638099 
L 506.026032 59.304858 
L 506.140029 59.317675 
L 506.254026 59.458662 
L 506.368023 59.035702 
L 506.710014 59.984157 
L 507.393996 62.086137 
L 507.735987 62.598816 
L 507.849983 62.624449 
L 508.191974 63.995863 
L 508.305971 63.726707 
L 508.419968 63.931779 
L 508.647962 64.957135 
L 508.761959 65.392911 
L 508.989953 65.367278 
L 509.217947 66.687424 
L 509.673935 64.175301 
L 509.787932 64.085582 
L 509.901929 63.598538 
L 510.129923 60.714723 
L 510.24392 58.382038 
L 510.585911 45.462549 
L 510.699908 43.693809 
L 510.813905 43.962965 
L 510.927902 43.834795 
L 511.041899 43.475921 
L 511.155896 43.962965 
L 511.497887 43.668175 
L 511.725881 44.821701 
L 511.839878 44.693531 
L 512.181869 46.564807 
L 512.295866 46.692976 
L 512.52386 47.974671 
L 512.86585 50.935388 
L 513.435835 58.074431 
L 513.663829 61.099232 
L 514.233814 68.071655 
L 515.14579 72.826745 
L 515.259787 73.172802 
L 515.373784 73.095901 
L 515.487781 72.519138 
L 515.829772 74.557033 
L 516.057766 76.030983 
L 516.171763 75.954081 
L 516.399757 78.73536 
L 516.741748 85.13102 
L 517.197736 87.412438 
L 517.311733 87.36117 
L 517.42573 87.489339 
L 517.539726 87.912299 
L 517.653723 87.540607 
L 517.76772 87.720045 
L 517.995714 86.758773 
L 518.337705 84.656793 
L 518.451702 84.823413 
L 518.565699 84.720878 
L 518.679696 83.810874 
L 518.793693 81.84988 
L 518.90769 85.900037 
L 519.021687 85.59243 
L 519.249681 83.977494 
L 519.363678 83.387914 
L 519.705669 80.260578 
L 519.819666 83.208477 
L 520.161657 77.799723 
L 521.18763 69.084194 
L 521.415624 62.36811 
L 521.529621 62.880789 
L 521.643618 62.650083 
L 521.871612 61.496558 
L 522.099606 59.843171 
L 522.327599 59.138238 
L 522.555593 59.663733 
L 522.783587 59.420211 
L 522.897584 59.663733 
L 523.125578 59.08697 
L 523.239575 59.010069 
L 523.353572 59.125421 
L 523.581566 57.677105 
L 523.80956 58.92035 
L 524.151551 59.522747 
L 524.379545 60.419933 
L 524.493542 60.56092 
L 524.607539 59.817537 
L 524.94953 60.778808 
L 525.177524 60.842893 
L 525.405518 60.112327 
L 525.519515 60.637822 
L 525.633512 65.200657 
L 525.861506 64.213752 
L 525.975503 64.047131 
L 526.317494 62.816704 
L 526.659485 56.767102 
L 526.887479 46.103396 
L 527.229469 42.822256 
L 527.457463 41.912252 
L 527.799454 41.873801 
L 527.913451 42.001971 
L 528.255442 43.475921 
L 528.483436 44.168036 
L 528.71143 45.206209 
L 529.395412 52.704127 
L 530.193391 64.252203 
L 530.649379 68.110106 
L 530.99137 70.891385 
L 531.561355 73.81365 
L 531.789349 74.774921 
L 531.903346 73.941819 
L 532.017342 74.134074 
L 532.245336 76.825634 
L 532.359333 76.851268 
L 532.587327 77.748455 
L 532.701324 77.966343 
L 533.043315 84.182565 
L 533.271309 87.553424 
L 533.385306 88.027652 
L 533.499303 87.912299 
L 533.841294 88.847937 
L 534.069288 88.796669 
L 534.183285 88.386526 
L 534.639273 85.207922 
L 535.095261 83.02904 
L 535.665246 77.710004 
L 535.89324 76.389858 
L 536.691219 69.122645 
L 537.489197 63.419101 
L 537.603194 63.777975 
L 537.717191 62.521914 
L 538.059182 63.137128 
L 538.401173 62.6629 
L 538.51517 62.752619 
L 538.629167 63.406284 
L 538.971158 60.778808 
L 539.085155 60.573737 
L 539.313149 60.778808 
L 539.427146 60.72754 
L 539.65514 61.752897 
L 539.769137 61.663178 
L 539.883134 61.227401 
L 540.111128 62.188673 
L 540.225125 62.060503 
L 540.339122 62.560365 
L 540.453119 62.470646 
L 540.681113 62.739802 
L 540.79511 62.714168 
L 541.023104 63.636989 
L 541.251098 63.393467 
L 541.365095 63.431918 
L 541.593089 64.59826 
L 541.821082 64.149667 
L 542.049076 64.790515 
L 542.27707 64.687979 
L 542.505064 63.97023 
L 542.619061 64.162484 
L 542.847055 62.239941 
L 543.075049 57.074709 
L 543.41704 44.796067 
L 543.645034 42.219859 
L 543.759031 42.514649 
L 543.987025 41.258588 
L 544.329016 42.219859 
L 544.55701 42.373663 
L 544.671007 42.399297 
L 544.785004 44.052684 
L 544.899001 44.065501 
L 545.012998 44.385924 
L 546.038971 55.536674 
L 546.038971 55.536674 
" clip-path="url(#p9ff5ea3b4a)" style="fill: none; stroke: #71588b; stroke-width: 1.2; stroke-linecap: square"/>
   </g>
   <g id="patch_3">
    <path d="M 38.7625 90.439375 
L 38.7625 29.959375 
" style="fill: none; stroke: #aaaaaa; stroke-width: 0.75; stroke-linejoin: miter; stroke-linecap: square"/>
   </g>
   <g id="patch_4">
    <path d="M 53.686029 105.439375 
L 546.152968 105.439375 
" style="fill: none; stroke: #aaaaaa; stroke-width: 0.75; stroke-linejoin: miter; stroke-linecap: square"/>
   </g>
   <g id="text_13">
    <!-- July -->
    <g style="fill: #606060" transform="translate(48.7625 14.959375) scale(0.1 -0.1)">
     <defs>
      <path id="Ubuntu-Bold-4a" d="M 2938 1491 
Q 2938 1165 2864 877 
Q 2790 589 2608 374 
Q 2426 160 2115 35 
Q 1805 -90 1331 -90 
Q 896 -90 582 16 
Q 269 122 64 262 
L 397 1037 
Q 582 928 793 845 
Q 1005 762 1254 762 
Q 1619 762 1779 941 
Q 1939 1120 1939 1542 
L 1939 4435 
L 2938 4435 
L 2938 1491 
z
" transform="scale(0.015625)"/>
      <path id="Ubuntu-Bold-75" d="M 3322 115 
Q 3078 45 2694 -16 
Q 2310 -77 1888 -77 
Q 1459 -77 1174 38 
Q 890 154 723 362 
Q 557 570 486 858 
Q 416 1146 416 1491 
L 416 3366 
L 1370 3366 
L 1370 1606 
Q 1370 1146 1491 941 
Q 1613 736 1946 736 
Q 2048 736 2163 745 
Q 2278 755 2368 768 
L 2368 3366 
L 3322 3366 
L 3322 115 
z
" transform="scale(0.015625)"/>
      <path id="Ubuntu-Bold-6c" d="M 1792 -64 
Q 1376 -58 1117 25 
Q 858 109 707 259 
Q 557 410 502 624 
Q 448 838 448 1107 
L 448 4813 
L 1402 4966 
L 1402 1299 
Q 1402 1171 1421 1068 
Q 1440 966 1494 896 
Q 1549 826 1651 781 
Q 1754 736 1926 723 
L 1792 -64 
z
" transform="scale(0.015625)"/>
      <path id="Ubuntu-Bold-79" d="M 3437 3366 
Q 3149 2394 2835 1542 
Q 2522 691 2150 -109 
Q 2016 -397 1881 -598 
Q 1747 -800 1587 -931 
Q 1427 -1062 1225 -1123 
Q 1024 -1184 755 -1184 
Q 531 -1184 342 -1142 
Q 154 -1101 32 -1050 
L 198 -288 
Q 346 -339 461 -358 
Q 576 -378 704 -378 
Q 960 -378 1097 -240 
Q 1235 -102 1331 141 
Q 1005 781 678 1577 
Q 352 2374 64 3366 
L 1075 3366 
Q 1139 3117 1225 2825 
Q 1312 2534 1408 2236 
Q 1504 1939 1603 1657 
Q 1702 1376 1792 1146 
Q 1875 1376 1964 1657 
Q 2054 1939 2140 2236 
Q 2227 2534 2307 2825 
Q 2387 3117 2451 3366 
L 3437 3366 
z
" transform="scale(0.015625)"/>
     </defs>
     <use xlink:href="#Ubuntu-Bold-4a"/>
     <use xlink:href="#Ubuntu-Bold-75" x="52.899994"/>
     <use xlink:href="#Ubuntu-Bold-6c" x="111.799988"/>
     <use xlink:href="#Ubuntu-Bold-79" x="142.274979"/>
    </g>
   </g>
  </g>
  <g id="axes_2">
   <g id="patch_5">
    <path d="M 48.7625 196.279375 
L 550.9625 196.279375 
L 550.9625 135.799375 
L 48.7625 135.799375 
L 48.7625 196.279375 
z
" style="fill: none"/>
   </g>
   <g id="matplotlib.axis_3">
    <g id="xtick_10">
     <g id="text_14">
      <!-- Sunday -->
      <g style="fill: #808080" transform="translate(91.525967 226.486875) scale(0.08 -0.08)">
       <defs>
        <path id="Ubuntu-53" d="M 1581 442 
Q 2554 442 2554 1107 
Q 2554 1312 2467 1456 
Q 2381 1600 2233 1705 
Q 2086 1811 1897 1888 
Q 1709 1965 1498 2042 
Q 1254 2125 1036 2230 
Q 819 2336 659 2480 
Q 499 2624 406 2822 
Q 314 3021 314 3302 
Q 314 3885 710 4211 
Q 1107 4538 1805 4538 
Q 2208 4538 2537 4451 
Q 2867 4365 3021 4262 
L 2822 3757 
Q 2688 3840 2422 3920 
Q 2157 4000 1805 4000 
Q 1626 4000 1472 3961 
Q 1318 3923 1203 3846 
Q 1088 3770 1021 3651 
Q 954 3533 954 3373 
Q 954 3194 1024 3072 
Q 1094 2950 1222 2857 
Q 1350 2765 1520 2688 
Q 1690 2611 1894 2534 
Q 2182 2419 2422 2304 
Q 2662 2189 2838 2029 
Q 3014 1869 3110 1648 
Q 3206 1427 3206 1114 
Q 3206 531 2780 217 
Q 2355 -96 1581 -96 
Q 1318 -96 1097 -61 
Q 877 -26 704 22 
Q 531 70 406 124 
Q 282 179 211 218 
L 397 730 
Q 544 646 845 544 
Q 1146 442 1581 442 
z
" transform="scale(0.015625)"/>
        <path id="Ubuntu-75" d="M 3162 96 
Q 2957 45 2621 -12 
Q 2285 -70 1843 -70 
Q 1459 -70 1196 42 
Q 934 154 774 358 
Q 614 563 544 841 
Q 474 1120 474 1459 
L 474 3328 
L 1069 3328 
L 1069 1587 
Q 1069 979 1261 716 
Q 1453 454 1907 454 
Q 2003 454 2105 460 
Q 2208 467 2297 476 
Q 2387 486 2460 496 
Q 2534 506 2566 518 
L 2566 3328 
L 3162 3328 
L 3162 96 
z
" transform="scale(0.015625)"/>
        <path id="Ubuntu-6e" d="M 512 3232 
Q 717 3283 1056 3340 
Q 1395 3398 1837 3398 
Q 2234 3398 2496 3286 
Q 2758 3174 2915 2972 
Q 3072 2771 3136 2489 
Q 3200 2208 3200 1869 
L 3200 0 
L 2605 0 
L 2605 1741 
Q 2605 2048 2563 2265 
Q 2522 2483 2426 2617 
Q 2330 2752 2170 2813 
Q 2010 2874 1773 2874 
Q 1677 2874 1574 2867 
Q 1472 2861 1379 2851 
Q 1286 2842 1212 2829 
Q 1139 2816 1107 2810 
L 1107 0 
L 512 0 
L 512 3232 
z
" transform="scale(0.015625)"/>
        <path id="Ubuntu-64" d="M 2662 2624 
Q 2554 2714 2349 2797 
Q 2144 2880 1901 2880 
Q 1645 2880 1462 2787 
Q 1280 2694 1165 2531 
Q 1050 2368 998 2144 
Q 947 1920 947 1664 
Q 947 1082 1235 765 
Q 1523 448 2003 448 
Q 2246 448 2409 470 
Q 2573 493 2662 518 
L 2662 2624 
z
M 2662 4864 
L 3258 4966 
L 3258 96 
Q 3053 38 2733 -19 
Q 2413 -77 1997 -77 
Q 1613 -77 1305 44 
Q 998 166 780 390 
Q 563 614 444 937 
Q 326 1261 326 1664 
Q 326 2048 425 2368 
Q 525 2688 717 2918 
Q 909 3149 1187 3277 
Q 1466 3405 1824 3405 
Q 2112 3405 2333 3328 
Q 2554 3251 2662 3181 
L 2662 4864 
z
" transform="scale(0.015625)"/>
        <path id="Ubuntu-61" d="M 1638 429 
Q 1850 429 2013 438 
Q 2176 448 2285 474 
L 2285 1466 
Q 2221 1498 2077 1520 
Q 1933 1542 1728 1542 
Q 1594 1542 1443 1523 
Q 1293 1504 1168 1443 
Q 1043 1382 960 1276 
Q 877 1171 877 998 
Q 877 678 1081 553 
Q 1286 429 1638 429 
z
M 1587 3411 
Q 1946 3411 2192 3318 
Q 2438 3226 2588 3056 
Q 2739 2886 2803 2652 
Q 2867 2419 2867 2138 
L 2867 58 
Q 2790 45 2652 22 
Q 2515 0 2342 -19 
Q 2170 -38 1968 -54 
Q 1766 -70 1568 -70 
Q 1286 -70 1049 -12 
Q 813 45 640 169 
Q 467 294 371 499 
Q 275 704 275 992 
Q 275 1267 387 1465 
Q 499 1664 691 1785 
Q 883 1907 1139 1964 
Q 1395 2022 1677 2022 
Q 1766 2022 1862 2012 
Q 1958 2003 2044 1987 
Q 2131 1971 2195 1958 
Q 2259 1946 2285 1939 
L 2285 2106 
Q 2285 2253 2253 2397 
Q 2221 2541 2137 2653 
Q 2054 2765 1910 2832 
Q 1766 2899 1536 2899 
Q 1242 2899 1021 2857 
Q 800 2816 691 2771 
L 621 3264 
Q 736 3315 1005 3363 
Q 1274 3411 1587 3411 
z
" transform="scale(0.015625)"/>
        <path id="Ubuntu-79" d="M 122 -621 
Q 192 -653 304 -681 
Q 416 -710 525 -710 
Q 877 -710 1075 -553 
Q 1274 -397 1434 -45 
Q 1030 723 681 1584 
Q 333 2445 102 3328 
L 742 3328 
Q 813 3040 912 2707 
Q 1011 2374 1132 2022 
Q 1254 1670 1395 1318 
Q 1536 966 1690 640 
Q 1933 1312 2112 1971 
Q 2291 2630 2451 3328 
L 3066 3328 
Q 2835 2387 2553 1520 
Q 2272 653 1946 -102 
Q 1818 -390 1680 -598 
Q 1542 -806 1376 -940 
Q 1210 -1075 1002 -1139 
Q 794 -1203 531 -1203 
Q 461 -1203 384 -1193 
Q 307 -1184 233 -1168 
Q 160 -1152 99 -1133 
Q 38 -1114 13 -1101 
L 122 -621 
z
" transform="scale(0.015625)"/>
       </defs>
       <use xlink:href="#Ubuntu-53"/>
       <use xlink:href="#Ubuntu-75" x="53.199997"/>
       <use xlink:href="#Ubuntu-6e" x="110.599991"/>
       <use xlink:href="#Ubuntu-64" x="167.999985"/>
       <use xlink:href="#Ubuntu-61" x="226.899979"/>
       <use xlink:href="#Ubuntu-79" x="277.599976"/>
      </g>
     </g>
    </g>
    <g id="xtick_11">
     <g id="text_15">
      <!-- Sunday -->
      <g style="fill: #808080" transform="translate(210.369781 226.486875) scale(0.08 -0.08)">
       <use xlink:href="#Ubuntu-53"/>
       <use xlink:href="#Ubuntu-75" x="53.199997"/>
       <use xlink:href="#Ubuntu-6e" x="110.599991"/>
       <use xlink:href="#Ubuntu-64" x="167.999985"/>
       <use xlink:href="#Ubuntu-61" x="226.899979"/>
       <use xlink:href="#Ubuntu-79" x="277.599976"/>
      </g>
     </g>
    </g>
    <g id="xtick_12">
     <g id="text_16">
      <!-- Sunday -->
      <g style="fill: #808080" transform="translate(329.213594 226.486875) scale(0.08 -0.08)">
       <use xlink:href="#Ubuntu-53"/>
       <use xlink:href="#Ubuntu-75" x="53.199997"/>
       <use xlink:href="#Ubuntu-6e" x="110.599991"/>
       <use xlink:href="#Ubuntu-64" x="167.999985"/>
       <use xlink:href="#Ubuntu-61" x="226.899979"/>
       <use xlink:href="#Ubuntu-79" x="277.599976"/>
      </g>
     </g>
    </g>
    <g id="xtick_13">
     <g id="text_17">
      <!-- Sunday -->
      <g style="fill: #808080" transform="translate(448.057407 226.486875) scale(0.08 -0.08)">
       <use xlink:href="#Ubuntu-53"/>
       <use xlink:href="#Ubuntu-75" x="53.199997"/>
       <use xlink:href="#Ubuntu-6e" x="110.599991"/>
       <use xlink:href="#Ubuntu-64" x="167.999985"/>
       <use xlink:href="#Ubuntu-61" x="226.899979"/>
       <use xlink:href="#Ubuntu-79" x="277.599976"/>
      </g>
     </g>
    </g>
   </g>
   <g id="matplotlib.axis_4">
    <g id="ytick_5">
     <g id="line2d_15">
      <g>
       <use xlink:href="#m6dc6bd18ab" x="38.7625" y="196.279375" style="fill: #aaaaaa; stroke: #aaaaaa; stroke-width: 0.75"/>
      </g>
     </g>
     <g id="text_18">
      <!-- 28000 -->
      <g style="fill: #808080" transform="translate(7.2 199.383125) scale(0.08 -0.08)">
       <defs>
        <path id="Ubuntu-38" d="M 3258 1152 
Q 3258 883 3165 656 
Q 3072 429 2889 259 
Q 2707 90 2432 -3 
Q 2157 -96 1798 -96 
Q 1382 -96 1104 22 
Q 826 141 659 320 
Q 493 499 422 713 
Q 352 928 352 1120 
Q 352 1306 413 1475 
Q 474 1645 573 1792 
Q 672 1939 803 2057 
Q 934 2176 1082 2266 
Q 454 2624 454 3322 
Q 454 3565 550 3785 
Q 646 4006 822 4172 
Q 998 4339 1248 4438 
Q 1498 4538 1805 4538 
Q 2163 4538 2419 4429 
Q 2675 4320 2838 4150 
Q 3002 3981 3075 3776 
Q 3149 3571 3149 3379 
Q 3149 3194 3094 3030 
Q 3040 2867 2947 2726 
Q 2854 2586 2736 2477 
Q 2618 2368 2490 2285 
Q 3245 1926 3258 1152 
z
M 954 1114 
Q 954 998 995 873 
Q 1037 749 1139 643 
Q 1242 538 1402 467 
Q 1562 397 1805 397 
Q 2022 397 2185 461 
Q 2349 525 2451 624 
Q 2554 723 2605 851 
Q 2656 979 2656 1114 
Q 2656 1318 2579 1472 
Q 2502 1626 2358 1741 
Q 2214 1856 2012 1936 
Q 1811 2016 1555 2074 
Q 1267 1914 1110 1677 
Q 954 1440 954 1114 
z
M 2554 3386 
Q 2554 3482 2512 3597 
Q 2470 3712 2380 3811 
Q 2291 3910 2150 3977 
Q 2010 4045 1805 4045 
Q 1600 4045 1456 3981 
Q 1312 3917 1222 3817 
Q 1133 3718 1091 3600 
Q 1050 3482 1050 3366 
Q 1050 3226 1101 3085 
Q 1152 2944 1261 2822 
Q 1370 2701 1546 2605 
Q 1722 2509 1965 2451 
Q 2234 2611 2394 2825 
Q 2554 3040 2554 3386 
z
" transform="scale(0.015625)"/>
       </defs>
       <use xlink:href="#Ubuntu-32"/>
       <use xlink:href="#Ubuntu-38" x="56.399994"/>
       <use xlink:href="#Ubuntu-30" x="112.799988"/>
       <use xlink:href="#Ubuntu-30" x="169.199982"/>
       <use xlink:href="#Ubuntu-30" x="225.599976"/>
      </g>
     </g>
    </g>
    <g id="ytick_6">
     <g id="line2d_16">
      <g>
       <use xlink:href="#m6dc6bd18ab" x="38.7625" y="176.119375" style="fill: #aaaaaa; stroke: #aaaaaa; stroke-width: 0.75"/>
      </g>
     </g>
     <g id="text_19">
      <!-- 32000 -->
      <g style="fill: #808080" transform="translate(7.2 179.223125) scale(0.08 -0.08)">
       <use xlink:href="#Ubuntu-33"/>
       <use xlink:href="#Ubuntu-32" x="56.399994"/>
       <use xlink:href="#Ubuntu-30" x="112.799988"/>
       <use xlink:href="#Ubuntu-30" x="169.199982"/>
       <use xlink:href="#Ubuntu-30" x="225.599976"/>
      </g>
     </g>
    </g>
    <g id="ytick_7">
     <g id="line2d_17">
      <g>
       <use xlink:href="#m6dc6bd18ab" x="38.7625" y="155.959375" style="fill: #aaaaaa; stroke: #aaaaaa; stroke-width: 0.75"/>
      </g>
     </g>
     <g id="text_20">
      <!-- 36000 -->
      <g style="fill: #808080" transform="translate(7.2 159.063125) scale(0.08 -0.08)">
       <defs>
        <path id="Ubuntu-36" d="M 403 1779 
Q 403 2426 582 2922 
Q 762 3418 1091 3757 
Q 1421 4096 1891 4272 
Q 2362 4448 2950 4454 
L 2995 3955 
Q 2618 3949 2307 3872 
Q 1997 3795 1753 3628 
Q 1510 3462 1344 3196 
Q 1178 2931 1094 2541 
Q 1261 2618 1469 2669 
Q 1677 2720 1901 2720 
Q 2278 2720 2540 2605 
Q 2803 2490 2969 2301 
Q 3136 2112 3209 1865 
Q 3283 1619 3283 1350 
Q 3283 1107 3200 851 
Q 3117 595 2947 384 
Q 2778 173 2515 38 
Q 2253 -96 1894 -96 
Q 1165 -96 784 403 
Q 403 902 403 1779 
z
M 1837 2234 
Q 1613 2234 1421 2192 
Q 1229 2150 1037 2067 
Q 1030 1997 1027 1923 
Q 1024 1850 1024 1779 
Q 1024 1498 1062 1248 
Q 1101 998 1200 809 
Q 1299 621 1465 509 
Q 1632 397 1888 397 
Q 2099 397 2246 486 
Q 2394 576 2490 717 
Q 2586 858 2627 1021 
Q 2669 1184 2669 1338 
Q 2669 1773 2461 2003 
Q 2253 2234 1837 2234 
z
" transform="scale(0.015625)"/>
       </defs>
       <use xlink:href="#Ubuntu-33"/>
       <use xlink:href="#Ubuntu-36" x="56.399994"/>
       <use xlink:href="#Ubuntu-30" x="112.799988"/>
       <use xlink:href="#Ubuntu-30" x="169.199982"/>
       <use xlink:href="#Ubuntu-30" x="225.599976"/>
      </g>
     </g>
    </g>
    <g id="ytick_8">
     <g id="line2d_18">
      <g>
       <use xlink:href="#m6dc6bd18ab" x="38.7625" y="135.799375" style="fill: #aaaaaa; stroke: #aaaaaa; stroke-width: 0.75"/>
      </g>
     </g>
     <g id="text_21">
      <!-- 40000 -->
      <g style="fill: #808080" transform="translate(7.2 138.903125) scale(0.08 -0.08)">
       <use xlink:href="#Ubuntu-34"/>
       <use xlink:href="#Ubuntu-30" x="56.399994"/>
       <use xlink:href="#Ubuntu-30" x="112.799988"/>
       <use xlink:href="#Ubuntu-30" x="169.199982"/>
       <use xlink:href="#Ubuntu-30" x="225.599976"/>
      </g>
     </g>
    </g>
   </g>
   <g id="PolyCollection_1">
    <defs>
     <path id="m534b1da033" d="M 53.686029 -76.17227 
L 53.686029 -64.955144 
L 70.663717 -67.450378 
L 87.641405 -73.421899 
L 104.619092 -53.94952 
L 121.59678 -65.703378 
L 138.574468 -64.626576 
L 155.552155 -65.016381 
L 172.529843 -67.895767 
L 189.50753 -68.278351 
L 206.485218 -71.124004 
L 223.462906 -58.926848 
L 240.440593 -70.814239 
L 257.418281 -69.924261 
L 274.395969 -68.79143 
L 291.373656 -70.830438 
L 308.351344 -70.552058 
L 325.329031 -70.182926 
L 342.306719 -62.448439 
L 359.284407 -74.214358 
L 376.262094 -78.219667 
L 393.239782 -80.578209 
L 410.21747 -76.379444 
L 427.195157 -77.114227 
L 444.172845 -75.984656 
L 461.150532 -70.155145 
L 478.12822 -51.292739 
L 495.105908 -39.977049 
L 512.083595 -54.156599 
L 529.061283 -54.623684 
L 546.038971 -54.735053 
L 546.038971 -64.90673 
L 546.038971 -64.90673 
L 529.061283 -65.046949 
L 512.083595 -64.785792 
L 495.105908 -48.993008 
L 478.12822 -59.951359 
L 461.150532 -82.675105 
L 444.172845 -88.706884 
L 427.195157 -90.984764 
L 410.21747 -88.297275 
L 393.239782 -91.258415 
L 376.262094 -90.164278 
L 359.284407 -86.71822 
L 342.306719 -74.522533 
L 325.329031 -81.595322 
L 308.351344 -81.963742 
L 291.373656 -82.783771 
L 274.395969 -80.807235 
L 257.418281 -81.366129 
L 240.440593 -82.619053 
L 223.462906 -70.433847 
L 206.485218 -82.076725 
L 189.50753 -79.412857 
L 172.529843 -79.167722 
L 155.552155 -76.923364 
L 138.574468 -76.401418 
L 121.59678 -76.971873 
L 104.619092 -66.121431 
L 87.641405 -85.182466 
L 70.663717 -79.528098 
L 53.686029 -76.17227 
z
" style="stroke: #71588b; stroke-opacity: 0.2"/>
    </defs>
    <g clip-path="url(#p37b771786a)">
     <use xlink:href="#m534b1da033" x="0" y="235.190625" style="fill: #71588b; fill-opacity: 0.2; stroke: #71588b; stroke-opacity: 0.2"/>
    </g>
   </g>
   <g id="line2d_19">
    <path d="M 53.686029 164.272594 
L 70.663717 161.473335 
L 87.641405 156.083539 
L 104.619092 174.936477 
L 121.59678 163.771041 
L 138.574468 164.62773 
L 155.552155 164.36338 
L 172.529843 161.578363 
L 189.50753 161.495142 
L 206.485218 158.208127 
L 223.462906 170.594734 
L 240.440593 158.347423 
L 257.418281 159.484037 
L 274.395969 160.46044 
L 291.373656 158.313155 
L 308.351344 159.031884 
L 325.329031 159.306024 
L 342.306719 166.669987 
L 359.284407 154.402204 
L 376.262094 150.759163 
L 393.239782 149.248721 
L 410.21747 152.73778 
L 427.195157 151.26027 
L 444.172845 152.707073 
L 461.150532 158.723031 
L 478.12822 179.689431 
L 495.105908 190.716906 
L 512.083595 175.703714 
L 529.061283 175.373054 
L 546.038971 175.284715 
" clip-path="url(#p37b771786a)" style="fill: none; stroke: #71588b; stroke-width: 1.2; stroke-linecap: square"/>
   </g>
   <g id="patch_6">
    <path d="M 38.7625 196.279375 
L 38.7625 135.799375 
" style="fill: none; stroke: #aaaaaa; stroke-width: 0.75; stroke-linejoin: miter; stroke-linecap: square"/>
   </g>
  </g>
 </g>
 <defs>
  <clipPath id="p9ff5ea3b4a">
   <rect x="48.7625" y="29.959375" width="502.2" height="60.48"/>
  </clipPath>
  <clipPath id="p37b771786a">
   <rect x="48.7625" y="135.799375" width="502.2" height="60.48"/>
  </clipPath>
 </defs>
</svg>
