<?xml version="1.0" encoding="utf-8" standalone="no"?>
<!DOCTYPE svg PUBLIC "-//W3C//DTD SVG 1.1//EN"
  "http://www.w3.org/Graphics/SVG/1.1/DTD/svg11.dtd">
<svg xmlns:xlink="http://www.w3.org/1999/xlink" width="502.3625pt" height="236.154531pt" viewBox="0 0 502.3625 236.154531" xmlns="http://www.w3.org/2000/svg" version="1.1">
 <metadata>
  <rdf:RDF xmlns:dc="http://purl.org/dc/elements/1.1/" xmlns:cc="http://creativecommons.org/ns#" xmlns:rdf="http://www.w3.org/1999/02/22-rdf-syntax-ns#">
   <cc:Work>
    <dc:type rdf:resource="http://purl.org/dc/dcmitype/StillImage"/>
    <dc:date>2024-04-25T06:46:49.944655</dc:date>
    <dc:format>image/svg+xml</dc:format>
    <dc:creator>
     <cc:Agent>
      <dc:title>Matplotlib v3.8.3, https://matplotlib.org/</dc:title>
     </cc:Agent>
    </dc:creator>
   </cc:Work>
  </rdf:RDF>
 </metadata>
 <defs>
  <style type="text/css">*{stroke-linejoin: round; stroke-linecap: butt}</style>
 </defs>
 <g id="figure_1">
  <g id="patch_1">
   <path d="M 0 236.154531 
L 502.3625 236.154531 
L 502.3625 0 
L 0 0 
L 0 236.154531 
z
" style="fill: none"/>
  </g>
  <g id="axes_1">
   <g id="patch_2">
    <path d="M 48.7625 90.439375 
L 495.1625 90.439375 
L 495.1625 29.959375 
L 48.7625 29.959375 
L 48.7625 90.439375 
z
" style="fill: none"/>
   </g>
   <g id="matplotlib.axis_1">
    <g id="xtick_1">
     <g id="line2d_1">
      <defs>
       <path id="m8b23f49361" d="M 0 0 
L 0 3 
" style="stroke: #cccccc; stroke-width: 0.75"/>
      </defs>
      <g>
       <use xlink:href="#m8b23f49361" x="53.138971" y="105.439375" style="fill: #cccccc; stroke: #cccccc; stroke-width: 0.75"/>
      </g>
     </g>
     <g id="text_1">
      <!-- 01 -->
      <g style="fill: #808080" transform="translate(48.626471 120.646875) scale(0.08 -0.08)">
       <defs>
        <path id="Ubuntu-30" d="M 320 2221 
Q 320 3334 713 3936 
Q 1107 4538 1805 4538 
Q 2502 4538 2896 3936 
Q 3290 3334 3290 2221 
Q 3290 1107 2896 505 
Q 2502 -96 1805 -96 
Q 1107 -96 713 505 
Q 320 1107 320 2221 
z
M 2662 2221 
Q 2662 2586 2620 2912 
Q 2579 3238 2480 3481 
Q 2381 3725 2214 3869 
Q 2048 4013 1805 4013 
Q 1562 4013 1395 3869 
Q 1229 3725 1129 3481 
Q 1030 3238 988 2912 
Q 947 2586 947 2221 
Q 947 1856 988 1529 
Q 1030 1203 1129 960 
Q 1229 717 1395 573 
Q 1562 429 1805 429 
Q 2048 429 2214 573 
Q 2381 717 2480 960 
Q 2579 1203 2620 1529 
Q 2662 1856 2662 2221 
z
" transform="scale(0.015625)"/>
        <path id="Ubuntu-31" d="M 595 3520 
Q 960 3661 1305 3881 
Q 1651 4102 1939 4435 
L 2362 4435 
L 2362 0 
L 1766 0 
L 1766 3610 
Q 1690 3539 1578 3462 
Q 1466 3386 1334 3315 
Q 1203 3245 1059 3181 
Q 915 3117 781 3072 
L 595 3520 
z
" transform="scale(0.015625)"/>
       </defs>
       <use xlink:href="#Ubuntu-30"/>
       <use xlink:href="#Ubuntu-31" x="56.399994"/>
      </g>
     </g>
    </g>
    <g id="xtick_2">
     <g id="line2d_2">
      <g>
       <use xlink:href="#m8b23f49361" x="111.505423" y="105.439375" style="fill: #cccccc; stroke: #cccccc; stroke-width: 0.75"/>
      </g>
     </g>
     <g id="text_2">
      <!-- 05 -->
      <g style="fill: #808080" transform="translate(106.992923 120.646875) scale(0.08 -0.08)">
       <defs>
        <path id="Ubuntu-35" d="M 1274 2726 
Q 2240 2688 2691 2304 
Q 3142 1920 3142 1261 
Q 3142 966 3043 716 
Q 2944 467 2742 288 
Q 2541 109 2233 6 
Q 1926 -96 1504 -96 
Q 1338 -96 1165 -70 
Q 992 -45 845 -6 
Q 698 32 582 70 
Q 467 109 416 134 
L 531 653 
Q 640 602 886 518 
Q 1133 435 1491 435 
Q 1779 435 1974 499 
Q 2170 563 2291 672 
Q 2413 781 2467 925 
Q 2522 1069 2522 1229 
Q 2522 1472 2438 1661 
Q 2355 1850 2144 1978 
Q 1933 2106 1581 2173 
Q 1229 2240 691 2240 
Q 730 2554 752 2829 
Q 774 3104 793 3366 
Q 813 3629 825 3888 
Q 838 4147 851 4435 
L 2989 4435 
L 2989 3930 
L 1370 3930 
Q 1363 3834 1350 3670 
Q 1338 3507 1325 3331 
Q 1312 3155 1299 2988 
Q 1286 2822 1274 2726 
z
" transform="scale(0.015625)"/>
       </defs>
       <use xlink:href="#Ubuntu-30"/>
       <use xlink:href="#Ubuntu-35" x="56.399994"/>
      </g>
     </g>
    </g>
    <g id="xtick_3">
     <g id="line2d_3">
      <g>
       <use xlink:href="#m8b23f49361" x="169.871874" y="105.439375" style="fill: #cccccc; stroke: #cccccc; stroke-width: 0.75"/>
      </g>
     </g>
     <g id="text_3">
      <!-- 09 -->
      <g style="fill: #808080" transform="translate(165.359374 120.646875) scale(0.08 -0.08)">
       <defs>
        <path id="Ubuntu-39" d="M 3206 2662 
Q 3206 1344 2550 669 
Q 1894 -6 602 -13 
L 582 486 
Q 986 486 1309 563 
Q 1632 640 1875 809 
Q 2118 979 2281 1248 
Q 2445 1517 2522 1907 
Q 2355 1830 2144 1782 
Q 1933 1734 1709 1734 
Q 1331 1734 1068 1846 
Q 806 1958 640 2147 
Q 474 2336 400 2582 
Q 326 2829 326 3098 
Q 326 3334 409 3590 
Q 493 3846 662 4057 
Q 832 4269 1094 4403 
Q 1357 4538 1715 4538 
Q 2080 4538 2358 4410 
Q 2637 4282 2825 4038 
Q 3014 3795 3110 3446 
Q 3206 3098 3206 2662 
z
M 1773 2221 
Q 1997 2221 2195 2262 
Q 2394 2304 2579 2387 
Q 2586 2458 2586 2525 
Q 2586 2592 2586 2662 
Q 2586 2938 2547 3190 
Q 2509 3443 2409 3632 
Q 2310 3821 2144 3933 
Q 1978 4045 1722 4045 
Q 1510 4045 1363 3955 
Q 1216 3866 1120 3728 
Q 1024 3590 982 3427 
Q 941 3264 941 3110 
Q 941 2675 1149 2448 
Q 1357 2221 1773 2221 
z
" transform="scale(0.015625)"/>
       </defs>
       <use xlink:href="#Ubuntu-30"/>
       <use xlink:href="#Ubuntu-39" x="56.399994"/>
      </g>
     </g>
    </g>
    <g id="xtick_4">
     <g id="line2d_4">
      <g>
       <use xlink:href="#m8b23f49361" x="228.238326" y="105.439375" style="fill: #cccccc; stroke: #cccccc; stroke-width: 0.75"/>
      </g>
     </g>
     <g id="text_4">
      <!-- 13 -->
      <g style="fill: #808080" transform="translate(223.725826 120.646875) scale(0.08 -0.08)">
       <defs>
        <path id="Ubuntu-33" d="M 1446 435 
Q 2016 435 2262 659 
Q 2509 883 2509 1261 
Q 2509 1504 2406 1670 
Q 2304 1837 2137 1936 
Q 1971 2035 1750 2076 
Q 1530 2118 1299 2118 
L 1146 2118 
L 1146 2605 
L 1357 2605 
Q 1517 2605 1686 2637 
Q 1856 2669 1997 2752 
Q 2138 2835 2227 2979 
Q 2317 3123 2317 3341 
Q 2317 3520 2253 3648 
Q 2189 3776 2083 3859 
Q 1978 3942 1840 3977 
Q 1702 4013 1549 4013 
Q 1242 4013 1027 3923 
Q 813 3834 666 3738 
L 435 4192 
Q 512 4243 630 4304 
Q 749 4365 896 4416 
Q 1043 4467 1212 4502 
Q 1382 4538 1568 4538 
Q 1920 4538 2176 4451 
Q 2432 4365 2598 4208 
Q 2765 4051 2848 3836 
Q 2931 3622 2931 3373 
Q 2931 3027 2732 2780 
Q 2534 2534 2253 2406 
Q 2426 2355 2586 2259 
Q 2746 2163 2864 2016 
Q 2982 1869 3056 1677 
Q 3130 1485 3130 1248 
Q 3130 960 3030 713 
Q 2931 467 2723 288 
Q 2515 109 2201 6 
Q 1888 -96 1459 -96 
Q 1293 -96 1117 -70 
Q 941 -45 787 -6 
Q 634 32 518 70 
Q 403 109 352 134 
L 467 653 
Q 576 602 829 518 
Q 1082 435 1446 435 
z
" transform="scale(0.015625)"/>
       </defs>
       <use xlink:href="#Ubuntu-31"/>
       <use xlink:href="#Ubuntu-33" x="56.399994"/>
      </g>
     </g>
    </g>
    <g id="xtick_5">
     <g id="line2d_5">
      <g>
       <use xlink:href="#m8b23f49361" x="286.604778" y="105.439375" style="fill: #cccccc; stroke: #cccccc; stroke-width: 0.75"/>
      </g>
     </g>
     <g id="text_5">
      <!-- 17 -->
      <g style="fill: #808080" transform="translate(282.092278 120.646875) scale(0.08 -0.08)">
       <defs>
        <path id="Ubuntu-37" d="M 1043 0 
Q 1082 512 1226 1078 
Q 1370 1645 1581 2179 
Q 1792 2714 2045 3171 
Q 2298 3629 2541 3917 
L 384 3917 
L 384 4435 
L 3206 4435 
L 3206 3942 
Q 2995 3699 2739 3273 
Q 2483 2848 2256 2320 
Q 2029 1792 1865 1193 
Q 1702 595 1664 0 
L 1043 0 
z
" transform="scale(0.015625)"/>
       </defs>
       <use xlink:href="#Ubuntu-31"/>
       <use xlink:href="#Ubuntu-37" x="56.399994"/>
      </g>
     </g>
    </g>
    <g id="xtick_6">
     <g id="line2d_6">
      <g>
       <use xlink:href="#m8b23f49361" x="344.97123" y="105.439375" style="fill: #cccccc; stroke: #cccccc; stroke-width: 0.75"/>
      </g>
     </g>
     <g id="text_6">
      <!-- 21 -->
      <g style="fill: #808080" transform="translate(340.45873 120.646875) scale(0.08 -0.08)">
       <defs>
        <path id="Ubuntu-32" d="M 2989 3302 
Q 2989 3072 2896 2857 
Q 2803 2643 2649 2435 
Q 2496 2227 2304 2025 
Q 2112 1824 1920 1632 
Q 1811 1523 1667 1376 
Q 1523 1229 1395 1069 
Q 1267 909 1180 761 
Q 1094 614 1094 506 
L 3136 506 
L 3136 0 
L 448 0 
Q 442 38 442 76 
Q 442 115 442 147 
Q 442 448 541 707 
Q 640 966 800 1196 
Q 960 1427 1158 1632 
Q 1357 1837 1549 2029 
Q 1709 2182 1853 2332 
Q 1997 2483 2109 2633 
Q 2221 2784 2288 2944 
Q 2355 3104 2355 3283 
Q 2355 3475 2294 3609 
Q 2234 3744 2131 3833 
Q 2029 3923 1891 3964 
Q 1754 4006 1600 4006 
Q 1414 4006 1260 3955 
Q 1107 3904 985 3837 
Q 864 3770 781 3696 
Q 698 3622 653 3584 
L 358 4006 
Q 416 4070 531 4163 
Q 646 4256 806 4339 
Q 966 4422 1164 4480 
Q 1363 4538 1594 4538 
Q 2291 4538 2640 4214 
Q 2989 3891 2989 3302 
z
" transform="scale(0.015625)"/>
       </defs>
       <use xlink:href="#Ubuntu-32"/>
       <use xlink:href="#Ubuntu-31" x="56.399994"/>
      </g>
     </g>
    </g>
    <g id="xtick_7">
     <g id="line2d_7">
      <g>
       <use xlink:href="#m8b23f49361" x="403.337682" y="105.439375" style="fill: #cccccc; stroke: #cccccc; stroke-width: 0.75"/>
      </g>
     </g>
     <g id="text_7">
      <!-- 25 -->
      <g style="fill: #808080" transform="translate(398.825182 120.646875) scale(0.08 -0.08)">
       <use xlink:href="#Ubuntu-32"/>
       <use xlink:href="#Ubuntu-35" x="56.399994"/>
      </g>
     </g>
    </g>
    <g id="xtick_8">
     <g id="line2d_8">
      <g>
       <use xlink:href="#m8b23f49361" x="461.704134" y="105.439375" style="fill: #cccccc; stroke: #cccccc; stroke-width: 0.75"/>
      </g>
     </g>
     <g id="text_8">
      <!-- 29 -->
      <g style="fill: #808080" transform="translate(457.191634 120.646875) scale(0.08 -0.08)">
       <use xlink:href="#Ubuntu-32"/>
       <use xlink:href="#Ubuntu-39" x="56.399994"/>
      </g>
     </g>
    </g>
    <g id="xtick_9">
     <g id="line2d_9">
      <g>
       <use xlink:href="#m8b23f49361" x="490.88736" y="105.439375" style="fill: #cccccc; stroke: #cccccc; stroke-width: 0.75"/>
      </g>
     </g>
    </g>
   </g>
   <g id="matplotlib.axis_2">
    <g id="ytick_1">
     <g id="line2d_10">
      <defs>
       <path id="ma0f481a47d" d="M 0 0 
L -3 0 
" style="stroke: #cccccc; stroke-width: 0.75"/>
      </defs>
      <g>
       <use xlink:href="#ma0f481a47d" x="38.7625" y="90.439375" style="fill: #cccccc; stroke: #cccccc; stroke-width: 0.75"/>
      </g>
     </g>
     <g id="text_9">
      <!-- 20000 -->
      <g style="fill: #808080" transform="translate(7.2 93.543125) scale(0.08 -0.08)">
       <use xlink:href="#Ubuntu-32"/>
       <use xlink:href="#Ubuntu-30" x="56.399994"/>
       <use xlink:href="#Ubuntu-30" x="112.799988"/>
       <use xlink:href="#Ubuntu-30" x="169.199982"/>
       <use xlink:href="#Ubuntu-30" x="225.599976"/>
      </g>
     </g>
    </g>
    <g id="ytick_2">
     <g id="line2d_11">
      <g>
       <use xlink:href="#ma0f481a47d" x="38.7625" y="70.279375" style="fill: #cccccc; stroke: #cccccc; stroke-width: 0.75"/>
      </g>
     </g>
     <g id="text_10">
      <!-- 30000 -->
      <g style="fill: #808080" transform="translate(7.2 73.383125) scale(0.08 -0.08)">
       <use xlink:href="#Ubuntu-33"/>
       <use xlink:href="#Ubuntu-30" x="56.399994"/>
       <use xlink:href="#Ubuntu-30" x="112.799988"/>
       <use xlink:href="#Ubuntu-30" x="169.199982"/>
       <use xlink:href="#Ubuntu-30" x="225.599976"/>
      </g>
     </g>
    </g>
    <g id="ytick_3">
     <g id="line2d_12">
      <g>
       <use xlink:href="#ma0f481a47d" x="38.7625" y="50.119375" style="fill: #cccccc; stroke: #cccccc; stroke-width: 0.75"/>
      </g>
     </g>
     <g id="text_11">
      <!-- 40000 -->
      <g style="fill: #808080" transform="translate(7.2 53.223125) scale(0.08 -0.08)">
       <defs>
        <path id="Ubuntu-34" d="M 256 1536 
Q 378 1818 589 2192 
Q 800 2566 1065 2963 
Q 1331 3360 1635 3744 
Q 1939 4128 2246 4435 
L 2816 4435 
L 2816 1619 
L 3341 1619 
L 3341 1133 
L 2816 1133 
L 2816 0 
L 2240 0 
L 2240 1133 
L 256 1133 
L 256 1536 
z
M 2240 3731 
Q 2048 3526 1853 3273 
Q 1658 3021 1472 2745 
Q 1286 2470 1123 2182 
Q 960 1894 832 1619 
L 2240 1619 
L 2240 3731 
z
" transform="scale(0.015625)"/>
       </defs>
       <use xlink:href="#Ubuntu-34"/>
       <use xlink:href="#Ubuntu-30" x="56.399994"/>
       <use xlink:href="#Ubuntu-30" x="112.799988"/>
       <use xlink:href="#Ubuntu-30" x="169.199982"/>
       <use xlink:href="#Ubuntu-30" x="225.599976"/>
      </g>
     </g>
    </g>
    <g id="ytick_4">
     <g id="line2d_13">
      <g>
       <use xlink:href="#ma0f481a47d" x="38.7625" y="29.959375" style="fill: #cccccc; stroke: #cccccc; stroke-width: 0.75"/>
      </g>
     </g>
     <g id="text_12">
      <!-- 50000 -->
      <g style="fill: #808080" transform="translate(7.2 33.063125) scale(0.08 -0.08)">
       <use xlink:href="#Ubuntu-35"/>
       <use xlink:href="#Ubuntu-30" x="56.399994"/>
       <use xlink:href="#Ubuntu-30" x="112.799988"/>
       <use xlink:href="#Ubuntu-30" x="169.199982"/>
       <use xlink:href="#Ubuntu-30" x="225.599976"/>
      </g>
     </g>
    </g>
   </g>
   <g id="line2d_14">
    <path d="M 53.138971 53.857653 
L 53.240301 54.498501 
L 53.544293 60.804442 
L 53.645624 60.830076 
L 53.848285 62.137405 
L 53.949616 61.957968 
L 54.152277 56.446678 
L 54.456269 51.627503 
L 54.5576 51.730039 
L 55.064253 58.112882 
L 55.570906 71.929558 
L 56.381551 85.207922 
L 56.482882 86.489617 
L 56.685543 85.925671 
L 56.786874 86.515251 
L 56.888204 86.489617 
L 56.989535 86.028207 
L 57.090866 86.207644 
L 57.80018 84.259467 
L 58.002842 82.131853 
L 58.205503 79.978605 
L 58.408164 78.645641 
L 58.509495 78.363669 
L 58.813487 74.057172 
L 59.016148 72.672941 
L 59.117479 73.031816 
L 59.32014 71.109273 
L 60.333446 61.650361 
L 60.536108 61.31712 
L 60.738769 60.061059 
L 60.8401 60.240496 
L 60.94143 59.599648 
L 61.144092 60.496835 
L 61.245422 60.445567 
L 61.448084 59.599648 
L 61.549414 59.67655 
L 61.650745 59.958523 
L 61.954737 59.061336 
L 62.056067 59.497113 
L 62.157398 59.420211 
L 62.360059 59.753452 
L 62.562721 59.292041 
L 62.866713 60.72754 
L 63.170705 59.855987 
L 63.272035 59.958523 
L 63.373366 59.420211 
L 63.474696 61.881066 
L 63.677358 58.779363 
L 63.880019 56.703017 
L 63.98135 56.574847 
L 64.184011 54.959911 
L 64.488003 48.397631 
L 64.893325 36.221525 
L 65.197317 43.322117 
L 65.298648 42.450564 
L 65.501309 38.554211 
L 65.60264 38.887451 
L 65.703971 39.759004 
L 65.805301 39.066889 
L 66.210624 43.270849 
L 66.311955 43.245216 
L 66.413285 42.809439 
L 66.615946 43.296483 
L 66.717277 42.373663 
L 66.818608 42.68127 
L 67.021269 44.296206 
L 67.22393 47.0134 
L 67.426592 48.141292 
L 68.135906 56.908088 
L 68.237237 56.933722 
L 68.541229 58.548658 
L 68.74389 56.139071 
L 69.047882 51.191727 
L 69.149213 51.4737 
L 69.554535 56.600481 
L 69.757196 61.752897 
L 70.061188 70.955469 
L 70.466511 76.415492 
L 70.770503 83.516084 
L 71.074495 86.489617 
L 71.175826 86.361448 
L 71.378487 87.438072 
L 71.88514 85.823136 
L 72.087801 84.362003 
L 72.189132 84.490172 
L 73.303769 75.774644 
L 73.50643 73.64703 
L 73.607761 73.775199 
L 73.911753 69.417435 
L 74.013084 69.545604 
L 74.215745 67.341088 
L 74.925059 62.932056 
L 75.02639 64.13685 
L 75.127721 64.034314 
L 75.229051 63.983047 
L 75.330382 64.905867 
L 75.431713 64.828965 
L 75.634374 63.67544 
L 76.039697 58.266685 
L 76.242358 59.240774 
L 76.343688 58.702462 
L 76.445019 56.933722 
L 76.54635 58.138516 
L 76.64768 62.650083 
L 76.850342 59.907255 
L 77.053003 57.651471 
L 77.154334 55.780196 
L 77.458326 58.62556 
L 77.660987 58.061614 
L 77.762317 58.087248 
L 78.572963 51.4737 
L 79.484938 34.35025 
L 79.586269 36.221525 
L 79.6876 41.143235 
L 79.78893 41.040699 
L 80.092922 37.169979 
L 80.194253 37.04181 
L 80.599576 39.348862 
L 80.802237 41.143235 
L 81.106229 40.348584 
L 81.30889 40.630557 
L 81.410221 40.348584 
L 81.916874 44.911419 
L 82.423527 50.345808 
L 82.93018 53.985823 
L 83.031511 54.190894 
L 83.132842 54.113992 
L 83.234172 53.652582 
L 83.639495 47.346641 
L 83.740826 47.60298 
L 84.247479 54.985545 
L 84.652801 68.212641 
L 85.058124 73.775199 
L 85.362116 80.619452 
L 85.564777 82.593263 
L 85.767439 82.772701 
L 85.9701 84.156932 
L 86.172761 82.926504 
L 86.375422 83.823691 
L 86.476753 83.772423 
L 86.679414 83.182843 
L 86.780745 82.952138 
L 86.983406 81.38847 
L 87.084737 81.234666 
L 87.490059 76.774366 
L 87.59139 76.8 
L 87.794051 74.441681 
L 87.996713 72.570405 
L 88.098043 72.3397 
L 88.908689 63.265297 
L 89.010019 62.803887 
L 89.11135 63.034592 
L 89.314011 60.035425 
L 89.719334 58.881899 
L 89.820664 58.856265 
L 89.921995 57.702739 
L 90.023326 58.471756 
L 90.327318 56.651749 
L 90.428648 57.292597 
L 90.529979 57.010624 
L 90.63131 56.062169 
L 90.833971 56.908088 
L 91.036632 56.446678 
L 91.137963 56.344142 
L 91.239293 56.421044 
L 91.441955 57.856543 
L 91.644616 56.98499 
L 91.745947 56.98499 
L 92.049939 56.26724 
L 92.151269 56.421044 
L 92.35393 57.036258 
L 92.759253 54.883009 
L 92.860584 54.780474 
L 92.961914 54.447233 
L 93.671229 46.193115 
L 94.076551 32.504608 
L 94.177882 34.375884 
L 94.380543 39.066889 
L 94.481874 38.502943 
L 94.684535 35.99082 
L 94.887197 36.503498 
L 94.988527 36.093355 
L 95.39385 39.656469 
L 95.49518 39.707736 
L 95.697842 39.323228 
L 95.900503 38.784916 
L 96.001834 38.989987 
L 96.508487 44.347474 
L 97.01514 49.628058 
L 97.319132 51.806941 
L 97.521793 56.754285 
L 97.724455 53.806385 
L 97.825785 53.165538 
L 98.129777 48.320729 
L 98.231108 47.756783 
L 98.332439 48.269461 
L 98.636431 53.11427 
L 98.839092 56.703017 
L 99.244414 69.981381 
L 99.751068 79.03015 
L 100.05506 84.413271 
L 100.257721 86.335814 
L 100.359051 86.438349 
L 100.561713 87.720045 
L 100.865705 87.82258 
L 100.967035 87.335536 
L 101.068366 87.591875 
L 101.169697 87.514973 
L 101.372358 87.873848 
L 101.473689 88.258357 
L 101.575019 88.104553 
L 101.777681 88.207089 
L 102.081672 86.387081 
L 102.284334 83.798057 
L 102.790987 80.850158 
L 102.993648 79.773533 
L 103.19631 77.081973 
L 103.601632 72.544772 
L 103.702963 73.390691 
L 104.716269 68.392079 
L 104.8176 68.187007 
L 105.121592 75.672108 
L 105.324253 74.057172 
L 105.425584 74.210976 
L 105.729576 73.05745 
L 105.830906 73.236887 
L 105.932237 73.134351 
L 106.033568 73.262521 
L 106.134898 73.211253 
L 106.33756 72.262799 
L 106.43889 72.442236 
L 106.641552 72.237165 
L 106.742882 72.185897 
L 106.844213 72.416602 
L 107.350866 70.23772 
L 107.452197 69.725042 
L 107.553527 67.033481 
L 107.756189 59.445845 
L 107.95885 58.03598 
L 108.262842 53.11427 
L 108.769495 40.092245 
L 108.972156 45.039589 
L 109.276148 43.450287 
L 109.47881 42.835073 
L 109.58014 42.963243 
L 109.884132 45.552267 
L 109.985463 46.090579 
L 110.188124 44.526911 
L 110.289455 44.808884 
L 110.390785 44.552545 
L 110.492116 43.860429 
L 110.593447 43.937331 
L 111.505423 51.448066 
L 112.012076 56.85682 
L 112.214737 57.472034 
L 112.316068 57.4464 
L 112.72139 50.653415 
L 112.822721 50.909754 
L 113.025382 53.216805 
L 113.430705 58.446123 
L 113.836027 71.545049 
L 114.140019 75.62084 
L 114.748003 86.31018 
L 114.849334 86.079475 
L 115.153326 87.104831 
L 115.355987 87.053563 
L 115.558648 85.900037 
L 116.065302 83.823691 
L 116.369294 81.209032 
L 116.673285 77.825356 
L 116.774616 79.568462 
L 117.3826 70.776032 
L 117.483931 70.852934 
L 117.686592 69.366167 
L 117.990584 65.623617 
L 118.193245 62.803887 
L 118.395906 61.44529 
L 118.497237 61.675995 
L 118.699898 59.907255 
L 118.801229 60.214862 
L 119.00389 58.984435 
L 119.105221 58.856265 
L 119.409213 57.087525 
L 119.510544 70.23772 
L 119.611874 70.083916 
L 119.814535 66.982214 
L 120.625181 59.138238 
L 120.827842 58.676828 
L 120.929173 58.702462 
L 121.233165 60.85571 
L 121.638487 60.830076 
L 122.347802 57.164427 
L 122.449132 56.85682 
L 122.854455 50.345808 
L 123.057116 45.500999 
L 123.259777 37.246881 
L 123.361108 37.887729 
L 123.563769 42.5531 
L 123.867761 38.81055 
L 124.070423 38.528577 
L 124.171753 38.68238 
L 124.577076 42.450564 
L 124.678406 42.373663 
L 124.779737 41.784083 
L 124.881068 42.68127 
L 124.982398 42.271127 
L 125.083729 41.37394 
L 125.387721 43.629724 
L 125.894374 49.320452 
L 126.705019 56.677383 
L 126.907681 56.933722 
L 127.211673 53.088636 
L 127.414334 50.858486 
L 127.616995 52.909199 
L 128.022318 58.984435 
L 128.528971 72.826745 
L 128.832963 76.851268 
L 129.136955 84.028762 
L 129.643608 86.745956 
L 129.744939 86.617787 
L 129.9476 85.438627 
L 130.048931 85.361725 
L 130.352923 84.643976 
L 130.454253 84.66961 
L 130.555584 84.849047 
L 130.960906 81.2603 
L 131.163568 79.722266 
L 131.264898 79.414659 
L 131.670221 75.697742 
L 131.771552 74.749288 
L 131.974213 77.543383 
L 132.582197 73.365057 
L 132.683527 71.442514 
L 132.784858 72.237165 
L 133.190181 69.032926 
L 133.291511 69.673774 
L 133.392842 68.930391 
L 133.494173 69.05856 
L 133.696834 68.058838 
L 133.798165 68.853489 
L 134.000826 60.343032 
L 134.102157 60.086693 
L 134.304818 60.343032 
L 134.507479 60.13796 
L 134.71014 58.010346 
L 134.811471 58.523024 
L 134.912802 58.394855 
L 135.014132 58.651194 
L 135.115463 58.574292 
L 135.318124 58.933167 
L 135.723447 58.292319 
L 136.027439 59.907255 
L 136.128769 59.881621 
L 136.2301 59.061336 
L 136.331431 59.163872 
L 136.838084 56.39541 
L 137.142076 54.370331 
L 137.648729 45.24466 
L 137.85139 37.810827 
L 137.952721 38.605478 
L 138.155382 41.758449 
L 138.459374 38.733648 
L 138.662036 37.887729 
L 138.763366 38.195336 
L 138.966028 39.835906 
L 139.168689 40.886896 
L 139.270019 41.015066 
L 139.37135 40.861262 
L 139.472681 41.143235 
L 139.675342 40.809994 
L 139.776673 40.989432 
L 140.485987 47.218471 
L 141.195302 54.088358 
L 141.499294 54.729206 
L 141.600624 54.216528 
L 142.005947 49.320452 
L 142.309939 52.627226 
L 142.613931 57.010624 
L 143.019253 69.904479 
L 143.424576 75.467037 
L 143.728568 83.02904 
L 144.03256 84.695244 
L 144.13389 84.951583 
L 144.336552 85.7206 
L 144.437882 85.566796 
L 144.539213 85.848769 
L 144.741874 85.489895 
L 145.045866 84.695244 
L 146.160503 75.2876 
L 146.464495 72.083361 
L 147.477802 63.957413 
L 147.579132 63.829243 
L 147.680463 63.470368 
L 147.883124 61.624727 
L 147.984455 61.44529 
L 148.085786 61.573459 
L 148.187116 61.060781 
L 148.389778 72.980548 
L 148.592439 71.621951 
L 148.693769 71.673219 
L 148.997761 70.69913 
L 149.099092 70.288988 
L 149.301753 68.776587 
L 149.403084 68.417712 
L 150.011068 61.932334 
L 150.112399 61.881066 
L 150.31506 59.727818 
L 150.517721 61.265852 
L 150.619052 61.214585 
L 151.328366 57.57457 
L 151.733689 54.883009 
L 152.240342 44.629447 
L 152.544334 37.964631 
L 152.746995 42.373663 
L 152.848326 41.809717 
L 153.050987 37.759559 
L 153.152318 38.041532 
L 153.253649 37.528854 
L 153.354979 37.810827 
L 153.658971 40.78436 
L 153.861632 41.681547 
L 154.266955 41.630279 
L 154.368286 41.271405 
L 154.570947 42.501832 
L 155.381592 52.140181 
L 155.685584 54.524135 
L 155.888245 55.959634 
L 156.090907 56.677383 
L 156.394899 51.909476 
L 156.59756 49.474255 
L 156.800221 51.730039 
L 157.104213 55.780196 
L 157.205544 56.908088 
L 157.509536 68.443346 
L 158.320181 83.644253 
L 158.624173 85.25919 
L 158.725503 85.489895 
L 158.928165 86.258912 
L 159.029495 85.182288 
L 159.130826 85.284823 
L 159.232157 85.541163 
L 159.73881 82.567629 
L 159.840141 82.798334 
L 160.042802 81.696076 
L 160.650786 77.38958 
L 161.157439 71.673219 
L 161.25877 71.442514 
L 161.461431 69.417435 
L 162.069415 65.034037 
L 162.576068 61.881066 
L 162.677399 61.752897 
L 163.082721 60.419933 
L 163.184052 60.317398 
L 163.285382 60.983879 
L 163.488044 58.933167 
L 163.589374 58.471756 
L 163.690705 58.804997 
L 163.792036 58.728096 
L 163.994697 58.49739 
L 164.096028 58.599926 
L 164.197358 58.446123 
L 164.50135 59.21514 
L 164.602681 59.21514 
L 164.704012 59.08697 
L 164.805342 59.266408 
L 164.906673 59.189506 
L 165.008003 59.420211 
L 165.109334 59.08697 
L 165.311995 60.163594 
L 165.514657 61.522191 
L 165.717318 58.804997 
L 165.818649 58.471756 
L 166.325302 53.088636 
L 166.831955 42.527466 
L 167.034616 34.862928 
L 167.135947 36.5804 
L 167.338608 41.784083 
L 167.439939 41.579012 
L 167.6426 38.477309 
L 167.743931 39.169424 
L 167.845262 39.14379 
L 167.946592 38.81055 
L 168.453245 42.168591 
L 168.554576 41.758449 
L 168.757237 41.96352 
L 168.858568 41.322672 
L 169.061229 41.912252 
L 169.16256 42.245493 
L 169.567883 45.808606 
L 170.074536 51.678771 
L 170.277197 53.396243 
L 170.378528 53.652582 
L 170.581189 55.395688 
L 170.78385 54.447233 
L 171.189173 48.551434 
L 171.290503 49.371719 
L 171.695826 54.806108 
L 171.797157 56.215973 
L 172.101149 67.648695 
L 172.709133 79.15832 
L 173.013124 84.003128 
L 173.317116 85.59243 
L 173.519778 86.335814 
L 173.722439 85.464261 
L 173.82377 85.566796 
L 174.127762 85.284823 
L 174.229092 85.25919 
L 175.546391 74.005904 
L 175.647721 74.134074 
L 175.850383 72.3397 
L 176.053044 70.878568 
L 176.154374 70.776032 
L 176.863689 63.854877 
L 176.96502 63.803609 
L 177.573004 66.597705 
L 177.674334 66.23883 
L 177.775665 65.77742 
L 178.079657 60.958245 
L 178.180987 61.009513 
L 178.383649 60.445567 
L 178.484979 60.72754 
L 178.58631 59.881621 
L 178.788971 57.292597 
L 178.890302 57.241329 
L 179.092963 58.369221 
L 179.194294 57.830909 
L 179.295624 57.856543 
L 179.396955 57.677105 
L 179.498286 57.138793 
L 179.599616 57.369498 
L 179.903608 58.62556 
L 180.004939 58.599926 
L 180.10627 58.446123 
L 180.2076 58.523024 
L 180.916915 54.088358 
L 181.220907 48.423265 
L 181.72756 35.375606 
L 181.930221 41.245771 
L 182.132883 38.451675 
L 182.234213 38.938719 
L 182.335544 39.14379 
L 182.538205 37.63139 
L 182.740866 39.964075 
L 182.842197 39.425763 
L 183.044858 41.96352 
L 183.146189 41.96352 
L 183.34885 40.143513 
L 183.450181 40.117879 
L 183.652842 40.348584 
L 183.754173 40.32295 
L 184.362157 46.731427 
L 184.666149 48.730872 
L 184.970141 50.499611 
L 185.274133 51.524968 
L 185.375463 50.730316 
L 185.679455 46.475088 
L 185.780786 46.500722 
L 185.882116 47.269739 
L 186.4901 59.343309 
L 186.794092 66.751509 
L 187.199415 72.3397 
L 187.503407 79.978605 
L 187.706068 82.567629 
L 187.807399 82.388192 
L 188.111391 84.567074 
L 188.212721 83.926226 
L 188.314052 84.259467 
L 188.415383 84.105664 
L 188.618044 83.054674 
L 188.820705 82.747067 
L 188.922036 82.567629 
L 189.023366 82.849602 
L 189.124697 82.336924 
L 189.428689 78.543106 
L 189.53002 78.696909 
L 190.340665 72.365334 
L 190.441996 71.75012 
L 190.644657 68.956025 
L 190.847318 68.187007 
L 191.252641 65.18784 
L 191.455302 63.316565 
L 191.759294 60.676272 
L 192.265947 59.522747 
L 192.367278 58.933167 
L 192.468608 59.010069 
L 192.67127 58.292319 
L 193.076592 60.445567 
L 193.481915 58.779363 
L 193.583246 58.958801 
L 193.684576 58.779363 
L 193.887237 59.471479 
L 193.988568 58.317953 
L 194.089899 58.369221 
L 194.191229 58.087248 
L 194.393891 58.241051 
L 194.495221 58.343587 
L 195.407197 53.242439 
L 196.015181 44.065501 
L 196.217842 36.554766 
L 196.319173 36.5804 
L 196.521834 41.040699 
L 197.028487 37.272515 
L 197.535141 39.989709 
L 197.737802 41.245771 
L 197.839133 41.091967 
L 197.940463 40.271682 
L 198.041794 40.399852 
L 198.244455 41.245771 
L 198.649778 46.526356 
L 199.156431 49.602425 
L 199.460423 52.832297 
L 199.561754 53.57568 
L 199.663084 53.396243 
L 199.764415 54.498501 
L 199.865746 54.088358 
L 200.372399 47.654248 
L 200.473729 48.038756 
L 201.183044 65.136572 
L 201.487036 72.3397 
L 201.588367 72.826745 
L 201.791028 76.671831 
L 202.09502 83.695521 
L 202.500342 86.566519 
L 202.601673 86.797224 
L 202.804334 87.745679 
L 203.006996 87.386804 
L 203.108326 87.284268 
L 203.310988 86.438349 
L 203.513649 86.89976 
L 203.614979 86.797224 
L 203.71631 86.463983 
L 203.817641 86.720322 
L 203.918971 86.566519 
L 204.222963 84.720878 
L 204.324294 84.720878 
L 205.23627 77.38958 
L 206.85756 66.264464 
L 206.958891 66.443902 
L 207.060221 66.187563 
L 207.161552 66.367 
L 207.364213 65.597983 
L 208.073528 64.00868 
L 208.174859 64.213752 
L 208.276189 63.983047 
L 208.37752 64.521359 
L 208.47885 66.495169 
L 208.681512 65.700518 
L 208.884173 65.213474 
L 208.985504 65.521081 
L 209.086834 65.469813 
L 209.390826 64.034314 
L 209.492157 64.803332 
L 209.796149 61.932334 
L 210.404133 54.857376 
L 210.708125 45.090857 
L 210.910786 40.169147 
L 211.113447 44.706348 
L 211.214778 44.32184 
L 211.417439 41.912252 
L 211.51877 41.758449 
L 211.6201 41.091967 
L 211.721431 41.117601 
L 211.924092 43.527189 
L 212.025423 43.040144 
L 212.228084 44.32184 
L 212.329415 44.347474 
L 212.430746 45.065223 
L 212.532076 43.962965 
L 212.734738 44.347474 
L 212.836068 44.347474 
L 213.03873 44.65508 
L 213.241391 46.42382 
L 213.545383 49.525523 
L 213.950705 53.524412 
L 214.356028 54.908643 
L 214.558689 54.421599 
L 214.964012 48.833407 
L 215.369334 54.421599 
L 215.571996 57.933444 
L 215.875988 69.596872 
L 216.17998 73.441958 
L 216.28131 74.441681 
L 216.686633 83.669887 
L 216.889294 85.054118 
L 216.990625 85.310457 
L 217.294617 86.720322 
L 217.699939 84.977217 
L 217.80127 85.515529 
L 217.902601 85.284823 
L 218.206592 84.028762 
L 218.307923 84.131298 
L 218.409254 83.285379 
L 218.611915 80.747622 
L 219.017238 77.210143 
L 219.32123 71.083639 
L 219.42256 70.596595 
L 219.929213 65.649251 
L 220.131875 64.59826 
L 220.233205 65.008403 
L 220.537197 62.701351 
L 221.246512 58.856265 
L 221.347842 58.523024 
L 221.449173 57.523302 
L 221.550504 57.625838 
L 221.651834 57.215695 
L 221.854496 56.087803 
L 221.955826 56.113437 
L 222.057157 56.26724 
L 222.259818 55.703294 
L 222.56381 55.267518 
L 222.867802 56.728651 
L 222.969133 56.369776 
L 223.070463 56.446678 
L 223.273125 56.036535 
L 223.374455 56.344142 
L 223.475786 55.882732 
L 223.678447 56.139071 
L 223.779778 56.190339 
L 223.881109 55.754562 
L 223.982439 55.780196 
L 224.286431 54.75484 
L 224.387762 53.344975 
L 224.489092 53.934555 
L 224.995746 48.320729 
L 225.198407 44.347474 
L 225.502399 34.862928 
L 225.70506 40.78436 
L 225.806391 40.528021 
L 226.009052 37.067444 
L 226.110383 37.323783 
L 226.313044 36.734203 
L 226.718367 39.425763 
L 226.819697 39.528299 
L 227.022359 40.194781 
L 227.326351 38.554211 
L 227.427681 38.836183 
L 227.731673 41.553378 
L 227.934334 44.014233 
L 228.238326 47.039034 
L 228.440988 48.474533 
L 228.643649 49.910031 
L 228.84631 52.550324 
L 228.947641 52.242717 
L 229.150302 52.499056 
L 229.454294 46.42382 
L 229.555625 46.526356 
L 229.758286 49.11538 
L 230.264939 59.343309 
L 230.568931 67.828133 
L 230.771593 71.775754 
L 230.872923 71.314344 
L 231.075584 76.21042 
L 231.278246 81.106497 
L 231.582238 82.541995 
L 231.683568 82.695799 
L 231.784899 82.618897 
L 231.98756 89.027374 
L 232.190222 82.567629 
L 232.494213 81.72171 
L 232.696875 81.491005 
L 232.899536 80.311845 
L 233.608851 74.416047 
L 233.811512 74.851823 
L 235.12881 64.034314 
L 235.534133 62.239941 
L 235.635464 62.393744 
L 235.838125 60.086693 
L 235.939455 59.881621 
L 236.040786 60.701906 
L 236.344778 59.292041 
L 236.446109 59.445845 
L 236.547439 59.292041 
L 236.64877 60.958245 
L 236.851431 59.292041 
L 237.054093 58.394855 
L 237.358084 59.625282 
L 237.459415 59.445845 
L 237.662076 58.804997 
L 237.763407 59.138238 
L 237.864738 58.112882 
L 238.16873 59.984157 
L 238.371391 59.702184 
L 238.472722 59.420211 
L 238.574052 60.599371 
L 238.776714 57.523302 
L 238.878044 59.855987 
L 238.979375 59.80472 
L 239.080705 59.650916 
L 239.283367 55.370054 
L 239.688689 48.013122 
L 239.891351 41.143235 
L 240.094012 36.375328 
L 240.398004 41.989154 
L 240.600665 38.836183 
L 240.701996 39.092523 
L 240.904657 38.605478 
L 241.005988 39.912808 
L 241.107318 39.502665 
L 241.208649 39.73337 
L 241.30998 41.784083 
L 241.41131 40.963798 
L 241.512641 41.040699 
L 241.715302 41.860985 
L 242.019294 41.399574 
L 242.120625 41.732815 
L 242.728609 48.320729 
L 242.93127 49.807496 
L 243.032601 50.473977 
L 243.235262 52.755395 
L 243.539254 55.062447 
L 243.640585 54.601036 
L 244.147238 48.5258 
L 244.248568 48.551434 
L 244.45123 52.52469 
L 244.55256 52.575958 
L 244.755222 56.164705 
L 245.059214 67.315454 
L 245.261875 71.186174 
L 245.464536 72.878012 
L 246.07252 84.413271 
L 246.173851 84.977217 
L 246.275181 84.951583 
L 246.477843 85.412993 
L 246.579173 84.849047 
L 246.680504 85.028484 
L 246.883165 83.618619 
L 246.984496 84.362003 
L 247.085826 84.131298 
L 247.288488 83.157209 
L 247.389818 83.541718 
L 247.59248 82.029317 
L 247.69381 82.695799 
L 249.112439 70.391523 
L 249.21377 70.878568 
L 249.315101 70.596595 
L 249.821754 64.162484 
L 250.125746 60.291764 
L 250.227076 60.26613 
L 250.328407 60.061059 
L 250.429738 60.163594 
L 250.531068 59.984157 
L 250.632399 58.16415 
L 250.73373 58.471756 
L 250.83506 59.240774 
L 251.037722 57.856543 
L 251.139052 57.677105 
L 251.341714 57.984712 
L 251.443044 57.420766 
L 251.645706 57.882177 
L 251.747036 57.292597 
L 251.949697 58.394855 
L 252.051028 58.523024 
L 252.152359 57.959078 
L 252.35502 58.49739 
L 252.456351 58.369221 
L 252.557681 57.651471 
L 252.760343 58.189783 
L 252.861673 58.061614 
L 253.064335 58.779363 
L 253.165665 58.676828 
L 253.368327 56.805552 
L 253.469657 56.446678 
L 253.773649 54.088358 
L 253.97631 52.883565 
L 254.077641 52.088914 
L 254.685625 36.811105 
L 254.786956 37.810827 
L 254.888286 40.297316 
L 254.989617 39.707736 
L 255.192278 37.657024 
L 255.293609 37.477586 
L 255.49627 36.836739 
L 255.698931 38.272238 
L 255.800262 38.477309 
L 256.002923 40.220414 
L 256.104254 40.169147 
L 256.306915 40.45112 
L 256.509577 39.835906 
L 256.610907 40.271682 
L 256.813568 42.527466 
L 256.914899 42.040422 
L 257.218891 47.628614 
L 257.826875 51.960744 
L 258.130867 53.319341 
L 258.232198 53.550046 
L 258.434859 50.935388 
L 258.738851 47.705515 
L 259.042843 52.345253 
L 259.245504 54.549769 
L 259.954818 70.776032 
L 260.25881 76.953804 
L 260.461472 81.516639 
L 260.765464 83.516084 
L 260.968125 84.182565 
L 261.069456 84.131298 
L 261.170786 83.823691 
L 261.373448 82.952138 
L 261.474778 83.157209 
L 261.677439 82.285656 
L 261.77877 82.90087 
L 261.981431 86.412715 
L 262.994738 78.671275 
L 263.29873 74.56985 
L 263.40006 74.518582 
L 263.704052 71.775754 
L 263.906714 64.188118 
L 264.92002 57.138793 
L 265.021351 58.010346 
L 265.224012 57.318231 
L 265.528004 54.934277 
L 265.629335 54.831742 
L 265.831996 51.089191 
L 265.933327 50.781584 
L 266.034657 50.935388 
L 266.135988 51.627503 
L 266.237319 57.010624 
L 266.338649 56.754285 
L 266.54131 57.164427 
L 266.743972 56.98499 
L 266.845302 57.164427 
L 267.047964 56.344142 
L 267.453286 57.600204 
L 267.655948 56.421044 
L 267.757278 56.677383 
L 267.858609 56.600481 
L 267.959939 56.113437 
L 268.162601 54.16526 
L 268.263931 54.29343 
L 268.871915 48.320729 
L 269.074577 42.758171 
L 269.277238 36.811105 
L 269.378569 37.810827 
L 269.479899 40.040977 
L 269.783891 37.708292 
L 269.885222 37.887729 
L 270.087883 36.811105 
L 270.290544 37.862095 
L 270.391875 39.220692 
L 270.594536 43.091412 
L 270.797198 41.835351 
L 271.10119 39.400129 
L 271.303851 40.399852 
L 271.506512 41.860985 
L 271.709173 44.860152 
L 271.810504 44.552545 
L 272.519819 51.294262 
L 272.621149 51.448066 
L 272.82381 52.39652 
L 273.026472 49.474255 
L 273.229133 46.910864 
L 273.330464 47.064668 
L 273.533125 49.679326 
L 273.938448 56.831186 
L 274.24244 66.520803 
L 275.154415 81.772978 
L 275.357077 83.849325 
L 275.661069 84.233833 
L 275.762399 84.08003 
L 275.86373 84.131298 
L 276.066391 83.746789 
L 276.167722 83.567352 
L 276.370383 82.157487 
L 276.471714 82.43946 
L 276.573044 81.747344 
L 276.674375 82.234389 
L 276.877036 80.79889 
L 277.282359 77.415214 
L 278.802319 63.854877 
L 279.106311 62.137405 
L 279.207641 61.599093 
L 279.511633 62.470646 
L 279.714294 63.67544 
L 279.916956 63.08586 
L 280.220948 58.215417 
L 280.423609 57.600204 
L 280.52494 58.061614 
L 280.828931 57.061892 
L 280.930262 56.754285 
L 281.436915 58.010346 
L 281.538246 57.523302 
L 281.639577 57.702739 
L 281.842238 58.317953 
L 281.943569 58.369221 
L 282.044899 58.984435 
L 282.956875 54.498501 
L 283.058206 54.29343 
L 283.362198 50.345808 
L 283.564859 46.42382 
L 283.868851 37.426319 
L 283.970182 38.605478 
L 284.071512 41.168869 
L 284.375504 39.195058 
L 284.476835 39.374496 
L 284.578165 39.707736 
L 284.780827 39.195058 
L 284.882157 39.27196 
L 284.983488 39.27196 
L 285.186149 41.784083 
L 285.388811 41.117601 
L 285.490141 40.861262 
L 285.591472 40.91253 
L 285.794133 40.733093 
L 285.895464 40.963798 
L 286.199456 43.60409 
L 286.604778 47.115936 
L 286.90877 50.217638 
L 287.010101 50.42271 
L 287.314093 51.883842 
L 287.415423 51.730039 
L 287.516754 50.986656 
L 287.820746 46.193115 
L 287.922077 46.628891 
L 288.226069 51.037923 
L 288.530061 55.472589 
L 288.935383 68.776587 
L 289.340706 73.544494 
L 289.746028 83.823691 
L 290.05002 85.054118 
L 290.252682 85.848769 
L 290.354012 85.797502 
L 290.556673 85.182288 
L 290.759335 84.746511 
L 290.860665 83.849325 
L 290.961996 84.567074 
L 291.468649 81.003961 
L 291.772641 78.466204 
L 291.873972 78.184231 
L 291.975303 78.338035 
L 293.697924 62.060503 
L 294.103246 60.009791 
L 294.204577 58.907533 
L 294.305907 59.08697 
L 294.407238 58.49739 
L 294.609899 59.163872 
L 294.71123 59.035702 
L 294.812561 58.369221 
L 295.015222 59.394577 
L 295.116553 59.497113 
L 295.319214 58.907533 
L 295.420544 58.933167 
L 295.521875 58.676828 
L 295.623206 58.779363 
L 295.724536 58.446123 
L 295.825867 58.62556 
L 295.927198 58.574292 
L 296.23119 57.651471 
L 296.33252 57.984712 
L 296.433851 57.754007 
L 296.535182 58.189783 
L 296.839174 57.061892 
L 296.940504 57.395132 
L 297.244496 55.626393 
L 297.447157 55.190616 
L 297.548488 55.421321 
L 297.953811 50.858486 
L 298.156472 48.397631 
L 298.257803 50.473977 
L 298.460464 37.50322 
L 298.561794 37.195613 
L 298.764456 40.194781 
L 298.967117 37.733925 
L 299.068448 37.708292 
L 299.271109 37.067444 
L 299.575101 38.631112 
L 299.777762 40.117879 
L 299.879093 40.32295 
L 299.980424 40.809994 
L 300.081754 40.246048 
L 300.183085 40.271682 
L 300.284415 39.964075 
L 300.588407 41.655913 
L 301.804375 51.422432 
L 301.905706 51.319896 
L 302.007036 50.961022 
L 302.412359 45.680437 
L 302.51369 46.141847 
L 302.61502 46.859596 
L 303.121674 55.036813 
L 303.526996 68.315177 
L 303.932319 73.877735 
L 304.337641 83.208477 
L 304.438972 83.439182 
L 304.844295 85.951305 
L 304.945625 85.874403 
L 305.046956 85.618064 
L 305.148286 85.797502 
L 305.249617 85.464261 
L 305.452278 85.618064 
L 305.553609 85.566796 
L 305.75627 85.771868 
L 305.857601 85.618064 
L 305.958932 84.823413 
L 306.060262 84.951583 
L 306.262924 84.054396 
L 306.364254 83.900592 
L 307.681553 75.825912 
L 308.390867 68.366445 
L 308.492198 68.750953 
L 308.998851 65.803054 
L 309.100182 65.77742 
L 309.201512 65.623617 
L 309.505504 64.803332 
L 310.012157 63.931779 
L 310.214819 65.213474 
L 310.822803 63.342199 
L 310.924133 63.470368 
L 311.025464 63.214029 
L 311.126795 63.496002 
L 311.228125 63.265297 
L 311.430787 62.265575 
L 311.633448 61.419656 
L 311.734778 60.932612 
L 311.93744 59.266408 
L 312.444093 54.011457 
L 312.849416 46.090579 
L 313.052077 39.425763 
L 313.153407 39.477031 
L 313.254738 42.373663 
L 313.356069 42.348029 
L 313.55873 41.143235 
L 313.660061 41.220137 
L 313.862722 39.989709 
L 313.964053 41.143235 
L 314.065383 41.117601 
L 314.166714 40.78436 
L 314.268045 41.322672 
L 314.470706 43.040144 
L 314.774698 42.348029 
L 314.977359 41.168869 
L 315.281351 43.219582 
L 316.395988 52.319619 
L 316.497319 52.037646 
L 316.69998 50.268906 
L 317.003972 46.270017 
L 317.105303 46.141847 
L 317.510625 51.576235 
L 318.726593 79.49156 
L 319.030585 83.054674 
L 319.131916 82.90087 
L 319.334577 83.823691 
L 319.537238 83.772423 
L 319.84123 82.208755 
L 319.942561 82.644531 
L 320.145222 82.413826 
L 320.347883 81.593541 
L 320.449214 81.824246 
L 320.651875 80.08114 
L 321.057198 75.774644 
L 321.158528 77.030705 
L 321.36119 72.185897 
L 321.665182 69.64814 
L 321.766512 69.750676 
L 321.867843 68.340811 
L 321.969174 68.366445 
L 322.475827 62.393744 
L 322.678488 58.16415 
L 323.083811 55.728928 
L 323.286472 53.780751 
L 323.387803 53.319341 
L 323.489133 54.395965 
L 323.691795 52.832297 
L 323.894456 53.550046 
L 324.198448 51.960744 
L 324.299779 52.114547 
L 324.401109 52.704127 
L 324.60377 51.678771 
L 325.009093 56.39541 
L 325.211754 55.395688 
L 325.313085 55.728928 
L 325.414416 55.472589 
L 325.819738 56.908088 
L 325.921069 56.754285 
L 326.022399 56.882454 
L 326.12373 56.779919 
L 326.326391 55.241884 
L 326.427722 55.652027 
L 326.934375 52.037646 
L 327.339698 44.885786 
L 327.64369 35.811382 
L 327.74502 37.016176 
L 327.846351 39.73337 
L 327.947682 39.502665 
L 328.150343 37.349417 
L 328.251674 37.04181 
L 328.353004 37.605756 
L 328.454335 37.195613 
L 328.555666 37.375051 
L 328.758327 38.887451 
L 328.960988 40.092245 
L 329.062319 39.323228 
L 329.16365 40.220414 
L 329.26498 39.656469 
L 329.366311 39.707736 
L 329.568972 39.220692 
L 329.670303 39.323228 
L 329.974295 41.399574 
L 330.582279 47.141569 
L 330.78494 48.961577 
L 331.088932 50.935388 
L 331.190262 50.807218 
L 331.392924 48.19256 
L 331.595585 45.347196 
L 331.696916 45.654803 
L 331.899577 49.038479 
L 332.3049 55.21625 
L 332.710222 68.033204 
L 333.723529 84.515806 
L 333.824859 84.54144 
L 334.331512 84.054396 
L 334.432843 84.054396 
L 334.534174 83.900592 
L 334.838166 76.492393 
L 335.142158 75.518305 
L 336.358125 63.367833 
L 336.459456 63.214029 
L 336.662117 61.599093 
L 336.864779 64.828965 
L 336.966109 64.341921 
L 337.270101 60.983879 
L 337.371432 61.727263 
L 337.472762 59.67655 
L 337.574093 59.727818 
L 338.283408 56.85682 
L 338.384738 56.062169 
L 338.486069 56.139071 
L 338.5874 55.882732 
L 338.68873 55.011179 
L 338.790061 51.986378 
L 338.891391 52.575958 
L 339.094053 51.114825 
L 339.195383 51.268629 
L 339.296714 51.191727 
L 339.803367 52.140181 
L 340.107359 54.447233 
L 340.20869 54.62667 
L 340.411351 55.164982 
L 340.512682 55.139349 
L 340.715343 53.524412 
L 340.816674 53.755118 
L 340.918004 53.70385 
L 341.120666 51.576235 
L 341.221996 52.140181 
L 341.72865 48.141292 
L 342.032642 40.989432 
L 342.235303 34.862928 
L 342.336633 34.401518 
L 342.539295 37.605756 
L 342.843287 34.145178 
L 343.045948 35.196169 
L 343.147279 34.837294 
L 343.34994 35.631945 
L 343.552601 37.400685 
L 343.755262 36.554766 
L 343.856593 36.554766 
L 343.957924 36.324061 
L 344.160585 35.196169 
L 344.261916 35.40124 
L 344.768569 39.989709 
L 345.173892 42.5531 
L 345.477883 45.398464 
L 345.680545 46.42382 
L 345.781875 46.193115 
L 345.984537 44.219304 
L 346.187198 41.784083 
L 346.288529 41.886618 
L 346.795182 49.935665 
L 348.01115 77.338312 
L 348.315142 81.183398 
L 348.517803 81.875514 
L 348.720464 81.234666 
L 348.821795 81.183398 
L 349.227117 79.901703 
L 349.328448 79.978605 
L 349.429779 79.235221 
L 349.531109 79.260855 
L 349.733771 78.620008 
L 350.037763 74.800555 
L 350.139093 74.621118 
L 350.341754 73.211253 
L 350.645746 68.571516 
L 350.848408 66.315732 
L 351.963045 56.574847 
L 352.165706 55.370054 
L 352.368367 53.319341 
L 352.469698 53.165538 
L 352.571029 52.473422 
L 352.77369 53.11427 
L 353.381674 50.88412 
L 353.584335 51.063557 
L 353.685666 51.166093 
L 353.989658 54.011457 
L 354.090988 53.960189 
L 354.29365 54.190894 
L 354.496311 53.883287 
L 354.698972 54.447233 
L 354.800303 54.344697 
L 355.002964 54.75484 
L 355.104295 54.549769 
L 355.306956 54.806108 
L 356.218932 51.140459 
L 356.522924 46.654525 
L 356.928246 36.349694 
L 357.130908 39.810272 
L 357.4349 36.144623 
L 357.637561 36.45223 
L 357.840222 38.22097 
L 358.144214 41.015066 
L 358.245545 40.78436 
L 358.448206 41.168869 
L 358.549537 40.015343 
L 358.650867 40.32295 
L 358.853529 39.887174 
L 358.954859 40.374218 
L 359.157521 40.297316 
L 359.562843 42.860707 
L 359.664174 42.963243 
L 359.765505 43.245216 
L 360.069496 46.628891 
L 360.170827 47.833685 
L 360.272158 47.731149 
L 360.474819 47.346641 
L 360.67748 45.295928 
L 360.778811 44.373107 
L 360.880142 44.603813 
L 361.082803 47.167203 
L 361.488125 53.678216 
L 361.893448 67.366722 
L 362.400101 75.492671 
L 362.704093 80.901425 
L 362.906755 82.721433 
L 363.109416 83.131575 
L 363.210746 83.772423 
L 363.312077 83.695521 
L 363.514738 83.413548 
L 363.7174 83.541718 
L 363.81873 83.49045 
L 364.021392 82.593263 
L 364.122722 82.465094 
L 364.629376 78.235499 
L 364.832037 77.51775 
L 365.440021 70.314622 
L 365.946674 64.854599 
L 366.655988 59.67655 
L 366.757319 58.548658 
L 366.85865 58.599926 
L 367.061311 57.4464 
L 367.263972 56.215973 
L 367.466634 55.780196 
L 367.567964 55.80583 
L 367.669295 55.652027 
L 367.770626 55.703294 
L 367.871956 54.703572 
L 368.074617 54.934277 
L 368.277279 54.421599 
L 368.47994 53.652582 
L 368.783932 54.29343 
L 368.885263 54.16526 
L 368.986593 54.780474 
L 369.087924 54.267796 
L 369.189255 54.29343 
L 369.290585 54.29343 
L 369.594577 55.80583 
L 369.695908 56.113437 
L 369.797238 55.523857 
L 369.898569 55.857098 
L 369.9999 54.831742 
L 370.10123 55.164982 
L 370.303892 53.370609 
L 370.506553 52.9861 
L 370.709214 52.06328 
L 371.013206 48.500167 
L 371.519859 35.631945 
L 371.722521 38.759282 
L 371.925182 36.298427 
L 372.026513 35.837016 
L 372.127843 34.478419 
L 372.330505 35.247436 
L 372.735827 37.63139 
L 372.837158 37.221247 
L 372.938488 37.605756 
L 373.14115 36.964908 
L 373.24248 36.657301 
L 373.445142 37.144346 
L 373.647803 38.554211 
L 373.749134 38.451675 
L 374.255787 43.552822 
L 374.76244 47.628614 
L 374.863771 47.628614 
L 374.965101 48.628336 
L 375.066432 47.859319 
L 375.370424 44.142402 
L 375.471755 44.424375 
L 375.674416 46.42382 
L 376.079738 54.370331 
L 376.485061 67.136017 
L 376.991714 76.261688 
L 377.295706 81.747344 
L 377.802359 84.362003 
L 378.005021 82.823968 
L 378.207682 82.490728 
L 378.410343 82.670165 
L 378.511674 82.747067 
L 378.815666 82.080585 
L 378.916997 81.926782 
L 379.727642 74.416047 
L 379.828972 74.621118 
L 379.930303 75.492671 
L 381.04494 60.035425 
L 381.146271 60.676272 
L 381.348932 58.369221 
L 381.551593 59.138238 
L 381.652924 59.266408 
L 381.855585 60.163594 
L 381.956916 60.343032 
L 382.058247 59.881621 
L 382.463569 54.908643 
L 382.5649 54.883009 
L 382.66623 54.575403 
L 382.868892 53.088636 
L 382.970222 53.370609 
L 383.071553 53.088636 
L 383.274214 53.268073 
L 383.375545 53.601314 
L 383.476876 53.344975 
L 383.882198 54.652304 
L 384.084859 54.344697 
L 384.18619 54.498501 
L 384.287521 55.088081 
L 384.794174 53.934555 
L 385.098166 49.70496 
L 385.300827 48.833407 
L 385.604819 45.449732 
L 385.80748 40.117879 
L 386.111472 31.581788 
L 386.314134 34.760392 
L 386.516795 32.58151 
L 386.820787 31.248547 
L 387.32744 33.247992 
L 387.428771 33.17109 
L 387.530101 33.427429 
L 387.732763 33.196724 
L 387.935424 33.324893 
L 388.036755 33.145456 
L 388.239416 33.555599 
L 388.543408 37.657024 
L 389.050061 40.758727 
L 389.556714 43.527189 
L 389.658045 43.552822 
L 389.962037 40.32295 
L 390.063368 40.733093 
L 390.266029 43.962965 
L 391.380666 68.59715 
L 391.583327 74.159708 
L 391.887319 80.029872 
L 392.08998 81.234666 
L 392.393972 82.567629 
L 392.495303 82.516361 
L 392.596634 82.285656 
L 392.697964 82.721433 
L 392.900626 84.362003 
L 393.001956 84.567074 
L 393.103287 84.387637 
L 394.217924 76.697465 
L 394.521916 72.92928 
L 394.724577 72.032093 
L 395.028569 68.161373 
L 395.1299 69.443069 
L 395.332561 67.033481 
L 395.433892 66.725875 
L 395.737884 63.290931 
L 396.041876 61.496558 
L 396.244537 60.445567 
L 396.447198 59.80472 
L 396.548529 60.394299 
L 396.75119 59.21514 
L 396.953851 58.599926 
L 397.055182 58.523024 
L 397.156513 58.779363 
L 397.257843 58.651194 
L 397.663166 56.344142 
L 397.764497 56.497946 
L 397.967158 55.959634 
L 398.068489 56.062169 
L 398.169819 55.857098 
L 398.27115 56.497946 
L 398.473811 55.754562 
L 398.575142 55.472589 
L 398.676472 55.882732 
L 398.777803 55.857098 
L 398.879134 55.780196 
L 399.183126 54.652304 
L 399.487118 52.832297 
L 399.689779 52.345253 
L 399.993771 50.217638 
L 400.297763 44.270572 
L 400.601755 34.786026 
L 400.703085 35.27307 
L 400.804416 37.477586 
L 400.905747 37.298149 
L 401.108408 36.298427 
L 401.4124 34.965463 
L 401.615061 35.888284 
L 401.716392 35.580677 
L 401.919053 37.169979 
L 402.121714 35.631945 
L 402.223045 35.760115 
L 402.324376 35.785749 
L 402.527037 36.067721 
L 402.628368 36.247159 
L 402.93236 37.862095 
L 403.236352 40.835628 
L 403.439013 42.219859 
L 403.844335 45.577901 
L 404.148327 46.833963 
L 404.350989 45.706071 
L 404.452319 48.397631 
L 404.654981 47.090302 
L 405.060303 51.499334 
L 405.262964 55.34442 
L 405.566956 63.906145 
L 405.870948 69.596872 
L 406.07361 73.749565 
L 406.377602 81.567907 
L 406.580263 83.080307 
L 406.782924 84.464538 
L 406.884255 84.413271 
L 406.985585 85.59243 
L 407.289577 84.874681 
L 407.593569 84.08003 
L 407.897561 84.438905 
L 407.998892 84.182565 
L 408.100223 84.387637 
L 408.910868 80.158042 
L 409.31619 76.21042 
L 410.430827 64.213752 
L 410.734819 63.701074 
L 410.83615 63.419101 
L 410.937481 62.393744 
L 411.038811 62.521914 
L 411.646795 58.958801 
L 411.748126 59.317675 
L 411.950787 58.446123 
L 412.153448 60.932612 
L 412.35611 60.13796 
L 412.558771 57.984712 
L 412.761432 58.523024 
L 412.862763 57.625838 
L 412.964094 58.16415 
L 413.166755 57.805275 
L 413.268085 58.087248 
L 413.470747 57.933444 
L 413.572077 58.087248 
L 413.876069 56.318508 
L 413.9774 56.344142 
L 414.078731 55.780196 
L 414.180061 55.80583 
L 414.585384 53.473145 
L 414.990706 45.013955 
L 415.294698 38.656746 
L 415.396029 42.168591 
L 415.902682 36.811105 
L 416.004013 35.657579 
L 416.105344 35.99082 
L 416.308005 35.349972 
L 416.510666 35.760115 
L 416.611997 35.375606 
L 416.713327 35.631945 
L 416.915989 33.811938 
L 417.11865 34.709124 
L 417.422642 36.836739 
L 417.827965 40.246048 
L 418.131956 43.168314 
L 418.841271 50.75595 
L 419.145263 54.088358 
L 419.347924 55.421321 
L 420.2599 65.649251 
L 420.665223 71.827022 
L 420.969215 80.08114 
L 421.475868 84.387637 
L 421.678529 84.285101 
L 421.88119 82.593263 
L 422.083852 80.286212 
L 422.387844 79.004516 
L 422.489174 79.414659 
L 422.590505 78.799445 
L 422.793166 75.800278 
L 422.894497 75.364501 
L 422.995827 75.518305 
L 423.097158 75.364501 
L 423.299819 77.158875 
L 423.502481 74.826189 
L 423.603811 77.081973 
L 423.806473 74.903091 
L 423.907803 74.313511 
L 424.009134 74.390413 
L 424.211795 73.800833 
L 424.819779 71.775754 
L 424.92111 71.827022 
L 425.427763 69.77631 
L 425.833086 68.033204 
L 425.934416 68.058838 
L 426.035747 67.930668 
L 426.137077 67.981936 
L 426.441069 69.18673 
L 426.5424 69.571238 
L 426.643731 68.110106 
L 426.846392 71.032371 
L 427.353045 73.467592 
L 427.454376 73.377874 
L 427.555706 73.493226 
L 427.657037 73.929003 
L 427.758368 73.698297 
L 427.859698 77.607468 
L 428.06236 76.441125 
L 428.16369 76.492393 
L 428.265021 76.697465 
L 428.366352 76.582112 
L 428.467682 78.017611 
L 428.771674 74.928725 
L 428.974336 75.556756 
L 429.075666 75.505488 
L 429.176997 75.364501 
L 429.379658 75.889996 
L 429.480989 75.543939 
L 429.784981 70.69913 
L 430.190303 56.574847 
L 430.392965 55.972451 
L 430.696957 55.664844 
L 430.899618 55.04963 
L 431.102279 54.370331 
L 431.406271 53.332158 
L 431.507602 53.063002 
L 431.710263 52.140181 
L 431.912924 54.511318 
L 432.216916 57.125976 
L 432.419577 59.176689 
L 432.622239 61.61191 
L 432.926231 66.200379 
L 433.635545 74.249426 
L 433.838207 75.58239 
L 434.040868 77.479299 
L 434.142198 77.466482 
L 434.34486 78.453387 
L 434.44619 78.004794 
L 434.547521 78.312401 
L 434.952844 80.96551 
L 435.054174 81.055229 
L 435.256836 82.862419 
L 435.662158 90.629493 
L 435.864819 91.513863 
L 436.168811 91.142171 
L 436.270142 91.116537 
L 436.472803 91.154988 
L 436.574134 91.001185 
L 436.675465 90.321886 
L 436.776795 90.603859 
L 437.080787 88.758218 
L 437.182118 88.886387 
L 437.48611 88.155821 
L 437.891432 84.951583 
L 437.992763 83.605803 
L 438.094094 83.874959 
L 438.398086 81.38847 
L 438.702078 78.350852 
L 438.803408 77.645919 
L 439.006069 75.736193 
L 439.614053 71.442514 
L 439.715384 71.006737 
L 439.816715 71.096456 
L 440.62736 68.340811 
L 440.72869 68.853489 
L 440.830021 68.725319 
L 441.235344 67.584611 
L 441.438005 67.981936 
L 441.539336 67.994753 
L 441.741997 68.776587 
L 441.843328 68.853489 
L 442.045989 69.545604 
L 442.653973 71.545049 
L 442.755303 71.083639 
L 442.957965 72.224348 
L 443.059295 72.480687 
L 443.160626 72.403785 
L 443.363287 73.121534 
L 443.464618 73.185619 
L 443.565949 73.441958 
L 443.76861 73.172802 
L 443.971271 72.839561 
L 444.072602 72.980548 
L 444.275263 69.148279 
L 444.477924 62.560365 
L 444.680586 53.716667 
L 444.781916 52.652859 
L 444.883247 52.665676 
L 445.288569 51.422432 
L 445.491231 51.076374 
L 445.592561 51.17891 
L 445.693892 50.973839 
L 445.896553 49.70496 
L 446.099215 48.307912 
L 446.200545 48.410448 
L 446.504537 51.268629 
L 447.416513 62.457829 
L 447.821836 67.892217 
L 447.923166 68.071655 
L 448.227158 70.686313 
L 448.53115 73.108718 
L 448.632481 73.300972 
L 448.936473 74.595484 
L 449.037803 73.762382 
L 449.443126 76.248871 
L 449.747118 78.004794 
L 450.456432 89.00174 
L 450.659094 90.168083 
L 450.760424 90.450056 
L 450.861755 90.385971 
L 451.267078 87.989201 
L 451.368408 87.181733 
L 451.469739 87.386804 
L 451.6724 86.169193 
L 452.077723 81.196215 
L 452.584376 75.74901 
L 453.29369 68.263909 
L 453.395021 68.148556 
L 453.901674 63.406284 
L 454.003005 62.534731 
L 454.104336 62.560365 
L 454.306997 60.868527 
L 454.408328 60.894161 
L 454.509658 60.778808 
L 454.610989 60.971062 
L 454.81365 60.586554 
L 455.016311 59.766269 
L 455.117642 59.638099 
L 455.320303 59.317675 
L 455.421634 59.458662 
L 455.522965 59.035702 
L 455.826957 59.984157 
L 456.33361 62.111771 
L 456.434941 62.086137 
L 456.738932 62.598816 
L 456.840263 62.624449 
L 457.144255 63.995863 
L 457.245586 63.726707 
L 457.346916 63.931779 
L 457.650908 65.392911 
L 457.85357 65.367278 
L 458.056231 66.687424 
L 458.461553 64.175301 
L 458.562884 64.085582 
L 458.765545 62.573182 
L 458.968207 58.382038 
L 459.373529 43.693809 
L 459.47486 43.962965 
L 459.576191 43.834795 
L 459.677521 43.475921 
L 459.778852 43.962965 
L 460.082844 43.668175 
L 460.285505 44.821701 
L 460.386836 44.693531 
L 460.690828 46.564807 
L 460.792158 46.692976 
L 460.99482 47.974671 
L 461.298812 50.935388 
L 461.805465 58.074431 
L 462.008126 61.099232 
L 462.514779 68.071655 
L 463.325424 72.826745 
L 463.426755 73.172802 
L 463.528086 73.095901 
L 463.629416 72.519138 
L 463.933408 74.557033 
L 464.13607 76.030983 
L 464.2374 75.954081 
L 464.440062 78.73536 
L 464.845384 85.656515 
L 465.149376 87.412438 
L 465.250707 87.36117 
L 465.352037 87.489339 
L 465.453368 87.912299 
L 465.554699 87.540607 
L 465.656029 87.720045 
L 465.858691 86.758773 
L 466.162683 84.656793 
L 466.264013 84.823413 
L 466.365344 84.720878 
L 466.466674 83.810874 
L 466.568005 81.84988 
L 466.669336 85.900037 
L 466.770666 85.59243 
L 466.973328 83.977494 
L 467.175989 82.157487 
L 467.37865 80.260578 
L 467.479981 83.208477 
L 467.783973 77.799723 
L 468.695949 69.084194 
L 468.89861 62.36811 
L 468.999941 62.880789 
L 469.202602 62.163039 
L 469.709255 59.138238 
L 469.911916 59.663733 
L 470.114578 59.420211 
L 470.215908 59.663733 
L 470.41857 59.08697 
L 470.5199 59.010069 
L 470.621231 59.125421 
L 470.823892 57.677105 
L 471.026553 58.92035 
L 471.330545 59.522747 
L 471.634537 60.56092 
L 471.735868 59.817537 
L 472.03986 60.778808 
L 472.242521 60.842893 
L 472.445183 60.112327 
L 472.546513 60.637822 
L 472.647844 65.200657 
L 472.850505 64.213752 
L 472.951836 64.047131 
L 473.255828 62.816704 
L 473.55982 56.767102 
L 473.863812 44.78325 
L 474.066473 42.822256 
L 474.269134 41.912252 
L 474.573126 41.873801 
L 474.674457 42.001971 
L 475.383771 45.206209 
L 475.991755 52.704127 
L 476.70107 64.252203 
L 477.106392 68.110106 
L 477.410384 70.891385 
L 477.917037 73.81365 
L 478.119699 74.774921 
L 478.221029 73.941819 
L 478.32236 74.134074 
L 478.626352 76.851268 
L 478.829013 77.748455 
L 478.930344 77.966343 
L 479.234336 84.182565 
L 479.436997 87.553424 
L 479.538328 88.027652 
L 479.639658 87.912299 
L 479.94365 88.847937 
L 480.146312 88.796669 
L 480.247642 88.386526 
L 480.754295 84.682427 
L 480.956957 83.772423 
L 481.159618 81.708893 
L 481.46361 78.402119 
L 481.868933 75.185064 
L 482.679578 67.597427 
L 483.0849 64.457274 
L 483.186231 63.419101 
L 483.287562 63.777975 
L 483.388892 62.521914 
L 483.692884 63.137128 
L 483.996876 62.6629 
L 484.098207 62.752619 
L 484.199537 63.406284 
L 484.503529 60.778808 
L 484.60486 60.573737 
L 484.807521 60.778808 
L 484.908852 60.72754 
L 485.111513 61.752897 
L 485.212844 61.663178 
L 485.314175 61.227401 
L 485.516836 62.188673 
L 485.618166 62.060503 
L 485.719497 62.560365 
L 485.820828 62.470646 
L 486.023489 62.739802 
L 486.12482 62.714168 
L 486.327481 63.636989 
L 486.530142 63.393467 
L 486.631473 63.431918 
L 486.834134 64.59826 
L 487.036796 64.149667 
L 487.239457 64.790515 
L 487.442118 64.687979 
L 487.644779 63.97023 
L 487.74611 64.162484 
L 487.948771 62.239941 
L 488.151433 57.074709 
L 488.455425 44.796067 
L 488.658086 42.219859 
L 488.759416 42.514649 
L 488.962078 41.258588 
L 489.26607 42.219859 
L 489.570062 42.399297 
L 489.772723 44.065501 
L 489.874054 44.385924 
L 490.786029 55.536674 
L 490.786029 55.536674 
" clip-path="url(#p91633e93ed)" style="fill: none; stroke: #4e9a73; stroke-width: 1.2; stroke-linecap: square"/>
   </g>
   <g id="patch_3">
    <path d="M 38.7625 90.439375 
L 38.7625 29.959375 
" style="fill: none; stroke: #cccccc; stroke-width: 0.75; stroke-linejoin: miter; stroke-linecap: square"/>
   </g>
   <g id="patch_4">
    <path d="M 53.138971 105.439375 
L 490.88736 105.439375 
" style="fill: none; stroke: #cccccc; stroke-width: 0.75; stroke-linejoin: miter; stroke-linecap: square"/>
   </g>
   <g id="text_13">
    <!-- June -->
    <g style="fill: #505050" transform="translate(48.7625 14.959375) scale(0.1 -0.1)">
     <defs>
      <path id="Ubuntu-Bold-4a" d="M 2938 1491 
Q 2938 1165 2864 877 
Q 2790 589 2608 374 
Q 2426 160 2115 35 
Q 1805 -90 1331 -90 
Q 896 -90 582 16 
Q 269 122 64 262 
L 397 1037 
Q 582 928 793 845 
Q 1005 762 1254 762 
Q 1619 762 1779 941 
Q 1939 1120 1939 1542 
L 1939 4435 
L 2938 4435 
L 2938 1491 
z
" transform="scale(0.015625)"/>
      <path id="Ubuntu-Bold-75" d="M 3322 115 
Q 3078 45 2694 -16 
Q 2310 -77 1888 -77 
Q 1459 -77 1174 38 
Q 890 154 723 362 
Q 557 570 486 858 
Q 416 1146 416 1491 
L 416 3366 
L 1370 3366 
L 1370 1606 
Q 1370 1146 1491 941 
Q 1613 736 1946 736 
Q 2048 736 2163 745 
Q 2278 755 2368 768 
L 2368 3366 
L 3322 3366 
L 3322 115 
z
" transform="scale(0.015625)"/>
      <path id="Ubuntu-Bold-6e" d="M 448 3251 
Q 691 3322 1075 3382 
Q 1459 3443 1882 3443 
Q 2310 3443 2595 3331 
Q 2880 3219 3046 3014 
Q 3213 2810 3283 2528 
Q 3354 2246 3354 1901 
L 3354 0 
L 2400 0 
L 2400 1786 
Q 2400 2246 2278 2438 
Q 2157 2630 1824 2630 
Q 1722 2630 1606 2620 
Q 1491 2611 1402 2598 
L 1402 0 
L 448 0 
L 448 3251 
z
" transform="scale(0.015625)"/>
      <path id="Ubuntu-Bold-65" d="M 288 1658 
Q 288 2106 425 2442 
Q 563 2778 787 3002 
Q 1011 3226 1302 3341 
Q 1594 3456 1901 3456 
Q 2618 3456 3034 3017 
Q 3450 2579 3450 1728 
Q 3450 1645 3443 1545 
Q 3437 1446 3430 1370 
L 1267 1370 
Q 1299 1075 1542 902 
Q 1786 730 2195 730 
Q 2458 730 2710 778 
Q 2963 826 3123 896 
L 3251 122 
Q 3174 83 3046 44 
Q 2918 6 2761 -22 
Q 2605 -51 2425 -70 
Q 2246 -90 2067 -90 
Q 1613 -90 1277 44 
Q 941 179 720 412 
Q 499 646 393 966 
Q 288 1286 288 1658 
z
M 2528 2022 
Q 2522 2144 2486 2259 
Q 2451 2374 2377 2464 
Q 2304 2554 2192 2611 
Q 2080 2669 1914 2669 
Q 1754 2669 1638 2614 
Q 1523 2560 1446 2470 
Q 1370 2381 1328 2262 
Q 1286 2144 1267 2022 
L 2528 2022 
z
" transform="scale(0.015625)"/>
     </defs>
     <use xlink:href="#Ubuntu-Bold-4a"/>
     <use xlink:href="#Ubuntu-Bold-75" x="52.899994"/>
     <use xlink:href="#Ubuntu-Bold-6e" x="111.799988"/>
     <use xlink:href="#Ubuntu-Bold-65" x="170.699982"/>
    </g>
   </g>
  </g>
  <g id="axes_2">
   <g id="patch_5">
    <path d="M 48.7625 196.279375 
L 495.1625 196.279375 
L 495.1625 135.799375 
L 48.7625 135.799375 
L 48.7625 196.279375 
z
" style="fill: none"/>
   </g>
   <g id="matplotlib.axis_3">
    <g id="xtick_10">
     <g id="text_14">
      <!-- Sunday -->
      <g style="fill: #808080" transform="translate(83.683039 227.262812) scale(0.09 -0.09)">
       <defs>
        <path id="Ubuntu-53" d="M 1581 442 
Q 2554 442 2554 1107 
Q 2554 1312 2467 1456 
Q 2381 1600 2233 1705 
Q 2086 1811 1897 1888 
Q 1709 1965 1498 2042 
Q 1254 2125 1036 2230 
Q 819 2336 659 2480 
Q 499 2624 406 2822 
Q 314 3021 314 3302 
Q 314 3885 710 4211 
Q 1107 4538 1805 4538 
Q 2208 4538 2537 4451 
Q 2867 4365 3021 4262 
L 2822 3757 
Q 2688 3840 2422 3920 
Q 2157 4000 1805 4000 
Q 1626 4000 1472 3961 
Q 1318 3923 1203 3846 
Q 1088 3770 1021 3651 
Q 954 3533 954 3373 
Q 954 3194 1024 3072 
Q 1094 2950 1222 2857 
Q 1350 2765 1520 2688 
Q 1690 2611 1894 2534 
Q 2182 2419 2422 2304 
Q 2662 2189 2838 2029 
Q 3014 1869 3110 1648 
Q 3206 1427 3206 1114 
Q 3206 531 2780 217 
Q 2355 -96 1581 -96 
Q 1318 -96 1097 -61 
Q 877 -26 704 22 
Q 531 70 406 124 
Q 282 179 211 218 
L 397 730 
Q 544 646 845 544 
Q 1146 442 1581 442 
z
" transform="scale(0.015625)"/>
        <path id="Ubuntu-75" d="M 3162 96 
Q 2957 45 2621 -12 
Q 2285 -70 1843 -70 
Q 1459 -70 1196 42 
Q 934 154 774 358 
Q 614 563 544 841 
Q 474 1120 474 1459 
L 474 3328 
L 1069 3328 
L 1069 1587 
Q 1069 979 1261 716 
Q 1453 454 1907 454 
Q 2003 454 2105 460 
Q 2208 467 2297 476 
Q 2387 486 2460 496 
Q 2534 506 2566 518 
L 2566 3328 
L 3162 3328 
L 3162 96 
z
" transform="scale(0.015625)"/>
        <path id="Ubuntu-6e" d="M 512 3232 
Q 717 3283 1056 3340 
Q 1395 3398 1837 3398 
Q 2234 3398 2496 3286 
Q 2758 3174 2915 2972 
Q 3072 2771 3136 2489 
Q 3200 2208 3200 1869 
L 3200 0 
L 2605 0 
L 2605 1741 
Q 2605 2048 2563 2265 
Q 2522 2483 2426 2617 
Q 2330 2752 2170 2813 
Q 2010 2874 1773 2874 
Q 1677 2874 1574 2867 
Q 1472 2861 1379 2851 
Q 1286 2842 1212 2829 
Q 1139 2816 1107 2810 
L 1107 0 
L 512 0 
L 512 3232 
z
" transform="scale(0.015625)"/>
        <path id="Ubuntu-64" d="M 2662 2624 
Q 2554 2714 2349 2797 
Q 2144 2880 1901 2880 
Q 1645 2880 1462 2787 
Q 1280 2694 1165 2531 
Q 1050 2368 998 2144 
Q 947 1920 947 1664 
Q 947 1082 1235 765 
Q 1523 448 2003 448 
Q 2246 448 2409 470 
Q 2573 493 2662 518 
L 2662 2624 
z
M 2662 4864 
L 3258 4966 
L 3258 96 
Q 3053 38 2733 -19 
Q 2413 -77 1997 -77 
Q 1613 -77 1305 44 
Q 998 166 780 390 
Q 563 614 444 937 
Q 326 1261 326 1664 
Q 326 2048 425 2368 
Q 525 2688 717 2918 
Q 909 3149 1187 3277 
Q 1466 3405 1824 3405 
Q 2112 3405 2333 3328 
Q 2554 3251 2662 3181 
L 2662 4864 
z
" transform="scale(0.015625)"/>
        <path id="Ubuntu-61" d="M 1638 429 
Q 1850 429 2013 438 
Q 2176 448 2285 474 
L 2285 1466 
Q 2221 1498 2077 1520 
Q 1933 1542 1728 1542 
Q 1594 1542 1443 1523 
Q 1293 1504 1168 1443 
Q 1043 1382 960 1276 
Q 877 1171 877 998 
Q 877 678 1081 553 
Q 1286 429 1638 429 
z
M 1587 3411 
Q 1946 3411 2192 3318 
Q 2438 3226 2588 3056 
Q 2739 2886 2803 2652 
Q 2867 2419 2867 2138 
L 2867 58 
Q 2790 45 2652 22 
Q 2515 0 2342 -19 
Q 2170 -38 1968 -54 
Q 1766 -70 1568 -70 
Q 1286 -70 1049 -12 
Q 813 45 640 169 
Q 467 294 371 499 
Q 275 704 275 992 
Q 275 1267 387 1465 
Q 499 1664 691 1785 
Q 883 1907 1139 1964 
Q 1395 2022 1677 2022 
Q 1766 2022 1862 2012 
Q 1958 2003 2044 1987 
Q 2131 1971 2195 1958 
Q 2259 1946 2285 1939 
L 2285 2106 
Q 2285 2253 2253 2397 
Q 2221 2541 2137 2653 
Q 2054 2765 1910 2832 
Q 1766 2899 1536 2899 
Q 1242 2899 1021 2857 
Q 800 2816 691 2771 
L 621 3264 
Q 736 3315 1005 3363 
Q 1274 3411 1587 3411 
z
" transform="scale(0.015625)"/>
        <path id="Ubuntu-79" d="M 122 -621 
Q 192 -653 304 -681 
Q 416 -710 525 -710 
Q 877 -710 1075 -553 
Q 1274 -397 1434 -45 
Q 1030 723 681 1584 
Q 333 2445 102 3328 
L 742 3328 
Q 813 3040 912 2707 
Q 1011 2374 1132 2022 
Q 1254 1670 1395 1318 
Q 1536 966 1690 640 
Q 1933 1312 2112 1971 
Q 2291 2630 2451 3328 
L 3066 3328 
Q 2835 2387 2553 1520 
Q 2272 653 1946 -102 
Q 1818 -390 1680 -598 
Q 1542 -806 1376 -940 
Q 1210 -1075 1002 -1139 
Q 794 -1203 531 -1203 
Q 461 -1203 384 -1193 
Q 307 -1184 233 -1168 
Q 160 -1152 99 -1133 
Q 38 -1114 13 -1101 
L 122 -621 
z
" transform="scale(0.015625)"/>
       </defs>
       <use xlink:href="#Ubuntu-53"/>
       <use xlink:href="#Ubuntu-75" x="53.199997"/>
       <use xlink:href="#Ubuntu-6e" x="110.599991"/>
       <use xlink:href="#Ubuntu-64" x="167.999985"/>
       <use xlink:href="#Ubuntu-61" x="226.899979"/>
       <use xlink:href="#Ubuntu-79" x="277.599976"/>
      </g>
     </g>
    </g>
    <g id="xtick_11">
     <g id="text_15">
      <!-- Sunday -->
      <g style="fill: #808080" transform="translate(189.321984 227.262812) scale(0.09 -0.09)">
       <use xlink:href="#Ubuntu-53"/>
       <use xlink:href="#Ubuntu-75" x="53.199997"/>
       <use xlink:href="#Ubuntu-6e" x="110.599991"/>
       <use xlink:href="#Ubuntu-64" x="167.999985"/>
       <use xlink:href="#Ubuntu-61" x="226.899979"/>
       <use xlink:href="#Ubuntu-79" x="277.599976"/>
      </g>
     </g>
    </g>
    <g id="xtick_12">
     <g id="text_16">
      <!-- Sunday -->
      <g style="fill: #808080" transform="translate(294.960929 227.262812) scale(0.09 -0.09)">
       <use xlink:href="#Ubuntu-53"/>
       <use xlink:href="#Ubuntu-75" x="53.199997"/>
       <use xlink:href="#Ubuntu-6e" x="110.599991"/>
       <use xlink:href="#Ubuntu-64" x="167.999985"/>
       <use xlink:href="#Ubuntu-61" x="226.899979"/>
       <use xlink:href="#Ubuntu-79" x="277.599976"/>
      </g>
     </g>
    </g>
    <g id="xtick_13">
     <g id="text_17">
      <!-- Sunday -->
      <g style="fill: #808080" transform="translate(400.599874 227.262812) scale(0.09 -0.09)">
       <use xlink:href="#Ubuntu-53"/>
       <use xlink:href="#Ubuntu-75" x="53.199997"/>
       <use xlink:href="#Ubuntu-6e" x="110.599991"/>
       <use xlink:href="#Ubuntu-64" x="167.999985"/>
       <use xlink:href="#Ubuntu-61" x="226.899979"/>
       <use xlink:href="#Ubuntu-79" x="277.599976"/>
      </g>
     </g>
    </g>
   </g>
   <g id="matplotlib.axis_4">
    <g id="ytick_5">
     <g id="line2d_15">
      <g>
       <use xlink:href="#ma0f481a47d" x="38.7625" y="196.279375" style="fill: #cccccc; stroke: #cccccc; stroke-width: 0.75"/>
      </g>
     </g>
     <g id="text_18">
      <!-- 28000 -->
      <g style="fill: #808080" transform="translate(7.2 199.383125) scale(0.08 -0.08)">
       <defs>
        <path id="Ubuntu-38" d="M 3258 1152 
Q 3258 883 3165 656 
Q 3072 429 2889 259 
Q 2707 90 2432 -3 
Q 2157 -96 1798 -96 
Q 1382 -96 1104 22 
Q 826 141 659 320 
Q 493 499 422 713 
Q 352 928 352 1120 
Q 352 1306 413 1475 
Q 474 1645 573 1792 
Q 672 1939 803 2057 
Q 934 2176 1082 2266 
Q 454 2624 454 3322 
Q 454 3565 550 3785 
Q 646 4006 822 4172 
Q 998 4339 1248 4438 
Q 1498 4538 1805 4538 
Q 2163 4538 2419 4429 
Q 2675 4320 2838 4150 
Q 3002 3981 3075 3776 
Q 3149 3571 3149 3379 
Q 3149 3194 3094 3030 
Q 3040 2867 2947 2726 
Q 2854 2586 2736 2477 
Q 2618 2368 2490 2285 
Q 3245 1926 3258 1152 
z
M 954 1114 
Q 954 998 995 873 
Q 1037 749 1139 643 
Q 1242 538 1402 467 
Q 1562 397 1805 397 
Q 2022 397 2185 461 
Q 2349 525 2451 624 
Q 2554 723 2605 851 
Q 2656 979 2656 1114 
Q 2656 1318 2579 1472 
Q 2502 1626 2358 1741 
Q 2214 1856 2012 1936 
Q 1811 2016 1555 2074 
Q 1267 1914 1110 1677 
Q 954 1440 954 1114 
z
M 2554 3386 
Q 2554 3482 2512 3597 
Q 2470 3712 2380 3811 
Q 2291 3910 2150 3977 
Q 2010 4045 1805 4045 
Q 1600 4045 1456 3981 
Q 1312 3917 1222 3817 
Q 1133 3718 1091 3600 
Q 1050 3482 1050 3366 
Q 1050 3226 1101 3085 
Q 1152 2944 1261 2822 
Q 1370 2701 1546 2605 
Q 1722 2509 1965 2451 
Q 2234 2611 2394 2825 
Q 2554 3040 2554 3386 
z
" transform="scale(0.015625)"/>
       </defs>
       <use xlink:href="#Ubuntu-32"/>
       <use xlink:href="#Ubuntu-38" x="56.399994"/>
       <use xlink:href="#Ubuntu-30" x="112.799988"/>
       <use xlink:href="#Ubuntu-30" x="169.199982"/>
       <use xlink:href="#Ubuntu-30" x="225.599976"/>
      </g>
     </g>
    </g>
    <g id="ytick_6">
     <g id="line2d_16">
      <g>
       <use xlink:href="#ma0f481a47d" x="38.7625" y="176.119375" style="fill: #cccccc; stroke: #cccccc; stroke-width: 0.75"/>
      </g>
     </g>
     <g id="text_19">
      <!-- 32000 -->
      <g style="fill: #808080" transform="translate(7.2 179.223125) scale(0.08 -0.08)">
       <use xlink:href="#Ubuntu-33"/>
       <use xlink:href="#Ubuntu-32" x="56.399994"/>
       <use xlink:href="#Ubuntu-30" x="112.799988"/>
       <use xlink:href="#Ubuntu-30" x="169.199982"/>
       <use xlink:href="#Ubuntu-30" x="225.599976"/>
      </g>
     </g>
    </g>
    <g id="ytick_7">
     <g id="line2d_17">
      <g>
       <use xlink:href="#ma0f481a47d" x="38.7625" y="155.959375" style="fill: #cccccc; stroke: #cccccc; stroke-width: 0.75"/>
      </g>
     </g>
     <g id="text_20">
      <!-- 36000 -->
      <g style="fill: #808080" transform="translate(7.2 159.063125) scale(0.08 -0.08)">
       <defs>
        <path id="Ubuntu-36" d="M 403 1779 
Q 403 2426 582 2922 
Q 762 3418 1091 3757 
Q 1421 4096 1891 4272 
Q 2362 4448 2950 4454 
L 2995 3955 
Q 2618 3949 2307 3872 
Q 1997 3795 1753 3628 
Q 1510 3462 1344 3196 
Q 1178 2931 1094 2541 
Q 1261 2618 1469 2669 
Q 1677 2720 1901 2720 
Q 2278 2720 2540 2605 
Q 2803 2490 2969 2301 
Q 3136 2112 3209 1865 
Q 3283 1619 3283 1350 
Q 3283 1107 3200 851 
Q 3117 595 2947 384 
Q 2778 173 2515 38 
Q 2253 -96 1894 -96 
Q 1165 -96 784 403 
Q 403 902 403 1779 
z
M 1837 2234 
Q 1613 2234 1421 2192 
Q 1229 2150 1037 2067 
Q 1030 1997 1027 1923 
Q 1024 1850 1024 1779 
Q 1024 1498 1062 1248 
Q 1101 998 1200 809 
Q 1299 621 1465 509 
Q 1632 397 1888 397 
Q 2099 397 2246 486 
Q 2394 576 2490 717 
Q 2586 858 2627 1021 
Q 2669 1184 2669 1338 
Q 2669 1773 2461 2003 
Q 2253 2234 1837 2234 
z
" transform="scale(0.015625)"/>
       </defs>
       <use xlink:href="#Ubuntu-33"/>
       <use xlink:href="#Ubuntu-36" x="56.399994"/>
       <use xlink:href="#Ubuntu-30" x="112.799988"/>
       <use xlink:href="#Ubuntu-30" x="169.199982"/>
       <use xlink:href="#Ubuntu-30" x="225.599976"/>
      </g>
     </g>
    </g>
    <g id="ytick_8">
     <g id="line2d_18">
      <g>
       <use xlink:href="#ma0f481a47d" x="38.7625" y="135.799375" style="fill: #cccccc; stroke: #cccccc; stroke-width: 0.75"/>
      </g>
     </g>
     <g id="text_21">
      <!-- 40000 -->
      <g style="fill: #808080" transform="translate(7.2 138.903125) scale(0.08 -0.08)">
       <use xlink:href="#Ubuntu-34"/>
       <use xlink:href="#Ubuntu-30" x="56.399994"/>
       <use xlink:href="#Ubuntu-30" x="112.799988"/>
       <use xlink:href="#Ubuntu-30" x="169.199982"/>
       <use xlink:href="#Ubuntu-30" x="225.599976"/>
      </g>
     </g>
    </g>
   </g>
   <g id="PolyCollection_1">
    <defs>
     <path id="mc229c46b83" d="M 53.138971 -77.82274 
L 53.138971 -66.24625 
L 68.230248 -68.845466 
L 83.321526 -74.255822 
L 98.412804 -55.165103 
L 113.504082 -66.817428 
L 128.59536 -65.639937 
L 143.686638 -66.140499 
L 158.777916 -69.223677 
L 173.869194 -69.396817 
L 188.960472 -72.158837 
L 204.051749 -59.384685 
L 219.143027 -71.848705 
L 234.234305 -70.995643 
L 249.325583 -69.305786 
L 264.416861 -71.699997 
L 279.508139 -71.522184 
L 294.599417 -70.815004 
L 309.690695 -63.140553 
L 324.781973 -76.009331 
L 339.873251 -79.579865 
L 354.964528 -81.681044 
L 370.055806 -77.444551 
L 385.147084 -78.459805 
L 400.238362 -77.207315 
L 415.32964 -70.990325 
L 430.420918 -52.053042 
L 445.512196 -40.553153 
L 460.603474 -54.770793 
L 475.694752 -55.54628 
L 490.786029 -56.137523 
L 490.786029 -65.946965 
L 490.786029 -65.946965 
L 475.694752 -66.400342 
L 460.603474 -65.480759 
L 445.512196 -50.071822 
L 430.420918 -61.097072 
L 415.32964 -83.961894 
L 400.238362 -90.01667 
L 385.147084 -91.622082 
L 370.055806 -89.735899 
L 354.964528 -92.367479 
L 339.873251 -90.86991 
L 324.781973 -87.75944 
L 309.690695 -75.582566 
L 294.599417 -82.37662 
L 279.508139 -82.922842 
L 264.416861 -83.626662 
L 249.325583 -81.691869 
L 234.234305 -81.752071 
L 219.143027 -83.872854 
L 204.051749 -71.539151 
L 188.960472 -83.413803 
L 173.869194 -80.455745 
L 158.777916 -80.450628 
L 143.686638 -77.605898 
L 128.59536 -77.78854 
L 113.504082 -77.883888 
L 98.412804 -67.222441 
L 83.321526 -86.077159 
L 68.230248 -80.324883 
L 53.138971 -77.82274 
z
" style="stroke: #4e9a73; stroke-opacity: 0.2"/>
    </defs>
    <g clip-path="url(#pa5c9bd5d5f)">
     <use xlink:href="#mc229c46b83" x="0" y="236.154531" style="fill: #4e9a73; fill-opacity: 0.2; stroke: #4e9a73; stroke-opacity: 0.2"/>
    </g>
   </g>
   <g id="line2d_19">
    <path d="M 53.138971 164.272594 
L 68.230248 161.473335 
L 83.321526 156.083539 
L 98.412804 174.936477 
L 113.504082 163.771041 
L 128.59536 164.62773 
L 143.686638 164.36338 
L 158.777916 161.578363 
L 173.869194 161.495142 
L 188.960472 158.208127 
L 204.051749 170.594734 
L 219.143027 158.347423 
L 234.234305 159.484037 
L 249.325583 160.46044 
L 264.416861 158.313155 
L 279.508139 159.031884 
L 294.599417 159.306024 
L 309.690695 166.669987 
L 324.781973 154.402204 
L 339.873251 150.759163 
L 354.964528 149.248721 
L 370.055806 152.73778 
L 385.147084 151.26027 
L 400.238362 152.707073 
L 415.32964 158.723031 
L 430.420918 179.689431 
L 445.512196 190.716906 
L 460.603474 175.703714 
L 475.694752 175.373054 
L 490.786029 175.284715 
" clip-path="url(#pa5c9bd5d5f)" style="fill: none; stroke: #4e9a73; stroke-width: 1.2; stroke-linecap: square"/>
   </g>
   <g id="patch_6">
    <path d="M 38.7625 196.279375 
L 38.7625 135.799375 
" style="fill: none; stroke: #cccccc; stroke-width: 0.75; stroke-linejoin: miter; stroke-linecap: square"/>
   </g>
  </g>
 </g>
 <defs>
  <clipPath id="p91633e93ed">
   <rect x="48.7625" y="29.959375" width="446.4" height="60.48"/>
  </clipPath>
  <clipPath id="pa5c9bd5d5f">
   <rect x="48.7625" y="135.799375" width="446.4" height="60.48"/>
  </clipPath>
 </defs>
</svg>
