<?xml version="1.0" encoding="utf-8" standalone="no"?>
<!DOCTYPE svg PUBLIC "-//W3C//DTD SVG 1.1//EN"
  "http://www.w3.org/Graphics/SVG/1.1/DTD/svg11.dtd">
<svg xmlns:xlink="http://www.w3.org/1999/xlink" width="502.3625pt" height="236.154531pt" viewBox="0 0 502.3625 236.154531" xmlns="http://www.w3.org/2000/svg" version="1.1">
 <metadata>
  <rdf:RDF xmlns:dc="http://purl.org/dc/elements/1.1/" xmlns:cc="http://creativecommons.org/ns#" xmlns:rdf="http://www.w3.org/1999/02/22-rdf-syntax-ns#">
   <cc:Work>
    <dc:type rdf:resource="http://purl.org/dc/dcmitype/StillImage"/>
    <dc:date>2024-04-25T10:15:32.801378</dc:date>
    <dc:format>image/svg+xml</dc:format>
    <dc:creator>
     <cc:Agent>
      <dc:title>Matplotlib v3.8.3, https://matplotlib.org/</dc:title>
     </cc:Agent>
    </dc:creator>
   </cc:Work>
  </rdf:RDF>
 </metadata>
 <defs>
  <style type="text/css">*{stroke-linejoin: round; stroke-linecap: butt}</style>
 </defs>
 <g id="figure_1">
  <g id="patch_1">
   <path d="M 0 236.154531 
L 502.3625 236.154531 
L 502.3625 0 
L 0 0 
L 0 236.154531 
z
" style="fill: none"/>
  </g>
  <g id="axes_1">
   <g id="patch_2">
    <path d="M 48.7625 90.439375 
L 495.1625 90.439375 
L 495.1625 29.959375 
L 48.7625 29.959375 
L 48.7625 90.439375 
z
" style="fill: none"/>
   </g>
   <g id="matplotlib.axis_1">
    <g id="xtick_1">
     <g id="line2d_1">
      <defs>
       <path id="m69b3788f07" d="M 0 0 
L 0 3 
" style="stroke: #cccccc; stroke-width: 0.75"/>
      </defs>
      <g>
       <use xlink:href="#m69b3788f07" x="53.138971" y="105.439375" style="fill: #cccccc; stroke: #cccccc; stroke-width: 0.75"/>
      </g>
     </g>
     <g id="text_1">
      <!-- 01 -->
      <g style="fill: #808080" transform="translate(48.626471 120.646875) scale(0.08 -0.08)">
       <defs>
        <path id="Ubuntu-30" d="M 320 2221 
Q 320 3334 713 3936 
Q 1107 4538 1805 4538 
Q 2502 4538 2896 3936 
Q 3290 3334 3290 2221 
Q 3290 1107 2896 505 
Q 2502 -96 1805 -96 
Q 1107 -96 713 505 
Q 320 1107 320 2221 
z
M 2662 2221 
Q 2662 2586 2620 2912 
Q 2579 3238 2480 3481 
Q 2381 3725 2214 3869 
Q 2048 4013 1805 4013 
Q 1562 4013 1395 3869 
Q 1229 3725 1129 3481 
Q 1030 3238 988 2912 
Q 947 2586 947 2221 
Q 947 1856 988 1529 
Q 1030 1203 1129 960 
Q 1229 717 1395 573 
Q 1562 429 1805 429 
Q 2048 429 2214 573 
Q 2381 717 2480 960 
Q 2579 1203 2620 1529 
Q 2662 1856 2662 2221 
z
" transform="scale(0.015625)"/>
        <path id="Ubuntu-31" d="M 595 3520 
Q 960 3661 1305 3881 
Q 1651 4102 1939 4435 
L 2362 4435 
L 2362 0 
L 1766 0 
L 1766 3610 
Q 1690 3539 1578 3462 
Q 1466 3386 1334 3315 
Q 1203 3245 1059 3181 
Q 915 3117 781 3072 
L 595 3520 
z
" transform="scale(0.015625)"/>
       </defs>
       <use xlink:href="#Ubuntu-30"/>
       <use xlink:href="#Ubuntu-31" x="56.399994"/>
      </g>
     </g>
    </g>
    <g id="xtick_2">
     <g id="line2d_2">
      <g>
       <use xlink:href="#m69b3788f07" x="109.622212" y="105.439375" style="fill: #cccccc; stroke: #cccccc; stroke-width: 0.75"/>
      </g>
     </g>
     <g id="text_2">
      <!-- 05 -->
      <g style="fill: #808080" transform="translate(105.109712 120.646875) scale(0.08 -0.08)">
       <defs>
        <path id="Ubuntu-35" d="M 1274 2726 
Q 2240 2688 2691 2304 
Q 3142 1920 3142 1261 
Q 3142 966 3043 716 
Q 2944 467 2742 288 
Q 2541 109 2233 6 
Q 1926 -96 1504 -96 
Q 1338 -96 1165 -70 
Q 992 -45 845 -6 
Q 698 32 582 70 
Q 467 109 416 134 
L 531 653 
Q 640 602 886 518 
Q 1133 435 1491 435 
Q 1779 435 1974 499 
Q 2170 563 2291 672 
Q 2413 781 2467 925 
Q 2522 1069 2522 1229 
Q 2522 1472 2438 1661 
Q 2355 1850 2144 1978 
Q 1933 2106 1581 2173 
Q 1229 2240 691 2240 
Q 730 2554 752 2829 
Q 774 3104 793 3366 
Q 813 3629 825 3888 
Q 838 4147 851 4435 
L 2989 4435 
L 2989 3930 
L 1370 3930 
Q 1363 3834 1350 3670 
Q 1338 3507 1325 3331 
Q 1312 3155 1299 2988 
Q 1286 2822 1274 2726 
z
" transform="scale(0.015625)"/>
       </defs>
       <use xlink:href="#Ubuntu-30"/>
       <use xlink:href="#Ubuntu-35" x="56.399994"/>
      </g>
     </g>
    </g>
    <g id="xtick_3">
     <g id="line2d_3">
      <g>
       <use xlink:href="#m69b3788f07" x="166.105453" y="105.439375" style="fill: #cccccc; stroke: #cccccc; stroke-width: 0.75"/>
      </g>
     </g>
     <g id="text_3">
      <!-- 09 -->
      <g style="fill: #808080" transform="translate(161.592953 120.646875) scale(0.08 -0.08)">
       <defs>
        <path id="Ubuntu-39" d="M 3206 2662 
Q 3206 1344 2550 669 
Q 1894 -6 602 -13 
L 582 486 
Q 986 486 1309 563 
Q 1632 640 1875 809 
Q 2118 979 2281 1248 
Q 2445 1517 2522 1907 
Q 2355 1830 2144 1782 
Q 1933 1734 1709 1734 
Q 1331 1734 1068 1846 
Q 806 1958 640 2147 
Q 474 2336 400 2582 
Q 326 2829 326 3098 
Q 326 3334 409 3590 
Q 493 3846 662 4057 
Q 832 4269 1094 4403 
Q 1357 4538 1715 4538 
Q 2080 4538 2358 4410 
Q 2637 4282 2825 4038 
Q 3014 3795 3110 3446 
Q 3206 3098 3206 2662 
z
M 1773 2221 
Q 1997 2221 2195 2262 
Q 2394 2304 2579 2387 
Q 2586 2458 2586 2525 
Q 2586 2592 2586 2662 
Q 2586 2938 2547 3190 
Q 2509 3443 2409 3632 
Q 2310 3821 2144 3933 
Q 1978 4045 1722 4045 
Q 1510 4045 1363 3955 
Q 1216 3866 1120 3728 
Q 1024 3590 982 3427 
Q 941 3264 941 3110 
Q 941 2675 1149 2448 
Q 1357 2221 1773 2221 
z
" transform="scale(0.015625)"/>
       </defs>
       <use xlink:href="#Ubuntu-30"/>
       <use xlink:href="#Ubuntu-39" x="56.399994"/>
      </g>
     </g>
    </g>
    <g id="xtick_4">
     <g id="line2d_4">
      <g>
       <use xlink:href="#m69b3788f07" x="222.588694" y="105.439375" style="fill: #cccccc; stroke: #cccccc; stroke-width: 0.75"/>
      </g>
     </g>
     <g id="text_4">
      <!-- 13 -->
      <g style="fill: #808080" transform="translate(218.076194 120.646875) scale(0.08 -0.08)">
       <defs>
        <path id="Ubuntu-33" d="M 1446 435 
Q 2016 435 2262 659 
Q 2509 883 2509 1261 
Q 2509 1504 2406 1670 
Q 2304 1837 2137 1936 
Q 1971 2035 1750 2076 
Q 1530 2118 1299 2118 
L 1146 2118 
L 1146 2605 
L 1357 2605 
Q 1517 2605 1686 2637 
Q 1856 2669 1997 2752 
Q 2138 2835 2227 2979 
Q 2317 3123 2317 3341 
Q 2317 3520 2253 3648 
Q 2189 3776 2083 3859 
Q 1978 3942 1840 3977 
Q 1702 4013 1549 4013 
Q 1242 4013 1027 3923 
Q 813 3834 666 3738 
L 435 4192 
Q 512 4243 630 4304 
Q 749 4365 896 4416 
Q 1043 4467 1212 4502 
Q 1382 4538 1568 4538 
Q 1920 4538 2176 4451 
Q 2432 4365 2598 4208 
Q 2765 4051 2848 3836 
Q 2931 3622 2931 3373 
Q 2931 3027 2732 2780 
Q 2534 2534 2253 2406 
Q 2426 2355 2586 2259 
Q 2746 2163 2864 2016 
Q 2982 1869 3056 1677 
Q 3130 1485 3130 1248 
Q 3130 960 3030 713 
Q 2931 467 2723 288 
Q 2515 109 2201 6 
Q 1888 -96 1459 -96 
Q 1293 -96 1117 -70 
Q 941 -45 787 -6 
Q 634 32 518 70 
Q 403 109 352 134 
L 467 653 
Q 576 602 829 518 
Q 1082 435 1446 435 
z
" transform="scale(0.015625)"/>
       </defs>
       <use xlink:href="#Ubuntu-31"/>
       <use xlink:href="#Ubuntu-33" x="56.399994"/>
      </g>
     </g>
    </g>
    <g id="xtick_5">
     <g id="line2d_5">
      <g>
       <use xlink:href="#m69b3788f07" x="279.071936" y="105.439375" style="fill: #cccccc; stroke: #cccccc; stroke-width: 0.75"/>
      </g>
     </g>
     <g id="text_5">
      <!-- 17 -->
      <g style="fill: #808080" transform="translate(274.559436 120.646875) scale(0.08 -0.08)">
       <defs>
        <path id="Ubuntu-37" d="M 1043 0 
Q 1082 512 1226 1078 
Q 1370 1645 1581 2179 
Q 1792 2714 2045 3171 
Q 2298 3629 2541 3917 
L 384 3917 
L 384 4435 
L 3206 4435 
L 3206 3942 
Q 2995 3699 2739 3273 
Q 2483 2848 2256 2320 
Q 2029 1792 1865 1193 
Q 1702 595 1664 0 
L 1043 0 
z
" transform="scale(0.015625)"/>
       </defs>
       <use xlink:href="#Ubuntu-31"/>
       <use xlink:href="#Ubuntu-37" x="56.399994"/>
      </g>
     </g>
    </g>
    <g id="xtick_6">
     <g id="line2d_6">
      <g>
       <use xlink:href="#m69b3788f07" x="335.555177" y="105.439375" style="fill: #cccccc; stroke: #cccccc; stroke-width: 0.75"/>
      </g>
     </g>
     <g id="text_6">
      <!-- 21 -->
      <g style="fill: #808080" transform="translate(331.042677 120.646875) scale(0.08 -0.08)">
       <defs>
        <path id="Ubuntu-32" d="M 2989 3302 
Q 2989 3072 2896 2857 
Q 2803 2643 2649 2435 
Q 2496 2227 2304 2025 
Q 2112 1824 1920 1632 
Q 1811 1523 1667 1376 
Q 1523 1229 1395 1069 
Q 1267 909 1180 761 
Q 1094 614 1094 506 
L 3136 506 
L 3136 0 
L 448 0 
Q 442 38 442 76 
Q 442 115 442 147 
Q 442 448 541 707 
Q 640 966 800 1196 
Q 960 1427 1158 1632 
Q 1357 1837 1549 2029 
Q 1709 2182 1853 2332 
Q 1997 2483 2109 2633 
Q 2221 2784 2288 2944 
Q 2355 3104 2355 3283 
Q 2355 3475 2294 3609 
Q 2234 3744 2131 3833 
Q 2029 3923 1891 3964 
Q 1754 4006 1600 4006 
Q 1414 4006 1260 3955 
Q 1107 3904 985 3837 
Q 864 3770 781 3696 
Q 698 3622 653 3584 
L 358 4006 
Q 416 4070 531 4163 
Q 646 4256 806 4339 
Q 966 4422 1164 4480 
Q 1363 4538 1594 4538 
Q 2291 4538 2640 4214 
Q 2989 3891 2989 3302 
z
" transform="scale(0.015625)"/>
       </defs>
       <use xlink:href="#Ubuntu-32"/>
       <use xlink:href="#Ubuntu-31" x="56.399994"/>
      </g>
     </g>
    </g>
    <g id="xtick_7">
     <g id="line2d_7">
      <g>
       <use xlink:href="#m69b3788f07" x="392.038418" y="105.439375" style="fill: #cccccc; stroke: #cccccc; stroke-width: 0.75"/>
      </g>
     </g>
     <g id="text_7">
      <!-- 25 -->
      <g style="fill: #808080" transform="translate(387.525918 120.646875) scale(0.08 -0.08)">
       <use xlink:href="#Ubuntu-32"/>
       <use xlink:href="#Ubuntu-35" x="56.399994"/>
      </g>
     </g>
    </g>
    <g id="xtick_8">
     <g id="line2d_8">
      <g>
       <use xlink:href="#m69b3788f07" x="448.52166" y="105.439375" style="fill: #cccccc; stroke: #cccccc; stroke-width: 0.75"/>
      </g>
     </g>
     <g id="text_8">
      <!-- 29 -->
      <g style="fill: #808080" transform="translate(444.00916 120.646875) scale(0.08 -0.08)">
       <use xlink:href="#Ubuntu-32"/>
       <use xlink:href="#Ubuntu-39" x="56.399994"/>
      </g>
     </g>
    </g>
    <g id="xtick_9">
     <g id="line2d_9">
      <g>
       <use xlink:href="#m69b3788f07" x="490.884091" y="105.439375" style="fill: #cccccc; stroke: #cccccc; stroke-width: 0.75"/>
      </g>
     </g>
    </g>
   </g>
   <g id="matplotlib.axis_2">
    <g id="ytick_1">
     <g id="line2d_10">
      <defs>
       <path id="m55e1019a11" d="M 0 0 
L -3 0 
" style="stroke: #cccccc; stroke-width: 0.75"/>
      </defs>
      <g>
       <use xlink:href="#m55e1019a11" x="38.7625" y="86.659375" style="fill: #cccccc; stroke: #cccccc; stroke-width: 0.75"/>
      </g>
     </g>
     <g id="text_9">
      <!-- 20000 -->
      <g style="fill: #808080" transform="translate(7.2 89.763125) scale(0.08 -0.08)">
       <use xlink:href="#Ubuntu-32"/>
       <use xlink:href="#Ubuntu-30" x="56.399994"/>
       <use xlink:href="#Ubuntu-30" x="112.799988"/>
       <use xlink:href="#Ubuntu-30" x="169.199982"/>
       <use xlink:href="#Ubuntu-30" x="225.599976"/>
      </g>
     </g>
    </g>
    <g id="ytick_2">
     <g id="line2d_11">
      <g>
       <use xlink:href="#m55e1019a11" x="38.7625" y="67.759375" style="fill: #cccccc; stroke: #cccccc; stroke-width: 0.75"/>
      </g>
     </g>
     <g id="text_10">
      <!-- 30000 -->
      <g style="fill: #808080" transform="translate(7.2 70.863125) scale(0.08 -0.08)">
       <use xlink:href="#Ubuntu-33"/>
       <use xlink:href="#Ubuntu-30" x="56.399994"/>
       <use xlink:href="#Ubuntu-30" x="112.799988"/>
       <use xlink:href="#Ubuntu-30" x="169.199982"/>
       <use xlink:href="#Ubuntu-30" x="225.599976"/>
      </g>
     </g>
    </g>
    <g id="ytick_3">
     <g id="line2d_12">
      <g>
       <use xlink:href="#m55e1019a11" x="38.7625" y="48.859375" style="fill: #cccccc; stroke: #cccccc; stroke-width: 0.75"/>
      </g>
     </g>
     <g id="text_11">
      <!-- 40000 -->
      <g style="fill: #808080" transform="translate(7.2 51.963125) scale(0.08 -0.08)">
       <defs>
        <path id="Ubuntu-34" d="M 256 1536 
Q 378 1818 589 2192 
Q 800 2566 1065 2963 
Q 1331 3360 1635 3744 
Q 1939 4128 2246 4435 
L 2816 4435 
L 2816 1619 
L 3341 1619 
L 3341 1133 
L 2816 1133 
L 2816 0 
L 2240 0 
L 2240 1133 
L 256 1133 
L 256 1536 
z
M 2240 3731 
Q 2048 3526 1853 3273 
Q 1658 3021 1472 2745 
Q 1286 2470 1123 2182 
Q 960 1894 832 1619 
L 2240 1619 
L 2240 3731 
z
" transform="scale(0.015625)"/>
       </defs>
       <use xlink:href="#Ubuntu-34"/>
       <use xlink:href="#Ubuntu-30" x="56.399994"/>
       <use xlink:href="#Ubuntu-30" x="112.799988"/>
       <use xlink:href="#Ubuntu-30" x="169.199982"/>
       <use xlink:href="#Ubuntu-30" x="225.599976"/>
      </g>
     </g>
    </g>
    <g id="ytick_4">
     <g id="line2d_13">
      <g>
       <use xlink:href="#m55e1019a11" x="38.7625" y="29.959375" style="fill: #cccccc; stroke: #cccccc; stroke-width: 0.75"/>
      </g>
     </g>
     <g id="text_12">
      <!-- 50000 -->
      <g style="fill: #808080" transform="translate(7.2 33.063125) scale(0.08 -0.08)">
       <use xlink:href="#Ubuntu-35"/>
       <use xlink:href="#Ubuntu-30" x="56.399994"/>
       <use xlink:href="#Ubuntu-30" x="112.799988"/>
       <use xlink:href="#Ubuntu-30" x="169.199982"/>
       <use xlink:href="#Ubuntu-30" x="225.599976"/>
      </g>
     </g>
    </g>
   </g>
   <g id="line2d_14">
    <path d="M 53.138971 68.897093 
L 53.727338 75.417035 
L 54.217644 79.200505 
L 54.315705 79.319483 
L 54.904072 80.93757 
L 55.296317 80.390276 
L 55.394378 79.129119 
L 55.492439 79.343278 
L 55.982745 82.769817 
L 56.276928 88.909033 
L 56.37499 89.527713 
L 56.473051 91.026824 
L 56.571112 90.598507 
L 56.767234 89.313555 
L 56.865296 89.146987 
L 57.061418 89.408736 
L 57.355601 87.981012 
L 58.532336 75.70258 
L 58.728458 72.847131 
L 58.826519 72.466405 
L 59.022642 69.396797 
L 59.120703 69.135047 
L 59.512947 65.637122 
L 59.611009 65.113623 
L 59.70907 63.971443 
L 59.807131 64.042829 
L 60.003253 63.20999 
L 60.297437 62.781673 
L 60.395498 62.234378 
L 60.493559 62.353355 
L 60.59162 62.686491 
L 60.689682 62.400946 
L 60.885804 63.328967 
L 60.983865 64.209397 
L 61.081926 63.947648 
L 61.179988 64.042829 
L 61.37611 65.089827 
L 61.474171 65.375372 
L 61.572232 65.2326 
L 61.670293 65.375372 
L 61.866416 66.255803 
L 61.964477 66.303393 
L 62.062538 67.017256 
L 62.160599 66.898279 
L 62.356722 66.922074 
L 62.847028 68.254617 
L 63.239272 69.135047 
L 63.337334 68.992275 
L 63.435395 69.349206 
L 63.631517 68.801911 
L 63.82764 68.516366 
L 64.121823 64.92326 
L 64.317945 59.569292 
L 64.612129 45.625182 
L 65.004374 43.174255 
L 65.102435 43.055278 
L 65.200496 44.054685 
L 65.396618 42.198643 
L 65.49468 40.747123 
L 66.181108 48.337859 
L 67.063659 66.184416 
L 68.142332 76.84476 
L 68.730699 79.390869 
L 68.926821 79.057733 
L 69.024882 79.081528 
L 69.319066 79.652618 
L 69.417127 78.891165 
L 69.515188 76.987532 
L 69.613249 77.320668 
L 69.907433 79.271892 
L 70.103555 79.961959 
L 70.397739 84.744836 
L 70.4958 84.578268 
L 70.593861 84.649654 
L 70.789983 81.461069 
L 70.986106 79.224301 
L 71.280289 79.343278 
L 72.457024 68.492571 
L 72.555085 69.01607 
L 72.849268 65.208805 
L 73.339574 59.688269 
L 73.82988 57.879818 
L 74.124064 55.619254 
L 74.222125 55.524073 
L 74.712431 57.618069 
L 74.810492 57.832227 
L 75.006614 57.427705 
L 75.202737 58.54609 
L 75.300798 58.450908 
L 75.398859 58.831635 
L 75.594981 59.759656 
L 75.889165 60.640086 
L 75.987226 61.44913 
L 76.183349 60.592495 
L 76.379471 61.877447 
L 76.477532 61.591902 
L 76.575593 61.75847 
L 76.771716 62.615105 
L 76.869777 62.6389 
L 77.16396 63.20999 
L 77.458144 63.447944 
L 77.654266 62.757877 
L 77.850389 61.782265 
L 78.438756 53.287304 
L 78.732939 39.224217 
L 78.929062 38.153424 
L 79.027123 38.319991 
L 79.321306 39.700125 
L 79.419368 39.533557 
L 79.517429 39.819102 
L 79.811612 42.793528 
L 80.007735 44.102276 
L 80.988347 61.734675 
L 81.380591 69.563365 
L 81.576714 71.229043 
L 81.772836 72.728154 
L 82.459264 78.03453 
L 82.655387 78.058326 
L 82.753448 78.367666 
L 82.851509 78.248689 
L 83.047631 78.653211 
L 83.145693 78.653211 
L 83.341815 79.057733 
L 83.537937 78.153507 
L 83.635998 76.678192 
L 83.73406 76.773374 
L 84.224366 79.271892 
L 84.518549 84.649654 
L 84.714671 84.554473 
L 84.910794 82.222523 
L 85.106916 79.866777 
L 85.204977 79.771595 
L 85.4011 80.366481 
L 85.695283 77.558622 
L 85.891406 83.269521 
L 86.577834 76.416443 
L 87.656507 67.87389 
L 87.95069 66.279598 
L 88.146813 65.303986 
L 88.342935 64.732896 
L 88.539058 64.994646 
L 88.637119 65.042237 
L 88.833241 65.565736 
L 88.931302 66.636529 
L 89.127425 65.161214 
L 89.225486 65.470554 
L 89.323547 65.399168 
L 89.519669 66.350984 
L 89.911914 65.613326 
L 90.108037 66.99346 
L 90.206098 67.897686 
L 90.598342 64.590124 
L 90.696404 64.851873 
L 90.794465 64.471147 
L 90.892526 64.613919 
L 90.990587 64.399761 
L 91.088648 65.042237 
L 91.18671 62.424742 
L 91.284771 62.543719 
L 91.382832 63.091013 
L 91.480893 62.757877 
L 91.677015 61.687084 
L 92.06926 59.902428 
L 92.559566 51.050536 
L 92.85375 38.748309 
L 92.951811 37.915469 
L 93.049872 38.105833 
L 93.147933 37.891674 
L 93.344056 38.248605 
L 93.540178 39.390785 
L 93.638239 39.581148 
L 94.422729 49.765584 
L 95.011096 62.06781 
L 95.795585 72.18086 
L 95.991707 73.870334 
L 96.285891 76.392647 
L 96.580075 78.272485 
L 96.874258 78.343871 
L 97.07038 78.248689 
L 97.168442 78.629416 
L 97.266503 78.153507 
L 97.364564 78.272485 
L 97.560686 78.082121 
L 97.756809 75.869148 
L 98.050992 77.748985 
L 98.149053 77.772781 
L 98.345176 78.962551 
L 98.639359 84.649654 
L 98.737421 84.744836 
L 98.835482 84.649654 
L 99.423849 79.509846 
L 99.52191 80.05714 
L 99.816094 77.035123 
L 100.110277 75.39324 
L 100.502522 71.300429 
L 100.698644 70.277227 
L 101.679256 60.283155 
L 102.169562 56.737639 
L 102.365684 55.881004 
L 102.463746 56.190344 
L 102.561807 56.047572 
L 102.757929 57.237342 
L 102.85599 57.261138 
L 103.052113 58.950612 
L 103.150174 58.831635 
L 103.836602 60.735267 
L 103.934663 60.425927 
L 104.424969 61.18738 
L 104.719153 60.735267 
L 104.817214 60.830449 
L 105.013336 62.6389 
L 105.111397 62.496128 
L 105.30752 60.711472 
L 105.405581 60.997017 
L 105.503642 61.234971 
L 106.19007 56.499685 
L 106.582315 51.574035 
L 107.072621 38.462764 
L 107.268743 38.082037 
L 107.366805 38.129628 
L 108.151294 42.293825 
L 108.445478 46.0535 
L 109.033845 58.903021 
L 109.229967 62.353355 
L 109.720273 69.230229 
L 109.818334 69.682342 
L 110.406701 75.583603 
L 110.504763 75.369445 
L 110.798946 78.201098 
L 110.897007 78.010735 
L 110.995068 78.439052 
L 111.191191 77.796576 
L 111.289252 78.153507 
L 111.485374 77.630008 
L 111.681497 77.98694 
L 111.877619 76.249875 
L 111.97568 76.321261 
L 112.073741 76.53542 
L 112.171803 77.582418 
L 112.269864 77.487236 
L 112.465986 79.033938 
L 112.76017 83.721633 
L 112.956292 84.840018 
L 113.544659 79.819186 
L 113.64272 80.31889 
L 114.329149 73.299244 
L 114.917516 67.731118 
L 115.800066 60.211768 
L 115.898128 59.616883 
L 116.192311 56.856616 
L 116.388433 55.524073 
L 116.486495 55.262323 
L 116.584556 55.452686 
L 116.780678 57.522887 
L 117.172923 60.425927 
L 117.369045 58.950612 
L 117.467107 59.11718 
L 117.565168 58.784044 
L 117.957412 60.711472 
L 118.349657 61.591902 
L 118.447718 62.6389 
L 118.54578 62.353355 
L 118.839963 63.566921 
L 118.938024 63.305172 
L 119.036085 65.518145 
L 119.232208 63.804875 
L 119.330269 64.637715 
L 119.42833 64.256988 
L 119.526391 64.375965 
L 119.624453 64.304579 
L 119.722514 64.875669 
L 119.918636 64.328374 
L 120.114758 63.47174 
L 120.21282 63.590717 
L 120.310881 63.424149 
L 120.801187 55.64305 
L 121.09537 42.127257 
L 121.291493 40.24742 
L 121.389554 39.795307 
L 121.585676 40.080852 
L 121.683737 40.009465 
L 122.075982 42.079666 
L 122.174043 42.246234 
L 122.370166 43.4598 
L 123.350777 60.021405 
L 123.644961 65.994053 
L 124.233328 72.632972 
L 124.919756 77.011328 
L 125.017818 77.1541 
L 125.21394 78.462848 
L 125.508123 79.033938 
L 125.606185 79.129119 
L 125.802307 78.653211 
L 125.998429 77.249282 
L 126.096491 77.1541 
L 126.292613 78.010735 
L 126.390674 78.224894 
L 126.586797 80.31889 
L 126.782919 84.649654 
L 127.077102 85.887016 
L 127.175164 85.720448 
L 127.66547 81.484865 
L 127.763531 81.699024 
L 127.861592 80.866184 
L 128.057714 78.29628 
L 128.253837 76.725783 
L 128.449959 74.25106 
L 128.646081 70.372408 
L 129.626693 60.592495 
L 129.920877 59.140975 
L 130.018938 58.736453 
L 130.116999 59.950019 
L 130.607305 56.071367 
L 130.705366 56.856616 
L 130.803427 56.666252 
L 130.901489 57.189751 
L 130.99955 57.070774 
L 131.097611 57.570478 
L 131.195672 57.308728 
L 131.391794 58.260545 
L 131.587917 58.712658 
L 131.8821 58.593681 
L 132.470467 60.640086 
L 132.862712 63.067218 
L 132.960773 63.138604 
L 133.058835 62.829264 
L 133.156896 63.257581 
L 133.254957 63.138604 
L 133.353018 63.566921 
L 133.451079 63.400353 
L 133.647202 63.614512 
L 133.843324 63.828671 
L 133.941385 64.423556 
L 134.137508 63.543126 
L 134.33363 63.852466 
L 134.529752 63.305172 
L 134.823936 60.259359 
L 135.020058 53.215918 
L 135.216181 43.293232 
L 135.510364 40.24742 
L 135.608425 39.98567 
L 135.902609 41.246827 
L 136.196792 43.269437 
L 136.294854 43.174255 
L 136.392915 43.650163 
L 137.569649 57.951205 
L 138.158016 71.086271 
L 138.4522 74.013106 
L 138.550261 74.417628 
L 138.942506 77.772781 
L 139.040567 78.391462 
L 139.138628 77.867963 
L 139.628934 80.176117 
L 139.923117 79.462255 
L 140.021179 78.153507 
L 140.11924 78.29628 
L 140.217301 78.677006 
L 140.315362 78.629416 
L 140.511484 79.248096 
L 140.707607 82.936385 
L 141.00179 88.076193 
L 141.099852 88.385534 
L 141.197913 89.170782 
L 141.295974 89.075601 
L 141.394035 89.123191 
L 141.590157 88.718669 
L 141.884341 87.076786 
L 142.472708 82.722226 
L 143.257198 75.654989 
L 143.45332 72.22845 
L 143.649442 71.03868 
L 144.335871 66.11303 
L 144.433932 66.398575 
L 144.630054 66.017848 
L 144.826177 65.375372 
L 145.218421 65.756099 
L 145.512605 64.994646 
L 145.610666 65.018441 
L 145.708727 64.471147 
L 145.806788 64.613919 
L 146.002911 65.613326 
L 146.100972 65.54194 
L 146.199033 65.756099 
L 146.297094 65.589531 
L 146.395155 65.827485 
L 146.689339 67.231414 
L 146.885461 66.99346 
L 147.375767 68.563957 
L 147.473828 69.135047 
L 147.57189 69.063661 
L 147.866073 69.753728 
L 147.964134 69.610955 
L 148.160257 69.920296 
L 148.258318 69.991682 
L 148.45444 69.444387 
L 148.650563 68.44498 
L 148.748624 67.802504 
L 149.042807 62.377151 
L 149.533113 42.745938 
L 150.12148 40.818509 
L 150.219542 40.985077 
L 150.415664 40.794714 
L 151.494337 59.497906 
L 152.082704 69.373001 
L 152.57301 74.489014 
L 153.259438 77.701395 
L 153.455561 78.320075 
L 153.553622 78.439052 
L 153.749744 78.010735 
L 154.141989 75.70258 
L 154.632295 77.511031 
L 155.02454 83.412293 
L 155.220662 83.79302 
L 155.416784 82.603249 
L 155.710968 79.129119 
L 155.90709 78.010735 
L 156.005151 78.058326 
L 156.495457 73.132676 
L 156.593518 72.823336 
L 156.985763 68.587753 
L 157.279947 67.516959 
L 157.868314 60.735267 
L 157.966375 61.092199 
L 158.35862 56.856616 
L 158.456681 56.642457 
L 158.554742 55.95239 
L 158.652803 57.09457 
L 158.750864 62.162992 
L 158.848926 61.544311 
L 158.946987 57.09457 
L 159.045048 57.594273 
L 159.339232 55.833413 
L 159.535354 56.785229 
L 159.633415 56.713843 
L 159.731476 56.475889 
L 159.829537 57.308728 
L 159.927599 56.999388 
L 160.123721 57.522887 
L 160.221782 57.475296 
L 160.319843 57.760841 
L 160.417905 57.261138 
L 160.515966 57.475296 
L 160.614027 58.355726 
L 160.810149 57.856023 
L 160.90821 58.141568 
L 161.202394 59.878633 
L 161.300455 60.140382 
L 161.398516 60.045201 
L 161.594639 60.687677 
L 161.6927 60.901835 
L 161.790761 60.30695 
L 161.986883 61.925038 
L 162.183006 60.759063 
L 162.379128 61.520516 
L 162.477189 61.568107 
L 162.967495 58.070182 
L 163.163618 53.62044 
L 163.555862 38.296196 
L 163.751985 36.844676 
L 163.948107 36.987448 
L 164.046168 37.487152 
L 164.14423 37.439561 
L 164.242291 37.463357 
L 164.830658 43.650163 
L 165.222903 51.145717 
L 166.497698 72.371223 
L 166.988004 75.226672 
L 167.184126 75.726376 
L 167.282187 76.202284 
L 167.47831 77.748985 
L 167.772493 77.296873 
L 167.968616 77.035123 
L 168.164738 76.53542 
L 168.262799 75.036309 
L 168.753105 77.392054 
L 168.949227 79.771595 
L 169.14535 82.38909 
L 169.341472 83.22193 
L 169.439533 82.841203 
L 169.635656 79.48605 
L 169.831778 77.511031 
L 169.929839 76.797169 
L 170.0279 77.201691 
L 170.125962 77.106509 
L 170.518206 74.25106 
L 170.616268 75.797762 
L 170.714329 80.199913 
L 170.81239 79.700209 
L 171.302696 74.108288 
L 171.400757 73.822743 
L 171.793002 69.373001 
L 171.989124 67.731118 
L 172.381369 63.352763 
L 172.577491 60.782858 
L 173.067797 56.237935 
L 173.165858 56.285526 
L 173.26392 55.595459 
L 173.361981 55.976185 
L 173.460042 55.881004 
L 173.754225 56.166549 
L 173.852287 55.333709 
L 173.950348 56.428298 
L 174.048409 56.333117 
L 174.14647 56.452094 
L 174.342593 57.451501 
L 174.636776 56.571071 
L 175.225143 59.259952 
L 175.323204 58.736453 
L 175.421266 58.903021 
L 175.617388 60.30695 
L 175.81351 59.926224 
L 175.911571 60.116587 
L 176.009633 60.5687 
L 176.107694 61.734675 
L 176.205755 61.496721 
L 176.303816 61.615698 
L 176.598 60.116587 
L 176.696061 60.235564 
L 176.990244 59.402725 
L 177.186367 56.785229 
L 177.284428 54.76262 
L 177.676673 38.986263 
L 177.872795 38.415173 
L 177.970856 38.438968 
L 178.068917 38.082037 
L 178.363101 39.057649 
L 178.657285 40.009465 
L 179.14759 46.172477 
L 179.441774 52.192715 
L 180.226263 67.397982 
L 181.206875 76.53542 
L 181.304937 76.606806 
L 181.59912 77.582418 
L 181.697181 77.106509 
L 181.991365 77.820372 
L 182.187487 77.130305 
L 182.38361 74.584196 
L 182.481671 74.964923 
L 182.677793 76.083307 
L 182.775854 76.321261 
L 183.070038 79.890572 
L 183.26616 83.935792 
L 183.364221 84.387905 
L 183.658405 82.032159 
L 184.05065 77.487236 
L 184.148711 77.177896 
L 184.246772 77.796576 
L 184.835139 72.323632 
L 185.129323 68.968479 
L 185.227384 68.873298 
L 185.619629 63.51933 
L 186.207996 58.403317 
L 186.404118 57.023184 
L 186.894424 55.214732 
L 186.992485 55.190937 
L 187.090546 55.024369 
L 187.188607 54.548461 
L 187.286669 55.119551 
L 187.38473 55.000574 
L 187.580852 55.500277 
L 187.776975 56.594866 
L 187.973097 56.071367 
L 188.071158 56.190344 
L 188.169219 56.785229 
L 188.365342 55.738231 
L 188.659525 57.380115 
L 188.757586 57.332524 
L 188.953709 58.379522 
L 189.149831 59.378929 
L 189.247892 58.903021 
L 189.345953 58.998203 
L 189.640137 60.378336 
L 189.738198 60.735267 
L 189.836259 60.521109 
L 190.032382 61.901243 
L 190.228504 61.568107 
L 190.522688 60.711472 
L 190.71881 59.355134 
L 190.816871 59.355134 
L 191.307177 55.119551 
L 191.405238 53.501463 
L 191.895544 37.177812 
L 191.993605 36.892267 
L 192.287789 38.296196 
L 192.38585 38.391378 
L 192.483911 37.96306 
L 192.680034 39.129035 
L 192.778095 39.366989 
L 193.072278 43.245641 
L 194.543196 69.27782 
L 195.033502 73.94172 
L 195.621869 76.511624 
L 195.71993 76.345056 
L 195.817992 76.416443 
L 195.916053 76.678192 
L 196.406359 75.631194 
L 196.50442 74.441424 
L 196.798603 76.939942 
L 196.994726 77.368259 
L 197.092787 78.03453 
L 197.38697 83.935792 
L 197.485032 84.007178 
L 197.877276 81.056547 
L 198.073399 78.795984 
L 198.563705 76.083307 
L 198.661766 75.012513 
L 198.759827 75.583603 
L 199.250133 69.182638 
L 199.348194 67.136233 
L 199.446255 67.885788 
L 199.544317 65.458656 
L 199.642378 65.898871 
L 199.740439 65.565736 
L 200.132684 61.401539 
L 200.62299 58.748351 
L 200.721051 58.807839 
L 200.917173 57.201649 
L 201.407479 55.083858 
L 201.701663 55.916697 
L 201.897785 54.65554 
L 202.191968 56.499685 
L 202.29003 55.452686 
L 202.584213 55.95239 
L 203.074519 58.070182 
L 203.17258 58.165363 
L 203.368703 59.021998 
L 203.466764 58.903021 
L 203.662886 59.307543 
L 203.859009 60.140382 
L 203.95707 60.449723 
L 204.055131 60.187973 
L 204.251253 61.115994 
L 204.349314 62.377151 
L 204.447376 62.044015 
L 204.643498 60.521109 
L 205.035743 59.045793 
L 205.427987 55.762027 
L 205.62411 49.00413 
L 205.918293 38.914877 
L 206.114416 37.368175 
L 206.408599 37.891674 
L 206.604722 38.438968 
L 206.702783 38.84349 
L 207.095028 42.650756 
L 207.389211 47.029111 
L 207.683395 53.406281 
L 208.271762 64.494942 
L 208.664007 69.944091 
L 208.860129 71.300429 
L 209.252374 75.155286 
L 209.74268 77.844167 
L 209.840741 77.939349 
L 209.938802 78.248689 
L 210.134924 77.772781 
L 210.331047 77.177896 
L 210.429108 77.296873 
L 210.62523 75.607399 
L 210.821353 76.511624 
L 211.115536 77.915553 
L 211.311658 81.19932 
L 211.507781 83.007771 
L 211.703903 84.221337 
L 211.801964 84.078565 
L 211.998087 80.842389 
L 212.29227 76.820965 
L 212.488393 77.296873 
L 212.586454 76.939942 
L 213.07676 72.632972 
L 213.174821 72.133269 
L 213.370943 70.324818 
L 214.449616 60.164178 
L 214.547677 60.854245 
L 215.332167 54.429484 
L 215.528289 54.691233 
L 215.822473 56.880411 
L 216.018595 57.903614 
L 216.116656 57.808432 
L 216.312779 56.999388 
L 216.41084 57.475296 
L 216.508901 57.380115 
L 216.606962 57.499092 
L 216.999207 58.926816 
L 217.097268 58.736453 
L 217.293391 59.569292 
L 217.391452 61.282562 
L 217.489513 61.139789 
L 217.783697 62.781673 
L 217.881758 62.853059 
L 218.07788 62.400946 
L 218.274002 62.448537 
L 218.372064 62.06781 
L 218.470125 62.424742 
L 218.568186 62.044015 
L 218.764308 62.305765 
L 219.058492 62.496128 
L 219.254614 60.87804 
L 219.450737 59.236157 
L 219.646859 56.190344 
L 220.137165 39.938079 
L 220.235226 39.938079 
L 220.431348 39.152831 
L 220.52941 39.224217 
L 220.627471 38.938672 
L 221.019716 40.794714 
L 221.313899 42.745938 
L 221.510021 45.196865 
L 222.490633 64.542533 
L 222.784817 68.278412 
L 223.275123 73.227858 
L 223.667367 75.13149 
L 224.059612 77.201691 
L 224.255735 76.939942 
L 224.353796 76.559215 
L 224.451857 76.654397 
L 224.549918 76.440238 
L 224.647979 75.345649 
L 224.74604 75.631194 
L 225.040224 77.772781 
L 225.138285 77.606213 
L 225.334408 78.510439 
L 225.726652 85.149358 
L 225.922775 85.363517 
L 226.413081 80.88998 
L 226.511142 81.461069 
L 226.609203 81.342092 
L 226.903387 77.201691 
L 227.099509 75.988125 
L 227.687876 69.135047 
L 227.785937 68.635344 
L 228.178182 63.067218 
L 228.374304 61.401539 
L 228.570427 60.592495 
L 228.86461 57.499092 
L 228.962671 57.356319 
L 229.158794 57.689455 
L 229.452977 56.023776 
L 229.6491 55.881004 
L 229.747161 55.428891 
L 229.845222 55.666845 
L 230.041344 57.332524 
L 230.237467 56.428298 
L 230.629711 57.998795 
L 230.923895 59.378929 
L 231.021956 59.283747 
L 231.120017 60.211768 
L 231.218079 59.878633 
L 231.31614 60.830449 
L 231.512262 68.468776 
L 231.610323 68.159435 
L 231.806446 64.590124 
L 231.904507 65.589531 
L 232.002568 64.066625 
L 232.100629 64.304579 
L 232.19869 63.566921 
L 232.394813 64.709101 
L 232.492874 63.400353 
L 232.590935 63.447944 
L 232.885119 64.447351 
L 232.98318 64.994646 
L 233.179302 64.35217 
L 233.277363 64.566328 
L 233.473486 62.90065 
L 233.86573 54.786415 
L 234.159914 41.936894 
L 234.356036 39.98567 
L 234.454098 39.319399 
L 234.65022 39.747716 
L 234.944403 41.841712 
L 235.140526 41.841712 
L 236.023077 52.16892 
L 236.219199 54.976778 
L 237.003688 70.634158 
L 237.395933 74.631787 
L 238.082361 79.462255 
L 238.180423 79.414664 
L 238.278484 79.200505 
L 238.376545 79.248096 
L 238.474606 79.200505 
L 238.670728 79.343278 
L 238.866851 77.844167 
L 238.964912 78.177303 
L 239.553279 83.436088 
L 239.847463 88.052398 
L 239.945524 88.528306 
L 240.141646 88.14758 
L 240.239707 88.290352 
L 240.337769 87.957216 
L 240.43583 88.076193 
L 240.533891 87.957216 
L 240.730013 87.362331 
L 242.200931 73.465812 
L 242.789298 66.755506 
L 242.887359 66.279598 
L 243.181543 62.06781 
L 243.279604 61.734675 
L 243.475726 62.472332 
L 243.76991 60.735267 
L 243.966032 60.901835 
L 244.064093 60.782858 
L 244.260216 61.115994 
L 244.456338 60.164178 
L 244.848583 62.234378 
L 244.946644 62.210583 
L 245.044705 62.044015 
L 245.240828 64.97085 
L 245.43695 65.970258 
L 245.535011 65.851281 
L 245.731134 66.11303 
L 245.829195 65.922667 
L 246.319501 67.25521 
L 246.417562 67.231414 
L 246.613684 66.922074 
L 246.907868 67.969072 
L 247.005929 67.540755 
L 247.10399 67.731118 
L 247.398174 66.922074 
L 247.594296 66.279598 
L 247.790418 64.328374 
L 247.986541 58.593681 
L 248.280724 44.554389 
L 248.574908 42.103462 
L 248.672969 41.865507 
L 248.967153 40.271215 
L 249.55552 42.603165 
L 250.241948 55.762027 
L 251.124499 70.110659 
L 251.418682 72.418814 
L 251.614805 73.608584 
L 252.399294 77.748985 
L 252.791539 76.654397 
L 252.987661 75.226672 
L 253.085722 76.368852 
L 253.183783 76.345056 
L 253.379906 77.439645 
L 253.477967 77.72519 
L 253.674089 80.366481 
L 253.870212 84.078565 
L 254.066334 84.483086 
L 254.458579 79.985754 
L 254.654701 77.820372 
L 254.752762 77.915553 
L 254.850824 78.058326 
L 255.145007 74.917332 
L 255.243068 74.703173 
L 255.439191 73.584789 
L 255.929497 67.350391 
L 256.125619 66.208212 
L 256.22368 65.54194 
L 256.517864 62.162992 
L 256.812047 60.497313 
L 257.792659 56.166549 
L 257.89072 56.571071 
L 257.988781 56.047572 
L 258.184904 56.452094 
L 258.282965 56.333117 
L 258.479087 58.117772 
L 258.67521 57.689455 
L 258.773271 58.046386 
L 258.969393 57.261138 
L 259.165516 57.570478 
L 259.263577 57.71325 
L 259.361638 58.141568 
L 259.459699 57.784637 
L 259.753883 59.973814 
L 259.851944 59.783451 
L 259.950005 59.545497 
L 260.34225 61.139789 
L 260.538372 60.949426 
L 260.636433 61.115994 
L 260.930617 62.281969 
L 261.028678 62.115401 
L 261.322862 59.355134 
L 261.518984 60.473518 
L 261.911229 57.046979 
L 262.205412 44.578184 
L 262.401535 37.225403 
L 262.597657 36.249791 
L 262.793779 35.773883 
L 262.989902 36.701904 
L 263.774391 44.530593 
L 264.853064 66.065439 
L 265.441431 72.038087 
L 265.833676 75.060104 
L 266.225921 76.130898 
L 266.422043 76.868555 
L 266.716227 76.440238 
L 266.912349 77.130305 
L 267.01041 75.39324 
L 267.108471 75.631194 
L 267.696839 79.200505 
L 267.991022 83.650247 
L 268.089083 84.292723 
L 268.383267 83.150544 
L 268.67745 78.486643 
L 268.775512 78.486643 
L 268.873573 78.320075 
L 268.971634 77.72519 
L 269.265817 74.322446 
L 269.363879 74.25106 
L 269.560001 72.18086 
L 270.050307 67.635936 
L 270.34449 65.756099 
L 270.834796 60.497313 
L 271.325102 57.070774 
L 271.423163 57.356319 
L 271.913469 55.048165 
L 272.207653 56.166549 
L 272.305714 55.904799 
L 272.501837 57.261138 
L 272.697959 55.452686 
L 272.894081 56.83282 
L 272.992142 56.785229 
L 273.384387 57.760841 
L 273.482448 57.832227 
L 273.776632 59.093384 
L 273.874693 58.879225 
L 273.972754 59.069589 
L 274.070815 61.044608 
L 274.168877 59.450315 
L 274.266938 59.926224 
L 274.46306 61.948833 
L 274.659183 60.806654 
L 274.757244 60.449723 
L 275.051427 60.973222 
L 275.149488 60.925631 
L 275.541733 59.688269 
L 275.639794 59.474111 
L 276.032039 56.713843 
L 276.228161 51.098126 
L 276.522345 37.986856 
L 276.816529 36.178405 
L 276.91459 36.368768 
L 277.601018 41.032668 
L 278.385507 53.905985 
L 278.875813 64.685305 
L 279.366119 71.466997 
L 279.46418 71.91911 
L 279.856425 75.155286 
L 280.052548 76.107102 
L 280.150609 75.869148 
L 280.346731 76.297465 
L 280.542853 76.892351 
L 280.738976 76.725783 
L 280.837037 76.678192 
L 280.935098 76.868555 
L 281.033159 76.559215 
L 281.131221 74.703173 
L 281.425404 76.368852 
L 281.523465 76.202284 
L 281.621527 76.58301 
L 281.817649 79.010142 
L 282.111832 84.340314 
L 282.209894 84.268928 
L 282.406016 84.340314 
L 282.504077 83.84061 
L 282.896322 78.224894 
L 283.092444 78.03453 
L 284.465301 65.303986 
L 284.563362 63.495535 
L 284.661423 64.138011 
L 284.857546 61.639493 
L 284.955607 61.710879 
L 285.053668 61.353948 
L 285.543974 56.023776 
L 285.740096 53.477667 
L 285.936219 55.357505 
L 286.03428 55.119551 
L 286.132341 55.833413 
L 286.328463 55.286119 
L 286.426524 54.857801 
L 286.622647 55.785822 
L 286.818769 55.286119 
L 287.112953 56.428298 
L 287.407136 57.760841 
L 287.505197 57.784637 
L 287.603259 57.66566 
L 287.799381 58.974407 
L 287.897442 58.784044 
L 288.387748 60.473518 
L 288.58387 61.806061 
L 288.779993 62.044015 
L 288.878054 62.06781 
L 288.976115 62.567514 
L 289.074176 62.496128 
L 289.172238 62.162992 
L 289.270299 62.258174 
L 289.760605 60.045201 
L 290.152849 56.690048 
L 290.447033 46.267658 
L 290.643155 38.319991 
L 290.839278 35.89286 
L 290.937339 35.797678 
L 291.231522 38.058242 
L 291.427645 37.439561 
L 291.721828 40.532965 
L 292.408257 51.764398 
L 292.800501 59.926224 
L 293.683052 71.800133 
L 294.271419 76.368852 
L 294.36948 76.416443 
L 294.467541 76.27367 
L 294.761725 77.273077 
L 294.859786 77.1541 
L 295.055909 76.559215 
L 295.15397 76.416443 
L 295.252031 75.274263 
L 295.350092 75.464626 
L 295.546214 76.58301 
L 295.840398 77.249282 
L 295.938459 77.820372 
L 296.232643 83.864406 
L 296.330704 84.173746 
L 296.428765 84.078565 
L 296.624887 82.746022 
L 296.919071 78.914961 
L 297.213255 78.510439 
L 297.311316 76.84476 
L 297.409377 77.915553 
L 297.507438 77.130305 
L 297.801622 72.466405 
L 298.193866 67.731118 
L 298.291928 68.111845 
L 298.684172 64.209397 
L 298.880295 62.210583 
L 299.664784 57.784637 
L 299.860907 55.999981 
L 299.958968 56.356912 
L 300.15509 55.524073 
L 300.351212 56.356912 
L 300.449274 55.881004 
L 300.841518 57.380115 
L 300.93958 57.308728 
L 301.135702 55.738231 
L 301.233763 55.762027 
L 301.82213 58.236749 
L 301.920191 58.046386 
L 302.116314 59.521702 
L 302.410497 59.640679 
L 302.60662 61.377744 
L 302.704681 61.258766 
L 302.802742 60.87804 
L 302.900803 61.234971 
L 302.998864 61.163585 
L 303.096926 61.258766 
L 303.194987 61.068403 
L 303.293048 61.44913 
L 303.391109 61.234971 
L 303.587231 60.711472 
L 303.685293 61.687084 
L 304.27366 57.998795 
L 304.371721 56.594866 
L 304.567843 48.099905 
L 304.763966 39.010058 
L 305.058149 35.869064 
L 305.15621 36.035632 
L 305.254272 37.011244 
L 305.450394 36.77329 
L 305.646516 37.725106 
L 306.038761 41.342008 
L 306.627128 53.04935 
L 307.019373 60.830449 
L 307.901923 72.22845 
L 308.196107 73.989311 
L 308.686413 76.559215 
L 308.882535 76.654397 
L 308.980597 76.916146 
L 309.372841 74.51281 
L 309.470902 74.869741 
L 309.667025 76.130898 
L 309.765086 76.27367 
L 309.961208 77.844167 
L 310.353453 84.292723 
L 310.451514 83.911997 
L 310.549575 84.387905 
L 310.745698 83.269521 
L 311.039881 78.510439 
L 311.137943 78.558029 
L 311.334065 78.486643 
L 311.432126 78.010735 
L 312.314677 67.754913 
L 312.412738 67.778709 
L 312.60886 66.017848 
L 312.804983 62.567514 
L 313.099166 60.378336 
L 313.295289 59.212361 
L 313.39335 59.378929 
L 313.785594 57.427705 
L 314.177839 56.404503 
L 314.2759 56.618662 
L 314.668145 61.211176 
L 314.766206 61.806061 
L 314.864267 61.568107 
L 315.158451 59.42652 
L 315.256512 59.854837 
L 315.354573 60.021405 
L 315.452635 60.473518 
L 315.550696 60.402132 
L 315.648757 60.425927 
L 315.746818 60.330745 
L 316.139063 62.139197 
L 316.237124 63.757285 
L 316.335185 63.47174 
L 316.433246 62.615105 
L 316.825491 63.424149 
L 317.021613 63.305172 
L 317.315797 63.995239 
L 317.413858 63.757285 
L 317.609981 63.995239 
L 317.708042 63.757285 
L 318.002225 62.162992 
L 318.198348 61.092199 
L 318.39447 59.783451 
L 318.590592 55.524073 
L 318.982837 40.842305 
L 319.17896 39.628739 
L 319.277021 39.604944 
L 319.375082 39.224217 
L 319.571204 39.533557 
L 319.669265 39.462171 
L 319.865388 39.604944 
L 320.453755 46.719771 
L 321.140183 62.210583 
L 322.022734 73.013699 
L 323.003346 77.201691 
L 323.101407 77.106509 
L 323.39559 75.940534 
L 323.493652 75.274263 
L 323.689774 76.059511 
L 323.787835 76.297465 
L 324.18008 79.48605 
L 324.572325 84.435496 
L 324.670386 84.887608 
L 324.866508 84.554473 
L 325.06263 81.151729 
L 325.454875 80.05714 
L 326.239365 71.871519 
L 327.318038 60.473518 
L 327.416099 60.402132 
L 327.808344 57.879818 
L 328.004466 58.569885 
L 328.200588 57.808432 
L 328.29865 58.498499 
L 328.494772 57.66566 
L 328.592833 57.499092 
L 328.788955 57.689455 
L 328.887017 57.618069 
L 329.083139 58.641271 
L 329.1812 58.236749 
L 329.279261 58.403317 
L 329.377323 57.879818 
L 329.475384 57.927409 
L 330.063751 60.330745 
L 330.161812 60.425927 
L 330.357934 61.306357 
L 330.554057 61.401539 
L 331.044363 62.948241 
L 331.240485 65.80369 
L 331.436607 65.256395 
L 331.534669 65.137418 
L 331.63273 65.589531 
L 331.730791 65.518145 
L 331.828852 65.684713 
L 332.024974 65.113623 
L 332.123036 65.042237 
L 332.221097 64.756692 
L 332.613342 59.497906 
L 332.809464 53.192123 
L 333.005586 45.149274 
L 333.29977 40.199829 
L 333.397831 40.366397 
L 333.593953 40.128443 
L 334.280382 44.126071 
L 334.378443 44.292639 
L 334.868749 50.45565 
L 335.064871 53.073145 
L 335.162932 53.739417 
L 335.260993 52.47826 
L 335.457116 55.143346 
L 335.751299 62.06781 
L 336.437728 70.182045 
L 336.829972 72.561586 
L 337.026095 73.275448 
L 337.124156 73.180267 
L 337.222217 73.418221 
L 337.320278 73.275448 
L 337.41834 73.560993 
L 337.614462 72.22845 
L 337.810584 73.703766 
L 337.908645 73.608584 
L 338.202829 75.916739 
L 338.791196 84.506882 
L 339.379563 82.103545 
L 339.477624 81.960773 
L 339.575686 82.07975 
L 339.869869 80.961366 
L 340.262114 77.177896 
L 340.654359 73.180267 
L 340.75242 74.370037 
L 340.850481 73.917925 
L 341.733032 64.280784 
L 341.831093 64.35217 
L 342.125276 62.448537 
L 342.223337 61.996424 
L 342.41946 62.091606 
L 342.713643 61.591902 
L 342.909766 60.830449 
L 343.105888 61.425334 
L 343.203949 60.973222 
L 343.30201 61.163585 
L 343.400072 60.711472 
L 343.596194 61.282562 
L 344.0865 63.566921 
L 344.184561 63.233785 
L 344.282622 63.614512 
L 344.380683 63.447944 
L 344.478745 63.566921 
L 344.674867 64.019034 
L 344.772928 63.757285 
L 344.870989 63.900057 
L 345.165173 65.518145 
L 345.263234 65.470554 
L 345.459357 66.065439 
L 345.557418 66.017848 
L 345.655479 65.708508 
L 345.75354 66.184416 
L 345.851601 66.11303 
L 345.949662 66.017848 
L 346.145785 66.469961 
L 346.439968 64.328374 
L 346.53803 63.447944 
L 346.930274 53.882189 
L 347.126397 45.030297 
L 347.42058 41.413395 
L 347.518641 41.74653 
L 347.812825 41.032668 
L 348.008947 40.461578 
L 348.499253 42.745938 
L 348.891498 49.099312 
L 349.774049 65.827485 
L 350.362416 72.204655 
L 350.852722 76.011921 
L 350.950783 75.940534 
L 351.048844 75.726376 
L 351.244966 76.297465 
L 351.343027 76.27367 
L 351.441089 76.392647 
L 351.53915 76.773374 
L 351.735272 75.012513 
L 352.4217 80.080936 
L 352.813945 86.505696 
L 352.912006 86.862627 
L 353.108129 86.315333 
L 353.20619 85.982197 
L 353.794557 79.105324 
L 354.088741 75.845353 
L 354.284863 75.70258 
L 354.775169 68.873298 
L 354.87323 69.753728 
L 355.853842 58.260545 
L 355.951903 58.308136 
L 356.148025 56.166549 
L 356.246087 55.286119 
L 356.344148 55.333709 
L 356.442209 55.238528 
L 356.638331 53.834599 
L 356.736393 53.668031 
L 356.834454 54.143939 
L 357.030576 53.144532 
L 357.128637 52.977964 
L 357.226698 53.834599 
L 357.422821 53.144532 
L 357.618943 53.572849 
L 357.717004 53.668031 
L 357.815066 54.596052 
L 358.011188 54.215325 
L 358.20731 55.095755 
L 358.305371 55.07196 
L 358.403433 55.785822 
L 358.599555 55.452686 
L 358.795677 56.023776 
L 359.187922 56.904206 
L 359.285983 57.499092 
L 359.384044 57.475296 
L 359.580167 57.71325 
L 359.678228 58.403317 
L 359.776289 58.260545 
L 359.87435 58.522294 
L 360.070473 57.879818 
L 360.168534 58.54609 
L 360.266595 58.498499 
L 360.462717 57.522887 
L 360.953023 51.145717 
L 361.443329 36.297382 
L 361.639452 34.393749 
L 361.737513 34.560317 
L 362.522002 38.248605 
L 363.012308 46.981521 
L 363.404553 55.857208 
L 363.698737 61.115994 
L 364.090981 66.565143 
L 364.875471 73.275448 
L 365.267715 75.464626 
L 365.463838 75.797762 
L 365.65996 75.13149 
L 365.758021 73.489607 
L 365.856083 73.513403 
L 366.052205 75.250467 
L 366.346388 76.58301 
L 366.542511 79.17671 
L 366.836694 83.888201 
L 367.032817 84.649654 
L 367.130878 84.578268 
L 367.228939 84.792427 
L 367.327 84.483086 
L 367.915367 78.248689 
L 368.209551 75.345649 
L 368.307612 75.345649 
L 368.405673 74.845945 
L 369.288224 64.09042 
L 369.974652 57.499092 
L 370.66108 54.334302 
L 370.759142 54.143939 
L 370.857203 54.881597 
L 371.151386 53.382486 
L 371.249448 53.3111 
L 371.347509 53.001759 
L 371.543631 53.763212 
L 371.641692 54.167734 
L 371.739753 54.120144 
L 371.935876 57.40391 
L 372.033937 57.380115 
L 372.230059 56.095163 
L 372.328121 56.21414 
L 372.426182 56.071367 
L 372.524243 56.285526 
L 372.720365 57.618069 
L 372.818427 57.213547 
L 372.916488 57.284933 
L 373.014549 56.975593 
L 373.406794 58.427113 
L 373.602916 57.023184 
L 373.8971 58.85543 
L 374.191283 58.260545 
L 374.387405 57.09457 
L 374.583528 56.594866 
L 375.073834 49.884561 
L 375.56414 36.535336 
L 375.760262 34.941043 
L 376.152507 35.845269 
L 376.642813 39.842898 
L 377.035057 45.863136 
L 378.015669 64.35217 
L 378.505975 70.586567 
L 378.702097 71.562179 
L 378.996281 73.965515 
L 379.192403 74.51281 
L 379.486587 75.845353 
L 379.584648 75.726376 
L 379.78077 76.511624 
L 379.878832 74.82215 
L 380.173015 75.916739 
L 380.271076 75.940534 
L 380.56526 77.796576 
L 380.957505 83.983383 
L 381.251688 84.649654 
L 381.349749 84.721041 
L 381.447811 85.196949 
L 381.840055 81.342092 
L 382.428422 75.988125 
L 382.526484 75.70258 
L 383.114851 67.731118 
L 383.605157 64.542533 
L 384.095463 58.85543 
L 384.291585 58.070182 
L 384.389646 57.737046 
L 384.585768 56.428298 
L 384.68383 56.190344 
L 384.781891 56.285526 
L 384.879952 55.904799 
L 384.978013 56.095163 
L 385.272197 54.381893 
L 385.370258 54.310507 
L 385.468319 53.977371 
L 385.56638 54.643643 
L 385.664441 54.453279 
L 385.762503 54.667438 
L 386.056686 56.26173 
L 386.154747 56.761434 
L 386.252809 56.26173 
L 386.35087 56.380707 
L 386.448931 57.09457 
L 386.546992 56.951797 
L 386.743114 57.380115 
L 386.939237 58.617476 
L 387.037298 59.545497 
L 387.23342 57.784637 
L 387.429543 58.831635 
L 387.527604 59.140975 
L 387.625665 58.260545 
L 387.723726 58.403317 
L 387.821787 58.093977 
L 387.919849 59.069589 
L 388.01791 58.831635 
L 388.214032 59.236157 
L 388.508216 58.474704 
L 388.998522 55.833413 
L 389.194644 51.693012 
L 389.292705 48.69479 
L 389.488828 38.510355 
L 389.783011 35.535928 
L 389.881072 34.798271 
L 389.979133 35.036225 
L 390.371378 36.844676 
L 390.567501 37.796492 
L 391.057807 43.578777 
L 391.450051 50.764991 
L 392.822908 71.990496 
L 393.411275 74.726968 
L 393.80352 76.202284 
L 393.901581 76.130898 
L 393.999642 74.51281 
L 394.391887 76.392647 
L 394.489948 76.559215 
L 394.68607 78.153507 
L 395.176376 85.363517 
L 395.372499 85.696652 
L 395.47056 85.55388 
L 395.666682 84.506882 
L 395.960866 82.198727 
L 396.35311 76.226079 
L 396.745355 73.608584 
L 397.1376 68.587753 
L 397.333722 66.826892 
L 397.431783 67.469368 
L 398.314334 59.759656 
L 398.412395 59.521702 
L 398.706579 55.238528 
L 398.80464 55.000574 
L 398.902701 55.07196 
L 399.098823 54.19153 
L 399.294946 54.262916 
L 399.491068 53.287304 
L 399.589129 53.239713 
L 399.785252 55.3813 
L 399.883313 53.739417 
L 400.275558 55.666845 
L 400.373619 55.428891 
L 400.569741 55.928595 
L 400.667802 55.881004 
L 400.765864 55.619254 
L 400.961986 56.666252 
L 401.060047 56.666252 
L 401.25617 57.189751 
L 401.452292 56.452094 
L 401.550353 54.334302 
L 401.648414 54.905392 
L 401.746475 54.81021 
L 401.844537 55.286119 
L 402.040659 55.095755 
L 402.334843 56.571071 
L 402.530965 57.261138 
L 402.727087 56.737639 
L 402.92321 58.427113 
L 403.021271 57.522887 
L 403.903821 34.393749 
L 404.001883 33.846454 
L 404.198005 34.227181 
L 404.296066 34.108204 
L 404.492189 35.464542 
L 404.688311 35.750087 
L 404.786372 35.964246 
L 404.982494 38.53415 
L 405.276678 41.770326 
L 406.845657 68.730525 
L 407.13984 70.991089 
L 407.335963 72.085678 
L 407.728208 74.036902 
L 407.92433 74.393833 
L 408.022391 74.584196 
L 408.120452 73.513403 
L 408.512697 75.13149 
L 408.610758 75.440831 
L 408.806881 76.916146 
L 409.297187 84.792427 
L 409.493309 85.768039 
L 410.081676 82.579454 
L 411.552594 66.37478 
L 411.846777 63.662103 
L 412.239022 57.760841 
L 412.533206 56.452094 
L 412.92545 54.477075 
L 413.219634 55.976185 
L 413.317695 55.809618 
L 413.415756 55.309914 
L 413.513817 55.524073 
L 413.611879 56.285526 
L 413.906062 54.715029 
L 414.004123 54.215325 
L 414.494429 56.380707 
L 414.690552 55.881004 
L 414.788613 56.237935 
L 414.886674 55.904799 
L 415.180857 57.499092 
L 415.278919 57.71325 
L 415.475041 57.332524 
L 415.769225 57.808432 
L 415.965347 57.118365 
L 416.25953 58.569885 
L 416.651775 58.665067 
L 416.749836 58.117772 
L 416.847898 58.712658 
L 417.142081 57.641864 
L 417.436265 53.192123 
L 418.024632 34.322363 
L 418.220754 33.441932 
L 418.318815 33.537114 
L 418.416877 34.536521 
L 418.514938 34.44134 
L 418.71106 35.274179 
L 418.809121 35.250384 
L 419.299427 37.606129 
L 419.789733 43.840526 
L 420.770345 59.093384 
L 420.868406 60.092791 
L 420.966467 59.99761 
L 421.064528 60.521109 
L 421.16259 60.187973 
L 421.652896 53.739417 
L 421.750957 54.239121 
L 421.947079 55.881004 
L 422.241263 59.402725 
L 422.633507 71.633565 
L 423.025752 77.630008 
L 423.319936 82.055955 
L 423.614119 84.173746 
L 423.71218 84.292723 
L 423.810242 84.649654 
L 424.104425 82.460477 
L 424.202486 82.603249 
L 424.300547 82.484272 
L 424.398609 82.722226 
L 424.49667 82.484272 
L 424.594731 81.794205 
L 424.692792 81.936978 
L 425.281159 78.772188 
L 425.575343 75.321854 
L 426.16371 69.801319 
L 426.457893 65.946462 
L 426.752077 64.138011 
L 426.948199 61.282562 
L 427.536567 57.998795 
L 427.634628 58.189159 
L 427.732689 58.688862 
L 427.928811 57.903614 
L 428.026872 58.355726 
L 428.124934 58.236749 
L 428.222995 58.308136 
L 428.517178 57.475296 
L 428.61524 57.427705 
L 428.713301 57.09457 
L 428.811362 57.261138 
L 429.007484 58.165363 
L 429.105545 57.879818 
L 429.203607 57.998795 
L 429.399729 57.261138 
L 429.49779 57.332524 
L 429.595851 57.689455 
L 429.693913 59.973814 
L 429.791974 59.474111 
L 429.890035 60.021405 
L 429.988096 59.973814 
L 430.576463 55.357505 
L 430.772586 53.239713 
L 430.870647 52.954168 
L 431.360953 44.268844 
L 431.655136 33.656091 
L 431.94932 40.651942 
L 432.145442 39.366989 
L 432.341564 38.438968 
L 432.439626 38.486559 
L 432.733809 41.104054 
L 432.929932 43.507391 
L 433.027993 42.983892 
L 433.126054 43.055278 
L 433.224115 43.221846 
L 433.420237 42.864915 
L 433.518299 43.126664 
L 434.49891 55.833413 
L 435.087278 60.854245 
L 435.185339 60.759063 
L 435.2834 60.068996 
L 435.773706 51.526444 
L 435.969828 52.977964 
L 436.264012 57.856023 
L 436.460134 64.994646 
L 436.852379 74.108288 
L 436.95044 74.51281 
L 437.146562 78.177303 
L 437.440746 83.721633 
L 437.636868 84.792427 
L 437.832991 85.696652 
L 438.029113 85.458698 
L 438.127174 84.768631 
L 438.225235 85.24454 
L 438.61748 84.697245 
L 438.715541 84.768631 
L 438.813603 84.506882 
L 438.911664 84.958995 
L 439.009725 84.697245 
L 439.303908 82.96018 
L 439.500031 82.555658 
L 439.990337 79.890572 
L 440.28452 76.606806 
L 441.363193 66.37478 
L 441.461254 66.232007 
L 441.559316 65.851281 
L 441.755438 64.613919 
L 441.853499 64.66151 
L 442.049622 64.399761 
L 442.245744 62.281969 
L 442.441866 61.591902 
L 442.539927 61.663288 
L 442.637989 61.972629 
L 442.73605 62.686491 
L 442.834111 62.543719 
L 442.932172 63.162399 
L 443.030233 62.995831 
L 443.128295 63.091013 
L 443.324417 62.948241 
L 443.422478 63.186195 
L 443.814723 61.401539 
L 444.010845 61.520516 
L 444.206968 60.021405 
L 444.697273 55.64305 
L 445.383702 47.267065 
L 445.481763 46.838748 
L 445.579824 45.244456 
L 445.775947 38.53415 
L 445.874008 39.152831 
L 445.972069 43.578777 
L 446.07013 43.4598 
L 446.168191 43.721549 
L 446.364314 40.29501 
L 446.658497 41.889303 
L 446.756558 41.960689 
L 447.050742 46.220067 
L 447.148803 45.744159 
L 447.246864 46.172477 
L 447.442987 45.292046 
L 447.541048 45.553796 
L 447.639109 46.481817 
L 447.73717 46.124886 
L 447.835231 46.339045 
L 448.227476 51.02674 
L 448.52166 54.262916 
L 449.110027 60.806654 
L 449.208088 60.092791 
L 449.40421 59.640679 
L 449.894516 52.145125 
L 450.384822 57.66566 
L 451.07125 73.560993 
L 451.659617 82.746022 
L 451.757679 83.079157 
L 451.953801 84.292723 
L 452.346046 83.412293 
L 452.444107 82.864999 
L 452.542168 82.936385 
L 452.836352 82.151136 
L 453.228596 78.700802 
L 453.915025 71.91911 
L 454.111147 70.538976 
L 454.895637 62.615105 
L 455.582065 58.165363 
L 455.876248 57.737046 
L 456.268493 55.524073 
L 456.366554 55.64305 
L 456.562677 56.356912 
L 456.758799 56.975593 
L 456.85686 56.761434 
L 456.954921 56.52348 
L 457.052983 56.928002 
L 457.151044 56.642457 
L 457.347166 57.09457 
L 457.543288 57.118365 
L 457.935533 58.903021 
L 458.033594 58.331931 
L 458.131656 58.760248 
L 458.229717 58.665067 
L 458.327778 58.903021 
L 458.5239 57.927409 
L 458.621961 57.760841 
L 459.112267 55.119551 
L 459.700634 44.697161 
L 459.896757 36.463949 
L 459.994818 37.606129 
L 460.19094 42.055871 
L 460.485124 38.629332 
L 460.583185 38.891081 
L 461.269613 43.745345 
L 461.367675 43.245641 
L 461.465736 43.340823 
L 461.661858 42.983892 
L 461.759919 43.15046 
L 461.956042 44.364025 
L 462.936653 57.284933 
L 463.328898 59.140975 
L 463.426959 59.212361 
L 463.721143 56.83282 
L 463.917265 52.597237 
L 464.015327 51.883375 
L 464.603694 60.425927 
L 464.897877 70.134454 
L 465.192061 73.108881 
L 465.388183 77.558622 
L 465.584305 82.817408 
L 465.878489 84.030974 
L 466.074611 84.744836 
L 466.270734 83.293316 
L 466.368795 83.388498 
L 466.466856 83.745429 
L 466.662978 82.246318 
L 466.859101 81.818001 
L 466.957162 81.77041 
L 467.251346 80.080936 
L 467.64359 75.892944 
L 467.741651 75.512217 
L 467.937774 72.870926 
L 468.035835 73.94172 
L 468.231957 70.443795 
L 468.624202 67.279005 
L 468.722263 67.802504 
L 469.31063 63.019627 
L 469.408692 62.972036 
L 469.506753 61.806061 
L 469.604814 61.925038 
L 469.997059 59.450315 
L 470.09512 59.521702 
L 470.487365 57.451501 
L 470.781548 57.546683 
L 470.879609 57.427705 
L 470.97767 57.546683 
L 471.271854 56.21414 
L 471.566038 58.093977 
L 471.76216 58.189159 
L 471.860221 58.212954 
L 471.958282 57.689455 
L 472.154405 59.259952 
L 472.252466 59.569292 
L 473.135017 55.857208 
L 473.233078 56.380707 
L 473.331139 55.595459 
L 473.723384 46.791157 
L 474.017567 37.201607 
L 474.115628 38.082037 
L 474.21369 42.412802 
L 474.311751 41.889303 
L 474.605934 39.271808 
L 474.802057 39.866693 
L 474.900118 39.628739 
L 475.390424 43.19805 
L 475.488485 42.936301 
L 475.684607 43.507391 
L 475.782668 43.15046 
L 475.88073 43.340823 
L 476.076852 45.292046 
L 476.76328 53.858394 
L 477.155525 57.046979 
L 477.449709 58.688862 
L 477.54777 58.688862 
L 477.645831 58.28434 
L 477.841953 54.381893 
L 478.038076 51.050536 
L 478.136137 51.169513 
L 478.724504 60.021405 
L 479.018687 69.01607 
L 479.999299 83.293316 
L 480.09736 83.79302 
L 480.195422 83.626452 
L 480.293483 83.745429 
L 480.685728 82.222523 
L 480.783789 82.270113 
L 481.372156 79.010142 
L 481.666339 75.845353 
L 482.058584 74.346242 
L 482.352768 70.895907 
L 482.450829 70.681749 
L 482.646951 69.753728 
L 483.039196 64.851873 
L 483.33338 62.400946 
L 483.431441 63.923852 
L 483.529502 76.606806 
L 483.823685 66.803097 
L 483.921747 65.970258 
L 484.117869 62.32956 
L 484.510114 57.618069 
L 484.804297 57.070774 
L 484.902358 58.046386 
L 485.098481 57.213547 
L 485.196542 57.737046 
L 485.392664 57.332524 
L 485.588787 58.427113 
L 485.686848 58.355726 
L 485.784909 58.212954 
L 485.88297 57.808432 
L 486.177154 59.140975 
L 486.275215 58.736453 
L 486.471337 60.045201 
L 487.55001 51.240899 
L 488.138377 35.988041 
L 488.432561 42.626961 
L 488.530622 41.74653 
L 488.726745 38.676923 
L 489.413173 42.983892 
L 489.511234 42.674551 
L 489.707356 42.174848 
L 489.805418 42.032075 
L 489.903479 42.174848 
L 490.099601 43.007687 
L 490.589907 48.076109 
L 490.786029 51.359876 
L 490.786029 51.359876 
" clip-path="url(#p3dd8dfde69)" style="fill: none; stroke: #4e9a73; stroke-width: 1.2; stroke-linecap: square"/>
   </g>
   <g id="patch_3">
    <path d="M 38.7625 86.659375 
L 38.7625 29.959375 
" style="fill: none; stroke: #cccccc; stroke-width: 0.75; stroke-linejoin: miter; stroke-linecap: square"/>
   </g>
   <g id="patch_4">
    <path d="M 53.138971 105.439375 
L 490.884091 105.439375 
" style="fill: none; stroke: #cccccc; stroke-width: 0.75; stroke-linejoin: miter; stroke-linecap: square"/>
   </g>
   <g id="text_13">
    <!-- May -->
    <g style="fill: #505050" transform="translate(48.7625 14.959375) scale(0.1 -0.1)">
     <defs>
      <path id="Ubuntu-Bold-4d" d="M 1690 4435 
Q 1805 4224 1955 3913 
Q 2106 3603 2269 3241 
Q 2432 2880 2592 2502 
Q 2752 2125 2893 1792 
Q 3034 2125 3194 2502 
Q 3354 2880 3517 3241 
Q 3680 3603 3830 3913 
Q 3981 4224 4096 4435 
L 5005 4435 
Q 5069 3994 5123 3446 
Q 5178 2899 5219 2307 
Q 5261 1715 5296 1120 
Q 5331 525 5357 0 
L 4384 0 
Q 4365 646 4333 1408 
Q 4301 2170 4237 2944 
Q 4122 2675 3981 2348 
Q 3840 2022 3702 1696 
Q 3565 1370 3437 1072 
Q 3309 774 3219 563 
L 2522 563 
Q 2432 774 2304 1072 
Q 2176 1370 2038 1696 
Q 1901 2022 1760 2348 
Q 1619 2675 1504 2944 
Q 1440 2170 1408 1408 
Q 1376 646 1357 0 
L 384 0 
Q 410 525 445 1120 
Q 480 1715 521 2307 
Q 563 2899 617 3446 
Q 672 3994 736 4435 
L 1690 4435 
z
" transform="scale(0.015625)"/>
      <path id="Ubuntu-Bold-61" d="M 1734 666 
Q 1875 666 2003 672 
Q 2131 678 2208 691 
L 2208 1414 
Q 2150 1427 2035 1440 
Q 1920 1453 1824 1453 
Q 1690 1453 1571 1437 
Q 1453 1421 1363 1376 
Q 1274 1331 1222 1254 
Q 1171 1178 1171 1062 
Q 1171 838 1321 752 
Q 1472 666 1734 666 
z
M 1658 3456 
Q 2080 3456 2361 3360 
Q 2643 3264 2812 3085 
Q 2982 2906 3052 2650 
Q 3123 2394 3123 2080 
L 3123 96 
Q 2918 51 2553 -9 
Q 2189 -70 1670 -70 
Q 1344 -70 1078 -12 
Q 813 45 621 176 
Q 429 307 326 518 
Q 224 730 224 1037 
Q 224 1331 342 1536 
Q 461 1741 659 1862 
Q 858 1984 1114 2038 
Q 1370 2093 1645 2093 
Q 1830 2093 1974 2077 
Q 2118 2061 2208 2035 
L 2208 2125 
Q 2208 2368 2061 2515 
Q 1914 2662 1549 2662 
Q 1306 2662 1069 2627 
Q 832 2592 659 2528 
L 538 3296 
Q 621 3322 745 3350 
Q 870 3379 1017 3401 
Q 1165 3424 1328 3440 
Q 1491 3456 1658 3456 
z
" transform="scale(0.015625)"/>
      <path id="Ubuntu-Bold-79" d="M 3437 3366 
Q 3149 2394 2835 1542 
Q 2522 691 2150 -109 
Q 2016 -397 1881 -598 
Q 1747 -800 1587 -931 
Q 1427 -1062 1225 -1123 
Q 1024 -1184 755 -1184 
Q 531 -1184 342 -1142 
Q 154 -1101 32 -1050 
L 198 -288 
Q 346 -339 461 -358 
Q 576 -378 704 -378 
Q 960 -378 1097 -240 
Q 1235 -102 1331 141 
Q 1005 781 678 1577 
Q 352 2374 64 3366 
L 1075 3366 
Q 1139 3117 1225 2825 
Q 1312 2534 1408 2236 
Q 1504 1939 1603 1657 
Q 1702 1376 1792 1146 
Q 1875 1376 1964 1657 
Q 2054 1939 2140 2236 
Q 2227 2534 2307 2825 
Q 2387 3117 2451 3366 
L 3437 3366 
z
" transform="scale(0.015625)"/>
     </defs>
     <use xlink:href="#Ubuntu-Bold-4d"/>
     <use xlink:href="#Ubuntu-Bold-61" x="89.699982"/>
     <use xlink:href="#Ubuntu-Bold-79" x="143.749969"/>
    </g>
   </g>
  </g>
  <g id="axes_2">
   <g id="patch_5">
    <path d="M 48.7625 196.279375 
L 495.1625 196.279375 
L 495.1625 135.799375 
L 48.7625 135.799375 
L 48.7625 196.279375 
z
" style="fill: none"/>
   </g>
   <g id="matplotlib.axis_3">
    <g id="xtick_10">
     <g id="text_14">
      <!-- Sunday -->
      <g style="fill: #808080" transform="translate(125.938617 227.262812) scale(0.09 -0.09)">
       <defs>
        <path id="Ubuntu-53" d="M 1581 442 
Q 2554 442 2554 1107 
Q 2554 1312 2467 1456 
Q 2381 1600 2233 1705 
Q 2086 1811 1897 1888 
Q 1709 1965 1498 2042 
Q 1254 2125 1036 2230 
Q 819 2336 659 2480 
Q 499 2624 406 2822 
Q 314 3021 314 3302 
Q 314 3885 710 4211 
Q 1107 4538 1805 4538 
Q 2208 4538 2537 4451 
Q 2867 4365 3021 4262 
L 2822 3757 
Q 2688 3840 2422 3920 
Q 2157 4000 1805 4000 
Q 1626 4000 1472 3961 
Q 1318 3923 1203 3846 
Q 1088 3770 1021 3651 
Q 954 3533 954 3373 
Q 954 3194 1024 3072 
Q 1094 2950 1222 2857 
Q 1350 2765 1520 2688 
Q 1690 2611 1894 2534 
Q 2182 2419 2422 2304 
Q 2662 2189 2838 2029 
Q 3014 1869 3110 1648 
Q 3206 1427 3206 1114 
Q 3206 531 2780 217 
Q 2355 -96 1581 -96 
Q 1318 -96 1097 -61 
Q 877 -26 704 22 
Q 531 70 406 124 
Q 282 179 211 218 
L 397 730 
Q 544 646 845 544 
Q 1146 442 1581 442 
z
" transform="scale(0.015625)"/>
        <path id="Ubuntu-75" d="M 3162 96 
Q 2957 45 2621 -12 
Q 2285 -70 1843 -70 
Q 1459 -70 1196 42 
Q 934 154 774 358 
Q 614 563 544 841 
Q 474 1120 474 1459 
L 474 3328 
L 1069 3328 
L 1069 1587 
Q 1069 979 1261 716 
Q 1453 454 1907 454 
Q 2003 454 2105 460 
Q 2208 467 2297 476 
Q 2387 486 2460 496 
Q 2534 506 2566 518 
L 2566 3328 
L 3162 3328 
L 3162 96 
z
" transform="scale(0.015625)"/>
        <path id="Ubuntu-6e" d="M 512 3232 
Q 717 3283 1056 3340 
Q 1395 3398 1837 3398 
Q 2234 3398 2496 3286 
Q 2758 3174 2915 2972 
Q 3072 2771 3136 2489 
Q 3200 2208 3200 1869 
L 3200 0 
L 2605 0 
L 2605 1741 
Q 2605 2048 2563 2265 
Q 2522 2483 2426 2617 
Q 2330 2752 2170 2813 
Q 2010 2874 1773 2874 
Q 1677 2874 1574 2867 
Q 1472 2861 1379 2851 
Q 1286 2842 1212 2829 
Q 1139 2816 1107 2810 
L 1107 0 
L 512 0 
L 512 3232 
z
" transform="scale(0.015625)"/>
        <path id="Ubuntu-64" d="M 2662 2624 
Q 2554 2714 2349 2797 
Q 2144 2880 1901 2880 
Q 1645 2880 1462 2787 
Q 1280 2694 1165 2531 
Q 1050 2368 998 2144 
Q 947 1920 947 1664 
Q 947 1082 1235 765 
Q 1523 448 2003 448 
Q 2246 448 2409 470 
Q 2573 493 2662 518 
L 2662 2624 
z
M 2662 4864 
L 3258 4966 
L 3258 96 
Q 3053 38 2733 -19 
Q 2413 -77 1997 -77 
Q 1613 -77 1305 44 
Q 998 166 780 390 
Q 563 614 444 937 
Q 326 1261 326 1664 
Q 326 2048 425 2368 
Q 525 2688 717 2918 
Q 909 3149 1187 3277 
Q 1466 3405 1824 3405 
Q 2112 3405 2333 3328 
Q 2554 3251 2662 3181 
L 2662 4864 
z
" transform="scale(0.015625)"/>
        <path id="Ubuntu-61" d="M 1638 429 
Q 1850 429 2013 438 
Q 2176 448 2285 474 
L 2285 1466 
Q 2221 1498 2077 1520 
Q 1933 1542 1728 1542 
Q 1594 1542 1443 1523 
Q 1293 1504 1168 1443 
Q 1043 1382 960 1276 
Q 877 1171 877 998 
Q 877 678 1081 553 
Q 1286 429 1638 429 
z
M 1587 3411 
Q 1946 3411 2192 3318 
Q 2438 3226 2588 3056 
Q 2739 2886 2803 2652 
Q 2867 2419 2867 2138 
L 2867 58 
Q 2790 45 2652 22 
Q 2515 0 2342 -19 
Q 2170 -38 1968 -54 
Q 1766 -70 1568 -70 
Q 1286 -70 1049 -12 
Q 813 45 640 169 
Q 467 294 371 499 
Q 275 704 275 992 
Q 275 1267 387 1465 
Q 499 1664 691 1785 
Q 883 1907 1139 1964 
Q 1395 2022 1677 2022 
Q 1766 2022 1862 2012 
Q 1958 2003 2044 1987 
Q 2131 1971 2195 1958 
Q 2259 1946 2285 1939 
L 2285 2106 
Q 2285 2253 2253 2397 
Q 2221 2541 2137 2653 
Q 2054 2765 1910 2832 
Q 1766 2899 1536 2899 
Q 1242 2899 1021 2857 
Q 800 2816 691 2771 
L 621 3264 
Q 736 3315 1005 3363 
Q 1274 3411 1587 3411 
z
" transform="scale(0.015625)"/>
        <path id="Ubuntu-79" d="M 122 -621 
Q 192 -653 304 -681 
Q 416 -710 525 -710 
Q 877 -710 1075 -553 
Q 1274 -397 1434 -45 
Q 1030 723 681 1584 
Q 333 2445 102 3328 
L 742 3328 
Q 813 3040 912 2707 
Q 1011 2374 1132 2022 
Q 1254 1670 1395 1318 
Q 1536 966 1690 640 
Q 1933 1312 2112 1971 
Q 2291 2630 2451 3328 
L 3066 3328 
Q 2835 2387 2553 1520 
Q 2272 653 1946 -102 
Q 1818 -390 1680 -598 
Q 1542 -806 1376 -940 
Q 1210 -1075 1002 -1139 
Q 794 -1203 531 -1203 
Q 461 -1203 384 -1193 
Q 307 -1184 233 -1168 
Q 160 -1152 99 -1133 
Q 38 -1114 13 -1101 
L 122 -621 
z
" transform="scale(0.015625)"/>
       </defs>
       <use xlink:href="#Ubuntu-53"/>
       <use xlink:href="#Ubuntu-75" x="53.199997"/>
       <use xlink:href="#Ubuntu-6e" x="110.599991"/>
       <use xlink:href="#Ubuntu-64" x="167.999985"/>
       <use xlink:href="#Ubuntu-61" x="226.899979"/>
       <use xlink:href="#Ubuntu-79" x="277.599976"/>
      </g>
     </g>
    </g>
    <g id="xtick_11">
     <g id="text_15">
      <!-- Sunday -->
      <g style="fill: #808080" transform="translate(228.056264 227.262812) scale(0.09 -0.09)">
       <use xlink:href="#Ubuntu-53"/>
       <use xlink:href="#Ubuntu-75" x="53.199997"/>
       <use xlink:href="#Ubuntu-6e" x="110.599991"/>
       <use xlink:href="#Ubuntu-64" x="167.999985"/>
       <use xlink:href="#Ubuntu-61" x="226.899979"/>
       <use xlink:href="#Ubuntu-79" x="277.599976"/>
      </g>
     </g>
    </g>
    <g id="xtick_12">
     <g id="text_16">
      <!-- Sunday -->
      <g style="fill: #808080" transform="translate(330.173911 227.262812) scale(0.09 -0.09)">
       <use xlink:href="#Ubuntu-53"/>
       <use xlink:href="#Ubuntu-75" x="53.199997"/>
       <use xlink:href="#Ubuntu-6e" x="110.599991"/>
       <use xlink:href="#Ubuntu-64" x="167.999985"/>
       <use xlink:href="#Ubuntu-61" x="226.899979"/>
       <use xlink:href="#Ubuntu-79" x="277.599976"/>
      </g>
     </g>
    </g>
    <g id="xtick_13">
     <g id="text_17">
      <!-- Sunday -->
      <g style="fill: #808080" transform="translate(432.291558 227.262812) scale(0.09 -0.09)">
       <use xlink:href="#Ubuntu-53"/>
       <use xlink:href="#Ubuntu-75" x="53.199997"/>
       <use xlink:href="#Ubuntu-6e" x="110.599991"/>
       <use xlink:href="#Ubuntu-64" x="167.999985"/>
       <use xlink:href="#Ubuntu-61" x="226.899979"/>
       <use xlink:href="#Ubuntu-79" x="277.599976"/>
      </g>
     </g>
    </g>
   </g>
   <g id="matplotlib.axis_4">
    <g id="ytick_5">
     <g id="line2d_15">
      <g>
       <use xlink:href="#m55e1019a11" x="38.7625" y="196.279375" style="fill: #cccccc; stroke: #cccccc; stroke-width: 0.75"/>
      </g>
     </g>
     <g id="text_18">
      <!-- 28000 -->
      <g style="fill: #808080" transform="translate(7.2 199.383125) scale(0.08 -0.08)">
       <defs>
        <path id="Ubuntu-38" d="M 3258 1152 
Q 3258 883 3165 656 
Q 3072 429 2889 259 
Q 2707 90 2432 -3 
Q 2157 -96 1798 -96 
Q 1382 -96 1104 22 
Q 826 141 659 320 
Q 493 499 422 713 
Q 352 928 352 1120 
Q 352 1306 413 1475 
Q 474 1645 573 1792 
Q 672 1939 803 2057 
Q 934 2176 1082 2266 
Q 454 2624 454 3322 
Q 454 3565 550 3785 
Q 646 4006 822 4172 
Q 998 4339 1248 4438 
Q 1498 4538 1805 4538 
Q 2163 4538 2419 4429 
Q 2675 4320 2838 4150 
Q 3002 3981 3075 3776 
Q 3149 3571 3149 3379 
Q 3149 3194 3094 3030 
Q 3040 2867 2947 2726 
Q 2854 2586 2736 2477 
Q 2618 2368 2490 2285 
Q 3245 1926 3258 1152 
z
M 954 1114 
Q 954 998 995 873 
Q 1037 749 1139 643 
Q 1242 538 1402 467 
Q 1562 397 1805 397 
Q 2022 397 2185 461 
Q 2349 525 2451 624 
Q 2554 723 2605 851 
Q 2656 979 2656 1114 
Q 2656 1318 2579 1472 
Q 2502 1626 2358 1741 
Q 2214 1856 2012 1936 
Q 1811 2016 1555 2074 
Q 1267 1914 1110 1677 
Q 954 1440 954 1114 
z
M 2554 3386 
Q 2554 3482 2512 3597 
Q 2470 3712 2380 3811 
Q 2291 3910 2150 3977 
Q 2010 4045 1805 4045 
Q 1600 4045 1456 3981 
Q 1312 3917 1222 3817 
Q 1133 3718 1091 3600 
Q 1050 3482 1050 3366 
Q 1050 3226 1101 3085 
Q 1152 2944 1261 2822 
Q 1370 2701 1546 2605 
Q 1722 2509 1965 2451 
Q 2234 2611 2394 2825 
Q 2554 3040 2554 3386 
z
" transform="scale(0.015625)"/>
       </defs>
       <use xlink:href="#Ubuntu-32"/>
       <use xlink:href="#Ubuntu-38" x="56.399994"/>
       <use xlink:href="#Ubuntu-30" x="112.799988"/>
       <use xlink:href="#Ubuntu-30" x="169.199982"/>
       <use xlink:href="#Ubuntu-30" x="225.599976"/>
      </g>
     </g>
    </g>
    <g id="ytick_6">
     <g id="line2d_16">
      <g>
       <use xlink:href="#m55e1019a11" x="38.7625" y="181.159375" style="fill: #cccccc; stroke: #cccccc; stroke-width: 0.75"/>
      </g>
     </g>
     <g id="text_19">
      <!-- 30000 -->
      <g style="fill: #808080" transform="translate(7.2 184.263125) scale(0.08 -0.08)">
       <use xlink:href="#Ubuntu-33"/>
       <use xlink:href="#Ubuntu-30" x="56.399994"/>
       <use xlink:href="#Ubuntu-30" x="112.799988"/>
       <use xlink:href="#Ubuntu-30" x="169.199982"/>
       <use xlink:href="#Ubuntu-30" x="225.599976"/>
      </g>
     </g>
    </g>
    <g id="ytick_7">
     <g id="line2d_17">
      <g>
       <use xlink:href="#m55e1019a11" x="38.7625" y="166.039375" style="fill: #cccccc; stroke: #cccccc; stroke-width: 0.75"/>
      </g>
     </g>
     <g id="text_20">
      <!-- 32000 -->
      <g style="fill: #808080" transform="translate(7.2 169.143125) scale(0.08 -0.08)">
       <use xlink:href="#Ubuntu-33"/>
       <use xlink:href="#Ubuntu-32" x="56.399994"/>
       <use xlink:href="#Ubuntu-30" x="112.799988"/>
       <use xlink:href="#Ubuntu-30" x="169.199982"/>
       <use xlink:href="#Ubuntu-30" x="225.599976"/>
      </g>
     </g>
    </g>
    <g id="ytick_8">
     <g id="line2d_18">
      <g>
       <use xlink:href="#m55e1019a11" x="38.7625" y="150.919375" style="fill: #cccccc; stroke: #cccccc; stroke-width: 0.75"/>
      </g>
     </g>
     <g id="text_21">
      <!-- 34000 -->
      <g style="fill: #808080" transform="translate(7.2 154.023125) scale(0.08 -0.08)">
       <use xlink:href="#Ubuntu-33"/>
       <use xlink:href="#Ubuntu-34" x="56.399994"/>
       <use xlink:href="#Ubuntu-30" x="112.799988"/>
       <use xlink:href="#Ubuntu-30" x="169.199982"/>
       <use xlink:href="#Ubuntu-30" x="225.599976"/>
      </g>
     </g>
    </g>
    <g id="ytick_9">
     <g id="line2d_19">
      <g>
       <use xlink:href="#m55e1019a11" x="38.7625" y="135.799375" style="fill: #cccccc; stroke: #cccccc; stroke-width: 0.75"/>
      </g>
     </g>
     <g id="text_22">
      <!-- 36000 -->
      <g style="fill: #808080" transform="translate(7.2 138.903125) scale(0.08 -0.08)">
       <defs>
        <path id="Ubuntu-36" d="M 403 1779 
Q 403 2426 582 2922 
Q 762 3418 1091 3757 
Q 1421 4096 1891 4272 
Q 2362 4448 2950 4454 
L 2995 3955 
Q 2618 3949 2307 3872 
Q 1997 3795 1753 3628 
Q 1510 3462 1344 3196 
Q 1178 2931 1094 2541 
Q 1261 2618 1469 2669 
Q 1677 2720 1901 2720 
Q 2278 2720 2540 2605 
Q 2803 2490 2969 2301 
Q 3136 2112 3209 1865 
Q 3283 1619 3283 1350 
Q 3283 1107 3200 851 
Q 3117 595 2947 384 
Q 2778 173 2515 38 
Q 2253 -96 1894 -96 
Q 1165 -96 784 403 
Q 403 902 403 1779 
z
M 1837 2234 
Q 1613 2234 1421 2192 
Q 1229 2150 1037 2067 
Q 1030 1997 1027 1923 
Q 1024 1850 1024 1779 
Q 1024 1498 1062 1248 
Q 1101 998 1200 809 
Q 1299 621 1465 509 
Q 1632 397 1888 397 
Q 2099 397 2246 486 
Q 2394 576 2490 717 
Q 2586 858 2627 1021 
Q 2669 1184 2669 1338 
Q 2669 1773 2461 2003 
Q 2253 2234 1837 2234 
z
" transform="scale(0.015625)"/>
       </defs>
       <use xlink:href="#Ubuntu-33"/>
       <use xlink:href="#Ubuntu-36" x="56.399994"/>
       <use xlink:href="#Ubuntu-30" x="112.799988"/>
       <use xlink:href="#Ubuntu-30" x="169.199982"/>
       <use xlink:href="#Ubuntu-30" x="225.599976"/>
      </g>
     </g>
    </g>
   </g>
   <g id="PolyCollection_1">
    <defs>
     <path id="m3b79a440d3" d="M 53.138971 -57.956313 
L 53.138971 -41.595036 
L 67.727206 -62.30471 
L 82.315441 -51.186536 
L 96.903676 -62.652189 
L 111.491912 -61.027607 
L 126.080147 -60.559217 
L 140.668382 -43.050059 
L 155.256618 -66.119973 
L 169.844853 -63.628594 
L 184.433088 -69.16134 
L 199.021324 -68.162966 
L 213.609559 -65.352108 
L 228.197794 -62.084933 
L 242.786029 -48.390013 
L 257.374265 -67.539171 
L 271.9625 -68.06153 
L 286.550735 -67.217421 
L 301.138971 -66.762069 
L 315.727206 -63.70578 
L 330.315441 -63.21809 
L 344.903676 -59.254105 
L 359.491912 -71.025182 
L 374.080147 -73.131423 
L 388.668382 -69.989553 
L 403.256618 -73.285035 
L 417.844853 -75.284296 
L 432.433088 -76.258916 
L 447.021324 -65.778542 
L 461.609559 -77.37074 
L 476.197794 -76.115285 
L 490.786029 -76.523194 
L 490.786029 -93.640422 
L 490.786029 -93.640422 
L 476.197794 -92.554707 
L 461.609559 -94.165755 
L 447.021324 -83.061578 
L 432.433088 -93.469227 
L 417.844853 -93.04281 
L 403.256618 -91.696585 
L 388.668382 -87.353691 
L 374.080147 -90.396695 
L 359.491912 -89.568019 
L 344.903676 -73.602638 
L 330.315441 -78.343212 
L 315.727206 -78.929273 
L 301.138971 -83.564206 
L 286.550735 -82.815659 
L 271.9625 -83.941595 
L 257.374265 -83.105715 
L 242.786029 -64.431854 
L 228.197794 -77.03192 
L 213.609559 -80.665512 
L 199.021324 -84.016377 
L 184.433088 -84.443017 
L 169.844853 -79.925591 
L 155.256618 -82.104705 
L 140.668382 -59.742721 
L 126.080147 -76.123729 
L 111.491912 -76.507793 
L 96.903676 -79.407264 
L 82.315441 -67.117761 
L 67.727206 -77.882094 
L 53.138971 -57.956313 
z
" style="stroke: #4e9a73; stroke-opacity: 0.2"/>
    </defs>
    <g clip-path="url(#p56d355b2c7)">
     <use xlink:href="#m3b79a440d3" x="0" y="236.154531" style="fill: #4e9a73; fill-opacity: 0.2; stroke: #4e9a73; stroke-opacity: 0.2"/>
    </g>
   </g>
   <g id="line2d_20">
    <path d="M 53.138971 185.948862 
L 67.727206 166.535774 
L 82.315441 176.966095 
L 96.903676 165.240246 
L 111.491912 167.609872 
L 126.080147 167.646226 
L 140.668382 184.945489 
L 155.256618 162.267142 
L 169.844853 164.679732 
L 184.433088 159.676747 
L 199.021324 160.335747 
L 213.609559 163.274481 
L 228.197794 166.130591 
L 242.786029 180.157324 
L 257.374265 161.297479 
L 271.9625 160.745557 
L 286.550735 161.115047 
L 301.138971 160.600141 
L 315.727206 164.923635 
L 330.315441 165.355257 
L 344.903676 169.766001 
L 359.491912 156.295155 
L 374.080147 154.718709 
L 388.668382 157.197397 
L 403.256618 153.860752 
L 417.844853 151.860616 
L 432.433088 151.1646 
L 447.021324 161.951852 
L 461.609559 149.67937 
L 476.197794 151.470635 
L 490.786029 150.995388 
" clip-path="url(#p56d355b2c7)" style="fill: none; stroke: #4e9a73; stroke-width: 1.2; stroke-linecap: square"/>
   </g>
   <g id="patch_6">
    <path d="M 38.7625 196.279375 
L 38.7625 135.799375 
" style="fill: none; stroke: #cccccc; stroke-width: 0.75; stroke-linejoin: miter; stroke-linecap: square"/>
   </g>
  </g>
 </g>
 <defs>
  <clipPath id="p3dd8dfde69">
   <rect x="48.7625" y="29.959375" width="446.4" height="60.48"/>
  </clipPath>
  <clipPath id="p56d355b2c7">
   <rect x="48.7625" y="135.799375" width="446.4" height="60.48"/>
  </clipPath>
 </defs>
</svg>
