<?xml version="1.0" encoding="utf-8" standalone="no"?>
<!DOCTYPE svg PUBLIC "-//W3C//DTD SVG 1.1//EN"
  "http://www.w3.org/Graphics/SVG/1.1/DTD/svg11.dtd">
<svg xmlns:xlink="http://www.w3.org/1999/xlink" width="519.010937pt" height="235.190625pt" viewBox="0 0 519.010937 235.190625" xmlns="http://www.w3.org/2000/svg" version="1.1">
 <metadata>
  <rdf:RDF xmlns:dc="http://purl.org/dc/elements/1.1/" xmlns:cc="http://creativecommons.org/ns#" xmlns:rdf="http://www.w3.org/1999/02/22-rdf-syntax-ns#">
   <cc:Work>
    <dc:type rdf:resource="http://purl.org/dc/dcmitype/StillImage"/>
    <dc:date>2024-04-25T22:22:36.586723</dc:date>
    <dc:format>image/svg+xml</dc:format>
    <dc:creator>
     <cc:Agent>
      <dc:title>Matplotlib v3.8.3, https://matplotlib.org/</dc:title>
     </cc:Agent>
    </dc:creator>
   </cc:Work>
  </rdf:RDF>
 </metadata>
 <defs>
  <style type="text/css">*{stroke-linejoin: round; stroke-linecap: butt}</style>
 </defs>
 <g id="figure_1">
  <g id="patch_1">
   <path d="M 0 235.190625 
L 519.010937 235.190625 
L 519.010937 0 
L 0 0 
L 0 235.190625 
z
" style="fill: none"/>
  </g>
  <g id="axes_1">
   <g id="patch_2">
    <path d="M 65.410938 90.439375 
L 511.810937 90.439375 
L 511.810937 29.959375 
L 65.410938 29.959375 
L 65.410938 90.439375 
z
" style="fill: none"/>
   </g>
   <g id="matplotlib.axis_1">
    <g id="xtick_1">
     <g id="line2d_1">
      <defs>
       <path id="m5af6bc3a5e" d="M 0 0 
L 0 3 
" style="stroke: #cccccc; stroke-width: 0.75"/>
      </defs>
      <g>
       <use xlink:href="#m5af6bc3a5e" x="69.787408" y="105.439375" style="fill: #cccccc; stroke: #cccccc; stroke-width: 0.75"/>
      </g>
     </g>
     <g id="text_1">
      <!-- 01 -->
      <g style="fill: #808080" transform="translate(65.274908 120.646875) scale(0.08 -0.08)">
       <defs>
        <path id="Ubuntu-30" d="M 320 2221 
Q 320 3334 713 3936 
Q 1107 4538 1805 4538 
Q 2502 4538 2896 3936 
Q 3290 3334 3290 2221 
Q 3290 1107 2896 505 
Q 2502 -96 1805 -96 
Q 1107 -96 713 505 
Q 320 1107 320 2221 
z
M 2662 2221 
Q 2662 2586 2620 2912 
Q 2579 3238 2480 3481 
Q 2381 3725 2214 3869 
Q 2048 4013 1805 4013 
Q 1562 4013 1395 3869 
Q 1229 3725 1129 3481 
Q 1030 3238 988 2912 
Q 947 2586 947 2221 
Q 947 1856 988 1529 
Q 1030 1203 1129 960 
Q 1229 717 1395 573 
Q 1562 429 1805 429 
Q 2048 429 2214 573 
Q 2381 717 2480 960 
Q 2579 1203 2620 1529 
Q 2662 1856 2662 2221 
z
" transform="scale(0.015625)"/>
        <path id="Ubuntu-31" d="M 595 3520 
Q 960 3661 1305 3881 
Q 1651 4102 1939 4435 
L 2362 4435 
L 2362 0 
L 1766 0 
L 1766 3610 
Q 1690 3539 1578 3462 
Q 1466 3386 1334 3315 
Q 1203 3245 1059 3181 
Q 915 3117 781 3072 
L 595 3520 
z
" transform="scale(0.015625)"/>
       </defs>
       <use xlink:href="#Ubuntu-30"/>
       <use xlink:href="#Ubuntu-31" x="56.399994"/>
      </g>
     </g>
    </g>
    <g id="xtick_2">
     <g id="line2d_2">
      <g>
       <use xlink:href="#m5af6bc3a5e" x="126.270649" y="105.439375" style="fill: #cccccc; stroke: #cccccc; stroke-width: 0.75"/>
      </g>
     </g>
     <g id="text_2">
      <!-- 05 -->
      <g style="fill: #808080" transform="translate(121.758149 120.646875) scale(0.08 -0.08)">
       <defs>
        <path id="Ubuntu-35" d="M 1274 2726 
Q 2240 2688 2691 2304 
Q 3142 1920 3142 1261 
Q 3142 966 3043 716 
Q 2944 467 2742 288 
Q 2541 109 2233 6 
Q 1926 -96 1504 -96 
Q 1338 -96 1165 -70 
Q 992 -45 845 -6 
Q 698 32 582 70 
Q 467 109 416 134 
L 531 653 
Q 640 602 886 518 
Q 1133 435 1491 435 
Q 1779 435 1974 499 
Q 2170 563 2291 672 
Q 2413 781 2467 925 
Q 2522 1069 2522 1229 
Q 2522 1472 2438 1661 
Q 2355 1850 2144 1978 
Q 1933 2106 1581 2173 
Q 1229 2240 691 2240 
Q 730 2554 752 2829 
Q 774 3104 793 3366 
Q 813 3629 825 3888 
Q 838 4147 851 4435 
L 2989 4435 
L 2989 3930 
L 1370 3930 
Q 1363 3834 1350 3670 
Q 1338 3507 1325 3331 
Q 1312 3155 1299 2988 
Q 1286 2822 1274 2726 
z
" transform="scale(0.015625)"/>
       </defs>
       <use xlink:href="#Ubuntu-30"/>
       <use xlink:href="#Ubuntu-35" x="56.399994"/>
      </g>
     </g>
    </g>
    <g id="xtick_3">
     <g id="line2d_3">
      <g>
       <use xlink:href="#m5af6bc3a5e" x="182.753891" y="105.439375" style="fill: #cccccc; stroke: #cccccc; stroke-width: 0.75"/>
      </g>
     </g>
     <g id="text_3">
      <!-- 09 -->
      <g style="fill: #808080" transform="translate(178.241391 120.646875) scale(0.08 -0.08)">
       <defs>
        <path id="Ubuntu-39" d="M 3206 2662 
Q 3206 1344 2550 669 
Q 1894 -6 602 -13 
L 582 486 
Q 986 486 1309 563 
Q 1632 640 1875 809 
Q 2118 979 2281 1248 
Q 2445 1517 2522 1907 
Q 2355 1830 2144 1782 
Q 1933 1734 1709 1734 
Q 1331 1734 1068 1846 
Q 806 1958 640 2147 
Q 474 2336 400 2582 
Q 326 2829 326 3098 
Q 326 3334 409 3590 
Q 493 3846 662 4057 
Q 832 4269 1094 4403 
Q 1357 4538 1715 4538 
Q 2080 4538 2358 4410 
Q 2637 4282 2825 4038 
Q 3014 3795 3110 3446 
Q 3206 3098 3206 2662 
z
M 1773 2221 
Q 1997 2221 2195 2262 
Q 2394 2304 2579 2387 
Q 2586 2458 2586 2525 
Q 2586 2592 2586 2662 
Q 2586 2938 2547 3190 
Q 2509 3443 2409 3632 
Q 2310 3821 2144 3933 
Q 1978 4045 1722 4045 
Q 1510 4045 1363 3955 
Q 1216 3866 1120 3728 
Q 1024 3590 982 3427 
Q 941 3264 941 3110 
Q 941 2675 1149 2448 
Q 1357 2221 1773 2221 
z
" transform="scale(0.015625)"/>
       </defs>
       <use xlink:href="#Ubuntu-30"/>
       <use xlink:href="#Ubuntu-39" x="56.399994"/>
      </g>
     </g>
    </g>
    <g id="xtick_4">
     <g id="line2d_4">
      <g>
       <use xlink:href="#m5af6bc3a5e" x="239.237132" y="105.439375" style="fill: #cccccc; stroke: #cccccc; stroke-width: 0.75"/>
      </g>
     </g>
     <g id="text_4">
      <!-- 13 -->
      <g style="fill: #808080" transform="translate(234.724632 120.646875) scale(0.08 -0.08)">
       <defs>
        <path id="Ubuntu-33" d="M 1446 435 
Q 2016 435 2262 659 
Q 2509 883 2509 1261 
Q 2509 1504 2406 1670 
Q 2304 1837 2137 1936 
Q 1971 2035 1750 2076 
Q 1530 2118 1299 2118 
L 1146 2118 
L 1146 2605 
L 1357 2605 
Q 1517 2605 1686 2637 
Q 1856 2669 1997 2752 
Q 2138 2835 2227 2979 
Q 2317 3123 2317 3341 
Q 2317 3520 2253 3648 
Q 2189 3776 2083 3859 
Q 1978 3942 1840 3977 
Q 1702 4013 1549 4013 
Q 1242 4013 1027 3923 
Q 813 3834 666 3738 
L 435 4192 
Q 512 4243 630 4304 
Q 749 4365 896 4416 
Q 1043 4467 1212 4502 
Q 1382 4538 1568 4538 
Q 1920 4538 2176 4451 
Q 2432 4365 2598 4208 
Q 2765 4051 2848 3836 
Q 2931 3622 2931 3373 
Q 2931 3027 2732 2780 
Q 2534 2534 2253 2406 
Q 2426 2355 2586 2259 
Q 2746 2163 2864 2016 
Q 2982 1869 3056 1677 
Q 3130 1485 3130 1248 
Q 3130 960 3030 713 
Q 2931 467 2723 288 
Q 2515 109 2201 6 
Q 1888 -96 1459 -96 
Q 1293 -96 1117 -70 
Q 941 -45 787 -6 
Q 634 32 518 70 
Q 403 109 352 134 
L 467 653 
Q 576 602 829 518 
Q 1082 435 1446 435 
z
" transform="scale(0.015625)"/>
       </defs>
       <use xlink:href="#Ubuntu-31"/>
       <use xlink:href="#Ubuntu-33" x="56.399994"/>
      </g>
     </g>
    </g>
    <g id="xtick_5">
     <g id="line2d_5">
      <g>
       <use xlink:href="#m5af6bc3a5e" x="295.720373" y="105.439375" style="fill: #cccccc; stroke: #cccccc; stroke-width: 0.75"/>
      </g>
     </g>
     <g id="text_5">
      <!-- 17 -->
      <g style="fill: #808080" transform="translate(291.207873 120.646875) scale(0.08 -0.08)">
       <defs>
        <path id="Ubuntu-37" d="M 1043 0 
Q 1082 512 1226 1078 
Q 1370 1645 1581 2179 
Q 1792 2714 2045 3171 
Q 2298 3629 2541 3917 
L 384 3917 
L 384 4435 
L 3206 4435 
L 3206 3942 
Q 2995 3699 2739 3273 
Q 2483 2848 2256 2320 
Q 2029 1792 1865 1193 
Q 1702 595 1664 0 
L 1043 0 
z
" transform="scale(0.015625)"/>
       </defs>
       <use xlink:href="#Ubuntu-31"/>
       <use xlink:href="#Ubuntu-37" x="56.399994"/>
      </g>
     </g>
    </g>
    <g id="xtick_6">
     <g id="line2d_6">
      <g>
       <use xlink:href="#m5af6bc3a5e" x="352.203615" y="105.439375" style="fill: #cccccc; stroke: #cccccc; stroke-width: 0.75"/>
      </g>
     </g>
     <g id="text_6">
      <!-- 21 -->
      <g style="fill: #808080" transform="translate(347.691115 120.646875) scale(0.08 -0.08)">
       <defs>
        <path id="Ubuntu-32" d="M 2989 3302 
Q 2989 3072 2896 2857 
Q 2803 2643 2649 2435 
Q 2496 2227 2304 2025 
Q 2112 1824 1920 1632 
Q 1811 1523 1667 1376 
Q 1523 1229 1395 1069 
Q 1267 909 1180 761 
Q 1094 614 1094 506 
L 3136 506 
L 3136 0 
L 448 0 
Q 442 38 442 76 
Q 442 115 442 147 
Q 442 448 541 707 
Q 640 966 800 1196 
Q 960 1427 1158 1632 
Q 1357 1837 1549 2029 
Q 1709 2182 1853 2332 
Q 1997 2483 2109 2633 
Q 2221 2784 2288 2944 
Q 2355 3104 2355 3283 
Q 2355 3475 2294 3609 
Q 2234 3744 2131 3833 
Q 2029 3923 1891 3964 
Q 1754 4006 1600 4006 
Q 1414 4006 1260 3955 
Q 1107 3904 985 3837 
Q 864 3770 781 3696 
Q 698 3622 653 3584 
L 358 4006 
Q 416 4070 531 4163 
Q 646 4256 806 4339 
Q 966 4422 1164 4480 
Q 1363 4538 1594 4538 
Q 2291 4538 2640 4214 
Q 2989 3891 2989 3302 
z
" transform="scale(0.015625)"/>
       </defs>
       <use xlink:href="#Ubuntu-32"/>
       <use xlink:href="#Ubuntu-31" x="56.399994"/>
      </g>
     </g>
    </g>
    <g id="xtick_7">
     <g id="line2d_7">
      <g>
       <use xlink:href="#m5af6bc3a5e" x="408.686856" y="105.439375" style="fill: #cccccc; stroke: #cccccc; stroke-width: 0.75"/>
      </g>
     </g>
     <g id="text_7">
      <!-- 25 -->
      <g style="fill: #808080" transform="translate(404.174356 120.646875) scale(0.08 -0.08)">
       <use xlink:href="#Ubuntu-32"/>
       <use xlink:href="#Ubuntu-35" x="56.399994"/>
      </g>
     </g>
    </g>
    <g id="xtick_8">
     <g id="line2d_8">
      <g>
       <use xlink:href="#m5af6bc3a5e" x="465.170097" y="105.439375" style="fill: #cccccc; stroke: #cccccc; stroke-width: 0.75"/>
      </g>
     </g>
     <g id="text_8">
      <!-- 29 -->
      <g style="fill: #808080" transform="translate(460.657597 120.646875) scale(0.08 -0.08)">
       <use xlink:href="#Ubuntu-32"/>
       <use xlink:href="#Ubuntu-39" x="56.399994"/>
      </g>
     </g>
    </g>
    <g id="xtick_9">
     <g id="line2d_9">
      <g>
       <use xlink:href="#m5af6bc3a5e" x="507.532528" y="105.439375" style="fill: #cccccc; stroke: #cccccc; stroke-width: 0.75"/>
      </g>
     </g>
    </g>
   </g>
   <g id="matplotlib.axis_2">
    <g id="ytick_1">
     <g id="line2d_10">
      <defs>
       <path id="md3c7f14f47" d="M 0 0 
L -3 0 
" style="stroke: #cccccc; stroke-width: 0.75"/>
      </defs>
      <g>
       <use xlink:href="#md3c7f14f47" x="55.410938" y="86.659375" style="fill: #cccccc; stroke: #cccccc; stroke-width: 0.75"/>
      </g>
     </g>
     <g id="text_9">
      <!-- 20000 -->
      <g style="fill: #808080" transform="translate(23.848438 89.763125) scale(0.08 -0.08)">
       <use xlink:href="#Ubuntu-32"/>
       <use xlink:href="#Ubuntu-30" x="56.399994"/>
       <use xlink:href="#Ubuntu-30" x="112.799988"/>
       <use xlink:href="#Ubuntu-30" x="169.199982"/>
       <use xlink:href="#Ubuntu-30" x="225.599976"/>
      </g>
     </g>
    </g>
    <g id="ytick_2">
     <g id="line2d_11">
      <g>
       <use xlink:href="#md3c7f14f47" x="55.410938" y="67.759375" style="fill: #cccccc; stroke: #cccccc; stroke-width: 0.75"/>
      </g>
     </g>
     <g id="text_10">
      <!-- 30000 -->
      <g style="fill: #808080" transform="translate(23.848438 70.863125) scale(0.08 -0.08)">
       <use xlink:href="#Ubuntu-33"/>
       <use xlink:href="#Ubuntu-30" x="56.399994"/>
       <use xlink:href="#Ubuntu-30" x="112.799988"/>
       <use xlink:href="#Ubuntu-30" x="169.199982"/>
       <use xlink:href="#Ubuntu-30" x="225.599976"/>
      </g>
     </g>
    </g>
    <g id="ytick_3">
     <g id="line2d_12">
      <g>
       <use xlink:href="#md3c7f14f47" x="55.410938" y="48.859375" style="fill: #cccccc; stroke: #cccccc; stroke-width: 0.75"/>
      </g>
     </g>
     <g id="text_11">
      <!-- 40000 -->
      <g style="fill: #808080" transform="translate(23.848438 51.963125) scale(0.08 -0.08)">
       <defs>
        <path id="Ubuntu-34" d="M 256 1536 
Q 378 1818 589 2192 
Q 800 2566 1065 2963 
Q 1331 3360 1635 3744 
Q 1939 4128 2246 4435 
L 2816 4435 
L 2816 1619 
L 3341 1619 
L 3341 1133 
L 2816 1133 
L 2816 0 
L 2240 0 
L 2240 1133 
L 256 1133 
L 256 1536 
z
M 2240 3731 
Q 2048 3526 1853 3273 
Q 1658 3021 1472 2745 
Q 1286 2470 1123 2182 
Q 960 1894 832 1619 
L 2240 1619 
L 2240 3731 
z
" transform="scale(0.015625)"/>
       </defs>
       <use xlink:href="#Ubuntu-34"/>
       <use xlink:href="#Ubuntu-30" x="56.399994"/>
       <use xlink:href="#Ubuntu-30" x="112.799988"/>
       <use xlink:href="#Ubuntu-30" x="169.199982"/>
       <use xlink:href="#Ubuntu-30" x="225.599976"/>
      </g>
     </g>
    </g>
    <g id="ytick_4">
     <g id="line2d_13">
      <g>
       <use xlink:href="#md3c7f14f47" x="55.410938" y="29.959375" style="fill: #cccccc; stroke: #cccccc; stroke-width: 0.75"/>
      </g>
     </g>
     <g id="text_12">
      <!-- 50000 -->
      <g style="fill: #808080" transform="translate(23.848438 33.063125) scale(0.08 -0.08)">
       <use xlink:href="#Ubuntu-35"/>
       <use xlink:href="#Ubuntu-30" x="56.399994"/>
       <use xlink:href="#Ubuntu-30" x="112.799988"/>
       <use xlink:href="#Ubuntu-30" x="169.199982"/>
       <use xlink:href="#Ubuntu-30" x="225.599976"/>
      </g>
     </g>
    </g>
    <g id="text_13">
     <!-- Target -->
     <g style="fill: #505050" transform="translate(14.156719 58.095625) rotate(-90) scale(0.09 -0.09)">
      <defs>
       <path id="Ubuntu-Bold-54" d="M 3802 4435 
L 3802 3584 
L 2464 3584 
L 2464 0 
L 1466 0 
L 1466 3584 
L 128 3584 
L 128 4435 
L 3802 4435 
z
" transform="scale(0.015625)"/>
       <path id="Ubuntu-Bold-61" d="M 1734 666 
Q 1875 666 2003 672 
Q 2131 678 2208 691 
L 2208 1414 
Q 2150 1427 2035 1440 
Q 1920 1453 1824 1453 
Q 1690 1453 1571 1437 
Q 1453 1421 1363 1376 
Q 1274 1331 1222 1254 
Q 1171 1178 1171 1062 
Q 1171 838 1321 752 
Q 1472 666 1734 666 
z
M 1658 3456 
Q 2080 3456 2361 3360 
Q 2643 3264 2812 3085 
Q 2982 2906 3052 2650 
Q 3123 2394 3123 2080 
L 3123 96 
Q 2918 51 2553 -9 
Q 2189 -70 1670 -70 
Q 1344 -70 1078 -12 
Q 813 45 621 176 
Q 429 307 326 518 
Q 224 730 224 1037 
Q 224 1331 342 1536 
Q 461 1741 659 1862 
Q 858 1984 1114 2038 
Q 1370 2093 1645 2093 
Q 1830 2093 1974 2077 
Q 2118 2061 2208 2035 
L 2208 2125 
Q 2208 2368 2061 2515 
Q 1914 2662 1549 2662 
Q 1306 2662 1069 2627 
Q 832 2592 659 2528 
L 538 3296 
Q 621 3322 745 3350 
Q 870 3379 1017 3401 
Q 1165 3424 1328 3440 
Q 1491 3456 1658 3456 
z
" transform="scale(0.015625)"/>
       <path id="Ubuntu-Bold-72" d="M 2477 2522 
Q 2349 2554 2176 2589 
Q 2003 2624 1805 2624 
Q 1715 2624 1590 2608 
Q 1466 2592 1402 2573 
L 1402 0 
L 448 0 
L 448 3187 
Q 704 3277 1053 3357 
Q 1402 3437 1830 3437 
Q 1907 3437 2016 3427 
Q 2125 3418 2233 3402 
Q 2342 3386 2451 3363 
Q 2560 3341 2637 3309 
L 2477 2522 
z
" transform="scale(0.015625)"/>
       <path id="Ubuntu-Bold-67" d="M 1261 1792 
Q 1261 992 1907 992 
Q 2054 992 2182 1030 
Q 2310 1069 2400 1120 
L 2400 2643 
Q 2330 2656 2234 2665 
Q 2138 2675 2010 2675 
Q 1632 2675 1446 2425 
Q 1261 2176 1261 1792 
z
M 3354 422 
Q 3354 -403 2934 -803 
Q 2515 -1203 1638 -1203 
Q 1331 -1203 1024 -1148 
Q 717 -1094 454 -1005 
L 621 -205 
Q 845 -294 1091 -345 
Q 1338 -397 1651 -397 
Q 2061 -397 2230 -217 
Q 2400 -38 2400 243 
L 2400 365 
Q 2246 294 2083 259 
Q 1920 224 1728 224 
Q 1030 224 659 637 
Q 288 1050 288 1792 
Q 288 2163 403 2467 
Q 518 2771 739 2988 
Q 960 3206 1280 3324 
Q 1600 3443 2003 3443 
Q 2176 3443 2358 3427 
Q 2541 3411 2720 3385 
Q 2899 3360 3062 3325 
Q 3226 3290 3354 3251 
L 3354 422 
z
" transform="scale(0.015625)"/>
       <path id="Ubuntu-Bold-65" d="M 288 1658 
Q 288 2106 425 2442 
Q 563 2778 787 3002 
Q 1011 3226 1302 3341 
Q 1594 3456 1901 3456 
Q 2618 3456 3034 3017 
Q 3450 2579 3450 1728 
Q 3450 1645 3443 1545 
Q 3437 1446 3430 1370 
L 1267 1370 
Q 1299 1075 1542 902 
Q 1786 730 2195 730 
Q 2458 730 2710 778 
Q 2963 826 3123 896 
L 3251 122 
Q 3174 83 3046 44 
Q 2918 6 2761 -22 
Q 2605 -51 2425 -70 
Q 2246 -90 2067 -90 
Q 1613 -90 1277 44 
Q 941 179 720 412 
Q 499 646 393 966 
Q 288 1286 288 1658 
z
M 2528 2022 
Q 2522 2144 2486 2259 
Q 2451 2374 2377 2464 
Q 2304 2554 2192 2611 
Q 2080 2669 1914 2669 
Q 1754 2669 1638 2614 
Q 1523 2560 1446 2470 
Q 1370 2381 1328 2262 
Q 1286 2144 1267 2022 
L 2528 2022 
z
" transform="scale(0.015625)"/>
       <path id="Ubuntu-Bold-74" d="M 416 4205 
L 1370 4358 
L 1370 3366 
L 2515 3366 
L 2515 2573 
L 1370 2573 
L 1370 1389 
Q 1370 1088 1475 909 
Q 1581 730 1901 730 
Q 2054 730 2217 758 
Q 2381 787 2515 838 
L 2650 96 
Q 2477 26 2265 -25 
Q 2054 -77 1747 -77 
Q 1357 -77 1101 28 
Q 845 134 691 323 
Q 538 512 477 781 
Q 416 1050 416 1376 
L 416 4205 
z
" transform="scale(0.015625)"/>
      </defs>
      <use xlink:href="#Ubuntu-Bold-54"/>
      <use xlink:href="#Ubuntu-Bold-61" x="53.899994"/>
      <use xlink:href="#Ubuntu-Bold-72" x="109.199982"/>
      <use xlink:href="#Ubuntu-Bold-67" x="150.399979"/>
      <use xlink:href="#Ubuntu-Bold-65" x="209.799973"/>
      <use xlink:href="#Ubuntu-Bold-74" x="268.199966"/>
     </g>
    </g>
   </g>
   <g id="line2d_14">
    <path d="M 69.787408 68.897093 
L 70.375775 75.417035 
L 70.866081 79.200505 
L 70.964142 79.319483 
L 71.552509 80.93757 
L 71.944754 80.390276 
L 72.042815 79.129119 
L 72.140876 79.343278 
L 72.631182 82.769817 
L 72.925366 88.909033 
L 73.023427 89.527713 
L 73.121488 91.026824 
L 73.219549 90.598507 
L 73.415672 89.313555 
L 73.513733 89.146987 
L 73.709855 89.408736 
L 74.004039 87.981012 
L 75.180773 75.70258 
L 75.376896 72.847131 
L 75.474957 72.466405 
L 75.671079 69.396797 
L 75.76914 69.135047 
L 76.161385 65.637122 
L 76.259446 65.113623 
L 76.357507 63.971443 
L 76.455569 64.042829 
L 76.651691 63.20999 
L 76.945874 62.781673 
L 77.043936 62.234378 
L 77.141997 62.353355 
L 77.240058 62.686491 
L 77.338119 62.400946 
L 77.534242 63.328967 
L 77.632303 64.209397 
L 77.730364 63.947648 
L 77.828425 64.042829 
L 78.024547 65.089827 
L 78.122609 65.375372 
L 78.22067 65.2326 
L 78.318731 65.375372 
L 78.514853 66.255803 
L 78.612915 66.303393 
L 78.710976 67.017256 
L 78.809037 66.898279 
L 79.005159 66.922074 
L 79.495465 68.254617 
L 79.88771 69.135047 
L 79.985771 68.992275 
L 80.083832 69.349206 
L 80.279955 68.801911 
L 80.476077 68.516366 
L 80.770261 64.92326 
L 80.966383 59.569292 
L 81.260566 45.625182 
L 81.652811 43.174255 
L 81.750872 43.055278 
L 81.848934 44.054685 
L 82.045056 42.198643 
L 82.143117 40.747123 
L 82.829545 48.337859 
L 83.712096 66.184416 
L 84.790769 76.84476 
L 85.379136 79.390869 
L 85.575259 79.057733 
L 85.67332 79.081528 
L 85.967503 79.652618 
L 86.065564 78.891165 
L 86.163626 76.987532 
L 86.261687 77.320668 
L 86.55587 79.271892 
L 86.751993 79.961959 
L 87.046176 84.744836 
L 87.144237 84.578268 
L 87.242299 84.649654 
L 87.438421 81.461069 
L 87.634543 79.224301 
L 87.928727 79.343278 
L 89.105461 68.492571 
L 89.203522 69.01607 
L 89.497706 65.208805 
L 89.988012 59.688269 
L 90.478318 57.879818 
L 90.772501 55.619254 
L 90.870562 55.524073 
L 91.360868 57.618069 
L 91.458929 57.832227 
L 91.655052 57.427705 
L 91.851174 58.54609 
L 91.949235 58.450908 
L 92.047297 58.831635 
L 92.243419 59.759656 
L 92.537602 60.640086 
L 92.635664 61.44913 
L 92.831786 60.592495 
L 93.027908 61.877447 
L 93.12597 61.591902 
L 93.224031 61.75847 
L 93.420153 62.615105 
L 93.518214 62.6389 
L 93.812398 63.20999 
L 94.106581 63.447944 
L 94.302704 62.757877 
L 94.498826 61.782265 
L 95.087193 53.287304 
L 95.381377 39.224217 
L 95.577499 38.153424 
L 95.67556 38.319991 
L 95.969744 39.700125 
L 96.067805 39.533557 
L 96.165866 39.819102 
L 96.46005 42.793528 
L 96.656172 44.102276 
L 97.636784 61.734675 
L 98.029029 69.563365 
L 98.225151 71.229043 
L 98.421273 72.728154 
L 99.107702 78.03453 
L 99.303824 78.058326 
L 99.401885 78.367666 
L 99.499946 78.248689 
L 99.696069 78.653211 
L 99.79413 78.653211 
L 99.990252 79.057733 
L 100.186375 78.153507 
L 100.284436 76.678192 
L 100.382497 76.773374 
L 100.872803 79.271892 
L 101.166987 84.649654 
L 101.363109 84.554473 
L 101.559231 82.222523 
L 101.755354 79.866777 
L 101.853415 79.771595 
L 102.049537 80.366481 
L 102.343721 77.558622 
L 102.539843 83.269521 
L 103.226271 76.416443 
L 104.304944 67.87389 
L 104.599128 66.279598 
L 104.79525 65.303986 
L 104.991373 64.732896 
L 105.187495 64.994646 
L 105.285556 65.042237 
L 105.481679 65.565736 
L 105.57974 66.636529 
L 105.775862 65.161214 
L 105.873923 65.470554 
L 105.971985 65.399168 
L 106.168107 66.350984 
L 106.560352 65.613326 
L 106.756474 66.99346 
L 106.854535 67.897686 
L 107.24678 64.590124 
L 107.344841 64.851873 
L 107.442902 64.471147 
L 107.540963 64.613919 
L 107.639025 64.399761 
L 107.737086 65.042237 
L 107.835147 62.424742 
L 107.933208 62.543719 
L 108.031269 63.091013 
L 108.129331 62.757877 
L 108.325453 61.687084 
L 108.717698 59.902428 
L 109.208004 51.050536 
L 109.502187 38.748309 
L 109.600248 37.915469 
L 109.698309 38.105833 
L 109.796371 37.891674 
L 109.992493 38.248605 
L 110.188615 39.390785 
L 110.286677 39.581148 
L 111.071166 49.765584 
L 111.659533 62.06781 
L 112.444023 72.18086 
L 112.640145 73.870334 
L 112.934329 76.392647 
L 113.228512 78.272485 
L 113.522696 78.343871 
L 113.718818 78.248689 
L 113.816879 78.629416 
L 113.91494 78.153507 
L 114.013002 78.272485 
L 114.209124 78.082121 
L 114.405246 75.869148 
L 114.69943 77.748985 
L 114.797491 77.772781 
L 114.993613 78.962551 
L 115.287797 84.649654 
L 115.385858 84.744836 
L 115.483919 84.649654 
L 116.072286 79.509846 
L 116.170348 80.05714 
L 116.464531 77.035123 
L 116.758715 75.39324 
L 117.150959 71.300429 
L 117.347082 70.277227 
L 118.327694 60.283155 
L 118.817999 56.737639 
L 119.014122 55.881004 
L 119.112183 56.190344 
L 119.210244 56.047572 
L 119.406367 57.237342 
L 119.504428 57.261138 
L 119.70055 58.950612 
L 119.798611 58.831635 
L 120.48504 60.735267 
L 120.583101 60.425927 
L 121.073407 61.18738 
L 121.36759 60.735267 
L 121.465651 60.830449 
L 121.661774 62.6389 
L 121.759835 62.496128 
L 121.955957 60.711472 
L 122.054019 60.997017 
L 122.15208 61.234971 
L 122.838508 56.499685 
L 123.230753 51.574035 
L 123.721059 38.462764 
L 123.917181 38.082037 
L 124.015242 38.129628 
L 124.799732 42.293825 
L 125.093915 46.0535 
L 125.682282 58.903021 
L 125.878405 62.353355 
L 126.368711 69.230229 
L 126.466772 69.682342 
L 127.055139 75.583603 
L 127.1532 75.369445 
L 127.447384 78.201098 
L 127.545445 78.010735 
L 127.643506 78.439052 
L 127.839628 77.796576 
L 127.937689 78.153507 
L 128.133812 77.630008 
L 128.329934 77.98694 
L 128.526057 76.249875 
L 128.624118 76.321261 
L 128.722179 76.53542 
L 128.82024 77.582418 
L 128.918301 77.487236 
L 129.114424 79.033938 
L 129.408607 83.721633 
L 129.60473 84.840018 
L 130.193097 79.819186 
L 130.291158 80.31889 
L 130.977586 73.299244 
L 131.565953 67.731118 
L 132.448504 60.211768 
L 132.546565 59.616883 
L 132.840749 56.856616 
L 133.036871 55.524073 
L 133.134932 55.262323 
L 133.232993 55.452686 
L 133.429116 57.522887 
L 133.82136 60.425927 
L 134.017483 58.950612 
L 134.115544 59.11718 
L 134.213605 58.784044 
L 134.60585 60.711472 
L 134.998095 61.591902 
L 135.096156 62.6389 
L 135.194217 62.353355 
L 135.488401 63.566921 
L 135.586462 63.305172 
L 135.684523 65.518145 
L 135.880645 63.804875 
L 135.978706 64.637715 
L 136.076768 64.256988 
L 136.174829 64.375965 
L 136.27289 64.304579 
L 136.370951 64.875669 
L 136.567074 64.328374 
L 136.763196 63.47174 
L 136.861257 63.590717 
L 136.959318 63.424149 
L 137.449624 55.64305 
L 137.743808 42.127257 
L 137.93993 40.24742 
L 138.037991 39.795307 
L 138.234114 40.080852 
L 138.332175 40.009465 
L 138.72442 42.079666 
L 138.822481 42.246234 
L 139.018603 43.4598 
L 139.999215 60.021405 
L 140.293399 65.994053 
L 140.881766 72.632972 
L 141.568194 77.011328 
L 141.666255 77.1541 
L 141.862377 78.462848 
L 142.156561 79.033938 
L 142.254622 79.129119 
L 142.450745 78.653211 
L 142.646867 77.249282 
L 142.744928 77.1541 
L 142.94105 78.010735 
L 143.039112 78.224894 
L 143.235234 80.31889 
L 143.431356 84.649654 
L 143.72554 85.887016 
L 143.823601 85.720448 
L 144.313907 81.484865 
L 144.411968 81.699024 
L 144.510029 80.866184 
L 144.706152 78.29628 
L 144.902274 76.725783 
L 145.098396 74.25106 
L 145.294519 70.372408 
L 146.275131 60.592495 
L 146.569314 59.140975 
L 146.667375 58.736453 
L 146.765437 59.950019 
L 147.255742 56.071367 
L 147.353804 56.856616 
L 147.451865 56.666252 
L 147.549926 57.189751 
L 147.647987 57.070774 
L 147.746048 57.570478 
L 147.84411 57.308728 
L 148.040232 58.260545 
L 148.236354 58.712658 
L 148.530538 58.593681 
L 149.118905 60.640086 
L 149.51115 63.067218 
L 149.609211 63.138604 
L 149.707272 62.829264 
L 149.805333 63.257581 
L 149.903394 63.138604 
L 150.001456 63.566921 
L 150.099517 63.400353 
L 150.295639 63.614512 
L 150.491762 63.828671 
L 150.589823 64.423556 
L 150.785945 63.543126 
L 150.982067 63.852466 
L 151.17819 63.305172 
L 151.472373 60.259359 
L 151.668496 53.215918 
L 151.864618 43.293232 
L 152.158802 40.24742 
L 152.256863 39.98567 
L 152.551046 41.246827 
L 152.84523 43.269437 
L 152.943291 43.174255 
L 153.041352 43.650163 
L 154.218086 57.951205 
L 154.806454 71.086271 
L 155.100637 74.013106 
L 155.198698 74.417628 
L 155.590943 77.772781 
L 155.689004 78.391462 
L 155.787065 77.867963 
L 156.277371 80.176117 
L 156.571555 79.462255 
L 156.669616 78.153507 
L 156.767677 78.29628 
L 156.865738 78.677006 
L 156.9638 78.629416 
L 157.159922 79.248096 
L 157.356044 82.936385 
L 157.650228 88.076193 
L 157.748289 88.385534 
L 157.84635 89.170782 
L 157.944411 89.075601 
L 158.042473 89.123191 
L 158.238595 88.718669 
L 158.532779 87.076786 
L 159.121146 82.722226 
L 159.905635 75.654989 
L 160.101757 72.22845 
L 160.29788 71.03868 
L 160.984308 66.11303 
L 161.082369 66.398575 
L 161.278492 66.017848 
L 161.474614 65.375372 
L 161.866859 65.756099 
L 162.161042 64.994646 
L 162.259103 65.018441 
L 162.357165 64.471147 
L 162.455226 64.613919 
L 162.651348 65.613326 
L 162.749409 65.54194 
L 162.847471 65.756099 
L 162.945532 65.589531 
L 163.043593 65.827485 
L 163.337776 67.231414 
L 163.533899 66.99346 
L 164.024205 68.563957 
L 164.122266 69.135047 
L 164.220327 69.063661 
L 164.514511 69.753728 
L 164.612572 69.610955 
L 164.808694 69.920296 
L 164.906755 69.991682 
L 165.102878 69.444387 
L 165.299 68.44498 
L 165.397061 67.802504 
L 165.691245 62.377151 
L 166.181551 42.745938 
L 166.769918 40.818509 
L 166.867979 40.985077 
L 167.064101 40.794714 
L 168.142774 59.497906 
L 168.731142 69.373001 
L 169.221447 74.489014 
L 169.907876 77.701395 
L 170.103998 78.320075 
L 170.202059 78.439052 
L 170.398182 78.010735 
L 170.790426 75.70258 
L 171.280732 77.511031 
L 171.672977 83.412293 
L 171.869099 83.79302 
L 172.065222 82.603249 
L 172.359405 79.129119 
L 172.555528 78.010735 
L 172.653589 78.058326 
L 173.143895 73.132676 
L 173.241956 72.823336 
L 173.634201 68.587753 
L 173.928384 67.516959 
L 174.516751 60.735267 
L 174.614812 61.092199 
L 175.007057 56.856616 
L 175.105118 56.642457 
L 175.20318 55.95239 
L 175.301241 57.09457 
L 175.399302 62.162992 
L 175.497363 61.544311 
L 175.595424 57.09457 
L 175.693486 57.594273 
L 175.987669 55.833413 
L 176.183791 56.785229 
L 176.281853 56.713843 
L 176.379914 56.475889 
L 176.477975 57.308728 
L 176.576036 56.999388 
L 176.772159 57.522887 
L 176.87022 57.475296 
L 176.968281 57.760841 
L 177.066342 57.261138 
L 177.164403 57.475296 
L 177.262464 58.355726 
L 177.458587 57.856023 
L 177.556648 58.141568 
L 177.850832 59.878633 
L 177.948893 60.140382 
L 178.046954 60.045201 
L 178.243076 60.687677 
L 178.341137 60.901835 
L 178.439199 60.30695 
L 178.635321 61.925038 
L 178.831443 60.759063 
L 179.027566 61.520516 
L 179.125627 61.568107 
L 179.615933 58.070182 
L 179.812055 53.62044 
L 180.2043 38.296196 
L 180.400422 36.844676 
L 180.596545 36.987448 
L 180.694606 37.487152 
L 180.792667 37.439561 
L 180.890728 37.463357 
L 181.479095 43.650163 
L 181.87134 51.145717 
L 183.146135 72.371223 
L 183.636441 75.226672 
L 183.832564 75.726376 
L 183.930625 76.202284 
L 184.126747 77.748985 
L 184.420931 77.296873 
L 184.617053 77.035123 
L 184.813176 76.53542 
L 184.911237 75.036309 
L 185.401543 77.392054 
L 185.597665 79.771595 
L 185.793787 82.38909 
L 185.98991 83.22193 
L 186.087971 82.841203 
L 186.284093 79.48605 
L 186.480216 77.511031 
L 186.578277 76.797169 
L 186.676338 77.201691 
L 186.774399 77.106509 
L 187.166644 74.25106 
L 187.264705 75.797762 
L 187.362766 80.199913 
L 187.460827 79.700209 
L 187.951133 74.108288 
L 188.049195 73.822743 
L 188.441439 69.373001 
L 188.637562 67.731118 
L 189.029806 63.352763 
L 189.225929 60.782858 
L 189.716235 56.237935 
L 189.814296 56.285526 
L 189.912357 55.595459 
L 190.010418 55.976185 
L 190.108479 55.881004 
L 190.402663 56.166549 
L 190.500724 55.333709 
L 190.598785 56.428298 
L 190.696846 56.333117 
L 190.794908 56.452094 
L 190.99103 57.451501 
L 191.285214 56.571071 
L 191.873581 59.259952 
L 191.971642 58.736453 
L 192.069703 58.903021 
L 192.265825 60.30695 
L 192.461948 59.926224 
L 192.560009 60.116587 
L 192.65807 60.5687 
L 192.756131 61.734675 
L 192.854192 61.496721 
L 192.952254 61.615698 
L 193.246437 60.116587 
L 193.344498 60.235564 
L 193.638682 59.402725 
L 193.834804 56.785229 
L 193.932866 54.76262 
L 194.32511 38.986263 
L 194.521233 38.415173 
L 194.619294 38.438968 
L 194.717355 38.082037 
L 195.011539 39.057649 
L 195.305722 40.009465 
L 195.796028 46.172477 
L 196.090212 52.192715 
L 196.874701 67.397982 
L 197.855313 76.53542 
L 197.953374 76.606806 
L 198.247558 77.582418 
L 198.345619 77.106509 
L 198.639802 77.820372 
L 198.835925 77.130305 
L 199.032047 74.584196 
L 199.130108 74.964923 
L 199.326231 76.083307 
L 199.424292 76.321261 
L 199.718475 79.890572 
L 199.914598 83.935792 
L 200.012659 84.387905 
L 200.306842 82.032159 
L 200.699087 77.487236 
L 200.797148 77.177896 
L 200.895209 77.796576 
L 201.483577 72.323632 
L 201.77776 68.968479 
L 201.875821 68.873298 
L 202.268066 63.51933 
L 202.856433 58.403317 
L 203.052556 57.023184 
L 203.542861 55.214732 
L 203.640923 55.190937 
L 203.738984 55.024369 
L 203.837045 54.548461 
L 203.935106 55.119551 
L 204.033167 55.000574 
L 204.22929 55.500277 
L 204.425412 56.594866 
L 204.621534 56.071367 
L 204.719596 56.190344 
L 204.817657 56.785229 
L 205.013779 55.738231 
L 205.307963 57.380115 
L 205.406024 57.332524 
L 205.602146 58.379522 
L 205.798269 59.378929 
L 205.89633 58.903021 
L 205.994391 58.998203 
L 206.288575 60.378336 
L 206.386636 60.735267 
L 206.484697 60.521109 
L 206.680819 61.901243 
L 206.876942 61.568107 
L 207.171125 60.711472 
L 207.367248 59.355134 
L 207.465309 59.355134 
L 207.955615 55.119551 
L 208.053676 53.501463 
L 208.543982 37.177812 
L 208.642043 36.892267 
L 208.936226 38.296196 
L 209.034288 38.391378 
L 209.132349 37.96306 
L 209.328471 39.129035 
L 209.426532 39.366989 
L 209.720716 43.245641 
L 211.191634 69.27782 
L 211.68194 73.94172 
L 212.270307 76.511624 
L 212.368368 76.345056 
L 212.466429 76.416443 
L 212.56449 76.678192 
L 213.054796 75.631194 
L 213.152857 74.441424 
L 213.447041 76.939942 
L 213.643163 77.368259 
L 213.741224 78.03453 
L 214.035408 83.935792 
L 214.133469 84.007178 
L 214.525714 81.056547 
L 214.721836 78.795984 
L 215.212142 76.083307 
L 215.310203 75.012513 
L 215.408265 75.583603 
L 215.89857 69.182638 
L 215.996632 67.136233 
L 216.094693 67.885788 
L 216.192754 65.458656 
L 216.290815 65.898871 
L 216.388876 65.565736 
L 216.781121 61.401539 
L 217.271427 58.748351 
L 217.369488 58.807839 
L 217.565611 57.201649 
L 218.055916 55.083858 
L 218.3501 55.916697 
L 218.546222 54.65554 
L 218.840406 56.499685 
L 218.938467 55.452686 
L 219.232651 55.95239 
L 219.722957 58.070182 
L 219.821018 58.165363 
L 220.01714 59.021998 
L 220.115201 58.903021 
L 220.311324 59.307543 
L 220.507446 60.140382 
L 220.605507 60.449723 
L 220.703568 60.187973 
L 220.899691 61.115994 
L 220.997752 62.377151 
L 221.095813 62.044015 
L 221.291936 60.521109 
L 221.68418 59.045793 
L 222.076425 55.762027 
L 222.272547 49.00413 
L 222.566731 38.914877 
L 222.762853 37.368175 
L 223.057037 37.891674 
L 223.253159 38.438968 
L 223.35122 38.84349 
L 223.743465 42.650756 
L 224.037649 47.029111 
L 224.331832 53.406281 
L 224.920199 64.494942 
L 225.312444 69.944091 
L 225.508566 71.300429 
L 225.900811 75.155286 
L 226.391117 77.844167 
L 226.489178 77.939349 
L 226.587239 78.248689 
L 226.783362 77.772781 
L 226.979484 77.177896 
L 227.077545 77.296873 
L 227.273668 75.607399 
L 227.46979 76.511624 
L 227.763974 77.915553 
L 227.960096 81.19932 
L 228.156218 83.007771 
L 228.352341 84.221337 
L 228.450402 84.078565 
L 228.646524 80.842389 
L 228.940708 76.820965 
L 229.13683 77.296873 
L 229.234891 76.939942 
L 229.725197 72.632972 
L 229.823258 72.133269 
L 230.019381 70.324818 
L 231.098054 60.164178 
L 231.196115 60.854245 
L 231.980604 54.429484 
L 232.176727 54.691233 
L 232.47091 56.880411 
L 232.667033 57.903614 
L 232.765094 57.808432 
L 232.961216 56.999388 
L 233.059277 57.475296 
L 233.157339 57.380115 
L 233.2554 57.499092 
L 233.647645 58.926816 
L 233.745706 58.736453 
L 233.941828 59.569292 
L 234.039889 61.282562 
L 234.13795 61.139789 
L 234.432134 62.781673 
L 234.530195 62.853059 
L 234.726318 62.400946 
L 234.92244 62.448537 
L 235.020501 62.06781 
L 235.118562 62.424742 
L 235.216623 62.044015 
L 235.412746 62.305765 
L 235.706929 62.496128 
L 235.903052 60.87804 
L 236.099174 59.236157 
L 236.295296 56.190344 
L 236.785602 39.938079 
L 236.883664 39.938079 
L 237.079786 39.152831 
L 237.177847 39.224217 
L 237.275908 38.938672 
L 237.668153 40.794714 
L 237.962337 42.745938 
L 238.158459 45.196865 
L 239.139071 64.542533 
L 239.433254 68.278412 
L 239.92356 73.227858 
L 240.315805 75.13149 
L 240.70805 77.201691 
L 240.904172 76.939942 
L 241.002233 76.559215 
L 241.100294 76.654397 
L 241.198356 76.440238 
L 241.296417 75.345649 
L 241.394478 75.631194 
L 241.688662 77.772781 
L 241.786723 77.606213 
L 241.982845 78.510439 
L 242.37509 85.149358 
L 242.571212 85.363517 
L 243.061518 80.88998 
L 243.159579 81.461069 
L 243.25764 81.342092 
L 243.551824 77.201691 
L 243.747946 75.988125 
L 244.336313 69.135047 
L 244.434375 68.635344 
L 244.826619 63.067218 
L 245.022742 61.401539 
L 245.218864 60.592495 
L 245.513048 57.499092 
L 245.611109 57.356319 
L 245.807231 57.689455 
L 246.101415 56.023776 
L 246.297537 55.881004 
L 246.395598 55.428891 
L 246.493659 55.666845 
L 246.689782 57.332524 
L 246.885904 56.428298 
L 247.278149 57.998795 
L 247.572332 59.378929 
L 247.670394 59.283747 
L 247.768455 60.211768 
L 247.866516 59.878633 
L 247.964577 60.830449 
L 248.1607 68.468776 
L 248.258761 68.159435 
L 248.454883 64.590124 
L 248.552944 65.589531 
L 248.651006 64.066625 
L 248.749067 64.304579 
L 248.847128 63.566921 
L 249.04325 64.709101 
L 249.141311 63.400353 
L 249.239373 63.447944 
L 249.533556 64.447351 
L 249.631617 64.994646 
L 249.82774 64.35217 
L 249.925801 64.566328 
L 250.121923 62.90065 
L 250.514168 54.786415 
L 250.808352 41.936894 
L 251.004474 39.98567 
L 251.102535 39.319399 
L 251.298657 39.747716 
L 251.592841 41.841712 
L 251.788963 41.841712 
L 252.671514 52.16892 
L 252.867636 54.976778 
L 253.652126 70.634158 
L 254.044371 74.631787 
L 254.730799 79.462255 
L 254.82886 79.414664 
L 254.926921 79.200505 
L 255.024982 79.248096 
L 255.123044 79.200505 
L 255.319166 79.343278 
L 255.515288 77.844167 
L 255.613349 78.177303 
L 256.201717 83.436088 
L 256.4959 88.052398 
L 256.593961 88.528306 
L 256.790084 88.14758 
L 256.888145 88.290352 
L 256.986206 87.957216 
L 257.084267 88.076193 
L 257.182328 87.957216 
L 257.378451 87.362331 
L 258.849369 73.465812 
L 259.437736 66.755506 
L 259.535797 66.279598 
L 259.82998 62.06781 
L 259.928042 61.734675 
L 260.124164 62.472332 
L 260.418347 60.735267 
L 260.61447 60.901835 
L 260.712531 60.782858 
L 260.908653 61.115994 
L 261.104776 60.164178 
L 261.49702 62.234378 
L 261.595082 62.210583 
L 261.693143 62.044015 
L 261.889265 64.97085 
L 262.085388 65.970258 
L 262.183449 65.851281 
L 262.379571 66.11303 
L 262.477632 65.922667 
L 262.967938 67.25521 
L 263.065999 67.231414 
L 263.262122 66.922074 
L 263.556305 67.969072 
L 263.654366 67.540755 
L 263.752428 67.731118 
L 264.046611 66.922074 
L 264.242734 66.279598 
L 264.438856 64.328374 
L 264.634978 58.593681 
L 264.929162 44.554389 
L 265.223345 42.103462 
L 265.321407 41.865507 
L 265.61559 40.271215 
L 266.203957 42.603165 
L 266.890386 55.762027 
L 267.772936 70.110659 
L 268.06712 72.418814 
L 268.263242 73.608584 
L 269.047732 77.748985 
L 269.439976 76.654397 
L 269.636099 75.226672 
L 269.73416 76.368852 
L 269.832221 76.345056 
L 270.028343 77.439645 
L 270.126405 77.72519 
L 270.322527 80.366481 
L 270.518649 84.078565 
L 270.714772 84.483086 
L 271.107016 79.985754 
L 271.303139 77.820372 
L 271.4012 77.915553 
L 271.499261 78.058326 
L 271.793445 74.917332 
L 271.891506 74.703173 
L 272.087628 73.584789 
L 272.577934 67.350391 
L 272.774056 66.208212 
L 272.872118 65.54194 
L 273.166301 62.162992 
L 273.460485 60.497313 
L 274.441097 56.166549 
L 274.539158 56.571071 
L 274.637219 56.047572 
L 274.833341 56.452094 
L 274.931402 56.333117 
L 275.127525 58.117772 
L 275.323647 57.689455 
L 275.421708 58.046386 
L 275.617831 57.261138 
L 275.813953 57.570478 
L 275.912014 57.71325 
L 276.010076 58.141568 
L 276.108137 57.784637 
L 276.40232 59.973814 
L 276.500381 59.783451 
L 276.598443 59.545497 
L 276.990687 61.139789 
L 277.18681 60.949426 
L 277.284871 61.115994 
L 277.579054 62.281969 
L 277.677116 62.115401 
L 277.971299 59.355134 
L 278.167422 60.473518 
L 278.559666 57.046979 
L 278.85385 44.578184 
L 279.049972 37.225403 
L 279.246095 36.249791 
L 279.442217 35.773883 
L 279.638339 36.701904 
L 280.422829 44.530593 
L 281.501502 66.065439 
L 282.089869 72.038087 
L 282.482114 75.060104 
L 282.874358 76.130898 
L 283.070481 76.868555 
L 283.364664 76.440238 
L 283.560787 77.130305 
L 283.658848 75.39324 
L 283.756909 75.631194 
L 284.345276 79.200505 
L 284.63946 83.650247 
L 284.737521 84.292723 
L 285.031704 83.150544 
L 285.325888 78.486643 
L 285.423949 78.486643 
L 285.52201 78.320075 
L 285.620071 77.72519 
L 285.914255 74.322446 
L 286.012316 74.25106 
L 286.208439 72.18086 
L 286.698744 67.635936 
L 286.992928 65.756099 
L 287.483234 60.497313 
L 287.97354 57.070774 
L 288.071601 57.356319 
L 288.561907 55.048165 
L 288.85609 56.166549 
L 288.954152 55.904799 
L 289.150274 57.261138 
L 289.346396 55.452686 
L 289.542519 56.83282 
L 289.64058 56.785229 
L 290.032825 57.760841 
L 290.130886 57.832227 
L 290.425069 59.093384 
L 290.523131 58.879225 
L 290.621192 59.069589 
L 290.719253 61.044608 
L 290.817314 59.450315 
L 290.915375 59.926224 
L 291.111498 61.948833 
L 291.30762 60.806654 
L 291.405681 60.449723 
L 291.699865 60.973222 
L 291.797926 60.925631 
L 292.190171 59.688269 
L 292.288232 59.474111 
L 292.680477 56.713843 
L 292.876599 51.098126 
L 293.170783 37.986856 
L 293.464966 36.178405 
L 293.563027 36.368768 
L 294.249456 41.032668 
L 295.033945 53.905985 
L 295.524251 64.685305 
L 296.014557 71.466997 
L 296.112618 71.91911 
L 296.504863 75.155286 
L 296.700985 76.107102 
L 296.799046 75.869148 
L 296.995169 76.297465 
L 297.191291 76.892351 
L 297.387413 76.725783 
L 297.485475 76.678192 
L 297.583536 76.868555 
L 297.681597 76.559215 
L 297.779658 74.703173 
L 298.073842 76.368852 
L 298.171903 76.202284 
L 298.269964 76.58301 
L 298.466086 79.010142 
L 298.76027 84.340314 
L 298.858331 84.268928 
L 299.054453 84.340314 
L 299.152515 83.84061 
L 299.544759 78.224894 
L 299.740882 78.03453 
L 301.113738 65.303986 
L 301.211799 63.495535 
L 301.309861 64.138011 
L 301.505983 61.639493 
L 301.604044 61.710879 
L 301.702105 61.353948 
L 302.192411 56.023776 
L 302.388534 53.477667 
L 302.584656 55.357505 
L 302.682717 55.119551 
L 302.780778 55.833413 
L 302.976901 55.286119 
L 303.074962 54.857801 
L 303.271084 55.785822 
L 303.467207 55.286119 
L 303.76139 56.428298 
L 304.055574 57.760841 
L 304.153635 57.784637 
L 304.251696 57.66566 
L 304.447819 58.974407 
L 304.54588 58.784044 
L 305.036186 60.473518 
L 305.232308 61.806061 
L 305.42843 62.044015 
L 305.526492 62.06781 
L 305.624553 62.567514 
L 305.722614 62.496128 
L 305.820675 62.162992 
L 305.918736 62.258174 
L 306.409042 60.045201 
L 306.801287 56.690048 
L 307.09547 46.267658 
L 307.291593 38.319991 
L 307.487715 35.89286 
L 307.585776 35.797678 
L 307.87996 38.058242 
L 308.076082 37.439561 
L 308.370266 40.532965 
L 309.056694 51.764398 
L 309.448939 59.926224 
L 310.331489 71.800133 
L 310.919857 76.368852 
L 311.017918 76.416443 
L 311.115979 76.27367 
L 311.410163 77.273077 
L 311.508224 77.1541 
L 311.704346 76.559215 
L 311.802407 76.416443 
L 311.900468 75.274263 
L 311.99853 75.464626 
L 312.194652 76.58301 
L 312.488836 77.249282 
L 312.586897 77.820372 
L 312.88108 83.864406 
L 312.979141 84.173746 
L 313.077203 84.078565 
L 313.273325 82.746022 
L 313.567509 78.914961 
L 313.861692 78.510439 
L 313.959753 76.84476 
L 314.057814 77.915553 
L 314.155876 77.130305 
L 314.450059 72.466405 
L 314.842304 67.731118 
L 314.940365 68.111845 
L 315.33261 64.209397 
L 315.528732 62.210583 
L 316.313222 57.784637 
L 316.509344 55.999981 
L 316.607405 56.356912 
L 316.803528 55.524073 
L 316.99965 56.356912 
L 317.097711 55.881004 
L 317.489956 57.380115 
L 317.588017 57.308728 
L 317.784139 55.738231 
L 317.882201 55.762027 
L 318.470568 58.236749 
L 318.568629 58.046386 
L 318.764751 59.521702 
L 319.058935 59.640679 
L 319.255057 61.377744 
L 319.353118 61.258766 
L 319.451179 60.87804 
L 319.549241 61.234971 
L 319.647302 61.163585 
L 319.745363 61.258766 
L 319.843424 61.068403 
L 319.941485 61.44913 
L 320.039547 61.234971 
L 320.235669 60.711472 
L 320.33373 61.687084 
L 320.922097 57.998795 
L 321.020158 56.594866 
L 321.216281 48.099905 
L 321.412403 39.010058 
L 321.706587 35.869064 
L 321.804648 36.035632 
L 321.902709 37.011244 
L 322.098831 36.77329 
L 322.294954 37.725106 
L 322.687199 41.342008 
L 323.275566 53.04935 
L 323.66781 60.830449 
L 324.550361 72.22845 
L 324.844545 73.989311 
L 325.33485 76.559215 
L 325.530973 76.654397 
L 325.629034 76.916146 
L 326.021279 74.51281 
L 326.11934 74.869741 
L 326.315462 76.130898 
L 326.413523 76.27367 
L 326.609646 77.844167 
L 327.001891 84.292723 
L 327.099952 83.911997 
L 327.198013 84.387905 
L 327.394135 83.269521 
L 327.688319 78.510439 
L 327.78638 78.558029 
L 327.982502 78.486643 
L 328.080564 78.010735 
L 328.963114 67.754913 
L 329.061175 67.778709 
L 329.257298 66.017848 
L 329.45342 62.567514 
L 329.747604 60.378336 
L 329.943726 59.212361 
L 330.041787 59.378929 
L 330.434032 57.427705 
L 330.826277 56.404503 
L 330.924338 56.618662 
L 331.316583 61.211176 
L 331.414644 61.806061 
L 331.512705 61.568107 
L 331.806889 59.42652 
L 331.90495 59.854837 
L 332.003011 60.021405 
L 332.101072 60.473518 
L 332.199133 60.402132 
L 332.297194 60.425927 
L 332.395256 60.330745 
L 332.7875 62.139197 
L 332.885562 63.757285 
L 332.983623 63.47174 
L 333.081684 62.615105 
L 333.473929 63.424149 
L 333.670051 63.305172 
L 333.964235 63.995239 
L 334.062296 63.757285 
L 334.258418 63.995239 
L 334.356479 63.757285 
L 334.650663 62.162992 
L 334.846785 61.092199 
L 335.042908 59.783451 
L 335.23903 55.524073 
L 335.631275 40.842305 
L 335.827397 39.628739 
L 335.925458 39.604944 
L 336.023519 39.224217 
L 336.219642 39.533557 
L 336.317703 39.462171 
L 336.513825 39.604944 
L 337.102192 46.719771 
L 337.788621 62.210583 
L 338.671171 73.013699 
L 339.651783 77.201691 
L 339.749844 77.106509 
L 340.044028 75.940534 
L 340.142089 75.274263 
L 340.338211 76.059511 
L 340.436273 76.297465 
L 340.828517 79.48605 
L 341.220762 84.435496 
L 341.318823 84.887608 
L 341.514946 84.554473 
L 341.711068 81.151729 
L 342.103313 80.05714 
L 342.887802 71.871519 
L 343.966475 60.473518 
L 344.064536 60.402132 
L 344.456781 57.879818 
L 344.652903 58.569885 
L 344.849026 57.808432 
L 344.947087 58.498499 
L 345.143209 57.66566 
L 345.241271 57.499092 
L 345.437393 57.689455 
L 345.535454 57.618069 
L 345.731576 58.641271 
L 345.829638 58.236749 
L 345.927699 58.403317 
L 346.02576 57.879818 
L 346.123821 57.927409 
L 346.712188 60.330745 
L 346.810249 60.425927 
L 347.006372 61.306357 
L 347.202494 61.401539 
L 347.6928 62.948241 
L 347.888923 65.80369 
L 348.085045 65.256395 
L 348.183106 65.137418 
L 348.281167 65.589531 
L 348.379228 65.518145 
L 348.47729 65.684713 
L 348.673412 65.113623 
L 348.771473 65.042237 
L 348.869534 64.756692 
L 349.261779 59.497906 
L 349.457901 53.192123 
L 349.654024 45.149274 
L 349.948207 40.199829 
L 350.046269 40.366397 
L 350.242391 40.128443 
L 350.928819 44.126071 
L 351.02688 44.292639 
L 351.517186 50.45565 
L 351.713309 53.073145 
L 351.81137 53.739417 
L 351.909431 52.47826 
L 352.105553 55.143346 
L 352.399737 62.06781 
L 353.086165 70.182045 
L 353.47841 72.561586 
L 353.674532 73.275448 
L 353.772593 73.180267 
L 353.870655 73.418221 
L 353.968716 73.275448 
L 354.066777 73.560993 
L 354.262899 72.22845 
L 354.459022 73.703766 
L 354.557083 73.608584 
L 354.851266 75.916739 
L 355.439634 84.506882 
L 356.028001 82.103545 
L 356.126062 81.960773 
L 356.224123 82.07975 
L 356.518307 80.961366 
L 356.910551 77.177896 
L 357.302796 73.180267 
L 357.400857 74.370037 
L 357.498918 73.917925 
L 358.381469 64.280784 
L 358.47953 64.35217 
L 358.773714 62.448537 
L 358.871775 61.996424 
L 359.067897 62.091606 
L 359.362081 61.591902 
L 359.558203 60.830449 
L 359.754326 61.425334 
L 359.852387 60.973222 
L 359.950448 61.163585 
L 360.048509 60.711472 
L 360.244632 61.282562 
L 360.734937 63.566921 
L 360.832999 63.233785 
L 360.93106 63.614512 
L 361.029121 63.447944 
L 361.127182 63.566921 
L 361.323305 64.019034 
L 361.421366 63.757285 
L 361.519427 63.900057 
L 361.81361 65.518145 
L 361.911672 65.470554 
L 362.107794 66.065439 
L 362.205855 66.017848 
L 362.303916 65.708508 
L 362.401978 66.184416 
L 362.500039 66.11303 
L 362.5981 66.017848 
L 362.794222 66.469961 
L 363.088406 64.328374 
L 363.186467 63.447944 
L 363.578712 53.882189 
L 363.774834 45.030297 
L 364.069018 41.413395 
L 364.167079 41.74653 
L 364.461262 41.032668 
L 364.657385 40.461578 
L 365.147691 42.745938 
L 365.539935 49.099312 
L 366.422486 65.827485 
L 367.010853 72.204655 
L 367.501159 76.011921 
L 367.59922 75.940534 
L 367.697281 75.726376 
L 367.893404 76.297465 
L 367.991465 76.27367 
L 368.089526 76.392647 
L 368.187587 76.773374 
L 368.38371 75.012513 
L 369.070138 80.080936 
L 369.462383 86.505696 
L 369.560444 86.862627 
L 369.756566 86.315333 
L 369.854627 85.982197 
L 370.442995 79.105324 
L 370.737178 75.845353 
L 370.9333 75.70258 
L 371.423606 68.873298 
L 371.521668 69.753728 
L 372.502279 58.260545 
L 372.600341 58.308136 
L 372.796463 56.166549 
L 372.894524 55.286119 
L 372.992585 55.333709 
L 373.090646 55.238528 
L 373.286769 53.834599 
L 373.38483 53.668031 
L 373.482891 54.143939 
L 373.679014 53.144532 
L 373.777075 52.977964 
L 373.875136 53.834599 
L 374.071258 53.144532 
L 374.267381 53.572849 
L 374.365442 53.668031 
L 374.463503 54.596052 
L 374.659625 54.215325 
L 374.855748 55.095755 
L 374.953809 55.07196 
L 375.05187 55.785822 
L 375.247993 55.452686 
L 375.444115 56.023776 
L 375.83636 56.904206 
L 375.934421 57.499092 
L 376.032482 57.475296 
L 376.228604 57.71325 
L 376.326666 58.403317 
L 376.424727 58.260545 
L 376.522788 58.522294 
L 376.71891 57.879818 
L 376.816971 58.54609 
L 376.915033 58.498499 
L 377.111155 57.522887 
L 377.601461 51.145717 
L 378.091767 36.297382 
L 378.287889 34.393749 
L 378.38595 34.560317 
L 379.17044 38.248605 
L 379.660746 46.981521 
L 380.05299 55.857208 
L 380.347174 61.115994 
L 380.739419 66.565143 
L 381.523908 73.275448 
L 381.916153 75.464626 
L 382.112275 75.797762 
L 382.308398 75.13149 
L 382.406459 73.489607 
L 382.50452 73.513403 
L 382.700642 75.250467 
L 382.994826 76.58301 
L 383.190948 79.17671 
L 383.485132 83.888201 
L 383.681254 84.649654 
L 383.779315 84.578268 
L 383.877377 84.792427 
L 383.975438 84.483086 
L 384.563805 78.248689 
L 384.857988 75.345649 
L 384.95605 75.345649 
L 385.054111 74.845945 
L 385.936661 64.09042 
L 386.62309 57.499092 
L 387.309518 54.334302 
L 387.407579 54.143939 
L 387.50564 54.881597 
L 387.799824 53.382486 
L 387.897885 53.3111 
L 387.995946 53.001759 
L 388.192069 53.763212 
L 388.29013 54.167734 
L 388.388191 54.120144 
L 388.584313 57.40391 
L 388.682375 57.380115 
L 388.878497 56.095163 
L 388.976558 56.21414 
L 389.074619 56.071367 
L 389.17268 56.285526 
L 389.368803 57.618069 
L 389.466864 57.213547 
L 389.564925 57.284933 
L 389.662986 56.975593 
L 390.055231 58.427113 
L 390.251353 57.023184 
L 390.545537 58.85543 
L 390.839721 58.260545 
L 391.035843 57.09457 
L 391.231965 56.594866 
L 391.722271 49.884561 
L 392.212577 36.535336 
L 392.408699 34.941043 
L 392.800944 35.845269 
L 393.29125 39.842898 
L 393.683495 45.863136 
L 394.664107 64.35217 
L 395.154413 70.586567 
L 395.350535 71.562179 
L 395.644719 73.965515 
L 395.840841 74.51281 
L 396.135024 75.845353 
L 396.233086 75.726376 
L 396.429208 76.511624 
L 396.527269 74.82215 
L 396.821453 75.916739 
L 396.919514 75.940534 
L 397.213697 77.796576 
L 397.605942 83.983383 
L 397.900126 84.649654 
L 397.998187 84.721041 
L 398.096248 85.196949 
L 398.488493 81.342092 
L 399.07686 75.988125 
L 399.174921 75.70258 
L 399.763288 67.731118 
L 400.253594 64.542533 
L 400.7439 58.85543 
L 400.940022 58.070182 
L 401.038084 57.737046 
L 401.234206 56.428298 
L 401.332267 56.190344 
L 401.430328 56.285526 
L 401.528389 55.904799 
L 401.626451 56.095163 
L 401.920634 54.381893 
L 402.018695 54.310507 
L 402.116757 53.977371 
L 402.214818 54.643643 
L 402.312879 54.453279 
L 402.41094 54.667438 
L 402.705124 56.26173 
L 402.803185 56.761434 
L 402.901246 56.26173 
L 402.999307 56.380707 
L 403.097368 57.09457 
L 403.19543 56.951797 
L 403.391552 57.380115 
L 403.587674 58.617476 
L 403.685736 59.545497 
L 403.881858 57.784637 
L 404.07798 58.831635 
L 404.176041 59.140975 
L 404.274103 58.260545 
L 404.372164 58.403317 
L 404.470225 58.093977 
L 404.568286 59.069589 
L 404.666347 58.831635 
L 404.86247 59.236157 
L 405.156653 58.474704 
L 405.646959 55.833413 
L 405.843082 51.693012 
L 405.941143 48.69479 
L 406.137265 38.510355 
L 406.431449 35.535928 
L 406.52951 34.798271 
L 406.627571 35.036225 
L 407.019816 36.844676 
L 407.215938 37.796492 
L 407.706244 43.578777 
L 408.098489 50.764991 
L 409.471345 71.990496 
L 410.059712 74.726968 
L 410.451957 76.202284 
L 410.550018 76.130898 
L 410.648079 74.51281 
L 411.040324 76.392647 
L 411.138385 76.559215 
L 411.334508 78.153507 
L 411.824814 85.363517 
L 412.020936 85.696652 
L 412.118997 85.55388 
L 412.31512 84.506882 
L 412.609303 82.198727 
L 413.001548 76.226079 
L 413.393793 73.608584 
L 413.786037 68.587753 
L 413.98216 66.826892 
L 414.080221 67.469368 
L 414.962772 59.759656 
L 415.060833 59.521702 
L 415.355016 55.238528 
L 415.453077 55.000574 
L 415.551139 55.07196 
L 415.747261 54.19153 
L 415.943383 54.262916 
L 416.139506 53.287304 
L 416.237567 53.239713 
L 416.433689 55.3813 
L 416.53175 53.739417 
L 416.923995 55.666845 
L 417.022056 55.428891 
L 417.218179 55.928595 
L 417.31624 55.881004 
L 417.414301 55.619254 
L 417.610423 56.666252 
L 417.708485 56.666252 
L 417.904607 57.189751 
L 418.100729 56.452094 
L 418.198791 54.334302 
L 418.296852 54.905392 
L 418.394913 54.81021 
L 418.492974 55.286119 
L 418.689096 55.095755 
L 418.98328 56.571071 
L 419.179402 57.261138 
L 419.375525 56.737639 
L 419.571647 58.427113 
L 419.669708 57.522887 
L 420.552259 34.393749 
L 420.65032 33.846454 
L 420.846443 34.227181 
L 420.944504 34.108204 
L 421.140626 35.464542 
L 421.336748 35.750087 
L 421.43481 35.964246 
L 421.630932 38.53415 
L 421.925116 41.770326 
L 423.494094 68.730525 
L 423.788278 70.991089 
L 423.9844 72.085678 
L 424.376645 74.036902 
L 424.572767 74.393833 
L 424.670829 74.584196 
L 424.76889 73.513403 
L 425.161135 75.13149 
L 425.259196 75.440831 
L 425.455318 76.916146 
L 425.945624 84.792427 
L 426.141746 85.768039 
L 426.730113 82.579454 
L 428.201031 66.37478 
L 428.495215 63.662103 
L 428.887459 57.760841 
L 429.181643 56.452094 
L 429.573888 54.477075 
L 429.868071 55.976185 
L 429.966133 55.809618 
L 430.064194 55.309914 
L 430.162255 55.524073 
L 430.260316 56.285526 
L 430.5545 54.715029 
L 430.652561 54.215325 
L 431.142867 56.380707 
L 431.338989 55.881004 
L 431.43705 56.237935 
L 431.535111 55.904799 
L 431.829295 57.499092 
L 431.927356 57.71325 
L 432.123479 57.332524 
L 432.417662 57.808432 
L 432.613784 57.118365 
L 432.907968 58.569885 
L 433.300213 58.665067 
L 433.398274 58.117772 
L 433.496335 58.712658 
L 433.790519 57.641864 
L 434.084702 53.192123 
L 434.673069 34.322363 
L 434.869192 33.441932 
L 434.967253 33.537114 
L 435.065314 34.536521 
L 435.163375 34.44134 
L 435.359498 35.274179 
L 435.457559 35.250384 
L 435.947865 37.606129 
L 436.438171 43.840526 
L 437.418782 59.093384 
L 437.516844 60.092791 
L 437.614905 59.99761 
L 437.712966 60.521109 
L 437.811027 60.187973 
L 438.301333 53.739417 
L 438.399394 54.239121 
L 438.595517 55.881004 
L 438.8897 59.402725 
L 439.281945 71.633565 
L 439.67419 77.630008 
L 439.968373 82.055955 
L 440.262557 84.173746 
L 440.360618 84.292723 
L 440.458679 84.649654 
L 440.752863 82.460477 
L 440.850924 82.603249 
L 440.948985 82.484272 
L 441.047046 82.722226 
L 441.145107 82.484272 
L 441.243169 81.794205 
L 441.34123 81.936978 
L 441.929597 78.772188 
L 442.22378 75.321854 
L 442.812147 69.801319 
L 443.106331 65.946462 
L 443.400515 64.138011 
L 443.596637 61.282562 
L 444.185004 57.998795 
L 444.283065 58.189159 
L 444.381126 58.688862 
L 444.577249 57.903614 
L 444.67531 58.355726 
L 444.773371 58.236749 
L 444.871432 58.308136 
L 445.165616 57.475296 
L 445.263677 57.427705 
L 445.361738 57.09457 
L 445.459799 57.261138 
L 445.655922 58.165363 
L 445.753983 57.879818 
L 445.852044 57.998795 
L 446.048166 57.261138 
L 446.146228 57.332524 
L 446.244289 57.689455 
L 446.34235 59.973814 
L 446.440411 59.474111 
L 446.538472 60.021405 
L 446.636534 59.973814 
L 447.224901 55.357505 
L 447.421023 53.239713 
L 447.519084 52.954168 
L 448.00939 44.268844 
L 448.303574 33.656091 
L 448.597757 40.651942 
L 448.79388 39.366989 
L 448.990002 38.438968 
L 449.088063 38.486559 
L 449.382247 41.104054 
L 449.578369 43.507391 
L 449.67643 42.983892 
L 449.774491 43.055278 
L 449.872553 43.221846 
L 450.068675 42.864915 
L 450.166736 43.126664 
L 451.147348 55.833413 
L 451.735715 60.854245 
L 451.833776 60.759063 
L 451.931837 60.068996 
L 452.422143 51.526444 
L 452.618266 52.977964 
L 452.912449 57.856023 
L 453.108572 64.994646 
L 453.500816 74.108288 
L 453.598878 74.51281 
L 453.795 78.177303 
L 454.089183 83.721633 
L 454.285306 84.792427 
L 454.481428 85.696652 
L 454.677551 85.458698 
L 454.775612 84.768631 
L 454.873673 85.24454 
L 455.265918 84.697245 
L 455.363979 84.768631 
L 455.46204 84.506882 
L 455.560101 84.958995 
L 455.658162 84.697245 
L 455.952346 82.96018 
L 456.148468 82.555658 
L 456.638774 79.890572 
L 456.932958 76.606806 
L 458.011631 66.37478 
L 458.109692 66.232007 
L 458.207753 65.851281 
L 458.403876 64.613919 
L 458.501937 64.66151 
L 458.698059 64.399761 
L 458.894181 62.281969 
L 459.090304 61.591902 
L 459.188365 61.663288 
L 459.286426 61.972629 
L 459.384487 62.686491 
L 459.482549 62.543719 
L 459.58061 63.162399 
L 459.678671 62.995831 
L 459.776732 63.091013 
L 459.972854 62.948241 
L 460.070916 63.186195 
L 460.46316 61.401539 
L 460.659283 61.520516 
L 460.855405 60.021405 
L 461.345711 55.64305 
L 462.032139 47.267065 
L 462.1302 46.838748 
L 462.228262 45.244456 
L 462.424384 38.53415 
L 462.522445 39.152831 
L 462.620506 43.578777 
L 462.718568 43.4598 
L 462.816629 43.721549 
L 463.012751 40.29501 
L 463.306935 41.889303 
L 463.404996 41.960689 
L 463.699179 46.220067 
L 463.797241 45.744159 
L 463.895302 46.172477 
L 464.091424 45.292046 
L 464.189485 45.553796 
L 464.287546 46.481817 
L 464.385608 46.124886 
L 464.483669 46.339045 
L 464.875914 51.02674 
L 465.170097 54.262916 
L 465.758464 60.806654 
L 465.856525 60.092791 
L 466.052648 59.640679 
L 466.542954 52.145125 
L 467.03326 57.66566 
L 467.719688 73.560993 
L 468.308055 82.746022 
L 468.406116 83.079157 
L 468.602239 84.292723 
L 468.994483 83.412293 
L 469.092544 82.864999 
L 469.190606 82.936385 
L 469.484789 82.151136 
L 469.877034 78.700802 
L 470.563462 71.91911 
L 470.759585 70.538976 
L 471.544074 62.615105 
L 472.230502 58.165363 
L 472.524686 57.737046 
L 472.916931 55.524073 
L 473.014992 55.64305 
L 473.211114 56.356912 
L 473.407236 56.975593 
L 473.505298 56.761434 
L 473.603359 56.52348 
L 473.70142 56.928002 
L 473.799481 56.642457 
L 473.995604 57.09457 
L 474.191726 57.118365 
L 474.583971 58.903021 
L 474.682032 58.331931 
L 474.780093 58.760248 
L 474.878154 58.665067 
L 474.976215 58.903021 
L 475.172338 57.927409 
L 475.270399 57.760841 
L 475.760705 55.119551 
L 476.349072 44.697161 
L 476.545194 36.463949 
L 476.643256 37.606129 
L 476.839378 42.055871 
L 477.133561 38.629332 
L 477.231623 38.891081 
L 477.918051 43.745345 
L 478.016112 43.245641 
L 478.114173 43.340823 
L 478.310296 42.983892 
L 478.408357 43.15046 
L 478.604479 44.364025 
L 479.585091 57.284933 
L 479.977336 59.140975 
L 480.075397 59.212361 
L 480.36958 56.83282 
L 480.565703 52.597237 
L 480.663764 51.883375 
L 481.252131 60.425927 
L 481.546315 70.134454 
L 481.840498 73.108881 
L 482.036621 77.558622 
L 482.232743 82.817408 
L 482.526926 84.030974 
L 482.723049 84.744836 
L 482.919171 83.293316 
L 483.017232 83.388498 
L 483.115294 83.745429 
L 483.311416 82.246318 
L 483.507538 81.818001 
L 483.605599 81.77041 
L 483.899783 80.080936 
L 484.292028 75.892944 
L 484.390089 75.512217 
L 484.586211 72.870926 
L 484.684273 73.94172 
L 484.880395 70.443795 
L 485.27264 67.279005 
L 485.370701 67.802504 
L 485.959068 63.019627 
L 486.057129 62.972036 
L 486.15519 61.806061 
L 486.253251 61.925038 
L 486.645496 59.450315 
L 486.743557 59.521702 
L 487.135802 57.451501 
L 487.429986 57.546683 
L 487.528047 57.427705 
L 487.626108 57.546683 
L 487.920292 56.21414 
L 488.214475 58.093977 
L 488.410597 58.189159 
L 488.508659 58.212954 
L 488.60672 57.689455 
L 488.802842 59.259952 
L 488.900903 59.569292 
L 489.783454 55.857208 
L 489.881515 56.380707 
L 489.979576 55.595459 
L 490.371821 46.791157 
L 490.666005 37.201607 
L 490.764066 38.082037 
L 490.862127 42.412802 
L 490.960188 41.889303 
L 491.254372 39.271808 
L 491.450494 39.866693 
L 491.548555 39.628739 
L 492.038861 43.19805 
L 492.136922 42.936301 
L 492.333045 43.507391 
L 492.431106 43.15046 
L 492.529167 43.340823 
L 492.725289 45.292046 
L 493.411718 53.858394 
L 493.803963 57.046979 
L 494.098146 58.688862 
L 494.196207 58.688862 
L 494.294268 58.28434 
L 494.490391 54.381893 
L 494.686513 51.050536 
L 494.784574 51.169513 
L 495.372941 60.021405 
L 495.667125 69.01607 
L 496.647737 83.293316 
L 496.745798 83.79302 
L 496.843859 83.626452 
L 496.94192 83.745429 
L 497.334165 82.222523 
L 497.432226 82.270113 
L 498.020593 79.010142 
L 498.314777 75.845353 
L 498.707022 74.346242 
L 499.001205 70.895907 
L 499.099266 70.681749 
L 499.295389 69.753728 
L 499.687633 64.851873 
L 499.981817 62.400946 
L 500.079878 63.923852 
L 500.177939 76.606806 
L 500.472123 66.803097 
L 500.570184 65.970258 
L 500.766306 62.32956 
L 501.158551 57.618069 
L 501.452735 57.070774 
L 501.550796 58.046386 
L 501.746918 57.213547 
L 501.844979 57.737046 
L 502.041102 57.332524 
L 502.237224 58.427113 
L 502.335285 58.355726 
L 502.433347 58.212954 
L 502.531408 57.808432 
L 502.825591 59.140975 
L 502.923653 58.736453 
L 503.119775 60.045201 
L 504.198448 51.240899 
L 504.786815 35.988041 
L 505.080999 42.626961 
L 505.17906 41.74653 
L 505.375182 38.676923 
L 506.06161 42.983892 
L 506.159672 42.674551 
L 506.355794 42.174848 
L 506.453855 42.032075 
L 506.551916 42.174848 
L 506.748039 43.007687 
L 507.238345 48.076109 
L 507.434467 51.359876 
L 507.434467 51.359876 
" clip-path="url(#p0ba71bd593)" style="fill: none; stroke: #4e9a73; stroke-width: 1.2; stroke-linecap: square"/>
   </g>
   <g id="patch_3">
    <path d="M 55.410938 86.659375 
L 55.410938 29.959375 
" style="fill: none; stroke: #cccccc; stroke-width: 0.75; stroke-linejoin: miter; stroke-linecap: square"/>
   </g>
   <g id="patch_4">
    <path d="M 69.787408 105.439375 
L 507.532528 105.439375 
" style="fill: none; stroke: #cccccc; stroke-width: 0.75; stroke-linejoin: miter; stroke-linecap: square"/>
   </g>
   <g id="text_14">
    <!-- May -->
    <g style="fill: #505050" transform="translate(65.410938 14.959375) scale(0.1 -0.1)">
     <defs>
      <path id="Ubuntu-Bold-4d" d="M 1690 4435 
Q 1805 4224 1955 3913 
Q 2106 3603 2269 3241 
Q 2432 2880 2592 2502 
Q 2752 2125 2893 1792 
Q 3034 2125 3194 2502 
Q 3354 2880 3517 3241 
Q 3680 3603 3830 3913 
Q 3981 4224 4096 4435 
L 5005 4435 
Q 5069 3994 5123 3446 
Q 5178 2899 5219 2307 
Q 5261 1715 5296 1120 
Q 5331 525 5357 0 
L 4384 0 
Q 4365 646 4333 1408 
Q 4301 2170 4237 2944 
Q 4122 2675 3981 2348 
Q 3840 2022 3702 1696 
Q 3565 1370 3437 1072 
Q 3309 774 3219 563 
L 2522 563 
Q 2432 774 2304 1072 
Q 2176 1370 2038 1696 
Q 1901 2022 1760 2348 
Q 1619 2675 1504 2944 
Q 1440 2170 1408 1408 
Q 1376 646 1357 0 
L 384 0 
Q 410 525 445 1120 
Q 480 1715 521 2307 
Q 563 2899 617 3446 
Q 672 3994 736 4435 
L 1690 4435 
z
" transform="scale(0.015625)"/>
      <path id="Ubuntu-Bold-79" d="M 3437 3366 
Q 3149 2394 2835 1542 
Q 2522 691 2150 -109 
Q 2016 -397 1881 -598 
Q 1747 -800 1587 -931 
Q 1427 -1062 1225 -1123 
Q 1024 -1184 755 -1184 
Q 531 -1184 342 -1142 
Q 154 -1101 32 -1050 
L 198 -288 
Q 346 -339 461 -358 
Q 576 -378 704 -378 
Q 960 -378 1097 -240 
Q 1235 -102 1331 141 
Q 1005 781 678 1577 
Q 352 2374 64 3366 
L 1075 3366 
Q 1139 3117 1225 2825 
Q 1312 2534 1408 2236 
Q 1504 1939 1603 1657 
Q 1702 1376 1792 1146 
Q 1875 1376 1964 1657 
Q 2054 1939 2140 2236 
Q 2227 2534 2307 2825 
Q 2387 3117 2451 3366 
L 3437 3366 
z
" transform="scale(0.015625)"/>
     </defs>
     <use xlink:href="#Ubuntu-Bold-4d"/>
     <use xlink:href="#Ubuntu-Bold-61" x="89.699982"/>
     <use xlink:href="#Ubuntu-Bold-79" x="143.749969"/>
    </g>
   </g>
  </g>
  <g id="axes_2">
   <g id="patch_5">
    <path d="M 65.410938 196.279375 
L 511.810937 196.279375 
L 511.810937 135.799375 
L 65.410938 135.799375 
L 65.410938 196.279375 
z
" style="fill: none"/>
   </g>
   <g id="matplotlib.axis_3">
    <g id="xtick_10">
     <g id="text_15">
      <!-- Sunday -->
      <g style="fill: #808080" transform="translate(144.223695 226.486875) scale(0.08 -0.08)">
       <defs>
        <path id="Ubuntu-53" d="M 1581 442 
Q 2554 442 2554 1107 
Q 2554 1312 2467 1456 
Q 2381 1600 2233 1705 
Q 2086 1811 1897 1888 
Q 1709 1965 1498 2042 
Q 1254 2125 1036 2230 
Q 819 2336 659 2480 
Q 499 2624 406 2822 
Q 314 3021 314 3302 
Q 314 3885 710 4211 
Q 1107 4538 1805 4538 
Q 2208 4538 2537 4451 
Q 2867 4365 3021 4262 
L 2822 3757 
Q 2688 3840 2422 3920 
Q 2157 4000 1805 4000 
Q 1626 4000 1472 3961 
Q 1318 3923 1203 3846 
Q 1088 3770 1021 3651 
Q 954 3533 954 3373 
Q 954 3194 1024 3072 
Q 1094 2950 1222 2857 
Q 1350 2765 1520 2688 
Q 1690 2611 1894 2534 
Q 2182 2419 2422 2304 
Q 2662 2189 2838 2029 
Q 3014 1869 3110 1648 
Q 3206 1427 3206 1114 
Q 3206 531 2780 217 
Q 2355 -96 1581 -96 
Q 1318 -96 1097 -61 
Q 877 -26 704 22 
Q 531 70 406 124 
Q 282 179 211 218 
L 397 730 
Q 544 646 845 544 
Q 1146 442 1581 442 
z
" transform="scale(0.015625)"/>
        <path id="Ubuntu-75" d="M 3162 96 
Q 2957 45 2621 -12 
Q 2285 -70 1843 -70 
Q 1459 -70 1196 42 
Q 934 154 774 358 
Q 614 563 544 841 
Q 474 1120 474 1459 
L 474 3328 
L 1069 3328 
L 1069 1587 
Q 1069 979 1261 716 
Q 1453 454 1907 454 
Q 2003 454 2105 460 
Q 2208 467 2297 476 
Q 2387 486 2460 496 
Q 2534 506 2566 518 
L 2566 3328 
L 3162 3328 
L 3162 96 
z
" transform="scale(0.015625)"/>
        <path id="Ubuntu-6e" d="M 512 3232 
Q 717 3283 1056 3340 
Q 1395 3398 1837 3398 
Q 2234 3398 2496 3286 
Q 2758 3174 2915 2972 
Q 3072 2771 3136 2489 
Q 3200 2208 3200 1869 
L 3200 0 
L 2605 0 
L 2605 1741 
Q 2605 2048 2563 2265 
Q 2522 2483 2426 2617 
Q 2330 2752 2170 2813 
Q 2010 2874 1773 2874 
Q 1677 2874 1574 2867 
Q 1472 2861 1379 2851 
Q 1286 2842 1212 2829 
Q 1139 2816 1107 2810 
L 1107 0 
L 512 0 
L 512 3232 
z
" transform="scale(0.015625)"/>
        <path id="Ubuntu-64" d="M 2662 2624 
Q 2554 2714 2349 2797 
Q 2144 2880 1901 2880 
Q 1645 2880 1462 2787 
Q 1280 2694 1165 2531 
Q 1050 2368 998 2144 
Q 947 1920 947 1664 
Q 947 1082 1235 765 
Q 1523 448 2003 448 
Q 2246 448 2409 470 
Q 2573 493 2662 518 
L 2662 2624 
z
M 2662 4864 
L 3258 4966 
L 3258 96 
Q 3053 38 2733 -19 
Q 2413 -77 1997 -77 
Q 1613 -77 1305 44 
Q 998 166 780 390 
Q 563 614 444 937 
Q 326 1261 326 1664 
Q 326 2048 425 2368 
Q 525 2688 717 2918 
Q 909 3149 1187 3277 
Q 1466 3405 1824 3405 
Q 2112 3405 2333 3328 
Q 2554 3251 2662 3181 
L 2662 4864 
z
" transform="scale(0.015625)"/>
        <path id="Ubuntu-61" d="M 1638 429 
Q 1850 429 2013 438 
Q 2176 448 2285 474 
L 2285 1466 
Q 2221 1498 2077 1520 
Q 1933 1542 1728 1542 
Q 1594 1542 1443 1523 
Q 1293 1504 1168 1443 
Q 1043 1382 960 1276 
Q 877 1171 877 998 
Q 877 678 1081 553 
Q 1286 429 1638 429 
z
M 1587 3411 
Q 1946 3411 2192 3318 
Q 2438 3226 2588 3056 
Q 2739 2886 2803 2652 
Q 2867 2419 2867 2138 
L 2867 58 
Q 2790 45 2652 22 
Q 2515 0 2342 -19 
Q 2170 -38 1968 -54 
Q 1766 -70 1568 -70 
Q 1286 -70 1049 -12 
Q 813 45 640 169 
Q 467 294 371 499 
Q 275 704 275 992 
Q 275 1267 387 1465 
Q 499 1664 691 1785 
Q 883 1907 1139 1964 
Q 1395 2022 1677 2022 
Q 1766 2022 1862 2012 
Q 1958 2003 2044 1987 
Q 2131 1971 2195 1958 
Q 2259 1946 2285 1939 
L 2285 2106 
Q 2285 2253 2253 2397 
Q 2221 2541 2137 2653 
Q 2054 2765 1910 2832 
Q 1766 2899 1536 2899 
Q 1242 2899 1021 2857 
Q 800 2816 691 2771 
L 621 3264 
Q 736 3315 1005 3363 
Q 1274 3411 1587 3411 
z
" transform="scale(0.015625)"/>
        <path id="Ubuntu-79" d="M 122 -621 
Q 192 -653 304 -681 
Q 416 -710 525 -710 
Q 877 -710 1075 -553 
Q 1274 -397 1434 -45 
Q 1030 723 681 1584 
Q 333 2445 102 3328 
L 742 3328 
Q 813 3040 912 2707 
Q 1011 2374 1132 2022 
Q 1254 1670 1395 1318 
Q 1536 966 1690 640 
Q 1933 1312 2112 1971 
Q 2291 2630 2451 3328 
L 3066 3328 
Q 2835 2387 2553 1520 
Q 2272 653 1946 -102 
Q 1818 -390 1680 -598 
Q 1542 -806 1376 -940 
Q 1210 -1075 1002 -1139 
Q 794 -1203 531 -1203 
Q 461 -1203 384 -1193 
Q 307 -1184 233 -1168 
Q 160 -1152 99 -1133 
Q 38 -1114 13 -1101 
L 122 -621 
z
" transform="scale(0.015625)"/>
       </defs>
       <use xlink:href="#Ubuntu-53"/>
       <use xlink:href="#Ubuntu-75" x="53.199997"/>
       <use xlink:href="#Ubuntu-6e" x="110.599991"/>
       <use xlink:href="#Ubuntu-64" x="167.999985"/>
       <use xlink:href="#Ubuntu-61" x="226.899979"/>
       <use xlink:href="#Ubuntu-79" x="277.599976"/>
      </g>
     </g>
    </g>
    <g id="xtick_11">
     <g id="text_16">
      <!-- Sunday -->
      <g style="fill: #808080" transform="translate(246.341342 226.486875) scale(0.08 -0.08)">
       <use xlink:href="#Ubuntu-53"/>
       <use xlink:href="#Ubuntu-75" x="53.199997"/>
       <use xlink:href="#Ubuntu-6e" x="110.599991"/>
       <use xlink:href="#Ubuntu-64" x="167.999985"/>
       <use xlink:href="#Ubuntu-61" x="226.899979"/>
       <use xlink:href="#Ubuntu-79" x="277.599976"/>
      </g>
     </g>
    </g>
    <g id="xtick_12">
     <g id="text_17">
      <!-- Sunday -->
      <g style="fill: #808080" transform="translate(348.458989 226.486875) scale(0.08 -0.08)">
       <use xlink:href="#Ubuntu-53"/>
       <use xlink:href="#Ubuntu-75" x="53.199997"/>
       <use xlink:href="#Ubuntu-6e" x="110.599991"/>
       <use xlink:href="#Ubuntu-64" x="167.999985"/>
       <use xlink:href="#Ubuntu-61" x="226.899979"/>
       <use xlink:href="#Ubuntu-79" x="277.599976"/>
      </g>
     </g>
    </g>
    <g id="xtick_13">
     <g id="text_18">
      <!-- Sunday -->
      <g style="fill: #808080" transform="translate(450.576636 226.486875) scale(0.08 -0.08)">
       <use xlink:href="#Ubuntu-53"/>
       <use xlink:href="#Ubuntu-75" x="53.199997"/>
       <use xlink:href="#Ubuntu-6e" x="110.599991"/>
       <use xlink:href="#Ubuntu-64" x="167.999985"/>
       <use xlink:href="#Ubuntu-61" x="226.899979"/>
       <use xlink:href="#Ubuntu-79" x="277.599976"/>
      </g>
     </g>
    </g>
   </g>
   <g id="matplotlib.axis_4">
    <g id="ytick_5">
     <g id="line2d_15">
      <g>
       <use xlink:href="#md3c7f14f47" x="55.410938" y="196.279375" style="fill: #cccccc; stroke: #cccccc; stroke-width: 0.75"/>
      </g>
     </g>
     <g id="text_19">
      <!-- 28000 -->
      <g style="fill: #808080" transform="translate(23.848438 199.383125) scale(0.08 -0.08)">
       <defs>
        <path id="Ubuntu-38" d="M 3258 1152 
Q 3258 883 3165 656 
Q 3072 429 2889 259 
Q 2707 90 2432 -3 
Q 2157 -96 1798 -96 
Q 1382 -96 1104 22 
Q 826 141 659 320 
Q 493 499 422 713 
Q 352 928 352 1120 
Q 352 1306 413 1475 
Q 474 1645 573 1792 
Q 672 1939 803 2057 
Q 934 2176 1082 2266 
Q 454 2624 454 3322 
Q 454 3565 550 3785 
Q 646 4006 822 4172 
Q 998 4339 1248 4438 
Q 1498 4538 1805 4538 
Q 2163 4538 2419 4429 
Q 2675 4320 2838 4150 
Q 3002 3981 3075 3776 
Q 3149 3571 3149 3379 
Q 3149 3194 3094 3030 
Q 3040 2867 2947 2726 
Q 2854 2586 2736 2477 
Q 2618 2368 2490 2285 
Q 3245 1926 3258 1152 
z
M 954 1114 
Q 954 998 995 873 
Q 1037 749 1139 643 
Q 1242 538 1402 467 
Q 1562 397 1805 397 
Q 2022 397 2185 461 
Q 2349 525 2451 624 
Q 2554 723 2605 851 
Q 2656 979 2656 1114 
Q 2656 1318 2579 1472 
Q 2502 1626 2358 1741 
Q 2214 1856 2012 1936 
Q 1811 2016 1555 2074 
Q 1267 1914 1110 1677 
Q 954 1440 954 1114 
z
M 2554 3386 
Q 2554 3482 2512 3597 
Q 2470 3712 2380 3811 
Q 2291 3910 2150 3977 
Q 2010 4045 1805 4045 
Q 1600 4045 1456 3981 
Q 1312 3917 1222 3817 
Q 1133 3718 1091 3600 
Q 1050 3482 1050 3366 
Q 1050 3226 1101 3085 
Q 1152 2944 1261 2822 
Q 1370 2701 1546 2605 
Q 1722 2509 1965 2451 
Q 2234 2611 2394 2825 
Q 2554 3040 2554 3386 
z
" transform="scale(0.015625)"/>
       </defs>
       <use xlink:href="#Ubuntu-32"/>
       <use xlink:href="#Ubuntu-38" x="56.399994"/>
       <use xlink:href="#Ubuntu-30" x="112.799988"/>
       <use xlink:href="#Ubuntu-30" x="169.199982"/>
       <use xlink:href="#Ubuntu-30" x="225.599976"/>
      </g>
     </g>
    </g>
    <g id="ytick_6">
     <g id="line2d_16">
      <g>
       <use xlink:href="#md3c7f14f47" x="55.410938" y="181.159375" style="fill: #cccccc; stroke: #cccccc; stroke-width: 0.75"/>
      </g>
     </g>
     <g id="text_20">
      <!-- 30000 -->
      <g style="fill: #808080" transform="translate(23.848438 184.263125) scale(0.08 -0.08)">
       <use xlink:href="#Ubuntu-33"/>
       <use xlink:href="#Ubuntu-30" x="56.399994"/>
       <use xlink:href="#Ubuntu-30" x="112.799988"/>
       <use xlink:href="#Ubuntu-30" x="169.199982"/>
       <use xlink:href="#Ubuntu-30" x="225.599976"/>
      </g>
     </g>
    </g>
    <g id="ytick_7">
     <g id="line2d_17">
      <g>
       <use xlink:href="#md3c7f14f47" x="55.410938" y="166.039375" style="fill: #cccccc; stroke: #cccccc; stroke-width: 0.75"/>
      </g>
     </g>
     <g id="text_21">
      <!-- 32000 -->
      <g style="fill: #808080" transform="translate(23.848438 169.143125) scale(0.08 -0.08)">
       <use xlink:href="#Ubuntu-33"/>
       <use xlink:href="#Ubuntu-32" x="56.399994"/>
       <use xlink:href="#Ubuntu-30" x="112.799988"/>
       <use xlink:href="#Ubuntu-30" x="169.199982"/>
       <use xlink:href="#Ubuntu-30" x="225.599976"/>
      </g>
     </g>
    </g>
    <g id="ytick_8">
     <g id="line2d_18">
      <g>
       <use xlink:href="#md3c7f14f47" x="55.410938" y="150.919375" style="fill: #cccccc; stroke: #cccccc; stroke-width: 0.75"/>
      </g>
     </g>
     <g id="text_22">
      <!-- 34000 -->
      <g style="fill: #808080" transform="translate(23.848438 154.023125) scale(0.08 -0.08)">
       <use xlink:href="#Ubuntu-33"/>
       <use xlink:href="#Ubuntu-34" x="56.399994"/>
       <use xlink:href="#Ubuntu-30" x="112.799988"/>
       <use xlink:href="#Ubuntu-30" x="169.199982"/>
       <use xlink:href="#Ubuntu-30" x="225.599976"/>
      </g>
     </g>
    </g>
    <g id="ytick_9">
     <g id="line2d_19">
      <g>
       <use xlink:href="#md3c7f14f47" x="55.410938" y="135.799375" style="fill: #cccccc; stroke: #cccccc; stroke-width: 0.75"/>
      </g>
     </g>
     <g id="text_23">
      <!-- 36000 -->
      <g style="fill: #808080" transform="translate(23.848438 138.903125) scale(0.08 -0.08)">
       <defs>
        <path id="Ubuntu-36" d="M 403 1779 
Q 403 2426 582 2922 
Q 762 3418 1091 3757 
Q 1421 4096 1891 4272 
Q 2362 4448 2950 4454 
L 2995 3955 
Q 2618 3949 2307 3872 
Q 1997 3795 1753 3628 
Q 1510 3462 1344 3196 
Q 1178 2931 1094 2541 
Q 1261 2618 1469 2669 
Q 1677 2720 1901 2720 
Q 2278 2720 2540 2605 
Q 2803 2490 2969 2301 
Q 3136 2112 3209 1865 
Q 3283 1619 3283 1350 
Q 3283 1107 3200 851 
Q 3117 595 2947 384 
Q 2778 173 2515 38 
Q 2253 -96 1894 -96 
Q 1165 -96 784 403 
Q 403 902 403 1779 
z
M 1837 2234 
Q 1613 2234 1421 2192 
Q 1229 2150 1037 2067 
Q 1030 1997 1027 1923 
Q 1024 1850 1024 1779 
Q 1024 1498 1062 1248 
Q 1101 998 1200 809 
Q 1299 621 1465 509 
Q 1632 397 1888 397 
Q 2099 397 2246 486 
Q 2394 576 2490 717 
Q 2586 858 2627 1021 
Q 2669 1184 2669 1338 
Q 2669 1773 2461 2003 
Q 2253 2234 1837 2234 
z
" transform="scale(0.015625)"/>
       </defs>
       <use xlink:href="#Ubuntu-33"/>
       <use xlink:href="#Ubuntu-36" x="56.399994"/>
       <use xlink:href="#Ubuntu-30" x="112.799988"/>
       <use xlink:href="#Ubuntu-30" x="169.199982"/>
       <use xlink:href="#Ubuntu-30" x="225.599976"/>
      </g>
     </g>
    </g>
    <g id="text_24">
     <!-- Target -->
     <g style="fill: #505050" transform="translate(14.156719 163.935625) rotate(-90) scale(0.09 -0.09)">
      <use xlink:href="#Ubuntu-Bold-54"/>
      <use xlink:href="#Ubuntu-Bold-61" x="53.899994"/>
      <use xlink:href="#Ubuntu-Bold-72" x="109.199982"/>
      <use xlink:href="#Ubuntu-Bold-67" x="150.399979"/>
      <use xlink:href="#Ubuntu-Bold-65" x="209.799973"/>
      <use xlink:href="#Ubuntu-Bold-74" x="268.199966"/>
     </g>
    </g>
   </g>
   <g id="PolyCollection_1">
    <defs>
     <path id="m5c2304066a" d="M 69.787408 -57.866657 
L 69.787408 -41.931565 
L 84.375643 -60.927986 
L 98.963879 -50.261561 
L 113.552114 -62.359346 
L 128.140349 -60.209216 
L 142.728585 -59.333727 
L 157.31682 -41.91937 
L 171.905055 -65.106047 
L 186.49329 -62.506497 
L 201.081526 -67.991207 
L 215.669761 -66.965427 
L 230.257996 -63.350375 
L 244.846232 -60.97371 
L 259.434467 -46.617988 
L 274.022702 -66.462319 
L 288.610937 -66.674197 
L 303.199173 -66.155094 
L 317.787408 -66.512372 
L 332.375643 -63.200018 
L 346.963879 -62.039149 
L 361.552114 -58.159654 
L 376.140349 -70.034175 
L 390.728585 -72.465637 
L 405.31682 -69.595894 
L 419.905055 -72.241249 
L 434.49329 -74.809931 
L 449.081526 -75.233852 
L 463.669761 -64.570154 
L 478.257996 -77.594539 
L 492.846232 -75.735109 
L 507.434467 -75.514159 
L 507.434467 -92.610897 
L 507.434467 -92.610897 
L 492.846232 -91.748181 
L 478.257996 -94.137587 
L 463.669761 -81.967045 
L 449.081526 -92.396226 
L 434.49329 -92.763782 
L 419.905055 -90.665589 
L 405.31682 -87.177364 
L 390.728585 -89.061018 
L 376.140349 -87.21732 
L 361.552114 -72.816834 
L 346.963879 -77.283001 
L 332.375643 -78.397337 
L 317.787408 -83.16982 
L 303.199173 -82.934312 
L 288.610937 -82.464501 
L 274.022702 -81.720101 
L 259.434467 -63.957489 
L 244.846232 -76.565834 
L 230.257996 -79.480689 
L 215.669761 -83.063269 
L 201.081526 -83.55091 
L 186.49329 -78.65859 
L 171.905055 -80.58891 
L 157.31682 -59.219756 
L 142.728585 -75.223789 
L 128.140349 -75.6548 
L 113.552114 -78.249822 
L 98.963879 -65.824619 
L 84.375643 -76.49491 
L 69.787408 -57.866657 
z
" style="stroke: #4e9a73; stroke-opacity: 0.2"/>
    </defs>
    <g clip-path="url(#pc67b63bfc5)">
     <use xlink:href="#m5c2304066a" x="0" y="235.190625" style="fill: #4e9a73; fill-opacity: 0.2; stroke: #4e9a73; stroke-opacity: 0.2"/>
    </g>
   </g>
   <g id="line2d_20">
    <path d="M 69.787408 185.948862 
L 84.375643 166.535774 
L 98.963879 176.966095 
L 113.552114 165.240246 
L 128.140349 167.609872 
L 142.728585 167.646226 
L 157.31682 184.945489 
L 171.905055 162.267142 
L 186.49329 164.679732 
L 201.081526 159.676747 
L 215.669761 160.335747 
L 230.257996 163.274481 
L 244.846232 166.130591 
L 259.434467 180.157324 
L 274.022702 161.297479 
L 288.610937 160.745557 
L 303.199173 161.115047 
L 317.787408 160.600141 
L 332.375643 164.923635 
L 346.963879 165.355257 
L 361.552114 169.766001 
L 376.140349 156.295155 
L 390.728585 154.718709 
L 405.31682 157.197397 
L 419.905055 153.860752 
L 434.49329 151.860616 
L 449.081526 151.1646 
L 463.669761 161.951852 
L 478.257996 149.67937 
L 492.846232 151.470635 
L 507.434467 150.995388 
" clip-path="url(#pc67b63bfc5)" style="fill: none; stroke: #4e9a73; stroke-width: 1.2; stroke-linecap: square"/>
   </g>
   <g id="patch_6">
    <path d="M 55.410938 196.279375 
L 55.410938 135.799375 
" style="fill: none; stroke: #cccccc; stroke-width: 0.75; stroke-linejoin: miter; stroke-linecap: square"/>
   </g>
  </g>
 </g>
 <defs>
  <clipPath id="p0ba71bd593">
   <rect x="65.410938" y="29.959375" width="446.4" height="60.48"/>
  </clipPath>
  <clipPath id="pc67b63bfc5">
   <rect x="65.410938" y="135.799375" width="446.4" height="60.48"/>
  </clipPath>
 </defs>
</svg>
