<?xml version="1.0" encoding="utf-8" standalone="no"?>
<!DOCTYPE svg PUBLIC "-//W3C//DTD SVG 1.1//EN"
  "http://www.w3.org/Graphics/SVG/1.1/DTD/svg11.dtd">
<svg xmlns:xlink="http://www.w3.org/1999/xlink" width="488.8175pt" height="168.6875pt" viewBox="0 0 488.8175 168.6875" xmlns="http://www.w3.org/2000/svg" version="1.1">
 <metadata>
  <rdf:RDF xmlns:dc="http://purl.org/dc/elements/1.1/" xmlns:cc="http://creativecommons.org/ns#" xmlns:rdf="http://www.w3.org/1999/02/22-rdf-syntax-ns#">
   <cc:Work>
    <dc:type rdf:resource="http://purl.org/dc/dcmitype/StillImage"/>
    <dc:date>2024-04-23T15:57:35.703957</dc:date>
    <dc:format>image/svg+xml</dc:format>
    <dc:creator>
     <cc:Agent>
      <dc:title>Matplotlib v3.8.3, https://matplotlib.org/</dc:title>
     </cc:Agent>
    </dc:creator>
   </cc:Work>
  </rdf:RDF>
 </metadata>
 <defs>
  <style type="text/css">*{stroke-linejoin: round; stroke-linecap: butt}</style>
 </defs>
 <g id="figure_1">
  <g id="patch_1">
   <path d="M 0 168.6875 
L 488.8175 168.6875 
L 488.8175 0 
L 0 0 
L 0 168.6875 
z
" style="fill: none"/>
  </g>
  <g id="axes_1">
   <g id="patch_2">
    <path d="M 35.2175 145.8 
L 481.6175 145.8 
L 481.6175 7.2 
L 35.2175 7.2 
L 35.2175 145.8 
z
" style="fill: none"/>
   </g>
   <g id="matplotlib.axis_1">
    <g id="xtick_1">
     <g id="text_1">
      <!-- 0 -->
      <g style="fill: #808080" transform="translate(55.28125 160.0075) scale(0.08 -0.08)">
       <defs>
        <path id="Ubuntu-30" d="M 320 2221 
Q 320 3334 713 3936 
Q 1107 4538 1805 4538 
Q 2502 4538 2896 3936 
Q 3290 3334 3290 2221 
Q 3290 1107 2896 505 
Q 2502 -96 1805 -96 
Q 1107 -96 713 505 
Q 320 1107 320 2221 
z
M 2662 2221 
Q 2662 2586 2620 2912 
Q 2579 3238 2480 3481 
Q 2381 3725 2214 3869 
Q 2048 4013 1805 4013 
Q 1562 4013 1395 3869 
Q 1229 3725 1129 3481 
Q 1030 3238 988 2912 
Q 947 2586 947 2221 
Q 947 1856 988 1529 
Q 1030 1203 1129 960 
Q 1229 717 1395 573 
Q 1562 429 1805 429 
Q 2048 429 2214 573 
Q 2381 717 2480 960 
Q 2579 1203 2620 1529 
Q 2662 1856 2662 2221 
z
" transform="scale(0.015625)"/>
       </defs>
       <use xlink:href="#Ubuntu-30"/>
      </g>
     </g>
    </g>
    <g id="xtick_2">
     <g id="text_2">
      <!-- 5 -->
      <g style="fill: #808080" transform="translate(111.08125 160.0075) scale(0.08 -0.08)">
       <defs>
        <path id="Ubuntu-35" d="M 1274 2726 
Q 2240 2688 2691 2304 
Q 3142 1920 3142 1261 
Q 3142 966 3043 716 
Q 2944 467 2742 288 
Q 2541 109 2233 6 
Q 1926 -96 1504 -96 
Q 1338 -96 1165 -70 
Q 992 -45 845 -6 
Q 698 32 582 70 
Q 467 109 416 134 
L 531 653 
Q 640 602 886 518 
Q 1133 435 1491 435 
Q 1779 435 1974 499 
Q 2170 563 2291 672 
Q 2413 781 2467 925 
Q 2522 1069 2522 1229 
Q 2522 1472 2438 1661 
Q 2355 1850 2144 1978 
Q 1933 2106 1581 2173 
Q 1229 2240 691 2240 
Q 730 2554 752 2829 
Q 774 3104 793 3366 
Q 813 3629 825 3888 
Q 838 4147 851 4435 
L 2989 4435 
L 2989 3930 
L 1370 3930 
Q 1363 3834 1350 3670 
Q 1338 3507 1325 3331 
Q 1312 3155 1299 2988 
Q 1286 2822 1274 2726 
z
" transform="scale(0.015625)"/>
       </defs>
       <use xlink:href="#Ubuntu-35"/>
      </g>
     </g>
    </g>
    <g id="xtick_3">
     <g id="text_3">
      <!-- 10 -->
      <g style="fill: #808080" transform="translate(164.625 160.0075) scale(0.08 -0.08)">
       <defs>
        <path id="Ubuntu-31" d="M 595 3520 
Q 960 3661 1305 3881 
Q 1651 4102 1939 4435 
L 2362 4435 
L 2362 0 
L 1766 0 
L 1766 3610 
Q 1690 3539 1578 3462 
Q 1466 3386 1334 3315 
Q 1203 3245 1059 3181 
Q 915 3117 781 3072 
L 595 3520 
z
" transform="scale(0.015625)"/>
       </defs>
       <use xlink:href="#Ubuntu-31"/>
       <use xlink:href="#Ubuntu-30" x="56.399994"/>
      </g>
     </g>
    </g>
    <g id="xtick_4">
     <g id="text_4">
      <!-- 15 -->
      <g style="fill: #808080" transform="translate(220.425 160.0075) scale(0.08 -0.08)">
       <use xlink:href="#Ubuntu-31"/>
       <use xlink:href="#Ubuntu-35" x="56.399994"/>
      </g>
     </g>
    </g>
    <g id="xtick_5">
     <g id="text_5">
      <!-- 20 -->
      <g style="fill: #808080" transform="translate(276.225 160.0075) scale(0.08 -0.08)">
       <defs>
        <path id="Ubuntu-32" d="M 2989 3302 
Q 2989 3072 2896 2857 
Q 2803 2643 2649 2435 
Q 2496 2227 2304 2025 
Q 2112 1824 1920 1632 
Q 1811 1523 1667 1376 
Q 1523 1229 1395 1069 
Q 1267 909 1180 761 
Q 1094 614 1094 506 
L 3136 506 
L 3136 0 
L 448 0 
Q 442 38 442 76 
Q 442 115 442 147 
Q 442 448 541 707 
Q 640 966 800 1196 
Q 960 1427 1158 1632 
Q 1357 1837 1549 2029 
Q 1709 2182 1853 2332 
Q 1997 2483 2109 2633 
Q 2221 2784 2288 2944 
Q 2355 3104 2355 3283 
Q 2355 3475 2294 3609 
Q 2234 3744 2131 3833 
Q 2029 3923 1891 3964 
Q 1754 4006 1600 4006 
Q 1414 4006 1260 3955 
Q 1107 3904 985 3837 
Q 864 3770 781 3696 
Q 698 3622 653 3584 
L 358 4006 
Q 416 4070 531 4163 
Q 646 4256 806 4339 
Q 966 4422 1164 4480 
Q 1363 4538 1594 4538 
Q 2291 4538 2640 4214 
Q 2989 3891 2989 3302 
z
" transform="scale(0.015625)"/>
       </defs>
       <use xlink:href="#Ubuntu-32"/>
       <use xlink:href="#Ubuntu-30" x="56.399994"/>
      </g>
     </g>
    </g>
    <g id="xtick_6">
     <g id="text_6">
      <!-- 25 -->
      <g style="fill: #808080" transform="translate(332.025 160.0075) scale(0.08 -0.08)">
       <use xlink:href="#Ubuntu-32"/>
       <use xlink:href="#Ubuntu-35" x="56.399994"/>
      </g>
     </g>
    </g>
    <g id="xtick_7">
     <g id="text_7">
      <!-- 30 -->
      <g style="fill: #808080" transform="translate(387.825 160.0075) scale(0.08 -0.08)">
       <defs>
        <path id="Ubuntu-33" d="M 1446 435 
Q 2016 435 2262 659 
Q 2509 883 2509 1261 
Q 2509 1504 2406 1670 
Q 2304 1837 2137 1936 
Q 1971 2035 1750 2076 
Q 1530 2118 1299 2118 
L 1146 2118 
L 1146 2605 
L 1357 2605 
Q 1517 2605 1686 2637 
Q 1856 2669 1997 2752 
Q 2138 2835 2227 2979 
Q 2317 3123 2317 3341 
Q 2317 3520 2253 3648 
Q 2189 3776 2083 3859 
Q 1978 3942 1840 3977 
Q 1702 4013 1549 4013 
Q 1242 4013 1027 3923 
Q 813 3834 666 3738 
L 435 4192 
Q 512 4243 630 4304 
Q 749 4365 896 4416 
Q 1043 4467 1212 4502 
Q 1382 4538 1568 4538 
Q 1920 4538 2176 4451 
Q 2432 4365 2598 4208 
Q 2765 4051 2848 3836 
Q 2931 3622 2931 3373 
Q 2931 3027 2732 2780 
Q 2534 2534 2253 2406 
Q 2426 2355 2586 2259 
Q 2746 2163 2864 2016 
Q 2982 1869 3056 1677 
Q 3130 1485 3130 1248 
Q 3130 960 3030 713 
Q 2931 467 2723 288 
Q 2515 109 2201 6 
Q 1888 -96 1459 -96 
Q 1293 -96 1117 -70 
Q 941 -45 787 -6 
Q 634 32 518 70 
Q 403 109 352 134 
L 467 653 
Q 576 602 829 518 
Q 1082 435 1446 435 
z
" transform="scale(0.015625)"/>
       </defs>
       <use xlink:href="#Ubuntu-33"/>
       <use xlink:href="#Ubuntu-30" x="56.399994"/>
      </g>
     </g>
    </g>
    <g id="xtick_8">
     <g id="text_8">
      <!-- 35 -->
      <g style="fill: #808080" transform="translate(443.625 160.0075) scale(0.08 -0.08)">
       <use xlink:href="#Ubuntu-33"/>
       <use xlink:href="#Ubuntu-35" x="56.399994"/>
      </g>
     </g>
    </g>
   </g>
   <g id="matplotlib.axis_2">
    <g id="ytick_1">
     <g id="text_9">
      <!-- −0.75 -->
      <g style="fill: #808080" transform="translate(7.2 142.155814) scale(0.08 -0.08)">
       <defs>
        <path id="Ubuntu-2212" d="M 339 2138 
L 3270 2138 
L 3270 1632 
L 339 1632 
L 339 2138 
z
" transform="scale(0.015625)"/>
        <path id="Ubuntu-2e" d="M 1216 346 
Q 1216 173 1101 45 
Q 986 -83 787 -83 
Q 589 -83 473 45 
Q 358 173 358 346 
Q 358 518 473 646 
Q 589 774 787 774 
Q 986 774 1101 646 
Q 1216 518 1216 346 
z
" transform="scale(0.015625)"/>
        <path id="Ubuntu-37" d="M 1043 0 
Q 1082 512 1226 1078 
Q 1370 1645 1581 2179 
Q 1792 2714 2045 3171 
Q 2298 3629 2541 3917 
L 384 3917 
L 384 4435 
L 3206 4435 
L 3206 3942 
Q 2995 3699 2739 3273 
Q 2483 2848 2256 2320 
Q 2029 1792 1865 1193 
Q 1702 595 1664 0 
L 1043 0 
z
" transform="scale(0.015625)"/>
       </defs>
       <use xlink:href="#Ubuntu-2212"/>
       <use xlink:href="#Ubuntu-30" x="56.399994"/>
       <use xlink:href="#Ubuntu-2e" x="112.799988"/>
       <use xlink:href="#Ubuntu-37" x="137.399979"/>
       <use xlink:href="#Ubuntu-35" x="193.799973"/>
      </g>
     </g>
    </g>
    <g id="ytick_2">
     <g id="text_10">
      <!-- −0.50 -->
      <g style="fill: #808080" transform="translate(7.2 124.175211) scale(0.08 -0.08)">
       <use xlink:href="#Ubuntu-2212"/>
       <use xlink:href="#Ubuntu-30" x="56.399994"/>
       <use xlink:href="#Ubuntu-2e" x="112.799988"/>
       <use xlink:href="#Ubuntu-35" x="137.399979"/>
       <use xlink:href="#Ubuntu-30" x="193.799973"/>
      </g>
     </g>
    </g>
    <g id="ytick_3">
     <g id="text_11">
      <!-- −0.25 -->
      <g style="fill: #808080" transform="translate(7.2 106.194607) scale(0.08 -0.08)">
       <use xlink:href="#Ubuntu-2212"/>
       <use xlink:href="#Ubuntu-30" x="56.399994"/>
       <use xlink:href="#Ubuntu-2e" x="112.799988"/>
       <use xlink:href="#Ubuntu-32" x="137.399979"/>
       <use xlink:href="#Ubuntu-35" x="193.799973"/>
      </g>
     </g>
    </g>
    <g id="ytick_4">
     <g id="text_12">
      <!-- 0.00 -->
      <g style="fill: #808080" transform="translate(11.7125 88.214004) scale(0.08 -0.08)">
       <use xlink:href="#Ubuntu-30"/>
       <use xlink:href="#Ubuntu-2e" x="56.399994"/>
       <use xlink:href="#Ubuntu-30" x="80.999985"/>
       <use xlink:href="#Ubuntu-30" x="137.399979"/>
      </g>
     </g>
    </g>
    <g id="ytick_5">
     <g id="text_13">
      <!-- 0.25 -->
      <g style="fill: #808080" transform="translate(11.7125 70.2334) scale(0.08 -0.08)">
       <use xlink:href="#Ubuntu-30"/>
       <use xlink:href="#Ubuntu-2e" x="56.399994"/>
       <use xlink:href="#Ubuntu-32" x="80.999985"/>
       <use xlink:href="#Ubuntu-35" x="137.399979"/>
      </g>
     </g>
    </g>
    <g id="ytick_6">
     <g id="text_14">
      <!-- 0.50 -->
      <g style="fill: #808080" transform="translate(11.7125 52.252797) scale(0.08 -0.08)">
       <use xlink:href="#Ubuntu-30"/>
       <use xlink:href="#Ubuntu-2e" x="56.399994"/>
       <use xlink:href="#Ubuntu-35" x="80.999985"/>
       <use xlink:href="#Ubuntu-30" x="137.399979"/>
      </g>
     </g>
    </g>
    <g id="ytick_7">
     <g id="text_15">
      <!-- 0.75 -->
      <g style="fill: #808080" transform="translate(11.7125 34.272193) scale(0.08 -0.08)">
       <use xlink:href="#Ubuntu-30"/>
       <use xlink:href="#Ubuntu-2e" x="56.399994"/>
       <use xlink:href="#Ubuntu-37" x="80.999985"/>
       <use xlink:href="#Ubuntu-35" x="137.399979"/>
      </g>
     </g>
    </g>
    <g id="ytick_8">
     <g id="text_16">
      <!-- 1.00 -->
      <g style="fill: #808080" transform="translate(11.7125 16.29159) scale(0.08 -0.08)">
       <use xlink:href="#Ubuntu-31"/>
       <use xlink:href="#Ubuntu-2e" x="56.399994"/>
       <use xlink:href="#Ubuntu-30" x="80.999985"/>
       <use xlink:href="#Ubuntu-30" x="137.399979"/>
      </g>
     </g>
    </g>
   </g>
   <g id="PolyCollection_1">
    <defs>
     <path id="mcf838b660a" d="M 68.6975 -85.68709 
L 68.6975 -81.467403 
L 79.8575 -81.467403 
L 91.0175 -81.467403 
L 102.1775 -81.467403 
L 113.3375 -81.467403 
L 124.4975 -81.467403 
L 135.6575 -81.467403 
L 146.8175 -81.467403 
L 157.9775 -81.467403 
L 169.1375 -81.467403 
L 180.2975 -81.467403 
L 191.4575 -81.467403 
L 202.6175 -81.467403 
L 213.7775 -81.467403 
L 224.9375 -81.467403 
L 236.0975 -81.467403 
L 247.2575 -81.467403 
L 258.4175 -81.467403 
L 269.5775 -81.467403 
L 280.7375 -81.467403 
L 291.8975 -81.467403 
L 303.0575 -81.467403 
L 314.2175 -81.467403 
L 325.3775 -81.467403 
L 336.5375 -81.467403 
L 347.6975 -81.467403 
L 358.8575 -81.467403 
L 370.0175 -81.467403 
L 381.1775 -81.467403 
L 392.3375 -81.467403 
L 403.4975 -81.467403 
L 414.6575 -81.467403 
L 425.8175 -81.467403 
L 436.9775 -81.467403 
L 448.1375 -81.467403 
L 459.2975 -81.467403 
L 459.2975 -85.68709 
L 459.2975 -85.68709 
L 448.1375 -85.68709 
L 436.9775 -85.68709 
L 425.8175 -85.68709 
L 414.6575 -85.68709 
L 403.4975 -85.68709 
L 392.3375 -85.68709 
L 381.1775 -85.68709 
L 370.0175 -85.68709 
L 358.8575 -85.68709 
L 347.6975 -85.68709 
L 336.5375 -85.68709 
L 325.3775 -85.68709 
L 314.2175 -85.68709 
L 303.0575 -85.68709 
L 291.8975 -85.68709 
L 280.7375 -85.68709 
L 269.5775 -85.68709 
L 258.4175 -85.68709 
L 247.2575 -85.68709 
L 236.0975 -85.68709 
L 224.9375 -85.68709 
L 213.7775 -85.68709 
L 202.6175 -85.68709 
L 191.4575 -85.68709 
L 180.2975 -85.68709 
L 169.1375 -85.68709 
L 157.9775 -85.68709 
L 146.8175 -85.68709 
L 135.6575 -85.68709 
L 124.4975 -85.68709 
L 113.3375 -85.68709 
L 102.1775 -85.68709 
L 91.0175 -85.68709 
L 79.8575 -85.68709 
L 68.6975 -85.68709 
z
"/>
    </defs>
    <g clip-path="url(#pb584503c1c)">
     <use xlink:href="#mcf838b660a" x="0" y="168.6875" style="fill: #6489a9; fill-opacity: 0.15"/>
    </g>
   </g>
   <g id="line2d_1">
    <path d="M 57.5375 85.110254 
L 57.5375 85.110254 
" clip-path="url(#pb584503c1c)" style="fill: none; stroke: #5b5b5b; stroke-width: 1.2; stroke-linecap: square"/>
   </g>
   <g id="line2d_2">
    <path d="M 68.6975 85.110254 
L 68.6975 13.5 
" clip-path="url(#pb584503c1c)" style="fill: none; stroke: #5b5b5b; stroke-width: 1.2; stroke-linecap: square"/>
   </g>
   <g id="line2d_3">
    <path d="M 79.8575 85.110254 
L 79.8575 139.5 
" clip-path="url(#pb584503c1c)" style="fill: none; stroke: #5b5b5b; stroke-width: 1.2; stroke-linecap: square"/>
   </g>
   <g id="line2d_4">
    <path d="M 91.0175 85.110254 
L 91.0175 92.905488 
" clip-path="url(#pb584503c1c)" style="fill: none; stroke: #5b5b5b; stroke-width: 1.2; stroke-linecap: square"/>
   </g>
   <g id="line2d_5">
    <path d="M 102.1775 85.110254 
L 102.1775 93.111982 
" clip-path="url(#pb584503c1c)" style="fill: none; stroke: #5b5b5b; stroke-width: 1.2; stroke-linecap: square"/>
   </g>
   <g id="line2d_6">
    <path d="M 113.3375 85.110254 
L 113.3375 87.796634 
" clip-path="url(#pb584503c1c)" style="fill: none; stroke: #5b5b5b; stroke-width: 1.2; stroke-linecap: square"/>
   </g>
   <g id="line2d_7">
    <path d="M 124.4975 85.110254 
L 124.4975 84.936231 
" clip-path="url(#pb584503c1c)" style="fill: none; stroke: #5b5b5b; stroke-width: 1.2; stroke-linecap: square"/>
   </g>
   <g id="line2d_8">
    <path d="M 135.6575 85.110254 
L 135.6575 88.111449 
" clip-path="url(#pb584503c1c)" style="fill: none; stroke: #5b5b5b; stroke-width: 1.2; stroke-linecap: square"/>
   </g>
   <g id="line2d_9">
    <path d="M 146.8175 85.110254 
L 146.8175 88.422204 
" clip-path="url(#pb584503c1c)" style="fill: none; stroke: #5b5b5b; stroke-width: 1.2; stroke-linecap: square"/>
   </g>
   <g id="line2d_10">
    <path d="M 157.9775 85.110254 
L 157.9775 85.602494 
" clip-path="url(#pb584503c1c)" style="fill: none; stroke: #5b5b5b; stroke-width: 1.2; stroke-linecap: square"/>
   </g>
   <g id="line2d_11">
    <path d="M 169.1375 85.110254 
L 169.1375 89.585926 
" clip-path="url(#pb584503c1c)" style="fill: none; stroke: #5b5b5b; stroke-width: 1.2; stroke-linecap: square"/>
   </g>
   <g id="line2d_12">
    <path d="M 180.2975 85.110254 
L 180.2975 93.334147 
" clip-path="url(#pb584503c1c)" style="fill: none; stroke: #5b5b5b; stroke-width: 1.2; stroke-linecap: square"/>
   </g>
   <g id="line2d_13">
    <path d="M 191.4575 85.110254 
L 191.4575 86.847179 
" clip-path="url(#pb584503c1c)" style="fill: none; stroke: #5b5b5b; stroke-width: 1.2; stroke-linecap: square"/>
   </g>
   <g id="line2d_14">
    <path d="M 202.6175 85.110254 
L 202.6175 85.760207 
" clip-path="url(#pb584503c1c)" style="fill: none; stroke: #5b5b5b; stroke-width: 1.2; stroke-linecap: square"/>
   </g>
   <g id="line2d_15">
    <path d="M 213.7775 85.110254 
L 213.7775 84.665308 
" clip-path="url(#pb584503c1c)" style="fill: none; stroke: #5b5b5b; stroke-width: 1.2; stroke-linecap: square"/>
   </g>
   <g id="line2d_16">
    <path d="M 224.9375 85.110254 
L 224.9375 84.202255 
" clip-path="url(#pb584503c1c)" style="fill: none; stroke: #5b5b5b; stroke-width: 1.2; stroke-linecap: square"/>
   </g>
   <g id="line2d_17">
    <path d="M 236.0975 85.110254 
L 236.0975 83.634861 
" clip-path="url(#pb584503c1c)" style="fill: none; stroke: #5b5b5b; stroke-width: 1.2; stroke-linecap: square"/>
   </g>
   <g id="line2d_18">
    <path d="M 247.2575 85.110254 
L 247.2575 86.484685 
" clip-path="url(#pb584503c1c)" style="fill: none; stroke: #5b5b5b; stroke-width: 1.2; stroke-linecap: square"/>
   </g>
   <g id="line2d_19">
    <path d="M 258.4175 85.110254 
L 258.4175 85.404245 
" clip-path="url(#pb584503c1c)" style="fill: none; stroke: #5b5b5b; stroke-width: 1.2; stroke-linecap: square"/>
   </g>
   <g id="line2d_20">
    <path d="M 269.5775 85.110254 
L 269.5775 86.671844 
" clip-path="url(#pb584503c1c)" style="fill: none; stroke: #5b5b5b; stroke-width: 1.2; stroke-linecap: square"/>
   </g>
   <g id="line2d_21">
    <path d="M 280.7375 85.110254 
L 280.7375 83.913301 
" clip-path="url(#pb584503c1c)" style="fill: none; stroke: #5b5b5b; stroke-width: 1.2; stroke-linecap: square"/>
   </g>
   <g id="line2d_22">
    <path d="M 291.8975 85.110254 
L 291.8975 85.454108 
" clip-path="url(#pb584503c1c)" style="fill: none; stroke: #5b5b5b; stroke-width: 1.2; stroke-linecap: square"/>
   </g>
   <g id="line2d_23">
    <path d="M 303.0575 85.110254 
L 303.0575 85.869999 
" clip-path="url(#pb584503c1c)" style="fill: none; stroke: #5b5b5b; stroke-width: 1.2; stroke-linecap: square"/>
   </g>
   <g id="line2d_24">
    <path d="M 314.2175 85.110254 
L 314.2175 83.578381 
" clip-path="url(#pb584503c1c)" style="fill: none; stroke: #5b5b5b; stroke-width: 1.2; stroke-linecap: square"/>
   </g>
   <g id="line2d_25">
    <path d="M 325.3775 85.110254 
L 325.3775 82.053981 
" clip-path="url(#pb584503c1c)" style="fill: none; stroke: #5b5b5b; stroke-width: 1.2; stroke-linecap: square"/>
   </g>
   <g id="line2d_26">
    <path d="M 336.5375 85.110254 
L 336.5375 87.311647 
" clip-path="url(#pb584503c1c)" style="fill: none; stroke: #5b5b5b; stroke-width: 1.2; stroke-linecap: square"/>
   </g>
   <g id="line2d_27">
    <path d="M 347.6975 85.110254 
L 347.6975 83.798153 
" clip-path="url(#pb584503c1c)" style="fill: none; stroke: #5b5b5b; stroke-width: 1.2; stroke-linecap: square"/>
   </g>
   <g id="line2d_28">
    <path d="M 358.8575 85.110254 
L 358.8575 83.584391 
" clip-path="url(#pb584503c1c)" style="fill: none; stroke: #5b5b5b; stroke-width: 1.2; stroke-linecap: square"/>
   </g>
   <g id="line2d_29">
    <path d="M 370.0175 85.110254 
L 370.0175 85.505685 
" clip-path="url(#pb584503c1c)" style="fill: none; stroke: #5b5b5b; stroke-width: 1.2; stroke-linecap: square"/>
   </g>
   <g id="line2d_30">
    <path d="M 381.1775 85.110254 
L 381.1775 84.950475 
" clip-path="url(#pb584503c1c)" style="fill: none; stroke: #5b5b5b; stroke-width: 1.2; stroke-linecap: square"/>
   </g>
   <g id="line2d_31">
    <path d="M 392.3375 85.110254 
L 392.3375 86.02126 
" clip-path="url(#pb584503c1c)" style="fill: none; stroke: #5b5b5b; stroke-width: 1.2; stroke-linecap: square"/>
   </g>
   <g id="line2d_32">
    <path d="M 403.4975 85.110254 
L 403.4975 88.8491 
" clip-path="url(#pb584503c1c)" style="fill: none; stroke: #5b5b5b; stroke-width: 1.2; stroke-linecap: square"/>
   </g>
   <g id="line2d_33">
    <path d="M 414.6575 85.110254 
L 414.6575 86.109805 
" clip-path="url(#pb584503c1c)" style="fill: none; stroke: #5b5b5b; stroke-width: 1.2; stroke-linecap: square"/>
   </g>
   <g id="line2d_34">
    <path d="M 425.8175 85.110254 
L 425.8175 86.171868 
" clip-path="url(#pb584503c1c)" style="fill: none; stroke: #5b5b5b; stroke-width: 1.2; stroke-linecap: square"/>
   </g>
   <g id="line2d_35">
    <path d="M 436.9775 85.110254 
L 436.9775 87.089437 
" clip-path="url(#pb584503c1c)" style="fill: none; stroke: #5b5b5b; stroke-width: 1.2; stroke-linecap: square"/>
   </g>
   <g id="line2d_36">
    <path d="M 448.1375 85.110254 
L 448.1375 86.115313 
" clip-path="url(#pb584503c1c)" style="fill: none; stroke: #5b5b5b; stroke-width: 1.2; stroke-linecap: square"/>
   </g>
   <g id="line2d_37">
    <path d="M 459.2975 85.110254 
L 459.2975 87.068403 
" clip-path="url(#pb584503c1c)" style="fill: none; stroke: #5b5b5b; stroke-width: 1.2; stroke-linecap: square"/>
   </g>
   <g id="line2d_38">
    <path d="M 46.3775 85.110254 
L 470.4575 85.110254 
" clip-path="url(#pb584503c1c)" style="fill: none; stroke: #5b5b5b; stroke-width: 1.2; stroke-linecap: square"/>
   </g>
   <g id="text_17">
    <!-- 5 -->
    <g style="fill: #b45f58" transform="translate(110.781641 75.210211) scale(0.09 -0.09)">
     <defs>
      <path id="Ubuntu-Bold-35" d="M 2304 1306 
Q 2304 1491 2221 1635 
Q 2138 1779 1933 1875 
Q 1728 1971 1382 2022 
Q 1037 2074 512 2074 
Q 582 2669 627 3283 
Q 672 3898 698 4435 
L 3098 4435 
L 3098 3635 
L 1498 3635 
Q 1485 3405 1469 3190 
Q 1453 2976 1434 2816 
Q 2368 2752 2813 2377 
Q 3258 2003 3258 1338 
Q 3258 1030 3149 768 
Q 3040 506 2822 314 
Q 2605 122 2275 13 
Q 1946 -96 1504 -96 
Q 1331 -96 1142 -73 
Q 954 -51 778 -16 
Q 602 19 461 57 
Q 320 96 243 134 
L 416 922 
Q 576 851 838 784 
Q 1101 717 1466 717 
Q 1907 717 2105 893 
Q 2304 1069 2304 1306 
z
" transform="scale(0.015625)"/>
     </defs>
     <use xlink:href="#Ubuntu-Bold-35"/>
    </g>
   </g>
  </g>
 </g>
 <defs>
  <clipPath id="pb584503c1c">
   <rect x="35.2175" y="7.2" width="446.4" height="138.6"/>
  </clipPath>
 </defs>
</svg>
