<?xml version="1.0" encoding="utf-8" standalone="no"?>
<!DOCTYPE svg PUBLIC "-//W3C//DTD SVG 1.1//EN"
  "http://www.w3.org/Graphics/SVG/1.1/DTD/svg11.dtd">
<svg xmlns:xlink="http://www.w3.org/1999/xlink" width="495.096591pt" height="155.154219pt" viewBox="0 0 495.096591 155.154219" xmlns="http://www.w3.org/2000/svg" version="1.1">
 <metadata>
  <rdf:RDF xmlns:dc="http://purl.org/dc/elements/1.1/" xmlns:cc="http://creativecommons.org/ns#" xmlns:rdf="http://www.w3.org/1999/02/22-rdf-syntax-ns#">
   <cc:Work>
    <dc:type rdf:resource="http://purl.org/dc/dcmitype/StillImage"/>
    <dc:date>2024-06-29T14:17:54.403381</dc:date>
    <dc:format>image/svg+xml</dc:format>
    <dc:creator>
     <cc:Agent>
      <dc:title>Matplotlib v3.8.3, https://matplotlib.org/</dc:title>
     </cc:Agent>
    </dc:creator>
   </cc:Work>
  </rdf:RDF>
 </metadata>
 <defs>
  <style type="text/css">*{stroke-linejoin: round; stroke-linecap: butt}</style>
 </defs>
 <g id="figure_1">
  <g id="patch_1">
   <path d="M 0 155.154219 
L 495.096591 155.154219 
L 495.096591 0 
L 0 0 
L 0 155.154219 
z
" style="fill: none"/>
  </g>
  <g id="axes_1">
   <g id="patch_2">
    <path d="M 41.2625 126.266719 
L 487.6625 126.266719 
L 487.6625 29.246719 
L 41.2625 29.246719 
L 41.2625 126.266719 
z
" style="fill: none"/>
   </g>
   <g id="matplotlib.axis_1">
    <g id="xtick_1">
     <g id="line2d_1">
      <defs>
       <path id="mab1820851a" d="M 0 0 
L 0 3 
" style="stroke: #cecece; stroke-width: 0.75"/>
      </defs>
      <g>
       <use xlink:href="#mab1820851a" x="45.638971" y="131.266719" style="fill: #cecece; stroke: #cecece; stroke-width: 0.75"/>
      </g>
     </g>
     <g id="text_1">
      <!-- 01 -->
      <g style="fill: #808080" transform="translate(41.126471 146.474219) scale(0.08 -0.08)">
       <defs>
        <path id="Ubuntu-Regular-30" d="M 320 2221 
Q 320 3334 713 3936 
Q 1107 4538 1805 4538 
Q 2502 4538 2896 3936 
Q 3290 3334 3290 2221 
Q 3290 1107 2896 505 
Q 2502 -96 1805 -96 
Q 1107 -96 713 505 
Q 320 1107 320 2221 
z
M 2662 2221 
Q 2662 2586 2620 2912 
Q 2579 3238 2480 3481 
Q 2381 3725 2214 3869 
Q 2048 4013 1805 4013 
Q 1562 4013 1395 3869 
Q 1229 3725 1129 3481 
Q 1030 3238 988 2912 
Q 947 2586 947 2221 
Q 947 1856 988 1529 
Q 1030 1203 1129 960 
Q 1229 717 1395 573 
Q 1562 429 1805 429 
Q 2048 429 2214 573 
Q 2381 717 2480 960 
Q 2579 1203 2620 1529 
Q 2662 1856 2662 2221 
z
" transform="scale(0.015625)"/>
        <path id="Ubuntu-Regular-31" d="M 595 3520 
Q 960 3661 1305 3881 
Q 1651 4102 1939 4435 
L 2362 4435 
L 2362 0 
L 1766 0 
L 1766 3610 
Q 1690 3539 1578 3462 
Q 1466 3386 1334 3315 
Q 1203 3245 1059 3181 
Q 915 3117 781 3072 
L 595 3520 
z
" transform="scale(0.015625)"/>
       </defs>
       <use xlink:href="#Ubuntu-Regular-30"/>
       <use xlink:href="#Ubuntu-Regular-31" x="56.399994"/>
      </g>
     </g>
    </g>
    <g id="xtick_2">
     <g id="line2d_2">
      <g>
       <use xlink:href="#mab1820851a" x="102.122212" y="131.266719" style="fill: #cecece; stroke: #cecece; stroke-width: 0.75"/>
      </g>
     </g>
     <g id="text_2">
      <!-- 05 -->
      <g style="fill: #808080" transform="translate(97.609712 146.474219) scale(0.08 -0.08)">
       <defs>
        <path id="Ubuntu-Regular-35" d="M 1274 2726 
Q 2240 2688 2691 2304 
Q 3142 1920 3142 1261 
Q 3142 966 3043 716 
Q 2944 467 2742 288 
Q 2541 109 2233 6 
Q 1926 -96 1504 -96 
Q 1338 -96 1165 -70 
Q 992 -45 845 -6 
Q 698 32 582 70 
Q 467 109 416 134 
L 531 653 
Q 640 602 886 518 
Q 1133 435 1491 435 
Q 1779 435 1974 499 
Q 2170 563 2291 672 
Q 2413 781 2467 925 
Q 2522 1069 2522 1229 
Q 2522 1472 2438 1661 
Q 2355 1850 2144 1978 
Q 1933 2106 1581 2173 
Q 1229 2240 691 2240 
Q 730 2554 752 2829 
Q 774 3104 793 3366 
Q 813 3629 825 3888 
Q 838 4147 851 4435 
L 2989 4435 
L 2989 3930 
L 1370 3930 
Q 1363 3834 1350 3670 
Q 1338 3507 1325 3331 
Q 1312 3155 1299 2988 
Q 1286 2822 1274 2726 
z
" transform="scale(0.015625)"/>
       </defs>
       <use xlink:href="#Ubuntu-Regular-30"/>
       <use xlink:href="#Ubuntu-Regular-35" x="56.399994"/>
      </g>
     </g>
    </g>
    <g id="xtick_3">
     <g id="line2d_3">
      <g>
       <use xlink:href="#mab1820851a" x="158.605453" y="131.266719" style="fill: #cecece; stroke: #cecece; stroke-width: 0.75"/>
      </g>
     </g>
     <g id="text_3">
      <!-- 09 -->
      <g style="fill: #808080" transform="translate(154.092953 146.474219) scale(0.08 -0.08)">
       <defs>
        <path id="Ubuntu-Regular-39" d="M 3206 2662 
Q 3206 1344 2550 669 
Q 1894 -6 602 -13 
L 582 486 
Q 986 486 1309 563 
Q 1632 640 1875 809 
Q 2118 979 2281 1248 
Q 2445 1517 2522 1907 
Q 2355 1830 2144 1782 
Q 1933 1734 1709 1734 
Q 1331 1734 1068 1846 
Q 806 1958 640 2147 
Q 474 2336 400 2582 
Q 326 2829 326 3098 
Q 326 3334 409 3590 
Q 493 3846 662 4057 
Q 832 4269 1094 4403 
Q 1357 4538 1715 4538 
Q 2080 4538 2358 4410 
Q 2637 4282 2825 4038 
Q 3014 3795 3110 3446 
Q 3206 3098 3206 2662 
z
M 1773 2221 
Q 1997 2221 2195 2262 
Q 2394 2304 2579 2387 
Q 2586 2458 2586 2525 
Q 2586 2592 2586 2662 
Q 2586 2938 2547 3190 
Q 2509 3443 2409 3632 
Q 2310 3821 2144 3933 
Q 1978 4045 1722 4045 
Q 1510 4045 1363 3955 
Q 1216 3866 1120 3728 
Q 1024 3590 982 3427 
Q 941 3264 941 3110 
Q 941 2675 1149 2448 
Q 1357 2221 1773 2221 
z
" transform="scale(0.015625)"/>
       </defs>
       <use xlink:href="#Ubuntu-Regular-30"/>
       <use xlink:href="#Ubuntu-Regular-39" x="56.399994"/>
      </g>
     </g>
    </g>
    <g id="xtick_4">
     <g id="line2d_4">
      <g>
       <use xlink:href="#mab1820851a" x="215.088694" y="131.266719" style="fill: #cecece; stroke: #cecece; stroke-width: 0.75"/>
      </g>
     </g>
     <g id="text_4">
      <!-- 13 -->
      <g style="fill: #808080" transform="translate(210.576194 146.474219) scale(0.08 -0.08)">
       <defs>
        <path id="Ubuntu-Regular-33" d="M 1446 435 
Q 2016 435 2262 659 
Q 2509 883 2509 1261 
Q 2509 1504 2406 1670 
Q 2304 1837 2137 1936 
Q 1971 2035 1750 2076 
Q 1530 2118 1299 2118 
L 1146 2118 
L 1146 2605 
L 1357 2605 
Q 1517 2605 1686 2637 
Q 1856 2669 1997 2752 
Q 2138 2835 2227 2979 
Q 2317 3123 2317 3341 
Q 2317 3520 2253 3648 
Q 2189 3776 2083 3859 
Q 1978 3942 1840 3977 
Q 1702 4013 1549 4013 
Q 1242 4013 1027 3923 
Q 813 3834 666 3738 
L 435 4192 
Q 512 4243 630 4304 
Q 749 4365 896 4416 
Q 1043 4467 1212 4502 
Q 1382 4538 1568 4538 
Q 1920 4538 2176 4451 
Q 2432 4365 2598 4208 
Q 2765 4051 2848 3836 
Q 2931 3622 2931 3373 
Q 2931 3027 2732 2780 
Q 2534 2534 2253 2406 
Q 2426 2355 2586 2259 
Q 2746 2163 2864 2016 
Q 2982 1869 3056 1677 
Q 3130 1485 3130 1248 
Q 3130 960 3030 713 
Q 2931 467 2723 288 
Q 2515 109 2201 6 
Q 1888 -96 1459 -96 
Q 1293 -96 1117 -70 
Q 941 -45 787 -6 
Q 634 32 518 70 
Q 403 109 352 134 
L 467 653 
Q 576 602 829 518 
Q 1082 435 1446 435 
z
" transform="scale(0.015625)"/>
       </defs>
       <use xlink:href="#Ubuntu-Regular-31"/>
       <use xlink:href="#Ubuntu-Regular-33" x="56.399994"/>
      </g>
     </g>
    </g>
    <g id="xtick_5">
     <g id="line2d_5">
      <g>
       <use xlink:href="#mab1820851a" x="271.571936" y="131.266719" style="fill: #cecece; stroke: #cecece; stroke-width: 0.75"/>
      </g>
     </g>
     <g id="text_5">
      <!-- 17 -->
      <g style="fill: #808080" transform="translate(267.059436 146.474219) scale(0.08 -0.08)">
       <defs>
        <path id="Ubuntu-Regular-37" d="M 1043 0 
Q 1082 512 1226 1078 
Q 1370 1645 1581 2179 
Q 1792 2714 2045 3171 
Q 2298 3629 2541 3917 
L 384 3917 
L 384 4435 
L 3206 4435 
L 3206 3942 
Q 2995 3699 2739 3273 
Q 2483 2848 2256 2320 
Q 2029 1792 1865 1193 
Q 1702 595 1664 0 
L 1043 0 
z
" transform="scale(0.015625)"/>
       </defs>
       <use xlink:href="#Ubuntu-Regular-31"/>
       <use xlink:href="#Ubuntu-Regular-37" x="56.399994"/>
      </g>
     </g>
    </g>
    <g id="xtick_6">
     <g id="line2d_6">
      <g>
       <use xlink:href="#mab1820851a" x="328.055177" y="131.266719" style="fill: #cecece; stroke: #cecece; stroke-width: 0.75"/>
      </g>
     </g>
     <g id="text_6">
      <!-- 21 -->
      <g style="fill: #808080" transform="translate(323.542677 146.474219) scale(0.08 -0.08)">
       <defs>
        <path id="Ubuntu-Regular-32" d="M 2989 3302 
Q 2989 3072 2896 2857 
Q 2803 2643 2649 2435 
Q 2496 2227 2304 2025 
Q 2112 1824 1920 1632 
Q 1811 1523 1667 1376 
Q 1523 1229 1395 1069 
Q 1267 909 1180 761 
Q 1094 614 1094 506 
L 3136 506 
L 3136 0 
L 448 0 
Q 442 38 442 76 
Q 442 115 442 147 
Q 442 448 541 707 
Q 640 966 800 1196 
Q 960 1427 1158 1632 
Q 1357 1837 1549 2029 
Q 1709 2182 1853 2332 
Q 1997 2483 2109 2633 
Q 2221 2784 2288 2944 
Q 2355 3104 2355 3283 
Q 2355 3475 2294 3609 
Q 2234 3744 2131 3833 
Q 2029 3923 1891 3964 
Q 1754 4006 1600 4006 
Q 1414 4006 1260 3955 
Q 1107 3904 985 3837 
Q 864 3770 781 3696 
Q 698 3622 653 3584 
L 358 4006 
Q 416 4070 531 4163 
Q 646 4256 806 4339 
Q 966 4422 1164 4480 
Q 1363 4538 1594 4538 
Q 2291 4538 2640 4214 
Q 2989 3891 2989 3302 
z
" transform="scale(0.015625)"/>
       </defs>
       <use xlink:href="#Ubuntu-Regular-32"/>
       <use xlink:href="#Ubuntu-Regular-31" x="56.399994"/>
      </g>
     </g>
    </g>
    <g id="xtick_7">
     <g id="line2d_7">
      <g>
       <use xlink:href="#mab1820851a" x="384.538418" y="131.266719" style="fill: #cecece; stroke: #cecece; stroke-width: 0.75"/>
      </g>
     </g>
     <g id="text_7">
      <!-- 25 -->
      <g style="fill: #808080" transform="translate(380.025918 146.474219) scale(0.08 -0.08)">
       <use xlink:href="#Ubuntu-Regular-32"/>
       <use xlink:href="#Ubuntu-Regular-35" x="56.399994"/>
      </g>
     </g>
    </g>
    <g id="xtick_8">
     <g id="line2d_8">
      <g>
       <use xlink:href="#mab1820851a" x="441.02166" y="131.266719" style="fill: #cecece; stroke: #cecece; stroke-width: 0.75"/>
      </g>
     </g>
     <g id="text_8">
      <!-- 29 -->
      <g style="fill: #808080" transform="translate(436.50916 146.474219) scale(0.08 -0.08)">
       <use xlink:href="#Ubuntu-Regular-32"/>
       <use xlink:href="#Ubuntu-Regular-39" x="56.399994"/>
      </g>
     </g>
    </g>
    <g id="xtick_9">
     <g id="line2d_9">
      <g>
       <use xlink:href="#mab1820851a" x="483.384091" y="131.266719" style="fill: #cecece; stroke: #cecece; stroke-width: 0.75"/>
      </g>
     </g>
     <g id="text_9">
      <!-- 31 -->
      <g style="fill: #808080" transform="translate(478.871591 146.474219) scale(0.08 -0.08)">
       <use xlink:href="#Ubuntu-Regular-33"/>
       <use xlink:href="#Ubuntu-Regular-31" x="56.399994"/>
      </g>
     </g>
    </g>
   </g>
   <g id="matplotlib.axis_2">
    <g id="ytick_1">
     <g id="line2d_10">
      <defs>
       <path id="m78f7dbb017" d="M 0 0 
L -3 0 
" style="stroke: #cecece; stroke-width: 0.75"/>
      </defs>
      <g>
       <use xlink:href="#m78f7dbb017" x="38.7625" y="126.266719" style="fill: #cecece; stroke: #cecece; stroke-width: 0.75"/>
      </g>
     </g>
     <g id="text_10">
      <!-- 10000 -->
      <g style="fill: #808080" transform="translate(7.2 129.370469) scale(0.08 -0.08)">
       <use xlink:href="#Ubuntu-Regular-31"/>
       <use xlink:href="#Ubuntu-Regular-30" x="56.399994"/>
       <use xlink:href="#Ubuntu-Regular-30" x="112.799988"/>
       <use xlink:href="#Ubuntu-Regular-30" x="169.199982"/>
       <use xlink:href="#Ubuntu-Regular-30" x="225.599976"/>
      </g>
     </g>
    </g>
    <g id="ytick_2">
     <g id="line2d_11">
      <g>
       <use xlink:href="#m78f7dbb017" x="38.7625" y="102.011719" style="fill: #cecece; stroke: #cecece; stroke-width: 0.75"/>
      </g>
     </g>
     <g id="text_11">
      <!-- 20000 -->
      <g style="fill: #808080" transform="translate(7.2 105.115469) scale(0.08 -0.08)">
       <use xlink:href="#Ubuntu-Regular-32"/>
       <use xlink:href="#Ubuntu-Regular-30" x="56.399994"/>
       <use xlink:href="#Ubuntu-Regular-30" x="112.799988"/>
       <use xlink:href="#Ubuntu-Regular-30" x="169.199982"/>
       <use xlink:href="#Ubuntu-Regular-30" x="225.599976"/>
      </g>
     </g>
    </g>
    <g id="ytick_3">
     <g id="line2d_12">
      <g>
       <use xlink:href="#m78f7dbb017" x="38.7625" y="77.756719" style="fill: #cecece; stroke: #cecece; stroke-width: 0.75"/>
      </g>
     </g>
     <g id="text_12">
      <!-- 30000 -->
      <g style="fill: #808080" transform="translate(7.2 80.860469) scale(0.08 -0.08)">
       <use xlink:href="#Ubuntu-Regular-33"/>
       <use xlink:href="#Ubuntu-Regular-30" x="56.399994"/>
       <use xlink:href="#Ubuntu-Regular-30" x="112.799988"/>
       <use xlink:href="#Ubuntu-Regular-30" x="169.199982"/>
       <use xlink:href="#Ubuntu-Regular-30" x="225.599976"/>
      </g>
     </g>
    </g>
    <g id="ytick_4">
     <g id="line2d_13">
      <g>
       <use xlink:href="#m78f7dbb017" x="38.7625" y="53.501719" style="fill: #cecece; stroke: #cecece; stroke-width: 0.75"/>
      </g>
     </g>
     <g id="text_13">
      <!-- 40000 -->
      <g style="fill: #808080" transform="translate(7.2 56.605469) scale(0.08 -0.08)">
       <defs>
        <path id="Ubuntu-Regular-34" d="M 256 1536 
Q 378 1818 589 2192 
Q 800 2566 1065 2963 
Q 1331 3360 1635 3744 
Q 1939 4128 2246 4435 
L 2816 4435 
L 2816 1619 
L 3341 1619 
L 3341 1133 
L 2816 1133 
L 2816 0 
L 2240 0 
L 2240 1133 
L 256 1133 
L 256 1536 
z
M 2240 3731 
Q 2048 3526 1853 3273 
Q 1658 3021 1472 2745 
Q 1286 2470 1123 2182 
Q 960 1894 832 1619 
L 2240 1619 
L 2240 3731 
z
" transform="scale(0.015625)"/>
       </defs>
       <use xlink:href="#Ubuntu-Regular-34"/>
       <use xlink:href="#Ubuntu-Regular-30" x="56.399994"/>
       <use xlink:href="#Ubuntu-Regular-30" x="112.799988"/>
       <use xlink:href="#Ubuntu-Regular-30" x="169.199982"/>
       <use xlink:href="#Ubuntu-Regular-30" x="225.599976"/>
      </g>
     </g>
    </g>
    <g id="ytick_5">
     <g id="line2d_14">
      <g>
       <use xlink:href="#m78f7dbb017" x="38.7625" y="29.246719" style="fill: #cecece; stroke: #cecece; stroke-width: 0.75"/>
      </g>
     </g>
     <g id="text_14">
      <!-- 50000 -->
      <g style="fill: #808080" transform="translate(7.2 32.350469) scale(0.08 -0.08)">
       <use xlink:href="#Ubuntu-Regular-35"/>
       <use xlink:href="#Ubuntu-Regular-30" x="56.399994"/>
       <use xlink:href="#Ubuntu-Regular-30" x="112.799988"/>
       <use xlink:href="#Ubuntu-Regular-30" x="169.199982"/>
       <use xlink:href="#Ubuntu-Regular-30" x="225.599976"/>
      </g>
     </g>
    </g>
   </g>
   <g id="line2d_15">
    <path d="M 45.638971 80.013363 
L 46.031215 85.319325 
L 46.325399 90.19427 
L 46.717644 92.542567 
L 46.913766 94.623336 
L 47.011827 94.103144 
L 47.20795 94.81655 
L 47.600194 96.33254 
L 47.796317 96.95677 
L 47.992439 97.254023 
L 48.0905 97.001358 
L 48.188561 96.436578 
L 48.286623 96.481166 
L 48.384684 96.436578 
L 48.776928 91.858885 
L 48.87499 91.918336 
L 49.071112 92.928995 
L 49.169173 92.988446 
L 49.365296 95.098941 
L 49.561418 97.343199 
L 49.75754 96.317677 
L 50.051724 93.4046 
L 50.149785 93.18166 
L 50.247846 93.701853 
L 50.345907 92.869545 
L 50.836213 84.516742 
L 51.326519 77.813692 
L 52.405192 68.034076 
L 52.503253 68.479955 
L 53.09162 66.622126 
L 53.189682 67.008554 
L 53.385804 66.503224 
L 53.87611 69.550065 
L 53.974171 69.23795 
L 54.072232 69.312263 
L 54.268355 69.80273 
L 54.366416 69.119049 
L 54.660599 70.545862 
L 54.758661 70.530999 
L 54.856722 70.887703 
L 55.052844 73.280588 
L 55.150905 72.626631 
L 55.248967 72.938747 
L 55.445089 72.314516 
L 55.54315 72.686082 
L 55.739272 74.484461 
L 55.837334 74.350697 
L 56.033456 73.340038 
L 56.229578 68.316466 
L 56.425701 56.90196 
L 56.621823 46.052234 
L 56.916007 44.134954 
L 57.014068 44.194404 
L 57.21019 45.35369 
L 57.308251 45.487454 
L 57.406313 46.230586 
L 57.602435 44.268718 
L 58.484986 51.164982 
L 59.269475 67.811137 
L 60.152026 86.017869 
L 60.54427 89.822704 
L 60.642332 90.209133 
L 61.034576 93.761303 
L 61.426821 95.202979 
L 61.524882 94.994902 
L 61.819066 96.793281 
L 61.917127 96.169051 
L 62.21131 97.031084 
L 62.407433 96.941908 
L 62.799678 94.608473 
L 62.897739 91.175204 
L 62.9958 92.126413 
L 63.093861 92.022374 
L 63.191922 92.735781 
L 63.388045 94.430122 
L 63.486106 95.054353 
L 63.682228 97.595864 
L 63.780289 97.194573 
L 64.172534 92.230451 
L 64.270595 92.780369 
L 64.368657 91.992649 
L 64.760901 86.939352 
L 65.44733 78.512236 
L 65.545391 78.378472 
L 65.643452 80.355203 
L 65.937635 76.476055 
L 66.133758 74.737126 
L 66.231819 73.875093 
L 66.32988 74.038582 
L 66.526003 71.987538 
L 66.624064 72.121302 
L 66.722125 71.274131 
L 66.820186 71.928087 
L 67.212431 68.717758 
L 67.408553 69.966219 
L 67.604676 69.371714 
L 67.898859 72.121302 
L 67.99692 72.894159 
L 68.193043 72.195615 
L 68.291104 72.44828 
L 68.389165 73.250862 
L 68.585287 73.087373 
L 68.683349 73.176549 
L 68.78141 73.934544 
L 68.879471 72.938747 
L 69.075593 73.80078 
L 69.369777 71.94295 
L 69.467838 72.032126 
L 69.762022 73.756192 
L 70.154266 72.032126 
L 70.350389 67.038279 
L 70.546511 55.281933 
L 70.742633 44.50652 
L 71.036817 41.875833 
L 71.527123 44.907811 
L 71.723245 42.604102 
L 71.919368 43.243196 
L 72.017429 43.912014 
L 72.213551 46.453525 
L 72.311612 46.64674 
L 72.507735 50.065147 
L 72.703857 54.063196 
L 72.801918 54.4199 
L 73.978652 79.835011 
L 74.763142 91.606221 
L 74.861203 91.606221 
L 75.057325 92.765506 
L 75.155387 92.602017 
L 75.351509 93.553226 
L 75.44957 93.330287 
L 75.645693 95.26243 
L 75.841815 95.188116 
L 76.037937 96.273089 
L 76.135998 96.213638 
L 76.23406 95.708309 
L 76.430182 96.406853 
L 76.724366 95.842072 
L 77.11661 91.457594 
L 77.410794 93.255973 
L 77.803039 97.402649 
L 77.9011 97.164847 
L 78.293344 93.226248 
L 78.391406 93.434325 
L 78.489467 94.058556 
L 79.077834 84.353253 
L 79.175895 84.115451 
L 79.470079 79.240505 
L 79.56814 80.771357 
L 79.764262 79.329681 
L 80.45069 68.331329 
L 80.548752 69.074461 
L 80.646813 67.573334 
L 80.744874 67.617922 
L 80.940996 67.216631 
L 81.23518 71.303857 
L 81.333241 70.649901 
L 81.529363 71.036329 
L 81.627425 70.426961 
L 81.823547 67.484159 
L 82.215792 69.550065 
L 82.411914 70.397236 
L 82.509975 70.263472 
L 82.608037 70.560725 
L 82.90222 72.418555 
L 83.000281 72.938747 
L 83.196404 72.73067 
L 83.392526 74.127758 
L 83.490587 73.815643 
L 83.68671 71.541659 
L 83.784771 71.66056 
L 83.882832 71.690285 
L 83.980893 70.426961 
L 84.078954 70.887703 
L 84.177015 70.486412 
L 84.373138 67.900312 
L 84.56926 59.755587 
L 84.863444 45.814432 
L 85.059566 44.343031 
L 85.157627 45.115888 
L 85.255688 44.907811 
L 85.451811 46.245448 
L 85.647933 46.750778 
L 85.844056 45.532042 
L 86.040178 45.175339 
L 86.138239 45.948196 
L 86.334361 48.355943 
L 86.922729 56.857372 
L 87.609157 70.129708 
L 88.001402 78.794626 
L 88.785891 89.748391 
L 88.883952 90.164545 
L 89.178136 92.319627 
L 89.472319 94.296358 
L 89.57038 94.043693 
L 89.668442 94.073419 
L 89.864564 95.856935 
L 89.962625 95.500232 
L 90.256809 96.481166 
L 90.452931 96.67438 
L 90.550992 96.67438 
L 90.747115 96.124463 
L 90.845176 96.094737 
L 90.943237 95.678583 
L 91.139359 91.502182 
L 91.237421 91.858885 
L 91.433543 93.523501 
L 91.531604 94.058556 
L 92.02191 100.746743 
L 92.414155 97.298611 
L 92.610277 97.432375 
L 93.198644 86.329984 
L 93.68895 79.478308 
L 94.081195 74.246659 
L 94.571501 69.609516 
L 94.669562 69.698692 
L 94.865684 69.74328 
L 95.061807 68.925835 
L 95.35599 66.414049 
L 95.552113 67.038279 
L 95.650174 67.082867 
L 95.846296 66.265422 
L 95.944357 66.458637 
L 96.14048 67.959763 
L 96.336602 69.312263 
L 96.826908 71.110642 
L 97.02303 72.076714 
L 97.219153 73.325175 
L 97.317214 73.429214 
L 97.611397 71.37817 
L 97.709459 71.779461 
L 97.905581 73.444077 
L 98.101703 71.690285 
L 98.199765 72.255065 
L 98.297826 72.106439 
L 98.592009 66.666713 
L 98.788132 57.050587 
L 98.984254 47.003443 
L 99.180376 45.63608 
L 99.376499 44.833498 
L 99.47456 46.067097 
L 99.572621 45.977921 
L 99.670682 46.230586 
L 99.768743 46.067097 
L 99.866805 46.617014 
L 99.964866 46.275174 
L 100.062927 46.512976 
L 100.357111 48.668059 
L 100.455172 48.890998 
L 100.945478 54.836053 
L 101.1416 57.035724 
L 101.533845 63.515834 
L 102.416395 81.440176 
L 103.397007 93.523501 
L 103.59313 94.043693 
L 103.887313 96.065012 
L 103.985374 96.183913 
L 104.279558 96.808144 
L 104.47568 96.852732 
L 104.671803 96.317677 
L 104.769864 97.581001 
L 104.867925 97.358062 
L 105.162109 95.232704 
L 105.358231 93.092484 
L 105.750476 96.89732 
L 106.14272 103.674683 
L 106.436904 102.649161 
L 107.221393 96.258226 
L 108.398128 77.055698 
L 108.888433 73.637291 
L 108.986495 73.340038 
L 109.084556 73.756192 
L 109.574862 72.032126 
L 109.672923 72.195615 
L 109.770984 72.002401 
L 109.869045 72.151027 
L 109.967107 72.076714 
L 110.065168 72.16589 
L 110.163229 71.8835 
L 110.457412 74.841165 
L 110.555474 74.707401 
L 110.947718 77.308363 
L 111.04578 77.263775 
L 111.339963 78.244709 
L 111.438024 78.006907 
L 111.830269 79.166192 
L 111.92833 79.091879 
L 112.418636 80.637593 
L 112.516697 80.741632 
L 112.614758 80.028225 
L 112.810881 74.008857 
L 113.203126 54.910367 
L 113.497309 51.343333 
L 113.59537 51.343333 
L 113.987615 49.084212 
L 114.085676 49.262564 
L 114.183737 49.515229 
L 114.37986 48.207317 
L 114.477921 48.192454 
L 114.575982 48.400531 
L 114.772104 51.075806 
L 114.870166 52.829597 
L 114.968227 52.309405 
L 115.26241 55.400834 
L 116.341083 79.790423 
L 117.027512 87.890561 
L 117.223634 89.97133 
L 117.517818 92.260177 
L 117.71394 92.928995 
L 117.812001 93.211385 
L 118.106185 94.504435 
L 118.400368 95.024627 
L 118.596491 95.411056 
L 118.694552 95.292155 
L 118.988735 94.118006 
L 119.086797 93.999105 
L 119.282919 91.962924 
L 119.38098 90.19427 
L 119.871286 92.988446 
L 120.16547 96.436578 
L 120.361592 94.177457 
L 120.655775 90.98199 
L 120.753837 91.561633 
L 120.851898 91.294105 
L 121.342204 82.213033 
L 121.538326 80.429517 
L 121.734448 77.813692 
L 122.028632 74.722263 
L 122.420877 69.282538 
L 123.205366 63.218581 
L 123.303427 64.229241 
L 123.401489 62.430862 
L 123.49955 63.173993 
L 123.597611 61.984982 
L 123.695672 63.723911 
L 123.793733 61.553966 
L 123.891794 65.18045 
L 124.087917 64.125202 
L 124.185978 64.67512 
L 124.284039 64.600807 
L 124.3821 64.600807 
L 124.970467 67.959763 
L 125.264651 69.133911 
L 125.362712 69.550065 
L 125.460773 69.148774 
L 125.558835 69.178499 
L 125.754957 69.966219 
L 125.853018 70.099983 
L 125.951079 69.564928 
L 126.04914 69.728417 
L 126.147202 70.352648 
L 126.245263 71.809186 
L 126.441385 71.452483 
L 126.539446 71.764598 
L 126.735569 70.649901 
L 126.931691 64.006301 
L 127.225875 45.041575 
L 127.421997 42.782454 
L 127.520058 42.782454 
L 127.618119 42.173086 
L 127.716181 42.500064 
L 127.814242 42.336575 
L 128.010364 44.937536 
L 128.206487 43.064844 
L 128.402609 42.752728 
L 128.50067 43.332371 
L 128.990976 50.719103 
L 129.28516 54.315861 
L 129.971588 69.446027 
L 130.461894 80.206577 
L 131.246383 89.778116 
L 131.344444 90.268583 
L 131.638628 92.943858 
L 132.030873 94.222045 
L 132.128934 94.727375 
L 132.325056 94.549023 
L 132.521179 95.901523 
L 132.61924 95.812347 
L 132.717301 96.065012 
L 132.815362 95.88666 
L 133.011484 95.202979 
L 133.109546 95.128666 
L 133.403729 92.11155 
L 133.50179 90.595561 
L 133.697913 92.661468 
L 133.795974 92.185863 
L 133.894035 92.289902 
L 134.28628 97.610726 
L 134.384341 96.95677 
L 134.776586 92.676331 
L 134.972708 92.185863 
L 135.95332 75.926137 
L 136.051381 76.743582 
L 136.149442 76.149077 
L 136.443626 71.630835 
L 136.541687 70.976879 
L 136.639748 68.95556 
L 136.737809 69.282538 
L 137.130054 64.883197 
L 137.228115 64.229241 
L 137.326177 64.288691 
L 137.424238 64.585944 
L 137.522299 65.507428 
L 137.62036 64.407592 
L 137.718421 67.499021 
L 137.816482 63.664461 
L 137.914544 65.358801 
L 138.012605 65.210175 
L 138.110666 64.11034 
L 138.208727 64.377867 
L 138.306788 65.923582 
L 138.40485 64.912922 
L 138.699033 66.636988 
L 138.895155 66.993692 
L 139.091278 68.777208 
L 139.2874 68.420505 
L 139.385461 68.925835 
L 139.581584 73.027923 
L 139.679645 73.236 
L 139.875767 74.93034 
L 139.973828 74.246659 
L 140.07189 74.722263 
L 140.268012 74.098033 
L 140.366073 75.049241 
L 140.464134 75.019516 
L 140.562196 75.465395 
L 140.95444 73.325175 
L 141.052501 70.768802 
L 141.542807 48.504569 
L 141.73893 48.801822 
L 141.836991 48.534295 
L 142.131174 50.644789 
L 142.327297 48.385668 
L 143.013725 54.211823 
L 143.209847 58.224735 
L 143.307909 58.403087 
L 143.504031 61.078361 
L 143.798215 66.81534 
L 143.994337 65.537153 
L 145.07301 86.879902 
L 145.367193 89.40655 
L 145.563316 91.873748 
L 145.661377 91.784572 
L 146.347805 95.470507 
L 146.74005 95.648858 
L 146.838111 95.351605 
L 147.132295 94.103144 
L 147.230356 94.103144 
L 147.426478 93.033034 
L 147.622601 89.525451 
L 147.818723 91.517045 
L 147.916784 91.308968 
L 148.40709 97.610726 
L 148.505151 97.789078 
L 148.897396 92.676331 
L 149.093518 91.784572 
L 149.681886 81.737429 
L 149.779947 81.261824 
L 149.976069 77.694791 
L 150.172191 76.208527 
L 150.466375 72.909022 
L 150.564436 72.700945 
L 150.662497 70.501274 
L 150.760559 72.611769 
L 150.956681 69.133911 
L 151.054742 67.469296 
L 151.250864 61.345889 
L 151.839232 59.681273 
L 151.937293 60.067702 
L 152.035354 59.948801 
L 152.133415 60.989186 
L 152.231476 60.246054 
L 152.427599 60.721658 
L 152.52566 60.691933 
L 152.721782 62.297098 
L 152.917905 61.940395 
L 153.506272 64.467043 
L 153.702394 65.329076 
L 153.800455 65.418252 
L 153.898516 66.428911 
L 153.996578 66.280285 
L 154.094639 66.369461 
L 154.1927 66.87479 
L 154.290761 68.836659 
L 154.388822 68.331329 
L 154.584945 68.717758 
L 154.683006 68.212428 
L 154.781067 68.301604 
L 155.075251 66.280285 
L 155.173312 63.248307 
L 155.467495 41.697481 
L 155.565557 42.470338 
L 155.663618 42.589239 
L 155.85974 42.351437 
L 156.055862 37.892646 
L 156.153924 37.80347 
L 156.251985 38.962756 
L 156.448107 37.000887 
L 156.546168 37.090063 
L 156.64423 37.506217 
L 156.938413 42.054184 
L 157.036474 41.965009 
L 157.52678 47.939789 
L 158.115147 65.120999 
L 158.409331 73.265725 
L 159.095759 85.274737 
L 160.076371 93.033034 
L 160.370554 94.073419 
L 160.468616 94.013968 
L 160.566677 93.924792 
L 160.762799 95.054353 
L 160.86086 95.024627 
L 160.958922 95.500232 
L 161.056983 95.440781 
L 161.253105 94.489572 
L 161.449227 94.638199 
L 161.547289 94.519298 
L 161.743411 91.933199 
L 161.939533 92.735781 
L 162.037595 92.468254 
L 162.5279 98.918639 
L 162.822084 94.549023 
L 163.018206 91.606221 
L 163.116268 91.784572 
L 163.214329 91.606221 
L 163.606573 85.63144 
L 163.802696 83.312868 
L 164.293002 77.843417 
L 164.587185 75.257318 
L 164.783308 72.314516 
L 164.881369 71.422758 
L 164.97943 73.265725 
L 165.273614 66.87479 
L 165.371675 66.993692 
L 165.469736 66.904516 
L 165.567797 65.953307 
L 165.76392 67.32067 
L 165.861981 67.261219 
L 165.960042 67.053142 
L 166.058103 70.828252 
L 166.156164 70.501274 
L 166.254225 70.02567 
L 166.352287 66.339735 
L 166.450348 72.433417 
L 166.548409 71.066054 
L 166.64647 65.002098 
L 166.744531 65.091274 
L 166.842593 65.596604 
L 166.940654 65.477702 
L 167.038715 65.626329 
L 167.234837 66.666713 
L 167.332898 66.785615 
L 167.529021 66.696439 
L 167.823204 69.01501 
L 167.921266 68.569131 
L 168.117388 70.412098 
L 168.215449 70.887703 
L 168.31351 70.857977 
L 168.411571 70.679626 
L 168.705755 72.106439 
L 168.901877 76.119351 
L 168.999939 75.227593 
L 169.294122 69.698692 
L 169.686367 50.406987 
L 169.882489 49.188251 
L 170.078612 49.604405 
L 170.372795 51.417647 
L 170.568917 48.831548 
L 171.059223 52.428306 
L 171.157285 51.506822 
L 171.255346 48.890998 
L 171.941774 60.305504 
L 172.628202 75.257318 
L 172.922386 81.232099 
L 173.314631 86.820451 
L 173.412692 87.414957 
L 173.706875 90.952264 
L 174.001059 92.973583 
L 174.09912 92.884407 
L 174.295242 93.241111 
L 174.589426 94.81655 
L 174.88361 94.19232 
L 175.079732 94.786825 
L 175.373915 95.232704 
L 175.668099 93.241111 
L 175.864221 90.684737 
L 176.060344 92.171001 
L 176.158405 92.379078 
L 176.452588 96.748693 
L 176.648711 98.948364 
L 176.746772 98.443034 
L 177.139017 91.635946 
L 177.335139 92.230451 
L 177.727384 87.801385 
L 178.119629 82.094132 
L 178.21769 82.480561 
L 178.413812 79.983637 
L 178.511873 80.013363 
L 178.609934 79.745835 
L 178.806057 75.524846 
L 179.198302 72.938747 
L 179.394424 67.290944 
L 179.492485 67.588197 
L 179.688607 67.142318 
L 179.786669 69.104186 
L 179.88473 68.063801 
L 179.982791 68.331329 
L 180.375036 71.422758 
L 180.571158 69.312263 
L 180.669219 68.123252 
L 181.257586 70.501274 
L 181.355648 70.828252 
L 181.649831 72.284791 
L 181.747892 72.73067 
L 181.845953 72.582044 
L 182.238198 74.781714 
L 182.336259 74.751989 
L 182.532382 74.573637 
L 182.630443 74.900615 
L 182.728504 76.089626 
L 182.826565 76.030176 
L 182.924627 75.911275 
L 183.316871 72.760395 
L 183.512994 64.556219 
L 183.807177 46.92913 
L 184.0033 46.126547 
L 184.101361 46.156273 
L 184.493605 48.355943 
L 184.689728 45.532042 
L 184.787789 45.799569 
L 185.572278 51.863526 
L 186.160646 61.791768 
L 186.847074 77.516439 
L 187.239319 84.056 
L 187.33738 85.007209 
L 187.631563 92.260177 
L 187.729624 89.614627 
L 188.023808 90.98199 
L 188.21993 92.884407 
L 188.514114 93.835616 
L 188.612175 93.597814 
L 188.808297 94.489572 
L 188.906359 94.400397 
L 189.102481 95.738034 
L 189.200542 94.846276 
L 189.396665 95.202979 
L 189.592787 94.459847 
L 189.690848 94.132869 
L 189.788909 93.092484 
L 189.88697 90.595561 
L 189.985032 91.071166 
L 190.181154 92.824957 
L 190.279215 92.735781 
L 190.67146 101.029133 
L 190.769521 100.969683 
L 190.867582 101.029133 
L 191.161766 97.997155 
L 191.455949 95.88666 
L 191.750133 90.446935 
L 191.946255 88.782319 
L 192.3385 82.034681 
L 193.12299 71.690285 
L 193.221051 71.779461 
L 193.319112 72.433417 
L 193.417173 70.471549 
L 193.613295 72.403692 
L 193.711357 71.749736 
L 193.809418 71.779461 
L 193.907479 72.314516 
L 194.103601 70.709351 
L 194.201663 70.59045 
L 194.299724 70.02567 
L 194.397785 70.709351 
L 194.691968 65.983032 
L 194.79003 65.358801 
L 194.986152 65.834406 
L 195.084213 65.74523 
L 195.476458 68.569131 
L 195.67258 68.95556 
L 195.966764 72.284791 
L 196.359009 73.592703 
L 196.45707 73.414351 
L 196.653192 73.444077 
L 196.751253 74.246659 
L 196.947376 76.654406 
L 197.437682 70.59045 
L 197.633804 63.456384 
L 197.927987 47.048031 
L 198.12411 45.442866 
L 198.222171 45.740119 
L 198.320232 45.323965 
L 198.418293 45.383415 
L 198.614416 45.591492 
L 198.712477 45.591492 
L 198.810538 45.740119 
L 199.00666 47.166932 
L 199.104722 47.018306 
L 199.398905 49.366603 
L 199.889211 55.995339 
L 200.281456 61.494515 
L 200.575639 67.082867 
L 200.869823 71.809186 
L 201.164007 79.002703 
L 201.948496 89.495726 
L 202.929108 95.946111 
L 203.027169 96.154188 
L 203.12523 96.065012 
L 203.321353 96.33254 
L 203.419414 96.39199 
L 203.517475 96.154188 
L 203.615536 96.33254 
L 203.713597 96.273089 
L 203.90972 94.578748 
L 204.007781 93.389737 
L 204.400026 95.678583 
L 204.890331 103.793584 
L 204.988393 104.090837 
L 205.184515 103.258529 
L 205.282576 102.961276 
L 206.263188 91.844023 
L 206.655433 85.363912 
L 207.2438 78.497374 
L 207.734106 73.236 
L 207.930228 72.611769 
L 208.028289 73.206274 
L 208.322473 72.403692 
L 208.420534 72.463142 
L 208.518595 72.879296 
L 208.812779 70.768802 
L 209.008901 71.363307 
L 209.499207 76.119351 
L 209.597268 76.297703 
L 209.793391 77.338088 
L 209.891452 77.57589 
L 210.381758 80.697044 
L 210.479819 80.459242 
L 210.970125 82.272484 
L 211.068186 82.391385 
L 211.166247 82.034681 
L 211.264308 82.569736 
L 211.460431 80.84567 
L 211.656553 76.684132 
L 211.852675 64.050889 
L 212.048798 53.884845 
L 212.441043 49.396328 
L 212.637165 47.99924 
L 212.735226 48.920723 
L 213.02941 47.048031 
L 213.127471 47.345284 
L 214.108083 57.095174 
L 215.284817 82.98589 
L 216.069306 91.576495 
L 216.657673 94.222045 
L 216.755735 94.132869 
L 216.951857 94.667924 
L 217.049918 95.351605 
L 217.147979 94.578748 
L 217.344102 96.035287 
L 217.540224 95.173254 
L 217.638285 95.738034 
L 217.834408 94.727375 
L 218.03053 92.646605 
L 218.128591 90.595561 
L 218.422775 93.360012 
L 218.815019 96.808144 
L 218.913081 98.413309 
L 219.011142 97.937704 
L 219.501448 92.289902 
L 219.599509 92.349352 
L 219.69757 92.260177 
L 220.089815 86.523198 
L 220.874304 75.257318 
L 220.972365 76.149077 
L 221.070427 75.792373 
L 221.36461 69.490615 
L 221.462671 69.609516 
L 221.756855 67.469296 
L 221.854916 67.082867 
L 222.051038 65.715505 
L 222.247161 66.666713 
L 222.541344 64.258966 
L 222.639406 64.16979 
L 222.737467 64.377867 
L 222.933589 65.864131 
L 223.129711 66.191109 
L 223.227773 67.261219 
L 223.325834 66.726164 
L 223.423895 67.023417 
L 223.521956 68.063801 
L 223.718079 67.88545 
L 223.81614 67.112593 
L 223.914201 68.509681 
L 224.012262 67.469296 
L 224.306446 69.223087 
L 224.502568 71.511934 
L 224.600629 71.393032 
L 224.796752 69.431164 
L 224.894813 69.787868 
L 224.992874 69.579791 
L 225.188996 73.503527 
L 225.287057 73.206274 
L 225.48318 70.679626 
L 225.875425 58.165284 
L 226.169608 44.491657 
L 226.36573 43.094569 
L 226.463792 42.975668 
L 226.561853 43.035119 
L 226.757975 44.432207 
L 226.856036 45.680668 
L 227.052159 43.837701 
L 227.15022 43.926877 
L 227.444403 46.602152 
L 227.738587 50.615064 
L 228.719199 70.233747 
L 229.209505 80.191714 
L 229.993994 91.04144 
L 230.4843 94.370671 
L 230.582361 94.19232 
L 230.778484 94.281495 
L 230.974606 95.440781 
L 231.072667 94.876001 
L 231.170728 95.143528 
L 231.26879 96.243364 
L 231.366851 95.82721 
L 231.562973 96.035287 
L 231.857157 94.846276 
L 231.955218 95.024627 
L 232.053279 94.162594 
L 232.249401 90.863089 
L 232.445524 92.200726 
L 233.131952 99.60232 
L 233.328074 96.481166 
L 233.622258 94.013968 
L 233.720319 94.103144 
L 233.81838 93.954517 
L 235.289298 73.444077 
L 235.877665 68.331329 
L 236.073788 68.896109 
L 236.171849 68.569131 
L 236.26991 69.639241 
L 236.564093 67.053142 
L 236.858277 68.509681 
L 236.956338 67.617922 
L 237.152461 68.123252 
L 237.348583 70.857977 
L 237.544705 69.312263 
L 237.740828 70.620175 
L 238.035011 70.412098 
L 238.329195 71.511934 
L 238.525317 71.303857 
L 238.72144 73.146824 
L 238.819501 72.819846 
L 238.917562 72.700945 
L 239.015623 73.414351 
L 239.211745 76.238253 
L 239.505929 73.622428 
L 239.800113 63.634735 
L 240.290418 42.054184 
L 240.38848 41.786657 
L 240.486541 42.173086 
L 240.584602 41.994734 
L 240.976847 44.640284 
L 241.172969 43.094569 
L 241.467153 45.710393 
L 242.05552 54.360449 
L 242.447764 60.989186 
L 242.741948 66.636988 
L 243.134193 76.535505 
L 244.114805 90.179407 
L 244.60511 93.627539 
L 244.703172 93.389737 
L 244.899294 94.519298 
L 245.095416 94.786825 
L 245.3896 96.124463 
L 245.487661 96.035287 
L 245.585722 96.39199 
L 246.174089 94.222045 
L 246.370212 91.933199 
L 246.468273 92.230451 
L 247.154701 99.275342 
L 247.252762 98.888913 
L 247.546946 93.954517 
L 247.743068 91.427869 
L 247.84113 90.952264 
L 247.939191 91.54677 
L 248.135313 88.752594 
L 248.72368 77.248912 
L 248.821741 73.86023 
L 248.919803 73.889956 
L 249.017864 73.473802 
L 249.115925 76.208527 
L 249.312047 68.152977 
L 249.802353 59.978526 
L 249.998476 64.258966 
L 250.096537 62.415999 
L 250.194598 62.594351 
L 250.881026 55.163031 
L 251.567454 61.316164 
L 251.763577 61.999845 
L 251.861638 61.762043 
L 251.959699 61.880944 
L 252.155822 62.653801 
L 252.253883 62.505175 
L 252.450005 63.515834 
L 252.646127 62.802428 
L 253.234495 64.407592 
L 253.332556 64.199516 
L 253.626739 63.129406 
L 253.7248 62.713252 
L 253.920923 60.008252 
L 254.411229 42.589239 
L 254.50929 42.708141 
L 254.607351 42.054184 
L 254.705412 42.559514 
L 254.803473 43.689075 
L 254.901535 43.629624 
L 255.097657 44.372756 
L 255.293779 43.362097 
L 255.391841 43.510723 
L 256.372452 56.084515 
L 257.353064 77.546165 
L 257.647248 82.569736 
L 257.84337 84.472154 
L 258.137554 88.722869 
L 258.333676 90.625286 
L 258.431737 91.011715 
L 258.823982 93.835616 
L 258.922043 93.865342 
L 259.020104 94.043693 
L 259.118166 93.895067 
L 259.314288 94.489572 
L 259.412349 94.608473 
L 259.608471 94.876001 
L 259.804594 95.232704 
L 260.000716 94.459847 
L 260.196839 94.667924 
L 260.2949 94.19232 
L 260.392961 91.487319 
L 260.589083 92.438528 
L 260.687144 92.497979 
L 260.883267 94.281495 
L 261.17745 98.710562 
L 261.275512 99.007814 
L 261.373573 98.918639 
L 261.569695 94.578748 
L 261.765817 91.844023 
L 261.96194 90.090231 
L 262.060001 90.714462 
L 262.158062 89.763253 
L 262.354185 86.315121 
L 262.550307 84.888308 
L 262.942552 77.605615 
L 263.236735 74.811439 
L 263.62898 69.01501 
L 263.825102 65.388527 
L 264.413469 59.146219 
L 264.511531 60.305504 
L 264.805714 56.530394 
L 264.903775 58.016658 
L 265.099898 57.273526 
L 265.29602 57.095174 
L 265.394081 57.422152 
L 265.590204 59.532647 
L 265.786326 60.186603 
L 265.884387 59.919076 
L 265.982448 61.226988 
L 266.08051 60.573032 
L 266.276632 61.345889 
L 266.472754 61.880944 
L 266.668877 63.188856 
L 266.766938 63.783362 
L 266.864999 63.09968 
L 266.96306 63.813087 
L 267.061121 62.980779 
L 267.159183 63.367208 
L 267.453366 65.537153 
L 267.845611 62.267373 
L 268.041733 59.027317 
L 268.6301 41.905558 
L 269.218467 45.710393 
L 269.41459 43.094569 
L 269.708773 44.134954 
L 270.002957 48.05869 
L 270.29714 51.26902 
L 270.493263 57.68968 
L 270.591324 57.511328 
L 270.689385 58.432812 
L 271.768058 81.261824 
L 271.96418 83.639846 
L 272.454486 89.91188 
L 273.042853 94.013968 
L 273.435098 95.648858 
L 273.729282 96.600067 
L 273.827343 97.135122 
L 274.121527 95.916386 
L 274.317649 95.26243 
L 274.41571 94.25177 
L 274.513771 91.814297 
L 274.709894 92.854682 
L 274.807955 92.527704 
L 274.906016 92.587155 
L 275.2002 97.164847 
L 275.396322 99.275342 
L 275.592444 98.383584 
L 275.984689 92.408803 
L 276.08275 93.003309 
L 276.278873 92.11155 
L 276.86724 80.28089 
L 277.161423 75.019516 
L 277.553668 71.66056 
L 277.651729 71.749736 
L 277.847851 68.242153 
L 277.945913 67.647648 
L 278.240096 64.972373 
L 278.436219 64.021164 
L 278.53428 64.585944 
L 278.730402 65.983032 
L 278.828463 66.012757 
L 279.024586 67.9449 
L 279.122647 67.915175 
L 279.220708 68.39078 
L 279.318769 67.647648 
L 279.41683 65.864131 
L 279.612953 66.488362 
L 279.711014 66.458637 
L 279.809075 67.528747 
L 279.907136 66.993692 
L 280.20132 69.252813 
L 280.397442 69.936494 
L 280.593565 69.252813 
L 280.887748 71.006604 
L 280.985809 71.09578 
L 281.08387 71.630835 
L 281.279993 71.036329 
L 281.378054 71.184956 
L 281.672238 73.830505 
L 281.966421 72.22534 
L 282.064482 71.066054 
L 282.162543 71.125505 
L 282.456727 57.065449 
L 282.652849 45.621218 
L 282.848972 44.967262 
L 283.339278 47.761438 
L 283.5354 44.640284 
L 284.614073 53.855119 
L 284.908257 59.473197 
L 286.379174 88.33644 
L 286.771419 92.11155 
L 286.86948 92.527704 
L 287.163664 94.608473 
L 287.359786 94.459847 
L 287.457847 95.173254 
L 287.555909 94.81655 
L 287.65397 94.846276 
L 287.850092 95.619133 
L 288.340398 93.835616 
L 288.438459 93.835616 
L 288.53652 92.854682 
L 288.634582 90.357759 
L 288.928765 92.61688 
L 289.026826 93.241111 
L 289.615193 102.069518 
L 289.811316 100.73188 
L 289.909377 99.929298 
L 290.105499 97.105397 
L 290.399683 94.7571 
L 291.380295 78.021769 
L 292.360907 66.963966 
L 292.458968 67.023417 
L 292.65509 66.191109 
L 292.851212 67.201768 
L 293.047335 66.220834 
L 293.145396 66.161384 
L 293.243457 65.74523 
L 293.341518 64.407592 
L 293.43958 64.585944 
L 293.537641 64.407592 
L 293.733763 64.972373 
L 293.831824 64.853472 
L 294.420191 69.341988 
L 294.518253 69.490615 
L 294.616314 69.282538 
L 294.714375 69.668966 
L 295.204681 74.157483 
L 295.302742 73.919681 
L 295.400803 74.246659 
L 295.498864 73.830505 
L 295.694987 75.614022 
L 295.793048 75.227593 
L 295.891109 75.405945 
L 296.087231 74.395285 
L 296.381415 70.293197 
L 296.577537 60.067702 
L 296.77366 48.980174 
L 296.969782 46.542701 
L 297.067843 46.36435 
L 297.165904 46.4238 
L 297.263966 45.948196 
L 297.362027 46.037372 
L 297.558149 47.256108 
L 297.65621 47.018306 
L 297.754272 47.107481 
L 297.852333 47.018306 
L 297.950394 47.404734 
L 298.146516 49.901657 
L 298.244577 50.020559 
L 298.342639 50.615064 
L 298.538761 52.576932 
L 298.734883 54.538801 
L 298.931006 57.541054 
L 299.029067 58.076109 
L 299.519373 68.539406 
L 300.10774 80.875396 
L 300.794168 91.457594 
L 300.892229 91.338693 
L 300.990291 91.606221 
L 301.186413 92.735781 
L 301.480597 94.19232 
L 301.676719 94.994902 
L 301.77478 94.965177 
L 301.970902 95.797485 
L 302.167025 96.481166 
L 302.363147 95.26243 
L 302.461208 95.411056 
L 302.55927 95.113803 
L 302.657331 94.222045 
L 302.755392 92.081825 
L 302.951514 93.776166 
L 303.049575 94.073419 
L 303.245698 97.045946 
L 303.736004 105.071771 
L 304.030187 103.704408 
L 304.128248 103.734133 
L 305.206921 90.863089 
L 306.089472 73.236 
L 306.285594 71.928087 
L 306.481717 70.649901 
L 306.579778 71.006604 
L 306.7759 73.503527 
L 307.070084 71.422758 
L 307.266206 70.679626 
L 307.364267 70.709351 
L 307.462329 70.08512 
L 307.56039 70.709351 
L 307.756512 70.263472 
L 307.952635 71.452483 
L 308.050696 71.720011 
L 308.148757 71.482208 
L 308.344879 72.79012 
L 308.639063 75.287044 
L 309.031308 76.416604 
L 309.129369 76.981384 
L 309.22743 78.586549 
L 309.423552 77.873143 
L 309.521613 78.051494 
L 309.619675 78.14067 
L 309.815797 79.062154 
L 310.109981 80.310615 
L 310.306103 79.032429 
L 310.502225 76.684132 
L 310.698348 66.904516 
L 310.992531 51.77435 
L 311.286715 48.712646 
L 311.384776 48.474844 
L 311.482837 48.950449 
L 311.973143 46.958855 
L 312.071204 47.166932 
L 312.267327 48.861273 
L 312.365388 49.158526 
L 312.757633 52.666108 
L 313.346 64.229241 
L 313.836306 76.832758 
L 314.816917 91.457594 
L 315.209162 93.895067 
L 315.405284 94.519298 
L 315.993652 96.718968 
L 316.091713 96.629792 
L 316.189774 96.183913 
L 316.385896 96.481166 
L 316.68008 95.411056 
L 316.876202 91.873748 
L 316.974263 92.319627 
L 317.268447 95.173254 
L 317.660692 102.30732 
L 317.758753 102.396496 
L 318.052936 98.799737 
L 318.249059 95.292155 
L 318.445181 95.054353 
L 318.543242 95.173254 
L 318.837426 89.852429 
L 319.621915 77.992044 
L 319.719977 78.646 
L 319.818038 77.992044 
L 320.210282 72.373967 
L 320.406405 70.501274 
L 320.602527 68.063801 
L 320.700588 67.290944 
L 320.79865 67.499021 
L 320.994772 67.201768 
L 321.190894 65.120999 
L 321.387017 66.280285 
L 321.485078 65.893856 
L 321.583139 66.25056 
L 321.6812 65.774955 
L 321.877323 66.131659 
L 322.073445 68.747483 
L 322.171506 68.925835 
L 322.269567 68.628582 
L 322.367628 68.777208 
L 322.46569 68.182703 
L 322.661812 68.212428 
L 322.759873 68.925835 
L 322.955996 68.658307 
L 323.054057 68.212428 
L 323.34824 69.401439 
L 323.544363 71.630835 
L 323.642424 71.749736 
L 323.838546 72.73067 
L 324.034669 73.711604 
L 324.426913 71.244406 
L 324.524974 70.412098 
L 324.721097 64.467043 
L 325.113342 44.313305 
L 325.211403 42.975668 
L 325.309464 43.035119 
L 325.407525 42.678415 
L 325.603647 43.362097 
L 325.701709 44.937536 
L 325.897831 41.875833 
L 326.388137 46.037372 
L 326.68232 49.039624 
L 328.545483 86.790726 
L 328.839667 90.090231 
L 329.035789 91.487319 
L 329.231911 93.241111 
L 329.526095 94.281495 
L 329.624156 93.776166 
L 329.91834 94.994902 
L 330.016401 95.202979 
L 330.212523 95.946111 
L 330.310584 95.82721 
L 330.604768 94.549023 
L 330.80089 94.459847 
L 330.997013 91.130616 
L 331.095074 91.160341 
L 331.291196 93.062759 
L 331.781502 100.375177 
L 331.879563 100.404902 
L 332.075686 98.086331 
L 332.271808 94.81655 
L 332.369869 93.984243 
L 332.46793 92.0521 
L 332.565991 92.497979 
L 332.664053 92.408803 
L 332.762114 91.635946 
L 333.25242 84.056 
L 333.350481 84.145176 
L 333.448542 87.296055 
L 333.644664 85.274737 
L 333.742726 85.928693 
L 333.938848 82.718363 
L 334.331093 79.062154 
L 334.429154 79.508033 
L 334.821399 76.594956 
L 334.91946 76.624681 
L 335.507827 69.163637 
L 335.703949 70.679626 
L 335.80201 70.293197 
L 335.900072 68.717758 
L 335.998133 68.985285 
L 336.194255 69.817593 
L 336.292316 69.995944 
L 336.488439 67.409845 
L 336.5865 67.558472 
L 336.782622 68.925835 
L 336.880683 68.688032 
L 336.978745 68.242153 
L 337.076806 68.331329 
L 337.174867 69.01501 
L 337.272928 68.658307 
L 337.567112 71.393032 
L 337.763234 70.976879 
L 337.959357 72.522593 
L 338.057418 74.543912 
L 338.155479 73.562978 
L 338.25354 74.127758 
L 338.351601 73.889956 
L 338.547724 72.017263 
L 338.743846 68.658307 
L 338.939968 58.373361 
L 339.136091 45.532042 
L 339.332213 42.886492 
L 339.430274 42.916217 
L 339.724458 43.897152 
L 339.822519 45.740119 
L 340.018641 43.035119 
L 340.214764 44.343031 
L 340.607008 48.266767 
L 340.70507 48.653196 
L 340.803131 49.515229 
L 341.097314 55.163031 
L 342.666293 86.017869 
L 343.25466 93.151935 
L 343.352722 93.419462 
L 343.450783 93.12221 
L 343.548844 93.211385 
L 343.941089 95.024627 
L 344.03915 95.202979 
L 344.137211 95.856935 
L 344.235272 95.292155 
L 344.333333 95.529957 
L 344.431395 95.024627 
L 344.627517 95.529957 
L 344.823639 94.459847 
L 344.9217 94.905726 
L 345.117823 91.517045 
L 345.412006 93.716715 
L 345.902312 101.058859 
L 346.000373 100.910232 
L 346.588741 91.54677 
L 346.686802 91.873748 
L 346.784863 92.0521 
L 347.275169 84.353253 
L 347.471291 81.588802 
L 347.667414 74.573637 
L 348.15772 70.263472 
L 348.255781 72.22534 
L 348.648025 69.163637 
L 348.746087 69.490615 
L 348.844148 69.847318 
L 348.942209 68.420505 
L 349.04027 68.569131 
L 349.432515 64.764296 
L 349.530576 65.2399 
L 349.726698 64.823746 
L 349.82476 64.912922 
L 349.922821 64.734571 
L 350.020882 65.120999 
L 350.118943 64.883197 
L 350.413127 67.499021 
L 350.511188 66.755889 
L 350.805371 67.855725 
L 351.001494 68.598856 
L 351.099555 68.509681 
L 351.197616 68.242153 
L 351.393739 69.995944 
L 351.589861 72.284791 
L 351.687922 72.433417 
L 351.785983 71.868637 
L 351.884044 72.136164 
L 351.982106 71.690285 
L 352.178228 72.879296 
L 352.276289 72.819846 
L 352.37435 73.29545 
L 352.472412 73.057648 
L 352.668534 70.649901 
L 352.864656 66.518087 
L 353.15884 50.942042 
L 353.354962 43.807976 
L 353.453023 41.816382 
L 353.551085 42.321712 
L 353.845268 46.126547 
L 354.237513 44.164679 
L 354.335574 44.432207 
L 354.433635 45.205064 
L 354.531696 47.196657 
L 354.629758 46.98858 
L 354.727819 47.404734 
L 355.120063 53.320064 
L 356.100675 74.781714 
L 356.49292 82.748088 
L 357.375471 92.854682 
L 357.571593 94.073419 
L 357.669654 93.805891 
L 357.865777 93.984243 
L 357.963838 93.805891 
L 358.258021 94.786825 
L 358.552205 95.32188 
L 359.042511 93.924792 
L 359.238633 90.387484 
L 359.728939 96.718968 
L 360.023123 101.415562 
L 360.121184 101.356111 
L 360.61149 94.132869 
L 360.709551 93.657265 
L 360.807612 93.74644 
L 360.905673 93.300561 
L 361.199857 89.257924 
L 362.082407 77.902868 
L 362.180469 77.427264 
L 362.27853 76.089626 
L 362.376591 76.535505 
L 362.474652 80.399791 
L 362.670775 70.917428 
L 363.16108 67.974626 
L 363.259142 65.388527 
L 363.357203 66.755889 
L 363.553325 63.753636 
L 363.749448 64.883197 
L 363.847509 65.923582 
L 363.94557 65.626329 
L 364.141692 66.220834 
L 364.435876 67.261219 
L 364.631998 67.88545 
L 364.926182 69.579791 
L 365.024243 68.509681 
L 365.220365 70.055395 
L 365.416488 69.579791 
L 365.514549 69.52034 
L 365.808732 71.957813 
L 365.906794 71.66056 
L 366.102916 70.263472 
L 366.200977 70.798527 
L 366.299038 72.463142 
L 366.3971 72.403692 
L 366.691283 72.017263 
L 367.083528 63.664461 
L 367.573834 42.440613 
L 367.671895 42.886492 
L 367.966078 45.323965 
L 368.06414 46.096822 
L 368.260262 44.461932 
L 368.358323 44.670009 
L 368.456384 44.432207 
L 368.554446 44.729459 
L 369.142813 52.755284 
L 369.633119 61.345889 
L 370.417608 79.71611 
L 371.300159 91.130616 
L 372.084648 96.154188 
L 372.182709 95.82721 
L 372.378832 96.451441 
L 372.476893 96.570342 
L 372.574954 96.243364 
L 372.771076 98.353858 
L 372.967199 95.708309 
L 373.06526 95.619133 
L 373.163321 94.935452 
L 373.261382 91.933199 
L 373.359443 92.171001 
L 373.653627 94.043693 
L 374.143933 101.980342 
L 374.438117 99.632045 
L 374.830361 94.340946 
L 375.026484 94.846276 
L 375.124545 94.281495 
L 375.418728 88.812045 
L 375.614851 86.850176 
L 376.203218 78.14067 
L 376.39934 75.941 
L 376.693524 72.968472 
L 377.18383 69.104186 
L 377.281891 69.341988 
L 377.379952 69.401439 
L 377.478013 70.114846 
L 377.576074 69.758142 
L 377.772197 72.463142 
L 377.870258 72.344241 
L 378.06638 72.046989 
L 378.262503 70.887703 
L 378.360564 70.947153 
L 378.458625 72.909022 
L 378.556686 72.314516 
L 378.752809 68.777208 
L 378.85087 68.925835 
L 378.948931 68.866384 
L 379.341176 72.373967 
L 379.439237 72.79012 
L 379.537298 72.314516 
L 379.831482 74.157483 
L 379.929543 74.216934 
L 380.027604 74.038582 
L 380.125665 75.673472 
L 380.223726 75.495121 
L 380.615971 76.386879 
L 380.714032 75.970725 
L 381.106277 69.371714 
L 381.302399 62.207922 
L 381.596583 46.156273 
L 381.792705 44.670009 
L 381.988828 47.107481 
L 382.18495 46.304899 
L 382.283011 45.680668 
L 382.381072 45.799569 
L 382.479133 45.680668 
L 382.871378 47.701987 
L 383.361684 53.855119 
L 383.459745 54.241548 
L 383.950051 63.813087 
L 384.63648 80.161989 
L 385.51903 91.903473 
L 385.715153 93.389737 
L 385.813214 93.449188 
L 386.107397 96.600067 
L 386.597703 98.234957 
L 386.695764 98.116056 
L 386.793826 98.294408 
L 387.18607 96.481166 
L 387.382193 92.557429 
L 387.480254 92.765506 
L 387.872499 96.718968 
L 388.166682 101.772265 
L 388.264743 102.574848 
L 388.362804 102.515397 
L 388.460866 102.218144 
L 389.245355 95.232704 
L 390.716273 73.622428 
L 391.206579 68.39078 
L 391.30464 68.777208 
L 391.402701 68.569131 
L 391.500762 67.647648 
L 391.598823 67.766549 
L 391.991068 66.399186 
L 392.187191 67.855725 
L 392.285252 66.87479 
L 392.383313 66.904516 
L 392.481374 66.963966 
L 392.873619 69.668966 
L 393.265864 71.541659 
L 393.363925 72.344241 
L 393.461986 71.898362 
L 393.75617 74.098033 
L 393.854231 74.187208 
L 393.952292 74.960066 
L 394.050353 74.900615 
L 394.148414 74.514187 
L 394.344537 74.662813 
L 394.63872 77.159736 
L 394.834843 78.378472 
L 395.129026 76.297703 
L 395.325148 71.125505 
L 395.521271 60.067702 
L 395.717393 50.406987 
L 395.913516 47.969515 
L 396.011577 48.207317 
L 396.30576 48.05869 
L 396.599944 48.861273 
L 396.698005 48.593745 
L 396.796066 48.890998 
L 397.678617 57.303251 
L 398.365045 69.906769 
L 398.659229 76.476055 
L 399.149535 85.393638 
L 399.541779 88.90122 
L 399.835963 92.081825 
L 399.934024 92.765506 
L 400.130146 94.578748 
L 400.42433 95.440781 
L 400.718513 96.005561 
L 400.816575 95.88666 
L 401.012697 96.540616 
L 401.208819 96.629792 
L 401.306881 96.035287 
L 401.503003 94.25177 
L 401.797187 96.273089 
L 401.895248 96.89732 
L 402.483615 106.855287 
L 402.679737 106.558035 
L 403.366165 101.326386 
L 405.42545 71.452483 
L 405.621573 71.422758 
L 405.719634 72.017263 
L 405.817695 71.838912 
L 405.915756 71.333582 
L 406.013817 71.363307 
L 406.111879 71.363307 
L 406.308001 71.779461 
L 406.406062 71.987538 
L 406.602184 71.868637 
L 406.700246 72.106439 
L 406.798307 71.987538 
L 406.896368 71.452483 
L 407.288613 74.36556 
L 407.386674 74.187208 
L 407.87698 79.121604 
L 407.975041 79.448582 
L 408.073102 80.607868 
L 408.171163 80.578143 
L 408.269225 81.172648 
L 408.367286 80.756495 
L 408.563408 81.707703 
L 408.857592 82.688638 
L 409.053714 81.648253 
L 409.54402 67.796274 
L 409.936265 45.710393 
L 410.328509 41.281327 
L 410.720754 42.291987 
L 410.818815 42.054184 
L 411.21106 44.78891 
L 412.780039 80.28089 
L 413.368406 88.068913 
L 413.760651 91.219792 
L 413.956773 91.606221 
L 414.349018 94.489572 
L 414.447079 94.638199 
L 414.54514 94.340946 
L 414.741263 95.024627 
L 414.937385 94.370671 
L 415.231569 93.211385 
L 415.32963 93.18166 
L 415.427691 92.706056 
L 415.623813 89.049847 
L 415.721874 89.644352 
L 415.917997 89.020121 
L 416.016058 89.168748 
L 416.114119 88.782319 
L 416.310242 90.952264 
L 416.408303 90.803638 
L 416.506364 91.190067 
L 416.604425 91.04144 
L 416.800547 92.379078 
L 416.898609 94.638199 
L 418.957893 68.985285 
L 419.055955 68.747483 
L 419.448199 61.197263 
L 419.742383 58.492262 
L 419.938505 60.483856 
L 420.134628 59.443471 
L 420.428811 62.356548 
L 420.526872 61.108087 
L 420.722995 63.426658 
L 420.919117 67.88545 
L 421.507484 69.550065 
L 421.703607 70.02567 
L 421.899729 71.601109 
L 421.99779 72.314516 
L 422.095851 71.601109 
L 422.291974 72.849571 
L 422.390035 72.136164 
L 422.78228 74.276384 
L 422.880341 73.771055 
L 423.174524 71.422758 
L 423.370647 69.906769 
L 423.566769 64.615669 
L 423.762891 55.133306 
L 424.057075 42.410888 
L 424.351259 42.024459 
L 424.743503 44.134954 
L 424.841564 44.28358 
L 425.037687 46.304899 
L 425.429932 51.922976 
L 426.018299 64.080614 
L 426.802788 81.91578 
L 426.99891 84.591055 
L 427.391155 90.179407 
L 427.587278 91.338693 
L 427.685339 94.013968 
L 427.7834 93.924792 
L 427.881461 92.527704 
L 428.371767 95.024627 
L 428.764012 96.421715 
L 428.862073 96.154188 
L 429.058195 95.381331 
L 429.156257 95.411056 
L 429.254318 95.32188 
L 429.352379 94.786825 
L 429.548501 95.440781 
L 429.744624 91.338693 
L 429.842685 91.665671 
L 429.940746 91.457594 
L 430.038807 90.892814 
L 430.136868 91.279243 
L 430.332991 93.538364 
L 430.431052 93.597814 
L 430.529113 92.765506 
L 430.725235 93.835616 
L 430.823297 93.568089 
L 430.921358 94.400397 
L 431.11748 90.714462 
L 431.607786 86.166495 
L 432.490337 76.713857 
L 432.882581 71.09578 
L 433.176765 68.658307 
L 433.372887 83.075066 
L 434.157377 68.777208 
L 434.353499 66.934241 
L 434.45156 67.558472 
L 434.745744 65.299351 
L 435.334111 67.32067 
L 435.432172 67.112593 
L 435.824417 71.749736 
L 436.020539 73.176549 
L 436.1186 72.909022 
L 436.412784 74.543912 
L 436.608906 75.792373 
L 436.706968 75.168143 
L 436.805029 75.614022 
L 436.90309 74.87089 
L 437.001151 74.93034 
L 437.099212 75.732923 
L 437.295335 74.603362 
L 437.393396 74.751989 
L 437.883702 56.352043 
L 438.177885 42.559514 
L 438.275947 41.548855 
L 438.374008 42.291987 
L 438.57013 41.489404 
L 438.668191 42.054184 
L 438.766252 41.935283 
L 438.962375 42.440613 
L 439.158497 44.402481 
L 439.746864 53.557867 
L 440.629415 80.399791 
L 440.727476 90.744188 
L 440.825537 89.317374 
L 440.923598 90.595561 
L 441.02166 90.209133 
L 441.119721 90.595561 
L 441.315843 91.725122 
L 441.413904 92.349352 
L 441.511966 91.219792 
L 441.708088 92.765506 
L 441.806149 92.587155 
L 441.90421 92.795232 
L 442.002271 93.330287 
L 442.100333 92.676331 
L 442.198394 92.824957 
L 442.492577 94.578748 
L 442.590639 94.370671 
L 442.786761 94.81655 
L 442.884822 94.965177 
L 442.982883 94.81655 
L 443.179006 91.814297 
L 443.277067 91.398144 
L 443.375128 92.0521 
L 443.473189 91.992649 
L 443.669312 90.892814 
L 443.865434 87.652759 
L 444.061556 88.158088 
L 444.159617 87.682484 
L 444.453801 89.97133 
L 444.551862 89.852429 
L 444.649923 89.792979 
L 444.846046 88.693143 
L 444.944107 88.84177 
L 445.042168 89.792979 
L 445.140229 89.584902 
L 445.434413 86.017869 
L 445.924719 79.508033 
L 446.218902 75.926137 
L 446.415025 73.548115 
L 446.513086 74.276384 
L 446.807269 67.053142 
L 446.905331 67.915175 
L 447.003392 66.904516 
L 447.101453 62.594351 
L 447.297575 64.526494 
L 447.395637 64.16979 
L 447.591759 62.713252 
L 447.68982 64.437318 
L 447.885942 59.592098 
L 447.984004 58.878691 
L 448.082065 58.938142 
L 448.180126 58.81924 
L 448.278187 59.057043 
L 448.376248 58.462537 
L 448.47431 58.730065 
L 448.670432 60.989186 
L 448.768493 60.037977 
L 449.258799 61.435065 
L 449.35686 61.137812 
L 449.454921 61.643142 
L 449.651044 64.021164 
L 449.847166 65.537153 
L 449.945227 65.447977 
L 450.043288 65.329076 
L 450.337472 66.458637 
L 450.435533 66.488362 
L 450.925839 69.341988 
L 451.0239 68.361054 
L 451.220023 68.806933 
L 451.416145 67.231494 
L 451.612267 64.050889 
L 451.906451 56.143966 
L 452.396757 34.949843 
L 452.494818 34.563415 
L 452.789002 36.703635 
L 452.887063 36.614459 
L 453.181246 38.754679 
L 453.279307 38.338525 
L 453.377369 38.695228 
L 453.965736 50.496163 
L 455.240531 80.607868 
L 455.534715 84.680231 
L 456.319204 90.001056 
L 456.711449 91.814297 
L 456.80951 91.933199 
L 457.103694 93.270836 
L 457.299816 91.576495 
L 457.495938 91.219792 
L 457.790122 90.209133 
L 457.986244 87.682484 
L 458.47655 89.466001 
L 458.672673 90.833363 
L 458.868795 88.930946 
L 459.162978 90.298308 
L 459.359101 88.27699 
L 459.457162 89.376825 
L 460.437774 76.981384 
L 461.320324 68.420505 
L 461.81063 64.258966 
L 462.104814 58.81924 
L 462.202875 60.246054 
L 462.398997 59.651548 
L 462.59512 64.794021 
L 462.987365 67.350395 
L 463.085426 67.350395 
L 463.183487 67.855725 
L 463.281548 67.707098 
L 463.575732 69.490615 
L 463.673793 69.490615 
L 463.869915 70.174296 
L 463.967976 71.184956 
L 464.066038 70.976879 
L 464.164099 71.125505 
L 464.654405 73.384626 
L 464.850527 72.611769 
L 465.046649 73.384626 
L 465.242772 74.068307 
L 465.438894 72.998197 
L 465.831139 65.864131 
L 466.517567 41.489404 
L 466.811751 42.737866 
L 466.909812 42.975668 
L 467.105934 44.313305 
L 467.203995 43.956602 
L 467.400118 44.640284 
L 467.792363 50.436712 
L 467.988485 53.230888 
L 468.38073 62.802428 
L 469.361341 82.807539 
L 469.655525 86.552924 
L 470.145831 91.04144 
L 470.243892 91.100891 
L 470.440014 92.765506 
L 470.538076 92.646605 
L 470.832259 93.449188 
L 470.93032 92.914133 
L 471.420626 94.19232 
L 471.518687 94.103144 
L 471.910932 92.646605 
L 472.008993 90.030781 
L 472.107055 90.238858 
L 472.205116 91.190067 
L 472.303177 91.04144 
L 472.401238 90.565836 
L 472.499299 90.833363 
L 472.695422 93.12221 
L 472.793483 92.884407 
L 472.989605 90.803638 
L 473.185728 92.0521 
L 473.283789 92.706056 
L 473.577972 90.714462 
L 474.068278 83.847923 
L 474.264401 81.113198 
L 474.852768 73.176549 
L 475.04889 71.363307 
L 475.245012 69.074461 
L 475.539196 67.112593 
L 475.735318 67.409845 
L 475.931441 65.269625 
L 476.225624 63.159131 
L 476.617869 68.420505 
L 476.813991 69.966219 
L 476.912053 69.668966 
L 477.010114 69.817593 
L 477.108175 69.282538 
L 477.304297 70.322923 
L 477.402358 70.412098 
L 477.50042 69.639241 
L 477.892664 71.452483 
L 478.186848 72.522593 
L 478.284909 72.076714 
L 478.579093 74.335835 
L 478.775215 74.276384 
L 478.873276 73.80078 
L 478.971337 74.36556 
L 479.069399 74.246659 
L 479.461643 76.297703 
L 479.657766 75.851824 
L 479.755827 76.059901 
L 479.951949 73.681879 
L 480.246133 63.04023 
L 480.540316 46.275174 
L 480.736439 45.205064 
L 480.8345 44.818635 
L 481.128683 46.037372 
L 481.226745 46.215723 
L 481.324806 46.096822 
L 481.422867 46.542701 
L 481.520928 46.394075 
L 481.913173 49.723306 
L 482.599601 63.188856 
L 483.286029 79.359407 
L 483.286029 79.359407 
" clip-path="url(#p74a2126002)" style="fill: none; stroke: #5b5b5b; stroke-width: 1.2; stroke-linecap: square"/>
   </g>
   <g id="patch_3">
    <path d="M 38.7625 126.266719 
L 38.7625 29.246719 
" style="fill: none; stroke: #cccccc; stroke-width: 0.75; stroke-linejoin: miter; stroke-linecap: square"/>
   </g>
   <g id="patch_4">
    <path d="M 45.638971 131.266719 
L 483.384091 131.266719 
" style="fill: none; stroke: #cccccc; stroke-width: 0.75; stroke-linejoin: miter; stroke-linecap: square"/>
   </g>
   <g id="text_15">
    <!-- Monthly data (March) -->
    <g style="fill: #505050" transform="translate(41.2625 14.246719) scale(0.09 -0.09)">
     <defs>
      <path id="Ubuntu-Bold-4d" d="M 1690 4435 
Q 1805 4224 1955 3913 
Q 2106 3603 2269 3241 
Q 2432 2880 2592 2502 
Q 2752 2125 2893 1792 
Q 3034 2125 3194 2502 
Q 3354 2880 3517 3241 
Q 3680 3603 3830 3913 
Q 3981 4224 4096 4435 
L 5005 4435 
Q 5069 3994 5123 3446 
Q 5178 2899 5219 2307 
Q 5261 1715 5296 1120 
Q 5331 525 5357 0 
L 4384 0 
Q 4365 646 4333 1408 
Q 4301 2170 4237 2944 
Q 4122 2675 3981 2348 
Q 3840 2022 3702 1696 
Q 3565 1370 3437 1072 
Q 3309 774 3219 563 
L 2522 563 
Q 2432 774 2304 1072 
Q 2176 1370 2038 1696 
Q 1901 2022 1760 2348 
Q 1619 2675 1504 2944 
Q 1440 2170 1408 1408 
Q 1376 646 1357 0 
L 384 0 
Q 410 525 445 1120 
Q 480 1715 521 2307 
Q 563 2899 617 3446 
Q 672 3994 736 4435 
L 1690 4435 
z
" transform="scale(0.015625)"/>
      <path id="Ubuntu-Bold-6f" d="M 3597 1690 
Q 3597 1293 3481 963 
Q 3366 634 3148 400 
Q 2931 166 2627 38 
Q 2323 -90 1946 -90 
Q 1574 -90 1270 38 
Q 966 166 748 400 
Q 531 634 409 963 
Q 288 1293 288 1690 
Q 288 2086 413 2412 
Q 538 2739 758 2969 
Q 979 3200 1283 3328 
Q 1587 3456 1946 3456 
Q 2310 3456 2614 3328 
Q 2918 3200 3136 2969 
Q 3354 2739 3475 2412 
Q 3597 2086 3597 1690 
z
M 2624 1690 
Q 2624 2131 2448 2384 
Q 2272 2637 1946 2637 
Q 1619 2637 1440 2384 
Q 1261 2131 1261 1690 
Q 1261 1248 1440 989 
Q 1619 730 1946 730 
Q 2272 730 2448 989 
Q 2624 1248 2624 1690 
z
" transform="scale(0.015625)"/>
      <path id="Ubuntu-Bold-6e" d="M 448 3251 
Q 691 3322 1075 3382 
Q 1459 3443 1882 3443 
Q 2310 3443 2595 3331 
Q 2880 3219 3046 3014 
Q 3213 2810 3283 2528 
Q 3354 2246 3354 1901 
L 3354 0 
L 2400 0 
L 2400 1786 
Q 2400 2246 2278 2438 
Q 2157 2630 1824 2630 
Q 1722 2630 1606 2620 
Q 1491 2611 1402 2598 
L 1402 0 
L 448 0 
L 448 3251 
z
" transform="scale(0.015625)"/>
      <path id="Ubuntu-Bold-74" d="M 416 4205 
L 1370 4358 
L 1370 3366 
L 2515 3366 
L 2515 2573 
L 1370 2573 
L 1370 1389 
Q 1370 1088 1475 909 
Q 1581 730 1901 730 
Q 2054 730 2217 758 
Q 2381 787 2515 838 
L 2650 96 
Q 2477 26 2265 -25 
Q 2054 -77 1747 -77 
Q 1357 -77 1101 28 
Q 845 134 691 323 
Q 538 512 477 781 
Q 416 1050 416 1376 
L 416 4205 
z
" transform="scale(0.015625)"/>
      <path id="Ubuntu-Bold-68" d="M 448 0 
L 448 4813 
L 1402 4966 
L 1402 3354 
Q 1498 3386 1648 3414 
Q 1798 3443 1939 3443 
Q 2349 3443 2621 3331 
Q 2893 3219 3056 3014 
Q 3219 2810 3286 2528 
Q 3354 2246 3354 1901 
L 3354 0 
L 2400 0 
L 2400 1786 
Q 2400 2246 2281 2438 
Q 2163 2630 1843 2630 
Q 1715 2630 1603 2608 
Q 1491 2586 1402 2560 
L 1402 0 
L 448 0 
z
" transform="scale(0.015625)"/>
      <path id="Ubuntu-Bold-6c" d="M 1792 -64 
Q 1376 -58 1117 25 
Q 858 109 707 259 
Q 557 410 502 624 
Q 448 838 448 1107 
L 448 4813 
L 1402 4966 
L 1402 1299 
Q 1402 1171 1421 1068 
Q 1440 966 1494 896 
Q 1549 826 1651 781 
Q 1754 736 1926 723 
L 1792 -64 
z
" transform="scale(0.015625)"/>
      <path id="Ubuntu-Bold-79" d="M 3437 3366 
Q 3149 2394 2835 1542 
Q 2522 691 2150 -109 
Q 2016 -397 1881 -598 
Q 1747 -800 1587 -931 
Q 1427 -1062 1225 -1123 
Q 1024 -1184 755 -1184 
Q 531 -1184 342 -1142 
Q 154 -1101 32 -1050 
L 198 -288 
Q 346 -339 461 -358 
Q 576 -378 704 -378 
Q 960 -378 1097 -240 
Q 1235 -102 1331 141 
Q 1005 781 678 1577 
Q 352 2374 64 3366 
L 1075 3366 
Q 1139 3117 1225 2825 
Q 1312 2534 1408 2236 
Q 1504 1939 1603 1657 
Q 1702 1376 1792 1146 
Q 1875 1376 1964 1657 
Q 2054 1939 2140 2236 
Q 2227 2534 2307 2825 
Q 2387 3117 2451 3366 
L 3437 3366 
z
" transform="scale(0.015625)"/>
      <path id="Ubuntu-Bold-20" transform="scale(0.015625)"/>
      <path id="Ubuntu-Bold-64" d="M 1261 1709 
Q 1261 1267 1459 998 
Q 1658 730 2048 730 
Q 2176 730 2285 739 
Q 2394 749 2464 762 
L 2464 2496 
Q 2374 2554 2230 2592 
Q 2086 2630 1939 2630 
Q 1261 2630 1261 1709 
z
M 3418 109 
Q 3290 70 3123 35 
Q 2957 0 2774 -25 
Q 2592 -51 2403 -67 
Q 2214 -83 2042 -83 
Q 1626 -83 1299 38 
Q 973 160 749 387 
Q 525 614 406 937 
Q 288 1261 288 1664 
Q 288 2074 390 2403 
Q 493 2733 685 2963 
Q 877 3194 1155 3315 
Q 1434 3437 1792 3437 
Q 1990 3437 2147 3398 
Q 2304 3360 2464 3290 
L 2464 4813 
L 3418 4966 
L 3418 109 
z
" transform="scale(0.015625)"/>
      <path id="Ubuntu-Bold-61" d="M 1734 666 
Q 1875 666 2003 672 
Q 2131 678 2208 691 
L 2208 1414 
Q 2150 1427 2035 1440 
Q 1920 1453 1824 1453 
Q 1690 1453 1571 1437 
Q 1453 1421 1363 1376 
Q 1274 1331 1222 1254 
Q 1171 1178 1171 1062 
Q 1171 838 1321 752 
Q 1472 666 1734 666 
z
M 1658 3456 
Q 2080 3456 2361 3360 
Q 2643 3264 2812 3085 
Q 2982 2906 3052 2650 
Q 3123 2394 3123 2080 
L 3123 96 
Q 2918 51 2553 -9 
Q 2189 -70 1670 -70 
Q 1344 -70 1078 -12 
Q 813 45 621 176 
Q 429 307 326 518 
Q 224 730 224 1037 
Q 224 1331 342 1536 
Q 461 1741 659 1862 
Q 858 1984 1114 2038 
Q 1370 2093 1645 2093 
Q 1830 2093 1974 2077 
Q 2118 2061 2208 2035 
L 2208 2125 
Q 2208 2368 2061 2515 
Q 1914 2662 1549 2662 
Q 1306 2662 1069 2627 
Q 832 2592 659 2528 
L 538 3296 
Q 621 3322 745 3350 
Q 870 3379 1017 3401 
Q 1165 3424 1328 3440 
Q 1491 3456 1658 3456 
z
" transform="scale(0.015625)"/>
      <path id="Ubuntu-Bold-28" d="M 1389 1914 
Q 1389 1158 1625 473 
Q 1862 -211 2246 -755 
L 1581 -1184 
Q 1037 -550 742 237 
Q 448 1024 448 1914 
Q 448 2803 742 3590 
Q 1037 4378 1581 5011 
L 2246 4582 
Q 1862 4038 1625 3353 
Q 1389 2669 1389 1914 
z
" transform="scale(0.015625)"/>
      <path id="Ubuntu-Bold-72" d="M 2477 2522 
Q 2349 2554 2176 2589 
Q 2003 2624 1805 2624 
Q 1715 2624 1590 2608 
Q 1466 2592 1402 2573 
L 1402 0 
L 448 0 
L 448 3187 
Q 704 3277 1053 3357 
Q 1402 3437 1830 3437 
Q 1907 3437 2016 3427 
Q 2125 3418 2233 3402 
Q 2342 3386 2451 3363 
Q 2560 3341 2637 3309 
L 2477 2522 
z
" transform="scale(0.015625)"/>
      <path id="Ubuntu-Bold-63" d="M 288 1683 
Q 288 2048 406 2371 
Q 525 2694 749 2934 
Q 973 3174 1293 3315 
Q 1613 3456 2022 3456 
Q 2291 3456 2515 3408 
Q 2739 3360 2950 3270 
L 2752 2509 
Q 2618 2560 2458 2598 
Q 2298 2637 2099 2637 
Q 1677 2637 1469 2374 
Q 1261 2112 1261 1683 
Q 1261 1229 1456 979 
Q 1651 730 2138 730 
Q 2310 730 2508 762 
Q 2707 794 2874 864 
L 3008 83 
Q 2842 13 2592 -38 
Q 2342 -90 2042 -90 
Q 1581 -90 1248 48 
Q 915 186 700 422 
Q 486 659 387 982 
Q 288 1306 288 1683 
z
" transform="scale(0.015625)"/>
      <path id="Ubuntu-Bold-29" d="M 890 1914 
Q 890 2669 653 3353 
Q 416 4038 32 4582 
L 698 5011 
Q 1242 4378 1536 3590 
Q 1830 2803 1830 1914 
Q 1830 1024 1536 237 
Q 1242 -550 698 -1184 
L 32 -755 
Q 416 -211 653 473 
Q 890 1158 890 1914 
z
" transform="scale(0.015625)"/>
     </defs>
     <use xlink:href="#Ubuntu-Bold-4d"/>
     <use xlink:href="#Ubuntu-Bold-6f" x="89.699982"/>
     <use xlink:href="#Ubuntu-Bold-6e" x="150.399979"/>
     <use xlink:href="#Ubuntu-Bold-74" x="209.299973"/>
     <use xlink:href="#Ubuntu-Bold-68" x="253.699966"/>
     <use xlink:href="#Ubuntu-Bold-6c" x="312.59996"/>
     <use xlink:href="#Ubuntu-Bold-79" x="344.199951"/>
     <use xlink:href="#Ubuntu-Bold-20" x="398.899948"/>
     <use xlink:href="#Ubuntu-Bold-64" x="422.899933"/>
     <use xlink:href="#Ubuntu-Bold-61" x="483.299927"/>
     <use xlink:href="#Ubuntu-Bold-74" x="538.599915"/>
     <use xlink:href="#Ubuntu-Bold-61" x="582.999908"/>
     <use xlink:href="#Ubuntu-Bold-20" x="638.299896"/>
     <use xlink:href="#Ubuntu-Bold-28" x="662.299881"/>
     <use xlink:href="#Ubuntu-Bold-4d" x="697.899872"/>
     <use xlink:href="#Ubuntu-Bold-61" x="787.599854"/>
     <use xlink:href="#Ubuntu-Bold-72" x="842.899841"/>
     <use xlink:href="#Ubuntu-Bold-63" x="885.099838"/>
     <use xlink:href="#Ubuntu-Bold-68" x="935.099823"/>
     <use xlink:href="#Ubuntu-Bold-29" x="993.999817"/>
    </g>
   </g>
  </g>
 </g>
 <defs>
  <clipPath id="p74a2126002">
   <rect x="41.2625" y="29.246719" width="446.4" height="97.02"/>
  </clipPath>
 </defs>
</svg>
