<?xml version="1.0" encoding="utf-8" standalone="no"?>
<!DOCTYPE svg PUBLIC "-//W3C//DTD SVG 1.1//EN"
  "http://www.w3.org/Graphics/SVG/1.1/DTD/svg11.dtd">
<svg xmlns:xlink="http://www.w3.org/1999/xlink" width="497.596591pt" height="160.154219pt" viewBox="0 0 497.596591 160.154219" xmlns="http://www.w3.org/2000/svg" version="1.1">
 <metadata>
  <rdf:RDF xmlns:dc="http://purl.org/dc/elements/1.1/" xmlns:cc="http://creativecommons.org/ns#" xmlns:rdf="http://www.w3.org/1999/02/22-rdf-syntax-ns#">
   <cc:Work>
    <dc:type rdf:resource="http://purl.org/dc/dcmitype/StillImage"/>
    <dc:date>2024-04-25T16:09:34.515269</dc:date>
    <dc:format>image/svg+xml</dc:format>
    <dc:creator>
     <cc:Agent>
      <dc:title>Matplotlib v3.8.3, https://matplotlib.org/</dc:title>
     </cc:Agent>
    </dc:creator>
   </cc:Work>
  </rdf:RDF>
 </metadata>
 <defs>
  <style type="text/css">*{stroke-linejoin: round; stroke-linecap: butt}</style>
 </defs>
 <g id="figure_1">
  <g id="patch_1">
   <path d="M 0 160.154219 
L 497.596591 160.154219 
L 497.596591 0 
L 0 0 
L 0 160.154219 
z
" style="fill: none"/>
  </g>
  <g id="axes_1">
   <g id="patch_2">
    <path d="M 43.7625 126.266719 
L 490.1625 126.266719 
L 490.1625 29.246719 
L 43.7625 29.246719 
L 43.7625 126.266719 
z
" style="fill: none"/>
   </g>
   <g id="matplotlib.axis_1">
    <g id="xtick_1">
     <g id="line2d_1">
      <defs>
       <path id="md5367d0f18" d="M 0 0 
L 0 3 
" style="stroke: #cccccc; stroke-width: 0.75"/>
      </defs>
      <g>
       <use xlink:href="#md5367d0f18" x="48.138971" y="136.266719" style="fill: #cccccc; stroke: #cccccc; stroke-width: 0.75"/>
      </g>
     </g>
     <g id="text_1">
      <!-- 01 -->
      <g style="fill: #808080" transform="translate(43.626471 151.474219) scale(0.08 -0.08)">
       <defs>
        <path id="Ubuntu-30" d="M 320 2221 
Q 320 3334 713 3936 
Q 1107 4538 1805 4538 
Q 2502 4538 2896 3936 
Q 3290 3334 3290 2221 
Q 3290 1107 2896 505 
Q 2502 -96 1805 -96 
Q 1107 -96 713 505 
Q 320 1107 320 2221 
z
M 2662 2221 
Q 2662 2586 2620 2912 
Q 2579 3238 2480 3481 
Q 2381 3725 2214 3869 
Q 2048 4013 1805 4013 
Q 1562 4013 1395 3869 
Q 1229 3725 1129 3481 
Q 1030 3238 988 2912 
Q 947 2586 947 2221 
Q 947 1856 988 1529 
Q 1030 1203 1129 960 
Q 1229 717 1395 573 
Q 1562 429 1805 429 
Q 2048 429 2214 573 
Q 2381 717 2480 960 
Q 2579 1203 2620 1529 
Q 2662 1856 2662 2221 
z
" transform="scale(0.015625)"/>
        <path id="Ubuntu-31" d="M 595 3520 
Q 960 3661 1305 3881 
Q 1651 4102 1939 4435 
L 2362 4435 
L 2362 0 
L 1766 0 
L 1766 3610 
Q 1690 3539 1578 3462 
Q 1466 3386 1334 3315 
Q 1203 3245 1059 3181 
Q 915 3117 781 3072 
L 595 3520 
z
" transform="scale(0.015625)"/>
       </defs>
       <use xlink:href="#Ubuntu-30"/>
       <use xlink:href="#Ubuntu-31" x="56.399994"/>
      </g>
     </g>
    </g>
    <g id="xtick_2">
     <g id="line2d_2">
      <g>
       <use xlink:href="#md5367d0f18" x="104.622212" y="136.266719" style="fill: #cccccc; stroke: #cccccc; stroke-width: 0.75"/>
      </g>
     </g>
     <g id="text_2">
      <!-- 05 -->
      <g style="fill: #808080" transform="translate(100.109712 151.474219) scale(0.08 -0.08)">
       <defs>
        <path id="Ubuntu-35" d="M 1274 2726 
Q 2240 2688 2691 2304 
Q 3142 1920 3142 1261 
Q 3142 966 3043 716 
Q 2944 467 2742 288 
Q 2541 109 2233 6 
Q 1926 -96 1504 -96 
Q 1338 -96 1165 -70 
Q 992 -45 845 -6 
Q 698 32 582 70 
Q 467 109 416 134 
L 531 653 
Q 640 602 886 518 
Q 1133 435 1491 435 
Q 1779 435 1974 499 
Q 2170 563 2291 672 
Q 2413 781 2467 925 
Q 2522 1069 2522 1229 
Q 2522 1472 2438 1661 
Q 2355 1850 2144 1978 
Q 1933 2106 1581 2173 
Q 1229 2240 691 2240 
Q 730 2554 752 2829 
Q 774 3104 793 3366 
Q 813 3629 825 3888 
Q 838 4147 851 4435 
L 2989 4435 
L 2989 3930 
L 1370 3930 
Q 1363 3834 1350 3670 
Q 1338 3507 1325 3331 
Q 1312 3155 1299 2988 
Q 1286 2822 1274 2726 
z
" transform="scale(0.015625)"/>
       </defs>
       <use xlink:href="#Ubuntu-30"/>
       <use xlink:href="#Ubuntu-35" x="56.399994"/>
      </g>
     </g>
    </g>
    <g id="xtick_3">
     <g id="line2d_3">
      <g>
       <use xlink:href="#md5367d0f18" x="161.105453" y="136.266719" style="fill: #cccccc; stroke: #cccccc; stroke-width: 0.75"/>
      </g>
     </g>
     <g id="text_3">
      <!-- 09 -->
      <g style="fill: #808080" transform="translate(156.592953 151.474219) scale(0.08 -0.08)">
       <defs>
        <path id="Ubuntu-39" d="M 3206 2662 
Q 3206 1344 2550 669 
Q 1894 -6 602 -13 
L 582 486 
Q 986 486 1309 563 
Q 1632 640 1875 809 
Q 2118 979 2281 1248 
Q 2445 1517 2522 1907 
Q 2355 1830 2144 1782 
Q 1933 1734 1709 1734 
Q 1331 1734 1068 1846 
Q 806 1958 640 2147 
Q 474 2336 400 2582 
Q 326 2829 326 3098 
Q 326 3334 409 3590 
Q 493 3846 662 4057 
Q 832 4269 1094 4403 
Q 1357 4538 1715 4538 
Q 2080 4538 2358 4410 
Q 2637 4282 2825 4038 
Q 3014 3795 3110 3446 
Q 3206 3098 3206 2662 
z
M 1773 2221 
Q 1997 2221 2195 2262 
Q 2394 2304 2579 2387 
Q 2586 2458 2586 2525 
Q 2586 2592 2586 2662 
Q 2586 2938 2547 3190 
Q 2509 3443 2409 3632 
Q 2310 3821 2144 3933 
Q 1978 4045 1722 4045 
Q 1510 4045 1363 3955 
Q 1216 3866 1120 3728 
Q 1024 3590 982 3427 
Q 941 3264 941 3110 
Q 941 2675 1149 2448 
Q 1357 2221 1773 2221 
z
" transform="scale(0.015625)"/>
       </defs>
       <use xlink:href="#Ubuntu-30"/>
       <use xlink:href="#Ubuntu-39" x="56.399994"/>
      </g>
     </g>
    </g>
    <g id="xtick_4">
     <g id="line2d_4">
      <g>
       <use xlink:href="#md5367d0f18" x="217.588694" y="136.266719" style="fill: #cccccc; stroke: #cccccc; stroke-width: 0.75"/>
      </g>
     </g>
     <g id="text_4">
      <!-- 13 -->
      <g style="fill: #808080" transform="translate(213.076194 151.474219) scale(0.08 -0.08)">
       <defs>
        <path id="Ubuntu-33" d="M 1446 435 
Q 2016 435 2262 659 
Q 2509 883 2509 1261 
Q 2509 1504 2406 1670 
Q 2304 1837 2137 1936 
Q 1971 2035 1750 2076 
Q 1530 2118 1299 2118 
L 1146 2118 
L 1146 2605 
L 1357 2605 
Q 1517 2605 1686 2637 
Q 1856 2669 1997 2752 
Q 2138 2835 2227 2979 
Q 2317 3123 2317 3341 
Q 2317 3520 2253 3648 
Q 2189 3776 2083 3859 
Q 1978 3942 1840 3977 
Q 1702 4013 1549 4013 
Q 1242 4013 1027 3923 
Q 813 3834 666 3738 
L 435 4192 
Q 512 4243 630 4304 
Q 749 4365 896 4416 
Q 1043 4467 1212 4502 
Q 1382 4538 1568 4538 
Q 1920 4538 2176 4451 
Q 2432 4365 2598 4208 
Q 2765 4051 2848 3836 
Q 2931 3622 2931 3373 
Q 2931 3027 2732 2780 
Q 2534 2534 2253 2406 
Q 2426 2355 2586 2259 
Q 2746 2163 2864 2016 
Q 2982 1869 3056 1677 
Q 3130 1485 3130 1248 
Q 3130 960 3030 713 
Q 2931 467 2723 288 
Q 2515 109 2201 6 
Q 1888 -96 1459 -96 
Q 1293 -96 1117 -70 
Q 941 -45 787 -6 
Q 634 32 518 70 
Q 403 109 352 134 
L 467 653 
Q 576 602 829 518 
Q 1082 435 1446 435 
z
" transform="scale(0.015625)"/>
       </defs>
       <use xlink:href="#Ubuntu-31"/>
       <use xlink:href="#Ubuntu-33" x="56.399994"/>
      </g>
     </g>
    </g>
    <g id="xtick_5">
     <g id="line2d_5">
      <g>
       <use xlink:href="#md5367d0f18" x="274.071936" y="136.266719" style="fill: #cccccc; stroke: #cccccc; stroke-width: 0.75"/>
      </g>
     </g>
     <g id="text_5">
      <!-- 17 -->
      <g style="fill: #808080" transform="translate(269.559436 151.474219) scale(0.08 -0.08)">
       <defs>
        <path id="Ubuntu-37" d="M 1043 0 
Q 1082 512 1226 1078 
Q 1370 1645 1581 2179 
Q 1792 2714 2045 3171 
Q 2298 3629 2541 3917 
L 384 3917 
L 384 4435 
L 3206 4435 
L 3206 3942 
Q 2995 3699 2739 3273 
Q 2483 2848 2256 2320 
Q 2029 1792 1865 1193 
Q 1702 595 1664 0 
L 1043 0 
z
" transform="scale(0.015625)"/>
       </defs>
       <use xlink:href="#Ubuntu-31"/>
       <use xlink:href="#Ubuntu-37" x="56.399994"/>
      </g>
     </g>
    </g>
    <g id="xtick_6">
     <g id="line2d_6">
      <g>
       <use xlink:href="#md5367d0f18" x="330.555177" y="136.266719" style="fill: #cccccc; stroke: #cccccc; stroke-width: 0.75"/>
      </g>
     </g>
     <g id="text_6">
      <!-- 21 -->
      <g style="fill: #808080" transform="translate(326.042677 151.474219) scale(0.08 -0.08)">
       <defs>
        <path id="Ubuntu-32" d="M 2989 3302 
Q 2989 3072 2896 2857 
Q 2803 2643 2649 2435 
Q 2496 2227 2304 2025 
Q 2112 1824 1920 1632 
Q 1811 1523 1667 1376 
Q 1523 1229 1395 1069 
Q 1267 909 1180 761 
Q 1094 614 1094 506 
L 3136 506 
L 3136 0 
L 448 0 
Q 442 38 442 76 
Q 442 115 442 147 
Q 442 448 541 707 
Q 640 966 800 1196 
Q 960 1427 1158 1632 
Q 1357 1837 1549 2029 
Q 1709 2182 1853 2332 
Q 1997 2483 2109 2633 
Q 2221 2784 2288 2944 
Q 2355 3104 2355 3283 
Q 2355 3475 2294 3609 
Q 2234 3744 2131 3833 
Q 2029 3923 1891 3964 
Q 1754 4006 1600 4006 
Q 1414 4006 1260 3955 
Q 1107 3904 985 3837 
Q 864 3770 781 3696 
Q 698 3622 653 3584 
L 358 4006 
Q 416 4070 531 4163 
Q 646 4256 806 4339 
Q 966 4422 1164 4480 
Q 1363 4538 1594 4538 
Q 2291 4538 2640 4214 
Q 2989 3891 2989 3302 
z
" transform="scale(0.015625)"/>
       </defs>
       <use xlink:href="#Ubuntu-32"/>
       <use xlink:href="#Ubuntu-31" x="56.399994"/>
      </g>
     </g>
    </g>
    <g id="xtick_7">
     <g id="line2d_7">
      <g>
       <use xlink:href="#md5367d0f18" x="387.038418" y="136.266719" style="fill: #cccccc; stroke: #cccccc; stroke-width: 0.75"/>
      </g>
     </g>
     <g id="text_7">
      <!-- 25 -->
      <g style="fill: #808080" transform="translate(382.525918 151.474219) scale(0.08 -0.08)">
       <use xlink:href="#Ubuntu-32"/>
       <use xlink:href="#Ubuntu-35" x="56.399994"/>
      </g>
     </g>
    </g>
    <g id="xtick_8">
     <g id="line2d_8">
      <g>
       <use xlink:href="#md5367d0f18" x="443.52166" y="136.266719" style="fill: #cccccc; stroke: #cccccc; stroke-width: 0.75"/>
      </g>
     </g>
     <g id="text_8">
      <!-- 29 -->
      <g style="fill: #808080" transform="translate(439.00916 151.474219) scale(0.08 -0.08)">
       <use xlink:href="#Ubuntu-32"/>
       <use xlink:href="#Ubuntu-39" x="56.399994"/>
      </g>
     </g>
    </g>
    <g id="xtick_9">
     <g id="line2d_9">
      <g>
       <use xlink:href="#md5367d0f18" x="485.884091" y="136.266719" style="fill: #cccccc; stroke: #cccccc; stroke-width: 0.75"/>
      </g>
     </g>
     <g id="text_9">
      <!-- 31 -->
      <g style="fill: #808080" transform="translate(481.371591 151.474219) scale(0.08 -0.08)">
       <use xlink:href="#Ubuntu-33"/>
       <use xlink:href="#Ubuntu-31" x="56.399994"/>
      </g>
     </g>
    </g>
   </g>
   <g id="matplotlib.axis_2">
    <g id="ytick_1">
     <g id="line2d_10">
      <defs>
       <path id="m7d14c4bd2a" d="M 0 0 
L -3 0 
" style="stroke: #cccccc; stroke-width: 0.75"/>
      </defs>
      <g>
       <use xlink:href="#m7d14c4bd2a" x="38.7625" y="116.473231" style="fill: #cccccc; stroke: #cccccc; stroke-width: 0.75"/>
      </g>
     </g>
     <g id="text_10">
      <!-- 20000 -->
      <g style="fill: #808080" transform="translate(7.2 119.576981) scale(0.08 -0.08)">
       <use xlink:href="#Ubuntu-32"/>
       <use xlink:href="#Ubuntu-30" x="56.399994"/>
       <use xlink:href="#Ubuntu-30" x="112.799988"/>
       <use xlink:href="#Ubuntu-30" x="169.199982"/>
       <use xlink:href="#Ubuntu-30" x="225.599976"/>
      </g>
     </g>
    </g>
    <g id="ytick_2">
     <g id="line2d_11">
      <g>
       <use xlink:href="#m7d14c4bd2a" x="38.7625" y="87.397727" style="fill: #cccccc; stroke: #cccccc; stroke-width: 0.75"/>
      </g>
     </g>
     <g id="text_11">
      <!-- 30000 -->
      <g style="fill: #808080" transform="translate(7.2 90.501477) scale(0.08 -0.08)">
       <use xlink:href="#Ubuntu-33"/>
       <use xlink:href="#Ubuntu-30" x="56.399994"/>
       <use xlink:href="#Ubuntu-30" x="112.799988"/>
       <use xlink:href="#Ubuntu-30" x="169.199982"/>
       <use xlink:href="#Ubuntu-30" x="225.599976"/>
      </g>
     </g>
    </g>
    <g id="ytick_3">
     <g id="line2d_12">
      <g>
       <use xlink:href="#m7d14c4bd2a" x="38.7625" y="58.322223" style="fill: #cccccc; stroke: #cccccc; stroke-width: 0.75"/>
      </g>
     </g>
     <g id="text_12">
      <!-- 40000 -->
      <g style="fill: #808080" transform="translate(7.2 61.425973) scale(0.08 -0.08)">
       <defs>
        <path id="Ubuntu-34" d="M 256 1536 
Q 378 1818 589 2192 
Q 800 2566 1065 2963 
Q 1331 3360 1635 3744 
Q 1939 4128 2246 4435 
L 2816 4435 
L 2816 1619 
L 3341 1619 
L 3341 1133 
L 2816 1133 
L 2816 0 
L 2240 0 
L 2240 1133 
L 256 1133 
L 256 1536 
z
M 2240 3731 
Q 2048 3526 1853 3273 
Q 1658 3021 1472 2745 
Q 1286 2470 1123 2182 
Q 960 1894 832 1619 
L 2240 1619 
L 2240 3731 
z
" transform="scale(0.015625)"/>
       </defs>
       <use xlink:href="#Ubuntu-34"/>
       <use xlink:href="#Ubuntu-30" x="56.399994"/>
       <use xlink:href="#Ubuntu-30" x="112.799988"/>
       <use xlink:href="#Ubuntu-30" x="169.199982"/>
       <use xlink:href="#Ubuntu-30" x="225.599976"/>
      </g>
     </g>
    </g>
    <g id="ytick_4">
     <g id="line2d_13">
      <g>
       <use xlink:href="#m7d14c4bd2a" x="38.7625" y="29.246719" style="fill: #cccccc; stroke: #cccccc; stroke-width: 0.75"/>
      </g>
     </g>
     <g id="text_13">
      <!-- 50000 -->
      <g style="fill: #808080" transform="translate(7.2 32.350469) scale(0.08 -0.08)">
       <use xlink:href="#Ubuntu-35"/>
       <use xlink:href="#Ubuntu-30" x="56.399994"/>
       <use xlink:href="#Ubuntu-30" x="112.799988"/>
       <use xlink:href="#Ubuntu-30" x="169.199982"/>
       <use xlink:href="#Ubuntu-30" x="225.599976"/>
      </g>
     </g>
    </g>
   </g>
   <g id="line2d_14">
    <path d="M 48.138971 90.102862 
L 48.531215 96.463346 
L 48.825399 102.307151 
L 49.217644 105.122154 
L 49.413766 107.616461 
L 49.511827 106.992885 
L 49.70795 107.848076 
L 50.100194 109.665357 
L 50.198255 109.896971 
L 50.394378 110.752162 
L 50.492439 110.769978 
L 50.5905 110.467098 
L 50.688561 109.790072 
L 50.786623 109.843521 
L 50.884684 109.790072 
L 51.276928 104.302596 
L 51.37499 104.373862 
L 51.571112 105.585383 
L 51.669173 105.656649 
L 51.865296 108.186589 
L 52.061418 110.876877 
L 52.25754 109.64754 
L 52.551724 106.15551 
L 52.649785 105.888263 
L 52.747846 106.51184 
L 52.845907 105.514117 
L 53.336213 95.501256 
L 53.826519 87.466024 
L 54.905192 75.74278 
L 55.003253 76.277275 
L 55.59162 74.050215 
L 55.689682 74.513443 
L 55.885804 73.907683 
L 56.37611 77.560061 
L 56.474171 77.185915 
L 56.572232 77.274997 
L 56.768355 77.862941 
L 56.866416 77.043383 
L 57.160599 78.753765 
L 57.258661 78.735949 
L 57.356722 79.163544 
L 57.552844 82.031997 
L 57.650905 81.248072 
L 57.748967 81.622218 
L 57.945089 80.873926 
L 58.04315 81.319338 
L 58.239272 83.475132 
L 58.337334 83.314784 
L 58.533456 82.103263 
L 58.729578 76.081293 
L 58.925701 62.398237 
L 59.121823 49.392208 
L 59.416007 47.093882 
L 59.514068 47.165148 
L 59.71019 48.554833 
L 59.808251 48.715181 
L 59.906313 49.606005 
L 60.102435 47.25423 
L 60.984986 55.521076 
L 61.769475 75.475533 
L 62.652026 97.30072 
L 63.04427 101.861739 
L 63.142332 102.324967 
L 63.534576 106.583106 
L 63.926821 108.311304 
L 64.024882 108.061873 
L 64.319066 110.217667 
L 64.417127 109.469375 
L 64.71131 110.502731 
L 64.907433 110.395832 
L 65.299678 107.598645 
L 65.397739 103.483038 
L 65.4958 104.623293 
L 65.593861 104.498578 
L 65.691922 105.353769 
L 65.888045 107.384847 
L 65.986106 108.133139 
L 66.182228 111.179757 
L 66.280289 110.698712 
L 66.672534 104.748008 
L 66.770595 105.407218 
L 66.868657 104.462945 
L 67.260901 98.405342 
L 67.94733 88.303398 
L 68.045391 88.14305 
L 68.143452 90.512641 
L 68.437635 85.86254 
L 68.633758 83.778012 
L 68.731819 82.744657 
L 68.82988 82.940638 
L 69.026003 80.481964 
L 69.124064 80.642312 
L 69.222125 79.626773 
L 69.320186 80.410698 
L 69.712431 76.562338 
L 69.908553 78.058923 
L 70.104676 77.346263 
L 70.398859 80.642312 
L 70.49692 81.568769 
L 70.693043 80.731394 
L 70.791104 81.034275 
L 70.889165 81.996364 
L 71.085287 81.800383 
L 71.183349 81.907282 
L 71.28141 82.815922 
L 71.379471 81.622218 
L 71.575593 82.655574 
L 71.869777 80.428514 
L 71.967838 80.535413 
L 72.262022 82.602125 
L 72.654266 80.535413 
L 72.850389 74.549076 
L 73.046511 60.456241 
L 73.242633 47.539294 
L 73.536817 44.385777 
L 74.027123 48.020339 
L 74.223245 45.258784 
L 74.419368 46.024893 
L 74.517429 46.826635 
L 74.713551 49.873253 
L 74.811612 50.104867 
L 75.007735 54.202657 
L 75.203857 58.99529 
L 75.301918 59.422885 
L 76.478652 89.889065 
L 77.263142 103.999716 
L 77.361203 103.999716 
L 77.557325 105.389402 
L 77.655387 105.19342 
L 77.851509 106.333675 
L 77.94957 106.066428 
L 78.145693 108.38257 
L 78.341815 108.293488 
L 78.537937 109.594091 
L 78.635998 109.522825 
L 78.73406 108.917064 
L 78.930182 109.754439 
L 79.224366 109.077413 
L 79.61661 103.821551 
L 79.910794 105.977345 
L 80.303039 110.948143 
L 80.4011 110.663079 
L 80.793344 105.941712 
L 80.891406 106.191143 
L 80.989467 106.939435 
L 81.577834 95.305274 
L 81.675895 95.020211 
L 81.970079 89.176406 
L 82.06814 91.011503 
L 82.264262 89.283304 
L 82.95069 76.09911 
L 83.048752 76.989934 
L 83.146813 75.190469 
L 83.244874 75.243919 
L 83.440996 74.762874 
L 83.73518 79.662406 
L 83.833241 78.878481 
L 84.029363 79.341709 
L 84.127425 78.611233 
L 84.323547 75.083571 
L 84.715792 77.560061 
L 84.911914 78.5756 
L 85.009975 78.415252 
L 85.108037 78.771582 
L 85.40222 80.998642 
L 85.500281 81.622218 
L 85.696404 81.372788 
L 85.892526 83.047537 
L 85.990587 82.673391 
L 86.18671 79.947469 
L 86.284771 80.090001 
L 86.382832 80.125634 
L 86.480893 78.611233 
L 86.578954 79.163544 
L 86.677015 78.682499 
L 86.873138 75.582432 
L 87.06926 65.819001 
L 87.363444 49.107144 
L 87.559566 47.343313 
L 87.657627 48.269769 
L 87.755688 48.020339 
L 87.951811 49.623822 
L 88.147933 50.229582 
L 88.344056 48.768631 
L 88.540178 48.341035 
L 88.638239 49.267492 
L 88.834361 52.153762 
L 89.422729 62.344788 
L 90.109157 78.254904 
L 90.501402 88.641911 
L 91.285891 101.772656 
L 91.383952 102.271518 
L 91.678136 104.854907 
L 91.972319 107.224499 
L 92.07038 106.921619 
L 92.168442 106.957252 
L 92.364564 109.095229 
L 92.462625 108.667634 
L 92.756809 109.843521 
L 92.952931 110.075136 
L 93.050992 110.075136 
L 93.247115 109.415926 
L 93.345176 109.380293 
L 93.443237 108.881431 
L 93.639359 103.875001 
L 93.737421 104.302596 
L 93.933543 106.298042 
L 94.031604 106.939435 
L 94.52191 114.956851 
L 94.914155 110.823428 
L 95.110277 110.983776 
L 95.698644 97.674866 
L 96.18895 89.461469 
L 96.581195 83.190069 
L 97.071501 77.631327 
L 97.169562 77.738226 
L 97.365684 77.791675 
L 97.561807 76.811769 
L 97.85599 73.800784 
L 98.052113 74.549076 
L 98.150174 74.602526 
L 98.346296 73.622619 
L 98.444357 73.854233 
L 98.64048 75.653698 
L 98.836602 77.274997 
L 99.326908 79.430791 
L 99.52303 80.588863 
L 99.719153 82.085447 
L 99.817214 82.210162 
L 100.111397 79.751488 
L 100.209459 80.232533 
L 100.405581 82.227979 
L 100.601703 80.125634 
L 100.699765 80.80266 
L 100.797826 80.624496 
L 101.092009 74.103664 
L 101.288132 62.576402 
L 101.484254 50.532462 
L 101.680376 48.893346 
L 101.876499 47.931256 
L 101.97456 49.410024 
L 102.072621 49.303125 
L 102.170682 49.606005 
L 102.268743 49.410024 
L 102.366805 50.069234 
L 102.464866 49.659455 
L 102.562927 49.944518 
L 102.857111 52.527908 
L 102.955172 52.795155 
L 103.445478 59.921747 
L 103.6416 62.558586 
L 104.033845 70.326571 
L 104.916395 91.813244 
L 105.897007 106.298042 
L 106.09313 106.921619 
L 106.387313 109.34466 
L 106.485374 109.487192 
L 106.779558 110.235484 
L 106.877619 110.199851 
L 106.97568 110.288933 
L 107.171803 109.64754 
L 107.269864 111.161941 
L 107.367925 110.894694 
L 107.662109 108.346937 
L 107.858231 105.781364 
L 108.250476 110.342383 
L 108.64272 118.466697 
L 108.936904 117.23736 
L 109.721393 109.576274 
L 110.898128 86.557383 
L 111.388433 82.459593 
L 111.486495 82.103263 
L 111.584556 82.602125 
L 112.074862 80.535413 
L 112.172923 80.731394 
L 112.270984 80.49978 
L 112.369045 80.677945 
L 112.467107 80.588863 
L 112.565168 80.695761 
L 112.663229 80.357248 
L 112.957412 83.902728 
L 113.055474 83.742379 
L 113.447718 86.860263 
L 113.54578 86.806814 
L 113.839963 87.982701 
L 113.938024 87.697638 
L 114.330269 89.087323 
L 114.42833 88.998241 
L 114.918636 90.851155 
L 115.016697 90.97587 
L 115.114758 90.120679 
L 115.310881 82.905005 
L 115.703126 60.010829 
L 115.997309 55.734874 
L 116.09537 55.734874 
L 116.487615 53.026769 
L 116.585676 53.240567 
L 116.683737 53.543447 
L 116.87986 51.975597 
L 116.977921 51.957781 
L 117.075982 52.207211 
L 117.272104 55.414178 
L 117.370166 57.516522 
L 117.468227 56.892945 
L 117.76241 60.598773 
L 118.841083 89.835615 
L 119.527512 99.545596 
L 119.723634 102.039903 
L 120.017818 104.783641 
L 120.21394 105.585383 
L 120.312001 105.923896 
L 120.606185 107.47393 
L 120.802307 108.133139 
L 120.900368 108.097506 
L 121.096491 108.560735 
L 121.194552 108.418203 
L 121.488735 107.010701 
L 121.586797 106.868169 
L 121.782919 104.427312 
L 121.88098 102.307151 
L 122.371286 105.656649 
L 122.66547 109.790072 
L 122.861592 107.081967 
L 123.155775 103.251424 
L 123.253837 103.946267 
L 123.351898 103.62557 
L 123.842204 92.739701 
L 124.038326 90.601724 
L 124.234448 87.466024 
L 124.528632 83.760196 
L 124.920877 77.239365 
L 125.705366 69.970241 
L 125.803427 71.181762 
L 125.901489 69.025968 
L 125.99955 69.916792 
L 126.097611 68.491473 
L 126.195672 70.576001 
L 126.293733 67.974795 
L 126.391794 72.322016 
L 126.587917 71.057046 
L 126.685978 71.716256 
L 126.784039 71.627174 
L 126.8821 71.627174 
L 127.470467 75.653698 
L 127.764651 77.0612 
L 127.862712 77.560061 
L 127.960773 77.079016 
L 128.058835 77.114649 
L 128.254957 78.058923 
L 128.353018 78.219271 
L 128.451079 77.577878 
L 128.54914 77.773859 
L 128.647202 78.522151 
L 128.745263 80.268166 
L 128.941385 79.84057 
L 129.039446 80.214717 
L 129.235569 78.878481 
L 129.431691 70.914514 
L 129.725875 48.180687 
L 129.921997 45.472582 
L 130.020058 45.472582 
L 130.118119 44.742107 
L 130.216181 45.134069 
L 130.314242 44.938088 
L 130.510364 48.055972 
L 130.706487 45.811095 
L 130.902609 45.436949 
L 131.00067 46.131792 
L 131.490976 54.986582 
L 131.78516 59.29817 
L 132.471588 77.435346 
L 132.961894 90.334477 
L 133.746383 101.808289 
L 133.844444 102.396233 
L 134.138628 105.603199 
L 134.530873 107.135417 
L 134.628934 107.741177 
L 134.825056 107.527379 
L 135.021179 109.148679 
L 135.11924 109.04178 
L 135.217301 109.34466 
L 135.315362 109.130862 
L 135.511484 108.311304 
L 135.609546 108.222222 
L 135.903729 104.605476 
L 136.00179 102.788196 
L 136.197913 105.264686 
L 136.295974 104.694559 
L 136.394035 104.819274 
L 136.78628 111.197574 
L 136.884341 110.413649 
L 137.276586 105.282503 
L 137.472708 104.694559 
L 138.45332 85.203331 
L 138.551381 86.183237 
L 138.649442 85.470578 
L 138.943626 80.054368 
L 139.041687 79.270443 
L 139.139748 76.847402 
L 139.237809 77.239365 
L 139.630054 71.965687 
L 139.728115 71.181762 
L 139.826177 71.253028 
L 139.924238 71.609357 
L 140.022299 72.713979 
L 140.12036 71.395559 
L 140.218421 75.101387 
L 140.316482 70.504735 
L 140.414544 72.535814 
L 140.512605 72.357649 
L 140.610666 71.03923 
L 140.708727 71.359926 
L 140.806788 73.21284 
L 140.90485 72.00132 
L 141.199033 74.068031 
L 141.395155 74.495627 
L 141.591278 76.633604 
L 141.7874 76.206009 
L 141.885461 76.811769 
L 142.081584 81.729117 
L 142.179645 81.978548 
L 142.375767 84.009627 
L 142.473828 83.190069 
L 142.57189 83.760196 
L 142.768012 83.011904 
L 142.866073 84.152158 
L 142.964134 84.116525 
L 143.062196 84.65102 
L 143.45444 82.085447 
L 143.552501 79.021012 
L 144.042807 52.331927 
L 144.23893 52.688256 
L 144.336991 52.36756 
L 144.631174 54.8975 
L 144.827297 52.189395 
L 145.513725 59.173455 
L 145.709847 63.983904 
L 145.807909 64.197702 
L 146.004031 67.404668 
L 146.298215 74.281829 
L 146.494337 72.749612 
L 147.57301 98.334076 
L 147.867193 101.362877 
L 148.063316 104.320413 
L 148.161377 104.213514 
L 148.847805 108.632001 
L 149.043928 108.667634 
L 149.24005 108.845799 
L 149.338111 108.489469 
L 149.632295 106.992885 
L 149.730356 106.992885 
L 149.926478 105.710098 
L 150.122601 101.505409 
L 150.318723 103.892817 
L 150.416784 103.643387 
L 150.90709 111.197574 
L 151.005151 111.411372 
L 151.397396 105.282503 
L 151.593518 104.213514 
L 152.181886 92.169574 
L 152.279947 91.599447 
L 152.476069 87.323492 
L 152.672191 85.541844 
L 152.966375 81.586585 
L 153.064436 81.337155 
L 153.162497 78.700316 
L 153.260559 81.230256 
L 153.456681 77.0612 
L 153.554742 75.065754 
L 153.750864 67.725365 
L 154.339232 65.729919 
L 154.437293 66.193147 
L 154.535354 66.050616 
L 154.633415 67.297769 
L 154.731476 66.406945 
L 154.927599 66.977073 
L 155.02566 66.94144 
L 155.221782 68.865619 
L 155.417905 68.438024 
L 155.810149 70.362204 
L 156.202394 72.500181 
L 156.300455 72.60708 
L 156.398516 73.818601 
L 156.496578 73.640436 
L 156.594639 73.747335 
L 156.6927 74.353095 
L 156.790761 76.70487 
L 156.888822 76.09911 
L 157.084945 76.562338 
L 157.183006 75.956578 
L 157.281067 76.063477 
L 157.575251 73.640436 
L 157.673312 70.005874 
L 157.967495 44.171979 
L 158.065557 45.098436 
L 158.163618 45.240968 
L 158.261679 45.169702 
L 158.35974 44.955904 
L 158.555862 39.610961 
L 158.653924 39.504062 
L 158.751985 40.893747 
L 158.948107 38.541972 
L 159.046168 38.648871 
L 159.14423 39.147732 
L 159.438413 44.599575 
L 159.536474 44.492676 
L 160.02678 51.6549 
L 160.615147 72.25075 
L 160.909331 82.014181 
L 161.595759 96.409896 
L 162.576371 105.710098 
L 162.870554 106.957252 
L 162.968616 106.885986 
L 163.066677 106.779087 
L 163.262799 108.133139 
L 163.36086 108.097506 
L 163.458922 108.667634 
L 163.556983 108.596368 
L 163.753105 107.456113 
L 163.949227 107.634278 
L 164.047289 107.491746 
L 164.243411 104.391679 
L 164.439533 105.353769 
L 164.537595 105.033072 
L 165.0279 112.765424 
L 165.322084 107.527379 
L 165.518206 103.999716 
L 165.616268 104.213514 
L 165.714329 103.999716 
L 166.106573 96.837492 
L 166.302696 94.058121 
L 166.793002 87.501656 
L 167.087185 84.401589 
L 167.283308 80.873926 
L 167.381369 79.804938 
L 167.47943 82.014181 
L 167.773614 74.353095 
L 167.871675 74.495627 
L 167.969736 74.388728 
L 168.067797 73.248473 
L 168.26392 74.887589 
L 168.361981 74.816323 
L 168.460042 74.566893 
L 168.558103 79.092278 
L 168.656164 78.700316 
L 168.754225 78.130188 
L 168.852287 73.711702 
L 168.950348 81.016458 
L 169.048409 79.377342 
L 169.14647 72.108219 
L 169.244531 72.215117 
L 169.342593 72.820878 
L 169.440654 72.678346 
L 169.538715 72.856511 
L 169.734837 74.103664 
L 169.832898 74.246196 
L 170.029021 74.139297 
L 170.323204 76.918668 
L 170.421266 76.384174 
L 170.617388 78.593417 
L 170.715449 79.163544 
L 170.81351 79.127911 
L 170.911571 78.914114 
L 171.205755 80.624496 
L 171.401877 85.434945 
L 171.499939 84.365956 
L 171.794122 77.738226 
L 172.186367 54.612436 
L 172.382489 53.151485 
L 172.578612 53.650346 
L 172.872795 55.823957 
L 173.068917 52.723889 
L 173.559223 57.035477 
L 173.657285 55.930855 
L 173.755346 52.795155 
L 174.441774 66.478211 
L 175.128202 84.401589 
L 175.422386 91.563814 
L 175.814631 98.26281 
L 175.912692 98.975469 
L 176.206875 103.215791 
L 176.501059 105.638832 
L 176.59912 105.531933 
L 176.795242 105.959529 
L 177.089426 107.848076 
L 177.38361 107.099784 
L 177.579732 107.812443 
L 177.873915 108.346937 
L 178.168099 105.959529 
L 178.364221 102.895094 
L 178.560344 104.676742 
L 178.658405 104.926173 
L 178.952588 110.164218 
L 179.148711 112.801057 
L 179.246772 112.195297 
L 179.639017 104.035349 
L 179.835139 104.748008 
L 180.227384 99.438698 
L 180.619629 92.59717 
L 180.71769 93.060398 
L 180.913812 90.067229 
L 181.011873 90.102862 
L 181.109934 89.782166 
L 181.306057 84.722286 
L 181.698302 81.622218 
L 181.894424 74.851956 
L 181.992485 75.208286 
L 182.188607 74.673792 
L 182.286669 77.025567 
L 182.38473 75.778413 
L 182.482791 76.09911 
L 182.875036 79.804938 
L 183.071158 77.274997 
L 183.169219 75.849679 
L 183.757586 78.700316 
L 183.855648 79.092278 
L 184.149831 80.838293 
L 184.247892 81.372788 
L 184.345953 81.194623 
L 184.738198 83.831462 
L 184.836259 83.795829 
L 185.032382 83.582031 
L 185.130443 83.973994 
L 185.228504 85.399312 
L 185.326565 85.328046 
L 185.424627 85.185514 
L 185.816871 81.408421 
L 186.012994 71.573724 
L 186.307177 50.44338 
L 186.5033 49.48129 
L 186.601361 49.516923 
L 186.993605 52.153762 
L 187.189728 48.768631 
L 187.287789 49.089327 
L 188.072278 56.358451 
L 188.660646 68.259859 
L 189.347074 87.109694 
L 189.739319 94.948945 
L 189.83738 96.089199 
L 190.131563 104.783641 
L 190.229624 101.612308 
L 190.523808 103.251424 
L 190.71993 105.531933 
L 191.014114 106.672188 
L 191.112175 106.387124 
L 191.308297 107.456113 
L 191.406359 107.349214 
L 191.602481 108.952697 
L 191.700542 107.883709 
L 191.896665 108.311304 
L 192.092787 107.42048 
L 192.190848 107.028518 
L 192.288909 105.781364 
L 192.38697 102.788196 
L 192.485032 103.358323 
L 192.681154 105.460667 
L 192.779215 105.353769 
L 193.17146 115.295364 
L 193.269521 115.224098 
L 193.367582 115.295364 
L 193.661766 111.660802 
L 193.955949 109.130862 
L 194.250133 102.610031 
L 194.446255 100.614585 
L 194.8385 92.525904 
L 195.62299 80.125634 
L 195.721051 80.232533 
L 195.819112 81.016458 
L 195.917173 78.664683 
L 196.113295 80.980825 
L 196.211357 80.1969 
L 196.309418 80.232533 
L 196.407479 80.873926 
L 196.603601 78.949747 
L 196.701663 78.807215 
L 196.799724 78.130188 
L 196.897785 78.949747 
L 197.191968 73.284106 
L 197.29003 72.535814 
L 197.486152 73.105941 
L 197.584213 72.999042 
L 197.976458 76.384174 
L 198.17258 76.847402 
L 198.466764 80.838293 
L 198.859009 82.406143 
L 198.95707 82.192346 
L 199.153192 82.227979 
L 199.251253 83.190069 
L 199.447376 86.076338 
L 199.937682 78.807215 
L 200.133804 70.255305 
L 200.427987 50.585912 
L 200.62411 48.661732 
L 200.722171 49.018062 
L 200.820232 48.5192 
L 200.918293 48.590466 
L 201.114416 48.839897 
L 201.212477 48.839897 
L 201.310538 49.018062 
L 201.50666 50.728444 
L 201.604722 50.550279 
L 201.898905 53.365282 
L 202.389211 61.311432 
L 202.781456 67.903529 
L 203.075639 74.602526 
L 203.369823 80.268166 
L 203.664007 88.891342 
L 204.448496 101.469776 
L 205.429108 109.202128 
L 205.527169 109.451559 
L 205.62523 109.34466 
L 205.821353 109.665357 
L 205.919414 109.736622 
L 206.017475 109.451559 
L 206.115536 109.665357 
L 206.213597 109.594091 
L 206.40972 107.563012 
L 206.507781 106.137694 
L 206.900026 108.881431 
L 207.390331 118.609229 
L 207.488393 118.965559 
L 207.684515 117.967836 
L 207.782576 117.611506 
L 208.763188 104.28478 
L 209.155433 96.516795 
L 209.7438 88.285582 
L 210.234106 81.978548 
L 210.430228 81.230256 
L 210.528289 81.942915 
L 210.822473 80.980825 
L 210.920534 81.052091 
L 211.018595 81.550952 
L 211.312779 79.021012 
L 211.508901 79.733672 
L 211.999207 85.434945 
L 212.097268 85.648743 
L 212.293391 86.895896 
L 212.391452 87.18096 
L 212.881758 90.92242 
L 212.979819 90.637357 
L 213.470125 92.810967 
L 213.568186 92.953499 
L 213.666247 92.525904 
L 213.764308 93.167297 
L 213.960431 91.100585 
L 214.156553 86.111971 
L 214.352675 70.967964 
L 214.548798 58.781492 
L 214.941043 53.400915 
L 215.137165 51.726166 
L 215.235226 52.830788 
L 215.52941 50.585912 
L 215.627471 50.942241 
L 216.608083 62.629852 
L 217.784817 93.666158 
L 218.569306 103.964083 
L 219.157673 107.135417 
L 219.255735 107.028518 
L 219.451857 107.669911 
L 219.549918 108.489469 
L 219.647979 107.563012 
L 219.844102 109.309027 
L 220.040224 108.275671 
L 220.138285 108.952697 
L 220.334408 107.741177 
L 220.53053 105.24687 
L 220.628591 102.788196 
L 220.922775 106.102061 
L 221.315019 110.235484 
L 221.413081 112.159664 
L 221.511142 111.589536 
L 222.001448 104.819274 
L 222.099509 104.89054 
L 222.19757 104.783641 
L 222.589815 97.90648 
L 223.374304 84.401589 
L 223.472365 85.470578 
L 223.570427 85.042982 
L 223.86461 77.488795 
L 223.962671 77.631327 
L 224.256855 75.065754 
L 224.354916 74.602526 
L 224.551038 72.96341 
L 224.747161 74.103664 
L 225.041344 71.217395 
L 225.139406 71.110496 
L 225.237467 71.359926 
L 225.433589 73.141574 
L 225.629711 73.533537 
L 225.727773 74.816323 
L 225.825834 74.17493 
L 225.923895 74.53126 
L 226.021956 75.778413 
L 226.218079 75.564615 
L 226.31614 74.638159 
L 226.414201 76.312908 
L 226.512262 75.065754 
L 226.806446 77.168099 
L 227.002568 79.911836 
L 227.100629 79.769305 
L 227.296752 77.417529 
L 227.394813 77.845125 
L 227.492874 77.595694 
L 227.688996 82.299245 
L 227.787057 81.942915 
L 227.98318 78.914114 
L 228.375425 63.912638 
L 228.669608 47.521477 
L 228.86573 45.846728 
L 228.963792 45.704196 
L 229.061853 45.775462 
L 229.257975 47.450211 
L 229.356036 48.946796 
L 229.552159 46.737552 
L 229.65022 46.844451 
L 229.944403 50.051417 
L 230.238587 54.861867 
L 231.219199 78.379619 
L 231.709505 90.31666 
L 232.493994 103.32269 
L 232.9843 107.313581 
L 233.082361 107.099784 
L 233.278484 107.206682 
L 233.474606 108.596368 
L 233.572667 107.919342 
L 233.670728 108.240038 
L 233.76879 109.558458 
L 233.866851 109.059596 
L 234.062973 109.309027 
L 234.357157 107.883709 
L 234.455218 108.097506 
L 234.553279 107.064151 
L 234.749401 103.108892 
L 234.945524 104.712375 
L 235.631952 113.584982 
L 235.828074 109.843521 
L 236.122258 106.885986 
L 236.220319 106.992885 
L 236.31838 106.81472 
L 237.789298 82.227979 
L 238.377665 76.09911 
L 238.573788 76.776136 
L 238.671849 76.384174 
L 238.76991 77.66696 
L 239.064093 74.566893 
L 239.358277 76.312908 
L 239.456338 75.243919 
L 239.652461 75.849679 
L 239.848583 79.127911 
L 240.044705 77.274997 
L 240.240828 78.842848 
L 240.535011 78.593417 
L 240.829195 79.911836 
L 241.025317 79.662406 
L 241.22144 81.871649 
L 241.319501 81.479687 
L 241.417562 81.337155 
L 241.515623 82.192346 
L 241.711745 85.577477 
L 242.005929 82.441776 
L 242.300113 70.469102 
L 242.790418 44.599575 
L 242.88848 44.278878 
L 242.986541 44.742107 
L 243.084602 44.528309 
L 243.476847 47.699642 
L 243.672969 45.846728 
L 243.967153 48.982429 
L 244.55552 59.351619 
L 244.947764 67.297769 
L 245.241948 74.068031 
L 245.634193 85.933806 
L 246.614805 102.289334 
L 247.10511 106.422757 
L 247.203172 106.137694 
L 247.399294 107.491746 
L 247.595416 107.812443 
L 247.8896 109.415926 
L 247.987661 109.309027 
L 248.085722 109.736622 
L 248.674089 107.135417 
L 248.870212 104.391679 
L 248.968273 104.748008 
L 249.654701 113.193019 
L 249.752762 112.729791 
L 250.046946 106.81472 
L 250.243068 103.785918 
L 250.34113 103.215791 
L 250.439191 103.92845 
L 250.635313 100.578952 
L 251.22368 86.788997 
L 251.321741 82.72684 
L 251.419803 82.762473 
L 251.517864 82.263612 
L 251.615925 85.541844 
L 251.812047 75.885312 
L 252.302353 66.086249 
L 252.498476 71.217395 
L 252.596537 69.008151 
L 252.694598 69.221949 
L 253.381026 60.313709 
L 254.067454 67.689732 
L 254.263577 68.50929 
L 254.361638 68.224226 
L 254.459699 68.366758 
L 254.655822 69.293215 
L 254.753883 69.11505 
L 254.950005 70.326571 
L 255.146127 69.47138 
L 255.734495 71.395559 
L 255.832556 71.146129 
L 256.126739 69.863342 
L 256.2248 69.364481 
L 256.420923 66.121882 
L 256.911229 45.240968 
L 257.00929 45.3835 
L 257.107351 44.599575 
L 257.205412 45.205335 
L 257.303473 46.559387 
L 257.401535 46.488122 
L 257.597657 47.378945 
L 257.793779 46.167425 
L 257.891841 46.34559 
L 258.872452 61.418331 
L 259.853064 87.145327 
L 260.147248 93.167297 
L 260.34337 95.447806 
L 260.637554 100.543319 
L 260.833676 102.823829 
L 260.931737 103.287057 
L 261.323982 106.672188 
L 261.422043 106.707821 
L 261.520104 106.921619 
L 261.618166 106.743454 
L 261.814288 107.456113 
L 261.912349 107.598645 
L 262.01041 107.954975 
L 262.108471 107.919342 
L 262.304594 108.346937 
L 262.500716 107.42048 
L 262.598777 107.705544 
L 262.696839 107.669911 
L 262.7949 107.099784 
L 262.892961 103.857184 
L 263.089083 104.997439 
L 263.187144 105.068705 
L 263.383267 107.206682 
L 263.67745 112.515993 
L 263.775512 112.872323 
L 263.873573 112.765424 
L 264.069695 107.563012 
L 264.265817 104.28478 
L 264.46194 102.182435 
L 264.560001 102.930727 
L 264.658062 101.790473 
L 264.854185 97.65705 
L 265.050307 95.946668 
L 265.442552 87.216593 
L 265.736735 83.867095 
L 266.12898 76.918668 
L 266.325102 72.571447 
L 266.913469 65.088526 
L 267.011531 66.478211 
L 267.305714 61.952825 
L 267.403775 63.734473 
L 267.599898 62.843649 
L 267.79602 62.629852 
L 267.894081 63.021814 
L 268.090204 65.551754 
L 268.286326 66.335679 
L 268.384387 66.014983 
L 268.482448 67.582833 
L 268.58051 66.798908 
L 268.776632 67.725365 
L 268.972754 68.366758 
L 269.168877 69.934608 
L 269.266938 70.647267 
L 269.364999 69.827709 
L 269.46306 70.6829 
L 269.561121 69.685177 
L 269.659183 70.148406 
L 269.953366 72.749612 
L 270.345611 68.829986 
L 270.541733 64.945994 
L 271.1301 44.42141 
L 271.718467 48.982429 
L 271.91459 45.846728 
L 272.208773 47.093882 
L 272.502957 51.797432 
L 272.79714 55.645792 
L 272.993263 63.342511 
L 273.091324 63.128713 
L 273.189385 64.233335 
L 274.268058 91.599447 
L 274.46418 94.450083 
L 274.954486 101.968638 
L 275.542853 106.885986 
L 275.935098 108.845799 
L 276.229282 109.986053 
L 276.327343 110.627446 
L 276.621527 109.166495 
L 276.817649 108.38257 
L 276.91571 107.171049 
L 277.013771 104.249147 
L 277.209894 105.4963 
L 277.307955 105.104338 
L 277.406016 105.175604 
L 277.7002 110.663079 
L 277.896322 113.193019 
L 278.092444 112.124031 
L 278.484689 104.961806 
L 278.58275 105.674465 
L 278.778873 104.605476 
L 279.36724 90.423559 
L 279.661423 84.116525 
L 280.053668 80.090001 
L 280.151729 80.1969 
L 280.347851 75.992211 
L 280.445913 75.279552 
L 280.740096 72.072586 
L 280.936219 70.932331 
L 281.03428 71.609357 
L 281.230402 73.284106 
L 281.328463 73.319739 
L 281.524586 75.635881 
L 281.622647 75.600248 
L 281.720708 76.170376 
L 281.818769 75.279552 
L 281.91683 73.141574 
L 282.112953 73.889866 
L 282.211014 73.854233 
L 282.309075 75.13702 
L 282.407136 74.495627 
L 282.70132 77.203732 
L 282.897442 78.02329 
L 283.093565 77.203732 
L 283.387748 79.306076 
L 283.485809 79.412975 
L 283.58387 80.054368 
L 283.779993 79.341709 
L 283.878054 79.519874 
L 284.172238 82.691207 
L 284.466421 80.767027 
L 284.564482 79.377342 
L 284.662543 79.448608 
L 284.956727 62.594219 
L 285.152849 48.87553 
L 285.348972 48.091605 
L 285.839278 51.441103 
L 286.0354 47.699642 
L 287.114073 58.745859 
L 287.408257 65.480488 
L 288.879174 100.080091 
L 289.271419 104.605476 
L 289.36948 105.104338 
L 289.663664 107.598645 
L 289.859786 107.42048 
L 289.957847 108.275671 
L 290.055909 107.848076 
L 290.15397 107.883709 
L 290.350092 108.810166 
L 290.840398 106.672188 
L 290.938459 106.672188 
L 291.03652 105.4963 
L 291.134582 102.503132 
L 291.428765 105.211237 
L 291.526826 105.959529 
L 292.115193 116.542518 
L 292.311316 114.939034 
L 292.409377 113.976945 
L 292.605499 110.591813 
L 292.899683 107.77681 
L 293.880295 87.715454 
L 294.860907 74.459994 
L 294.958968 74.53126 
L 295.15509 73.533537 
L 295.351212 74.745057 
L 295.547335 73.56917 
L 295.645396 73.497904 
L 295.743457 72.999042 
L 295.841518 71.395559 
L 295.93958 71.609357 
L 296.037641 71.395559 
L 296.233763 72.072586 
L 296.331824 71.930054 
L 296.920191 77.31063 
L 297.018253 77.488795 
L 297.116314 77.239365 
L 297.214375 77.702593 
L 297.704681 83.08317 
L 297.802742 82.798106 
L 297.900803 83.190069 
L 297.998864 82.691207 
L 298.194987 84.829185 
L 298.293048 84.365956 
L 298.391109 84.579754 
L 298.587231 83.368233 
L 298.881415 78.450885 
L 299.077537 66.193147 
L 299.27366 52.902054 
L 299.469782 49.980151 
L 299.567843 49.766354 
L 299.665904 49.83762 
L 299.763966 49.267492 
L 299.862027 49.374391 
L 300.058149 50.835342 
L 300.15621 50.550279 
L 300.254272 50.657178 
L 300.352333 50.550279 
L 300.450394 51.013507 
L 300.646516 54.006676 
L 300.744577 54.149208 
L 300.842639 54.861867 
L 301.038761 57.213642 
L 301.234883 59.565417 
L 301.431006 63.164346 
L 301.529067 63.805739 
L 302.019373 76.348541 
L 302.60774 91.136218 
L 303.294168 103.821551 
L 303.392229 103.67902 
L 303.490291 103.999716 
L 303.686413 105.353769 
L 303.980597 107.099784 
L 304.176719 108.061873 
L 304.27478 108.02624 
L 304.470902 109.023963 
L 304.667025 109.843521 
L 304.863147 108.38257 
L 304.961208 108.560735 
L 305.05927 108.204405 
L 305.157331 107.135417 
L 305.255392 104.569844 
L 305.451514 106.600922 
L 305.549575 106.957252 
L 305.745698 110.520548 
L 306.236004 120.141446 
L 306.530187 118.50233 
L 306.628248 118.537963 
L 307.706921 103.108892 
L 308.589472 81.978548 
L 308.785594 80.410698 
L 308.981717 78.878481 
L 309.079778 79.306076 
L 309.2759 82.299245 
L 309.570084 79.804938 
L 309.766206 78.914114 
L 309.864267 78.949747 
L 309.962329 78.201454 
L 310.06039 78.949747 
L 310.256512 78.415252 
L 310.452635 79.84057 
L 310.550696 80.161267 
L 310.648757 79.876203 
L 310.844879 81.444054 
L 311.139063 84.437222 
L 311.531308 85.791274 
L 311.629369 86.468301 
L 311.72743 88.39248 
L 311.923552 87.537289 
L 312.021613 87.751087 
L 312.119675 87.857986 
L 312.315797 88.962608 
L 312.609981 90.459192 
L 312.806103 88.926975 
L 313.002225 86.111971 
L 313.198348 74.388728 
L 313.492531 56.251552 
L 313.786715 52.581357 
L 313.884776 52.296294 
L 313.982837 52.866421 
L 314.473143 50.479013 
L 314.571204 50.728444 
L 314.767327 52.759522 
L 314.865388 53.115852 
L 315.257633 57.320541 
L 315.846 71.181762 
L 316.336306 86.290136 
L 317.316917 103.821551 
L 317.709162 106.743454 
L 317.905284 107.491746 
L 318.101407 108.240038 
L 318.297529 109.237761 
L 318.39559 109.095229 
L 318.493652 110.128585 
L 318.591713 110.021686 
L 318.689774 109.487192 
L 318.885896 109.843521 
L 319.18008 108.560735 
L 319.376202 104.320413 
L 319.474263 104.854907 
L 319.768447 108.275671 
L 320.160692 116.827581 
L 320.258753 116.93448 
L 320.552936 112.622892 
L 320.749059 108.418203 
L 320.945181 108.133139 
L 321.043242 108.275671 
L 321.337426 101.897372 
L 322.121915 87.679821 
L 322.219977 88.463746 
L 322.318038 87.679821 
L 322.710282 80.945192 
L 322.906405 78.700316 
L 323.102527 75.778413 
L 323.200588 74.851956 
L 323.29865 75.101387 
L 323.494772 74.745057 
L 323.690894 72.25075 
L 323.887017 73.640436 
L 323.985078 73.177207 
L 324.083139 73.604803 
L 324.1812 73.034675 
L 324.377323 73.462271 
L 324.573445 76.597971 
L 324.671506 76.811769 
L 324.769567 76.455439 
L 324.867628 76.633604 
L 324.96569 75.920945 
L 325.063751 76.027844 
L 325.161812 75.956578 
L 325.259873 76.811769 
L 325.455996 76.491072 
L 325.554057 75.956578 
L 325.84824 77.381896 
L 326.044363 80.054368 
L 326.142424 80.1969 
L 326.338546 81.372788 
L 326.534669 82.548675 
L 326.926913 79.59114 
L 327.024974 78.593417 
L 327.221097 71.466825 
L 327.613342 47.30768 
L 327.711403 45.704196 
L 327.809464 45.775462 
L 327.907525 45.347867 
L 328.103647 46.167425 
L 328.201709 48.055972 
L 328.397831 44.385777 
L 328.888137 49.374391 
L 329.18232 52.97332 
L 331.045483 98.227177 
L 331.339667 102.182435 
L 331.535789 103.857184 
L 331.731911 105.959529 
L 332.026095 107.206682 
L 332.124156 106.600922 
L 332.41834 108.061873 
L 332.516401 108.311304 
L 332.712523 109.202128 
L 332.810584 109.059596 
L 333.104768 107.527379 
L 333.30089 107.42048 
L 333.497013 103.429589 
L 333.595074 103.465222 
L 333.791196 105.745731 
L 334.281502 114.511439 
L 334.379563 114.547072 
L 334.575686 111.767701 
L 334.771808 107.848076 
L 334.869869 106.850353 
L 334.96793 104.534211 
L 335.065991 105.068705 
L 335.164053 104.961806 
L 335.262114 104.035349 
L 335.75242 94.948945 
L 335.850481 95.055844 
L 335.948542 98.832937 
L 336.144664 96.409896 
L 336.242726 97.193821 
L 336.438848 93.345462 
L 336.831093 88.962608 
L 336.929154 89.497102 
L 337.321399 86.005072 
L 337.41946 86.040705 
L 338.007827 77.096833 
L 338.203949 78.914114 
L 338.30201 78.450885 
L 338.400072 76.562338 
L 338.498133 76.883035 
L 338.694255 77.880758 
L 338.792316 78.094556 
L 338.988439 74.994488 
L 339.0865 75.172653 
L 339.282622 76.811769 
L 339.380683 76.526705 
L 339.478745 75.992211 
L 339.576806 76.09911 
L 339.674867 76.918668 
L 339.772928 76.491072 
L 340.067112 79.769305 
L 340.263234 79.270443 
L 340.459357 81.123357 
L 340.557418 83.546398 
L 340.655479 82.370511 
L 340.75354 83.047537 
L 340.851601 82.762473 
L 341.047724 80.517597 
L 341.243846 76.491072 
L 341.439968 64.162069 
L 341.636091 48.768631 
L 341.832213 45.597298 
L 341.930274 45.632931 
L 342.224458 46.808818 
L 342.322519 49.018062 
L 342.518641 45.775462 
L 342.714764 47.343313 
L 343.107008 52.046863 
L 343.20507 52.510091 
L 343.303131 53.543447 
L 343.597314 60.313709 
L 345.166293 97.30072 
L 345.75466 105.85263 
L 345.852722 106.173327 
L 345.950783 105.816997 
L 346.048844 105.923896 
L 346.441089 108.097506 
L 346.53915 108.311304 
L 346.637211 109.095229 
L 346.735272 108.418203 
L 346.833333 108.703267 
L 346.931395 108.097506 
L 347.127517 108.703267 
L 347.323639 107.42048 
L 347.4217 107.954975 
L 347.617823 103.892817 
L 347.912006 106.529656 
L 348.402312 115.330997 
L 348.500373 115.152832 
L 349.088741 103.92845 
L 349.186802 104.320413 
L 349.284863 104.534211 
L 349.775169 95.305274 
L 349.971291 91.991409 
L 350.167414 83.582031 
L 350.65772 78.415252 
L 350.755781 80.767027 
L 351.148025 77.096833 
L 351.246087 77.488795 
L 351.344148 77.916391 
L 351.442209 76.206009 
L 351.54027 76.384174 
L 351.932515 71.823155 
L 352.030576 72.393282 
L 352.226698 71.894421 
L 352.32476 72.00132 
L 352.422821 71.787522 
L 352.520882 72.25075 
L 352.618943 71.965687 
L 352.913127 75.101387 
L 353.011188 74.210563 
L 353.305371 75.528983 
L 353.501494 76.419806 
L 353.599555 76.312908 
L 353.697616 75.992211 
L 353.893739 78.094556 
L 354.089861 80.838293 
L 354.187922 81.016458 
L 354.285983 80.339432 
L 354.384044 80.660129 
L 354.482106 80.125634 
L 354.678228 81.550952 
L 354.776289 81.479687 
L 354.87435 82.049814 
L 354.972412 81.76475 
L 355.168534 78.878481 
L 355.364656 73.925499 
L 355.65884 55.253829 
L 355.854962 46.701919 
L 355.953023 44.314511 
L 356.051085 44.920271 
L 356.345268 49.48129 
L 356.737513 47.129515 
L 356.835574 47.450211 
L 356.933635 48.376668 
L 357.031696 50.764077 
L 357.129758 50.514646 
L 357.227819 51.013507 
L 357.620063 58.104466 
L 358.600675 83.831462 
L 358.99292 93.381095 
L 359.875471 105.4963 
L 360.071593 106.957252 
L 360.169654 106.636555 
L 360.365777 106.850353 
L 360.463838 106.636555 
L 360.758021 107.812443 
L 361.052205 108.453836 
L 361.542511 106.779087 
L 361.738633 102.538765 
L 362.228939 110.128585 
L 362.523123 115.758592 
L 362.621184 115.687327 
L 363.11149 107.028518 
L 363.209551 106.45839 
L 363.307612 106.565289 
L 363.405673 106.030795 
L 363.699857 101.184712 
L 364.582407 87.572922 
L 364.680469 87.002795 
L 364.77853 85.399312 
L 364.876591 85.933806 
L 364.974652 90.566091 
L 365.170775 79.199177 
L 365.66108 75.671514 
L 365.759142 72.571447 
L 365.857203 74.210563 
L 366.053325 70.611634 
L 366.249448 71.965687 
L 366.347509 73.21284 
L 366.44557 72.856511 
L 366.641692 73.56917 
L 366.935876 74.816323 
L 367.131998 75.564615 
L 367.426182 77.595694 
L 367.524243 76.312908 
L 367.720365 78.165821 
L 367.916488 77.595694 
L 368.014549 77.524428 
L 368.308732 80.446331 
L 368.406794 80.090001 
L 368.602916 78.415252 
L 368.700977 79.056645 
L 368.799038 81.052091 
L 368.8971 80.980825 
L 369.191283 80.517597 
L 369.583528 70.504735 
L 370.073834 45.062803 
L 370.171895 45.597298 
L 370.466078 48.5192 
L 370.56414 49.445657 
L 370.760262 47.485844 
L 370.858323 47.735275 
L 370.956384 47.450211 
L 371.054446 47.806541 
L 371.642813 57.42744 
L 372.133119 67.725365 
L 372.917608 89.746533 
L 373.800159 103.429589 
L 374.584648 109.451559 
L 374.682709 109.059596 
L 374.878832 109.807888 
L 374.976893 109.95042 
L 375.074954 109.558458 
L 375.271076 112.088398 
L 375.467199 108.917064 
L 375.56526 108.810166 
L 375.663321 107.990608 
L 375.761382 104.391679 
L 375.859443 104.676742 
L 376.153627 106.921619 
L 376.643933 116.435619 
L 376.938117 113.620615 
L 377.330361 107.277948 
L 377.526484 107.883709 
L 377.624545 107.206682 
L 377.918728 100.650218 
L 378.114851 98.298443 
L 378.703218 87.857986 
L 378.89934 85.221147 
L 379.193524 81.657851 
L 379.68383 77.025567 
L 379.781891 77.31063 
L 379.879952 77.381896 
L 379.978013 78.237087 
L 380.076074 77.809492 
L 380.272197 81.052091 
L 380.370258 80.909559 
L 380.56638 80.55323 
L 380.762503 79.163544 
L 380.860564 79.23481 
L 380.958625 81.586585 
L 381.056686 80.873926 
L 381.252809 76.633604 
L 381.35087 76.811769 
L 381.448931 76.740503 
L 381.841176 80.945192 
L 381.939237 81.444054 
L 382.037298 80.873926 
L 382.331482 83.08317 
L 382.429543 83.154436 
L 382.527604 82.940638 
L 382.625665 84.900451 
L 382.723726 84.686653 
L 383.01791 85.791274 
L 383.115971 85.755642 
L 383.214032 85.25678 
L 383.606277 77.346263 
L 383.802399 68.75872 
L 384.096583 49.516923 
L 384.292705 47.735275 
L 384.488828 50.657178 
L 384.68495 49.695088 
L 384.783011 48.946796 
L 384.881072 49.089327 
L 384.979133 48.946796 
L 385.371378 51.369837 
L 385.861684 58.745859 
L 385.959745 59.209088 
L 386.450051 70.6829 
L 387.13648 90.281027 
L 388.01903 104.356046 
L 388.215153 106.137694 
L 388.313214 106.20896 
L 388.607397 109.986053 
L 389.097703 111.945866 
L 389.195764 111.803334 
L 389.293826 112.017132 
L 389.68607 109.843521 
L 389.882193 105.139971 
L 389.980254 105.389402 
L 390.372499 110.128585 
L 390.666682 116.186188 
L 390.764743 117.148278 
L 390.862804 117.077012 
L 390.960866 116.720682 
L 391.745355 108.346937 
L 393.216273 82.441776 
L 393.706579 76.170376 
L 393.80464 76.633604 
L 393.902701 76.384174 
L 394.000762 75.279552 
L 394.098823 75.422084 
L 394.491068 73.782968 
L 394.687191 75.528983 
L 394.785252 74.353095 
L 394.883313 74.388728 
L 394.981374 74.459994 
L 395.373619 77.702593 
L 395.765864 79.947469 
L 395.863925 80.909559 
L 395.961986 80.375065 
L 396.25617 83.011904 
L 396.354231 83.118803 
L 396.452292 84.04526 
L 396.550353 83.973994 
L 396.648414 83.510765 
L 396.844537 83.68893 
L 397.13872 86.682098 
L 397.334843 88.14305 
L 397.629026 85.648743 
L 397.825148 79.448608 
L 398.021271 66.193147 
L 398.217393 54.612436 
L 398.413516 51.690533 
L 398.511577 51.975597 
L 398.609638 51.904331 
L 398.707699 51.975597 
L 398.80576 51.797432 
L 399.099944 52.759522 
L 399.198005 52.438826 
L 399.296066 52.795155 
L 400.178617 62.879282 
L 400.865045 77.987657 
L 401.159229 85.86254 
L 401.649535 96.552428 
L 402.041779 100.757117 
L 402.335963 104.569844 
L 402.434024 105.389402 
L 402.630146 107.563012 
L 402.92433 108.596368 
L 403.218513 109.273394 
L 403.316575 109.130862 
L 403.512697 109.914787 
L 403.708819 110.021686 
L 403.806881 109.309027 
L 404.003003 107.171049 
L 404.297187 109.594091 
L 404.395248 110.342383 
L 404.983615 122.279424 
L 405.179737 121.923094 
L 405.866165 115.651694 
L 407.92545 79.84057 
L 408.023511 79.733672 
L 408.121573 79.804938 
L 408.219634 80.517597 
L 408.317695 80.303799 
L 408.415756 79.698039 
L 408.513817 79.733672 
L 408.611879 79.733672 
L 408.808001 80.232533 
L 408.906062 80.481964 
L 409.102184 80.339432 
L 409.200246 80.624496 
L 409.298307 80.481964 
L 409.396368 79.84057 
L 409.788613 83.3326 
L 409.886674 83.118803 
L 410.37698 89.033874 
L 410.475041 89.425836 
L 410.573102 90.815522 
L 410.671163 90.779889 
L 410.769225 91.492548 
L 410.867286 90.993686 
L 411.063408 92.133941 
L 411.357592 93.309829 
L 411.553714 92.062675 
L 412.04402 75.457717 
L 412.436265 48.982429 
L 412.828509 43.673118 
L 413.220754 44.884638 
L 413.318815 44.599575 
L 413.71106 47.877807 
L 415.280039 90.423559 
L 415.868406 99.759394 
L 416.260651 103.536488 
L 416.456773 103.999716 
L 416.849018 107.456113 
L 416.947079 107.634278 
L 417.04514 107.277948 
L 417.241263 108.097506 
L 417.437385 107.313581 
L 417.731569 105.923896 
L 417.82963 105.888263 
L 417.927691 105.318136 
L 418.123813 100.935282 
L 418.221874 101.647941 
L 418.417997 100.899649 
L 418.516058 101.077814 
L 418.614119 100.614585 
L 418.810242 103.215791 
L 418.908303 103.037626 
L 419.006364 103.500855 
L 419.104425 103.32269 
L 419.300547 104.926173 
L 419.398609 107.634278 
L 421.457893 76.883035 
L 421.555955 76.597971 
L 421.948199 67.5472 
L 422.242383 64.304601 
L 422.438505 66.692009 
L 422.536567 66.300046 
L 422.634628 65.444855 
L 422.928811 68.936885 
L 423.026872 67.440301 
L 423.222995 70.219672 
L 423.419117 75.564615 
L 424.007484 77.560061 
L 424.203607 78.130188 
L 424.399729 80.018735 
L 424.49779 80.873926 
L 424.595851 80.018735 
L 424.791974 81.51532 
L 424.890035 80.660129 
L 425.28228 83.225702 
L 425.380341 82.619941 
L 425.674524 79.804938 
L 425.870647 77.987657 
L 426.066769 71.64499 
L 426.262891 60.278076 
L 426.557075 45.02717 
L 426.851259 44.563942 
L 427.243503 47.093882 
L 427.341564 47.272047 
L 427.537687 49.695088 
L 427.929932 56.429717 
L 428.518299 71.003597 
L 429.302788 92.383372 
L 429.49891 95.590338 
L 429.891155 102.289334 
L 430.087278 103.67902 
L 430.185339 106.885986 
L 430.2834 106.779087 
L 430.381461 105.104338 
L 430.871767 108.097506 
L 431.264012 109.772255 
L 431.362073 109.451559 
L 431.558195 108.525102 
L 431.656257 108.560735 
L 431.754318 108.453836 
L 431.852379 107.812443 
L 432.048501 108.596368 
L 432.244624 103.67902 
L 432.342685 104.070982 
L 432.440746 103.821551 
L 432.538807 103.144525 
L 432.636868 103.607754 
L 432.832991 106.315858 
L 432.931052 106.387124 
L 433.029113 105.389402 
L 433.225235 106.672188 
L 433.323297 106.351491 
L 433.421358 107.349214 
L 433.61748 102.930727 
L 434.107786 97.478885 
L 434.990337 86.147604 
L 435.382581 79.412975 
L 435.676765 76.491072 
L 435.872887 93.773057 
L 436.657377 76.633604 
L 436.853499 74.424361 
L 436.95156 75.172653 
L 437.245744 72.464548 
L 437.834111 74.887589 
L 437.932172 74.638159 
L 438.324417 80.1969 
L 438.520539 81.907282 
L 438.6186 81.586585 
L 438.912784 83.546398 
L 439.108906 85.042982 
L 439.206968 84.29469 
L 439.305029 84.829185 
L 439.40309 83.938361 
L 439.501151 84.009627 
L 439.599212 84.971716 
L 439.795335 83.617664 
L 439.893396 83.795829 
L 440.383702 61.739028 
L 440.677885 45.205335 
L 440.775947 43.993814 
L 440.874008 44.884638 
L 441.07013 43.922549 
L 441.168191 44.599575 
L 441.266252 44.457043 
L 441.462375 45.062803 
L 441.658497 47.414578 
L 442.246864 58.38953 
L 443.129415 90.566091 
L 443.227476 102.96636 
L 443.325537 101.255978 
L 443.423598 102.788196 
L 443.52166 102.324967 
L 443.619721 102.788196 
L 443.815843 104.142248 
L 443.913904 104.89054 
L 444.011966 103.536488 
L 444.208088 105.389402 
L 444.306149 105.175604 
L 444.40421 105.425035 
L 444.502271 106.066428 
L 444.600333 105.282503 
L 444.698394 105.460667 
L 444.992577 107.563012 
L 445.090639 107.313581 
L 445.286761 107.848076 
L 445.384822 108.02624 
L 445.482883 107.848076 
L 445.679006 104.249147 
L 445.777067 103.750285 
L 445.875128 104.534211 
L 445.973189 104.462945 
L 446.169312 103.144525 
L 446.365434 99.260533 
L 446.561556 99.866293 
L 446.659617 99.296166 
L 446.953801 102.039903 
L 447.051862 101.897372 
L 447.149923 101.826106 
L 447.346046 100.507686 
L 447.444107 100.685851 
L 447.542168 101.826106 
L 447.640229 101.576675 
L 447.934413 97.30072 
L 448.424719 89.497102 
L 448.718902 85.203331 
L 448.915025 82.352694 
L 449.013086 83.225702 
L 449.307269 74.566893 
L 449.405331 75.600248 
L 449.503392 74.388728 
L 449.601453 69.221949 
L 449.797575 71.538091 
L 449.895637 71.110496 
L 450.091759 69.364481 
L 450.18982 71.431192 
L 450.385942 65.62302 
L 450.484004 64.767829 
L 450.582065 64.839095 
L 450.680126 64.696563 
L 450.778187 64.981627 
L 450.876248 64.268968 
L 450.97431 64.589664 
L 451.170432 67.297769 
L 451.268493 66.157514 
L 451.758799 67.832264 
L 451.85686 67.475934 
L 451.954921 68.081694 
L 452.151044 70.932331 
L 452.347166 72.749612 
L 452.445227 72.642713 
L 452.543288 72.500181 
L 452.837472 73.854233 
L 452.935533 73.889866 
L 453.425839 77.31063 
L 453.5239 76.134743 
L 453.720023 76.669237 
L 453.916145 74.78069 
L 454.112267 70.967964 
L 454.406451 61.489597 
L 454.896757 36.083298 
L 454.994818 35.620069 
L 455.289002 38.185642 
L 455.387063 38.078743 
L 455.681246 40.644316 
L 455.779307 40.145455 
L 455.877369 40.57305 
L 456.465736 54.719335 
L 457.740531 90.815522 
L 458.034715 95.697237 
L 458.819204 102.075536 
L 459.211449 104.249147 
L 459.30951 104.391679 
L 459.603694 105.995162 
L 459.799816 103.964083 
L 459.995938 103.536488 
L 460.290122 102.324967 
L 460.486244 99.296166 
L 460.97655 101.434143 
L 461.172673 103.073259 
L 461.368795 100.79275 
L 461.662978 102.431866 
L 461.859101 100.008825 
L 461.957162 101.327244 
L 462.937774 86.468301 
L 463.820324 76.206009 
L 464.31063 71.217395 
L 464.604814 64.696563 
L 464.702875 66.406945 
L 464.898997 65.694286 
L 465.09512 71.858788 
L 465.487365 74.923222 
L 465.585426 74.923222 
L 465.683487 75.528983 
L 465.781548 75.350818 
L 466.075732 77.488795 
L 466.173793 77.488795 
L 466.369915 78.308353 
L 466.467976 79.519874 
L 466.566038 79.270443 
L 466.664099 79.448608 
L 467.154405 82.156713 
L 467.350527 81.230256 
L 467.546649 82.156713 
L 467.742772 82.976271 
L 467.938894 81.693484 
L 468.331139 73.141574 
L 469.017567 43.922549 
L 469.311751 45.419133 
L 469.409812 45.704196 
L 469.605934 47.30768 
L 469.703995 46.880084 
L 469.900118 47.699642 
L 470.292363 54.648069 
L 470.488485 57.997567 
L 470.88073 69.47138 
L 471.861341 93.452361 
L 472.155525 97.942113 
L 472.645831 103.32269 
L 472.743892 103.393956 
L 472.940014 105.389402 
L 473.038076 105.24687 
L 473.332259 106.20896 
L 473.43032 105.567566 
L 473.920626 107.099784 
L 474.018687 106.992885 
L 474.410932 105.24687 
L 474.508993 102.111169 
L 474.607055 102.3606 
L 474.705116 103.500855 
L 474.803177 103.32269 
L 474.901238 102.752563 
L 474.999299 103.073259 
L 475.195422 105.816997 
L 475.293483 105.531933 
L 475.489605 103.037626 
L 475.685728 104.534211 
L 475.783789 105.318136 
L 476.077972 102.930727 
L 476.568278 94.699514 
L 476.764401 91.421282 
L 477.352768 81.907282 
L 477.54889 79.733672 
L 477.745012 76.989934 
L 478.039196 74.638159 
L 478.235318 74.994488 
L 478.431441 72.428915 
L 478.529502 71.680623 
L 478.725624 69.898975 
L 479.117869 76.206009 
L 479.313991 78.058923 
L 479.412053 77.702593 
L 479.510114 77.880758 
L 479.608175 77.239365 
L 479.804297 78.486518 
L 479.902358 78.593417 
L 480.00042 77.66696 
L 480.392664 79.84057 
L 480.686848 81.123357 
L 480.784909 80.588863 
L 481.079093 83.296967 
L 481.275215 83.225702 
L 481.373276 82.655574 
L 481.471337 83.3326 
L 481.569399 83.190069 
L 481.961643 85.648743 
L 482.157766 85.114248 
L 482.255827 85.363679 
L 482.451949 82.513042 
L 482.746133 69.756443 
L 483.040316 49.659455 
L 483.236439 48.376668 
L 483.3345 47.91344 
L 483.628683 49.374391 
L 483.726745 49.588189 
L 483.824806 49.445657 
L 483.922867 49.980151 
L 484.020928 49.801987 
L 484.413173 53.792878 
L 485.099601 69.934608 
L 485.786029 89.318937 
L 485.786029 89.318937 
" clip-path="url(#p52728ebb7d)" style="fill: none; stroke: #5b5b5b; stroke-width: 1.2; stroke-linecap: square"/>
   </g>
   <g id="patch_3">
    <path d="M 38.7625 116.473231 
L 38.7625 29.246719 
" style="fill: none; stroke: #cccccc; stroke-width: 0.75; stroke-linejoin: miter; stroke-linecap: square"/>
   </g>
   <g id="patch_4">
    <path d="M 48.138971 136.266719 
L 485.884091 136.266719 
" style="fill: none; stroke: #cccccc; stroke-width: 0.75; stroke-linejoin: miter; stroke-linecap: square"/>
   </g>
   <g id="text_14">
    <!-- Month data (March) -->
    <g style="fill: #505050" transform="translate(43.7625 14.246719) scale(0.09 -0.09)">
     <defs>
      <path id="Ubuntu-Bold-4d" d="M 1690 4435 
Q 1805 4224 1955 3913 
Q 2106 3603 2269 3241 
Q 2432 2880 2592 2502 
Q 2752 2125 2893 1792 
Q 3034 2125 3194 2502 
Q 3354 2880 3517 3241 
Q 3680 3603 3830 3913 
Q 3981 4224 4096 4435 
L 5005 4435 
Q 5069 3994 5123 3446 
Q 5178 2899 5219 2307 
Q 5261 1715 5296 1120 
Q 5331 525 5357 0 
L 4384 0 
Q 4365 646 4333 1408 
Q 4301 2170 4237 2944 
Q 4122 2675 3981 2348 
Q 3840 2022 3702 1696 
Q 3565 1370 3437 1072 
Q 3309 774 3219 563 
L 2522 563 
Q 2432 774 2304 1072 
Q 2176 1370 2038 1696 
Q 1901 2022 1760 2348 
Q 1619 2675 1504 2944 
Q 1440 2170 1408 1408 
Q 1376 646 1357 0 
L 384 0 
Q 410 525 445 1120 
Q 480 1715 521 2307 
Q 563 2899 617 3446 
Q 672 3994 736 4435 
L 1690 4435 
z
" transform="scale(0.015625)"/>
      <path id="Ubuntu-Bold-6f" d="M 3597 1690 
Q 3597 1293 3481 963 
Q 3366 634 3148 400 
Q 2931 166 2627 38 
Q 2323 -90 1946 -90 
Q 1574 -90 1270 38 
Q 966 166 748 400 
Q 531 634 409 963 
Q 288 1293 288 1690 
Q 288 2086 413 2412 
Q 538 2739 758 2969 
Q 979 3200 1283 3328 
Q 1587 3456 1946 3456 
Q 2310 3456 2614 3328 
Q 2918 3200 3136 2969 
Q 3354 2739 3475 2412 
Q 3597 2086 3597 1690 
z
M 2624 1690 
Q 2624 2131 2448 2384 
Q 2272 2637 1946 2637 
Q 1619 2637 1440 2384 
Q 1261 2131 1261 1690 
Q 1261 1248 1440 989 
Q 1619 730 1946 730 
Q 2272 730 2448 989 
Q 2624 1248 2624 1690 
z
" transform="scale(0.015625)"/>
      <path id="Ubuntu-Bold-6e" d="M 448 3251 
Q 691 3322 1075 3382 
Q 1459 3443 1882 3443 
Q 2310 3443 2595 3331 
Q 2880 3219 3046 3014 
Q 3213 2810 3283 2528 
Q 3354 2246 3354 1901 
L 3354 0 
L 2400 0 
L 2400 1786 
Q 2400 2246 2278 2438 
Q 2157 2630 1824 2630 
Q 1722 2630 1606 2620 
Q 1491 2611 1402 2598 
L 1402 0 
L 448 0 
L 448 3251 
z
" transform="scale(0.015625)"/>
      <path id="Ubuntu-Bold-74" d="M 416 4205 
L 1370 4358 
L 1370 3366 
L 2515 3366 
L 2515 2573 
L 1370 2573 
L 1370 1389 
Q 1370 1088 1475 909 
Q 1581 730 1901 730 
Q 2054 730 2217 758 
Q 2381 787 2515 838 
L 2650 96 
Q 2477 26 2265 -25 
Q 2054 -77 1747 -77 
Q 1357 -77 1101 28 
Q 845 134 691 323 
Q 538 512 477 781 
Q 416 1050 416 1376 
L 416 4205 
z
" transform="scale(0.015625)"/>
      <path id="Ubuntu-Bold-68" d="M 448 0 
L 448 4813 
L 1402 4966 
L 1402 3354 
Q 1498 3386 1648 3414 
Q 1798 3443 1939 3443 
Q 2349 3443 2621 3331 
Q 2893 3219 3056 3014 
Q 3219 2810 3286 2528 
Q 3354 2246 3354 1901 
L 3354 0 
L 2400 0 
L 2400 1786 
Q 2400 2246 2281 2438 
Q 2163 2630 1843 2630 
Q 1715 2630 1603 2608 
Q 1491 2586 1402 2560 
L 1402 0 
L 448 0 
z
" transform="scale(0.015625)"/>
      <path id="Ubuntu-Bold-20" transform="scale(0.015625)"/>
      <path id="Ubuntu-Bold-64" d="M 1261 1709 
Q 1261 1267 1459 998 
Q 1658 730 2048 730 
Q 2176 730 2285 739 
Q 2394 749 2464 762 
L 2464 2496 
Q 2374 2554 2230 2592 
Q 2086 2630 1939 2630 
Q 1261 2630 1261 1709 
z
M 3418 109 
Q 3290 70 3123 35 
Q 2957 0 2774 -25 
Q 2592 -51 2403 -67 
Q 2214 -83 2042 -83 
Q 1626 -83 1299 38 
Q 973 160 749 387 
Q 525 614 406 937 
Q 288 1261 288 1664 
Q 288 2074 390 2403 
Q 493 2733 685 2963 
Q 877 3194 1155 3315 
Q 1434 3437 1792 3437 
Q 1990 3437 2147 3398 
Q 2304 3360 2464 3290 
L 2464 4813 
L 3418 4966 
L 3418 109 
z
" transform="scale(0.015625)"/>
      <path id="Ubuntu-Bold-61" d="M 1734 666 
Q 1875 666 2003 672 
Q 2131 678 2208 691 
L 2208 1414 
Q 2150 1427 2035 1440 
Q 1920 1453 1824 1453 
Q 1690 1453 1571 1437 
Q 1453 1421 1363 1376 
Q 1274 1331 1222 1254 
Q 1171 1178 1171 1062 
Q 1171 838 1321 752 
Q 1472 666 1734 666 
z
M 1658 3456 
Q 2080 3456 2361 3360 
Q 2643 3264 2812 3085 
Q 2982 2906 3052 2650 
Q 3123 2394 3123 2080 
L 3123 96 
Q 2918 51 2553 -9 
Q 2189 -70 1670 -70 
Q 1344 -70 1078 -12 
Q 813 45 621 176 
Q 429 307 326 518 
Q 224 730 224 1037 
Q 224 1331 342 1536 
Q 461 1741 659 1862 
Q 858 1984 1114 2038 
Q 1370 2093 1645 2093 
Q 1830 2093 1974 2077 
Q 2118 2061 2208 2035 
L 2208 2125 
Q 2208 2368 2061 2515 
Q 1914 2662 1549 2662 
Q 1306 2662 1069 2627 
Q 832 2592 659 2528 
L 538 3296 
Q 621 3322 745 3350 
Q 870 3379 1017 3401 
Q 1165 3424 1328 3440 
Q 1491 3456 1658 3456 
z
" transform="scale(0.015625)"/>
      <path id="Ubuntu-Bold-28" d="M 1389 1914 
Q 1389 1158 1625 473 
Q 1862 -211 2246 -755 
L 1581 -1184 
Q 1037 -550 742 237 
Q 448 1024 448 1914 
Q 448 2803 742 3590 
Q 1037 4378 1581 5011 
L 2246 4582 
Q 1862 4038 1625 3353 
Q 1389 2669 1389 1914 
z
" transform="scale(0.015625)"/>
      <path id="Ubuntu-Bold-72" d="M 2477 2522 
Q 2349 2554 2176 2589 
Q 2003 2624 1805 2624 
Q 1715 2624 1590 2608 
Q 1466 2592 1402 2573 
L 1402 0 
L 448 0 
L 448 3187 
Q 704 3277 1053 3357 
Q 1402 3437 1830 3437 
Q 1907 3437 2016 3427 
Q 2125 3418 2233 3402 
Q 2342 3386 2451 3363 
Q 2560 3341 2637 3309 
L 2477 2522 
z
" transform="scale(0.015625)"/>
      <path id="Ubuntu-Bold-63" d="M 288 1683 
Q 288 2048 406 2371 
Q 525 2694 749 2934 
Q 973 3174 1293 3315 
Q 1613 3456 2022 3456 
Q 2291 3456 2515 3408 
Q 2739 3360 2950 3270 
L 2752 2509 
Q 2618 2560 2458 2598 
Q 2298 2637 2099 2637 
Q 1677 2637 1469 2374 
Q 1261 2112 1261 1683 
Q 1261 1229 1456 979 
Q 1651 730 2138 730 
Q 2310 730 2508 762 
Q 2707 794 2874 864 
L 3008 83 
Q 2842 13 2592 -38 
Q 2342 -90 2042 -90 
Q 1581 -90 1248 48 
Q 915 186 700 422 
Q 486 659 387 982 
Q 288 1306 288 1683 
z
" transform="scale(0.015625)"/>
      <path id="Ubuntu-Bold-29" d="M 890 1914 
Q 890 2669 653 3353 
Q 416 4038 32 4582 
L 698 5011 
Q 1242 4378 1536 3590 
Q 1830 2803 1830 1914 
Q 1830 1024 1536 237 
Q 1242 -550 698 -1184 
L 32 -755 
Q 416 -211 653 473 
Q 890 1158 890 1914 
z
" transform="scale(0.015625)"/>
     </defs>
     <use xlink:href="#Ubuntu-Bold-4d"/>
     <use xlink:href="#Ubuntu-Bold-6f" x="89.699982"/>
     <use xlink:href="#Ubuntu-Bold-6e" x="150.399979"/>
     <use xlink:href="#Ubuntu-Bold-74" x="209.299973"/>
     <use xlink:href="#Ubuntu-Bold-68" x="253.699966"/>
     <use xlink:href="#Ubuntu-Bold-20" x="312.59996"/>
     <use xlink:href="#Ubuntu-Bold-64" x="336.599945"/>
     <use xlink:href="#Ubuntu-Bold-61" x="396.999939"/>
     <use xlink:href="#Ubuntu-Bold-74" x="452.299927"/>
     <use xlink:href="#Ubuntu-Bold-61" x="494.699921"/>
     <use xlink:href="#Ubuntu-Bold-20" x="549.999908"/>
     <use xlink:href="#Ubuntu-Bold-28" x="573.999893"/>
     <use xlink:href="#Ubuntu-Bold-4d" x="609.599884"/>
     <use xlink:href="#Ubuntu-Bold-61" x="699.299866"/>
     <use xlink:href="#Ubuntu-Bold-72" x="754.599854"/>
     <use xlink:href="#Ubuntu-Bold-63" x="795.79985"/>
     <use xlink:href="#Ubuntu-Bold-68" x="845.799835"/>
     <use xlink:href="#Ubuntu-Bold-29" x="902.574829"/>
    </g>
   </g>
  </g>
 </g>
 <defs>
  <clipPath id="p52728ebb7d">
   <rect x="43.7625" y="29.246719" width="446.4" height="97.02"/>
  </clipPath>
 </defs>
</svg>
