<?xml version="1.0" encoding="utf-8" standalone="no"?>
<!DOCTYPE svg PUBLIC "-//W3C//DTD SVG 1.1//EN"
  "http://www.w3.org/Graphics/SVG/1.1/DTD/svg11.dtd">
<svg xmlns:xlink="http://www.w3.org/1999/xlink" width="495.433134pt" height="155.154219pt" viewBox="0 0 495.433134 155.154219" xmlns="http://www.w3.org/2000/svg" version="1.1">
 <metadata>
  <rdf:RDF xmlns:dc="http://purl.org/dc/elements/1.1/" xmlns:cc="http://creativecommons.org/ns#" xmlns:rdf="http://www.w3.org/1999/02/22-rdf-syntax-ns#">
   <cc:Work>
    <dc:type rdf:resource="http://purl.org/dc/dcmitype/StillImage"/>
    <dc:date>2024-05-16T16:41:28.420641</dc:date>
    <dc:format>image/svg+xml</dc:format>
    <dc:creator>
     <cc:Agent>
      <dc:title>Matplotlib v3.8.3, https://matplotlib.org/</dc:title>
     </cc:Agent>
    </dc:creator>
   </cc:Work>
  </rdf:RDF>
 </metadata>
 <defs>
  <style type="text/css">*{stroke-linejoin: round; stroke-linecap: butt}</style>
 </defs>
 <g id="figure_1">
  <g id="patch_1">
   <path d="M 0 155.154219 
L 495.433134 155.154219 
L 495.433134 0 
L 0 0 
L 0 155.154219 
z
" style="fill: none"/>
  </g>
  <g id="axes_1">
   <g id="patch_2">
    <path d="M 41.2625 126.266719 
L 487.6625 126.266719 
L 487.6625 29.246719 
L 41.2625 29.246719 
L 41.2625 126.266719 
z
" style="fill: none"/>
   </g>
   <g id="matplotlib.axis_1">
    <g id="xtick_1">
     <g id="line2d_1">
      <defs>
       <path id="m122e3f1d1e" d="M 0 0 
L 0 3 
" style="stroke: #cecece; stroke-width: 0.75"/>
      </defs>
      <g>
       <use xlink:href="#m122e3f1d1e" x="45.638971" y="131.266719" style="fill: #cecece; stroke: #cecece; stroke-width: 0.75"/>
      </g>
     </g>
     <g id="text_1">
      <!-- 13 -->
      <g style="fill: #808080" transform="translate(41.126471 146.474219) scale(0.08 -0.08)">
       <defs>
        <path id="Ubuntu-31" d="M 595 3520 
Q 960 3661 1305 3881 
Q 1651 4102 1939 4435 
L 2362 4435 
L 2362 0 
L 1766 0 
L 1766 3610 
Q 1690 3539 1578 3462 
Q 1466 3386 1334 3315 
Q 1203 3245 1059 3181 
Q 915 3117 781 3072 
L 595 3520 
z
" transform="scale(0.015625)"/>
        <path id="Ubuntu-33" d="M 1446 435 
Q 2016 435 2262 659 
Q 2509 883 2509 1261 
Q 2509 1504 2406 1670 
Q 2304 1837 2137 1936 
Q 1971 2035 1750 2076 
Q 1530 2118 1299 2118 
L 1146 2118 
L 1146 2605 
L 1357 2605 
Q 1517 2605 1686 2637 
Q 1856 2669 1997 2752 
Q 2138 2835 2227 2979 
Q 2317 3123 2317 3341 
Q 2317 3520 2253 3648 
Q 2189 3776 2083 3859 
Q 1978 3942 1840 3977 
Q 1702 4013 1549 4013 
Q 1242 4013 1027 3923 
Q 813 3834 666 3738 
L 435 4192 
Q 512 4243 630 4304 
Q 749 4365 896 4416 
Q 1043 4467 1212 4502 
Q 1382 4538 1568 4538 
Q 1920 4538 2176 4451 
Q 2432 4365 2598 4208 
Q 2765 4051 2848 3836 
Q 2931 3622 2931 3373 
Q 2931 3027 2732 2780 
Q 2534 2534 2253 2406 
Q 2426 2355 2586 2259 
Q 2746 2163 2864 2016 
Q 2982 1869 3056 1677 
Q 3130 1485 3130 1248 
Q 3130 960 3030 713 
Q 2931 467 2723 288 
Q 2515 109 2201 6 
Q 1888 -96 1459 -96 
Q 1293 -96 1117 -70 
Q 941 -45 787 -6 
Q 634 32 518 70 
Q 403 109 352 134 
L 467 653 
Q 576 602 829 518 
Q 1082 435 1446 435 
z
" transform="scale(0.015625)"/>
       </defs>
       <use xlink:href="#Ubuntu-31"/>
       <use xlink:href="#Ubuntu-33" x="56.399994"/>
      </g>
     </g>
    </g>
    <g id="xtick_2">
     <g id="line2d_2">
      <g>
       <use xlink:href="#m122e3f1d1e" x="108.222065" y="131.266719" style="fill: #cecece; stroke: #cecece; stroke-width: 0.75"/>
      </g>
     </g>
     <g id="text_2">
      <!-- 14 -->
      <g style="fill: #808080" transform="translate(103.709565 146.474219) scale(0.08 -0.08)">
       <defs>
        <path id="Ubuntu-34" d="M 256 1536 
Q 378 1818 589 2192 
Q 800 2566 1065 2963 
Q 1331 3360 1635 3744 
Q 1939 4128 2246 4435 
L 2816 4435 
L 2816 1619 
L 3341 1619 
L 3341 1133 
L 2816 1133 
L 2816 0 
L 2240 0 
L 2240 1133 
L 256 1133 
L 256 1536 
z
M 2240 3731 
Q 2048 3526 1853 3273 
Q 1658 3021 1472 2745 
Q 1286 2470 1123 2182 
Q 960 1894 832 1619 
L 2240 1619 
L 2240 3731 
z
" transform="scale(0.015625)"/>
       </defs>
       <use xlink:href="#Ubuntu-31"/>
       <use xlink:href="#Ubuntu-34" x="56.399994"/>
      </g>
     </g>
    </g>
    <g id="xtick_3">
     <g id="line2d_3">
      <g>
       <use xlink:href="#m122e3f1d1e" x="170.80516" y="131.266719" style="fill: #cecece; stroke: #cecece; stroke-width: 0.75"/>
      </g>
     </g>
     <g id="text_3">
      <!-- 15 -->
      <g style="fill: #808080" transform="translate(166.29266 146.474219) scale(0.08 -0.08)">
       <defs>
        <path id="Ubuntu-35" d="M 1274 2726 
Q 2240 2688 2691 2304 
Q 3142 1920 3142 1261 
Q 3142 966 3043 716 
Q 2944 467 2742 288 
Q 2541 109 2233 6 
Q 1926 -96 1504 -96 
Q 1338 -96 1165 -70 
Q 992 -45 845 -6 
Q 698 32 582 70 
Q 467 109 416 134 
L 531 653 
Q 640 602 886 518 
Q 1133 435 1491 435 
Q 1779 435 1974 499 
Q 2170 563 2291 672 
Q 2413 781 2467 925 
Q 2522 1069 2522 1229 
Q 2522 1472 2438 1661 
Q 2355 1850 2144 1978 
Q 1933 2106 1581 2173 
Q 1229 2240 691 2240 
Q 730 2554 752 2829 
Q 774 3104 793 3366 
Q 813 3629 825 3888 
Q 838 4147 851 4435 
L 2989 4435 
L 2989 3930 
L 1370 3930 
Q 1363 3834 1350 3670 
Q 1338 3507 1325 3331 
Q 1312 3155 1299 2988 
Q 1286 2822 1274 2726 
z
" transform="scale(0.015625)"/>
       </defs>
       <use xlink:href="#Ubuntu-31"/>
       <use xlink:href="#Ubuntu-35" x="56.399994"/>
      </g>
     </g>
    </g>
    <g id="xtick_4">
     <g id="line2d_4">
      <g>
       <use xlink:href="#m122e3f1d1e" x="233.388255" y="131.266719" style="fill: #cecece; stroke: #cecece; stroke-width: 0.75"/>
      </g>
     </g>
     <g id="text_4">
      <!-- 16 -->
      <g style="fill: #808080" transform="translate(228.875755 146.474219) scale(0.08 -0.08)">
       <defs>
        <path id="Ubuntu-36" d="M 403 1779 
Q 403 2426 582 2922 
Q 762 3418 1091 3757 
Q 1421 4096 1891 4272 
Q 2362 4448 2950 4454 
L 2995 3955 
Q 2618 3949 2307 3872 
Q 1997 3795 1753 3628 
Q 1510 3462 1344 3196 
Q 1178 2931 1094 2541 
Q 1261 2618 1469 2669 
Q 1677 2720 1901 2720 
Q 2278 2720 2540 2605 
Q 2803 2490 2969 2301 
Q 3136 2112 3209 1865 
Q 3283 1619 3283 1350 
Q 3283 1107 3200 851 
Q 3117 595 2947 384 
Q 2778 173 2515 38 
Q 2253 -96 1894 -96 
Q 1165 -96 784 403 
Q 403 902 403 1779 
z
M 1837 2234 
Q 1613 2234 1421 2192 
Q 1229 2150 1037 2067 
Q 1030 1997 1027 1923 
Q 1024 1850 1024 1779 
Q 1024 1498 1062 1248 
Q 1101 998 1200 809 
Q 1299 621 1465 509 
Q 1632 397 1888 397 
Q 2099 397 2246 486 
Q 2394 576 2490 717 
Q 2586 858 2627 1021 
Q 2669 1184 2669 1338 
Q 2669 1773 2461 2003 
Q 2253 2234 1837 2234 
z
" transform="scale(0.015625)"/>
       </defs>
       <use xlink:href="#Ubuntu-31"/>
       <use xlink:href="#Ubuntu-36" x="56.399994"/>
      </g>
     </g>
    </g>
    <g id="xtick_5">
     <g id="line2d_5">
      <g>
       <use xlink:href="#m122e3f1d1e" x="295.97135" y="131.266719" style="fill: #cecece; stroke: #cecece; stroke-width: 0.75"/>
      </g>
     </g>
     <g id="text_5">
      <!-- 17 -->
      <g style="fill: #808080" transform="translate(291.45885 146.474219) scale(0.08 -0.08)">
       <defs>
        <path id="Ubuntu-37" d="M 1043 0 
Q 1082 512 1226 1078 
Q 1370 1645 1581 2179 
Q 1792 2714 2045 3171 
Q 2298 3629 2541 3917 
L 384 3917 
L 384 4435 
L 3206 4435 
L 3206 3942 
Q 2995 3699 2739 3273 
Q 2483 2848 2256 2320 
Q 2029 1792 1865 1193 
Q 1702 595 1664 0 
L 1043 0 
z
" transform="scale(0.015625)"/>
       </defs>
       <use xlink:href="#Ubuntu-31"/>
       <use xlink:href="#Ubuntu-37" x="56.399994"/>
      </g>
     </g>
    </g>
    <g id="xtick_6">
     <g id="line2d_6">
      <g>
       <use xlink:href="#m122e3f1d1e" x="358.554445" y="131.266719" style="fill: #cecece; stroke: #cecece; stroke-width: 0.75"/>
      </g>
     </g>
     <g id="text_6">
      <!-- 18 -->
      <g style="fill: #808080" transform="translate(354.041945 146.474219) scale(0.08 -0.08)">
       <defs>
        <path id="Ubuntu-38" d="M 3258 1152 
Q 3258 883 3165 656 
Q 3072 429 2889 259 
Q 2707 90 2432 -3 
Q 2157 -96 1798 -96 
Q 1382 -96 1104 22 
Q 826 141 659 320 
Q 493 499 422 713 
Q 352 928 352 1120 
Q 352 1306 413 1475 
Q 474 1645 573 1792 
Q 672 1939 803 2057 
Q 934 2176 1082 2266 
Q 454 2624 454 3322 
Q 454 3565 550 3785 
Q 646 4006 822 4172 
Q 998 4339 1248 4438 
Q 1498 4538 1805 4538 
Q 2163 4538 2419 4429 
Q 2675 4320 2838 4150 
Q 3002 3981 3075 3776 
Q 3149 3571 3149 3379 
Q 3149 3194 3094 3030 
Q 3040 2867 2947 2726 
Q 2854 2586 2736 2477 
Q 2618 2368 2490 2285 
Q 3245 1926 3258 1152 
z
M 954 1114 
Q 954 998 995 873 
Q 1037 749 1139 643 
Q 1242 538 1402 467 
Q 1562 397 1805 397 
Q 2022 397 2185 461 
Q 2349 525 2451 624 
Q 2554 723 2605 851 
Q 2656 979 2656 1114 
Q 2656 1318 2579 1472 
Q 2502 1626 2358 1741 
Q 2214 1856 2012 1936 
Q 1811 2016 1555 2074 
Q 1267 1914 1110 1677 
Q 954 1440 954 1114 
z
M 2554 3386 
Q 2554 3482 2512 3597 
Q 2470 3712 2380 3811 
Q 2291 3910 2150 3977 
Q 2010 4045 1805 4045 
Q 1600 4045 1456 3981 
Q 1312 3917 1222 3817 
Q 1133 3718 1091 3600 
Q 1050 3482 1050 3366 
Q 1050 3226 1101 3085 
Q 1152 2944 1261 2822 
Q 1370 2701 1546 2605 
Q 1722 2509 1965 2451 
Q 2234 2611 2394 2825 
Q 2554 3040 2554 3386 
z
" transform="scale(0.015625)"/>
       </defs>
       <use xlink:href="#Ubuntu-31"/>
       <use xlink:href="#Ubuntu-38" x="56.399994"/>
      </g>
     </g>
    </g>
    <g id="xtick_7">
     <g id="line2d_7">
      <g>
       <use xlink:href="#m122e3f1d1e" x="421.137539" y="131.266719" style="fill: #cecece; stroke: #cecece; stroke-width: 0.75"/>
      </g>
     </g>
     <g id="text_7">
      <!-- 19 -->
      <g style="fill: #808080" transform="translate(416.625039 146.474219) scale(0.08 -0.08)">
       <defs>
        <path id="Ubuntu-39" d="M 3206 2662 
Q 3206 1344 2550 669 
Q 1894 -6 602 -13 
L 582 486 
Q 986 486 1309 563 
Q 1632 640 1875 809 
Q 2118 979 2281 1248 
Q 2445 1517 2522 1907 
Q 2355 1830 2144 1782 
Q 1933 1734 1709 1734 
Q 1331 1734 1068 1846 
Q 806 1958 640 2147 
Q 474 2336 400 2582 
Q 326 2829 326 3098 
Q 326 3334 409 3590 
Q 493 3846 662 4057 
Q 832 4269 1094 4403 
Q 1357 4538 1715 4538 
Q 2080 4538 2358 4410 
Q 2637 4282 2825 4038 
Q 3014 3795 3110 3446 
Q 3206 3098 3206 2662 
z
M 1773 2221 
Q 1997 2221 2195 2262 
Q 2394 2304 2579 2387 
Q 2586 2458 2586 2525 
Q 2586 2592 2586 2662 
Q 2586 2938 2547 3190 
Q 2509 3443 2409 3632 
Q 2310 3821 2144 3933 
Q 1978 4045 1722 4045 
Q 1510 4045 1363 3955 
Q 1216 3866 1120 3728 
Q 1024 3590 982 3427 
Q 941 3264 941 3110 
Q 941 2675 1149 2448 
Q 1357 2221 1773 2221 
z
" transform="scale(0.015625)"/>
       </defs>
       <use xlink:href="#Ubuntu-31"/>
       <use xlink:href="#Ubuntu-39" x="56.399994"/>
      </g>
     </g>
    </g>
    <g id="xtick_8">
     <g id="line2d_8">
      <g>
       <use xlink:href="#m122e3f1d1e" x="483.720634" y="131.266719" style="fill: #cecece; stroke: #cecece; stroke-width: 0.75"/>
      </g>
     </g>
     <g id="text_8">
      <!-- 20 -->
      <g style="fill: #808080" transform="translate(479.208134 146.474219) scale(0.08 -0.08)">
       <defs>
        <path id="Ubuntu-32" d="M 2989 3302 
Q 2989 3072 2896 2857 
Q 2803 2643 2649 2435 
Q 2496 2227 2304 2025 
Q 2112 1824 1920 1632 
Q 1811 1523 1667 1376 
Q 1523 1229 1395 1069 
Q 1267 909 1180 761 
Q 1094 614 1094 506 
L 3136 506 
L 3136 0 
L 448 0 
Q 442 38 442 76 
Q 442 115 442 147 
Q 442 448 541 707 
Q 640 966 800 1196 
Q 960 1427 1158 1632 
Q 1357 1837 1549 2029 
Q 1709 2182 1853 2332 
Q 1997 2483 2109 2633 
Q 2221 2784 2288 2944 
Q 2355 3104 2355 3283 
Q 2355 3475 2294 3609 
Q 2234 3744 2131 3833 
Q 2029 3923 1891 3964 
Q 1754 4006 1600 4006 
Q 1414 4006 1260 3955 
Q 1107 3904 985 3837 
Q 864 3770 781 3696 
Q 698 3622 653 3584 
L 358 4006 
Q 416 4070 531 4163 
Q 646 4256 806 4339 
Q 966 4422 1164 4480 
Q 1363 4538 1594 4538 
Q 2291 4538 2640 4214 
Q 2989 3891 2989 3302 
z
" transform="scale(0.015625)"/>
        <path id="Ubuntu-30" d="M 320 2221 
Q 320 3334 713 3936 
Q 1107 4538 1805 4538 
Q 2502 4538 2896 3936 
Q 3290 3334 3290 2221 
Q 3290 1107 2896 505 
Q 2502 -96 1805 -96 
Q 1107 -96 713 505 
Q 320 1107 320 2221 
z
M 2662 2221 
Q 2662 2586 2620 2912 
Q 2579 3238 2480 3481 
Q 2381 3725 2214 3869 
Q 2048 4013 1805 4013 
Q 1562 4013 1395 3869 
Q 1229 3725 1129 3481 
Q 1030 3238 988 2912 
Q 947 2586 947 2221 
Q 947 1856 988 1529 
Q 1030 1203 1129 960 
Q 1229 717 1395 573 
Q 1562 429 1805 429 
Q 2048 429 2214 573 
Q 2381 717 2480 960 
Q 2579 1203 2620 1529 
Q 2662 1856 2662 2221 
z
" transform="scale(0.015625)"/>
       </defs>
       <use xlink:href="#Ubuntu-32"/>
       <use xlink:href="#Ubuntu-30" x="56.399994"/>
      </g>
     </g>
    </g>
   </g>
   <g id="matplotlib.axis_2">
    <g id="ytick_1">
     <g id="line2d_9">
      <defs>
       <path id="mde5090e4c9" d="M 0 0 
L -3 0 
" style="stroke: #cecece; stroke-width: 0.75"/>
      </defs>
      <g>
       <use xlink:href="#mde5090e4c9" x="38.7625" y="126.266719" style="fill: #cecece; stroke: #cecece; stroke-width: 0.75"/>
      </g>
     </g>
     <g id="text_9">
      <!-- 15000 -->
      <g style="fill: #808080" transform="translate(7.2 129.370469) scale(0.08 -0.08)">
       <use xlink:href="#Ubuntu-31"/>
       <use xlink:href="#Ubuntu-35" x="56.399994"/>
       <use xlink:href="#Ubuntu-30" x="112.799988"/>
       <use xlink:href="#Ubuntu-30" x="169.199982"/>
       <use xlink:href="#Ubuntu-30" x="225.599976"/>
      </g>
     </g>
    </g>
    <g id="ytick_2">
     <g id="line2d_10">
      <g>
       <use xlink:href="#mde5090e4c9" x="38.7625" y="95.000666" style="fill: #cecece; stroke: #cecece; stroke-width: 0.75"/>
      </g>
     </g>
     <g id="text_10">
      <!-- 25000 -->
      <g style="fill: #808080" transform="translate(7.2 98.104416) scale(0.08 -0.08)">
       <use xlink:href="#Ubuntu-32"/>
       <use xlink:href="#Ubuntu-35" x="56.399994"/>
       <use xlink:href="#Ubuntu-30" x="112.799988"/>
       <use xlink:href="#Ubuntu-30" x="169.199982"/>
       <use xlink:href="#Ubuntu-30" x="225.599976"/>
      </g>
     </g>
    </g>
    <g id="ytick_3">
     <g id="line2d_11">
      <g>
       <use xlink:href="#mde5090e4c9" x="38.7625" y="63.734614" style="fill: #cecece; stroke: #cecece; stroke-width: 0.75"/>
      </g>
     </g>
     <g id="text_11">
      <!-- 35000 -->
      <g style="fill: #808080" transform="translate(7.2 66.838364) scale(0.08 -0.08)">
       <use xlink:href="#Ubuntu-33"/>
       <use xlink:href="#Ubuntu-35" x="56.399994"/>
       <use xlink:href="#Ubuntu-30" x="112.799988"/>
       <use xlink:href="#Ubuntu-30" x="169.199982"/>
       <use xlink:href="#Ubuntu-30" x="225.599976"/>
      </g>
     </g>
    </g>
    <g id="ytick_4">
     <g id="line2d_12">
      <g>
       <use xlink:href="#mde5090e4c9" x="38.7625" y="32.468561" style="fill: #cecece; stroke: #cecece; stroke-width: 0.75"/>
      </g>
     </g>
     <g id="text_12">
      <!-- 45000 -->
      <g style="fill: #808080" transform="translate(7.2 35.572311) scale(0.08 -0.08)">
       <use xlink:href="#Ubuntu-34"/>
       <use xlink:href="#Ubuntu-35" x="56.399994"/>
       <use xlink:href="#Ubuntu-30" x="112.799988"/>
       <use xlink:href="#Ubuntu-30" x="169.199982"/>
       <use xlink:href="#Ubuntu-30" x="225.599976"/>
      </g>
     </g>
    </g>
   </g>
   <g id="line2d_13">
    <path d="M 45.638971 81.893405 
L 46.073575 83.69433 
L 46.50818 86.108335 
L 47.811995 90.936346 
L 48.2466 93.043811 
L 48.681204 94.001749 
L 49.115809 94.538195 
L 49.550414 96.377437 
L 50.419624 97.795186 
L 50.854228 98.484902 
L 51.723438 100.132556 
L 52.158043 99.902651 
L 52.592648 100.592367 
L 53.027253 100.477414 
L 53.896462 101.16713 
L 54.331067 102.048434 
L 54.765672 101.052177 
L 55.634882 102.929737 
L 56.504091 101.818528 
L 56.938696 102.546562 
L 57.373301 102.010116 
L 57.807906 101.243765 
L 58.242511 100.247509 
L 58.677115 98.561537 
L 59.11172 95.917626 
L 59.98093 99.097983 
L 60.415535 99.481158 
L 60.850139 100.477414 
L 61.284744 101.128813 
L 61.719349 102.163386 
L 62.588559 105.995141 
L 63.023164 105.38206 
L 63.892373 102.469927 
L 64.326978 99.979286 
L 64.761583 98.408267 
L 65.196188 98.101727 
L 65.630793 98.178362 
L 66.065397 98.063409 
L 66.500002 95.572769 
L 66.934607 94.001749 
L 67.369212 91.472791 
L 67.803817 90.668123 
L 69.107631 85.686842 
L 69.976841 80.284068 
L 70.411446 79.402764 
L 71.280655 76.145773 
L 71.71526 77.2953 
L 72.149865 76.835489 
L 72.58447 72.812147 
L 73.019075 70.321506 
L 73.453679 68.712169 
L 73.888284 68.86544 
L 74.322889 67.44769 
L 74.757494 67.332738 
L 75.192099 66.106576 
L 75.626704 65.608448 
L 76.061308 64.458922 
L 76.495913 63.845841 
L 76.930518 64.688827 
L 77.365123 65.072003 
L 78.234332 62.61968 
L 78.668937 61.968281 
L 79.103542 61.853329 
L 79.538147 62.121552 
L 79.972752 63.500983 
L 80.407357 64.037429 
L 81.276566 64.458922 
L 81.711171 65.838353 
L 82.145776 65.148638 
L 82.580381 65.531813 
L 83.014986 66.872927 
L 83.44959 66.68134 
L 83.884195 66.643022 
L 84.3188 65.646766 
L 84.753405 67.44769 
L 85.18801 66.106576 
L 86.057219 67.256103 
L 86.926429 69.63179 
L 87.361034 71.317762 
L 87.795639 71.164492 
L 88.664848 68.635534 
L 89.099453 69.095345 
L 89.534058 68.827122 
L 90.403268 73.885038 
L 90.837872 73.501863 
L 91.272477 72.352336 
L 91.707082 70.244871 
L 93.010897 60.43558 
L 93.445501 54.113185 
L 93.880106 44.955291 
L 94.314711 38.249721 
L 94.749316 36.487114 
L 95.183921 35.260952 
L 95.618525 34.686189 
L 96.05313 34.532919 
L 96.487735 34.609554 
L 96.92234 35.222635 
L 97.356945 36.410479 
L 97.79155 38.019816 
L 98.226154 36.142256 
L 98.660759 35.644128 
L 99.095364 35.759081 
L 99.529969 37.445053 
L 99.964574 38.019816 
L 100.833783 40.587091 
L 101.702993 44.380528 
L 102.137598 46.717898 
L 102.572203 48.327235 
L 103.006807 51.086099 
L 103.441412 51.430957 
L 104.310622 56.642143 
L 104.745227 59.286053 
L 105.614436 66.298164 
L 106.483646 72.888782 
L 107.787461 79.747622 
L 108.222065 82.506486 
L 109.091275 86.070017 
L 109.52588 89.097103 
L 110.39509 91.894284 
L 111.264299 95.266228 
L 112.568114 99.251253 
L 113.002718 99.366206 
L 113.437323 100.247509 
L 113.871928 100.783955 
L 114.306533 100.554049 
L 114.741138 100.70732 
L 115.175743 100.669002 
L 115.610347 101.703576 
L 116.044952 102.163386 
L 116.479557 101.435353 
L 116.914162 101.780211 
L 117.348767 103.19796 
L 117.783372 102.661514 
L 118.217976 102.89142 
L 118.652581 102.929737 
L 119.521791 101.665258 
L 119.956396 101.397035 
L 120.391 101.626941 
L 120.825605 100.515732 
L 121.26021 97.488646 
L 121.694815 96.262484 
L 122.12942 96.9522 
L 122.564025 97.986774 
L 122.998629 99.596111 
L 123.433234 100.669002 
L 124.737049 106.569904 
L 125.171654 107.41289 
L 125.606258 107.527843 
L 126.040863 106.225046 
L 126.475468 103.5045 
L 127.344678 100.86059 
L 127.779283 100.324144 
L 128.213887 100.439097 
L 128.648492 100.247509 
L 129.083097 98.369949 
L 130.386911 91.166251 
L 130.821516 89.250374 
L 131.256121 88.36907 
L 132.125331 84.46068 
L 132.99454 82.966296 
L 133.429145 80.475656 
L 134.298355 77.410252 
L 134.73296 74.728024 
L 135.602169 72.697194 
L 136.036774 70.819634 
L 136.471379 70.704682 
L 136.905984 70.359824 
L 137.340589 69.248615 
L 137.775193 67.217785 
L 138.209798 67.792548 
L 138.644403 67.945819 
L 139.079008 67.524326 
L 139.513613 68.903757 
L 139.948218 68.022454 
L 140.382822 66.298164 
L 140.817427 65.570131 
L 141.252032 66.451434 
L 141.686637 66.489752 
L 142.121242 67.44769 
L 142.555847 66.298164 
L 142.990451 66.796292 
L 143.425056 66.949562 
L 143.859661 70.168236 
L 144.294266 70.474776 
L 144.728871 69.286933 
L 145.163476 68.482264 
L 145.59808 69.670108 
L 146.032685 70.168236 
L 146.46729 70.014966 
L 146.901895 70.014966 
L 147.3365 69.900013 
L 147.771104 70.474776 
L 148.205709 70.398141 
L 148.640314 71.317762 
L 149.074919 71.241127 
L 149.509524 71.04954 
L 149.944129 71.930843 
L 150.378733 73.425227 
L 150.813338 73.003734 
L 151.247943 72.850464 
L 151.682548 73.770085 
L 152.117153 76.643901 
L 152.551758 77.410252 
L 153.855572 74.038308 
L 154.290177 70.857952 
L 155.159387 61.163613 
L 156.463201 40.548774 
L 156.897806 34.073109 
L 157.332411 33.345075 
L 157.767015 33.000217 
L 158.20162 33.498345 
L 158.636225 33.26844 
L 159.07083 34.226379 
L 159.505435 35.835716 
L 159.94004 36.103938 
L 160.374644 36.678702 
L 161.243854 34.686189 
L 162.113064 36.640384 
L 162.547669 38.058133 
L 162.982273 40.280551 
L 163.416878 41.23849 
L 163.851483 43.192684 
L 164.286088 45.75996 
L 164.720693 47.139391 
L 165.589902 50.894511 
L 166.459112 54.572995 
L 166.893717 57.753351 
L 167.328322 59.860816 
L 167.762926 61.355201 
L 169.501346 75.41774 
L 171.67437 86.913003 
L 172.108975 88.67561 
L 172.54358 89.825137 
L 173.412789 93.503621 
L 173.847394 94.729783 
L 174.281999 95.381181 
L 174.716604 96.530707 
L 175.151208 97.143788 
L 176.020418 99.711063 
L 176.455023 99.826016 
L 176.889628 99.519476 
L 177.324233 100.70732 
L 178.193442 101.205448 
L 178.628047 101.3204 
L 179.497257 102.738149 
L 179.931862 103.04469 
L 180.366466 102.929737 
L 180.801071 103.389548 
L 181.235676 102.929737 
L 181.670281 102.814785 
L 182.53949 101.243765 
L 183.4087 100.592367 
L 183.843305 97.756869 
L 184.27791 97.641916 
L 184.712515 98.025091 
L 185.147119 99.481158 
L 185.581724 99.557793 
L 186.016329 101.971799 
L 186.450934 103.427865 
L 186.885539 105.497013 
L 187.320144 106.454951 
L 187.754748 107.10635 
L 188.189353 106.608222 
L 189.058563 102.853102 
L 189.927773 97.833504 
L 190.796982 96.377437 
L 191.231587 97.143788 
L 191.666192 95.955944 
L 192.970006 89.135421 
L 193.404611 86.989638 
L 194.273821 84.269093 
L 195.14303 74.344849 
L 195.577635 74.383166 
L 196.01224 73.84672 
L 196.446845 77.371935 
L 196.88145 70.398141 
L 197.316055 66.98788 
L 197.750659 64.918732 
L 198.185264 63.922476 
L 199.054474 59.286053 
L 199.489079 56.450555 
L 199.923683 61.891646 
L 200.358288 61.968281 
L 200.792893 59.592594 
L 201.227498 59.822499 
L 201.662103 58.443067 
L 202.096708 57.753351 
L 202.531312 56.105697 
L 202.965917 53.615057 
L 203.400522 53.615057 
L 203.835127 51.545909 
L 204.269732 50.243113 
L 205.138941 53.001976 
L 206.008151 55.952427 
L 206.442756 56.22065 
L 206.877361 57.370176 
L 207.311966 58.174844 
L 208.181175 59.056148 
L 208.61578 58.749608 
L 209.050385 58.902878 
L 209.48499 59.554276 
L 209.919594 59.899134 
L 210.354199 59.707546 
L 211.223409 61.010343 
L 212.092619 60.090722 
L 212.527223 60.473897 
L 212.961828 61.04866 
L 213.831038 61.240248 
L 214.265643 62.044917 
L 214.700248 62.159869 
L 215.134852 61.891646 
L 215.569457 61.163613 
L 216.004062 61.125295 
L 216.873272 59.975769 
L 217.742481 56.488872 
L 218.611691 47.63752 
L 219.480901 35.222635 
L 219.915505 34.034791 
L 220.35011 34.188061 
L 220.784715 33.345075 
L 221.21932 33.996474 
L 221.653925 35.45254 
L 222.08853 35.375905 
L 222.523134 35.759081 
L 222.957739 36.333844 
L 223.392344 35.107682 
L 223.826949 35.031047 
L 224.261554 35.222635 
L 225.130763 38.441309 
L 225.565368 38.977754 
L 225.999973 40.050646 
L 226.434578 42.541286 
L 228.172997 48.825363 
L 230.346021 62.006599 
L 231.215231 68.367311 
L 231.649836 70.628047 
L 232.084441 73.885038 
L 232.95365 79.096224 
L 233.388255 81.893405 
L 234.257465 85.571889 
L 234.692069 86.49151 
L 235.126674 88.024212 
L 235.561279 90.936346 
L 236.430489 93.503621 
L 236.865094 95.266228 
L 237.734303 96.454072 
L 238.168908 97.565281 
L 239.038118 99.021348 
L 239.472723 100.094239 
L 239.907327 100.132556 
L 240.341932 100.362462 
L 240.776537 100.170874 
L 241.211142 100.783955 
L 242.080352 101.090495 
L 242.514956 101.47367 
L 242.949561 101.435353 
L 243.384166 101.588623 
L 243.818771 101.895163 
L 244.68798 100.898907 
L 245.122585 101.205448 
L 245.55719 101.16713 
L 245.991795 100.554049 
L 246.4264 97.067153 
L 246.861005 97.833504 
L 247.295609 98.293314 
L 247.730214 98.369949 
L 248.164819 99.212935 
L 248.599424 100.669002 
L 249.468634 104.845614 
L 249.903238 106.378316 
L 250.337843 106.761492 
L 250.772448 106.646539 
L 251.207053 104.807297 
L 252.076262 97.718551 
L 252.510867 97.526963 
L 253.380077 95.266228 
L 253.814682 96.070897 
L 254.249287 94.844735 
L 254.683891 92.047554 
L 255.118496 90.3999 
L 255.553101 89.710184 
L 255.987706 88.560658 
L 256.422311 85.840112 
L 256.856916 83.8476 
L 257.29152 80.820514 
L 257.726125 79.172859 
L 258.16073 78.176603 
L 259.464545 73.808403 
L 259.899149 71.585985 
L 260.333754 70.091601 
L 260.768359 68.099089 
L 261.202964 64.497239 
L 262.072173 62.083234 
L 262.506778 60.397262 
L 262.941383 59.592594 
L 263.375988 58.174844 
L 263.810593 55.914109 
L 264.245198 55.377664 
L 264.679802 56.872048 
L 265.114407 55.071123 
L 265.549012 52.388895 
L 265.983617 52.00572 
L 266.418222 53.921597 
L 266.852827 53.155246 
L 267.722036 52.887023 
L 268.156641 52.733753 
L 268.591246 53.155246 
L 269.025851 54.841218 
L 269.460455 55.875792 
L 270.329665 56.718778 
L 270.76427 56.37392 
L 271.198875 58.059892 
L 271.63348 57.216906 
L 272.068084 58.174844 
L 272.502689 58.213162 
L 272.937294 58.481385 
L 273.371899 58.902878 
L 273.806504 60.358945 
L 274.241109 60.58885 
L 274.675713 61.355201 
L 275.110318 60.473897 
L 275.544923 61.393518 
L 275.979528 60.320627 
L 276.414133 60.818755 
L 276.848738 62.236504 
L 277.717947 63.615936 
L 279.021762 60.74212 
L 279.456366 59.401006 
L 280.325576 55.224394 
L 282.063995 37.02356 
L 282.4986 34.609554 
L 282.933205 33.153488 
L 283.36781 33.919838 
L 284.23702 34.954412 
L 284.671624 36.295526 
L 285.106229 36.640384 
L 285.540834 38.058133 
L 285.975439 34.839459 
L 286.410044 34.686189 
L 286.844648 35.107682 
L 287.279253 35.184317 
L 287.713858 36.027303 
L 288.148463 38.479626 
L 288.583068 40.088963 
L 289.017673 41.085219 
L 289.452277 42.388016 
L 289.886882 44.073988 
L 290.321487 45.223514 
L 291.190697 53.500104 
L 291.625302 53.270199 
L 292.059906 54.458043 
L 296.405955 82.353215 
L 297.709769 86.951321 
L 299.013584 93.082128 
L 299.448188 93.925114 
L 300.317398 96.070897 
L 301.186608 97.373693 
L 302.055817 100.094239 
L 302.490422 100.324144 
L 302.925027 101.01386 
L 303.359632 102.010116 
L 303.794237 102.431609 
L 304.228841 102.431609 
L 304.663446 102.776467 
L 305.098051 102.968055 
L 305.967261 104.347486 
L 306.401866 103.581135 
L 306.83647 103.619453 
L 307.271075 102.776467 
L 307.70568 102.508244 
L 308.140285 101.933481 
L 308.57489 100.630684 
L 309.009495 97.488646 
L 309.878704 98.82976 
L 310.313309 98.408267 
L 310.747914 98.484902 
L 311.182519 99.979286 
L 312.486333 106.263364 
L 312.920938 107.10635 
L 313.790148 105.956823 
L 314.659357 100.515732 
L 315.093962 98.67649 
L 315.528567 98.254997 
L 315.963172 99.021348 
L 316.832381 97.871821 
L 318.136196 91.319521 
L 319.005406 84.575633 
L 319.44001 82.621438 
L 319.874615 79.517717 
L 320.743825 75.839233 
L 321.613034 73.38691 
L 322.047639 71.585985 
L 322.482244 71.50935 
L 322.916849 71.624303 
L 323.351454 68.520582 
L 323.786059 67.102833 
L 324.220663 66.336482 
L 324.655268 64.497239 
L 325.089873 64.573875 
L 325.524478 62.887903 
L 325.959083 61.968281 
L 326.393688 61.661741 
L 326.828292 62.389774 
L 327.262897 64.190699 
L 328.132107 64.229017 
L 328.566712 65.914989 
L 329.001317 66.719657 
L 329.435921 66.68134 
L 329.870526 67.29442 
L 330.305131 66.336482 
L 330.739736 64.037429 
L 331.174341 64.65051 
L 331.608945 64.842097 
L 332.04355 64.80378 
L 332.478155 66.183211 
L 332.91276 65.493496 
L 333.347365 66.83461 
L 333.78197 67.754231 
L 334.216574 68.405629 
L 334.651179 69.286933 
L 335.085784 69.286933 
L 335.954994 68.405629 
L 336.389599 69.286933 
L 336.824203 69.785061 
L 337.258808 70.666364 
L 337.693413 70.781317 
L 338.128018 71.471033 
L 338.562623 71.20281 
L 338.997227 70.704682 
L 339.431832 70.896269 
L 339.866437 72.045796 
L 340.301042 74.191578 
L 340.735647 74.306531 
L 341.604856 73.118687 
L 342.039461 72.237384 
L 342.474066 70.742999 
L 342.908671 70.819634 
L 343.777881 60.665485 
L 345.081695 37.943181 
L 345.5163 37.3301 
L 345.950905 37.100195 
L 346.820114 38.517944 
L 347.254719 39.5142 
L 347.689324 39.552518 
L 348.123929 40.702044 
L 348.993138 36.678702 
L 350.731558 40.702044 
L 351.166163 41.353442 
L 351.600767 42.541286 
L 352.035372 43.077732 
L 353.339187 47.024439 
L 354.208396 50.396383 
L 354.643001 54.266455 
L 355.077606 55.799157 
L 359.858259 84.882173 
L 360.292864 86.874686 
L 360.727469 88.254117 
L 361.596678 93.005493 
L 362.465888 96.032579 
L 363.335098 97.871821 
L 363.769703 98.408267 
L 364.204307 99.672746 
L 364.638912 100.170874 
L 365.073517 101.090495 
L 365.942727 100.898907 
L 366.377331 101.818528 
L 366.811936 101.358718 
L 367.246541 101.397035 
L 368.115751 102.393292 
L 369.419565 100.86059 
L 370.288775 100.094239 
L 370.72338 100.094239 
L 371.157985 98.82976 
L 371.592589 95.611086 
L 372.461799 98.293314 
L 372.896404 98.52322 
L 373.331009 99.327888 
L 374.200218 103.964311 
L 374.634823 105.53533 
L 375.504033 110.095118 
L 375.938638 110.708199 
L 376.373242 110.095118 
L 377.242452 107.949336 
L 377.677057 105.07552 
L 378.111662 104.309169 
L 378.546267 103.274595 
L 378.980871 102.89142 
L 379.415476 101.282083 
L 380.284686 96.454072 
L 381.153896 90.744758 
L 381.5885 89.786819 
L 382.45771 84.192458 
L 382.892315 82.084993 
L 383.32692 81.855087 
L 383.761524 79.709305 
L 384.196129 78.329873 
L 385.065339 74.191578 
L 385.934549 71.471033 
L 386.369153 70.666364 
L 386.803758 68.597217 
L 387.672968 66.144894 
L 388.107573 65.455178 
L 388.542178 65.531813 
L 389.411387 64.458922 
L 389.845992 65.531813 
L 390.280597 65.761718 
L 390.715202 64.688827 
L 391.584411 64.420604 
L 392.019016 63.884159 
L 392.453621 62.159869 
L 392.888226 62.389774 
L 393.322831 62.159869 
L 393.757435 62.696315 
L 394.19204 62.887903 
L 394.626645 62.734632 
L 395.06125 63.769206 
L 395.495855 64.267334 
L 395.93046 65.876671 
L 396.365064 66.68134 
L 396.799669 68.520582 
L 397.234274 68.520582 
L 397.668879 68.712169 
L 398.103484 68.443947 
L 398.538089 68.942075 
L 398.972693 70.283189 
L 399.407298 72.122431 
L 399.841903 73.463545 
L 400.276508 74.344849 
L 400.711113 74.728024 
L 401.145717 74.421484 
L 401.580322 74.842977 
L 402.014927 74.306531 
L 402.449532 75.26447 
L 402.884137 76.605584 
L 403.318742 76.107456 
L 403.753346 76.337361 
L 404.187951 75.839233 
L 404.622556 75.034564 
L 405.926371 69.746743 
L 406.360975 65.072003 
L 407.230185 46.794534 
L 407.66479 42.273063 
L 408.099395 39.399247 
L 408.968604 38.901119 
L 409.403209 38.977754 
L 409.837814 38.364674 
L 410.272419 38.479626 
L 410.707024 40.012328 
L 411.141628 40.050646 
L 411.576233 39.744105 
L 412.010838 39.859058 
L 412.445443 39.744105 
L 412.880048 40.242233 
L 413.314653 42.158111 
L 413.749257 43.460907 
L 414.183862 43.614177 
L 414.618467 44.380528 
L 415.053072 46.526311 
L 415.487677 46.909486 
L 416.356886 49.438444 
L 416.791491 52.31226 
L 417.226096 53.308516 
L 417.660701 53.998232 
L 419.39912 63.845841 
L 420.26833 70.742999 
L 422.441354 83.387789 
L 423.310564 87.257861 
L 423.745168 88.598975 
L 424.179773 90.591488 
L 424.614378 92.009237 
L 425.048983 93.848479 
L 425.483588 97.028835 
L 425.918193 96.875565 
L 426.352797 97.220423 
L 426.787402 98.67649 
L 427.222007 98.67649 
L 427.656612 99.634428 
L 428.960426 101.052177 
L 429.395031 101.588623 
L 429.829636 101.550306 
L 430.264241 101.895163 
L 431.13345 103.312913 
L 431.568055 103.5045 
L 432.00266 102.853102 
L 432.437265 101.933481 
L 432.87187 102.125069 
L 433.306475 101.741893 
L 433.741079 100.592367 
L 434.175684 97.833504 
L 434.610289 99.481158 
L 435.479499 100.400779 
L 435.914103 101.665258 
L 437.217918 109.405402 
L 437.652523 112.662394 
L 438.087128 113.313792 
L 438.521732 114.578271 
L 438.956337 113.735285 
L 439.390942 113.543697 
L 439.825547 112.815664 
L 440.260152 112.853981 
L 440.694757 111.47455 
L 441.129361 110.784834 
L 441.563966 109.865213 
L 442.433176 107.182985 
L 442.867781 106.071776 
L 445.47541 93.426986 
L 445.910014 87.794307 
L 446.344619 84.613951 
L 446.779224 84.767221 
L 447.213829 83.042931 
L 448.517643 75.72428 
L 448.952248 73.54018 
L 449.386853 72.965417 
L 450.256063 70.628047 
L 450.690668 70.206554 
L 451.125272 70.666364 
L 451.559877 73.118687 
L 451.994482 73.885038 
L 452.429087 72.543924 
L 452.863692 72.045796 
L 453.298296 71.20281 
L 453.732901 70.628047 
L 454.167506 70.244871 
L 454.602111 70.283189 
L 455.036716 69.47852 
L 455.471321 70.283189 
L 455.905925 69.861696 
L 456.34053 69.708426 
L 456.775135 70.781317 
L 457.644345 71.585985 
L 458.07895 71.279445 
L 458.513554 71.892526 
L 458.948159 72.965417 
L 459.382764 74.383166 
L 460.251974 76.184091 
L 460.686579 76.490631 
L 461.121183 76.567266 
L 462.424998 78.368191 
L 462.859603 80.437338 
L 463.294207 80.130798 
L 463.728812 79.517717 
L 464.598022 79.862575 
L 465.032627 81.050419 
L 465.467232 81.050419 
L 466.771046 82.659756 
L 467.205651 82.046675 
L 467.640256 81.012101 
L 468.509465 77.985015 
L 468.94407 73.961673 
L 470.247885 48.595458 
L 470.682489 45.874913 
L 471.117094 43.997353 
L 471.551699 43.192684 
L 471.986304 41.928205 
L 472.420909 41.621665 
L 472.855514 42.234746 
L 473.290118 41.736618 
L 473.724723 41.659983 
L 474.159328 40.357186 
L 474.593933 39.705788 
L 475.028538 39.66747 
L 475.463143 39.935693 
L 475.897747 41.659983 
L 476.766957 42.502969 
L 477.201562 43.384272 
L 477.636167 45.108562 
L 478.070772 45.530055 
L 478.505376 47.024439 
L 478.939981 49.285174 
L 479.374586 50.817876 
L 479.809191 54.266455 
L 480.6784 59.209418 
L 481.113005 61.929964 
L 481.54761 66.029941 
L 483.286029 78.176603 
L 483.286029 78.176603 
" clip-path="url(#pf03a451f61)" style="fill: none; stroke: #5b5b5b; stroke-width: 1.2; stroke-linecap: square"/>
   </g>
   <g id="patch_3">
    <path d="M 38.7625 126.266719 
L 38.7625 32.468561 
" style="fill: none; stroke: #cccccc; stroke-width: 0.75; stroke-linejoin: miter; stroke-linecap: square"/>
   </g>
   <g id="patch_4">
    <path d="M 45.638971 131.266719 
L 483.720634 131.266719 
" style="fill: none; stroke: #cccccc; stroke-width: 0.75; stroke-linejoin: miter; stroke-linecap: square"/>
   </g>
   <g id="text_13">
    <!-- Weekly data (March, week #11) -->
    <g style="fill: #505050" transform="translate(41.2625 14.246719) scale(0.09 -0.09)">
     <defs>
      <path id="Ubuntu-Bold-57" d="M 3488 3962 
Q 3565 3699 3657 3369 
Q 3750 3040 3856 2688 
Q 3962 2336 4070 1984 
Q 4179 1632 4282 1331 
Q 4365 1658 4451 2042 
Q 4538 2426 4614 2835 
Q 4691 3245 4764 3651 
Q 4838 4058 4902 4435 
L 5939 4435 
Q 5715 3322 5424 2176 
Q 5133 1030 4794 0 
L 3878 0 
Q 3654 614 3443 1289 
Q 3232 1965 3027 2643 
Q 2822 1965 2617 1289 
Q 2413 614 2189 0 
L 1274 0 
Q 934 1030 643 2176 
Q 352 3322 128 4435 
L 1210 4435 
Q 1274 4058 1350 3651 
Q 1427 3245 1510 2835 
Q 1594 2426 1680 2042 
Q 1766 1658 1856 1331 
Q 1971 1645 2080 1997 
Q 2189 2349 2291 2701 
Q 2394 3053 2480 3379 
Q 2566 3706 2637 3962 
L 3488 3962 
z
" transform="scale(0.015625)"/>
      <path id="Ubuntu-Bold-65" d="M 288 1658 
Q 288 2106 425 2442 
Q 563 2778 787 3002 
Q 1011 3226 1302 3341 
Q 1594 3456 1901 3456 
Q 2618 3456 3034 3017 
Q 3450 2579 3450 1728 
Q 3450 1645 3443 1545 
Q 3437 1446 3430 1370 
L 1267 1370 
Q 1299 1075 1542 902 
Q 1786 730 2195 730 
Q 2458 730 2710 778 
Q 2963 826 3123 896 
L 3251 122 
Q 3174 83 3046 44 
Q 2918 6 2761 -22 
Q 2605 -51 2425 -70 
Q 2246 -90 2067 -90 
Q 1613 -90 1277 44 
Q 941 179 720 412 
Q 499 646 393 966 
Q 288 1286 288 1658 
z
M 2528 2022 
Q 2522 2144 2486 2259 
Q 2451 2374 2377 2464 
Q 2304 2554 2192 2611 
Q 2080 2669 1914 2669 
Q 1754 2669 1638 2614 
Q 1523 2560 1446 2470 
Q 1370 2381 1328 2262 
Q 1286 2144 1267 2022 
L 2528 2022 
z
" transform="scale(0.015625)"/>
      <path id="Ubuntu-Bold-6b" d="M 1402 2150 
Q 1542 2304 1692 2470 
Q 1843 2637 1984 2800 
Q 2125 2963 2249 3110 
Q 2374 3258 2464 3366 
L 3597 3366 
Q 3258 2976 2934 2621 
Q 2611 2266 2227 1888 
Q 2419 1715 2624 1475 
Q 2829 1235 3021 979 
Q 3213 723 3373 467 
Q 3533 211 3642 0 
L 2547 0 
Q 2445 166 2313 368 
Q 2182 570 2035 771 
Q 1888 973 1725 1158 
Q 1562 1344 1402 1472 
L 1402 0 
L 448 0 
L 448 4813 
L 1402 4966 
L 1402 2150 
z
" transform="scale(0.015625)"/>
      <path id="Ubuntu-Bold-6c" d="M 1792 -64 
Q 1376 -58 1117 25 
Q 858 109 707 259 
Q 557 410 502 624 
Q 448 838 448 1107 
L 448 4813 
L 1402 4966 
L 1402 1299 
Q 1402 1171 1421 1068 
Q 1440 966 1494 896 
Q 1549 826 1651 781 
Q 1754 736 1926 723 
L 1792 -64 
z
" transform="scale(0.015625)"/>
      <path id="Ubuntu-Bold-79" d="M 3437 3366 
Q 3149 2394 2835 1542 
Q 2522 691 2150 -109 
Q 2016 -397 1881 -598 
Q 1747 -800 1587 -931 
Q 1427 -1062 1225 -1123 
Q 1024 -1184 755 -1184 
Q 531 -1184 342 -1142 
Q 154 -1101 32 -1050 
L 198 -288 
Q 346 -339 461 -358 
Q 576 -378 704 -378 
Q 960 -378 1097 -240 
Q 1235 -102 1331 141 
Q 1005 781 678 1577 
Q 352 2374 64 3366 
L 1075 3366 
Q 1139 3117 1225 2825 
Q 1312 2534 1408 2236 
Q 1504 1939 1603 1657 
Q 1702 1376 1792 1146 
Q 1875 1376 1964 1657 
Q 2054 1939 2140 2236 
Q 2227 2534 2307 2825 
Q 2387 3117 2451 3366 
L 3437 3366 
z
" transform="scale(0.015625)"/>
      <path id="Ubuntu-Bold-20" transform="scale(0.015625)"/>
      <path id="Ubuntu-Bold-64" d="M 1261 1709 
Q 1261 1267 1459 998 
Q 1658 730 2048 730 
Q 2176 730 2285 739 
Q 2394 749 2464 762 
L 2464 2496 
Q 2374 2554 2230 2592 
Q 2086 2630 1939 2630 
Q 1261 2630 1261 1709 
z
M 3418 109 
Q 3290 70 3123 35 
Q 2957 0 2774 -25 
Q 2592 -51 2403 -67 
Q 2214 -83 2042 -83 
Q 1626 -83 1299 38 
Q 973 160 749 387 
Q 525 614 406 937 
Q 288 1261 288 1664 
Q 288 2074 390 2403 
Q 493 2733 685 2963 
Q 877 3194 1155 3315 
Q 1434 3437 1792 3437 
Q 1990 3437 2147 3398 
Q 2304 3360 2464 3290 
L 2464 4813 
L 3418 4966 
L 3418 109 
z
" transform="scale(0.015625)"/>
      <path id="Ubuntu-Bold-61" d="M 1734 666 
Q 1875 666 2003 672 
Q 2131 678 2208 691 
L 2208 1414 
Q 2150 1427 2035 1440 
Q 1920 1453 1824 1453 
Q 1690 1453 1571 1437 
Q 1453 1421 1363 1376 
Q 1274 1331 1222 1254 
Q 1171 1178 1171 1062 
Q 1171 838 1321 752 
Q 1472 666 1734 666 
z
M 1658 3456 
Q 2080 3456 2361 3360 
Q 2643 3264 2812 3085 
Q 2982 2906 3052 2650 
Q 3123 2394 3123 2080 
L 3123 96 
Q 2918 51 2553 -9 
Q 2189 -70 1670 -70 
Q 1344 -70 1078 -12 
Q 813 45 621 176 
Q 429 307 326 518 
Q 224 730 224 1037 
Q 224 1331 342 1536 
Q 461 1741 659 1862 
Q 858 1984 1114 2038 
Q 1370 2093 1645 2093 
Q 1830 2093 1974 2077 
Q 2118 2061 2208 2035 
L 2208 2125 
Q 2208 2368 2061 2515 
Q 1914 2662 1549 2662 
Q 1306 2662 1069 2627 
Q 832 2592 659 2528 
L 538 3296 
Q 621 3322 745 3350 
Q 870 3379 1017 3401 
Q 1165 3424 1328 3440 
Q 1491 3456 1658 3456 
z
" transform="scale(0.015625)"/>
      <path id="Ubuntu-Bold-74" d="M 416 4205 
L 1370 4358 
L 1370 3366 
L 2515 3366 
L 2515 2573 
L 1370 2573 
L 1370 1389 
Q 1370 1088 1475 909 
Q 1581 730 1901 730 
Q 2054 730 2217 758 
Q 2381 787 2515 838 
L 2650 96 
Q 2477 26 2265 -25 
Q 2054 -77 1747 -77 
Q 1357 -77 1101 28 
Q 845 134 691 323 
Q 538 512 477 781 
Q 416 1050 416 1376 
L 416 4205 
z
" transform="scale(0.015625)"/>
      <path id="Ubuntu-Bold-28" d="M 1389 1914 
Q 1389 1158 1625 473 
Q 1862 -211 2246 -755 
L 1581 -1184 
Q 1037 -550 742 237 
Q 448 1024 448 1914 
Q 448 2803 742 3590 
Q 1037 4378 1581 5011 
L 2246 4582 
Q 1862 4038 1625 3353 
Q 1389 2669 1389 1914 
z
" transform="scale(0.015625)"/>
      <path id="Ubuntu-Bold-4d" d="M 1690 4435 
Q 1805 4224 1955 3913 
Q 2106 3603 2269 3241 
Q 2432 2880 2592 2502 
Q 2752 2125 2893 1792 
Q 3034 2125 3194 2502 
Q 3354 2880 3517 3241 
Q 3680 3603 3830 3913 
Q 3981 4224 4096 4435 
L 5005 4435 
Q 5069 3994 5123 3446 
Q 5178 2899 5219 2307 
Q 5261 1715 5296 1120 
Q 5331 525 5357 0 
L 4384 0 
Q 4365 646 4333 1408 
Q 4301 2170 4237 2944 
Q 4122 2675 3981 2348 
Q 3840 2022 3702 1696 
Q 3565 1370 3437 1072 
Q 3309 774 3219 563 
L 2522 563 
Q 2432 774 2304 1072 
Q 2176 1370 2038 1696 
Q 1901 2022 1760 2348 
Q 1619 2675 1504 2944 
Q 1440 2170 1408 1408 
Q 1376 646 1357 0 
L 384 0 
Q 410 525 445 1120 
Q 480 1715 521 2307 
Q 563 2899 617 3446 
Q 672 3994 736 4435 
L 1690 4435 
z
" transform="scale(0.015625)"/>
      <path id="Ubuntu-Bold-72" d="M 2477 2522 
Q 2349 2554 2176 2589 
Q 2003 2624 1805 2624 
Q 1715 2624 1590 2608 
Q 1466 2592 1402 2573 
L 1402 0 
L 448 0 
L 448 3187 
Q 704 3277 1053 3357 
Q 1402 3437 1830 3437 
Q 1907 3437 2016 3427 
Q 2125 3418 2233 3402 
Q 2342 3386 2451 3363 
Q 2560 3341 2637 3309 
L 2477 2522 
z
" transform="scale(0.015625)"/>
      <path id="Ubuntu-Bold-63" d="M 288 1683 
Q 288 2048 406 2371 
Q 525 2694 749 2934 
Q 973 3174 1293 3315 
Q 1613 3456 2022 3456 
Q 2291 3456 2515 3408 
Q 2739 3360 2950 3270 
L 2752 2509 
Q 2618 2560 2458 2598 
Q 2298 2637 2099 2637 
Q 1677 2637 1469 2374 
Q 1261 2112 1261 1683 
Q 1261 1229 1456 979 
Q 1651 730 2138 730 
Q 2310 730 2508 762 
Q 2707 794 2874 864 
L 3008 83 
Q 2842 13 2592 -38 
Q 2342 -90 2042 -90 
Q 1581 -90 1248 48 
Q 915 186 700 422 
Q 486 659 387 982 
Q 288 1306 288 1683 
z
" transform="scale(0.015625)"/>
      <path id="Ubuntu-Bold-68" d="M 448 0 
L 448 4813 
L 1402 4966 
L 1402 3354 
Q 1498 3386 1648 3414 
Q 1798 3443 1939 3443 
Q 2349 3443 2621 3331 
Q 2893 3219 3056 3014 
Q 3219 2810 3286 2528 
Q 3354 2246 3354 1901 
L 3354 0 
L 2400 0 
L 2400 1786 
Q 2400 2246 2281 2438 
Q 2163 2630 1843 2630 
Q 1715 2630 1603 2608 
Q 1491 2586 1402 2560 
L 1402 0 
L 448 0 
z
" transform="scale(0.015625)"/>
      <path id="Ubuntu-Bold-2c" d="M 1350 973 
Q 1363 819 1366 755 
Q 1370 691 1370 646 
Q 1370 454 1334 240 
Q 1299 26 1235 -192 
Q 1171 -410 1075 -627 
Q 979 -845 858 -1043 
L 109 -858 
Q 256 -435 313 -64 
Q 371 307 371 550 
Q 371 589 368 649 
Q 365 710 361 774 
Q 358 838 355 896 
Q 352 954 352 973 
L 1350 973 
z
" transform="scale(0.015625)"/>
      <path id="Ubuntu-Bold-77" d="M 2496 1933 
Q 2368 1446 2224 966 
Q 2080 486 1920 0 
L 1178 0 
Q 1062 269 928 640 
Q 794 1011 650 1449 
Q 506 1888 355 2377 
Q 205 2867 64 3366 
L 1069 3366 
Q 1120 3136 1181 2864 
Q 1242 2592 1309 2304 
Q 1376 2016 1449 1725 
Q 1523 1434 1600 1165 
Q 1683 1446 1763 1740 
Q 1843 2035 1916 2320 
Q 1990 2605 2057 2870 
Q 2125 3136 2176 3366 
L 2867 3366 
Q 2918 3136 2982 2870 
Q 3046 2605 3116 2320 
Q 3187 2035 3264 1740 
Q 3341 1446 3424 1165 
Q 3501 1434 3577 1725 
Q 3654 2016 3721 2304 
Q 3789 2592 3849 2864 
Q 3910 3136 3962 3366 
L 4954 3366 
Q 4813 2867 4662 2377 
Q 4512 1888 4368 1449 
Q 4224 1011 4086 640 
Q 3949 269 3834 0 
L 3091 0 
Q 2931 486 2777 966 
Q 2624 1446 2496 1933 
z
" transform="scale(0.015625)"/>
      <path id="Ubuntu-Bold-23" d="M 2080 3347 
L 2822 3347 
L 3034 4435 
L 3866 4435 
L 3654 3347 
L 4122 3347 
L 4122 2611 
L 3514 2611 
L 3360 1824 
L 4122 1824 
L 4122 1088 
L 3219 1088 
L 3014 0 
L 2182 0 
L 2387 1088 
L 1645 1088 
L 1440 0 
L 608 0 
L 813 1088 
L 352 1088 
L 352 1824 
L 954 1824 
L 1107 2611 
L 352 2611 
L 352 3347 
L 1248 3347 
L 1459 4435 
L 2291 4435 
L 2080 3347 
z
M 1786 1824 
L 2528 1824 
L 2682 2611 
L 1939 2611 
L 1786 1824 
z
" transform="scale(0.015625)"/>
      <path id="Ubuntu-Bold-31" d="M 448 3514 
Q 634 3590 835 3689 
Q 1037 3789 1229 3907 
Q 1421 4026 1597 4157 
Q 1773 4288 1914 4435 
L 2579 4435 
L 2579 0 
L 1626 0 
L 1626 3194 
Q 1434 3066 1197 2960 
Q 960 2854 736 2778 
L 448 3514 
z
" transform="scale(0.015625)"/>
      <path id="Ubuntu-Bold-29" d="M 890 1914 
Q 890 2669 653 3353 
Q 416 4038 32 4582 
L 698 5011 
Q 1242 4378 1536 3590 
Q 1830 2803 1830 1914 
Q 1830 1024 1536 237 
Q 1242 -550 698 -1184 
L 32 -755 
Q 416 -211 653 473 
Q 890 1158 890 1914 
z
" transform="scale(0.015625)"/>
     </defs>
     <use xlink:href="#Ubuntu-Bold-57"/>
     <use xlink:href="#Ubuntu-Bold-65" x="91.549988"/>
     <use xlink:href="#Ubuntu-Bold-65" x="149.949982"/>
     <use xlink:href="#Ubuntu-Bold-6b" x="208.349976"/>
     <use xlink:href="#Ubuntu-Bold-6c" x="266.249969"/>
     <use xlink:href="#Ubuntu-Bold-79" x="296.72496"/>
     <use xlink:href="#Ubuntu-Bold-20" x="351.424957"/>
     <use xlink:href="#Ubuntu-Bold-64" x="375.424942"/>
     <use xlink:href="#Ubuntu-Bold-61" x="435.824936"/>
     <use xlink:href="#Ubuntu-Bold-74" x="491.124924"/>
     <use xlink:href="#Ubuntu-Bold-61" x="533.524918"/>
     <use xlink:href="#Ubuntu-Bold-20" x="588.824905"/>
     <use xlink:href="#Ubuntu-Bold-28" x="612.82489"/>
     <use xlink:href="#Ubuntu-Bold-4d" x="648.424881"/>
     <use xlink:href="#Ubuntu-Bold-61" x="738.124863"/>
     <use xlink:href="#Ubuntu-Bold-72" x="793.42485"/>
     <use xlink:href="#Ubuntu-Bold-63" x="834.624847"/>
     <use xlink:href="#Ubuntu-Bold-68" x="884.624832"/>
     <use xlink:href="#Ubuntu-Bold-2c" x="943.524826"/>
     <use xlink:href="#Ubuntu-Bold-20" x="968.124817"/>
     <use xlink:href="#Ubuntu-Bold-77" x="992.124802"/>
     <use xlink:href="#Ubuntu-Bold-65" x="1069.274796"/>
     <use xlink:href="#Ubuntu-Bold-65" x="1127.674789"/>
     <use xlink:href="#Ubuntu-Bold-6b" x="1186.074783"/>
     <use xlink:href="#Ubuntu-Bold-20" x="1243.974777"/>
     <use xlink:href="#Ubuntu-Bold-23" x="1267.974762"/>
     <use xlink:href="#Ubuntu-Bold-31" x="1337.874756"/>
     <use xlink:href="#Ubuntu-Bold-31" x="1394.674744"/>
     <use xlink:href="#Ubuntu-Bold-29" x="1451.474731"/>
    </g>
   </g>
  </g>
 </g>
 <defs>
  <clipPath id="pf03a451f61">
   <rect x="41.2625" y="29.246719" width="446.4" height="97.02"/>
  </clipPath>
 </defs>
</svg>
