<?xml version="1.0" encoding="utf-8" standalone="no"?>
<!DOCTYPE svg PUBLIC "-//W3C//DTD SVG 1.1//EN"
  "http://www.w3.org/Graphics/SVG/1.1/DTD/svg11.dtd">
<svg xmlns:xlink="http://www.w3.org/1999/xlink" width="527.395717pt" height="165.055pt" viewBox="0 0 527.395717 165.055" xmlns="http://www.w3.org/2000/svg" version="1.1">
 <metadata>
  <rdf:RDF xmlns:dc="http://purl.org/dc/elements/1.1/" xmlns:cc="http://creativecommons.org/ns#" xmlns:rdf="http://www.w3.org/1999/02/22-rdf-syntax-ns#">
   <cc:Work>
    <dc:type rdf:resource="http://purl.org/dc/dcmitype/StillImage"/>
    <dc:date>2024-07-09T12:03:06.694087</dc:date>
    <dc:format>image/svg+xml</dc:format>
    <dc:creator>
     <cc:Agent>
      <dc:title>Matplotlib v3.8.3, https://matplotlib.org/</dc:title>
     </cc:Agent>
    </dc:creator>
   </cc:Work>
  </rdf:RDF>
 </metadata>
 <defs>
  <style type="text/css">*{stroke-linejoin: round; stroke-linecap: butt}</style>
 </defs>
 <g id="figure_1">
  <g id="patch_1">
   <path d="M 0 165.055 
L 527.395717 165.055 
L 527.395717 0 
L 0 0 
L 0 165.055 
z
" style="fill: none"/>
  </g>
  <g id="axes_1">
   <g id="patch_2">
    <path d="M 66.890938 136.1675 
L 513.290937 136.1675 
L 513.290937 25.2875 
L 66.890938 25.2875 
L 66.890938 136.1675 
z
" style="fill: none"/>
   </g>
   <g id="line2d_1">
    <path d="M 133.788416 136.1675 
L 133.788416 29.578736 
" clip-path="url(#pbb9c12a459)" style="fill: none; stroke-dasharray: 0.5,0.825; stroke-dashoffset: 0; stroke: #d9d9d9; stroke-width: 0.5"/>
   </g>
   <g id="line2d_2">
    <path d="M 196.309425 136.1675 
L 196.309425 29.578736 
" clip-path="url(#pbb9c12a459)" style="fill: none; stroke-dasharray: 0.5,0.825; stroke-dashoffset: 0; stroke: #d9d9d9; stroke-width: 0.5"/>
   </g>
   <g id="line2d_3">
    <path d="M 258.830433 136.1675 
L 258.830433 29.578736 
" clip-path="url(#pbb9c12a459)" style="fill: none; stroke-dasharray: 0.5,0.825; stroke-dashoffset: 0; stroke: #d9d9d9; stroke-width: 0.5"/>
   </g>
   <g id="line2d_4">
    <path d="M 321.351442 136.1675 
L 321.351442 29.578736 
" clip-path="url(#pbb9c12a459)" style="fill: none; stroke-dasharray: 0.5,0.825; stroke-dashoffset: 0; stroke: #d9d9d9; stroke-width: 0.5"/>
   </g>
   <g id="line2d_5">
    <path d="M 383.87245 136.1675 
L 383.87245 29.578736 
" clip-path="url(#pbb9c12a459)" style="fill: none; stroke-dasharray: 0.5,0.825; stroke-dashoffset: 0; stroke: #d9d9d9; stroke-width: 0.5"/>
   </g>
   <g id="line2d_6">
    <path d="M 446.393459 136.1675 
L 446.393459 29.578736 
" clip-path="url(#pbb9c12a459)" style="fill: none; stroke-dasharray: 0.5,0.825; stroke-dashoffset: 0; stroke: #d9d9d9; stroke-width: 0.5"/>
   </g>
   <g id="line2d_7">
    <path d="M 71.267408 114.849747 
L 508.914467 114.849747 
" clip-path="url(#pbb9c12a459)" style="fill: none; stroke-dasharray: 0.5,0.825; stroke-dashoffset: 0; stroke: #d9d9d9; stroke-width: 0.5"/>
   </g>
   <g id="line2d_8">
    <path d="M 71.267408 93.531994 
L 508.914467 93.531994 
" clip-path="url(#pbb9c12a459)" style="fill: none; stroke-dasharray: 0.5,0.825; stroke-dashoffset: 0; stroke: #d9d9d9; stroke-width: 0.5"/>
   </g>
   <g id="line2d_9">
    <path d="M 71.267408 72.214242 
L 508.914467 72.214242 
" clip-path="url(#pbb9c12a459)" style="fill: none; stroke-dasharray: 0.5,0.825; stroke-dashoffset: 0; stroke: #d9d9d9; stroke-width: 0.5"/>
   </g>
   <g id="line2d_10">
    <path d="M 71.267408 50.896489 
L 508.914467 50.896489 
" clip-path="url(#pbb9c12a459)" style="fill: none; stroke-dasharray: 0.5,0.825; stroke-dashoffset: 0; stroke: #d9d9d9; stroke-width: 0.5"/>
   </g>
   <g id="matplotlib.axis_1">
    <g id="xtick_1">
     <g id="line2d_11">
      <defs>
       <path id="m176120cda7" d="M 0 0 
L 0 3 
" style="stroke: #cecece; stroke-width: 0.75"/>
      </defs>
      <g>
       <use xlink:href="#m176120cda7" x="71.267408" y="141.1675" style="fill: #cecece; stroke: #cecece; stroke-width: 0.75"/>
      </g>
     </g>
     <g id="text_1">
      <!-- −15000 -->
      <g style="fill: #808080" transform="translate(57.729908 156.375) scale(0.08 -0.08)">
       <defs>
        <path id="Ubuntu-Regular-2212" d="M 339 2138 
L 3270 2138 
L 3270 1632 
L 339 1632 
L 339 2138 
z
" transform="scale(0.015625)"/>
        <path id="Ubuntu-Regular-31" d="M 595 3520 
Q 960 3661 1305 3881 
Q 1651 4102 1939 4435 
L 2362 4435 
L 2362 0 
L 1766 0 
L 1766 3610 
Q 1690 3539 1578 3462 
Q 1466 3386 1334 3315 
Q 1203 3245 1059 3181 
Q 915 3117 781 3072 
L 595 3520 
z
" transform="scale(0.015625)"/>
        <path id="Ubuntu-Regular-35" d="M 1274 2726 
Q 2240 2688 2691 2304 
Q 3142 1920 3142 1261 
Q 3142 966 3043 716 
Q 2944 467 2742 288 
Q 2541 109 2233 6 
Q 1926 -96 1504 -96 
Q 1338 -96 1165 -70 
Q 992 -45 845 -6 
Q 698 32 582 70 
Q 467 109 416 134 
L 531 653 
Q 640 602 886 518 
Q 1133 435 1491 435 
Q 1779 435 1974 499 
Q 2170 563 2291 672 
Q 2413 781 2467 925 
Q 2522 1069 2522 1229 
Q 2522 1472 2438 1661 
Q 2355 1850 2144 1978 
Q 1933 2106 1581 2173 
Q 1229 2240 691 2240 
Q 730 2554 752 2829 
Q 774 3104 793 3366 
Q 813 3629 825 3888 
Q 838 4147 851 4435 
L 2989 4435 
L 2989 3930 
L 1370 3930 
Q 1363 3834 1350 3670 
Q 1338 3507 1325 3331 
Q 1312 3155 1299 2988 
Q 1286 2822 1274 2726 
z
" transform="scale(0.015625)"/>
        <path id="Ubuntu-Regular-30" d="M 320 2221 
Q 320 3334 713 3936 
Q 1107 4538 1805 4538 
Q 2502 4538 2896 3936 
Q 3290 3334 3290 2221 
Q 3290 1107 2896 505 
Q 2502 -96 1805 -96 
Q 1107 -96 713 505 
Q 320 1107 320 2221 
z
M 2662 2221 
Q 2662 2586 2620 2912 
Q 2579 3238 2480 3481 
Q 2381 3725 2214 3869 
Q 2048 4013 1805 4013 
Q 1562 4013 1395 3869 
Q 1229 3725 1129 3481 
Q 1030 3238 988 2912 
Q 947 2586 947 2221 
Q 947 1856 988 1529 
Q 1030 1203 1129 960 
Q 1229 717 1395 573 
Q 1562 429 1805 429 
Q 2048 429 2214 573 
Q 2381 717 2480 960 
Q 2579 1203 2620 1529 
Q 2662 1856 2662 2221 
z
" transform="scale(0.015625)"/>
       </defs>
       <use xlink:href="#Ubuntu-Regular-2212"/>
       <use xlink:href="#Ubuntu-Regular-31" x="56.399994"/>
       <use xlink:href="#Ubuntu-Regular-35" x="112.799988"/>
       <use xlink:href="#Ubuntu-Regular-30" x="169.199982"/>
       <use xlink:href="#Ubuntu-Regular-30" x="225.599976"/>
       <use xlink:href="#Ubuntu-Regular-30" x="281.999969"/>
      </g>
     </g>
    </g>
    <g id="xtick_2">
     <g id="line2d_12">
      <g>
       <use xlink:href="#m176120cda7" x="133.788416" y="141.1675" style="fill: #cecece; stroke: #cecece; stroke-width: 0.75"/>
      </g>
     </g>
     <g id="text_2">
      <!-- −10000 -->
      <g style="fill: #808080" transform="translate(120.250916 156.375) scale(0.08 -0.08)">
       <use xlink:href="#Ubuntu-Regular-2212"/>
       <use xlink:href="#Ubuntu-Regular-31" x="56.399994"/>
       <use xlink:href="#Ubuntu-Regular-30" x="112.799988"/>
       <use xlink:href="#Ubuntu-Regular-30" x="169.199982"/>
       <use xlink:href="#Ubuntu-Regular-30" x="225.599976"/>
       <use xlink:href="#Ubuntu-Regular-30" x="281.999969"/>
      </g>
     </g>
    </g>
    <g id="xtick_3">
     <g id="line2d_13">
      <g>
       <use xlink:href="#m176120cda7" x="196.309425" y="141.1675" style="fill: #cecece; stroke: #cecece; stroke-width: 0.75"/>
      </g>
     </g>
     <g id="text_3">
      <!-- −5000 -->
      <g style="fill: #808080" transform="translate(185.028175 156.375) scale(0.08 -0.08)">
       <use xlink:href="#Ubuntu-Regular-2212"/>
       <use xlink:href="#Ubuntu-Regular-35" x="56.399994"/>
       <use xlink:href="#Ubuntu-Regular-30" x="112.799988"/>
       <use xlink:href="#Ubuntu-Regular-30" x="169.199982"/>
       <use xlink:href="#Ubuntu-Regular-30" x="225.599976"/>
      </g>
     </g>
    </g>
    <g id="xtick_4">
     <g id="line2d_14">
      <g>
       <use xlink:href="#m176120cda7" x="258.830433" y="141.1675" style="fill: #cecece; stroke: #cecece; stroke-width: 0.75"/>
      </g>
     </g>
     <g id="text_4">
      <!-- 0 -->
      <g style="fill: #808080" transform="translate(256.574183 156.375) scale(0.08 -0.08)">
       <use xlink:href="#Ubuntu-Regular-30"/>
      </g>
     </g>
    </g>
    <g id="xtick_5">
     <g id="line2d_15">
      <g>
       <use xlink:href="#m176120cda7" x="321.351442" y="141.1675" style="fill: #cecece; stroke: #cecece; stroke-width: 0.75"/>
      </g>
     </g>
     <g id="text_5">
      <!-- 5000 -->
      <g style="fill: #808080" transform="translate(312.326442 156.375) scale(0.08 -0.08)">
       <use xlink:href="#Ubuntu-Regular-35"/>
       <use xlink:href="#Ubuntu-Regular-30" x="56.399994"/>
       <use xlink:href="#Ubuntu-Regular-30" x="112.799988"/>
       <use xlink:href="#Ubuntu-Regular-30" x="169.199982"/>
      </g>
     </g>
    </g>
    <g id="xtick_6">
     <g id="line2d_16">
      <g>
       <use xlink:href="#m176120cda7" x="383.87245" y="141.1675" style="fill: #cecece; stroke: #cecece; stroke-width: 0.75"/>
      </g>
     </g>
     <g id="text_6">
      <!-- 10000 -->
      <g style="fill: #808080" transform="translate(372.5912 156.375) scale(0.08 -0.08)">
       <use xlink:href="#Ubuntu-Regular-31"/>
       <use xlink:href="#Ubuntu-Regular-30" x="56.399994"/>
       <use xlink:href="#Ubuntu-Regular-30" x="112.799988"/>
       <use xlink:href="#Ubuntu-Regular-30" x="169.199982"/>
       <use xlink:href="#Ubuntu-Regular-30" x="225.599976"/>
      </g>
     </g>
    </g>
    <g id="xtick_7">
     <g id="line2d_17">
      <g>
       <use xlink:href="#m176120cda7" x="446.393459" y="141.1675" style="fill: #cecece; stroke: #cecece; stroke-width: 0.75"/>
      </g>
     </g>
     <g id="text_7">
      <!-- 15000 -->
      <g style="fill: #808080" transform="translate(435.112209 156.375) scale(0.08 -0.08)">
       <use xlink:href="#Ubuntu-Regular-31"/>
       <use xlink:href="#Ubuntu-Regular-35" x="56.399994"/>
       <use xlink:href="#Ubuntu-Regular-30" x="112.799988"/>
       <use xlink:href="#Ubuntu-Regular-30" x="169.199982"/>
       <use xlink:href="#Ubuntu-Regular-30" x="225.599976"/>
      </g>
     </g>
    </g>
    <g id="xtick_8">
     <g id="line2d_18">
      <g>
       <use xlink:href="#m176120cda7" x="508.914467" y="141.1675" style="fill: #cecece; stroke: #cecece; stroke-width: 0.75"/>
      </g>
     </g>
     <g id="text_8">
      <!-- 20000 -->
      <g style="fill: #808080" transform="translate(497.633217 156.375) scale(0.08 -0.08)">
       <defs>
        <path id="Ubuntu-Regular-32" d="M 2989 3302 
Q 2989 3072 2896 2857 
Q 2803 2643 2649 2435 
Q 2496 2227 2304 2025 
Q 2112 1824 1920 1632 
Q 1811 1523 1667 1376 
Q 1523 1229 1395 1069 
Q 1267 909 1180 761 
Q 1094 614 1094 506 
L 3136 506 
L 3136 0 
L 448 0 
Q 442 38 442 76 
Q 442 115 442 147 
Q 442 448 541 707 
Q 640 966 800 1196 
Q 960 1427 1158 1632 
Q 1357 1837 1549 2029 
Q 1709 2182 1853 2332 
Q 1997 2483 2109 2633 
Q 2221 2784 2288 2944 
Q 2355 3104 2355 3283 
Q 2355 3475 2294 3609 
Q 2234 3744 2131 3833 
Q 2029 3923 1891 3964 
Q 1754 4006 1600 4006 
Q 1414 4006 1260 3955 
Q 1107 3904 985 3837 
Q 864 3770 781 3696 
Q 698 3622 653 3584 
L 358 4006 
Q 416 4070 531 4163 
Q 646 4256 806 4339 
Q 966 4422 1164 4480 
Q 1363 4538 1594 4538 
Q 2291 4538 2640 4214 
Q 2989 3891 2989 3302 
z
" transform="scale(0.015625)"/>
       </defs>
       <use xlink:href="#Ubuntu-Regular-32"/>
       <use xlink:href="#Ubuntu-Regular-30" x="56.399994"/>
       <use xlink:href="#Ubuntu-Regular-30" x="112.799988"/>
       <use xlink:href="#Ubuntu-Regular-30" x="169.199982"/>
       <use xlink:href="#Ubuntu-Regular-30" x="225.599976"/>
      </g>
     </g>
    </g>
   </g>
   <g id="matplotlib.axis_2">
    <g id="ytick_1">
     <g id="line2d_19">
      <defs>
       <path id="mfee4423647" d="M 0 0 
L -3 0 
" style="stroke: #cecece; stroke-width: 0.75"/>
      </defs>
      <g>
       <use xlink:href="#mfee4423647" x="61.890938" y="136.1675" style="fill: #cecece; stroke: #cecece; stroke-width: 0.75"/>
      </g>
     </g>
     <g id="text_9">
      <!-- 0.00000 -->
      <g style="fill: #808080" transform="translate(23.848438 139.27125) scale(0.08 -0.08)">
       <defs>
        <path id="Ubuntu-Regular-2e" d="M 1216 346 
Q 1216 173 1101 45 
Q 986 -83 787 -83 
Q 589 -83 473 45 
Q 358 173 358 346 
Q 358 518 473 646 
Q 589 774 787 774 
Q 986 774 1101 646 
Q 1216 518 1216 346 
z
" transform="scale(0.015625)"/>
       </defs>
       <use xlink:href="#Ubuntu-Regular-30"/>
       <use xlink:href="#Ubuntu-Regular-2e" x="56.399994"/>
       <use xlink:href="#Ubuntu-Regular-30" x="80.999985"/>
       <use xlink:href="#Ubuntu-Regular-30" x="137.399979"/>
       <use xlink:href="#Ubuntu-Regular-30" x="193.799973"/>
       <use xlink:href="#Ubuntu-Regular-30" x="250.199966"/>
       <use xlink:href="#Ubuntu-Regular-30" x="306.59996"/>
      </g>
     </g>
    </g>
    <g id="ytick_2">
     <g id="line2d_20">
      <g>
       <use xlink:href="#mfee4423647" x="61.890938" y="114.849747" style="fill: #cecece; stroke: #cecece; stroke-width: 0.75"/>
      </g>
     </g>
     <g id="text_10">
      <!-- 0.00005 -->
      <g style="fill: #808080" transform="translate(23.848438 117.953497) scale(0.08 -0.08)">
       <use xlink:href="#Ubuntu-Regular-30"/>
       <use xlink:href="#Ubuntu-Regular-2e" x="56.399994"/>
       <use xlink:href="#Ubuntu-Regular-30" x="80.999985"/>
       <use xlink:href="#Ubuntu-Regular-30" x="137.399979"/>
       <use xlink:href="#Ubuntu-Regular-30" x="193.799973"/>
       <use xlink:href="#Ubuntu-Regular-30" x="250.199966"/>
       <use xlink:href="#Ubuntu-Regular-35" x="306.59996"/>
      </g>
     </g>
    </g>
    <g id="ytick_3">
     <g id="line2d_21">
      <g>
       <use xlink:href="#mfee4423647" x="61.890938" y="93.531994" style="fill: #cecece; stroke: #cecece; stroke-width: 0.75"/>
      </g>
     </g>
     <g id="text_11">
      <!-- 0.00010 -->
      <g style="fill: #808080" transform="translate(23.848438 96.635744) scale(0.08 -0.08)">
       <use xlink:href="#Ubuntu-Regular-30"/>
       <use xlink:href="#Ubuntu-Regular-2e" x="56.399994"/>
       <use xlink:href="#Ubuntu-Regular-30" x="80.999985"/>
       <use xlink:href="#Ubuntu-Regular-30" x="137.399979"/>
       <use xlink:href="#Ubuntu-Regular-30" x="193.799973"/>
       <use xlink:href="#Ubuntu-Regular-31" x="250.199966"/>
       <use xlink:href="#Ubuntu-Regular-30" x="306.59996"/>
      </g>
     </g>
    </g>
    <g id="ytick_4">
     <g id="line2d_22">
      <g>
       <use xlink:href="#mfee4423647" x="61.890938" y="72.214242" style="fill: #cecece; stroke: #cecece; stroke-width: 0.75"/>
      </g>
     </g>
     <g id="text_12">
      <!-- 0.00015 -->
      <g style="fill: #808080" transform="translate(23.848438 75.317992) scale(0.08 -0.08)">
       <use xlink:href="#Ubuntu-Regular-30"/>
       <use xlink:href="#Ubuntu-Regular-2e" x="56.399994"/>
       <use xlink:href="#Ubuntu-Regular-30" x="80.999985"/>
       <use xlink:href="#Ubuntu-Regular-30" x="137.399979"/>
       <use xlink:href="#Ubuntu-Regular-30" x="193.799973"/>
       <use xlink:href="#Ubuntu-Regular-31" x="250.199966"/>
       <use xlink:href="#Ubuntu-Regular-35" x="306.59996"/>
      </g>
     </g>
    </g>
    <g id="ytick_5">
     <g id="line2d_23">
      <g>
       <use xlink:href="#mfee4423647" x="61.890938" y="50.896489" style="fill: #cecece; stroke: #cecece; stroke-width: 0.75"/>
      </g>
     </g>
     <g id="text_13">
      <!-- 0.00020 -->
      <g style="fill: #808080" transform="translate(23.848438 54.000239) scale(0.08 -0.08)">
       <use xlink:href="#Ubuntu-Regular-30"/>
       <use xlink:href="#Ubuntu-Regular-2e" x="56.399994"/>
       <use xlink:href="#Ubuntu-Regular-30" x="80.999985"/>
       <use xlink:href="#Ubuntu-Regular-30" x="137.399979"/>
       <use xlink:href="#Ubuntu-Regular-30" x="193.799973"/>
       <use xlink:href="#Ubuntu-Regular-32" x="250.199966"/>
       <use xlink:href="#Ubuntu-Regular-30" x="306.59996"/>
      </g>
     </g>
    </g>
    <g id="ytick_6">
     <g id="line2d_24">
      <g>
       <use xlink:href="#mfee4423647" x="61.890938" y="29.578736" style="fill: #cecece; stroke: #cecece; stroke-width: 0.75"/>
      </g>
     </g>
     <g id="text_14">
      <!-- 0.00025 -->
      <g style="fill: #808080" transform="translate(23.848438 32.682486) scale(0.08 -0.08)">
       <use xlink:href="#Ubuntu-Regular-30"/>
       <use xlink:href="#Ubuntu-Regular-2e" x="56.399994"/>
       <use xlink:href="#Ubuntu-Regular-30" x="80.999985"/>
       <use xlink:href="#Ubuntu-Regular-30" x="137.399979"/>
       <use xlink:href="#Ubuntu-Regular-30" x="193.799973"/>
       <use xlink:href="#Ubuntu-Regular-32" x="250.199966"/>
       <use xlink:href="#Ubuntu-Regular-35" x="306.59996"/>
      </g>
     </g>
    </g>
    <g id="text_15">
     <!-- Density -->
     <g style="fill: #505050" transform="translate(14.183438 58.365312) rotate(-90) scale(0.09 -0.09)">
      <defs>
       <path id="Ubuntu-Bold-44" d="M 1510 813 
Q 1581 806 1673 803 
Q 1766 800 1894 800 
Q 2643 800 3004 1177 
Q 3366 1555 3366 2221 
Q 3366 2918 3020 3276 
Q 2675 3635 1926 3635 
Q 1824 3635 1715 3632 
Q 1606 3629 1510 3616 
L 1510 813 
z
M 4397 2221 
Q 4397 1645 4217 1216 
Q 4038 787 3708 505 
Q 3379 224 2905 83 
Q 2432 -58 1843 -58 
Q 1574 -58 1216 -35 
Q 858 -13 512 58 
L 512 4378 
Q 858 4442 1232 4464 
Q 1606 4486 1875 4486 
Q 2445 4486 2909 4358 
Q 3373 4230 3705 3955 
Q 4038 3680 4217 3251 
Q 4397 2822 4397 2221 
z
" transform="scale(0.015625)"/>
       <path id="Ubuntu-Bold-65" d="M 288 1658 
Q 288 2106 425 2442 
Q 563 2778 787 3002 
Q 1011 3226 1302 3341 
Q 1594 3456 1901 3456 
Q 2618 3456 3034 3017 
Q 3450 2579 3450 1728 
Q 3450 1645 3443 1545 
Q 3437 1446 3430 1370 
L 1267 1370 
Q 1299 1075 1542 902 
Q 1786 730 2195 730 
Q 2458 730 2710 778 
Q 2963 826 3123 896 
L 3251 122 
Q 3174 83 3046 44 
Q 2918 6 2761 -22 
Q 2605 -51 2425 -70 
Q 2246 -90 2067 -90 
Q 1613 -90 1277 44 
Q 941 179 720 412 
Q 499 646 393 966 
Q 288 1286 288 1658 
z
M 2528 2022 
Q 2522 2144 2486 2259 
Q 2451 2374 2377 2464 
Q 2304 2554 2192 2611 
Q 2080 2669 1914 2669 
Q 1754 2669 1638 2614 
Q 1523 2560 1446 2470 
Q 1370 2381 1328 2262 
Q 1286 2144 1267 2022 
L 2528 2022 
z
" transform="scale(0.015625)"/>
       <path id="Ubuntu-Bold-6e" d="M 448 3251 
Q 691 3322 1075 3382 
Q 1459 3443 1882 3443 
Q 2310 3443 2595 3331 
Q 2880 3219 3046 3014 
Q 3213 2810 3283 2528 
Q 3354 2246 3354 1901 
L 3354 0 
L 2400 0 
L 2400 1786 
Q 2400 2246 2278 2438 
Q 2157 2630 1824 2630 
Q 1722 2630 1606 2620 
Q 1491 2611 1402 2598 
L 1402 0 
L 448 0 
L 448 3251 
z
" transform="scale(0.015625)"/>
       <path id="Ubuntu-Bold-73" d="M 1414 685 
Q 1677 685 1785 736 
Q 1894 787 1894 934 
Q 1894 1050 1753 1136 
Q 1613 1222 1325 1331 
Q 1101 1414 918 1504 
Q 736 1594 608 1718 
Q 480 1843 409 2016 
Q 339 2189 339 2432 
Q 339 2906 691 3181 
Q 1043 3456 1658 3456 
Q 1965 3456 2246 3401 
Q 2528 3347 2694 3283 
L 2528 2541 
Q 2362 2598 2166 2643 
Q 1971 2688 1728 2688 
Q 1280 2688 1280 2438 
Q 1280 2381 1299 2336 
Q 1318 2291 1376 2249 
Q 1434 2208 1533 2160 
Q 1632 2112 1786 2054 
Q 2099 1939 2304 1827 
Q 2509 1715 2627 1584 
Q 2746 1453 2794 1293 
Q 2842 1133 2842 922 
Q 2842 422 2467 166 
Q 2093 -90 1408 -90 
Q 960 -90 662 -13 
Q 365 64 250 115 
L 410 890 
Q 653 794 909 739 
Q 1165 685 1414 685 
z
" transform="scale(0.015625)"/>
       <path id="Ubuntu-Bold-69" d="M 1402 0 
L 448 0 
L 448 3366 
L 1402 3366 
L 1402 0 
z
M 1491 4339 
Q 1491 4077 1321 3926 
Q 1152 3776 922 3776 
Q 691 3776 521 3926 
Q 352 4077 352 4339 
Q 352 4602 521 4752 
Q 691 4902 922 4902 
Q 1152 4902 1321 4752 
Q 1491 4602 1491 4339 
z
" transform="scale(0.015625)"/>
       <path id="Ubuntu-Bold-74" d="M 416 4205 
L 1370 4358 
L 1370 3366 
L 2515 3366 
L 2515 2573 
L 1370 2573 
L 1370 1389 
Q 1370 1088 1475 909 
Q 1581 730 1901 730 
Q 2054 730 2217 758 
Q 2381 787 2515 838 
L 2650 96 
Q 2477 26 2265 -25 
Q 2054 -77 1747 -77 
Q 1357 -77 1101 28 
Q 845 134 691 323 
Q 538 512 477 781 
Q 416 1050 416 1376 
L 416 4205 
z
" transform="scale(0.015625)"/>
       <path id="Ubuntu-Bold-79" d="M 3437 3366 
Q 3149 2394 2835 1542 
Q 2522 691 2150 -109 
Q 2016 -397 1881 -598 
Q 1747 -800 1587 -931 
Q 1427 -1062 1225 -1123 
Q 1024 -1184 755 -1184 
Q 531 -1184 342 -1142 
Q 154 -1101 32 -1050 
L 198 -288 
Q 346 -339 461 -358 
Q 576 -378 704 -378 
Q 960 -378 1097 -240 
Q 1235 -102 1331 141 
Q 1005 781 678 1577 
Q 352 2374 64 3366 
L 1075 3366 
Q 1139 3117 1225 2825 
Q 1312 2534 1408 2236 
Q 1504 1939 1603 1657 
Q 1702 1376 1792 1146 
Q 1875 1376 1964 1657 
Q 2054 1939 2140 2236 
Q 2227 2534 2307 2825 
Q 2387 3117 2451 3366 
L 3437 3366 
z
" transform="scale(0.015625)"/>
      </defs>
      <use xlink:href="#Ubuntu-Bold-44"/>
      <use xlink:href="#Ubuntu-Bold-65" x="73.699982"/>
      <use xlink:href="#Ubuntu-Bold-6e" x="132.099976"/>
      <use xlink:href="#Ubuntu-Bold-73" x="190.999969"/>
      <use xlink:href="#Ubuntu-Bold-69" x="239.499954"/>
      <use xlink:href="#Ubuntu-Bold-74" x="268.399948"/>
      <use xlink:href="#Ubuntu-Bold-79" x="312.799942"/>
     </g>
    </g>
   </g>
   <g id="PolyCollection_1">
    <defs>
     <path id="mf3851f3dd2" d="M 147.929078 -28.888581 
L 147.929078 -28.8875 
L 149.118897 -28.8875 
L 150.308716 -28.8875 
L 151.498535 -28.8875 
L 152.688353 -28.8875 
L 153.878172 -28.8875 
L 155.067991 -28.8875 
L 156.25781 -28.8875 
L 157.447629 -28.8875 
L 158.637448 -28.8875 
L 159.827267 -28.8875 
L 161.017086 -28.8875 
L 162.206905 -28.8875 
L 163.396723 -28.8875 
L 164.586542 -28.8875 
L 165.776361 -28.8875 
L 166.96618 -28.8875 
L 168.155999 -28.8875 
L 169.345818 -28.8875 
L 170.535637 -28.8875 
L 171.725456 -28.8875 
L 172.915275 -28.8875 
L 174.105094 -28.8875 
L 175.294912 -28.8875 
L 176.484731 -28.8875 
L 177.67455 -28.8875 
L 178.864369 -28.8875 
L 180.054188 -28.8875 
L 181.244007 -28.8875 
L 182.433826 -28.8875 
L 183.623645 -28.8875 
L 184.813464 -28.8875 
L 186.003283 -28.8875 
L 187.193101 -28.8875 
L 188.38292 -28.8875 
L 189.572739 -28.8875 
L 190.762558 -28.8875 
L 191.952377 -28.8875 
L 193.142196 -28.8875 
L 194.332015 -28.8875 
L 195.521834 -28.8875 
L 196.711653 -28.8875 
L 197.901472 -28.8875 
L 199.09129 -28.8875 
L 200.281109 -28.8875 
L 201.470928 -28.8875 
L 202.660747 -28.8875 
L 203.850566 -28.8875 
L 205.040385 -28.8875 
L 206.230204 -28.8875 
L 207.420023 -28.8875 
L 208.609842 -28.8875 
L 209.799661 -28.8875 
L 210.989479 -28.8875 
L 212.179298 -28.8875 
L 213.369117 -28.8875 
L 214.558936 -28.8875 
L 215.748755 -28.8875 
L 216.938574 -28.8875 
L 218.128393 -28.8875 
L 219.318212 -28.8875 
L 220.508031 -28.8875 
L 221.69785 -28.8875 
L 222.887668 -28.8875 
L 224.077487 -28.8875 
L 225.267306 -28.8875 
L 226.457125 -28.8875 
L 227.646944 -28.8875 
L 228.836763 -28.8875 
L 230.026582 -28.8875 
L 231.216401 -28.8875 
L 232.40622 -28.8875 
L 233.596039 -28.8875 
L 234.785857 -28.8875 
L 235.975676 -28.8875 
L 237.165495 -28.8875 
L 238.355314 -28.8875 
L 239.545133 -28.8875 
L 240.734952 -28.8875 
L 241.924771 -28.8875 
L 243.11459 -28.8875 
L 244.304409 -28.8875 
L 245.494228 -28.8875 
L 246.684046 -28.8875 
L 247.873865 -28.8875 
L 249.063684 -28.8875 
L 250.253503 -28.8875 
L 251.443322 -28.8875 
L 252.633141 -28.8875 
L 253.82296 -28.8875 
L 255.012779 -28.8875 
L 256.202598 -28.8875 
L 257.392416 -28.8875 
L 258.582235 -28.8875 
L 259.772054 -28.8875 
L 260.961873 -28.8875 
L 262.151692 -28.8875 
L 263.341511 -28.8875 
L 264.53133 -28.8875 
L 265.721149 -28.8875 
L 266.910968 -28.8875 
L 268.100787 -28.8875 
L 269.290605 -28.8875 
L 270.480424 -28.8875 
L 271.670243 -28.8875 
L 272.860062 -28.8875 
L 274.049881 -28.8875 
L 275.2397 -28.8875 
L 276.429519 -28.8875 
L 277.619338 -28.8875 
L 278.809157 -28.8875 
L 279.998976 -28.8875 
L 281.188794 -28.8875 
L 282.378613 -28.8875 
L 283.568432 -28.8875 
L 284.758251 -28.8875 
L 285.94807 -28.8875 
L 287.137889 -28.8875 
L 288.327708 -28.8875 
L 289.517527 -28.8875 
L 290.707346 -28.8875 
L 291.897165 -28.8875 
L 293.086983 -28.8875 
L 294.276802 -28.8875 
L 295.466621 -28.8875 
L 296.65644 -28.8875 
L 297.846259 -28.8875 
L 299.036078 -28.8875 
L 300.225897 -28.8875 
L 301.415716 -28.8875 
L 302.605535 -28.8875 
L 303.795354 -28.8875 
L 304.985172 -28.8875 
L 306.174991 -28.8875 
L 307.36481 -28.8875 
L 308.554629 -28.8875 
L 309.744448 -28.8875 
L 310.934267 -28.8875 
L 312.124086 -28.8875 
L 313.313905 -28.8875 
L 314.503724 -28.8875 
L 315.693543 -28.8875 
L 316.883361 -28.8875 
L 318.07318 -28.8875 
L 319.262999 -28.8875 
L 320.452818 -28.8875 
L 321.642637 -28.8875 
L 322.832456 -28.8875 
L 324.022275 -28.8875 
L 325.212094 -28.8875 
L 326.401913 -28.8875 
L 327.591732 -28.8875 
L 328.78155 -28.8875 
L 329.971369 -28.8875 
L 331.161188 -28.8875 
L 332.351007 -28.8875 
L 333.540826 -28.8875 
L 334.730645 -28.8875 
L 335.920464 -28.8875 
L 337.110283 -28.8875 
L 338.300102 -28.8875 
L 339.48992 -28.8875 
L 340.679739 -28.8875 
L 341.869558 -28.8875 
L 343.059377 -28.8875 
L 344.249196 -28.8875 
L 345.439015 -28.8875 
L 346.628834 -28.8875 
L 347.818653 -28.8875 
L 349.008472 -28.8875 
L 350.198291 -28.8875 
L 351.388109 -28.8875 
L 352.577928 -28.8875 
L 353.767747 -28.8875 
L 354.957566 -28.8875 
L 356.147385 -28.8875 
L 357.337204 -28.8875 
L 358.527023 -28.8875 
L 359.716842 -28.8875 
L 360.906661 -28.8875 
L 362.09648 -28.8875 
L 363.286298 -28.8875 
L 364.476117 -28.8875 
L 365.665936 -28.8875 
L 366.855755 -28.8875 
L 368.045574 -28.8875 
L 369.235393 -28.8875 
L 370.425212 -28.8875 
L 371.615031 -28.8875 
L 372.80485 -28.8875 
L 373.994669 -28.8875 
L 375.184487 -28.8875 
L 376.374306 -28.8875 
L 377.564125 -28.8875 
L 378.753944 -28.8875 
L 379.943763 -28.8875 
L 381.133582 -28.8875 
L 382.323401 -28.8875 
L 383.51322 -28.8875 
L 384.703039 -28.8875 
L 384.703039 -28.888574 
L 384.703039 -28.888574 
L 383.51322 -28.889652 
L 382.323401 -28.891569 
L 381.133582 -28.894759 
L 379.943763 -28.899722 
L 378.753944 -28.906924 
L 377.564125 -28.91665 
L 376.374306 -28.928829 
L 375.184487 -28.942906 
L 373.994669 -28.95783 
L 372.80485 -28.972209 
L 371.615031 -28.98463 
L 370.425212 -28.994047 
L 369.235393 -29.000093 
L 368.045574 -29.003165 
L 366.855755 -29.00423 
L 365.665936 -29.004388 
L 364.476117 -29.004393 
L 363.286298 -29.004317 
L 362.09648 -29.003526 
L 360.906661 -29.00098 
L 359.716842 -28.995728 
L 358.527023 -28.987388 
L 357.337204 -28.976451 
L 356.147385 -28.964304 
L 354.957566 -28.953025 
L 353.767747 -28.945056 
L 352.577928 -28.942889 
L 351.388109 -28.948818 
L 350.198291 -28.964764 
L 349.008472 -28.992137 
L 347.818653 -29.031716 
L 346.628834 -29.083581 
L 345.439015 -29.1472 
L 344.249196 -29.221736 
L 343.059377 -29.306607 
L 341.869558 -29.402225 
L 340.679739 -29.510709 
L 339.48992 -29.636353 
L 338.300102 -29.785603 
L 337.110283 -29.966421 
L 335.920464 -30.187014 
L 334.730645 -30.454106 
L 333.540826 -30.771053 
L 332.351007 -31.136273 
L 331.161188 -31.542468 
L 329.971369 -31.977063 
L 328.78155 -32.423985 
L 327.591732 -32.86656 
L 326.401913 -33.290903 
L 325.212094 -33.688994 
L 324.022275 -34.060698 
L 322.832456 -34.414345 
L 321.642637 -34.765944 
L 320.452818 -35.137399 
L 319.262999 -35.554153 
L 318.07318 -36.042484 
L 316.883361 -36.626461 
L 315.693543 -37.32457 
L 314.503724 -38.146332 
L 313.313905 -39.089701 
L 312.124086 -40.14034 
L 310.934267 -41.273735 
L 309.744448 -42.460397 
L 308.554629 -43.673288 
L 307.36481 -44.895499 
L 306.174991 -46.125603 
L 304.985172 -47.378398 
L 303.795354 -48.680114 
L 302.605535 -50.059195 
L 301.415716 -51.535772 
L 300.225897 -53.113954 
L 299.036078 -54.7803 
L 297.846259 -56.509477 
L 296.65644 -58.274963 
L 295.466621 -60.060285 
L 294.276802 -61.865988 
L 293.086983 -63.709488 
L 291.897165 -65.618319 
L 290.707346 -67.620165 
L 289.517527 -69.734003 
L 288.327708 -71.9653 
L 287.137889 -74.305523 
L 285.94807 -76.733956 
L 284.758251 -79.219336 
L 283.568432 -81.720232 
L 282.378613 -84.185326 
L 281.188794 -86.556145 
L 279.998976 -88.774274 
L 278.809157 -90.79271 
L 277.619338 -92.588007 
L 276.429519 -94.16804 
L 275.2397 -95.570931 
L 274.049881 -96.853929 
L 272.860062 -98.075448 
L 271.670243 -99.276865 
L 270.480424 -100.47109 
L 269.290605 -101.642066 
L 268.100787 -102.754548 
L 266.910968 -103.769185 
L 265.721149 -104.65629 
L 264.53133 -105.403108 
L 263.341511 -106.013031 
L 262.151692 -106.498731 
L 260.961873 -106.873206 
L 259.772054 -107.142586 
L 258.582235 -107.303054 
L 257.392416 -107.342372 
L 256.202598 -107.245018 
L 255.012779 -106.998972 
L 253.82296 -106.601602 
L 252.633141 -106.062035 
L 251.443322 -105.398214 
L 250.253503 -104.628662 
L 249.063684 -103.761435 
L 247.873865 -102.784722 
L 246.684046 -101.663877 
L 245.494228 -100.347793 
L 244.304409 -98.783983 
L 243.11459 -96.937907 
L 241.924771 -94.809804 
L 240.734952 -92.442525 
L 239.545133 -89.916857 
L 238.355314 -87.335269 
L 237.165495 -84.799262 
L 235.975676 -82.38775 
L 234.785857 -80.143244 
L 233.596039 -78.069381 
L 232.40622 -76.138939 
L 231.216401 -74.307834 
L 230.026582 -72.529252 
L 228.836763 -70.763319 
L 227.646944 -68.98073 
L 226.457125 -67.161797 
L 225.267306 -65.294032 
L 224.077487 -63.371074 
L 222.887668 -61.394069 
L 221.69785 -59.374575 
L 220.508031 -57.33675 
L 219.318212 -55.316661 
L 218.128393 -53.357671 
L 216.938574 -51.502675 
L 215.748755 -49.785431 
L 214.558936 -48.223841 
L 213.369117 -46.817408 
L 212.179298 -45.549554 
L 210.989479 -44.393721 
L 209.799661 -43.320886 
L 208.609842 -42.30596 
L 207.420023 -41.331294 
L 206.230204 -40.38696 
L 205.040385 -39.468765 
L 203.850566 -38.575677 
L 202.660747 -37.708194 
L 201.470928 -36.868308 
L 200.281109 -36.060661 
L 199.09129 -35.293684 
L 197.901472 -34.579433 
L 196.711653 -33.931525 
L 195.521834 -33.361583 
L 194.332015 -32.875503 
L 193.142196 -32.471043 
L 191.952377 -32.137763 
L 190.762558 -31.859331 
L 189.572739 -31.617273 
L 188.38292 -31.39481 
L 187.193101 -31.179563 
L 186.003283 -30.964605 
L 184.813464 -30.74802 
L 183.623645 -30.531636 
L 182.433826 -30.319627 
L 181.244007 -30.117392 
L 180.054188 -29.930732 
L 178.864369 -29.765105 
L 177.67455 -29.624776 
L 176.484731 -29.511898 
L 175.294912 -29.425826 
L 174.105094 -29.363027 
L 172.915275 -29.317765 
L 171.725456 -29.283428 
L 170.535637 -29.25403 
L 169.345818 -29.225357 
L 168.155999 -29.195395 
L 166.96618 -29.163999 
L 165.776361 -29.132084 
L 164.586542 -29.10078 
L 163.396723 -29.070872 
L 162.206905 -29.042683 
L 161.017086 -29.01626 
L 159.827267 -28.991663 
L 158.637448 -28.969141 
L 157.447629 -28.949121 
L 156.25781 -28.932056 
L 155.067991 -28.918233 
L 153.878172 -28.907658 
L 152.688353 -28.900043 
L 151.498535 -28.894892 
L 150.308716 -28.89162 
L 149.118897 -28.889671 
L 147.929078 -28.888581 
z
" style="stroke: #5b5b5b; stroke-width: 0.01"/>
    </defs>
    <g clip-path="url(#pbb9c12a459)">
     <use xlink:href="#mf3851f3dd2" x="0" y="165.055" style="fill: #5b5b5b; fill-opacity: 0.25; stroke: #5b5b5b; stroke-width: 0.01"/>
    </g>
   </g>
   <g id="line2d_25">
    <path d="M 156.682148 136.165804 
L 165.559518 136.074848 
L 172.957326 135.783434 
L 178.875572 135.32875 
L 184.793819 134.626347 
L 189.232504 133.881855 
L 195.15075 132.815847 
L 199.589435 132.353675 
L 202.548558 132.038259 
L 205.507682 131.457925 
L 208.466805 130.541855 
L 212.90549 129.012814 
L 220.303298 126.845022 
L 221.78286 126.110157 
L 223.262421 125.188011 
L 224.741983 124.072894 
L 226.221545 122.756412 
L 227.701106 121.218022 
L 229.180668 119.429709 
L 230.660229 117.372595 
L 232.139791 115.054244 
L 235.098914 109.808191 
L 238.058038 104.069024 
L 241.017161 97.816343 
L 243.976284 90.69714 
L 251.374092 71.460933 
L 252.853654 68.239692 
L 254.333215 65.334597 
L 257.292339 60.24291 
L 260.251462 55.778833 
L 261.731024 53.776266 
L 263.210585 51.982847 
L 264.690147 50.459373 
L 266.169709 49.271975 
L 267.64927 48.48397 
L 269.128832 48.140264 
L 270.608393 48.244272 
L 272.087955 48.737267 
L 275.047078 50.354502 
L 276.52664 51.162944 
L 280.965325 53.094891 
L 282.444886 54.082592 
L 283.924448 55.656692 
L 285.40401 58.016606 
L 286.883571 61.247376 
L 288.363133 65.308198 
L 289.842695 70.056239 
L 292.801818 80.770176 
L 295.760941 91.565198 
L 297.240503 96.437503 
L 298.720064 100.712354 
L 300.199626 104.275949 
L 301.679188 107.102484 
L 303.158749 109.261549 
L 304.638311 110.900306 
L 306.117873 112.205704 
L 310.556557 115.757337 
L 313.515681 118.624016 
L 319.433927 124.862844 
L 322.39305 127.444369 
L 323.872612 128.50387 
L 325.352174 129.400611 
L 326.831735 130.135116 
L 328.311297 130.711296 
L 329.790859 131.135202 
L 331.27042 131.414714 
L 332.749982 131.561305 
L 335.709105 131.54304 
L 340.14779 131.355329 
L 341.627352 131.450291 
L 343.106913 131.685182 
L 344.586475 132.064917 
L 347.545598 133.141584 
L 350.504721 134.263427 
L 353.463845 135.030007 
L 356.422968 135.382969 
L 362.341214 135.624553 
L 372.698146 135.914763 
L 409.687187 136.110961 
L 423.003241 136.165012 
L 451.114912 136.166423 
L 451.114912 136.166423 
" clip-path="url(#pbb9c12a459)" style="fill: none; stroke: #5b5b5b; stroke-width: 1.2; stroke-linecap: square"/>
   </g>
   <g id="patch_3">
    <path d="M 61.890938 136.1675 
L 61.890938 29.578736 
" style="fill: none; stroke: #cccccc; stroke-width: 0.75; stroke-linejoin: miter; stroke-linecap: square"/>
   </g>
   <g id="patch_4">
    <path d="M 71.267408 141.1675 
L 508.914467 141.1675 
" style="fill: none; stroke: #cccccc; stroke-width: 0.75; stroke-linejoin: miter; stroke-linecap: square"/>
   </g>
   <g id="legend_1">
    <g id="line2d_26">
     <path d="M 74.090938 13.8075 
L 82.090938 13.8075 
L 90.090938 13.8075 
" style="fill: none; stroke: #5b5b5b; stroke-width: 1.2; stroke-linecap: square"/>
    </g>
    <g id="text_16">
     <!-- Residuals -->
     <g style="fill: #4b4b4b" transform="translate(96.490938 16.6075) scale(0.08 -0.08)">
      <defs>
       <path id="Ubuntu-Regular-52" d="M 2720 1856 
Q 2822 1728 2979 1520 
Q 3136 1312 3302 1059 
Q 3469 806 3632 531 
Q 3795 256 3910 0 
L 3232 0 
Q 3104 243 2953 492 
Q 2803 742 2649 969 
Q 2496 1197 2345 1395 
Q 2195 1594 2074 1741 
Q 1990 1734 1904 1734 
Q 1818 1734 1728 1734 
L 1171 1734 
L 1171 0 
L 550 0 
L 550 4371 
Q 813 4435 1136 4457 
Q 1459 4480 1728 4480 
Q 2662 4480 3152 4128 
Q 3642 3776 3642 3078 
Q 3642 2637 3408 2323 
Q 3174 2010 2720 1856 
z
M 1779 3936 
Q 1382 3936 1171 3917 
L 1171 2246 
L 1613 2246 
Q 1933 2246 2189 2278 
Q 2445 2310 2621 2400 
Q 2797 2490 2893 2653 
Q 2989 2816 2989 3085 
Q 2989 3334 2893 3500 
Q 2797 3667 2633 3763 
Q 2470 3859 2249 3897 
Q 2029 3936 1779 3936 
z
" transform="scale(0.015625)"/>
       <path id="Ubuntu-Regular-65" d="M 326 1658 
Q 326 2099 454 2428 
Q 582 2758 793 2976 
Q 1005 3194 1280 3302 
Q 1555 3411 1843 3411 
Q 2515 3411 2873 2992 
Q 3232 2573 3232 1715 
Q 3232 1677 3232 1616 
Q 3232 1555 3226 1504 
L 947 1504 
Q 986 986 1248 717 
Q 1510 448 2067 448 
Q 2381 448 2595 502 
Q 2810 557 2918 608 
L 3002 109 
Q 2893 51 2621 -13 
Q 2349 -77 2003 -77 
Q 1568 -77 1251 54 
Q 934 186 729 416 
Q 525 646 425 963 
Q 326 1280 326 1658 
z
M 2611 1984 
Q 2618 2387 2410 2646 
Q 2202 2906 1837 2906 
Q 1632 2906 1475 2826 
Q 1318 2746 1209 2618 
Q 1101 2490 1040 2323 
Q 979 2157 960 1984 
L 2611 1984 
z
" transform="scale(0.015625)"/>
       <path id="Ubuntu-Regular-73" d="M 1286 429 
Q 1651 429 1827 525 
Q 2003 621 2003 832 
Q 2003 1050 1830 1178 
Q 1658 1306 1261 1466 
Q 1069 1542 893 1622 
Q 717 1702 589 1811 
Q 461 1920 384 2073 
Q 307 2227 307 2451 
Q 307 2893 633 3152 
Q 960 3411 1523 3411 
Q 1664 3411 1805 3395 
Q 1946 3379 2067 3356 
Q 2189 3334 2281 3308 
Q 2374 3283 2426 3264 
L 2317 2752 
Q 2221 2803 2016 2857 
Q 1811 2912 1523 2912 
Q 1274 2912 1088 2813 
Q 902 2714 902 2502 
Q 902 2394 944 2310 
Q 986 2227 1072 2160 
Q 1158 2093 1286 2035 
Q 1414 1978 1594 1914 
Q 1830 1824 2016 1737 
Q 2202 1651 2333 1536 
Q 2464 1421 2534 1257 
Q 2605 1094 2605 858 
Q 2605 397 2262 160 
Q 1920 -77 1286 -77 
Q 845 -77 595 -3 
Q 346 70 256 109 
L 365 621 
Q 467 582 691 505 
Q 915 429 1286 429 
z
" transform="scale(0.015625)"/>
       <path id="Ubuntu-Regular-69" d="M 1107 0 
L 512 0 
L 512 3328 
L 1107 3328 
L 1107 0 
z
M 806 3930 
Q 646 3930 534 4035 
Q 422 4141 422 4320 
Q 422 4499 534 4604 
Q 646 4710 806 4710 
Q 966 4710 1078 4604 
Q 1190 4499 1190 4320 
Q 1190 4141 1078 4035 
Q 966 3930 806 3930 
z
" transform="scale(0.015625)"/>
       <path id="Ubuntu-Regular-64" d="M 2662 2624 
Q 2554 2714 2349 2797 
Q 2144 2880 1901 2880 
Q 1645 2880 1462 2787 
Q 1280 2694 1165 2531 
Q 1050 2368 998 2144 
Q 947 1920 947 1664 
Q 947 1082 1235 765 
Q 1523 448 2003 448 
Q 2246 448 2409 470 
Q 2573 493 2662 518 
L 2662 2624 
z
M 2662 4864 
L 3258 4966 
L 3258 96 
Q 3053 38 2733 -19 
Q 2413 -77 1997 -77 
Q 1613 -77 1305 44 
Q 998 166 780 390 
Q 563 614 444 937 
Q 326 1261 326 1664 
Q 326 2048 425 2368 
Q 525 2688 717 2918 
Q 909 3149 1187 3277 
Q 1466 3405 1824 3405 
Q 2112 3405 2333 3328 
Q 2554 3251 2662 3181 
L 2662 4864 
z
" transform="scale(0.015625)"/>
       <path id="Ubuntu-Regular-75" d="M 3162 96 
Q 2957 45 2621 -12 
Q 2285 -70 1843 -70 
Q 1459 -70 1196 42 
Q 934 154 774 358 
Q 614 563 544 841 
Q 474 1120 474 1459 
L 474 3328 
L 1069 3328 
L 1069 1587 
Q 1069 979 1261 716 
Q 1453 454 1907 454 
Q 2003 454 2105 460 
Q 2208 467 2297 476 
Q 2387 486 2460 496 
Q 2534 506 2566 518 
L 2566 3328 
L 3162 3328 
L 3162 96 
z
" transform="scale(0.015625)"/>
       <path id="Ubuntu-Regular-61" d="M 1638 429 
Q 1850 429 2013 438 
Q 2176 448 2285 474 
L 2285 1466 
Q 2221 1498 2077 1520 
Q 1933 1542 1728 1542 
Q 1594 1542 1443 1523 
Q 1293 1504 1168 1443 
Q 1043 1382 960 1276 
Q 877 1171 877 998 
Q 877 678 1081 553 
Q 1286 429 1638 429 
z
M 1587 3411 
Q 1946 3411 2192 3318 
Q 2438 3226 2588 3056 
Q 2739 2886 2803 2652 
Q 2867 2419 2867 2138 
L 2867 58 
Q 2790 45 2652 22 
Q 2515 0 2342 -19 
Q 2170 -38 1968 -54 
Q 1766 -70 1568 -70 
Q 1286 -70 1049 -12 
Q 813 45 640 169 
Q 467 294 371 499 
Q 275 704 275 992 
Q 275 1267 387 1465 
Q 499 1664 691 1785 
Q 883 1907 1139 1964 
Q 1395 2022 1677 2022 
Q 1766 2022 1862 2012 
Q 1958 2003 2044 1987 
Q 2131 1971 2195 1958 
Q 2259 1946 2285 1939 
L 2285 2106 
Q 2285 2253 2253 2397 
Q 2221 2541 2137 2653 
Q 2054 2765 1910 2832 
Q 1766 2899 1536 2899 
Q 1242 2899 1021 2857 
Q 800 2816 691 2771 
L 621 3264 
Q 736 3315 1005 3363 
Q 1274 3411 1587 3411 
z
" transform="scale(0.015625)"/>
       <path id="Ubuntu-Regular-6c" d="M 1510 -64 
Q 960 -51 729 173 
Q 499 397 499 870 
L 499 4864 
L 1094 4966 
L 1094 966 
Q 1094 819 1120 723 
Q 1146 627 1203 569 
Q 1261 512 1357 483 
Q 1453 454 1594 435 
L 1510 -64 
z
" transform="scale(0.015625)"/>
      </defs>
      <use xlink:href="#Ubuntu-Regular-52"/>
      <use xlink:href="#Ubuntu-Regular-65" x="62.899994"/>
      <use xlink:href="#Ubuntu-Regular-73" x="118.799988"/>
      <use xlink:href="#Ubuntu-Regular-69" x="163.399979"/>
      <use xlink:href="#Ubuntu-Regular-64" x="188.699966"/>
      <use xlink:href="#Ubuntu-Regular-75" x="247.59996"/>
      <use xlink:href="#Ubuntu-Regular-61" x="304.999954"/>
      <use xlink:href="#Ubuntu-Regular-6c" x="357.199951"/>
      <use xlink:href="#Ubuntu-Regular-73" x="384.499939"/>
     </g>
    </g>
    <g id="patch_5">
     <path d="M 146.819687 16.6075 
L 162.819687 16.6075 
L 162.819687 11.0075 
L 146.819687 11.0075 
z
" style="fill: #5b5b5b; fill-opacity: 0.25; stroke: #5b5b5b; stroke-width: 0.01; stroke-linejoin: miter"/>
    </g>
    <g id="text_17">
     <!-- Normal -->
     <g style="fill: #4b4b4b" transform="translate(169.219687 16.6075) scale(0.08 -0.08)">
      <defs>
       <path id="Ubuntu-Regular-4e" d="M 3590 0 
Q 3450 237 3267 531 
Q 3085 826 2873 1142 
Q 2662 1459 2435 1785 
Q 2208 2112 1984 2416 
Q 1760 2720 1549 2989 
Q 1338 3258 1158 3462 
L 1158 0 
L 550 0 
L 550 4435 
L 1043 4435 
Q 1344 4115 1686 3689 
Q 2029 3264 2365 2813 
Q 2701 2362 2998 1926 
Q 3296 1491 3501 1152 
L 3501 4435 
L 4109 4435 
L 4109 0 
L 3590 0 
z
" transform="scale(0.015625)"/>
       <path id="Ubuntu-Regular-6f" d="M 3450 1664 
Q 3450 1267 3334 947 
Q 3219 627 3011 396 
Q 2803 166 2515 41 
Q 2227 -83 1888 -83 
Q 1549 -83 1261 41 
Q 973 166 765 396 
Q 557 627 441 947 
Q 326 1267 326 1664 
Q 326 2054 441 2377 
Q 557 2701 765 2931 
Q 973 3162 1261 3286 
Q 1549 3411 1888 3411 
Q 2227 3411 2515 3286 
Q 2803 3162 3011 2931 
Q 3219 2701 3334 2377 
Q 3450 2054 3450 1664 
z
M 2829 1664 
Q 2829 2227 2576 2556 
Q 2323 2886 1888 2886 
Q 1453 2886 1200 2556 
Q 947 2227 947 1664 
Q 947 1101 1200 771 
Q 1453 442 1888 442 
Q 2323 442 2576 771 
Q 2829 1101 2829 1664 
z
" transform="scale(0.015625)"/>
       <path id="Ubuntu-Regular-72" d="M 1741 3398 
Q 1818 3398 1917 3388 
Q 2016 3379 2112 3363 
Q 2208 3347 2288 3331 
Q 2368 3315 2406 3302 
L 2304 2784 
Q 2234 2810 2070 2845 
Q 1907 2880 1651 2880 
Q 1485 2880 1321 2845 
Q 1158 2810 1107 2797 
L 1107 0 
L 512 0 
L 512 3187 
Q 723 3264 1036 3331 
Q 1350 3398 1741 3398 
z
" transform="scale(0.015625)"/>
       <path id="Ubuntu-Regular-6d" d="M 512 3232 
Q 717 3283 1053 3340 
Q 1389 3398 1830 3398 
Q 2150 3398 2368 3312 
Q 2586 3226 2733 3059 
Q 2778 3091 2874 3148 
Q 2970 3206 3110 3260 
Q 3251 3315 3424 3356 
Q 3597 3398 3795 3398 
Q 4179 3398 4422 3286 
Q 4666 3174 4803 2969 
Q 4941 2765 4989 2483 
Q 5037 2202 5037 1869 
L 5037 0 
L 4442 0 
L 4442 1741 
Q 4442 2035 4413 2246 
Q 4384 2458 4304 2598 
Q 4224 2739 4086 2806 
Q 3949 2874 3731 2874 
Q 3430 2874 3235 2794 
Q 3040 2714 2970 2650 
Q 3021 2483 3046 2284 
Q 3072 2086 3072 1869 
L 3072 0 
L 2477 0 
L 2477 1741 
Q 2477 2035 2445 2246 
Q 2413 2458 2333 2598 
Q 2253 2739 2115 2806 
Q 1978 2874 1766 2874 
Q 1677 2874 1574 2867 
Q 1472 2861 1379 2851 
Q 1286 2842 1209 2829 
Q 1133 2816 1107 2810 
L 1107 0 
L 512 0 
L 512 3232 
z
" transform="scale(0.015625)"/>
      </defs>
      <use xlink:href="#Ubuntu-Regular-4e"/>
      <use xlink:href="#Ubuntu-Regular-6f" x="72.799988"/>
      <use xlink:href="#Ubuntu-Regular-72" x="131.799973"/>
      <use xlink:href="#Ubuntu-Regular-6d" x="170.399963"/>
      <use xlink:href="#Ubuntu-Regular-61" x="256.499954"/>
      <use xlink:href="#Ubuntu-Regular-6c" x="308.699951"/>
     </g>
    </g>
   </g>
  </g>
 </g>
 <defs>
  <clipPath id="pbb9c12a459">
   <rect x="66.890938" y="25.2875" width="446.4" height="110.88"/>
  </clipPath>
 </defs>
</svg>
