<?xml version="1.0" encoding="utf-8" standalone="no"?>
<!DOCTYPE svg PUBLIC "-//W3C//DTD SVG 1.1//EN"
  "http://www.w3.org/Graphics/SVG/1.1/DTD/svg11.dtd">
<svg xmlns:xlink="http://www.w3.org/1999/xlink" width="531.772187pt" height="170.055pt" viewBox="0 0 531.772187 170.055" xmlns="http://www.w3.org/2000/svg" version="1.1">
 <metadata>
  <rdf:RDF xmlns:dc="http://purl.org/dc/elements/1.1/" xmlns:cc="http://creativecommons.org/ns#" xmlns:rdf="http://www.w3.org/1999/02/22-rdf-syntax-ns#">
   <cc:Work>
    <dc:type rdf:resource="http://purl.org/dc/dcmitype/StillImage"/>
    <dc:date>2024-04-24T21:16:02.419204</dc:date>
    <dc:format>image/svg+xml</dc:format>
    <dc:creator>
     <cc:Agent>
      <dc:title>Matplotlib v3.8.3, https://matplotlib.org/</dc:title>
     </cc:Agent>
    </dc:creator>
   </cc:Work>
  </rdf:RDF>
 </metadata>
 <defs>
  <style type="text/css">*{stroke-linejoin: round; stroke-linecap: butt}</style>
 </defs>
 <g id="figure_1">
  <g id="patch_1">
   <path d="M 0 170.055 
L 531.772187 170.055 
L 531.772187 0 
L 0 0 
L 0 170.055 
z
" style="fill: none"/>
  </g>
  <g id="axes_1">
   <g id="patch_2">
    <path d="M 66.890938 136.1675 
L 513.290937 136.1675 
L 513.290937 25.2875 
L 66.890938 25.2875 
L 66.890938 136.1675 
z
" style="fill: none"/>
   </g>
   <g id="matplotlib.axis_1">
    <g id="xtick_1">
     <g id="line2d_1">
      <defs>
       <path id="m1319e7d988" d="M 0 0 
L 0 3 
" style="stroke: #cccccc; stroke-width: 0.75"/>
      </defs>
      <g>
       <use xlink:href="#m1319e7d988" x="66.890938" y="146.1675" style="fill: #cccccc; stroke: #cccccc; stroke-width: 0.75"/>
      </g>
     </g>
     <g id="text_1">
      <!-- −10000 -->
      <g style="fill: #808080" transform="translate(53.353438 161.375) scale(0.08 -0.08)">
       <defs>
        <path id="Ubuntu-2212" d="M 339 2138 
L 3270 2138 
L 3270 1632 
L 339 1632 
L 339 2138 
z
" transform="scale(0.015625)"/>
        <path id="Ubuntu-31" d="M 595 3520 
Q 960 3661 1305 3881 
Q 1651 4102 1939 4435 
L 2362 4435 
L 2362 0 
L 1766 0 
L 1766 3610 
Q 1690 3539 1578 3462 
Q 1466 3386 1334 3315 
Q 1203 3245 1059 3181 
Q 915 3117 781 3072 
L 595 3520 
z
" transform="scale(0.015625)"/>
        <path id="Ubuntu-30" d="M 320 2221 
Q 320 3334 713 3936 
Q 1107 4538 1805 4538 
Q 2502 4538 2896 3936 
Q 3290 3334 3290 2221 
Q 3290 1107 2896 505 
Q 2502 -96 1805 -96 
Q 1107 -96 713 505 
Q 320 1107 320 2221 
z
M 2662 2221 
Q 2662 2586 2620 2912 
Q 2579 3238 2480 3481 
Q 2381 3725 2214 3869 
Q 2048 4013 1805 4013 
Q 1562 4013 1395 3869 
Q 1229 3725 1129 3481 
Q 1030 3238 988 2912 
Q 947 2586 947 2221 
Q 947 1856 988 1529 
Q 1030 1203 1129 960 
Q 1229 717 1395 573 
Q 1562 429 1805 429 
Q 2048 429 2214 573 
Q 2381 717 2480 960 
Q 2579 1203 2620 1529 
Q 2662 1856 2662 2221 
z
" transform="scale(0.015625)"/>
       </defs>
       <use xlink:href="#Ubuntu-2212"/>
       <use xlink:href="#Ubuntu-31" x="56.399994"/>
       <use xlink:href="#Ubuntu-30" x="112.799988"/>
       <use xlink:href="#Ubuntu-30" x="169.199982"/>
       <use xlink:href="#Ubuntu-30" x="225.599976"/>
       <use xlink:href="#Ubuntu-30" x="281.999969"/>
      </g>
     </g>
    </g>
    <g id="xtick_2">
     <g id="line2d_2">
      <g>
       <use xlink:href="#m1319e7d988" x="141.290937" y="146.1675" style="fill: #cccccc; stroke: #cccccc; stroke-width: 0.75"/>
      </g>
     </g>
     <g id="text_2">
      <!-- −5000 -->
      <g style="fill: #808080" transform="translate(130.009687 161.375) scale(0.08 -0.08)">
       <defs>
        <path id="Ubuntu-35" d="M 1274 2726 
Q 2240 2688 2691 2304 
Q 3142 1920 3142 1261 
Q 3142 966 3043 716 
Q 2944 467 2742 288 
Q 2541 109 2233 6 
Q 1926 -96 1504 -96 
Q 1338 -96 1165 -70 
Q 992 -45 845 -6 
Q 698 32 582 70 
Q 467 109 416 134 
L 531 653 
Q 640 602 886 518 
Q 1133 435 1491 435 
Q 1779 435 1974 499 
Q 2170 563 2291 672 
Q 2413 781 2467 925 
Q 2522 1069 2522 1229 
Q 2522 1472 2438 1661 
Q 2355 1850 2144 1978 
Q 1933 2106 1581 2173 
Q 1229 2240 691 2240 
Q 730 2554 752 2829 
Q 774 3104 793 3366 
Q 813 3629 825 3888 
Q 838 4147 851 4435 
L 2989 4435 
L 2989 3930 
L 1370 3930 
Q 1363 3834 1350 3670 
Q 1338 3507 1325 3331 
Q 1312 3155 1299 2988 
Q 1286 2822 1274 2726 
z
" transform="scale(0.015625)"/>
       </defs>
       <use xlink:href="#Ubuntu-2212"/>
       <use xlink:href="#Ubuntu-35" x="56.399994"/>
       <use xlink:href="#Ubuntu-30" x="112.799988"/>
       <use xlink:href="#Ubuntu-30" x="169.199982"/>
       <use xlink:href="#Ubuntu-30" x="225.599976"/>
      </g>
     </g>
    </g>
    <g id="xtick_3">
     <g id="line2d_3">
      <g>
       <use xlink:href="#m1319e7d988" x="215.690937" y="146.1675" style="fill: #cccccc; stroke: #cccccc; stroke-width: 0.75"/>
      </g>
     </g>
     <g id="text_3">
      <!-- 0 -->
      <g style="fill: #808080" transform="translate(213.434687 161.375) scale(0.08 -0.08)">
       <use xlink:href="#Ubuntu-30"/>
      </g>
     </g>
    </g>
    <g id="xtick_4">
     <g id="line2d_4">
      <g>
       <use xlink:href="#m1319e7d988" x="290.090937" y="146.1675" style="fill: #cccccc; stroke: #cccccc; stroke-width: 0.75"/>
      </g>
     </g>
     <g id="text_4">
      <!-- 5000 -->
      <g style="fill: #808080" transform="translate(281.065938 161.375) scale(0.08 -0.08)">
       <use xlink:href="#Ubuntu-35"/>
       <use xlink:href="#Ubuntu-30" x="56.399994"/>
       <use xlink:href="#Ubuntu-30" x="112.799988"/>
       <use xlink:href="#Ubuntu-30" x="169.199982"/>
      </g>
     </g>
    </g>
    <g id="xtick_5">
     <g id="line2d_5">
      <g>
       <use xlink:href="#m1319e7d988" x="364.490937" y="146.1675" style="fill: #cccccc; stroke: #cccccc; stroke-width: 0.75"/>
      </g>
     </g>
     <g id="text_5">
      <!-- 10000 -->
      <g style="fill: #808080" transform="translate(353.209687 161.375) scale(0.08 -0.08)">
       <use xlink:href="#Ubuntu-31"/>
       <use xlink:href="#Ubuntu-30" x="56.399994"/>
       <use xlink:href="#Ubuntu-30" x="112.799988"/>
       <use xlink:href="#Ubuntu-30" x="169.199982"/>
       <use xlink:href="#Ubuntu-30" x="225.599976"/>
      </g>
     </g>
    </g>
    <g id="xtick_6">
     <g id="line2d_6">
      <g>
       <use xlink:href="#m1319e7d988" x="438.890937" y="146.1675" style="fill: #cccccc; stroke: #cccccc; stroke-width: 0.75"/>
      </g>
     </g>
     <g id="text_6">
      <!-- 15000 -->
      <g style="fill: #808080" transform="translate(427.609687 161.375) scale(0.08 -0.08)">
       <use xlink:href="#Ubuntu-31"/>
       <use xlink:href="#Ubuntu-35" x="56.399994"/>
       <use xlink:href="#Ubuntu-30" x="112.799988"/>
       <use xlink:href="#Ubuntu-30" x="169.199982"/>
       <use xlink:href="#Ubuntu-30" x="225.599976"/>
      </g>
     </g>
    </g>
    <g id="xtick_7">
     <g id="line2d_7">
      <g>
       <use xlink:href="#m1319e7d988" x="513.290937" y="146.1675" style="fill: #cccccc; stroke: #cccccc; stroke-width: 0.75"/>
      </g>
     </g>
     <g id="text_7">
      <!-- 20000 -->
      <g style="fill: #808080" transform="translate(502.009687 161.375) scale(0.08 -0.08)">
       <defs>
        <path id="Ubuntu-32" d="M 2989 3302 
Q 2989 3072 2896 2857 
Q 2803 2643 2649 2435 
Q 2496 2227 2304 2025 
Q 2112 1824 1920 1632 
Q 1811 1523 1667 1376 
Q 1523 1229 1395 1069 
Q 1267 909 1180 761 
Q 1094 614 1094 506 
L 3136 506 
L 3136 0 
L 448 0 
Q 442 38 442 76 
Q 442 115 442 147 
Q 442 448 541 707 
Q 640 966 800 1196 
Q 960 1427 1158 1632 
Q 1357 1837 1549 2029 
Q 1709 2182 1853 2332 
Q 1997 2483 2109 2633 
Q 2221 2784 2288 2944 
Q 2355 3104 2355 3283 
Q 2355 3475 2294 3609 
Q 2234 3744 2131 3833 
Q 2029 3923 1891 3964 
Q 1754 4006 1600 4006 
Q 1414 4006 1260 3955 
Q 1107 3904 985 3837 
Q 864 3770 781 3696 
Q 698 3622 653 3584 
L 358 4006 
Q 416 4070 531 4163 
Q 646 4256 806 4339 
Q 966 4422 1164 4480 
Q 1363 4538 1594 4538 
Q 2291 4538 2640 4214 
Q 2989 3891 2989 3302 
z
" transform="scale(0.015625)"/>
       </defs>
       <use xlink:href="#Ubuntu-32"/>
       <use xlink:href="#Ubuntu-30" x="56.399994"/>
       <use xlink:href="#Ubuntu-30" x="112.799988"/>
       <use xlink:href="#Ubuntu-30" x="169.199982"/>
       <use xlink:href="#Ubuntu-30" x="225.599976"/>
      </g>
     </g>
    </g>
   </g>
   <g id="matplotlib.axis_2">
    <g id="ytick_1">
     <g id="line2d_8">
      <defs>
       <path id="m2436c8d147" d="M 0 0 
L -3 0 
" style="stroke: #cccccc; stroke-width: 0.75"/>
      </defs>
      <g>
       <use xlink:href="#m2436c8d147" x="61.890938" y="136.1675" style="fill: #cccccc; stroke: #cccccc; stroke-width: 0.75"/>
      </g>
     </g>
     <g id="text_8">
      <!-- 0.00000 -->
      <g style="fill: #808080" transform="translate(23.848438 139.27125) scale(0.08 -0.08)">
       <defs>
        <path id="Ubuntu-2e" d="M 1216 346 
Q 1216 173 1101 45 
Q 986 -83 787 -83 
Q 589 -83 473 45 
Q 358 173 358 346 
Q 358 518 473 646 
Q 589 774 787 774 
Q 986 774 1101 646 
Q 1216 518 1216 346 
z
" transform="scale(0.015625)"/>
       </defs>
       <use xlink:href="#Ubuntu-30"/>
       <use xlink:href="#Ubuntu-2e" x="56.399994"/>
       <use xlink:href="#Ubuntu-30" x="80.999985"/>
       <use xlink:href="#Ubuntu-30" x="137.399979"/>
       <use xlink:href="#Ubuntu-30" x="193.799973"/>
       <use xlink:href="#Ubuntu-30" x="250.199966"/>
       <use xlink:href="#Ubuntu-30" x="306.59996"/>
      </g>
     </g>
    </g>
    <g id="ytick_2">
     <g id="line2d_9">
      <g>
       <use xlink:href="#m2436c8d147" x="61.890938" y="113.9915" style="fill: #cccccc; stroke: #cccccc; stroke-width: 0.75"/>
      </g>
     </g>
     <g id="text_9">
      <!-- 0.00005 -->
      <g style="fill: #808080" transform="translate(23.848438 117.09525) scale(0.08 -0.08)">
       <use xlink:href="#Ubuntu-30"/>
       <use xlink:href="#Ubuntu-2e" x="56.399994"/>
       <use xlink:href="#Ubuntu-30" x="80.999985"/>
       <use xlink:href="#Ubuntu-30" x="137.399979"/>
       <use xlink:href="#Ubuntu-30" x="193.799973"/>
       <use xlink:href="#Ubuntu-30" x="250.199966"/>
       <use xlink:href="#Ubuntu-35" x="306.59996"/>
      </g>
     </g>
    </g>
    <g id="ytick_3">
     <g id="line2d_10">
      <g>
       <use xlink:href="#m2436c8d147" x="61.890938" y="91.8155" style="fill: #cccccc; stroke: #cccccc; stroke-width: 0.75"/>
      </g>
     </g>
     <g id="text_10">
      <!-- 0.00010 -->
      <g style="fill: #808080" transform="translate(23.848438 94.91925) scale(0.08 -0.08)">
       <use xlink:href="#Ubuntu-30"/>
       <use xlink:href="#Ubuntu-2e" x="56.399994"/>
       <use xlink:href="#Ubuntu-30" x="80.999985"/>
       <use xlink:href="#Ubuntu-30" x="137.399979"/>
       <use xlink:href="#Ubuntu-30" x="193.799973"/>
       <use xlink:href="#Ubuntu-31" x="250.199966"/>
       <use xlink:href="#Ubuntu-30" x="306.59996"/>
      </g>
     </g>
    </g>
    <g id="ytick_4">
     <g id="line2d_11">
      <g>
       <use xlink:href="#m2436c8d147" x="61.890938" y="69.6395" style="fill: #cccccc; stroke: #cccccc; stroke-width: 0.75"/>
      </g>
     </g>
     <g id="text_11">
      <!-- 0.00015 -->
      <g style="fill: #808080" transform="translate(23.848438 72.74325) scale(0.08 -0.08)">
       <use xlink:href="#Ubuntu-30"/>
       <use xlink:href="#Ubuntu-2e" x="56.399994"/>
       <use xlink:href="#Ubuntu-30" x="80.999985"/>
       <use xlink:href="#Ubuntu-30" x="137.399979"/>
       <use xlink:href="#Ubuntu-30" x="193.799973"/>
       <use xlink:href="#Ubuntu-31" x="250.199966"/>
       <use xlink:href="#Ubuntu-35" x="306.59996"/>
      </g>
     </g>
    </g>
    <g id="ytick_5">
     <g id="line2d_12">
      <g>
       <use xlink:href="#m2436c8d147" x="61.890938" y="47.4635" style="fill: #cccccc; stroke: #cccccc; stroke-width: 0.75"/>
      </g>
     </g>
     <g id="text_12">
      <!-- 0.00020 -->
      <g style="fill: #808080" transform="translate(23.848438 50.56725) scale(0.08 -0.08)">
       <use xlink:href="#Ubuntu-30"/>
       <use xlink:href="#Ubuntu-2e" x="56.399994"/>
       <use xlink:href="#Ubuntu-30" x="80.999985"/>
       <use xlink:href="#Ubuntu-30" x="137.399979"/>
       <use xlink:href="#Ubuntu-30" x="193.799973"/>
       <use xlink:href="#Ubuntu-32" x="250.199966"/>
       <use xlink:href="#Ubuntu-30" x="306.59996"/>
      </g>
     </g>
    </g>
    <g id="ytick_6">
     <g id="line2d_13">
      <g>
       <use xlink:href="#m2436c8d147" x="61.890938" y="25.2875" style="fill: #cccccc; stroke: #cccccc; stroke-width: 0.75"/>
      </g>
     </g>
     <g id="text_13">
      <!-- 0.00025 -->
      <g style="fill: #808080" transform="translate(23.848438 28.39125) scale(0.08 -0.08)">
       <use xlink:href="#Ubuntu-30"/>
       <use xlink:href="#Ubuntu-2e" x="56.399994"/>
       <use xlink:href="#Ubuntu-30" x="80.999985"/>
       <use xlink:href="#Ubuntu-30" x="137.399979"/>
       <use xlink:href="#Ubuntu-30" x="193.799973"/>
       <use xlink:href="#Ubuntu-32" x="250.199966"/>
       <use xlink:href="#Ubuntu-35" x="306.59996"/>
      </g>
     </g>
    </g>
    <g id="text_14">
     <!-- Density -->
     <g style="fill: #505050" transform="translate(14.183438 58.455313) rotate(-90) scale(0.09 -0.09)">
      <defs>
       <path id="Ubuntu-Bold-44" d="M 1510 813 
Q 1581 806 1673 803 
Q 1766 800 1894 800 
Q 2643 800 3004 1177 
Q 3366 1555 3366 2221 
Q 3366 2918 3020 3276 
Q 2675 3635 1926 3635 
Q 1824 3635 1715 3632 
Q 1606 3629 1510 3616 
L 1510 813 
z
M 4397 2221 
Q 4397 1645 4217 1216 
Q 4038 787 3708 505 
Q 3379 224 2905 83 
Q 2432 -58 1843 -58 
Q 1574 -58 1216 -35 
Q 858 -13 512 58 
L 512 4378 
Q 858 4442 1232 4464 
Q 1606 4486 1875 4486 
Q 2445 4486 2909 4358 
Q 3373 4230 3705 3955 
Q 4038 3680 4217 3251 
Q 4397 2822 4397 2221 
z
" transform="scale(0.015625)"/>
       <path id="Ubuntu-Bold-65" d="M 288 1658 
Q 288 2106 425 2442 
Q 563 2778 787 3002 
Q 1011 3226 1302 3341 
Q 1594 3456 1901 3456 
Q 2618 3456 3034 3017 
Q 3450 2579 3450 1728 
Q 3450 1645 3443 1545 
Q 3437 1446 3430 1370 
L 1267 1370 
Q 1299 1075 1542 902 
Q 1786 730 2195 730 
Q 2458 730 2710 778 
Q 2963 826 3123 896 
L 3251 122 
Q 3174 83 3046 44 
Q 2918 6 2761 -22 
Q 2605 -51 2425 -70 
Q 2246 -90 2067 -90 
Q 1613 -90 1277 44 
Q 941 179 720 412 
Q 499 646 393 966 
Q 288 1286 288 1658 
z
M 2528 2022 
Q 2522 2144 2486 2259 
Q 2451 2374 2377 2464 
Q 2304 2554 2192 2611 
Q 2080 2669 1914 2669 
Q 1754 2669 1638 2614 
Q 1523 2560 1446 2470 
Q 1370 2381 1328 2262 
Q 1286 2144 1267 2022 
L 2528 2022 
z
" transform="scale(0.015625)"/>
       <path id="Ubuntu-Bold-6e" d="M 448 3251 
Q 691 3322 1075 3382 
Q 1459 3443 1882 3443 
Q 2310 3443 2595 3331 
Q 2880 3219 3046 3014 
Q 3213 2810 3283 2528 
Q 3354 2246 3354 1901 
L 3354 0 
L 2400 0 
L 2400 1786 
Q 2400 2246 2278 2438 
Q 2157 2630 1824 2630 
Q 1722 2630 1606 2620 
Q 1491 2611 1402 2598 
L 1402 0 
L 448 0 
L 448 3251 
z
" transform="scale(0.015625)"/>
       <path id="Ubuntu-Bold-73" d="M 1414 685 
Q 1677 685 1785 736 
Q 1894 787 1894 934 
Q 1894 1050 1753 1136 
Q 1613 1222 1325 1331 
Q 1101 1414 918 1504 
Q 736 1594 608 1718 
Q 480 1843 409 2016 
Q 339 2189 339 2432 
Q 339 2906 691 3181 
Q 1043 3456 1658 3456 
Q 1965 3456 2246 3401 
Q 2528 3347 2694 3283 
L 2528 2541 
Q 2362 2598 2166 2643 
Q 1971 2688 1728 2688 
Q 1280 2688 1280 2438 
Q 1280 2381 1299 2336 
Q 1318 2291 1376 2249 
Q 1434 2208 1533 2160 
Q 1632 2112 1786 2054 
Q 2099 1939 2304 1827 
Q 2509 1715 2627 1584 
Q 2746 1453 2794 1293 
Q 2842 1133 2842 922 
Q 2842 422 2467 166 
Q 2093 -90 1408 -90 
Q 960 -90 662 -13 
Q 365 64 250 115 
L 410 890 
Q 653 794 909 739 
Q 1165 685 1414 685 
z
" transform="scale(0.015625)"/>
       <path id="Ubuntu-Bold-69" d="M 1402 0 
L 448 0 
L 448 3366 
L 1402 3366 
L 1402 0 
z
M 1491 4339 
Q 1491 4077 1321 3926 
Q 1152 3776 922 3776 
Q 691 3776 521 3926 
Q 352 4077 352 4339 
Q 352 4602 521 4752 
Q 691 4902 922 4902 
Q 1152 4902 1321 4752 
Q 1491 4602 1491 4339 
z
" transform="scale(0.015625)"/>
       <path id="Ubuntu-Bold-74" d="M 416 4205 
L 1370 4358 
L 1370 3366 
L 2515 3366 
L 2515 2573 
L 1370 2573 
L 1370 1389 
Q 1370 1088 1475 909 
Q 1581 730 1901 730 
Q 2054 730 2217 758 
Q 2381 787 2515 838 
L 2650 96 
Q 2477 26 2265 -25 
Q 2054 -77 1747 -77 
Q 1357 -77 1101 28 
Q 845 134 691 323 
Q 538 512 477 781 
Q 416 1050 416 1376 
L 416 4205 
z
" transform="scale(0.015625)"/>
       <path id="Ubuntu-Bold-79" d="M 3437 3366 
Q 3149 2394 2835 1542 
Q 2522 691 2150 -109 
Q 2016 -397 1881 -598 
Q 1747 -800 1587 -931 
Q 1427 -1062 1225 -1123 
Q 1024 -1184 755 -1184 
Q 531 -1184 342 -1142 
Q 154 -1101 32 -1050 
L 198 -288 
Q 346 -339 461 -358 
Q 576 -378 704 -378 
Q 960 -378 1097 -240 
Q 1235 -102 1331 141 
Q 1005 781 678 1577 
Q 352 2374 64 3366 
L 1075 3366 
Q 1139 3117 1225 2825 
Q 1312 2534 1408 2236 
Q 1504 1939 1603 1657 
Q 1702 1376 1792 1146 
Q 1875 1376 1964 1657 
Q 2054 1939 2140 2236 
Q 2227 2534 2307 2825 
Q 2387 3117 2451 3366 
L 3437 3366 
z
" transform="scale(0.015625)"/>
      </defs>
      <use xlink:href="#Ubuntu-Bold-44"/>
      <use xlink:href="#Ubuntu-Bold-65" x="73.699982"/>
      <use xlink:href="#Ubuntu-Bold-6e" x="132.099976"/>
      <use xlink:href="#Ubuntu-Bold-73" x="190.999969"/>
      <use xlink:href="#Ubuntu-Bold-69" x="239.499954"/>
      <use xlink:href="#Ubuntu-Bold-74" x="268.399948"/>
      <use xlink:href="#Ubuntu-Bold-79" x="313.799942"/>
     </g>
    </g>
   </g>
   <g id="PolyCollection_1">
    <defs>
     <path id="mc215a300b0" d="M 94.857096 -33.888938 
L 94.857096 -33.8875 
L 96.12654 -33.8875 
L 97.395984 -33.8875 
L 98.665428 -33.8875 
L 99.934872 -33.8875 
L 101.204316 -33.8875 
L 102.47376 -33.8875 
L 103.743204 -33.8875 
L 105.012648 -33.8875 
L 106.282092 -33.8875 
L 107.551536 -33.8875 
L 108.82098 -33.8875 
L 110.090424 -33.8875 
L 111.359869 -33.8875 
L 112.629313 -33.8875 
L 113.898757 -33.8875 
L 115.168201 -33.8875 
L 116.437645 -33.8875 
L 117.707089 -33.8875 
L 118.976533 -33.8875 
L 120.245977 -33.8875 
L 121.515421 -33.8875 
L 122.784865 -33.8875 
L 124.054309 -33.8875 
L 125.323753 -33.8875 
L 126.593197 -33.8875 
L 127.862641 -33.8875 
L 129.132085 -33.8875 
L 130.40153 -33.8875 
L 131.670974 -33.8875 
L 132.940418 -33.8875 
L 134.209862 -33.8875 
L 135.479306 -33.8875 
L 136.74875 -33.8875 
L 138.018194 -33.8875 
L 139.287638 -33.8875 
L 140.557082 -33.8875 
L 141.826526 -33.8875 
L 143.09597 -33.8875 
L 144.365414 -33.8875 
L 145.634858 -33.8875 
L 146.904302 -33.8875 
L 148.173746 -33.8875 
L 149.443191 -33.8875 
L 150.712635 -33.8875 
L 151.982079 -33.8875 
L 153.251523 -33.8875 
L 154.520967 -33.8875 
L 155.790411 -33.8875 
L 157.059855 -33.8875 
L 158.329299 -33.8875 
L 159.598743 -33.8875 
L 160.868187 -33.8875 
L 162.137631 -33.8875 
L 163.407075 -33.8875 
L 164.676519 -33.8875 
L 165.945963 -33.8875 
L 167.215407 -33.8875 
L 168.484852 -33.8875 
L 169.754296 -33.8875 
L 171.02374 -33.8875 
L 172.293184 -33.8875 
L 173.562628 -33.8875 
L 174.832072 -33.8875 
L 176.101516 -33.8875 
L 177.37096 -33.8875 
L 178.640404 -33.8875 
L 179.909848 -33.8875 
L 181.179292 -33.8875 
L 182.448736 -33.8875 
L 183.71818 -33.8875 
L 184.987624 -33.8875 
L 186.257068 -33.8875 
L 187.526512 -33.8875 
L 188.795957 -33.8875 
L 190.065401 -33.8875 
L 191.334845 -33.8875 
L 192.604289 -33.8875 
L 193.873733 -33.8875 
L 195.143177 -33.8875 
L 196.412621 -33.8875 
L 197.682065 -33.8875 
L 198.951509 -33.8875 
L 200.220953 -33.8875 
L 201.490397 -33.8875 
L 202.759841 -33.8875 
L 204.029285 -33.8875 
L 205.298729 -33.8875 
L 206.568173 -33.8875 
L 207.837618 -33.8875 
L 209.107062 -33.8875 
L 210.376506 -33.8875 
L 211.64595 -33.8875 
L 212.915394 -33.8875 
L 214.184838 -33.8875 
L 215.454282 -33.8875 
L 216.723726 -33.8875 
L 217.99317 -33.8875 
L 219.262614 -33.8875 
L 220.532058 -33.8875 
L 221.801502 -33.8875 
L 223.070946 -33.8875 
L 224.34039 -33.8875 
L 225.609834 -33.8875 
L 226.879279 -33.8875 
L 228.148723 -33.8875 
L 229.418167 -33.8875 
L 230.687611 -33.8875 
L 231.957055 -33.8875 
L 233.226499 -33.8875 
L 234.495943 -33.8875 
L 235.765387 -33.8875 
L 237.034831 -33.8875 
L 238.304275 -33.8875 
L 239.573719 -33.8875 
L 240.843163 -33.8875 
L 242.112607 -33.8875 
L 243.382051 -33.8875 
L 244.651495 -33.8875 
L 245.92094 -33.8875 
L 247.190384 -33.8875 
L 248.459828 -33.8875 
L 249.729272 -33.8875 
L 250.998716 -33.8875 
L 252.26816 -33.8875 
L 253.537604 -33.8875 
L 254.807048 -33.8875 
L 256.076492 -33.8875 
L 257.345936 -33.8875 
L 258.61538 -33.8875 
L 259.884824 -33.8875 
L 261.154268 -33.8875 
L 262.423712 -33.8875 
L 263.693156 -33.8875 
L 264.962601 -33.8875 
L 266.232045 -33.8875 
L 267.501489 -33.8875 
L 268.770933 -33.8875 
L 270.040377 -33.8875 
L 271.309821 -33.8875 
L 272.579265 -33.8875 
L 273.848709 -33.8875 
L 275.118153 -33.8875 
L 276.387597 -33.8875 
L 277.657041 -33.8875 
L 278.926485 -33.8875 
L 280.195929 -33.8875 
L 281.465373 -33.8875 
L 282.734817 -33.8875 
L 284.004262 -33.8875 
L 285.273706 -33.8875 
L 286.54315 -33.8875 
L 287.812594 -33.8875 
L 289.082038 -33.8875 
L 290.351482 -33.8875 
L 291.620926 -33.8875 
L 292.89037 -33.8875 
L 294.159814 -33.8875 
L 295.429258 -33.8875 
L 296.698702 -33.8875 
L 297.968146 -33.8875 
L 299.23759 -33.8875 
L 300.507034 -33.8875 
L 301.776478 -33.8875 
L 303.045923 -33.8875 
L 304.315367 -33.8875 
L 305.584811 -33.8875 
L 306.854255 -33.8875 
L 308.123699 -33.8875 
L 309.393143 -33.8875 
L 310.662587 -33.8875 
L 311.932031 -33.8875 
L 313.201475 -33.8875 
L 314.470919 -33.8875 
L 315.740363 -33.8875 
L 317.009807 -33.8875 
L 318.279251 -33.8875 
L 319.548695 -33.8875 
L 320.818139 -33.8875 
L 322.087584 -33.8875 
L 323.357028 -33.8875 
L 324.626472 -33.8875 
L 325.895916 -33.8875 
L 327.16536 -33.8875 
L 328.434804 -33.8875 
L 329.704248 -33.8875 
L 330.973692 -33.8875 
L 332.243136 -33.8875 
L 333.51258 -33.8875 
L 334.782024 -33.8875 
L 336.051468 -33.8875 
L 337.320912 -33.8875 
L 338.590356 -33.8875 
L 339.8598 -33.8875 
L 341.129244 -33.8875 
L 342.398689 -33.8875 
L 343.668133 -33.8875 
L 344.937577 -33.8875 
L 346.207021 -33.8875 
L 347.476465 -33.8875 
L 347.476465 -33.888628 
L 347.476465 -33.888628 
L 346.207021 -33.889602 
L 344.937577 -33.891251 
L 343.668133 -33.893907 
L 342.398689 -33.89798 
L 341.129244 -33.903926 
L 339.8598 -33.912186 
L 338.590356 -33.923099 
L 337.320912 -33.936803 
L 336.051468 -33.95315 
L 334.782024 -33.971657 
L 333.51258 -33.991524 
L 332.243136 -34.011727 
L 330.973692 -34.031185 
L 329.704248 -34.048973 
L 328.434804 -34.064549 
L 327.16536 -34.077942 
L 325.895916 -34.089872 
L 324.626472 -34.101767 
L 323.357028 -34.115656 
L 322.087584 -34.133945 
L 320.818139 -34.159108 
L 319.548695 -34.193339 
L 318.279251 -34.238262 
L 317.009807 -34.294791 
L 315.740363 -34.36322 
L 314.470919 -34.443585 
L 313.201475 -34.536269 
L 311.932031 -34.642733 
L 310.662587 -34.766175 
L 309.393143 -34.911878 
L 308.123699 -35.087005 
L 306.854255 -35.299736 
L 305.584811 -35.557781 
L 304.315367 -35.866572 
L 303.045923 -36.22759 
L 301.776478 -36.637353 
L 300.507034 -37.087463 
L 299.23759 -37.565811 
L 297.968146 -38.058692 
L 296.698702 -38.553251 
L 295.429258 -39.039606 
L 294.159814 -39.512117 
L 292.89037 -39.969584 
L 291.620926 -40.414513 
L 290.351482 -40.851876 
L 289.082038 -41.287821 
L 287.812594 -41.728743 
L 286.54315 -42.180865 
L 285.273706 -42.650329 
L 284.004262 -43.143622 
L 282.734817 -43.668118 
L 281.465373 -44.232505 
L 280.195929 -44.846886 
L 278.926485 -45.522369 
L 277.657041 -46.270101 
L 276.387597 -47.099831 
L 275.118153 -48.018335 
L 273.848709 -49.028191 
L 272.579265 -50.127448 
L 271.309821 -51.310514 
L 270.040377 -52.570236 
L 268.770933 -53.900608 
L 267.501489 -55.299209 
L 266.232045 -56.768347 
L 264.962601 -58.314202 
L 263.693156 -59.943925 
L 262.423712 -61.661415 
L 261.154268 -63.463161 
L 259.884824 -65.335681 
L 258.61538 -67.255735 
L 257.345936 -69.193574 
L 256.076492 -71.11844 
L 254.807048 -73.004713 
L 253.537604 -74.836853 
L 252.26816 -76.611742 
L 250.998716 -78.337967 
L 249.729272 -80.032588 
L 248.459828 -81.716693 
L 247.190384 -83.411105 
L 245.92094 -85.133298 
L 244.651495 -86.895854 
L 243.382051 -88.706205 
L 242.112607 -90.56703 
L 240.843163 -92.476635 
L 239.573719 -94.428894 
L 238.304275 -96.412649 
L 237.034831 -98.410878 
L 235.765387 -100.40017 
L 234.495943 -102.351142 
L 233.226499 -104.230272 
L 231.957055 -106.00318 
L 230.687611 -107.638873 
L 229.418167 -109.114028 
L 228.148723 -110.4162 
L 226.879279 -111.545101 
L 225.609834 -112.511604 
L 224.34039 -113.334759 
L 223.070946 -114.037551 
L 221.801502 -114.642316 
L 220.532058 -115.166582 
L 219.262614 -115.619842 
L 217.99317 -116.001546 
L 216.723726 -116.300438 
L 215.454282 -116.495359 
L 214.184838 -116.557598 
L 212.915394 -116.454683 
L 211.64595 -116.15523 
L 210.376506 -115.634119 
L 209.107062 -114.87705 
L 207.837618 -113.883543 
L 206.568173 -112.667785 
L 205.298729 -111.2572 
L 204.029285 -109.689167 
L 202.759841 -108.006667 
L 201.490397 -106.253737 
L 200.220953 -104.471468 
L 198.951509 -102.694921 
L 197.682065 -100.951001 
L 196.412621 -99.257065 
L 195.143177 -97.620065 
L 193.873733 -96.036243 
L 192.604289 -94.491764 
L 191.334845 -92.964804 
L 190.065401 -91.42948 
L 188.795957 -89.861381 
L 187.526512 -88.243609 
L 186.257068 -86.57161 
L 184.987624 -84.855014 
L 183.71818 -83.115457 
L 182.448736 -81.380714 
L 181.179292 -79.676889 
L 179.909848 -78.021221 
L 178.640404 -76.417882 
L 177.37096 -74.858017 
L 176.101516 -73.323695 
L 174.832072 -71.794078 
L 173.562628 -70.251553 
L 172.293184 -68.685908 
L 171.02374 -67.095653 
L 169.754296 -65.486711 
L 168.484852 -63.869544 
L 167.215407 -62.255997 
L 165.945963 -60.656877 
L 164.676519 -59.080754 
L 163.407075 -57.533933 
L 162.137631 -56.021259 
L 160.868187 -54.547278 
L 159.598743 -53.117338 
L 158.329299 -51.738276 
L 157.059855 -50.418447 
L 155.790411 -49.166995 
L 154.520967 -47.992423 
L 153.251523 -46.900805 
L 151.982079 -45.894148 
L 150.712635 -44.969479 
L 149.443191 -44.119101 
L 148.173746 -43.332077 
L 146.904302 -42.596612 
L 145.634858 -41.902659 
L 144.365414 -41.243963 
L 143.09597 -40.618941 
L 141.826526 -40.030188 
L 140.557082 -39.482821 
L 139.287638 -38.982235 
L 138.018194 -38.531984 
L 136.74875 -38.132361 
L 135.479306 -37.780002 
L 134.209862 -37.468471 
L 132.940418 -37.189528 
L 131.670974 -36.934618 
L 130.40153 -36.696189 
L 129.132085 -36.468535 
L 127.862641 -36.248116 
L 126.593197 -36.033416 
L 125.323753 -35.824517 
L 124.054309 -35.622565 
L 122.784865 -35.429257 
L 121.515421 -35.246394 
L 120.245977 -35.07554 
L 118.976533 -34.917779 
L 117.707089 -34.773598 
L 116.437645 -34.642892 
L 115.168201 -34.5251 
L 113.898757 -34.419424 
L 112.629313 -34.325065 
L 111.359869 -34.241398 
L 110.090424 -34.16803 
L 108.82098 -34.104742 
L 107.551536 -34.051342 
L 106.282092 -34.007504 
L 105.012648 -33.972648 
L 103.743204 -33.945903 
L 102.47376 -33.926155 
L 101.204316 -33.912152 
L 99.934872 -33.902631 
L 98.665428 -33.896429 
L 97.395984 -33.892561 
L 96.12654 -33.890254 
L 94.857096 -33.888938 
z
" style="stroke: #5b5b5b; stroke-width: 0.01"/>
    </defs>
    <g clip-path="url(#p57cc691a3a)">
     <use xlink:href="#mc215a300b0" x="0" y="170.055" style="fill: #5b5b5b; fill-opacity: 0.25; stroke: #5b5b5b; stroke-width: 0.01"/>
    </g>
   </g>
   <g id="line2d_14">
    <path d="M 94.134478 136.165736 
L 104.698548 136.071118 
L 113.50194 135.767972 
L 118.783975 135.442396 
L 125.826688 134.769799 
L 131.108723 134.074984 
L 139.912115 132.68091 
L 145.19415 132.200131 
L 148.715506 131.872017 
L 152.236863 131.268319 
L 155.75822 130.315368 
L 161.040255 128.724769 
L 169.843647 126.469702 
L 171.604325 125.705251 
L 173.365003 124.74598 
L 175.125682 123.585968 
L 176.88636 122.216485 
L 178.647038 120.61616 
L 180.407717 118.75585 
L 182.168395 116.615917 
L 183.929073 114.20423 
L 187.45043 108.746972 
L 190.971787 102.776747 
L 194.493143 96.272335 
L 196.253822 92.696069 
L 199.775178 84.8215 
L 205.057213 72.545472 
L 206.817892 68.855863 
L 208.57857 65.504936 
L 210.339248 62.482883 
L 213.860605 57.186206 
L 217.381962 52.542406 
L 219.14264 50.459217 
L 220.903318 48.593595 
L 222.663997 47.008786 
L 224.424675 45.773584 
L 226.185353 44.953854 
L 227.946032 44.59631 
L 229.70671 44.704506 
L 231.467388 45.217349 
L 234.988745 46.899693 
L 236.749423 47.740683 
L 242.031458 49.750409 
L 243.792137 50.777875 
L 245.552815 52.415348 
L 247.313493 54.870272 
L 249.074172 58.231111 
L 250.83485 62.45542 
L 252.595528 67.394616 
L 256.116885 78.539894 
L 259.638242 89.769521 
L 261.39892 94.837984 
L 263.159598 99.284939 
L 264.920277 102.992003 
L 266.680955 105.932334 
L 268.441633 108.178323 
L 270.202312 109.883055 
L 271.96299 111.241008 
L 277.245025 114.935629 
L 280.766382 117.91772 
L 287.809095 124.407721 
L 289.569774 125.826412 
L 291.330452 127.093178 
L 293.09113 128.195335 
L 294.851809 129.128178 
L 296.612487 129.892254 
L 298.373165 130.49163 
L 300.133844 130.932603 
L 301.894522 131.223368 
L 303.6552 131.37586 
L 307.176557 131.356861 
L 312.458592 131.161592 
L 314.21927 131.260377 
L 315.979949 131.504725 
L 317.740627 131.899748 
L 321.261984 133.019761 
L 324.78334 134.186769 
L 326.544019 134.644966 
L 330.065375 135.21127 
L 333.586732 135.436641 
L 349.432837 135.887513 
L 356.47555 135.879176 
L 365.278942 135.859561 
L 384.646404 136.03661 
L 423.381327 136.08389 
L 433.945397 136.118067 
L 444.509467 136.16638 
L 444.509467 136.16638 
" clip-path="url(#p57cc691a3a)" style="fill: none; stroke: #5b5b5b; stroke-width: 1.2; stroke-linecap: square"/>
   </g>
   <g id="patch_3">
    <path d="M 61.890938 136.1675 
L 61.890938 25.2875 
" style="fill: none; stroke: #cccccc; stroke-width: 0.75; stroke-linejoin: miter; stroke-linecap: square"/>
   </g>
   <g id="patch_4">
    <path d="M 66.890938 146.1675 
L 513.290937 146.1675 
" style="fill: none; stroke: #cccccc; stroke-width: 0.75; stroke-linejoin: miter; stroke-linecap: square"/>
   </g>
   <g id="legend_1">
    <g id="line2d_15">
     <path d="M 74.090938 13.8075 
L 82.090938 13.8075 
L 90.090938 13.8075 
" style="fill: none; stroke: #5b5b5b; stroke-width: 1.2; stroke-linecap: square"/>
    </g>
    <g id="text_15">
     <!-- Residuals -->
     <g style="fill: #4b4b4b" transform="translate(96.490938 16.6075) scale(0.08 -0.08)">
      <defs>
       <path id="Ubuntu-52" d="M 2720 1856 
Q 2822 1728 2979 1520 
Q 3136 1312 3302 1059 
Q 3469 806 3632 531 
Q 3795 256 3910 0 
L 3232 0 
Q 3104 243 2953 492 
Q 2803 742 2649 969 
Q 2496 1197 2345 1395 
Q 2195 1594 2074 1741 
Q 1990 1734 1904 1734 
Q 1818 1734 1728 1734 
L 1171 1734 
L 1171 0 
L 550 0 
L 550 4371 
Q 813 4435 1136 4457 
Q 1459 4480 1728 4480 
Q 2662 4480 3152 4128 
Q 3642 3776 3642 3078 
Q 3642 2637 3408 2323 
Q 3174 2010 2720 1856 
z
M 1779 3936 
Q 1382 3936 1171 3917 
L 1171 2246 
L 1613 2246 
Q 1933 2246 2189 2278 
Q 2445 2310 2621 2400 
Q 2797 2490 2893 2653 
Q 2989 2816 2989 3085 
Q 2989 3334 2893 3500 
Q 2797 3667 2633 3763 
Q 2470 3859 2249 3897 
Q 2029 3936 1779 3936 
z
" transform="scale(0.015625)"/>
       <path id="Ubuntu-65" d="M 326 1658 
Q 326 2099 454 2428 
Q 582 2758 793 2976 
Q 1005 3194 1280 3302 
Q 1555 3411 1843 3411 
Q 2515 3411 2873 2992 
Q 3232 2573 3232 1715 
Q 3232 1677 3232 1616 
Q 3232 1555 3226 1504 
L 947 1504 
Q 986 986 1248 717 
Q 1510 448 2067 448 
Q 2381 448 2595 502 
Q 2810 557 2918 608 
L 3002 109 
Q 2893 51 2621 -13 
Q 2349 -77 2003 -77 
Q 1568 -77 1251 54 
Q 934 186 729 416 
Q 525 646 425 963 
Q 326 1280 326 1658 
z
M 2611 1984 
Q 2618 2387 2410 2646 
Q 2202 2906 1837 2906 
Q 1632 2906 1475 2826 
Q 1318 2746 1209 2618 
Q 1101 2490 1040 2323 
Q 979 2157 960 1984 
L 2611 1984 
z
" transform="scale(0.015625)"/>
       <path id="Ubuntu-73" d="M 1286 429 
Q 1651 429 1827 525 
Q 2003 621 2003 832 
Q 2003 1050 1830 1178 
Q 1658 1306 1261 1466 
Q 1069 1542 893 1622 
Q 717 1702 589 1811 
Q 461 1920 384 2073 
Q 307 2227 307 2451 
Q 307 2893 633 3152 
Q 960 3411 1523 3411 
Q 1664 3411 1805 3395 
Q 1946 3379 2067 3356 
Q 2189 3334 2281 3308 
Q 2374 3283 2426 3264 
L 2317 2752 
Q 2221 2803 2016 2857 
Q 1811 2912 1523 2912 
Q 1274 2912 1088 2813 
Q 902 2714 902 2502 
Q 902 2394 944 2310 
Q 986 2227 1072 2160 
Q 1158 2093 1286 2035 
Q 1414 1978 1594 1914 
Q 1830 1824 2016 1737 
Q 2202 1651 2333 1536 
Q 2464 1421 2534 1257 
Q 2605 1094 2605 858 
Q 2605 397 2262 160 
Q 1920 -77 1286 -77 
Q 845 -77 595 -3 
Q 346 70 256 109 
L 365 621 
Q 467 582 691 505 
Q 915 429 1286 429 
z
" transform="scale(0.015625)"/>
       <path id="Ubuntu-69" d="M 1107 0 
L 512 0 
L 512 3328 
L 1107 3328 
L 1107 0 
z
M 806 3930 
Q 646 3930 534 4035 
Q 422 4141 422 4320 
Q 422 4499 534 4604 
Q 646 4710 806 4710 
Q 966 4710 1078 4604 
Q 1190 4499 1190 4320 
Q 1190 4141 1078 4035 
Q 966 3930 806 3930 
z
" transform="scale(0.015625)"/>
       <path id="Ubuntu-64" d="M 2662 2624 
Q 2554 2714 2349 2797 
Q 2144 2880 1901 2880 
Q 1645 2880 1462 2787 
Q 1280 2694 1165 2531 
Q 1050 2368 998 2144 
Q 947 1920 947 1664 
Q 947 1082 1235 765 
Q 1523 448 2003 448 
Q 2246 448 2409 470 
Q 2573 493 2662 518 
L 2662 2624 
z
M 2662 4864 
L 3258 4966 
L 3258 96 
Q 3053 38 2733 -19 
Q 2413 -77 1997 -77 
Q 1613 -77 1305 44 
Q 998 166 780 390 
Q 563 614 444 937 
Q 326 1261 326 1664 
Q 326 2048 425 2368 
Q 525 2688 717 2918 
Q 909 3149 1187 3277 
Q 1466 3405 1824 3405 
Q 2112 3405 2333 3328 
Q 2554 3251 2662 3181 
L 2662 4864 
z
" transform="scale(0.015625)"/>
       <path id="Ubuntu-75" d="M 3162 96 
Q 2957 45 2621 -12 
Q 2285 -70 1843 -70 
Q 1459 -70 1196 42 
Q 934 154 774 358 
Q 614 563 544 841 
Q 474 1120 474 1459 
L 474 3328 
L 1069 3328 
L 1069 1587 
Q 1069 979 1261 716 
Q 1453 454 1907 454 
Q 2003 454 2105 460 
Q 2208 467 2297 476 
Q 2387 486 2460 496 
Q 2534 506 2566 518 
L 2566 3328 
L 3162 3328 
L 3162 96 
z
" transform="scale(0.015625)"/>
       <path id="Ubuntu-61" d="M 1638 429 
Q 1850 429 2013 438 
Q 2176 448 2285 474 
L 2285 1466 
Q 2221 1498 2077 1520 
Q 1933 1542 1728 1542 
Q 1594 1542 1443 1523 
Q 1293 1504 1168 1443 
Q 1043 1382 960 1276 
Q 877 1171 877 998 
Q 877 678 1081 553 
Q 1286 429 1638 429 
z
M 1587 3411 
Q 1946 3411 2192 3318 
Q 2438 3226 2588 3056 
Q 2739 2886 2803 2652 
Q 2867 2419 2867 2138 
L 2867 58 
Q 2790 45 2652 22 
Q 2515 0 2342 -19 
Q 2170 -38 1968 -54 
Q 1766 -70 1568 -70 
Q 1286 -70 1049 -12 
Q 813 45 640 169 
Q 467 294 371 499 
Q 275 704 275 992 
Q 275 1267 387 1465 
Q 499 1664 691 1785 
Q 883 1907 1139 1964 
Q 1395 2022 1677 2022 
Q 1766 2022 1862 2012 
Q 1958 2003 2044 1987 
Q 2131 1971 2195 1958 
Q 2259 1946 2285 1939 
L 2285 2106 
Q 2285 2253 2253 2397 
Q 2221 2541 2137 2653 
Q 2054 2765 1910 2832 
Q 1766 2899 1536 2899 
Q 1242 2899 1021 2857 
Q 800 2816 691 2771 
L 621 3264 
Q 736 3315 1005 3363 
Q 1274 3411 1587 3411 
z
" transform="scale(0.015625)"/>
       <path id="Ubuntu-6c" d="M 1510 -64 
Q 960 -51 729 173 
Q 499 397 499 870 
L 499 4864 
L 1094 4966 
L 1094 966 
Q 1094 819 1120 723 
Q 1146 627 1203 569 
Q 1261 512 1357 483 
Q 1453 454 1594 435 
L 1510 -64 
z
" transform="scale(0.015625)"/>
      </defs>
      <use xlink:href="#Ubuntu-52"/>
      <use xlink:href="#Ubuntu-65" x="62.899994"/>
      <use xlink:href="#Ubuntu-73" x="118.799988"/>
      <use xlink:href="#Ubuntu-69" x="163.399979"/>
      <use xlink:href="#Ubuntu-64" x="188.699966"/>
      <use xlink:href="#Ubuntu-75" x="247.59996"/>
      <use xlink:href="#Ubuntu-61" x="304.999954"/>
      <use xlink:href="#Ubuntu-6c" x="357.199951"/>
      <use xlink:href="#Ubuntu-73" x="384.499939"/>
     </g>
    </g>
    <g id="patch_5">
     <path d="M 146.819687 16.6075 
L 162.819687 16.6075 
L 162.819687 11.0075 
L 146.819687 11.0075 
z
" style="fill: #5b5b5b; fill-opacity: 0.25; stroke: #5b5b5b; stroke-width: 0.01; stroke-linejoin: miter"/>
    </g>
    <g id="text_16">
     <!-- Normal -->
     <g style="fill: #4b4b4b" transform="translate(169.219687 16.6075) scale(0.08 -0.08)">
      <defs>
       <path id="Ubuntu-4e" d="M 3590 0 
Q 3450 237 3267 531 
Q 3085 826 2873 1142 
Q 2662 1459 2435 1785 
Q 2208 2112 1984 2416 
Q 1760 2720 1549 2989 
Q 1338 3258 1158 3462 
L 1158 0 
L 550 0 
L 550 4435 
L 1043 4435 
Q 1344 4115 1686 3689 
Q 2029 3264 2365 2813 
Q 2701 2362 2998 1926 
Q 3296 1491 3501 1152 
L 3501 4435 
L 4109 4435 
L 4109 0 
L 3590 0 
z
" transform="scale(0.015625)"/>
       <path id="Ubuntu-6f" d="M 3450 1664 
Q 3450 1267 3334 947 
Q 3219 627 3011 396 
Q 2803 166 2515 41 
Q 2227 -83 1888 -83 
Q 1549 -83 1261 41 
Q 973 166 765 396 
Q 557 627 441 947 
Q 326 1267 326 1664 
Q 326 2054 441 2377 
Q 557 2701 765 2931 
Q 973 3162 1261 3286 
Q 1549 3411 1888 3411 
Q 2227 3411 2515 3286 
Q 2803 3162 3011 2931 
Q 3219 2701 3334 2377 
Q 3450 2054 3450 1664 
z
M 2829 1664 
Q 2829 2227 2576 2556 
Q 2323 2886 1888 2886 
Q 1453 2886 1200 2556 
Q 947 2227 947 1664 
Q 947 1101 1200 771 
Q 1453 442 1888 442 
Q 2323 442 2576 771 
Q 2829 1101 2829 1664 
z
" transform="scale(0.015625)"/>
       <path id="Ubuntu-72" d="M 1741 3398 
Q 1818 3398 1917 3388 
Q 2016 3379 2112 3363 
Q 2208 3347 2288 3331 
Q 2368 3315 2406 3302 
L 2304 2784 
Q 2234 2810 2070 2845 
Q 1907 2880 1651 2880 
Q 1485 2880 1321 2845 
Q 1158 2810 1107 2797 
L 1107 0 
L 512 0 
L 512 3187 
Q 723 3264 1036 3331 
Q 1350 3398 1741 3398 
z
" transform="scale(0.015625)"/>
       <path id="Ubuntu-6d" d="M 512 3232 
Q 717 3283 1053 3340 
Q 1389 3398 1830 3398 
Q 2150 3398 2368 3312 
Q 2586 3226 2733 3059 
Q 2778 3091 2874 3148 
Q 2970 3206 3110 3260 
Q 3251 3315 3424 3356 
Q 3597 3398 3795 3398 
Q 4179 3398 4422 3286 
Q 4666 3174 4803 2969 
Q 4941 2765 4989 2483 
Q 5037 2202 5037 1869 
L 5037 0 
L 4442 0 
L 4442 1741 
Q 4442 2035 4413 2246 
Q 4384 2458 4304 2598 
Q 4224 2739 4086 2806 
Q 3949 2874 3731 2874 
Q 3430 2874 3235 2794 
Q 3040 2714 2970 2650 
Q 3021 2483 3046 2284 
Q 3072 2086 3072 1869 
L 3072 0 
L 2477 0 
L 2477 1741 
Q 2477 2035 2445 2246 
Q 2413 2458 2333 2598 
Q 2253 2739 2115 2806 
Q 1978 2874 1766 2874 
Q 1677 2874 1574 2867 
Q 1472 2861 1379 2851 
Q 1286 2842 1209 2829 
Q 1133 2816 1107 2810 
L 1107 0 
L 512 0 
L 512 3232 
z
" transform="scale(0.015625)"/>
      </defs>
      <use xlink:href="#Ubuntu-4e"/>
      <use xlink:href="#Ubuntu-6f" x="72.799988"/>
      <use xlink:href="#Ubuntu-72" x="131.799973"/>
      <use xlink:href="#Ubuntu-6d" x="170.399963"/>
      <use xlink:href="#Ubuntu-61" x="256.499954"/>
      <use xlink:href="#Ubuntu-6c" x="308.699951"/>
     </g>
    </g>
   </g>
  </g>
 </g>
 <defs>
  <clipPath id="p57cc691a3a">
   <rect x="66.890938" y="25.2875" width="446.4" height="110.88"/>
  </clipPath>
 </defs>
</svg>
