<?xml version="1.0" encoding="utf-8" standalone="no"?>
<!DOCTYPE svg PUBLIC "-//W3C//DTD SVG 1.1//EN"
  "http://www.w3.org/Graphics/SVG/1.1/DTD/svg11.dtd">
<svg xmlns:xlink="http://www.w3.org/1999/xlink" width="531.772187pt" height="197.775pt" viewBox="0 0 531.772187 197.775" xmlns="http://www.w3.org/2000/svg" version="1.1">
 <metadata>
  <rdf:RDF xmlns:dc="http://purl.org/dc/elements/1.1/" xmlns:cc="http://creativecommons.org/ns#" xmlns:rdf="http://www.w3.org/1999/02/22-rdf-syntax-ns#">
   <cc:Work>
    <dc:type rdf:resource="http://purl.org/dc/dcmitype/StillImage"/>
    <dc:date>2024-04-23T17:09:19.003648</dc:date>
    <dc:format>image/svg+xml</dc:format>
    <dc:creator>
     <cc:Agent>
      <dc:title>Matplotlib v3.8.3, https://matplotlib.org/</dc:title>
     </cc:Agent>
    </dc:creator>
   </cc:Work>
  </rdf:RDF>
 </metadata>
 <defs>
  <style type="text/css">*{stroke-linejoin: round; stroke-linecap: butt}</style>
 </defs>
 <g id="figure_1">
  <g id="patch_1">
   <path d="M 0 197.775 
L 531.772187 197.775 
L 531.772187 -0 
L 0 -0 
L 0 197.775 
z
" style="fill: none"/>
  </g>
  <g id="axes_1">
   <g id="patch_2">
    <path d="M 66.890938 163.8875 
L 513.290937 163.8875 
L 513.290937 25.2875 
L 66.890938 25.2875 
L 66.890938 163.8875 
z
" style="fill: none"/>
   </g>
   <g id="matplotlib.axis_1">
    <g id="xtick_1">
     <g id="line2d_1">
      <defs>
       <path id="m6a09c5ef6e" d="M 0 0 
L 0 3 
" style="stroke: #cccccc; stroke-width: 0.75"/>
      </defs>
      <g>
       <use xlink:href="#m6a09c5ef6e" x="66.890937" y="173.8875" style="fill: #cccccc; stroke: #cccccc; stroke-width: 0.75"/>
      </g>
     </g>
     <g id="text_1">
      <!-- −15000 -->
      <g style="fill: #808080" transform="translate(53.353437 189.095) scale(0.08 -0.08)">
       <defs>
        <path id="Ubuntu-2212" d="M 339 2138 
L 3270 2138 
L 3270 1632 
L 339 1632 
L 339 2138 
z
" transform="scale(0.015625)"/>
        <path id="Ubuntu-31" d="M 595 3520 
Q 960 3661 1305 3881 
Q 1651 4102 1939 4435 
L 2362 4435 
L 2362 0 
L 1766 0 
L 1766 3610 
Q 1690 3539 1578 3462 
Q 1466 3386 1334 3315 
Q 1203 3245 1059 3181 
Q 915 3117 781 3072 
L 595 3520 
z
" transform="scale(0.015625)"/>
        <path id="Ubuntu-35" d="M 1274 2726 
Q 2240 2688 2691 2304 
Q 3142 1920 3142 1261 
Q 3142 966 3043 716 
Q 2944 467 2742 288 
Q 2541 109 2233 6 
Q 1926 -96 1504 -96 
Q 1338 -96 1165 -70 
Q 992 -45 845 -6 
Q 698 32 582 70 
Q 467 109 416 134 
L 531 653 
Q 640 602 886 518 
Q 1133 435 1491 435 
Q 1779 435 1974 499 
Q 2170 563 2291 672 
Q 2413 781 2467 925 
Q 2522 1069 2522 1229 
Q 2522 1472 2438 1661 
Q 2355 1850 2144 1978 
Q 1933 2106 1581 2173 
Q 1229 2240 691 2240 
Q 730 2554 752 2829 
Q 774 3104 793 3366 
Q 813 3629 825 3888 
Q 838 4147 851 4435 
L 2989 4435 
L 2989 3930 
L 1370 3930 
Q 1363 3834 1350 3670 
Q 1338 3507 1325 3331 
Q 1312 3155 1299 2988 
Q 1286 2822 1274 2726 
z
" transform="scale(0.015625)"/>
        <path id="Ubuntu-30" d="M 320 2221 
Q 320 3334 713 3936 
Q 1107 4538 1805 4538 
Q 2502 4538 2896 3936 
Q 3290 3334 3290 2221 
Q 3290 1107 2896 505 
Q 2502 -96 1805 -96 
Q 1107 -96 713 505 
Q 320 1107 320 2221 
z
M 2662 2221 
Q 2662 2586 2620 2912 
Q 2579 3238 2480 3481 
Q 2381 3725 2214 3869 
Q 2048 4013 1805 4013 
Q 1562 4013 1395 3869 
Q 1229 3725 1129 3481 
Q 1030 3238 988 2912 
Q 947 2586 947 2221 
Q 947 1856 988 1529 
Q 1030 1203 1129 960 
Q 1229 717 1395 573 
Q 1562 429 1805 429 
Q 2048 429 2214 573 
Q 2381 717 2480 960 
Q 2579 1203 2620 1529 
Q 2662 1856 2662 2221 
z
" transform="scale(0.015625)"/>
       </defs>
       <use xlink:href="#Ubuntu-2212"/>
       <use xlink:href="#Ubuntu-31" x="56.399994"/>
       <use xlink:href="#Ubuntu-35" x="112.799988"/>
       <use xlink:href="#Ubuntu-30" x="169.199982"/>
       <use xlink:href="#Ubuntu-30" x="225.599976"/>
       <use xlink:href="#Ubuntu-30" x="281.999969"/>
      </g>
     </g>
    </g>
    <g id="xtick_2">
     <g id="line2d_2">
      <g>
       <use xlink:href="#m6a09c5ef6e" x="130.662366" y="173.8875" style="fill: #cccccc; stroke: #cccccc; stroke-width: 0.75"/>
      </g>
     </g>
     <g id="text_2">
      <!-- −10000 -->
      <g style="fill: #808080" transform="translate(117.124866 189.095) scale(0.08 -0.08)">
       <use xlink:href="#Ubuntu-2212"/>
       <use xlink:href="#Ubuntu-31" x="56.399994"/>
       <use xlink:href="#Ubuntu-30" x="112.799988"/>
       <use xlink:href="#Ubuntu-30" x="169.199982"/>
       <use xlink:href="#Ubuntu-30" x="225.599976"/>
       <use xlink:href="#Ubuntu-30" x="281.999969"/>
      </g>
     </g>
    </g>
    <g id="xtick_3">
     <g id="line2d_3">
      <g>
       <use xlink:href="#m6a09c5ef6e" x="194.433795" y="173.8875" style="fill: #cccccc; stroke: #cccccc; stroke-width: 0.75"/>
      </g>
     </g>
     <g id="text_3">
      <!-- −5000 -->
      <g style="fill: #808080" transform="translate(183.152545 189.095) scale(0.08 -0.08)">
       <use xlink:href="#Ubuntu-2212"/>
       <use xlink:href="#Ubuntu-35" x="56.399994"/>
       <use xlink:href="#Ubuntu-30" x="112.799988"/>
       <use xlink:href="#Ubuntu-30" x="169.199982"/>
       <use xlink:href="#Ubuntu-30" x="225.599976"/>
      </g>
     </g>
    </g>
    <g id="xtick_4">
     <g id="line2d_4">
      <g>
       <use xlink:href="#m6a09c5ef6e" x="258.205223" y="173.8875" style="fill: #cccccc; stroke: #cccccc; stroke-width: 0.75"/>
      </g>
     </g>
     <g id="text_4">
      <!-- 0 -->
      <g style="fill: #808080" transform="translate(255.948973 189.095) scale(0.08 -0.08)">
       <use xlink:href="#Ubuntu-30"/>
      </g>
     </g>
    </g>
    <g id="xtick_5">
     <g id="line2d_5">
      <g>
       <use xlink:href="#m6a09c5ef6e" x="321.976652" y="173.8875" style="fill: #cccccc; stroke: #cccccc; stroke-width: 0.75"/>
      </g>
     </g>
     <g id="text_5">
      <!-- 5000 -->
      <g style="fill: #808080" transform="translate(312.951652 189.095) scale(0.08 -0.08)">
       <use xlink:href="#Ubuntu-35"/>
       <use xlink:href="#Ubuntu-30" x="56.399994"/>
       <use xlink:href="#Ubuntu-30" x="112.799988"/>
       <use xlink:href="#Ubuntu-30" x="169.199982"/>
      </g>
     </g>
    </g>
    <g id="xtick_6">
     <g id="line2d_6">
      <g>
       <use xlink:href="#m6a09c5ef6e" x="385.74808" y="173.8875" style="fill: #cccccc; stroke: #cccccc; stroke-width: 0.75"/>
      </g>
     </g>
     <g id="text_6">
      <!-- 10000 -->
      <g style="fill: #808080" transform="translate(374.46683 189.095) scale(0.08 -0.08)">
       <use xlink:href="#Ubuntu-31"/>
       <use xlink:href="#Ubuntu-30" x="56.399994"/>
       <use xlink:href="#Ubuntu-30" x="112.799988"/>
       <use xlink:href="#Ubuntu-30" x="169.199982"/>
       <use xlink:href="#Ubuntu-30" x="225.599976"/>
      </g>
     </g>
    </g>
    <g id="xtick_7">
     <g id="line2d_7">
      <g>
       <use xlink:href="#m6a09c5ef6e" x="449.519509" y="173.8875" style="fill: #cccccc; stroke: #cccccc; stroke-width: 0.75"/>
      </g>
     </g>
     <g id="text_7">
      <!-- 15000 -->
      <g style="fill: #808080" transform="translate(438.238259 189.095) scale(0.08 -0.08)">
       <use xlink:href="#Ubuntu-31"/>
       <use xlink:href="#Ubuntu-35" x="56.399994"/>
       <use xlink:href="#Ubuntu-30" x="112.799988"/>
       <use xlink:href="#Ubuntu-30" x="169.199982"/>
       <use xlink:href="#Ubuntu-30" x="225.599976"/>
      </g>
     </g>
    </g>
    <g id="xtick_8">
     <g id="line2d_8">
      <g>
       <use xlink:href="#m6a09c5ef6e" x="513.290937" y="173.8875" style="fill: #cccccc; stroke: #cccccc; stroke-width: 0.75"/>
      </g>
     </g>
     <g id="text_8">
      <!-- 20000 -->
      <g style="fill: #808080" transform="translate(502.009687 189.095) scale(0.08 -0.08)">
       <defs>
        <path id="Ubuntu-32" d="M 2989 3302 
Q 2989 3072 2896 2857 
Q 2803 2643 2649 2435 
Q 2496 2227 2304 2025 
Q 2112 1824 1920 1632 
Q 1811 1523 1667 1376 
Q 1523 1229 1395 1069 
Q 1267 909 1180 761 
Q 1094 614 1094 506 
L 3136 506 
L 3136 0 
L 448 0 
Q 442 38 442 76 
Q 442 115 442 147 
Q 442 448 541 707 
Q 640 966 800 1196 
Q 960 1427 1158 1632 
Q 1357 1837 1549 2029 
Q 1709 2182 1853 2332 
Q 1997 2483 2109 2633 
Q 2221 2784 2288 2944 
Q 2355 3104 2355 3283 
Q 2355 3475 2294 3609 
Q 2234 3744 2131 3833 
Q 2029 3923 1891 3964 
Q 1754 4006 1600 4006 
Q 1414 4006 1260 3955 
Q 1107 3904 985 3837 
Q 864 3770 781 3696 
Q 698 3622 653 3584 
L 358 4006 
Q 416 4070 531 4163 
Q 646 4256 806 4339 
Q 966 4422 1164 4480 
Q 1363 4538 1594 4538 
Q 2291 4538 2640 4214 
Q 2989 3891 2989 3302 
z
" transform="scale(0.015625)"/>
       </defs>
       <use xlink:href="#Ubuntu-32"/>
       <use xlink:href="#Ubuntu-30" x="56.399994"/>
       <use xlink:href="#Ubuntu-30" x="112.799988"/>
       <use xlink:href="#Ubuntu-30" x="169.199982"/>
       <use xlink:href="#Ubuntu-30" x="225.599976"/>
      </g>
     </g>
    </g>
   </g>
   <g id="matplotlib.axis_2">
    <g id="ytick_1">
     <g id="line2d_9">
      <defs>
       <path id="m3e6ba04add" d="M 0 0 
L -3 0 
" style="stroke: #cccccc; stroke-width: 0.75"/>
      </defs>
      <g>
       <use xlink:href="#m3e6ba04add" x="61.890938" y="163.8875" style="fill: #cccccc; stroke: #cccccc; stroke-width: 0.75"/>
      </g>
     </g>
     <g id="text_9">
      <!-- 0.00000 -->
      <g style="fill: #808080" transform="translate(23.848438 166.99125) scale(0.08 -0.08)">
       <defs>
        <path id="Ubuntu-2e" d="M 1216 346 
Q 1216 173 1101 45 
Q 986 -83 787 -83 
Q 589 -83 473 45 
Q 358 173 358 346 
Q 358 518 473 646 
Q 589 774 787 774 
Q 986 774 1101 646 
Q 1216 518 1216 346 
z
" transform="scale(0.015625)"/>
       </defs>
       <use xlink:href="#Ubuntu-30"/>
       <use xlink:href="#Ubuntu-2e" x="56.399994"/>
       <use xlink:href="#Ubuntu-30" x="80.999985"/>
       <use xlink:href="#Ubuntu-30" x="137.399979"/>
       <use xlink:href="#Ubuntu-30" x="193.799973"/>
       <use xlink:href="#Ubuntu-30" x="250.199966"/>
       <use xlink:href="#Ubuntu-30" x="306.59996"/>
      </g>
     </g>
    </g>
    <g id="ytick_2">
     <g id="line2d_10">
      <g>
       <use xlink:href="#m3e6ba04add" x="61.890938" y="136.1675" style="fill: #cccccc; stroke: #cccccc; stroke-width: 0.75"/>
      </g>
     </g>
     <g id="text_10">
      <!-- 0.00005 -->
      <g style="fill: #808080" transform="translate(23.848438 139.27125) scale(0.08 -0.08)">
       <use xlink:href="#Ubuntu-30"/>
       <use xlink:href="#Ubuntu-2e" x="56.399994"/>
       <use xlink:href="#Ubuntu-30" x="80.999985"/>
       <use xlink:href="#Ubuntu-30" x="137.399979"/>
       <use xlink:href="#Ubuntu-30" x="193.799973"/>
       <use xlink:href="#Ubuntu-30" x="250.199966"/>
       <use xlink:href="#Ubuntu-35" x="306.59996"/>
      </g>
     </g>
    </g>
    <g id="ytick_3">
     <g id="line2d_11">
      <g>
       <use xlink:href="#m3e6ba04add" x="61.890938" y="108.4475" style="fill: #cccccc; stroke: #cccccc; stroke-width: 0.75"/>
      </g>
     </g>
     <g id="text_11">
      <!-- 0.00010 -->
      <g style="fill: #808080" transform="translate(23.848438 111.55125) scale(0.08 -0.08)">
       <use xlink:href="#Ubuntu-30"/>
       <use xlink:href="#Ubuntu-2e" x="56.399994"/>
       <use xlink:href="#Ubuntu-30" x="80.999985"/>
       <use xlink:href="#Ubuntu-30" x="137.399979"/>
       <use xlink:href="#Ubuntu-30" x="193.799973"/>
       <use xlink:href="#Ubuntu-31" x="250.199966"/>
       <use xlink:href="#Ubuntu-30" x="306.59996"/>
      </g>
     </g>
    </g>
    <g id="ytick_4">
     <g id="line2d_12">
      <g>
       <use xlink:href="#m3e6ba04add" x="61.890938" y="80.7275" style="fill: #cccccc; stroke: #cccccc; stroke-width: 0.75"/>
      </g>
     </g>
     <g id="text_12">
      <!-- 0.00015 -->
      <g style="fill: #808080" transform="translate(23.848438 83.83125) scale(0.08 -0.08)">
       <use xlink:href="#Ubuntu-30"/>
       <use xlink:href="#Ubuntu-2e" x="56.399994"/>
       <use xlink:href="#Ubuntu-30" x="80.999985"/>
       <use xlink:href="#Ubuntu-30" x="137.399979"/>
       <use xlink:href="#Ubuntu-30" x="193.799973"/>
       <use xlink:href="#Ubuntu-31" x="250.199966"/>
       <use xlink:href="#Ubuntu-35" x="306.59996"/>
      </g>
     </g>
    </g>
    <g id="ytick_5">
     <g id="line2d_13">
      <g>
       <use xlink:href="#m3e6ba04add" x="61.890938" y="53.0075" style="fill: #cccccc; stroke: #cccccc; stroke-width: 0.75"/>
      </g>
     </g>
     <g id="text_13">
      <!-- 0.00020 -->
      <g style="fill: #808080" transform="translate(23.848438 56.11125) scale(0.08 -0.08)">
       <use xlink:href="#Ubuntu-30"/>
       <use xlink:href="#Ubuntu-2e" x="56.399994"/>
       <use xlink:href="#Ubuntu-30" x="80.999985"/>
       <use xlink:href="#Ubuntu-30" x="137.399979"/>
       <use xlink:href="#Ubuntu-30" x="193.799973"/>
       <use xlink:href="#Ubuntu-32" x="250.199966"/>
       <use xlink:href="#Ubuntu-30" x="306.59996"/>
      </g>
     </g>
    </g>
    <g id="ytick_6">
     <g id="line2d_14">
      <g>
       <use xlink:href="#m3e6ba04add" x="61.890938" y="25.2875" style="fill: #cccccc; stroke: #cccccc; stroke-width: 0.75"/>
      </g>
     </g>
     <g id="text_14">
      <!-- 0.00025 -->
      <g style="fill: #808080" transform="translate(23.848438 28.39125) scale(0.08 -0.08)">
       <use xlink:href="#Ubuntu-30"/>
       <use xlink:href="#Ubuntu-2e" x="56.399994"/>
       <use xlink:href="#Ubuntu-30" x="80.999985"/>
       <use xlink:href="#Ubuntu-30" x="137.399979"/>
       <use xlink:href="#Ubuntu-30" x="193.799973"/>
       <use xlink:href="#Ubuntu-32" x="250.199966"/>
       <use xlink:href="#Ubuntu-35" x="306.59996"/>
      </g>
     </g>
    </g>
    <g id="text_15">
     <!-- Density -->
     <g style="fill: #505050" transform="translate(14.183438 58.455312) rotate(-90) scale(0.09 -0.09)">
      <defs>
       <path id="Ubuntu-Bold-44" d="M 1510 813 
Q 1581 806 1673 803 
Q 1766 800 1894 800 
Q 2643 800 3004 1177 
Q 3366 1555 3366 2221 
Q 3366 2918 3020 3276 
Q 2675 3635 1926 3635 
Q 1824 3635 1715 3632 
Q 1606 3629 1510 3616 
L 1510 813 
z
M 4397 2221 
Q 4397 1645 4217 1216 
Q 4038 787 3708 505 
Q 3379 224 2905 83 
Q 2432 -58 1843 -58 
Q 1574 -58 1216 -35 
Q 858 -13 512 58 
L 512 4378 
Q 858 4442 1232 4464 
Q 1606 4486 1875 4486 
Q 2445 4486 2909 4358 
Q 3373 4230 3705 3955 
Q 4038 3680 4217 3251 
Q 4397 2822 4397 2221 
z
" transform="scale(0.015625)"/>
       <path id="Ubuntu-Bold-65" d="M 288 1658 
Q 288 2106 425 2442 
Q 563 2778 787 3002 
Q 1011 3226 1302 3341 
Q 1594 3456 1901 3456 
Q 2618 3456 3034 3017 
Q 3450 2579 3450 1728 
Q 3450 1645 3443 1545 
Q 3437 1446 3430 1370 
L 1267 1370 
Q 1299 1075 1542 902 
Q 1786 730 2195 730 
Q 2458 730 2710 778 
Q 2963 826 3123 896 
L 3251 122 
Q 3174 83 3046 44 
Q 2918 6 2761 -22 
Q 2605 -51 2425 -70 
Q 2246 -90 2067 -90 
Q 1613 -90 1277 44 
Q 941 179 720 412 
Q 499 646 393 966 
Q 288 1286 288 1658 
z
M 2528 2022 
Q 2522 2144 2486 2259 
Q 2451 2374 2377 2464 
Q 2304 2554 2192 2611 
Q 2080 2669 1914 2669 
Q 1754 2669 1638 2614 
Q 1523 2560 1446 2470 
Q 1370 2381 1328 2262 
Q 1286 2144 1267 2022 
L 2528 2022 
z
" transform="scale(0.015625)"/>
       <path id="Ubuntu-Bold-6e" d="M 448 3251 
Q 691 3322 1075 3382 
Q 1459 3443 1882 3443 
Q 2310 3443 2595 3331 
Q 2880 3219 3046 3014 
Q 3213 2810 3283 2528 
Q 3354 2246 3354 1901 
L 3354 0 
L 2400 0 
L 2400 1786 
Q 2400 2246 2278 2438 
Q 2157 2630 1824 2630 
Q 1722 2630 1606 2620 
Q 1491 2611 1402 2598 
L 1402 0 
L 448 0 
L 448 3251 
z
" transform="scale(0.015625)"/>
       <path id="Ubuntu-Bold-73" d="M 1414 685 
Q 1677 685 1785 736 
Q 1894 787 1894 934 
Q 1894 1050 1753 1136 
Q 1613 1222 1325 1331 
Q 1101 1414 918 1504 
Q 736 1594 608 1718 
Q 480 1843 409 2016 
Q 339 2189 339 2432 
Q 339 2906 691 3181 
Q 1043 3456 1658 3456 
Q 1965 3456 2246 3401 
Q 2528 3347 2694 3283 
L 2528 2541 
Q 2362 2598 2166 2643 
Q 1971 2688 1728 2688 
Q 1280 2688 1280 2438 
Q 1280 2381 1299 2336 
Q 1318 2291 1376 2249 
Q 1434 2208 1533 2160 
Q 1632 2112 1786 2054 
Q 2099 1939 2304 1827 
Q 2509 1715 2627 1584 
Q 2746 1453 2794 1293 
Q 2842 1133 2842 922 
Q 2842 422 2467 166 
Q 2093 -90 1408 -90 
Q 960 -90 662 -13 
Q 365 64 250 115 
L 410 890 
Q 653 794 909 739 
Q 1165 685 1414 685 
z
" transform="scale(0.015625)"/>
       <path id="Ubuntu-Bold-69" d="M 1402 0 
L 448 0 
L 448 3366 
L 1402 3366 
L 1402 0 
z
M 1491 4339 
Q 1491 4077 1321 3926 
Q 1152 3776 922 3776 
Q 691 3776 521 3926 
Q 352 4077 352 4339 
Q 352 4602 521 4752 
Q 691 4902 922 4902 
Q 1152 4902 1321 4752 
Q 1491 4602 1491 4339 
z
" transform="scale(0.015625)"/>
       <path id="Ubuntu-Bold-74" d="M 416 4205 
L 1370 4358 
L 1370 3366 
L 2515 3366 
L 2515 2573 
L 1370 2573 
L 1370 1389 
Q 1370 1088 1475 909 
Q 1581 730 1901 730 
Q 2054 730 2217 758 
Q 2381 787 2515 838 
L 2650 96 
Q 2477 26 2265 -25 
Q 2054 -77 1747 -77 
Q 1357 -77 1101 28 
Q 845 134 691 323 
Q 538 512 477 781 
Q 416 1050 416 1376 
L 416 4205 
z
" transform="scale(0.015625)"/>
       <path id="Ubuntu-Bold-79" d="M 3437 3366 
Q 3149 2394 2835 1542 
Q 2522 691 2150 -109 
Q 2016 -397 1881 -598 
Q 1747 -800 1587 -931 
Q 1427 -1062 1225 -1123 
Q 1024 -1184 755 -1184 
Q 531 -1184 342 -1142 
Q 154 -1101 32 -1050 
L 198 -288 
Q 346 -339 461 -358 
Q 576 -378 704 -378 
Q 960 -378 1097 -240 
Q 1235 -102 1331 141 
Q 1005 781 678 1577 
Q 352 2374 64 3366 
L 1075 3366 
Q 1139 3117 1225 2825 
Q 1312 2534 1408 2236 
Q 1504 1939 1603 1657 
Q 1702 1376 1792 1146 
Q 1875 1376 1964 1657 
Q 2054 1939 2140 2236 
Q 2227 2534 2307 2825 
Q 2387 3117 2451 3366 
L 3437 3366 
z
" transform="scale(0.015625)"/>
      </defs>
      <use xlink:href="#Ubuntu-Bold-44"/>
      <use xlink:href="#Ubuntu-Bold-65" x="73.699982"/>
      <use xlink:href="#Ubuntu-Bold-6e" x="132.099976"/>
      <use xlink:href="#Ubuntu-Bold-73" x="190.999969"/>
      <use xlink:href="#Ubuntu-Bold-69" x="239.499954"/>
      <use xlink:href="#Ubuntu-Bold-74" x="268.399948"/>
      <use xlink:href="#Ubuntu-Bold-79" x="313.799942"/>
     </g>
    </g>
   </g>
   <g id="PolyCollection_1">
    <defs>
     <path id="m741fd8e665" d="M 139.131559 -33.888874 
L 139.131559 -33.8875 
L 140.394878 -33.8875 
L 141.658196 -33.8875 
L 142.921515 -33.8875 
L 144.184833 -33.8875 
L 145.448152 -33.8875 
L 146.71147 -33.8875 
L 147.974789 -33.8875 
L 149.238107 -33.8875 
L 150.501426 -33.8875 
L 151.764744 -33.8875 
L 153.028062 -33.8875 
L 154.291381 -33.8875 
L 155.554699 -33.8875 
L 156.818018 -33.8875 
L 158.081336 -33.8875 
L 159.344655 -33.8875 
L 160.607973 -33.8875 
L 161.871292 -33.8875 
L 163.13461 -33.8875 
L 164.397929 -33.8875 
L 165.661247 -33.8875 
L 166.924565 -33.8875 
L 168.187884 -33.8875 
L 169.451202 -33.8875 
L 170.714521 -33.8875 
L 171.977839 -33.8875 
L 173.241158 -33.8875 
L 174.504476 -33.8875 
L 175.767795 -33.8875 
L 177.031113 -33.8875 
L 178.294432 -33.8875 
L 179.55775 -33.8875 
L 180.821068 -33.8875 
L 182.084387 -33.8875 
L 183.347705 -33.8875 
L 184.611024 -33.8875 
L 185.874342 -33.8875 
L 187.137661 -33.8875 
L 188.400979 -33.8875 
L 189.664298 -33.8875 
L 190.927616 -33.8875 
L 192.190935 -33.8875 
L 193.454253 -33.8875 
L 194.717571 -33.8875 
L 195.98089 -33.8875 
L 197.244208 -33.8875 
L 198.507527 -33.8875 
L 199.770845 -33.8875 
L 201.034164 -33.8875 
L 202.297482 -33.8875 
L 203.560801 -33.8875 
L 204.824119 -33.8875 
L 206.087438 -33.8875 
L 207.350756 -33.8875 
L 208.614074 -33.8875 
L 209.877393 -33.8875 
L 211.140711 -33.8875 
L 212.40403 -33.8875 
L 213.667348 -33.8875 
L 214.930667 -33.8875 
L 216.193985 -33.8875 
L 217.457304 -33.8875 
L 218.720622 -33.8875 
L 219.983941 -33.8875 
L 221.247259 -33.8875 
L 222.510577 -33.8875 
L 223.773896 -33.8875 
L 225.037214 -33.8875 
L 226.300533 -33.8875 
L 227.563851 -33.8875 
L 228.82717 -33.8875 
L 230.090488 -33.8875 
L 231.353807 -33.8875 
L 232.617125 -33.8875 
L 233.880444 -33.8875 
L 235.143762 -33.8875 
L 236.407081 -33.8875 
L 237.670399 -33.8875 
L 238.933717 -33.8875 
L 240.197036 -33.8875 
L 241.460354 -33.8875 
L 242.723673 -33.8875 
L 243.986991 -33.8875 
L 245.25031 -33.8875 
L 246.513628 -33.8875 
L 247.776947 -33.8875 
L 249.040265 -33.8875 
L 250.303584 -33.8875 
L 251.566902 -33.8875 
L 252.83022 -33.8875 
L 254.093539 -33.8875 
L 255.356857 -33.8875 
L 256.620176 -33.8875 
L 257.883494 -33.8875 
L 259.146813 -33.8875 
L 260.410131 -33.8875 
L 261.67345 -33.8875 
L 262.936768 -33.8875 
L 264.200087 -33.8875 
L 265.463405 -33.8875 
L 266.726723 -33.8875 
L 267.990042 -33.8875 
L 269.25336 -33.8875 
L 270.516679 -33.8875 
L 271.779997 -33.8875 
L 273.043316 -33.8875 
L 274.306634 -33.8875 
L 275.569953 -33.8875 
L 276.833271 -33.8875 
L 278.09659 -33.8875 
L 279.359908 -33.8875 
L 280.623226 -33.8875 
L 281.886545 -33.8875 
L 283.149863 -33.8875 
L 284.413182 -33.8875 
L 285.6765 -33.8875 
L 286.939819 -33.8875 
L 288.203137 -33.8875 
L 289.466456 -33.8875 
L 290.729774 -33.8875 
L 291.993093 -33.8875 
L 293.256411 -33.8875 
L 294.519729 -33.8875 
L 295.783048 -33.8875 
L 297.046366 -33.8875 
L 298.309685 -33.8875 
L 299.573003 -33.8875 
L 300.836322 -33.8875 
L 302.09964 -33.8875 
L 303.362959 -33.8875 
L 304.626277 -33.8875 
L 305.889596 -33.8875 
L 307.152914 -33.8875 
L 308.416232 -33.8875 
L 309.679551 -33.8875 
L 310.942869 -33.8875 
L 312.206188 -33.8875 
L 313.469506 -33.8875 
L 314.732825 -33.8875 
L 315.996143 -33.8875 
L 317.259462 -33.8875 
L 318.52278 -33.8875 
L 319.786099 -33.8875 
L 321.049417 -33.8875 
L 322.312735 -33.8875 
L 323.576054 -33.8875 
L 324.839372 -33.8875 
L 326.102691 -33.8875 
L 327.366009 -33.8875 
L 328.629328 -33.8875 
L 329.892646 -33.8875 
L 331.155965 -33.8875 
L 332.419283 -33.8875 
L 333.682602 -33.8875 
L 334.94592 -33.8875 
L 336.209239 -33.8875 
L 337.472557 -33.8875 
L 338.735875 -33.8875 
L 339.999194 -33.8875 
L 341.262512 -33.8875 
L 342.525831 -33.8875 
L 343.789149 -33.8875 
L 345.052468 -33.8875 
L 346.315786 -33.8875 
L 347.579105 -33.8875 
L 348.842423 -33.8875 
L 350.105742 -33.8875 
L 351.36906 -33.8875 
L 352.632378 -33.8875 
L 353.895697 -33.8875 
L 355.159015 -33.8875 
L 356.422334 -33.8875 
L 357.685652 -33.8875 
L 358.948971 -33.8875 
L 360.212289 -33.8875 
L 361.475608 -33.8875 
L 362.738926 -33.8875 
L 364.002245 -33.8875 
L 365.265563 -33.8875 
L 366.528881 -33.8875 
L 367.7922 -33.8875 
L 369.055518 -33.8875 
L 370.318837 -33.8875 
L 371.582155 -33.8875 
L 372.845474 -33.8875 
L 374.108792 -33.8875 
L 375.372111 -33.8875 
L 376.635429 -33.8875 
L 377.898748 -33.8875 
L 379.162066 -33.8875 
L 380.425384 -33.8875 
L 381.688703 -33.8875 
L 382.952021 -33.8875 
L 384.21534 -33.8875 
L 385.478658 -33.8875 
L 386.741977 -33.8875 
L 388.005295 -33.8875 
L 389.268614 -33.8875 
L 390.531932 -33.8875 
L 390.531932 -33.888972 
L 390.531932 -33.888972 
L 389.268614 -33.890541 
L 388.005295 -33.893424 
L 386.741977 -33.898393 
L 385.478658 -33.906413 
L 384.21534 -33.918528 
L 382.952021 -33.935633 
L 381.688703 -33.958166 
L 380.425384 -33.98579 
L 379.162066 -34.017187 
L 377.898748 -34.050085 
L 376.635429 -34.081597 
L 375.372111 -34.108839 
L 374.108792 -34.129658 
L 372.845474 -34.14326 
L 371.582155 -34.150451 
L 370.318837 -34.153363 
L 369.055518 -34.154695 
L 367.7922 -34.156691 
L 366.528881 -34.160249 
L 365.265563 -34.164532 
L 364.002245 -34.167281 
L 362.738926 -34.165781 
L 361.475608 -34.158128 
L 360.212289 -34.144326 
L 358.948971 -34.126794 
L 357.685652 -34.110099 
L 356.422334 -34.100003 
L 355.159015 -34.102156 
L 353.895697 -34.120861 
L 352.632378 -34.158256 
L 351.36906 -34.214107 
L 350.105742 -34.286195 
L 348.842423 -34.371118 
L 347.579105 -34.465261 
L 346.315786 -34.565718 
L 345.052468 -34.671005 
L 343.789149 -34.781534 
L 342.525831 -34.899799 
L 341.262512 -35.030221 
L 339.999194 -35.178523 
L 338.735875 -35.350624 
L 337.472557 -35.551211 
L 336.209239 -35.782434 
L 334.94592 -36.043315 
L 333.682602 -36.330354 
L 332.419283 -36.639374 
L 331.155965 -36.968113 
L 329.892646 -37.318588 
L 328.629328 -37.698254 
L 327.366009 -38.119318 
L 326.102691 -38.596321 
L 324.839372 -39.142821 
L 323.576054 -39.768399 
L 322.312735 -40.477168 
L 321.049417 -41.268299 
L 319.786099 -42.138262 
L 318.52278 -43.08371 
L 317.259462 -44.103672 
L 315.996143 -45.200116 
L 314.732825 -46.376823 
L 313.469506 -47.637427 
L 312.206188 -48.984006 
L 310.942869 -50.417307 
L 309.679551 -51.938795 
L 308.416232 -53.553492 
L 307.152914 -55.271731 
L 305.889596 -57.108022 
L 304.626277 -59.076287 
L 303.362959 -61.182524 
L 302.09964 -63.417614 
L 300.836322 -65.75369 
L 299.573003 -68.146669 
L 298.309685 -70.545441 
L 297.046366 -72.905579 
L 295.783048 -75.203394 
L 294.519729 -77.445515 
L 293.256411 -79.670404 
L 291.993093 -81.940797 
L 290.729774 -84.329203 
L 289.466456 -86.90081 
L 288.203137 -89.698607 
L 286.939819 -92.733941 
L 285.6765 -95.983205 
L 284.413182 -99.389391 
L 283.149863 -102.866947 
L 281.886545 -106.309456 
L 280.623226 -109.600784 
L 279.359908 -112.630115 
L 278.09659 -115.309392 
L 276.833271 -117.589349 
L 275.569953 -119.469191 
L 274.306634 -120.996155 
L 273.043316 -122.254277 
L 271.779997 -123.345275 
L 270.516679 -124.366967 
L 269.25336 -125.395012 
L 267.990042 -126.472188 
L 266.726723 -127.606602 
L 265.463405 -128.777366 
L 264.200087 -129.944408 
L 262.936768 -131.058759 
L 261.67345 -132.070735 
L 260.410131 -132.935187 
L 259.146813 -133.614417 
L 257.883494 -134.079793 
L 256.620176 -134.31255 
L 255.356857 -134.303414 
L 254.093539 -134.050372 
L 252.83022 -133.55462 
L 251.566902 -132.816087 
L 250.303584 -131.83103 
L 249.040265 -130.593946 
L 247.776947 -129.104121 
L 246.513628 -127.374425 
L 245.25031 -125.437891 
L 243.986991 -123.347712 
L 242.723673 -121.168705 
L 241.460354 -118.962072 
L 240.197036 -116.768482 
L 238.933717 -114.595614 
L 237.670399 -112.414937 
L 236.407081 -110.16925 
L 235.143762 -107.789006 
L 233.880444 -105.212714 
L 232.617125 -102.4057 
L 231.353807 -99.372043 
L 230.090488 -96.156432 
L 228.82717 -92.835373 
L 227.563851 -89.500174 
L 226.300533 -86.236642 
L 225.037214 -83.107658 
L 223.773896 -80.143921 
L 222.510577 -77.34533 
L 221.247259 -74.691473 
L 219.983941 -72.156376 
L 218.720622 -69.72151 
L 217.457304 -67.382547 
L 216.193985 -65.148591 
L 214.930667 -63.035779 
L 213.667348 -61.058918 
L 212.40403 -59.224632 
L 211.140711 -57.528066 
L 209.877393 -55.953473 
L 208.614074 -54.477756 
L 207.350756 -53.075503 
L 206.087438 -51.724026 
L 204.824119 -50.40731 
L 203.560801 -49.118221 
L 202.297482 -47.858847 
L 201.034164 -46.639193 
L 199.770845 -45.474605 
L 198.507527 -44.382414 
L 197.244208 -43.37836 
L 195.98089 -42.473427 
L 194.717571 -41.671686 
L 193.454253 -40.969517 
L 192.190935 -40.356214 
L 190.927616 -39.815654 
L 189.664298 -39.328612 
L 188.400979 -38.875383 
L 187.137661 -38.438463 
L 185.874342 -38.005035 
L 184.611024 -37.56882 
L 183.347705 -37.130772 
L 182.084387 -36.698246 
L 180.821068 -36.282678 
L 179.55775 -35.896373 
L 178.294432 -35.549326 
L 177.031113 -35.247042 
L 175.767795 -34.989925 
L 174.504476 -34.774207 
L 173.241158 -34.593856 
L 171.977839 -34.442647 
L 170.714521 -34.315652 
L 169.451202 -34.209794 
L 168.187884 -34.123561 
L 166.924565 -34.056252 
L 165.661247 -34.007197 
L 164.397929 -33.975247 
L 163.13461 -33.958568 
L 161.871292 -33.954662 
L 160.607973 -33.960464 
L 159.344655 -33.972469 
L 158.081336 -33.986927 
L 156.818018 -34.000162 
L 155.554699 -34.00903 
L 154.291381 -34.011413 
L 153.028062 -34.006576 
L 151.764744 -33.995221 
L 150.501426 -33.979195 
L 149.238107 -33.960931 
L 147.974789 -33.942819 
L 146.71147 -33.926702 
L 145.448152 -33.913633 
L 144.184833 -33.903887 
L 142.921515 -33.897166 
L 141.658196 -33.892863 
L 140.394878 -33.890299 
L 139.131559 -33.888874 
z
" style="stroke: #5b5b5b; stroke-width: 0.01"/>
    </defs>
    <g clip-path="url(#p1415a729cd)">
     <use xlink:href="#m741fd8e665" x="0" y="197.775" style="fill: #5b5b5b; fill-opacity: 0.25; stroke: #5b5b5b; stroke-width: 0.01"/>
    </g>
   </g>
   <g id="line2d_15">
    <path d="M 154.013972 163.885295 
L 163.068889 163.767022 
L 170.614654 163.388089 
L 175.142112 162.98112 
L 181.178724 162.140373 
L 185.706182 161.271855 
L 193.251947 159.529262 
L 196.270252 159.096136 
L 200.797711 158.518146 
L 203.816017 157.763524 
L 206.834322 156.572335 
L 211.361781 154.584086 
L 218.907545 151.765252 
L 220.416698 150.809689 
L 221.925851 149.6106 
L 223.435004 148.160585 
L 224.944157 146.448731 
L 226.45331 144.448325 
L 227.962462 142.122938 
L 229.471615 139.448022 
L 230.980768 136.433412 
L 233.999074 129.61184 
L 237.01738 122.149059 
L 240.035685 114.018544 
L 243.053991 104.761269 
L 250.599755 79.747954 
L 252.108908 75.559295 
L 253.618061 71.781728 
L 256.636367 65.160882 
L 259.654672 59.356133 
L 261.163825 56.752146 
L 262.672978 54.420118 
L 264.182131 52.439107 
L 265.691284 50.895105 
L 267.200437 49.870443 
L 268.70959 49.423513 
L 270.218743 49.558758 
L 271.727895 50.199811 
L 274.746201 52.302741 
L 276.255354 53.353978 
L 279.27366 55.003037 
L 280.782813 55.866136 
L 282.291965 57.150469 
L 283.801118 59.19731 
L 285.310271 62.265965 
L 286.819424 66.467013 
L 288.328577 71.747401 
L 289.83773 77.921396 
L 292.856035 91.852992 
L 295.874341 105.890027 
L 297.383494 112.225605 
L 298.892647 117.784298 
L 300.4018 122.418129 
L 301.910953 126.093542 
L 303.420105 128.901028 
L 304.929258 131.031944 
L 306.438411 132.729385 
L 310.96587 137.347661 
L 313.984176 141.075275 
L 320.020787 149.187776 
L 321.52994 150.961141 
L 323.039093 152.544597 
L 324.548246 153.922293 
L 326.057398 155.088347 
L 327.566551 156.043442 
L 329.075704 156.792663 
L 330.584857 157.343879 
L 332.09401 157.707334 
L 333.603163 157.897951 
L 336.621468 157.874201 
L 339.639774 157.650558 
L 341.148927 157.630115 
L 342.65808 157.753596 
L 344.167233 158.059031 
L 345.676386 158.55281 
L 348.694691 159.952827 
L 351.712997 161.411586 
L 353.22215 161.984332 
L 354.731303 162.408389 
L 357.749609 162.867356 
L 362.277067 163.113195 
L 374.35029 163.55886 
L 381.896054 163.474073 
L 387.932666 163.533608 
L 404.533347 163.732304 
L 436.225557 163.782988 
L 443.771322 163.802907 
L 454.335392 163.8861 
L 454.335392 163.8861 
" clip-path="url(#p1415a729cd)" style="fill: none; stroke: #5b5b5b; stroke-width: 1.2; stroke-linecap: square"/>
   </g>
   <g id="patch_3">
    <path d="M 61.890938 163.8875 
L 61.890938 25.2875 
" style="fill: none; stroke: #cccccc; stroke-width: 0.75; stroke-linejoin: miter; stroke-linecap: square"/>
   </g>
   <g id="patch_4">
    <path d="M 66.890937 173.8875 
L 513.290937 173.8875 
" style="fill: none; stroke: #cccccc; stroke-width: 0.75; stroke-linejoin: miter; stroke-linecap: square"/>
   </g>
   <g id="legend_1">
    <g id="line2d_16">
     <path d="M 74.090938 13.8075 
L 82.090938 13.8075 
L 90.090938 13.8075 
" style="fill: none; stroke: #5b5b5b; stroke-width: 1.2; stroke-linecap: square"/>
    </g>
    <g id="text_16">
     <!-- Residuals -->
     <g style="fill: #4b4b4b" transform="translate(96.490938 16.6075) scale(0.08 -0.08)">
      <defs>
       <path id="Ubuntu-52" d="M 2720 1856 
Q 2822 1728 2979 1520 
Q 3136 1312 3302 1059 
Q 3469 806 3632 531 
Q 3795 256 3910 0 
L 3232 0 
Q 3104 243 2953 492 
Q 2803 742 2649 969 
Q 2496 1197 2345 1395 
Q 2195 1594 2074 1741 
Q 1990 1734 1904 1734 
Q 1818 1734 1728 1734 
L 1171 1734 
L 1171 0 
L 550 0 
L 550 4371 
Q 813 4435 1136 4457 
Q 1459 4480 1728 4480 
Q 2662 4480 3152 4128 
Q 3642 3776 3642 3078 
Q 3642 2637 3408 2323 
Q 3174 2010 2720 1856 
z
M 1779 3936 
Q 1382 3936 1171 3917 
L 1171 2246 
L 1613 2246 
Q 1933 2246 2189 2278 
Q 2445 2310 2621 2400 
Q 2797 2490 2893 2653 
Q 2989 2816 2989 3085 
Q 2989 3334 2893 3500 
Q 2797 3667 2633 3763 
Q 2470 3859 2249 3897 
Q 2029 3936 1779 3936 
z
" transform="scale(0.015625)"/>
       <path id="Ubuntu-65" d="M 326 1658 
Q 326 2099 454 2428 
Q 582 2758 793 2976 
Q 1005 3194 1280 3302 
Q 1555 3411 1843 3411 
Q 2515 3411 2873 2992 
Q 3232 2573 3232 1715 
Q 3232 1677 3232 1616 
Q 3232 1555 3226 1504 
L 947 1504 
Q 986 986 1248 717 
Q 1510 448 2067 448 
Q 2381 448 2595 502 
Q 2810 557 2918 608 
L 3002 109 
Q 2893 51 2621 -13 
Q 2349 -77 2003 -77 
Q 1568 -77 1251 54 
Q 934 186 729 416 
Q 525 646 425 963 
Q 326 1280 326 1658 
z
M 2611 1984 
Q 2618 2387 2410 2646 
Q 2202 2906 1837 2906 
Q 1632 2906 1475 2826 
Q 1318 2746 1209 2618 
Q 1101 2490 1040 2323 
Q 979 2157 960 1984 
L 2611 1984 
z
" transform="scale(0.015625)"/>
       <path id="Ubuntu-73" d="M 1286 429 
Q 1651 429 1827 525 
Q 2003 621 2003 832 
Q 2003 1050 1830 1178 
Q 1658 1306 1261 1466 
Q 1069 1542 893 1622 
Q 717 1702 589 1811 
Q 461 1920 384 2073 
Q 307 2227 307 2451 
Q 307 2893 633 3152 
Q 960 3411 1523 3411 
Q 1664 3411 1805 3395 
Q 1946 3379 2067 3356 
Q 2189 3334 2281 3308 
Q 2374 3283 2426 3264 
L 2317 2752 
Q 2221 2803 2016 2857 
Q 1811 2912 1523 2912 
Q 1274 2912 1088 2813 
Q 902 2714 902 2502 
Q 902 2394 944 2310 
Q 986 2227 1072 2160 
Q 1158 2093 1286 2035 
Q 1414 1978 1594 1914 
Q 1830 1824 2016 1737 
Q 2202 1651 2333 1536 
Q 2464 1421 2534 1257 
Q 2605 1094 2605 858 
Q 2605 397 2262 160 
Q 1920 -77 1286 -77 
Q 845 -77 595 -3 
Q 346 70 256 109 
L 365 621 
Q 467 582 691 505 
Q 915 429 1286 429 
z
" transform="scale(0.015625)"/>
       <path id="Ubuntu-69" d="M 1107 0 
L 512 0 
L 512 3328 
L 1107 3328 
L 1107 0 
z
M 806 3930 
Q 646 3930 534 4035 
Q 422 4141 422 4320 
Q 422 4499 534 4604 
Q 646 4710 806 4710 
Q 966 4710 1078 4604 
Q 1190 4499 1190 4320 
Q 1190 4141 1078 4035 
Q 966 3930 806 3930 
z
" transform="scale(0.015625)"/>
       <path id="Ubuntu-64" d="M 2662 2624 
Q 2554 2714 2349 2797 
Q 2144 2880 1901 2880 
Q 1645 2880 1462 2787 
Q 1280 2694 1165 2531 
Q 1050 2368 998 2144 
Q 947 1920 947 1664 
Q 947 1082 1235 765 
Q 1523 448 2003 448 
Q 2246 448 2409 470 
Q 2573 493 2662 518 
L 2662 2624 
z
M 2662 4864 
L 3258 4966 
L 3258 96 
Q 3053 38 2733 -19 
Q 2413 -77 1997 -77 
Q 1613 -77 1305 44 
Q 998 166 780 390 
Q 563 614 444 937 
Q 326 1261 326 1664 
Q 326 2048 425 2368 
Q 525 2688 717 2918 
Q 909 3149 1187 3277 
Q 1466 3405 1824 3405 
Q 2112 3405 2333 3328 
Q 2554 3251 2662 3181 
L 2662 4864 
z
" transform="scale(0.015625)"/>
       <path id="Ubuntu-75" d="M 3162 96 
Q 2957 45 2621 -12 
Q 2285 -70 1843 -70 
Q 1459 -70 1196 42 
Q 934 154 774 358 
Q 614 563 544 841 
Q 474 1120 474 1459 
L 474 3328 
L 1069 3328 
L 1069 1587 
Q 1069 979 1261 716 
Q 1453 454 1907 454 
Q 2003 454 2105 460 
Q 2208 467 2297 476 
Q 2387 486 2460 496 
Q 2534 506 2566 518 
L 2566 3328 
L 3162 3328 
L 3162 96 
z
" transform="scale(0.015625)"/>
       <path id="Ubuntu-61" d="M 1638 429 
Q 1850 429 2013 438 
Q 2176 448 2285 474 
L 2285 1466 
Q 2221 1498 2077 1520 
Q 1933 1542 1728 1542 
Q 1594 1542 1443 1523 
Q 1293 1504 1168 1443 
Q 1043 1382 960 1276 
Q 877 1171 877 998 
Q 877 678 1081 553 
Q 1286 429 1638 429 
z
M 1587 3411 
Q 1946 3411 2192 3318 
Q 2438 3226 2588 3056 
Q 2739 2886 2803 2652 
Q 2867 2419 2867 2138 
L 2867 58 
Q 2790 45 2652 22 
Q 2515 0 2342 -19 
Q 2170 -38 1968 -54 
Q 1766 -70 1568 -70 
Q 1286 -70 1049 -12 
Q 813 45 640 169 
Q 467 294 371 499 
Q 275 704 275 992 
Q 275 1267 387 1465 
Q 499 1664 691 1785 
Q 883 1907 1139 1964 
Q 1395 2022 1677 2022 
Q 1766 2022 1862 2012 
Q 1958 2003 2044 1987 
Q 2131 1971 2195 1958 
Q 2259 1946 2285 1939 
L 2285 2106 
Q 2285 2253 2253 2397 
Q 2221 2541 2137 2653 
Q 2054 2765 1910 2832 
Q 1766 2899 1536 2899 
Q 1242 2899 1021 2857 
Q 800 2816 691 2771 
L 621 3264 
Q 736 3315 1005 3363 
Q 1274 3411 1587 3411 
z
" transform="scale(0.015625)"/>
       <path id="Ubuntu-6c" d="M 1510 -64 
Q 960 -51 729 173 
Q 499 397 499 870 
L 499 4864 
L 1094 4966 
L 1094 966 
Q 1094 819 1120 723 
Q 1146 627 1203 569 
Q 1261 512 1357 483 
Q 1453 454 1594 435 
L 1510 -64 
z
" transform="scale(0.015625)"/>
      </defs>
      <use xlink:href="#Ubuntu-52"/>
      <use xlink:href="#Ubuntu-65" x="62.899994"/>
      <use xlink:href="#Ubuntu-73" x="118.799988"/>
      <use xlink:href="#Ubuntu-69" x="163.399979"/>
      <use xlink:href="#Ubuntu-64" x="188.699966"/>
      <use xlink:href="#Ubuntu-75" x="247.59996"/>
      <use xlink:href="#Ubuntu-61" x="304.999954"/>
      <use xlink:href="#Ubuntu-6c" x="357.199951"/>
      <use xlink:href="#Ubuntu-73" x="384.499939"/>
     </g>
    </g>
    <g id="patch_5">
     <path d="M 146.819687 16.6075 
L 162.819687 16.6075 
L 162.819687 11.0075 
L 146.819687 11.0075 
z
" style="fill: #5b5b5b; fill-opacity: 0.25; stroke: #5b5b5b; stroke-width: 0.01; stroke-linejoin: miter"/>
    </g>
    <g id="text_17">
     <!-- Normal -->
     <g style="fill: #4b4b4b" transform="translate(169.219687 16.6075) scale(0.08 -0.08)">
      <defs>
       <path id="Ubuntu-4e" d="M 3590 0 
Q 3450 237 3267 531 
Q 3085 826 2873 1142 
Q 2662 1459 2435 1785 
Q 2208 2112 1984 2416 
Q 1760 2720 1549 2989 
Q 1338 3258 1158 3462 
L 1158 0 
L 550 0 
L 550 4435 
L 1043 4435 
Q 1344 4115 1686 3689 
Q 2029 3264 2365 2813 
Q 2701 2362 2998 1926 
Q 3296 1491 3501 1152 
L 3501 4435 
L 4109 4435 
L 4109 0 
L 3590 0 
z
" transform="scale(0.015625)"/>
       <path id="Ubuntu-6f" d="M 3450 1664 
Q 3450 1267 3334 947 
Q 3219 627 3011 396 
Q 2803 166 2515 41 
Q 2227 -83 1888 -83 
Q 1549 -83 1261 41 
Q 973 166 765 396 
Q 557 627 441 947 
Q 326 1267 326 1664 
Q 326 2054 441 2377 
Q 557 2701 765 2931 
Q 973 3162 1261 3286 
Q 1549 3411 1888 3411 
Q 2227 3411 2515 3286 
Q 2803 3162 3011 2931 
Q 3219 2701 3334 2377 
Q 3450 2054 3450 1664 
z
M 2829 1664 
Q 2829 2227 2576 2556 
Q 2323 2886 1888 2886 
Q 1453 2886 1200 2556 
Q 947 2227 947 1664 
Q 947 1101 1200 771 
Q 1453 442 1888 442 
Q 2323 442 2576 771 
Q 2829 1101 2829 1664 
z
" transform="scale(0.015625)"/>
       <path id="Ubuntu-72" d="M 1741 3398 
Q 1818 3398 1917 3388 
Q 2016 3379 2112 3363 
Q 2208 3347 2288 3331 
Q 2368 3315 2406 3302 
L 2304 2784 
Q 2234 2810 2070 2845 
Q 1907 2880 1651 2880 
Q 1485 2880 1321 2845 
Q 1158 2810 1107 2797 
L 1107 0 
L 512 0 
L 512 3187 
Q 723 3264 1036 3331 
Q 1350 3398 1741 3398 
z
" transform="scale(0.015625)"/>
       <path id="Ubuntu-6d" d="M 512 3232 
Q 717 3283 1053 3340 
Q 1389 3398 1830 3398 
Q 2150 3398 2368 3312 
Q 2586 3226 2733 3059 
Q 2778 3091 2874 3148 
Q 2970 3206 3110 3260 
Q 3251 3315 3424 3356 
Q 3597 3398 3795 3398 
Q 4179 3398 4422 3286 
Q 4666 3174 4803 2969 
Q 4941 2765 4989 2483 
Q 5037 2202 5037 1869 
L 5037 0 
L 4442 0 
L 4442 1741 
Q 4442 2035 4413 2246 
Q 4384 2458 4304 2598 
Q 4224 2739 4086 2806 
Q 3949 2874 3731 2874 
Q 3430 2874 3235 2794 
Q 3040 2714 2970 2650 
Q 3021 2483 3046 2284 
Q 3072 2086 3072 1869 
L 3072 0 
L 2477 0 
L 2477 1741 
Q 2477 2035 2445 2246 
Q 2413 2458 2333 2598 
Q 2253 2739 2115 2806 
Q 1978 2874 1766 2874 
Q 1677 2874 1574 2867 
Q 1472 2861 1379 2851 
Q 1286 2842 1209 2829 
Q 1133 2816 1107 2810 
L 1107 0 
L 512 0 
L 512 3232 
z
" transform="scale(0.015625)"/>
      </defs>
      <use xlink:href="#Ubuntu-4e"/>
      <use xlink:href="#Ubuntu-6f" x="72.799988"/>
      <use xlink:href="#Ubuntu-72" x="131.799973"/>
      <use xlink:href="#Ubuntu-6d" x="170.399963"/>
      <use xlink:href="#Ubuntu-61" x="256.499954"/>
      <use xlink:href="#Ubuntu-6c" x="308.699951"/>
     </g>
    </g>
   </g>
  </g>
 </g>
 <defs>
  <clipPath id="p1415a729cd">
   <rect x="66.890938" y="25.2875" width="446.4" height="138.6"/>
  </clipPath>
 </defs>
</svg>
