<?xml version="1.0" encoding="utf-8" standalone="no"?>
<!DOCTYPE svg PUBLIC "-//W3C//DTD SVG 1.1//EN"
  "http://www.w3.org/Graphics/SVG/1.1/DTD/svg11.dtd">
<svg xmlns:xlink="http://www.w3.org/1999/xlink" width="516.159467pt" height="162.9675pt" viewBox="0 0 516.159467 162.9675" xmlns="http://www.w3.org/2000/svg" version="1.1">
 <metadata>
  <rdf:RDF xmlns:dc="http://purl.org/dc/elements/1.1/" xmlns:cc="http://creativecommons.org/ns#" xmlns:rdf="http://www.w3.org/1999/02/22-rdf-syntax-ns#">
   <cc:Work>
    <dc:type rdf:resource="http://purl.org/dc/dcmitype/StillImage"/>
    <dc:date>2024-05-23T14:56:13.795820</dc:date>
    <dc:format>image/svg+xml</dc:format>
    <dc:creator>
     <cc:Agent>
      <dc:title>Matplotlib v3.8.3, https://matplotlib.org/</dc:title>
     </cc:Agent>
    </dc:creator>
   </cc:Work>
  </rdf:RDF>
 </metadata>
 <defs>
  <style type="text/css">*{stroke-linejoin: round; stroke-linecap: butt}</style>
 </defs>
 <g id="figure_1">
  <g id="patch_1">
   <path d="M 0 162.9675 
L 516.159467 162.9675 
L 516.159467 0 
L 0 0 
L 0 162.9675 
z
" style="fill: none"/>
  </g>
  <g id="axes_1">
   <g id="patch_2">
    <path d="M 62.423438 118.08 
L 508.823437 118.08 
L 508.823437 7.2 
L 62.423438 7.2 
L 62.423438 118.08 
z
" style="fill: none"/>
   </g>
   <g id="line2d_1">
    <path d="M 123.270496 113.948654 
L 123.270496 11.331346 
" clip-path="url(#pf847dc71da)" style="fill: none; stroke-dasharray: 0.5,0.825; stroke-dashoffset: 0; stroke: #d9d9d9; stroke-width: 0.5"/>
   </g>
   <g id="line2d_2">
    <path d="M 179.741085 113.948654 
L 179.741085 11.331346 
" clip-path="url(#pf847dc71da)" style="fill: none; stroke-dasharray: 0.5,0.825; stroke-dashoffset: 0; stroke: #d9d9d9; stroke-width: 0.5"/>
   </g>
   <g id="line2d_3">
    <path d="M 236.211673 113.948654 
L 236.211673 11.331346 
" clip-path="url(#pf847dc71da)" style="fill: none; stroke-dasharray: 0.5,0.825; stroke-dashoffset: 0; stroke: #d9d9d9; stroke-width: 0.5"/>
   </g>
   <g id="line2d_4">
    <path d="M 292.682261 113.948654 
L 292.682261 11.331346 
" clip-path="url(#pf847dc71da)" style="fill: none; stroke-dasharray: 0.5,0.825; stroke-dashoffset: 0; stroke: #d9d9d9; stroke-width: 0.5"/>
   </g>
   <g id="line2d_5">
    <path d="M 349.152849 113.948654 
L 349.152849 11.331346 
" clip-path="url(#pf847dc71da)" style="fill: none; stroke-dasharray: 0.5,0.825; stroke-dashoffset: 0; stroke: #d9d9d9; stroke-width: 0.5"/>
   </g>
   <g id="line2d_6">
    <path d="M 405.623438 113.948654 
L 405.623438 11.331346 
" clip-path="url(#pf847dc71da)" style="fill: none; stroke-dasharray: 0.5,0.825; stroke-dashoffset: 0; stroke: #d9d9d9; stroke-width: 0.5"/>
   </g>
   <g id="line2d_7">
    <path d="M 462.094026 113.948654 
L 462.094026 11.331346 
" clip-path="url(#pf847dc71da)" style="fill: none; stroke-dasharray: 0.5,0.825; stroke-dashoffset: 0; stroke: #d9d9d9; stroke-width: 0.5"/>
   </g>
   <g id="line2d_8">
    <path d="M 66.799908 96.845769 
L 504.446967 96.845769 
" clip-path="url(#pf847dc71da)" style="fill: none; stroke-dasharray: 0.5,0.825; stroke-dashoffset: 0; stroke: #d9d9d9; stroke-width: 0.5"/>
   </g>
   <g id="line2d_9">
    <path d="M 66.799908 79.742885 
L 504.446967 79.742885 
" clip-path="url(#pf847dc71da)" style="fill: none; stroke-dasharray: 0.5,0.825; stroke-dashoffset: 0; stroke: #d9d9d9; stroke-width: 0.5"/>
   </g>
   <g id="line2d_10">
    <path d="M 66.799908 62.64 
L 504.446967 62.64 
" clip-path="url(#pf847dc71da)" style="fill: none; stroke-dasharray: 0.5,0.825; stroke-dashoffset: 0; stroke: #d9d9d9; stroke-width: 0.5"/>
   </g>
   <g id="line2d_11">
    <path d="M 66.799908 45.537115 
L 504.446967 45.537115 
" clip-path="url(#pf847dc71da)" style="fill: none; stroke-dasharray: 0.5,0.825; stroke-dashoffset: 0; stroke: #d9d9d9; stroke-width: 0.5"/>
   </g>
   <g id="line2d_12">
    <path d="M 66.799908 28.434231 
L 504.446967 28.434231 
" clip-path="url(#pf847dc71da)" style="fill: none; stroke-dasharray: 0.5,0.825; stroke-dashoffset: 0; stroke: #d9d9d9; stroke-width: 0.5"/>
   </g>
   <g id="line2d_13">
    <path d="M 66.887438 79.742885 
L 504.359438 79.742885 
" clip-path="url(#pf847dc71da)" style="fill: none; stroke-dasharray: 2.775,1.2; stroke-dashoffset: 0; stroke: #bb5951; stroke-width: 0.75"/>
   </g>
   <g id="axes_2">
    <g id="patch_3">
     <path d="M 62.423438 118.08 
L 508.823437 118.08 
L 508.823437 118.08 
L 62.423438 118.08 
L 62.423438 118.08 
z
" style="fill: none"/>
    </g>
    <g id="matplotlib.axis_1">
     <g id="xtick_1">
      <g id="line2d_14">
       <path d="M 66.799908 118.08 
L 66.799908 118.08 
" clip-path="url(#p187e242d30)" style="fill: none; stroke-dasharray: 0.5,0.825; stroke-dashoffset: 0; stroke: #d9d9d9; stroke-width: 0.5"/>
      </g>
      <g id="text_1">
       <!-- August -->
       <g style="fill: #808080" transform="translate(53.911783 154.26375) scale(0.08 -0.08)">
        <defs>
         <path id="Ubuntu-41" d="M 3514 0 
Q 3405 288 3309 566 
Q 3213 845 3110 1133 
L 1101 1133 
L 698 0 
L 51 0 
Q 307 704 531 1302 
Q 755 1901 969 2438 
Q 1184 2976 1395 3465 
Q 1606 3955 1837 4435 
L 2406 4435 
Q 2637 3955 2848 3465 
Q 3059 2976 3273 2438 
Q 3488 1901 3712 1302 
Q 3936 704 4192 0 
L 3514 0 
z
M 2931 1645 
Q 2726 2202 2524 2723 
Q 2323 3245 2106 3725 
Q 1882 3245 1680 2723 
Q 1478 2202 1280 1645 
L 2931 1645 
z
" transform="scale(0.015625)"/>
         <path id="Ubuntu-75" d="M 3162 96 
Q 2957 45 2621 -12 
Q 2285 -70 1843 -70 
Q 1459 -70 1196 42 
Q 934 154 774 358 
Q 614 563 544 841 
Q 474 1120 474 1459 
L 474 3328 
L 1069 3328 
L 1069 1587 
Q 1069 979 1261 716 
Q 1453 454 1907 454 
Q 2003 454 2105 460 
Q 2208 467 2297 476 
Q 2387 486 2460 496 
Q 2534 506 2566 518 
L 2566 3328 
L 3162 3328 
L 3162 96 
z
" transform="scale(0.015625)"/>
         <path id="Ubuntu-67" d="M 2598 333 
Q 2522 282 2301 202 
Q 2080 122 1786 122 
Q 1485 122 1219 218 
Q 954 314 755 515 
Q 557 717 441 1017 
Q 326 1318 326 1734 
Q 326 2099 435 2403 
Q 544 2707 752 2928 
Q 960 3149 1261 3273 
Q 1562 3398 1939 3398 
Q 2355 3398 2665 3337 
Q 2976 3277 3187 3226 
L 3187 256 
Q 3187 -512 2790 -857 
Q 2394 -1203 1587 -1203 
Q 1274 -1203 995 -1152 
Q 717 -1101 512 -1030 
L 621 -512 
Q 800 -582 1059 -636 
Q 1318 -691 1600 -691 
Q 2131 -691 2364 -480 
Q 2598 -269 2598 192 
L 2598 333 
z
M 2592 2803 
Q 2502 2829 2352 2851 
Q 2202 2874 1946 2874 
Q 1466 2874 1206 2560 
Q 947 2246 947 1728 
Q 947 1440 1020 1235 
Q 1094 1030 1219 896 
Q 1344 762 1507 698 
Q 1670 634 1843 634 
Q 2080 634 2278 701 
Q 2477 768 2592 858 
L 2592 2803 
z
" transform="scale(0.015625)"/>
         <path id="Ubuntu-73" d="M 1286 429 
Q 1651 429 1827 525 
Q 2003 621 2003 832 
Q 2003 1050 1830 1178 
Q 1658 1306 1261 1466 
Q 1069 1542 893 1622 
Q 717 1702 589 1811 
Q 461 1920 384 2073 
Q 307 2227 307 2451 
Q 307 2893 633 3152 
Q 960 3411 1523 3411 
Q 1664 3411 1805 3395 
Q 1946 3379 2067 3356 
Q 2189 3334 2281 3308 
Q 2374 3283 2426 3264 
L 2317 2752 
Q 2221 2803 2016 2857 
Q 1811 2912 1523 2912 
Q 1274 2912 1088 2813 
Q 902 2714 902 2502 
Q 902 2394 944 2310 
Q 986 2227 1072 2160 
Q 1158 2093 1286 2035 
Q 1414 1978 1594 1914 
Q 1830 1824 2016 1737 
Q 2202 1651 2333 1536 
Q 2464 1421 2534 1257 
Q 2605 1094 2605 858 
Q 2605 397 2262 160 
Q 1920 -77 1286 -77 
Q 845 -77 595 -3 
Q 346 70 256 109 
L 365 621 
Q 467 582 691 505 
Q 915 429 1286 429 
z
" transform="scale(0.015625)"/>
         <path id="Ubuntu-74" d="M 1069 3328 
L 2330 3328 
L 2330 2829 
L 1069 2829 
L 1069 1293 
Q 1069 1043 1107 880 
Q 1146 717 1222 624 
Q 1299 531 1414 492 
Q 1530 454 1683 454 
Q 1952 454 2115 515 
Q 2278 576 2342 602 
L 2458 109 
Q 2368 64 2144 -3 
Q 1920 -70 1632 -70 
Q 1293 -70 1072 16 
Q 851 102 716 275 
Q 582 448 528 701 
Q 474 954 474 1286 
L 474 4256 
L 1069 4358 
L 1069 3328 
z
" transform="scale(0.015625)"/>
        </defs>
        <use xlink:href="#Ubuntu-41"/>
        <use xlink:href="#Ubuntu-75" x="64.799988"/>
        <use xlink:href="#Ubuntu-67" x="122.199982"/>
        <use xlink:href="#Ubuntu-75" x="179.999969"/>
        <use xlink:href="#Ubuntu-73" x="237.399963"/>
        <use xlink:href="#Ubuntu-74" x="281.999954"/>
       </g>
      </g>
     </g>
    </g>
    <g id="matplotlib.axis_2"/>
   </g>
   <g id="matplotlib.axis_3">
    <g id="xtick_2">
     <g id="line2d_15">
      <defs>
       <path id="m70735a1afb" d="M 0 0 
L 0 3 
" style="stroke: #cecece; stroke-width: 0.75"/>
      </defs>
      <g>
       <use xlink:href="#m70735a1afb" x="66.799908" y="123.08" style="fill: #cecece; stroke: #cecece; stroke-width: 0.75"/>
      </g>
     </g>
     <g id="text_2">
      <!-- 01 -->
      <g style="fill: #808080" transform="translate(62.287408 138.2875) scale(0.08 -0.08)">
       <defs>
        <path id="Ubuntu-30" d="M 320 2221 
Q 320 3334 713 3936 
Q 1107 4538 1805 4538 
Q 2502 4538 2896 3936 
Q 3290 3334 3290 2221 
Q 3290 1107 2896 505 
Q 2502 -96 1805 -96 
Q 1107 -96 713 505 
Q 320 1107 320 2221 
z
M 2662 2221 
Q 2662 2586 2620 2912 
Q 2579 3238 2480 3481 
Q 2381 3725 2214 3869 
Q 2048 4013 1805 4013 
Q 1562 4013 1395 3869 
Q 1229 3725 1129 3481 
Q 1030 3238 988 2912 
Q 947 2586 947 2221 
Q 947 1856 988 1529 
Q 1030 1203 1129 960 
Q 1229 717 1395 573 
Q 1562 429 1805 429 
Q 2048 429 2214 573 
Q 2381 717 2480 960 
Q 2579 1203 2620 1529 
Q 2662 1856 2662 2221 
z
" transform="scale(0.015625)"/>
        <path id="Ubuntu-31" d="M 595 3520 
Q 960 3661 1305 3881 
Q 1651 4102 1939 4435 
L 2362 4435 
L 2362 0 
L 1766 0 
L 1766 3610 
Q 1690 3539 1578 3462 
Q 1466 3386 1334 3315 
Q 1203 3245 1059 3181 
Q 915 3117 781 3072 
L 595 3520 
z
" transform="scale(0.015625)"/>
       </defs>
       <use xlink:href="#Ubuntu-30"/>
       <use xlink:href="#Ubuntu-31" x="56.399994"/>
      </g>
     </g>
    </g>
    <g id="xtick_3">
     <g id="line2d_16">
      <g>
       <use xlink:href="#m70735a1afb" x="123.270496" y="123.08" style="fill: #cecece; stroke: #cecece; stroke-width: 0.75"/>
      </g>
     </g>
     <g id="text_3">
      <!-- 05 -->
      <g style="fill: #808080" transform="translate(118.757996 138.2875) scale(0.08 -0.08)">
       <defs>
        <path id="Ubuntu-35" d="M 1274 2726 
Q 2240 2688 2691 2304 
Q 3142 1920 3142 1261 
Q 3142 966 3043 716 
Q 2944 467 2742 288 
Q 2541 109 2233 6 
Q 1926 -96 1504 -96 
Q 1338 -96 1165 -70 
Q 992 -45 845 -6 
Q 698 32 582 70 
Q 467 109 416 134 
L 531 653 
Q 640 602 886 518 
Q 1133 435 1491 435 
Q 1779 435 1974 499 
Q 2170 563 2291 672 
Q 2413 781 2467 925 
Q 2522 1069 2522 1229 
Q 2522 1472 2438 1661 
Q 2355 1850 2144 1978 
Q 1933 2106 1581 2173 
Q 1229 2240 691 2240 
Q 730 2554 752 2829 
Q 774 3104 793 3366 
Q 813 3629 825 3888 
Q 838 4147 851 4435 
L 2989 4435 
L 2989 3930 
L 1370 3930 
Q 1363 3834 1350 3670 
Q 1338 3507 1325 3331 
Q 1312 3155 1299 2988 
Q 1286 2822 1274 2726 
z
" transform="scale(0.015625)"/>
       </defs>
       <use xlink:href="#Ubuntu-30"/>
       <use xlink:href="#Ubuntu-35" x="56.399994"/>
      </g>
     </g>
    </g>
    <g id="xtick_4">
     <g id="line2d_17">
      <g>
       <use xlink:href="#m70735a1afb" x="179.741085" y="123.08" style="fill: #cecece; stroke: #cecece; stroke-width: 0.75"/>
      </g>
     </g>
     <g id="text_4">
      <!-- 09 -->
      <g style="fill: #808080" transform="translate(175.228585 138.2875) scale(0.08 -0.08)">
       <defs>
        <path id="Ubuntu-39" d="M 3206 2662 
Q 3206 1344 2550 669 
Q 1894 -6 602 -13 
L 582 486 
Q 986 486 1309 563 
Q 1632 640 1875 809 
Q 2118 979 2281 1248 
Q 2445 1517 2522 1907 
Q 2355 1830 2144 1782 
Q 1933 1734 1709 1734 
Q 1331 1734 1068 1846 
Q 806 1958 640 2147 
Q 474 2336 400 2582 
Q 326 2829 326 3098 
Q 326 3334 409 3590 
Q 493 3846 662 4057 
Q 832 4269 1094 4403 
Q 1357 4538 1715 4538 
Q 2080 4538 2358 4410 
Q 2637 4282 2825 4038 
Q 3014 3795 3110 3446 
Q 3206 3098 3206 2662 
z
M 1773 2221 
Q 1997 2221 2195 2262 
Q 2394 2304 2579 2387 
Q 2586 2458 2586 2525 
Q 2586 2592 2586 2662 
Q 2586 2938 2547 3190 
Q 2509 3443 2409 3632 
Q 2310 3821 2144 3933 
Q 1978 4045 1722 4045 
Q 1510 4045 1363 3955 
Q 1216 3866 1120 3728 
Q 1024 3590 982 3427 
Q 941 3264 941 3110 
Q 941 2675 1149 2448 
Q 1357 2221 1773 2221 
z
" transform="scale(0.015625)"/>
       </defs>
       <use xlink:href="#Ubuntu-30"/>
       <use xlink:href="#Ubuntu-39" x="56.399994"/>
      </g>
     </g>
    </g>
    <g id="xtick_5">
     <g id="line2d_18">
      <g>
       <use xlink:href="#m70735a1afb" x="236.211673" y="123.08" style="fill: #cecece; stroke: #cecece; stroke-width: 0.75"/>
      </g>
     </g>
     <g id="text_5">
      <!-- 13 -->
      <g style="fill: #808080" transform="translate(231.699173 138.2875) scale(0.08 -0.08)">
       <defs>
        <path id="Ubuntu-33" d="M 1446 435 
Q 2016 435 2262 659 
Q 2509 883 2509 1261 
Q 2509 1504 2406 1670 
Q 2304 1837 2137 1936 
Q 1971 2035 1750 2076 
Q 1530 2118 1299 2118 
L 1146 2118 
L 1146 2605 
L 1357 2605 
Q 1517 2605 1686 2637 
Q 1856 2669 1997 2752 
Q 2138 2835 2227 2979 
Q 2317 3123 2317 3341 
Q 2317 3520 2253 3648 
Q 2189 3776 2083 3859 
Q 1978 3942 1840 3977 
Q 1702 4013 1549 4013 
Q 1242 4013 1027 3923 
Q 813 3834 666 3738 
L 435 4192 
Q 512 4243 630 4304 
Q 749 4365 896 4416 
Q 1043 4467 1212 4502 
Q 1382 4538 1568 4538 
Q 1920 4538 2176 4451 
Q 2432 4365 2598 4208 
Q 2765 4051 2848 3836 
Q 2931 3622 2931 3373 
Q 2931 3027 2732 2780 
Q 2534 2534 2253 2406 
Q 2426 2355 2586 2259 
Q 2746 2163 2864 2016 
Q 2982 1869 3056 1677 
Q 3130 1485 3130 1248 
Q 3130 960 3030 713 
Q 2931 467 2723 288 
Q 2515 109 2201 6 
Q 1888 -96 1459 -96 
Q 1293 -96 1117 -70 
Q 941 -45 787 -6 
Q 634 32 518 70 
Q 403 109 352 134 
L 467 653 
Q 576 602 829 518 
Q 1082 435 1446 435 
z
" transform="scale(0.015625)"/>
       </defs>
       <use xlink:href="#Ubuntu-31"/>
       <use xlink:href="#Ubuntu-33" x="56.399994"/>
      </g>
     </g>
    </g>
    <g id="xtick_6">
     <g id="line2d_19">
      <g>
       <use xlink:href="#m70735a1afb" x="292.682261" y="123.08" style="fill: #cecece; stroke: #cecece; stroke-width: 0.75"/>
      </g>
     </g>
     <g id="text_6">
      <!-- 17 -->
      <g style="fill: #808080" transform="translate(288.169761 138.2875) scale(0.08 -0.08)">
       <defs>
        <path id="Ubuntu-37" d="M 1043 0 
Q 1082 512 1226 1078 
Q 1370 1645 1581 2179 
Q 1792 2714 2045 3171 
Q 2298 3629 2541 3917 
L 384 3917 
L 384 4435 
L 3206 4435 
L 3206 3942 
Q 2995 3699 2739 3273 
Q 2483 2848 2256 2320 
Q 2029 1792 1865 1193 
Q 1702 595 1664 0 
L 1043 0 
z
" transform="scale(0.015625)"/>
       </defs>
       <use xlink:href="#Ubuntu-31"/>
       <use xlink:href="#Ubuntu-37" x="56.399994"/>
      </g>
     </g>
    </g>
    <g id="xtick_7">
     <g id="line2d_20">
      <g>
       <use xlink:href="#m70735a1afb" x="349.152849" y="123.08" style="fill: #cecece; stroke: #cecece; stroke-width: 0.75"/>
      </g>
     </g>
     <g id="text_7">
      <!-- 21 -->
      <g style="fill: #808080" transform="translate(344.640349 138.2875) scale(0.08 -0.08)">
       <defs>
        <path id="Ubuntu-32" d="M 2989 3302 
Q 2989 3072 2896 2857 
Q 2803 2643 2649 2435 
Q 2496 2227 2304 2025 
Q 2112 1824 1920 1632 
Q 1811 1523 1667 1376 
Q 1523 1229 1395 1069 
Q 1267 909 1180 761 
Q 1094 614 1094 506 
L 3136 506 
L 3136 0 
L 448 0 
Q 442 38 442 76 
Q 442 115 442 147 
Q 442 448 541 707 
Q 640 966 800 1196 
Q 960 1427 1158 1632 
Q 1357 1837 1549 2029 
Q 1709 2182 1853 2332 
Q 1997 2483 2109 2633 
Q 2221 2784 2288 2944 
Q 2355 3104 2355 3283 
Q 2355 3475 2294 3609 
Q 2234 3744 2131 3833 
Q 2029 3923 1891 3964 
Q 1754 4006 1600 4006 
Q 1414 4006 1260 3955 
Q 1107 3904 985 3837 
Q 864 3770 781 3696 
Q 698 3622 653 3584 
L 358 4006 
Q 416 4070 531 4163 
Q 646 4256 806 4339 
Q 966 4422 1164 4480 
Q 1363 4538 1594 4538 
Q 2291 4538 2640 4214 
Q 2989 3891 2989 3302 
z
" transform="scale(0.015625)"/>
       </defs>
       <use xlink:href="#Ubuntu-32"/>
       <use xlink:href="#Ubuntu-31" x="56.399994"/>
      </g>
     </g>
    </g>
    <g id="xtick_8">
     <g id="line2d_21">
      <g>
       <use xlink:href="#m70735a1afb" x="405.623438" y="123.08" style="fill: #cecece; stroke: #cecece; stroke-width: 0.75"/>
      </g>
     </g>
     <g id="text_8">
      <!-- 25 -->
      <g style="fill: #808080" transform="translate(401.110938 138.2875) scale(0.08 -0.08)">
       <use xlink:href="#Ubuntu-32"/>
       <use xlink:href="#Ubuntu-35" x="56.399994"/>
      </g>
     </g>
    </g>
    <g id="xtick_9">
     <g id="line2d_22">
      <g>
       <use xlink:href="#m70735a1afb" x="462.094026" y="123.08" style="fill: #cecece; stroke: #cecece; stroke-width: 0.75"/>
      </g>
     </g>
     <g id="text_9">
      <!-- 29 -->
      <g style="fill: #808080" transform="translate(457.581526 138.2875) scale(0.08 -0.08)">
       <use xlink:href="#Ubuntu-32"/>
       <use xlink:href="#Ubuntu-39" x="56.399994"/>
      </g>
     </g>
    </g>
    <g id="xtick_10">
     <g id="line2d_23">
      <g>
       <use xlink:href="#m70735a1afb" x="504.446967" y="123.08" style="fill: #cecece; stroke: #cecece; stroke-width: 0.75"/>
      </g>
     </g>
     <g id="text_10">
      <!-- 31 -->
      <g style="fill: #808080" transform="translate(499.934467 138.2875) scale(0.08 -0.08)">
       <use xlink:href="#Ubuntu-33"/>
       <use xlink:href="#Ubuntu-31" x="56.399994"/>
      </g>
     </g>
    </g>
   </g>
   <g id="matplotlib.axis_4">
    <g id="ytick_1">
     <g id="line2d_24">
      <defs>
       <path id="m73957e1c41" d="M 0 0 
L -3 0 
" style="stroke: #cecece; stroke-width: 0.75"/>
      </defs>
      <g>
       <use xlink:href="#m73957e1c41" x="59.923438" y="113.948654" style="fill: #cecece; stroke: #cecece; stroke-width: 0.75"/>
      </g>
     </g>
     <g id="text_11">
      <!-- −10000 -->
      <g style="fill: #808080" transform="translate(23.848438 117.052404) scale(0.08 -0.08)">
       <defs>
        <path id="Ubuntu-2212" d="M 339 2138 
L 3270 2138 
L 3270 1632 
L 339 1632 
L 339 2138 
z
" transform="scale(0.015625)"/>
       </defs>
       <use xlink:href="#Ubuntu-2212"/>
       <use xlink:href="#Ubuntu-31" x="56.399994"/>
       <use xlink:href="#Ubuntu-30" x="112.799988"/>
       <use xlink:href="#Ubuntu-30" x="169.199982"/>
       <use xlink:href="#Ubuntu-30" x="225.599976"/>
       <use xlink:href="#Ubuntu-30" x="281.999969"/>
      </g>
     </g>
    </g>
    <g id="ytick_2">
     <g id="line2d_25">
      <g>
       <use xlink:href="#m73957e1c41" x="59.923438" y="96.845769" style="fill: #cecece; stroke: #cecece; stroke-width: 0.75"/>
      </g>
     </g>
     <g id="text_12">
      <!-- −5000 -->
      <g style="fill: #808080" transform="translate(28.360938 99.949519) scale(0.08 -0.08)">
       <use xlink:href="#Ubuntu-2212"/>
       <use xlink:href="#Ubuntu-35" x="56.399994"/>
       <use xlink:href="#Ubuntu-30" x="112.799988"/>
       <use xlink:href="#Ubuntu-30" x="169.199982"/>
       <use xlink:href="#Ubuntu-30" x="225.599976"/>
      </g>
     </g>
    </g>
    <g id="ytick_3">
     <g id="line2d_26">
      <g>
       <use xlink:href="#m73957e1c41" x="59.923438" y="79.742885" style="fill: #cecece; stroke: #cecece; stroke-width: 0.75"/>
      </g>
     </g>
     <g id="text_13">
      <!-- 0 -->
      <g style="fill: #808080" transform="translate(46.410938 82.846635) scale(0.08 -0.08)">
       <use xlink:href="#Ubuntu-30"/>
      </g>
     </g>
    </g>
    <g id="ytick_4">
     <g id="line2d_27">
      <g>
       <use xlink:href="#m73957e1c41" x="59.923438" y="62.64" style="fill: #cecece; stroke: #cecece; stroke-width: 0.75"/>
      </g>
     </g>
     <g id="text_14">
      <!-- 5000 -->
      <g style="fill: #808080" transform="translate(32.873438 65.74375) scale(0.08 -0.08)">
       <use xlink:href="#Ubuntu-35"/>
       <use xlink:href="#Ubuntu-30" x="56.399994"/>
       <use xlink:href="#Ubuntu-30" x="112.799988"/>
       <use xlink:href="#Ubuntu-30" x="169.199982"/>
      </g>
     </g>
    </g>
    <g id="ytick_5">
     <g id="line2d_28">
      <g>
       <use xlink:href="#m73957e1c41" x="59.923438" y="45.537115" style="fill: #cecece; stroke: #cecece; stroke-width: 0.75"/>
      </g>
     </g>
     <g id="text_15">
      <!-- 10000 -->
      <g style="fill: #808080" transform="translate(28.360938 48.640865) scale(0.08 -0.08)">
       <use xlink:href="#Ubuntu-31"/>
       <use xlink:href="#Ubuntu-30" x="56.399994"/>
       <use xlink:href="#Ubuntu-30" x="112.799988"/>
       <use xlink:href="#Ubuntu-30" x="169.199982"/>
       <use xlink:href="#Ubuntu-30" x="225.599976"/>
      </g>
     </g>
    </g>
    <g id="ytick_6">
     <g id="line2d_29">
      <g>
       <use xlink:href="#m73957e1c41" x="59.923438" y="28.434231" style="fill: #cecece; stroke: #cecece; stroke-width: 0.75"/>
      </g>
     </g>
     <g id="text_16">
      <!-- 15000 -->
      <g style="fill: #808080" transform="translate(28.360938 31.537981) scale(0.08 -0.08)">
       <use xlink:href="#Ubuntu-31"/>
       <use xlink:href="#Ubuntu-35" x="56.399994"/>
       <use xlink:href="#Ubuntu-30" x="112.799988"/>
       <use xlink:href="#Ubuntu-30" x="169.199982"/>
       <use xlink:href="#Ubuntu-30" x="225.599976"/>
      </g>
     </g>
    </g>
    <g id="ytick_7">
     <g id="line2d_30">
      <g>
       <use xlink:href="#m73957e1c41" x="59.923438" y="11.331346" style="fill: #cecece; stroke: #cecece; stroke-width: 0.75"/>
      </g>
     </g>
     <g id="text_17">
      <!-- 20000 -->
      <g style="fill: #808080" transform="translate(28.360938 14.435096) scale(0.08 -0.08)">
       <use xlink:href="#Ubuntu-32"/>
       <use xlink:href="#Ubuntu-30" x="56.399994"/>
       <use xlink:href="#Ubuntu-30" x="112.799988"/>
       <use xlink:href="#Ubuntu-30" x="169.199982"/>
       <use xlink:href="#Ubuntu-30" x="225.599976"/>
      </g>
     </g>
    </g>
    <g id="text_18">
     <!-- Residuals -->
     <g style="fill: #505050" transform="translate(14.183438 48.124687) rotate(-90) scale(0.09 -0.09)">
      <defs>
       <path id="Ubuntu-Bold-52" d="M 1811 4486 
Q 2810 4486 3341 4131 
Q 3872 3776 3872 3027 
Q 3872 2560 3657 2269 
Q 3443 1978 3040 1811 
Q 3174 1645 3321 1430 
Q 3469 1216 3613 982 
Q 3757 749 3891 496 
Q 4026 243 4141 0 
L 3021 0 
Q 2899 218 2774 442 
Q 2650 666 2518 877 
Q 2387 1088 2259 1277 
Q 2131 1466 2003 1619 
L 1510 1619 
L 1510 0 
L 512 0 
L 512 4371 
Q 838 4435 1187 4460 
Q 1536 4486 1811 4486 
z
M 1869 3635 
Q 1760 3635 1673 3628 
Q 1587 3622 1510 3616 
L 1510 2413 
L 1792 2413 
Q 2355 2413 2598 2553 
Q 2842 2694 2842 3034 
Q 2842 3360 2595 3497 
Q 2349 3635 1869 3635 
z
" transform="scale(0.015625)"/>
       <path id="Ubuntu-Bold-65" d="M 288 1658 
Q 288 2106 425 2442 
Q 563 2778 787 3002 
Q 1011 3226 1302 3341 
Q 1594 3456 1901 3456 
Q 2618 3456 3034 3017 
Q 3450 2579 3450 1728 
Q 3450 1645 3443 1545 
Q 3437 1446 3430 1370 
L 1267 1370 
Q 1299 1075 1542 902 
Q 1786 730 2195 730 
Q 2458 730 2710 778 
Q 2963 826 3123 896 
L 3251 122 
Q 3174 83 3046 44 
Q 2918 6 2761 -22 
Q 2605 -51 2425 -70 
Q 2246 -90 2067 -90 
Q 1613 -90 1277 44 
Q 941 179 720 412 
Q 499 646 393 966 
Q 288 1286 288 1658 
z
M 2528 2022 
Q 2522 2144 2486 2259 
Q 2451 2374 2377 2464 
Q 2304 2554 2192 2611 
Q 2080 2669 1914 2669 
Q 1754 2669 1638 2614 
Q 1523 2560 1446 2470 
Q 1370 2381 1328 2262 
Q 1286 2144 1267 2022 
L 2528 2022 
z
" transform="scale(0.015625)"/>
       <path id="Ubuntu-Bold-73" d="M 1414 685 
Q 1677 685 1785 736 
Q 1894 787 1894 934 
Q 1894 1050 1753 1136 
Q 1613 1222 1325 1331 
Q 1101 1414 918 1504 
Q 736 1594 608 1718 
Q 480 1843 409 2016 
Q 339 2189 339 2432 
Q 339 2906 691 3181 
Q 1043 3456 1658 3456 
Q 1965 3456 2246 3401 
Q 2528 3347 2694 3283 
L 2528 2541 
Q 2362 2598 2166 2643 
Q 1971 2688 1728 2688 
Q 1280 2688 1280 2438 
Q 1280 2381 1299 2336 
Q 1318 2291 1376 2249 
Q 1434 2208 1533 2160 
Q 1632 2112 1786 2054 
Q 2099 1939 2304 1827 
Q 2509 1715 2627 1584 
Q 2746 1453 2794 1293 
Q 2842 1133 2842 922 
Q 2842 422 2467 166 
Q 2093 -90 1408 -90 
Q 960 -90 662 -13 
Q 365 64 250 115 
L 410 890 
Q 653 794 909 739 
Q 1165 685 1414 685 
z
" transform="scale(0.015625)"/>
       <path id="Ubuntu-Bold-69" d="M 1402 0 
L 448 0 
L 448 3366 
L 1402 3366 
L 1402 0 
z
M 1491 4339 
Q 1491 4077 1321 3926 
Q 1152 3776 922 3776 
Q 691 3776 521 3926 
Q 352 4077 352 4339 
Q 352 4602 521 4752 
Q 691 4902 922 4902 
Q 1152 4902 1321 4752 
Q 1491 4602 1491 4339 
z
" transform="scale(0.015625)"/>
       <path id="Ubuntu-Bold-64" d="M 1261 1709 
Q 1261 1267 1459 998 
Q 1658 730 2048 730 
Q 2176 730 2285 739 
Q 2394 749 2464 762 
L 2464 2496 
Q 2374 2554 2230 2592 
Q 2086 2630 1939 2630 
Q 1261 2630 1261 1709 
z
M 3418 109 
Q 3290 70 3123 35 
Q 2957 0 2774 -25 
Q 2592 -51 2403 -67 
Q 2214 -83 2042 -83 
Q 1626 -83 1299 38 
Q 973 160 749 387 
Q 525 614 406 937 
Q 288 1261 288 1664 
Q 288 2074 390 2403 
Q 493 2733 685 2963 
Q 877 3194 1155 3315 
Q 1434 3437 1792 3437 
Q 1990 3437 2147 3398 
Q 2304 3360 2464 3290 
L 2464 4813 
L 3418 4966 
L 3418 109 
z
" transform="scale(0.015625)"/>
       <path id="Ubuntu-Bold-75" d="M 3322 115 
Q 3078 45 2694 -16 
Q 2310 -77 1888 -77 
Q 1459 -77 1174 38 
Q 890 154 723 362 
Q 557 570 486 858 
Q 416 1146 416 1491 
L 416 3366 
L 1370 3366 
L 1370 1606 
Q 1370 1146 1491 941 
Q 1613 736 1946 736 
Q 2048 736 2163 745 
Q 2278 755 2368 768 
L 2368 3366 
L 3322 3366 
L 3322 115 
z
" transform="scale(0.015625)"/>
       <path id="Ubuntu-Bold-61" d="M 1734 666 
Q 1875 666 2003 672 
Q 2131 678 2208 691 
L 2208 1414 
Q 2150 1427 2035 1440 
Q 1920 1453 1824 1453 
Q 1690 1453 1571 1437 
Q 1453 1421 1363 1376 
Q 1274 1331 1222 1254 
Q 1171 1178 1171 1062 
Q 1171 838 1321 752 
Q 1472 666 1734 666 
z
M 1658 3456 
Q 2080 3456 2361 3360 
Q 2643 3264 2812 3085 
Q 2982 2906 3052 2650 
Q 3123 2394 3123 2080 
L 3123 96 
Q 2918 51 2553 -9 
Q 2189 -70 1670 -70 
Q 1344 -70 1078 -12 
Q 813 45 621 176 
Q 429 307 326 518 
Q 224 730 224 1037 
Q 224 1331 342 1536 
Q 461 1741 659 1862 
Q 858 1984 1114 2038 
Q 1370 2093 1645 2093 
Q 1830 2093 1974 2077 
Q 2118 2061 2208 2035 
L 2208 2125 
Q 2208 2368 2061 2515 
Q 1914 2662 1549 2662 
Q 1306 2662 1069 2627 
Q 832 2592 659 2528 
L 538 3296 
Q 621 3322 745 3350 
Q 870 3379 1017 3401 
Q 1165 3424 1328 3440 
Q 1491 3456 1658 3456 
z
" transform="scale(0.015625)"/>
       <path id="Ubuntu-Bold-6c" d="M 1792 -64 
Q 1376 -58 1117 25 
Q 858 109 707 259 
Q 557 410 502 624 
Q 448 838 448 1107 
L 448 4813 
L 1402 4966 
L 1402 1299 
Q 1402 1171 1421 1068 
Q 1440 966 1494 896 
Q 1549 826 1651 781 
Q 1754 736 1926 723 
L 1792 -64 
z
" transform="scale(0.015625)"/>
      </defs>
      <use xlink:href="#Ubuntu-Bold-52"/>
      <use xlink:href="#Ubuntu-Bold-65" x="64.199997"/>
      <use xlink:href="#Ubuntu-Bold-73" x="122.599991"/>
      <use xlink:href="#Ubuntu-Bold-69" x="171.099976"/>
      <use xlink:href="#Ubuntu-Bold-64" x="199.999969"/>
      <use xlink:href="#Ubuntu-Bold-75" x="260.399963"/>
      <use xlink:href="#Ubuntu-Bold-61" x="319.299957"/>
      <use xlink:href="#Ubuntu-Bold-6c" x="374.599945"/>
      <use xlink:href="#Ubuntu-Bold-73" x="406.199936"/>
     </g>
    </g>
   </g>
   <g id="patch_4">
    <path d="M 59.923438 113.948654 
L 59.923438 11.331346 
" style="fill: none; stroke: #cccccc; stroke-width: 0.75; stroke-linejoin: miter; stroke-linecap: square"/>
   </g>
   <g id="patch_5">
    <path d="M 66.799908 123.08 
L 504.446967 123.08 
" style="fill: none; stroke: #cccccc; stroke-width: 0.75; stroke-linejoin: miter; stroke-linecap: square"/>
   </g>
   <g id="line2d_31">
    <path d="M 66.799908 80.573872 
L 66.995987 81.985902 
L 67.094026 80.406663 
L 67.192065 80.84914 
L 67.388143 80.601855 
L 67.486183 80.739996 
L 68.074418 76.868583 
L 68.172457 76.92019 
L 68.270496 76.441506 
L 68.662653 79.175473 
L 68.760692 78.625277 
L 68.858732 79.392484 
L 69.05481 83.58701 
L 69.250888 84.894073 
L 69.446967 84.376279 
L 69.545006 85.252527 
L 69.937163 76.448465 
L 70.035202 76.109828 
L 70.623438 83.522148 
L 70.721477 83.136177 
L 70.819516 83.337101 
L 71.015594 85.87017 
L 71.211673 84.990184 
L 71.309712 84.589049 
L 71.407751 83.556028 
L 71.60383 86.43454 
L 71.897947 83.33642 
L 71.995987 83.120561 
L 72.192065 82.102496 
L 72.290104 82.126475 
L 72.388143 81.400637 
L 72.486183 81.516099 
L 72.584222 81.945331 
L 72.682261 83.053689 
L 72.878339 82.177441 
L 73.074418 84.593673 
L 73.172457 84.845474 
L 73.368536 84.292936 
L 73.662653 86.686693 
L 73.760692 88.253893 
L 73.858732 85.880458 
L 73.956771 85.964916 
L 74.05481 87.397748 
L 74.446967 83.46375 
L 74.545006 83.455426 
L 74.839124 81.490406 
L 74.937163 81.810163 
L 75.035202 81.740246 
L 75.231281 82.565401 
L 75.32932 81.167068 
L 75.427359 82.104463 
L 75.623438 81.773197 
L 75.819516 82.393662 
L 75.917555 83.062163 
L 76.015594 82.340371 
L 76.113634 82.409951 
L 76.50579 83.672802 
L 76.60383 84.433426 
L 76.701869 82.181167 
L 76.799908 82.197596 
L 76.995987 83.116074 
L 77.192065 81.30676 
L 77.976379 72.69285 
L 78.172457 77.851157 
L 78.368536 90.246888 
L 78.564614 91.6575 
L 78.956771 79.865074 
L 79.05481 78.865267 
L 79.250888 74.668216 
L 79.545006 72.465117 
L 79.643045 72.55339 
L 79.839124 71.946241 
L 79.937163 71.909924 
L 80.133241 72.583407 
L 80.231281 72.828174 
L 80.32932 71.54458 
L 80.427359 71.982395 
L 80.623438 73.81458 
L 80.721477 73.903727 
L 80.917555 73.375709 
L 81.015594 74.044719 
L 81.113634 72.49535 
L 81.407751 73.416807 
L 82.094026 70.824273 
L 82.290104 71.771389 
L 82.486183 69.940235 
L 82.682261 70.489631 
L 82.976379 72.91663 
L 83.172457 77.841101 
L 83.270496 77.214149 
L 83.662653 79.108262 
L 83.956771 71.506844 
L 84.152849 70.450679 
L 84.250888 70.60316 
L 84.545006 74.452286 
L 84.839124 77.592139 
L 84.937163 76.846633 
L 85.231281 81.774037 
L 85.427359 80.97412 
L 85.525398 80.961473 
L 85.623438 81.847974 
L 86.211673 80.125711 
L 86.407751 82.163266 
L 86.60383 81.048858 
L 86.799908 82.60011 
L 86.897947 84.560058 
L 86.995987 84.454671 
L 87.192065 85.602233 
L 87.290104 84.922664 
L 87.388143 85.511912 
L 87.486183 85.461512 
L 87.584222 84.243153 
L 87.878339 85.19611 
L 87.976379 84.751334 
L 88.074418 85.867888 
L 88.270496 84.969206 
L 88.368536 84.768724 
L 88.466575 83.54 
L 88.662653 84.404156 
L 88.760692 84.435093 
L 88.956771 81.987675 
L 89.05481 82.345667 
L 89.348928 79.522632 
L 89.446967 79.738879 
L 89.643045 80.598243 
L 89.741085 80.473958 
L 89.839124 79.420939 
L 90.32932 81.438955 
L 90.525398 83.997388 
L 90.623438 83.797289 
L 90.721477 84.66734 
L 91.113634 83.729849 
L 91.211673 83.146999 
L 91.309712 83.862495 
L 91.60383 79.492316 
L 91.799908 77.423024 
L 91.995987 75.632317 
L 92.094026 75.597111 
L 92.192065 75.263549 
L 92.584222 93.468168 
L 92.682261 92.905971 
L 93.270496 78.620705 
L 93.466575 76.884944 
L 93.564614 76.741301 
L 93.662653 75.640668 
L 93.760692 76.105557 
L 93.858732 75.882714 
L 94.05481 74.854312 
L 94.152849 76.232468 
L 94.250888 75.564947 
L 94.643045 78.116725 
L 94.839124 76.785804 
L 94.937163 76.814704 
L 95.035202 76.717362 
L 95.231281 78.38611 
L 95.427359 77.575472 
L 95.525398 77.616474 
L 95.623438 77.819472 
L 95.819516 75.944155 
L 95.917555 75.596897 
L 96.113634 75.8532 
L 96.50579 72.349659 
L 96.60383 72.648185 
L 96.701869 72.275833 
L 96.799908 72.569829 
L 97.192065 78.870584 
L 97.290104 81.600489 
L 97.388143 81.215612 
L 97.7803 82.306763 
L 97.878339 81.279007 
L 98.074418 75.228179 
L 98.368536 73.375315 
L 98.466575 74.060208 
L 98.760692 78.928019 
L 98.956771 80.1334 
L 99.152849 81.755379 
L 99.250888 82.419811 
L 99.348928 82.097043 
L 99.446967 82.874006 
L 99.545006 82.147295 
L 99.643045 82.291416 
L 99.839124 83.046897 
L 100.035202 82.366788 
L 100.231281 80.747655 
L 100.32932 81.062086 
L 100.623438 83.910202 
L 100.819516 82.655548 
L 101.015594 85.015441 
L 101.113634 85.09383 
L 101.309712 87.968646 
L 101.407751 86.914445 
L 101.50579 87.843742 
L 101.60383 86.922254 
L 101.995987 89.816848 
L 102.094026 86.65772 
L 102.290104 65.935868 
L 102.388143 65.510065 
L 102.486183 68.319528 
L 102.682261 80.969694 
L 102.7803 80.434569 
L 102.976379 81.237849 
L 103.270496 78.074053 
L 103.466575 79.187092 
L 103.662653 79.950637 
L 103.858732 78.47902 
L 103.956771 79.455972 
L 104.05481 79.427407 
L 104.152849 79.642102 
L 104.250888 79.158867 
L 104.348928 79.249593 
L 104.545006 81.289301 
L 104.643045 80.71065 
L 104.839124 81.335515 
L 105.035202 84.890126 
L 105.133241 84.582787 
L 105.231281 85.204793 
L 105.32932 84.993329 
L 105.427359 84.043295 
L 105.721477 77.236728 
L 105.819516 77.341471 
L 105.917555 76.76574 
L 106.113634 73.531694 
L 106.211673 73.043134 
L 106.309712 73.927744 
L 106.60383 90.475526 
L 106.701869 90.18914 
L 107.486183 74.821333 
L 107.7803 73.252388 
L 107.878339 71.524766 
L 108.270496 74.604136 
L 108.368536 74.421395 
L 108.662653 76.298658 
L 108.760692 75.476993 
L 108.956771 77.857216 
L 109.05481 76.902444 
L 109.152849 77.062235 
L 109.250888 77.557929 
L 109.348928 77.157973 
L 109.446967 77.911545 
L 109.643045 75.294336 
L 109.741085 74.731705 
L 109.839124 75.540414 
L 109.937163 75.110803 
L 110.133241 74.083122 
L 110.427359 73.142488 
L 110.525398 73.316173 
L 110.623438 73.150591 
L 110.721477 72.507827 
L 110.819516 72.789873 
L 111.113634 72.104275 
L 111.309712 75.505484 
L 111.50579 79.156333 
L 111.60383 78.789662 
L 111.701869 79.170871 
L 111.897947 81.018614 
L 112.192065 73.41368 
L 112.486183 72.583804 
L 113.074418 77.392941 
L 113.172457 76.91264 
L 113.466575 80.400853 
L 113.564614 80.172232 
L 113.662653 78.97846 
L 113.956771 80.849336 
L 114.348928 78.897988 
L 114.446967 79.120261 
L 114.545006 78.129663 
L 114.937163 80.50623 
L 115.035202 80.138201 
L 115.133241 80.502866 
L 115.525398 84.030744 
L 115.819516 86.21469 
L 116.113634 85.215586 
L 116.701869 74.92677 
L 116.799908 74.409881 
L 117.094026 77.620665 
L 117.192065 77.404178 
L 117.486183 75.504093 
L 117.584222 75.837006 
L 117.7803 80.685336 
L 117.878339 79.977388 
L 118.074418 81.801689 
L 118.172457 82.250419 
L 118.270496 82.182281 
L 118.466575 83.321662 
L 118.858732 85.69389 
L 118.956771 86.565113 
L 119.05481 85.512585 
L 119.152849 86.096664 
L 119.643045 83.140875 
L 120.231281 75.096407 
L 120.427359 76.07201 
L 120.525398 79.453383 
L 120.721477 93.391418 
L 120.819516 93.582959 
L 121.211673 85.489621 
L 121.60383 77.824921 
L 121.799908 77.206422 
L 121.897947 77.106639 
L 122.094026 76.324345 
L 122.388143 77.718413 
L 122.486183 77.575439 
L 122.584222 77.966515 
L 122.682261 77.53097 
L 122.7803 77.990833 
L 122.878339 77.717926 
L 122.976379 78.241441 
L 123.172457 81.460781 
L 123.270496 79.8678 
L 123.466575 80.77696 
L 123.564614 79.915411 
L 123.760692 81.082974 
L 123.858732 80.912514 
L 124.05481 79.340815 
L 124.250888 77.229773 
L 124.446967 77.777203 
L 124.937163 74.397601 
L 125.427359 78.243102 
L 125.525398 82.375406 
L 125.623438 82.270747 
L 125.819516 83.144606 
L 126.015594 84.090826 
L 126.113634 83.115959 
L 126.407751 74.852815 
L 126.60383 76.620076 
L 126.701869 77.151175 
L 126.995987 80.14867 
L 127.094026 80.33519 
L 127.192065 80.192285 
L 127.290104 81.043099 
L 127.388143 83.319236 
L 127.486183 83.045534 
L 127.878339 77.531087 
L 128.074418 81.166436 
L 128.172457 81.367102 
L 128.270496 81.208673 
L 128.368536 81.576117 
L 128.662653 80.147641 
L 128.956771 81.630666 
L 129.05481 82.006785 
L 129.250888 80.518738 
L 129.446967 81.713193 
L 129.545006 81.259098 
L 129.643045 82.373196 
L 129.741085 82.364179 
L 129.839124 83.276576 
L 129.937163 83.180939 
L 130.035202 83.813309 
L 130.133241 83.633508 
L 130.231281 83.890288 
L 130.525398 80.43589 
L 130.623438 80.096564 
L 130.721477 80.439971 
L 130.917555 78.453907 
L 131.015594 79.126178 
L 131.211673 78.894837 
L 131.309712 78.87759 
L 131.407751 78.453946 
L 131.60383 77.452997 
L 131.799908 76.485867 
L 131.897947 76.678869 
L 132.094026 76.148993 
L 132.486183 77.818193 
L 132.7803 80.164054 
L 132.878339 79.125737 
L 133.172457 82.486364 
L 133.270496 82.239662 
L 133.368536 83.178044 
L 133.466575 82.704065 
L 133.564614 83.208273 
L 133.858732 80.35739 
L 134.348928 75.63687 
L 134.446967 76.159441 
L 134.545006 77.286306 
L 134.937163 95.346284 
L 135.133241 92.081245 
L 135.623438 81.66361 
L 136.211673 77.529216 
L 136.407751 79.430865 
L 136.50579 79.755869 
L 136.60383 79.524343 
L 137.094026 83.571856 
L 137.192065 83.138801 
L 137.290104 83.451256 
L 137.486183 82.06606 
L 137.682261 83.675315 
L 137.976379 83.665706 
L 138.074418 82.638185 
L 138.172457 82.66256 
L 138.368536 82.080432 
L 138.466575 82.174926 
L 138.858732 77.656737 
L 138.956771 78.199412 
L 139.152849 77.163309 
L 139.741085 85.35168 
L 139.839124 85.661816 
L 139.937163 85.36739 
L 140.133241 87.299357 
L 140.231281 86.022944 
L 140.525398 75.381665 
L 140.623438 78.035168 
L 140.721477 76.986476 
L 141.015594 78.834893 
L 141.113634 78.15763 
L 141.211673 78.315158 
L 141.309712 77.398327 
L 141.407751 77.472917 
L 141.50579 77.871073 
L 141.60383 72.826853 
L 141.701869 72.989089 
L 142.192065 67.560292 
L 142.388143 66.257346 
L 142.7803 62.336284 
L 142.878339 62.800406 
L 143.074418 61.671525 
L 143.172457 62.313795 
L 143.270496 65.564617 
L 143.466575 56.325149 
L 143.956771 75.113159 
L 144.152849 73.985444 
L 144.348928 75.310578 
L 144.446967 75.010127 
L 144.545006 74.524681 
L 144.741085 72.990221 
L 144.937163 72.869181 
L 145.231281 73.90887 
L 145.819516 70.173957 
L 145.917555 70.614649 
L 146.211673 69.818018 
L 146.60383 71.656837 
L 146.701869 71.417028 
L 147.486183 81.9176 
L 147.682261 80.007627 
L 147.976379 74.907379 
L 148.172457 73.454009 
L 148.368536 52.722279 
L 148.466575 52.017488 
L 148.662653 54.795822 
L 149.05481 73.966484 
L 149.250888 69.808488 
L 149.839124 58.779432 
L 149.937163 58.178692 
L 150.035202 58.77304 
L 150.231281 57.76582 
L 150.32932 57.851105 
L 150.525398 58.706906 
L 150.623438 58.004143 
L 150.819516 60.325589 
L 150.917555 60.397143 
L 151.211673 63.688778 
L 151.407751 67.649895 
L 151.60383 68.277859 
L 151.995987 72.900601 
L 152.192065 73.194021 
L 152.584222 76.449751 
L 152.7803 74.37306 
L 152.878339 72.972112 
L 152.976379 73.270434 
L 153.074418 72.999777 
L 153.172457 73.043265 
L 153.368536 74.033596 
L 153.466575 74.389892 
L 153.662653 76.256957 
L 153.956771 81.646626 
L 154.05481 81.389894 
L 154.250888 69.461539 
L 154.348928 73.214177 
L 154.545006 71.623395 
L 154.741085 73.903698 
L 154.839124 72.574698 
L 155.133241 77.980737 
L 155.231281 77.931587 
L 155.427359 79.007568 
L 155.819516 82.110253 
L 155.917555 81.166501 
L 156.015594 81.992915 
L 156.113634 81.654782 
L 156.211673 82.237575 
L 156.309712 81.886437 
L 156.407751 82.105994 
L 156.60383 80.585591 
L 156.897947 81.967189 
L 157.192065 82.480879 
L 157.388143 85.944559 
L 157.584222 86.601373 
L 157.682261 79.77227 
L 157.7803 80.055039 
L 157.878339 77.257623 
L 157.976379 78.824366 
L 158.368536 91.231865 
L 158.564614 93.21095 
L 159.05481 89.021412 
L 159.348928 89.662302 
L 159.446967 89.367921 
L 159.545006 88.192424 
L 159.741085 83.585809 
L 159.839124 86.10703 
L 159.937163 85.681167 
L 160.231281 87.295482 
L 160.32932 86.995266 
L 160.427359 86.398126 
L 160.525398 87.113683 
L 160.623438 83.892132 
L 160.819516 88.069187 
L 160.917555 87.518135 
L 161.113634 88.561857 
L 161.211673 87.511905 
L 161.407751 89.159887 
L 161.60383 88.780245 
L 161.701869 88.980278 
L 161.799908 88.113513 
L 161.995987 88.35262 
L 162.192065 85.413872 
L 162.290104 85.407113 
L 162.584222 82.184961 
L 162.682261 82.041951 
L 162.878339 92.120512 
L 163.074418 101.67835 
L 163.466575 94.698578 
L 164.05481 82.125499 
L 164.446967 79.260934 
L 164.545006 79.73153 
L 164.643045 79.292176 
L 165.133241 82.818478 
L 165.32932 81.761011 
L 165.525398 83.253728 
L 165.721477 84.410225 
L 166.211673 82.205666 
L 166.309712 82.750433 
L 166.407751 82.626064 
L 166.50579 82.740637 
L 166.897947 79.53647 
L 166.995987 79.270643 
L 167.192065 78.553103 
L 167.290104 78.182734 
L 167.388143 78.280014 
L 167.584222 78.700474 
L 167.682261 78.817445 
L 168.172457 86.141611 
L 168.368536 87.505657 
L 168.466575 86.619161 
L 168.760692 79.496368 
L 168.858732 77.996057 
L 168.956771 78.368926 
L 169.152849 81.272223 
L 169.348928 83.924606 
L 169.643045 84.776562 
L 169.741085 85.975245 
L 169.937163 91.923393 
L 170.035202 90.430431 
L 170.133241 86.684396 
L 170.231281 88.904116 
L 170.427359 86.867965 
L 170.525398 87.412377 
L 170.623438 86.784227 
L 170.819516 88.719966 
L 171.015594 87.168428 
L 171.113634 88.091404 
L 171.211673 87.39573 
L 171.309712 89.682917 
L 171.50579 88.532757 
L 171.60383 88.694529 
L 171.897947 91.11426 
L 171.995987 91.416378 
L 172.192065 90.622307 
L 172.584222 91.942809 
L 173.172457 87.740794 
L 173.368536 88.432355 
L 173.466575 88.306704 
L 173.564614 88.492865 
L 173.760692 87.476659 
L 173.858732 86.31202 
L 173.956771 86.385174 
L 174.05481 86.658347 
L 174.152849 86.378316 
L 174.348928 74.51302 
L 174.446967 74.062438 
L 174.839124 76.945842 
L 174.937163 76.824116 
L 175.035202 76.865197 
L 175.32932 78.891102 
L 175.427359 78.863688 
L 175.623438 78.311737 
L 175.819516 80.089446 
L 176.015594 91.741159 
L 176.701869 83.292037 
L 176.799908 82.777642 
L 176.897947 84.86568 
L 177.192065 100.823222 
L 177.290104 100.34517 
L 177.486183 95.469429 
L 177.878339 83.465039 
L 177.976379 81.526364 
L 178.074418 81.81881 
L 178.368536 78.833714 
L 178.466575 78.839657 
L 178.760692 77.931979 
L 178.956771 78.947134 
L 179.05481 79.275674 
L 179.152849 78.998251 
L 179.643045 80.45921 
L 179.741085 79.642047 
L 179.937163 80.702927 
L 180.035202 79.88376 
L 180.133241 79.981742 
L 180.231281 79.260451 
L 180.427359 79.962859 
L 180.623438 78.547418 
L 181.015594 75.870593 
L 181.309712 75.214065 
L 181.407751 75.365447 
L 181.50579 74.957703 
L 181.60383 75.329363 
L 181.897947 78.14125 
L 182.094026 82.608317 
L 182.192065 82.941221 
L 182.290104 82.42208 
L 182.388143 83.876688 
L 182.486183 83.848842 
L 182.584222 83.20415 
L 183.074418 68.623688 
L 183.172457 69.216692 
L 183.270496 70.295738 
L 183.368536 68.864062 
L 183.466575 69.187469 
L 183.662653 71.522922 
L 183.858732 86.766484 
L 183.956771 86.875485 
L 184.152849 85.929535 
L 184.250888 86.230591 
L 184.348928 85.562553 
L 184.446967 85.6396 
L 184.545006 85.441174 
L 184.643045 86.054885 
L 184.839124 84.705724 
L 184.937163 84.516422 
L 185.133241 85.399919 
L 185.427359 61.795361 
L 185.819516 69.223061 
L 186.015594 75.599726 
L 186.50579 81.391393 
L 186.60383 81.526393 
L 186.701869 84.113786 
L 186.799908 83.531494 
L 186.897947 83.639983 
L 187.094026 84.301462 
L 187.192065 82.925821 
L 187.290104 83.208562 
L 187.388143 83.833376 
L 187.486183 83.193694 
L 187.584222 83.702468 
L 188.074418 79.817742 
L 188.270496 80.94375 
L 188.368536 80.655308 
L 188.466575 81.043165 
L 188.564614 81.00626 
L 188.662653 81.086558 
L 188.956771 82.710989 
L 189.05481 84.377159 
L 189.152849 84.244925 
L 189.545006 86.051749 
L 189.741085 85.672528 
L 189.839124 85.869492 
L 190.133241 83.229242 
L 190.231281 83.127891 
L 190.32932 82.521992 
L 190.819516 74.576279 
L 190.917555 75.702029 
L 191.015594 78.41827 
L 191.211673 92.802775 
L 191.309712 93.362834 
L 191.407751 93.07708 
L 191.799908 82.195806 
L 192.388143 70.857529 
L 192.584222 68.994415 
L 192.878339 69.943256 
L 192.976379 70.271596 
L 193.074418 69.626033 
L 193.172457 70.521322 
L 193.270496 69.889331 
L 193.368536 70.175788 
L 193.564614 71.697996 
L 193.662653 71.49944 
L 193.760692 72.051174 
L 193.858732 70.840308 
L 193.956771 71.011599 
L 194.05481 71.890051 
L 194.152849 71.7522 
L 194.348928 72.658977 
L 194.545006 72.096954 
L 194.643045 72.800841 
L 194.937163 72.136554 
L 195.133241 69.804307 
L 195.32932 69.525338 
L 195.427359 69.018017 
L 195.525398 69.781597 
L 195.623438 69.574627 
L 195.917555 71.438755 
L 196.113634 74.653511 
L 196.309712 76.336547 
L 196.407751 77.220796 
L 196.60383 79.683532 
L 196.701869 78.623449 
L 196.995987 70.473429 
L 197.094026 69.627698 
L 197.192065 69.69794 
L 197.290104 70.033676 
L 197.682261 74.751113 
L 197.7803 75.133657 
L 197.878339 75.025552 
L 198.172457 79.629183 
L 198.564614 75.928944 
L 198.662653 75.999058 
L 198.760692 75.71837 
L 198.956771 76.628765 
L 199.05481 75.277966 
L 199.152849 75.930733 
L 199.250888 75.821414 
L 199.348928 75.033458 
L 199.545006 60.019277 
L 199.643045 62.879667 
L 199.937163 79.668732 
L 200.32932 86.180378 
L 200.427359 86.596858 
L 200.525398 86.342468 
L 200.623438 86.493485 
L 200.721477 85.971561 
L 200.819516 86.051327 
L 200.917555 85.775359 
L 201.113634 86.044313 
L 201.211673 85.222372 
L 201.309712 83.378949 
L 201.407751 83.39829 
L 201.50579 83.456445 
L 201.60383 83.929655 
L 201.701869 83.627893 
L 201.995987 81.491485 
L 202.094026 81.501734 
L 202.192065 80.830405 
L 202.290104 81.565047 
L 202.486183 80.905498 
L 202.682261 80.687988 
L 202.7803 81.575126 
L 202.878339 81.325 
L 202.976379 81.422604 
L 203.074418 82.628389 
L 203.172457 82.395703 
L 203.270496 82.588503 
L 203.368536 83.427706 
L 203.662653 83.117099 
L 203.760692 82.348036 
L 203.858732 82.840136 
L 203.956771 81.899545 
L 204.152849 82.61082 
L 204.250888 82.864935 
L 204.937163 77.013615 
L 205.035202 77.399751 
L 205.231281 91.173541 
L 205.427359 98.576336 
L 205.525398 97.893632 
L 205.819516 89.942352 
L 206.113634 82.298177 
L 206.309712 78.774327 
L 206.50579 77.281043 
L 206.60383 77.034681 
L 206.701869 75.288978 
L 206.799908 75.387204 
L 207.192065 73.345068 
L 207.584222 76.090407 
L 207.7803 77.352688 
L 207.878339 77.232574 
L 208.172457 76.722474 
L 208.270496 77.366889 
L 208.564614 75.629305 
L 208.662653 75.324581 
L 208.858732 76.140876 
L 208.956771 76.057545 
L 209.152849 74.546734 
L 209.250888 74.887236 
L 209.446967 73.149554 
L 209.545006 73.404165 
L 209.643045 72.967112 
L 209.937163 74.290879 
L 210.133241 77.471971 
L 210.525398 83.526585 
L 210.623438 83.579786 
L 210.721477 84.489984 
L 210.819516 84.068024 
L 211.113634 76.109761 
L 211.309712 75.670218 
L 211.407751 75.655354 
L 211.897947 79.377148 
L 211.995987 78.918804 
L 212.486183 81.099507 
L 212.584222 81.328122 
L 212.682261 79.6565 
L 212.7803 79.968057 
L 212.878339 82.270247 
L 213.074418 79.674825 
L 213.172457 79.348546 
L 213.270496 80.013127 
L 213.368536 78.928747 
L 213.564614 79.351233 
L 213.662653 79.445007 
L 213.760692 78.792727 
L 213.858732 78.935855 
L 214.05481 80.536844 
L 214.152849 80.904459 
L 214.250888 80.73482 
L 214.446967 82.533616 
L 214.741085 81.644017 
L 214.839124 82.105134 
L 215.133241 78.958872 
L 215.525398 71.830436 
L 215.623438 72.089141 
L 215.917555 75.007624 
L 216.015594 75.672055 
L 216.309712 72.887174 
L 216.50579 72.660109 
L 216.799908 73.809136 
L 216.897947 74.173079 
L 217.094026 75.753582 
L 217.682261 78.962745 
L 217.7803 78.954944 
L 217.878339 78.228623 
L 218.074418 79.331185 
L 218.172457 79.074076 
L 218.466575 76.154039 
L 218.662653 73.763599 
L 219.05481 71.040163 
L 219.152849 72.060634 
L 219.545006 92.098221 
L 219.741085 89.297399 
L 220.133241 78.085924 
L 220.32932 73.98919 
L 220.525398 73.375564 
L 220.721477 70.796566 
L 220.819516 70.99616 
L 221.015594 70.538386 
L 221.113634 71.056778 
L 221.211673 70.552715 
L 221.407751 71.565275 
L 221.50579 71.087528 
L 221.897947 73.495504 
L 221.995987 72.062084 
L 222.094026 72.521482 
L 222.192065 71.615319 
L 222.290104 74.043561 
L 222.388143 73.835238 
L 222.486183 74.059014 
L 222.584222 73.468026 
L 222.682261 74.01928 
L 222.7803 73.69368 
L 223.172457 70.470349 
L 223.270496 70.552711 
L 223.466575 70.869731 
L 223.564614 70.704419 
L 223.662653 70.849964 
L 223.760692 72.0554 
L 223.858732 71.255215 
L 224.05481 71.852057 
L 224.348928 75.391727 
L 224.545006 79.152977 
L 224.643045 79.427554 
L 224.839124 80.817435 
L 224.937163 80.455846 
L 225.427359 72.024992 
L 225.525398 71.684462 
L 225.819516 75.43167 
L 225.917555 76.36619 
L 226.015594 75.711588 
L 226.113634 76.214327 
L 226.309712 78.193813 
L 226.60383 77.952542 
L 226.701869 77.242392 
L 226.799908 78.218167 
L 227.094026 76.774416 
L 227.388143 75.155906 
L 227.486183 75.291772 
L 227.7803 76.955327 
L 227.976379 75.876539 
L 228.172457 74.721696 
L 228.270496 75.708541 
L 228.368536 74.990234 
L 228.466575 75.053975 
L 228.662653 76.318055 
L 228.760692 77.506643 
L 228.858732 77.163907 
L 228.956771 77.531603 
L 229.05481 77.390712 
L 229.152849 76.460795 
L 229.250888 77.11615 
L 229.446967 76.381136 
L 229.545006 74.954005 
L 229.741085 75.882887 
L 229.839124 75.109205 
L 229.937163 75.546966 
L 230.035202 74.573073 
L 230.133241 74.595413 
L 230.231281 74.958545 
L 230.427359 72.935058 
L 230.623438 71.306405 
L 230.721477 71.208548 
L 230.917555 72.037607 
L 231.015594 71.465581 
L 231.113634 71.740544 
L 231.407751 73.923868 
L 231.50579 74.380069 
L 231.60383 75.500663 
L 231.701869 75.290602 
L 232.094026 77.688178 
L 232.290104 78.201004 
L 232.388143 77.706256 
L 232.486183 78.396547 
L 232.7803 73.867887 
L 232.878339 73.495785 
L 233.074418 71.897846 
L 233.172457 72.524622 
L 233.270496 73.933926 
L 233.662653 94.084548 
L 233.956771 88.549593 
L 234.446967 74.842921 
L 234.545006 74.877647 
L 234.741085 72.509848 
L 234.839124 72.589964 
L 235.035202 71.249532 
L 235.133241 72.26555 
L 235.231281 72.124044 
L 235.32932 71.685222 
L 235.525398 72.853197 
L 235.623438 72.587903 
L 235.819516 74.851901 
L 235.917555 74.880536 
L 236.211673 76.794301 
L 236.309712 76.933354 
L 236.50579 76.492214 
L 236.60383 76.545199 
L 236.701869 75.696311 
L 236.799908 76.838886 
L 237.094026 75.880201 
L 237.192065 76.10139 
L 237.486183 73.27493 
L 237.682261 73.019722 
L 237.7803 71.900475 
L 238.074418 73.72143 
L 238.172457 74.051981 
L 238.270496 73.668528 
L 238.466575 75.808715 
L 238.662653 80.216879 
L 238.760692 77.778547 
L 238.956771 68.172284 
L 239.05481 68.333078 
L 239.152849 72.712905 
L 239.348928 70.761287 
L 239.446967 70.398081 
L 239.643045 71.82822 
L 239.937163 73.366551 
L 240.133241 73.059566 
L 240.231281 72.511227 
L 240.427359 72.697767 
L 240.819516 69.896004 
L 240.917555 70.048347 
L 241.015594 69.347873 
L 241.113634 69.688309 
L 241.211673 69.57118 
L 241.50579 66.250079 
L 241.60383 66.275076 
L 241.701869 66.020188 
L 241.799908 66.197767 
L 242.192065 68.664194 
L 242.290104 69.678824 
L 242.388143 69.439832 
L 242.584222 71.014028 
L 242.682261 71.167371 
L 242.878339 72.600205 
L 242.976379 72.666728 
L 243.074418 73.607485 
L 243.564614 72.024179 
L 243.760692 69.446776 
L 243.858732 70.530174 
L 243.956771 70.220847 
L 244.05481 70.749505 
L 244.446967 67.422713 
L 244.545006 67.186297 
L 244.937163 65.239686 
L 245.035202 66.686788 
L 245.231281 66.217761 
L 245.525398 67.745695 
L 245.721477 68.844293 
L 245.819516 69.332997 
L 246.113634 72.76937 
L 246.211673 72.082885 
L 246.309712 72.279309 
L 246.407751 73.39687 
L 247.094026 68.703544 
L 247.290104 67.571473 
L 247.388143 68.897276 
L 247.486183 73.698314 
L 247.682261 87.165199 
L 247.7803 87.030957 
L 247.976379 83.19335 
L 248.662653 71.024407 
L 248.858732 69.618953 
L 249.05481 68.779728 
L 249.152849 68.489931 
L 249.250888 69.176135 
L 249.348928 69.140359 
L 249.446967 69.02788 
L 249.643045 69.372469 
L 249.741085 68.969297 
L 249.839124 70.000778 
L 249.937163 69.793473 
L 250.035202 70.119641 
L 250.133241 69.837583 
L 250.623438 72.290138 
L 250.819516 72.597478 
L 251.015594 72.2085 
L 251.113634 72.322688 
L 251.309712 71.104152 
L 251.407751 71.196842 
L 251.60383 69.950751 
L 251.701869 69.664138 
L 251.799908 69.940413 
L 251.995987 69.648544 
L 252.094026 70.07636 
L 252.584222 74.815825 
L 252.7803 77.93201 
L 253.172457 79.722905 
L 253.662653 71.496207 
L 253.760692 71.118795 
L 253.858732 71.281845 
L 254.05481 73.554771 
L 254.152849 72.782642 
L 254.545006 75.557327 
L 254.643045 75.065525 
L 254.741085 73.940612 
L 254.839124 74.134315 
L 255.035202 72.589274 
L 255.133241 72.15211 
L 255.231281 72.526091 
L 255.32932 72.059174 
L 255.525398 69.982629 
L 255.623438 70.42556 
L 255.819516 69.416423 
L 256.211673 70.853802 
L 256.407751 74.413118 
L 256.50579 73.759097 
L 256.701869 74.791567 
L 256.799908 75.023903 
L 256.897947 74.867503 
L 257.094026 77.981883 
L 257.192065 76.387826 
L 257.290104 77.117662 
L 257.388143 75.650304 
L 257.584222 77.525182 
L 257.682261 77.417651 
L 257.878339 76.503162 
L 257.976379 76.645721 
L 258.074418 77.608851 
L 258.172457 75.196051 
L 258.270496 75.55652 
L 258.466575 73.848493 
L 258.564614 73.844989 
L 258.760692 71.872561 
L 258.858732 72.002961 
L 258.956771 71.978191 
L 259.05481 72.24891 
L 259.152849 71.638448 
L 259.348928 74.298984 
L 259.446967 74.807739 
L 259.545006 74.748732 
L 259.643045 74.637692 
L 259.741085 74.052825 
L 260.32932 78.517831 
L 260.525398 80.454924 
L 260.623438 79.979608 
L 261.309712 72.372481 
L 261.407751 72.91323 
L 261.60383 82.099612 
L 261.799908 94.294762 
L 261.897947 93.844322 
L 261.995987 92.374212 
L 262.388143 81.526664 
L 262.878339 73.036869 
L 263.368536 70.575765 
L 263.466575 71.287717 
L 263.662653 71.170457 
L 263.858732 70.464962 
L 264.348928 74.116673 
L 264.643045 73.544083 
L 264.741085 74.001431 
L 264.937163 72.323617 
L 265.035202 71.933762 
L 265.133241 72.699187 
L 265.32932 71.767714 
L 265.427359 72.140351 
L 265.623438 71.197642 
L 265.819516 70.189542 
L 265.917555 69.577008 
L 266.113634 70.21394 
L 266.407751 71.859406 
L 266.50579 71.809283 
L 266.60383 72.033799 
L 266.995987 79.881359 
L 267.192065 79.958475 
L 267.290104 80.845492 
L 267.682261 73.176258 
L 267.7803 73.464633 
L 267.878339 73.253684 
L 268.074418 75.066016 
L 268.270496 77.773864 
L 268.368536 77.803012 
L 268.466575 78.413826 
L 268.760692 82.991802 
L 268.858732 82.746905 
L 268.956771 81.300553 
L 269.05481 81.459328 
L 269.152849 81.715553 
L 269.348928 83.100487 
L 269.446967 82.607825 
L 269.545006 82.696584 
L 269.937163 80.999966 
L 270.035202 81.228223 
L 270.133241 81.087317 
L 270.231281 81.17375 
L 270.32932 82.198516 
L 270.427359 81.746288 
L 270.623438 79.943376 
L 271.309712 86.155022 
L 271.407751 86.082257 
L 271.50579 86.246883 
L 271.701869 85.641052 
L 271.799908 86.221058 
L 272.094026 84.094793 
L 272.192065 84.218215 
L 272.290104 83.957753 
L 272.388143 84.060141 
L 272.584222 81.867244 
L 272.7803 82.439485 
L 272.878339 82.685289 
L 272.976379 82.159667 
L 273.074418 80.75139 
L 273.172457 81.555448 
L 273.270496 80.339507 
L 273.368536 77.405351 
L 273.564614 78.966242 
L 273.760692 82.837514 
L 273.858732 82.921248 
L 273.956771 83.389878 
L 274.05481 83.18622 
L 274.152849 83.463416 
L 274.250888 83.390194 
L 274.348928 83.586903 
L 274.446967 81.172533 
L 274.545006 81.196723 
L 274.839124 81.85642 
L 275.035202 79.887805 
L 275.133241 79.577667 
L 275.427359 76.968422 
L 275.623438 79.272592 
L 275.917555 97.536457 
L 276.015594 98.906692 
L 276.897947 77.316967 
L 276.995987 76.935712 
L 277.192065 74.183578 
L 277.290104 74.31261 
L 277.584222 73.612559 
L 277.7803 72.903527 
L 277.976379 74.384997 
L 278.074418 74.016243 
L 278.270496 74.510188 
L 278.368536 74.492072 
L 278.466575 74.889652 
L 278.662653 76.203099 
L 278.760692 76.598214 
L 278.858732 76.041907 
L 279.05481 76.226879 
L 279.152849 75.13871 
L 279.250888 75.250187 
L 279.545006 72.434501 
L 279.643045 72.575164 
L 279.741085 72.106153 
L 279.839124 72.355849 
L 280.035202 71.402507 
L 280.133241 71.351967 
L 280.231281 71.109466 
L 280.32932 71.817049 
L 280.427359 71.530794 
L 280.819516 75.130445 
L 281.015594 79.868694 
L 281.113634 79.529813 
L 281.211673 79.755878 
L 281.407751 81.386721 
L 281.897947 74.155778 
L 281.995987 74.315853 
L 282.192065 76.516659 
L 282.486183 77.892105 
L 282.584222 77.864707 
L 282.878339 80.800915 
L 282.976379 80.111545 
L 283.172457 78.497671 
L 283.270496 79.601584 
L 283.368536 79.030961 
L 283.662653 76.482051 
L 283.760692 76.270881 
L 283.858732 76.362039 
L 283.956771 76.032288 
L 284.05481 76.238509 
L 284.446967 80.375722 
L 284.643045 80.95449 
L 284.839124 83.608197 
L 284.937163 83.31674 
L 285.32932 87.075248 
L 285.623438 85.259604 
L 285.819516 86.098013 
L 285.917555 86.153382 
L 286.211673 84.20954 
L 286.407751 85.502989 
L 286.60383 84.94595 
L 286.799908 82.613634 
L 286.897947 82.709739 
L 286.995987 83.442397 
L 287.094026 82.806086 
L 287.192065 83.431476 
L 287.290104 82.748461 
L 287.388143 83.610554 
L 287.584222 82.761756 
L 287.976379 85.598449 
L 288.172457 87.479714 
L 288.270496 87.367986 
L 288.466575 86.200214 
L 288.564614 86.085618 
L 288.662653 85.079786 
L 288.760692 85.213946 
L 288.858732 84.97827 
L 289.348928 81.035979 
L 289.446967 81.289495 
L 289.545006 80.601791 
L 289.643045 76.969835 
L 289.741085 77.704046 
L 290.035202 95.213193 
L 290.133241 96.210059 
L 290.32932 92.393778 
L 290.819516 78.508445 
L 291.015594 75.340154 
L 291.211673 66.478009 
L 291.309712 65.883031 
L 291.50579 78.67092 
L 291.60383 78.304604 
L 291.799908 77.183632 
L 292.094026 78.501523 
L 292.290104 79.608713 
L 292.486183 78.422658 
L 292.584222 79.216826 
L 292.7803 77.865517 
L 292.878339 77.910122 
L 292.976379 77.726733 
L 293.074418 76.926529 
L 293.172457 77.841775 
L 293.270496 77.322429 
L 293.368536 77.342288 
L 293.760692 75.761898 
L 294.05481 72.946863 
L 294.152849 73.700974 
L 294.250888 72.885435 
L 294.348928 60.464328 
L 294.545006 71.228573 
L 294.937163 77.21159 
L 295.133241 81.62769 
L 295.231281 81.614114 
L 295.427359 84.035639 
L 295.525398 83.916215 
L 295.721477 79.369548 
L 295.917555 75.917347 
L 296.015594 76.335213 
L 296.211673 78.099963 
L 296.309712 79.206168 
L 296.50579 82.667471 
L 296.60383 82.284836 
L 296.799908 84.582721 
L 296.897947 84.504563 
L 296.995987 84.121558 
L 297.192065 80.78854 
L 297.388143 82.068542 
L 297.486183 82.401426 
L 297.682261 81.391051 
L 297.7803 82.525748 
L 297.878339 81.219855 
L 297.976379 81.813062 
L 298.172457 80.817812 
L 298.270496 81.208023 
L 298.368536 81.046694 
L 298.466575 81.489948 
L 298.564614 80.014166 
L 298.760692 84.562475 
L 298.956771 83.954964 
L 299.250888 86.302527 
L 299.446967 86.962259 
L 299.643045 89.082915 
L 299.839124 87.451312 
L 299.937163 87.28043 
L 300.035202 87.839921 
L 300.231281 86.210662 
L 300.32932 86.680511 
L 300.427359 86.279927 
L 300.525398 86.503613 
L 300.819516 84.344076 
L 301.211673 82.61771 
L 301.309712 81.843136 
L 301.407751 81.939142 
L 301.60383 82.854796 
L 301.701869 82.385005 
L 301.995987 84.088419 
L 302.094026 83.743192 
L 302.192065 83.968214 
L 302.290104 83.868663 
L 302.486183 85.386123 
L 302.682261 84.477891 
L 302.7803 84.298782 
L 302.878339 84.632002 
L 302.976379 83.520909 
L 303.074418 83.774574 
L 303.564614 80.501187 
L 303.662653 80.422072 
L 303.760692 80.807856 
L 303.858732 84.822086 
L 304.152849 103.652023 
L 304.250888 103.40362 
L 305.035202 81.795671 
L 305.32932 78.349254 
L 305.427359 78.444294 
L 305.623438 77.498286 
L 305.721477 77.5057 
L 305.819516 76.384038 
L 305.917555 76.581084 
L 306.015594 75.735738 
L 306.113634 75.929286 
L 306.211673 75.470251 
L 306.407751 77.450153 
L 306.50579 77.206415 
L 306.701869 78.109164 
L 306.799908 78.136578 
L 306.897947 78.629206 
L 306.995987 78.539181 
L 307.094026 77.807934 
L 307.290104 78.253513 
L 307.388143 78.131025 
L 307.486183 77.515919 
L 307.584222 78.110108 
L 307.7803 76.523072 
L 307.878339 76.785742 
L 308.074418 74.802201 
L 308.172457 75.216156 
L 308.368536 74.124797 
L 308.466575 74.214726 
L 308.564614 74.16236 
L 308.662653 74.439697 
L 308.760692 74.395076 
L 309.05481 77.518319 
L 309.348928 83.116515 
L 309.545006 83.964851 
L 309.643045 84.504064 
L 309.741085 83.918098 
L 310.035202 77.356221 
L 310.133241 76.526834 
L 310.427359 77.806338 
L 310.525398 77.67044 
L 310.917555 80.969234 
L 311.015594 80.827007 
L 311.211673 78.224275 
L 311.407751 77.758236 
L 311.701869 80.777673 
L 311.995987 79.33254 
L 312.192065 80.628092 
L 312.290104 80.615459 
L 312.388143 81.335845 
L 312.486183 80.801056 
L 312.682261 82.371651 
L 312.7803 81.677348 
L 313.172457 82.975607 
L 313.564614 85.022597 
L 313.760692 83.765575 
L 314.250888 76.121813 
L 314.446967 75.482916 
L 314.545006 77.362222 
L 314.643045 76.734973 
L 314.741085 77.530716 
L 314.937163 76.815874 
L 315.133241 75.949105 
L 315.231281 76.134267 
L 315.32932 75.808067 
L 315.427359 75.848177 
L 315.525398 76.823748 
L 315.623438 75.934105 
L 315.721477 78.074538 
L 315.819516 77.906562 
L 315.917555 77.437777 
L 316.113634 78.097519 
L 316.309712 80.070001 
L 316.407751 79.467048 
L 316.60383 80.700142 
L 316.799908 80.224299 
L 316.897947 80.467162 
L 317.094026 79.43184 
L 317.290104 79.523016 
L 317.584222 76.358925 
L 317.682261 75.693019 
L 317.7803 75.834923 
L 317.878339 76.396187 
L 317.976379 79.847365 
L 318.270496 98.027819 
L 318.368536 97.295627 
L 318.662653 89.511036 
L 319.446967 75.519567 
L 319.643045 73.348866 
L 319.839124 73.80835 
L 319.937163 73.953555 
L 320.035202 74.347317 
L 320.133241 75.474455 
L 320.231281 75.190889 
L 320.32932 75.453117 
L 320.427359 76.03733 
L 320.525398 75.196052 
L 320.721477 75.568263 
L 321.015594 79.189238 
L 321.211673 79.196447 
L 321.309712 79.38262 
L 321.407751 78.897182 
L 321.50579 80.195624 
L 321.897947 75.723313 
L 321.995987 76.055823 
L 322.094026 74.474099 
L 322.290104 74.939771 
L 322.486183 74.395187 
L 322.682261 75.444061 
L 322.7803 75.458719 
L 322.976379 78.188566 
L 323.074418 78.43567 
L 323.172457 79.325288 
L 323.466575 85.165378 
L 323.662653 85.812399 
L 323.760692 85.953039 
L 323.956771 80.910185 
L 324.152849 76.209288 
L 324.250888 74.851657 
L 324.839124 79.138096 
L 324.937163 78.439571 
L 325.035202 78.64065 
L 325.133241 80.225587 
L 325.231281 78.88204 
L 325.32932 79.401509 
L 325.427359 79.290691 
L 325.623438 77.526165 
L 325.819516 79.678172 
L 325.917555 79.385563 
L 326.015594 79.879793 
L 326.211673 78.061609 
L 326.407751 79.029555 
L 326.50579 78.570455 
L 326.60383 79.894665 
L 326.701869 78.638935 
L 327.094026 79.917721 
L 327.290104 81.709644 
L 327.388143 81.698283 
L 327.486183 81.325733 
L 327.682261 83.017651 
L 327.7803 81.66684 
L 327.878339 81.940347 
L 327.976379 81.691656 
L 328.074418 82.34629 
L 328.172457 82.049253 
L 328.270496 82.428665 
L 328.564614 78.681327 
L 328.662653 79.137269 
L 329.250888 76.749678 
L 329.348928 77.301175 
L 329.545006 76.724587 
L 329.643045 75.380411 
L 329.741085 75.653527 
L 329.937163 77.449061 
L 330.035202 77.114547 
L 330.231281 79.961027 
L 330.32932 80.240576 
L 330.525398 79.600057 
L 330.721477 81.432678 
L 330.819516 81.6669 
L 330.917555 81.484989 
L 331.113634 80.134488 
L 331.211673 80.708356 
L 331.60383 78.683177 
L 331.799908 75.214192 
L 331.995987 76.510755 
L 332.094026 80.805744 
L 332.290104 97.928672 
L 332.388143 97.952569 
L 332.486183 97.401538 
L 332.584222 95.702925 
L 332.7803 87.849611 
L 332.878339 72.682936 
L 333.074418 81.956048 
L 333.564614 73.813911 
L 333.662653 74.257792 
L 333.760692 74.147095 
L 333.858732 72.04564 
L 333.956771 72.165276 
L 334.05481 71.910014 
L 334.250888 72.311259 
L 334.446967 74.035254 
L 334.545006 73.600357 
L 334.741085 74.246292 
L 334.839124 73.717606 
L 335.035202 76.137242 
L 335.133241 75.889265 
L 335.231281 75.124867 
L 335.32932 75.552051 
L 335.427359 76.717658 
L 335.525398 76.100474 
L 335.623438 74.598267 
L 335.721477 75.187761 
L 335.819516 75.127822 
L 335.917555 74.967902 
L 336.015594 74.316515 
L 336.211673 72.728334 
L 336.309712 73.507446 
L 336.60383 72.21532 
L 336.701869 72.279775 
L 336.799908 71.315742 
L 337.094026 73.97909 
L 337.192065 73.566205 
L 337.388143 76.694491 
L 337.486183 80.265664 
L 337.584222 80.252899 
L 337.682261 79.547324 
L 337.878339 80.235253 
L 337.976379 79.164959 
L 338.270496 71.206904 
L 338.368536 70.305513 
L 338.564614 70.871794 
L 338.662653 69.754784 
L 338.760692 71.322288 
L 339.05481 70.401813 
L 339.250888 71.130664 
L 339.446967 69.549072 
L 339.839124 65.73042 
L 339.937163 64.072897 
L 340.035202 64.150862 
L 340.231281 62.067373 
L 340.32932 62.450383 
L 340.427359 62.87332 
L 340.525398 64.188918 
L 340.623438 62.307535 
L 340.721477 62.381246 
L 340.819516 62.585491 
L 340.917555 62.463956 
L 341.015594 65.098186 
L 341.113634 64.670649 
L 341.211673 63.057529 
L 341.50579 66.047244 
L 341.60383 65.959332 
L 341.701869 67.020232 
L 341.799908 69.400551 
L 341.897947 69.378511 
L 341.995987 69.455302 
L 342.094026 69.203545 
L 342.192065 69.512628 
L 342.290104 69.476016 
L 342.584222 66.780306 
L 342.7803 68.580342 
L 343.074418 66.474559 
L 343.172457 66.684799 
L 343.270496 65.543559 
L 343.466575 66.499378 
L 343.662653 65.547889 
L 343.858732 66.291461 
L 343.956771 66.024677 
L 344.05481 67.045295 
L 344.152849 66.972739 
L 344.250888 67.213563 
L 344.348928 68.156035 
L 344.446967 67.342665 
L 344.545006 67.612324 
L 345.133241 70.859281 
L 345.231281 70.864941 
L 345.32932 71.129871 
L 345.721477 66.772275 
L 345.819516 67.096233 
L 346.113634 69.902538 
L 346.407751 89.578007 
L 346.50579 89.193817 
L 346.60383 88.725748 
L 346.701869 87.683878 
L 347.094026 77.002793 
L 347.388143 72.721353 
L 347.486183 72.977638 
L 347.584222 72.433213 
L 347.7803 68.670309 
L 347.878339 69.375017 
L 348.172457 67.939636 
L 348.368536 69.13451 
L 348.466575 68.740975 
L 348.858732 72.573523 
L 348.956771 71.568759 
L 349.05481 71.835225 
L 349.152849 74.052471 
L 349.250888 73.425894 
L 349.348928 74.935435 
L 349.545006 74.097068 
L 349.741085 72.701014 
L 349.839124 73.400837 
L 349.937163 73.252075 
L 350.035202 73.429906 
L 350.231281 71.648663 
L 350.32932 71.618893 
L 350.721477 68.767241 
L 350.819516 70.886509 
L 350.917555 69.625125 
L 351.113634 72.679456 
L 351.309712 73.953531 
L 351.701869 79.02303 
L 351.799908 79.232549 
L 352.094026 82.65962 
L 352.584222 72.582332 
L 352.682261 72.136251 
L 352.7803 73.372939 
L 352.878339 73.219862 
L 352.976379 73.911315 
L 353.074418 70.380046 
L 353.172457 70.83878 
L 353.368536 73.029726 
L 353.466575 73.983788 
L 353.564614 73.325213 
L 353.662653 73.478879 
L 353.760692 71.936686 
L 353.858732 72.364243 
L 353.956771 71.470749 
L 354.05481 71.805685 
L 354.152849 71.11829 
L 354.250888 71.225399 
L 354.348928 72.307832 
L 354.446967 71.54472 
L 354.545006 72.114958 
L 354.643045 71.571376 
L 354.741085 71.813295 
L 354.937163 73.383141 
L 355.035202 73.302093 
L 355.133241 72.462654 
L 355.32932 74.988495 
L 355.427359 74.684857 
L 355.819516 77.172184 
L 356.113634 77.61678 
L 356.211673 76.08418 
L 356.50579 78.07525 
L 356.60383 77.188583 
L 356.799908 74.272139 
L 356.897947 74.449215 
L 356.995987 74.195156 
L 357.094026 73.156922 
L 357.192065 73.510069 
L 357.290104 73.216367 
L 357.486183 71.737762 
L 357.682261 71.660252 
L 357.878339 72.260453 
L 358.074418 71.955861 
L 358.368536 73.997576 
L 358.466575 74.219867 
L 358.760692 76.753959 
L 358.858732 77.187293 
L 359.05481 78.922925 
L 359.250888 79.987614 
L 359.348928 79.292796 
L 359.545006 79.856658 
L 359.643045 79.68984 
L 359.741085 77.939443 
L 359.839124 78.347772 
L 360.035202 77.28925 
L 360.231281 79.676387 
L 360.525398 98.207989 
L 360.623438 96.885485 
L 361.701869 73.116177 
L 361.897947 72.022629 
L 362.094026 69.200985 
L 362.290104 68.892674 
L 362.388143 69.938671 
L 362.486183 69.334408 
L 362.7803 71.611326 
L 362.878339 71.183003 
L 362.976379 71.266284 
L 363.074418 71.115972 
L 363.270496 72.461967 
L 363.368536 73.302671 
L 363.466575 73.09154 
L 363.564614 72.314846 
L 363.858732 73.072489 
L 364.05481 71.177468 
L 364.152849 71.335325 
L 364.250888 71.729199 
L 364.348928 71.581077 
L 364.643045 70.024973 
L 364.741085 70.675969 
L 364.839124 70.494224 
L 364.937163 69.750847 
L 365.035202 69.936498 
L 365.231281 71.484143 
L 365.32932 71.848059 
L 365.917555 80.325648 
L 366.113634 82.066369 
L 366.407751 73.769905 
L 366.50579 74.650797 
L 366.701869 73.609739 
L 366.897947 76.819781 
L 366.995987 76.008519 
L 367.094026 76.352258 
L 367.192065 75.046143 
L 367.584222 78.996426 
L 367.682261 78.966866 
L 367.7803 79.750448 
L 367.976379 79.142098 
L 368.270496 78.294808 
L 368.466575 76.000762 
L 368.564614 76.426244 
L 368.760692 75.999907 
L 368.858732 75.037045 
L 368.956771 76.093255 
L 369.05481 75.968949 
L 369.152849 75.347439 
L 369.446967 78.142946 
L 369.545006 78.061679 
L 370.035202 81.882666 
L 370.231281 82.940251 
L 370.32932 82.076027 
L 370.525398 83.456792 
L 370.819516 81.052211 
L 371.015594 81.061014 
L 371.113634 81.13217 
L 371.211673 80.549725 
L 371.407751 77.11751 
L 371.50579 77.894019 
L 371.701869 75.816492 
L 371.799908 75.731014 
L 371.897947 76.534589 
L 372.094026 75.459742 
L 372.192065 75.909441 
L 372.388143 77.84352 
L 372.486183 77.714853 
L 372.584222 77.827807 
L 372.7803 78.797725 
L 372.878339 78.565256 
L 372.976379 79.636351 
L 373.074418 79.478996 
L 373.270496 77.28167 
L 373.368536 77.652581 
L 373.466575 77.174184 
L 373.564614 77.773346 
L 373.760692 76.089385 
L 374.05481 73.188064 
L 374.152849 73.31254 
L 374.348928 76.005009 
L 374.643045 96.403816 
L 374.741085 95.715106 
L 375.32932 82.082186 
L 375.623438 75.689302 
L 375.721477 75.243667 
L 375.819516 74.026132 
L 375.917555 74.035561 
L 376.309712 72.325607 
L 376.407751 70.43561 
L 376.60383 71.169555 
L 376.701869 70.601442 
L 376.897947 71.104498 
L 377.094026 72.776126 
L 377.192065 72.931958 
L 377.388143 72.64926 
L 377.486183 74.823334 
L 377.584222 74.759053 
L 377.7803 73.202398 
L 377.878339 73.026981 
L 378.270496 71.400837 
L 378.368536 71.051851 
L 378.466575 71.099363 
L 378.564614 69.871215 
L 378.662653 69.992141 
L 378.956771 69.132855 
L 379.05481 69.2208 
L 379.741085 77.58089 
L 379.937163 82.013543 
L 380.035202 82.110298 
L 380.32932 81.297168 
L 380.721477 74.298254 
L 380.819516 74.520956 
L 380.917555 74.106616 
L 381.211673 77.299364 
L 381.309712 77.767393 
L 381.407751 77.1287 
L 381.60383 79.83779 
L 381.701869 78.910084 
L 381.799908 80.625767 
L 381.897947 74.759677 
L 381.995987 78.599839 
L 382.094026 78.262218 
L 382.290104 78.65284 
L 382.388143 79.978508 
L 382.584222 76.888037 
L 382.682261 77.251794 
L 382.7803 77.209475 
L 382.878339 77.694021 
L 382.976379 75.786894 
L 383.172457 79.52062 
L 383.270496 78.6312 
L 383.662653 81.067657 
L 383.858732 79.031318 
L 384.152849 81.56507 
L 384.348928 80.57199 
L 384.446967 80.619703 
L 384.545006 81.27578 
L 384.741085 80.949438 
L 385.035202 77.482093 
L 385.231281 78.626256 
L 385.32932 78.350947 
L 385.623438 71.338851 
L 385.819516 75.398577 
L 385.917555 74.917231 
L 386.015594 75.132822 
L 386.113634 75.038874 
L 386.309712 75.5863 
L 386.407751 75.446143 
L 386.50579 74.459124 
L 386.60383 75.093561 
L 386.799908 78.090538 
L 386.897947 79.04016 
L 387.094026 78.790918 
L 387.192065 78.917117 
L 387.290104 79.726473 
L 387.388143 78.733214 
L 387.486183 79.430964 
L 387.682261 78.413723 
L 387.7803 78.472835 
L 387.878339 78.0905 
L 388.074418 76.205173 
L 388.172457 75.866346 
L 388.270496 75.114684 
L 388.368536 76.373809 
L 388.466575 79.798529 
L 388.760692 100.778873 
L 388.956771 97.519397 
L 389.545006 81.057952 
L 389.937163 74.40978 
L 390.231281 71.633967 
L 390.32932 70.643873 
L 390.427359 71.810618 
L 390.525398 71.191636 
L 390.819516 71.490205 
L 390.917555 70.92048 
L 391.113634 72.811831 
L 391.309712 74.97861 
L 391.407751 75.223299 
L 391.50579 73.944576 
L 391.60383 74.50434 
L 391.701869 74.109253 
L 391.799908 72.897916 
L 391.897947 73.146174 
L 391.995987 72.881664 
L 392.192065 71.602345 
L 392.290104 72.086476 
L 392.388143 71.107138 
L 392.486183 71.524502 
L 392.584222 70.722433 
L 392.682261 70.868594 
L 392.7803 71.32222 
L 393.074418 69.195797 
L 393.172457 69.851122 
L 393.270496 69.312534 
L 393.564614 72.735108 
L 394.05481 80.439045 
L 394.152849 81.085281 
L 394.250888 80.833576 
L 394.348928 81.87105 
L 394.446967 81.846603 
L 394.937163 73.195386 
L 395.231281 75.930652 
L 395.525398 78.252774 
L 395.721477 81.765773 
L 395.917555 79.907615 
L 396.015594 80.165207 
L 396.211673 81.655316 
L 396.309712 81.453643 
L 396.407751 80.13847 
L 396.50579 80.242269 
L 396.60383 79.780014 
L 396.799908 77.736574 
L 396.897947 78.284674 
L 396.995987 77.340536 
L 397.192065 79.023396 
L 397.290104 78.509624 
L 397.388143 77.380024 
L 397.584222 77.886562 
L 397.878339 80.707757 
L 398.074418 79.145261 
L 398.172457 79.180558 
L 398.270496 78.90135 
L 398.466575 80.003753 
L 398.564614 79.638601 
L 398.858732 81.716284 
L 399.05481 79.979672 
L 399.152849 79.164484 
L 399.250888 80.005021 
L 399.348928 77.890971 
L 399.545006 78.450432 
L 399.741085 77.799831 
L 399.937163 75.983 
L 400.035202 76.181978 
L 400.231281 75.267557 
L 400.32932 75.560467 
L 400.427359 75.247513 
L 400.721477 76.802193 
L 400.917555 78.046893 
L 401.113634 76.558505 
L 401.407751 79.584989 
L 401.60383 80.544939 
L 401.701869 79.696238 
L 401.799908 79.725496 
L 401.995987 78.129545 
L 402.192065 76.001243 
L 402.290104 76.562315 
L 402.584222 81.60685 
L 402.878339 99.418451 
L 402.976379 98.928801 
L 403.956771 74.82981 
L 404.05481 74.5748 
L 404.348928 71.709985 
L 404.446967 71.985674 
L 404.643045 70.955648 
L 404.839124 71.578182 
L 404.937163 71.096907 
L 405.035202 71.225045 
L 405.133241 71.993486 
L 405.231281 69.401734 
L 405.32932 70.493801 
L 405.427359 70.432852 
L 405.525398 70.571991 
L 405.623438 69.962275 
L 405.917555 72.937141 
L 406.015594 73.7301 
L 406.407751 71.306958 
L 406.50579 70.808703 
L 406.60383 60.22767 
L 406.701869 60.56063 
L 406.799908 62.389319 
L 406.995987 61.087429 
L 407.192065 59.425083 
L 407.388143 61.796506 
L 407.486183 62.951966 
L 407.682261 70.775383 
L 407.976379 74.748768 
L 408.270496 80.283175 
L 408.368536 79.874792 
L 408.564614 81.218174 
L 408.956771 74.529822 
L 409.152849 73.509838 
L 409.250888 74.096816 
L 409.545006 77.484514 
L 409.643045 77.067741 
L 409.937163 79.256174 
L 410.231281 77.800348 
L 410.427359 78.931768 
L 410.525398 78.605181 
L 410.819516 76.743396 
L 411.015594 76.218047 
L 411.113634 75.107806 
L 411.309712 76.652969 
L 411.701869 79.15753 
L 411.897947 77.742279 
L 412.388143 81.168841 
L 412.486183 81.76522 
L 413.270496 69.196017 
L 413.368536 70.288999 
L 413.564614 74.199342 
L 413.956771 69.954418 
L 414.152849 71.694697 
L 414.348928 72.579084 
L 414.545006 71.697825 
L 414.937163 75.164988 
L 415.035202 76.55797 
L 415.133241 76.457597 
L 415.427359 77.89548 
L 415.721477 75.456057 
L 415.819516 75.811776 
L 416.113634 79.974972 
L 416.211673 79.384358 
L 416.407751 75.873018 
L 416.50579 75.993977 
L 416.60383 77.664255 
L 416.897947 96.309225 
L 416.995987 95.754105 
L 417.290104 90.090218 
L 417.878339 75.391776 
L 418.270496 71.468823 
L 418.564614 69.39725 
L 418.662653 70.15095 
L 418.858732 69.767608 
L 418.956771 69.756109 
L 419.152849 70.586066 
L 419.250888 70.260325 
L 419.545006 72.691054 
L 419.643045 72.3258 
L 419.839124 73.081562 
L 420.035202 73.597447 
L 420.133241 73.868835 
L 420.32932 73.434135 
L 420.427359 73.60887 
L 420.623438 73.090443 
L 420.721477 72.677297 
L 420.819516 73.033117 
L 420.917555 72.828949 
L 421.211673 70.682146 
L 421.309712 71.003171 
L 421.50579 70.463345 
L 421.60383 70.787032 
L 422.584222 83.156853 
L 422.7803 80.615854 
L 423.074418 73.925607 
L 423.172457 73.274785 
L 423.564614 76.746953 
L 423.662653 76.273602 
L 423.760692 76.447429 
L 423.858732 76.12342 
L 423.956771 76.695603 
L 424.250888 74.79728 
L 424.348928 74.59513 
L 424.446967 74.998835 
L 424.545006 76.403041 
L 424.741085 75.742365 
L 424.839124 75.413028 
L 424.937163 75.638575 
L 425.231281 73.131491 
L 425.32932 73.02308 
L 425.427359 73.253199 
L 425.525398 72.908596 
L 425.819516 75.485026 
L 425.917555 75.443472 
L 426.113634 76.214165 
L 426.211673 76.419584 
L 426.407751 75.701839 
L 426.60383 77.93757 
L 426.799908 76.909956 
L 426.897947 77.237661 
L 427.192065 75.849441 
L 427.388143 74.461461 
L 427.486183 74.38474 
L 427.584222 75.454312 
L 427.7803 74.83113 
L 428.074418 73.013735 
L 428.172457 72.787745 
L 428.270496 71.978749 
L 428.368536 72.412292 
L 428.662653 71.245599 
L 428.760692 71.427682 
L 429.05481 73.954663 
L 429.152849 74.039749 
L 429.250888 73.965482 
L 429.741085 76.743687 
L 430.035202 77.429555 
L 430.133241 74.975991 
L 430.231281 75.990643 
L 430.427359 74.869323 
L 430.623437 77.041494 
L 430.721477 78.865204 
L 430.819516 82.832461 
L 431.015594 96.709737 
L 431.113634 97.376216 
L 431.309712 94.316703 
L 431.995987 77.429909 
L 432.486183 72.04896 
L 432.584222 72.204368 
L 432.682261 72.066651 
L 432.7803 71.727162 
L 432.878339 72.768298 
L 433.074418 72.095425 
L 433.172457 72.989271 
L 433.270496 72.114755 
L 433.564614 73.791179 
L 433.662653 73.919101 
L 433.760692 74.29833 
L 433.858732 73.929717 
L 434.05481 74.573583 
L 434.152849 74.08369 
L 434.348928 72.054375 
L 434.446967 74.339285 
L 434.545006 74.316492 
L 434.643045 74.428335 
L 435.231281 69.540754 
L 435.32932 70.448568 
L 435.427359 70.050944 
L 435.525398 70.357653 
L 436.015594 74.584098 
L 436.701869 83.320855 
L 436.799908 82.684212 
L 437.192065 73.495222 
L 437.290104 72.2359 
L 437.486183 73.616385 
L 437.682261 73.009902 
L 437.7803 73.281756 
L 437.878339 73.062691 
L 438.270496 70.201532 
L 438.466575 67.80521 
L 438.564614 67.90124 
L 438.662653 68.172128 
L 438.760692 67.238665 
L 438.858732 67.646804 
L 438.956771 67.58204 
L 439.05481 67.826659 
L 439.250888 67.289136 
L 439.348928 66.815215 
L 439.446967 67.033192 
L 439.643045 66.007671 
L 439.741085 66.1696 
L 439.937163 66.493804 
L 440.035202 66.450897 
L 440.133241 66.607106 
L 440.231281 67.170641 
L 440.32932 66.637258 
L 440.427359 67.859496 
L 440.525398 67.49631 
L 440.721477 68.501786 
L 440.819516 67.796761 
L 440.917555 67.930953 
L 441.015594 67.69254 
L 441.113634 68.055673 
L 441.211673 67.980649 
L 441.407751 66.939104 
L 441.60383 68.732466 
L 441.701869 67.798894 
L 441.799908 68.594997 
L 441.897947 68.375534 
L 442.094026 65.233493 
L 442.192065 66.119439 
L 442.290104 66.066764 
L 442.486183 65.034027 
L 443.760692 71.982549 
L 443.858732 71.078112 
L 444.05481 72.651981 
L 444.250888 70.512131 
L 444.348928 70.41344 
L 444.545006 69.178004 
L 444.839124 74.856502 
L 444.937163 78.568293 
L 445.133241 93.051364 
L 445.231281 92.694584 
L 445.427359 90.445968 
L 445.525398 89.048539 
L 445.819516 81.269763 
L 446.211673 73.995388 
L 446.309712 73.508272 
L 446.407751 73.665317 
L 446.60383 71.522494 
L 446.701869 72.223234 
L 446.799908 71.518137 
L 446.897947 71.85275 
L 446.995987 72.605101 
L 447.192065 70.757431 
L 447.290104 70.88682 
L 447.388143 71.501361 
L 447.584222 70.641026 
L 447.682261 70.834096 
L 447.976379 73.485677 
L 448.074418 73.082644 
L 448.172457 73.673123 
L 448.466575 72.072255 
L 448.564614 72.472601 
L 448.662653 72.429474 
L 448.760692 71.364806 
L 448.858732 72.46206 
L 449.05481 70.29816 
L 449.152849 70.644554 
L 449.250888 70.544191 
L 449.446967 69.656723 
L 449.545006 69.755827 
L 449.643045 70.891243 
L 449.741085 70.682379 
L 450.035202 71.740119 
L 450.427359 74.320147 
L 450.623438 77.471254 
L 450.917555 80.833805 
L 451.015594 79.302187 
L 451.211673 74.337078 
L 451.407751 73.885809 
L 451.60383 74.971197 
L 451.701869 74.822449 
L 451.995987 75.715976 
L 452.192065 77.276464 
L 452.290104 76.592726 
L 452.388143 76.923369 
L 452.486183 74.585504 
L 452.7803 78.503484 
L 453.172457 74.765953 
L 453.270496 76.978068 
L 453.466575 76.090352 
L 453.662653 76.716003 
L 453.956771 76.348287 
L 454.05481 76.707165 
L 454.152849 76.501719 
L 454.348928 77.162083 
L 454.643045 80.290204 
L 454.741085 80.379316 
L 454.839124 79.180405 
L 454.937163 79.429519 
L 455.035202 78.404378 
L 455.133241 79.185076 
L 455.32932 77.87123 
L 455.427359 77.880855 
L 455.623438 76.279431 
L 455.819516 76.378829 
L 455.917555 76.78177 
L 456.113634 75.189933 
L 456.211673 75.747407 
L 456.60383 73.867218 
L 456.701869 73.417801 
L 456.799908 73.537034 
L 456.897947 73.11817 
L 457.094026 74.281479 
L 457.388143 76.189427 
L 457.486183 75.895944 
L 457.7803 78.58126 
L 457.878339 78.944522 
L 457.976379 78.478245 
L 458.172457 79.334818 
L 458.466575 76.236866 
L 458.662653 73.426797 
L 458.760692 73.182292 
L 458.956771 76.724814 
L 459.250888 96.790895 
L 459.348928 95.865292 
L 459.446967 95.424067 
L 459.643045 89.833446 
L 460.133241 77.627431 
L 460.427359 72.585178 
L 460.721477 68.744909 
L 460.819516 68.965739 
L 460.917555 68.631937 
L 461.015594 68.858295 
L 461.211673 68.767886 
L 461.309712 67.964562 
L 461.407751 68.053101 
L 461.50579 67.445232 
L 461.60383 68.62735 
L 461.701869 68.332757 
L 461.799908 68.596207 
L 462.094026 70.122787 
L 462.192065 69.346746 
L 462.388143 69.924987 
L 462.486183 69.847399 
L 462.584222 69.975329 
L 462.7803 68.9306 
L 462.878339 69.041362 
L 462.976379 68.083982 
L 463.074418 68.740445 
L 463.172457 68.441776 
L 463.564614 65.672619 
L 463.760692 66.688735 
L 464.05481 68.963937 
L 464.446967 72.783454 
L 464.839124 80.234815 
L 465.035202 80.789799 
L 465.525398 72.022121 
L 465.721477 73.008001 
L 465.917555 74.659721 
L 466.015594 74.185198 
L 466.50579 76.770478 
L 466.701869 74.231815 
L 466.995987 75.459839 
L 467.290104 74.931424 
L 467.388143 73.821138 
L 467.486183 74.091815 
L 467.584222 73.729034 
L 467.682261 74.253155 
L 467.976379 73.052174 
L 468.074418 72.76474 
L 468.172457 72.951699 
L 468.270496 72.874977 
L 468.564614 75.297583 
L 468.760692 74.260574 
L 468.956771 72.445427 
L 469.05481 72.323337 
L 469.152849 71.586981 
L 469.250888 72.171233 
L 469.348928 71.97668 
L 469.545006 69.662817 
L 469.839124 71.084973 
L 469.937163 71.165597 
L 470.035202 70.467864 
L 470.133241 70.757392 
L 470.231281 70.463961 
L 470.525398 68.972719 
L 470.623438 69.887459 
L 470.819516 68.342311 
L 471.015594 67.309423 
L 471.309712 69.79579 
L 471.407751 69.864829 
L 471.995987 76.138101 
L 472.094026 75.82742 
L 472.192065 76.662326 
L 472.486183 75.707534 
L 472.7803 69.961062 
L 472.878339 70.606719 
L 472.976379 71.931287 
L 473.074418 74.848997 
L 473.368536 94.55235 
L 473.564614 91.531084 
L 474.348928 71.700651 
L 474.545006 69.290866 
L 474.937163 65.252971 
L 475.133241 65.357257 
L 475.231281 66.135984 
L 475.525398 63.465818 
L 475.623437 63.791484 
L 475.917555 65.992905 
L 476.113634 67.094805 
L 476.211673 67.219563 
L 476.50579 68.511181 
L 476.60383 68.473631 
L 476.799908 67.142728 
L 477.094026 68.134119 
L 477.290104 66.19223 
L 477.388143 31.176611 
L 477.584222 45.965067 
L 477.682261 46.260504 
L 477.878339 39.887695 
L 478.074418 48.746952 
L 478.662653 56.145637 
L 478.858732 58.944971 
L 479.05481 60.545335 
L 479.250888 58.982688 
L 479.348928 55.18555 
L 480.133241 67.09642 
L 480.231281 66.789705 
L 480.32932 67.091374 
L 480.427359 66.855907 
L 480.623438 59.703675 
L 480.819516 65.61525 
L 481.015594 64.951335 
L 481.211673 65.165624 
L 481.309712 65.205779 
L 481.407751 65.037352 
L 481.799908 63.564372 
L 481.995987 65.216187 
L 482.094026 64.740986 
L 482.192065 69.522279 
L 482.290104 65.248245 
L 482.388143 66.214034 
L 482.486183 65.561509 
L 482.584222 65.774355 
L 482.7803 65.152969 
L 482.878339 65.597705 
L 482.976379 65.230577 
L 483.270496 67.065886 
L 483.368536 64.592129 
L 483.564614 65.875408 
L 483.662653 60.50881 
L 483.760692 64.729937 
L 483.858732 64.433074 
L 483.956771 66.899824 
L 484.05481 66.684449 
L 484.250888 65.803999 
L 484.446967 65.75004 
L 484.545006 65.90832 
L 484.741085 64.955302 
L 484.839124 64.708071 
L 485.035202 65.888541 
L 485.133241 65.468234 
L 485.231281 66.331181 
L 485.427359 63.17822 
L 485.623438 64.512463 
L 485.721477 64.369347 
L 485.819516 64.290401 
L 486.015594 69.576808 
L 486.211673 67.40685 
L 486.309712 67.737454 
L 486.407751 68.701492 
L 486.50579 68.645174 
L 486.60383 68.789772 
L 486.897947 66.410699 
L 486.995987 66.927857 
L 487.192065 71.787292 
L 487.486183 91.228867 
L 487.584222 90.897561 
L 488.760692 64.096305 
L 488.956771 63.22639 
L 489.152849 63.919626 
L 489.348928 63.79473 
L 489.446967 64.892307 
L 489.643045 64.271665 
L 490.133241 67.270917 
L 490.231281 67.11577 
L 490.32932 65.690505 
L 490.427359 65.881318 
L 490.623437 64.99219 
L 491.015594 63.64549 
L 491.211673 62.423789 
L 491.309712 63.017445 
L 491.799908 61.108862 
L 491.995987 60.990669 
L 492.486183 66.659821 
L 492.878339 72.481108 
L 492.976379 71.199135 
L 493.074418 70.421802 
L 493.270496 70.893915 
L 493.466575 65.695733 
L 493.662653 62.050565 
L 493.760692 61.730279 
L 494.152849 63.803475 
L 494.250888 63.372236 
L 494.348928 63.632721 
L 494.545006 65.023139 
L 494.643045 64.029921 
L 494.741085 64.632351 
L 495.32932 61.889654 
L 495.427359 60.879091 
L 495.721477 56.65186 
L 495.819516 56.350172 
L 495.917555 56.590197 
L 496.015594 56.338151 
L 496.113634 55.580502 
L 496.50579 56.335733 
L 496.60383 57.105581 
L 496.799908 55.785185 
L 496.897947 55.407586 
L 497.290104 58.058392 
L 497.388143 58.328838 
L 497.7803 57.241136 
L 497.878339 57.238158 
L 497.976379 57.731407 
L 498.074418 57.439709 
L 498.172457 57.491522 
L 498.270496 57.757217 
L 498.760692 55.649334 
L 498.858732 56.02235 
L 498.956771 55.952672 
L 499.05481 56.050842 
L 500.231281 64.891127 
L 500.32932 64.94624 
L 500.525398 66.239711 
L 500.721477 66.523535 
L 500.819516 67.165089 
L 500.917555 66.72412 
L 501.113634 67.956652 
L 501.309712 76.700368 
L 501.50579 89.194203 
L 501.995987 81.560347 
L 502.486183 70.030238 
L 503.074418 63.851157 
L 503.172457 64.269335 
L 503.270496 64.085809 
L 503.368536 64.745998 
L 503.466575 64.167504 
L 503.564614 64.69229 
L 503.858732 64.28933 
L 503.956771 62.761063 
L 504.152849 66.247685 
L 504.250888 66.578095 
L 504.348928 67.475378 
L 504.348928 67.475378 
" clip-path="url(#pf847dc71da)" style="fill: none; stroke: #6b6b6b; stroke-width: 1.2; stroke-linecap: square"/>
   </g>
  </g>
 </g>
 <defs>
  <clipPath id="pf847dc71da">
   <rect x="62.423438" y="7.2" width="446.4" height="110.88"/>
  </clipPath>
  <clipPath id="p187e242d30">
   <rect x="62.423438" y="118.08" width="446.4" height="0"/>
  </clipPath>
 </defs>
</svg>
