<?xml version="1.0" encoding="utf-8" standalone="no"?>
<!DOCTYPE svg PUBLIC "-//W3C//DTD SVG 1.1//EN"
  "http://www.w3.org/Graphics/SVG/1.1/DTD/svg11.dtd">
<svg xmlns:xlink="http://www.w3.org/1999/xlink" width="531.772187pt" height="197.775pt" viewBox="0 0 531.772187 197.775" xmlns="http://www.w3.org/2000/svg" version="1.1">
 <metadata>
  <rdf:RDF xmlns:dc="http://purl.org/dc/elements/1.1/" xmlns:cc="http://creativecommons.org/ns#" xmlns:rdf="http://www.w3.org/1999/02/22-rdf-syntax-ns#">
   <cc:Work>
    <dc:type rdf:resource="http://purl.org/dc/dcmitype/StillImage"/>
    <dc:date>2024-04-23T21:53:09.964351</dc:date>
    <dc:format>image/svg+xml</dc:format>
    <dc:creator>
     <cc:Agent>
      <dc:title>Matplotlib v3.8.3, https://matplotlib.org/</dc:title>
     </cc:Agent>
    </dc:creator>
   </cc:Work>
  </rdf:RDF>
 </metadata>
 <defs>
  <style type="text/css">*{stroke-linejoin: round; stroke-linecap: butt}</style>
 </defs>
 <g id="figure_1">
  <g id="patch_1">
   <path d="M 0 197.775 
L 531.772187 197.775 
L 531.772187 -0 
L 0 -0 
L 0 197.775 
z
" style="fill: none"/>
  </g>
  <g id="axes_1">
   <g id="patch_2">
    <path d="M 66.890938 163.8875 
L 513.290937 163.8875 
L 513.290937 25.2875 
L 66.890938 25.2875 
L 66.890938 163.8875 
z
" style="fill: none"/>
   </g>
   <g id="matplotlib.axis_1">
    <g id="xtick_1">
     <g id="line2d_1">
      <defs>
       <path id="m446082f7d6" d="M 0 0 
L 0 3 
" style="stroke: #cccccc; stroke-width: 0.75"/>
      </defs>
      <g>
       <use xlink:href="#m446082f7d6" x="66.890938" y="173.8875" style="fill: #cccccc; stroke: #cccccc; stroke-width: 0.75"/>
      </g>
     </g>
     <g id="text_1">
      <!-- −10000 -->
      <g style="fill: #808080" transform="translate(53.353438 189.095) scale(0.08 -0.08)">
       <defs>
        <path id="Ubuntu-2212" d="M 339 2138 
L 3270 2138 
L 3270 1632 
L 339 1632 
L 339 2138 
z
" transform="scale(0.015625)"/>
        <path id="Ubuntu-31" d="M 595 3520 
Q 960 3661 1305 3881 
Q 1651 4102 1939 4435 
L 2362 4435 
L 2362 0 
L 1766 0 
L 1766 3610 
Q 1690 3539 1578 3462 
Q 1466 3386 1334 3315 
Q 1203 3245 1059 3181 
Q 915 3117 781 3072 
L 595 3520 
z
" transform="scale(0.015625)"/>
        <path id="Ubuntu-30" d="M 320 2221 
Q 320 3334 713 3936 
Q 1107 4538 1805 4538 
Q 2502 4538 2896 3936 
Q 3290 3334 3290 2221 
Q 3290 1107 2896 505 
Q 2502 -96 1805 -96 
Q 1107 -96 713 505 
Q 320 1107 320 2221 
z
M 2662 2221 
Q 2662 2586 2620 2912 
Q 2579 3238 2480 3481 
Q 2381 3725 2214 3869 
Q 2048 4013 1805 4013 
Q 1562 4013 1395 3869 
Q 1229 3725 1129 3481 
Q 1030 3238 988 2912 
Q 947 2586 947 2221 
Q 947 1856 988 1529 
Q 1030 1203 1129 960 
Q 1229 717 1395 573 
Q 1562 429 1805 429 
Q 2048 429 2214 573 
Q 2381 717 2480 960 
Q 2579 1203 2620 1529 
Q 2662 1856 2662 2221 
z
" transform="scale(0.015625)"/>
       </defs>
       <use xlink:href="#Ubuntu-2212"/>
       <use xlink:href="#Ubuntu-31" x="56.399994"/>
       <use xlink:href="#Ubuntu-30" x="112.799988"/>
       <use xlink:href="#Ubuntu-30" x="169.199982"/>
       <use xlink:href="#Ubuntu-30" x="225.599976"/>
       <use xlink:href="#Ubuntu-30" x="281.999969"/>
      </g>
     </g>
    </g>
    <g id="xtick_2">
     <g id="line2d_2">
      <g>
       <use xlink:href="#m446082f7d6" x="141.290937" y="173.8875" style="fill: #cccccc; stroke: #cccccc; stroke-width: 0.75"/>
      </g>
     </g>
     <g id="text_2">
      <!-- −5000 -->
      <g style="fill: #808080" transform="translate(130.009687 189.095) scale(0.08 -0.08)">
       <defs>
        <path id="Ubuntu-35" d="M 1274 2726 
Q 2240 2688 2691 2304 
Q 3142 1920 3142 1261 
Q 3142 966 3043 716 
Q 2944 467 2742 288 
Q 2541 109 2233 6 
Q 1926 -96 1504 -96 
Q 1338 -96 1165 -70 
Q 992 -45 845 -6 
Q 698 32 582 70 
Q 467 109 416 134 
L 531 653 
Q 640 602 886 518 
Q 1133 435 1491 435 
Q 1779 435 1974 499 
Q 2170 563 2291 672 
Q 2413 781 2467 925 
Q 2522 1069 2522 1229 
Q 2522 1472 2438 1661 
Q 2355 1850 2144 1978 
Q 1933 2106 1581 2173 
Q 1229 2240 691 2240 
Q 730 2554 752 2829 
Q 774 3104 793 3366 
Q 813 3629 825 3888 
Q 838 4147 851 4435 
L 2989 4435 
L 2989 3930 
L 1370 3930 
Q 1363 3834 1350 3670 
Q 1338 3507 1325 3331 
Q 1312 3155 1299 2988 
Q 1286 2822 1274 2726 
z
" transform="scale(0.015625)"/>
       </defs>
       <use xlink:href="#Ubuntu-2212"/>
       <use xlink:href="#Ubuntu-35" x="56.399994"/>
       <use xlink:href="#Ubuntu-30" x="112.799988"/>
       <use xlink:href="#Ubuntu-30" x="169.199982"/>
       <use xlink:href="#Ubuntu-30" x="225.599976"/>
      </g>
     </g>
    </g>
    <g id="xtick_3">
     <g id="line2d_3">
      <g>
       <use xlink:href="#m446082f7d6" x="215.690937" y="173.8875" style="fill: #cccccc; stroke: #cccccc; stroke-width: 0.75"/>
      </g>
     </g>
     <g id="text_3">
      <!-- 0 -->
      <g style="fill: #808080" transform="translate(213.434687 189.095) scale(0.08 -0.08)">
       <use xlink:href="#Ubuntu-30"/>
      </g>
     </g>
    </g>
    <g id="xtick_4">
     <g id="line2d_4">
      <g>
       <use xlink:href="#m446082f7d6" x="290.090937" y="173.8875" style="fill: #cccccc; stroke: #cccccc; stroke-width: 0.75"/>
      </g>
     </g>
     <g id="text_4">
      <!-- 5000 -->
      <g style="fill: #808080" transform="translate(281.065938 189.095) scale(0.08 -0.08)">
       <use xlink:href="#Ubuntu-35"/>
       <use xlink:href="#Ubuntu-30" x="56.399994"/>
       <use xlink:href="#Ubuntu-30" x="112.799988"/>
       <use xlink:href="#Ubuntu-30" x="169.199982"/>
      </g>
     </g>
    </g>
    <g id="xtick_5">
     <g id="line2d_5">
      <g>
       <use xlink:href="#m446082f7d6" x="364.490937" y="173.8875" style="fill: #cccccc; stroke: #cccccc; stroke-width: 0.75"/>
      </g>
     </g>
     <g id="text_5">
      <!-- 10000 -->
      <g style="fill: #808080" transform="translate(353.209687 189.095) scale(0.08 -0.08)">
       <use xlink:href="#Ubuntu-31"/>
       <use xlink:href="#Ubuntu-30" x="56.399994"/>
       <use xlink:href="#Ubuntu-30" x="112.799988"/>
       <use xlink:href="#Ubuntu-30" x="169.199982"/>
       <use xlink:href="#Ubuntu-30" x="225.599976"/>
      </g>
     </g>
    </g>
    <g id="xtick_6">
     <g id="line2d_6">
      <g>
       <use xlink:href="#m446082f7d6" x="438.890937" y="173.8875" style="fill: #cccccc; stroke: #cccccc; stroke-width: 0.75"/>
      </g>
     </g>
     <g id="text_6">
      <!-- 15000 -->
      <g style="fill: #808080" transform="translate(427.609687 189.095) scale(0.08 -0.08)">
       <use xlink:href="#Ubuntu-31"/>
       <use xlink:href="#Ubuntu-35" x="56.399994"/>
       <use xlink:href="#Ubuntu-30" x="112.799988"/>
       <use xlink:href="#Ubuntu-30" x="169.199982"/>
       <use xlink:href="#Ubuntu-30" x="225.599976"/>
      </g>
     </g>
    </g>
    <g id="xtick_7">
     <g id="line2d_7">
      <g>
       <use xlink:href="#m446082f7d6" x="513.290937" y="173.8875" style="fill: #cccccc; stroke: #cccccc; stroke-width: 0.75"/>
      </g>
     </g>
     <g id="text_7">
      <!-- 20000 -->
      <g style="fill: #808080" transform="translate(502.009687 189.095) scale(0.08 -0.08)">
       <defs>
        <path id="Ubuntu-32" d="M 2989 3302 
Q 2989 3072 2896 2857 
Q 2803 2643 2649 2435 
Q 2496 2227 2304 2025 
Q 2112 1824 1920 1632 
Q 1811 1523 1667 1376 
Q 1523 1229 1395 1069 
Q 1267 909 1180 761 
Q 1094 614 1094 506 
L 3136 506 
L 3136 0 
L 448 0 
Q 442 38 442 76 
Q 442 115 442 147 
Q 442 448 541 707 
Q 640 966 800 1196 
Q 960 1427 1158 1632 
Q 1357 1837 1549 2029 
Q 1709 2182 1853 2332 
Q 1997 2483 2109 2633 
Q 2221 2784 2288 2944 
Q 2355 3104 2355 3283 
Q 2355 3475 2294 3609 
Q 2234 3744 2131 3833 
Q 2029 3923 1891 3964 
Q 1754 4006 1600 4006 
Q 1414 4006 1260 3955 
Q 1107 3904 985 3837 
Q 864 3770 781 3696 
Q 698 3622 653 3584 
L 358 4006 
Q 416 4070 531 4163 
Q 646 4256 806 4339 
Q 966 4422 1164 4480 
Q 1363 4538 1594 4538 
Q 2291 4538 2640 4214 
Q 2989 3891 2989 3302 
z
" transform="scale(0.015625)"/>
       </defs>
       <use xlink:href="#Ubuntu-32"/>
       <use xlink:href="#Ubuntu-30" x="56.399994"/>
       <use xlink:href="#Ubuntu-30" x="112.799988"/>
       <use xlink:href="#Ubuntu-30" x="169.199982"/>
       <use xlink:href="#Ubuntu-30" x="225.599976"/>
      </g>
     </g>
    </g>
   </g>
   <g id="matplotlib.axis_2">
    <g id="ytick_1">
     <g id="line2d_8">
      <defs>
       <path id="m738ed5deb9" d="M 0 0 
L -3 0 
" style="stroke: #cccccc; stroke-width: 0.75"/>
      </defs>
      <g>
       <use xlink:href="#m738ed5deb9" x="61.890938" y="163.8875" style="fill: #cccccc; stroke: #cccccc; stroke-width: 0.75"/>
      </g>
     </g>
     <g id="text_8">
      <!-- 0.00000 -->
      <g style="fill: #808080" transform="translate(23.848438 166.99125) scale(0.08 -0.08)">
       <defs>
        <path id="Ubuntu-2e" d="M 1216 346 
Q 1216 173 1101 45 
Q 986 -83 787 -83 
Q 589 -83 473 45 
Q 358 173 358 346 
Q 358 518 473 646 
Q 589 774 787 774 
Q 986 774 1101 646 
Q 1216 518 1216 346 
z
" transform="scale(0.015625)"/>
       </defs>
       <use xlink:href="#Ubuntu-30"/>
       <use xlink:href="#Ubuntu-2e" x="56.399994"/>
       <use xlink:href="#Ubuntu-30" x="80.999985"/>
       <use xlink:href="#Ubuntu-30" x="137.399979"/>
       <use xlink:href="#Ubuntu-30" x="193.799973"/>
       <use xlink:href="#Ubuntu-30" x="250.199966"/>
       <use xlink:href="#Ubuntu-30" x="306.59996"/>
      </g>
     </g>
    </g>
    <g id="ytick_2">
     <g id="line2d_9">
      <g>
       <use xlink:href="#m738ed5deb9" x="61.890938" y="136.1675" style="fill: #cccccc; stroke: #cccccc; stroke-width: 0.75"/>
      </g>
     </g>
     <g id="text_9">
      <!-- 0.00005 -->
      <g style="fill: #808080" transform="translate(23.848438 139.27125) scale(0.08 -0.08)">
       <use xlink:href="#Ubuntu-30"/>
       <use xlink:href="#Ubuntu-2e" x="56.399994"/>
       <use xlink:href="#Ubuntu-30" x="80.999985"/>
       <use xlink:href="#Ubuntu-30" x="137.399979"/>
       <use xlink:href="#Ubuntu-30" x="193.799973"/>
       <use xlink:href="#Ubuntu-30" x="250.199966"/>
       <use xlink:href="#Ubuntu-35" x="306.59996"/>
      </g>
     </g>
    </g>
    <g id="ytick_3">
     <g id="line2d_10">
      <g>
       <use xlink:href="#m738ed5deb9" x="61.890938" y="108.4475" style="fill: #cccccc; stroke: #cccccc; stroke-width: 0.75"/>
      </g>
     </g>
     <g id="text_10">
      <!-- 0.00010 -->
      <g style="fill: #808080" transform="translate(23.848438 111.55125) scale(0.08 -0.08)">
       <use xlink:href="#Ubuntu-30"/>
       <use xlink:href="#Ubuntu-2e" x="56.399994"/>
       <use xlink:href="#Ubuntu-30" x="80.999985"/>
       <use xlink:href="#Ubuntu-30" x="137.399979"/>
       <use xlink:href="#Ubuntu-30" x="193.799973"/>
       <use xlink:href="#Ubuntu-31" x="250.199966"/>
       <use xlink:href="#Ubuntu-30" x="306.59996"/>
      </g>
     </g>
    </g>
    <g id="ytick_4">
     <g id="line2d_11">
      <g>
       <use xlink:href="#m738ed5deb9" x="61.890938" y="80.7275" style="fill: #cccccc; stroke: #cccccc; stroke-width: 0.75"/>
      </g>
     </g>
     <g id="text_11">
      <!-- 0.00015 -->
      <g style="fill: #808080" transform="translate(23.848438 83.83125) scale(0.08 -0.08)">
       <use xlink:href="#Ubuntu-30"/>
       <use xlink:href="#Ubuntu-2e" x="56.399994"/>
       <use xlink:href="#Ubuntu-30" x="80.999985"/>
       <use xlink:href="#Ubuntu-30" x="137.399979"/>
       <use xlink:href="#Ubuntu-30" x="193.799973"/>
       <use xlink:href="#Ubuntu-31" x="250.199966"/>
       <use xlink:href="#Ubuntu-35" x="306.59996"/>
      </g>
     </g>
    </g>
    <g id="ytick_5">
     <g id="line2d_12">
      <g>
       <use xlink:href="#m738ed5deb9" x="61.890938" y="53.0075" style="fill: #cccccc; stroke: #cccccc; stroke-width: 0.75"/>
      </g>
     </g>
     <g id="text_12">
      <!-- 0.00020 -->
      <g style="fill: #808080" transform="translate(23.848438 56.11125) scale(0.08 -0.08)">
       <use xlink:href="#Ubuntu-30"/>
       <use xlink:href="#Ubuntu-2e" x="56.399994"/>
       <use xlink:href="#Ubuntu-30" x="80.999985"/>
       <use xlink:href="#Ubuntu-30" x="137.399979"/>
       <use xlink:href="#Ubuntu-30" x="193.799973"/>
       <use xlink:href="#Ubuntu-32" x="250.199966"/>
       <use xlink:href="#Ubuntu-30" x="306.59996"/>
      </g>
     </g>
    </g>
    <g id="ytick_6">
     <g id="line2d_13">
      <g>
       <use xlink:href="#m738ed5deb9" x="61.890938" y="25.2875" style="fill: #cccccc; stroke: #cccccc; stroke-width: 0.75"/>
      </g>
     </g>
     <g id="text_13">
      <!-- 0.00025 -->
      <g style="fill: #808080" transform="translate(23.848438 28.39125) scale(0.08 -0.08)">
       <use xlink:href="#Ubuntu-30"/>
       <use xlink:href="#Ubuntu-2e" x="56.399994"/>
       <use xlink:href="#Ubuntu-30" x="80.999985"/>
       <use xlink:href="#Ubuntu-30" x="137.399979"/>
       <use xlink:href="#Ubuntu-30" x="193.799973"/>
       <use xlink:href="#Ubuntu-32" x="250.199966"/>
       <use xlink:href="#Ubuntu-35" x="306.59996"/>
      </g>
     </g>
    </g>
    <g id="text_14">
     <!-- Density -->
     <g style="fill: #505050" transform="translate(14.183438 58.455312) rotate(-90) scale(0.09 -0.09)">
      <defs>
       <path id="Ubuntu-Bold-44" d="M 1510 813 
Q 1581 806 1673 803 
Q 1766 800 1894 800 
Q 2643 800 3004 1177 
Q 3366 1555 3366 2221 
Q 3366 2918 3020 3276 
Q 2675 3635 1926 3635 
Q 1824 3635 1715 3632 
Q 1606 3629 1510 3616 
L 1510 813 
z
M 4397 2221 
Q 4397 1645 4217 1216 
Q 4038 787 3708 505 
Q 3379 224 2905 83 
Q 2432 -58 1843 -58 
Q 1574 -58 1216 -35 
Q 858 -13 512 58 
L 512 4378 
Q 858 4442 1232 4464 
Q 1606 4486 1875 4486 
Q 2445 4486 2909 4358 
Q 3373 4230 3705 3955 
Q 4038 3680 4217 3251 
Q 4397 2822 4397 2221 
z
" transform="scale(0.015625)"/>
       <path id="Ubuntu-Bold-65" d="M 288 1658 
Q 288 2106 425 2442 
Q 563 2778 787 3002 
Q 1011 3226 1302 3341 
Q 1594 3456 1901 3456 
Q 2618 3456 3034 3017 
Q 3450 2579 3450 1728 
Q 3450 1645 3443 1545 
Q 3437 1446 3430 1370 
L 1267 1370 
Q 1299 1075 1542 902 
Q 1786 730 2195 730 
Q 2458 730 2710 778 
Q 2963 826 3123 896 
L 3251 122 
Q 3174 83 3046 44 
Q 2918 6 2761 -22 
Q 2605 -51 2425 -70 
Q 2246 -90 2067 -90 
Q 1613 -90 1277 44 
Q 941 179 720 412 
Q 499 646 393 966 
Q 288 1286 288 1658 
z
M 2528 2022 
Q 2522 2144 2486 2259 
Q 2451 2374 2377 2464 
Q 2304 2554 2192 2611 
Q 2080 2669 1914 2669 
Q 1754 2669 1638 2614 
Q 1523 2560 1446 2470 
Q 1370 2381 1328 2262 
Q 1286 2144 1267 2022 
L 2528 2022 
z
" transform="scale(0.015625)"/>
       <path id="Ubuntu-Bold-6e" d="M 448 3251 
Q 691 3322 1075 3382 
Q 1459 3443 1882 3443 
Q 2310 3443 2595 3331 
Q 2880 3219 3046 3014 
Q 3213 2810 3283 2528 
Q 3354 2246 3354 1901 
L 3354 0 
L 2400 0 
L 2400 1786 
Q 2400 2246 2278 2438 
Q 2157 2630 1824 2630 
Q 1722 2630 1606 2620 
Q 1491 2611 1402 2598 
L 1402 0 
L 448 0 
L 448 3251 
z
" transform="scale(0.015625)"/>
       <path id="Ubuntu-Bold-73" d="M 1414 685 
Q 1677 685 1785 736 
Q 1894 787 1894 934 
Q 1894 1050 1753 1136 
Q 1613 1222 1325 1331 
Q 1101 1414 918 1504 
Q 736 1594 608 1718 
Q 480 1843 409 2016 
Q 339 2189 339 2432 
Q 339 2906 691 3181 
Q 1043 3456 1658 3456 
Q 1965 3456 2246 3401 
Q 2528 3347 2694 3283 
L 2528 2541 
Q 2362 2598 2166 2643 
Q 1971 2688 1728 2688 
Q 1280 2688 1280 2438 
Q 1280 2381 1299 2336 
Q 1318 2291 1376 2249 
Q 1434 2208 1533 2160 
Q 1632 2112 1786 2054 
Q 2099 1939 2304 1827 
Q 2509 1715 2627 1584 
Q 2746 1453 2794 1293 
Q 2842 1133 2842 922 
Q 2842 422 2467 166 
Q 2093 -90 1408 -90 
Q 960 -90 662 -13 
Q 365 64 250 115 
L 410 890 
Q 653 794 909 739 
Q 1165 685 1414 685 
z
" transform="scale(0.015625)"/>
       <path id="Ubuntu-Bold-69" d="M 1402 0 
L 448 0 
L 448 3366 
L 1402 3366 
L 1402 0 
z
M 1491 4339 
Q 1491 4077 1321 3926 
Q 1152 3776 922 3776 
Q 691 3776 521 3926 
Q 352 4077 352 4339 
Q 352 4602 521 4752 
Q 691 4902 922 4902 
Q 1152 4902 1321 4752 
Q 1491 4602 1491 4339 
z
" transform="scale(0.015625)"/>
       <path id="Ubuntu-Bold-74" d="M 416 4205 
L 1370 4358 
L 1370 3366 
L 2515 3366 
L 2515 2573 
L 1370 2573 
L 1370 1389 
Q 1370 1088 1475 909 
Q 1581 730 1901 730 
Q 2054 730 2217 758 
Q 2381 787 2515 838 
L 2650 96 
Q 2477 26 2265 -25 
Q 2054 -77 1747 -77 
Q 1357 -77 1101 28 
Q 845 134 691 323 
Q 538 512 477 781 
Q 416 1050 416 1376 
L 416 4205 
z
" transform="scale(0.015625)"/>
       <path id="Ubuntu-Bold-79" d="M 3437 3366 
Q 3149 2394 2835 1542 
Q 2522 691 2150 -109 
Q 2016 -397 1881 -598 
Q 1747 -800 1587 -931 
Q 1427 -1062 1225 -1123 
Q 1024 -1184 755 -1184 
Q 531 -1184 342 -1142 
Q 154 -1101 32 -1050 
L 198 -288 
Q 346 -339 461 -358 
Q 576 -378 704 -378 
Q 960 -378 1097 -240 
Q 1235 -102 1331 141 
Q 1005 781 678 1577 
Q 352 2374 64 3366 
L 1075 3366 
Q 1139 3117 1225 2825 
Q 1312 2534 1408 2236 
Q 1504 1939 1603 1657 
Q 1702 1376 1792 1146 
Q 1875 1376 1964 1657 
Q 2054 1939 2140 2236 
Q 2227 2534 2307 2825 
Q 2387 3117 2451 3366 
L 3437 3366 
z
" transform="scale(0.015625)"/>
      </defs>
      <use xlink:href="#Ubuntu-Bold-44"/>
      <use xlink:href="#Ubuntu-Bold-65" x="73.699982"/>
      <use xlink:href="#Ubuntu-Bold-6e" x="132.099976"/>
      <use xlink:href="#Ubuntu-Bold-73" x="190.999969"/>
      <use xlink:href="#Ubuntu-Bold-69" x="239.499954"/>
      <use xlink:href="#Ubuntu-Bold-74" x="268.399948"/>
      <use xlink:href="#Ubuntu-Bold-79" x="313.799942"/>
     </g>
    </g>
   </g>
   <g id="PolyCollection_1">
    <defs>
     <path id="mcc6e72595c" d="M 84.9386 -33.888943 
L 84.9386 -33.8875 
L 86.246552 -33.8875 
L 87.554504 -33.8875 
L 88.862456 -33.8875 
L 90.170408 -33.8875 
L 91.478359 -33.8875 
L 92.786311 -33.8875 
L 94.094263 -33.8875 
L 95.402215 -33.8875 
L 96.710167 -33.8875 
L 98.018119 -33.8875 
L 99.326071 -33.8875 
L 100.634023 -33.8875 
L 101.941975 -33.8875 
L 103.249927 -33.8875 
L 104.557878 -33.8875 
L 105.86583 -33.8875 
L 107.173782 -33.8875 
L 108.481734 -33.8875 
L 109.789686 -33.8875 
L 111.097638 -33.8875 
L 112.40559 -33.8875 
L 113.713542 -33.8875 
L 115.021494 -33.8875 
L 116.329446 -33.8875 
L 117.637397 -33.8875 
L 118.945349 -33.8875 
L 120.253301 -33.8875 
L 121.561253 -33.8875 
L 122.869205 -33.8875 
L 124.177157 -33.8875 
L 125.485109 -33.8875 
L 126.793061 -33.8875 
L 128.101013 -33.8875 
L 129.408965 -33.8875 
L 130.716916 -33.8875 
L 132.024868 -33.8875 
L 133.33282 -33.8875 
L 134.640772 -33.8875 
L 135.948724 -33.8875 
L 137.256676 -33.8875 
L 138.564628 -33.8875 
L 139.87258 -33.8875 
L 141.180532 -33.8875 
L 142.488484 -33.8875 
L 143.796435 -33.8875 
L 145.104387 -33.8875 
L 146.412339 -33.8875 
L 147.720291 -33.8875 
L 149.028243 -33.8875 
L 150.336195 -33.8875 
L 151.644147 -33.8875 
L 152.952099 -33.8875 
L 154.260051 -33.8875 
L 155.568002 -33.8875 
L 156.875954 -33.8875 
L 158.183906 -33.8875 
L 159.491858 -33.8875 
L 160.79981 -33.8875 
L 162.107762 -33.8875 
L 163.415714 -33.8875 
L 164.723666 -33.8875 
L 166.031618 -33.8875 
L 167.33957 -33.8875 
L 168.647521 -33.8875 
L 169.955473 -33.8875 
L 171.263425 -33.8875 
L 172.571377 -33.8875 
L 173.879329 -33.8875 
L 175.187281 -33.8875 
L 176.495233 -33.8875 
L 177.803185 -33.8875 
L 179.111137 -33.8875 
L 180.419089 -33.8875 
L 181.72704 -33.8875 
L 183.034992 -33.8875 
L 184.342944 -33.8875 
L 185.650896 -33.8875 
L 186.958848 -33.8875 
L 188.2668 -33.8875 
L 189.574752 -33.8875 
L 190.882704 -33.8875 
L 192.190656 -33.8875 
L 193.498608 -33.8875 
L 194.806559 -33.8875 
L 196.114511 -33.8875 
L 197.422463 -33.8875 
L 198.730415 -33.8875 
L 200.038367 -33.8875 
L 201.346319 -33.8875 
L 202.654271 -33.8875 
L 203.962223 -33.8875 
L 205.270175 -33.8875 
L 206.578127 -33.8875 
L 207.886078 -33.8875 
L 209.19403 -33.8875 
L 210.501982 -33.8875 
L 211.809934 -33.8875 
L 213.117886 -33.8875 
L 214.425838 -33.8875 
L 215.73379 -33.8875 
L 217.041742 -33.8875 
L 218.349694 -33.8875 
L 219.657646 -33.8875 
L 220.965597 -33.8875 
L 222.273549 -33.8875 
L 223.581501 -33.8875 
L 224.889453 -33.8875 
L 226.197405 -33.8875 
L 227.505357 -33.8875 
L 228.813309 -33.8875 
L 230.121261 -33.8875 
L 231.429213 -33.8875 
L 232.737165 -33.8875 
L 234.045116 -33.8875 
L 235.353068 -33.8875 
L 236.66102 -33.8875 
L 237.968972 -33.8875 
L 239.276924 -33.8875 
L 240.584876 -33.8875 
L 241.892828 -33.8875 
L 243.20078 -33.8875 
L 244.508732 -33.8875 
L 245.816684 -33.8875 
L 247.124635 -33.8875 
L 248.432587 -33.8875 
L 249.740539 -33.8875 
L 251.048491 -33.8875 
L 252.356443 -33.8875 
L 253.664395 -33.8875 
L 254.972347 -33.8875 
L 256.280299 -33.8875 
L 257.588251 -33.8875 
L 258.896203 -33.8875 
L 260.204154 -33.8875 
L 261.512106 -33.8875 
L 262.820058 -33.8875 
L 264.12801 -33.8875 
L 265.435962 -33.8875 
L 266.743914 -33.8875 
L 268.051866 -33.8875 
L 269.359818 -33.8875 
L 270.66777 -33.8875 
L 271.975721 -33.8875 
L 273.283673 -33.8875 
L 274.591625 -33.8875 
L 275.899577 -33.8875 
L 277.207529 -33.8875 
L 278.515481 -33.8875 
L 279.823433 -33.8875 
L 281.131385 -33.8875 
L 282.439337 -33.8875 
L 283.747289 -33.8875 
L 285.05524 -33.8875 
L 286.363192 -33.8875 
L 287.671144 -33.8875 
L 288.979096 -33.8875 
L 290.287048 -33.8875 
L 291.595 -33.8875 
L 292.902952 -33.8875 
L 294.210904 -33.8875 
L 295.518856 -33.8875 
L 296.826808 -33.8875 
L 298.134759 -33.8875 
L 299.442711 -33.8875 
L 300.750663 -33.8875 
L 302.058615 -33.8875 
L 303.366567 -33.8875 
L 304.674519 -33.8875 
L 305.982471 -33.8875 
L 307.290423 -33.8875 
L 308.598375 -33.8875 
L 309.906327 -33.8875 
L 311.214278 -33.8875 
L 312.52223 -33.8875 
L 313.830182 -33.8875 
L 315.138134 -33.8875 
L 316.446086 -33.8875 
L 317.754038 -33.8875 
L 319.06199 -33.8875 
L 320.369942 -33.8875 
L 321.677894 -33.8875 
L 322.985846 -33.8875 
L 324.293797 -33.8875 
L 325.601749 -33.8875 
L 326.909701 -33.8875 
L 328.217653 -33.8875 
L 329.525605 -33.8875 
L 330.833557 -33.8875 
L 332.141509 -33.8875 
L 333.449461 -33.8875 
L 334.757413 -33.8875 
L 336.065365 -33.8875 
L 337.373316 -33.8875 
L 338.681268 -33.8875 
L 339.98922 -33.8875 
L 341.297172 -33.8875 
L 342.605124 -33.8875 
L 343.913076 -33.8875 
L 345.221028 -33.8875 
L 345.221028 -33.88896 
L 345.221028 -33.88896 
L 343.913076 -33.890314 
L 342.605124 -33.892672 
L 341.297172 -33.896562 
L 339.98922 -33.902653 
L 338.681268 -33.911694 
L 337.373316 -33.924427 
L 336.065365 -33.941436 
L 334.757413 -33.963005 
L 333.449461 -33.988987 
L 332.141509 -34.018767 
L 330.833557 -34.051334 
L 329.525605 -34.0855 
L 328.217653 -34.12021 
L 326.909701 -34.154936 
L 325.601749 -34.19006 
L 324.293797 -34.227202 
L 322.985846 -34.269432 
L 321.677894 -34.321292 
L 320.369942 -34.388584 
L 319.06199 -34.477838 
L 317.754038 -34.595442 
L 316.446086 -34.746486 
L 315.138134 -34.933461 
L 313.830182 -35.155118 
L 312.52223 -35.405798 
L 311.214278 -35.675581 
L 309.906327 -35.951405 
L 308.598375 -36.219085 
L 307.290423 -36.465884 
L 305.982471 -36.683058 
L 304.674519 -36.867751 
L 303.366567 -37.023731 
L 302.058615 -37.160752 
L 300.750663 -37.292714 
L 299.442711 -37.435119 
L 298.134759 -37.602531 
L 296.826808 -37.806697 
L 295.518856 -38.055779 
L 294.210904 -38.354794 
L 292.902952 -38.706966 
L 291.595 -39.115459 
L 290.287048 -39.584851 
L 288.979096 -40.121875 
L 287.671144 -40.735164 
L 286.363192 -41.434075 
L 285.05524 -42.226958 
L 283.747289 -43.11934 
L 282.439337 -44.112586 
L 281.131385 -45.20343 
L 279.823433 -46.384535 
L 278.515481 -47.64592 
L 277.207529 -48.976812 
L 275.899577 -50.367309 
L 274.591625 -51.809376 
L 273.283673 -53.297003 
L 271.975721 -54.825774 
L 270.66777 -56.392437 
L 269.359818 -57.995077 
L 268.051866 -59.634116 
L 266.743914 -61.313809 
L 265.435962 -63.043379 
L 264.12801 -64.836769 
L 262.820058 -66.710484 
L 261.512106 -68.679796 
L 260.204154 -70.754509 
L 258.896203 -72.935967 
L 257.588251 -75.216709 
L 256.280299 -77.58328 
L 254.972347 -80.021483 
L 253.664395 -82.522362 
L 252.356443 -85.086757 
L 251.048491 -87.726625 
L 249.740539 -90.462195 
L 248.432587 -93.315309 
L 247.124635 -96.30057 
L 245.816684 -99.416754 
L 244.508732 -102.64113 
L 243.20078 -105.928578 
L 241.892828 -109.21601 
L 240.584876 -112.430941 
L 239.276924 -115.501993 
L 237.968972 -118.368832 
L 236.66102 -120.989715 
L 235.353068 -123.345759 
L 234.045116 -125.441718 
L 232.737165 -127.303283 
L 231.429213 -128.970845 
L 230.121261 -130.490045 
L 228.813309 -131.900422 
L 227.505357 -133.224831 
L 226.197405 -134.463104 
L 224.889453 -135.592792 
L 223.581501 -136.577544 
L 222.273549 -137.380648 
L 220.965597 -137.978826 
L 219.657646 -138.371005 
L 218.349694 -138.578728 
L 217.041742 -138.63832 
L 215.73379 -138.588161 
L 214.425838 -138.455987 
L 213.117886 -138.250402 
L 211.809934 -137.958473 
L 210.501982 -137.548711 
L 209.19403 -136.97724 
L 207.886078 -136.194938 
L 206.578127 -135.154317 
L 205.270175 -133.815886 
L 203.962223 -132.154073 
L 202.654271 -130.16233 
L 201.346319 -127.856482 
L 200.038367 -125.275247 
L 198.730415 -122.477344 
L 197.422463 -119.535544 
L 196.114511 -116.528695 
L 194.806559 -113.533115 
L 193.498608 -110.614642 
L 192.190656 -107.822473 
L 190.882704 -105.185693 
L 189.574752 -102.713092 
L 188.2668 -100.396221 
L 186.958848 -98.214767 
L 185.650896 -96.142595 
L 184.342944 -94.152628 
L 183.034992 -92.219433 
L 181.72704 -90.319469 
L 180.419089 -88.430059 
L 179.111137 -86.528556 
L 177.803185 -84.592811 
L 176.495233 -82.603228 
L 175.187281 -80.545812 
L 173.879329 -78.415215 
L 172.571377 -76.216799 
L 171.263425 -73.967119 
L 169.955473 -71.692661 
L 168.647521 -69.426955 
L 167.33957 -67.206421 
L 166.031618 -65.065453 
L 164.723666 -63.031476 
L 163.415714 -61.12091 
L 162.107762 -59.337032 
L 160.79981 -57.670418 
L 159.491858 -56.102085 
L 158.183906 -54.608659 
L 156.875954 -53.168224 
L 155.568002 -51.765274 
L 154.260051 -50.393503 
L 152.952099 -49.055883 
L 151.644147 -47.762419 
L 150.336195 -46.526616 
L 149.028243 -45.361924 
L 147.720291 -44.279099 
L 146.412339 -43.284857 
L 145.104387 -42.381633 
L 143.796435 -41.567994 
L 142.488484 -40.83931 
L 141.180532 -40.18852 
L 139.87258 -39.607059 
L 138.564628 -39.086027 
L 137.256676 -38.617509 
L 135.948724 -38.195754 
L 134.640772 -37.81781 
L 133.33282 -37.483285 
L 132.024868 -37.193215 
L 130.716916 -36.948332 
L 129.408965 -36.747259 
L 128.101013 -36.585238 
L 126.793061 -36.453808 
L 125.485109 -36.341585 
L 124.177157 -36.235953 
L 122.869205 -36.125215 
L 121.561253 -36.000626 
L 120.253301 -35.857789 
L 118.945349 -35.697071 
L 117.637397 -35.522985 
L 116.329446 -35.342782 
L 115.021494 -35.164649 
L 113.713542 -34.996015 
L 112.40559 -34.842324 
L 111.097638 -34.706494 
L 109.789686 -34.589017 
L 108.481734 -34.488527 
L 107.173782 -34.402564 
L 105.86583 -34.328314 
L 104.557878 -34.26317 
L 103.249927 -34.205065 
L 101.941975 -34.152606 
L 100.634023 -34.105054 
L 99.326071 -34.062201 
L 98.018119 -34.024186 
L 96.710167 -33.991281 
L 95.402215 -33.963695 
L 94.094263 -33.941426 
L 92.786311 -33.924192 
L 91.478359 -33.91145 
L 90.170408 -33.902468 
L 88.862456 -33.896445 
L 87.554504 -33.892604 
L 86.246552 -33.890279 
L 84.9386 -33.888943 
z
" style="stroke: #5b5b5b; stroke-width: 0.01"/>
    </defs>
    <g clip-path="url(#p59bd692edb)">
     <use xlink:href="#mcc6e72595c" x="0" y="197.775" style="fill: #5b5b5b; fill-opacity: 0.25; stroke: #5b5b5b; stroke-width: 0.01"/>
    </g>
   </g>
   <g id="line2d_14">
    <path d="M 94.134478 163.885295 
L 104.698548 163.767022 
L 113.50194 163.388089 
L 118.783975 162.98112 
L 125.826688 162.140373 
L 131.108723 161.271855 
L 139.912115 159.529262 
L 143.433471 159.096136 
L 148.715506 158.518146 
L 150.476185 158.197457 
L 152.236863 157.763524 
L 155.75822 156.572335 
L 161.040255 154.584086 
L 169.843647 151.765252 
L 171.604325 150.809689 
L 173.365003 149.6106 
L 175.125682 148.160585 
L 176.88636 146.448731 
L 178.647038 144.448325 
L 180.407717 142.122938 
L 182.168395 139.448022 
L 183.929073 136.433412 
L 187.45043 129.61184 
L 190.971787 122.149059 
L 194.493143 114.018544 
L 196.253822 109.548212 
L 199.775178 99.705 
L 205.057213 84.359965 
L 206.817892 79.747954 
L 208.57857 75.559295 
L 210.339248 71.781728 
L 212.099927 68.344478 
L 215.621283 62.16953 
L 219.14264 56.752146 
L 220.903318 54.420118 
L 222.663997 52.439107 
L 224.424675 50.895105 
L 226.185353 49.870443 
L 227.946032 49.423513 
L 229.70671 49.558758 
L 231.467388 50.199811 
L 233.228067 51.185491 
L 236.749423 53.353978 
L 240.27078 55.003037 
L 242.031458 55.866136 
L 243.792137 57.150469 
L 245.552815 59.19731 
L 247.313493 62.265965 
L 249.074172 66.467013 
L 250.83485 71.747401 
L 252.595528 77.921396 
L 256.116885 91.852992 
L 259.638242 105.890027 
L 261.39892 112.225605 
L 263.159598 117.784298 
L 264.920277 122.418129 
L 266.680955 126.093542 
L 268.441633 128.901028 
L 270.202312 131.031944 
L 271.96299 132.729385 
L 277.245025 137.347661 
L 279.005704 139.132043 
L 282.52706 143.12647 
L 286.048417 147.255075 
L 289.569774 150.961141 
L 291.330452 152.544597 
L 293.09113 153.922293 
L 294.851809 155.088347 
L 296.612487 156.043442 
L 298.373165 156.792663 
L 300.133844 157.343879 
L 301.894522 157.707334 
L 303.6552 157.897951 
L 307.176557 157.874201 
L 310.697914 157.650558 
L 312.458592 157.630115 
L 314.21927 157.753596 
L 315.979949 158.059031 
L 317.740627 158.55281 
L 321.261984 159.952827 
L 324.78334 161.411586 
L 326.544019 161.984332 
L 328.304697 162.408389 
L 331.826054 162.867356 
L 337.108089 163.113195 
L 351.193515 163.55886 
L 359.996907 163.474073 
L 367.03962 163.533608 
L 386.407082 163.732304 
L 423.381327 163.782988 
L 432.184719 163.802907 
L 444.509467 163.8861 
L 444.509467 163.8861 
" clip-path="url(#p59bd692edb)" style="fill: none; stroke: #5b5b5b; stroke-width: 1.2; stroke-linecap: square"/>
   </g>
   <g id="patch_3">
    <path d="M 61.890938 163.8875 
L 61.890938 25.2875 
" style="fill: none; stroke: #cccccc; stroke-width: 0.75; stroke-linejoin: miter; stroke-linecap: square"/>
   </g>
   <g id="patch_4">
    <path d="M 66.890938 173.8875 
L 513.290937 173.8875 
" style="fill: none; stroke: #cccccc; stroke-width: 0.75; stroke-linejoin: miter; stroke-linecap: square"/>
   </g>
   <g id="legend_1">
    <g id="line2d_15">
     <path d="M 74.090938 13.8075 
L 82.090938 13.8075 
L 90.090938 13.8075 
" style="fill: none; stroke: #5b5b5b; stroke-width: 1.2; stroke-linecap: square"/>
    </g>
    <g id="text_15">
     <!-- Residuals -->
     <g style="fill: #4b4b4b" transform="translate(96.490938 16.6075) scale(0.08 -0.08)">
      <defs>
       <path id="Ubuntu-52" d="M 2720 1856 
Q 2822 1728 2979 1520 
Q 3136 1312 3302 1059 
Q 3469 806 3632 531 
Q 3795 256 3910 0 
L 3232 0 
Q 3104 243 2953 492 
Q 2803 742 2649 969 
Q 2496 1197 2345 1395 
Q 2195 1594 2074 1741 
Q 1990 1734 1904 1734 
Q 1818 1734 1728 1734 
L 1171 1734 
L 1171 0 
L 550 0 
L 550 4371 
Q 813 4435 1136 4457 
Q 1459 4480 1728 4480 
Q 2662 4480 3152 4128 
Q 3642 3776 3642 3078 
Q 3642 2637 3408 2323 
Q 3174 2010 2720 1856 
z
M 1779 3936 
Q 1382 3936 1171 3917 
L 1171 2246 
L 1613 2246 
Q 1933 2246 2189 2278 
Q 2445 2310 2621 2400 
Q 2797 2490 2893 2653 
Q 2989 2816 2989 3085 
Q 2989 3334 2893 3500 
Q 2797 3667 2633 3763 
Q 2470 3859 2249 3897 
Q 2029 3936 1779 3936 
z
" transform="scale(0.015625)"/>
       <path id="Ubuntu-65" d="M 326 1658 
Q 326 2099 454 2428 
Q 582 2758 793 2976 
Q 1005 3194 1280 3302 
Q 1555 3411 1843 3411 
Q 2515 3411 2873 2992 
Q 3232 2573 3232 1715 
Q 3232 1677 3232 1616 
Q 3232 1555 3226 1504 
L 947 1504 
Q 986 986 1248 717 
Q 1510 448 2067 448 
Q 2381 448 2595 502 
Q 2810 557 2918 608 
L 3002 109 
Q 2893 51 2621 -13 
Q 2349 -77 2003 -77 
Q 1568 -77 1251 54 
Q 934 186 729 416 
Q 525 646 425 963 
Q 326 1280 326 1658 
z
M 2611 1984 
Q 2618 2387 2410 2646 
Q 2202 2906 1837 2906 
Q 1632 2906 1475 2826 
Q 1318 2746 1209 2618 
Q 1101 2490 1040 2323 
Q 979 2157 960 1984 
L 2611 1984 
z
" transform="scale(0.015625)"/>
       <path id="Ubuntu-73" d="M 1286 429 
Q 1651 429 1827 525 
Q 2003 621 2003 832 
Q 2003 1050 1830 1178 
Q 1658 1306 1261 1466 
Q 1069 1542 893 1622 
Q 717 1702 589 1811 
Q 461 1920 384 2073 
Q 307 2227 307 2451 
Q 307 2893 633 3152 
Q 960 3411 1523 3411 
Q 1664 3411 1805 3395 
Q 1946 3379 2067 3356 
Q 2189 3334 2281 3308 
Q 2374 3283 2426 3264 
L 2317 2752 
Q 2221 2803 2016 2857 
Q 1811 2912 1523 2912 
Q 1274 2912 1088 2813 
Q 902 2714 902 2502 
Q 902 2394 944 2310 
Q 986 2227 1072 2160 
Q 1158 2093 1286 2035 
Q 1414 1978 1594 1914 
Q 1830 1824 2016 1737 
Q 2202 1651 2333 1536 
Q 2464 1421 2534 1257 
Q 2605 1094 2605 858 
Q 2605 397 2262 160 
Q 1920 -77 1286 -77 
Q 845 -77 595 -3 
Q 346 70 256 109 
L 365 621 
Q 467 582 691 505 
Q 915 429 1286 429 
z
" transform="scale(0.015625)"/>
       <path id="Ubuntu-69" d="M 1107 0 
L 512 0 
L 512 3328 
L 1107 3328 
L 1107 0 
z
M 806 3930 
Q 646 3930 534 4035 
Q 422 4141 422 4320 
Q 422 4499 534 4604 
Q 646 4710 806 4710 
Q 966 4710 1078 4604 
Q 1190 4499 1190 4320 
Q 1190 4141 1078 4035 
Q 966 3930 806 3930 
z
" transform="scale(0.015625)"/>
       <path id="Ubuntu-64" d="M 2662 2624 
Q 2554 2714 2349 2797 
Q 2144 2880 1901 2880 
Q 1645 2880 1462 2787 
Q 1280 2694 1165 2531 
Q 1050 2368 998 2144 
Q 947 1920 947 1664 
Q 947 1082 1235 765 
Q 1523 448 2003 448 
Q 2246 448 2409 470 
Q 2573 493 2662 518 
L 2662 2624 
z
M 2662 4864 
L 3258 4966 
L 3258 96 
Q 3053 38 2733 -19 
Q 2413 -77 1997 -77 
Q 1613 -77 1305 44 
Q 998 166 780 390 
Q 563 614 444 937 
Q 326 1261 326 1664 
Q 326 2048 425 2368 
Q 525 2688 717 2918 
Q 909 3149 1187 3277 
Q 1466 3405 1824 3405 
Q 2112 3405 2333 3328 
Q 2554 3251 2662 3181 
L 2662 4864 
z
" transform="scale(0.015625)"/>
       <path id="Ubuntu-75" d="M 3162 96 
Q 2957 45 2621 -12 
Q 2285 -70 1843 -70 
Q 1459 -70 1196 42 
Q 934 154 774 358 
Q 614 563 544 841 
Q 474 1120 474 1459 
L 474 3328 
L 1069 3328 
L 1069 1587 
Q 1069 979 1261 716 
Q 1453 454 1907 454 
Q 2003 454 2105 460 
Q 2208 467 2297 476 
Q 2387 486 2460 496 
Q 2534 506 2566 518 
L 2566 3328 
L 3162 3328 
L 3162 96 
z
" transform="scale(0.015625)"/>
       <path id="Ubuntu-61" d="M 1638 429 
Q 1850 429 2013 438 
Q 2176 448 2285 474 
L 2285 1466 
Q 2221 1498 2077 1520 
Q 1933 1542 1728 1542 
Q 1594 1542 1443 1523 
Q 1293 1504 1168 1443 
Q 1043 1382 960 1276 
Q 877 1171 877 998 
Q 877 678 1081 553 
Q 1286 429 1638 429 
z
M 1587 3411 
Q 1946 3411 2192 3318 
Q 2438 3226 2588 3056 
Q 2739 2886 2803 2652 
Q 2867 2419 2867 2138 
L 2867 58 
Q 2790 45 2652 22 
Q 2515 0 2342 -19 
Q 2170 -38 1968 -54 
Q 1766 -70 1568 -70 
Q 1286 -70 1049 -12 
Q 813 45 640 169 
Q 467 294 371 499 
Q 275 704 275 992 
Q 275 1267 387 1465 
Q 499 1664 691 1785 
Q 883 1907 1139 1964 
Q 1395 2022 1677 2022 
Q 1766 2022 1862 2012 
Q 1958 2003 2044 1987 
Q 2131 1971 2195 1958 
Q 2259 1946 2285 1939 
L 2285 2106 
Q 2285 2253 2253 2397 
Q 2221 2541 2137 2653 
Q 2054 2765 1910 2832 
Q 1766 2899 1536 2899 
Q 1242 2899 1021 2857 
Q 800 2816 691 2771 
L 621 3264 
Q 736 3315 1005 3363 
Q 1274 3411 1587 3411 
z
" transform="scale(0.015625)"/>
       <path id="Ubuntu-6c" d="M 1510 -64 
Q 960 -51 729 173 
Q 499 397 499 870 
L 499 4864 
L 1094 4966 
L 1094 966 
Q 1094 819 1120 723 
Q 1146 627 1203 569 
Q 1261 512 1357 483 
Q 1453 454 1594 435 
L 1510 -64 
z
" transform="scale(0.015625)"/>
      </defs>
      <use xlink:href="#Ubuntu-52"/>
      <use xlink:href="#Ubuntu-65" x="62.899994"/>
      <use xlink:href="#Ubuntu-73" x="118.799988"/>
      <use xlink:href="#Ubuntu-69" x="163.399979"/>
      <use xlink:href="#Ubuntu-64" x="188.699966"/>
      <use xlink:href="#Ubuntu-75" x="247.59996"/>
      <use xlink:href="#Ubuntu-61" x="304.999954"/>
      <use xlink:href="#Ubuntu-6c" x="357.199951"/>
      <use xlink:href="#Ubuntu-73" x="384.499939"/>
     </g>
    </g>
    <g id="patch_5">
     <path d="M 146.819687 16.6075 
L 162.819687 16.6075 
L 162.819687 11.0075 
L 146.819687 11.0075 
z
" style="fill: #5b5b5b; fill-opacity: 0.25; stroke: #5b5b5b; stroke-width: 0.01; stroke-linejoin: miter"/>
    </g>
    <g id="text_16">
     <!-- Normal -->
     <g style="fill: #4b4b4b" transform="translate(169.219687 16.6075) scale(0.08 -0.08)">
      <defs>
       <path id="Ubuntu-4e" d="M 3590 0 
Q 3450 237 3267 531 
Q 3085 826 2873 1142 
Q 2662 1459 2435 1785 
Q 2208 2112 1984 2416 
Q 1760 2720 1549 2989 
Q 1338 3258 1158 3462 
L 1158 0 
L 550 0 
L 550 4435 
L 1043 4435 
Q 1344 4115 1686 3689 
Q 2029 3264 2365 2813 
Q 2701 2362 2998 1926 
Q 3296 1491 3501 1152 
L 3501 4435 
L 4109 4435 
L 4109 0 
L 3590 0 
z
" transform="scale(0.015625)"/>
       <path id="Ubuntu-6f" d="M 3450 1664 
Q 3450 1267 3334 947 
Q 3219 627 3011 396 
Q 2803 166 2515 41 
Q 2227 -83 1888 -83 
Q 1549 -83 1261 41 
Q 973 166 765 396 
Q 557 627 441 947 
Q 326 1267 326 1664 
Q 326 2054 441 2377 
Q 557 2701 765 2931 
Q 973 3162 1261 3286 
Q 1549 3411 1888 3411 
Q 2227 3411 2515 3286 
Q 2803 3162 3011 2931 
Q 3219 2701 3334 2377 
Q 3450 2054 3450 1664 
z
M 2829 1664 
Q 2829 2227 2576 2556 
Q 2323 2886 1888 2886 
Q 1453 2886 1200 2556 
Q 947 2227 947 1664 
Q 947 1101 1200 771 
Q 1453 442 1888 442 
Q 2323 442 2576 771 
Q 2829 1101 2829 1664 
z
" transform="scale(0.015625)"/>
       <path id="Ubuntu-72" d="M 1741 3398 
Q 1818 3398 1917 3388 
Q 2016 3379 2112 3363 
Q 2208 3347 2288 3331 
Q 2368 3315 2406 3302 
L 2304 2784 
Q 2234 2810 2070 2845 
Q 1907 2880 1651 2880 
Q 1485 2880 1321 2845 
Q 1158 2810 1107 2797 
L 1107 0 
L 512 0 
L 512 3187 
Q 723 3264 1036 3331 
Q 1350 3398 1741 3398 
z
" transform="scale(0.015625)"/>
       <path id="Ubuntu-6d" d="M 512 3232 
Q 717 3283 1053 3340 
Q 1389 3398 1830 3398 
Q 2150 3398 2368 3312 
Q 2586 3226 2733 3059 
Q 2778 3091 2874 3148 
Q 2970 3206 3110 3260 
Q 3251 3315 3424 3356 
Q 3597 3398 3795 3398 
Q 4179 3398 4422 3286 
Q 4666 3174 4803 2969 
Q 4941 2765 4989 2483 
Q 5037 2202 5037 1869 
L 5037 0 
L 4442 0 
L 4442 1741 
Q 4442 2035 4413 2246 
Q 4384 2458 4304 2598 
Q 4224 2739 4086 2806 
Q 3949 2874 3731 2874 
Q 3430 2874 3235 2794 
Q 3040 2714 2970 2650 
Q 3021 2483 3046 2284 
Q 3072 2086 3072 1869 
L 3072 0 
L 2477 0 
L 2477 1741 
Q 2477 2035 2445 2246 
Q 2413 2458 2333 2598 
Q 2253 2739 2115 2806 
Q 1978 2874 1766 2874 
Q 1677 2874 1574 2867 
Q 1472 2861 1379 2851 
Q 1286 2842 1209 2829 
Q 1133 2816 1107 2810 
L 1107 0 
L 512 0 
L 512 3232 
z
" transform="scale(0.015625)"/>
      </defs>
      <use xlink:href="#Ubuntu-4e"/>
      <use xlink:href="#Ubuntu-6f" x="72.799988"/>
      <use xlink:href="#Ubuntu-72" x="131.799973"/>
      <use xlink:href="#Ubuntu-6d" x="170.399963"/>
      <use xlink:href="#Ubuntu-61" x="256.499954"/>
      <use xlink:href="#Ubuntu-6c" x="308.699951"/>
     </g>
    </g>
   </g>
  </g>
 </g>
 <defs>
  <clipPath id="p59bd692edb">
   <rect x="66.890938" y="25.2875" width="446.4" height="138.6"/>
  </clipPath>
 </defs>
</svg>
