<?xml version="1.0" encoding="utf-8" standalone="no"?>
<!DOCTYPE svg PUBLIC "-//W3C//DTD SVG 1.1//EN"
  "http://www.w3.org/Graphics/SVG/1.1/DTD/svg11.dtd">
<svg xmlns:xlink="http://www.w3.org/1999/xlink" width="531.772187pt" height="165.055pt" viewBox="0 0 531.772187 165.055" xmlns="http://www.w3.org/2000/svg" version="1.1">
 <metadata>
  <rdf:RDF xmlns:dc="http://purl.org/dc/elements/1.1/" xmlns:cc="http://creativecommons.org/ns#" xmlns:rdf="http://www.w3.org/1999/02/22-rdf-syntax-ns#">
   <cc:Work>
    <dc:type rdf:resource="http://purl.org/dc/dcmitype/StillImage"/>
    <dc:date>2024-04-25T23:35:45.063892</dc:date>
    <dc:format>image/svg+xml</dc:format>
    <dc:creator>
     <cc:Agent>
      <dc:title>Matplotlib v3.8.3, https://matplotlib.org/</dc:title>
     </cc:Agent>
    </dc:creator>
   </cc:Work>
  </rdf:RDF>
 </metadata>
 <defs>
  <style type="text/css">*{stroke-linejoin: round; stroke-linecap: butt}</style>
 </defs>
 <g id="figure_1">
  <g id="patch_1">
   <path d="M 0 165.055 
L 531.772187 165.055 
L 531.772187 0 
L 0 0 
L 0 165.055 
z
" style="fill: none"/>
  </g>
  <g id="axes_1">
   <g id="patch_2">
    <path d="M 66.890938 136.1675 
L 513.290937 136.1675 
L 513.290937 25.2875 
L 66.890938 25.2875 
L 66.890938 136.1675 
z
" style="fill: none"/>
   </g>
   <g id="matplotlib.axis_1">
    <g id="xtick_1">
     <g id="line2d_1">
      <defs>
       <path id="m02d1a45f8b" d="M 0 0 
L 0 3 
" style="stroke: #cccccc; stroke-width: 0.75"/>
      </defs>
      <g>
       <use xlink:href="#m02d1a45f8b" x="66.890937" y="141.1675" style="fill: #cccccc; stroke: #cccccc; stroke-width: 0.75"/>
      </g>
     </g>
     <g id="text_1">
      <!-- −15000 -->
      <g style="fill: #808080" transform="translate(53.353437 156.375) scale(0.08 -0.08)">
       <defs>
        <path id="Ubuntu-2212" d="M 339 2138 
L 3270 2138 
L 3270 1632 
L 339 1632 
L 339 2138 
z
" transform="scale(0.015625)"/>
        <path id="Ubuntu-31" d="M 595 3520 
Q 960 3661 1305 3881 
Q 1651 4102 1939 4435 
L 2362 4435 
L 2362 0 
L 1766 0 
L 1766 3610 
Q 1690 3539 1578 3462 
Q 1466 3386 1334 3315 
Q 1203 3245 1059 3181 
Q 915 3117 781 3072 
L 595 3520 
z
" transform="scale(0.015625)"/>
        <path id="Ubuntu-35" d="M 1274 2726 
Q 2240 2688 2691 2304 
Q 3142 1920 3142 1261 
Q 3142 966 3043 716 
Q 2944 467 2742 288 
Q 2541 109 2233 6 
Q 1926 -96 1504 -96 
Q 1338 -96 1165 -70 
Q 992 -45 845 -6 
Q 698 32 582 70 
Q 467 109 416 134 
L 531 653 
Q 640 602 886 518 
Q 1133 435 1491 435 
Q 1779 435 1974 499 
Q 2170 563 2291 672 
Q 2413 781 2467 925 
Q 2522 1069 2522 1229 
Q 2522 1472 2438 1661 
Q 2355 1850 2144 1978 
Q 1933 2106 1581 2173 
Q 1229 2240 691 2240 
Q 730 2554 752 2829 
Q 774 3104 793 3366 
Q 813 3629 825 3888 
Q 838 4147 851 4435 
L 2989 4435 
L 2989 3930 
L 1370 3930 
Q 1363 3834 1350 3670 
Q 1338 3507 1325 3331 
Q 1312 3155 1299 2988 
Q 1286 2822 1274 2726 
z
" transform="scale(0.015625)"/>
        <path id="Ubuntu-30" d="M 320 2221 
Q 320 3334 713 3936 
Q 1107 4538 1805 4538 
Q 2502 4538 2896 3936 
Q 3290 3334 3290 2221 
Q 3290 1107 2896 505 
Q 2502 -96 1805 -96 
Q 1107 -96 713 505 
Q 320 1107 320 2221 
z
M 2662 2221 
Q 2662 2586 2620 2912 
Q 2579 3238 2480 3481 
Q 2381 3725 2214 3869 
Q 2048 4013 1805 4013 
Q 1562 4013 1395 3869 
Q 1229 3725 1129 3481 
Q 1030 3238 988 2912 
Q 947 2586 947 2221 
Q 947 1856 988 1529 
Q 1030 1203 1129 960 
Q 1229 717 1395 573 
Q 1562 429 1805 429 
Q 2048 429 2214 573 
Q 2381 717 2480 960 
Q 2579 1203 2620 1529 
Q 2662 1856 2662 2221 
z
" transform="scale(0.015625)"/>
       </defs>
       <use xlink:href="#Ubuntu-2212"/>
       <use xlink:href="#Ubuntu-31" x="56.399994"/>
       <use xlink:href="#Ubuntu-35" x="112.799988"/>
       <use xlink:href="#Ubuntu-30" x="169.199982"/>
       <use xlink:href="#Ubuntu-30" x="225.599976"/>
       <use xlink:href="#Ubuntu-30" x="281.999969"/>
      </g>
     </g>
    </g>
    <g id="xtick_2">
     <g id="line2d_2">
      <g>
       <use xlink:href="#m02d1a45f8b" x="130.662366" y="141.1675" style="fill: #cccccc; stroke: #cccccc; stroke-width: 0.75"/>
      </g>
     </g>
     <g id="text_2">
      <!-- −10000 -->
      <g style="fill: #808080" transform="translate(117.124866 156.375) scale(0.08 -0.08)">
       <use xlink:href="#Ubuntu-2212"/>
       <use xlink:href="#Ubuntu-31" x="56.399994"/>
       <use xlink:href="#Ubuntu-30" x="112.799988"/>
       <use xlink:href="#Ubuntu-30" x="169.199982"/>
       <use xlink:href="#Ubuntu-30" x="225.599976"/>
       <use xlink:href="#Ubuntu-30" x="281.999969"/>
      </g>
     </g>
    </g>
    <g id="xtick_3">
     <g id="line2d_3">
      <g>
       <use xlink:href="#m02d1a45f8b" x="194.433795" y="141.1675" style="fill: #cccccc; stroke: #cccccc; stroke-width: 0.75"/>
      </g>
     </g>
     <g id="text_3">
      <!-- −5000 -->
      <g style="fill: #808080" transform="translate(183.152545 156.375) scale(0.08 -0.08)">
       <use xlink:href="#Ubuntu-2212"/>
       <use xlink:href="#Ubuntu-35" x="56.399994"/>
       <use xlink:href="#Ubuntu-30" x="112.799988"/>
       <use xlink:href="#Ubuntu-30" x="169.199982"/>
       <use xlink:href="#Ubuntu-30" x="225.599976"/>
      </g>
     </g>
    </g>
    <g id="xtick_4">
     <g id="line2d_4">
      <g>
       <use xlink:href="#m02d1a45f8b" x="258.205223" y="141.1675" style="fill: #cccccc; stroke: #cccccc; stroke-width: 0.75"/>
      </g>
     </g>
     <g id="text_4">
      <!-- 0 -->
      <g style="fill: #808080" transform="translate(255.948973 156.375) scale(0.08 -0.08)">
       <use xlink:href="#Ubuntu-30"/>
      </g>
     </g>
    </g>
    <g id="xtick_5">
     <g id="line2d_5">
      <g>
       <use xlink:href="#m02d1a45f8b" x="321.976652" y="141.1675" style="fill: #cccccc; stroke: #cccccc; stroke-width: 0.75"/>
      </g>
     </g>
     <g id="text_5">
      <!-- 5000 -->
      <g style="fill: #808080" transform="translate(312.951652 156.375) scale(0.08 -0.08)">
       <use xlink:href="#Ubuntu-35"/>
       <use xlink:href="#Ubuntu-30" x="56.399994"/>
       <use xlink:href="#Ubuntu-30" x="112.799988"/>
       <use xlink:href="#Ubuntu-30" x="169.199982"/>
      </g>
     </g>
    </g>
    <g id="xtick_6">
     <g id="line2d_6">
      <g>
       <use xlink:href="#m02d1a45f8b" x="385.74808" y="141.1675" style="fill: #cccccc; stroke: #cccccc; stroke-width: 0.75"/>
      </g>
     </g>
     <g id="text_6">
      <!-- 10000 -->
      <g style="fill: #808080" transform="translate(374.46683 156.375) scale(0.08 -0.08)">
       <use xlink:href="#Ubuntu-31"/>
       <use xlink:href="#Ubuntu-30" x="56.399994"/>
       <use xlink:href="#Ubuntu-30" x="112.799988"/>
       <use xlink:href="#Ubuntu-30" x="169.199982"/>
       <use xlink:href="#Ubuntu-30" x="225.599976"/>
      </g>
     </g>
    </g>
    <g id="xtick_7">
     <g id="line2d_7">
      <g>
       <use xlink:href="#m02d1a45f8b" x="449.519509" y="141.1675" style="fill: #cccccc; stroke: #cccccc; stroke-width: 0.75"/>
      </g>
     </g>
     <g id="text_7">
      <!-- 15000 -->
      <g style="fill: #808080" transform="translate(438.238259 156.375) scale(0.08 -0.08)">
       <use xlink:href="#Ubuntu-31"/>
       <use xlink:href="#Ubuntu-35" x="56.399994"/>
       <use xlink:href="#Ubuntu-30" x="112.799988"/>
       <use xlink:href="#Ubuntu-30" x="169.199982"/>
       <use xlink:href="#Ubuntu-30" x="225.599976"/>
      </g>
     </g>
    </g>
    <g id="xtick_8">
     <g id="line2d_8">
      <g>
       <use xlink:href="#m02d1a45f8b" x="513.290937" y="141.1675" style="fill: #cccccc; stroke: #cccccc; stroke-width: 0.75"/>
      </g>
     </g>
     <g id="text_8">
      <!-- 20000 -->
      <g style="fill: #808080" transform="translate(502.009687 156.375) scale(0.08 -0.08)">
       <defs>
        <path id="Ubuntu-32" d="M 2989 3302 
Q 2989 3072 2896 2857 
Q 2803 2643 2649 2435 
Q 2496 2227 2304 2025 
Q 2112 1824 1920 1632 
Q 1811 1523 1667 1376 
Q 1523 1229 1395 1069 
Q 1267 909 1180 761 
Q 1094 614 1094 506 
L 3136 506 
L 3136 0 
L 448 0 
Q 442 38 442 76 
Q 442 115 442 147 
Q 442 448 541 707 
Q 640 966 800 1196 
Q 960 1427 1158 1632 
Q 1357 1837 1549 2029 
Q 1709 2182 1853 2332 
Q 1997 2483 2109 2633 
Q 2221 2784 2288 2944 
Q 2355 3104 2355 3283 
Q 2355 3475 2294 3609 
Q 2234 3744 2131 3833 
Q 2029 3923 1891 3964 
Q 1754 4006 1600 4006 
Q 1414 4006 1260 3955 
Q 1107 3904 985 3837 
Q 864 3770 781 3696 
Q 698 3622 653 3584 
L 358 4006 
Q 416 4070 531 4163 
Q 646 4256 806 4339 
Q 966 4422 1164 4480 
Q 1363 4538 1594 4538 
Q 2291 4538 2640 4214 
Q 2989 3891 2989 3302 
z
" transform="scale(0.015625)"/>
       </defs>
       <use xlink:href="#Ubuntu-32"/>
       <use xlink:href="#Ubuntu-30" x="56.399994"/>
       <use xlink:href="#Ubuntu-30" x="112.799988"/>
       <use xlink:href="#Ubuntu-30" x="169.199982"/>
       <use xlink:href="#Ubuntu-30" x="225.599976"/>
      </g>
     </g>
    </g>
   </g>
   <g id="matplotlib.axis_2">
    <g id="ytick_1">
     <g id="line2d_9">
      <defs>
       <path id="m27057800fe" d="M 0 0 
L -3 0 
" style="stroke: #cccccc; stroke-width: 0.75"/>
      </defs>
      <g>
       <use xlink:href="#m27057800fe" x="61.890938" y="136.1675" style="fill: #cccccc; stroke: #cccccc; stroke-width: 0.75"/>
      </g>
     </g>
     <g id="text_9">
      <!-- 0.00000 -->
      <g style="fill: #808080" transform="translate(23.848438 139.27125) scale(0.08 -0.08)">
       <defs>
        <path id="Ubuntu-2e" d="M 1216 346 
Q 1216 173 1101 45 
Q 986 -83 787 -83 
Q 589 -83 473 45 
Q 358 173 358 346 
Q 358 518 473 646 
Q 589 774 787 774 
Q 986 774 1101 646 
Q 1216 518 1216 346 
z
" transform="scale(0.015625)"/>
       </defs>
       <use xlink:href="#Ubuntu-30"/>
       <use xlink:href="#Ubuntu-2e" x="56.399994"/>
       <use xlink:href="#Ubuntu-30" x="80.999985"/>
       <use xlink:href="#Ubuntu-30" x="137.399979"/>
       <use xlink:href="#Ubuntu-30" x="193.799973"/>
       <use xlink:href="#Ubuntu-30" x="250.199966"/>
       <use xlink:href="#Ubuntu-30" x="306.59996"/>
      </g>
     </g>
    </g>
    <g id="ytick_2">
     <g id="line2d_10">
      <g>
       <use xlink:href="#m27057800fe" x="61.890938" y="113.9915" style="fill: #cccccc; stroke: #cccccc; stroke-width: 0.75"/>
      </g>
     </g>
     <g id="text_10">
      <!-- 0.00005 -->
      <g style="fill: #808080" transform="translate(23.848438 117.09525) scale(0.08 -0.08)">
       <use xlink:href="#Ubuntu-30"/>
       <use xlink:href="#Ubuntu-2e" x="56.399994"/>
       <use xlink:href="#Ubuntu-30" x="80.999985"/>
       <use xlink:href="#Ubuntu-30" x="137.399979"/>
       <use xlink:href="#Ubuntu-30" x="193.799973"/>
       <use xlink:href="#Ubuntu-30" x="250.199966"/>
       <use xlink:href="#Ubuntu-35" x="306.59996"/>
      </g>
     </g>
    </g>
    <g id="ytick_3">
     <g id="line2d_11">
      <g>
       <use xlink:href="#m27057800fe" x="61.890938" y="91.8155" style="fill: #cccccc; stroke: #cccccc; stroke-width: 0.75"/>
      </g>
     </g>
     <g id="text_11">
      <!-- 0.00010 -->
      <g style="fill: #808080" transform="translate(23.848438 94.91925) scale(0.08 -0.08)">
       <use xlink:href="#Ubuntu-30"/>
       <use xlink:href="#Ubuntu-2e" x="56.399994"/>
       <use xlink:href="#Ubuntu-30" x="80.999985"/>
       <use xlink:href="#Ubuntu-30" x="137.399979"/>
       <use xlink:href="#Ubuntu-30" x="193.799973"/>
       <use xlink:href="#Ubuntu-31" x="250.199966"/>
       <use xlink:href="#Ubuntu-30" x="306.59996"/>
      </g>
     </g>
    </g>
    <g id="ytick_4">
     <g id="line2d_12">
      <g>
       <use xlink:href="#m27057800fe" x="61.890938" y="69.6395" style="fill: #cccccc; stroke: #cccccc; stroke-width: 0.75"/>
      </g>
     </g>
     <g id="text_12">
      <!-- 0.00015 -->
      <g style="fill: #808080" transform="translate(23.848438 72.74325) scale(0.08 -0.08)">
       <use xlink:href="#Ubuntu-30"/>
       <use xlink:href="#Ubuntu-2e" x="56.399994"/>
       <use xlink:href="#Ubuntu-30" x="80.999985"/>
       <use xlink:href="#Ubuntu-30" x="137.399979"/>
       <use xlink:href="#Ubuntu-30" x="193.799973"/>
       <use xlink:href="#Ubuntu-31" x="250.199966"/>
       <use xlink:href="#Ubuntu-35" x="306.59996"/>
      </g>
     </g>
    </g>
    <g id="ytick_5">
     <g id="line2d_13">
      <g>
       <use xlink:href="#m27057800fe" x="61.890938" y="47.4635" style="fill: #cccccc; stroke: #cccccc; stroke-width: 0.75"/>
      </g>
     </g>
     <g id="text_13">
      <!-- 0.00020 -->
      <g style="fill: #808080" transform="translate(23.848438 50.56725) scale(0.08 -0.08)">
       <use xlink:href="#Ubuntu-30"/>
       <use xlink:href="#Ubuntu-2e" x="56.399994"/>
       <use xlink:href="#Ubuntu-30" x="80.999985"/>
       <use xlink:href="#Ubuntu-30" x="137.399979"/>
       <use xlink:href="#Ubuntu-30" x="193.799973"/>
       <use xlink:href="#Ubuntu-32" x="250.199966"/>
       <use xlink:href="#Ubuntu-30" x="306.59996"/>
      </g>
     </g>
    </g>
    <g id="ytick_6">
     <g id="line2d_14">
      <g>
       <use xlink:href="#m27057800fe" x="61.890938" y="25.2875" style="fill: #cccccc; stroke: #cccccc; stroke-width: 0.75"/>
      </g>
     </g>
     <g id="text_14">
      <!-- 0.00025 -->
      <g style="fill: #808080" transform="translate(23.848438 28.39125) scale(0.08 -0.08)">
       <use xlink:href="#Ubuntu-30"/>
       <use xlink:href="#Ubuntu-2e" x="56.399994"/>
       <use xlink:href="#Ubuntu-30" x="80.999985"/>
       <use xlink:href="#Ubuntu-30" x="137.399979"/>
       <use xlink:href="#Ubuntu-30" x="193.799973"/>
       <use xlink:href="#Ubuntu-32" x="250.199966"/>
       <use xlink:href="#Ubuntu-35" x="306.59996"/>
      </g>
     </g>
    </g>
    <g id="text_15">
     <!-- Density -->
     <g style="fill: #505050" transform="translate(14.183438 58.455312) rotate(-90) scale(0.09 -0.09)">
      <defs>
       <path id="Ubuntu-Bold-44" d="M 1510 813 
Q 1581 806 1673 803 
Q 1766 800 1894 800 
Q 2643 800 3004 1177 
Q 3366 1555 3366 2221 
Q 3366 2918 3020 3276 
Q 2675 3635 1926 3635 
Q 1824 3635 1715 3632 
Q 1606 3629 1510 3616 
L 1510 813 
z
M 4397 2221 
Q 4397 1645 4217 1216 
Q 4038 787 3708 505 
Q 3379 224 2905 83 
Q 2432 -58 1843 -58 
Q 1574 -58 1216 -35 
Q 858 -13 512 58 
L 512 4378 
Q 858 4442 1232 4464 
Q 1606 4486 1875 4486 
Q 2445 4486 2909 4358 
Q 3373 4230 3705 3955 
Q 4038 3680 4217 3251 
Q 4397 2822 4397 2221 
z
" transform="scale(0.015625)"/>
       <path id="Ubuntu-Bold-65" d="M 288 1658 
Q 288 2106 425 2442 
Q 563 2778 787 3002 
Q 1011 3226 1302 3341 
Q 1594 3456 1901 3456 
Q 2618 3456 3034 3017 
Q 3450 2579 3450 1728 
Q 3450 1645 3443 1545 
Q 3437 1446 3430 1370 
L 1267 1370 
Q 1299 1075 1542 902 
Q 1786 730 2195 730 
Q 2458 730 2710 778 
Q 2963 826 3123 896 
L 3251 122 
Q 3174 83 3046 44 
Q 2918 6 2761 -22 
Q 2605 -51 2425 -70 
Q 2246 -90 2067 -90 
Q 1613 -90 1277 44 
Q 941 179 720 412 
Q 499 646 393 966 
Q 288 1286 288 1658 
z
M 2528 2022 
Q 2522 2144 2486 2259 
Q 2451 2374 2377 2464 
Q 2304 2554 2192 2611 
Q 2080 2669 1914 2669 
Q 1754 2669 1638 2614 
Q 1523 2560 1446 2470 
Q 1370 2381 1328 2262 
Q 1286 2144 1267 2022 
L 2528 2022 
z
" transform="scale(0.015625)"/>
       <path id="Ubuntu-Bold-6e" d="M 448 3251 
Q 691 3322 1075 3382 
Q 1459 3443 1882 3443 
Q 2310 3443 2595 3331 
Q 2880 3219 3046 3014 
Q 3213 2810 3283 2528 
Q 3354 2246 3354 1901 
L 3354 0 
L 2400 0 
L 2400 1786 
Q 2400 2246 2278 2438 
Q 2157 2630 1824 2630 
Q 1722 2630 1606 2620 
Q 1491 2611 1402 2598 
L 1402 0 
L 448 0 
L 448 3251 
z
" transform="scale(0.015625)"/>
       <path id="Ubuntu-Bold-73" d="M 1414 685 
Q 1677 685 1785 736 
Q 1894 787 1894 934 
Q 1894 1050 1753 1136 
Q 1613 1222 1325 1331 
Q 1101 1414 918 1504 
Q 736 1594 608 1718 
Q 480 1843 409 2016 
Q 339 2189 339 2432 
Q 339 2906 691 3181 
Q 1043 3456 1658 3456 
Q 1965 3456 2246 3401 
Q 2528 3347 2694 3283 
L 2528 2541 
Q 2362 2598 2166 2643 
Q 1971 2688 1728 2688 
Q 1280 2688 1280 2438 
Q 1280 2381 1299 2336 
Q 1318 2291 1376 2249 
Q 1434 2208 1533 2160 
Q 1632 2112 1786 2054 
Q 2099 1939 2304 1827 
Q 2509 1715 2627 1584 
Q 2746 1453 2794 1293 
Q 2842 1133 2842 922 
Q 2842 422 2467 166 
Q 2093 -90 1408 -90 
Q 960 -90 662 -13 
Q 365 64 250 115 
L 410 890 
Q 653 794 909 739 
Q 1165 685 1414 685 
z
" transform="scale(0.015625)"/>
       <path id="Ubuntu-Bold-69" d="M 1402 0 
L 448 0 
L 448 3366 
L 1402 3366 
L 1402 0 
z
M 1491 4339 
Q 1491 4077 1321 3926 
Q 1152 3776 922 3776 
Q 691 3776 521 3926 
Q 352 4077 352 4339 
Q 352 4602 521 4752 
Q 691 4902 922 4902 
Q 1152 4902 1321 4752 
Q 1491 4602 1491 4339 
z
" transform="scale(0.015625)"/>
       <path id="Ubuntu-Bold-74" d="M 416 4205 
L 1370 4358 
L 1370 3366 
L 2515 3366 
L 2515 2573 
L 1370 2573 
L 1370 1389 
Q 1370 1088 1475 909 
Q 1581 730 1901 730 
Q 2054 730 2217 758 
Q 2381 787 2515 838 
L 2650 96 
Q 2477 26 2265 -25 
Q 2054 -77 1747 -77 
Q 1357 -77 1101 28 
Q 845 134 691 323 
Q 538 512 477 781 
Q 416 1050 416 1376 
L 416 4205 
z
" transform="scale(0.015625)"/>
       <path id="Ubuntu-Bold-79" d="M 3437 3366 
Q 3149 2394 2835 1542 
Q 2522 691 2150 -109 
Q 2016 -397 1881 -598 
Q 1747 -800 1587 -931 
Q 1427 -1062 1225 -1123 
Q 1024 -1184 755 -1184 
Q 531 -1184 342 -1142 
Q 154 -1101 32 -1050 
L 198 -288 
Q 346 -339 461 -358 
Q 576 -378 704 -378 
Q 960 -378 1097 -240 
Q 1235 -102 1331 141 
Q 1005 781 678 1577 
Q 352 2374 64 3366 
L 1075 3366 
Q 1139 3117 1225 2825 
Q 1312 2534 1408 2236 
Q 1504 1939 1603 1657 
Q 1702 1376 1792 1146 
Q 1875 1376 1964 1657 
Q 2054 1939 2140 2236 
Q 2227 2534 2307 2825 
Q 2387 3117 2451 3366 
L 3437 3366 
z
" transform="scale(0.015625)"/>
      </defs>
      <use xlink:href="#Ubuntu-Bold-44"/>
      <use xlink:href="#Ubuntu-Bold-65" x="73.699982"/>
      <use xlink:href="#Ubuntu-Bold-6e" x="132.099976"/>
      <use xlink:href="#Ubuntu-Bold-73" x="190.999969"/>
      <use xlink:href="#Ubuntu-Bold-69" x="239.499954"/>
      <use xlink:href="#Ubuntu-Bold-74" x="268.399948"/>
      <use xlink:href="#Ubuntu-Bold-79" x="313.799942"/>
     </g>
    </g>
   </g>
   <g id="PolyCollection_1">
    <defs>
     <path id="md7f3be421b" d="M 143.931067 -28.888636 
L 143.931067 -28.8875 
L 145.044715 -28.8875 
L 146.158364 -28.8875 
L 147.272013 -28.8875 
L 148.385662 -28.8875 
L 149.49931 -28.8875 
L 150.612959 -28.8875 
L 151.726608 -28.8875 
L 152.840257 -28.8875 
L 153.953905 -28.8875 
L 155.067554 -28.8875 
L 156.181203 -28.8875 
L 157.294852 -28.8875 
L 158.4085 -28.8875 
L 159.522149 -28.8875 
L 160.635798 -28.8875 
L 161.749446 -28.8875 
L 162.863095 -28.8875 
L 163.976744 -28.8875 
L 165.090393 -28.8875 
L 166.204041 -28.8875 
L 167.31769 -28.8875 
L 168.431339 -28.8875 
L 169.544988 -28.8875 
L 170.658636 -28.8875 
L 171.772285 -28.8875 
L 172.885934 -28.8875 
L 173.999583 -28.8875 
L 175.113231 -28.8875 
L 176.22688 -28.8875 
L 177.340529 -28.8875 
L 178.454178 -28.8875 
L 179.567826 -28.8875 
L 180.681475 -28.8875 
L 181.795124 -28.8875 
L 182.908772 -28.8875 
L 184.022421 -28.8875 
L 185.13607 -28.8875 
L 186.249719 -28.8875 
L 187.363367 -28.8875 
L 188.477016 -28.8875 
L 189.590665 -28.8875 
L 190.704314 -28.8875 
L 191.817962 -28.8875 
L 192.931611 -28.8875 
L 194.04526 -28.8875 
L 195.158909 -28.8875 
L 196.272557 -28.8875 
L 197.386206 -28.8875 
L 198.499855 -28.8875 
L 199.613504 -28.8875 
L 200.727152 -28.8875 
L 201.840801 -28.8875 
L 202.95445 -28.8875 
L 204.068098 -28.8875 
L 205.181747 -28.8875 
L 206.295396 -28.8875 
L 207.409045 -28.8875 
L 208.522693 -28.8875 
L 209.636342 -28.8875 
L 210.749991 -28.8875 
L 211.86364 -28.8875 
L 212.977288 -28.8875 
L 214.090937 -28.8875 
L 215.204586 -28.8875 
L 216.318235 -28.8875 
L 217.431883 -28.8875 
L 218.545532 -28.8875 
L 219.659181 -28.8875 
L 220.77283 -28.8875 
L 221.886478 -28.8875 
L 223.000127 -28.8875 
L 224.113776 -28.8875 
L 225.227424 -28.8875 
L 226.341073 -28.8875 
L 227.454722 -28.8875 
L 228.568371 -28.8875 
L 229.682019 -28.8875 
L 230.795668 -28.8875 
L 231.909317 -28.8875 
L 233.022966 -28.8875 
L 234.136614 -28.8875 
L 235.250263 -28.8875 
L 236.363912 -28.8875 
L 237.477561 -28.8875 
L 238.591209 -28.8875 
L 239.704858 -28.8875 
L 240.818507 -28.8875 
L 241.932156 -28.8875 
L 243.045804 -28.8875 
L 244.159453 -28.8875 
L 245.273102 -28.8875 
L 246.38675 -28.8875 
L 247.500399 -28.8875 
L 248.614048 -28.8875 
L 249.727697 -28.8875 
L 250.841345 -28.8875 
L 251.954994 -28.8875 
L 253.068643 -28.8875 
L 254.182292 -28.8875 
L 255.29594 -28.8875 
L 256.409589 -28.8875 
L 257.523238 -28.8875 
L 258.636887 -28.8875 
L 259.750535 -28.8875 
L 260.864184 -28.8875 
L 261.977833 -28.8875 
L 263.091482 -28.8875 
L 264.20513 -28.8875 
L 265.318779 -28.8875 
L 266.432428 -28.8875 
L 267.546076 -28.8875 
L 268.659725 -28.8875 
L 269.773374 -28.8875 
L 270.887023 -28.8875 
L 272.000671 -28.8875 
L 273.11432 -28.8875 
L 274.227969 -28.8875 
L 275.341618 -28.8875 
L 276.455266 -28.8875 
L 277.568915 -28.8875 
L 278.682564 -28.8875 
L 279.796213 -28.8875 
L 280.909861 -28.8875 
L 282.02351 -28.8875 
L 283.137159 -28.8875 
L 284.250808 -28.8875 
L 285.364456 -28.8875 
L 286.478105 -28.8875 
L 287.591754 -28.8875 
L 288.705402 -28.8875 
L 289.819051 -28.8875 
L 290.9327 -28.8875 
L 292.046349 -28.8875 
L 293.159997 -28.8875 
L 294.273646 -28.8875 
L 295.387295 -28.8875 
L 296.500944 -28.8875 
L 297.614592 -28.8875 
L 298.728241 -28.8875 
L 299.84189 -28.8875 
L 300.955539 -28.8875 
L 302.069187 -28.8875 
L 303.182836 -28.8875 
L 304.296485 -28.8875 
L 305.410134 -28.8875 
L 306.523782 -28.8875 
L 307.637431 -28.8875 
L 308.75108 -28.8875 
L 309.864728 -28.8875 
L 310.978377 -28.8875 
L 312.092026 -28.8875 
L 313.205675 -28.8875 
L 314.319323 -28.8875 
L 315.432972 -28.8875 
L 316.546621 -28.8875 
L 317.66027 -28.8875 
L 318.773918 -28.8875 
L 319.887567 -28.8875 
L 321.001216 -28.8875 
L 322.114865 -28.8875 
L 323.228513 -28.8875 
L 324.342162 -28.8875 
L 325.455811 -28.8875 
L 326.569459 -28.8875 
L 327.683108 -28.8875 
L 328.796757 -28.8875 
L 329.910406 -28.8875 
L 331.024054 -28.8875 
L 332.137703 -28.8875 
L 333.251352 -28.8875 
L 334.365001 -28.8875 
L 335.478649 -28.8875 
L 336.592298 -28.8875 
L 337.705947 -28.8875 
L 338.819596 -28.8875 
L 339.933244 -28.8875 
L 341.046893 -28.8875 
L 342.160542 -28.8875 
L 343.274191 -28.8875 
L 344.387839 -28.8875 
L 345.501488 -28.8875 
L 346.615137 -28.8875 
L 347.728785 -28.8875 
L 348.842434 -28.8875 
L 349.956083 -28.8875 
L 351.069732 -28.8875 
L 352.18338 -28.8875 
L 353.297029 -28.8875 
L 354.410678 -28.8875 
L 355.524327 -28.8875 
L 356.637975 -28.8875 
L 357.751624 -28.8875 
L 358.865273 -28.8875 
L 359.978922 -28.8875 
L 361.09257 -28.8875 
L 362.206219 -28.8875 
L 363.319868 -28.8875 
L 364.433517 -28.8875 
L 365.547165 -28.8875 
L 365.547165 -28.888948 
L 365.547165 -28.888948 
L 364.433517 -28.890358 
L 363.319868 -28.892883 
L 362.206219 -28.897181 
L 361.09257 -28.904138 
L 359.978922 -28.914853 
L 358.865273 -28.930561 
L 357.751624 -28.952496 
L 356.637975 -28.981699 
L 355.524327 -29.018817 
L 354.410678 -29.063918 
L 353.297029 -29.116389 
L 352.18338 -29.174929 
L 351.069732 -29.237621 
L 349.956083 -29.302072 
L 348.842434 -29.365565 
L 347.728785 -29.425245 
L 346.615137 -29.478359 
L 345.501488 -29.52262 
L 344.387839 -29.55671 
L 343.274191 -29.580879 
L 342.160542 -29.597477 
L 341.046893 -29.611215 
L 339.933244 -29.628945 
L 338.819596 -29.658893 
L 337.705947 -29.709484 
L 336.592298 -29.788038 
L 335.478649 -29.899766 
L 334.365001 -30.047364 
L 333.251352 -30.231343 
L 332.137703 -30.450933 
L 331.024054 -30.705184 
L 329.910406 -30.993808 
L 328.796757 -31.317465 
L 327.683108 -31.677393 
L 326.569459 -32.074607 
L 325.455811 -32.509039 
L 324.342162 -32.979002 
L 323.228513 -33.481209 
L 322.114865 -34.011354 
L 321.001216 -34.565079 
L 319.887567 -35.139008 
L 318.773918 -35.731561 
L 317.66027 -36.343329 
L 316.546621 -36.976946 
L 315.432972 -37.636615 
L 314.319323 -38.327588 
L 313.205675 -39.055984 
L 312.092026 -39.829165 
L 310.978377 -40.656615 
L 309.864728 -41.550829 
L 308.75108 -42.527509 
L 307.637431 -43.604381 
L 306.523782 -44.798413 
L 305.410134 -46.121903 
L 304.296485 -47.578552 
L 303.182836 -49.160969 
L 302.069187 -50.850772 
L 300.955539 -52.621645 
L 299.84189 -54.44468 
L 298.728241 -56.294521 
L 297.614592 -58.15453 
L 296.500944 -60.019675 
L 295.387295 -61.896594 
L 294.273646 -63.801187 
L 293.159997 -65.754488 
L 292.046349 -67.777656 
L 290.9327 -69.886747 
L 289.819051 -72.08787 
L 288.705402 -74.373441 
L 287.591754 -76.720442 
L 286.478105 -79.091429 
L 285.364456 -81.43852 
L 284.250808 -83.709754 
L 283.137159 -85.856592 
L 282.02351 -87.841106 
L 280.909861 -89.641799 
L 279.796213 -91.257468 
L 278.682564 -92.708807 
L 277.568915 -94.037293 
L 276.455266 -95.300692 
L 275.341618 -96.564727 
L 274.227969 -97.891375 
L 273.11432 -99.32575 
L 272.000671 -100.884753 
L 270.887023 -102.550922 
L 269.773374 -104.273812 
L 268.659725 -105.979025 
L 267.546076 -107.582678 
L 266.432428 -109.007421 
L 265.318779 -110.195812 
L 264.20513 -111.117845 
L 263.091482 -111.771355 
L 261.977833 -112.176097 
L 260.864184 -112.364007 
L 259.750535 -112.368915 
L 258.636887 -112.218723 
L 257.523238 -111.931868 
L 256.409589 -111.518257 
L 255.29594 -110.983297 
L 254.182292 -110.332794 
L 253.068643 -109.576465 
L 251.954994 -108.728642 
L 250.841345 -107.805966 
L 249.727697 -106.823071 
L 248.614048 -105.787953 
L 247.500399 -104.698821 
L 246.38675 -103.543663 
L 245.273102 -102.302789 
L 244.159453 -100.953602 
L 243.045804 -99.476194 
L 241.932156 -97.858243 
L 240.818507 -96.098199 
L 239.704858 -94.206422 
L 238.591209 -92.204573 
L 237.477561 -90.123713 
L 236.363912 -88.001399 
L 235.250263 -85.877772 
L 234.136614 -83.790642 
L 233.022966 -81.769993 
L 231.909317 -79.832977 
L 230.795668 -77.980895 
L 229.682019 -76.199458 
L 228.568371 -74.462757 
L 227.454722 -72.740086 
L 226.341073 -71.003751 
L 225.227424 -69.235659 
L 224.113776 -67.430973 
L 223.000127 -65.598165 
L 221.886478 -63.755933 
L 220.77283 -61.928182 
L 219.659181 -60.138572 
L 218.545532 -58.405933 
L 217.431883 -56.74145 
L 216.318235 -55.147989 
L 215.204586 -53.62136 
L 214.090937 -52.152846 
L 212.977288 -50.732036 
L 211.86364 -49.349089 
L 210.749991 -47.995994 
L 209.636342 -46.667001 
L 208.522693 -45.358821 
L 207.409045 -44.071153 
L 206.295396 -42.807656 
L 205.181747 -41.576884 
L 204.068098 -40.392359 
L 202.95445 -39.271165 
L 201.840801 -38.231046 
L 200.727152 -37.286727 
L 199.613504 -36.446612 
L 198.499855 -35.71094 
L 197.386206 -35.071957 
L 196.272557 -34.515957 
L 195.158909 -34.026467 
L 194.04526 -33.587563 
L 192.931611 -33.186402 
L 191.817962 -32.814416 
L 190.704314 -32.467087 
L 189.590665 -32.14269 
L 188.477016 -31.84063 
L 187.363367 -31.560066 
L 186.249719 -31.299252 
L 185.13607 -31.055703 
L 184.022421 -30.826943 
L 182.908772 -30.611405 
L 181.795124 -30.409029 
L 180.681475 -30.22131 
L 179.567826 -30.05076 
L 178.454178 -29.89997 
L 177.340529 -29.770609 
L 176.22688 -29.662663 
L 175.113231 -29.574148 
L 173.999583 -29.501386 
L 172.885934 -29.439749 
L 171.772285 -29.384643 
L 170.658636 -29.332464 
L 169.544988 -29.281244 
L 168.431339 -29.230826 
L 167.31769 -29.182544 
L 166.204041 -29.13853 
L 165.090393 -29.100868 
L 163.976744 -29.070864 
L 162.863095 -29.048607 
L 161.749446 -29.032947 
L 160.635798 -29.021827 
L 159.522149 -29.012845 
L 158.4085 -29.003857 
L 157.294852 -28.993429 
L 156.181203 -28.98104 
L 155.067554 -28.967014 
L 153.953905 -28.952248 
L 152.840257 -28.937851 
L 151.726608 -28.924823 
L 150.612959 -28.913842 
L 149.49931 -28.905191 
L 148.385662 -28.8988 
L 147.272013 -28.894364 
L 146.158364 -28.891464 
L 145.044715 -28.889676 
L 143.931067 -28.888636 
z
" style="stroke: #5b5b5b; stroke-width: 0.01"/>
    </defs>
    <g clip-path="url(#p23f9ea4fc8)">
     <use xlink:href="#md7f3be421b" x="0" y="165.055" style="fill: #5b5b5b; fill-opacity: 0.25; stroke: #5b5b5b; stroke-width: 0.01"/>
    </g>
   </g>
   <g id="line2d_15">
    <path d="M 154.013972 136.165736 
L 163.068889 136.071118 
L 170.614654 135.767972 
L 175.142112 135.442396 
L 181.178724 134.769799 
L 185.706182 134.074984 
L 193.251947 132.68091 
L 197.779405 132.200131 
L 200.797711 131.872017 
L 203.816017 131.268319 
L 206.834322 130.315368 
L 211.361781 128.724769 
L 218.907545 126.469702 
L 220.416698 125.705251 
L 221.925851 124.74598 
L 223.435004 123.585968 
L 224.944157 122.216485 
L 226.45331 120.61616 
L 227.962462 118.75585 
L 229.471615 116.615917 
L 230.980768 114.20423 
L 233.999074 108.746972 
L 237.01738 102.776747 
L 240.035685 96.272335 
L 243.053991 88.866515 
L 250.599755 68.855863 
L 252.108908 65.504936 
L 253.618061 62.482883 
L 256.636367 57.186206 
L 259.654672 52.542406 
L 261.163825 50.459217 
L 262.672978 48.593595 
L 264.182131 47.008786 
L 265.691284 45.773584 
L 267.200437 44.953854 
L 268.70959 44.59631 
L 270.218743 44.704506 
L 271.727895 45.217349 
L 274.746201 46.899693 
L 276.255354 47.740683 
L 280.782813 49.750409 
L 282.291965 50.777875 
L 283.801118 52.415348 
L 285.310271 54.870272 
L 286.819424 58.231111 
L 288.328577 62.45542 
L 289.83773 67.394616 
L 292.856035 78.539894 
L 295.874341 89.769521 
L 297.383494 94.837984 
L 298.892647 99.284939 
L 300.4018 102.992003 
L 301.910953 105.932334 
L 303.420105 108.178323 
L 304.929258 109.883055 
L 306.438411 111.241008 
L 310.96587 114.935629 
L 313.984176 117.91772 
L 320.020787 124.407721 
L 323.039093 127.093178 
L 324.548246 128.195335 
L 326.057398 129.128178 
L 327.566551 129.892254 
L 329.075704 130.49163 
L 330.584857 130.932603 
L 332.09401 131.223368 
L 333.603163 131.37586 
L 336.621468 131.356861 
L 341.148927 131.161592 
L 342.65808 131.260377 
L 344.167233 131.504725 
L 345.676386 131.899748 
L 348.694691 133.019761 
L 351.712997 134.186769 
L 353.22215 134.644966 
L 356.240456 135.21127 
L 359.258761 135.436641 
L 372.841137 135.887513 
L 378.877749 135.879176 
L 386.423513 135.859561 
L 403.024194 136.03661 
L 436.225557 136.08389 
L 445.280474 136.118067 
L 454.335392 136.16638 
L 454.335392 136.16638 
" clip-path="url(#p23f9ea4fc8)" style="fill: none; stroke: #5b5b5b; stroke-width: 1.2; stroke-linecap: square"/>
   </g>
   <g id="patch_3">
    <path d="M 61.890938 136.1675 
L 61.890938 25.2875 
" style="fill: none; stroke: #cccccc; stroke-width: 0.75; stroke-linejoin: miter; stroke-linecap: square"/>
   </g>
   <g id="patch_4">
    <path d="M 66.890937 141.1675 
L 513.290937 141.1675 
" style="fill: none; stroke: #cccccc; stroke-width: 0.75; stroke-linejoin: miter; stroke-linecap: square"/>
   </g>
   <g id="legend_1">
    <g id="line2d_16">
     <path d="M 74.090938 13.8075 
L 82.090938 13.8075 
L 90.090938 13.8075 
" style="fill: none; stroke: #5b5b5b; stroke-width: 1.2; stroke-linecap: square"/>
    </g>
    <g id="text_16">
     <!-- Residuals -->
     <g style="fill: #4b4b4b" transform="translate(96.490938 16.6075) scale(0.08 -0.08)">
      <defs>
       <path id="Ubuntu-52" d="M 2720 1856 
Q 2822 1728 2979 1520 
Q 3136 1312 3302 1059 
Q 3469 806 3632 531 
Q 3795 256 3910 0 
L 3232 0 
Q 3104 243 2953 492 
Q 2803 742 2649 969 
Q 2496 1197 2345 1395 
Q 2195 1594 2074 1741 
Q 1990 1734 1904 1734 
Q 1818 1734 1728 1734 
L 1171 1734 
L 1171 0 
L 550 0 
L 550 4371 
Q 813 4435 1136 4457 
Q 1459 4480 1728 4480 
Q 2662 4480 3152 4128 
Q 3642 3776 3642 3078 
Q 3642 2637 3408 2323 
Q 3174 2010 2720 1856 
z
M 1779 3936 
Q 1382 3936 1171 3917 
L 1171 2246 
L 1613 2246 
Q 1933 2246 2189 2278 
Q 2445 2310 2621 2400 
Q 2797 2490 2893 2653 
Q 2989 2816 2989 3085 
Q 2989 3334 2893 3500 
Q 2797 3667 2633 3763 
Q 2470 3859 2249 3897 
Q 2029 3936 1779 3936 
z
" transform="scale(0.015625)"/>
       <path id="Ubuntu-65" d="M 326 1658 
Q 326 2099 454 2428 
Q 582 2758 793 2976 
Q 1005 3194 1280 3302 
Q 1555 3411 1843 3411 
Q 2515 3411 2873 2992 
Q 3232 2573 3232 1715 
Q 3232 1677 3232 1616 
Q 3232 1555 3226 1504 
L 947 1504 
Q 986 986 1248 717 
Q 1510 448 2067 448 
Q 2381 448 2595 502 
Q 2810 557 2918 608 
L 3002 109 
Q 2893 51 2621 -13 
Q 2349 -77 2003 -77 
Q 1568 -77 1251 54 
Q 934 186 729 416 
Q 525 646 425 963 
Q 326 1280 326 1658 
z
M 2611 1984 
Q 2618 2387 2410 2646 
Q 2202 2906 1837 2906 
Q 1632 2906 1475 2826 
Q 1318 2746 1209 2618 
Q 1101 2490 1040 2323 
Q 979 2157 960 1984 
L 2611 1984 
z
" transform="scale(0.015625)"/>
       <path id="Ubuntu-73" d="M 1286 429 
Q 1651 429 1827 525 
Q 2003 621 2003 832 
Q 2003 1050 1830 1178 
Q 1658 1306 1261 1466 
Q 1069 1542 893 1622 
Q 717 1702 589 1811 
Q 461 1920 384 2073 
Q 307 2227 307 2451 
Q 307 2893 633 3152 
Q 960 3411 1523 3411 
Q 1664 3411 1805 3395 
Q 1946 3379 2067 3356 
Q 2189 3334 2281 3308 
Q 2374 3283 2426 3264 
L 2317 2752 
Q 2221 2803 2016 2857 
Q 1811 2912 1523 2912 
Q 1274 2912 1088 2813 
Q 902 2714 902 2502 
Q 902 2394 944 2310 
Q 986 2227 1072 2160 
Q 1158 2093 1286 2035 
Q 1414 1978 1594 1914 
Q 1830 1824 2016 1737 
Q 2202 1651 2333 1536 
Q 2464 1421 2534 1257 
Q 2605 1094 2605 858 
Q 2605 397 2262 160 
Q 1920 -77 1286 -77 
Q 845 -77 595 -3 
Q 346 70 256 109 
L 365 621 
Q 467 582 691 505 
Q 915 429 1286 429 
z
" transform="scale(0.015625)"/>
       <path id="Ubuntu-69" d="M 1107 0 
L 512 0 
L 512 3328 
L 1107 3328 
L 1107 0 
z
M 806 3930 
Q 646 3930 534 4035 
Q 422 4141 422 4320 
Q 422 4499 534 4604 
Q 646 4710 806 4710 
Q 966 4710 1078 4604 
Q 1190 4499 1190 4320 
Q 1190 4141 1078 4035 
Q 966 3930 806 3930 
z
" transform="scale(0.015625)"/>
       <path id="Ubuntu-64" d="M 2662 2624 
Q 2554 2714 2349 2797 
Q 2144 2880 1901 2880 
Q 1645 2880 1462 2787 
Q 1280 2694 1165 2531 
Q 1050 2368 998 2144 
Q 947 1920 947 1664 
Q 947 1082 1235 765 
Q 1523 448 2003 448 
Q 2246 448 2409 470 
Q 2573 493 2662 518 
L 2662 2624 
z
M 2662 4864 
L 3258 4966 
L 3258 96 
Q 3053 38 2733 -19 
Q 2413 -77 1997 -77 
Q 1613 -77 1305 44 
Q 998 166 780 390 
Q 563 614 444 937 
Q 326 1261 326 1664 
Q 326 2048 425 2368 
Q 525 2688 717 2918 
Q 909 3149 1187 3277 
Q 1466 3405 1824 3405 
Q 2112 3405 2333 3328 
Q 2554 3251 2662 3181 
L 2662 4864 
z
" transform="scale(0.015625)"/>
       <path id="Ubuntu-75" d="M 3162 96 
Q 2957 45 2621 -12 
Q 2285 -70 1843 -70 
Q 1459 -70 1196 42 
Q 934 154 774 358 
Q 614 563 544 841 
Q 474 1120 474 1459 
L 474 3328 
L 1069 3328 
L 1069 1587 
Q 1069 979 1261 716 
Q 1453 454 1907 454 
Q 2003 454 2105 460 
Q 2208 467 2297 476 
Q 2387 486 2460 496 
Q 2534 506 2566 518 
L 2566 3328 
L 3162 3328 
L 3162 96 
z
" transform="scale(0.015625)"/>
       <path id="Ubuntu-61" d="M 1638 429 
Q 1850 429 2013 438 
Q 2176 448 2285 474 
L 2285 1466 
Q 2221 1498 2077 1520 
Q 1933 1542 1728 1542 
Q 1594 1542 1443 1523 
Q 1293 1504 1168 1443 
Q 1043 1382 960 1276 
Q 877 1171 877 998 
Q 877 678 1081 553 
Q 1286 429 1638 429 
z
M 1587 3411 
Q 1946 3411 2192 3318 
Q 2438 3226 2588 3056 
Q 2739 2886 2803 2652 
Q 2867 2419 2867 2138 
L 2867 58 
Q 2790 45 2652 22 
Q 2515 0 2342 -19 
Q 2170 -38 1968 -54 
Q 1766 -70 1568 -70 
Q 1286 -70 1049 -12 
Q 813 45 640 169 
Q 467 294 371 499 
Q 275 704 275 992 
Q 275 1267 387 1465 
Q 499 1664 691 1785 
Q 883 1907 1139 1964 
Q 1395 2022 1677 2022 
Q 1766 2022 1862 2012 
Q 1958 2003 2044 1987 
Q 2131 1971 2195 1958 
Q 2259 1946 2285 1939 
L 2285 2106 
Q 2285 2253 2253 2397 
Q 2221 2541 2137 2653 
Q 2054 2765 1910 2832 
Q 1766 2899 1536 2899 
Q 1242 2899 1021 2857 
Q 800 2816 691 2771 
L 621 3264 
Q 736 3315 1005 3363 
Q 1274 3411 1587 3411 
z
" transform="scale(0.015625)"/>
       <path id="Ubuntu-6c" d="M 1510 -64 
Q 960 -51 729 173 
Q 499 397 499 870 
L 499 4864 
L 1094 4966 
L 1094 966 
Q 1094 819 1120 723 
Q 1146 627 1203 569 
Q 1261 512 1357 483 
Q 1453 454 1594 435 
L 1510 -64 
z
" transform="scale(0.015625)"/>
      </defs>
      <use xlink:href="#Ubuntu-52"/>
      <use xlink:href="#Ubuntu-65" x="62.899994"/>
      <use xlink:href="#Ubuntu-73" x="118.799988"/>
      <use xlink:href="#Ubuntu-69" x="163.399979"/>
      <use xlink:href="#Ubuntu-64" x="188.699966"/>
      <use xlink:href="#Ubuntu-75" x="247.59996"/>
      <use xlink:href="#Ubuntu-61" x="304.999954"/>
      <use xlink:href="#Ubuntu-6c" x="357.199951"/>
      <use xlink:href="#Ubuntu-73" x="384.499939"/>
     </g>
    </g>
    <g id="patch_5">
     <path d="M 146.819687 16.6075 
L 162.819687 16.6075 
L 162.819687 11.0075 
L 146.819687 11.0075 
z
" style="fill: #5b5b5b; fill-opacity: 0.25; stroke: #5b5b5b; stroke-width: 0.01; stroke-linejoin: miter"/>
    </g>
    <g id="text_17">
     <!-- Normal -->
     <g style="fill: #4b4b4b" transform="translate(169.219687 16.6075) scale(0.08 -0.08)">
      <defs>
       <path id="Ubuntu-4e" d="M 3590 0 
Q 3450 237 3267 531 
Q 3085 826 2873 1142 
Q 2662 1459 2435 1785 
Q 2208 2112 1984 2416 
Q 1760 2720 1549 2989 
Q 1338 3258 1158 3462 
L 1158 0 
L 550 0 
L 550 4435 
L 1043 4435 
Q 1344 4115 1686 3689 
Q 2029 3264 2365 2813 
Q 2701 2362 2998 1926 
Q 3296 1491 3501 1152 
L 3501 4435 
L 4109 4435 
L 4109 0 
L 3590 0 
z
" transform="scale(0.015625)"/>
       <path id="Ubuntu-6f" d="M 3450 1664 
Q 3450 1267 3334 947 
Q 3219 627 3011 396 
Q 2803 166 2515 41 
Q 2227 -83 1888 -83 
Q 1549 -83 1261 41 
Q 973 166 765 396 
Q 557 627 441 947 
Q 326 1267 326 1664 
Q 326 2054 441 2377 
Q 557 2701 765 2931 
Q 973 3162 1261 3286 
Q 1549 3411 1888 3411 
Q 2227 3411 2515 3286 
Q 2803 3162 3011 2931 
Q 3219 2701 3334 2377 
Q 3450 2054 3450 1664 
z
M 2829 1664 
Q 2829 2227 2576 2556 
Q 2323 2886 1888 2886 
Q 1453 2886 1200 2556 
Q 947 2227 947 1664 
Q 947 1101 1200 771 
Q 1453 442 1888 442 
Q 2323 442 2576 771 
Q 2829 1101 2829 1664 
z
" transform="scale(0.015625)"/>
       <path id="Ubuntu-72" d="M 1741 3398 
Q 1818 3398 1917 3388 
Q 2016 3379 2112 3363 
Q 2208 3347 2288 3331 
Q 2368 3315 2406 3302 
L 2304 2784 
Q 2234 2810 2070 2845 
Q 1907 2880 1651 2880 
Q 1485 2880 1321 2845 
Q 1158 2810 1107 2797 
L 1107 0 
L 512 0 
L 512 3187 
Q 723 3264 1036 3331 
Q 1350 3398 1741 3398 
z
" transform="scale(0.015625)"/>
       <path id="Ubuntu-6d" d="M 512 3232 
Q 717 3283 1053 3340 
Q 1389 3398 1830 3398 
Q 2150 3398 2368 3312 
Q 2586 3226 2733 3059 
Q 2778 3091 2874 3148 
Q 2970 3206 3110 3260 
Q 3251 3315 3424 3356 
Q 3597 3398 3795 3398 
Q 4179 3398 4422 3286 
Q 4666 3174 4803 2969 
Q 4941 2765 4989 2483 
Q 5037 2202 5037 1869 
L 5037 0 
L 4442 0 
L 4442 1741 
Q 4442 2035 4413 2246 
Q 4384 2458 4304 2598 
Q 4224 2739 4086 2806 
Q 3949 2874 3731 2874 
Q 3430 2874 3235 2794 
Q 3040 2714 2970 2650 
Q 3021 2483 3046 2284 
Q 3072 2086 3072 1869 
L 3072 0 
L 2477 0 
L 2477 1741 
Q 2477 2035 2445 2246 
Q 2413 2458 2333 2598 
Q 2253 2739 2115 2806 
Q 1978 2874 1766 2874 
Q 1677 2874 1574 2867 
Q 1472 2861 1379 2851 
Q 1286 2842 1209 2829 
Q 1133 2816 1107 2810 
L 1107 0 
L 512 0 
L 512 3232 
z
" transform="scale(0.015625)"/>
      </defs>
      <use xlink:href="#Ubuntu-4e"/>
      <use xlink:href="#Ubuntu-6f" x="72.799988"/>
      <use xlink:href="#Ubuntu-72" x="131.799973"/>
      <use xlink:href="#Ubuntu-6d" x="170.399963"/>
      <use xlink:href="#Ubuntu-61" x="256.499954"/>
      <use xlink:href="#Ubuntu-6c" x="308.699951"/>
     </g>
    </g>
   </g>
  </g>
 </g>
 <defs>
  <clipPath id="p23f9ea4fc8">
   <rect x="66.890938" y="25.2875" width="446.4" height="110.88"/>
  </clipPath>
 </defs>
</svg>
