<?xml version="1.0" encoding="utf-8" standalone="no"?>
<!DOCTYPE svg PUBLIC "-//W3C//DTD SVG 1.1//EN"
  "http://www.w3.org/Graphics/SVG/1.1/DTD/svg11.dtd">
<svg xmlns:xlink="http://www.w3.org/1999/xlink" width="516.257528pt" height="166.07125pt" viewBox="0 0 516.257528 166.07125" xmlns="http://www.w3.org/2000/svg" version="1.1">
 <metadata>
  <rdf:RDF xmlns:dc="http://purl.org/dc/elements/1.1/" xmlns:cc="http://creativecommons.org/ns#" xmlns:rdf="http://www.w3.org/1999/02/22-rdf-syntax-ns#">
   <cc:Work>
    <dc:type rdf:resource="http://purl.org/dc/dcmitype/StillImage"/>
    <dc:date>2024-05-17T19:30:48.203588</dc:date>
    <dc:format>image/svg+xml</dc:format>
    <dc:creator>
     <cc:Agent>
      <dc:title>Matplotlib v3.8.3, https://matplotlib.org/</dc:title>
     </cc:Agent>
    </dc:creator>
   </cc:Work>
  </rdf:RDF>
 </metadata>
 <defs>
  <style type="text/css">*{stroke-linejoin: round; stroke-linecap: butt}</style>
 </defs>
 <g id="figure_1">
  <g id="patch_1">
   <path d="M 0 166.07125 
L 516.257528 166.07125 
L 516.257528 0 
L 0 0 
L 0 166.07125 
z
" style="fill: none"/>
  </g>
  <g id="axes_1">
   <g id="patch_2">
    <path d="M 62.423438 121.18375 
L 508.823437 121.18375 
L 508.823437 10.30375 
L 62.423438 10.30375 
L 62.423438 121.18375 
z
" style="fill: none"/>
   </g>
   <g id="axes_2">
    <g id="patch_3">
     <path d="M 62.423438 121.18375 
L 508.823437 121.18375 
L 508.823437 121.18375 
L 62.423438 121.18375 
L 62.423438 121.18375 
z
" style="fill: none"/>
    </g>
    <g id="matplotlib.axis_1">
     <g id="xtick_1">
      <g id="line2d_1">
       <path d="M 66.799908 121.18375 
L 66.799908 121.18375 
" clip-path="url(#p87f3a5e4aa)" style="fill: none; stroke-dasharray: 0.5,0.825; stroke-dashoffset: 0; stroke: #d9d9d9; stroke-width: 0.5"/>
      </g>
      <g id="text_1">
       <!-- August -->
       <g style="fill: #808080" transform="translate(53.911783 157.3675) scale(0.08 -0.08)">
        <defs>
         <path id="Ubuntu-41" d="M 3514 0 
Q 3405 288 3309 566 
Q 3213 845 3110 1133 
L 1101 1133 
L 698 0 
L 51 0 
Q 307 704 531 1302 
Q 755 1901 969 2438 
Q 1184 2976 1395 3465 
Q 1606 3955 1837 4435 
L 2406 4435 
Q 2637 3955 2848 3465 
Q 3059 2976 3273 2438 
Q 3488 1901 3712 1302 
Q 3936 704 4192 0 
L 3514 0 
z
M 2931 1645 
Q 2726 2202 2524 2723 
Q 2323 3245 2106 3725 
Q 1882 3245 1680 2723 
Q 1478 2202 1280 1645 
L 2931 1645 
z
" transform="scale(0.015625)"/>
         <path id="Ubuntu-75" d="M 3162 96 
Q 2957 45 2621 -12 
Q 2285 -70 1843 -70 
Q 1459 -70 1196 42 
Q 934 154 774 358 
Q 614 563 544 841 
Q 474 1120 474 1459 
L 474 3328 
L 1069 3328 
L 1069 1587 
Q 1069 979 1261 716 
Q 1453 454 1907 454 
Q 2003 454 2105 460 
Q 2208 467 2297 476 
Q 2387 486 2460 496 
Q 2534 506 2566 518 
L 2566 3328 
L 3162 3328 
L 3162 96 
z
" transform="scale(0.015625)"/>
         <path id="Ubuntu-67" d="M 2598 333 
Q 2522 282 2301 202 
Q 2080 122 1786 122 
Q 1485 122 1219 218 
Q 954 314 755 515 
Q 557 717 441 1017 
Q 326 1318 326 1734 
Q 326 2099 435 2403 
Q 544 2707 752 2928 
Q 960 3149 1261 3273 
Q 1562 3398 1939 3398 
Q 2355 3398 2665 3337 
Q 2976 3277 3187 3226 
L 3187 256 
Q 3187 -512 2790 -857 
Q 2394 -1203 1587 -1203 
Q 1274 -1203 995 -1152 
Q 717 -1101 512 -1030 
L 621 -512 
Q 800 -582 1059 -636 
Q 1318 -691 1600 -691 
Q 2131 -691 2364 -480 
Q 2598 -269 2598 192 
L 2598 333 
z
M 2592 2803 
Q 2502 2829 2352 2851 
Q 2202 2874 1946 2874 
Q 1466 2874 1206 2560 
Q 947 2246 947 1728 
Q 947 1440 1020 1235 
Q 1094 1030 1219 896 
Q 1344 762 1507 698 
Q 1670 634 1843 634 
Q 2080 634 2278 701 
Q 2477 768 2592 858 
L 2592 2803 
z
" transform="scale(0.015625)"/>
         <path id="Ubuntu-73" d="M 1286 429 
Q 1651 429 1827 525 
Q 2003 621 2003 832 
Q 2003 1050 1830 1178 
Q 1658 1306 1261 1466 
Q 1069 1542 893 1622 
Q 717 1702 589 1811 
Q 461 1920 384 2073 
Q 307 2227 307 2451 
Q 307 2893 633 3152 
Q 960 3411 1523 3411 
Q 1664 3411 1805 3395 
Q 1946 3379 2067 3356 
Q 2189 3334 2281 3308 
Q 2374 3283 2426 3264 
L 2317 2752 
Q 2221 2803 2016 2857 
Q 1811 2912 1523 2912 
Q 1274 2912 1088 2813 
Q 902 2714 902 2502 
Q 902 2394 944 2310 
Q 986 2227 1072 2160 
Q 1158 2093 1286 2035 
Q 1414 1978 1594 1914 
Q 1830 1824 2016 1737 
Q 2202 1651 2333 1536 
Q 2464 1421 2534 1257 
Q 2605 1094 2605 858 
Q 2605 397 2262 160 
Q 1920 -77 1286 -77 
Q 845 -77 595 -3 
Q 346 70 256 109 
L 365 621 
Q 467 582 691 505 
Q 915 429 1286 429 
z
" transform="scale(0.015625)"/>
         <path id="Ubuntu-74" d="M 1069 3328 
L 2330 3328 
L 2330 2829 
L 1069 2829 
L 1069 1293 
Q 1069 1043 1107 880 
Q 1146 717 1222 624 
Q 1299 531 1414 492 
Q 1530 454 1683 454 
Q 1952 454 2115 515 
Q 2278 576 2342 602 
L 2458 109 
Q 2368 64 2144 -3 
Q 1920 -70 1632 -70 
Q 1293 -70 1072 16 
Q 851 102 716 275 
Q 582 448 528 701 
Q 474 954 474 1286 
L 474 4256 
L 1069 4358 
L 1069 3328 
z
" transform="scale(0.015625)"/>
        </defs>
        <use xlink:href="#Ubuntu-41"/>
        <use xlink:href="#Ubuntu-75" x="64.799988"/>
        <use xlink:href="#Ubuntu-67" x="122.199982"/>
        <use xlink:href="#Ubuntu-75" x="179.999969"/>
        <use xlink:href="#Ubuntu-73" x="237.399963"/>
        <use xlink:href="#Ubuntu-74" x="281.999954"/>
       </g>
      </g>
     </g>
    </g>
    <g id="matplotlib.axis_2"/>
   </g>
   <g id="matplotlib.axis_3">
    <g id="xtick_2">
     <g id="line2d_2">
      <defs>
       <path id="m66e5cb5905" d="M 0 0 
L 0 3 
" style="stroke: #cecece; stroke-width: 0.75"/>
      </defs>
      <g>
       <use xlink:href="#m66e5cb5905" x="66.799908" y="126.18375" style="fill: #cecece; stroke: #cecece; stroke-width: 0.75"/>
      </g>
     </g>
     <g id="text_2">
      <!-- 01 -->
      <g style="fill: #808080" transform="translate(62.287408 141.39125) scale(0.08 -0.08)">
       <defs>
        <path id="Ubuntu-30" d="M 320 2221 
Q 320 3334 713 3936 
Q 1107 4538 1805 4538 
Q 2502 4538 2896 3936 
Q 3290 3334 3290 2221 
Q 3290 1107 2896 505 
Q 2502 -96 1805 -96 
Q 1107 -96 713 505 
Q 320 1107 320 2221 
z
M 2662 2221 
Q 2662 2586 2620 2912 
Q 2579 3238 2480 3481 
Q 2381 3725 2214 3869 
Q 2048 4013 1805 4013 
Q 1562 4013 1395 3869 
Q 1229 3725 1129 3481 
Q 1030 3238 988 2912 
Q 947 2586 947 2221 
Q 947 1856 988 1529 
Q 1030 1203 1129 960 
Q 1229 717 1395 573 
Q 1562 429 1805 429 
Q 2048 429 2214 573 
Q 2381 717 2480 960 
Q 2579 1203 2620 1529 
Q 2662 1856 2662 2221 
z
" transform="scale(0.015625)"/>
        <path id="Ubuntu-31" d="M 595 3520 
Q 960 3661 1305 3881 
Q 1651 4102 1939 4435 
L 2362 4435 
L 2362 0 
L 1766 0 
L 1766 3610 
Q 1690 3539 1578 3462 
Q 1466 3386 1334 3315 
Q 1203 3245 1059 3181 
Q 915 3117 781 3072 
L 595 3520 
z
" transform="scale(0.015625)"/>
       </defs>
       <use xlink:href="#Ubuntu-30"/>
       <use xlink:href="#Ubuntu-31" x="56.399994"/>
      </g>
     </g>
    </g>
    <g id="xtick_3">
     <g id="line2d_3">
      <g>
       <use xlink:href="#m66e5cb5905" x="123.283149" y="126.18375" style="fill: #cecece; stroke: #cecece; stroke-width: 0.75"/>
      </g>
     </g>
     <g id="text_3">
      <!-- 05 -->
      <g style="fill: #808080" transform="translate(118.770649 141.39125) scale(0.08 -0.08)">
       <defs>
        <path id="Ubuntu-35" d="M 1274 2726 
Q 2240 2688 2691 2304 
Q 3142 1920 3142 1261 
Q 3142 966 3043 716 
Q 2944 467 2742 288 
Q 2541 109 2233 6 
Q 1926 -96 1504 -96 
Q 1338 -96 1165 -70 
Q 992 -45 845 -6 
Q 698 32 582 70 
Q 467 109 416 134 
L 531 653 
Q 640 602 886 518 
Q 1133 435 1491 435 
Q 1779 435 1974 499 
Q 2170 563 2291 672 
Q 2413 781 2467 925 
Q 2522 1069 2522 1229 
Q 2522 1472 2438 1661 
Q 2355 1850 2144 1978 
Q 1933 2106 1581 2173 
Q 1229 2240 691 2240 
Q 730 2554 752 2829 
Q 774 3104 793 3366 
Q 813 3629 825 3888 
Q 838 4147 851 4435 
L 2989 4435 
L 2989 3930 
L 1370 3930 
Q 1363 3834 1350 3670 
Q 1338 3507 1325 3331 
Q 1312 3155 1299 2988 
Q 1286 2822 1274 2726 
z
" transform="scale(0.015625)"/>
       </defs>
       <use xlink:href="#Ubuntu-30"/>
       <use xlink:href="#Ubuntu-35" x="56.399994"/>
      </g>
     </g>
    </g>
    <g id="xtick_4">
     <g id="line2d_4">
      <g>
       <use xlink:href="#m66e5cb5905" x="179.766391" y="126.18375" style="fill: #cecece; stroke: #cecece; stroke-width: 0.75"/>
      </g>
     </g>
     <g id="text_4">
      <!-- 09 -->
      <g style="fill: #808080" transform="translate(175.253891 141.39125) scale(0.08 -0.08)">
       <defs>
        <path id="Ubuntu-39" d="M 3206 2662 
Q 3206 1344 2550 669 
Q 1894 -6 602 -13 
L 582 486 
Q 986 486 1309 563 
Q 1632 640 1875 809 
Q 2118 979 2281 1248 
Q 2445 1517 2522 1907 
Q 2355 1830 2144 1782 
Q 1933 1734 1709 1734 
Q 1331 1734 1068 1846 
Q 806 1958 640 2147 
Q 474 2336 400 2582 
Q 326 2829 326 3098 
Q 326 3334 409 3590 
Q 493 3846 662 4057 
Q 832 4269 1094 4403 
Q 1357 4538 1715 4538 
Q 2080 4538 2358 4410 
Q 2637 4282 2825 4038 
Q 3014 3795 3110 3446 
Q 3206 3098 3206 2662 
z
M 1773 2221 
Q 1997 2221 2195 2262 
Q 2394 2304 2579 2387 
Q 2586 2458 2586 2525 
Q 2586 2592 2586 2662 
Q 2586 2938 2547 3190 
Q 2509 3443 2409 3632 
Q 2310 3821 2144 3933 
Q 1978 4045 1722 4045 
Q 1510 4045 1363 3955 
Q 1216 3866 1120 3728 
Q 1024 3590 982 3427 
Q 941 3264 941 3110 
Q 941 2675 1149 2448 
Q 1357 2221 1773 2221 
z
" transform="scale(0.015625)"/>
       </defs>
       <use xlink:href="#Ubuntu-30"/>
       <use xlink:href="#Ubuntu-39" x="56.399994"/>
      </g>
     </g>
    </g>
    <g id="xtick_5">
     <g id="line2d_5">
      <g>
       <use xlink:href="#m66e5cb5905" x="236.249632" y="126.18375" style="fill: #cecece; stroke: #cecece; stroke-width: 0.75"/>
      </g>
     </g>
     <g id="text_5">
      <!-- 13 -->
      <g style="fill: #808080" transform="translate(231.737132 141.39125) scale(0.08 -0.08)">
       <defs>
        <path id="Ubuntu-33" d="M 1446 435 
Q 2016 435 2262 659 
Q 2509 883 2509 1261 
Q 2509 1504 2406 1670 
Q 2304 1837 2137 1936 
Q 1971 2035 1750 2076 
Q 1530 2118 1299 2118 
L 1146 2118 
L 1146 2605 
L 1357 2605 
Q 1517 2605 1686 2637 
Q 1856 2669 1997 2752 
Q 2138 2835 2227 2979 
Q 2317 3123 2317 3341 
Q 2317 3520 2253 3648 
Q 2189 3776 2083 3859 
Q 1978 3942 1840 3977 
Q 1702 4013 1549 4013 
Q 1242 4013 1027 3923 
Q 813 3834 666 3738 
L 435 4192 
Q 512 4243 630 4304 
Q 749 4365 896 4416 
Q 1043 4467 1212 4502 
Q 1382 4538 1568 4538 
Q 1920 4538 2176 4451 
Q 2432 4365 2598 4208 
Q 2765 4051 2848 3836 
Q 2931 3622 2931 3373 
Q 2931 3027 2732 2780 
Q 2534 2534 2253 2406 
Q 2426 2355 2586 2259 
Q 2746 2163 2864 2016 
Q 2982 1869 3056 1677 
Q 3130 1485 3130 1248 
Q 3130 960 3030 713 
Q 2931 467 2723 288 
Q 2515 109 2201 6 
Q 1888 -96 1459 -96 
Q 1293 -96 1117 -70 
Q 941 -45 787 -6 
Q 634 32 518 70 
Q 403 109 352 134 
L 467 653 
Q 576 602 829 518 
Q 1082 435 1446 435 
z
" transform="scale(0.015625)"/>
       </defs>
       <use xlink:href="#Ubuntu-31"/>
       <use xlink:href="#Ubuntu-33" x="56.399994"/>
      </g>
     </g>
    </g>
    <g id="xtick_6">
     <g id="line2d_6">
      <g>
       <use xlink:href="#m66e5cb5905" x="292.732873" y="126.18375" style="fill: #cecece; stroke: #cecece; stroke-width: 0.75"/>
      </g>
     </g>
     <g id="text_6">
      <!-- 17 -->
      <g style="fill: #808080" transform="translate(288.220373 141.39125) scale(0.08 -0.08)">
       <defs>
        <path id="Ubuntu-37" d="M 1043 0 
Q 1082 512 1226 1078 
Q 1370 1645 1581 2179 
Q 1792 2714 2045 3171 
Q 2298 3629 2541 3917 
L 384 3917 
L 384 4435 
L 3206 4435 
L 3206 3942 
Q 2995 3699 2739 3273 
Q 2483 2848 2256 2320 
Q 2029 1792 1865 1193 
Q 1702 595 1664 0 
L 1043 0 
z
" transform="scale(0.015625)"/>
       </defs>
       <use xlink:href="#Ubuntu-31"/>
       <use xlink:href="#Ubuntu-37" x="56.399994"/>
      </g>
     </g>
    </g>
    <g id="xtick_7">
     <g id="line2d_7">
      <g>
       <use xlink:href="#m66e5cb5905" x="349.216115" y="126.18375" style="fill: #cecece; stroke: #cecece; stroke-width: 0.75"/>
      </g>
     </g>
     <g id="text_7">
      <!-- 21 -->
      <g style="fill: #808080" transform="translate(344.703615 141.39125) scale(0.08 -0.08)">
       <defs>
        <path id="Ubuntu-32" d="M 2989 3302 
Q 2989 3072 2896 2857 
Q 2803 2643 2649 2435 
Q 2496 2227 2304 2025 
Q 2112 1824 1920 1632 
Q 1811 1523 1667 1376 
Q 1523 1229 1395 1069 
Q 1267 909 1180 761 
Q 1094 614 1094 506 
L 3136 506 
L 3136 0 
L 448 0 
Q 442 38 442 76 
Q 442 115 442 147 
Q 442 448 541 707 
Q 640 966 800 1196 
Q 960 1427 1158 1632 
Q 1357 1837 1549 2029 
Q 1709 2182 1853 2332 
Q 1997 2483 2109 2633 
Q 2221 2784 2288 2944 
Q 2355 3104 2355 3283 
Q 2355 3475 2294 3609 
Q 2234 3744 2131 3833 
Q 2029 3923 1891 3964 
Q 1754 4006 1600 4006 
Q 1414 4006 1260 3955 
Q 1107 3904 985 3837 
Q 864 3770 781 3696 
Q 698 3622 653 3584 
L 358 4006 
Q 416 4070 531 4163 
Q 646 4256 806 4339 
Q 966 4422 1164 4480 
Q 1363 4538 1594 4538 
Q 2291 4538 2640 4214 
Q 2989 3891 2989 3302 
z
" transform="scale(0.015625)"/>
       </defs>
       <use xlink:href="#Ubuntu-32"/>
       <use xlink:href="#Ubuntu-31" x="56.399994"/>
      </g>
     </g>
    </g>
    <g id="xtick_8">
     <g id="line2d_8">
      <g>
       <use xlink:href="#m66e5cb5905" x="405.699356" y="126.18375" style="fill: #cecece; stroke: #cecece; stroke-width: 0.75"/>
      </g>
     </g>
     <g id="text_8">
      <!-- 25 -->
      <g style="fill: #808080" transform="translate(401.186856 141.39125) scale(0.08 -0.08)">
       <use xlink:href="#Ubuntu-32"/>
       <use xlink:href="#Ubuntu-35" x="56.399994"/>
      </g>
     </g>
    </g>
    <g id="xtick_9">
     <g id="line2d_9">
      <g>
       <use xlink:href="#m66e5cb5905" x="462.182597" y="126.18375" style="fill: #cecece; stroke: #cecece; stroke-width: 0.75"/>
      </g>
     </g>
     <g id="text_9">
      <!-- 29 -->
      <g style="fill: #808080" transform="translate(457.670097 141.39125) scale(0.08 -0.08)">
       <use xlink:href="#Ubuntu-32"/>
       <use xlink:href="#Ubuntu-39" x="56.399994"/>
      </g>
     </g>
    </g>
    <g id="xtick_10">
     <g id="line2d_10">
      <g>
       <use xlink:href="#m66e5cb5905" x="504.545028" y="126.18375" style="fill: #cecece; stroke: #cecece; stroke-width: 0.75"/>
      </g>
     </g>
     <g id="text_10">
      <!-- 31 -->
      <g style="fill: #808080" transform="translate(500.032528 141.39125) scale(0.08 -0.08)">
       <use xlink:href="#Ubuntu-33"/>
       <use xlink:href="#Ubuntu-31" x="56.399994"/>
      </g>
     </g>
    </g>
   </g>
   <g id="matplotlib.axis_4">
    <g id="ytick_1">
     <g id="line2d_11">
      <defs>
       <path id="m02285b180c" d="M 0 0 
L -3 0 
" style="stroke: #cecece; stroke-width: 0.75"/>
      </defs>
      <g>
       <use xlink:href="#m02285b180c" x="59.923438" y="121.18375" style="fill: #cecece; stroke: #cecece; stroke-width: 0.75"/>
      </g>
     </g>
     <g id="text_11">
      <!-- −10000 -->
      <g style="fill: #808080" transform="translate(23.848438 124.2875) scale(0.08 -0.08)">
       <defs>
        <path id="Ubuntu-2212" d="M 339 2138 
L 3270 2138 
L 3270 1632 
L 339 1632 
L 339 2138 
z
" transform="scale(0.015625)"/>
       </defs>
       <use xlink:href="#Ubuntu-2212"/>
       <use xlink:href="#Ubuntu-31" x="56.399994"/>
       <use xlink:href="#Ubuntu-30" x="112.799988"/>
       <use xlink:href="#Ubuntu-30" x="169.199982"/>
       <use xlink:href="#Ubuntu-30" x="225.599976"/>
       <use xlink:href="#Ubuntu-30" x="281.999969"/>
      </g>
     </g>
    </g>
    <g id="ytick_2">
     <g id="line2d_12">
      <g>
       <use xlink:href="#m02285b180c" x="59.923438" y="102.70375" style="fill: #cecece; stroke: #cecece; stroke-width: 0.75"/>
      </g>
     </g>
     <g id="text_12">
      <!-- −5000 -->
      <g style="fill: #808080" transform="translate(28.360938 105.8075) scale(0.08 -0.08)">
       <use xlink:href="#Ubuntu-2212"/>
       <use xlink:href="#Ubuntu-35" x="56.399994"/>
       <use xlink:href="#Ubuntu-30" x="112.799988"/>
       <use xlink:href="#Ubuntu-30" x="169.199982"/>
       <use xlink:href="#Ubuntu-30" x="225.599976"/>
      </g>
     </g>
    </g>
    <g id="ytick_3">
     <g id="line2d_13">
      <g>
       <use xlink:href="#m02285b180c" x="59.923438" y="84.22375" style="fill: #cecece; stroke: #cecece; stroke-width: 0.75"/>
      </g>
     </g>
     <g id="text_13">
      <!-- 0 -->
      <g style="fill: #808080" transform="translate(46.410938 87.3275) scale(0.08 -0.08)">
       <use xlink:href="#Ubuntu-30"/>
      </g>
     </g>
    </g>
    <g id="ytick_4">
     <g id="line2d_14">
      <g>
       <use xlink:href="#m02285b180c" x="59.923438" y="65.74375" style="fill: #cecece; stroke: #cecece; stroke-width: 0.75"/>
      </g>
     </g>
     <g id="text_14">
      <!-- 5000 -->
      <g style="fill: #808080" transform="translate(32.873438 68.8475) scale(0.08 -0.08)">
       <use xlink:href="#Ubuntu-35"/>
       <use xlink:href="#Ubuntu-30" x="56.399994"/>
       <use xlink:href="#Ubuntu-30" x="112.799988"/>
       <use xlink:href="#Ubuntu-30" x="169.199982"/>
      </g>
     </g>
    </g>
    <g id="ytick_5">
     <g id="line2d_15">
      <g>
       <use xlink:href="#m02285b180c" x="59.923438" y="47.26375" style="fill: #cecece; stroke: #cecece; stroke-width: 0.75"/>
      </g>
     </g>
     <g id="text_15">
      <!-- 10000 -->
      <g style="fill: #808080" transform="translate(28.360938 50.3675) scale(0.08 -0.08)">
       <use xlink:href="#Ubuntu-31"/>
       <use xlink:href="#Ubuntu-30" x="56.399994"/>
       <use xlink:href="#Ubuntu-30" x="112.799988"/>
       <use xlink:href="#Ubuntu-30" x="169.199982"/>
       <use xlink:href="#Ubuntu-30" x="225.599976"/>
      </g>
     </g>
    </g>
    <g id="ytick_6">
     <g id="line2d_16">
      <g>
       <use xlink:href="#m02285b180c" x="59.923438" y="28.78375" style="fill: #cecece; stroke: #cecece; stroke-width: 0.75"/>
      </g>
     </g>
     <g id="text_16">
      <!-- 15000 -->
      <g style="fill: #808080" transform="translate(28.360938 31.8875) scale(0.08 -0.08)">
       <use xlink:href="#Ubuntu-31"/>
       <use xlink:href="#Ubuntu-35" x="56.399994"/>
       <use xlink:href="#Ubuntu-30" x="112.799988"/>
       <use xlink:href="#Ubuntu-30" x="169.199982"/>
       <use xlink:href="#Ubuntu-30" x="225.599976"/>
      </g>
     </g>
    </g>
    <g id="ytick_7">
     <g id="line2d_17">
      <g>
       <use xlink:href="#m02285b180c" x="59.923438" y="10.30375" style="fill: #cecece; stroke: #cecece; stroke-width: 0.75"/>
      </g>
     </g>
     <g id="text_17">
      <!-- 20000 -->
      <g style="fill: #808080" transform="translate(28.360938 13.4075) scale(0.08 -0.08)">
       <use xlink:href="#Ubuntu-32"/>
       <use xlink:href="#Ubuntu-30" x="56.399994"/>
       <use xlink:href="#Ubuntu-30" x="112.799988"/>
       <use xlink:href="#Ubuntu-30" x="169.199982"/>
       <use xlink:href="#Ubuntu-30" x="225.599976"/>
      </g>
     </g>
    </g>
    <g id="text_18">
     <!-- Residuals -->
     <g style="fill: #505050" transform="translate(14.183438 51.228438) rotate(-90) scale(0.09 -0.09)">
      <defs>
       <path id="Ubuntu-Bold-52" d="M 1811 4486 
Q 2810 4486 3341 4131 
Q 3872 3776 3872 3027 
Q 3872 2560 3657 2269 
Q 3443 1978 3040 1811 
Q 3174 1645 3321 1430 
Q 3469 1216 3613 982 
Q 3757 749 3891 496 
Q 4026 243 4141 0 
L 3021 0 
Q 2899 218 2774 442 
Q 2650 666 2518 877 
Q 2387 1088 2259 1277 
Q 2131 1466 2003 1619 
L 1510 1619 
L 1510 0 
L 512 0 
L 512 4371 
Q 838 4435 1187 4460 
Q 1536 4486 1811 4486 
z
M 1869 3635 
Q 1760 3635 1673 3628 
Q 1587 3622 1510 3616 
L 1510 2413 
L 1792 2413 
Q 2355 2413 2598 2553 
Q 2842 2694 2842 3034 
Q 2842 3360 2595 3497 
Q 2349 3635 1869 3635 
z
" transform="scale(0.015625)"/>
       <path id="Ubuntu-Bold-65" d="M 288 1658 
Q 288 2106 425 2442 
Q 563 2778 787 3002 
Q 1011 3226 1302 3341 
Q 1594 3456 1901 3456 
Q 2618 3456 3034 3017 
Q 3450 2579 3450 1728 
Q 3450 1645 3443 1545 
Q 3437 1446 3430 1370 
L 1267 1370 
Q 1299 1075 1542 902 
Q 1786 730 2195 730 
Q 2458 730 2710 778 
Q 2963 826 3123 896 
L 3251 122 
Q 3174 83 3046 44 
Q 2918 6 2761 -22 
Q 2605 -51 2425 -70 
Q 2246 -90 2067 -90 
Q 1613 -90 1277 44 
Q 941 179 720 412 
Q 499 646 393 966 
Q 288 1286 288 1658 
z
M 2528 2022 
Q 2522 2144 2486 2259 
Q 2451 2374 2377 2464 
Q 2304 2554 2192 2611 
Q 2080 2669 1914 2669 
Q 1754 2669 1638 2614 
Q 1523 2560 1446 2470 
Q 1370 2381 1328 2262 
Q 1286 2144 1267 2022 
L 2528 2022 
z
" transform="scale(0.015625)"/>
       <path id="Ubuntu-Bold-73" d="M 1414 685 
Q 1677 685 1785 736 
Q 1894 787 1894 934 
Q 1894 1050 1753 1136 
Q 1613 1222 1325 1331 
Q 1101 1414 918 1504 
Q 736 1594 608 1718 
Q 480 1843 409 2016 
Q 339 2189 339 2432 
Q 339 2906 691 3181 
Q 1043 3456 1658 3456 
Q 1965 3456 2246 3401 
Q 2528 3347 2694 3283 
L 2528 2541 
Q 2362 2598 2166 2643 
Q 1971 2688 1728 2688 
Q 1280 2688 1280 2438 
Q 1280 2381 1299 2336 
Q 1318 2291 1376 2249 
Q 1434 2208 1533 2160 
Q 1632 2112 1786 2054 
Q 2099 1939 2304 1827 
Q 2509 1715 2627 1584 
Q 2746 1453 2794 1293 
Q 2842 1133 2842 922 
Q 2842 422 2467 166 
Q 2093 -90 1408 -90 
Q 960 -90 662 -13 
Q 365 64 250 115 
L 410 890 
Q 653 794 909 739 
Q 1165 685 1414 685 
z
" transform="scale(0.015625)"/>
       <path id="Ubuntu-Bold-69" d="M 1402 0 
L 448 0 
L 448 3366 
L 1402 3366 
L 1402 0 
z
M 1491 4339 
Q 1491 4077 1321 3926 
Q 1152 3776 922 3776 
Q 691 3776 521 3926 
Q 352 4077 352 4339 
Q 352 4602 521 4752 
Q 691 4902 922 4902 
Q 1152 4902 1321 4752 
Q 1491 4602 1491 4339 
z
" transform="scale(0.015625)"/>
       <path id="Ubuntu-Bold-64" d="M 1261 1709 
Q 1261 1267 1459 998 
Q 1658 730 2048 730 
Q 2176 730 2285 739 
Q 2394 749 2464 762 
L 2464 2496 
Q 2374 2554 2230 2592 
Q 2086 2630 1939 2630 
Q 1261 2630 1261 1709 
z
M 3418 109 
Q 3290 70 3123 35 
Q 2957 0 2774 -25 
Q 2592 -51 2403 -67 
Q 2214 -83 2042 -83 
Q 1626 -83 1299 38 
Q 973 160 749 387 
Q 525 614 406 937 
Q 288 1261 288 1664 
Q 288 2074 390 2403 
Q 493 2733 685 2963 
Q 877 3194 1155 3315 
Q 1434 3437 1792 3437 
Q 1990 3437 2147 3398 
Q 2304 3360 2464 3290 
L 2464 4813 
L 3418 4966 
L 3418 109 
z
" transform="scale(0.015625)"/>
       <path id="Ubuntu-Bold-75" d="M 3322 115 
Q 3078 45 2694 -16 
Q 2310 -77 1888 -77 
Q 1459 -77 1174 38 
Q 890 154 723 362 
Q 557 570 486 858 
Q 416 1146 416 1491 
L 416 3366 
L 1370 3366 
L 1370 1606 
Q 1370 1146 1491 941 
Q 1613 736 1946 736 
Q 2048 736 2163 745 
Q 2278 755 2368 768 
L 2368 3366 
L 3322 3366 
L 3322 115 
z
" transform="scale(0.015625)"/>
       <path id="Ubuntu-Bold-61" d="M 1734 666 
Q 1875 666 2003 672 
Q 2131 678 2208 691 
L 2208 1414 
Q 2150 1427 2035 1440 
Q 1920 1453 1824 1453 
Q 1690 1453 1571 1437 
Q 1453 1421 1363 1376 
Q 1274 1331 1222 1254 
Q 1171 1178 1171 1062 
Q 1171 838 1321 752 
Q 1472 666 1734 666 
z
M 1658 3456 
Q 2080 3456 2361 3360 
Q 2643 3264 2812 3085 
Q 2982 2906 3052 2650 
Q 3123 2394 3123 2080 
L 3123 96 
Q 2918 51 2553 -9 
Q 2189 -70 1670 -70 
Q 1344 -70 1078 -12 
Q 813 45 621 176 
Q 429 307 326 518 
Q 224 730 224 1037 
Q 224 1331 342 1536 
Q 461 1741 659 1862 
Q 858 1984 1114 2038 
Q 1370 2093 1645 2093 
Q 1830 2093 1974 2077 
Q 2118 2061 2208 2035 
L 2208 2125 
Q 2208 2368 2061 2515 
Q 1914 2662 1549 2662 
Q 1306 2662 1069 2627 
Q 832 2592 659 2528 
L 538 3296 
Q 621 3322 745 3350 
Q 870 3379 1017 3401 
Q 1165 3424 1328 3440 
Q 1491 3456 1658 3456 
z
" transform="scale(0.015625)"/>
       <path id="Ubuntu-Bold-6c" d="M 1792 -64 
Q 1376 -58 1117 25 
Q 858 109 707 259 
Q 557 410 502 624 
Q 448 838 448 1107 
L 448 4813 
L 1402 4966 
L 1402 1299 
Q 1402 1171 1421 1068 
Q 1440 966 1494 896 
Q 1549 826 1651 781 
Q 1754 736 1926 723 
L 1792 -64 
z
" transform="scale(0.015625)"/>
      </defs>
      <use xlink:href="#Ubuntu-Bold-52"/>
      <use xlink:href="#Ubuntu-Bold-65" x="64.199997"/>
      <use xlink:href="#Ubuntu-Bold-73" x="122.599991"/>
      <use xlink:href="#Ubuntu-Bold-69" x="171.099976"/>
      <use xlink:href="#Ubuntu-Bold-64" x="199.999969"/>
      <use xlink:href="#Ubuntu-Bold-75" x="260.399963"/>
      <use xlink:href="#Ubuntu-Bold-61" x="319.299957"/>
      <use xlink:href="#Ubuntu-Bold-6c" x="374.599945"/>
      <use xlink:href="#Ubuntu-Bold-73" x="406.199936"/>
     </g>
    </g>
   </g>
   <g id="line2d_18">
    <path d="M 66.887438 84.22375 
L 504.359438 84.22375 
" clip-path="url(#pbbe5fbbcd7)" style="fill: none; stroke-dasharray: 0.75,1.2375; stroke-dashoffset: 0; stroke: #bb5951; stroke-width: 0.75"/>
   </g>
   <g id="patch_4">
    <path d="M 59.923438 121.18375 
L 59.923438 10.30375 
" style="fill: none; stroke: #cccccc; stroke-width: 0.75; stroke-linejoin: miter; stroke-linecap: square"/>
   </g>
   <g id="patch_5">
    <path d="M 66.799908 126.18375 
L 504.545028 126.18375 
" style="fill: none; stroke: #cccccc; stroke-width: 0.75; stroke-linejoin: miter; stroke-linecap: square"/>
   </g>
   <g id="line2d_19">
    <path d="M 66.799908 85.121648 
L 66.99603 86.647374 
L 67.094092 84.940975 
L 67.192153 85.419081 
L 67.388275 85.151884 
L 67.486336 85.301148 
L 68.074703 81.118011 
L 68.172765 81.173774 
L 68.270826 80.656546 
L 68.663071 83.610651 
L 68.761132 83.016153 
L 68.859193 83.845135 
L 69.055315 88.377402 
L 69.251438 89.78971 
L 69.44756 89.230223 
L 69.545621 90.177026 
L 69.937866 80.664065 
L 70.035927 80.298162 
L 70.624294 88.307318 
L 70.722355 87.890268 
L 70.820417 88.107371 
L 71.016539 90.844402 
L 71.212661 89.893559 
L 71.310722 89.460125 
L 71.408784 88.343925 
L 71.604906 91.454214 
L 71.89909 88.106635 
L 71.997151 87.873395 
L 72.193273 86.773357 
L 72.291334 86.799266 
L 72.389396 86.014984 
L 72.487457 86.139743 
L 72.585518 86.603536 
L 72.683579 87.801139 
L 72.879701 86.854336 
L 73.075824 89.465121 
L 73.173885 89.737197 
L 73.370007 89.14017 
L 73.664191 91.72667 
L 73.762252 93.42006 
L 73.860313 90.855517 
L 73.958374 90.946776 
L 74.056436 92.494979 
L 74.44868 88.244217 
L 74.546742 88.235223 
L 74.840925 86.111981 
L 74.938986 86.457485 
L 75.037047 86.381938 
L 75.23317 87.273534 
L 75.331231 85.762608 
L 75.429292 86.775481 
L 75.625415 86.417542 
L 75.821537 87.087967 
L 75.919598 87.810295 
L 76.017659 87.030384 
L 76.11572 87.105567 
L 76.507965 88.470103 
L 76.606026 89.291972 
L 76.704088 86.858362 
L 76.802149 86.876113 
L 76.998271 87.868547 
L 77.194393 85.913547 
L 77.978883 76.606051 
L 78.175005 82.179702 
L 78.371128 95.57353 
L 78.56725 97.097725 
L 78.959495 84.355779 
L 79.057556 83.275467 
L 79.253678 78.740472 
L 79.547862 76.35998 
L 79.645923 76.455361 
L 79.842045 75.799325 
L 79.940107 75.760083 
L 80.136229 76.487795 
L 80.23429 76.752271 
L 80.332351 75.365322 
L 80.430412 75.83839 
L 80.626535 77.818101 
L 80.724596 77.914426 
L 80.920718 77.343892 
L 81.01878 78.066771 
L 81.116841 76.392647 
L 81.411024 77.388299 
L 82.097453 74.587016 
L 82.293575 75.610393 
L 82.489697 73.631796 
L 82.68582 74.225429 
L 82.980003 76.847849 
L 83.176126 82.168835 
L 83.274187 81.491402 
L 83.666432 83.538027 
L 83.960615 75.324548 
L 84.156737 74.183341 
L 84.254799 74.3481 
L 84.548982 78.507156 
L 84.843166 81.899827 
L 84.941227 81.094294 
L 85.23541 86.418449 
L 85.431533 85.554124 
L 85.529594 85.540458 
L 85.627655 86.498341 
L 86.216022 84.637402 
L 86.412145 86.839019 
L 86.608267 85.63488 
L 86.804389 87.311038 
L 86.902451 89.4288 
L 87.000512 89.314927 
L 87.196634 90.554891 
L 87.294695 89.820602 
L 87.392756 90.457296 
L 87.490818 90.402838 
L 87.588879 89.086378 
L 87.883062 90.116066 
L 87.981124 89.635477 
L 88.079185 90.841935 
L 88.275307 89.870892 
L 88.373368 89.654267 
L 88.471429 88.326607 
L 88.667552 89.260344 
L 88.765613 89.293773 
L 88.961735 86.64929 
L 89.059797 87.036107 
L 89.35398 83.985763 
L 89.452041 84.219422 
L 89.648164 85.147981 
L 89.746225 85.013689 
L 89.844286 83.875882 
L 90.334592 86.056387 
L 90.530714 88.820823 
L 90.628776 88.604613 
L 90.726837 89.54472 
L 91.119081 88.531742 
L 91.217143 87.901962 
L 91.315204 88.675069 
L 91.609387 83.953006 
L 91.80551 81.717096 
L 92.001632 79.782201 
L 92.099693 79.744161 
L 92.197754 79.383741 
L 92.589999 99.054186 
L 92.68806 98.446721 
L 93.276427 83.011214 
L 93.47255 81.13569 
L 93.570611 80.980481 
L 93.668672 79.791225 
L 93.766733 80.293546 
L 93.864795 80.052761 
L 93.962856 78.931589 
L 94.060917 78.941552 
L 94.158978 80.430676 
L 94.257039 79.709407 
L 94.649284 82.466653 
L 94.845406 81.028567 
L 94.943468 81.059794 
L 95.041529 80.954614 
L 95.237651 82.757729 
L 95.433773 81.881818 
L 95.531835 81.926122 
L 95.629896 82.145466 
L 95.826018 80.119148 
L 95.924079 79.74393 
L 96.022141 80.055567 
L 96.120202 80.02087 
L 96.512446 76.235225 
L 96.610508 76.557789 
L 96.708569 76.155455 
L 96.80663 76.473123 
L 97.198875 83.281212 
L 97.296936 86.230928 
L 97.394997 85.81506 
L 97.787242 86.99407 
L 97.885303 85.883561 
L 98.081425 79.345523 
L 98.375609 77.343467 
L 98.47367 78.083507 
L 98.767854 83.343272 
L 98.963976 84.64571 
L 99.160098 86.39829 
L 99.25816 87.116221 
L 99.356221 86.767464 
L 99.454282 87.606988 
L 99.552343 86.821762 
L 99.650404 86.977488 
L 99.846527 87.7938 
L 100.042649 87.058929 
L 100.238771 85.309424 
L 100.336833 85.649173 
L 100.631016 88.726618 
L 100.827139 87.370939 
L 101.023261 89.92085 
L 101.121322 90.005551 
L 101.317444 93.111845 
L 101.415506 91.972761 
L 101.513567 92.976885 
L 101.611628 91.981198 
L 102.003873 95.108863 
L 102.101934 91.695364 
L 102.298056 69.305 
L 102.396117 68.844911 
L 102.494179 71.880591 
L 102.690301 85.549342 
L 102.788362 84.971129 
L 102.984485 85.839088 
L 103.278668 82.420545 
L 103.47479 83.623205 
L 103.670913 84.448231 
L 103.867035 82.85812 
L 103.965096 83.913736 
L 104.063158 83.88287 
L 104.161219 84.114853 
L 104.25928 83.592708 
L 104.357341 83.690739 
L 104.553463 85.894683 
L 104.651525 85.26944 
L 104.847647 85.944618 
L 105.043769 89.785444 
L 105.141831 89.453359 
L 105.239892 90.125449 
L 105.337953 89.896957 
L 105.436014 88.870427 
L 105.730198 81.515799 
L 105.828259 81.628976 
L 105.92632 81.006887 
L 106.122442 77.512438 
L 106.220504 76.984539 
L 106.318565 77.940378 
L 106.612748 95.820578 
L 106.710809 95.511133 
L 107.495299 78.905918 
L 107.789482 77.210642 
L 107.887544 75.343912 
L 108.279788 78.671232 
L 108.37785 78.473777 
L 108.672033 80.502196 
L 108.770094 79.614371 
L 108.966217 82.186249 
L 109.064278 81.154599 
L 109.162339 81.327256 
L 109.2604 81.862863 
L 109.358461 81.430703 
L 109.456523 82.244952 
L 109.652645 79.417006 
L 109.750706 78.809073 
L 109.848767 79.682899 
L 109.946829 79.218696 
L 110.142951 78.108266 
L 110.437134 77.091893 
L 110.535196 77.279563 
L 110.633257 77.100648 
L 110.731318 76.406129 
L 110.829379 76.710886 
L 111.123563 75.970083 
L 111.319685 79.645156 
L 111.515807 83.58997 
L 111.613869 83.193774 
L 111.71193 83.605678 
L 111.908052 85.602201 
L 112.202236 77.384921 
L 112.496419 76.488224 
L 113.084786 81.684591 
L 113.182848 81.165616 
L 113.477031 84.934698 
L 113.575092 84.687668 
L 113.673153 83.397774 
L 113.967337 85.419292 
L 114.359582 83.310823 
L 114.457643 83.550993 
L 114.555704 82.480633 
L 114.947949 85.048559 
L 115.04601 84.650897 
L 115.144071 85.044925 
L 115.536316 88.856865 
L 115.830499 91.216662 
L 116.124683 90.137111 
L 116.71305 79.019844 
L 116.811111 78.461335 
L 117.105295 81.930651 
L 117.203356 81.696732 
L 117.49754 79.643653 
L 117.595601 80.003372 
L 117.791723 85.242087 
L 117.889784 84.477135 
L 118.085907 86.448328 
L 118.183968 86.933189 
L 118.282029 86.859565 
L 118.478151 88.090689 
L 118.870396 90.653927 
L 118.968457 91.595301 
L 119.066519 90.458024 
L 119.16458 91.089132 
L 119.654886 87.895345 
L 120.243253 79.20314 
L 120.439375 80.257299 
L 120.537436 83.910937 
L 120.733559 98.971256 
L 120.83162 99.17822 
L 121.223865 90.433211 
L 121.616109 82.151352 
L 121.812232 81.483053 
L 121.910293 81.375236 
L 122.106415 80.529951 
L 122.400599 82.036269 
L 122.49866 81.881783 
L 122.596721 82.304348 
L 122.694782 81.833733 
L 122.792843 82.330624 
L 122.890905 82.035743 
L 122.988966 82.601411 
L 123.185088 86.07997 
L 123.283149 84.358723 
L 123.479272 85.341089 
L 123.577333 84.410168 
L 123.773455 85.671743 
L 123.871516 85.487557 
L 124.067639 83.789306 
L 124.263761 81.508284 
L 124.459884 82.099792 
L 124.950189 78.448067 
L 125.440495 82.603206 
L 125.538557 87.068241 
L 125.636618 86.955155 
L 125.83274 87.899376 
L 126.028862 88.921786 
L 126.126924 87.868422 
L 126.421107 78.939934 
L 126.61723 80.849494 
L 126.715291 81.423358 
L 127.009474 84.662209 
L 127.107536 84.863747 
L 127.205597 84.709335 
L 127.303658 85.628657 
L 127.401719 88.088067 
L 127.49978 87.792327 
L 127.892025 81.833859 
L 128.088147 85.761926 
L 128.186209 85.978748 
L 128.28427 85.807563 
L 128.382331 86.204593 
L 128.676514 84.661097 
L 128.970698 86.263534 
L 129.068759 86.669938 
L 129.264882 85.062074 
L 129.461004 86.352706 
L 129.559065 85.862048 
L 129.657126 87.065852 
L 129.755187 87.05611 
L 129.853249 88.041972 
L 129.95131 87.938635 
L 130.049371 88.621922 
L 130.147432 88.427645 
L 130.245493 88.7051 
L 130.539677 84.972556 
L 130.637738 84.605908 
L 130.735799 84.976966 
L 130.931922 82.830984 
L 131.029983 83.557386 
L 131.226105 83.307418 
L 131.324166 83.288783 
L 131.422228 82.831027 
L 131.61835 81.749482 
L 131.814472 80.704479 
L 131.912533 80.913021 
L 132.108656 80.34048 
L 132.500901 82.144083 
L 132.795084 84.678832 
L 132.893145 83.55691 
L 133.187329 87.188133 
L 133.28539 86.921567 
L 133.383451 87.935506 
L 133.481512 87.423363 
L 133.579574 87.96817 
L 133.873757 84.887735 
L 134.364063 79.787122 
L 134.462124 80.351769 
L 134.560185 81.569368 
L 134.95243 101.083527 
L 135.148552 97.555589 
L 135.638858 86.299131 
L 136.227226 81.831838 
L 136.423348 83.886606 
L 136.521409 84.23778 
L 136.61947 83.987612 
L 137.109776 88.361029 
L 137.207837 87.893104 
L 137.305899 88.230717 
L 137.502021 86.733986 
L 137.698143 88.472818 
L 137.992327 88.462435 
L 138.090388 87.352179 
L 138.188449 87.378516 
L 138.384572 86.749516 
L 138.482633 86.851618 
L 138.874877 81.969627 
L 138.972939 82.555998 
L 139.169061 81.436468 
L 139.757428 90.284163 
L 139.855489 90.61927 
L 139.95355 90.301137 
L 140.149673 92.388665 
L 140.247734 91.009477 
L 140.541918 79.511367 
L 140.639979 82.378529 
L 140.73804 81.245396 
L 141.032223 83.242647 
L 141.130285 82.510851 
L 141.228346 82.681064 
L 141.326407 81.69041 
L 141.424468 81.771006 
L 141.522529 82.201221 
L 141.620591 76.750843 
L 141.718652 76.926143 
L 142.208958 71.060222 
L 142.40508 69.652362 
L 142.797325 65.415579 
L 142.895386 65.917072 
L 143.091508 64.697294 
L 143.189569 65.391279 
L 143.287631 68.903856 
L 143.483753 58.920431 
L 143.974059 79.221241 
L 144.170181 78.002724 
L 144.366304 79.434557 
L 144.464365 79.109914 
L 144.562426 78.585379 
L 144.758548 76.927366 
L 144.954671 76.796579 
L 145.248854 77.919984 
L 145.837221 73.884337 
L 145.935283 74.360514 
L 146.229466 73.499739 
L 146.621711 75.486618 
L 146.719772 75.227499 
L 147.504262 86.573572 
L 147.700384 84.50981 
L 147.994567 78.998892 
L 148.19069 77.428497 
L 148.386812 55.02746 
L 148.484873 54.265919 
L 148.680996 57.267963 
L 149.07324 77.982236 
L 149.269363 73.489441 
L 149.85773 61.572331 
L 149.955791 60.92322 
L 150.053852 61.565425 
L 150.249975 60.477104 
L 150.348036 60.569256 
L 150.544158 61.493965 
L 150.642219 60.734616 
L 150.838342 63.242984 
L 150.936403 63.320299 
L 151.230586 66.876975 
L 151.426709 71.15704 
L 151.622831 71.835566 
L 152.015076 76.830529 
L 152.211198 77.147575 
L 152.603443 80.665455 
L 152.799565 78.42155 
L 152.897627 76.907798 
L 152.995688 77.230141 
L 153.093749 76.937691 
L 153.19181 76.984681 
L 153.387932 78.054752 
L 153.485994 78.439737 
L 153.682116 80.457137 
L 153.9763 86.28078 
L 154.074361 86.003376 
L 154.270483 73.114556 
L 154.368544 77.169354 
L 154.564667 75.450484 
L 154.760789 77.914395 
L 154.85885 76.478384 
L 155.153034 82.319715 
L 155.251095 82.266607 
L 155.447217 83.429226 
L 155.839462 86.781738 
L 155.937523 85.761995 
L 156.035584 86.654952 
L 156.133646 86.289592 
L 156.231707 86.919311 
L 156.329768 86.539901 
L 156.427829 86.777136 
L 156.623952 85.134311 
L 156.918135 86.627154 
L 157.212319 87.182207 
L 157.408441 90.92478 
L 157.604563 91.63448 
L 157.702625 84.255501 
L 157.800686 84.561039 
L 157.898747 81.538377 
L 157.996808 83.231273 
L 158.389053 96.637817 
L 158.585175 98.776257 
L 159.075481 94.249379 
L 159.369665 94.941874 
L 159.467726 94.62379 
L 159.565787 93.353642 
L 159.761909 88.376105 
L 159.859971 91.100333 
L 159.958032 90.64018 
L 160.252215 92.384478 
L 160.350276 92.060089 
L 160.448338 91.414868 
L 160.546399 92.188042 
L 160.64446 88.707093 
L 160.840582 93.220482 
L 160.938644 92.62506 
L 161.134766 93.752821 
L 161.232827 92.618328 
L 161.428949 94.399005 
L 161.625072 93.988794 
L 161.723133 94.204933 
L 161.821194 93.268377 
L 162.017317 93.526737 
L 162.213439 90.351362 
L 162.3115 90.344059 
L 162.605684 86.862461 
L 162.703745 86.707936 
L 162.899867 97.598017 
L 163.09599 107.925448 
L 163.488234 100.383668 
L 164.076601 86.798212 
L 164.468846 83.702993 
L 164.566907 84.211481 
L 164.664969 83.73675 
L 165.155274 87.546989 
L 165.351397 86.404375 
L 165.547519 88.017284 
L 165.743642 89.266902 
L 166.233947 86.884833 
L 166.332009 87.473465 
L 166.43007 87.339082 
L 166.528131 87.46288 
L 166.920376 84.000715 
L 167.018437 83.713483 
L 167.214559 82.938168 
L 167.31262 82.537977 
L 167.410682 82.64309 
L 167.606804 83.097405 
L 167.704865 83.223795 
L 168.195171 91.137699 
L 168.391293 92.611577 
L 168.489355 91.6537 
L 168.783538 83.957383 
L 168.881599 82.336269 
L 168.979661 82.739161 
L 169.175783 85.87623 
L 169.371905 88.742181 
L 169.666089 89.662737 
L 169.76415 90.957937 
L 169.960272 97.385027 
L 170.058334 95.771852 
L 170.156395 91.724188 
L 170.254456 94.122639 
L 170.450578 91.922538 
L 170.548639 92.510786 
L 170.646701 91.832058 
L 170.842823 93.923661 
L 171.038945 92.247194 
L 171.137007 93.244488 
L 171.235068 92.492798 
L 171.333129 94.964149 
L 171.529251 93.721378 
L 171.627312 93.896176 
L 171.921496 96.510742 
L 172.019557 96.837187 
L 172.21568 95.979178 
L 172.607924 97.406006 
L 173.196291 92.865647 
L 173.392414 93.612892 
L 173.490475 93.477124 
L 173.588536 93.678274 
L 173.784659 92.580244 
L 173.88272 91.321828 
L 173.980781 91.400874 
L 174.078842 91.696041 
L 174.176903 91.393463 
L 174.373026 78.572779 
L 174.471087 78.085916 
L 174.863332 81.201491 
L 174.961393 81.069964 
L 175.059454 81.114353 
L 175.353637 83.303382 
L 175.451699 83.273761 
L 175.647821 82.677367 
L 175.843943 84.598216 
L 176.040066 97.188119 
L 176.726494 88.058678 
L 176.824555 87.502865 
L 176.922616 89.75903 
L 177.2168 107.001466 
L 177.314861 106.484921 
L 177.510983 101.216587 
L 177.903228 88.245611 
L 178.001289 86.150834 
L 178.099351 86.466827 
L 178.393534 83.241373 
L 178.491595 83.247795 
L 178.785779 82.267031 
L 178.981901 83.363926 
L 179.079962 83.71892 
L 179.178024 83.419159 
L 179.668329 84.997753 
L 179.766391 84.114793 
L 179.962513 85.261094 
L 180.060574 84.375969 
L 180.158635 84.48184 
L 180.256697 83.702471 
L 180.452819 84.461437 
L 180.648941 82.932025 
L 181.041186 80.039664 
L 181.33537 79.330272 
L 181.433431 79.493844 
L 181.531492 79.053268 
L 181.629553 79.454854 
L 181.923737 82.493152 
L 182.119859 87.319905 
L 182.21792 87.679615 
L 182.315981 87.118673 
L 182.414043 88.690405 
L 182.512104 88.660317 
L 182.610165 87.963714 
L 183.100471 72.209241 
L 183.198532 72.849994 
L 183.296593 74.015924 
L 183.394654 72.468971 
L 183.492716 72.818418 
L 183.688838 75.34192 
L 183.88496 91.812886 
L 183.983022 91.930663 
L 184.179144 90.908546 
L 184.277205 91.233843 
L 184.375266 90.512015 
L 184.473327 90.595266 
L 184.571389 90.380863 
L 184.66945 91.04399 
L 184.865572 89.586195 
L 184.963633 89.38165 
L 185.159756 90.336286 
L 185.453939 64.831101 
L 185.846184 72.856875 
L 186.042306 79.746986 
L 186.532612 86.004996 
L 186.630673 86.150866 
L 186.728735 88.946594 
L 186.826796 88.317416 
L 186.924857 88.434641 
L 187.120979 89.149381 
L 187.219041 87.662975 
L 187.317102 87.968482 
L 187.415163 88.643606 
L 187.513224 87.952416 
L 187.611285 88.502157 
L 188.101591 84.304635 
L 188.297714 85.521308 
L 188.395775 85.209642 
L 188.493836 85.628728 
L 188.591897 85.588852 
L 188.689958 85.675616 
L 188.984142 87.430845 
L 189.082203 89.231174 
L 189.180264 89.088292 
L 189.572509 91.040601 
L 189.768631 90.630845 
L 189.866692 90.843669 
L 190.160876 87.990827 
L 190.258937 87.881315 
L 190.356998 87.22663 
L 190.847304 78.641133 
L 190.945366 79.857527 
L 191.043427 82.792478 
L 191.239549 98.335216 
L 191.33761 98.94037 
L 191.435671 98.631607 
L 191.827916 86.874179 
L 192.416283 74.622951 
L 192.612406 72.609819 
L 192.906589 73.63506 
L 193.00465 73.989839 
L 193.102712 73.292295 
L 193.200773 74.259672 
L 193.298834 73.576793 
L 193.396895 73.886315 
L 193.593017 75.531091 
L 193.691079 75.316548 
L 193.78914 75.912707 
L 193.887201 74.604343 
L 193.985262 74.789426 
L 194.083323 75.73861 
L 194.181385 75.58966 
L 194.377507 76.56945 
L 194.573629 75.962173 
L 194.67169 76.722736 
L 194.965874 76.004962 
L 195.161996 73.484923 
L 195.358119 73.183492 
L 195.45618 72.635322 
L 195.554241 73.460385 
L 195.652302 73.236749 
L 195.946486 75.250976 
L 196.142608 78.724582 
L 196.338731 80.543135 
L 196.436792 81.498584 
L 196.632914 84.159618 
L 196.730975 83.014178 
L 197.025159 74.207923 
L 197.12322 73.294094 
L 197.221281 73.369992 
L 197.319342 73.732761 
L 197.711587 78.830044 
L 197.809648 79.24339 
L 197.907709 79.126581 
L 198.201893 84.100893 
L 198.594138 80.102713 
L 198.692199 80.178473 
L 198.79026 79.875184 
L 198.986382 80.858883 
L 199.084444 79.399318 
L 199.182505 80.104646 
L 199.280566 79.986525 
L 199.378627 79.135123 
L 199.57475 62.912008 
L 199.672811 66.002715 
L 199.966994 84.143627 
L 200.359239 91.179586 
L 200.4573 91.629602 
L 200.555361 91.354729 
L 200.653423 91.517905 
L 200.751484 90.953956 
L 200.849545 91.040145 
L 200.947606 90.741956 
L 201.143729 91.032567 
L 201.24179 90.144443 
L 201.339851 88.152589 
L 201.437912 88.173486 
L 201.535973 88.236325 
L 201.634034 88.747637 
L 201.732096 88.421577 
L 202.026279 86.113147 
L 202.12434 86.124221 
L 202.222402 85.398837 
L 202.320463 86.192632 
L 202.516585 85.479977 
L 202.712707 85.244952 
L 202.810769 86.203522 
L 202.90883 85.933257 
L 203.006891 86.03872 
L 203.104952 87.341593 
L 203.203013 87.090172 
L 203.301075 87.298496 
L 203.399136 88.205272 
L 203.693319 87.869655 
L 203.79138 87.038667 
L 203.889442 87.570391 
L 203.987503 86.554064 
L 204.183625 87.32261 
L 204.281686 87.597187 
L 204.771992 81.343868 
L 204.870053 81.37857 
L 204.968115 81.274721 
L 205.066176 81.691948 
L 205.262298 96.574797 
L 205.458421 104.573661 
L 205.556482 103.835987 
L 205.850665 95.244473 
L 206.144849 86.984793 
L 206.340971 83.177205 
L 206.537094 81.563682 
L 206.635155 81.297483 
L 206.733216 79.411218 
L 206.831277 79.517352 
L 207.223522 77.310785 
L 207.615767 80.277177 
L 207.811889 81.641096 
L 207.90995 81.511311 
L 208.204134 80.960137 
L 208.302195 81.656441 
L 208.596378 79.778947 
L 208.69444 79.449686 
L 208.890562 80.331709 
L 208.988623 80.241668 
L 209.184746 78.609208 
L 209.282807 78.977127 
L 209.478929 77.099527 
L 209.57699 77.37464 
L 209.675051 76.902395 
L 209.969235 78.332752 
L 210.165357 81.769984 
L 210.557602 88.312112 
L 210.655663 88.369597 
L 210.753724 89.353084 
L 210.851786 88.897147 
L 211.145969 80.298089 
L 211.342092 79.823154 
L 211.440153 79.807094 
L 211.930459 83.828565 
L 212.02852 83.333315 
L 212.518826 85.689607 
L 212.616887 85.93663 
L 212.714948 84.130409 
L 212.813009 84.467053 
L 212.91107 86.954614 
L 213.107193 84.15021 
L 213.205254 83.79766 
L 213.303315 84.515752 
L 213.401376 83.344059 
L 213.597499 83.800562 
L 213.69556 83.901888 
L 213.793621 83.197087 
L 213.891682 83.351738 
L 214.087805 85.081639 
L 214.185866 85.478853 
L 214.283927 85.295556 
L 214.480049 87.23919 
L 214.774233 86.27796 
L 214.872294 86.776207 
L 215.166478 83.376609 
L 215.558722 75.674196 
L 215.656784 75.953731 
L 215.950967 79.107209 
L 216.049028 79.825139 
L 216.343212 76.816021 
L 216.539334 76.570673 
L 216.833518 77.812219 
L 216.931579 78.205466 
L 217.127701 79.913231 
L 217.716068 83.380793 
L 217.81413 83.372365 
L 217.912191 82.587561 
L 218.108313 83.7789 
L 218.206374 83.501089 
L 218.500558 80.345933 
L 218.69668 77.763015 
L 219.088925 74.820289 
L 219.186986 75.922928 
L 219.579231 97.573931 
L 219.775353 94.547589 
L 220.167598 82.433372 
L 220.36372 78.006771 
L 220.559843 77.343736 
L 220.755965 74.557078 
L 220.854026 74.772743 
L 221.050149 74.27811 
L 221.14821 74.838243 
L 221.246271 74.293593 
L 221.442393 75.387683 
L 221.540455 74.871468 
L 221.932699 77.473334 
L 222.03076 75.924495 
L 222.128822 76.420884 
L 222.226883 75.441757 
L 222.324944 78.06552 
L 222.423005 77.840423 
L 222.521066 78.082217 
L 222.619128 77.443643 
L 222.717189 78.039283 
L 222.81525 77.687466 
L 223.207495 74.204594 
L 223.305556 74.293589 
L 223.501678 74.636134 
L 223.599739 74.457512 
L 223.697801 74.614776 
L 223.795862 75.917273 
L 223.893923 75.052658 
L 224.090045 75.697557 
L 224.384229 79.522239 
L 224.580351 83.586343 
L 224.678412 83.883029 
L 224.874535 85.384823 
L 224.972596 84.994119 
L 225.462902 75.884417 
L 225.560963 75.516467 
L 225.855147 79.565399 
L 225.953208 80.575165 
L 226.051269 79.867855 
L 226.14933 80.411075 
L 226.345452 82.549948 
L 226.639636 82.28925 
L 226.737697 81.521919 
L 226.835758 82.576263 
L 227.129942 81.016262 
L 227.424126 79.26743 
L 227.522187 79.414236 
L 227.81637 81.211739 
L 228.012493 80.046089 
L 228.208615 78.798258 
L 228.306676 79.864563 
L 228.404737 79.088419 
L 228.502799 79.157292 
L 228.698921 80.523155 
L 228.796982 81.807447 
L 228.895043 81.437115 
L 228.993104 81.834417 
L 229.091166 81.682181 
L 229.189227 80.677388 
L 229.287288 81.385512 
L 229.48341 80.591315 
L 229.581472 79.049273 
L 229.777594 80.052947 
L 229.875655 79.216969 
L 229.973716 79.689978 
L 230.071777 78.637667 
L 230.169839 78.661807 
L 230.2679 79.054177 
L 230.464022 76.867761 
L 230.660145 75.10797 
L 230.758206 75.002233 
L 230.954328 75.898047 
L 231.052389 75.279962 
L 231.15045 75.577065 
L 231.444634 77.936189 
L 231.542695 78.429123 
L 231.640756 79.639947 
L 231.738818 79.412972 
L 232.131062 82.003599 
L 232.327185 82.557718 
L 232.425246 82.023133 
L 232.523307 82.769006 
L 232.817491 77.8757 
L 232.915552 77.473637 
L 233.111674 75.747033 
L 233.209735 76.424276 
L 233.307796 77.947057 
L 233.700041 99.720196 
L 233.994225 93.73957 
L 234.484531 78.929244 
L 234.582592 78.966766 
L 234.778714 76.408313 
L 234.876775 76.49488 
L 235.072898 75.046517 
L 235.170959 76.144345 
L 235.26902 75.991444 
L 235.367081 75.517288 
L 235.563204 76.779309 
L 235.661265 76.492653 
L 235.857387 78.938947 
L 235.955448 78.969888 
L 236.249632 81.037748 
L 236.347693 81.187998 
L 236.543816 80.711337 
L 236.641877 80.768588 
L 236.739938 79.851348 
L 236.837999 81.085923 
L 237.132183 80.050045 
L 237.230244 80.289044 
L 237.524427 77.234999 
L 237.72055 76.959242 
L 237.818611 75.749874 
L 238.112794 77.717451 
L 238.210856 78.074618 
L 238.308917 77.660289 
L 238.505039 79.972803 
L 238.701162 84.73591 
L 238.799223 82.101245 
L 238.995345 71.721491 
L 239.093406 71.895232 
L 239.191467 76.62772 
L 239.38759 74.518959 
L 239.485651 74.126508 
L 239.681773 75.671801 
L 239.975957 77.333997 
L 240.172079 77.002294 
L 240.27014 76.409803 
L 240.466263 76.611363 
L 240.858508 73.584004 
L 240.956569 73.748614 
L 241.05463 72.991737 
L 241.152691 73.359585 
L 241.250752 73.233025 
L 241.544936 69.644511 
L 241.642997 69.67152 
L 241.741058 69.396109 
L 241.839119 69.587987 
L 242.231364 72.253009 
L 242.329425 73.349336 
L 242.427486 73.091101 
L 242.623609 74.79205 
L 242.72167 74.95774 
L 242.917792 76.505946 
L 243.015854 76.577825 
L 243.113915 77.594331 
L 243.604221 75.883538 
L 243.800343 73.098604 
L 243.898404 74.269237 
L 243.996465 73.935003 
L 244.094527 74.506228 
L 244.486771 70.911564 
L 244.584832 70.656113 
L 244.977077 68.552761 
L 245.075138 70.116383 
L 245.271261 69.609591 
L 245.565444 71.260553 
L 245.761567 72.447609 
L 245.859628 72.975663 
L 246.153811 76.688731 
L 246.251873 75.946972 
L 246.349934 76.159211 
L 246.447995 77.366758 
L 247.134423 72.295527 
L 247.330546 71.072303 
L 247.428607 72.504859 
L 247.526668 77.692474 
L 247.72279 92.243706 
L 247.820852 92.098654 
L 248.016974 87.952045 
L 248.703402 74.803265 
L 248.899525 73.284644 
L 249.095647 72.377846 
L 249.193708 72.064715 
L 249.291769 72.806172 
L 249.38983 72.767514 
L 249.487892 72.645978 
L 249.684014 73.018314 
L 249.782075 72.582678 
L 249.880136 73.697214 
L 249.978198 73.473217 
L 250.076259 73.825648 
L 250.17432 73.520879 
L 250.664626 76.170912 
L 250.860748 76.502999 
L 251.056871 76.082701 
L 251.154932 76.206084 
L 251.351054 74.889431 
L 251.449115 74.989585 
L 251.645238 73.643159 
L 251.743299 73.333468 
L 251.84136 73.631988 
L 252.037482 73.316618 
L 252.135544 73.778881 
L 252.625849 78.899966 
L 252.821972 82.267064 
L 253.214217 84.202162 
L 253.704522 75.313054 
L 253.802584 74.905253 
L 253.900645 75.081431 
L 254.096767 77.537373 
L 254.194828 76.703072 
L 254.587073 79.701173 
L 254.685134 79.169772 
L 254.783196 77.954281 
L 254.881257 78.163581 
L 255.077379 76.494134 
L 255.17544 76.02177 
L 255.273501 76.425864 
L 255.371563 75.921351 
L 255.567685 73.677604 
L 255.665746 74.156199 
L 255.861869 73.065807 
L 256.254113 74.618923 
L 256.450236 78.464833 
L 256.548297 77.758151 
L 256.744419 78.873755 
L 256.84248 79.124798 
L 256.940542 78.955805 
L 257.136664 82.320954 
L 257.234725 80.598544 
L 257.332786 81.387146 
L 257.430847 79.801637 
L 257.62697 81.827479 
L 257.725031 81.711289 
L 257.921153 80.723166 
L 258.019215 80.877205 
L 258.117276 81.917885 
L 258.215337 79.310808 
L 258.313398 79.700301 
L 258.50952 77.854745 
L 258.607582 77.850959 
L 258.803704 75.719712 
L 258.901765 75.860612 
L 258.999826 75.833847 
L 259.097888 76.126364 
L 259.195949 75.466748 
L 259.392071 78.341509 
L 259.490132 78.89123 
L 259.588193 78.827471 
L 259.686255 78.70749 
L 259.784316 78.075529 
L 260.372683 82.900056 
L 260.568805 84.993123 
L 260.666866 84.479535 
L 261.353295 76.259886 
L 261.451356 76.844175 
L 261.647478 86.77024 
L 261.843601 99.947337 
L 261.941662 99.460628 
L 262.039723 97.872145 
L 262.431968 86.151158 
L 262.922274 76.977769 
L 263.41258 74.318498 
L 263.510641 75.087777 
L 263.706763 74.961075 
L 263.902886 74.198774 
L 264.393191 78.144519 
L 264.589314 77.650526 
L 264.687375 77.525824 
L 264.785436 78.019997 
L 264.981559 76.207087 
L 265.07962 75.78584 
L 265.177681 76.612897 
L 265.373803 75.606422 
L 265.471864 76.009065 
L 265.667987 74.990449 
L 265.864109 73.901177 
L 265.96217 73.239323 
L 266.158293 73.92754 
L 266.452476 75.705498 
L 266.550537 75.651339 
L 266.648599 75.893933 
L 267.040843 84.373374 
L 267.236966 84.456699 
L 267.335027 85.415139 
L 267.727272 77.128382 
L 267.825333 77.439977 
L 267.923394 77.212042 
L 268.119516 79.170303 
L 268.315639 82.096185 
L 268.4137 82.12768 
L 268.511761 82.787677 
L 268.805945 87.734269 
L 268.904006 87.469652 
L 269.002067 85.906841 
L 269.100128 86.0784 
L 269.198189 86.355256 
L 269.394312 87.851705 
L 269.492373 87.319374 
L 269.590434 87.41528 
L 269.982679 85.582051 
L 270.08074 85.828687 
L 270.178801 85.676436 
L 270.276862 85.769828 
L 270.374924 86.877108 
L 270.472985 86.388466 
L 270.669107 84.440385 
L 271.355535 91.152189 
L 271.453597 91.073566 
L 271.551658 91.251447 
L 271.74778 90.596834 
L 271.845841 91.223543 
L 272.140025 88.926072 
L 272.238086 89.059431 
L 272.336147 88.777997 
L 272.434208 88.888629 
L 272.630331 86.519161 
L 272.826453 87.137479 
L 272.924514 87.403075 
L 273.022576 86.835131 
L 273.120637 85.313459 
L 273.218698 86.18226 
L 273.316759 84.868412 
L 273.41482 81.698 
L 273.610943 83.384572 
L 273.807065 87.567558 
L 273.905126 87.658034 
L 274.003187 88.164398 
L 274.101249 87.944341 
L 274.19931 88.243857 
L 274.297371 88.164738 
L 274.395432 88.377286 
L 274.493493 85.768513 
L 274.591554 85.79465 
L 274.885738 86.507466 
L 275.08186 84.380339 
L 275.179922 84.045229 
L 275.474105 81.225889 
L 275.670227 83.715589 
L 275.964411 103.450052 
L 276.062472 104.930617 
L 276.945023 81.602498 
L 277.043084 81.190546 
L 277.239206 78.216811 
L 277.337268 78.356233 
L 277.53339 77.560767 
L 277.631451 77.599814 
L 277.827573 76.833691 
L 278.023696 78.434448 
L 278.121757 78.036002 
L 278.317879 78.56972 
L 278.415941 78.550145 
L 278.514002 78.979737 
L 278.710124 80.398942 
L 278.808185 80.825872 
L 278.906246 80.224771 
L 279.102369 80.424638 
L 279.20043 79.24885 
L 279.298491 79.369303 
L 279.592675 76.3269 
L 279.690736 76.478889 
L 279.788797 75.972113 
L 279.886858 76.241914 
L 280.082981 75.21181 
L 280.181042 75.1572 
L 280.279103 74.895173 
L 280.377164 75.65973 
L 280.475225 75.350426 
L 280.86747 79.239919 
L 281.063592 84.35969 
L 281.161654 83.993521 
L 281.259715 84.23779 
L 281.455837 85.999947 
L 281.946143 78.186772 
L 282.044204 78.359737 
L 282.240327 80.73775 
L 282.53451 82.223947 
L 282.632571 82.194342 
L 282.926755 85.366972 
L 283.024816 84.622095 
L 283.220939 82.878272 
L 283.319 84.071072 
L 283.417061 83.454503 
L 283.711244 80.700355 
L 283.809306 80.472182 
L 283.907367 80.570681 
L 284.005428 80.214378 
L 284.103489 80.437204 
L 284.495734 84.907543 
L 284.691856 85.532913 
L 284.887979 88.400296 
L 284.98604 88.08537 
L 285.378285 92.146511 
L 285.672468 90.184673 
L 285.86859 91.09059 
L 285.966652 91.150417 
L 286.260835 89.050059 
L 286.456958 90.447654 
L 286.65308 89.845764 
L 286.849202 87.325651 
L 286.947263 87.429494 
L 287.045325 88.221145 
L 287.143386 87.533598 
L 287.241447 88.209344 
L 287.339508 87.471334 
L 287.437569 88.402842 
L 287.633692 87.485699 
L 288.025936 90.550801 
L 288.222059 92.583545 
L 288.32012 92.462821 
L 288.516242 91.20102 
L 288.614304 91.077198 
L 288.712365 89.990376 
L 288.810426 90.135338 
L 288.908487 89.880686 
L 289.398793 85.620963 
L 289.496854 85.894893 
L 289.594915 85.151815 
L 289.692977 81.227416 
L 289.791038 82.020745 
L 290.085221 100.939719 
L 290.183283 102.016852 
L 290.379405 97.893286 
L 290.869711 82.889914 
L 291.065833 79.466514 
L 291.261956 69.890793 
L 291.360017 69.247908 
L 291.556139 83.065471 
L 291.6542 82.669659 
L 291.850323 81.458428 
L 292.144506 82.882434 
L 292.340629 84.078775 
L 292.536751 82.797219 
L 292.634812 83.655333 
L 292.830934 82.195217 
L 292.928996 82.243415 
L 293.027057 82.045259 
L 293.125118 81.180622 
L 293.223179 82.169564 
L 293.32124 81.6084 
L 293.419302 81.629859 
L 293.811546 79.922216 
L 294.10573 76.880516 
L 294.203791 77.695347 
L 294.301852 76.814142 
L 294.399913 63.392894 
L 294.596036 75.02387 
L 294.98828 81.488637 
L 295.184403 86.260319 
L 295.282464 86.245649 
L 295.478586 88.862155 
L 295.576648 88.733115 
L 295.77277 83.820353 
L 295.968892 80.090182 
L 296.066953 80.541695 
L 296.263076 82.448541 
L 296.361137 83.643817 
L 296.557259 87.383823 
L 296.655321 86.970378 
L 296.851443 89.453287 
L 296.949504 89.368836 
L 297.047565 88.954992 
L 297.243688 85.353601 
L 297.43981 86.736668 
L 297.537871 87.096355 
L 297.733994 86.004626 
L 297.832055 87.230688 
L 297.930116 85.819646 
L 298.028177 86.460617 
L 298.224299 85.38523 
L 298.322361 85.806861 
L 298.420422 85.632541 
L 298.518483 86.111486 
L 298.616544 84.516875 
L 298.812667 89.431411 
L 299.008789 88.774984 
L 299.302973 91.311572 
L 299.499095 92.024424 
L 299.695217 94.315835 
L 299.89134 92.552856 
L 299.989401 92.368215 
L 300.087462 92.972756 
L 300.283584 91.212309 
L 300.381646 91.71999 
L 300.479707 91.287151 
L 300.577768 91.528849 
L 300.871951 89.195427 
L 301.264196 87.330055 
L 301.362257 86.493113 
L 301.460319 86.596849 
L 301.656441 87.586231 
L 301.754502 87.078613 
L 302.048686 88.919185 
L 302.146747 88.54616 
L 302.244808 88.789301 
L 302.342869 88.681734 
L 302.538992 90.321379 
L 302.735114 89.340017 
L 302.833175 89.146485 
L 302.931236 89.506537 
L 303.029297 88.305979 
L 303.127359 88.580069 
L 303.617665 85.04311 
L 303.715726 84.957625 
L 303.813787 85.374472 
L 303.911848 89.711926 
L 304.206032 110.05804 
L 304.304093 109.789635 
L 305.088582 86.441825 
L 305.382766 82.717905 
L 305.480827 82.820597 
L 305.676949 81.798418 
L 305.775011 81.806428 
L 305.873072 80.59445 
L 305.971133 80.807362 
L 306.069194 79.89395 
L 306.167255 80.103083 
L 306.265316 79.607086 
L 306.461439 81.746409 
L 306.5595 81.483046 
L 306.755622 82.458483 
L 306.853684 82.488104 
L 306.951745 83.020399 
L 307.049806 82.923125 
L 307.147867 82.132999 
L 307.343989 82.614455 
L 307.442051 82.482105 
L 307.540112 81.81747 
L 307.638173 82.459503 
L 307.834295 80.74468 
L 307.932357 81.0285 
L 308.128479 78.885245 
L 308.22654 79.332532 
L 308.422663 78.153297 
L 308.520724 78.250466 
L 308.618785 78.193885 
L 308.716846 78.493553 
L 308.814907 78.445339 
L 309.109091 81.820063 
L 309.403274 87.869024 
L 309.599397 88.785667 
L 309.697458 89.368297 
L 309.795519 88.73515 
L 310.089703 81.644913 
L 310.187764 80.748744 
L 310.481947 82.131274 
L 310.580009 81.984433 
L 310.972253 85.548844 
L 311.070314 85.395166 
L 311.266437 82.582863 
L 311.462559 82.079299 
L 311.756743 85.341859 
L 312.050926 83.780365 
L 312.247049 85.180233 
L 312.34511 85.166584 
L 312.443171 85.944975 
L 312.541232 85.367125 
L 312.737355 87.064183 
L 312.835416 86.313975 
L 313.22766 87.71677 
L 313.619905 89.928582 
L 313.816028 88.570345 
L 314.306333 80.311112 
L 314.502456 79.620771 
L 314.600517 81.651397 
L 314.698578 80.973643 
L 314.796639 81.833458 
L 314.992762 81.061058 
L 315.188884 80.124498 
L 315.286945 80.324568 
L 315.385006 79.972103 
L 315.483068 80.015443 
L 315.581129 81.069567 
L 315.67919 80.10829 
L 315.777251 82.421069 
L 315.875312 82.239568 
L 315.973374 81.733037 
L 316.169496 82.4459 
L 316.365618 84.577205 
L 316.463679 83.925703 
L 316.659802 85.258086 
L 316.855924 84.743927 
L 316.953985 85.006346 
L 317.150108 83.887661 
L 317.34623 83.986177 
L 317.640414 80.567316 
L 317.738475 79.847791 
L 317.836536 80.001121 
L 317.934597 80.607578 
L 318.032658 84.336643 
L 318.326842 103.980977 
L 318.424903 103.18983 
L 318.719087 94.778428 
L 319.503576 79.660373 
L 319.699699 77.314888 
L 319.895821 77.81137 
L 319.993882 77.968266 
L 320.091943 78.393734 
L 320.190004 79.611629 
L 320.288066 79.30523 
L 320.386127 79.588572 
L 320.484188 80.219827 
L 320.582249 79.310809 
L 320.778372 79.71299 
L 321.072555 83.625524 
L 321.268677 83.633314 
L 321.366739 83.834477 
L 321.4648 83.309951 
L 321.562861 84.712944 
L 321.955106 79.880524 
L 322.053167 80.239808 
L 322.151228 78.530724 
L 322.34735 79.033892 
L 322.543473 78.445459 
L 322.739595 79.578787 
L 322.837656 79.594625 
L 323.033779 82.544279 
L 323.13184 82.81128 
L 323.229901 83.772529 
L 323.524085 90.08286 
L 323.720207 90.781979 
L 323.818268 90.933943 
L 324.014391 85.485041 
L 324.210513 80.40563 
L 324.308574 78.938683 
L 324.896941 83.570264 
L 324.995002 82.815494 
L 325.093064 83.032765 
L 325.191125 84.745319 
L 325.289186 83.29359 
L 325.387247 83.854887 
L 325.485308 83.735146 
L 325.681431 81.828542 
L 325.877553 84.153827 
L 325.975614 83.837657 
L 326.073675 84.371682 
L 326.269798 82.407099 
L 326.46592 83.452984 
L 326.563981 82.956917 
L 326.662043 84.387752 
L 326.760104 83.030911 
L 327.152348 84.412665 
L 327.348471 86.348872 
L 327.446532 86.336596 
L 327.544593 85.934049 
L 327.740716 87.762199 
L 327.838777 86.302621 
L 327.936838 86.598151 
L 328.034899 86.329436 
L 328.13296 87.03678 
L 328.231021 86.715826 
L 328.329083 87.125788 
L 328.623266 83.076717 
L 328.721327 83.569371 
L 329.309694 80.989532 
L 329.407756 81.585435 
L 329.603878 80.962421 
L 329.701939 79.510012 
L 329.8 79.80512 
L 329.996123 81.745229 
L 330.094184 81.38378 
L 330.290306 84.459458 
L 330.388367 84.761515 
L 330.58449 84.069422 
L 330.780612 86.049605 
L 330.878673 86.302686 
L 330.976735 86.106128 
L 331.172857 84.646885 
L 331.270918 85.266961 
L 331.663163 83.078716 
L 331.859285 79.330409 
L 332.055408 80.731371 
L 332.153469 85.37219 
L 332.349591 103.873848 
L 332.447652 103.899668 
L 332.545713 103.304269 
L 332.643775 101.468885 
L 332.839897 92.983225 
L 332.937958 76.595338 
L 333.134081 86.615116 
L 333.624386 77.817378 
L 333.722448 78.297001 
L 333.820509 78.17739 
L 333.91857 75.906727 
L 334.016631 76.035996 
L 334.114692 75.76018 
L 334.310815 76.193734 
L 334.506937 78.056544 
L 334.604998 77.586629 
L 334.801121 78.284574 
L 334.899182 77.713319 
L 335.095304 80.327783 
L 335.193365 80.059839 
L 335.291427 79.233892 
L 335.389488 79.695473 
L 335.487549 80.954934 
L 335.58561 80.288054 
L 335.683671 78.66489 
L 335.781733 79.30185 
L 335.879794 79.237084 
L 335.977855 79.064289 
L 336.075916 78.360452 
L 336.272038 76.644391 
L 336.3701 77.486237 
L 336.664283 76.09007 
L 336.762344 76.159714 
L 336.860406 75.118058 
L 337.154589 77.995857 
L 337.25265 77.549727 
L 337.448773 80.929901 
L 337.546834 84.788623 
L 337.644895 84.774831 
L 337.742956 84.012443 
L 337.939079 84.755764 
L 338.03714 83.59929 
L 338.331323 75.000457 
L 338.429384 74.026486 
L 338.625507 74.638364 
L 338.723568 73.431412 
L 338.821629 75.125131 
L 339.115813 74.13054 
L 339.311935 74.918078 
L 339.508057 73.209137 
L 339.900302 69.083009 
L 339.998363 67.292023 
L 340.096425 67.376265 
L 340.292547 65.125016 
L 340.390608 65.538865 
L 340.488669 65.995857 
L 340.58673 67.417386 
L 340.684792 65.384515 
L 340.782853 65.464161 
L 340.880914 65.684852 
L 340.978975 65.553531 
L 341.077036 68.399868 
L 341.175098 67.937906 
L 341.273159 66.194898 
L 341.567342 69.425344 
L 341.665403 69.330353 
L 341.763465 70.476676 
L 341.861526 73.048657 
L 341.959587 73.024842 
L 342.057648 73.107816 
L 342.155709 72.835788 
L 342.253771 73.169759 
L 342.351832 73.130199 
L 342.646015 70.217432 
L 342.842138 72.162405 
L 343.136321 69.887065 
L 343.234382 70.114234 
L 343.332444 68.881103 
L 343.528566 69.913883 
L 343.724688 68.88578 
L 343.920811 69.689225 
L 344.018872 69.400959 
L 344.116933 70.503758 
L 344.214994 70.425359 
L 344.313055 70.685574 
L 344.411117 71.703934 
L 344.509178 70.825071 
L 344.607239 71.116443 
L 345.195606 74.624843 
L 345.293667 74.630959 
L 345.391728 74.917221 
L 345.783973 70.208754 
L 345.882034 70.558796 
L 346.176218 73.591063 
L 346.470401 94.850792 
L 346.568463 94.435667 
L 346.666524 93.929909 
L 346.764585 92.804148 
L 347.15683 81.263027 
L 347.451013 76.636848 
L 347.549074 76.91377 
L 347.647136 76.325507 
L 347.843258 72.259616 
L 347.941319 73.021067 
L 348.235503 71.47011 
L 348.431625 72.761194 
L 348.529686 72.335972 
L 348.921931 76.477115 
L 349.019992 75.391448 
L 349.118053 75.679369 
L 349.216115 78.075147 
L 349.314176 77.398119 
L 349.412237 79.029207 
L 349.608359 78.123335 
L 349.804482 76.614872 
L 349.902543 77.371044 
L 350.000604 77.210304 
L 350.098665 77.402454 
L 350.294788 75.477786 
L 350.392849 75.445619 
L 350.785093 72.364353 
L 350.883155 74.654264 
L 350.981216 73.291313 
L 351.177338 76.591578 
L 351.373461 77.96824 
L 351.765705 83.445933 
L 351.863766 83.672322 
L 352.15795 87.375339 
L 352.648256 76.486634 
L 352.746317 76.004634 
L 352.844378 77.340899 
L 352.942439 77.175497 
L 353.040501 77.922626 
L 353.138562 74.107021 
L 353.236623 74.602692 
L 353.432745 76.970052 
L 353.530807 78.000934 
L 353.628868 77.289331 
L 353.726929 77.45537 
L 353.82499 75.789 
L 353.923051 76.250984 
L 354.021113 75.285546 
L 354.119174 75.647451 
L 354.217235 74.904708 
L 354.315296 75.020441 
L 354.413357 76.190031 
L 354.511418 75.365473 
L 354.60948 75.981627 
L 354.707541 75.394276 
L 354.805602 75.655673 
L 355.001724 77.351923 
L 355.099786 77.264349 
L 355.197847 76.357319 
L 355.393969 79.086539 
L 355.49203 78.758453 
L 355.884275 81.446058 
L 356.178459 81.926452 
L 356.27652 80.270449 
L 356.570703 82.421839 
L 356.668764 81.463777 
L 356.864887 78.312503 
L 356.962948 78.503837 
L 357.061009 78.229321 
L 357.15907 77.107489 
L 357.257132 77.489071 
L 357.355193 77.171721 
L 357.551315 75.574059 
L 357.747437 75.490308 
L 357.94356 76.138836 
L 358.139682 75.80972 
L 358.433866 78.015832 
L 358.531927 78.256022 
L 358.82611 80.994158 
L 358.924172 81.462384 
L 359.120294 83.337768 
L 359.316416 84.488184 
L 359.414478 83.737421 
L 359.6106 84.346685 
L 359.708661 84.166435 
L 359.806722 82.275096 
L 359.904783 82.716304 
L 360.100906 81.57255 
L 360.297028 84.151898 
L 360.591212 104.175655 
L 360.689273 102.746664 
L 361.767946 77.063464 
L 361.964068 75.881863 
L 362.160191 72.833022 
L 362.356313 72.499886 
L 362.454374 73.630106 
L 362.552435 72.977188 
L 362.846619 75.437442 
L 362.94468 74.974631 
L 363.042741 75.064618 
L 363.140803 74.902203 
L 363.336925 76.356577 
L 363.434986 77.264973 
L 363.533047 77.036843 
L 363.631108 76.197609 
L 363.925292 77.016258 
L 364.121414 74.968651 
L 364.219476 75.139218 
L 364.317537 75.564807 
L 364.415598 75.404758 
L 364.709781 73.723357 
L 364.807843 74.426771 
L 364.905904 74.230392 
L 365.003965 73.427159 
L 365.102026 73.627759 
L 365.298149 75.300019 
L 365.39621 75.693237 
L 365.984577 84.853437 
L 366.180699 86.73432 
L 366.474883 77.76983 
L 366.572944 78.72165 
L 366.769066 77.596767 
L 366.965189 81.06528 
L 367.06325 80.188695 
L 367.161311 80.560112 
L 367.259372 79.148829 
L 367.651617 83.417187 
L 367.749678 83.385247 
L 367.847739 84.231922 
L 368.043862 83.574589 
L 368.338045 82.659076 
L 368.534168 80.180314 
L 368.632229 80.640055 
L 368.828351 80.17939 
L 368.926412 79.138998 
L 369.024473 80.280254 
L 369.122535 80.145939 
L 369.220596 79.474385 
L 369.514779 82.494985 
L 369.612841 82.407175 
L 370.103146 86.535825 
L 370.299269 87.678566 
L 370.39733 86.744756 
L 370.593452 88.236699 
L 370.887636 85.638503 
L 371.083758 85.648014 
L 371.181819 85.724899 
L 371.279881 85.095557 
L 371.476003 81.386982 
L 371.574064 82.226015 
L 371.770187 79.981206 
L 371.868248 79.888845 
L 371.966309 80.757124 
L 372.162431 79.595731 
L 372.260493 80.08164 
L 372.456615 82.17145 
L 372.554676 82.032422 
L 372.652737 82.154471 
L 372.84886 83.202487 
L 372.946921 82.951299 
L 373.044982 84.108639 
L 373.143043 83.938613 
L 373.339166 81.564359 
L 373.437227 81.965137 
L 373.535288 81.448219 
L 373.633349 82.095625 
L 373.829471 80.276072 
L 374.123655 77.141138 
L 374.221716 77.275637 
L 374.417839 80.184903 
L 374.712022 102.226211 
L 374.810083 101.482046 
L 375.39845 86.75141 
L 375.692634 79.843775 
L 375.790695 79.362258 
L 375.888756 78.046687 
L 375.986817 78.056875 
L 376.379062 76.209237 
L 376.477123 74.167059 
L 376.673246 74.960101 
L 376.771307 74.346243 
L 376.967429 74.889805 
L 377.163552 76.696032 
L 377.261613 76.864411 
L 377.457735 76.55895 
L 377.555796 78.908079 
L 377.653858 78.838623 
L 377.84998 77.156627 
L 377.948041 76.967085 
L 378.340286 75.210005 
L 378.438347 74.832919 
L 378.536408 74.884257 
L 378.634469 73.557219 
L 378.732531 73.687882 
L 379.026714 72.759406 
L 379.124775 72.854432 
L 379.811204 81.887673 
L 380.007326 86.677241 
L 380.105387 86.781786 
L 380.399571 85.903184 
L 380.791815 78.340721 
L 380.889877 78.581354 
L 380.987938 78.133652 
L 381.282121 81.583478 
L 381.380183 82.089193 
L 381.478244 81.399072 
L 381.674366 84.326298 
L 381.772427 83.323893 
L 381.870488 85.177722 
L 381.96855 78.839297 
L 382.066611 82.988667 
L 382.164672 82.62386 
L 382.360794 83.045935 
L 382.458856 84.478346 
L 382.654978 81.139032 
L 382.753039 81.532078 
L 382.8511 81.486352 
L 382.949161 82.009913 
L 383.047223 79.949225 
L 383.243345 83.983589 
L 383.341406 83.022553 
L 383.733651 85.655192 
L 383.929773 83.454888 
L 384.223957 86.192657 
L 384.420079 85.119614 
L 384.51814 85.17117 
L 384.616202 85.880073 
L 384.812324 85.527454 
L 385.106507 81.78092 
L 385.30263 83.017211 
L 385.400691 82.719735 
L 385.694875 75.143028 
L 385.890997 79.529641 
L 385.989058 79.009537 
L 386.087119 79.242487 
L 386.18518 79.140975 
L 386.381303 79.732479 
L 386.479364 79.581037 
L 386.577425 78.514544 
L 386.675486 79.200065 
L 386.871609 82.438357 
L 386.96967 83.464443 
L 387.165792 83.195131 
L 387.263853 83.331492 
L 387.361915 84.206017 
L 387.459976 83.132781 
L 387.558037 83.886714 
L 387.754159 82.787565 
L 387.852221 82.851437 
L 387.950282 82.438316 
L 388.146404 80.401184 
L 388.244465 80.035075 
L 388.342526 79.222889 
L 388.440588 80.583398 
L 388.538649 84.283875 
L 388.832832 106.953545 
L 389.028955 103.431618 
L 389.617322 85.644706 
L 390.009567 78.461227 
L 390.30375 75.461907 
L 390.401811 74.39209 
L 390.499873 75.652782 
L 390.597934 74.983959 
L 390.892117 75.306569 
L 390.990178 74.69097 
L 391.186301 76.734611 
L 391.382423 79.075859 
L 391.480484 79.340249 
L 391.578546 77.958565 
L 391.676607 78.563401 
L 391.774668 78.136502 
L 391.872729 76.827628 
L 391.97079 77.095876 
L 392.068851 76.810067 
L 392.264974 75.427738 
L 392.363035 75.950851 
L 392.461096 74.892657 
L 392.559157 75.343628 
L 392.657219 74.476976 
L 392.75528 74.634906 
L 392.853341 75.125058 
L 393.147524 72.827416 
L 393.245586 73.535507 
L 393.343647 72.953553 
L 393.63783 76.651711 
L 394.128136 84.975965 
L 394.226197 85.674235 
L 394.324259 85.402264 
L 394.42232 86.523274 
L 394.520381 86.496859 
L 395.010687 77.14905 
L 395.30487 80.104559 
L 395.599054 82.613656 
L 395.795176 86.40952 
L 395.991299 84.401744 
L 396.08936 84.680077 
L 396.285482 86.290169 
L 396.383543 86.072258 
L 396.481605 84.651187 
L 396.579666 84.763345 
L 396.677727 84.263869 
L 396.873849 82.055892 
L 396.971911 82.648125 
L 397.069972 81.627965 
L 397.266094 83.446329 
L 397.364155 82.891188 
L 397.462216 81.670633 
L 397.658339 82.217957 
L 397.952522 85.266313 
L 398.148645 83.578006 
L 398.246706 83.616145 
L 398.344767 83.314456 
L 398.540889 84.505623 
L 398.638951 84.11107 
L 398.933134 86.356047 
L 399.129257 84.479603 
L 399.227318 83.598777 
L 399.325379 84.506994 
L 399.42344 82.222721 
L 399.619563 82.82723 
L 399.815685 82.124243 
L 400.011807 80.161121 
L 400.109868 80.376121 
L 400.305991 79.388072 
L 400.404052 79.704566 
L 400.502113 79.366413 
L 400.796297 81.046276 
L 400.992419 82.391198 
L 401.188541 80.782966 
L 401.482725 84.05314 
L 401.678847 85.090385 
L 401.776909 84.173348 
L 401.87497 84.204961 
L 402.071092 82.480505 
L 402.267214 80.180833 
L 402.365276 80.787083 
L 402.659459 86.2378 
L 402.953643 105.483582 
L 403.051704 104.954507 
L 404.032316 78.915077 
L 404.130377 78.639534 
L 404.42456 75.544045 
L 404.522622 75.841933 
L 404.718744 74.72897 
L 404.914866 75.40163 
L 405.012928 74.881603 
L 405.110989 75.020059 
L 405.20905 75.850374 
L 405.307111 73.049935 
L 405.405172 74.229935 
L 405.503233 74.164079 
L 405.601295 74.314421 
L 405.699356 73.65561 
L 405.993539 76.870012 
L 406.091601 77.72682 
L 406.483845 75.108567 
L 406.581906 74.570193 
L 406.679968 63.13718 
L 406.778029 63.496951 
L 406.87609 65.472884 
L 407.072212 64.066167 
L 407.268335 62.269969 
L 407.464457 64.832338 
L 407.562518 66.080835 
L 407.758641 74.53419 
L 408.052824 78.82751 
L 408.347008 84.807544 
L 408.445069 84.366278 
L 408.641191 85.817829 
L 409.033436 78.590934 
L 409.229558 77.488822 
L 409.32762 78.123063 
L 409.621803 81.783536 
L 409.719864 81.333205 
L 410.014048 83.69785 
L 410.308231 82.124801 
L 410.504354 83.347323 
L 410.602415 82.994439 
L 410.896599 80.982744 
L 411.092721 80.415094 
L 411.190782 79.215457 
L 411.386904 80.885036 
L 411.779149 83.591263 
L 411.975272 82.062056 
L 412.465577 85.764523 
L 412.563639 86.408923 
L 413.348128 72.827654 
L 413.446189 74.008642 
L 413.642312 78.233844 
L 414.034556 73.647121 
L 414.230679 75.527527 
L 414.426801 76.483124 
L 414.622923 75.530906 
L 415.015168 79.277244 
L 415.113229 80.782388 
L 415.211291 80.673933 
L 415.505474 82.227593 
L 415.799658 79.591749 
L 415.897719 79.976111 
L 416.191902 84.474525 
L 416.289964 83.836355 
L 416.486086 80.042284 
L 416.584147 80.172983 
L 416.682208 81.97775 
L 416.976392 102.124003 
L 417.074453 101.524186 
L 417.368637 95.404245 
L 417.957004 79.522293 
L 418.349248 75.283466 
L 418.643432 73.04509 
L 418.741493 73.859477 
L 418.839554 73.420116 
L 418.937616 73.445269 
L 419.035677 73.432844 
L 419.231799 74.329629 
L 419.32986 73.97766 
L 419.624044 76.60411 
L 419.722105 76.209446 
L 419.918227 77.026061 
L 420.11435 77.583485 
L 420.212411 77.876725 
L 420.408533 77.407023 
L 420.506594 77.595828 
L 420.702717 77.035657 
L 420.800778 76.589245 
L 420.898839 76.973716 
L 420.9969 76.753108 
L 421.291084 74.433445 
L 421.389145 74.780319 
L 421.585267 74.197026 
L 421.683329 74.546776 
L 422.66394 87.912609 
L 422.860063 85.167011 
L 423.154246 77.938068 
L 423.252308 77.234842 
L 423.644552 80.986587 
L 423.742613 80.475123 
L 423.840675 80.662946 
L 423.938736 80.312848 
L 424.036797 80.931103 
L 424.330981 78.879928 
L 424.429042 78.6615 
L 424.527103 79.097712 
L 424.625164 80.614984 
L 424.821286 79.90111 
L 424.919348 79.545255 
L 425.017409 79.788963 
L 425.311592 77.08001 
L 425.409654 76.96287 
L 425.507715 77.211518 
L 425.605776 76.839168 
L 425.899959 79.623051 
L 425.998021 79.578151 
L 426.194143 80.410899 
L 426.292204 80.632859 
L 426.488327 79.857321 
L 426.684449 82.273072 
L 426.880571 81.162715 
L 426.978633 81.516807 
L 427.272816 80.016809 
L 427.468938 78.517069 
L 427.567 78.43417 
L 427.665061 79.589863 
L 427.861183 78.916504 
L 428.155367 76.952773 
L 428.253428 76.708586 
L 428.351489 75.83445 
L 428.44955 76.302902 
L 428.743734 75.042268 
L 428.841795 75.239012 
L 429.135979 77.969463 
L 429.23404 78.061401 
L 429.332101 77.981153 
L 429.822407 80.983058 
L 430.11659 81.724152 
L 430.214652 79.073028 
L 430.312713 80.16938 
L 430.508835 78.957772 
L 430.704957 81.304845 
L 430.803019 83.275399 
L 430.90108 87.562097 
L 431.097202 102.556765 
L 431.195263 103.276908 
L 431.391386 99.971044 
L 432.077814 81.724534 
L 432.56812 75.910314 
L 432.666181 76.078236 
L 432.764242 75.92943 
L 432.862303 75.562605 
L 432.960365 76.687573 
L 433.156487 75.960521 
L 433.254548 76.926339 
L 433.352609 75.981408 
L 433.646793 77.792816 
L 433.744854 77.931039 
L 433.842915 78.340803 
L 433.940976 77.942509 
L 434.137099 78.638219 
L 434.23516 78.10888 
L 434.431282 75.916165 
L 434.529344 78.385055 
L 434.627405 78.360427 
L 434.725466 78.481276 
L 435.313833 73.200149 
L 435.411894 74.181059 
L 435.509955 73.75142 
L 435.608017 74.082825 
L 436.098323 78.64958 
L 436.784751 88.089817 
L 436.882812 87.401911 
L 437.275057 77.473029 
L 437.373118 76.112307 
L 437.56924 77.603948 
L 437.765363 76.948632 
L 437.863424 77.242375 
L 437.961485 77.005671 
L 438.35373 73.914133 
L 438.549852 71.32486 
L 438.647913 71.428622 
L 438.745974 71.721323 
L 438.844036 70.712697 
L 438.942097 71.1537 
L 439.040158 71.083721 
L 439.138219 71.348036 
L 439.334342 70.767233 
L 439.432403 70.255151 
L 439.530464 70.490679 
L 439.726586 69.382584 
L 439.824647 69.557551 
L 440.02077 69.90786 
L 440.118831 69.861499 
L 440.216892 70.030285 
L 440.314953 70.639196 
L 440.413015 70.062865 
L 440.511076 71.383517 
L 440.609137 70.991087 
L 440.805259 72.077524 
L 440.90332 71.315731 
L 441.001382 71.460727 
L 441.099443 71.203118 
L 441.197504 71.59549 
L 441.295565 71.514425 
L 441.491688 70.389016 
L 441.68781 72.326779 
L 441.785871 71.318036 
L 441.883932 72.178241 
L 441.981993 71.941106 
L 442.178116 68.54607 
L 442.276177 69.503352 
L 442.374238 69.446436 
L 442.570361 68.330543 
L 443.845156 75.838556 
L 443.943217 74.861295 
L 444.139339 76.56189 
L 444.335462 74.249741 
L 444.433523 74.143104 
L 444.629645 72.808191 
L 444.923829 78.943918 
L 445.02189 82.954581 
L 445.218013 98.603822 
L 445.316074 98.218314 
L 445.512196 95.78864 
L 445.610257 94.27869 
L 445.904441 85.873572 
L 446.296686 78.013468 
L 446.394747 77.48713 
L 446.492808 77.656819 
L 446.68893 75.341457 
L 446.786991 76.098621 
L 446.885053 75.33675 
L 446.983114 75.698305 
L 447.081175 76.511236 
L 447.277297 74.514792 
L 447.375359 74.654599 
L 447.47342 75.318623 
L 447.669542 74.389015 
L 447.767603 74.59763 
L 448.061787 77.462715 
L 448.159848 77.02723 
L 448.257909 77.665254 
L 448.552093 75.935485 
L 448.650154 76.368067 
L 448.748215 76.321467 
L 448.846276 75.171073 
L 448.944337 76.356677 
L 449.14046 74.018541 
L 449.238521 74.392827 
L 449.336582 74.284383 
L 449.532705 73.325456 
L 449.630766 73.43254 
L 449.728827 74.659379 
L 449.826888 74.433698 
L 450.121072 75.576606 
L 450.513316 78.364377 
L 450.709439 81.769209 
L 451.003622 85.40251 
L 451.101683 83.747568 
L 451.297806 78.382671 
L 451.493928 77.895066 
L 451.690051 79.067849 
L 451.788112 78.907123 
L 452.082295 79.872597 
L 452.278418 81.558735 
L 452.376479 80.819942 
L 452.47454 81.177209 
L 452.572601 78.6511 
L 452.866785 82.884553 
L 453.259029 78.846078 
L 453.357091 81.236312 
L 453.553213 80.277117 
L 453.749335 80.953145 
L 453.847397 80.846355 
L 454.043519 80.555821 
L 454.14158 80.943596 
L 454.239641 80.721607 
L 454.435764 81.435143 
L 454.729947 84.81514 
L 454.828008 84.911426 
L 454.92607 83.615979 
L 455.024131 83.885153 
L 455.122192 82.777468 
L 455.220253 83.621027 
L 455.416376 82.201391 
L 455.514437 82.21179 
L 455.710559 80.481421 
L 455.906681 80.588822 
L 456.004743 81.024208 
L 456.200865 79.304197 
L 456.298926 79.906559 
L 456.691171 77.874978 
L 456.789232 77.389374 
L 456.887293 77.518207 
L 456.985354 77.065616 
L 457.181477 78.322595 
L 457.47566 80.38417 
L 457.573722 80.067056 
L 457.867905 82.968592 
L 457.965966 83.361104 
L 458.064027 82.857282 
L 458.26015 83.782826 
L 458.554333 80.435428 
L 458.750456 77.399094 
L 458.848517 77.134902 
L 459.044639 80.962666 
L 459.338823 102.644457 
L 459.436884 101.644325 
L 459.534945 101.167573 
L 459.731068 95.126798 
L 460.221373 81.937961 
L 460.515557 76.489708 
L 460.809741 72.340223 
L 460.907802 72.578834 
L 461.005863 72.218155 
L 461.103924 72.462738 
L 461.300046 72.36505 
L 461.398108 71.497043 
L 461.496169 71.592711 
L 461.59423 70.935897 
L 461.692291 72.213199 
L 461.790352 71.894884 
L 461.888414 72.179548 
L 462.182597 73.829047 
L 462.280658 72.99052 
L 462.476781 73.615321 
L 462.574842 73.531485 
L 462.672903 73.669716 
L 462.869025 72.540866 
L 462.967087 72.660546 
L 463.065148 71.626078 
L 463.163209 72.335399 
L 463.26127 72.012682 
L 463.653515 69.020554 
L 463.849637 70.118488 
L 464.143821 72.576888 
L 464.536066 76.70395 
L 464.92831 84.755291 
L 465.124433 85.354962 
L 465.614739 75.881315 
L 465.810861 76.946577 
L 466.006983 78.731293 
L 466.105044 78.218562 
L 466.59535 81.012007 
L 466.791473 78.268932 
L 467.085656 79.595836 
L 467.37984 79.024873 
L 467.477901 77.825187 
L 467.575962 78.11766 
L 467.674023 77.725667 
L 467.772085 78.29199 
L 468.066268 76.994306 
L 468.164329 76.683728 
L 468.26239 76.885742 
L 468.360452 76.802843 
L 468.654635 79.420516 
L 468.850758 78.300007 
L 469.04688 76.338705 
L 469.144941 76.206785 
L 469.243002 75.411137 
L 469.341063 76.042433 
L 469.439125 75.832215 
L 469.635247 73.332041 
L 469.929431 74.868708 
L 470.027492 74.955823 
L 470.125553 74.201909 
L 470.223614 74.51475 
L 470.321675 74.197692 
L 470.615859 72.586376 
L 470.71392 73.574771 
L 470.910042 71.905208 
L 471.106165 70.789153 
L 471.400348 73.47572 
L 471.498409 73.550318 
L 472.086777 80.328711 
L 472.184838 79.993015 
L 472.282899 80.895147 
L 472.577083 79.863475 
L 472.871266 73.6543 
L 472.969327 74.351945 
L 473.067388 75.783166 
L 473.16545 78.93581 
L 473.459633 100.225666 
L 473.655756 96.961129 
L 474.440245 75.53396 
L 474.636367 72.93014 
L 475.028612 68.567116 
L 475.224734 68.679799 
L 475.322796 69.521229 
L 475.616979 66.636062 
L 475.71504 66.98795 
L 476.009224 69.36663 
L 476.205346 70.557253 
L 476.303407 70.692057 
L 476.597591 72.087676 
L 476.695652 72.047101 
L 476.891775 70.609035 
L 477.185958 71.680252 
L 477.38208 69.582003 
L 477.480142 31.746945 
L 477.676264 47.72616 
L 477.774325 48.045385 
L 477.970448 41.159441 
L 478.16657 50.732041 
L 478.754937 58.726464 
L 478.951059 61.7512 
L 479.147182 63.480424 
L 479.343304 61.791953 
L 479.441365 57.689072 
L 480.225855 70.558999 
L 480.323916 70.227587 
L 480.421977 70.553547 
L 480.520038 70.299119 
L 480.716161 62.570993 
L 480.912283 68.958566 
L 481.108405 68.241192 
L 481.304528 68.472736 
L 481.402589 68.516124 
L 481.50065 68.334135 
L 481.696773 67.254218 
L 481.794834 67.515531 
L 481.892895 66.742552 
L 482.089017 68.52737 
L 482.187078 68.013906 
L 482.28514 73.180186 
L 482.383201 68.562009 
L 482.481262 69.605563 
L 482.579323 68.900498 
L 482.677384 69.130481 
L 482.873507 68.459062 
L 482.971568 68.939607 
L 483.069629 68.542918 
L 483.363813 70.526006 
L 483.461874 67.853064 
L 483.657996 69.239672 
L 483.756057 63.440958 
L 483.854119 68.001967 
L 483.95218 67.681201 
L 484.050241 70.346573 
L 484.148302 70.113856 
L 484.344424 69.162513 
L 484.540547 69.104209 
L 484.638608 69.275234 
L 484.83473 68.245479 
L 484.932792 67.978341 
L 485.128914 69.253861 
L 485.226975 68.799711 
L 485.325036 69.732143 
L 485.521159 66.325307 
L 485.717281 67.766983 
L 485.815342 67.612343 
L 485.913403 67.52704 
L 486.109526 73.239106 
L 486.305648 70.894424 
L 486.403709 71.251648 
L 486.50177 72.293311 
L 486.599832 72.232457 
L 486.697893 72.388699 
L 486.992076 69.818064 
L 487.090138 70.376863 
L 487.28626 75.627577 
L 487.580443 96.634577 
L 487.678505 96.276595 
L 488.855239 67.317316 
L 489.051361 66.377356 
L 489.247484 67.126411 
L 489.443606 66.991458 
L 489.541667 68.177412 
L 489.737789 67.506796 
L 490.228095 70.747546 
L 490.326157 70.579907 
L 490.424218 69.03988 
L 490.522279 69.246058 
L 490.718401 68.285337 
L 491.110646 66.830201 
L 491.306768 65.51013 
L 491.40483 66.151587 
L 491.895136 64.089325 
L 492.091258 63.961616 
L 492.581564 70.087245 
L 492.973809 76.377259 
L 493.07187 74.992062 
L 493.169931 74.152138 
L 493.366053 74.662266 
L 493.562176 69.045529 
L 493.758298 65.106854 
L 493.856359 64.760779 
L 494.248604 67.000907 
L 494.346665 66.534945 
L 494.444726 66.816404 
L 494.640849 68.318779 
L 494.73891 67.245587 
L 494.836971 67.896524 
L 495.425338 64.932987 
L 495.523399 63.841054 
L 495.817583 59.273448 
L 495.915644 58.947468 
L 496.013705 59.20682 
L 496.111766 58.93448 
L 496.209828 58.115825 
L 496.602072 58.931867 
L 496.700133 59.763703 
L 496.896256 58.336989 
L 496.994317 57.928986 
L 497.386562 60.793233 
L 497.484623 61.085455 
L 497.876868 59.910172 
L 497.974929 59.906954 
L 498.07299 60.43992 
L 498.171051 60.124734 
L 498.269112 60.18072 
L 498.367174 60.467808 
L 498.857479 58.190199 
L 498.955541 58.59325 
L 499.053602 58.517962 
L 499.151663 58.624037 
L 500.328397 68.176137 
L 500.426458 68.235688 
L 500.622581 69.633307 
L 500.818703 69.939985 
L 500.916764 70.633197 
L 501.014826 70.156721 
L 501.210948 71.488496 
L 501.40707 80.936251 
L 501.603193 94.436084 
L 502.093499 86.187554 
L 502.583804 73.729046 
L 503.172172 67.052429 
L 503.270233 67.504278 
L 503.368294 67.305975 
L 503.466355 68.019322 
L 503.564416 67.394248 
L 503.662477 67.96129 
L 503.956661 67.525883 
L 504.054722 65.874561 
L 504.250845 69.641924 
L 504.348906 69.998938 
L 504.446967 70.968471 
L 504.446967 70.968471 
" clip-path="url(#pbbe5fbbcd7)" style="fill: none; stroke: #6b6b6b; stroke-width: 1.2; stroke-linecap: square"/>
   </g>
  </g>
 </g>
 <defs>
  <clipPath id="p87f3a5e4aa">
   <rect x="62.423438" y="121.18375" width="446.4" height="0"/>
  </clipPath>
  <clipPath id="pbbe5fbbcd7">
   <rect x="62.423438" y="10.30375" width="446.4" height="110.88"/>
  </clipPath>
 </defs>
</svg>
