<?xml version="1.0" encoding="utf-8" standalone="no"?>
<!DOCTYPE svg PUBLIC "-//W3C//DTD SVG 1.1//EN"
  "http://www.w3.org/Graphics/SVG/1.1/DTD/svg11.dtd">
<svg xmlns:xlink="http://www.w3.org/1999/xlink" width="531.772187pt" height="197.775pt" viewBox="0 0 531.772187 197.775" xmlns="http://www.w3.org/2000/svg" version="1.1">
 <metadata>
  <rdf:RDF xmlns:dc="http://purl.org/dc/elements/1.1/" xmlns:cc="http://creativecommons.org/ns#" xmlns:rdf="http://www.w3.org/1999/02/22-rdf-syntax-ns#">
   <cc:Work>
    <dc:type rdf:resource="http://purl.org/dc/dcmitype/StillImage"/>
    <dc:date>2024-04-23T15:58:19.297562</dc:date>
    <dc:format>image/svg+xml</dc:format>
    <dc:creator>
     <cc:Agent>
      <dc:title>Matplotlib v3.8.3, https://matplotlib.org/</dc:title>
     </cc:Agent>
    </dc:creator>
   </cc:Work>
  </rdf:RDF>
 </metadata>
 <defs>
  <style type="text/css">*{stroke-linejoin: round; stroke-linecap: butt}</style>
 </defs>
 <g id="figure_1">
  <g id="patch_1">
   <path d="M 0 197.775 
L 531.772187 197.775 
L 531.772187 -0 
L 0 -0 
L 0 197.775 
z
" style="fill: none"/>
  </g>
  <g id="axes_1">
   <g id="patch_2">
    <path d="M 66.890938 163.8875 
L 513.290937 163.8875 
L 513.290937 25.2875 
L 66.890938 25.2875 
L 66.890938 163.8875 
z
" style="fill: none"/>
   </g>
   <g id="matplotlib.axis_1">
    <g id="xtick_1">
     <g id="line2d_1">
      <defs>
       <path id="m85ebaa4dd5" d="M 0 0 
L 0 3 
" style="stroke: #cccccc; stroke-width: 0.75"/>
      </defs>
      <g>
       <use xlink:href="#m85ebaa4dd5" x="66.890938" y="173.8875" style="fill: #cccccc; stroke: #cccccc; stroke-width: 0.75"/>
      </g>
     </g>
     <g id="text_1">
      <!-- −10000 -->
      <g style="fill: #808080" transform="translate(53.353438 189.095) scale(0.08 -0.08)">
       <defs>
        <path id="Ubuntu-2212" d="M 339 2138 
L 3270 2138 
L 3270 1632 
L 339 1632 
L 339 2138 
z
" transform="scale(0.015625)"/>
        <path id="Ubuntu-31" d="M 595 3520 
Q 960 3661 1305 3881 
Q 1651 4102 1939 4435 
L 2362 4435 
L 2362 0 
L 1766 0 
L 1766 3610 
Q 1690 3539 1578 3462 
Q 1466 3386 1334 3315 
Q 1203 3245 1059 3181 
Q 915 3117 781 3072 
L 595 3520 
z
" transform="scale(0.015625)"/>
        <path id="Ubuntu-30" d="M 320 2221 
Q 320 3334 713 3936 
Q 1107 4538 1805 4538 
Q 2502 4538 2896 3936 
Q 3290 3334 3290 2221 
Q 3290 1107 2896 505 
Q 2502 -96 1805 -96 
Q 1107 -96 713 505 
Q 320 1107 320 2221 
z
M 2662 2221 
Q 2662 2586 2620 2912 
Q 2579 3238 2480 3481 
Q 2381 3725 2214 3869 
Q 2048 4013 1805 4013 
Q 1562 4013 1395 3869 
Q 1229 3725 1129 3481 
Q 1030 3238 988 2912 
Q 947 2586 947 2221 
Q 947 1856 988 1529 
Q 1030 1203 1129 960 
Q 1229 717 1395 573 
Q 1562 429 1805 429 
Q 2048 429 2214 573 
Q 2381 717 2480 960 
Q 2579 1203 2620 1529 
Q 2662 1856 2662 2221 
z
" transform="scale(0.015625)"/>
       </defs>
       <use xlink:href="#Ubuntu-2212"/>
       <use xlink:href="#Ubuntu-31" x="56.399994"/>
       <use xlink:href="#Ubuntu-30" x="112.799988"/>
       <use xlink:href="#Ubuntu-30" x="169.199982"/>
       <use xlink:href="#Ubuntu-30" x="225.599976"/>
       <use xlink:href="#Ubuntu-30" x="281.999969"/>
      </g>
     </g>
    </g>
    <g id="xtick_2">
     <g id="line2d_2">
      <g>
       <use xlink:href="#m85ebaa4dd5" x="141.290937" y="173.8875" style="fill: #cccccc; stroke: #cccccc; stroke-width: 0.75"/>
      </g>
     </g>
     <g id="text_2">
      <!-- −5000 -->
      <g style="fill: #808080" transform="translate(130.009687 189.095) scale(0.08 -0.08)">
       <defs>
        <path id="Ubuntu-35" d="M 1274 2726 
Q 2240 2688 2691 2304 
Q 3142 1920 3142 1261 
Q 3142 966 3043 716 
Q 2944 467 2742 288 
Q 2541 109 2233 6 
Q 1926 -96 1504 -96 
Q 1338 -96 1165 -70 
Q 992 -45 845 -6 
Q 698 32 582 70 
Q 467 109 416 134 
L 531 653 
Q 640 602 886 518 
Q 1133 435 1491 435 
Q 1779 435 1974 499 
Q 2170 563 2291 672 
Q 2413 781 2467 925 
Q 2522 1069 2522 1229 
Q 2522 1472 2438 1661 
Q 2355 1850 2144 1978 
Q 1933 2106 1581 2173 
Q 1229 2240 691 2240 
Q 730 2554 752 2829 
Q 774 3104 793 3366 
Q 813 3629 825 3888 
Q 838 4147 851 4435 
L 2989 4435 
L 2989 3930 
L 1370 3930 
Q 1363 3834 1350 3670 
Q 1338 3507 1325 3331 
Q 1312 3155 1299 2988 
Q 1286 2822 1274 2726 
z
" transform="scale(0.015625)"/>
       </defs>
       <use xlink:href="#Ubuntu-2212"/>
       <use xlink:href="#Ubuntu-35" x="56.399994"/>
       <use xlink:href="#Ubuntu-30" x="112.799988"/>
       <use xlink:href="#Ubuntu-30" x="169.199982"/>
       <use xlink:href="#Ubuntu-30" x="225.599976"/>
      </g>
     </g>
    </g>
    <g id="xtick_3">
     <g id="line2d_3">
      <g>
       <use xlink:href="#m85ebaa4dd5" x="215.690937" y="173.8875" style="fill: #cccccc; stroke: #cccccc; stroke-width: 0.75"/>
      </g>
     </g>
     <g id="text_3">
      <!-- 0 -->
      <g style="fill: #808080" transform="translate(213.434687 189.095) scale(0.08 -0.08)">
       <use xlink:href="#Ubuntu-30"/>
      </g>
     </g>
    </g>
    <g id="xtick_4">
     <g id="line2d_4">
      <g>
       <use xlink:href="#m85ebaa4dd5" x="290.090937" y="173.8875" style="fill: #cccccc; stroke: #cccccc; stroke-width: 0.75"/>
      </g>
     </g>
     <g id="text_4">
      <!-- 5000 -->
      <g style="fill: #808080" transform="translate(281.065938 189.095) scale(0.08 -0.08)">
       <use xlink:href="#Ubuntu-35"/>
       <use xlink:href="#Ubuntu-30" x="56.399994"/>
       <use xlink:href="#Ubuntu-30" x="112.799988"/>
       <use xlink:href="#Ubuntu-30" x="169.199982"/>
      </g>
     </g>
    </g>
    <g id="xtick_5">
     <g id="line2d_5">
      <g>
       <use xlink:href="#m85ebaa4dd5" x="364.490937" y="173.8875" style="fill: #cccccc; stroke: #cccccc; stroke-width: 0.75"/>
      </g>
     </g>
     <g id="text_5">
      <!-- 10000 -->
      <g style="fill: #808080" transform="translate(353.209687 189.095) scale(0.08 -0.08)">
       <use xlink:href="#Ubuntu-31"/>
       <use xlink:href="#Ubuntu-30" x="56.399994"/>
       <use xlink:href="#Ubuntu-30" x="112.799988"/>
       <use xlink:href="#Ubuntu-30" x="169.199982"/>
       <use xlink:href="#Ubuntu-30" x="225.599976"/>
      </g>
     </g>
    </g>
    <g id="xtick_6">
     <g id="line2d_6">
      <g>
       <use xlink:href="#m85ebaa4dd5" x="438.890937" y="173.8875" style="fill: #cccccc; stroke: #cccccc; stroke-width: 0.75"/>
      </g>
     </g>
     <g id="text_6">
      <!-- 15000 -->
      <g style="fill: #808080" transform="translate(427.609687 189.095) scale(0.08 -0.08)">
       <use xlink:href="#Ubuntu-31"/>
       <use xlink:href="#Ubuntu-35" x="56.399994"/>
       <use xlink:href="#Ubuntu-30" x="112.799988"/>
       <use xlink:href="#Ubuntu-30" x="169.199982"/>
       <use xlink:href="#Ubuntu-30" x="225.599976"/>
      </g>
     </g>
    </g>
    <g id="xtick_7">
     <g id="line2d_7">
      <g>
       <use xlink:href="#m85ebaa4dd5" x="513.290937" y="173.8875" style="fill: #cccccc; stroke: #cccccc; stroke-width: 0.75"/>
      </g>
     </g>
     <g id="text_7">
      <!-- 20000 -->
      <g style="fill: #808080" transform="translate(502.009687 189.095) scale(0.08 -0.08)">
       <defs>
        <path id="Ubuntu-32" d="M 2989 3302 
Q 2989 3072 2896 2857 
Q 2803 2643 2649 2435 
Q 2496 2227 2304 2025 
Q 2112 1824 1920 1632 
Q 1811 1523 1667 1376 
Q 1523 1229 1395 1069 
Q 1267 909 1180 761 
Q 1094 614 1094 506 
L 3136 506 
L 3136 0 
L 448 0 
Q 442 38 442 76 
Q 442 115 442 147 
Q 442 448 541 707 
Q 640 966 800 1196 
Q 960 1427 1158 1632 
Q 1357 1837 1549 2029 
Q 1709 2182 1853 2332 
Q 1997 2483 2109 2633 
Q 2221 2784 2288 2944 
Q 2355 3104 2355 3283 
Q 2355 3475 2294 3609 
Q 2234 3744 2131 3833 
Q 2029 3923 1891 3964 
Q 1754 4006 1600 4006 
Q 1414 4006 1260 3955 
Q 1107 3904 985 3837 
Q 864 3770 781 3696 
Q 698 3622 653 3584 
L 358 4006 
Q 416 4070 531 4163 
Q 646 4256 806 4339 
Q 966 4422 1164 4480 
Q 1363 4538 1594 4538 
Q 2291 4538 2640 4214 
Q 2989 3891 2989 3302 
z
" transform="scale(0.015625)"/>
       </defs>
       <use xlink:href="#Ubuntu-32"/>
       <use xlink:href="#Ubuntu-30" x="56.399994"/>
       <use xlink:href="#Ubuntu-30" x="112.799988"/>
       <use xlink:href="#Ubuntu-30" x="169.199982"/>
       <use xlink:href="#Ubuntu-30" x="225.599976"/>
      </g>
     </g>
    </g>
   </g>
   <g id="matplotlib.axis_2">
    <g id="ytick_1">
     <g id="line2d_8">
      <defs>
       <path id="ma0bcf65e1d" d="M 0 0 
L -3 0 
" style="stroke: #cccccc; stroke-width: 0.75"/>
      </defs>
      <g>
       <use xlink:href="#ma0bcf65e1d" x="61.890938" y="163.8875" style="fill: #cccccc; stroke: #cccccc; stroke-width: 0.75"/>
      </g>
     </g>
     <g id="text_8">
      <!-- 0.00000 -->
      <g style="fill: #808080" transform="translate(23.848438 166.99125) scale(0.08 -0.08)">
       <defs>
        <path id="Ubuntu-2e" d="M 1216 346 
Q 1216 173 1101 45 
Q 986 -83 787 -83 
Q 589 -83 473 45 
Q 358 173 358 346 
Q 358 518 473 646 
Q 589 774 787 774 
Q 986 774 1101 646 
Q 1216 518 1216 346 
z
" transform="scale(0.015625)"/>
       </defs>
       <use xlink:href="#Ubuntu-30"/>
       <use xlink:href="#Ubuntu-2e" x="56.399994"/>
       <use xlink:href="#Ubuntu-30" x="80.999985"/>
       <use xlink:href="#Ubuntu-30" x="137.399979"/>
       <use xlink:href="#Ubuntu-30" x="193.799973"/>
       <use xlink:href="#Ubuntu-30" x="250.199966"/>
       <use xlink:href="#Ubuntu-30" x="306.59996"/>
      </g>
     </g>
    </g>
    <g id="ytick_2">
     <g id="line2d_9">
      <g>
       <use xlink:href="#ma0bcf65e1d" x="61.890938" y="136.1675" style="fill: #cccccc; stroke: #cccccc; stroke-width: 0.75"/>
      </g>
     </g>
     <g id="text_9">
      <!-- 0.00005 -->
      <g style="fill: #808080" transform="translate(23.848438 139.27125) scale(0.08 -0.08)">
       <use xlink:href="#Ubuntu-30"/>
       <use xlink:href="#Ubuntu-2e" x="56.399994"/>
       <use xlink:href="#Ubuntu-30" x="80.999985"/>
       <use xlink:href="#Ubuntu-30" x="137.399979"/>
       <use xlink:href="#Ubuntu-30" x="193.799973"/>
       <use xlink:href="#Ubuntu-30" x="250.199966"/>
       <use xlink:href="#Ubuntu-35" x="306.59996"/>
      </g>
     </g>
    </g>
    <g id="ytick_3">
     <g id="line2d_10">
      <g>
       <use xlink:href="#ma0bcf65e1d" x="61.890938" y="108.4475" style="fill: #cccccc; stroke: #cccccc; stroke-width: 0.75"/>
      </g>
     </g>
     <g id="text_10">
      <!-- 0.00010 -->
      <g style="fill: #808080" transform="translate(23.848438 111.55125) scale(0.08 -0.08)">
       <use xlink:href="#Ubuntu-30"/>
       <use xlink:href="#Ubuntu-2e" x="56.399994"/>
       <use xlink:href="#Ubuntu-30" x="80.999985"/>
       <use xlink:href="#Ubuntu-30" x="137.399979"/>
       <use xlink:href="#Ubuntu-30" x="193.799973"/>
       <use xlink:href="#Ubuntu-31" x="250.199966"/>
       <use xlink:href="#Ubuntu-30" x="306.59996"/>
      </g>
     </g>
    </g>
    <g id="ytick_4">
     <g id="line2d_11">
      <g>
       <use xlink:href="#ma0bcf65e1d" x="61.890938" y="80.7275" style="fill: #cccccc; stroke: #cccccc; stroke-width: 0.75"/>
      </g>
     </g>
     <g id="text_11">
      <!-- 0.00015 -->
      <g style="fill: #808080" transform="translate(23.848438 83.83125) scale(0.08 -0.08)">
       <use xlink:href="#Ubuntu-30"/>
       <use xlink:href="#Ubuntu-2e" x="56.399994"/>
       <use xlink:href="#Ubuntu-30" x="80.999985"/>
       <use xlink:href="#Ubuntu-30" x="137.399979"/>
       <use xlink:href="#Ubuntu-30" x="193.799973"/>
       <use xlink:href="#Ubuntu-31" x="250.199966"/>
       <use xlink:href="#Ubuntu-35" x="306.59996"/>
      </g>
     </g>
    </g>
    <g id="ytick_5">
     <g id="line2d_12">
      <g>
       <use xlink:href="#ma0bcf65e1d" x="61.890938" y="53.0075" style="fill: #cccccc; stroke: #cccccc; stroke-width: 0.75"/>
      </g>
     </g>
     <g id="text_12">
      <!-- 0.00020 -->
      <g style="fill: #808080" transform="translate(23.848438 56.11125) scale(0.08 -0.08)">
       <use xlink:href="#Ubuntu-30"/>
       <use xlink:href="#Ubuntu-2e" x="56.399994"/>
       <use xlink:href="#Ubuntu-30" x="80.999985"/>
       <use xlink:href="#Ubuntu-30" x="137.399979"/>
       <use xlink:href="#Ubuntu-30" x="193.799973"/>
       <use xlink:href="#Ubuntu-32" x="250.199966"/>
       <use xlink:href="#Ubuntu-30" x="306.59996"/>
      </g>
     </g>
    </g>
    <g id="ytick_6">
     <g id="line2d_13">
      <g>
       <use xlink:href="#ma0bcf65e1d" x="61.890938" y="25.2875" style="fill: #cccccc; stroke: #cccccc; stroke-width: 0.75"/>
      </g>
     </g>
     <g id="text_13">
      <!-- 0.00025 -->
      <g style="fill: #808080" transform="translate(23.848438 28.39125) scale(0.08 -0.08)">
       <use xlink:href="#Ubuntu-30"/>
       <use xlink:href="#Ubuntu-2e" x="56.399994"/>
       <use xlink:href="#Ubuntu-30" x="80.999985"/>
       <use xlink:href="#Ubuntu-30" x="137.399979"/>
       <use xlink:href="#Ubuntu-30" x="193.799973"/>
       <use xlink:href="#Ubuntu-32" x="250.199966"/>
       <use xlink:href="#Ubuntu-35" x="306.59996"/>
      </g>
     </g>
    </g>
    <g id="text_14">
     <!-- Density -->
     <g style="fill: #505050" transform="translate(14.183438 58.455312) rotate(-90) scale(0.09 -0.09)">
      <defs>
       <path id="Ubuntu-Bold-44" d="M 1510 813 
Q 1581 806 1673 803 
Q 1766 800 1894 800 
Q 2643 800 3004 1177 
Q 3366 1555 3366 2221 
Q 3366 2918 3020 3276 
Q 2675 3635 1926 3635 
Q 1824 3635 1715 3632 
Q 1606 3629 1510 3616 
L 1510 813 
z
M 4397 2221 
Q 4397 1645 4217 1216 
Q 4038 787 3708 505 
Q 3379 224 2905 83 
Q 2432 -58 1843 -58 
Q 1574 -58 1216 -35 
Q 858 -13 512 58 
L 512 4378 
Q 858 4442 1232 4464 
Q 1606 4486 1875 4486 
Q 2445 4486 2909 4358 
Q 3373 4230 3705 3955 
Q 4038 3680 4217 3251 
Q 4397 2822 4397 2221 
z
" transform="scale(0.015625)"/>
       <path id="Ubuntu-Bold-65" d="M 288 1658 
Q 288 2106 425 2442 
Q 563 2778 787 3002 
Q 1011 3226 1302 3341 
Q 1594 3456 1901 3456 
Q 2618 3456 3034 3017 
Q 3450 2579 3450 1728 
Q 3450 1645 3443 1545 
Q 3437 1446 3430 1370 
L 1267 1370 
Q 1299 1075 1542 902 
Q 1786 730 2195 730 
Q 2458 730 2710 778 
Q 2963 826 3123 896 
L 3251 122 
Q 3174 83 3046 44 
Q 2918 6 2761 -22 
Q 2605 -51 2425 -70 
Q 2246 -90 2067 -90 
Q 1613 -90 1277 44 
Q 941 179 720 412 
Q 499 646 393 966 
Q 288 1286 288 1658 
z
M 2528 2022 
Q 2522 2144 2486 2259 
Q 2451 2374 2377 2464 
Q 2304 2554 2192 2611 
Q 2080 2669 1914 2669 
Q 1754 2669 1638 2614 
Q 1523 2560 1446 2470 
Q 1370 2381 1328 2262 
Q 1286 2144 1267 2022 
L 2528 2022 
z
" transform="scale(0.015625)"/>
       <path id="Ubuntu-Bold-6e" d="M 448 3251 
Q 691 3322 1075 3382 
Q 1459 3443 1882 3443 
Q 2310 3443 2595 3331 
Q 2880 3219 3046 3014 
Q 3213 2810 3283 2528 
Q 3354 2246 3354 1901 
L 3354 0 
L 2400 0 
L 2400 1786 
Q 2400 2246 2278 2438 
Q 2157 2630 1824 2630 
Q 1722 2630 1606 2620 
Q 1491 2611 1402 2598 
L 1402 0 
L 448 0 
L 448 3251 
z
" transform="scale(0.015625)"/>
       <path id="Ubuntu-Bold-73" d="M 1414 685 
Q 1677 685 1785 736 
Q 1894 787 1894 934 
Q 1894 1050 1753 1136 
Q 1613 1222 1325 1331 
Q 1101 1414 918 1504 
Q 736 1594 608 1718 
Q 480 1843 409 2016 
Q 339 2189 339 2432 
Q 339 2906 691 3181 
Q 1043 3456 1658 3456 
Q 1965 3456 2246 3401 
Q 2528 3347 2694 3283 
L 2528 2541 
Q 2362 2598 2166 2643 
Q 1971 2688 1728 2688 
Q 1280 2688 1280 2438 
Q 1280 2381 1299 2336 
Q 1318 2291 1376 2249 
Q 1434 2208 1533 2160 
Q 1632 2112 1786 2054 
Q 2099 1939 2304 1827 
Q 2509 1715 2627 1584 
Q 2746 1453 2794 1293 
Q 2842 1133 2842 922 
Q 2842 422 2467 166 
Q 2093 -90 1408 -90 
Q 960 -90 662 -13 
Q 365 64 250 115 
L 410 890 
Q 653 794 909 739 
Q 1165 685 1414 685 
z
" transform="scale(0.015625)"/>
       <path id="Ubuntu-Bold-69" d="M 1402 0 
L 448 0 
L 448 3366 
L 1402 3366 
L 1402 0 
z
M 1491 4339 
Q 1491 4077 1321 3926 
Q 1152 3776 922 3776 
Q 691 3776 521 3926 
Q 352 4077 352 4339 
Q 352 4602 521 4752 
Q 691 4902 922 4902 
Q 1152 4902 1321 4752 
Q 1491 4602 1491 4339 
z
" transform="scale(0.015625)"/>
       <path id="Ubuntu-Bold-74" d="M 416 4205 
L 1370 4358 
L 1370 3366 
L 2515 3366 
L 2515 2573 
L 1370 2573 
L 1370 1389 
Q 1370 1088 1475 909 
Q 1581 730 1901 730 
Q 2054 730 2217 758 
Q 2381 787 2515 838 
L 2650 96 
Q 2477 26 2265 -25 
Q 2054 -77 1747 -77 
Q 1357 -77 1101 28 
Q 845 134 691 323 
Q 538 512 477 781 
Q 416 1050 416 1376 
L 416 4205 
z
" transform="scale(0.015625)"/>
       <path id="Ubuntu-Bold-79" d="M 3437 3366 
Q 3149 2394 2835 1542 
Q 2522 691 2150 -109 
Q 2016 -397 1881 -598 
Q 1747 -800 1587 -931 
Q 1427 -1062 1225 -1123 
Q 1024 -1184 755 -1184 
Q 531 -1184 342 -1142 
Q 154 -1101 32 -1050 
L 198 -288 
Q 346 -339 461 -358 
Q 576 -378 704 -378 
Q 960 -378 1097 -240 
Q 1235 -102 1331 141 
Q 1005 781 678 1577 
Q 352 2374 64 3366 
L 1075 3366 
Q 1139 3117 1225 2825 
Q 1312 2534 1408 2236 
Q 1504 1939 1603 1657 
Q 1702 1376 1792 1146 
Q 1875 1376 1964 1657 
Q 2054 1939 2140 2236 
Q 2227 2534 2307 2825 
Q 2387 3117 2451 3366 
L 3437 3366 
z
" transform="scale(0.015625)"/>
      </defs>
      <use xlink:href="#Ubuntu-Bold-44"/>
      <use xlink:href="#Ubuntu-Bold-65" x="73.699982"/>
      <use xlink:href="#Ubuntu-Bold-6e" x="132.099976"/>
      <use xlink:href="#Ubuntu-Bold-73" x="190.999969"/>
      <use xlink:href="#Ubuntu-Bold-69" x="239.499954"/>
      <use xlink:href="#Ubuntu-Bold-74" x="268.399948"/>
      <use xlink:href="#Ubuntu-Bold-79" x="313.799942"/>
     </g>
    </g>
   </g>
   <g id="PolyCollection_1">
    <defs>
     <path id="m464e4e57b1" d="M 87.147211 -33.89048 
L 87.147211 -33.8875 
L 88.461155 -33.8875 
L 89.775098 -33.8875 
L 91.089041 -33.8875 
L 92.402985 -33.8875 
L 93.716928 -33.8875 
L 95.030871 -33.8875 
L 96.344814 -33.8875 
L 97.658758 -33.8875 
L 98.972701 -33.8875 
L 100.286644 -33.8875 
L 101.600588 -33.8875 
L 102.914531 -33.8875 
L 104.228474 -33.8875 
L 105.542418 -33.8875 
L 106.856361 -33.8875 
L 108.170304 -33.8875 
L 109.484248 -33.8875 
L 110.798191 -33.8875 
L 112.112134 -33.8875 
L 113.426077 -33.8875 
L 114.740021 -33.8875 
L 116.053964 -33.8875 
L 117.367907 -33.8875 
L 118.681851 -33.8875 
L 119.995794 -33.8875 
L 121.309737 -33.8875 
L 122.623681 -33.8875 
L 123.937624 -33.8875 
L 125.251567 -33.8875 
L 126.56551 -33.8875 
L 127.879454 -33.8875 
L 129.193397 -33.8875 
L 130.50734 -33.8875 
L 131.821284 -33.8875 
L 133.135227 -33.8875 
L 134.44917 -33.8875 
L 135.763114 -33.8875 
L 137.077057 -33.8875 
L 138.391 -33.8875 
L 139.704943 -33.8875 
L 141.018887 -33.8875 
L 142.33283 -33.8875 
L 143.646773 -33.8875 
L 144.960717 -33.8875 
L 146.27466 -33.8875 
L 147.588603 -33.8875 
L 148.902547 -33.8875 
L 150.21649 -33.8875 
L 151.530433 -33.8875 
L 152.844376 -33.8875 
L 154.15832 -33.8875 
L 155.472263 -33.8875 
L 156.786206 -33.8875 
L 158.10015 -33.8875 
L 159.414093 -33.8875 
L 160.728036 -33.8875 
L 162.04198 -33.8875 
L 163.355923 -33.8875 
L 164.669866 -33.8875 
L 165.98381 -33.8875 
L 167.297753 -33.8875 
L 168.611696 -33.8875 
L 169.925639 -33.8875 
L 171.239583 -33.8875 
L 172.553526 -33.8875 
L 173.867469 -33.8875 
L 175.181413 -33.8875 
L 176.495356 -33.8875 
L 177.809299 -33.8875 
L 179.123243 -33.8875 
L 180.437186 -33.8875 
L 181.751129 -33.8875 
L 183.065072 -33.8875 
L 184.379016 -33.8875 
L 185.692959 -33.8875 
L 187.006902 -33.8875 
L 188.320846 -33.8875 
L 189.634789 -33.8875 
L 190.948732 -33.8875 
L 192.262676 -33.8875 
L 193.576619 -33.8875 
L 194.890562 -33.8875 
L 196.204505 -33.8875 
L 197.518449 -33.8875 
L 198.832392 -33.8875 
L 200.146335 -33.8875 
L 201.460279 -33.8875 
L 202.774222 -33.8875 
L 204.088165 -33.8875 
L 205.402109 -33.8875 
L 206.716052 -33.8875 
L 208.029995 -33.8875 
L 209.343938 -33.8875 
L 210.657882 -33.8875 
L 211.971825 -33.8875 
L 213.285768 -33.8875 
L 214.599712 -33.8875 
L 215.913655 -33.8875 
L 217.227598 -33.8875 
L 218.541542 -33.8875 
L 219.855485 -33.8875 
L 221.169428 -33.8875 
L 222.483371 -33.8875 
L 223.797315 -33.8875 
L 225.111258 -33.8875 
L 226.425201 -33.8875 
L 227.739145 -33.8875 
L 229.053088 -33.8875 
L 230.367031 -33.8875 
L 231.680975 -33.8875 
L 232.994918 -33.8875 
L 234.308861 -33.8875 
L 235.622805 -33.8875 
L 236.936748 -33.8875 
L 238.250691 -33.8875 
L 239.564634 -33.8875 
L 240.878578 -33.8875 
L 242.192521 -33.8875 
L 243.506464 -33.8875 
L 244.820408 -33.8875 
L 246.134351 -33.8875 
L 247.448294 -33.8875 
L 248.762238 -33.8875 
L 250.076181 -33.8875 
L 251.390124 -33.8875 
L 252.704067 -33.8875 
L 254.018011 -33.8875 
L 255.331954 -33.8875 
L 256.645897 -33.8875 
L 257.959841 -33.8875 
L 259.273784 -33.8875 
L 260.587727 -33.8875 
L 261.901671 -33.8875 
L 263.215614 -33.8875 
L 264.529557 -33.8875 
L 265.8435 -33.8875 
L 267.157444 -33.8875 
L 268.471387 -33.8875 
L 269.78533 -33.8875 
L 271.099274 -33.8875 
L 272.413217 -33.8875 
L 273.72716 -33.8875 
L 275.041104 -33.8875 
L 276.355047 -33.8875 
L 277.66899 -33.8875 
L 278.982933 -33.8875 
L 280.296877 -33.8875 
L 281.61082 -33.8875 
L 282.924763 -33.8875 
L 284.238707 -33.8875 
L 285.55265 -33.8875 
L 286.866593 -33.8875 
L 288.180537 -33.8875 
L 289.49448 -33.8875 
L 290.808423 -33.8875 
L 292.122367 -33.8875 
L 293.43631 -33.8875 
L 294.750253 -33.8875 
L 296.064196 -33.8875 
L 297.37814 -33.8875 
L 298.692083 -33.8875 
L 300.006026 -33.8875 
L 301.31997 -33.8875 
L 302.633913 -33.8875 
L 303.947856 -33.8875 
L 305.2618 -33.8875 
L 306.575743 -33.8875 
L 307.889686 -33.8875 
L 309.203629 -33.8875 
L 310.517573 -33.8875 
L 311.831516 -33.8875 
L 313.145459 -33.8875 
L 314.459403 -33.8875 
L 315.773346 -33.8875 
L 317.087289 -33.8875 
L 318.401233 -33.8875 
L 319.715176 -33.8875 
L 321.029119 -33.8875 
L 322.343062 -33.8875 
L 323.657006 -33.8875 
L 324.970949 -33.8875 
L 326.284892 -33.8875 
L 327.598836 -33.8875 
L 328.912779 -33.8875 
L 330.226722 -33.8875 
L 331.540666 -33.8875 
L 332.854609 -33.8875 
L 334.168552 -33.8875 
L 335.482495 -33.8875 
L 336.796439 -33.8875 
L 338.110382 -33.8875 
L 339.424325 -33.8875 
L 340.738269 -33.8875 
L 342.052212 -33.8875 
L 343.366155 -33.8875 
L 344.680099 -33.8875 
L 345.994042 -33.8875 
L 347.307985 -33.8875 
L 348.621928 -33.8875 
L 348.621928 -33.888904 
L 348.621928 -33.888904 
L 347.307985 -33.890183 
L 345.994042 -33.892389 
L 344.680099 -33.896002 
L 343.366155 -33.901627 
L 342.052212 -33.90996 
L 340.738269 -33.921731 
L 339.424325 -33.937637 
L 338.110382 -33.958291 
L 336.796439 -33.98422 
L 335.482495 -34.015917 
L 334.168552 -34.053925 
L 332.854609 -34.098882 
L 331.540666 -34.151444 
L 330.226722 -34.212015 
L 328.912779 -34.280312 
L 327.598836 -34.354897 
L 326.284892 -34.432889 
L 324.970949 -34.510087 
L 323.657006 -34.581632 
L 322.343062 -34.643137 
L 321.029119 -34.692022 
L 319.715176 -34.728638 
L 318.401233 -34.756807 
L 317.087289 -34.783532 
L 315.773346 -34.817914 
L 314.459403 -34.869525 
L 313.145459 -34.94667 
L 311.831516 -35.054962 
L 310.517573 -35.196529 
L 309.203629 -35.370011 
L 307.889686 -35.571303 
L 306.575743 -35.794862 
L 305.2618 -36.035295 
L 303.947856 -36.288905 
L 302.633913 -36.554884 
L 301.31997 -36.835883 
L 300.006026 -37.137853 
L 298.692083 -37.46916 
L 297.37814 -37.839206 
L 296.064196 -38.256872 
L 294.750253 -38.72914 
L 293.43631 -39.260173 
L 292.122367 -39.850988 
L 290.808423 -40.49968 
L 289.49448 -41.202051 
L 288.180537 -41.952485 
L 286.866593 -42.744923 
L 285.55265 -43.573875 
L 284.238707 -44.435433 
L 282.924763 -45.328164 
L 281.61082 -46.253699 
L 280.296877 -47.216731 
L 278.982933 -48.22423 
L 277.66899 -49.283941 
L 276.355047 -50.402592 
L 275.041104 -51.58453 
L 273.72716 -52.831523 
L 272.413217 -54.144127 
L 271.099274 -55.52436 
L 269.78533 -56.978844 
L 268.471387 -58.521185 
L 267.157444 -60.17244 
L 265.8435 -61.95902 
L 264.529557 -63.908038 
L 263.215614 -66.040827 
L 261.901671 -68.365947 
L 260.587727 -70.873368 
L 259.273784 -73.531582 
L 257.959841 -76.289057 
L 256.645897 -79.080521 
L 255.331954 -81.837221 
L 254.018011 -84.498914 
L 252.704067 -87.024486 
L 251.390124 -89.39827 
L 250.076181 -91.63042 
L 248.762238 -93.75168 
L 247.448294 -95.804635 
L 246.134351 -97.834463 
L 244.820408 -99.881736 
L 243.506464 -101.978517 
L 242.192521 -104.147396 
L 240.878578 -106.402066 
L 239.564634 -108.74794 
L 238.250691 -111.181965 
L 236.936748 -113.691691 
L 235.622805 -116.254262 
L 234.308861 -118.836095 
L 232.994918 -121.393714 
L 231.680975 -123.87592 
L 230.367031 -126.227374 
L 229.053088 -128.393692 
L 227.739145 -130.328023 
L 226.425201 -131.998515 
L 225.111258 -133.395252 
L 223.797315 -134.534485 
L 222.483371 -135.457891 
L 221.169428 -136.225552 
L 219.855485 -136.903096 
L 218.541542 -137.545549 
L 217.227598 -138.182035 
L 215.913655 -138.805794 
L 214.599712 -139.372896 
L 213.285768 -139.810598 
L 211.971825 -140.033391 
L 210.657882 -139.962327 
L 209.343938 -139.542156 
L 208.029995 -138.751505 
L 206.716052 -137.603644 
L 205.402109 -136.138428 
L 204.088165 -134.408694 
L 202.774222 -132.46586 
L 201.460279 -130.349192 
L 200.146335 -128.081496 
L 198.832392 -125.671576 
L 197.518449 -123.121484 
L 196.204505 -120.435305 
L 194.890562 -117.62609 
L 193.576619 -114.718625 
L 192.262676 -111.747429 
L 190.948732 -108.751103 
L 189.634789 -105.765315 
L 188.320846 -102.817022 
L 187.006902 -99.921857 
L 185.692959 -97.085335 
L 184.379016 -94.307058 
L 183.065072 -91.585986 
L 181.751129 -88.924499 
L 180.437186 -86.329569 
L 179.123243 -83.810624 
L 177.809299 -81.375195 
L 176.495356 -79.024527 
L 175.181413 -76.751518 
L 173.867469 -74.542488 
L 172.553526 -72.382662 
L 171.239583 -70.263563 
L 169.925639 -68.189468 
L 168.611696 -66.180187 
L 167.297753 -64.268669 
L 165.98381 -62.493791 
L 164.669866 -60.890408 
L 163.355923 -59.479633 
L 162.04198 -58.262132 
L 160.728036 -57.216134 
L 159.414093 -56.300351 
L 158.10015 -55.460735 
L 156.786206 -54.63928 
L 155.472263 -53.782934 
L 154.15832 -52.851064 
L 152.844376 -51.820448 
L 151.530433 -50.687286 
L 150.21649 -49.466244 
L 148.902547 -48.186927 
L 147.588603 -46.888587 
L 146.27466 -45.614034 
L 144.960717 -44.403774 
L 143.646773 -43.291191 
L 142.33283 -42.299221 
L 141.018887 -41.438685 
L 139.704943 -40.708203 
L 138.391 -40.095524 
L 137.077057 -39.580086 
L 135.763114 -39.136513 
L 134.44917 -38.738593 
L 133.135227 -38.363131 
L 131.821284 -37.993004 
L 130.50734 -37.618879 
L 129.193397 -37.239357 
L 127.879454 -36.859679 
L 126.56551 -36.489455 
L 125.251567 -36.14003 
L 123.937624 -35.822077 
L 122.623681 -35.543847 
L 121.309737 -35.31024 
L 119.995794 -35.122641 
L 118.681851 -34.979298 
L 117.367907 -34.87595 
L 116.053964 -34.80647 
L 114.740021 -34.763419 
L 113.426077 -34.738515 
L 112.112134 -34.723123 
L 110.798191 -34.708861 
L 109.484248 -34.688346 
L 108.170304 -34.655976 
L 106.856361 -34.608598 
L 105.542418 -34.54584 
L 104.228474 -34.470006 
L 102.914531 -34.385495 
L 101.600588 -34.297884 
L 100.286644 -34.212862 
L 98.972701 -34.13529 
L 97.658758 -34.068542 
L 96.344814 -34.01426 
L 95.030871 -33.972476 
L 93.716928 -33.941998 
L 92.402985 -33.920914 
L 91.089041 -33.907075 
L 89.775098 -33.898451 
L 88.461155 -33.893348 
L 87.147211 -33.89048 
z
" style="stroke: #5b5b5b; stroke-width: 0.01"/>
    </defs>
    <g clip-path="url(#p3d413f820e)">
     <use xlink:href="#m464e4e57b1" x="0" y="197.775" style="fill: #5b5b5b; fill-opacity: 0.25; stroke: #5b5b5b; stroke-width: 0.01"/>
    </g>
   </g>
   <g id="line2d_14">
    <path d="M 94.134478 163.885295 
L 104.698548 163.767022 
L 113.50194 163.388089 
L 118.783975 162.98112 
L 125.826688 162.140373 
L 131.108723 161.271855 
L 139.912115 159.529262 
L 143.433471 159.096136 
L 148.715506 158.518146 
L 150.476185 158.197457 
L 152.236863 157.763524 
L 155.75822 156.572335 
L 161.040255 154.584086 
L 169.843647 151.765252 
L 171.604325 150.809689 
L 173.365003 149.6106 
L 175.125682 148.160585 
L 176.88636 146.448731 
L 178.647038 144.448325 
L 180.407717 142.122938 
L 182.168395 139.448022 
L 183.929073 136.433412 
L 187.45043 129.61184 
L 190.971787 122.149059 
L 194.493143 114.018544 
L 196.253822 109.548212 
L 199.775178 99.705 
L 205.057213 84.359965 
L 206.817892 79.747954 
L 208.57857 75.559295 
L 210.339248 71.781728 
L 212.099927 68.344478 
L 215.621283 62.16953 
L 219.14264 56.752146 
L 220.903318 54.420118 
L 222.663997 52.439107 
L 224.424675 50.895105 
L 226.185353 49.870443 
L 227.946032 49.423513 
L 229.70671 49.558758 
L 231.467388 50.199811 
L 233.228067 51.185491 
L 236.749423 53.353978 
L 240.27078 55.003037 
L 242.031458 55.866136 
L 243.792137 57.150469 
L 245.552815 59.19731 
L 247.313493 62.265965 
L 249.074172 66.467013 
L 250.83485 71.747401 
L 252.595528 77.921396 
L 256.116885 91.852992 
L 259.638242 105.890027 
L 261.39892 112.225605 
L 263.159598 117.784298 
L 264.920277 122.418129 
L 266.680955 126.093542 
L 268.441633 128.901028 
L 270.202312 131.031944 
L 271.96299 132.729385 
L 277.245025 137.347661 
L 279.005704 139.132043 
L 282.52706 143.12647 
L 286.048417 147.255075 
L 289.569774 150.961141 
L 291.330452 152.544597 
L 293.09113 153.922293 
L 294.851809 155.088347 
L 296.612487 156.043442 
L 298.373165 156.792663 
L 300.133844 157.343879 
L 301.894522 157.707334 
L 303.6552 157.897951 
L 307.176557 157.874201 
L 310.697914 157.650558 
L 312.458592 157.630115 
L 314.21927 157.753596 
L 315.979949 158.059031 
L 317.740627 158.55281 
L 321.261984 159.952827 
L 324.78334 161.411586 
L 326.544019 161.984332 
L 328.304697 162.408389 
L 331.826054 162.867356 
L 337.108089 163.113195 
L 351.193515 163.55886 
L 359.996907 163.474073 
L 367.03962 163.533608 
L 386.407082 163.732304 
L 423.381327 163.782988 
L 432.184719 163.802907 
L 444.509467 163.8861 
L 444.509467 163.8861 
" clip-path="url(#p3d413f820e)" style="fill: none; stroke: #5b5b5b; stroke-width: 1.2; stroke-linecap: square"/>
   </g>
   <g id="patch_3">
    <path d="M 61.890938 163.8875 
L 61.890938 25.2875 
" style="fill: none; stroke: #cccccc; stroke-width: 0.75; stroke-linejoin: miter; stroke-linecap: square"/>
   </g>
   <g id="patch_4">
    <path d="M 66.890938 173.8875 
L 513.290937 173.8875 
" style="fill: none; stroke: #cccccc; stroke-width: 0.75; stroke-linejoin: miter; stroke-linecap: square"/>
   </g>
   <g id="legend_1">
    <g id="line2d_15">
     <path d="M 74.090938 13.8075 
L 82.090938 13.8075 
L 90.090938 13.8075 
" style="fill: none; stroke: #5b5b5b; stroke-width: 1.2; stroke-linecap: square"/>
    </g>
    <g id="text_15">
     <!-- Residuals -->
     <g style="fill: #4b4b4b" transform="translate(96.490938 16.6075) scale(0.08 -0.08)">
      <defs>
       <path id="Ubuntu-52" d="M 2720 1856 
Q 2822 1728 2979 1520 
Q 3136 1312 3302 1059 
Q 3469 806 3632 531 
Q 3795 256 3910 0 
L 3232 0 
Q 3104 243 2953 492 
Q 2803 742 2649 969 
Q 2496 1197 2345 1395 
Q 2195 1594 2074 1741 
Q 1990 1734 1904 1734 
Q 1818 1734 1728 1734 
L 1171 1734 
L 1171 0 
L 550 0 
L 550 4371 
Q 813 4435 1136 4457 
Q 1459 4480 1728 4480 
Q 2662 4480 3152 4128 
Q 3642 3776 3642 3078 
Q 3642 2637 3408 2323 
Q 3174 2010 2720 1856 
z
M 1779 3936 
Q 1382 3936 1171 3917 
L 1171 2246 
L 1613 2246 
Q 1933 2246 2189 2278 
Q 2445 2310 2621 2400 
Q 2797 2490 2893 2653 
Q 2989 2816 2989 3085 
Q 2989 3334 2893 3500 
Q 2797 3667 2633 3763 
Q 2470 3859 2249 3897 
Q 2029 3936 1779 3936 
z
" transform="scale(0.015625)"/>
       <path id="Ubuntu-65" d="M 326 1658 
Q 326 2099 454 2428 
Q 582 2758 793 2976 
Q 1005 3194 1280 3302 
Q 1555 3411 1843 3411 
Q 2515 3411 2873 2992 
Q 3232 2573 3232 1715 
Q 3232 1677 3232 1616 
Q 3232 1555 3226 1504 
L 947 1504 
Q 986 986 1248 717 
Q 1510 448 2067 448 
Q 2381 448 2595 502 
Q 2810 557 2918 608 
L 3002 109 
Q 2893 51 2621 -13 
Q 2349 -77 2003 -77 
Q 1568 -77 1251 54 
Q 934 186 729 416 
Q 525 646 425 963 
Q 326 1280 326 1658 
z
M 2611 1984 
Q 2618 2387 2410 2646 
Q 2202 2906 1837 2906 
Q 1632 2906 1475 2826 
Q 1318 2746 1209 2618 
Q 1101 2490 1040 2323 
Q 979 2157 960 1984 
L 2611 1984 
z
" transform="scale(0.015625)"/>
       <path id="Ubuntu-73" d="M 1286 429 
Q 1651 429 1827 525 
Q 2003 621 2003 832 
Q 2003 1050 1830 1178 
Q 1658 1306 1261 1466 
Q 1069 1542 893 1622 
Q 717 1702 589 1811 
Q 461 1920 384 2073 
Q 307 2227 307 2451 
Q 307 2893 633 3152 
Q 960 3411 1523 3411 
Q 1664 3411 1805 3395 
Q 1946 3379 2067 3356 
Q 2189 3334 2281 3308 
Q 2374 3283 2426 3264 
L 2317 2752 
Q 2221 2803 2016 2857 
Q 1811 2912 1523 2912 
Q 1274 2912 1088 2813 
Q 902 2714 902 2502 
Q 902 2394 944 2310 
Q 986 2227 1072 2160 
Q 1158 2093 1286 2035 
Q 1414 1978 1594 1914 
Q 1830 1824 2016 1737 
Q 2202 1651 2333 1536 
Q 2464 1421 2534 1257 
Q 2605 1094 2605 858 
Q 2605 397 2262 160 
Q 1920 -77 1286 -77 
Q 845 -77 595 -3 
Q 346 70 256 109 
L 365 621 
Q 467 582 691 505 
Q 915 429 1286 429 
z
" transform="scale(0.015625)"/>
       <path id="Ubuntu-69" d="M 1107 0 
L 512 0 
L 512 3328 
L 1107 3328 
L 1107 0 
z
M 806 3930 
Q 646 3930 534 4035 
Q 422 4141 422 4320 
Q 422 4499 534 4604 
Q 646 4710 806 4710 
Q 966 4710 1078 4604 
Q 1190 4499 1190 4320 
Q 1190 4141 1078 4035 
Q 966 3930 806 3930 
z
" transform="scale(0.015625)"/>
       <path id="Ubuntu-64" d="M 2662 2624 
Q 2554 2714 2349 2797 
Q 2144 2880 1901 2880 
Q 1645 2880 1462 2787 
Q 1280 2694 1165 2531 
Q 1050 2368 998 2144 
Q 947 1920 947 1664 
Q 947 1082 1235 765 
Q 1523 448 2003 448 
Q 2246 448 2409 470 
Q 2573 493 2662 518 
L 2662 2624 
z
M 2662 4864 
L 3258 4966 
L 3258 96 
Q 3053 38 2733 -19 
Q 2413 -77 1997 -77 
Q 1613 -77 1305 44 
Q 998 166 780 390 
Q 563 614 444 937 
Q 326 1261 326 1664 
Q 326 2048 425 2368 
Q 525 2688 717 2918 
Q 909 3149 1187 3277 
Q 1466 3405 1824 3405 
Q 2112 3405 2333 3328 
Q 2554 3251 2662 3181 
L 2662 4864 
z
" transform="scale(0.015625)"/>
       <path id="Ubuntu-75" d="M 3162 96 
Q 2957 45 2621 -12 
Q 2285 -70 1843 -70 
Q 1459 -70 1196 42 
Q 934 154 774 358 
Q 614 563 544 841 
Q 474 1120 474 1459 
L 474 3328 
L 1069 3328 
L 1069 1587 
Q 1069 979 1261 716 
Q 1453 454 1907 454 
Q 2003 454 2105 460 
Q 2208 467 2297 476 
Q 2387 486 2460 496 
Q 2534 506 2566 518 
L 2566 3328 
L 3162 3328 
L 3162 96 
z
" transform="scale(0.015625)"/>
       <path id="Ubuntu-61" d="M 1638 429 
Q 1850 429 2013 438 
Q 2176 448 2285 474 
L 2285 1466 
Q 2221 1498 2077 1520 
Q 1933 1542 1728 1542 
Q 1594 1542 1443 1523 
Q 1293 1504 1168 1443 
Q 1043 1382 960 1276 
Q 877 1171 877 998 
Q 877 678 1081 553 
Q 1286 429 1638 429 
z
M 1587 3411 
Q 1946 3411 2192 3318 
Q 2438 3226 2588 3056 
Q 2739 2886 2803 2652 
Q 2867 2419 2867 2138 
L 2867 58 
Q 2790 45 2652 22 
Q 2515 0 2342 -19 
Q 2170 -38 1968 -54 
Q 1766 -70 1568 -70 
Q 1286 -70 1049 -12 
Q 813 45 640 169 
Q 467 294 371 499 
Q 275 704 275 992 
Q 275 1267 387 1465 
Q 499 1664 691 1785 
Q 883 1907 1139 1964 
Q 1395 2022 1677 2022 
Q 1766 2022 1862 2012 
Q 1958 2003 2044 1987 
Q 2131 1971 2195 1958 
Q 2259 1946 2285 1939 
L 2285 2106 
Q 2285 2253 2253 2397 
Q 2221 2541 2137 2653 
Q 2054 2765 1910 2832 
Q 1766 2899 1536 2899 
Q 1242 2899 1021 2857 
Q 800 2816 691 2771 
L 621 3264 
Q 736 3315 1005 3363 
Q 1274 3411 1587 3411 
z
" transform="scale(0.015625)"/>
       <path id="Ubuntu-6c" d="M 1510 -64 
Q 960 -51 729 173 
Q 499 397 499 870 
L 499 4864 
L 1094 4966 
L 1094 966 
Q 1094 819 1120 723 
Q 1146 627 1203 569 
Q 1261 512 1357 483 
Q 1453 454 1594 435 
L 1510 -64 
z
" transform="scale(0.015625)"/>
      </defs>
      <use xlink:href="#Ubuntu-52"/>
      <use xlink:href="#Ubuntu-65" x="62.899994"/>
      <use xlink:href="#Ubuntu-73" x="118.799988"/>
      <use xlink:href="#Ubuntu-69" x="163.399979"/>
      <use xlink:href="#Ubuntu-64" x="188.699966"/>
      <use xlink:href="#Ubuntu-75" x="247.59996"/>
      <use xlink:href="#Ubuntu-61" x="304.999954"/>
      <use xlink:href="#Ubuntu-6c" x="357.199951"/>
      <use xlink:href="#Ubuntu-73" x="384.499939"/>
     </g>
    </g>
    <g id="patch_5">
     <path d="M 146.819687 16.6075 
L 162.819687 16.6075 
L 162.819687 11.0075 
L 146.819687 11.0075 
z
" style="fill: #5b5b5b; fill-opacity: 0.25; stroke: #5b5b5b; stroke-width: 0.01; stroke-linejoin: miter"/>
    </g>
    <g id="text_16">
     <!-- Normal -->
     <g style="fill: #4b4b4b" transform="translate(169.219687 16.6075) scale(0.08 -0.08)">
      <defs>
       <path id="Ubuntu-4e" d="M 3590 0 
Q 3450 237 3267 531 
Q 3085 826 2873 1142 
Q 2662 1459 2435 1785 
Q 2208 2112 1984 2416 
Q 1760 2720 1549 2989 
Q 1338 3258 1158 3462 
L 1158 0 
L 550 0 
L 550 4435 
L 1043 4435 
Q 1344 4115 1686 3689 
Q 2029 3264 2365 2813 
Q 2701 2362 2998 1926 
Q 3296 1491 3501 1152 
L 3501 4435 
L 4109 4435 
L 4109 0 
L 3590 0 
z
" transform="scale(0.015625)"/>
       <path id="Ubuntu-6f" d="M 3450 1664 
Q 3450 1267 3334 947 
Q 3219 627 3011 396 
Q 2803 166 2515 41 
Q 2227 -83 1888 -83 
Q 1549 -83 1261 41 
Q 973 166 765 396 
Q 557 627 441 947 
Q 326 1267 326 1664 
Q 326 2054 441 2377 
Q 557 2701 765 2931 
Q 973 3162 1261 3286 
Q 1549 3411 1888 3411 
Q 2227 3411 2515 3286 
Q 2803 3162 3011 2931 
Q 3219 2701 3334 2377 
Q 3450 2054 3450 1664 
z
M 2829 1664 
Q 2829 2227 2576 2556 
Q 2323 2886 1888 2886 
Q 1453 2886 1200 2556 
Q 947 2227 947 1664 
Q 947 1101 1200 771 
Q 1453 442 1888 442 
Q 2323 442 2576 771 
Q 2829 1101 2829 1664 
z
" transform="scale(0.015625)"/>
       <path id="Ubuntu-72" d="M 1741 3398 
Q 1818 3398 1917 3388 
Q 2016 3379 2112 3363 
Q 2208 3347 2288 3331 
Q 2368 3315 2406 3302 
L 2304 2784 
Q 2234 2810 2070 2845 
Q 1907 2880 1651 2880 
Q 1485 2880 1321 2845 
Q 1158 2810 1107 2797 
L 1107 0 
L 512 0 
L 512 3187 
Q 723 3264 1036 3331 
Q 1350 3398 1741 3398 
z
" transform="scale(0.015625)"/>
       <path id="Ubuntu-6d" d="M 512 3232 
Q 717 3283 1053 3340 
Q 1389 3398 1830 3398 
Q 2150 3398 2368 3312 
Q 2586 3226 2733 3059 
Q 2778 3091 2874 3148 
Q 2970 3206 3110 3260 
Q 3251 3315 3424 3356 
Q 3597 3398 3795 3398 
Q 4179 3398 4422 3286 
Q 4666 3174 4803 2969 
Q 4941 2765 4989 2483 
Q 5037 2202 5037 1869 
L 5037 0 
L 4442 0 
L 4442 1741 
Q 4442 2035 4413 2246 
Q 4384 2458 4304 2598 
Q 4224 2739 4086 2806 
Q 3949 2874 3731 2874 
Q 3430 2874 3235 2794 
Q 3040 2714 2970 2650 
Q 3021 2483 3046 2284 
Q 3072 2086 3072 1869 
L 3072 0 
L 2477 0 
L 2477 1741 
Q 2477 2035 2445 2246 
Q 2413 2458 2333 2598 
Q 2253 2739 2115 2806 
Q 1978 2874 1766 2874 
Q 1677 2874 1574 2867 
Q 1472 2861 1379 2851 
Q 1286 2842 1209 2829 
Q 1133 2816 1107 2810 
L 1107 0 
L 512 0 
L 512 3232 
z
" transform="scale(0.015625)"/>
      </defs>
      <use xlink:href="#Ubuntu-4e"/>
      <use xlink:href="#Ubuntu-6f" x="72.799988"/>
      <use xlink:href="#Ubuntu-72" x="131.799973"/>
      <use xlink:href="#Ubuntu-6d" x="170.399963"/>
      <use xlink:href="#Ubuntu-61" x="256.499954"/>
      <use xlink:href="#Ubuntu-6c" x="308.699951"/>
     </g>
    </g>
   </g>
  </g>
 </g>
 <defs>
  <clipPath id="p3d413f820e">
   <rect x="66.890938" y="25.2875" width="446.4" height="138.6"/>
  </clipPath>
 </defs>
</svg>
