<?xml version="1.0" encoding="utf-8" standalone="no"?>
<!DOCTYPE svg PUBLIC "-//W3C//DTD SVG 1.1//EN"
  "http://www.w3.org/Graphics/SVG/1.1/DTD/svg11.dtd">
<svg xmlns:xlink="http://www.w3.org/1999/xlink" width="527.395717pt" height="165.055pt" viewBox="0 0 527.395717 165.055" xmlns="http://www.w3.org/2000/svg" version="1.1">
 <metadata>
  <rdf:RDF xmlns:dc="http://purl.org/dc/elements/1.1/" xmlns:cc="http://creativecommons.org/ns#" xmlns:rdf="http://www.w3.org/1999/02/22-rdf-syntax-ns#">
   <cc:Work>
    <dc:type rdf:resource="http://purl.org/dc/dcmitype/StillImage"/>
    <dc:date>2024-05-23T14:54:42.868044</dc:date>
    <dc:format>image/svg+xml</dc:format>
    <dc:creator>
     <cc:Agent>
      <dc:title>Matplotlib v3.8.3, https://matplotlib.org/</dc:title>
     </cc:Agent>
    </dc:creator>
   </cc:Work>
  </rdf:RDF>
 </metadata>
 <defs>
  <style type="text/css">*{stroke-linejoin: round; stroke-linecap: butt}</style>
 </defs>
 <g id="figure_1">
  <g id="patch_1">
   <path d="M 0 165.055 
L 527.395717 165.055 
L 527.395717 0 
L 0 0 
L 0 165.055 
z
" style="fill: none"/>
  </g>
  <g id="axes_1">
   <g id="patch_2">
    <path d="M 66.890938 136.1675 
L 513.290937 136.1675 
L 513.290937 25.2875 
L 66.890938 25.2875 
L 66.890938 136.1675 
z
" style="fill: none"/>
   </g>
   <g id="line2d_1">
    <path d="M 133.788416 136.1675 
L 133.788416 29.578736 
" clip-path="url(#p13de3a67af)" style="fill: none; stroke-dasharray: 0.5,0.825; stroke-dashoffset: 0; stroke: #d9d9d9; stroke-width: 0.5"/>
   </g>
   <g id="line2d_2">
    <path d="M 196.309425 136.1675 
L 196.309425 29.578736 
" clip-path="url(#p13de3a67af)" style="fill: none; stroke-dasharray: 0.5,0.825; stroke-dashoffset: 0; stroke: #d9d9d9; stroke-width: 0.5"/>
   </g>
   <g id="line2d_3">
    <path d="M 258.830433 136.1675 
L 258.830433 29.578736 
" clip-path="url(#p13de3a67af)" style="fill: none; stroke-dasharray: 0.5,0.825; stroke-dashoffset: 0; stroke: #d9d9d9; stroke-width: 0.5"/>
   </g>
   <g id="line2d_4">
    <path d="M 321.351442 136.1675 
L 321.351442 29.578736 
" clip-path="url(#p13de3a67af)" style="fill: none; stroke-dasharray: 0.5,0.825; stroke-dashoffset: 0; stroke: #d9d9d9; stroke-width: 0.5"/>
   </g>
   <g id="line2d_5">
    <path d="M 383.87245 136.1675 
L 383.87245 29.578736 
" clip-path="url(#p13de3a67af)" style="fill: none; stroke-dasharray: 0.5,0.825; stroke-dashoffset: 0; stroke: #d9d9d9; stroke-width: 0.5"/>
   </g>
   <g id="line2d_6">
    <path d="M 446.393459 136.1675 
L 446.393459 29.578736 
" clip-path="url(#p13de3a67af)" style="fill: none; stroke-dasharray: 0.5,0.825; stroke-dashoffset: 0; stroke: #d9d9d9; stroke-width: 0.5"/>
   </g>
   <g id="line2d_7">
    <path d="M 71.267408 114.849747 
L 508.914467 114.849747 
" clip-path="url(#p13de3a67af)" style="fill: none; stroke-dasharray: 0.5,0.825; stroke-dashoffset: 0; stroke: #d9d9d9; stroke-width: 0.5"/>
   </g>
   <g id="line2d_8">
    <path d="M 71.267408 93.531994 
L 508.914467 93.531994 
" clip-path="url(#p13de3a67af)" style="fill: none; stroke-dasharray: 0.5,0.825; stroke-dashoffset: 0; stroke: #d9d9d9; stroke-width: 0.5"/>
   </g>
   <g id="line2d_9">
    <path d="M 71.267408 72.214242 
L 508.914467 72.214242 
" clip-path="url(#p13de3a67af)" style="fill: none; stroke-dasharray: 0.5,0.825; stroke-dashoffset: 0; stroke: #d9d9d9; stroke-width: 0.5"/>
   </g>
   <g id="line2d_10">
    <path d="M 71.267408 50.896489 
L 508.914467 50.896489 
" clip-path="url(#p13de3a67af)" style="fill: none; stroke-dasharray: 0.5,0.825; stroke-dashoffset: 0; stroke: #d9d9d9; stroke-width: 0.5"/>
   </g>
   <g id="matplotlib.axis_1">
    <g id="xtick_1">
     <g id="line2d_11">
      <defs>
       <path id="mc9410ebcc1" d="M 0 0 
L 0 3 
" style="stroke: #cecece; stroke-width: 0.75"/>
      </defs>
      <g>
       <use xlink:href="#mc9410ebcc1" x="71.267408" y="141.1675" style="fill: #cecece; stroke: #cecece; stroke-width: 0.75"/>
      </g>
     </g>
     <g id="text_1">
      <!-- −15000 -->
      <g style="fill: #808080" transform="translate(57.729908 156.375) scale(0.08 -0.08)">
       <defs>
        <path id="Ubuntu-2212" d="M 339 2138 
L 3270 2138 
L 3270 1632 
L 339 1632 
L 339 2138 
z
" transform="scale(0.015625)"/>
        <path id="Ubuntu-31" d="M 595 3520 
Q 960 3661 1305 3881 
Q 1651 4102 1939 4435 
L 2362 4435 
L 2362 0 
L 1766 0 
L 1766 3610 
Q 1690 3539 1578 3462 
Q 1466 3386 1334 3315 
Q 1203 3245 1059 3181 
Q 915 3117 781 3072 
L 595 3520 
z
" transform="scale(0.015625)"/>
        <path id="Ubuntu-35" d="M 1274 2726 
Q 2240 2688 2691 2304 
Q 3142 1920 3142 1261 
Q 3142 966 3043 716 
Q 2944 467 2742 288 
Q 2541 109 2233 6 
Q 1926 -96 1504 -96 
Q 1338 -96 1165 -70 
Q 992 -45 845 -6 
Q 698 32 582 70 
Q 467 109 416 134 
L 531 653 
Q 640 602 886 518 
Q 1133 435 1491 435 
Q 1779 435 1974 499 
Q 2170 563 2291 672 
Q 2413 781 2467 925 
Q 2522 1069 2522 1229 
Q 2522 1472 2438 1661 
Q 2355 1850 2144 1978 
Q 1933 2106 1581 2173 
Q 1229 2240 691 2240 
Q 730 2554 752 2829 
Q 774 3104 793 3366 
Q 813 3629 825 3888 
Q 838 4147 851 4435 
L 2989 4435 
L 2989 3930 
L 1370 3930 
Q 1363 3834 1350 3670 
Q 1338 3507 1325 3331 
Q 1312 3155 1299 2988 
Q 1286 2822 1274 2726 
z
" transform="scale(0.015625)"/>
        <path id="Ubuntu-30" d="M 320 2221 
Q 320 3334 713 3936 
Q 1107 4538 1805 4538 
Q 2502 4538 2896 3936 
Q 3290 3334 3290 2221 
Q 3290 1107 2896 505 
Q 2502 -96 1805 -96 
Q 1107 -96 713 505 
Q 320 1107 320 2221 
z
M 2662 2221 
Q 2662 2586 2620 2912 
Q 2579 3238 2480 3481 
Q 2381 3725 2214 3869 
Q 2048 4013 1805 4013 
Q 1562 4013 1395 3869 
Q 1229 3725 1129 3481 
Q 1030 3238 988 2912 
Q 947 2586 947 2221 
Q 947 1856 988 1529 
Q 1030 1203 1129 960 
Q 1229 717 1395 573 
Q 1562 429 1805 429 
Q 2048 429 2214 573 
Q 2381 717 2480 960 
Q 2579 1203 2620 1529 
Q 2662 1856 2662 2221 
z
" transform="scale(0.015625)"/>
       </defs>
       <use xlink:href="#Ubuntu-2212"/>
       <use xlink:href="#Ubuntu-31" x="56.399994"/>
       <use xlink:href="#Ubuntu-35" x="112.799988"/>
       <use xlink:href="#Ubuntu-30" x="169.199982"/>
       <use xlink:href="#Ubuntu-30" x="225.599976"/>
       <use xlink:href="#Ubuntu-30" x="281.999969"/>
      </g>
     </g>
    </g>
    <g id="xtick_2">
     <g id="line2d_12">
      <g>
       <use xlink:href="#mc9410ebcc1" x="133.788416" y="141.1675" style="fill: #cecece; stroke: #cecece; stroke-width: 0.75"/>
      </g>
     </g>
     <g id="text_2">
      <!-- −10000 -->
      <g style="fill: #808080" transform="translate(120.250916 156.375) scale(0.08 -0.08)">
       <use xlink:href="#Ubuntu-2212"/>
       <use xlink:href="#Ubuntu-31" x="56.399994"/>
       <use xlink:href="#Ubuntu-30" x="112.799988"/>
       <use xlink:href="#Ubuntu-30" x="169.199982"/>
       <use xlink:href="#Ubuntu-30" x="225.599976"/>
       <use xlink:href="#Ubuntu-30" x="281.999969"/>
      </g>
     </g>
    </g>
    <g id="xtick_3">
     <g id="line2d_13">
      <g>
       <use xlink:href="#mc9410ebcc1" x="196.309425" y="141.1675" style="fill: #cecece; stroke: #cecece; stroke-width: 0.75"/>
      </g>
     </g>
     <g id="text_3">
      <!-- −5000 -->
      <g style="fill: #808080" transform="translate(185.028175 156.375) scale(0.08 -0.08)">
       <use xlink:href="#Ubuntu-2212"/>
       <use xlink:href="#Ubuntu-35" x="56.399994"/>
       <use xlink:href="#Ubuntu-30" x="112.799988"/>
       <use xlink:href="#Ubuntu-30" x="169.199982"/>
       <use xlink:href="#Ubuntu-30" x="225.599976"/>
      </g>
     </g>
    </g>
    <g id="xtick_4">
     <g id="line2d_14">
      <g>
       <use xlink:href="#mc9410ebcc1" x="258.830433" y="141.1675" style="fill: #cecece; stroke: #cecece; stroke-width: 0.75"/>
      </g>
     </g>
     <g id="text_4">
      <!-- 0 -->
      <g style="fill: #808080" transform="translate(256.574183 156.375) scale(0.08 -0.08)">
       <use xlink:href="#Ubuntu-30"/>
      </g>
     </g>
    </g>
    <g id="xtick_5">
     <g id="line2d_15">
      <g>
       <use xlink:href="#mc9410ebcc1" x="321.351442" y="141.1675" style="fill: #cecece; stroke: #cecece; stroke-width: 0.75"/>
      </g>
     </g>
     <g id="text_5">
      <!-- 5000 -->
      <g style="fill: #808080" transform="translate(312.326442 156.375) scale(0.08 -0.08)">
       <use xlink:href="#Ubuntu-35"/>
       <use xlink:href="#Ubuntu-30" x="56.399994"/>
       <use xlink:href="#Ubuntu-30" x="112.799988"/>
       <use xlink:href="#Ubuntu-30" x="169.199982"/>
      </g>
     </g>
    </g>
    <g id="xtick_6">
     <g id="line2d_16">
      <g>
       <use xlink:href="#mc9410ebcc1" x="383.87245" y="141.1675" style="fill: #cecece; stroke: #cecece; stroke-width: 0.75"/>
      </g>
     </g>
     <g id="text_6">
      <!-- 10000 -->
      <g style="fill: #808080" transform="translate(372.5912 156.375) scale(0.08 -0.08)">
       <use xlink:href="#Ubuntu-31"/>
       <use xlink:href="#Ubuntu-30" x="56.399994"/>
       <use xlink:href="#Ubuntu-30" x="112.799988"/>
       <use xlink:href="#Ubuntu-30" x="169.199982"/>
       <use xlink:href="#Ubuntu-30" x="225.599976"/>
      </g>
     </g>
    </g>
    <g id="xtick_7">
     <g id="line2d_17">
      <g>
       <use xlink:href="#mc9410ebcc1" x="446.393459" y="141.1675" style="fill: #cecece; stroke: #cecece; stroke-width: 0.75"/>
      </g>
     </g>
     <g id="text_7">
      <!-- 15000 -->
      <g style="fill: #808080" transform="translate(435.112209 156.375) scale(0.08 -0.08)">
       <use xlink:href="#Ubuntu-31"/>
       <use xlink:href="#Ubuntu-35" x="56.399994"/>
       <use xlink:href="#Ubuntu-30" x="112.799988"/>
       <use xlink:href="#Ubuntu-30" x="169.199982"/>
       <use xlink:href="#Ubuntu-30" x="225.599976"/>
      </g>
     </g>
    </g>
    <g id="xtick_8">
     <g id="line2d_18">
      <g>
       <use xlink:href="#mc9410ebcc1" x="508.914467" y="141.1675" style="fill: #cecece; stroke: #cecece; stroke-width: 0.75"/>
      </g>
     </g>
     <g id="text_8">
      <!-- 20000 -->
      <g style="fill: #808080" transform="translate(497.633217 156.375) scale(0.08 -0.08)">
       <defs>
        <path id="Ubuntu-32" d="M 2989 3302 
Q 2989 3072 2896 2857 
Q 2803 2643 2649 2435 
Q 2496 2227 2304 2025 
Q 2112 1824 1920 1632 
Q 1811 1523 1667 1376 
Q 1523 1229 1395 1069 
Q 1267 909 1180 761 
Q 1094 614 1094 506 
L 3136 506 
L 3136 0 
L 448 0 
Q 442 38 442 76 
Q 442 115 442 147 
Q 442 448 541 707 
Q 640 966 800 1196 
Q 960 1427 1158 1632 
Q 1357 1837 1549 2029 
Q 1709 2182 1853 2332 
Q 1997 2483 2109 2633 
Q 2221 2784 2288 2944 
Q 2355 3104 2355 3283 
Q 2355 3475 2294 3609 
Q 2234 3744 2131 3833 
Q 2029 3923 1891 3964 
Q 1754 4006 1600 4006 
Q 1414 4006 1260 3955 
Q 1107 3904 985 3837 
Q 864 3770 781 3696 
Q 698 3622 653 3584 
L 358 4006 
Q 416 4070 531 4163 
Q 646 4256 806 4339 
Q 966 4422 1164 4480 
Q 1363 4538 1594 4538 
Q 2291 4538 2640 4214 
Q 2989 3891 2989 3302 
z
" transform="scale(0.015625)"/>
       </defs>
       <use xlink:href="#Ubuntu-32"/>
       <use xlink:href="#Ubuntu-30" x="56.399994"/>
       <use xlink:href="#Ubuntu-30" x="112.799988"/>
       <use xlink:href="#Ubuntu-30" x="169.199982"/>
       <use xlink:href="#Ubuntu-30" x="225.599976"/>
      </g>
     </g>
    </g>
   </g>
   <g id="matplotlib.axis_2">
    <g id="ytick_1">
     <g id="line2d_19">
      <defs>
       <path id="mb391f3f5c0" d="M 0 0 
L -3 0 
" style="stroke: #cecece; stroke-width: 0.75"/>
      </defs>
      <g>
       <use xlink:href="#mb391f3f5c0" x="61.890938" y="136.1675" style="fill: #cecece; stroke: #cecece; stroke-width: 0.75"/>
      </g>
     </g>
     <g id="text_9">
      <!-- 0.00000 -->
      <g style="fill: #808080" transform="translate(23.848438 139.27125) scale(0.08 -0.08)">
       <defs>
        <path id="Ubuntu-2e" d="M 1216 346 
Q 1216 173 1101 45 
Q 986 -83 787 -83 
Q 589 -83 473 45 
Q 358 173 358 346 
Q 358 518 473 646 
Q 589 774 787 774 
Q 986 774 1101 646 
Q 1216 518 1216 346 
z
" transform="scale(0.015625)"/>
       </defs>
       <use xlink:href="#Ubuntu-30"/>
       <use xlink:href="#Ubuntu-2e" x="56.399994"/>
       <use xlink:href="#Ubuntu-30" x="80.999985"/>
       <use xlink:href="#Ubuntu-30" x="137.399979"/>
       <use xlink:href="#Ubuntu-30" x="193.799973"/>
       <use xlink:href="#Ubuntu-30" x="250.199966"/>
       <use xlink:href="#Ubuntu-30" x="306.59996"/>
      </g>
     </g>
    </g>
    <g id="ytick_2">
     <g id="line2d_20">
      <g>
       <use xlink:href="#mb391f3f5c0" x="61.890938" y="114.849747" style="fill: #cecece; stroke: #cecece; stroke-width: 0.75"/>
      </g>
     </g>
     <g id="text_10">
      <!-- 0.00005 -->
      <g style="fill: #808080" transform="translate(23.848438 117.953497) scale(0.08 -0.08)">
       <use xlink:href="#Ubuntu-30"/>
       <use xlink:href="#Ubuntu-2e" x="56.399994"/>
       <use xlink:href="#Ubuntu-30" x="80.999985"/>
       <use xlink:href="#Ubuntu-30" x="137.399979"/>
       <use xlink:href="#Ubuntu-30" x="193.799973"/>
       <use xlink:href="#Ubuntu-30" x="250.199966"/>
       <use xlink:href="#Ubuntu-35" x="306.59996"/>
      </g>
     </g>
    </g>
    <g id="ytick_3">
     <g id="line2d_21">
      <g>
       <use xlink:href="#mb391f3f5c0" x="61.890938" y="93.531994" style="fill: #cecece; stroke: #cecece; stroke-width: 0.75"/>
      </g>
     </g>
     <g id="text_11">
      <!-- 0.00010 -->
      <g style="fill: #808080" transform="translate(23.848438 96.635744) scale(0.08 -0.08)">
       <use xlink:href="#Ubuntu-30"/>
       <use xlink:href="#Ubuntu-2e" x="56.399994"/>
       <use xlink:href="#Ubuntu-30" x="80.999985"/>
       <use xlink:href="#Ubuntu-30" x="137.399979"/>
       <use xlink:href="#Ubuntu-30" x="193.799973"/>
       <use xlink:href="#Ubuntu-31" x="250.199966"/>
       <use xlink:href="#Ubuntu-30" x="306.59996"/>
      </g>
     </g>
    </g>
    <g id="ytick_4">
     <g id="line2d_22">
      <g>
       <use xlink:href="#mb391f3f5c0" x="61.890938" y="72.214242" style="fill: #cecece; stroke: #cecece; stroke-width: 0.75"/>
      </g>
     </g>
     <g id="text_12">
      <!-- 0.00015 -->
      <g style="fill: #808080" transform="translate(23.848438 75.317992) scale(0.08 -0.08)">
       <use xlink:href="#Ubuntu-30"/>
       <use xlink:href="#Ubuntu-2e" x="56.399994"/>
       <use xlink:href="#Ubuntu-30" x="80.999985"/>
       <use xlink:href="#Ubuntu-30" x="137.399979"/>
       <use xlink:href="#Ubuntu-30" x="193.799973"/>
       <use xlink:href="#Ubuntu-31" x="250.199966"/>
       <use xlink:href="#Ubuntu-35" x="306.59996"/>
      </g>
     </g>
    </g>
    <g id="ytick_5">
     <g id="line2d_23">
      <g>
       <use xlink:href="#mb391f3f5c0" x="61.890938" y="50.896489" style="fill: #cecece; stroke: #cecece; stroke-width: 0.75"/>
      </g>
     </g>
     <g id="text_13">
      <!-- 0.00020 -->
      <g style="fill: #808080" transform="translate(23.848438 54.000239) scale(0.08 -0.08)">
       <use xlink:href="#Ubuntu-30"/>
       <use xlink:href="#Ubuntu-2e" x="56.399994"/>
       <use xlink:href="#Ubuntu-30" x="80.999985"/>
       <use xlink:href="#Ubuntu-30" x="137.399979"/>
       <use xlink:href="#Ubuntu-30" x="193.799973"/>
       <use xlink:href="#Ubuntu-32" x="250.199966"/>
       <use xlink:href="#Ubuntu-30" x="306.59996"/>
      </g>
     </g>
    </g>
    <g id="ytick_6">
     <g id="line2d_24">
      <g>
       <use xlink:href="#mb391f3f5c0" x="61.890938" y="29.578736" style="fill: #cecece; stroke: #cecece; stroke-width: 0.75"/>
      </g>
     </g>
     <g id="text_14">
      <!-- 0.00025 -->
      <g style="fill: #808080" transform="translate(23.848438 32.682486) scale(0.08 -0.08)">
       <use xlink:href="#Ubuntu-30"/>
       <use xlink:href="#Ubuntu-2e" x="56.399994"/>
       <use xlink:href="#Ubuntu-30" x="80.999985"/>
       <use xlink:href="#Ubuntu-30" x="137.399979"/>
       <use xlink:href="#Ubuntu-30" x="193.799973"/>
       <use xlink:href="#Ubuntu-32" x="250.199966"/>
       <use xlink:href="#Ubuntu-35" x="306.59996"/>
      </g>
     </g>
    </g>
    <g id="text_15">
     <!-- Density -->
     <g style="fill: #505050" transform="translate(14.183438 58.455312) rotate(-90) scale(0.09 -0.09)">
      <defs>
       <path id="Ubuntu-Bold-44" d="M 1510 813 
Q 1581 806 1673 803 
Q 1766 800 1894 800 
Q 2643 800 3004 1177 
Q 3366 1555 3366 2221 
Q 3366 2918 3020 3276 
Q 2675 3635 1926 3635 
Q 1824 3635 1715 3632 
Q 1606 3629 1510 3616 
L 1510 813 
z
M 4397 2221 
Q 4397 1645 4217 1216 
Q 4038 787 3708 505 
Q 3379 224 2905 83 
Q 2432 -58 1843 -58 
Q 1574 -58 1216 -35 
Q 858 -13 512 58 
L 512 4378 
Q 858 4442 1232 4464 
Q 1606 4486 1875 4486 
Q 2445 4486 2909 4358 
Q 3373 4230 3705 3955 
Q 4038 3680 4217 3251 
Q 4397 2822 4397 2221 
z
" transform="scale(0.015625)"/>
       <path id="Ubuntu-Bold-65" d="M 288 1658 
Q 288 2106 425 2442 
Q 563 2778 787 3002 
Q 1011 3226 1302 3341 
Q 1594 3456 1901 3456 
Q 2618 3456 3034 3017 
Q 3450 2579 3450 1728 
Q 3450 1645 3443 1545 
Q 3437 1446 3430 1370 
L 1267 1370 
Q 1299 1075 1542 902 
Q 1786 730 2195 730 
Q 2458 730 2710 778 
Q 2963 826 3123 896 
L 3251 122 
Q 3174 83 3046 44 
Q 2918 6 2761 -22 
Q 2605 -51 2425 -70 
Q 2246 -90 2067 -90 
Q 1613 -90 1277 44 
Q 941 179 720 412 
Q 499 646 393 966 
Q 288 1286 288 1658 
z
M 2528 2022 
Q 2522 2144 2486 2259 
Q 2451 2374 2377 2464 
Q 2304 2554 2192 2611 
Q 2080 2669 1914 2669 
Q 1754 2669 1638 2614 
Q 1523 2560 1446 2470 
Q 1370 2381 1328 2262 
Q 1286 2144 1267 2022 
L 2528 2022 
z
" transform="scale(0.015625)"/>
       <path id="Ubuntu-Bold-6e" d="M 448 3251 
Q 691 3322 1075 3382 
Q 1459 3443 1882 3443 
Q 2310 3443 2595 3331 
Q 2880 3219 3046 3014 
Q 3213 2810 3283 2528 
Q 3354 2246 3354 1901 
L 3354 0 
L 2400 0 
L 2400 1786 
Q 2400 2246 2278 2438 
Q 2157 2630 1824 2630 
Q 1722 2630 1606 2620 
Q 1491 2611 1402 2598 
L 1402 0 
L 448 0 
L 448 3251 
z
" transform="scale(0.015625)"/>
       <path id="Ubuntu-Bold-73" d="M 1414 685 
Q 1677 685 1785 736 
Q 1894 787 1894 934 
Q 1894 1050 1753 1136 
Q 1613 1222 1325 1331 
Q 1101 1414 918 1504 
Q 736 1594 608 1718 
Q 480 1843 409 2016 
Q 339 2189 339 2432 
Q 339 2906 691 3181 
Q 1043 3456 1658 3456 
Q 1965 3456 2246 3401 
Q 2528 3347 2694 3283 
L 2528 2541 
Q 2362 2598 2166 2643 
Q 1971 2688 1728 2688 
Q 1280 2688 1280 2438 
Q 1280 2381 1299 2336 
Q 1318 2291 1376 2249 
Q 1434 2208 1533 2160 
Q 1632 2112 1786 2054 
Q 2099 1939 2304 1827 
Q 2509 1715 2627 1584 
Q 2746 1453 2794 1293 
Q 2842 1133 2842 922 
Q 2842 422 2467 166 
Q 2093 -90 1408 -90 
Q 960 -90 662 -13 
Q 365 64 250 115 
L 410 890 
Q 653 794 909 739 
Q 1165 685 1414 685 
z
" transform="scale(0.015625)"/>
       <path id="Ubuntu-Bold-69" d="M 1402 0 
L 448 0 
L 448 3366 
L 1402 3366 
L 1402 0 
z
M 1491 4339 
Q 1491 4077 1321 3926 
Q 1152 3776 922 3776 
Q 691 3776 521 3926 
Q 352 4077 352 4339 
Q 352 4602 521 4752 
Q 691 4902 922 4902 
Q 1152 4902 1321 4752 
Q 1491 4602 1491 4339 
z
" transform="scale(0.015625)"/>
       <path id="Ubuntu-Bold-74" d="M 416 4205 
L 1370 4358 
L 1370 3366 
L 2515 3366 
L 2515 2573 
L 1370 2573 
L 1370 1389 
Q 1370 1088 1475 909 
Q 1581 730 1901 730 
Q 2054 730 2217 758 
Q 2381 787 2515 838 
L 2650 96 
Q 2477 26 2265 -25 
Q 2054 -77 1747 -77 
Q 1357 -77 1101 28 
Q 845 134 691 323 
Q 538 512 477 781 
Q 416 1050 416 1376 
L 416 4205 
z
" transform="scale(0.015625)"/>
       <path id="Ubuntu-Bold-79" d="M 3437 3366 
Q 3149 2394 2835 1542 
Q 2522 691 2150 -109 
Q 2016 -397 1881 -598 
Q 1747 -800 1587 -931 
Q 1427 -1062 1225 -1123 
Q 1024 -1184 755 -1184 
Q 531 -1184 342 -1142 
Q 154 -1101 32 -1050 
L 198 -288 
Q 346 -339 461 -358 
Q 576 -378 704 -378 
Q 960 -378 1097 -240 
Q 1235 -102 1331 141 
Q 1005 781 678 1577 
Q 352 2374 64 3366 
L 1075 3366 
Q 1139 3117 1225 2825 
Q 1312 2534 1408 2236 
Q 1504 1939 1603 1657 
Q 1702 1376 1792 1146 
Q 1875 1376 1964 1657 
Q 2054 1939 2140 2236 
Q 2227 2534 2307 2825 
Q 2387 3117 2451 3366 
L 3437 3366 
z
" transform="scale(0.015625)"/>
      </defs>
      <use xlink:href="#Ubuntu-Bold-44"/>
      <use xlink:href="#Ubuntu-Bold-65" x="73.699982"/>
      <use xlink:href="#Ubuntu-Bold-6e" x="132.099976"/>
      <use xlink:href="#Ubuntu-Bold-73" x="190.999969"/>
      <use xlink:href="#Ubuntu-Bold-69" x="239.499954"/>
      <use xlink:href="#Ubuntu-Bold-74" x="268.399948"/>
      <use xlink:href="#Ubuntu-Bold-79" x="313.799942"/>
     </g>
    </g>
   </g>
   <g id="PolyCollection_1">
    <defs>
     <path id="m49aba1c351" d="M 143.048535 -28.88859 
L 143.048535 -28.8875 
L 144.166779 -28.8875 
L 145.285023 -28.8875 
L 146.403267 -28.8875 
L 147.52151 -28.8875 
L 148.639754 -28.8875 
L 149.757998 -28.8875 
L 150.876242 -28.8875 
L 151.994485 -28.8875 
L 153.112729 -28.8875 
L 154.230973 -28.8875 
L 155.349217 -28.8875 
L 156.467461 -28.8875 
L 157.585704 -28.8875 
L 158.703948 -28.8875 
L 159.822192 -28.8875 
L 160.940436 -28.8875 
L 162.058679 -28.8875 
L 163.176923 -28.8875 
L 164.295167 -28.8875 
L 165.413411 -28.8875 
L 166.531654 -28.8875 
L 167.649898 -28.8875 
L 168.768142 -28.8875 
L 169.886386 -28.8875 
L 171.00463 -28.8875 
L 172.122873 -28.8875 
L 173.241117 -28.8875 
L 174.359361 -28.8875 
L 175.477605 -28.8875 
L 176.595848 -28.8875 
L 177.714092 -28.8875 
L 178.832336 -28.8875 
L 179.95058 -28.8875 
L 181.068824 -28.8875 
L 182.187067 -28.8875 
L 183.305311 -28.8875 
L 184.423555 -28.8875 
L 185.541799 -28.8875 
L 186.660042 -28.8875 
L 187.778286 -28.8875 
L 188.89653 -28.8875 
L 190.014774 -28.8875 
L 191.133017 -28.8875 
L 192.251261 -28.8875 
L 193.369505 -28.8875 
L 194.487749 -28.8875 
L 195.605993 -28.8875 
L 196.724236 -28.8875 
L 197.84248 -28.8875 
L 198.960724 -28.8875 
L 200.078968 -28.8875 
L 201.197211 -28.8875 
L 202.315455 -28.8875 
L 203.433699 -28.8875 
L 204.551943 -28.8875 
L 205.670187 -28.8875 
L 206.78843 -28.8875 
L 207.906674 -28.8875 
L 209.024918 -28.8875 
L 210.143162 -28.8875 
L 211.261405 -28.8875 
L 212.379649 -28.8875 
L 213.497893 -28.8875 
L 214.616137 -28.8875 
L 215.73438 -28.8875 
L 216.852624 -28.8875 
L 217.970868 -28.8875 
L 219.089112 -28.8875 
L 220.207356 -28.8875 
L 221.325599 -28.8875 
L 222.443843 -28.8875 
L 223.562087 -28.8875 
L 224.680331 -28.8875 
L 225.798574 -28.8875 
L 226.916818 -28.8875 
L 228.035062 -28.8875 
L 229.153306 -28.8875 
L 230.27155 -28.8875 
L 231.389793 -28.8875 
L 232.508037 -28.8875 
L 233.626281 -28.8875 
L 234.744525 -28.8875 
L 235.862768 -28.8875 
L 236.981012 -28.8875 
L 238.099256 -28.8875 
L 239.2175 -28.8875 
L 240.335743 -28.8875 
L 241.453987 -28.8875 
L 242.572231 -28.8875 
L 243.690475 -28.8875 
L 244.808719 -28.8875 
L 245.926962 -28.8875 
L 247.045206 -28.8875 
L 248.16345 -28.8875 
L 249.281694 -28.8875 
L 250.399937 -28.8875 
L 251.518181 -28.8875 
L 252.636425 -28.8875 
L 253.754669 -28.8875 
L 254.872912 -28.8875 
L 255.991156 -28.8875 
L 257.1094 -28.8875 
L 258.227644 -28.8875 
L 259.345888 -28.8875 
L 260.464131 -28.8875 
L 261.582375 -28.8875 
L 262.700619 -28.8875 
L 263.818863 -28.8875 
L 264.937106 -28.8875 
L 266.05535 -28.8875 
L 267.173594 -28.8875 
L 268.291838 -28.8875 
L 269.410082 -28.8875 
L 270.528325 -28.8875 
L 271.646569 -28.8875 
L 272.764813 -28.8875 
L 273.883057 -28.8875 
L 275.0013 -28.8875 
L 276.119544 -28.8875 
L 277.237788 -28.8875 
L 278.356032 -28.8875 
L 279.474275 -28.8875 
L 280.592519 -28.8875 
L 281.710763 -28.8875 
L 282.829007 -28.8875 
L 283.947251 -28.8875 
L 285.065494 -28.8875 
L 286.183738 -28.8875 
L 287.301982 -28.8875 
L 288.420226 -28.8875 
L 289.538469 -28.8875 
L 290.656713 -28.8875 
L 291.774957 -28.8875 
L 292.893201 -28.8875 
L 294.011445 -28.8875 
L 295.129688 -28.8875 
L 296.247932 -28.8875 
L 297.366176 -28.8875 
L 298.48442 -28.8875 
L 299.602663 -28.8875 
L 300.720907 -28.8875 
L 301.839151 -28.8875 
L 302.957395 -28.8875 
L 304.075638 -28.8875 
L 305.193882 -28.8875 
L 306.312126 -28.8875 
L 307.43037 -28.8875 
L 308.548614 -28.8875 
L 309.666857 -28.8875 
L 310.785101 -28.8875 
L 311.903345 -28.8875 
L 313.021589 -28.8875 
L 314.139832 -28.8875 
L 315.258076 -28.8875 
L 316.37632 -28.8875 
L 317.494564 -28.8875 
L 318.612808 -28.8875 
L 319.731051 -28.8875 
L 320.849295 -28.8875 
L 321.967539 -28.8875 
L 323.085783 -28.8875 
L 324.204026 -28.8875 
L 325.32227 -28.8875 
L 326.440514 -28.8875 
L 327.558758 -28.8875 
L 328.677001 -28.8875 
L 329.795245 -28.8875 
L 330.913489 -28.8875 
L 332.031733 -28.8875 
L 333.149977 -28.8875 
L 334.26822 -28.8875 
L 335.386464 -28.8875 
L 336.504708 -28.8875 
L 337.622952 -28.8875 
L 338.741195 -28.8875 
L 339.859439 -28.8875 
L 340.977683 -28.8875 
L 342.095927 -28.8875 
L 343.214171 -28.8875 
L 344.332414 -28.8875 
L 345.450658 -28.8875 
L 346.568902 -28.8875 
L 347.687146 -28.8875 
L 348.805389 -28.8875 
L 349.923633 -28.8875 
L 351.041877 -28.8875 
L 352.160121 -28.8875 
L 353.278364 -28.8875 
L 354.396608 -28.8875 
L 355.514852 -28.8875 
L 356.633096 -28.8875 
L 357.75134 -28.8875 
L 358.869583 -28.8875 
L 359.987827 -28.8875 
L 361.106071 -28.8875 
L 362.224315 -28.8875 
L 363.342558 -28.8875 
L 364.460802 -28.8875 
L 365.579046 -28.8875 
L 365.579046 -28.888592 
L 365.579046 -28.888592 
L 364.460802 -28.889624 
L 363.342558 -28.891421 
L 362.224315 -28.894367 
L 361.106071 -28.89892 
L 359.987827 -28.905542 
L 358.869583 -28.914604 
L 357.75134 -28.926277 
L 356.633096 -28.940449 
L 355.514852 -28.956734 
L 354.396608 -28.974598 
L 353.278364 -28.993611 
L 352.160121 -29.013743 
L 351.041877 -29.035609 
L 349.923633 -29.060514 
L 348.805389 -29.09025 
L 347.687146 -29.126672 
L 346.568902 -29.1712 
L 345.450658 -29.224451 
L 344.332414 -29.286171 
L 343.214171 -29.355527 
L 342.095927 -29.431655 
L 340.977683 -29.514285 
L 339.859439 -29.604216 
L 338.741195 -29.703514 
L 337.622952 -29.815374 
L 336.504708 -29.943711 
L 335.386464 -30.092556 
L 334.26822 -30.265368 
L 333.149977 -30.464403 
L 332.031733 -30.69031 
L 330.913489 -30.942119 
L 329.795245 -31.217728 
L 328.677001 -31.514807 
L 327.558758 -31.831875 
L 326.440514 -32.169197 
L 325.32227 -32.529202 
L 324.204026 -32.916347 
L 323.085783 -33.336547 
L 321.967539 -33.796449 
L 320.849295 -34.302783 
L 319.731051 -34.86188 
L 318.612808 -35.479333 
L 317.494564 -36.15969 
L 316.37632 -36.906194 
L 315.258076 -37.72057 
L 314.139832 -38.602892 
L 313.021589 -39.551431 
L 311.903345 -40.562352 
L 310.785101 -41.629179 
L 309.666857 -42.742261 
L 308.548614 -43.888762 
L 307.43037 -45.053833 
L 306.312126 -46.223352 
L 305.193882 -47.387985 
L 304.075638 -48.547592 
L 302.957395 -49.714461 
L 301.839151 -50.913952 
L 300.720907 -52.181787 
L 299.602663 -53.558306 
L 298.48442 -55.081035 
L 297.366176 -56.777507 
L 296.247932 -58.660127 
L 295.129688 -60.72412 
L 294.011445 -62.948597 
L 292.893201 -65.299924 
L 291.774957 -67.736216 
L 290.656713 -70.211951 
L 289.538469 -72.682074 
L 288.420226 -75.10535 
L 287.301982 -77.446839 
L 286.183738 -79.679418 
L 285.065494 -81.784302 
L 283.947251 -83.750764 
L 282.829007 -85.575537 
L 281.710763 -87.262432 
L 280.592519 -88.822416 
L 279.474275 -90.27371 
L 278.356032 -91.640933 
L 277.237788 -92.952306 
L 276.119544 -94.234652 
L 275.0013 -95.507193 
L 273.883057 -96.776153 
L 272.764813 -98.032428 
L 271.646569 -99.253635 
L 270.528325 -100.410254 
L 269.410082 -101.473902 
L 268.291838 -102.424969 
L 267.173594 -103.25717 
L 266.05535 -103.977856 
L 264.937106 -104.60443 
L 263.818863 -105.158397 
L 262.700619 -105.658895 
L 261.582375 -106.117339 
L 260.464131 -106.534193 
L 259.345888 -106.898335 
L 258.227644 -107.188996 
L 257.1094 -107.37977 
L 255.991156 -107.44368 
L 254.872912 -107.357865 
L 253.754669 -107.10646 
L 252.636425 -106.680859 
L 251.518181 -106.077692 
L 250.399937 -105.295902 
L 249.281694 -104.334824 
L 248.16345 -103.194651 
L 247.045206 -101.879374 
L 245.926962 -100.400776 
L 244.808719 -98.781253 
L 243.690475 -97.053428 
L 242.572231 -95.255844 
L 241.453987 -93.425702 
L 240.335743 -91.591022 
L 239.2175 -89.765016 
L 238.099256 -87.9448 
L 236.981012 -86.115054 
L 235.862768 -84.255464 
L 234.744525 -82.349402 
L 233.626281 -80.390796 
L 232.508037 -78.386766 
L 231.389793 -76.355148 
L 230.27155 -74.317978 
L 229.153306 -72.293574 
L 228.035062 -70.290372 
L 226.916818 -68.304919 
L 225.798574 -66.324683 
L 224.680331 -64.334413 
L 223.562087 -62.323465 
L 222.443843 -60.291372 
L 221.325599 -58.249827 
L 220.207356 -56.220758 
L 219.089112 -54.231533 
L 217.970868 -52.309128 
L 216.852624 -50.475068 
L 215.73438 -48.742442 
L 214.616137 -47.115449 
L 213.497893 -45.591239 
L 212.379649 -44.163226 
L 211.261405 -42.824828 
L 210.143162 -41.572496 
L 209.024918 -40.407177 
L 207.906674 -39.333785 
L 206.78843 -38.358909 
L 205.670187 -37.487624 
L 204.551943 -36.72061 
L 203.433699 -36.05268 
L 202.315455 -35.47327 
L 201.197211 -34.968635 
L 200.078968 -34.524801 
L 198.960724 -34.130098 
L 197.84248 -33.776339 
L 196.724236 -33.458395 
L 195.605993 -33.172589 
L 194.487749 -32.914811 
L 193.369505 -32.679254 
L 192.251261 -32.458295 
L 191.133017 -32.243535 
L 190.014774 -32.027515 
L 188.89653 -31.805418 
L 187.778286 -31.57612 
L 186.660042 -31.342245 
L 185.541799 -31.109234 
L 184.423555 -30.883744 
L 183.305311 -30.671876 
L 182.187067 -30.477723 
L 181.068824 -30.302607 
L 179.95058 -30.145144 
L 178.832336 -30.00202 
L 177.714092 -29.869198 
L 176.595848 -29.743148 
L 175.477605 -29.62178 
L 174.359361 -29.504837 
L 173.241117 -29.393744 
L 172.122873 -29.291028 
L 171.00463 -29.19954 
L 169.886386 -29.121735 
L 168.768142 -29.059152 
L 167.649898 -29.012201 
L 166.531654 -28.980191 
L 165.413411 -28.961524 
L 164.295167 -28.953941 
L 163.176923 -28.954753 
L 162.058679 -28.961033 
L 160.940436 -28.969821 
L 159.822192 -28.978352 
L 158.703948 -28.984323 
L 157.585704 -28.986156 
L 156.467461 -28.983176 
L 155.349217 -28.975633 
L 154.230973 -28.964543 
L 153.112729 -28.951389 
L 151.994485 -28.93775 
L 150.876242 -28.924982 
L 149.757998 -28.914014 
L 148.639754 -28.905287 
L 147.52151 -28.898816 
L 146.403267 -28.894327 
L 145.285023 -28.891406 
L 144.166779 -28.889619 
L 143.048535 -28.88859 
z
" style="stroke: #5b5b5b; stroke-width: 0.01"/>
    </defs>
    <g clip-path="url(#p13de3a67af)">
     <use xlink:href="#m49aba1c351" x="0" y="165.055" style="fill: #5b5b5b; fill-opacity: 0.25; stroke: #5b5b5b; stroke-width: 0.01"/>
    </g>
   </g>
   <g id="line2d_25">
    <path d="M 156.682148 136.165804 
L 165.559518 136.074848 
L 172.957326 135.783434 
L 178.875572 135.32875 
L 184.793819 134.626347 
L 189.232504 133.881855 
L 195.15075 132.815847 
L 199.589435 132.353675 
L 202.548558 132.038259 
L 205.507682 131.457925 
L 208.466805 130.541855 
L 212.90549 129.012814 
L 220.303298 126.845022 
L 221.78286 126.110157 
L 223.262421 125.188011 
L 224.741983 124.072894 
L 226.221545 122.756412 
L 227.701106 121.218022 
L 229.180668 119.429709 
L 230.660229 117.372595 
L 232.139791 115.054244 
L 235.098914 109.808191 
L 238.058038 104.069024 
L 241.017161 97.816343 
L 243.976284 90.69714 
L 251.374092 71.460933 
L 252.853654 68.239692 
L 254.333215 65.334597 
L 257.292339 60.24291 
L 260.251462 55.778833 
L 261.731024 53.776266 
L 263.210585 51.982847 
L 264.690147 50.459373 
L 266.169709 49.271975 
L 267.64927 48.48397 
L 269.128832 48.140264 
L 270.608393 48.244272 
L 272.087955 48.737267 
L 275.047078 50.354502 
L 276.52664 51.162944 
L 280.965325 53.094891 
L 282.444886 54.082592 
L 283.924448 55.656692 
L 285.40401 58.016606 
L 286.883571 61.247376 
L 288.363133 65.308198 
L 289.842695 70.056239 
L 292.801818 80.770176 
L 295.760941 91.565198 
L 297.240503 96.437503 
L 298.720064 100.712354 
L 300.199626 104.275949 
L 301.679188 107.102484 
L 303.158749 109.261549 
L 304.638311 110.900306 
L 306.117873 112.205704 
L 310.556557 115.757337 
L 313.515681 118.624016 
L 319.433927 124.862844 
L 322.39305 127.444369 
L 323.872612 128.50387 
L 325.352174 129.400611 
L 326.831735 130.135116 
L 328.311297 130.711296 
L 329.790859 131.135202 
L 331.27042 131.414714 
L 332.749982 131.561305 
L 335.709105 131.54304 
L 340.14779 131.355329 
L 341.627352 131.450291 
L 343.106913 131.685182 
L 344.586475 132.064917 
L 347.545598 133.141584 
L 350.504721 134.263427 
L 353.463845 135.030007 
L 356.422968 135.382969 
L 362.341214 135.624553 
L 372.698146 135.914763 
L 409.687187 136.110961 
L 423.003241 136.165012 
L 451.114912 136.166423 
L 451.114912 136.166423 
" clip-path="url(#p13de3a67af)" style="fill: none; stroke: #5b5b5b; stroke-width: 1.2; stroke-linecap: square"/>
   </g>
   <g id="patch_3">
    <path d="M 61.890938 136.1675 
L 61.890938 29.578736 
" style="fill: none; stroke: #cccccc; stroke-width: 0.75; stroke-linejoin: miter; stroke-linecap: square"/>
   </g>
   <g id="patch_4">
    <path d="M 71.267408 141.1675 
L 508.914467 141.1675 
" style="fill: none; stroke: #cccccc; stroke-width: 0.75; stroke-linejoin: miter; stroke-linecap: square"/>
   </g>
   <g id="legend_1">
    <g id="line2d_26">
     <path d="M 74.090938 13.8075 
L 82.090938 13.8075 
L 90.090938 13.8075 
" style="fill: none; stroke: #5b5b5b; stroke-width: 1.2; stroke-linecap: square"/>
    </g>
    <g id="text_16">
     <!-- Residuals -->
     <g style="fill: #4b4b4b" transform="translate(96.490938 16.6075) scale(0.08 -0.08)">
      <defs>
       <path id="Ubuntu-52" d="M 2720 1856 
Q 2822 1728 2979 1520 
Q 3136 1312 3302 1059 
Q 3469 806 3632 531 
Q 3795 256 3910 0 
L 3232 0 
Q 3104 243 2953 492 
Q 2803 742 2649 969 
Q 2496 1197 2345 1395 
Q 2195 1594 2074 1741 
Q 1990 1734 1904 1734 
Q 1818 1734 1728 1734 
L 1171 1734 
L 1171 0 
L 550 0 
L 550 4371 
Q 813 4435 1136 4457 
Q 1459 4480 1728 4480 
Q 2662 4480 3152 4128 
Q 3642 3776 3642 3078 
Q 3642 2637 3408 2323 
Q 3174 2010 2720 1856 
z
M 1779 3936 
Q 1382 3936 1171 3917 
L 1171 2246 
L 1613 2246 
Q 1933 2246 2189 2278 
Q 2445 2310 2621 2400 
Q 2797 2490 2893 2653 
Q 2989 2816 2989 3085 
Q 2989 3334 2893 3500 
Q 2797 3667 2633 3763 
Q 2470 3859 2249 3897 
Q 2029 3936 1779 3936 
z
" transform="scale(0.015625)"/>
       <path id="Ubuntu-65" d="M 326 1658 
Q 326 2099 454 2428 
Q 582 2758 793 2976 
Q 1005 3194 1280 3302 
Q 1555 3411 1843 3411 
Q 2515 3411 2873 2992 
Q 3232 2573 3232 1715 
Q 3232 1677 3232 1616 
Q 3232 1555 3226 1504 
L 947 1504 
Q 986 986 1248 717 
Q 1510 448 2067 448 
Q 2381 448 2595 502 
Q 2810 557 2918 608 
L 3002 109 
Q 2893 51 2621 -13 
Q 2349 -77 2003 -77 
Q 1568 -77 1251 54 
Q 934 186 729 416 
Q 525 646 425 963 
Q 326 1280 326 1658 
z
M 2611 1984 
Q 2618 2387 2410 2646 
Q 2202 2906 1837 2906 
Q 1632 2906 1475 2826 
Q 1318 2746 1209 2618 
Q 1101 2490 1040 2323 
Q 979 2157 960 1984 
L 2611 1984 
z
" transform="scale(0.015625)"/>
       <path id="Ubuntu-73" d="M 1286 429 
Q 1651 429 1827 525 
Q 2003 621 2003 832 
Q 2003 1050 1830 1178 
Q 1658 1306 1261 1466 
Q 1069 1542 893 1622 
Q 717 1702 589 1811 
Q 461 1920 384 2073 
Q 307 2227 307 2451 
Q 307 2893 633 3152 
Q 960 3411 1523 3411 
Q 1664 3411 1805 3395 
Q 1946 3379 2067 3356 
Q 2189 3334 2281 3308 
Q 2374 3283 2426 3264 
L 2317 2752 
Q 2221 2803 2016 2857 
Q 1811 2912 1523 2912 
Q 1274 2912 1088 2813 
Q 902 2714 902 2502 
Q 902 2394 944 2310 
Q 986 2227 1072 2160 
Q 1158 2093 1286 2035 
Q 1414 1978 1594 1914 
Q 1830 1824 2016 1737 
Q 2202 1651 2333 1536 
Q 2464 1421 2534 1257 
Q 2605 1094 2605 858 
Q 2605 397 2262 160 
Q 1920 -77 1286 -77 
Q 845 -77 595 -3 
Q 346 70 256 109 
L 365 621 
Q 467 582 691 505 
Q 915 429 1286 429 
z
" transform="scale(0.015625)"/>
       <path id="Ubuntu-69" d="M 1107 0 
L 512 0 
L 512 3328 
L 1107 3328 
L 1107 0 
z
M 806 3930 
Q 646 3930 534 4035 
Q 422 4141 422 4320 
Q 422 4499 534 4604 
Q 646 4710 806 4710 
Q 966 4710 1078 4604 
Q 1190 4499 1190 4320 
Q 1190 4141 1078 4035 
Q 966 3930 806 3930 
z
" transform="scale(0.015625)"/>
       <path id="Ubuntu-64" d="M 2662 2624 
Q 2554 2714 2349 2797 
Q 2144 2880 1901 2880 
Q 1645 2880 1462 2787 
Q 1280 2694 1165 2531 
Q 1050 2368 998 2144 
Q 947 1920 947 1664 
Q 947 1082 1235 765 
Q 1523 448 2003 448 
Q 2246 448 2409 470 
Q 2573 493 2662 518 
L 2662 2624 
z
M 2662 4864 
L 3258 4966 
L 3258 96 
Q 3053 38 2733 -19 
Q 2413 -77 1997 -77 
Q 1613 -77 1305 44 
Q 998 166 780 390 
Q 563 614 444 937 
Q 326 1261 326 1664 
Q 326 2048 425 2368 
Q 525 2688 717 2918 
Q 909 3149 1187 3277 
Q 1466 3405 1824 3405 
Q 2112 3405 2333 3328 
Q 2554 3251 2662 3181 
L 2662 4864 
z
" transform="scale(0.015625)"/>
       <path id="Ubuntu-75" d="M 3162 96 
Q 2957 45 2621 -12 
Q 2285 -70 1843 -70 
Q 1459 -70 1196 42 
Q 934 154 774 358 
Q 614 563 544 841 
Q 474 1120 474 1459 
L 474 3328 
L 1069 3328 
L 1069 1587 
Q 1069 979 1261 716 
Q 1453 454 1907 454 
Q 2003 454 2105 460 
Q 2208 467 2297 476 
Q 2387 486 2460 496 
Q 2534 506 2566 518 
L 2566 3328 
L 3162 3328 
L 3162 96 
z
" transform="scale(0.015625)"/>
       <path id="Ubuntu-61" d="M 1638 429 
Q 1850 429 2013 438 
Q 2176 448 2285 474 
L 2285 1466 
Q 2221 1498 2077 1520 
Q 1933 1542 1728 1542 
Q 1594 1542 1443 1523 
Q 1293 1504 1168 1443 
Q 1043 1382 960 1276 
Q 877 1171 877 998 
Q 877 678 1081 553 
Q 1286 429 1638 429 
z
M 1587 3411 
Q 1946 3411 2192 3318 
Q 2438 3226 2588 3056 
Q 2739 2886 2803 2652 
Q 2867 2419 2867 2138 
L 2867 58 
Q 2790 45 2652 22 
Q 2515 0 2342 -19 
Q 2170 -38 1968 -54 
Q 1766 -70 1568 -70 
Q 1286 -70 1049 -12 
Q 813 45 640 169 
Q 467 294 371 499 
Q 275 704 275 992 
Q 275 1267 387 1465 
Q 499 1664 691 1785 
Q 883 1907 1139 1964 
Q 1395 2022 1677 2022 
Q 1766 2022 1862 2012 
Q 1958 2003 2044 1987 
Q 2131 1971 2195 1958 
Q 2259 1946 2285 1939 
L 2285 2106 
Q 2285 2253 2253 2397 
Q 2221 2541 2137 2653 
Q 2054 2765 1910 2832 
Q 1766 2899 1536 2899 
Q 1242 2899 1021 2857 
Q 800 2816 691 2771 
L 621 3264 
Q 736 3315 1005 3363 
Q 1274 3411 1587 3411 
z
" transform="scale(0.015625)"/>
       <path id="Ubuntu-6c" d="M 1510 -64 
Q 960 -51 729 173 
Q 499 397 499 870 
L 499 4864 
L 1094 4966 
L 1094 966 
Q 1094 819 1120 723 
Q 1146 627 1203 569 
Q 1261 512 1357 483 
Q 1453 454 1594 435 
L 1510 -64 
z
" transform="scale(0.015625)"/>
      </defs>
      <use xlink:href="#Ubuntu-52"/>
      <use xlink:href="#Ubuntu-65" x="62.899994"/>
      <use xlink:href="#Ubuntu-73" x="118.799988"/>
      <use xlink:href="#Ubuntu-69" x="163.399979"/>
      <use xlink:href="#Ubuntu-64" x="188.699966"/>
      <use xlink:href="#Ubuntu-75" x="247.59996"/>
      <use xlink:href="#Ubuntu-61" x="304.999954"/>
      <use xlink:href="#Ubuntu-6c" x="357.199951"/>
      <use xlink:href="#Ubuntu-73" x="384.499939"/>
     </g>
    </g>
    <g id="patch_5">
     <path d="M 146.819687 16.6075 
L 162.819687 16.6075 
L 162.819687 11.0075 
L 146.819687 11.0075 
z
" style="fill: #5b5b5b; fill-opacity: 0.25; stroke: #5b5b5b; stroke-width: 0.01; stroke-linejoin: miter"/>
    </g>
    <g id="text_17">
     <!-- Normal -->
     <g style="fill: #4b4b4b" transform="translate(169.219687 16.6075) scale(0.08 -0.08)">
      <defs>
       <path id="Ubuntu-4e" d="M 3590 0 
Q 3450 237 3267 531 
Q 3085 826 2873 1142 
Q 2662 1459 2435 1785 
Q 2208 2112 1984 2416 
Q 1760 2720 1549 2989 
Q 1338 3258 1158 3462 
L 1158 0 
L 550 0 
L 550 4435 
L 1043 4435 
Q 1344 4115 1686 3689 
Q 2029 3264 2365 2813 
Q 2701 2362 2998 1926 
Q 3296 1491 3501 1152 
L 3501 4435 
L 4109 4435 
L 4109 0 
L 3590 0 
z
" transform="scale(0.015625)"/>
       <path id="Ubuntu-6f" d="M 3450 1664 
Q 3450 1267 3334 947 
Q 3219 627 3011 396 
Q 2803 166 2515 41 
Q 2227 -83 1888 -83 
Q 1549 -83 1261 41 
Q 973 166 765 396 
Q 557 627 441 947 
Q 326 1267 326 1664 
Q 326 2054 441 2377 
Q 557 2701 765 2931 
Q 973 3162 1261 3286 
Q 1549 3411 1888 3411 
Q 2227 3411 2515 3286 
Q 2803 3162 3011 2931 
Q 3219 2701 3334 2377 
Q 3450 2054 3450 1664 
z
M 2829 1664 
Q 2829 2227 2576 2556 
Q 2323 2886 1888 2886 
Q 1453 2886 1200 2556 
Q 947 2227 947 1664 
Q 947 1101 1200 771 
Q 1453 442 1888 442 
Q 2323 442 2576 771 
Q 2829 1101 2829 1664 
z
" transform="scale(0.015625)"/>
       <path id="Ubuntu-72" d="M 1741 3398 
Q 1818 3398 1917 3388 
Q 2016 3379 2112 3363 
Q 2208 3347 2288 3331 
Q 2368 3315 2406 3302 
L 2304 2784 
Q 2234 2810 2070 2845 
Q 1907 2880 1651 2880 
Q 1485 2880 1321 2845 
Q 1158 2810 1107 2797 
L 1107 0 
L 512 0 
L 512 3187 
Q 723 3264 1036 3331 
Q 1350 3398 1741 3398 
z
" transform="scale(0.015625)"/>
       <path id="Ubuntu-6d" d="M 512 3232 
Q 717 3283 1053 3340 
Q 1389 3398 1830 3398 
Q 2150 3398 2368 3312 
Q 2586 3226 2733 3059 
Q 2778 3091 2874 3148 
Q 2970 3206 3110 3260 
Q 3251 3315 3424 3356 
Q 3597 3398 3795 3398 
Q 4179 3398 4422 3286 
Q 4666 3174 4803 2969 
Q 4941 2765 4989 2483 
Q 5037 2202 5037 1869 
L 5037 0 
L 4442 0 
L 4442 1741 
Q 4442 2035 4413 2246 
Q 4384 2458 4304 2598 
Q 4224 2739 4086 2806 
Q 3949 2874 3731 2874 
Q 3430 2874 3235 2794 
Q 3040 2714 2970 2650 
Q 3021 2483 3046 2284 
Q 3072 2086 3072 1869 
L 3072 0 
L 2477 0 
L 2477 1741 
Q 2477 2035 2445 2246 
Q 2413 2458 2333 2598 
Q 2253 2739 2115 2806 
Q 1978 2874 1766 2874 
Q 1677 2874 1574 2867 
Q 1472 2861 1379 2851 
Q 1286 2842 1209 2829 
Q 1133 2816 1107 2810 
L 1107 0 
L 512 0 
L 512 3232 
z
" transform="scale(0.015625)"/>
      </defs>
      <use xlink:href="#Ubuntu-4e"/>
      <use xlink:href="#Ubuntu-6f" x="72.799988"/>
      <use xlink:href="#Ubuntu-72" x="131.799973"/>
      <use xlink:href="#Ubuntu-6d" x="170.399963"/>
      <use xlink:href="#Ubuntu-61" x="256.499954"/>
      <use xlink:href="#Ubuntu-6c" x="308.699951"/>
     </g>
    </g>
   </g>
  </g>
 </g>
 <defs>
  <clipPath id="p13de3a67af">
   <rect x="66.890938" y="25.2875" width="446.4" height="110.88"/>
  </clipPath>
 </defs>
</svg>
