<?xml version="1.0" encoding="utf-8" standalone="no"?>
<!DOCTYPE svg PUBLIC "-//W3C//DTD SVG 1.1//EN"
  "http://www.w3.org/Graphics/SVG/1.1/DTD/svg11.dtd">
<svg xmlns:xlink="http://www.w3.org/1999/xlink" width="527.727592pt" height="132.375pt" viewBox="0 0 527.727592 132.375" xmlns="http://www.w3.org/2000/svg" version="1.1">
 <metadata>
  <rdf:RDF xmlns:dc="http://purl.org/dc/elements/1.1/" xmlns:cc="http://creativecommons.org/ns#" xmlns:rdf="http://www.w3.org/1999/02/22-rdf-syntax-ns#">
   <cc:Work>
    <dc:type rdf:resource="http://purl.org/dc/dcmitype/StillImage"/>
    <dc:date>2024-04-17T20:43:23.567083</dc:date>
    <dc:format>image/svg+xml</dc:format>
    <dc:creator>
     <cc:Agent>
      <dc:title>Matplotlib v3.8.3, https://matplotlib.org/</dc:title>
     </cc:Agent>
    </dc:creator>
   </cc:Work>
  </rdf:RDF>
 </metadata>
 <defs>
  <style type="text/css">*{stroke-linejoin: round; stroke-linecap: butt}</style>
 </defs>
 <g id="figure_1">
  <g id="patch_1">
   <path d="M 0 132.375 
L 527.727592 132.375 
L 527.727592 0 
L 0 0 
L 0 132.375 
z
" style="fill: none"/>
  </g>
  <g id="axes_1">
   <g id="patch_2">
    <path d="M 65.410938 93.46375 
L 511.810937 93.46375 
L 511.810937 10.30375 
L 65.410938 10.30375 
L 65.410938 93.46375 
z
" style="fill: none"/>
   </g>
   <g id="matplotlib.axis_1">
    <g id="xtick_1">
     <g id="line2d_1">
      <defs>
       <path id="mba120b4614" d="M 0 0 
L 0 3 
" style="stroke: #a4b0bb; stroke-width: 0.75"/>
      </defs>
      <g>
       <use xlink:href="#mba120b4614" x="69.787408" y="108.46375" style="fill: #a4b0bb; stroke: #a4b0bb; stroke-width: 0.75"/>
      </g>
     </g>
     <g id="text_1">
      <!-- Monday -->
      <g style="fill: #707f8d" transform="translate(55.274908 123.67125) scale(0.08 -0.08)">
       <defs>
        <path id="Ubuntu-4d" d="M 2541 614 
Q 2477 768 2371 1005 
Q 2266 1242 2144 1517 
Q 2022 1792 1884 2083 
Q 1747 2374 1625 2633 
Q 1504 2893 1398 3097 
Q 1293 3302 1229 3411 
Q 1158 2656 1113 1776 
Q 1069 896 1037 0 
L 429 0 
Q 454 576 486 1161 
Q 518 1747 560 2313 
Q 602 2880 650 3417 
Q 698 3955 755 4435 
L 1299 4435 
Q 1472 4154 1670 3770 
Q 1869 3386 2067 2966 
Q 2266 2547 2451 2128 
Q 2637 1709 2790 1363 
Q 2944 1709 3129 2128 
Q 3315 2547 3513 2966 
Q 3712 3386 3910 3770 
Q 4109 4154 4282 4435 
L 4826 4435 
Q 5043 2291 5152 0 
L 4544 0 
Q 4512 896 4467 1776 
Q 4422 2656 4352 3411 
Q 4288 3302 4182 3097 
Q 4077 2893 3955 2633 
Q 3834 2374 3696 2083 
Q 3558 1792 3436 1517 
Q 3315 1242 3209 1005 
Q 3104 768 3040 614 
L 2541 614 
z
" transform="scale(0.015625)"/>
        <path id="Ubuntu-6f" d="M 3450 1664 
Q 3450 1267 3334 947 
Q 3219 627 3011 396 
Q 2803 166 2515 41 
Q 2227 -83 1888 -83 
Q 1549 -83 1261 41 
Q 973 166 765 396 
Q 557 627 441 947 
Q 326 1267 326 1664 
Q 326 2054 441 2377 
Q 557 2701 765 2931 
Q 973 3162 1261 3286 
Q 1549 3411 1888 3411 
Q 2227 3411 2515 3286 
Q 2803 3162 3011 2931 
Q 3219 2701 3334 2377 
Q 3450 2054 3450 1664 
z
M 2829 1664 
Q 2829 2227 2576 2556 
Q 2323 2886 1888 2886 
Q 1453 2886 1200 2556 
Q 947 2227 947 1664 
Q 947 1101 1200 771 
Q 1453 442 1888 442 
Q 2323 442 2576 771 
Q 2829 1101 2829 1664 
z
" transform="scale(0.015625)"/>
        <path id="Ubuntu-6e" d="M 512 3232 
Q 717 3283 1056 3340 
Q 1395 3398 1837 3398 
Q 2234 3398 2496 3286 
Q 2758 3174 2915 2972 
Q 3072 2771 3136 2489 
Q 3200 2208 3200 1869 
L 3200 0 
L 2605 0 
L 2605 1741 
Q 2605 2048 2563 2265 
Q 2522 2483 2426 2617 
Q 2330 2752 2170 2813 
Q 2010 2874 1773 2874 
Q 1677 2874 1574 2867 
Q 1472 2861 1379 2851 
Q 1286 2842 1212 2829 
Q 1139 2816 1107 2810 
L 1107 0 
L 512 0 
L 512 3232 
z
" transform="scale(0.015625)"/>
        <path id="Ubuntu-64" d="M 2662 2624 
Q 2554 2714 2349 2797 
Q 2144 2880 1901 2880 
Q 1645 2880 1462 2787 
Q 1280 2694 1165 2531 
Q 1050 2368 998 2144 
Q 947 1920 947 1664 
Q 947 1082 1235 765 
Q 1523 448 2003 448 
Q 2246 448 2409 470 
Q 2573 493 2662 518 
L 2662 2624 
z
M 2662 4864 
L 3258 4966 
L 3258 96 
Q 3053 38 2733 -19 
Q 2413 -77 1997 -77 
Q 1613 -77 1305 44 
Q 998 166 780 390 
Q 563 614 444 937 
Q 326 1261 326 1664 
Q 326 2048 425 2368 
Q 525 2688 717 2918 
Q 909 3149 1187 3277 
Q 1466 3405 1824 3405 
Q 2112 3405 2333 3328 
Q 2554 3251 2662 3181 
L 2662 4864 
z
" transform="scale(0.015625)"/>
        <path id="Ubuntu-61" d="M 1638 429 
Q 1850 429 2013 438 
Q 2176 448 2285 474 
L 2285 1466 
Q 2221 1498 2077 1520 
Q 1933 1542 1728 1542 
Q 1594 1542 1443 1523 
Q 1293 1504 1168 1443 
Q 1043 1382 960 1276 
Q 877 1171 877 998 
Q 877 678 1081 553 
Q 1286 429 1638 429 
z
M 1587 3411 
Q 1946 3411 2192 3318 
Q 2438 3226 2588 3056 
Q 2739 2886 2803 2652 
Q 2867 2419 2867 2138 
L 2867 58 
Q 2790 45 2652 22 
Q 2515 0 2342 -19 
Q 2170 -38 1968 -54 
Q 1766 -70 1568 -70 
Q 1286 -70 1049 -12 
Q 813 45 640 169 
Q 467 294 371 499 
Q 275 704 275 992 
Q 275 1267 387 1465 
Q 499 1664 691 1785 
Q 883 1907 1139 1964 
Q 1395 2022 1677 2022 
Q 1766 2022 1862 2012 
Q 1958 2003 2044 1987 
Q 2131 1971 2195 1958 
Q 2259 1946 2285 1939 
L 2285 2106 
Q 2285 2253 2253 2397 
Q 2221 2541 2137 2653 
Q 2054 2765 1910 2832 
Q 1766 2899 1536 2899 
Q 1242 2899 1021 2857 
Q 800 2816 691 2771 
L 621 3264 
Q 736 3315 1005 3363 
Q 1274 3411 1587 3411 
z
" transform="scale(0.015625)"/>
        <path id="Ubuntu-79" d="M 122 -621 
Q 192 -653 304 -681 
Q 416 -710 525 -710 
Q 877 -710 1075 -553 
Q 1274 -397 1434 -45 
Q 1030 723 681 1584 
Q 333 2445 102 3328 
L 742 3328 
Q 813 3040 912 2707 
Q 1011 2374 1132 2022 
Q 1254 1670 1395 1318 
Q 1536 966 1690 640 
Q 1933 1312 2112 1971 
Q 2291 2630 2451 3328 
L 3066 3328 
Q 2835 2387 2553 1520 
Q 2272 653 1946 -102 
Q 1818 -390 1680 -598 
Q 1542 -806 1376 -940 
Q 1210 -1075 1002 -1139 
Q 794 -1203 531 -1203 
Q 461 -1203 384 -1193 
Q 307 -1184 233 -1168 
Q 160 -1152 99 -1133 
Q 38 -1114 13 -1101 
L 122 -621 
z
" transform="scale(0.015625)"/>
       </defs>
       <use xlink:href="#Ubuntu-4d"/>
       <use xlink:href="#Ubuntu-6f" x="87.099991"/>
       <use xlink:href="#Ubuntu-6e" x="146.099976"/>
       <use xlink:href="#Ubuntu-64" x="203.499969"/>
       <use xlink:href="#Ubuntu-61" x="262.399963"/>
       <use xlink:href="#Ubuntu-79" x="313.09996"/>
      </g>
     </g>
    </g>
    <g id="xtick_2">
     <g id="line2d_2">
      <g>
       <use xlink:href="#mba120b4614" x="142.728585" y="108.46375" style="fill: #a4b0bb; stroke: #a4b0bb; stroke-width: 0.75"/>
      </g>
     </g>
     <g id="text_2">
      <!-- Tuesday -->
      <g style="fill: #707f8d" transform="translate(127.914835 123.67125) scale(0.08 -0.08)">
       <defs>
        <path id="Ubuntu-54" d="M 3514 4435 
L 3514 3898 
L 2118 3898 
L 2118 0 
L 1498 0 
L 1498 3898 
L 102 3898 
L 102 4435 
L 3514 4435 
z
" transform="scale(0.015625)"/>
        <path id="Ubuntu-75" d="M 3162 96 
Q 2957 45 2621 -12 
Q 2285 -70 1843 -70 
Q 1459 -70 1196 42 
Q 934 154 774 358 
Q 614 563 544 841 
Q 474 1120 474 1459 
L 474 3328 
L 1069 3328 
L 1069 1587 
Q 1069 979 1261 716 
Q 1453 454 1907 454 
Q 2003 454 2105 460 
Q 2208 467 2297 476 
Q 2387 486 2460 496 
Q 2534 506 2566 518 
L 2566 3328 
L 3162 3328 
L 3162 96 
z
" transform="scale(0.015625)"/>
        <path id="Ubuntu-65" d="M 326 1658 
Q 326 2099 454 2428 
Q 582 2758 793 2976 
Q 1005 3194 1280 3302 
Q 1555 3411 1843 3411 
Q 2515 3411 2873 2992 
Q 3232 2573 3232 1715 
Q 3232 1677 3232 1616 
Q 3232 1555 3226 1504 
L 947 1504 
Q 986 986 1248 717 
Q 1510 448 2067 448 
Q 2381 448 2595 502 
Q 2810 557 2918 608 
L 3002 109 
Q 2893 51 2621 -13 
Q 2349 -77 2003 -77 
Q 1568 -77 1251 54 
Q 934 186 729 416 
Q 525 646 425 963 
Q 326 1280 326 1658 
z
M 2611 1984 
Q 2618 2387 2410 2646 
Q 2202 2906 1837 2906 
Q 1632 2906 1475 2826 
Q 1318 2746 1209 2618 
Q 1101 2490 1040 2323 
Q 979 2157 960 1984 
L 2611 1984 
z
" transform="scale(0.015625)"/>
        <path id="Ubuntu-73" d="M 1286 429 
Q 1651 429 1827 525 
Q 2003 621 2003 832 
Q 2003 1050 1830 1178 
Q 1658 1306 1261 1466 
Q 1069 1542 893 1622 
Q 717 1702 589 1811 
Q 461 1920 384 2073 
Q 307 2227 307 2451 
Q 307 2893 633 3152 
Q 960 3411 1523 3411 
Q 1664 3411 1805 3395 
Q 1946 3379 2067 3356 
Q 2189 3334 2281 3308 
Q 2374 3283 2426 3264 
L 2317 2752 
Q 2221 2803 2016 2857 
Q 1811 2912 1523 2912 
Q 1274 2912 1088 2813 
Q 902 2714 902 2502 
Q 902 2394 944 2310 
Q 986 2227 1072 2160 
Q 1158 2093 1286 2035 
Q 1414 1978 1594 1914 
Q 1830 1824 2016 1737 
Q 2202 1651 2333 1536 
Q 2464 1421 2534 1257 
Q 2605 1094 2605 858 
Q 2605 397 2262 160 
Q 1920 -77 1286 -77 
Q 845 -77 595 -3 
Q 346 70 256 109 
L 365 621 
Q 467 582 691 505 
Q 915 429 1286 429 
z
" transform="scale(0.015625)"/>
       </defs>
       <use xlink:href="#Ubuntu-54"/>
       <use xlink:href="#Ubuntu-75" x="53.124985"/>
       <use xlink:href="#Ubuntu-65" x="110.524979"/>
       <use xlink:href="#Ubuntu-73" x="166.424973"/>
       <use xlink:href="#Ubuntu-64" x="211.024963"/>
       <use xlink:href="#Ubuntu-61" x="269.924957"/>
       <use xlink:href="#Ubuntu-79" x="320.624954"/>
      </g>
     </g>
    </g>
    <g id="xtick_3">
     <g id="line2d_3">
      <g>
       <use xlink:href="#mba120b4614" x="215.669761" y="108.46375" style="fill: #a4b0bb; stroke: #a4b0bb; stroke-width: 0.75"/>
      </g>
     </g>
     <g id="text_3">
      <!-- Wednesday -->
      <g style="fill: #707f8d" transform="translate(194.762261 123.67125) scale(0.08 -0.08)">
       <defs>
        <path id="Ubuntu-57" d="M 2976 3008 
Q 2707 2150 2432 1420 
Q 2157 691 1882 0 
L 1261 0 
Q 922 979 662 2067 
Q 403 3155 179 4435 
L 832 4435 
Q 922 3936 1018 3437 
Q 1114 2938 1216 2467 
Q 1318 1997 1420 1568 
Q 1523 1139 1632 774 
Q 1888 1446 2176 2249 
Q 2464 3053 2714 3910 
L 3251 3910 
Q 3501 3053 3795 2249 
Q 4090 1446 4346 774 
Q 4448 1133 4550 1561 
Q 4653 1990 4752 2460 
Q 4851 2931 4947 3433 
Q 5043 3936 5133 4435 
L 5766 4435 
Q 5536 3155 5277 2067 
Q 5018 979 4685 0 
L 4064 0 
Q 3782 691 3513 1420 
Q 3245 2150 2976 3008 
z
" transform="scale(0.015625)"/>
       </defs>
       <use xlink:href="#Ubuntu-57"/>
       <use xlink:href="#Ubuntu-65" x="90.649994"/>
       <use xlink:href="#Ubuntu-64" x="146.549988"/>
       <use xlink:href="#Ubuntu-6e" x="205.449982"/>
       <use xlink:href="#Ubuntu-65" x="262.849976"/>
       <use xlink:href="#Ubuntu-73" x="318.749969"/>
       <use xlink:href="#Ubuntu-64" x="363.34996"/>
       <use xlink:href="#Ubuntu-61" x="422.249954"/>
       <use xlink:href="#Ubuntu-79" x="472.949951"/>
      </g>
     </g>
    </g>
    <g id="xtick_4">
     <g id="line2d_4">
      <g>
       <use xlink:href="#mba120b4614" x="288.610938" y="108.46375" style="fill: #a4b0bb; stroke: #a4b0bb; stroke-width: 0.75"/>
      </g>
     </g>
     <g id="text_4">
      <!-- Thursday -->
      <g style="fill: #707f8d" transform="translate(272.070938 123.67125) scale(0.08 -0.08)">
       <defs>
        <path id="Ubuntu-68" d="M 512 0 
L 512 4864 
L 1107 4966 
L 1107 3264 
Q 1274 3328 1462 3363 
Q 1651 3398 1837 3398 
Q 2234 3398 2496 3286 
Q 2758 3174 2915 2972 
Q 3072 2771 3136 2489 
Q 3200 2208 3200 1869 
L 3200 0 
L 2605 0 
L 2605 1741 
Q 2605 2048 2563 2265 
Q 2522 2483 2426 2617 
Q 2330 2752 2170 2813 
Q 2010 2874 1773 2874 
Q 1677 2874 1574 2861 
Q 1472 2848 1379 2832 
Q 1286 2816 1212 2797 
Q 1139 2778 1107 2765 
L 1107 0 
L 512 0 
z
" transform="scale(0.015625)"/>
        <path id="Ubuntu-72" d="M 1741 3398 
Q 1818 3398 1917 3388 
Q 2016 3379 2112 3363 
Q 2208 3347 2288 3331 
Q 2368 3315 2406 3302 
L 2304 2784 
Q 2234 2810 2070 2845 
Q 1907 2880 1651 2880 
Q 1485 2880 1321 2845 
Q 1158 2810 1107 2797 
L 1107 0 
L 512 0 
L 512 3187 
Q 723 3264 1036 3331 
Q 1350 3398 1741 3398 
z
" transform="scale(0.015625)"/>
       </defs>
       <use xlink:href="#Ubuntu-54"/>
       <use xlink:href="#Ubuntu-68" x="56.499985"/>
       <use xlink:href="#Ubuntu-75" x="113.599976"/>
       <use xlink:href="#Ubuntu-72" x="170.999969"/>
       <use xlink:href="#Ubuntu-73" x="209.59996"/>
       <use xlink:href="#Ubuntu-64" x="254.199951"/>
       <use xlink:href="#Ubuntu-61" x="313.099945"/>
       <use xlink:href="#Ubuntu-79" x="363.799942"/>
      </g>
     </g>
    </g>
    <g id="xtick_5">
     <g id="line2d_5">
      <g>
       <use xlink:href="#mba120b4614" x="361.552114" y="108.46375" style="fill: #a4b0bb; stroke: #a4b0bb; stroke-width: 0.75"/>
      </g>
     </g>
     <g id="text_5">
      <!-- Friday -->
      <g style="fill: #707f8d" transform="translate(350.585864 123.67125) scale(0.08 -0.08)">
       <defs>
        <path id="Ubuntu-46" d="M 550 0 
L 550 4435 
L 3226 4435 
L 3226 3904 
L 1171 3904 
L 1171 2566 
L 2995 2566 
L 2995 2042 
L 1171 2042 
L 1171 0 
L 550 0 
z
" transform="scale(0.015625)"/>
        <path id="Ubuntu-69" d="M 1107 0 
L 512 0 
L 512 3328 
L 1107 3328 
L 1107 0 
z
M 806 3930 
Q 646 3930 534 4035 
Q 422 4141 422 4320 
Q 422 4499 534 4604 
Q 646 4710 806 4710 
Q 966 4710 1078 4604 
Q 1190 4499 1190 4320 
Q 1190 4141 1078 4035 
Q 966 3930 806 3930 
z
" transform="scale(0.015625)"/>
       </defs>
       <use xlink:href="#Ubuntu-46"/>
       <use xlink:href="#Ubuntu-72" x="50.949997"/>
       <use xlink:href="#Ubuntu-69" x="89.549988"/>
       <use xlink:href="#Ubuntu-64" x="114.849976"/>
       <use xlink:href="#Ubuntu-61" x="173.749969"/>
       <use xlink:href="#Ubuntu-79" x="224.449966"/>
      </g>
     </g>
    </g>
    <g id="xtick_6">
     <g id="line2d_6">
      <g>
       <use xlink:href="#mba120b4614" x="434.49329" y="108.46375" style="fill: #a4b0bb; stroke: #a4b0bb; stroke-width: 0.75"/>
      </g>
     </g>
     <g id="text_6">
      <!-- Saturday -->
      <g style="fill: #707f8d" transform="translate(418.456415 123.67125) scale(0.08 -0.08)">
       <defs>
        <path id="Ubuntu-53" d="M 1581 442 
Q 2554 442 2554 1107 
Q 2554 1312 2467 1456 
Q 2381 1600 2233 1705 
Q 2086 1811 1897 1888 
Q 1709 1965 1498 2042 
Q 1254 2125 1036 2230 
Q 819 2336 659 2480 
Q 499 2624 406 2822 
Q 314 3021 314 3302 
Q 314 3885 710 4211 
Q 1107 4538 1805 4538 
Q 2208 4538 2537 4451 
Q 2867 4365 3021 4262 
L 2822 3757 
Q 2688 3840 2422 3920 
Q 2157 4000 1805 4000 
Q 1626 4000 1472 3961 
Q 1318 3923 1203 3846 
Q 1088 3770 1021 3651 
Q 954 3533 954 3373 
Q 954 3194 1024 3072 
Q 1094 2950 1222 2857 
Q 1350 2765 1520 2688 
Q 1690 2611 1894 2534 
Q 2182 2419 2422 2304 
Q 2662 2189 2838 2029 
Q 3014 1869 3110 1648 
Q 3206 1427 3206 1114 
Q 3206 531 2780 217 
Q 2355 -96 1581 -96 
Q 1318 -96 1097 -61 
Q 877 -26 704 22 
Q 531 70 406 124 
Q 282 179 211 218 
L 397 730 
Q 544 646 845 544 
Q 1146 442 1581 442 
z
" transform="scale(0.015625)"/>
        <path id="Ubuntu-74" d="M 1069 3328 
L 2330 3328 
L 2330 2829 
L 1069 2829 
L 1069 1293 
Q 1069 1043 1107 880 
Q 1146 717 1222 624 
Q 1299 531 1414 492 
Q 1530 454 1683 454 
Q 1952 454 2115 515 
Q 2278 576 2342 602 
L 2458 109 
Q 2368 64 2144 -3 
Q 1920 -70 1632 -70 
Q 1293 -70 1072 16 
Q 851 102 716 275 
Q 582 448 528 701 
Q 474 954 474 1286 
L 474 4256 
L 1069 4358 
L 1069 3328 
z
" transform="scale(0.015625)"/>
       </defs>
       <use xlink:href="#Ubuntu-53"/>
       <use xlink:href="#Ubuntu-61" x="53.199997"/>
       <use xlink:href="#Ubuntu-74" x="105.399994"/>
       <use xlink:href="#Ubuntu-75" x="145.599991"/>
       <use xlink:href="#Ubuntu-72" x="202.999985"/>
       <use xlink:href="#Ubuntu-64" x="241.599976"/>
       <use xlink:href="#Ubuntu-61" x="300.499969"/>
       <use xlink:href="#Ubuntu-79" x="351.199966"/>
      </g>
     </g>
    </g>
    <g id="xtick_7">
     <g id="line2d_7">
      <g>
       <use xlink:href="#mba120b4614" x="507.434467" y="108.46375" style="fill: #a4b0bb; stroke: #a4b0bb; stroke-width: 0.75"/>
      </g>
     </g>
     <g id="text_7">
      <!-- Sunday -->
      <g style="fill: #707f8d" transform="translate(494.341342 123.67125) scale(0.08 -0.08)">
       <use xlink:href="#Ubuntu-53"/>
       <use xlink:href="#Ubuntu-75" x="53.199997"/>
       <use xlink:href="#Ubuntu-6e" x="110.599991"/>
       <use xlink:href="#Ubuntu-64" x="167.999985"/>
       <use xlink:href="#Ubuntu-61" x="226.899979"/>
       <use xlink:href="#Ubuntu-79" x="277.599976"/>
      </g>
     </g>
    </g>
   </g>
   <g id="matplotlib.axis_2">
    <g id="ytick_1">
     <g id="line2d_8">
      <defs>
       <path id="m80848dbcbb" d="M 0 0 
L -3 0 
" style="stroke: #a4b0bb; stroke-width: 0.75"/>
      </defs>
      <g>
       <use xlink:href="#m80848dbcbb" x="55.410938" y="92.602184" style="fill: #a4b0bb; stroke: #a4b0bb; stroke-width: 0.75"/>
      </g>
     </g>
     <g id="text_8">
      <!-- 30500 -->
      <g style="fill: #707f8d" transform="translate(23.848438 95.705934) scale(0.08 -0.08)">
       <defs>
        <path id="Ubuntu-33" d="M 1446 435 
Q 2016 435 2262 659 
Q 2509 883 2509 1261 
Q 2509 1504 2406 1670 
Q 2304 1837 2137 1936 
Q 1971 2035 1750 2076 
Q 1530 2118 1299 2118 
L 1146 2118 
L 1146 2605 
L 1357 2605 
Q 1517 2605 1686 2637 
Q 1856 2669 1997 2752 
Q 2138 2835 2227 2979 
Q 2317 3123 2317 3341 
Q 2317 3520 2253 3648 
Q 2189 3776 2083 3859 
Q 1978 3942 1840 3977 
Q 1702 4013 1549 4013 
Q 1242 4013 1027 3923 
Q 813 3834 666 3738 
L 435 4192 
Q 512 4243 630 4304 
Q 749 4365 896 4416 
Q 1043 4467 1212 4502 
Q 1382 4538 1568 4538 
Q 1920 4538 2176 4451 
Q 2432 4365 2598 4208 
Q 2765 4051 2848 3836 
Q 2931 3622 2931 3373 
Q 2931 3027 2732 2780 
Q 2534 2534 2253 2406 
Q 2426 2355 2586 2259 
Q 2746 2163 2864 2016 
Q 2982 1869 3056 1677 
Q 3130 1485 3130 1248 
Q 3130 960 3030 713 
Q 2931 467 2723 288 
Q 2515 109 2201 6 
Q 1888 -96 1459 -96 
Q 1293 -96 1117 -70 
Q 941 -45 787 -6 
Q 634 32 518 70 
Q 403 109 352 134 
L 467 653 
Q 576 602 829 518 
Q 1082 435 1446 435 
z
" transform="scale(0.015625)"/>
        <path id="Ubuntu-30" d="M 320 2221 
Q 320 3334 713 3936 
Q 1107 4538 1805 4538 
Q 2502 4538 2896 3936 
Q 3290 3334 3290 2221 
Q 3290 1107 2896 505 
Q 2502 -96 1805 -96 
Q 1107 -96 713 505 
Q 320 1107 320 2221 
z
M 2662 2221 
Q 2662 2586 2620 2912 
Q 2579 3238 2480 3481 
Q 2381 3725 2214 3869 
Q 2048 4013 1805 4013 
Q 1562 4013 1395 3869 
Q 1229 3725 1129 3481 
Q 1030 3238 988 2912 
Q 947 2586 947 2221 
Q 947 1856 988 1529 
Q 1030 1203 1129 960 
Q 1229 717 1395 573 
Q 1562 429 1805 429 
Q 2048 429 2214 573 
Q 2381 717 2480 960 
Q 2579 1203 2620 1529 
Q 2662 1856 2662 2221 
z
" transform="scale(0.015625)"/>
        <path id="Ubuntu-35" d="M 1274 2726 
Q 2240 2688 2691 2304 
Q 3142 1920 3142 1261 
Q 3142 966 3043 716 
Q 2944 467 2742 288 
Q 2541 109 2233 6 
Q 1926 -96 1504 -96 
Q 1338 -96 1165 -70 
Q 992 -45 845 -6 
Q 698 32 582 70 
Q 467 109 416 134 
L 531 653 
Q 640 602 886 518 
Q 1133 435 1491 435 
Q 1779 435 1974 499 
Q 2170 563 2291 672 
Q 2413 781 2467 925 
Q 2522 1069 2522 1229 
Q 2522 1472 2438 1661 
Q 2355 1850 2144 1978 
Q 1933 2106 1581 2173 
Q 1229 2240 691 2240 
Q 730 2554 752 2829 
Q 774 3104 793 3366 
Q 813 3629 825 3888 
Q 838 4147 851 4435 
L 2989 4435 
L 2989 3930 
L 1370 3930 
Q 1363 3834 1350 3670 
Q 1338 3507 1325 3331 
Q 1312 3155 1299 2988 
Q 1286 2822 1274 2726 
z
" transform="scale(0.015625)"/>
       </defs>
       <use xlink:href="#Ubuntu-33"/>
       <use xlink:href="#Ubuntu-30" x="56.399994"/>
       <use xlink:href="#Ubuntu-35" x="112.799988"/>
       <use xlink:href="#Ubuntu-30" x="169.199982"/>
       <use xlink:href="#Ubuntu-30" x="225.599976"/>
      </g>
     </g>
    </g>
    <g id="ytick_2">
     <g id="line2d_9">
      <g>
       <use xlink:href="#m80848dbcbb" x="55.410938" y="65.169372" style="fill: #a4b0bb; stroke: #a4b0bb; stroke-width: 0.75"/>
      </g>
     </g>
     <g id="text_9">
      <!-- 31500 -->
      <g style="fill: #707f8d" transform="translate(23.848438 68.273122) scale(0.08 -0.08)">
       <defs>
        <path id="Ubuntu-31" d="M 595 3520 
Q 960 3661 1305 3881 
Q 1651 4102 1939 4435 
L 2362 4435 
L 2362 0 
L 1766 0 
L 1766 3610 
Q 1690 3539 1578 3462 
Q 1466 3386 1334 3315 
Q 1203 3245 1059 3181 
Q 915 3117 781 3072 
L 595 3520 
z
" transform="scale(0.015625)"/>
       </defs>
       <use xlink:href="#Ubuntu-33"/>
       <use xlink:href="#Ubuntu-31" x="56.399994"/>
       <use xlink:href="#Ubuntu-35" x="112.799988"/>
       <use xlink:href="#Ubuntu-30" x="169.199982"/>
       <use xlink:href="#Ubuntu-30" x="225.599976"/>
      </g>
     </g>
    </g>
    <g id="ytick_3">
     <g id="line2d_10">
      <g>
       <use xlink:href="#m80848dbcbb" x="55.410938" y="37.736561" style="fill: #a4b0bb; stroke: #a4b0bb; stroke-width: 0.75"/>
      </g>
     </g>
     <g id="text_10">
      <!-- 32500 -->
      <g style="fill: #707f8d" transform="translate(23.848438 40.840311) scale(0.08 -0.08)">
       <defs>
        <path id="Ubuntu-32" d="M 2989 3302 
Q 2989 3072 2896 2857 
Q 2803 2643 2649 2435 
Q 2496 2227 2304 2025 
Q 2112 1824 1920 1632 
Q 1811 1523 1667 1376 
Q 1523 1229 1395 1069 
Q 1267 909 1180 761 
Q 1094 614 1094 506 
L 3136 506 
L 3136 0 
L 448 0 
Q 442 38 442 76 
Q 442 115 442 147 
Q 442 448 541 707 
Q 640 966 800 1196 
Q 960 1427 1158 1632 
Q 1357 1837 1549 2029 
Q 1709 2182 1853 2332 
Q 1997 2483 2109 2633 
Q 2221 2784 2288 2944 
Q 2355 3104 2355 3283 
Q 2355 3475 2294 3609 
Q 2234 3744 2131 3833 
Q 2029 3923 1891 3964 
Q 1754 4006 1600 4006 
Q 1414 4006 1260 3955 
Q 1107 3904 985 3837 
Q 864 3770 781 3696 
Q 698 3622 653 3584 
L 358 4006 
Q 416 4070 531 4163 
Q 646 4256 806 4339 
Q 966 4422 1164 4480 
Q 1363 4538 1594 4538 
Q 2291 4538 2640 4214 
Q 2989 3891 2989 3302 
z
" transform="scale(0.015625)"/>
       </defs>
       <use xlink:href="#Ubuntu-33"/>
       <use xlink:href="#Ubuntu-32" x="56.399994"/>
       <use xlink:href="#Ubuntu-35" x="112.799988"/>
       <use xlink:href="#Ubuntu-30" x="169.199982"/>
       <use xlink:href="#Ubuntu-30" x="225.599976"/>
      </g>
     </g>
    </g>
    <g id="ytick_4">
     <g id="line2d_11">
      <g>
       <use xlink:href="#m80848dbcbb" x="55.410938" y="10.30375" style="fill: #a4b0bb; stroke: #a4b0bb; stroke-width: 0.75"/>
      </g>
     </g>
     <g id="text_11">
      <!-- 33500 -->
      <g style="fill: #707f8d" transform="translate(23.848438 13.4075) scale(0.08 -0.08)">
       <use xlink:href="#Ubuntu-33"/>
       <use xlink:href="#Ubuntu-33" x="56.399994"/>
       <use xlink:href="#Ubuntu-35" x="112.799988"/>
       <use xlink:href="#Ubuntu-30" x="169.199982"/>
       <use xlink:href="#Ubuntu-30" x="225.599976"/>
      </g>
     </g>
    </g>
    <g id="text_12">
     <!-- target1 -->
     <g style="fill: #3f4f5c" transform="translate(14.156719 42.516719) rotate(-90) scale(0.09 -0.09)">
      <defs>
       <path id="Ubuntu-Bold-74" d="M 416 4205 
L 1370 4358 
L 1370 3366 
L 2515 3366 
L 2515 2573 
L 1370 2573 
L 1370 1389 
Q 1370 1088 1475 909 
Q 1581 730 1901 730 
Q 2054 730 2217 758 
Q 2381 787 2515 838 
L 2650 96 
Q 2477 26 2265 -25 
Q 2054 -77 1747 -77 
Q 1357 -77 1101 28 
Q 845 134 691 323 
Q 538 512 477 781 
Q 416 1050 416 1376 
L 416 4205 
z
" transform="scale(0.015625)"/>
       <path id="Ubuntu-Bold-61" d="M 1734 666 
Q 1875 666 2003 672 
Q 2131 678 2208 691 
L 2208 1414 
Q 2150 1427 2035 1440 
Q 1920 1453 1824 1453 
Q 1690 1453 1571 1437 
Q 1453 1421 1363 1376 
Q 1274 1331 1222 1254 
Q 1171 1178 1171 1062 
Q 1171 838 1321 752 
Q 1472 666 1734 666 
z
M 1658 3456 
Q 2080 3456 2361 3360 
Q 2643 3264 2812 3085 
Q 2982 2906 3052 2650 
Q 3123 2394 3123 2080 
L 3123 96 
Q 2918 51 2553 -9 
Q 2189 -70 1670 -70 
Q 1344 -70 1078 -12 
Q 813 45 621 176 
Q 429 307 326 518 
Q 224 730 224 1037 
Q 224 1331 342 1536 
Q 461 1741 659 1862 
Q 858 1984 1114 2038 
Q 1370 2093 1645 2093 
Q 1830 2093 1974 2077 
Q 2118 2061 2208 2035 
L 2208 2125 
Q 2208 2368 2061 2515 
Q 1914 2662 1549 2662 
Q 1306 2662 1069 2627 
Q 832 2592 659 2528 
L 538 3296 
Q 621 3322 745 3350 
Q 870 3379 1017 3401 
Q 1165 3424 1328 3440 
Q 1491 3456 1658 3456 
z
" transform="scale(0.015625)"/>
       <path id="Ubuntu-Bold-72" d="M 2477 2522 
Q 2349 2554 2176 2589 
Q 2003 2624 1805 2624 
Q 1715 2624 1590 2608 
Q 1466 2592 1402 2573 
L 1402 0 
L 448 0 
L 448 3187 
Q 704 3277 1053 3357 
Q 1402 3437 1830 3437 
Q 1907 3437 2016 3427 
Q 2125 3418 2233 3402 
Q 2342 3386 2451 3363 
Q 2560 3341 2637 3309 
L 2477 2522 
z
" transform="scale(0.015625)"/>
       <path id="Ubuntu-Bold-67" d="M 1261 1792 
Q 1261 992 1907 992 
Q 2054 992 2182 1030 
Q 2310 1069 2400 1120 
L 2400 2643 
Q 2330 2656 2234 2665 
Q 2138 2675 2010 2675 
Q 1632 2675 1446 2425 
Q 1261 2176 1261 1792 
z
M 3354 422 
Q 3354 -403 2934 -803 
Q 2515 -1203 1638 -1203 
Q 1331 -1203 1024 -1148 
Q 717 -1094 454 -1005 
L 621 -205 
Q 845 -294 1091 -345 
Q 1338 -397 1651 -397 
Q 2061 -397 2230 -217 
Q 2400 -38 2400 243 
L 2400 365 
Q 2246 294 2083 259 
Q 1920 224 1728 224 
Q 1030 224 659 637 
Q 288 1050 288 1792 
Q 288 2163 403 2467 
Q 518 2771 739 2988 
Q 960 3206 1280 3324 
Q 1600 3443 2003 3443 
Q 2176 3443 2358 3427 
Q 2541 3411 2720 3385 
Q 2899 3360 3062 3325 
Q 3226 3290 3354 3251 
L 3354 422 
z
" transform="scale(0.015625)"/>
       <path id="Ubuntu-Bold-65" d="M 288 1658 
Q 288 2106 425 2442 
Q 563 2778 787 3002 
Q 1011 3226 1302 3341 
Q 1594 3456 1901 3456 
Q 2618 3456 3034 3017 
Q 3450 2579 3450 1728 
Q 3450 1645 3443 1545 
Q 3437 1446 3430 1370 
L 1267 1370 
Q 1299 1075 1542 902 
Q 1786 730 2195 730 
Q 2458 730 2710 778 
Q 2963 826 3123 896 
L 3251 122 
Q 3174 83 3046 44 
Q 2918 6 2761 -22 
Q 2605 -51 2425 -70 
Q 2246 -90 2067 -90 
Q 1613 -90 1277 44 
Q 941 179 720 412 
Q 499 646 393 966 
Q 288 1286 288 1658 
z
M 2528 2022 
Q 2522 2144 2486 2259 
Q 2451 2374 2377 2464 
Q 2304 2554 2192 2611 
Q 2080 2669 1914 2669 
Q 1754 2669 1638 2614 
Q 1523 2560 1446 2470 
Q 1370 2381 1328 2262 
Q 1286 2144 1267 2022 
L 2528 2022 
z
" transform="scale(0.015625)"/>
       <path id="Ubuntu-Bold-31" d="M 448 3514 
Q 634 3590 835 3689 
Q 1037 3789 1229 3907 
Q 1421 4026 1597 4157 
Q 1773 4288 1914 4435 
L 2579 4435 
L 2579 0 
L 1626 0 
L 1626 3194 
Q 1434 3066 1197 2960 
Q 960 2854 736 2778 
L 448 3514 
z
" transform="scale(0.015625)"/>
      </defs>
      <use xlink:href="#Ubuntu-Bold-74"/>
      <use xlink:href="#Ubuntu-Bold-61" x="42.399994"/>
      <use xlink:href="#Ubuntu-Bold-72" x="97.699982"/>
      <use xlink:href="#Ubuntu-Bold-67" x="138.899979"/>
      <use xlink:href="#Ubuntu-Bold-65" x="198.299973"/>
      <use xlink:href="#Ubuntu-Bold-74" x="256.699966"/>
      <use xlink:href="#Ubuntu-Bold-31" x="301.09996"/>
     </g>
    </g>
   </g>
   <g id="PolyCollection_1">
    <defs>
     <path id="mec4839a805" d="M 69.787408 -107.722669 
L 69.787408 -96.407247 
L 142.728585 -90.771526 
L 215.669761 -102.356319 
L 288.610938 -100.413097 
L 361.552114 -92.744968 
L 434.49329 -91.572244 
L 507.434467 -42.72824 
L 507.434467 -53.617173 
L 507.434467 -53.617173 
L 434.49329 -103.659447 
L 361.552114 -104.231319 
L 288.610938 -112.775064 
L 215.669761 -113.835066 
L 142.728585 -102.314878 
L 69.787408 -107.722669 
z
" style="stroke: #5b5b5b; stroke-opacity: 0.2"/>
    </defs>
    <g clip-path="url(#p6655764dd3)">
     <use xlink:href="#mec4839a805" x="0" y="132.375" style="fill: #5b5b5b; fill-opacity: 0.2; stroke: #5b5b5b; stroke-opacity: 0.2"/>
    </g>
   </g>
   <g id="line2d_12">
    <path d="M 69.787408 30.27407 
L 142.728585 35.877663 
L 215.669761 24.097585 
L 288.610938 25.373098 
L 361.552114 33.970282 
L 434.49329 34.660646 
L 507.434467 84.329635 
" clip-path="url(#p6655764dd3)" style="fill: none; stroke: #5b5b5b; stroke-width: 1.2; stroke-linecap: square"/>
   </g>
   <g id="patch_3">
    <path d="M 55.410938 92.602184 
L 55.410938 10.30375 
" style="fill: none; stroke: #a4b0bb; stroke-width: 0.75; stroke-linejoin: miter; stroke-linecap: square"/>
   </g>
   <g id="patch_4">
    <path d="M 69.787408 108.46375 
L 507.434467 108.46375 
" style="fill: none; stroke: #a4b0bb; stroke-width: 0.75; stroke-linejoin: miter; stroke-linecap: square"/>
   </g>
  </g>
 </g>
 <defs>
  <clipPath id="p6655764dd3">
   <rect x="65.410938" y="10.30375" width="446.4" height="83.16"/>
  </clipPath>
 </defs>
</svg>
